<?xml version="1.0" encoding="UTF-8" standalone="no"?>
<svg version="1.1" height="337.5" width="247.5" xmlns:rdf="http://www.w3.org/1999/02/22-rdf-syntax-ns#" xmlns="http://www.w3.org/2000/svg" xmlns:cc="http://creativecommons.org/ns#" xmlns:xlink="http://www.w3.org/1999/xlink" xmlns:dc="http://purl.org/dc/elements/1.1/" xmlns:sodipodi="http://sodipodi.sourceforge.net/DTD/sodipodi-0.dtd" xmlns:svg="http://www.w3.org/2000/svg" xmlns:inkscape="http://www.inkscape.org/namespaces/inkscape">
<metadata>
  <rdf:RDF>
    <cc:Work rdf:about="">
      <dc:format>image/svg+xml</dc:format>
      <dc:type rdf:resource="http://purl.org/dc/dcmitype/StillImage"/>
      <dc:title/>
      <dc:creator>
        <cc:Agent><dc:title>Gary Kacmarcik</dc:title></cc:Agent>
      </dc:creator>
    </cc:Work>
  </rdf:RDF>
</metadata>

<defs>
  <filter inkscape:label="textureGrassBig" style="color-interpolation-filters:sRGB" id="textureGrassBig">
    <feTurbulence numOctaves="2" seed="102" type="turbulence" baseFrequency="0.070000" result="result1" />
    <feColorMatrix result="result0" in="SourceGraphic" type="luminanceToAlpha" />
    <feColorMatrix result="result2" values="1 0 0 0 0 0 1 0 0 0 0 0 1 0 0 0 0 0 0.4 0 " />
    <feComposite in="result2" operator="over" in2="result1" />
    <feColorMatrix result="result91" values="1 0 0 0 0 0 1 0 0 0 0 0 1 0 0 0 0 0 10 -4 " />
    <feComposite operator="out" in="SourceGraphic" in2="result91" />
    <feGaussianBlur stdDeviation="2.500000" />
    <feColorMatrix values="1 0 0 0 0 0 1 0 0 0 0 0 1 0 0 0 0 0 1 0 " />
  </filter>
  <filter inkscape:label="textureGrassSmall" style="color-interpolation-filters:sRGB" id="textureGrassSmall">
    <feTurbulence numOctaves="4" seed="102" type="turbulence" baseFrequency="0.500000" result="result1" />
    <feColorMatrix result="result0" in="SourceGraphic" type="luminanceToAlpha" />
    <feColorMatrix result="result2" values="1 0 0 0 0 0 1 0 0 0 0 0 1 0 0 0 0 0 0.4 0 " />
    <feComposite in="result2" operator="over" in2="result1" />
    <feColorMatrix result="result91" values="1 0 0 0 0 0 1 0 0 0 0 0 1 0 0 0 0 0 10 -4 " />
    <feComposite operator="out" in="SourceGraphic" in2="result91" />
    <feGaussianBlur stdDeviation="1.000000" />
    <feColorMatrix values="1 0 0 0 0 0 1 0 0 0 0 0 1 0 0 0 0 0 1 0 " />
  </filter>
  <filter inkscape:label="textureLand" style="color-interpolation-filters:sRGB" id="textureLand">
    <feTurbulence numOctaves="4" seed="102" type="turbulence" baseFrequency="0.500000" result="result1" />
    <feColorMatrix result="result0" in="SourceGraphic" type="luminanceToAlpha" />
    <feColorMatrix result="result2" values="1 0 0 0 0 0 1 0 0 0 0 0 1 0 0 0 0 0 0.4 0 " />
    <feComposite in="result2" operator="over" in2="result1" />
    <feColorMatrix result="result91" values="1 0 0 0 0 0 1 0 0 0 0 0 1 0 0 0 0 0 10 -4 " />
    <feComposite operator="out" in="SourceGraphic" in2="result91" />
    <feGaussianBlur stdDeviation="0.800000" />
    <feColorMatrix values="1 0 0 0 0 0 1 0 0 0 0 0 1 0 0 0 0 0 1 0 " />
  </filter>
  <filter inkscape:label="textureForestBig" style="color-interpolation-filters:sRGB" id="textureForestBig">
    <feTurbulence numOctaves="2" seed="102" type="turbulence" baseFrequency="0.300000" result="result1" />
    <feColorMatrix result="result0" in="SourceGraphic" type="luminanceToAlpha" />
    <feColorMatrix result="result2" values="1 0 0 0 0 0 1 0 0 0 0 0 1 0 0 0 0 0 0.4 0 " />
    <feComposite in="result2" operator="over" in2="result1" />
    <feColorMatrix result="result91" values="1 0 0 0 0 0 1 0 0 0 0 0 1 0 0 0 0 0 10 -4 " />
    <feComposite operator="out" in="SourceGraphic" in2="result91" />
    <feGaussianBlur stdDeviation="2.000000" />
    <feColorMatrix values="1 0 0 0 0 0 1 0 0 0 0 0 1 0 0 0 0 0 1 0 " />
  </filter>
  <filter inkscape:label="textureForestSmall" style="color-interpolation-filters:sRGB" id="textureForestSmall">
    <feTurbulence numOctaves="4" seed="102" type="turbulence" baseFrequency="0.350000" result="result1" />
    <feColorMatrix result="result0" in="SourceGraphic" type="luminanceToAlpha" />
    <feColorMatrix result="result2" values="1 0 0 0 0 0 1 0 0 0 0 0 1 0 0 0 0 0 0.4 0 " />
    <feComposite in="result2" operator="over" in2="result1" />
    <feColorMatrix result="result91" values="1 0 0 0 0 0 1 0 0 0 0 0 1 0 0 0 0 0 10 -4 " />
    <feComposite operator="out" in="SourceGraphic" in2="result91" />
    <feGaussianBlur stdDeviation="1.000000" />
    <feColorMatrix values="1 0 0 0 0 0 1 0 0 0 0 0 1 0 0 0 0 0 1 0 " />
  </filter>
  <filter inkscape:label="roughenShoreline" style="color-interpolation-filters:sRGB" id="roughenShoreline">
    <feTurbulence numOctaves="4" seed="102" type="turbulence" baseFrequency="0.050000" result="turb" />
    <feDisplacementMap scale="6.600000" yChannelSelector="G" xChannelSelector="R" in="SourceGraphic" in2="turb" />
  </filter>
  <filter inkscape:label="roughenForest" style="color-interpolation-filters:sRGB" id="roughenForest">
    <feTurbulence numOctaves="4" seed="102" type="fractalNoise" baseFrequency="0.150000 0.150000" result="turb" />
    <feDisplacementMap scale="6.600000" yChannelSelector="G" xChannelSelector="R" in="SourceGraphic" in2="turb" />
  </filter>
  <filter inkscape:collect="always" inkscape:label="blurSuitRankGlow" style="color-interpolation-filters:sRGB" id="blurSuitRankGlow" x="-0.029025" y="-0.020458" width="1.058049" height="1.040917">
    <feGaussianBlur inkscape:collect="always" stdDeviation="2.515067" />
  </filter>
  <filter inkscape:collect="always" inkscape:label="blurWaterDeep" style="color-interpolation-filters:sRGB" id="blurWaterDeep" x="-0.056691" y="-0.041620" width="1.113381" height="1.083239">
    <feGaussianBlur inkscape:collect="always" stdDeviation="6.919136" />
  </filter>
  <filter inkscape:collect="always" inkscape:label="blurWaterShallow" style="color-interpolation-filters:sRGB" id="blurWaterShallow" x="-0.055818" y="-0.042103" width="1.111637" height="1.084205">
    <feGaussianBlur inkscape:collect="always" stdDeviation="6.561501" />
  </filter>
  <filter inkscape:collect="always" inkscape:label="blurWaterHilight" style="color-interpolation-filters:sRGB" id="blurWaterHilight" x="-0.071178" y="-0.051856" width="1.142356" height="1.103712">
    <feGaussianBlur inkscape:collect="always" stdDeviation="6.857532" />
  </filter>
  <filter inkscape:collect="always" inkscape:label="blurGrass" style="color-interpolation-filters:sRGB" id="blurGrass" x="-0.032100" y="-0.019164" width="1.064201" height="1.038328">
    <feGaussianBlur inkscape:collect="always" stdDeviation="2.386213" />
  </filter>
  <filter inkscape:collect="always" inkscape:label="blurForestShadow" style="color-interpolation-filters:sRGB" id="blurForestShadow" x="-0.033576" y="-0.018674" width="1.067152" height="1.037348">
    <feGaussianBlur inkscape:collect="always" stdDeviation="2.199785" />
  </filter>
  <filter inkscape:collect="always" inkscape:label="blurFlowerInner" style="color-interpolation-filters:sRGB" id="blurFlowerInner" x="-0.420000" y="-0.420000" width="1.840000" height="1.840000">
    <feGaussianBlur inkscape:collect="always" stdDeviation="1.605540" />
  </filter>
  <filter inkscape:collect="always" inkscape:label="blurFlowerMiddle" style="color-interpolation-filters:sRGB" id="blurFlowerMiddle" x="-0.240000" y="-0.240000" width="1.480000" height="1.480000">
    <feGaussianBlur inkscape:collect="always" stdDeviation="1.933705" />
  </filter>
  <linearGradient id="gradientStopsFish" inkscape:collect="always">
    <stop offset="0.000000" style="stop-color:#ff5555;stop-opacity:1.000000" />
    <stop offset="1.000000" style="stop-color:#ffffff;stop-opacity:1.000000" />
  </linearGradient>
  <linearGradient id="gradientStopsCoconut" inkscape:collect="always">
    <stop offset="0.000000" style="stop-color:#ffffff;stop-opacity:1.000000" />
    <stop offset="1.000000" style="stop-color:#c8c8c8;stop-opacity:0.000000" />
  </linearGradient>
  <linearGradient id="gradientStopsFlower" inkscape:collect="always">
    <stop offset="0.000000" style="stop-color:#b16dff;stop-opacity:1.000000" />
    <stop offset="1.000000" style="stop-color:#e7d2ff;stop-opacity:1.000000" />
  </linearGradient>
  <linearGradient id="gradientStopsJellyfish" inkscape:collect="always">
    <stop offset="0.000000" style="stop-color:#4f97ff;stop-opacity:1.000000" />
    <stop offset="1.000000" style="stop-color:#cfe3ff;stop-opacity:1.000000" />
  </linearGradient>
  <linearGradient id="gradientStopsShip" inkscape:collect="always">
    <stop offset="0.000000" style="stop-color:#b67800;stop-opacity:1.000000" />
    <stop offset="1.000000" style="stop-color:#d28b00;stop-opacity:1.000000" />
  </linearGradient>
  <linearGradient id="gradientFish" xlink:href="#gradientStopsFish" x1="178.789090" y1="-114.782830" x2="180.407300" y2="-103.782830" gradientTransform="translate(-178.76256,1.0606602)" gradientUnits="userSpaceOnUse" inkscape:collect="always" />
  <linearGradient id="gradientJellyfishTentacle1a" xlink:href="#gradientStopsJellyfish" x1="118.024030" y1="-110.827530" x2="121.753140" y2="-96.140030" gradientTransform="translate(-120,0)" gradientUnits="userSpaceOnUse" inkscape:collect="always" />
  <linearGradient id="gradientJellyfishTentacle1b" xlink:href="#gradientStopsJellyfish" x1="118.024030" y1="-110.827530" x2="121.753140" y2="-96.140030" gradientTransform="translate(-120,0)" gradientUnits="userSpaceOnUse" inkscape:collect="always" />
  <linearGradient id="gradientJellyfishTentacle2" xlink:href="#gradientStopsJellyfish" x1="118.218180" y1="-115.782610" x2="121.698270" y2="-97.813858" gradientTransform="translate(-120,0)" gradientUnits="userSpaceOnUse" inkscape:collect="always" />
  <linearGradient id="gradientJellyfishTentacle3" xlink:href="#gradientStopsJellyfish" x1="123.335370" y1="-114.610190" x2="116.678600" y2="-98.453941" gradientTransform="translate(-120,0)" gradientUnits="userSpaceOnUse" inkscape:collect="always" />
  <linearGradient id="gradientShip" xlink:href="#gradientStopsShip" x1="196.432910" y1="221.715270" x2="203.663250" y2="204.277770" gradientTransform="matrix(0.37654483,0.9263984,-0.9263984,0.37654483,355.66788,-318.43897)" gradientUnits="userSpaceOnUse" inkscape:collect="always" />
  <radialGradient id="gradientCoconut" xlink:href="#gradientStopsCoconut" cx="1.944096" cy="-60.612652" fx="1.944096" fy="-60.612652" r="6.723294" gradientUnits="userSpaceOnUse" gradientTransform="matrix(1.691364,-0.31394812,0.29762395,1.603419,17.826033,-7.042221)" inkscape:collect="always" />
  <radialGradient id="gradientFlower" xlink:href="#gradientStopsFlower" cx="60.884877" cy="-69.652750" fx="60.884877" fy="-69.652750" r="15.835310" gradientUnits="userSpaceOnUse" gradientTransform="matrix(0.8413905,0,0,0.87120012,-50.722984,-48.679159)" inkscape:collect="always" />
  <radialGradient id="gradientJellyfish" xlink:href="#gradientStopsJellyfish" cx="120.453410" cy="-112.943900" fx="120.453410" fy="-112.943900" r="10.580511" gradientUnits="userSpaceOnUse" gradientTransform="matrix(1.1662998,0.0435575,-0.04526952,1.2121402,-145.14628,17.080499)" inkscape:collect="always" />
</defs>

<sodipodi:namedview
    id="base"
    pagecolor="#ffffff"
    bordercolor="#666666"
    borderopacity="1.0"
    inkscape:pageopacity="0.0"
    inkscape:pageshadow="2"
    inkscape:zoom="2"
    inkscape:cx="115.37643"
    inkscape:cy="285.04449"
    inkscape:document-units="in"
    showgrid="true"
    units="in"
    inkscape:window-width="1392"
    inkscape:window-height="836"
    inkscape:window-x="39"
    inkscape:window-y="6"
    inkscape:window-maximized="0"
    inkscape:snap-grids="true"
    inkscape:snap-to-guides="true"
    inkscape:snap-nodes="true"
    inkscape:object-nodes="true"
    inkscape:snap-smooth-nodes="true"
    inkscape:snap-intersection-paths="true"
    inkscape:object-paths="true"
    inkscape:snap-bbox="true"
    inkscape:bbox-nodes="true"
    inkscape:snap-others="true"
    inkscape:bbox-paths="false"
    inkscape:snap-global="true" >
  <inkscape:grid
    type="xygrid"
    id="grid3051"
    empspacing="2"
    visible="true"
    enabled="true"
    snapvisiblegridlinesonly="true"
    spacingx="0.0625in"
    spacingy="0.0625in"
    dotted="false"
    units="in" />
</sodipodi:namedview>
<g inkscape:groupmode="layer" id="water_layer" inkscape:label="Water" style="display:inline" sodipodi:insensitive="true" >
  <rect id="water" style="fill:#b9deff;fill-opacity:1;stroke:none" x="0" y="0" width="247.5" height="337.5" />
</g>
<g inkscape:groupmode="layer" id="water_shallow_layer" inkscape:label="Water Shallow" style="display:inline" sodipodi:insensitive="true" >
  <path style="fill:#9bd1ff;fill-opacity:0.70;fill-rule:evenodd;stroke:none;filter:url(#blurWaterShallow)" d="m -11.25,-11.25 0,95.625 22.5,0 11.25,0 L 39.375,78.75 56.25,73.125 90,78.75 l 11.25,16.875 22.5,11.25 5.625,16.875 11.25,-16.875 33.75,5.625 5.625,16.875 0,28.125 5.625,11.25 5.625,22.5 5.625,16.875 5.625,22.5 -5.625,16.875 -11.25,0 -16.875,-16.875 11.25,28.125 0,22.5 -22.5,0 -22.5,16.875 -5.625,16.875 -5.625,11.25 0,22.5 135,0 0,-360 z m 140.75,197.75 0,10 -10,1.5 11.5,4.5 14,5.5 -10.5,-10.5 z" inkscape:connector-curvature="0" />
</g>
<g inkscape:groupmode="layer" id="water_deep_layer" inkscape:label="Water Deep" style="display:inline" sodipodi:insensitive="true" >
  <path style="fill:#87c8ff;fill-opacity:0.60;fill-rule:evenodd;stroke:none;filter:url(#blurWaterDeep)" d="m -11.25,-11.25 0,61.875 22.5,0 16.875,0 c 0,0 11.25,-11.25 16.875,-11.25 l 22.5,0 45,0 11.25,11.25 39.375,-5.625 28.125,5.625 5.625,33.75 11.25,16.875 5.625,22.5 -5.625,45 11.25,28.125 0,28.125 0,39.375 -11.25,28.125 -22.5,16.875 -5.625,16.875 0,22.5 78.75,0 0,-360 z" inkscape:connector-curvature="0" />
</g>
<g inkscape:groupmode="layer" id="water_hilight_layer" inkscape:label="Water Hilight" style="display:inline" sodipodi:insensitive="true" >
  <use xlink:href="#shoreline" height="100%" width="100%" x="0" y="0" style="display:inline;fill:#ffffff;fill-opacity:1;stroke:#ffffff;stroke-opacity:1;filter:url(#blurWaterHilight)" />
</g>
<g inkscape:groupmode="layer" id="land_layer" inkscape:label="Land" style="display:inline" sodipodi:insensitive="true" >
  <use xlink:href="#shoreline" height="100%" width="100%" x="0" y="0" style="display:inline;fill:#ffddab;fill-opacity:1;stroke:none;stroke-width:1;stroke-miterlimit:4;stroke-dasharray:none;stroke-opacity:1" />
</g>
<g inkscape:groupmode="layer" id="land_texture_layer" inkscape:label="Land Texture" style="display:inline" sodipodi:insensitive="true" >
  <use xlink:href="#shoreline" height="100%" width="100%" x="0" y="0" style="display:inline;fill:#ffca7d;fill-opacity:1;stroke:none;stroke-width:1;stroke-miterlimit:4;stroke-dasharray:none;stroke-opacity:1;filter:url(#textureLand)" />
</g>
<g inkscape:groupmode="layer" id="shoreline_layer" inkscape:label="Shoreline" style="display:inline" sodipodi:insensitive="true" >
  <use xlink:href="#shoreline" height="100%" width="100%" x="0" y="0" style="display:inline;fill:none;fill-opacity:1;stroke:#5f4c14;stroke-width:1;stroke-miterlimit:4;stroke-dasharray:none;stroke-opacity:1" />
</g>
<g inkscape:groupmode="layer" id="shoreline_master_layer" inkscape:label="Shoreline Master" style="display:none" sodipodi:insensitive="true" >
  <path id="shoreline" style="color:#000000;clip-rule:nonzero;display:inline;overflow:visible;visibility:visible;opacity:1;isolation:auto;mix-blend-mode:normal;color-interpolation:sRGB;color-interpolation-filters:linearRGB;solid-color:#000000;solid-opacity:1;fill-opacity:1;fill-rule:evenodd;filter:url(#roughenShoreline);color-rendering:auto;image-rendering:auto;shape-rendering:auto;text-rendering:auto;enable-background:accumulate" d="M 59.767578,107.45508 C 36.224889,99.65557 26.403487,118.125 13.5,118.125 l -13.5,0 c 0,0 -15.791797,-3.3541 -22.5,0 -11.25,5.625 -7.954951,233.92005 0,241.875 11.25,11.25 101.25,11.25 106.875,0 5.625,-11.25 0,-16.875 0,-22.5 0,-2.80014 -1.641826,-1.68014 -0.5,-11.875 1.29788,-11.5882 33.86234,-24.98913 34,-37.875 0.16646,-15.58148 7.84046,-41.5314 24,-34.125 8.73211,4.00219 1.83352,-18.31044 -8.25,-25.75 -7.83157,-5.77809 -13.5,-6.375 -29.19727,-6.81836 C 94.665589,220.78091 82.886179,194.66727 80.75,187.75 74.59121,167.80692 109.84226,185.86968 111.31445,174.76367 113.68865,156.85303 107.50786,139.02078 88.25,135.25 64.38188,130.57651 73.460733,111.99152 59.767578,107.45508 Z M 147.375,170.375 c -0.625,8.125 2.74822,12.50362 3.24805,16.99805 2.125,3.49999 12.67187,16.03906 12.67187,16.03906 5.84601,2.64116 8.42773,3.2832 9.17774,0.0332 -9.63614,-19.2454 -3.20899,-36.31054 -7.83399,-41.43554 -3.6811,-5.07756 -14.20861,-11.6395 -19.8125,-6.95899 -15.62469,6.48194 5.00523,10.50038 2.54883,15.32422 z" inkscape:connector-curvature="0" />
</g>
<g inkscape:groupmode="layer" id="grass_layer" inkscape:label="Grass" style="display:inline" sodipodi:insensitive="true" >
  <use xlink:href="#grass" height="100%" width="100%" x="0" y="0" style="display:inline;fill:#b4e982;fill-opacity:1;stroke:none;stroke-width:1;stroke-miterlimit:4;stroke-dasharray:none;stroke-opacity:1" />
</g>
<g inkscape:groupmode="layer" id="grass_texture1_layer" inkscape:label="Grass Texture Big" style="display:inline" sodipodi:insensitive="true" >
  <use xlink:href="#grass" height="100%" width="100%" x="0" y="0" style="display:inline;fill:#a7e46a;fill-opacity:1;stroke:none;stroke-width:1;stroke-miterlimit:4;stroke-dasharray:none;stroke-opacity:1;filter:url(#textureGrassBig)" />
</g>
<g inkscape:groupmode="layer" id="grass_texture2_layer" inkscape:label="Grass Texture Small" style="display:inline" sodipodi:insensitive="true" >
  <use xlink:href="#grass" height="100%" width="100%" x="0" y="0" style="display:inline;fill:#8cdd3d;fill-opacity:1;stroke:none;stroke-width:1;stroke-miterlimit:4;stroke-dasharray:none;stroke-opacity:1;filter:url(#textureGrassSmall)" />
</g>
<g inkscape:groupmode="layer" id="grass_master_layer" inkscape:label="Grass Master" style="display:none" sodipodi:insensitive="true" >
  <path id="grass" style="color:#000000;clip-rule:nonzero;display:inline;overflow:visible;visibility:visible;opacity:1;isolation:auto;mix-blend-mode:normal;color-interpolation:sRGB;color-interpolation-filters:linearRGB;solid-color:#000000;solid-opacity:1;fill-opacity:1;fill-rule:evenodd;filter:url(#blurGrass);color-rendering:auto;image-rendering:auto;shape-rendering:auto;text-rendering:auto;enable-background:accumulate" d="m 45,118.125 -10.75,2.625 -11.75,3 -11.25,0 -22.5,0 0,225 90,0 0,-22.5 6,-12.875 10.875,-9.625 11.25,-11.25 9.5,-12.75 1.75,-15.375 12.125,-14.875 -0.5,-16.875 -11.25,-5.625 -22.875,-2 -11.25,-11.25 -7.75,-20 1,-14.75 6.125,-6.25 16.875,-5 2.125,-6.625 -2.625,-9.25 -15.75,-11.25 L 68,130.5 56.75,121.75 Z M 155.5,161.5 152,178 l 6,11.5 9,4 -7.5,-15 3,-11 z" inkscape:connector-curvature="0" />
</g>
<g inkscape:groupmode="layer" id="forest_shadow_layer" inkscape:label="Forest Shadow" style="display:inline" sodipodi:insensitive="true" >
  <g style="filter:url(#blurForestShadow)" >
    <use xlink:href="#forest" height="100%" width="100%" x="0" y="0" style="display:inline;opacity:0.75;fill:#258c1b;fill-opacity:1;filter:url(#roughenForest)" />
  </g>
</g>
<g inkscape:groupmode="layer" id="forest_fill_layer" inkscape:label="Forest Fill" style="display:inline" sodipodi:insensitive="true" >
  <use xlink:href="#forest" height="100%" width="100%" x="0" y="0" style="fill:#83d700;fill-opacity:1;stroke:none;stroke-width:1.5;stroke-miterlimit:4;stroke-dasharray:none;stroke-opacity:1;filter:url(#roughenForest)" />
</g>
<g inkscape:groupmode="layer" id="forest_texture_big_layer" inkscape:label="Forest Texture Big" style="display:inline" sodipodi:insensitive="true" >
  <g style="filter:url(#textureForestBig)" >
    <use xlink:href="#forest" height="100%" width="100%" x="0" y="0" style="fill:#548c00;fill-opacity:1;stroke:none;stroke-width:1.5;stroke-miterlimit:4;stroke-dasharray:none;stroke-opacity:1;filter:url(#roughenForest)" />
  </g>
</g>
<g inkscape:groupmode="layer" id="forest_texture_small_layer" inkscape:label="Forest Texture Small" style="display:inline" sodipodi:insensitive="true" >
  <g style="filter:url(#textureForestSmall)" >
    <use xlink:href="#forest" height="100%" width="100%" x="0" y="0" style="fill:#78c125;fill-opacity:1;stroke:none;stroke-width:1;stroke-miterlimit:4;stroke-dasharray:none;stroke-opacity:1;filter:url(#roughenForest)" />
  </g>
</g>
<g inkscape:groupmode="layer" id="forest_outline_layer" inkscape:label="Forest Outline" style="display:inline" sodipodi:insensitive="true" >
  <use xlink:href="#forest" height="100%" width="100%" x="0" y="0" style="fill:none;fill-opacity:1;stroke:#006800;stroke-width:1.5;stroke-miterlimit:4;stroke-dasharray:none;stroke-opacity:1;filter:url(#roughenForest)" />
</g>
<g inkscape:groupmode="layer" id="forest_master_layer" inkscape:label="Forest Master" style="display:none" sodipodi:insensitive="true" >
  <path id="forest" style="color:#000000;clip-rule:nonzero;display:inline;overflow:visible;visibility:visible;opacity:1;isolation:auto;mix-blend-mode:normal;color-interpolation:sRGB;color-interpolation-filters:linearRGB;solid-color:#000000;solid-opacity:1;fill-opacity:1;fill-rule:nonzero;color-rendering:auto;image-rendering:auto;shape-rendering:auto;text-rendering:auto;enable-background:accumulate" d="m 26.162109,143.04492 a 4.2426405,4.2426405 0 0 0 -4.242187,4.24414 4.2426405,4.2426405 0 0 0 0.121094,0.98828 l -0.917969,0.30664 a 4.2426405,4.2426405 0 0 0 -3.798828,-2.35546 4.2426405,4.2426405 0 0 0 -4.242188,4.24218 4.2426405,4.2426405 0 0 0 0.07227,0.76953 L 11.25,151.875 l -22.5,0 0,61.875 22.5,0 3.335938,0 a 4.2426405,4.2426405 0 0 0 3.445312,1.77344 4.2426405,4.2426405 0 0 0 3.447266,-1.77344 l 1.998046,0 a 4.2426405,4.2426405 0 0 0 -0.142578,1.06641 4.2426405,4.2426405 0 0 0 4.244141,4.24414 4.2426405,4.2426405 0 0 0 4.242187,-4.24414 4.2426405,4.2426405 0 0 0 -0.138671,-1.06641 l 2.27539,0 a 4.2426405,4.2426405 0 0 0 4.226563,3.89453 4.2426405,4.2426405 0 0 0 3.886718,-2.54687 l 2.263672,1.13281 a 4.2426405,4.2426405 0 0 0 -0.140625,1.06055 4.2426405,4.2426405 0 0 0 3.664063,4.19921 4.2426405,4.2426405 0 0 0 -0.833984,2.51954 4.2426405,4.2426405 0 0 0 4.242187,4.24218 4.2426405,4.2426405 0 0 0 2.125,-0.57617 L 56.25,236.25 l 1.625,0 2.046875,10.99219 a 4.2426405,4.2426405 0 0 0 -0.878906,2.57617 4.2426405,4.2426405 0 0 0 4.242187,4.24219 4.2426405,4.2426405 0 0 0 4.244141,-4.24219 4.2426405,4.2426405 0 0 0 -0.462891,-1.92578 4.2426405,4.2426405 0 0 0 2.230469,-3.73047 4.2426405,4.2426405 0 0 0 -0.974609,-2.69922 l 9.908203,-4.95312 a 4.2426405,4.2426405 0 0 0 3.792969,2.34961 A 4.2426405,4.2426405 0 0 0 85.9375,236.25 l 0.119141,0 a 4.2426405,4.2426405 0 0 0 3.746093,2.25586 4.2426405,4.2426405 0 0 0 4.242188,-4.24414 A 4.2426405,4.2426405 0 0 0 90,230.0293 l 0,-1.66797 a 4.2426405,4.2426405 0 0 0 1.570312,-3.29102 4.2426405,4.2426405 0 0 0 -4.242187,-4.24219 4.2426405,4.2426405 0 0 0 -3.058594,1.30665 L 78.75,219.375 77.773438,217.9082 a 4.2426405,4.2426405 0 0 0 1.77539,-3.44531 4.2426405,4.2426405 0 0 0 -4.242187,-4.24219 4.2426405,4.2426405 0 0 0 -2.234375,0.63868 l -2.503907,-3.75782 a 4.2426405,4.2426405 0 0 0 0.84961,-2.53711 A 4.2426405,4.2426405 0 0 0 67.5,200.33594 l 0,-4.97852 A 4.2426405,4.2426405 0 0 0 71.417969,191.12891 4.2426405,4.2426405 0 0 0 67.5,186.90234 l 0,-1.27734 -0.994141,-1.98828 a 4.2426405,4.2426405 0 0 0 1.023438,-2.76172 4.2426405,4.2426405 0 0 0 -4.244141,-4.24219 4.2426405,4.2426405 0 0 0 -0.27539,0.0117 L 61.875,174.375 l 0,-1.33789 a 4.2426405,4.2426405 0 0 0 3.533203,-4.18164 4.2426405,4.2426405 0 0 0 -2.294922,-3.76563 4.2426405,4.2426405 0 0 0 0.171875,-1.18359 4.2426405,4.2426405 0 0 0 -4.242187,-4.24414 4.2426405,4.2426405 0 0 0 -3.351563,1.64844 4.2426405,4.2426405 0 0 0 -4.072265,-3.0625 4.2426405,4.2426405 0 0 0 -4.242188,4.24218 4.2426405,4.2426405 0 0 0 3.248047,4.1211 l 0,7.34961 a 4.2426405,4.2426405 0 0 0 -1.126953,-0.15625 4.2426405,4.2426405 0 0 0 -4.179688,3.54101 l -2.777343,-1.38867 a 4.2426405,4.2426405 0 0 0 0.591796,-2.15234 4.2426405,4.2426405 0 0 0 -3.757812,-4.21094 l 0,-0.55859 A 4.2426405,4.2426405 0 0 0 42.425781,164.9668 4.2426405,4.2426405 0 0 0 39.375,160.89648 l 0,-0.01 a 4.2426405,4.2426405 0 0 0 1.636719,-3.3457 4.2426405,4.2426405 0 0 0 -2.839844,-4 4.2426405,4.2426405 0 0 0 0.01172,-0.24219 4.2426405,4.2426405 0 0 0 -1.90625,-3.53711 4.2426405,4.2426405 0 0 0 0.138672,-1.0586 4.2426405,4.2426405 0 0 0 -4.242188,-4.24414 4.2426405,4.2426405 0 0 0 -2.341797,0.70899 4.2426405,4.2426405 0 0 0 -3.669922,-2.12305 z m -3.736328,22.3418 a 4.7729707,5.126524 0 0 0 1.96875,0.46289 4.7729707,5.126524 0 0 0 1.310547,-0.19922 4.7729707,5.126524 0 0 0 0.376953,0.5293 4.7729707,5.126524 0 0 0 -1.501953,3.56836 4.7729707,5.126524 0 0 0 -0.185547,-0.01 4.7729707,5.126524 0 0 0 -0.0293,0.002 4.7729707,5.126524 0 0 0 -2.066406,-1.74414 4.7729707,5.126524 0 0 0 0.152344,-1.26171 4.7729707,5.126524 0 0 0 -0.138672,-1.20508 4.7729707,5.126524 0 0 0 0.113281,-0.14258 z m -4.794922,11.4414 a 4.7729707,5.126524 0 0 0 2.875,1.04297 4.7729707,5.126524 0 0 0 0.0293,-0.002 4.7729707,5.126524 0 0 0 1.021485,1.10938 4.7729707,5.126524 0 0 0 -2.212891,3.49023 4.7729707,5.126524 0 0 1 -0.07422,-0.88672 4.7729707,5.126524 0 0 1 0.986328,-3.10937 4.7729707,5.126524 0 0 1 -2.625,-1.64454 z m 10.179688,1.61133 a 4.7729707,5.126524 0 0 1 1.003906,3.14258 4.7729707,5.126524 0 0 1 -0.02148,0.44531 4.7729707,5.126524 0 0 0 -0.164063,-0.084 4.7729707,5.126524 0 0 0 -1.751953,-2.71094 4.7729707,5.126524 0 0 0 0.933594,-0.79297 z m 29.777344,6.85547 a 4.7729707,5.126524 0 0 1 0.04102,0 4.7729707,5.126524 0 0 1 1.767578,0.36914 4.7729707,5.126524 0 0 0 -2.498046,2.47266 4.7729707,5.126524 0 0 0 -0.330079,-0.0137 4.7729707,5.126524 0 0 0 -4.117187,2.54492 4.7729707,5.126524 0 0 0 -0.876953,-0.30078 4.7729707,5.126524 0 0 0 0.505859,-1.58203 4.7729707,5.126524 0 0 0 0.59961,0.0449 4.7729707,5.126524 0 0 0 4.523437,-3.50781 4.7729707,5.126524 0 0 1 0.384766,-0.0274 z m -41.402344,13.5625 a 4.7729707,5.126524 0 0 0 2.199219,0.58008 4.7729707,5.126524 0 0 0 1.988281,-0.47461 4.7729707,5.126524 0 0 0 -0.04297,0.65039 4.7729707,5.126524 0 0 0 1.132813,3.3086 4.7729707,5.126524 0 0 1 -0.603516,0.0508 4.7729707,5.126524 0 0 1 -4.673828,-4.11524 z m 28.980469,2.36133 a 4.7729707,5.126524 0 0 0 0.347656,0.31836 4.7729707,5.126524 0 0 0 -0.509766,-0.17188 4.7729707,5.126524 0 0 1 0.16211,-0.14648 z m 1.609375,1.07617 a 4.7729707,5.126524 0 0 0 1.662109,0.32422 4.7729707,5.126524 0 0 0 0.748047,-0.0703 4.7729707,5.126524 0 0 0 3.222656,3.39648 4.7729707,5.126524 0 0 0 -0.609375,2.42188 4.7729707,5.126524 0 0 0 -0.429687,0.10742 4.7729707,5.126524 0 0 0 -2.75586,-2.13672 4.7729707,5.126524 0 0 0 0,-0.006 4.7729707,5.126524 0 0 0 -1.83789,-4.03711 z m 11.207031,1.07422 a 4.7729707,5.126524 0 0 1 0.521484,0.40039 4.7729707,5.126524 0 0 0 -0.609375,-0.23828 4.7729707,5.126524 0 0 0 0.08789,-0.16211 z m -25.837891,1.37305 a 4.7729707,5.126524 0 0 0 3.730469,3.79297 4.7729707,5.126524 0 0 1 -1.933594,0.44726 4.7729707,5.126524 0 0 1 -3.408203,-1.53906 4.7729707,5.126524 0 0 1 -0.398437,0.25 4.7729707,5.126524 0 0 0 0.09375,-1.00781 4.7729707,5.126524 0 0 0 -0.246094,-1.61524 4.7729707,5.126524 0 0 0 0.423828,0.0234 4.7729707,5.126524 0 0 0 1.738281,-0.35156 z m 31.847657,11.66601 a 4.7729707,5.126524 0 0 1 1.779296,0.37305 4.7729707,5.126524 0 0 0 -0.363281,-0.0195 4.7729707,5.126524 0 0 0 -1.308594,0.20117 4.7729707,5.126524 0 0 0 -0.265625,-0.54883 4.7729707,5.126524 0 0 1 0.158204,-0.006 z m -2.933594,7.58008 a 4.7729707,5.126524 0 0 0 4.349609,3.02539 4.7729707,5.126524 0 0 0 0.332031,-0.0117 4.7729707,5.126524 0 0 1 -3.86914,2.13477 4.7729707,5.126524 0 0 1 -4.695313,-4.2168 4.7729707,5.126524 0 0 0 1.41211,-0.89453 4.7729707,5.126524 0 0 0 1.162109,0.16016 4.7729707,5.126524 0 0 0 1.308594,-0.19727 z M -11.25,225 l 0,123.75 73.125,0 0,-22.5 0,-5.625 11.25,-5.625 0,-0.48438 a 4.2426405,4.2426405 0 0 0 0.06055,0.004 4.2426405,4.2426405 0 0 0 4.242187,-4.24219 4.2426405,4.2426405 0 0 0 -3.328125,-4.14062 4.2426405,4.2426405 0 0 0 1.560547,-3.28516 4.2426405,4.2426405 0 0 0 -4.242187,-4.24218 4.2426405,4.2426405 0 0 0 -1.53711,0.28906 4.2426405,4.2426405 0 0 0 0.123047,-0.9961 4.2426405,4.2426405 0 0 0 -4.242187,-4.24218 4.2426405,4.2426405 0 0 0 -2.142578,0.58398 L 61.875,292.5 l -5.355469,0 a 4.2426405,4.2426405 0 0 0 0.04883,-0.60938 4.2426405,4.2426405 0 0 0 -4.242187,-4.24218 4.2426405,4.2426405 0 0 0 -1.701172,0.36328 l 0,-3.09766 a 4.2426405,4.2426405 0 0 0 2.054688,-3.6289 4.2426405,4.2426405 0 0 0 -4.242188,-4.24219 4.2426405,4.2426405 0 0 0 -1.671875,0.34765 L 45,275.625 41.910156,272.53516 a 4.2426405,4.2426405 0 0 0 0.869141,-2.56446 4.2426405,4.2426405 0 0 0 -4.242188,-4.24218 4.2426405,4.2426405 0 0 0 -2.564453,0.86914 l -0.373047,-0.37305 a 4.2426405,4.2426405 0 0 0 2.9375,-4.03125 4.2426405,4.2426405 0 0 0 -0.109375,-0.9375 l 3.416016,-2.27734 a 4.2426405,4.2426405 0 0 0 3.763672,-4.21094 4.2426405,4.2426405 0 0 0 -4.242188,-4.24219 4.2426405,4.2426405 0 0 0 -0.01953,0 l -0.375,-1.05078 a 4.2426405,4.2426405 0 0 0 1.455078,-3.19141 4.2426405,4.2426405 0 0 0 -4.242187,-4.24218 4.2426405,4.2426405 0 0 0 -3.38086,1.68945 l -2.5,-0.69531 a 4.2426405,4.2426405 0 0 0 0.22461,-1.34766 4.2426405,4.2426405 0 0 0 -1.740235,-3.41992 4.2426405,4.2426405 0 0 0 2.09375,-3.65235 4.2426405,4.2426405 0 0 0 -4.242187,-4.24218 4.2426405,4.2426405 0 0 0 -2.103516,0.56445 L 22.5,225 l -11.25,0 -22.5,0 z m 32.048828,22.16797 a 4.7729707,5.126524 0 0 0 1.017578,0.94726 4.7729707,5.126524 0 0 0 -2.30664,2.94532 4.7729707,5.126524 0 0 0 -0.06445,-0.004 4.7729707,5.126524 0 0 0 -0.458984,0.0273 4.7729707,5.126524 0 0 1 0.300781,-0.23437 4.7729707,5.126524 0 0 1 0.228516,-1.23242 4.7729707,5.126524 0 0 1 -0.345703,0.0215 4.7729707,5.126524 0 0 0 1.628906,-2.4707 z m 6.695313,0.53125 a 4.7729707,5.126524 0 0 1 1.320312,3.5332 4.7729707,5.126524 0 0 1 -0.05078,0.69727 4.7729707,5.126524 0 0 0 -2.142578,-3.58985 4.7729707,5.126524 0 0 0 0.873047,-0.64062 z m -16.146485,14.20117 a 4.7729707,5.126524 0 0 0 -0.564453,2.41406 4.7729707,5.126524 0 0 0 4.773438,5.12696 4.7729707,5.126524 0 0 0 3.005859,-1.14844 4.7729707,5.126524 0 0 0 0.132812,0.10937 4.7729707,5.126524 0 0 1 -3.845703,2.09961 4.7729707,5.126524 0 0 1 -4.773437,-5.12695 4.7729707,5.126524 0 0 1 1.271484,-3.47461 z m 17.460938,0.0488 a 4.7729707,5.126524 0 0 1 -2.96875,4.63672 4.7729707,5.126524 0 0 0 0.5,-2.27149 4.7729707,5.126524 0 0 0 -0.08789,-0.95703 4.7729707,5.126524 0 0 0 2.556641,-1.4082 z m 34.476562,3.07226 a 4.2426405,4.2426405 0 0 0 -4.242187,4.24219 4.2426405,4.2426405 0 0 0 2.292969,3.76563 4.2426405,4.2426405 0 0 0 -0.171876,1.18554 4.2426405,4.2426405 0 0 0 4.025391,4.23047 4.2426405,4.2426405 0 0 0 4.107422,3.19336 4.2426405,4.2426405 0 0 0 1.058594,-0.13672 4.2426405,4.2426405 0 0 0 3.537109,1.9043 4.2426405,4.2426405 0 0 0 4.242188,-4.24219 4.2426405,4.2426405 0 0 0 -4.242188,-4.24218 4.2426405,4.2426405 0 0 0 -1.05664,0.13671 4.2426405,4.2426405 0 0 0 -3.320313,-1.89453 4.2426405,4.2426405 0 0 0 -2.158203,-2.71484 4.2426405,4.2426405 0 0 0 0.171875,-1.18555 4.2426405,4.2426405 0 0 0 -4.244141,-4.24219 z m -48.761718,6.41407 a 4.7729707,5.126524 0 0 0 -1.525391,2.83007 4.7729707,5.126524 0 0 0 -1.851563,1.85352 4.7729707,5.126524 0 0 1 3.376954,-4.68359 z m 10.478515,5.81054 a 4.7729707,5.126524 0 0 0 0.162109,0.66797 4.7729707,5.126524 0 0 0 -2.980468,3.82227 4.7729707,5.126524 0 0 0 -2.230469,-1.75 4.7729707,5.126524 0 0 0 0.01172,-0.21875 4.7729707,5.126524 0 0 0 2.064453,-2.39453 4.7729707,5.126524 0 0 0 1.304687,0.19922 4.7729707,5.126524 0 0 0 1.667969,-0.32618 z m 5.404297,8.88868 a 4.7729707,5.126524 0 0 0 1.654297,1.27539 4.7729707,5.126524 0 0 0 0.753906,0.77148 4.7729707,5.126524 0 0 1 -0.927734,1.76563 4.7729707,5.126524 0 0 1 2.408203,-0.70704 4.7729707,5.126524 0 0 1 3.486328,1.63086 4.7729707,5.126524 0 0 1 2.167969,1.47657 4.7729707,5.126524 0 0 0 -1.234375,3.43359 4.7729707,5.126524 0 0 0 4.771484,5.125 4.7729707,5.126524 0 0 0 1.25,-0.17969 4.7729707,5.126524 0 0 0 0.685547,2.31055 4.7729707,5.126524 0 0 1 -0.136719,1.05078 4.7729707,5.126524 0 0 1 0.716797,-0.22656 4.7729707,5.126524 0 0 0 2.128906,1.42578 4.7729707,5.126524 0 0 0 0.744141,1.10351 4.7729707,5.126524 0 0 0 -1.322266,3.53126 4.7729707,5.126524 0 0 0 0.0039,0.10546 4.7729707,5.126524 0 0 0 -2.302735,-0.63476 4.7729707,5.126524 0 0 0 -0.5,0.0293 4.7729707,5.126524 0 0 0 -4.095703,-2.50391 4.7729707,5.126524 0 0 0 -1.439453,0.24414 4.7729707,5.126524 0 0 0 -3.509766,-1.6582 4.7729707,5.126524 0 0 0 -2.111328,0.53125 4.7729707,5.126524 0 0 1 -0.1875,-1.41602 4.7729707,5.126524 0 0 1 1.699219,-3.91406 4.7729707,5.126524 0 0 1 -2.177734,-1.42969 4.7729707,5.126524 0 0 1 -2.023438,-1.30078 4.7729707,5.126524 0 0 1 -3.128906,1.82812 4.7729707,5.126524 0 0 0 -1.617188,-0.31054 4.7729707,5.126524 0 0 0 -2.894531,1.05469 4.7729707,5.126524 0 0 0 -0.880859,-1.69922 4.7729707,5.126524 0 0 0 -0.785157,-2.07813 4.7729707,5.126524 0 0 0 3.257813,-4.07031 4.7729707,5.126524 0 0 0 3.955078,-5.05078 4.7729707,5.126524 0 0 0 -0.01172,-0.26953 4.7729707,5.126524 0 0 0 1.603516,-1.24414 z m 0.289062,4.87109 a 4.7729707,5.126524 0 0 1 -0.117187,0.0723 4.7729707,5.126524 0 0 1 0.0332,0.0332 4.7729707,5.126524 0 0 1 0.08398,-0.10547 z m -1.636718,17.68359 a 4.7729707,5.126524 0 0 1 2.0625,0.54493 4.7729707,5.126524 0 0 0 -0.185547,1.39648 4.7729707,5.126524 0 0 0 0.0078,0.21484 4.7729707,5.126524 0 0 0 -0.537109,-0.0391 4.7729707,5.126524 0 0 0 -0.990234,0.11719 4.7729707,5.126524 0 0 0 -1.189454,-1.6875 4.7729707,5.126524 0 0 0 0.832032,-0.54688 z m 12.105468,8.44727 a 4.7729707,5.126524 0 0 0 0.439454,0.67578 4.7729707,5.126524 0 0 1 -0.628907,-0.35938 4.7729707,5.126524 0 0 0 0.07227,-0.30078 4.7729707,5.126524 0 0 0 0.117187,-0.0156 z" inkscape:connector-curvature="0" />
</g>
<g inkscape:groupmode="layer" id="routes_layer" inkscape:label="Routes" style="display:inline" sodipodi:insensitive="true" >
  <path style="display:inline;fill:none;stroke:#000000;stroke-width:2;stroke-linecap:round;stroke-miterlimit:4;stroke-dasharray:0.1, 5;stroke-dashoffset:0;stroke-opacity:1" d="m 89.25,263.5 c 12.59567,27.75424 -16.191107,33.8098 -27.125,23.375 -15.402135,-14.69908 -3.80727,-39.03275 -18.375,-53.25 -5.749588,-5.61126 -15.20774,-14.25 -32.5,-14.25 l -16.8749997,0 M 123.75,0 l 0,11.25 c 0,3.75 -1.5581,10.054758 -1.76777,13.194544 -0.7305,10.939415 4.68883,40.446352 17.76777,45.930456 30.00272,12.580383 38.41583,54.5941 38.875,68 0,28.125 39.99414,30.375 51.99999,30.375 l 16.87501,0 m -47.53249,-4.76821 c -20.61916,1.55914 1.27399,67.36396 -17.42272,100.03293 C 173.14322,280.44218 163.125,306.12931 163.125,326.25 l 0,11.25" inkscape:connector-curvature="0" />
</g>
<g inkscape:groupmode="layer" id="labels_layer" inkscape:label="Labels" style="display:inline" sodipodi:insensitive="true" >
  <text xml:space="preserve"><textPath xlink:href="#shady_cove"><tspan
  style="-inkscape-font-specification:'CCTreasureTroveAged Mod, Normal';font-family:'CCTreasureTroveAged Mod';font-weight:normal;font-style:normal;font-stretch:normal;font-variant:normal;font-size:8.75px;text-anchor:start;text-align:start;writing-mode:lr;line-height:125%"
  >Shady Cove</tspan></textPath></text>
</g>
<g inkscape:groupmode="layer" id="labels_guide_layer" inkscape:label="Labels Guide" style="display:none" sodipodi:insensitive="true" >
  <path id="shady_cove" style="color:#000000;fill:none;stroke:#000000;stroke-width:1;stroke-opacity:1" d="m 134.60371,213.76905 c -26.02082,0.78553 -33.93262,-13.81739 -45.533126,-30.20217" inkscape:connector-curvature="0" />
</g>
<g inkscape:groupmode="layer" id="resources_layer" inkscape:label="Resources" style="display:inline" sodipodi:insensitive="true" >
  <g id="resource-flower" transform="translate(88.90905,370.43322)" >
    <path style="color:#000000;clip-rule:nonzero;display:inline;overflow:visible;visibility:visible;opacity:1;isolation:auto;mix-blend-mode:normal;color-interpolation:sRGB;color-interpolation-filters:linearRGB;solid-color:#000000;solid-opacity:1;fill:#ffffff;fill-opacity:1;fill-rule:evenodd;stroke:none;stroke-width:0.89999998;stroke-linecap:round;stroke-linejoin:miter;stroke-miterlimit:4;stroke-dasharray:none;stroke-dashoffset:0;stroke-opacity:1;color-rendering:auto;image-rendering:auto;shape-rendering:auto;text-rendering:auto;enable-background:accumulate" d="m 0.979805,-123.15615 c -1.34145,-0.0198 -3.490295,1.29985 -4.377698,2.97606 -1.515072,-0.52803 -3.118559,-1.35518 -4.387882,-0.66716 -1.336347,0.80617 -3.05964,1.39841 -3.940732,2.52252 -1.019998,1.30134 -0.730979,3.22834 -1.040234,4.88073 -0.323141,1.72658 0.916341,3.62646 2.178426,4.57303 -0.480389,0.70795 -0.991103,1.55651 -1.064241,1.95596 -0.229528,2.03687 -0.85872,3.65897 -0.172551,5.07299 0.650332,1.34017 2.541535,1.62667 4.009752,2.563613 1.703034,0.722622 3.282592,0.820732 5.14182,0.411702 0.446214,0.818061 0.820032,1.55183 1.868672,1.900477 1.652946,0.549562 2.259608,1.57126 3.487169,1.377119 0.904439,-0.143038 1.706298,-0.852325 2.89228,-1.267016 0.956141,-0.334325 1.792353,-1.310625 2.17414,-2.142916 0.601179,-1.310569 0.607842,-2.718729 0.332147,-4.333519 1.085534,0.10069 1.96385,-0.10288 2.218318,-0.26619 1.401585,-1.12214 2.183535,-1.13125 2.967873,-2.1232 0.706103,-0.89301 0.33785,-2.30208 0.524226,-3.63507 0.190729,-1.36412 -0.373016,-3.11292 -1.13861,-3.85099 -0.916057,-1.14581 -2.133316,-1.66052 -3.360406,-2.25547 0.223107,-1.52457 0.238457,-2.83813 -0.583837,-3.68128 -1.009456,-1.03504 -1.391167,-2.66625 -2.553752,-3.32447 -1.410255,-0.79846 -2.9835,-0.29231 -4.911945,-0.66063 -0.08552,-0.0163 -0.173505,-0.025 -0.262935,-0.0263 z" inkscape:connector-curvature="0" />
    <path style="color:#000000;clip-rule:nonzero;display:inline;overflow:visible;visibility:visible;opacity:1;isolation:auto;mix-blend-mode:normal;color-interpolation:sRGB;color-interpolation-filters:linearRGB;solid-color:#000000;solid-opacity:1;fill:url(#gradientFlower);fill-opacity:1;fill-rule:evenodd;stroke:none;stroke-width:0.89999998;stroke-linecap:round;stroke-linejoin:miter;stroke-miterlimit:4;stroke-dasharray:none;stroke-dashoffset:0;stroke-opacity:1;color-rendering:auto;image-rendering:auto;shape-rendering:auto;text-rendering:auto;enable-background:accumulate" d="m 0.979805,-123.15615 c -1.34145,-0.0198 -3.490295,1.29985 -4.377698,2.97606 -1.515072,-0.52803 -3.118559,-1.35518 -4.387882,-0.66716 -1.336347,0.80617 -3.05964,1.39841 -3.940732,2.52252 -1.019998,1.30134 -0.730979,3.22834 -1.040234,4.88073 -0.323141,1.72658 0.916341,3.62646 2.178426,4.57303 -0.480389,0.70795 -0.991103,1.55651 -1.064241,1.95596 -0.229528,2.03687 -0.85872,3.65897 -0.172551,5.07299 0.650332,1.34017 2.541535,1.62667 4.009752,2.563613 1.703034,0.722622 3.282592,0.820732 5.14182,0.411702 0.446214,0.818061 0.820032,1.55183 1.868672,1.900477 1.652946,0.549562 2.259608,1.57126 3.487169,1.377119 0.904439,-0.143038 1.706298,-0.852325 2.89228,-1.267016 0.956141,-0.334325 1.792353,-1.310625 2.17414,-2.142916 0.601179,-1.310569 0.607842,-2.718729 0.332147,-4.333519 1.085534,0.10069 1.96385,-0.10288 2.218318,-0.26619 1.401585,-1.12214 2.183535,-1.13125 2.967873,-2.1232 0.706103,-0.89301 0.33785,-2.30208 0.524226,-3.63507 0.190729,-1.36412 -0.373016,-3.11292 -1.13861,-3.85099 -0.916057,-1.14581 -2.133316,-1.66052 -3.360406,-2.25547 0.223107,-1.52457 0.238457,-2.83813 -0.583837,-3.68128 -1.009456,-1.03504 -1.391167,-2.66625 -2.553752,-3.32447 -1.410255,-0.79846 -2.9835,-0.29231 -4.911945,-0.66063 -0.08552,-0.0163 -0.173505,-0.025 -0.262935,-0.0263 z" inkscape:connector-curvature="0" />
    <circle cx="60.884876" cy="-69.652748" r="9.668525" style="color:#000000;clip-rule:nonzero;display:inline;overflow:visible;visibility:visible;opacity:1;isolation:auto;mix-blend-mode:normal;color-interpolation:sRGB;color-interpolation-filters:linearRGB;solid-color:#000000;solid-opacity:1;fill:#c18bff;fill-opacity:1;fill-rule:nonzero;stroke:none;stroke-width:0.89999998;stroke-linecap:butt;stroke-linejoin:round;stroke-miterlimit:4;stroke-dasharray:none;stroke-dashoffset:0;stroke-opacity:1;filter:url(#blurFlowerMiddle);color-rendering:auto;image-rendering:auto;shape-rendering:auto;text-rendering:auto;enable-background:accumulate" transform="matrix(0.8413905,0,0,0.8413905,-50.722984,-50.755482)" />
    <circle cx="60.884876" cy="-69.652748" r="4.587256" style="color:#000000;clip-rule:nonzero;display:inline;overflow:visible;visibility:visible;opacity:1;isolation:auto;mix-blend-mode:normal;color-interpolation:sRGB;color-interpolation-filters:linearRGB;solid-color:#000000;solid-opacity:1;fill:#4d0b97;fill-opacity:0.73248411;fill-rule:nonzero;stroke:none;stroke-width:0.89999998;stroke-linecap:butt;stroke-linejoin:round;stroke-miterlimit:4;stroke-dasharray:none;stroke-dashoffset:0;stroke-opacity:1;filter:url(#blurFlowerInner);color-rendering:auto;image-rendering:auto;shape-rendering:auto;text-rendering:auto;enable-background:accumulate" transform="matrix(0.8413905,0,0,0.8413905,-50.722984,-50.755482)" />
    <path style="color:#000000;clip-rule:nonzero;display:inline;overflow:visible;visibility:visible;opacity:1;isolation:auto;mix-blend-mode:normal;color-interpolation:sRGB;color-interpolation-filters:linearRGB;solid-color:#000000;solid-opacity:1;fill:#000000;fill-opacity:1;fill-rule:evenodd;stroke:none;stroke-width:0.89999998;stroke-linecap:round;stroke-linejoin:miter;stroke-miterlimit:4;stroke-dasharray:none;stroke-dashoffset:0;stroke-opacity:1;color-rendering:auto;image-rendering:auto;shape-rendering:auto;text-rendering:auto;enable-background:accumulate" d="m 0.639633,-123.613 c -0.245268,-0.007 -0.493489,0.0184 -0.741147,0.0723 -0.495315,0.10775 -0.988873,0.32636 -1.452713,0.61626 -0.897328,0.56081 -1.698239,1.40222 -2.2333,2.34669 -0.538041,-0.29613 -1.168361,-0.58916 -1.843828,-0.75923 -0.402544,-0.10135 -0.817029,-0.16411 -1.217716,-0.14954 -0.400686,0.0146 -0.786664,0.10703 -1.132262,0.31552 -1.283405,0.77424 -3.212955,1.5351 -4.096848,2.84955 -1.036325,1.54115 -0.856398,3.22859 -1.064886,4.82978 -0.121933,0.93647 0.116053,1.93977 0.548877,2.83148 0.383935,0.79099 0.927795,1.48307 1.55953,1.96215 -0.523828,0.48763 -0.918389,1.06735 -0.994221,1.7403 -0.111704,0.99127 -0.114545,1.61006 -0.218564,2.47815 -0.10402,0.86809 -0.307253,2.00443 0.08052,2.80354 0.383523,0.79035 1.112241,1.24077 1.875051,1.60883 0.762811,0.368068 1.743867,0.669437 2.430502,1.107614 1.218636,0.777675 2.913786,1.040634 4.971105,0.514366 0.380578,0.842488 0.837563,1.454964 1.755089,1.760018 0.77292,0.256976 1.299533,0.623573 1.830681,0.935061 0.531149,0.311488 1.321397,0.65032 2.04596,0.535729 1.061295,-0.167845 1.585995,-0.765822 2.695079,-1.153626 0.61183,-0.213931 1.413184,-0.872559 1.889842,-1.446139 0.476655,-0.57358 0.870431,-1.194818 1.082961,-1.658131 0.556087,-1.212262 0.51771,-2.127442 0.179125,-3.446082 0.715918,0.0871 1.419103,0.0384 1.947359,-0.38454 0.67438,-0.53993 1.161498,-1.0671 1.640053,-1.33933 0.478556,-0.27223 0.932552,-0.56407 1.362327,-1.10761 0.433047,-0.54768 0.51727,-1.24584 0.537371,-1.90299 0.02011,-0.65714 -0.02179,-1.32636 0.06411,-1.94078 0.107665,-0.77002 -0.0067,-1.365 -0.266216,-2.1725 -0.259325,-0.8075 -0.625806,-1.53158 -1.09118,-1.98023 -0.663846,-0.63998 -1.599943,-1.39472 -3.03032,-1.93914 0.11665,-0.50066 0.147215,-1.05012 0.09038,-1.59404 -0.08427,-0.80653 -0.342696,-1.59653 -0.862754,-2.12977 -0.452036,-0.4635 -0.790788,-1.10063 -1.165128,-1.73208 -0.374341,-0.63145 -0.949406,-1.37528 -1.631838,-1.76166 -0.804443,-0.45546 -1.651134,-0.45909 -2.476515,-0.44699 -0.82538,0.0121 -1.487089,0.14634 -2.343404,-0.13804 -0.235484,-0.0782 -0.477801,-0.11783 -0.723065,-0.1249 z m -0.02629,0.75923 c 0.180353,0.004 0.347555,0.0466 0.511079,0.0838 1.006924,0.22923 1.7795,0.18938 2.591548,0.17748 0.812049,-0.0119 1.487806,0.005 2.093616,0.34839 0.480153,0.27185 0.994251,0.88183 1.354113,1.48886 0.359862,0.60703 0.716169,1.30186 1.27359,1.87341 0.334308,0.34279 0.580376,0.99176 0.652406,1.68114 0.07203,0.68938 -0.02687,1.41322 -0.248144,1.87012 -0.450738,0.93069 -1.413978,1.86673 -2.379558,2.48966 -1.071525,0.69128 -2.210789,1.32545 -2.704939,1.55789 -0.727729,0.34231 -0.911947,0.74706 -0.437129,0.57517 0.432747,-0.15667 2.273938,-0.86367 3.500316,-1.65485 0.988448,-0.63768 2.112424,-1.45155 2.685219,-2.60633 1.29991,0.49828 2.125357,1.16513 2.750952,1.76823 0.300222,0.28943 0.662715,0.9411 0.895622,1.66635 0.232906,0.72524 0.31971,1.24151 0.236641,1.83561 -0.100468,0.71856 -0.05054,1.4191 -0.06902,2.02295 -0.01848,0.60386 -0.10327,1.11067 -0.376324,1.456 -0.354559,0.44841 -0.683098,0.65751 -1.142122,0.91863 -0.459024,0.26112 -1.011451,0.82613 -1.738654,1.40834 -0.339654,0.27194 -1.05202,0.3145 -1.842185,0.15612 -0.790168,-0.15837 -1.680674,-0.36802 -2.228371,-0.63433 -0.501305,-0.24375 -1.107321,-0.71188 -1.718935,-1.22593 -0.606651,-0.50988 -0.946266,-0.80483 -1.105968,-1.0008 -0.449169,-0.55116 -0.736865,-0.57408 -0.419052,-0.0362 0.128591,0.21765 0.29565,0.55252 0.874258,1.15363 0.578608,0.60111 1.39831,1.334 2.091973,1.67128 0.52965,0.25753 1.278195,0.55106 2.055819,0.7395 0.418548,1.4671 0.497282,2.0902 -0.0493,3.28175 -0.169259,0.368978 -0.542533,0.967084 -0.976146,1.488867 -0.433612,0.521783 -1.213575,1.09568 -1.557886,1.216072 -1.262881,0.441579 -1.81603,1.002528 -2.563612,1.120758 -0.502998,0.07955 -1.051079,-0.15352 -1.543097,-0.442058 -0.492018,-0.288541 -1.09527,-0.708208 -1.975296,-1.000794 -0.906713,-0.30146 -1.303684,-1.017149 -1.521734,-1.990087 -0.240751,-1.074238 -0.284382,-2.018958 -0.03944,-3.252168 0.09422,-0.47435 0.345844,-1.11328 0.616253,-1.75509 0.254524,-0.60411 0.521586,-1.0267 0.657337,-1.20621 0.534373,-0.70663 0.573544,-1.02158 -0.08052,-0.47 -0.09001,0.0759 -0.437166,0.46228 -0.800308,1.04845 -0.388969,0.62787 -0.745556,1.33952 -0.913697,1.96215 -0.320374,1.18635 -0.455037,2.59874 -0.177481,3.837203 0.0049,0.02169 0.01287,0.04249 0.01807,0.06409 -1.86503,0.462081 -3.499403,0.191906 -4.474817,-0.430556 -0.781583,-0.498767 -1.637015,-0.807967 -2.349978,-1.151977 -0.712961,-0.34402 -1.256569,-0.70734 -1.523376,-1.25716 -0.298393,-0.61491 -0.108087,-1.57682 -0.0115,-2.38285 0.09658,-0.80602 0.102383,-1.43749 0.220207,-2.48308 0.06347,-0.56325 0.566474,-1.18992 1.271946,-1.691 0.705472,-0.50107 1.601251,-0.92224 2.259594,-1.04681 0.666145,-0.12605 1.427995,-0.20972 2.239874,-0.1709 0.817343,0.0391 1.389205,0.17406 1.855332,0.30895 0.501887,0.14523 0.706651,0.0181 0.14297,-0.28759 -0.221782,-0.12027 -0.830365,-0.31483 -1.664704,-0.4815 -0.749787,-0.14977 -1.792536,-0.20692 -2.634275,-0.0477 -0.79482,0.1504 -1.828356,0.53709 -2.627702,1.10268 -0.560501,-0.3756 -1.107978,-1.03998 -1.479008,-1.80438 -0.38132,-0.78561 -0.575888,-1.66668 -0.479855,-2.40421 0.225627,-1.73283 0.09276,-3.26127 0.910411,-4.45839 0.799409,-1.17041 2.502142,-1.83231 3.891431,-2.67042 0.418566,-0.25251 1.071917,-0.25586 1.774808,-0.0789 0.70289,0.17697 1.431889,0.52017 1.958862,0.8381 1.177378,0.71033 2.360406,1.81514 2.923503,3.13714 0.225658,0.52978 0.487956,1.31163 0.65898,2.04267 0.180567,0.77183 0.278756,1.12761 0.323738,1.41985 0.0769,0.49959 0.331408,0.76305 0.310592,0.258 -0.0056,-0.13448 -0.02619,-0.62272 -0.11832,-1.39848 -0.09213,-0.77577 -0.372004,-1.76712 -0.649121,-2.54061 -0.498667,-1.39187 -1.517796,-2.50983 -2.729588,-3.34584 0.467794,-0.83001 1.199084,-1.60007 1.983511,-2.09033 0.605002,-0.37812 1.225532,-0.58251 1.766584,-0.57188 z" inkscape:connector-curvature="0" />
    <path style="color:#000000;clip-rule:nonzero;display:inline;overflow:visible;visibility:visible;opacity:1;isolation:auto;mix-blend-mode:normal;color-interpolation:sRGB;color-interpolation-filters:linearRGB;solid-color:#000000;solid-opacity:1;fill:#000000;fill-opacity:1;fill-rule:evenodd;stroke:none;stroke-width:0.89999998;stroke-linecap:round;stroke-linejoin:miter;stroke-miterlimit:4;stroke-dasharray:none;stroke-dashoffset:0;stroke-opacity:1;color-rendering:auto;image-rendering:auto;shape-rendering:auto;text-rendering:auto;enable-background:accumulate" d="m 3.794424,-118.09467 c -0.03481,-0.0139 -0.387473,0.76522 -0.773437,1.66992 -0.381703,0.89472 -0.809184,1.94165 -0.982422,2.44336 -0.176438,0.5371 -0.390469,1.30435 -0.589844,2.01172 0.06031,-0.55635 0.109986,-1.12538 0.103516,-1.63477 -0.01279,-1.74744 -0.425929,-3.66291 -0.498047,-3.65039 -0.07275,0.0126 0.183985,1.9486 0.04883,3.63477 -0.07238,0.83501 -0.290636,1.86782 -0.482422,2.63281 -0.354416,-0.68951 -0.858631,-1.64701 -1.449218,-2.51562 -0.780652,-1.11593 -2.309126,-2.07981 -2.347657,-2.02539 -0.04001,0.0565 1.375504,1.16904 1.964844,2.26171 0.304172,0.53913 0.568646,1.10365 0.796875,1.62696 0.372061,0.28889 0.708358,0.56132 0.951172,0.78515 0.450547,0.41534 0.755162,0.86352 0.892578,1.28907 0.0687,0.21277 0.09588,0.4226 0.05859,0.62695 -0.03729,0.20435 -0.155086,0.4041 -0.339844,0.52344 -0.305542,0.19735 -0.71844,0.21836 -1.103516,0.0371 -0.310556,-0.14618 -0.627467,-0.43694 -0.960937,-0.82031 -0.641237,0.0208 -1.474062,0.0584 -2.1875,0.17187 -2.104283,0.29168 -3.519408,1.38936 -3.480469,1.44531 0.03898,0.056 1.530217,-0.86817 3.527344,-0.99804 0.376674,-0.0166 0.788074,-0.008 1.193359,0.01 -0.712154,0.25439 -1.4348,0.51707 -1.767578,0.68164 -2.162568,0.91869 -4.094659,3.07329 -4.046875,3.11914 0.04862,0.0466 2.113703,-1.96681 4.210938,-2.69922 0.365679,-0.10109 1.271937,-0.3498 2.08789,-0.56055 0.07395,-0.0191 0.123337,-0.0305 0.195313,-0.0488 -0.378323,0.25584 -0.792906,0.55853 -1.210938,0.95703 -1.238441,1.16919 -1.630753,2.5038 -1.566406,2.52735 0.06436,0.0236 0.614646,-1.21112 1.859375,-2.1875 0.923232,-0.7175 1.866097,-1.08815 2.203125,-1.16602 0.06017,0.43796 0.121551,1.11761 0.138672,1.69531 -0.0046,1.38515 -0.382684,3.57189 -0.314453,3.58594 0.06715,0.0138 0.587741,-2.14147 0.734375,-3.5625 0.01539,-0.11398 0.0209,-0.24938 0.0332,-0.375 0.06524,0.42004 0.130264,0.87141 0.193359,1.16406 0.346841,2.21188 0.996326,4.22625 1.080079,4.20313 0.08403,-0.0232 -0.38924,-2.07493 -0.556641,-4.26367 -0.0036,-0.21423 -0.0095,-0.56189 -0.01563,-0.86524 0.02034,0.0576 0.04072,0.12785 0.06055,0.18164 0.513637,1.61427 1.790647,3.18206 1.855469,3.13477 0.06636,-0.0484 -1.03386,-1.73019 -1.345704,-3.26758 -0.08436,-0.53103 -0.190887,-1.23418 -0.248046,-1.73242 0.450157,0.021 1.107513,0.0847 1.695312,0.19336 1.164725,0.23043 2.402663,0.98994 2.443359,0.93164 0.03983,-0.0571 -1.105126,-0.96654 -2.326171,-1.36719 -0.325602,-0.11217 -0.655915,-0.18972 -0.984376,-0.27539 0.516501,-0.0598 1.137006,-0.1208 1.621094,-0.15625 2.216152,-0.0729 5.151435,0.70788 5.171875,0.63867 0.02015,-0.0682 -2.871752,-1.01257 -5.171875,-1.08984 -0.536234,-0.0394 -1.221307,-0.0518 -1.767578,-0.0645 0.410869,-0.0906 0.883277,-0.18959 1.404297,-0.30469 1.68587,-0.34236 3.617698,-1.23793 3.589844,-1.30469 -0.02823,-0.0677 -2.017753,0.6758 -3.660157,0.85938 -0.68941,0.0665 -1.333269,0.1164 -1.789062,0.13672 0.05402,-0.18849 0.172573,-0.51714 0.359375,-0.97461 0.257407,-0.63039 0.571071,-1.34083 0.787109,-1.74024 0.257372,-0.46166 0.719406,-1.0516 1.111328,-1.53515 0.390428,-0.48171 0.706164,-0.85041 0.679688,-0.87696 -0.02646,-0.0265 -0.396678,0.28997 -0.845703,0.72461 -0.444283,0.43005 -0.980416,0.99029 -1.320313,1.44141 -0.200435,0.26077 -0.436266,0.65875 -0.669922,1.07031 0.144547,-0.74342 0.306939,-1.55708 0.427735,-2.12304 0.09342,-0.49024 0.445698,-1.55421 0.759765,-2.48047 0.315275,-0.92983 0.597322,-1.73608 0.5625,-1.75 z" inkscape:connector-curvature="0" />
    <path style="color:#000000;clip-rule:nonzero;display:inline;overflow:visible;visibility:visible;opacity:1;isolation:auto;mix-blend-mode:normal;color-interpolation:sRGB;color-interpolation-filters:linearRGB;solid-color:#000000;solid-opacity:1;fill:#000000;fill-opacity:1;fill-rule:evenodd;stroke:none;stroke-width:0.89999998;stroke-linecap:round;stroke-linejoin:miter;stroke-miterlimit:4;stroke-dasharray:none;stroke-dashoffset:0;stroke-opacity:1;color-rendering:auto;image-rendering:auto;shape-rendering:auto;text-rendering:auto;enable-background:accumulate" d="m -0.916513,-109.19819 c -0.08002,-0.092 -0.155364,-0.1568 -0.238281,-0.26367 -0.1926,-0.24822 -0.664725,-0.74012 -1.285156,-1.32226 -0.09208,-0.0408 -0.153678,-0.0727 -0.248047,-0.11328 -1.388077,-0.6083 -3.187994,-0.65792 -3.19336,-0.58985 -0.0055,0.0696 1.769599,0.29863 2.992188,0.99219 0.943426,0.53918 1.739463,1.0834 1.972656,1.29687 z" inkscape:connector-curvature="0" />
    <path style="color:#000000;clip-rule:nonzero;display:inline;overflow:visible;visibility:visible;opacity:1;isolation:auto;mix-blend-mode:normal;color-interpolation:sRGB;color-interpolation-filters:linearRGB;solid-color:#000000;solid-opacity:1;fill:#000000;fill-opacity:1;fill-rule:evenodd;stroke:none;stroke-width:0.89999998;stroke-linecap:round;stroke-linejoin:miter;stroke-miterlimit:4;stroke-dasharray:none;stroke-dashoffset:0;stroke-opacity:1;color-rendering:auto;image-rendering:auto;shape-rendering:auto;text-rendering:auto;enable-background:accumulate" d="m -7.806877,-115.72644 c 1.94457,0.58391 6.643912,3.73434 8.129359,5.1037 0.836444,0.77108 1.096168,1.65836 0.65443,1.94368 -0.441738,0.28531 -1.060198,0.0838 -1.882086,-0.97545 -0.735118,-0.94742 -4.303093,-4.33376 -7.586861,-5.69825 -0.596704,-0.24795 -0.206304,-0.64136 0.685158,-0.37368 z" inkscape:connector-curvature="0" />
    <circle cx="-16.488615" cy="-113.608350" r="0.578456" style="color:#000000;clip-rule:nonzero;display:inline;overflow:visible;visibility:visible;opacity:1;isolation:auto;mix-blend-mode:normal;color-interpolation:sRGB;color-interpolation-filters:linearRGB;solid-color:#000000;solid-opacity:1;fill:#000000;fill-opacity:1;fill-rule:evenodd;stroke:none;stroke-width:0.89999998;stroke-linecap:round;stroke-linejoin:miter;stroke-miterlimit:4;stroke-dasharray:none;stroke-dashoffset:0;stroke-opacity:1;color-rendering:auto;image-rendering:auto;shape-rendering:auto;text-rendering:auto;enable-background:accumulate" transform="matrix(0.99754986,0.06995909,-0.06995909,0.99754986,0,0)" />
    <circle cx="-15.173941" cy="-112.977310" r="0.578456" style="color:#000000;clip-rule:nonzero;display:inline;overflow:visible;visibility:visible;opacity:1;isolation:auto;mix-blend-mode:normal;color-interpolation:sRGB;color-interpolation-filters:linearRGB;solid-color:#000000;solid-opacity:1;fill:#000000;fill-opacity:1;fill-rule:evenodd;stroke:none;stroke-width:0.89999998;stroke-linecap:round;stroke-linejoin:miter;stroke-miterlimit:4;stroke-dasharray:none;stroke-dashoffset:0;stroke-opacity:1;color-rendering:auto;image-rendering:auto;shape-rendering:auto;text-rendering:auto;enable-background:accumulate" transform="matrix(0.99754986,0.06995909,-0.06995909,0.99754986,0,0)" />
    <circle cx="-14.332552" cy="-115.291140" r="0.578456" style="color:#000000;clip-rule:nonzero;display:inline;overflow:visible;visibility:visible;opacity:1;isolation:auto;mix-blend-mode:normal;color-interpolation:sRGB;color-interpolation-filters:linearRGB;solid-color:#000000;solid-opacity:1;fill:#000000;fill-opacity:1;fill-rule:evenodd;stroke:none;stroke-width:0.89999998;stroke-linecap:round;stroke-linejoin:miter;stroke-miterlimit:4;stroke-dasharray:none;stroke-dashoffset:0;stroke-opacity:1;color-rendering:auto;image-rendering:auto;shape-rendering:auto;text-rendering:auto;enable-background:accumulate" transform="matrix(0.99754986,0.06995909,-0.06995909,0.99754986,0,0)" />
    <circle cx="-15.857573" cy="-115.738120" r="0.578456" style="color:#000000;clip-rule:nonzero;display:inline;overflow:visible;visibility:visible;opacity:1;isolation:auto;mix-blend-mode:normal;color-interpolation:sRGB;color-interpolation-filters:linearRGB;solid-color:#000000;solid-opacity:1;fill:#000000;fill-opacity:1;fill-rule:evenodd;stroke:none;stroke-width:0.89999998;stroke-linecap:round;stroke-linejoin:miter;stroke-miterlimit:4;stroke-dasharray:none;stroke-dashoffset:0;stroke-opacity:1;color-rendering:auto;image-rendering:auto;shape-rendering:auto;text-rendering:auto;enable-background:accumulate" transform="matrix(0.99754986,0.06995909,-0.06995909,0.99754986,0,0)" />
    <circle cx="-17.356298" cy="-115.738120" r="0.578456" style="color:#000000;clip-rule:nonzero;display:inline;overflow:visible;visibility:visible;opacity:1;isolation:auto;mix-blend-mode:normal;color-interpolation:sRGB;color-interpolation-filters:linearRGB;solid-color:#000000;solid-opacity:1;fill:#000000;fill-opacity:1;fill-rule:evenodd;stroke:none;stroke-width:0.89999998;stroke-linecap:round;stroke-linejoin:miter;stroke-miterlimit:4;stroke-dasharray:none;stroke-dashoffset:0;stroke-opacity:1;color-rendering:auto;image-rendering:auto;shape-rendering:auto;text-rendering:auto;enable-background:accumulate" transform="matrix(0.99754986,0.06995909,-0.06995909,0.99754986,0,0)" />
    <circle cx="-17.803286" cy="-114.397160" r="0.578456" style="color:#000000;clip-rule:nonzero;display:inline;overflow:visible;visibility:visible;opacity:1;isolation:auto;mix-blend-mode:normal;color-interpolation:sRGB;color-interpolation-filters:linearRGB;solid-color:#000000;solid-opacity:1;fill:#000000;fill-opacity:1;fill-rule:evenodd;stroke:none;stroke-width:0.89999998;stroke-linecap:round;stroke-linejoin:miter;stroke-miterlimit:4;stroke-dasharray:none;stroke-dashoffset:0;stroke-opacity:1;color-rendering:auto;image-rendering:auto;shape-rendering:auto;text-rendering:auto;enable-background:accumulate" transform="matrix(0.99754986,0.06995909,-0.06995909,0.99754986,0,0)" />
  </g>
</g>
<g inkscape:groupmode="layer" id="extras_layer" inkscape:label="Extras" style="display:inline" sodipodi:insensitive="true" >
  <g id="extra-ship" transform="matrix(0.4444171,-0.89581998,0.89581998,0.4444171,266.30938,417.60566)" >
    <path style="color:#000000;fill:url(#gradientShip);fill-opacity:1;fill-rule:evenodd;stroke:#000000;stroke-width:0.75;stroke-linecap:butt;stroke-linejoin:round;stroke-miterlimit:4;stroke-dasharray:none;stroke-dashoffset:0;stroke-opacity:1;marker:none;enable-background:accumulate" d="m 243.2364,-52.722824 c -3.10208,-2.937202 -8.72518,-3.346714 -12.49116,-3.032742 -2.95307,0.246202 -6.62512,1.070872 -6.62512,1.070872 l -0.0121,3.725952 c 0,0 2.43298,0.582421 6.39007,0.932887 3.66202,0.324334 9.61676,-0.283241 12.73834,-2.696969 z" inkscape:connector-curvature="0" />
    <path style="color:#000000;opacity:1;isolation:auto;mix-blend-mode:normal;color-interpolation:sRGB;color-interpolation-filters:linearRGB;solid-color:#000000;solid-opacity:1;fill:#000000;fill-opacity:1;fill-rule:evenodd;stroke:none;stroke-width:0.75;stroke-linecap:round;stroke-linejoin:round;stroke-miterlimit:4;stroke-dasharray:none;stroke-dashoffset:0;stroke-opacity:1;marker:none;color-rendering:auto;image-rendering:auto;shape-rendering:auto;text-rendering:auto;enable-background:accumulate" d="m 243.05273,-53.089844 c -0.50461,-0.01007 -0.51271,0.749303 -0.008,0.75 l 2.80546,-0.143551 c 0.50461,0.01007 0.51856,-0.385922 0.0138,-0.386619 z" inkscape:connector-curvature="0" />
    <circle cx="37.651787" cy="-233.087830" r="0.695206" style="color:#000000;opacity:1;isolation:auto;mix-blend-mode:normal;color-interpolation:sRGB;color-interpolation-filters:linearRGB;solid-color:#000000;solid-opacity:1;fill:#a66e00;fill-opacity:1;fill-rule:nonzero;stroke:#000000;stroke-width:0.5;stroke-linecap:butt;stroke-linejoin:miter;stroke-miterlimit:4;stroke-dasharray:none;stroke-dashoffset:0;stroke-opacity:1;color-rendering:auto;image-rendering:auto;shape-rendering:auto;text-rendering:auto;enable-background:accumulate" transform="matrix(0.37654483,0.9263984,-0.9263984,0.37654483,0,0)" />
    <circle cx="39.995537" cy="-238.712830" r="0.695206" style="color:#000000;opacity:1;isolation:auto;mix-blend-mode:normal;color-interpolation:sRGB;color-interpolation-filters:linearRGB;solid-color:#000000;solid-opacity:1;fill:#a66e00;fill-opacity:1;fill-rule:nonzero;stroke:#000000;stroke-width:0.5;stroke-linecap:butt;stroke-linejoin:miter;stroke-miterlimit:4;stroke-dasharray:none;stroke-dashoffset:0;stroke-opacity:1;color-rendering:auto;image-rendering:auto;shape-rendering:auto;text-rendering:auto;enable-background:accumulate" transform="matrix(0.37654483,0.9263984,-0.9263984,0.37654483,0,0)" />
    <path style="color:#000000;fill:#feffff;fill-opacity:1;fill-rule:evenodd;stroke:#000000;stroke-width:0.5;stroke-linecap:butt;stroke-linejoin:round;stroke-miterlimit:4;stroke-dasharray:none;stroke-dashoffset:0;stroke-opacity:1;marker:none;enable-background:accumulate" d="m 230.8139,-58.168744 -0.0696,11.095953 c 0,0 1.11273,-0.901569 1.17305,-2.014949 0.0592,-1.093696 -0.80015,-1.762231 -0.80015,-1.762231 0,0 1.00218,-0.841738 0.9922,-1.921676 -0.0106,-1.140901 -0.9468,-1.722391 -0.9468,-1.722391 0,0 0.80027,-0.5343 0.83406,-1.646805 0.0349,-1.150244 -1.18274,-2.027894 -1.18274,-2.027894 z" inkscape:connector-curvature="0" />
    <path style="color:#000000;fill:#feffff;fill-opacity:1;fill-rule:evenodd;stroke:#000000;stroke-width:0.5;stroke-linecap:butt;stroke-linejoin:round;stroke-miterlimit:4;stroke-dasharray:none;stroke-dashoffset:0;stroke-opacity:1;marker:none;enable-background:accumulate" d="m 236.95087,-57.97366 -0.0645,10.282469 c 0,0 1.03677,-0.785137 1.09267,-1.816887 0.0549,-1.013517 -0.74706,-1.683399 -0.74706,-1.683399 0,0 0.85887,-0.76153 0.84962,-1.762298 -0.01,-1.057255 -0.80754,-1.614603 -0.80754,-1.614603 0,0 0.84013,-0.540128 0.87144,-1.571079 0.0324,-1.065902 -1.19455,-1.834218 -1.19455,-1.834218 z" inkscape:connector-curvature="0" />
    <path style="fill:#000000;stroke:none" d="m 239.16963,-53.312319 -0.0111,0.999645 1.00145,0.01039 0.009,-1.000718 z" inkscape:connector-curvature="0" />
    <path style="fill:#6a4600;stroke:none" d="m 233.00825,-53.641515 -0.0131,1.52646 1.52369,0.01423 0.0142,-1.523703 z" inkscape:connector-curvature="0" />
    <path style="fill:none;stroke:#000000;stroke-width:0.6;stroke-linecap:butt" d="m 227.26126,-55.055042 -0.0734,4.514141" inkscape:connector-curvature="0" />
    <path style="fill:#000000;stroke:none" d="m 223.83649,-54.026834 -0.0111,0.999636 1.00072,0.0086 0.009,-0.998911 z" inkscape:connector-curvature="0" />
    <path style="fill:#000000;stroke:none" d="m 223.85032,-52.581947 -0.0111,0.999637 1.00072,0.0086 0.009,-0.998912 z" inkscape:connector-curvature="0" />
    <path style="fill:none;stroke:#000000;stroke-width:0.5;stroke-linecap:butt;stroke-linejoin:round;stroke-miterlimit:4" d="m 227.2539,-51.578825 1.14997,0.173504 -0.0116,1.05042" inkscape:connector-curvature="0" />
    <path style="fill:none;stroke:#000000;stroke-width:0.5;stroke-linecap:butt;stroke-linejoin:round;stroke-miterlimit:4" d="m 227.25705,-54.143799 1.1481,-0.163064 0.0224,-1.189753" inkscape:connector-curvature="0" />
  </g>
</g>
<g inkscape:groupmode="layer" id="suit_rank_glow_layer" inkscape:label="Suit Rank Glow" style="display:inline" sodipodi:insensitive="true" >
  <g style="opacity:0.75;filter:url(#blurSuitRankGlow)" >
    <path style="fill:#ffffff;fill-opacity:1;stroke:none" d="m 31.453338,20.628773 c -3.90158,4.19568 -7.07982,7.84109 -10.6575,12.24125 3.57768,4.40016 6.75592,8.045575 10.6575,12.241254 3.90158,-4.195679 7.07982,-7.841094 10.6575,-12.241254 -3.57768,-4.40016 -6.75592,-8.04557 -10.6575,-12.241251 z" inkscape:connector-curvature="0" />
    <path style="fill:#ffffff;fill-opacity:1;stroke:none" d="m 215.96335,316.87128 c 3.90158,-4.19568 7.07982,-7.84109 10.6575,-12.24125 -3.57768,-4.40016 -6.75592,-8.04557 -10.6575,-12.24125 -3.90158,4.19568 -7.07982,7.84109 -10.6575,12.24125 3.57768,4.40016 6.75592,8.04557 10.6575,12.24125 z" inkscape:connector-curvature="0" />
    <path style="fill:#ffffff;fill-opacity:1;stroke:none" d="m 41.053328,82.975025 -19.19999,0 0,-3.2 c -10e-6,-2 0.39999,-3.84 1.19999,-5.52 0.8,-1.7066 1.84,-3.1466 3.12,-4.32 0.74666,-0.6666 1.37333,-1.2 1.88,-1.6 0.50666,-0.4266 0.98666,-0.7866 1.44001,-1.08 0.45332,-0.32 0.90665,-0.6133 1.36,-0.88 0.47998,-0.2933 1.05332,-0.6533 1.72,-1.08 0.82665,-0.5333 1.57331,-0.9866 2.23999,-1.36 0.66666,-0.3733 1.21332,-0.76 1.64001,-1.16 0.45331,-0.4266 0.79998,-0.9066 1.04,-1.44 0.23998,-0.56 0.35998,-1.28 0.36,-2.16 -2e-5,-0.88 -0.17336,-1.64 -0.52,-2.28 -0.32002,-0.6666 -0.77335,-1.2133 -1.36,-1.64 -0.58669,-0.4266 -1.26669,-0.7466 -2.04001,-0.96 -0.77334,-0.2133 -1.60001,-0.32 -2.47999,-0.32 -0.88002,0 -1.70668,0.1334 -2.48,0.4 -0.77335,0.24 -1.45335,0.5867 -2.04001,1.04 -0.58667,0.4534 -1.05333,1 -1.4,1.64 -0.32,0.64 -0.48,1.3467 -0.48,2.12 l 0,0.4 -3.19999,0.04 0,-0.44 c -10e-6,-1.2266 0.25333,-2.3466 0.76,-3.36 0.50666,-1.04 1.18666,-1.9333 2.03999,-2.68 0.88,-0.7466 1.89333,-1.32 3.04001,-1.72 1.17332,-0.4266 2.42665,-0.64 3.76,-0.64 1.30665,0 2.54665,0.2 3.71999,0.6 1.17332,0.3734 2.18665,0.92 3.04001,1.64 0.87998,0.72 1.57331,1.6 2.07999,2.64 0.50665,1.04 0.75998,2.2134 0.76,3.52 -2e-5,1.6 -0.34668,3.0267 -1.03999,4.28 -0.69336,1.2267 -1.65336,2.2134 -2.88,2.96 -0.93335,0.56 -1.76002,1.04 -2.48001,1.44 -0.69334,0.4 -1.37334,0.8134 -2.03999,1.24 -0.64002,0.4 -1.29335,0.8534 -1.96001,1.36 -0.64,0.5067 -1.36,1.1467 -2.15999,1.92 -0.34668,0.32 -0.72001,0.7334 -1.12,1.24 -0.37335,0.5067 -0.73334,1.08 -1.08001,1.72 -0.32,0.64 -0.58667,1.3333 -0.79999,2.08 -0.21334,0.7467 -0.32001,1.5333 -0.32001,2.36 l 12.68001,0 0,-4 1.6,0 1.59999,0 0,7.2" inkscape:connector-curvature="0" />
    <path style="fill:#ffffff;fill-opacity:1;stroke:none" d="m 206.36335,254.52503 19.19999,0 0,3.2 c 1e-5,2 -0.39999,3.84 -1.19999,5.52 -0.8,1.7066 -1.84,3.1466 -3.12,4.32 -0.74666,0.6666 -1.37333,1.2 -1.88,1.6 -0.50666,0.4266 -0.98666,0.7866 -1.44001,1.08 -0.45332,0.32 -0.90665,0.6133 -1.36,0.88 -0.47998,0.2933 -1.05332,0.6533 -1.72,1.08 -0.82665,0.5333 -1.57331,0.9866 -2.23999,1.36 -0.66666,0.3733 -1.21332,0.76 -1.64001,1.16 -0.45331,0.4266 -0.79998,0.9066 -1.04,1.44 -0.23998,0.56 -0.35998,1.28 -0.36,2.16 2e-5,0.88 0.17336,1.64 0.52,2.28 0.32002,0.6666 0.77335,1.2133 1.36,1.64 0.58669,0.4266 1.26669,0.7466 2.04001,0.96 0.77334,0.2133 1.60001,0.32 2.47999,0.32 0.88002,0 1.70668,-0.1334 2.48,-0.4 0.77335,-0.24 1.45335,-0.5867 2.04001,-1.04 0.58667,-0.4534 1.05333,-1 1.4,-1.64 0.32,-0.64 0.48,-1.3467 0.48,-2.12 l 0,-0.4 3.19999,-0.04 0,0.44 c 1e-5,1.2266 -0.25333,2.3466 -0.76,3.36 -0.50666,1.04 -1.18666,1.9333 -2.03999,2.68 -0.88,0.7466 -1.89333,1.32 -3.04001,1.72 -1.17332,0.4266 -2.42665,0.64 -3.76,0.64 -1.30665,0 -2.54665,-0.2 -3.71999,-0.6 -1.17332,-0.3734 -2.18665,-0.92 -3.04001,-1.64 -0.87998,-0.72 -1.57331,-1.6 -2.07999,-2.64 -0.50665,-1.04 -0.75998,-2.2134 -0.76,-3.52 2e-5,-1.6 0.34668,-3.0267 1.03999,-4.28 0.69336,-1.2267 1.65336,-2.2134 2.88,-2.96 0.93335,-0.56 1.76002,-1.04 2.48001,-1.44 0.69334,-0.4 1.37334,-0.8134 2.03999,-1.24 0.64002,-0.4 1.29335,-0.8534 1.96001,-1.36 0.64,-0.5067 1.36,-1.1467 2.15999,-1.92 0.34668,-0.32 0.72001,-0.7334 1.12,-1.24 0.37335,-0.5067 0.73334,-1.08 1.08001,-1.72 0.32,-0.64 0.58667,-1.3333 0.79999,-2.08 0.21334,-0.7467 0.32001,-1.5333 0.32001,-2.36 l -12.68001,0 0,4 -1.6,0 -1.59999,0 0,-7.2" inkscape:connector-curvature="0" />
  </g>
</g>
<g inkscape:groupmode="layer" id="suit_rank_layer" inkscape:label="Suit Rank" style="display:inline" sodipodi:insensitive="true" >
  <path style="fill:#de0000;fill-opacity:1;stroke:none" d="m 31.453338,20.628773 c -3.90158,4.19568 -7.07982,7.84109 -10.6575,12.24125 3.57768,4.40016 6.75592,8.045575 10.6575,12.241254 3.90158,-4.195679 7.07982,-7.841094 10.6575,-12.241254 -3.57768,-4.40016 -6.75592,-8.04557 -10.6575,-12.241251 z" inkscape:connector-curvature="0" />
  <path style="fill:#de0000;fill-opacity:1;stroke:none" d="m 215.96335,316.87128 c 3.90158,-4.19568 7.07982,-7.84109 10.6575,-12.24125 -3.57768,-4.40016 -6.75592,-8.04557 -10.6575,-12.24125 -3.90158,4.19568 -7.07982,7.84109 -10.6575,12.24125 3.57768,4.40016 6.75592,8.04557 10.6575,12.24125 z" inkscape:connector-curvature="0" />
  <path style="fill:#de0000;fill-opacity:1;stroke:none" d="m 41.053328,82.975025 -19.19999,0 0,-3.2 c -10e-6,-2 0.39999,-3.84 1.19999,-5.52 0.8,-1.7066 1.84,-3.1466 3.12,-4.32 0.74666,-0.6666 1.37333,-1.2 1.88,-1.6 0.50666,-0.4266 0.98666,-0.7866 1.44001,-1.08 0.45332,-0.32 0.90665,-0.6133 1.36,-0.88 0.47998,-0.2933 1.05332,-0.6533 1.72,-1.08 0.82665,-0.5333 1.57331,-0.9866 2.23999,-1.36 0.66666,-0.3733 1.21332,-0.76 1.64001,-1.16 0.45331,-0.4266 0.79998,-0.9066 1.04,-1.44 0.23998,-0.56 0.35998,-1.28 0.36,-2.16 -2e-5,-0.88 -0.17336,-1.64 -0.52,-2.28 -0.32002,-0.6666 -0.77335,-1.2133 -1.36,-1.64 -0.58669,-0.4266 -1.26669,-0.7466 -2.04001,-0.96 -0.77334,-0.2133 -1.60001,-0.32 -2.47999,-0.32 -0.88002,0 -1.70668,0.1334 -2.48,0.4 -0.77335,0.24 -1.45335,0.5867 -2.04001,1.04 -0.58667,0.4534 -1.05333,1 -1.4,1.64 -0.32,0.64 -0.48,1.3467 -0.48,2.12 l 0,0.4 -3.19999,0.04 0,-0.44 c -10e-6,-1.2266 0.25333,-2.3466 0.76,-3.36 0.50666,-1.04 1.18666,-1.9333 2.03999,-2.68 0.88,-0.7466 1.89333,-1.32 3.04001,-1.72 1.17332,-0.4266 2.42665,-0.64 3.76,-0.64 1.30665,0 2.54665,0.2 3.71999,0.6 1.17332,0.3734 2.18665,0.92 3.04001,1.64 0.87998,0.72 1.57331,1.6 2.07999,2.64 0.50665,1.04 0.75998,2.2134 0.76,3.52 -2e-5,1.6 -0.34668,3.0267 -1.03999,4.28 -0.69336,1.2267 -1.65336,2.2134 -2.88,2.96 -0.93335,0.56 -1.76002,1.04 -2.48001,1.44 -0.69334,0.4 -1.37334,0.8134 -2.03999,1.24 -0.64002,0.4 -1.29335,0.8534 -1.96001,1.36 -0.64,0.5067 -1.36,1.1467 -2.15999,1.92 -0.34668,0.32 -0.72001,0.7334 -1.12,1.24 -0.37335,0.5067 -0.73334,1.08 -1.08001,1.72 -0.32,0.64 -0.58667,1.3333 -0.79999,2.08 -0.21334,0.7467 -0.32001,1.5333 -0.32001,2.36 l 12.68001,0 0,-4 1.6,0 1.59999,0 0,7.2" inkscape:connector-curvature="0" />
  <path style="fill:#de0000;fill-opacity:1;stroke:none" d="m 206.36335,254.52503 19.19999,0 0,3.2 c 1e-5,2 -0.39999,3.84 -1.19999,5.52 -0.8,1.7066 -1.84,3.1466 -3.12,4.32 -0.74666,0.6666 -1.37333,1.2 -1.88,1.6 -0.50666,0.4266 -0.98666,0.7866 -1.44001,1.08 -0.45332,0.32 -0.90665,0.6133 -1.36,0.88 -0.47998,0.2933 -1.05332,0.6533 -1.72,1.08 -0.82665,0.5333 -1.57331,0.9866 -2.23999,1.36 -0.66666,0.3733 -1.21332,0.76 -1.64001,1.16 -0.45331,0.4266 -0.79998,0.9066 -1.04,1.44 -0.23998,0.56 -0.35998,1.28 -0.36,2.16 2e-5,0.88 0.17336,1.64 0.52,2.28 0.32002,0.6666 0.77335,1.2133 1.36,1.64 0.58669,0.4266 1.26669,0.7466 2.04001,0.96 0.77334,0.2133 1.60001,0.32 2.47999,0.32 0.88002,0 1.70668,-0.1334 2.48,-0.4 0.77335,-0.24 1.45335,-0.5867 2.04001,-1.04 0.58667,-0.4534 1.05333,-1 1.4,-1.64 0.32,-0.64 0.48,-1.3467 0.48,-2.12 l 0,-0.4 3.19999,-0.04 0,0.44 c 1e-5,1.2266 -0.25333,2.3466 -0.76,3.36 -0.50666,1.04 -1.18666,1.9333 -2.03999,2.68 -0.88,0.7466 -1.89333,1.32 -3.04001,1.72 -1.17332,0.4266 -2.42665,0.64 -3.76,0.64 -1.30665,0 -2.54665,-0.2 -3.71999,-0.6 -1.17332,-0.3734 -2.18665,-0.92 -3.04001,-1.64 -0.87998,-0.72 -1.57331,-1.6 -2.07999,-2.64 -0.50665,-1.04 -0.75998,-2.2134 -0.76,-3.52 2e-5,-1.6 0.34668,-3.0267 1.03999,-4.28 0.69336,-1.2267 1.65336,-2.2134 2.88,-2.96 0.93335,-0.56 1.76002,-1.04 2.48001,-1.44 0.69334,-0.4 1.37334,-0.8134 2.03999,-1.24 0.64002,-0.4 1.29335,-0.8534 1.96001,-1.36 0.64,-0.5067 1.36,-1.1467 2.15999,-1.92 0.34668,-0.32 0.72001,-0.7334 1.12,-1.24 0.37335,-0.5067 0.73334,-1.08 1.08001,-1.72 0.32,-0.64 0.58667,-1.3333 0.79999,-2.08 0.21334,-0.7467 0.32001,-1.5333 0.32001,-2.36 l -12.68001,0 0,4 -1.6,0 -1.59999,0 0,-7.2" inkscape:connector-curvature="0" />
</g>
<g inkscape:groupmode="layer" id="guides_layer" inkscape:label="Guides" style="display:none" sodipodi:insensitive="true" >
  <path style="fill:none;stroke:#000000;stroke-width:0.9" d="m 11.250000,11.25 0,-45" inkscape:connector-curvature="0" />
  <path style="fill:none;stroke:#000000;stroke-width:0.9" d="m 11.250000,371.25 0,-45" inkscape:connector-curvature="0" />
  <path style="fill:none;stroke:#000000;stroke-width:0.9" d="m 84.375000,11.25 0,-45" inkscape:connector-curvature="0" />
  <path style="fill:none;stroke:#000000;stroke-width:0.9" d="m 84.375000,371.25 0,-45" inkscape:connector-curvature="0" />
  <path style="fill:none;stroke:#000000;stroke-width:0.9" d="m 123.750000,11.25 0,-45" inkscape:connector-curvature="0" />
  <path style="fill:none;stroke:#000000;stroke-width:0.9" d="m 123.750000,371.25 0,-45" inkscape:connector-curvature="0" />
  <path style="fill:none;stroke:#000000;stroke-width:0.9" d="m 163.125000,11.25 0,-45" inkscape:connector-curvature="0" />
  <path style="fill:none;stroke:#000000;stroke-width:0.9" d="m 163.125000,371.25 0,-45" inkscape:connector-curvature="0" />
  <path style="fill:none;stroke:#000000;stroke-width:0.9" d="m 236.250000,11.25 0,-45" inkscape:connector-curvature="0" />
  <path style="fill:none;stroke:#000000;stroke-width:0.9" d="m 236.250000,371.25 0,-45" inkscape:connector-curvature="0" />
  <path style="fill:none;stroke:#000000;stroke-width:0.9" d="m -33.75,11.250000 45,0" inkscape:connector-curvature="0" />
  <path style="fill:none;stroke:#000000;stroke-width:0.9" d="m 236.25,11.250000 45,0" inkscape:connector-curvature="0" />
  <path style="fill:none;stroke:#000000;stroke-width:0.9" d="m -33.75,118.125000 45,0" inkscape:connector-curvature="0" />
  <path style="fill:none;stroke:#000000;stroke-width:0.9" d="m 236.25,118.125000 45,0" inkscape:connector-curvature="0" />
  <path style="fill:none;stroke:#000000;stroke-width:0.9" d="m -33.75,168.750000 45,0" inkscape:connector-curvature="0" />
  <path style="fill:none;stroke:#000000;stroke-width:0.9" d="m 236.25,168.750000 45,0" inkscape:connector-curvature="0" />
  <path style="fill:none;stroke:#000000;stroke-width:0.9" d="m -33.75,219.375000 45,0" inkscape:connector-curvature="0" />
  <path style="fill:none;stroke:#000000;stroke-width:0.9" d="m 236.25,219.375000 45,0" inkscape:connector-curvature="0" />
  <path style="fill:none;stroke:#000000;stroke-width:0.9" d="m -33.75,326.250000 45,0" inkscape:connector-curvature="0" />
  <path style="fill:none;stroke:#000000;stroke-width:0.9" d="m 236.25,326.250000 45,0" inkscape:connector-curvature="0" />
  <g id="guide-short0-0" >
    <rect x="0.000000" y="-22.500000" width="247.500000" height="22.500000" style="fill:#73baff;stroke:#000000;stroke-width:0.9" />
  </g>
  <g id="guide-long1-0" >
    <rect x="247.500000" y="0.000000" width="22.500000" height="337.500000" style="fill:#73baff;stroke:#000000;stroke-width:0.9" />
  </g>
  <g id="guide-short2-1" transform="matrix(-1,0,0,1,247.5,360)" >
    <rect x="163.125000" y="-22.500000" width="84.375000" height="22.500000" style="fill:#ffd291;stroke:#000000;stroke-width:0.9" />
    <rect x="168.750000" y="-22.500000" width="78.750000" height="22.500000" style="fill:#b4e982;stroke:#000000;stroke-width:0.9" />
    <rect x="185.625000" y="-22.500000" width="61.875000" height="22.500000" style="fill:#5adc4f;stroke:#000000;stroke-width:0.9" />
    <rect x="0.000000" y="-22.500000" width="163.125000" height="22.500000" style="fill:#b9deff;stroke:#000000;stroke-width:0.9" />
    <rect x="0.000000" y="-22.500000" width="123.750000" height="22.500000" style="fill:#9bceff;stroke:#000000;stroke-width:0.9" />
    <rect x="0.000000" y="-22.500000" width="67.500000" height="22.500000" style="fill:#73baff;stroke:#000000;stroke-width:0.9" />
  </g>
  <g id="guide-long3-6" transform="matrix(1,0,0,-1,-270,337.5)" >
    <rect x="247.500000" y="0.000000" width="22.500000" height="219.375000" style="fill:#ffd291;stroke:#000000;stroke-width:0.9" />
    <rect x="247.500000" y="0.000000" width="22.500000" height="213.750000" style="fill:#b4e982;stroke:#000000;stroke-width:0.9" />
    <rect x="247.500000" y="0.000000" width="22.500000" height="112.500000" style="fill:#5adc4f;stroke:#000000;stroke-width:0.9" />
    <rect x="247.500000" y="123.750000" width="22.500000" height="61.875000" style="fill:#5adc4f;stroke:#000000;stroke-width:0.9" />
    <rect x="247.500000" y="219.375000" width="22.500000" height="118.125000" style="fill:#b9deff;stroke:#000000;stroke-width:0.9" />
    <rect x="247.500000" y="253.125000" width="22.500000" height="84.375000" style="fill:#9bceff;stroke:#000000;stroke-width:0.9" />
    <rect x="247.500000" y="286.875000" width="22.500000" height="50.625000" style="fill:#73baff;stroke:#000000;stroke-width:0.9" />
  </g>
</g>
<g inkscape:groupmode="layer" id="cut_line_layer" inkscape:label="Cut Line" style="display:none" sodipodi:insensitive="true" >
  <rect style="fill:none;stroke:#000000;stroke-width:0.5;stroke-linecap:butt;stroke-linejoin:bevel;stroke-miterlimit:4;stroke-dasharray:none;stroke-opacity:1" width="225" height="315" x="11.25" y="11.25" ry="17.361111" />
</g>
<g inkscape:groupmode="layer" id="page_border_layer" inkscape:label="Page Border" style="display:none" sodipodi:insensitive="true" >
  <rect style="fill:none;stroke:#000000;stroke-width:0.5;stroke-linecap:butt;stroke-linejoin:bevel;stroke-miterlimit:4;stroke-dasharray:none;stroke-opacity:1" width="247.5" height="337.5" x="0" y="0" />
</g>

</svg>
