<?xml version="1.0" encoding="UTF-8" standalone="no"?>
<svg version="1.1" height="337.5" width="247.5" xmlns:rdf="http://www.w3.org/1999/02/22-rdf-syntax-ns#" xmlns="http://www.w3.org/2000/svg" xmlns:cc="http://creativecommons.org/ns#" xmlns:xlink="http://www.w3.org/1999/xlink" xmlns:dc="http://purl.org/dc/elements/1.1/" xmlns:sodipodi="http://sodipodi.sourceforge.net/DTD/sodipodi-0.dtd" xmlns:svg="http://www.w3.org/2000/svg" xmlns:inkscape="http://www.inkscape.org/namespaces/inkscape">
<metadata>
  <rdf:RDF>
    <cc:Work rdf:about="">
      <dc:format>image/svg+xml</dc:format>
      <dc:type rdf:resource="http://purl.org/dc/dcmitype/StillImage"/>
      <dc:title/>
      <dc:creator>
        <cc:Agent><dc:title>Gary Kacmarcik</dc:title></cc:Agent>
      </dc:creator>
    </cc:Work>
  </rdf:RDF>
</metadata>

<defs>
  <filter inkscape:label="textureGrassBig" style="color-interpolation-filters:sRGB" id="textureGrassBig">
    <feTurbulence numOctaves="2" seed="109" type="turbulence" baseFrequency="0.070000" result="result1" />
    <feColorMatrix result="result0" in="SourceGraphic" type="luminanceToAlpha" />
    <feColorMatrix result="result2" values="1 0 0 0 0 0 1 0 0 0 0 0 1 0 0 0 0 0 0.4 0 " />
    <feComposite in="result2" operator="over" in2="result1" />
    <feColorMatrix result="result91" values="1 0 0 0 0 0 1 0 0 0 0 0 1 0 0 0 0 0 10 -4 " />
    <feComposite operator="out" in="SourceGraphic" in2="result91" />
    <feGaussianBlur stdDeviation="2.500000" />
    <feColorMatrix values="1 0 0 0 0 0 1 0 0 0 0 0 1 0 0 0 0 0 1 0 " />
  </filter>
  <filter inkscape:label="textureGrassSmall" style="color-interpolation-filters:sRGB" id="textureGrassSmall">
    <feTurbulence numOctaves="4" seed="109" type="turbulence" baseFrequency="0.500000" result="result1" />
    <feColorMatrix result="result0" in="SourceGraphic" type="luminanceToAlpha" />
    <feColorMatrix result="result2" values="1 0 0 0 0 0 1 0 0 0 0 0 1 0 0 0 0 0 0.4 0 " />
    <feComposite in="result2" operator="over" in2="result1" />
    <feColorMatrix result="result91" values="1 0 0 0 0 0 1 0 0 0 0 0 1 0 0 0 0 0 10 -4 " />
    <feComposite operator="out" in="SourceGraphic" in2="result91" />
    <feGaussianBlur stdDeviation="1.000000" />
    <feColorMatrix values="1 0 0 0 0 0 1 0 0 0 0 0 1 0 0 0 0 0 1 0 " />
  </filter>
  <filter inkscape:label="textureLand" style="color-interpolation-filters:sRGB" id="textureLand">
    <feTurbulence numOctaves="4" seed="109" type="turbulence" baseFrequency="0.500000" result="result1" />
    <feColorMatrix result="result0" in="SourceGraphic" type="luminanceToAlpha" />
    <feColorMatrix result="result2" values="1 0 0 0 0 0 1 0 0 0 0 0 1 0 0 0 0 0 0.4 0 " />
    <feComposite in="result2" operator="over" in2="result1" />
    <feColorMatrix result="result91" values="1 0 0 0 0 0 1 0 0 0 0 0 1 0 0 0 0 0 10 -4 " />
    <feComposite operator="out" in="SourceGraphic" in2="result91" />
    <feGaussianBlur stdDeviation="0.800000" />
    <feColorMatrix values="1 0 0 0 0 0 1 0 0 0 0 0 1 0 0 0 0 0 1 0 " />
  </filter>
  <filter inkscape:label="textureForestBig" style="color-interpolation-filters:sRGB" id="textureForestBig">
    <feTurbulence numOctaves="2" seed="109" type="turbulence" baseFrequency="0.300000" result="result1" />
    <feColorMatrix result="result0" in="SourceGraphic" type="luminanceToAlpha" />
    <feColorMatrix result="result2" values="1 0 0 0 0 0 1 0 0 0 0 0 1 0 0 0 0 0 0.4 0 " />
    <feComposite in="result2" operator="over" in2="result1" />
    <feColorMatrix result="result91" values="1 0 0 0 0 0 1 0 0 0 0 0 1 0 0 0 0 0 10 -4 " />
    <feComposite operator="out" in="SourceGraphic" in2="result91" />
    <feGaussianBlur stdDeviation="2.000000" />
    <feColorMatrix values="1 0 0 0 0 0 1 0 0 0 0 0 1 0 0 0 0 0 1 0 " />
  </filter>
  <filter inkscape:label="textureForestSmall" style="color-interpolation-filters:sRGB" id="textureForestSmall">
    <feTurbulence numOctaves="4" seed="109" type="turbulence" baseFrequency="0.350000" result="result1" />
    <feColorMatrix result="result0" in="SourceGraphic" type="luminanceToAlpha" />
    <feColorMatrix result="result2" values="1 0 0 0 0 0 1 0 0 0 0 0 1 0 0 0 0 0 0.4 0 " />
    <feComposite in="result2" operator="over" in2="result1" />
    <feColorMatrix result="result91" values="1 0 0 0 0 0 1 0 0 0 0 0 1 0 0 0 0 0 10 -4 " />
    <feComposite operator="out" in="SourceGraphic" in2="result91" />
    <feGaussianBlur stdDeviation="1.000000" />
    <feColorMatrix values="1 0 0 0 0 0 1 0 0 0 0 0 1 0 0 0 0 0 1 0 " />
  </filter>
  <filter inkscape:label="roughenShoreline" style="color-interpolation-filters:sRGB" id="roughenShoreline">
    <feTurbulence numOctaves="4" seed="109" type="turbulence" baseFrequency="0.050000" result="turb" />
    <feDisplacementMap scale="6.600000" yChannelSelector="G" xChannelSelector="R" in="SourceGraphic" in2="turb" />
  </filter>
  <filter inkscape:label="roughenForest" style="color-interpolation-filters:sRGB" id="roughenForest">
    <feTurbulence numOctaves="4" seed="109" type="fractalNoise" baseFrequency="0.150000 0.150000" result="turb" />
    <feDisplacementMap scale="6.600000" yChannelSelector="G" xChannelSelector="R" in="SourceGraphic" in2="turb" />
  </filter>
  <filter inkscape:collect="always" inkscape:label="blurSuitRankGlow" style="color-interpolation-filters:sRGB" id="blurSuitRankGlow" x="-0.029025" y="-0.020458" width="1.058049" height="1.040917">
    <feGaussianBlur inkscape:collect="always" stdDeviation="2.515067" />
  </filter>
  <filter inkscape:collect="always" inkscape:label="blurWaterDeep" style="color-interpolation-filters:sRGB" id="blurWaterDeep" x="-0.056691" y="-0.041620" width="1.113381" height="1.083239">
    <feGaussianBlur inkscape:collect="always" stdDeviation="6.919136" />
  </filter>
  <filter inkscape:collect="always" inkscape:label="blurWaterShallow" style="color-interpolation-filters:sRGB" id="blurWaterShallow" x="-0.055818" y="-0.042103" width="1.111637" height="1.084205">
    <feGaussianBlur inkscape:collect="always" stdDeviation="6.561501" />
  </filter>
  <filter inkscape:collect="always" inkscape:label="blurWaterHilight" style="color-interpolation-filters:sRGB" id="blurWaterHilight" x="-0.071178" y="-0.051856" width="1.142356" height="1.103712">
    <feGaussianBlur inkscape:collect="always" stdDeviation="6.857532" />
  </filter>
  <filter inkscape:collect="always" inkscape:label="blurGrass" style="color-interpolation-filters:sRGB" id="blurGrass" x="-0.032100" y="-0.019164" width="1.064201" height="1.038328">
    <feGaussianBlur inkscape:collect="always" stdDeviation="2.386213" />
  </filter>
  <filter inkscape:collect="always" inkscape:label="blurForestShadow" style="color-interpolation-filters:sRGB" id="blurForestShadow" x="-0.033576" y="-0.018674" width="1.067152" height="1.037348">
    <feGaussianBlur inkscape:collect="always" stdDeviation="2.199785" />
  </filter>
  <filter inkscape:collect="always" inkscape:label="blurFlowerInner" style="color-interpolation-filters:sRGB" id="blurFlowerInner" x="-0.420000" y="-0.420000" width="1.840000" height="1.840000">
    <feGaussianBlur inkscape:collect="always" stdDeviation="1.605540" />
  </filter>
  <filter inkscape:collect="always" inkscape:label="blurFlowerMiddle" style="color-interpolation-filters:sRGB" id="blurFlowerMiddle" x="-0.240000" y="-0.240000" width="1.480000" height="1.480000">
    <feGaussianBlur inkscape:collect="always" stdDeviation="1.933705" />
  </filter>
  <linearGradient id="gradientStopsFish" inkscape:collect="always">
    <stop offset="0.000000" style="stop-color:#ff5555;stop-opacity:1.000000" />
    <stop offset="1.000000" style="stop-color:#ffffff;stop-opacity:1.000000" />
  </linearGradient>
  <linearGradient id="gradientStopsCoconut" inkscape:collect="always">
    <stop offset="0.000000" style="stop-color:#ffffff;stop-opacity:1.000000" />
    <stop offset="1.000000" style="stop-color:#c8c8c8;stop-opacity:0.000000" />
  </linearGradient>
  <linearGradient id="gradientStopsFlower" inkscape:collect="always">
    <stop offset="0.000000" style="stop-color:#b16dff;stop-opacity:1.000000" />
    <stop offset="1.000000" style="stop-color:#e7d2ff;stop-opacity:1.000000" />
  </linearGradient>
  <linearGradient id="gradientStopsJellyfish" inkscape:collect="always">
    <stop offset="0.000000" style="stop-color:#4f97ff;stop-opacity:1.000000" />
    <stop offset="1.000000" style="stop-color:#cfe3ff;stop-opacity:1.000000" />
  </linearGradient>
  <linearGradient id="gradientStopsShip" inkscape:collect="always">
    <stop offset="0.000000" style="stop-color:#b67800;stop-opacity:1.000000" />
    <stop offset="1.000000" style="stop-color:#d28b00;stop-opacity:1.000000" />
  </linearGradient>
  <linearGradient id="gradientFish" xlink:href="#gradientStopsFish" x1="178.789090" y1="-114.782830" x2="180.407300" y2="-103.782830" gradientTransform="translate(-178.76256,1.0606602)" gradientUnits="userSpaceOnUse" inkscape:collect="always" />
  <linearGradient id="gradientJellyfishTentacle1a" xlink:href="#gradientStopsJellyfish" x1="118.024030" y1="-110.827530" x2="121.753140" y2="-96.140030" gradientTransform="translate(-120,0)" gradientUnits="userSpaceOnUse" inkscape:collect="always" />
  <linearGradient id="gradientJellyfishTentacle1b" xlink:href="#gradientStopsJellyfish" x1="118.024030" y1="-110.827530" x2="121.753140" y2="-96.140030" gradientTransform="translate(-120,0)" gradientUnits="userSpaceOnUse" inkscape:collect="always" />
  <linearGradient id="gradientJellyfishTentacle2" xlink:href="#gradientStopsJellyfish" x1="118.218180" y1="-115.782610" x2="121.698270" y2="-97.813858" gradientTransform="translate(-120,0)" gradientUnits="userSpaceOnUse" inkscape:collect="always" />
  <linearGradient id="gradientJellyfishTentacle3" xlink:href="#gradientStopsJellyfish" x1="123.335370" y1="-114.610190" x2="116.678600" y2="-98.453941" gradientTransform="translate(-120,0)" gradientUnits="userSpaceOnUse" inkscape:collect="always" />
  <linearGradient id="gradientShip" xlink:href="#gradientStopsShip" x1="196.432910" y1="221.715270" x2="203.663250" y2="204.277770" gradientTransform="matrix(0.37654483,0.9263984,-0.9263984,0.37654483,355.66788,-318.43897)" gradientUnits="userSpaceOnUse" inkscape:collect="always" />
  <radialGradient id="gradientCoconut" xlink:href="#gradientStopsCoconut" cx="1.944096" cy="-60.612652" fx="1.944096" fy="-60.612652" r="6.723294" gradientUnits="userSpaceOnUse" gradientTransform="matrix(1.691364,-0.31394812,0.29762395,1.603419,17.826033,-7.042221)" inkscape:collect="always" />
  <radialGradient id="gradientFlower" xlink:href="#gradientStopsFlower" cx="60.884877" cy="-69.652750" fx="60.884877" fy="-69.652750" r="15.835310" gradientUnits="userSpaceOnUse" gradientTransform="matrix(0.8413905,0,0,0.87120012,-50.722984,-48.679159)" inkscape:collect="always" />
  <radialGradient id="gradientJellyfish" xlink:href="#gradientStopsJellyfish" cx="120.453410" cy="-112.943900" fx="120.453410" fy="-112.943900" r="10.580511" gradientUnits="userSpaceOnUse" gradientTransform="matrix(1.1662998,0.0435575,-0.04526952,1.2121402,-145.14628,17.080499)" inkscape:collect="always" />
</defs>

<sodipodi:namedview
    id="base"
    pagecolor="#ffffff"
    bordercolor="#666666"
    borderopacity="1.0"
    inkscape:pageopacity="0.0"
    inkscape:pageshadow="2"
    inkscape:zoom="2"
    inkscape:cx="115.37643"
    inkscape:cy="285.04449"
    inkscape:document-units="in"
    showgrid="true"
    units="in"
    inkscape:window-width="1392"
    inkscape:window-height="836"
    inkscape:window-x="39"
    inkscape:window-y="6"
    inkscape:window-maximized="0"
    inkscape:snap-grids="true"
    inkscape:snap-to-guides="true"
    inkscape:snap-nodes="true"
    inkscape:object-nodes="true"
    inkscape:snap-smooth-nodes="true"
    inkscape:snap-intersection-paths="true"
    inkscape:object-paths="true"
    inkscape:snap-bbox="true"
    inkscape:bbox-nodes="true"
    inkscape:snap-others="true"
    inkscape:bbox-paths="false"
    inkscape:snap-global="true" >
  <inkscape:grid
    type="xygrid"
    id="grid3051"
    empspacing="2"
    visible="true"
    enabled="true"
    snapvisiblegridlinesonly="true"
    spacingx="0.0625in"
    spacingy="0.0625in"
    dotted="false"
    units="in" />
</sodipodi:namedview>
<g inkscape:groupmode="layer" id="water_layer" inkscape:label="Water" style="display:inline" sodipodi:insensitive="true" >
  <rect id="water" style="fill:#b9deff;fill-opacity:1;stroke:none" x="0" y="0" width="247.5" height="337.5" />
</g>
<g inkscape:groupmode="layer" id="water_shallow_layer" inkscape:label="Water Shallow" style="display:inline" sodipodi:insensitive="true" >
  <path style="fill:#9bd1ff;fill-opacity:0.70;fill-rule:evenodd;stroke:none;filter:url(#blurWaterShallow)" d="m 123.75,-11.25 0,22.5 c 0,0 3.75,7.5 5.625,11.25 3.75,7.5 7.31072,15.097666 11.25,22.5 4.13721,7.774256 12.37637,14.215545 13,23 0.84271,11.870463 -10.79516,21.555696 -13,33.25 -2.08435,11.05522 2.88751,22.87688 0,33.75 -3.87998,14.61032 -15.36705,26.04696 -22.5,39.375 -5.93497,11.0896 -10.82241,22.72416 -16.875,33.75 -5.261076,9.58396 -8.63845,20.93539 -16.875,28.125 -10.757711,9.39031 -25.387047,14.00386 -39.375,16.875 -11.020249,2.26199 -33.75,0 -33.75,0 l -22.5,0 0,95.625 135,0 0,-22.5 c 0,0 -4.67524,-11.02229 -5.625,-16.875 -1.20137,-7.40316 -3.94298,-16.12012 0,-22.5 4.40839,-7.13292 17.00597,-4.91533 22.5,-11.25 3.88487,-4.47929 4.67524,-11.02229 5.625,-16.875 1.50171,-9.25394 -2.96464,-19.23109 0,-28.125 2.96464,-8.89391 12.524,-14.19582 16.875,-22.5 5.50363,-10.50405 5.0156,-23.66252 11.25,-33.75 4.18217,-6.76689 10.2085,-12.53461 16.875,-16.875 4.45489,-2.90046 9.63598,-6.65077 14.875,-5.75 5.73679,0.98636 8.18571,8.50505 13.25,11.375 5.15852,2.92335 16.875,5.625 16.875,5.625 l 22.5,0 0,-180 z" inkscape:connector-curvature="0" />
</g>
<g inkscape:groupmode="layer" id="water_deep_layer" inkscape:label="Water Deep" style="display:inline" sodipodi:insensitive="true" >
  <path style="fill:#87c8ff;fill-opacity:0.60;fill-rule:evenodd;stroke:none;filter:url(#blurWaterDeep)" d="m 180,-11.25 0,22.5 c 0,0 3.20323,11.462857 5.625,16.875 3.52939,7.887446 8.45703,9.574456 10.375,18 1.66903,7.331967 1.14601,19.485351 0.875,27 -0.20273,5.621346 -2.95724,12.090089 0,16.875 2.20419,3.566462 8.8178,10.67038 12.75,12.125 7.25062,2.68218 21,-0.875 21,-0.875 l 28.125,0 0,-112.5 z M 56.25,275.625 c -4.18208,0.29721 -7.317798,4.17038 -11.25,5.625 -7.250623,2.68218 -14.8271,4.68042 -22.5,5.625 -3.721903,0.45819 -11.25,0 -11.25,0 l -22.5,0 0,61.875 78.75,0 0,-22.5 c 0,0 4.682915,-18.61087 5.625,-28.125 0.554274,-5.59762 3.288995,-12.31176 0,-16.875 -3.466906,-4.81007 -10.960646,-6.04532 -16.875,-5.625 z" inkscape:connector-curvature="0" />
</g>
<g inkscape:groupmode="layer" id="water_hilight_layer" inkscape:label="Water Hilight" style="display:inline" sodipodi:insensitive="true" >
  <use xlink:href="#shoreline" height="100%" width="100%" x="0" y="0" style="display:inline;fill:#ffffff;fill-opacity:1;stroke:#ffffff;stroke-opacity:1;filter:url(#blurWaterHilight)" />
</g>
<g inkscape:groupmode="layer" id="land_layer" inkscape:label="Land" style="display:inline" sodipodi:insensitive="true" >
  <use xlink:href="#shoreline" height="100%" width="100%" x="0" y="0" style="display:inline;fill:#ffddab;fill-opacity:1;stroke:none;stroke-width:1;stroke-miterlimit:4;stroke-dasharray:none;stroke-opacity:1" />
</g>
<g inkscape:groupmode="layer" id="land_texture_layer" inkscape:label="Land Texture" style="display:inline" sodipodi:insensitive="true" >
  <use xlink:href="#shoreline" height="100%" width="100%" x="0" y="0" style="display:inline;fill:#ffca7d;fill-opacity:1;stroke:none;stroke-width:1;stroke-miterlimit:4;stroke-dasharray:none;stroke-opacity:1;filter:url(#textureLand)" />
</g>
<g inkscape:groupmode="layer" id="shoreline_layer" inkscape:label="Shoreline" style="display:inline" sodipodi:insensitive="true" >
  <use xlink:href="#shoreline" height="100%" width="100%" x="0" y="0" style="display:inline;fill:none;fill-opacity:1;stroke:#5f4c14;stroke-width:1;stroke-miterlimit:4;stroke-dasharray:none;stroke-opacity:1" />
</g>
<g inkscape:groupmode="layer" id="shoreline_master_layer" inkscape:label="Shoreline Master" style="display:none" sodipodi:insensitive="true" >
  <path id="shoreline" style="color:#000000;clip-rule:nonzero;display:inline;overflow:visible;visibility:visible;opacity:1;isolation:auto;mix-blend-mode:normal;color-interpolation:sRGB;color-interpolation-filters:linearRGB;solid-color:#000000;solid-opacity:1;fill-opacity:1;fill-rule:evenodd;filter:url(#roughenShoreline);color-rendering:auto;image-rendering:auto;shape-rendering:auto;text-rendering:auto;enable-background:accumulate" d="m 3.9316406,-27.183594 c -6.1145245,0.493344 -12.2228913,1.058222 -18.3320316,1.613282 -2.42662,2.932997 -3.222707,6.761472 -4.273422,10.323599 -2.125588,8.6141333 -2.852722,17.4845398 -3.782034,26.284787 -2.924414,32.14806 -2.24534,64.463618 -2.162975,96.702536 L -22.5,219.375 l 33.75,0 c 11.25,0 9.137613,-2.44887 21.30885,-6.66126 l 8.75365,-2.80554 c 6.10222,-5.20684 11.455389,-11.27789 15.925781,-17.93554 -0.675174,-8.19488 2.019401,-16.27953 5.925298,-23.38236 l 3.930171,-7.88522 c 5.853497,-4.58487 11.096156,-10.35345 13.674767,-17.43176 0.89032,-3.18516 1.843767,-6.5996 4.386161,-8.89645 4.151468,-4.54803 8.613876,-8.79987 12.785915,-13.32897 0.922504,-1.03288 2.020299,-1.9577 2.833187,-3.05816 3.37559,-9.78226 8.4445,-19.055907 10.1136,-29.368223 2.16707,-10.559523 3.20722,-21.500795 1.53059,-32.209408 -1.09928,-2.622714 -3.23461,-4.594051 -4.84676,-6.889967 -2.66241,-3.347295 -5.076,-6.961034 -6.51941,-11.013172 C 97.680256,30.884737 84.375,16.875 84.375,11.25 84.375,0 84.375,0 84.44739,-10.891451 81.840707,-17.231564 75.838383,-21.651903 69.38599,-23.536709 61.514094,-26.101063 53.145642,-26.016854 44.973562,-26.58187 31.302992,-27.226324 17.613931,-27.214893 3.9316406,-27.183594 Z M 197.86804,191.42541 c -2.85679,6.18618 3.42536,13.72783 2.74915,19.71131 -0.76075,4.83829 -1.4393,9.68887 -2.13281,14.53711 -3.5158,5.55855 -7.42688,11.0938 -8.96703,17.59428 -0.90546,2.84972 -2.72571,5.2661 -4.261,7.78784 -3.17882,6.83839 -3.1603,14.76075 -6.87158,21.39327 -2.19103,3.15671 -6.87011,3.02647 -8.9668,6.28516 -2.15683,3.43628 -2.99869,7.69377 -6.04297,10.55273 -2.95665,3.06442 -6.83898,5.40497 -8.77881,9.32633 -1.28427,2.99065 -0.3334,6.31674 0.5987,9.26286 0.82945,2.55496 2.45492,4.71573 3.76605,7.02409 1.12996,2.18128 3.78745,8.98265 4.16406,11.34961 l 0,22.5 c 0.88798,3.19497 3.13657,5.28705 5.80273,6.89258 7.1912,4.11258 15.65899,5.14274 23.81562,5.05632 22.72897,0.25152 45.459,-0.005 68.18829,-0.0622 1.25786,0.32738 2.13833,-0.96381 2.48077,-1.9972 4.93024,-9.38075 6.54995,-20.08517 6.91207,-30.56429 1.35301,-26.58662 0.27002,-53.20766 0.0789,-79.80754 L 270,219.375 l -33.75,0 c -2.75692,-0.86471 -9.30306,-5.56079 -11.35384,-7.37794 l -14.07368,-13.10018 c -3.37251,3.15338 -2.47174,-7.3524 -4.07984,-12.59663 z" inkscape:connector-curvature="0" />
</g>
<g inkscape:groupmode="layer" id="grass_layer" inkscape:label="Grass" style="display:inline" sodipodi:insensitive="true" >
  <use xlink:href="#grass" height="100%" width="100%" x="0" y="0" style="display:inline;fill:#b4e982;fill-opacity:1;stroke:none;stroke-width:1;stroke-miterlimit:4;stroke-dasharray:none;stroke-opacity:1" />
</g>
<g inkscape:groupmode="layer" id="grass_texture1_layer" inkscape:label="Grass Texture Big" style="display:inline" sodipodi:insensitive="true" >
  <use xlink:href="#grass" height="100%" width="100%" x="0" y="0" style="display:inline;fill:#a7e46a;fill-opacity:1;stroke:none;stroke-width:1;stroke-miterlimit:4;stroke-dasharray:none;stroke-opacity:1;filter:url(#textureGrassBig)" />
</g>
<g inkscape:groupmode="layer" id="grass_texture2_layer" inkscape:label="Grass Texture Small" style="display:inline" sodipodi:insensitive="true" >
  <use xlink:href="#grass" height="100%" width="100%" x="0" y="0" style="display:inline;fill:#8cdd3d;fill-opacity:1;stroke:none;stroke-width:1;stroke-miterlimit:4;stroke-dasharray:none;stroke-opacity:1;filter:url(#textureGrassSmall)" />
</g>
<g inkscape:groupmode="layer" id="grass_master_layer" inkscape:label="Grass Master" style="display:none" sodipodi:insensitive="true" >
  <path id="grass" style="color:#000000;clip-rule:nonzero;display:inline;overflow:visible;visibility:visible;opacity:1;isolation:auto;mix-blend-mode:normal;color-interpolation:sRGB;color-interpolation-filters:linearRGB;solid-color:#000000;solid-opacity:1;fill-opacity:1;fill-rule:evenodd;filter:url(#blurGrass);color-rendering:auto;image-rendering:auto;shape-rendering:auto;text-rendering:auto;enable-background:accumulate" d="m -11.25,-11.25 0,225 22.5,0 c 0,0 7.595312,0.84009 11.25,0 7.718658,-1.77426 15.835041,-4.71509 21.375,-10.375 6.285991,-6.42209 7.119128,-16.51922 11.25,-24.5 3.784483,-7.31156 7.94638,-14.43464 12.375,-21.375 4.570189,-7.16222 9.861428,-13.83992 14.625,-20.875 C 85.83779,131.14176 89.423224,125.57291 93,120 c 4.308413,-6.71287 10.10892,-12.7234 12.75,-20.25 2.56867,-7.320244 2.70892,-15.367617 2.625,-23.125 C 108.3045,70.108043 107.83116,63.426122 105.75,57.25 103.56332,50.760717 99.691515,44.884611 95.625,39.375 93.822121,36.932329 91.274452,35.118353 89.375,32.75 86.540678,29.215995 83.680375,25.598319 81.75,21.5 c -1.516967,-3.220625 -3,-10.25 -3,-10.25 l 0,-22.5 z M 206.25,210 c -5.82714,3.80095 -0.22194,14.09495 -2.25,20.75 -1.90697,6.25768 -6.58299,11.34729 -9.125,17.375 -2.14533,5.08709 -2.90923,10.6932 -5.125,15.75 -2.66538,6.0829 -8.21675,10.91319 -9.75,17.375 -1.05924,4.46412 2.11065,9.40913 0.625,13.75 -1.18684,3.46777 -5.21076,5.24934 -7.125,8.375 -2.38033,3.88672 -4.46691,8.13508 -5.25,12.625 -0.58774,3.36986 0.5,10.25 0.5,10.25 l 0,22.5 90,0 0,-112.5 -22.5,0 c 0,0 -6.9325,-5.1726 -9.625,-8.5 -3.30953,-4.08993 -3.66625,-10.43284 -7.75,-13.75 -3.42652,-2.7833 -8.92755,-6.41179 -12.625,-4 z" inkscape:connector-curvature="0" />
</g>
<g inkscape:groupmode="layer" id="forest_shadow_layer" inkscape:label="Forest Shadow" style="display:inline" sodipodi:insensitive="true" >
  <g style="filter:url(#blurForestShadow)" >
    <use xlink:href="#forest" height="100%" width="100%" x="0" y="0" style="display:inline;opacity:0.75;fill:#258c1b;fill-opacity:1;filter:url(#roughenForest)" />
  </g>
</g>
<g inkscape:groupmode="layer" id="forest_fill_layer" inkscape:label="Forest Fill" style="display:inline" sodipodi:insensitive="true" >
  <use xlink:href="#forest" height="100%" width="100%" x="0" y="0" style="fill:#83d700;fill-opacity:1;stroke:none;stroke-width:1.5;stroke-miterlimit:4;stroke-dasharray:none;stroke-opacity:1;filter:url(#roughenForest)" />
</g>
<g inkscape:groupmode="layer" id="forest_texture_big_layer" inkscape:label="Forest Texture Big" style="display:inline" sodipodi:insensitive="true" >
  <g style="filter:url(#textureForestBig)" >
    <use xlink:href="#forest" height="100%" width="100%" x="0" y="0" style="fill:#548c00;fill-opacity:1;stroke:none;stroke-width:1.5;stroke-miterlimit:4;stroke-dasharray:none;stroke-opacity:1;filter:url(#roughenForest)" />
  </g>
</g>
<g inkscape:groupmode="layer" id="forest_texture_small_layer" inkscape:label="Forest Texture Small" style="display:inline" sodipodi:insensitive="true" >
  <g style="filter:url(#textureForestSmall)" >
    <use xlink:href="#forest" height="100%" width="100%" x="0" y="0" style="fill:#78c125;fill-opacity:1;stroke:none;stroke-width:1;stroke-miterlimit:4;stroke-dasharray:none;stroke-opacity:1;filter:url(#roughenForest)" />
  </g>
</g>
<g inkscape:groupmode="layer" id="forest_outline_layer" inkscape:label="Forest Outline" style="display:inline" sodipodi:insensitive="true" >
  <use xlink:href="#forest" height="100%" width="100%" x="0" y="0" style="fill:none;fill-opacity:1;stroke:#006800;stroke-width:1.5;stroke-miterlimit:4;stroke-dasharray:none;stroke-opacity:1;filter:url(#roughenForest)" />
</g>
<g inkscape:groupmode="layer" id="forest_master_layer" inkscape:label="Forest Master" style="display:none" sodipodi:insensitive="true" >
  <path id="forest" style="color:#000000;clip-rule:nonzero;display:inline;overflow:visible;visibility:visible;opacity:1;isolation:auto;mix-blend-mode:normal;color-interpolation:sRGB;color-interpolation-filters:linearRGB;solid-color:#000000;solid-opacity:1;fill-opacity:1;fill-rule:nonzero;color-rendering:auto;image-rendering:auto;shape-rendering:auto;text-rendering:auto;enable-background:accumulate" d="m 48,-7.75 c -3.45178,0 -6.25,2.7982203 -6.25,6.25 0.0025,0.2560878 0.02079,0.51177819 0.05469,0.765625 C 41.703269,-0.74206181 41.601675,-0.74727169 41.5,-0.75 40.595113,-0.74788 39.701478,-0.54929417 38.880859,-0.16796875 37.759278,-2.0753942 35.712738,-3.2476048 33.5,-3.25 33.197215,-3.24785 32.894987,-3.223696 32.595703,-3.177734 31.781509,-3.5523973 30.896258,-3.7475655 30,-3.75 29.8285,-3.74859 29.657131,-3.74012 29.486328,-3.724609 29.32461,-3.7393878 29.162378,-3.7478577 29,-3.75 c -3.45178,0 -6.25,2.79822031 -6.25,6.25 0.001,0.1682157 0.0088,0.3363213 0.02344,0.5039062 -0.0092,0.018834 -0.01832,0.037715 -0.02734,0.056641 0.0014,-0.020176 0.0027,-0.040358 0.0039,-0.060547 0,-3.45177969 -2.79822,-6.25 -6.25,-6.25 -2.519578,0.00118 -4.79206,1.5151407 -5.763672,3.83984375 C 10.520259,-2.6955391 7.7924802,-5.249895 4.5,-5.25 3.1501369,-5.247748 1.8372808,-4.8085305 0.7578125,-3.9980469 -1.9112559,-3.2233382 -3.7481205,-0.77922586 -3.75,2 -3.7494932,4.2916989 -2.494806,6.3993336 -0.48046875,7.4921875 -0.23128606,7.9482345 0.073803,8.3714226 0.42773438,8.7519531 -0.40310996,9.6464977 -0.95376985,10.764792 -1.15625,11.96875 l -0.00195,0.002 C -1.8694421,13.010276 -2.2500038,14.240444 -2.25,15.5 c 0.00129,0.955819 0.2217855,1.898609 0.6445312,2.755859 C -2.0264736,19.109558 -2.2469235,20.04814 -2.25,21 c 0.00183,1.353874 0.4432342,2.670546 1.2578125,3.751953 C -1.8059641,25.832291 -2.2473245,27.147463 -2.25,28.5 c 0.00338,1.96861 0.9340649,3.820574 2.51171875,4.998047 C -1.3170347,34.676344 -2.2478512,36.530015 -2.25,38.5 c 0.00127,0.592419 0.08676,1.181648 0.2539062,1.75 C -2.1632403,40.818352 -2.2487312,41.407581 -2.25,42 c 9.596e-4,0.03777 0.00226,0.07553 0.00391,0.113281 C -2.8994222,43.12217 -3.2479808,44.298047 -3.25,45.5 c 0.0026,1.473257 0.5255529,2.898238 1.4765625,4.023438 C -3.3318153,50.703695 -4.2481935,52.545123 -4.25,54.5 c 0.0024,1.084834 0.2871206,2.150364 0.8261719,3.091797 C -4.5915692,58.761871 -5.2482007,60.346916 -5.25,62 c 0.00203,1.246611 0.3768134,2.464134 1.0761719,3.496094 C -4.8746774,66.530259 -5.2495252,67.750725 -5.25,69 c 0.00229,0.859439 0.1818123,1.70917 0.5273438,2.496094 C -5.0692403,72.285429 -5.2487838,73.137928 -5.25,74 c 0.0017,0.839249 0.1724163,1.669559 0.5019531,2.441406 -7.426e-4,0.01953 -0.00139,0.03906 -0.00195,0.05859 0.0015,0.946327 0.2178816,1.879958 0.6328125,2.730469 C -4.204669,79.648004 -4.2491719,80.073399 -4.25,80.5 c 0.00231,1.578316 0.601676,3.097317 1.6777344,4.251953 C -3.647407,85.905602 -4.2467054,87.423034 -4.25,89 c 0.00233,1.046909 0.2676135,2.07646 0.7714844,2.994141 C -3.9842909,92.915301 -4.2496314,93.949122 -4.25,95 c 0.0018,1.658828 0.6629842,3.248894 1.8378906,4.419922 C -5.24166,100.07619 -7.2461382,102.59534 -7.25,105.5 c 0,3.45178 2.7982203,6.25 6.25,6.25 0.24691934,-0.003 0.49344527,-0.0206 0.73828125,-0.0527 0.25259432,0.0331 0.50697514,0.0507 0.76171875,0.0527 1.1485579,-0.002 2.2744015,-0.32012 3.2539062,-0.91992 0.97724,0.59842 2.1001909,0.91666 3.2460938,0.91992 0.4154343,-0.002 0.8295921,-0.0463 1.2363281,-0.13086 0.4156858,0.0864 0.8390966,0.13028 1.2636719,0.13086 3.288062,-0.004 6.010686,-2.5551 6.228516,-5.83594 0.66459,-1.01478 1.019514,-2.20103 1.021484,-3.41406 -0.0015,-0.84492 -0.174203,-1.68076 -0.507812,-2.45703 1.185611,1.39771 2.924983,2.20456 4.757812,2.20703 3.45178,0 6.25,-2.79822 6.25,-6.25 -6.85e-4,-0.127062 -0.0052,-0.254074 -0.01367,-0.380859 0.415686,0.08643 0.839097,0.130275 1.263672,0.130859 1.453617,-0.0017 2.861184,-0.510026 3.980469,-1.4375 1.178493,1.236239 2.81157,1.936331 4.519531,1.9375 3.45178,0 6.25,-2.79822 6.25,-6.25 0,-3.45178 -2.79822,-6.25 -6.25,-6.25 -1.453617,0.0017 -2.861184,0.510026 -3.980469,1.4375 C 31.841038,83.951261 30.207961,83.251169 28.5,83.25 c -3.45178,0 -6.25,2.79822 -6.25,6.25 6.85e-4,0.127062 0.0052,0.254074 0.01367,0.380859 C 21.847986,89.794431 21.424575,89.750584 21,89.75 c -0.05471,0.0012 -0.109403,0.0032 -0.164062,0.0059 -0.729189,-1.196703 -1.8394,-2.113624 -3.152344,-2.603515 -0.06871,-0.500746 -0.197909,-0.991308 -0.384766,-1.460938 1.218066,-0.157496 2.36273,-0.670386 3.291016,-1.474609 2.109943,-0.201714 3.973871,-1.459038 4.951172,-3.339844 C 26.715768,82.074411 28.322547,82.749341 30,82.75 31.246611,82.748 32.464134,82.373187 33.496094,81.673828 34.530259,82.374677 35.750725,82.749525 37,82.75 c 3.45178,0 6.25,-2.79822 6.25,-6.25 -9.76e-4,-0.168867 -0.0088,-0.337625 -0.02344,-0.505859 C 43.570489,75.207534 43.748672,74.358507 43.75,73.5 43.747756,72.363729 43.435791,71.249566 42.847656,70.277344 44.654781,69.131113 45.749827,67.139987 45.75,65 c 0,-3.45178 -2.79822,-6.25 -6.25,-6.25 -0.352166,2.89e-4 -0.703677,0.03034 -1.050781,0.08984 0.557658,-0.456745 1.032101,-1.006518 1.402343,-1.625 0.215391,0.02295 0.431829,0.03468 0.648438,0.03516 3.45178,0 6.25,-2.79822 6.25,-6.25 -0.0015,-0.819246 -0.164127,-1.630197 -0.478516,-2.386719 0.8496,0.415994 1.782545,0.633703 2.728516,0.636719 0.773517,5.45e-4 1.540414,-0.142503 2.261719,-0.421875 0.713955,0.276535 1.472645,0.419534 2.238281,0.421875 3.45178,0 6.25,-2.79822 6.25,-6.25 -0.003,-1.987929 -0.951443,-3.855888 -2.554688,-5.03125 0.209153,-0.313164 0.389575,-0.64459 0.539063,-0.990234 C 58.817796,37.800791 60.139879,38.2472 61.5,38.25 c 3.45178,0 6.25,-2.79822 6.25,-6.25 0,-3.45178 -2.79822,-6.25 -6.25,-6.25 -1.202891,1.04e-4 -2.380197,0.347328 -3.390625,1 C 57.247177,24.992401 55.61125,23.740335 53.689453,23.367188 55.58443,22.242722 56.747269,20.203487 56.75,18 56.748459,17.459838 56.676899,16.922154 56.537109,16.400391 59.05523,15.532235 60.74646,13.163572 60.75,10.5 60.747578,10.084566 60.703742,9.6704079 60.619141,9.2636719 60.705569,8.8479861 60.749416,8.4245753 60.75,8 60.748731,7.4075812 60.66324,6.8183517 60.496094,6.25 60.66324,5.6816483 60.748731,5.0924188 60.75,4.5 60.747939,3.993522 60.684322,3.4891722 60.560547,2.9980469 60.684008,2.5081896 60.747623,2.0051705 60.75,1.5 c 0,-3.4517797 -2.79822,-6.25 -6.25,-6.25 -0.339665,0.00105 -0.678678,0.029795 -1.013672,0.085937 -0.03771,-0.00621 -0.07547,-0.012065 -0.113281,-0.017578 C 52.249463,-6.5814143 50.207165,-7.7476993 48,-7.75 Z M 22.253906,5.4394531 c -0.0014,0.020176 -0.0027,0.040358 -0.0039,0.060547 0.0026,0.215407 0.01625,0.4305379 0.04102,0.6445312 -0.250197,0.14848 -0.489712,0.3142476 -0.716807,0.4960937 0.270211,-0.3740711 0.498163,-0.7769173 0.679687,-1.2011719 z M 32.490234,10.302734 C 32.332583,10.854771 32.251745,11.425896 32.25,12 c 9.35e-4,0.600556 0.08842,1.197843 0.259766,1.773438 -0.675138,0.292369 -1.293351,0.701646 -1.826172,1.208984 C 31.376897,13.953223 31.748131,12.740934 31.75,11.5 c -0.0026,-0.215407 -0.01625,-0.430538 -0.04102,-0.644531 0.274161,-0.164007 0.535343,-0.348794 0.781254,-0.552735 z m -2.669922,5.703125 c -0.139254,0.208988 -0.265785,0.426178 -0.378906,0.650391 -0.06728,-0.05349 -0.135652,-0.105582 -0.205078,-0.15625 0.204569,-0.152635 0.399595,-0.317658 0.583984,-0.494141 z m -8.611328,0.02539 c 0.176393,0.165591 0.362253,0.320801 0.556641,0.464844 -1.136315,0.849546 -1.949769,2.060429 -2.306641,3.433594 -0.07193,-0.01952 -0.14421,-0.03775 -0.216796,-0.05469 -0.0096,-0.425512 -0.06258,-0.848934 -0.158204,-1.263672 0.929434,-0.651155 1.66404,-1.543079 2.125,-2.580076 z m 26.044922,7.298828 c 0.632482,0.387499 1.328891,0.659316 2.056641,0.802734 -0.490553,0.292301 -0.938733,0.650451 -1.332031,1.064454 -0.192741,-0.637563 -0.486156,-1.240218 -0.869141,-1.785157 0.04854,-0.0267 0.09672,-0.05405 0.144531,-0.08203 z m -23.21289,4.240234 C 24.518582,27.68739 25.008297,27.747704 25.5,27.75 c 0.256088,-0.0025 0.511778,-0.02079 0.765625,-0.05469 -0.0077,0.10142 -0.0129,0.203013 -0.01563,0.304688 0.0019,3.248228 2.491614,5.953586 5.728516,6.224609 C 30.568111,35.410117 29.752648,37.157539 29.75,39 c 0.0023,0.865916 0.184566,1.7219 0.535156,2.513672 C 30.08657,41.454215 29.88515,41.404674 29.681641,41.365234 29.72445,41.078755 29.747291,40.789647 29.75,40.5 29.747092,38.732075 28.995577,37.048085 27.681641,35.865234 27.72445,35.578755 27.747291,35.289647 27.75,35 c -0.002,-2.701302 -1.739241,-5.095612 -4.306641,-5.935547 0.262773,-0.470212 0.463656,-0.97242 0.597657,-1.494142 z m 22.480468,3.732422 c 0.01323,0.04181 0.02691,0.08348 0.04102,0.125 -0.300233,0.532647 -0.52068,1.106468 -0.654297,1.703125 -0.295833,-0.239334 -0.612904,-0.451151 -0.947265,-0.632812 0.579975,-0.313628 1.10667,-0.717055 1.560542,-1.195313 z m -8.845703,0.199219 c 0.407035,0.393543 0.865658,0.729954 1.363281,1 -0.332478,0.177514 -0.648218,0.384739 -0.943359,0.619141 -0.50762,-0.182694 -1.036758,-0.298894 -1.574219,-0.345703 0.441574,-0.369297 0.830011,-0.797827 1.154297,-1.273438 z m -20.949219,7.521486 c 0.18315,0.216982 0.380874,0.421232 0.591797,0.611328 -0.04281,0.286479 -0.06565,0.575587 -0.06836,0.865234 0.0029,0.454211 0.05528,0.906754 0.15625,1.349609 -0.443384,0.07934 -0.876892,0.206383 -1.292969,0.378907 0.415994,-0.8496 0.633703,-1.782545 0.636719,-2.728516 -0.0017,-0.159094 -0.0096,-0.318064 -0.02344,-0.476562 z m -2.527343,13.5 c 0.531495,0.507652 1.148367,0.917578 1.822265,1.210937 -0.372547,0.49249 -0.67005,1.037472 -0.882812,1.617187 -0.179909,-0.963761 -0.584024,-1.871681 -1.179688,-2.65039 0.08148,-0.05732 0.161585,-0.116583 0.240235,-0.177734 z m 14.0625,1.835937 c 0.02523,0.419119 0.09263,0.83463 0.201172,1.240234 -0.473462,0.16081 -0.925916,0.377857 -1.347657,0.646485 -0.03002,-0.154291 -0.06586,-0.307395 -0.107422,-0.458985 0.488294,-0.409221 0.911149,-0.890695 1.253907,-1.427734 z M 14.859375,58.644531 C 15.410396,61.602641 17.991007,63.748226 21,63.75 c 1.200505,-6.6e-5 2.375591,-0.345879 3.384766,-0.996094 0.261104,1.270337 0.910918,2.427989 1.859375,3.3125 C 25.91831,66.836387 25.750281,67.663916 25.75,68.5 c 5.59e-4,0.997022 0.239635,1.979442 0.697266,2.865234 -0.836712,0.579486 -1.519246,1.354543 -1.988282,2.257813 -0.919863,-0.93396 -2.110106,-1.555046 -3.402343,-1.775391 C 21.510201,70.966811 21.747855,69.990758 21.75,69 c 0,-3.45178 -2.79822,-6.25 -6.25,-6.25 -0.129668,5.24e-4 -0.259288,0.0051 -0.388672,0.01367 0.08905,-0.415416 0.135518,-0.83883 0.138672,-1.263672 -0.0023,-0.859439 -0.181812,-1.70917 -0.527344,-2.496094 0.04925,-0.118361 0.09484,-0.23821 0.136719,-0.359375 z M 44,117.25 c -3.45178,0 -6.25,2.79822 -6.25,6.25 0.0016,0.32782 0.02907,0.655 0.08203,0.97852 -0.08654,0.0261 -0.172492,0.0541 -0.257812,0.084 C 36.908391,121.74518 34.394949,119.75381 31.5,119.75 c -2.314096,0.002 -4.43769,1.28248 -5.519531,3.32812 C 25.342305,122.86275 24.673524,122.75195 24,122.75 c -1.96861,0.003 -3.820574,0.93407 -4.998047,2.51172 C 17.823656,123.68297 15.969985,122.75215 14,122.75 c -1.500787,0.003 -2.950422,0.54573 -4.0839844,1.5293 C 9.7557653,124.294 9.5961411,124.3148 9.4375,124.3418 9.379375,124.354 9.3214261,124.367 9.2636719,124.3809 8.8479861,124.29443 8.4245753,124.25058 8,124.25 7.697215,124.252 7.3949868,124.2763 7.0957031,124.3223 6.2815094,123.94761 5.3962582,123.75244 4.5,123.75 3.6405611,123.752 2.7908302,123.93181 2.0039062,124.27734 1.2145712,123.93076 0.36207187,123.75121 -0.5,123.75 c -2.3969419,0.004 -4.580673,1.37774 -5.6210938,3.53711 -3.1930105,0.31888 -5.6257372,3.004 -5.6289062,6.21289 0,3.45178 2.7982203,6.25 6.25,6.25 0.097721,-0.001 0.1954041,-0.004 0.2929688,-0.01 0.06895,0.004 0.1379703,0.008 0.2070312,0.01 2.4277651,-0.003 4.63399049,-1.41213 5.65820312,-3.61328 0.13770929,-0.026 0.27450538,-0.0566 0.41015628,-0.0918 C 0.85898617,136.67555 0.75151696,137.33553 0.75,138 c 0.00212,0.90489 0.20070593,1.79852 0.5820312,2.61914 C -0.57539457,141.74072 -1.7476051,143.78726 -1.75,146 c 0.00255,0.87677 0.189542,1.74319 0.5488281,2.54297 C -1.8834592,149.56695 -2.2483131,150.76954 -2.25,152 c 0.00135,0.59448 0.087501,1.18572 0.2558594,1.75586 -0.8122782,1.07951 -1.2529024,2.39316 -1.2558594,3.74414 0.00129,0.95582 0.2217854,1.89861 0.6445312,2.75586 -0.4210046,0.8537 -0.6414545,1.79228 -0.6445312,2.74414 0.00135,0.59448 0.087501,1.18572 0.2558594,1.75586 -0.4914264,0.65569 -0.8491235,1.40161 -1.0527344,2.19531 -2.7647175,0.70624 -4.7000568,3.19534 -4.703125,6.04883 0.00206,0.50648 0.065679,1.01083 0.1894531,1.50195 C -8.6840083,174.99181 -8.7476235,175.49483 -8.75,176 c 0.0016,2.99265 2.1243601,5.56421 5.0625,6.13281 0.5153738,0.24664 1.0621329,0.42144 1.625,0.51953 1.17264076,1.62838 3.05583837,2.59468 5.0625,2.59766 0.6798541,-0.003 1.3547355,-0.11603 1.9980469,-0.33594 0.6445525,0.22033 1.3207875,0.3338 2.0019531,0.33594 0.3403168,-9.5e-4 0.6799877,-0.0297 1.015625,-0.0859 0.3253427,0.0546 0.6544962,0.0833 0.984375,0.0859 0.2469187,-0.003 0.4934446,-0.0206 0.7382812,-0.0527 0.046142,0.008 0.092369,0.0148 0.1386719,0.0215 0.2070339,0.0208 0.4149749,0.0312 0.6230469,0.0312 1.7099,-0.001 3.344677,-0.70275 4.523438,-1.94141 0.796626,2.63515 3.223636,4.43875 5.976562,4.44141 2.375899,-0.003 4.544371,-1.35374 5.595703,-3.48438 0.761576,0.31867 1.578739,0.4833 2.404297,0.48438 3.45178,0 6.25,-2.79822 6.25,-6.25 -0.0035,-2.3759 -1.353742,-4.54437 -3.484375,-5.5957 0.318665,-0.76158 0.483293,-1.57874 0.484375,-2.4043 0,-3.45178 -2.79822,-6.25 -6.25,-6.25 -0.127062,6.8e-4 -0.254074,0.005 -0.380859,0.0137 0.08643,-0.41569 0.130274,-0.8391 0.130859,-1.26367 0,-3.45178 -2.79822,-6.25 -6.25,-6.25 -0.580084,7.6e-4 -1.157238,0.0823 -1.714844,0.24219 -0.148661,-0.17794 -0.307109,-0.34747 -0.474609,-0.50781 C 18.23958,155.36433 18.74866,153.9552 18.75,152.5 c -0.0013,-1.6528 -0.657195,-3.23781 -1.824219,-4.4082 0.106925,-0.18755 0.204061,-0.38052 0.291016,-0.57813 1.185777,1.41541 2.936736,2.23405 4.783203,2.23633 3.004592,-0.002 5.582823,-2.14102 6.138672,-5.09375 0.903353,2.45765 3.242913,4.09168 5.861328,4.09375 2.082595,-0.001 4.027755,-1.03973 5.1875,-2.76953 1.185965,1.43567 2.950337,2.26773 4.8125,2.26953 3.45178,0 6.25,-2.79822 6.25,-6.25 -0.0022,-1.33318 -0.43058,-2.63074 -1.222656,-3.70312 1.10305,-1.15899 1.719604,-2.69689 1.722656,-4.29688 -6e-6,-0.14727 -0.0052,-0.2945 -0.01563,-0.44141 -0.149504,-2.07164 -1.318397,-3.93367 -3.119141,-4.96875 0.125097,-0.088 0.246924,-0.18046 0.365235,-0.27734 1.178493,1.23624 2.81157,1.93633 4.519531,1.9375 3.45178,0 6.25,-2.79822 6.25,-6.25 0,-3.45178 -2.79822,-6.25 -6.25,-6.25 -1.453617,0.002 -2.861184,0.51003 -3.980469,1.4375 C 47.341038,117.95126 45.707961,117.25117 44,117.25 Z m -18.15625,17.7207 c -0.05961,0.33992 -0.09097,0.6842 -0.09375,1.0293 0.0013,1.85116 0.823202,3.60649 2.244141,4.79297 -0.05257,0.18149 -0.09689,0.36527 -0.132813,0.55078 -0.420453,-1.13772 -1.16287,-2.12851 -2.136719,-2.85156 0.01493,-0.16367 0.0234,-0.32786 0.02539,-0.49219 -3.32e-4,-0.99028 -0.235971,-1.96631 -0.6875,-2.84766 0.264037,-0.0438 0.524991,-0.10443 0.78125,-0.18164 z m 12.375,1.64453 c 0.217404,0.0462 0.437117,0.0807 0.658203,0.10352 0.167878,0.34574 0.367291,0.67526 0.595703,0.98437 -0.242561,0.25314 -0.463392,0.52624 -0.660156,0.81641 -0.243455,-0.29494 -0.513468,-0.56692 -0.806641,-0.8125 0.103273,-0.35688 0.174519,-0.72226 0.212891,-1.0918 z M 7.3652344,171.69141 c 0.1913409,0.40201 0.4250896,0.78242 0.6972656,1.13476 l -0.013672,0.002 c -0.2419462,-0.33215 -0.5160592,-0.63962 -0.8183593,-0.91796 0.046416,-0.072 0.091347,-0.14492 0.1347656,-0.21875 z M 217.5,249.25 c -3.45178,0 -6.25,2.79822 -6.25,6.25 2.8e-4,0.35216 0.0303,0.70368 0.0898,1.05078 -1.18596,-1.45473 -2.9629,-2.29946 -4.8398,-2.30078 -3.45178,0 -6.25,2.79822 -6.25,6.25 0.003,1.96861 0.93406,3.82058 2.51172,4.99805 -1.57875,1.1783 -2.50957,3.03197 -2.51172,5.00195 0.003,0.41145 0.0457,0.82165 0.12891,1.22461 -0.75436,-0.31205 -1.56255,-0.47329 -2.37891,-0.47461 -3.45178,0 -6.25,2.79822 -6.25,6.25 0.003,0.21541 0.0162,0.43054 0.041,0.64453 -1.88389,1.12717 -3.03827,3.16012 -3.04102,5.35547 0,3.45178 2.79822,6.25 6.25,6.25 2.26212,-10e-4 4.34697,-1.2249 5.45117,-3.19922 0.29098,1.1313 0.89317,2.15842 1.73828,2.96484 -0.92903,1.12005 -1.43811,2.52918 -1.43945,3.98438 0.004,2.62091 1.64202,4.96121 4.10352,5.86133 -2.95661,0.55171 -5.10098,3.13102 -5.10352,6.13867 0.003,1.73276 0.72517,3.38651 1.99414,4.56641 -0.32583,0.76998 -0.49386,1.59751 -0.49414,2.43359 0.003,0.27121 0.0228,0.54197 0.0606,0.81055 -0.26859,-0.0377 -0.53936,-0.058 -0.81058,-0.0605 -0.82359,0.002 -1.63868,0.16647 -2.39844,0.48438 -1.05227,-2.13253 -3.22355,-3.48314 -5.60156,-3.48438 -3.45178,0 -6.25,2.79822 -6.25,6.25 0.003,1.70689 0.70347,3.3384 1.93945,4.51562 -0.81823,0.9893 -1.31196,2.20657 -1.41406,3.48633 -0.34512,0.78767 -0.52398,1.63809 -0.52539,2.49805 0.002,1.14856 0.32012,2.2744 0.91992,3.25391 -0.59842,0.97724 -0.91666,2.10019 -0.91992,3.24609 0.002,0.50648 0.0657,1.01083 0.18945,1.50195 -0.12346,0.48986 -0.18707,0.99288 -0.18945,1.49805 0,3.45178 2.79822,6.25 6.25,6.25 2.29281,-1.8e-4 4.40147,-1.25577 5.49414,-3.27148 0.92116,0.50577 1.95498,0.77111 3.00586,0.77148 0.0977,-10e-4 0.1954,-0.004 0.29297,-0.01 0.069,0.004 0.13797,0.008 0.20703,0.01 1.84651,-7.3e-4 3.5982,-0.81795 4.78516,-2.23242 1.0744,0.79794 2.37655,1.22993 3.71484,1.23242 1.48629,-0.002 2.92315,-0.53402 4.05273,-1.5 0.7738,0.32964 1.60618,0.4997 2.44727,0.5 0.9122,-0.002 1.81284,-0.20434 2.63867,-0.5918 0.83044,2.2555 2.88071,3.83497 5.27344,4.0625 1.13458,0.98445 2.58576,1.52734 4.08789,1.5293 0.95582,-10e-4 1.89861,-0.22178 2.75586,-0.64453 0.8537,0.421 1.79228,0.64145 2.74414,0.64453 2.92186,-0.003 5.45173,-2.02997 6.0918,-4.88086 1.1851,1.50342 2.99385,2.3808 4.9082,2.38086 3.45178,0 6.25,-2.79822 6.25,-6.25 -0.001,-2.0826 -1.03973,-4.02775 -2.76953,-5.1875 0.1784,-0.58764 0.26922,-1.19837 0.26953,-1.8125 -0.003,-1.33252 -0.43098,-2.62933 -1.22266,-3.70117 1.10351,-1.15948 1.72011,-2.69816 1.72266,-4.29883 -0.002,-1.33318 -0.43058,-2.63074 -1.22266,-3.70312 1.10305,-1.15899 1.71961,-2.69689 1.72266,-4.29688 -0.002,-1.4616 -0.51616,-2.87627 -1.45312,-3.99805 0.93781,-1.12281 1.45204,-2.53901 1.45312,-4.00195 -0.002,-0.85944 -0.18181,-1.70917 -0.52734,-2.49609 0.34658,-0.78934 0.52613,-1.64184 0.52734,-2.50391 -0.002,-0.85944 -0.18181,-1.70917 -0.52734,-2.49609 0.34658,-0.78934 0.52613,-1.64184 0.52734,-2.50391 -0.001,-1.6528 -0.6572,-3.23781 -1.82422,-4.4082 0.53837,-0.94162 0.82242,-2.00714 0.82422,-3.0918 -0.002,-1.15092 -0.32162,-2.27897 -0.92383,-3.25977 0.0859,-0.22348 0.15899,-0.45172 0.21875,-0.68359 1.83612,-1.13913 2.9536,-3.14587 2.95508,-5.30664 2.5e-4,-2.06164 -1.0162,-3.99078 -2.7168,-5.15625 2.12317,-1.05595 3.46591,-3.22249 3.4668,-5.59375 0,-3.45178 -2.79822,-6.25 -6.25,-6.25 -1.25296,0.002 -2.47646,0.38014 -3.51172,1.08594 -0.32663,-0.0548 -0.6571,-0.0835 -0.98828,-0.0859 -1.15092,0.002 -2.27897,0.32162 -3.25977,0.92383 -0.71444,-0.27744 -1.47382,-0.4211 -2.24023,-0.42383 -0.96664,4.3e-4 -1.92001,0.22506 -2.78516,0.65625 -0.30582,-3.20458 -2.9957,-5.6527 -6.21484,-5.65625 -1.02489,0.002 -2.03368,0.25506 -2.9375,0.73828 0.12202,-0.48677 0.18498,-0.98646 0.1875,-1.48828 0,-3.45178 -2.79822,-6.25 -6.25,-6.25 z m 2.9375,11.76172 c -0.12202,0.48677 -0.18498,0.98646 -0.1875,1.48828 0.002,1.58275 0.60435,3.10582 1.68555,4.26172 -0.33047,0.28434 -0.63027,0.60248 -0.89453,0.94922 -0.31901,-0.33798 -0.67473,-0.63932 -1.06055,-0.89844 0.1784,-0.58764 0.26922,-1.19837 0.26953,-1.8125 -0.002,-1.24093 -0.37311,-2.45322 -1.06641,-3.48242 0.43503,-0.12278 0.85546,-0.29239 1.25391,-0.50586 z m -16.31641,15.26367 c 0.22694,0.0923 0.45911,0.17125 0.69532,0.23633 -0.22314,0.33061 -0.41412,0.68182 -0.57032,1.04883 10e-4,-0.0202 0.003,-0.0403 0.004,-0.0605 -0.003,-0.41145 -0.0457,-0.82165 -0.12891,-1.22461 z m 25.14063,0.55078 c 0.0204,0.36056 0.072,0.71867 0.1543,1.07031 -0.16604,-0.29279 -0.35546,-0.57169 -0.56641,-0.83398 0.14032,-0.0735 0.27778,-0.15236 0.41211,-0.23633 z m 0.82226,2.77735 c 0.13249,0.23386 0.27994,0.45894 0.44141,0.67382 -0.1092,-0.009 -0.21861,-0.0146 -0.32812,-0.0176 -0.0261,-0.22061 -0.0639,-0.43967 -0.11329,-0.65625 z m -14.71484,3.58203 c 1.04266,1.15666 2.47956,1.88242 4.0293,2.03515 1.13682,1.238 2.72437,1.96595 4.40429,2.01953 0.0557,0.47522 0.16581,0.94248 0.32813,1.39258 -0.68261,-0.25059 -1.40371,-0.38014 -2.13086,-0.38281 -0.44551,0.003 -0.88944,0.0532 -1.32422,0.15039 C 219.65976,286.179 217.44272,284.7531 215,284.75 c -0.35216,2.8e-4 -0.70368,0.0303 -1.05078,0.0898 0.56657,-0.46399 1.04719,-1.02393 1.41992,-1.65429 z m -3.35742,14.03515 c -0.17256,0.57738 -0.26072,1.17668 -0.26172,1.7793 9.5e-4,1.01053 0.24691,2.00576 0.7168,2.90039 -0.14111,0.52159 -0.21398,1.05928 -0.2168,1.59961 0.002,1.89607 0.86511,3.6886 2.3457,4.87305 -0.5518,0.94988 -0.8435,2.02842 -0.8457,3.12695 5.9e-4,0.16558 0.008,0.33108 0.0215,0.49609 -0.0144,0.005 -0.0287,0.0104 -0.043,0.0156 -0.12442,-1.55824 -0.82825,-3.01328 -1.97266,-4.07813 0.32583,-0.76998 0.49386,-1.59751 0.49414,-2.43359 -0.004,-2.62091 -1.64202,-4.96121 -4.10352,-5.86133 1.54691,-0.29054 2.92725,-1.15403 3.86524,-2.41797 z m 19.10351,5.36914 c 0.0835,0.23812 0.18133,0.47097 0.29297,0.69727 -0.89618,0.77587 -1.55325,1.79059 -1.89453,2.92578 -1.12454,-0.94392 -2.54548,-1.46182 -4.01367,-1.46289 -0.29948,0.002 -0.59842,0.0255 -0.89453,0.0703 0.0949,-0.43372 0.14339,-0.87632 0.14453,-1.32031 -2e-4,-0.13488 -0.005,-0.26972 -0.0137,-0.4043 0.85881,0.42729 1.80444,0.65117 2.76367,0.6543 1.29623,-0.002 2.55962,-0.4079 3.61523,-1.16016 z m -7.85546,14.23633 c 0.35117,0.13663 0.71397,0.24122 1.08398,0.3125 -0.72483,0.2679 -1.39369,0.66789 -1.97266,1.17969 -0.21049,-0.0297 -0.42235,-0.0485 -0.63476,-0.0566 0.006,-0.0872 0.0109,-0.17442 0.0137,-0.26176 -5.9e-4,-0.16558 -0.008,-0.33108 -0.0215,-0.49609 0.53851,-0.1562 1.05355,-0.38416 1.53125,-0.67774 z m -13.98829,1.66211 c 0.0225,0.26263 0.0617,0.52357 0.11719,0.78125 -0.12932,-0.0105 -0.25894,-0.0171 -0.38867,-0.0195 -0.77011,4e-5 -1.53358,0.1424 -2.25195,0.41992 l -0.006,-0.004 c 0.003,-0.0553 0.006,-0.11065 0.008,-0.16602 -0.003,-0.27121 -0.0228,-0.54197 -0.0606,-0.81055 0.26858,0.0377 0.53934,0.0579 0.81055,0.0605 0.59999,-0.002 1.19661,-0.0899 1.77148,-0.26172 z M 236.75,319.5 c 5.6e-4,0.57121 0.0794,1.13966 0.23438,1.68945 -0.23655,0.24434 -0.45277,0.50759 -0.64649,0.78711 -0.0405,0.0126 -0.0809,0.0257 -0.12109,0.0391 0.35019,-0.79253 0.53176,-1.64921 0.5332,-2.51566 z m -4.4668,5.98438 c -0.11779,0.27005 -0.21635,0.54808 -0.29492,0.83203 -0.0484,-0.03 -0.0973,-0.0593 -0.14648,-0.0879 0.14191,-0.23238 0.26848,-0.47378 0.3789,-0.72266 0.0209,-0.007 0.0417,-0.0142 0.0625,-0.0215 z" inkscape:connector-curvature="0" />
</g>
<g inkscape:groupmode="layer" id="routes_layer" inkscape:label="Routes" style="display:inline" sodipodi:insensitive="true" >
  <path style="display:inline;fill:none;stroke:#000000;stroke-width:2;stroke-linecap:round;stroke-miterlimit:4;stroke-dasharray:0.1, 5;stroke-dashoffset:0;stroke-opacity:1" d="m 89.25,74.000001 c 1.09567,-16.25424 -18.941107,-24.0598 -29.875,-13.625 -15.402135,14.69908 -1.05727,29.28275 -15.625,43.499999 -5.749588,5.61126 -15.20774,14.25 -32.5,14.25 l -16.8749997,0 M 84.375,337.5 l 0,-11.25 c 0,-3.75 -3.218023,-17.64388 -4.242644,-20.61916 C 75.512769,292.21655 79.661286,265.13887 92.428928,250.1906 115.95235,222.64954 141.87849,198.73777 157.34074,168.07475 178.22354,126.66227 224.24415,118.125 236.25,118.125 l 11.25001,0 m -83.45164,38.8669 C 175.46328,134.14044 186.83093,82.378177 181.83768,66.414213 173.51968,39.82062 163.125,31.370691 163.125,11.250001 l 0,-11.25000039999998" inkscape:connector-curvature="0" />
</g>
<g inkscape:groupmode="layer" id="labels_layer" inkscape:label="Labels" style="display:inline" sodipodi:insensitive="true" >
  <text xml:space="preserve"><textPath xlink:href="#jenesais_pass"><tspan
  style="-inkscape-font-specification:'CCTreasureTroveAged Mod, Normal';font-family:'CCTreasureTroveAged Mod';font-weight:normal;font-style:normal;font-stretch:normal;font-variant:normal;font-size:8.75px;text-anchor:start;text-align:start;writing-mode:lr;line-height:125%"
  >Je-ne-sais Pass</tspan></textPath></text>
</g>
<g inkscape:groupmode="layer" id="labels_guide_layer" inkscape:label="Labels Guide" style="display:none" sodipodi:insensitive="true" >
  <path id="jenesais_pass" style="color:#000000;fill:none;stroke:#000000;stroke-width:1;stroke-opacity:1" d="m 112.02863,218.08781 c 17,-18.25 42.78185,-54.77449 52.53185,-78.52449" inkscape:connector-curvature="0" />
</g>
<g inkscape:groupmode="layer" id="resources_layer" inkscape:label="Resources" style="display:inline" sodipodi:insensitive="true" >
  <g id="resource-coconut" transform="matrix(-0.99820311,-0.05992118,0.05992118,-0.99820311,90.761792,-21.18432)" >
    <path style="color:#000000;clip-rule:nonzero;display:inline;overflow:visible;visibility:visible;opacity:1;isolation:auto;mix-blend-mode:normal;color-interpolation:sRGB;color-interpolation-filters:linearRGB;solid-color:#000000;solid-opacity:1;fill:#bc8434;fill-opacity:1;fill-rule:evenodd;stroke:#000000;stroke-width:0.89999998;stroke-linecap:round;stroke-linejoin:miter;stroke-miterlimit:4;stroke-dasharray:none;stroke-dashoffset:0;stroke-opacity:1;color-rendering:auto;image-rendering:auto;shape-rendering:auto;text-rendering:auto;enable-background:accumulate" d="m -4.5080282,-122.99352 c -6.3850178,2.15964 -8.5771578,9.38405 -8.0814268,14.88876 0.55563,6.16983 5.2811628,10.95294 12.64199276,8.10608 3.04329704,-1.17702 6.04119804,-6.34196 6.22442604,-11.57628 0.09818,-2.80474 -0.29778,-5.51103 -1.639173,-7.82455 -1.102579,-1.90162 -3.478014,-3.784 -6.173654,-4.24214 -1.590991,0.97227 -2.972165,0.64813 -2.972165,0.64813 z" inkscape:connector-curvature="0" />
    <ellipse cx="-120.424450" cy="-1.104729" rx="0.540407" ry="0.751301" style="color:#000000;clip-rule:nonzero;display:inline;overflow:visible;visibility:visible;opacity:1;isolation:auto;mix-blend-mode:normal;color-interpolation:sRGB;color-interpolation-filters:linearRGB;solid-color:#000000;solid-opacity:1;fill:#000000;fill-opacity:1;fill-rule:nonzero;stroke:none;stroke-width:0.89999998;stroke-linecap:butt;stroke-linejoin:round;stroke-miterlimit:4;stroke-dasharray:none;stroke-dashoffset:0;stroke-opacity:1;color-rendering:auto;image-rendering:auto;shape-rendering:auto;text-rendering:auto;enable-background:accumulate" transform="matrix(0.04286687,0.99908079,-0.99908079,0.04286687,0,0)" />
    <ellipse cx="-113.374070" cy="-41.165329" rx="0.530946" ry="0.662913" style="color:#000000;clip-rule:nonzero;display:inline;overflow:visible;visibility:visible;opacity:1;isolation:auto;mix-blend-mode:normal;color-interpolation:sRGB;color-interpolation-filters:linearRGB;solid-color:#000000;solid-opacity:1;fill:#000000;fill-opacity:1;fill-rule:nonzero;stroke:none;stroke-width:0.89999998;stroke-linecap:butt;stroke-linejoin:round;stroke-miterlimit:4;stroke-dasharray:none;stroke-dashoffset:0;stroke-opacity:1;color-rendering:auto;image-rendering:auto;shape-rendering:auto;text-rendering:auto;enable-background:accumulate" transform="matrix(0.35065914,0.93650316,-0.93650316,0.35065914,0,0)" />
    <ellipse cx="-115.404910" cy="28.144659" rx="0.751301" ry="0.578731" style="color:#000000;clip-rule:nonzero;display:inline;overflow:visible;visibility:visible;opacity:1;isolation:auto;mix-blend-mode:normal;color-interpolation:sRGB;color-interpolation-filters:linearRGB;solid-color:#000000;solid-opacity:1;fill:#000000;fill-opacity:1;fill-rule:nonzero;stroke:none;stroke-width:0.89999998;stroke-linecap:butt;stroke-linejoin:round;stroke-miterlimit:4;stroke-dasharray:none;stroke-dashoffset:0;stroke-opacity:1;color-rendering:auto;image-rendering:auto;shape-rendering:auto;text-rendering:auto;enable-background:accumulate" transform="matrix(-0.21617976,0.97635358,-0.97635358,-0.21617976,0,0)" />
    <path style="color:#000000;clip-rule:nonzero;display:inline;overflow:visible;visibility:visible;opacity:1;isolation:auto;mix-blend-mode:normal;color-interpolation:sRGB;color-interpolation-filters:linearRGB;solid-color:#000000;solid-opacity:1;fill:#bc8434;fill-opacity:1;fill-rule:evenodd;stroke:#000000;stroke-width:0.89999998;stroke-linecap:round;stroke-linejoin:miter;stroke-miterlimit:4;stroke-dasharray:none;stroke-dashoffset:0;stroke-opacity:1;color-rendering:auto;image-rendering:auto;shape-rendering:auto;text-rendering:auto;enable-background:accumulate" d="m 12.470061,-104.40917 c -1.053625,2.46314 -2.7571896,5.66371 -5.3992166,6.959878 -1.8348159,0.900154 -4.8858287,1.355265 -7.29203855,0.574524 -1.47973495,-0.480128 -3.26695685,-2.153861 -3.88908725,-3.579732 -0.9764548,-2.23794 -1.1678327,-4.60408 -0.6812181,-6.72953 0.2499469,-1.09173 1.186875,-3.22454 1.8151019,-4.00521" inkscape:connector-curvature="0" />
    <path style="color:#000000;clip-rule:nonzero;display:inline;overflow:visible;visibility:visible;opacity:1;isolation:auto;mix-blend-mode:normal;color-interpolation:sRGB;color-interpolation-filters:linearRGB;solid-color:#000000;solid-opacity:1;fill:#ffffff;fill-opacity:1;fill-rule:evenodd;stroke:#000000;stroke-width:0.89999998;stroke-linecap:round;stroke-linejoin:miter;stroke-miterlimit:4;stroke-dasharray:none;stroke-dashoffset:0;stroke-opacity:1;color-rendering:auto;image-rendering:auto;shape-rendering:auto;text-rendering:auto;enable-background:accumulate" d="m -4.1031709,-106.48916 c 0.1858925,1.26956 0.9057567,2.15876 1.8143573,3.06473 0.7258639,0.72377 1.43443306,1.23318 2.38813597,1.53034 0.21168639,0.36954 0.58409309,0.82966 0.71913043,1.00496 0.6211732,0.30789 1.2701423,0.41934 1.7697881,0.53351 1.2859005,0.29381 3.2051814,0.30928 4.487449,0 1.4766975,-0.35618 2.9730411,-1.01232 4.0560481,-2.07749 0.799348,-0.78619 1.474351,-1.85192 1.582847,-2.96784 0.19684,-2.02457 0.0097,-3.62122 -1.250374,-5.21803 -0.765762,-0.24844 -1.101356,-0.47744 -2.0001007,-0.72008 -0.7209049,-0.88161 -1.2999824,-1.55958 -2.1970327,-2.39292 -1.8286746,-0.73618 -4.3613695,-0.80559 -6.0281383,-0.27571 -1.72586214,0.54868 -3.34971,1.59922 -4.0200406,2.49515 -1.4298123,1.911 -1.5302056,3.6019 -1.3220696,5.02338 z" inkscape:connector-curvature="0" />
    <path style="color:#000000;clip-rule:nonzero;display:inline;overflow:visible;visibility:visible;opacity:1;isolation:auto;mix-blend-mode:normal;color-interpolation:sRGB;color-interpolation-filters:linearRGB;solid-color:#000000;solid-opacity:1;fill:url(#gradientCoconut);fill-opacity:1;fill-rule:evenodd;stroke:#000000;stroke-width:0.72000003;stroke-linecap:round;stroke-linejoin:miter;stroke-miterlimit:4;stroke-dasharray:none;stroke-dashoffset:0;stroke-opacity:1;color-rendering:auto;image-rendering:auto;shape-rendering:auto;text-rendering:auto;enable-background:accumulate" d="m 2.5689019,-111.79765 c -1.95421257,0.27864 -3.6605132,1.67502 -3.9378089,3.55663 -0.3092039,2.09813 0.69763676,3.67395 3.1778133,4.47933 0.373786,0.49838 0.6109957,0.84189 0.7612596,1.05028 0.5701086,0.18629 1.6940872,0.30376 2.4051006,0.28378 1.4220267,-0.04 2.5622123,-0.49712 3.5524385,-1.12498 1.980452,-1.2557 2.103312,-3.22456 0.954264,-5.56685 -0.6629126,-0.17678 -1.1503302,-0.34475 -1.6846877,-0.51996 -0.4611538,-0.48593 -0.8524209,-0.92577 -1.6101047,-1.76382 -1.1960277,-0.5413 -2.2986558,-0.51727 -3.6182747,-0.39441 z" inkscape:connector-curvature="0" />
  </g>
</g>
<g inkscape:groupmode="layer" id="extras_layer" inkscape:label="Extras" style="display:inline" sodipodi:insensitive="true" >
  <g id="extra-ship" transform="matrix(0.4444171,-0.89581998,0.89581998,0.4444171,266.30938,417.60566)" >
    <path style="color:#000000;fill:url(#gradientShip);fill-opacity:1;fill-rule:evenodd;stroke:#000000;stroke-width:0.75;stroke-linecap:butt;stroke-linejoin:round;stroke-miterlimit:4;stroke-dasharray:none;stroke-dashoffset:0;stroke-opacity:1;marker:none;enable-background:accumulate" d="m 243.2364,-52.722824 c -3.10208,-2.937202 -8.72518,-3.346714 -12.49116,-3.032742 -2.95307,0.246202 -6.62512,1.070872 -6.62512,1.070872 l -0.0121,3.725952 c 0,0 2.43298,0.582421 6.39007,0.932887 3.66202,0.324334 9.61676,-0.283241 12.73834,-2.696969 z" inkscape:connector-curvature="0" />
    <path style="color:#000000;opacity:1;isolation:auto;mix-blend-mode:normal;color-interpolation:sRGB;color-interpolation-filters:linearRGB;solid-color:#000000;solid-opacity:1;fill:#000000;fill-opacity:1;fill-rule:evenodd;stroke:none;stroke-width:0.75;stroke-linecap:round;stroke-linejoin:round;stroke-miterlimit:4;stroke-dasharray:none;stroke-dashoffset:0;stroke-opacity:1;marker:none;color-rendering:auto;image-rendering:auto;shape-rendering:auto;text-rendering:auto;enable-background:accumulate" d="m 243.05273,-53.089844 c -0.50461,-0.01007 -0.51271,0.749303 -0.008,0.75 l 2.80546,-0.143551 c 0.50461,0.01007 0.51856,-0.385922 0.0138,-0.386619 z" inkscape:connector-curvature="0" />
    <circle cx="37.651787" cy="-233.087830" r="0.695206" style="color:#000000;opacity:1;isolation:auto;mix-blend-mode:normal;color-interpolation:sRGB;color-interpolation-filters:linearRGB;solid-color:#000000;solid-opacity:1;fill:#a66e00;fill-opacity:1;fill-rule:nonzero;stroke:#000000;stroke-width:0.5;stroke-linecap:butt;stroke-linejoin:miter;stroke-miterlimit:4;stroke-dasharray:none;stroke-dashoffset:0;stroke-opacity:1;color-rendering:auto;image-rendering:auto;shape-rendering:auto;text-rendering:auto;enable-background:accumulate" transform="matrix(0.37654483,0.9263984,-0.9263984,0.37654483,0,0)" />
    <circle cx="39.995537" cy="-238.712830" r="0.695206" style="color:#000000;opacity:1;isolation:auto;mix-blend-mode:normal;color-interpolation:sRGB;color-interpolation-filters:linearRGB;solid-color:#000000;solid-opacity:1;fill:#a66e00;fill-opacity:1;fill-rule:nonzero;stroke:#000000;stroke-width:0.5;stroke-linecap:butt;stroke-linejoin:miter;stroke-miterlimit:4;stroke-dasharray:none;stroke-dashoffset:0;stroke-opacity:1;color-rendering:auto;image-rendering:auto;shape-rendering:auto;text-rendering:auto;enable-background:accumulate" transform="matrix(0.37654483,0.9263984,-0.9263984,0.37654483,0,0)" />
    <path style="color:#000000;fill:#feffff;fill-opacity:1;fill-rule:evenodd;stroke:#000000;stroke-width:0.5;stroke-linecap:butt;stroke-linejoin:round;stroke-miterlimit:4;stroke-dasharray:none;stroke-dashoffset:0;stroke-opacity:1;marker:none;enable-background:accumulate" d="m 230.8139,-58.168744 -0.0696,11.095953 c 0,0 1.11273,-0.901569 1.17305,-2.014949 0.0592,-1.093696 -0.80015,-1.762231 -0.80015,-1.762231 0,0 1.00218,-0.841738 0.9922,-1.921676 -0.0106,-1.140901 -0.9468,-1.722391 -0.9468,-1.722391 0,0 0.80027,-0.5343 0.83406,-1.646805 0.0349,-1.150244 -1.18274,-2.027894 -1.18274,-2.027894 z" inkscape:connector-curvature="0" />
    <path style="color:#000000;fill:#feffff;fill-opacity:1;fill-rule:evenodd;stroke:#000000;stroke-width:0.5;stroke-linecap:butt;stroke-linejoin:round;stroke-miterlimit:4;stroke-dasharray:none;stroke-dashoffset:0;stroke-opacity:1;marker:none;enable-background:accumulate" d="m 236.95087,-57.97366 -0.0645,10.282469 c 0,0 1.03677,-0.785137 1.09267,-1.816887 0.0549,-1.013517 -0.74706,-1.683399 -0.74706,-1.683399 0,0 0.85887,-0.76153 0.84962,-1.762298 -0.01,-1.057255 -0.80754,-1.614603 -0.80754,-1.614603 0,0 0.84013,-0.540128 0.87144,-1.571079 0.0324,-1.065902 -1.19455,-1.834218 -1.19455,-1.834218 z" inkscape:connector-curvature="0" />
    <path style="fill:#000000;stroke:none" d="m 239.16963,-53.312319 -0.0111,0.999645 1.00145,0.01039 0.009,-1.000718 z" inkscape:connector-curvature="0" />
    <path style="fill:#6a4600;stroke:none" d="m 233.00825,-53.641515 -0.0131,1.52646 1.52369,0.01423 0.0142,-1.523703 z" inkscape:connector-curvature="0" />
    <path style="fill:none;stroke:#000000;stroke-width:0.6;stroke-linecap:butt" d="m 227.26126,-55.055042 -0.0734,4.514141" inkscape:connector-curvature="0" />
    <path style="fill:#000000;stroke:none" d="m 223.83649,-54.026834 -0.0111,0.999636 1.00072,0.0086 0.009,-0.998911 z" inkscape:connector-curvature="0" />
    <path style="fill:#000000;stroke:none" d="m 223.85032,-52.581947 -0.0111,0.999637 1.00072,0.0086 0.009,-0.998912 z" inkscape:connector-curvature="0" />
    <path style="fill:none;stroke:#000000;stroke-width:0.5;stroke-linecap:butt;stroke-linejoin:round;stroke-miterlimit:4" d="m 227.2539,-51.578825 1.14997,0.173504 -0.0116,1.05042" inkscape:connector-curvature="0" />
    <path style="fill:none;stroke:#000000;stroke-width:0.5;stroke-linecap:butt;stroke-linejoin:round;stroke-miterlimit:4" d="m 227.25705,-54.143799 1.1481,-0.163064 0.0224,-1.189753" inkscape:connector-curvature="0" />
  </g>
</g>
<g inkscape:groupmode="layer" id="suit_rank_glow_layer" inkscape:label="Suit Rank Glow" style="display:inline" sodipodi:insensitive="true" >
  <g style="opacity:0.75;filter:url(#blurSuitRankGlow)" >
    <path style="fill:#ffffff;fill-opacity:1;stroke:none" d="m 31.453338,20.628773 c -3.90158,4.19568 -7.07982,7.84109 -10.6575,12.24125 3.57768,4.40016 6.75592,8.045575 10.6575,12.241254 3.90158,-4.195679 7.07982,-7.841094 10.6575,-12.241254 -3.57768,-4.40016 -6.75592,-8.04557 -10.6575,-12.241251 z" inkscape:connector-curvature="0" />
    <path style="fill:#ffffff;fill-opacity:1;stroke:none" d="m 215.96335,316.87128 c 3.90158,-4.19568 7.07982,-7.84109 10.6575,-12.24125 -3.57768,-4.40016 -6.75592,-8.04557 -10.6575,-12.24125 -3.90158,4.19568 -7.07982,7.84109 -10.6575,12.24125 3.57768,4.40016 6.75592,8.04557 10.6575,12.24125 z" inkscape:connector-curvature="0" />
    <path style="fill:#ffffff;fill-opacity:1;stroke:none" d="m 22.253338,61.595025 c -10e-6,-1.5733 0.25333,-3.0266 0.76,-4.36 0.53333,-1.36 1.25332,-2.5333 2.15999,-3.52 0.66667,-0.8533 1.45333,-1.5333 2.36,-2.04 0.90666,-0.5333 2.08,-0.8 3.52,-0.8 1.27999,0 2.39999,0.24 3.36,0.72 0.95999,0.48 1.79999,1.1334 2.52,1.96 0.71999,0.8 1.30665,1.7467 1.76001,2.84 0.47998,1.0667 0.86664,2.2 1.16,3.4 0.29331,1.1734 0.49331,2.3734 0.6,3.6 0.13331,1.2267 0.19997,2.3867 0.19999,3.48 -2e-5,2.2134 -0.18668,4.2934 -0.55999,6.24 -0.37336,1.9467 -0.96002,3.64 -1.76,5.08 -0.77336,1.44 -1.76002,2.5867 -2.96,3.44 -1.20002,0.8267 -2.64002,1.24 -4.32001,1.24 -1.86667,0 -3.44,-0.5067 -4.71999,-1.52 -1.28001,-1.04 -2.30668,-2.44 -3.08,-4.2 l 2.76,-1.64 c 0.53332,1.28 1.21332,2.2933 2.03999,3.04 0.82666,0.7467 1.82666,1.12 3,1.12 0.98666,0 1.85333,-0.2667 2.6,-0.8 0.74666,-0.56 1.37332,-1.32 1.88,-2.28 0.53332,-0.96 0.94666,-2.0933 1.24,-3.4 0.31999,-1.3333 0.51999,-2.76 0.60001,-4.28 -0.82669,1.04 -1.78669,1.8667 -2.88,2.48 -1.09335,0.5867 -2.24002,0.88 -3.44001,0.88 -1.17334,0 -2.29334,-0.28 -3.35999,-0.84 -1.04001,-0.56 -1.97334,-1.32 -2.80001,-2.28 -0.8,-0.96 -1.44,-2.08 -1.91999,-3.36 -0.48001,-1.3066 -0.72001,-2.7066 -0.72,-4.2 m 3.2,0 c -10e-6,1.04 0.14666,2.0134 0.43999,2.92 0.32,0.9067 0.73333,1.7067 1.24001,2.4 0.53332,0.6667 1.13332,1.2 1.79999,1.6 0.69333,0.3734 1.39999,0.56 2.12,0.56 0.71999,0 1.41333,-0.1866 2.08001,-0.56 0.66665,-0.4 1.25331,-0.9333 1.75999,-1.6 0.53332,-0.6933 0.95999,-1.4933 1.28,-2.4 0.31999,-0.9066 0.47999,-1.88 0.48,-2.92 -1e-5,-0.7466 -0.12001,-1.56 -0.36,-2.44 -0.24001,-0.88 -0.60001,-1.6933 -1.07999,-2.44 -0.45335,-0.7466 -1.04002,-1.3733 -1.76,-1.88 -0.69335,-0.5066 -1.49335,-0.76 -2.40001,-0.76 -0.77334,0.053 -1.50667,0.2934 -2.19999,0.72 -0.66668,0.4267 -1.25335,0.9867 -1.76,1.68 -0.50668,0.6667 -0.90668,1.44 -1.20001,2.32 -0.29333,0.88 -0.44,1.8134 -0.43999,2.8" inkscape:connector-curvature="0" />
    <path style="fill:#ffffff;fill-opacity:1;stroke:none" d="m 225.16333,275.90503 c 1e-5,1.5733 -0.25333,3.0266 -0.76,4.36 -0.53333,1.36 -1.25332,2.5333 -2.15999,3.52 -0.66667,0.8533 -1.45333,1.5333 -2.36,2.04 -0.90666,0.5333 -2.08,0.8 -3.52,0.8 -1.27999,0 -2.39999,-0.24 -3.36,-0.72 -0.95999,-0.48 -1.79999,-1.1334 -2.52,-1.96 -0.71999,-0.8 -1.30665,-1.7467 -1.76001,-2.84 -0.47998,-1.0667 -0.86664,-2.2 -1.16,-3.4 -0.29331,-1.1734 -0.49331,-2.3734 -0.6,-3.6 -0.13331,-1.2267 -0.19997,-2.3867 -0.19999,-3.48 2e-5,-2.2134 0.18668,-4.2934 0.55999,-6.24 0.37336,-1.9467 0.96002,-3.64 1.76,-5.08 0.77336,-1.44 1.76002,-2.5867 2.96,-3.44 1.20002,-0.8267 2.64002,-1.24 4.32001,-1.24 1.86667,0 3.44,0.5067 4.71999,1.52 1.28001,1.04 2.30668,2.44 3.08,4.2 l -2.76,1.64 c -0.53332,-1.28 -1.21332,-2.2933 -2.03999,-3.04 -0.82666,-0.7467 -1.82666,-1.12 -3,-1.12 -0.98666,0 -1.85333,0.2667 -2.6,0.8 -0.74666,0.56 -1.37332,1.32 -1.88,2.28 -0.53332,0.96 -0.94666,2.0933 -1.24,3.4 -0.31999,1.3333 -0.51999,2.76 -0.60001,4.28 0.82669,-1.04 1.78669,-1.8667 2.88,-2.48 1.09335,-0.5867 2.24002,-0.88 3.44001,-0.88 1.17334,0 2.29334,0.28 3.35999,0.84 1.04001,0.56 1.97334,1.32 2.80001,2.28 0.8,0.96 1.44,2.08 1.91999,3.36 0.48001,1.3066 0.72001,2.7066 0.72,4.2 m -3.2,0 c 10e-6,-1.04 -0.14666,-2.0134 -0.43999,-2.92 -0.32,-0.9067 -0.73333,-1.7067 -1.24001,-2.4 -0.53332,-0.6667 -1.13332,-1.2 -1.79999,-1.6 -0.69333,-0.3734 -1.39999,-0.56 -2.12,-0.56 -0.71999,0 -1.41333,0.1866 -2.08001,0.56 -0.66665,0.4 -1.25331,0.9333 -1.75999,1.6 -0.53332,0.6933 -0.95999,1.4933 -1.28,2.4 -0.31999,0.9066 -0.47999,1.88 -0.48,2.92 1e-5,0.7466 0.12001,1.56 0.36,2.44 0.24001,0.88 0.60001,1.6933 1.07999,2.44 0.45335,0.7466 1.04002,1.3733 1.76,1.88 0.69335,0.5066 1.49335,0.76 2.40001,0.76 0.77334,-0.053 1.50667,-0.2934 2.19999,-0.72 0.66668,-0.4267 1.25335,-0.9867 1.76,-1.68 0.50668,-0.6667 0.90668,-1.44 1.20001,-2.32 0.29333,-0.88 0.44,-1.8134 0.43999,-2.8" inkscape:connector-curvature="0" />
  </g>
</g>
<g inkscape:groupmode="layer" id="suit_rank_layer" inkscape:label="Suit Rank" style="display:inline" sodipodi:insensitive="true" >
  <path style="fill:#de0000;fill-opacity:1;stroke:none" d="m 31.453338,20.628773 c -3.90158,4.19568 -7.07982,7.84109 -10.6575,12.24125 3.57768,4.40016 6.75592,8.045575 10.6575,12.241254 3.90158,-4.195679 7.07982,-7.841094 10.6575,-12.241254 -3.57768,-4.40016 -6.75592,-8.04557 -10.6575,-12.241251 z" inkscape:connector-curvature="0" />
  <path style="fill:#de0000;fill-opacity:1;stroke:none" d="m 215.96335,316.87128 c 3.90158,-4.19568 7.07982,-7.84109 10.6575,-12.24125 -3.57768,-4.40016 -6.75592,-8.04557 -10.6575,-12.24125 -3.90158,4.19568 -7.07982,7.84109 -10.6575,12.24125 3.57768,4.40016 6.75592,8.04557 10.6575,12.24125 z" inkscape:connector-curvature="0" />
  <path style="fill:#de0000;fill-opacity:1;stroke:none" d="m 22.253338,61.595025 c -10e-6,-1.5733 0.25333,-3.0266 0.76,-4.36 0.53333,-1.36 1.25332,-2.5333 2.15999,-3.52 0.66667,-0.8533 1.45333,-1.5333 2.36,-2.04 0.90666,-0.5333 2.08,-0.8 3.52,-0.8 1.27999,0 2.39999,0.24 3.36,0.72 0.95999,0.48 1.79999,1.1334 2.52,1.96 0.71999,0.8 1.30665,1.7467 1.76001,2.84 0.47998,1.0667 0.86664,2.2 1.16,3.4 0.29331,1.1734 0.49331,2.3734 0.6,3.6 0.13331,1.2267 0.19997,2.3867 0.19999,3.48 -2e-5,2.2134 -0.18668,4.2934 -0.55999,6.24 -0.37336,1.9467 -0.96002,3.64 -1.76,5.08 -0.77336,1.44 -1.76002,2.5867 -2.96,3.44 -1.20002,0.8267 -2.64002,1.24 -4.32001,1.24 -1.86667,0 -3.44,-0.5067 -4.71999,-1.52 -1.28001,-1.04 -2.30668,-2.44 -3.08,-4.2 l 2.76,-1.64 c 0.53332,1.28 1.21332,2.2933 2.03999,3.04 0.82666,0.7467 1.82666,1.12 3,1.12 0.98666,0 1.85333,-0.2667 2.6,-0.8 0.74666,-0.56 1.37332,-1.32 1.88,-2.28 0.53332,-0.96 0.94666,-2.0933 1.24,-3.4 0.31999,-1.3333 0.51999,-2.76 0.60001,-4.28 -0.82669,1.04 -1.78669,1.8667 -2.88,2.48 -1.09335,0.5867 -2.24002,0.88 -3.44001,0.88 -1.17334,0 -2.29334,-0.28 -3.35999,-0.84 -1.04001,-0.56 -1.97334,-1.32 -2.80001,-2.28 -0.8,-0.96 -1.44,-2.08 -1.91999,-3.36 -0.48001,-1.3066 -0.72001,-2.7066 -0.72,-4.2 m 3.2,0 c -10e-6,1.04 0.14666,2.0134 0.43999,2.92 0.32,0.9067 0.73333,1.7067 1.24001,2.4 0.53332,0.6667 1.13332,1.2 1.79999,1.6 0.69333,0.3734 1.39999,0.56 2.12,0.56 0.71999,0 1.41333,-0.1866 2.08001,-0.56 0.66665,-0.4 1.25331,-0.9333 1.75999,-1.6 0.53332,-0.6933 0.95999,-1.4933 1.28,-2.4 0.31999,-0.9066 0.47999,-1.88 0.48,-2.92 -1e-5,-0.7466 -0.12001,-1.56 -0.36,-2.44 -0.24001,-0.88 -0.60001,-1.6933 -1.07999,-2.44 -0.45335,-0.7466 -1.04002,-1.3733 -1.76,-1.88 -0.69335,-0.5066 -1.49335,-0.76 -2.40001,-0.76 -0.77334,0.053 -1.50667,0.2934 -2.19999,0.72 -0.66668,0.4267 -1.25335,0.9867 -1.76,1.68 -0.50668,0.6667 -0.90668,1.44 -1.20001,2.32 -0.29333,0.88 -0.44,1.8134 -0.43999,2.8" inkscape:connector-curvature="0" />
  <path style="fill:#de0000;fill-opacity:1;stroke:none" d="m 225.16333,275.90503 c 1e-5,1.5733 -0.25333,3.0266 -0.76,4.36 -0.53333,1.36 -1.25332,2.5333 -2.15999,3.52 -0.66667,0.8533 -1.45333,1.5333 -2.36,2.04 -0.90666,0.5333 -2.08,0.8 -3.52,0.8 -1.27999,0 -2.39999,-0.24 -3.36,-0.72 -0.95999,-0.48 -1.79999,-1.1334 -2.52,-1.96 -0.71999,-0.8 -1.30665,-1.7467 -1.76001,-2.84 -0.47998,-1.0667 -0.86664,-2.2 -1.16,-3.4 -0.29331,-1.1734 -0.49331,-2.3734 -0.6,-3.6 -0.13331,-1.2267 -0.19997,-2.3867 -0.19999,-3.48 2e-5,-2.2134 0.18668,-4.2934 0.55999,-6.24 0.37336,-1.9467 0.96002,-3.64 1.76,-5.08 0.77336,-1.44 1.76002,-2.5867 2.96,-3.44 1.20002,-0.8267 2.64002,-1.24 4.32001,-1.24 1.86667,0 3.44,0.5067 4.71999,1.52 1.28001,1.04 2.30668,2.44 3.08,4.2 l -2.76,1.64 c -0.53332,-1.28 -1.21332,-2.2933 -2.03999,-3.04 -0.82666,-0.7467 -1.82666,-1.12 -3,-1.12 -0.98666,0 -1.85333,0.2667 -2.6,0.8 -0.74666,0.56 -1.37332,1.32 -1.88,2.28 -0.53332,0.96 -0.94666,2.0933 -1.24,3.4 -0.31999,1.3333 -0.51999,2.76 -0.60001,4.28 0.82669,-1.04 1.78669,-1.8667 2.88,-2.48 1.09335,-0.5867 2.24002,-0.88 3.44001,-0.88 1.17334,0 2.29334,0.28 3.35999,0.84 1.04001,0.56 1.97334,1.32 2.80001,2.28 0.8,0.96 1.44,2.08 1.91999,3.36 0.48001,1.3066 0.72001,2.7066 0.72,4.2 m -3.2,0 c 10e-6,-1.04 -0.14666,-2.0134 -0.43999,-2.92 -0.32,-0.9067 -0.73333,-1.7067 -1.24001,-2.4 -0.53332,-0.6667 -1.13332,-1.2 -1.79999,-1.6 -0.69333,-0.3734 -1.39999,-0.56 -2.12,-0.56 -0.71999,0 -1.41333,0.1866 -2.08001,0.56 -0.66665,0.4 -1.25331,0.9333 -1.75999,1.6 -0.53332,0.6933 -0.95999,1.4933 -1.28,2.4 -0.31999,0.9066 -0.47999,1.88 -0.48,2.92 1e-5,0.7466 0.12001,1.56 0.36,2.44 0.24001,0.88 0.60001,1.6933 1.07999,2.44 0.45335,0.7466 1.04002,1.3733 1.76,1.88 0.69335,0.5066 1.49335,0.76 2.40001,0.76 0.77334,-0.053 1.50667,-0.2934 2.19999,-0.72 0.66668,-0.4267 1.25335,-0.9867 1.76,-1.68 0.50668,-0.6667 0.90668,-1.44 1.20001,-2.32 0.29333,-0.88 0.44,-1.8134 0.43999,-2.8" inkscape:connector-curvature="0" />
</g>
<g inkscape:groupmode="layer" id="guides_layer" inkscape:label="Guides" style="display:none" sodipodi:insensitive="true" >
  <path style="fill:none;stroke:#000000;stroke-width:0.9" d="m 11.250000,11.25 0,-45" inkscape:connector-curvature="0" />
  <path style="fill:none;stroke:#000000;stroke-width:0.9" d="m 11.250000,371.25 0,-45" inkscape:connector-curvature="0" />
  <path style="fill:none;stroke:#000000;stroke-width:0.9" d="m 84.375000,11.25 0,-45" inkscape:connector-curvature="0" />
  <path style="fill:none;stroke:#000000;stroke-width:0.9" d="m 84.375000,371.25 0,-45" inkscape:connector-curvature="0" />
  <path style="fill:none;stroke:#000000;stroke-width:0.9" d="m 123.750000,11.25 0,-45" inkscape:connector-curvature="0" />
  <path style="fill:none;stroke:#000000;stroke-width:0.9" d="m 123.750000,371.25 0,-45" inkscape:connector-curvature="0" />
  <path style="fill:none;stroke:#000000;stroke-width:0.9" d="m 163.125000,11.25 0,-45" inkscape:connector-curvature="0" />
  <path style="fill:none;stroke:#000000;stroke-width:0.9" d="m 163.125000,371.25 0,-45" inkscape:connector-curvature="0" />
  <path style="fill:none;stroke:#000000;stroke-width:0.9" d="m 236.250000,11.25 0,-45" inkscape:connector-curvature="0" />
  <path style="fill:none;stroke:#000000;stroke-width:0.9" d="m 236.250000,371.25 0,-45" inkscape:connector-curvature="0" />
  <path style="fill:none;stroke:#000000;stroke-width:0.9" d="m -33.75,11.250000 45,0" inkscape:connector-curvature="0" />
  <path style="fill:none;stroke:#000000;stroke-width:0.9" d="m 236.25,11.250000 45,0" inkscape:connector-curvature="0" />
  <path style="fill:none;stroke:#000000;stroke-width:0.9" d="m -33.75,118.125000 45,0" inkscape:connector-curvature="0" />
  <path style="fill:none;stroke:#000000;stroke-width:0.9" d="m 236.25,118.125000 45,0" inkscape:connector-curvature="0" />
  <path style="fill:none;stroke:#000000;stroke-width:0.9" d="m -33.75,168.750000 45,0" inkscape:connector-curvature="0" />
  <path style="fill:none;stroke:#000000;stroke-width:0.9" d="m 236.25,168.750000 45,0" inkscape:connector-curvature="0" />
  <path style="fill:none;stroke:#000000;stroke-width:0.9" d="m -33.75,219.375000 45,0" inkscape:connector-curvature="0" />
  <path style="fill:none;stroke:#000000;stroke-width:0.9" d="m 236.25,219.375000 45,0" inkscape:connector-curvature="0" />
  <path style="fill:none;stroke:#000000;stroke-width:0.9" d="m -33.75,326.250000 45,0" inkscape:connector-curvature="0" />
  <path style="fill:none;stroke:#000000;stroke-width:0.9" d="m 236.25,326.250000 45,0" inkscape:connector-curvature="0" />
  <g id="guide-short0-4" >
    <rect x="0.000000" y="-22.500000" width="84.375000" height="22.500000" style="fill:#ffd291;stroke:#000000;stroke-width:0.9" />
    <rect x="0.000000" y="-22.500000" width="78.750000" height="22.500000" style="fill:#b4e982;stroke:#000000;stroke-width:0.9" />
    <rect x="0.000000" y="-22.500000" width="61.875000" height="22.500000" style="fill:#5adc4f;stroke:#000000;stroke-width:0.9" />
    <rect x="84.375000" y="-22.500000" width="163.125000" height="22.500000" style="fill:#b9deff;stroke:#000000;stroke-width:0.9" />
    <rect x="123.750000" y="-22.500000" width="123.750000" height="22.500000" style="fill:#9bceff;stroke:#000000;stroke-width:0.9" />
    <rect x="180.000000" y="-22.500000" width="67.500000" height="22.500000" style="fill:#73baff;stroke:#000000;stroke-width:0.9" />
  </g>
  <g id="guide-long1-1" >
    <rect x="247.500000" y="219.375000" width="22.500000" height="118.125000" style="fill:#ffd291;stroke:#000000;stroke-width:0.9" />
    <rect x="247.500000" y="236.250000" width="22.500000" height="101.250000" style="fill:#b4e982;stroke:#000000;stroke-width:0.9" />
    <rect x="247.500000" y="258.750000" width="22.500000" height="78.750000" style="fill:#5adc4f;stroke:#000000;stroke-width:0.9" />
    <rect x="247.500000" y="0.000000" width="22.500000" height="219.375000" style="fill:#b9deff;stroke:#000000;stroke-width:0.9" />
    <rect x="247.500000" y="0.000000" width="22.500000" height="168.750000" style="fill:#9bceff;stroke:#000000;stroke-width:0.9" />
    <rect x="247.500000" y="0.000000" width="22.500000" height="101.250000" style="fill:#73baff;stroke:#000000;stroke-width:0.9" />
  </g>
  <g id="guide-short2-4" transform="matrix(-1,0,0,1,247.5,360)" >
    <rect x="0.000000" y="-22.500000" width="84.375000" height="22.500000" style="fill:#ffd291;stroke:#000000;stroke-width:0.9" />
    <rect x="0.000000" y="-22.500000" width="78.750000" height="22.500000" style="fill:#b4e982;stroke:#000000;stroke-width:0.9" />
    <rect x="0.000000" y="-22.500000" width="61.875000" height="22.500000" style="fill:#5adc4f;stroke:#000000;stroke-width:0.9" />
    <rect x="84.375000" y="-22.500000" width="163.125000" height="22.500000" style="fill:#b9deff;stroke:#000000;stroke-width:0.9" />
    <rect x="123.750000" y="-22.500000" width="123.750000" height="22.500000" style="fill:#9bceff;stroke:#000000;stroke-width:0.9" />
    <rect x="180.000000" y="-22.500000" width="67.500000" height="22.500000" style="fill:#73baff;stroke:#000000;stroke-width:0.9" />
  </g>
  <g id="guide-long3-3" transform="matrix(1,0,0,-1,-270,337.5)" >
    <rect x="247.500000" y="118.125000" width="22.500000" height="219.375000" style="fill:#ffd291;stroke:#000000;stroke-width:0.9" />
    <rect x="247.500000" y="123.750000" width="22.500000" height="213.750000" style="fill:#b4e982;stroke:#000000;stroke-width:0.9" />
    <rect x="247.500000" y="225.000000" width="22.500000" height="112.500000" style="fill:#5adc4f;stroke:#000000;stroke-width:0.9" />
    <rect x="247.500000" y="151.875000" width="22.500000" height="61.875000" style="fill:#5adc4f;stroke:#000000;stroke-width:0.9" />
    <rect x="247.500000" y="0.000000" width="22.500000" height="118.125000" style="fill:#b9deff;stroke:#000000;stroke-width:0.9" />
    <rect x="247.500000" y="0.000000" width="22.500000" height="84.375000" style="fill:#9bceff;stroke:#000000;stroke-width:0.9" />
    <rect x="247.500000" y="0.000000" width="22.500000" height="50.625000" style="fill:#73baff;stroke:#000000;stroke-width:0.9" />
  </g>
</g>
<g inkscape:groupmode="layer" id="cut_line_layer" inkscape:label="Cut Line" style="display:none" sodipodi:insensitive="true" >
  <rect style="fill:none;stroke:#000000;stroke-width:0.5;stroke-linecap:butt;stroke-linejoin:bevel;stroke-miterlimit:4;stroke-dasharray:none;stroke-opacity:1" width="225" height="315" x="11.25" y="11.25" ry="17.361111" />
</g>
<g inkscape:groupmode="layer" id="page_border_layer" inkscape:label="Page Border" style="display:none" sodipodi:insensitive="true" >
  <rect style="fill:none;stroke:#000000;stroke-width:0.5;stroke-linecap:butt;stroke-linejoin:bevel;stroke-miterlimit:4;stroke-dasharray:none;stroke-opacity:1" width="247.5" height="337.5" x="0" y="0" />
</g>

</svg>
