<?xml version="1.0" encoding="UTF-8" standalone="no"?>
<svg version="1.1" height="337.5" width="247.5" xmlns:rdf="http://www.w3.org/1999/02/22-rdf-syntax-ns#" xmlns="http://www.w3.org/2000/svg" xmlns:cc="http://creativecommons.org/ns#" xmlns:xlink="http://www.w3.org/1999/xlink" xmlns:dc="http://purl.org/dc/elements/1.1/" xmlns:sodipodi="http://sodipodi.sourceforge.net/DTD/sodipodi-0.dtd" xmlns:svg="http://www.w3.org/2000/svg" xmlns:inkscape="http://www.inkscape.org/namespaces/inkscape">
<metadata>
  <rdf:RDF>
    <cc:Work rdf:about="">
      <dc:format>image/svg+xml</dc:format>
      <dc:type rdf:resource="http://purl.org/dc/dcmitype/StillImage"/>
      <dc:title/>
      <dc:creator>
        <cc:Agent><dc:title>Gary Kacmarcik</dc:title></cc:Agent>
      </dc:creator>
    </cc:Work>
  </rdf:RDF>
</metadata>

<defs>
  <filter inkscape:label="textureGrassBig" style="color-interpolation-filters:sRGB" id="textureGrassBig">
    <feTurbulence numOctaves="2" seed="112" type="turbulence" baseFrequency="0.070000" result="result1" />
    <feColorMatrix result="result0" in="SourceGraphic" type="luminanceToAlpha" />
    <feColorMatrix result="result2" values="1 0 0 0 0 0 1 0 0 0 0 0 1 0 0 0 0 0 0.4 0 " />
    <feComposite in="result2" operator="over" in2="result1" />
    <feColorMatrix result="result91" values="1 0 0 0 0 0 1 0 0 0 0 0 1 0 0 0 0 0 10 -4 " />
    <feComposite operator="out" in="SourceGraphic" in2="result91" />
    <feGaussianBlur stdDeviation="2.500000" />
    <feColorMatrix values="1 0 0 0 0 0 1 0 0 0 0 0 1 0 0 0 0 0 1 0 " />
  </filter>
  <filter inkscape:label="textureGrassSmall" style="color-interpolation-filters:sRGB" id="textureGrassSmall">
    <feTurbulence numOctaves="4" seed="112" type="turbulence" baseFrequency="0.500000" result="result1" />
    <feColorMatrix result="result0" in="SourceGraphic" type="luminanceToAlpha" />
    <feColorMatrix result="result2" values="1 0 0 0 0 0 1 0 0 0 0 0 1 0 0 0 0 0 0.4 0 " />
    <feComposite in="result2" operator="over" in2="result1" />
    <feColorMatrix result="result91" values="1 0 0 0 0 0 1 0 0 0 0 0 1 0 0 0 0 0 10 -4 " />
    <feComposite operator="out" in="SourceGraphic" in2="result91" />
    <feGaussianBlur stdDeviation="1.000000" />
    <feColorMatrix values="1 0 0 0 0 0 1 0 0 0 0 0 1 0 0 0 0 0 1 0 " />
  </filter>
  <filter inkscape:label="textureLand" style="color-interpolation-filters:sRGB" id="textureLand">
    <feTurbulence numOctaves="4" seed="112" type="turbulence" baseFrequency="0.500000" result="result1" />
    <feColorMatrix result="result0" in="SourceGraphic" type="luminanceToAlpha" />
    <feColorMatrix result="result2" values="1 0 0 0 0 0 1 0 0 0 0 0 1 0 0 0 0 0 0.4 0 " />
    <feComposite in="result2" operator="over" in2="result1" />
    <feColorMatrix result="result91" values="1 0 0 0 0 0 1 0 0 0 0 0 1 0 0 0 0 0 10 -4 " />
    <feComposite operator="out" in="SourceGraphic" in2="result91" />
    <feGaussianBlur stdDeviation="0.800000" />
    <feColorMatrix values="1 0 0 0 0 0 1 0 0 0 0 0 1 0 0 0 0 0 1 0 " />
  </filter>
  <filter inkscape:label="textureForestBig" style="color-interpolation-filters:sRGB" id="textureForestBig">
    <feTurbulence numOctaves="2" seed="112" type="turbulence" baseFrequency="0.300000" result="result1" />
    <feColorMatrix result="result0" in="SourceGraphic" type="luminanceToAlpha" />
    <feColorMatrix result="result2" values="1 0 0 0 0 0 1 0 0 0 0 0 1 0 0 0 0 0 0.4 0 " />
    <feComposite in="result2" operator="over" in2="result1" />
    <feColorMatrix result="result91" values="1 0 0 0 0 0 1 0 0 0 0 0 1 0 0 0 0 0 10 -4 " />
    <feComposite operator="out" in="SourceGraphic" in2="result91" />
    <feGaussianBlur stdDeviation="2.000000" />
    <feColorMatrix values="1 0 0 0 0 0 1 0 0 0 0 0 1 0 0 0 0 0 1 0 " />
  </filter>
  <filter inkscape:label="textureForestSmall" style="color-interpolation-filters:sRGB" id="textureForestSmall">
    <feTurbulence numOctaves="4" seed="112" type="turbulence" baseFrequency="0.350000" result="result1" />
    <feColorMatrix result="result0" in="SourceGraphic" type="luminanceToAlpha" />
    <feColorMatrix result="result2" values="1 0 0 0 0 0 1 0 0 0 0 0 1 0 0 0 0 0 0.4 0 " />
    <feComposite in="result2" operator="over" in2="result1" />
    <feColorMatrix result="result91" values="1 0 0 0 0 0 1 0 0 0 0 0 1 0 0 0 0 0 10 -4 " />
    <feComposite operator="out" in="SourceGraphic" in2="result91" />
    <feGaussianBlur stdDeviation="1.000000" />
    <feColorMatrix values="1 0 0 0 0 0 1 0 0 0 0 0 1 0 0 0 0 0 1 0 " />
  </filter>
  <filter inkscape:label="roughenShoreline" style="color-interpolation-filters:sRGB" id="roughenShoreline">
    <feTurbulence numOctaves="4" seed="112" type="turbulence" baseFrequency="0.050000" result="turb" />
    <feDisplacementMap scale="6.600000" yChannelSelector="G" xChannelSelector="R" in="SourceGraphic" in2="turb" />
  </filter>
  <filter inkscape:label="roughenForest" style="color-interpolation-filters:sRGB" id="roughenForest">
    <feTurbulence numOctaves="4" seed="112" type="fractalNoise" baseFrequency="0.150000 0.150000" result="turb" />
    <feDisplacementMap scale="6.600000" yChannelSelector="G" xChannelSelector="R" in="SourceGraphic" in2="turb" />
  </filter>
  <filter inkscape:collect="always" inkscape:label="blurSuitRankGlow" style="color-interpolation-filters:sRGB" id="blurSuitRankGlow" x="-0.029025" y="-0.020458" width="1.058049" height="1.040917">
    <feGaussianBlur inkscape:collect="always" stdDeviation="2.515067" />
  </filter>
  <filter inkscape:collect="always" inkscape:label="blurWaterDeep" style="color-interpolation-filters:sRGB" id="blurWaterDeep" x="-0.056691" y="-0.041620" width="1.113381" height="1.083239">
    <feGaussianBlur inkscape:collect="always" stdDeviation="6.919136" />
  </filter>
  <filter inkscape:collect="always" inkscape:label="blurWaterShallow" style="color-interpolation-filters:sRGB" id="blurWaterShallow" x="-0.055818" y="-0.042103" width="1.111637" height="1.084205">
    <feGaussianBlur inkscape:collect="always" stdDeviation="6.561501" />
  </filter>
  <filter inkscape:collect="always" inkscape:label="blurWaterHilight" style="color-interpolation-filters:sRGB" id="blurWaterHilight" x="-0.071178" y="-0.051856" width="1.142356" height="1.103712">
    <feGaussianBlur inkscape:collect="always" stdDeviation="6.857532" />
  </filter>
  <filter inkscape:collect="always" inkscape:label="blurGrass" style="color-interpolation-filters:sRGB" id="blurGrass" x="-0.032100" y="-0.019164" width="1.064201" height="1.038328">
    <feGaussianBlur inkscape:collect="always" stdDeviation="2.386213" />
  </filter>
  <filter inkscape:collect="always" inkscape:label="blurForestShadow" style="color-interpolation-filters:sRGB" id="blurForestShadow" x="-0.033576" y="-0.018674" width="1.067152" height="1.037348">
    <feGaussianBlur inkscape:collect="always" stdDeviation="2.199785" />
  </filter>
  <filter inkscape:collect="always" inkscape:label="blurFlowerInner" style="color-interpolation-filters:sRGB" id="blurFlowerInner" x="-0.420000" y="-0.420000" width="1.840000" height="1.840000">
    <feGaussianBlur inkscape:collect="always" stdDeviation="1.605540" />
  </filter>
  <filter inkscape:collect="always" inkscape:label="blurFlowerMiddle" style="color-interpolation-filters:sRGB" id="blurFlowerMiddle" x="-0.240000" y="-0.240000" width="1.480000" height="1.480000">
    <feGaussianBlur inkscape:collect="always" stdDeviation="1.933705" />
  </filter>
  <linearGradient id="gradientStopsFish" inkscape:collect="always">
    <stop offset="0.000000" style="stop-color:#ff5555;stop-opacity:1.000000" />
    <stop offset="1.000000" style="stop-color:#ffffff;stop-opacity:1.000000" />
  </linearGradient>
  <linearGradient id="gradientStopsCoconut" inkscape:collect="always">
    <stop offset="0.000000" style="stop-color:#ffffff;stop-opacity:1.000000" />
    <stop offset="1.000000" style="stop-color:#c8c8c8;stop-opacity:0.000000" />
  </linearGradient>
  <linearGradient id="gradientStopsFlower" inkscape:collect="always">
    <stop offset="0.000000" style="stop-color:#b16dff;stop-opacity:1.000000" />
    <stop offset="1.000000" style="stop-color:#e7d2ff;stop-opacity:1.000000" />
  </linearGradient>
  <linearGradient id="gradientStopsJellyfish" inkscape:collect="always">
    <stop offset="0.000000" style="stop-color:#4f97ff;stop-opacity:1.000000" />
    <stop offset="1.000000" style="stop-color:#cfe3ff;stop-opacity:1.000000" />
  </linearGradient>
  <linearGradient id="gradientStopsShip" inkscape:collect="always">
    <stop offset="0.000000" style="stop-color:#b67800;stop-opacity:1.000000" />
    <stop offset="1.000000" style="stop-color:#d28b00;stop-opacity:1.000000" />
  </linearGradient>
  <linearGradient id="gradientFish" xlink:href="#gradientStopsFish" x1="178.789090" y1="-114.782830" x2="180.407300" y2="-103.782830" gradientTransform="translate(-178.76256,1.0606602)" gradientUnits="userSpaceOnUse" inkscape:collect="always" />
  <linearGradient id="gradientJellyfishTentacle1a" xlink:href="#gradientStopsJellyfish" x1="118.024030" y1="-110.827530" x2="121.753140" y2="-96.140030" gradientTransform="translate(-120,0)" gradientUnits="userSpaceOnUse" inkscape:collect="always" />
  <linearGradient id="gradientJellyfishTentacle1b" xlink:href="#gradientStopsJellyfish" x1="118.024030" y1="-110.827530" x2="121.753140" y2="-96.140030" gradientTransform="translate(-120,0)" gradientUnits="userSpaceOnUse" inkscape:collect="always" />
  <linearGradient id="gradientJellyfishTentacle2" xlink:href="#gradientStopsJellyfish" x1="118.218180" y1="-115.782610" x2="121.698270" y2="-97.813858" gradientTransform="translate(-120,0)" gradientUnits="userSpaceOnUse" inkscape:collect="always" />
  <linearGradient id="gradientJellyfishTentacle3" xlink:href="#gradientStopsJellyfish" x1="123.335370" y1="-114.610190" x2="116.678600" y2="-98.453941" gradientTransform="translate(-120,0)" gradientUnits="userSpaceOnUse" inkscape:collect="always" />
  <linearGradient id="gradientShip" xlink:href="#gradientStopsShip" x1="196.432910" y1="221.715270" x2="203.663250" y2="204.277770" gradientTransform="matrix(0.37654483,0.9263984,-0.9263984,0.37654483,355.66788,-318.43897)" gradientUnits="userSpaceOnUse" inkscape:collect="always" />
  <radialGradient id="gradientCoconut" xlink:href="#gradientStopsCoconut" cx="1.944096" cy="-60.612652" fx="1.944096" fy="-60.612652" r="6.723294" gradientUnits="userSpaceOnUse" gradientTransform="matrix(1.691364,-0.31394812,0.29762395,1.603419,17.826033,-7.042221)" inkscape:collect="always" />
  <radialGradient id="gradientFlower" xlink:href="#gradientStopsFlower" cx="60.884877" cy="-69.652750" fx="60.884877" fy="-69.652750" r="15.835310" gradientUnits="userSpaceOnUse" gradientTransform="matrix(0.8413905,0,0,0.87120012,-50.722984,-48.679159)" inkscape:collect="always" />
  <radialGradient id="gradientJellyfish" xlink:href="#gradientStopsJellyfish" cx="120.453410" cy="-112.943900" fx="120.453410" fy="-112.943900" r="10.580511" gradientUnits="userSpaceOnUse" gradientTransform="matrix(1.1662998,0.0435575,-0.04526952,1.2121402,-145.14628,17.080499)" inkscape:collect="always" />
</defs>

<sodipodi:namedview
    id="base"
    pagecolor="#ffffff"
    bordercolor="#666666"
    borderopacity="1.0"
    inkscape:pageopacity="0.0"
    inkscape:pageshadow="2"
    inkscape:zoom="2"
    inkscape:cx="115.37643"
    inkscape:cy="285.04449"
    inkscape:document-units="in"
    showgrid="true"
    units="in"
    inkscape:window-width="1392"
    inkscape:window-height="836"
    inkscape:window-x="39"
    inkscape:window-y="6"
    inkscape:window-maximized="0"
    inkscape:snap-grids="true"
    inkscape:snap-to-guides="true"
    inkscape:snap-nodes="true"
    inkscape:object-nodes="true"
    inkscape:snap-smooth-nodes="true"
    inkscape:snap-intersection-paths="true"
    inkscape:object-paths="true"
    inkscape:snap-bbox="true"
    inkscape:bbox-nodes="true"
    inkscape:snap-others="true"
    inkscape:bbox-paths="false"
    inkscape:snap-global="true" >
  <inkscape:grid
    type="xygrid"
    id="grid3051"
    empspacing="2"
    visible="true"
    enabled="true"
    snapvisiblegridlinesonly="true"
    spacingx="0.0625in"
    spacingy="0.0625in"
    dotted="false"
    units="in" />
</sodipodi:namedview>
<g inkscape:groupmode="layer" id="water_layer" inkscape:label="Water" style="display:inline" sodipodi:insensitive="true" >
  <rect id="water" style="fill:#b9deff;fill-opacity:1;stroke:none" x="0" y="0" width="247.5" height="337.5" />
</g>
<g inkscape:groupmode="layer" id="water_shallow_layer" inkscape:label="Water Shallow" style="display:inline" sodipodi:insensitive="true" >
  <path style="fill:#9bd1ff;fill-opacity:0.70;fill-rule:evenodd;stroke:none;filter:url(#blurWaterShallow)" d="m -11.25,-11.25 0,180 22.5,0 c 0,0 17.95075,2.71747 26.5,5.625 8.222185,2.7963 15.220964,8.6268 23.5,11.25 9.546899,3.02492 19.610672,4.91855 29.625,5 11.08398,0.0901 22.14498,-2.21982 32.875,-5 8.90823,-2.30815 16.94826,-7.38951 25.875,-9.625 10.23771,-2.56379 20.99967,-2.31705 31.375,-4.25 10.61094,-1.97685 20.7094,-7.24913 31.5,-7.5 8.05534,-0.18728 23.75,4.5 23.75,4.5 l 22.5,0 0,-180 z M 141.5,46 c 7.49848,-2.271929 16.00485,-1.782902 23.5,0.5 7.38582,2.249603 13.41281,7.750559 19.5,12.5 6.13522,4.786917 13.9135,8.856535 17,16 2.71032,6.272845 0,13.666667 0,20.5 0,6.5 2.48744,13.49478 0,19.5 -3.24718,7.83938 -9.5586,17.13814 -18,18 -7.54184,0.77001 -11.71577,-10.39947 -19,-12.5 -7.84856,-2.26326 -16.3802,1.38942 -24.5,0.5 -6.30874,-0.69104 -12.99144,-1.34824 -18.5,-4.5 -6.64972,-3.80469 -13.62531,-9.21609 -16,-16.5 -3.33879,-10.241106 -1.13407,-22.819311 4.5,-32 6.69884,-10.915735 19.24292,-18.286285 31.5,-22 z" inkscape:connector-curvature="0" />
</g>
<g inkscape:groupmode="layer" id="water_deep_layer" inkscape:label="Water Deep" style="display:inline" sodipodi:insensitive="true" >
  <path style="fill:#87c8ff;fill-opacity:0.60;fill-rule:evenodd;stroke:none;filter:url(#blurWaterDeep)" d="m -11.25,-11.25 0,112.5 22.5,0 c 0,0 18.125,0.5 23.75,6.125 5.625,5.625 10.450469,16.35492 16.25,24.125 4.974902,6.66526 8.548825,15.31268 15.875,19.25 8.746647,4.70073 20.113184,5.97562 29.625,3.125 4.90603,-1.4703 12.08327,-4.63263 11.875,-9.75 C 108.23536,134.55122 90.627998,135.50465 85,127.75 80.733633,121.8715 79.787871,114.06398 78.75,106.875 77.315152,96.936287 76.652759,86.542775 78.875,76.75 80.792957,68.298119 84.219242,59.70722 90,53.25 c 5.877223,-6.564973 14.29256,-10.668988 22.5,-13.875 13.20598,-5.158555 30.5,-8.125 41.75,-8.125 11.25,0 25.95836,7.929649 37.875,14.25 8.92619,4.734277 18.40242,9.638801 24.75,17.5 4.06952,5.039921 5.87732,11.637418 7.625,17.875 1.2607,4.499523 -0.4939,9.92335 2,13.875 2.08466,3.303201 9.75,6.5 9.75,6.5 l 22.5,0 0,-112.5 z" inkscape:connector-curvature="0" />
</g>
<g inkscape:groupmode="layer" id="water_hilight_layer" inkscape:label="Water Hilight" style="display:inline" sodipodi:insensitive="true" >
  <use xlink:href="#shoreline" height="100%" width="100%" x="0" y="0" style="display:inline;fill:#ffffff;fill-opacity:1;stroke:#ffffff;stroke-opacity:1;filter:url(#blurWaterHilight)" />
</g>
<g inkscape:groupmode="layer" id="land_layer" inkscape:label="Land" style="display:inline" sodipodi:insensitive="true" >
  <use xlink:href="#shoreline" height="100%" width="100%" x="0" y="0" style="display:inline;fill:#ffddab;fill-opacity:1;stroke:none;stroke-width:1;stroke-miterlimit:4;stroke-dasharray:none;stroke-opacity:1" />
</g>
<g inkscape:groupmode="layer" id="land_texture_layer" inkscape:label="Land Texture" style="display:inline" sodipodi:insensitive="true" >
  <use xlink:href="#shoreline" height="100%" width="100%" x="0" y="0" style="display:inline;fill:#ffca7d;fill-opacity:1;stroke:none;stroke-width:1;stroke-miterlimit:4;stroke-dasharray:none;stroke-opacity:1;filter:url(#textureLand)" />
</g>
<g inkscape:groupmode="layer" id="shoreline_layer" inkscape:label="Shoreline" style="display:inline" sodipodi:insensitive="true" >
  <use xlink:href="#shoreline" height="100%" width="100%" x="0" y="0" style="display:inline;fill:none;fill-opacity:1;stroke:#5f4c14;stroke-width:1;stroke-miterlimit:4;stroke-dasharray:none;stroke-opacity:1" />
</g>
<g inkscape:groupmode="layer" id="shoreline_master_layer" inkscape:label="Shoreline Master" style="display:none" sodipodi:insensitive="true" >
  <path id="shoreline" style="color:#000000;clip-rule:nonzero;display:inline;overflow:visible;visibility:visible;opacity:1;isolation:auto;mix-blend-mode:normal;color-interpolation:sRGB;color-interpolation-filters:linearRGB;solid-color:#000000;solid-opacity:1;fill-opacity:1;fill-rule:evenodd;filter:url(#roughenShoreline);color-rendering:auto;image-rendering:auto;shape-rendering:auto;text-rendering:auto;enable-background:accumulate" d="m 158.46094,69.662109 -7.98438,-4.932617 3.7656,14.567383 c 3.52338,6.240353 7.14846,-1.577445 10.82422,4.574215 1.83388,0.69203 14.42042,20.11792 13.78125,18.27735 4.95418,-11.813985 2.89205,-5.385908 -1.00782,-14.908206 5.4441,-3.53047 -0.92474,-12.184715 -6.43256,-15.579194 -3.9645,-2.44333 -4.1313,-5.521975 -4.19634,-5.498931 z m 61.80273,146.080081 c -10.3163,3.543 -20.65947,7.00746 -31.02929,10.39062 -1.71409,1.04852 -2.72218,3.26853 -4.90963,3.47267 -3.49001,0.75979 -6.59632,2.6612 -9.31927,4.91477 -2.52949,1.88917 -5.4837,3.8243 -8.79582,3.43835 -6.50012,-0.42361 -12.44499,-4.03599 -19.04512,-3.69011 -7.4642,0.10023 -14.34029,3.43253 -21.60917,4.68954 -3.82946,0.7353 -7.75995,0.65752 -11.61458,0.17572 -3.79687,-0.34114 -7.81808,-0.28047 -11.27936,1.51738 -4.118227,1.75144 -7.881342,4.22106 -11.975883,6.0227 -1.612831,1.21224 -3.072384,3.1665 -5.300781,3.05859 -7.400253,0.27143 -14.816727,1.74463 -22.21875,0.69727 -1.631608,-1.54744 -3.655629,-2.56506 -5.505411,-3.80065 -3.436914,-2.73917 -4.657117,-7.14889 -6.3496,-11.01228 -1.001584,-2.33287 -2.089758,-4.84015 -4.190527,-6.38561 -3.433025,-1.7916 -7.713726,-1.97254 -10.554072,-4.84053 -2.291125,-2.09724 -5.135398,-3.97406 -8.365234,-3.89257 -14.854789,-1.85885 -29.845139,-0.85187 -44.759766,-0.62891 -2.135264,0.58813 -3.101548,2.80107 -4.14915,4.53703 -1.859726,3.59955 -1.807564,7.77521 -1.572174,11.71335 l -0.208363,122.73986 c 9.207846,1.87926 18.637831,0.71517 27.9495981,1.07431 L 270,360 l 0,-140.625 -38.35938,-0.0723 -10.80273,-3.57421 c -0.19141,0.005 -0.38281,0.009 -0.57422,0.0137 z" inkscape:connector-curvature="0" />
</g>
<g inkscape:groupmode="layer" id="grass_layer" inkscape:label="Grass" style="display:inline" sodipodi:insensitive="true" >
  <use xlink:href="#grass" height="100%" width="100%" x="0" y="0" style="display:inline;fill:#b4e982;fill-opacity:1;stroke:none;stroke-width:1;stroke-miterlimit:4;stroke-dasharray:none;stroke-opacity:1" />
</g>
<g inkscape:groupmode="layer" id="grass_texture1_layer" inkscape:label="Grass Texture Big" style="display:inline" sodipodi:insensitive="true" >
  <use xlink:href="#grass" height="100%" width="100%" x="0" y="0" style="display:inline;fill:#a7e46a;fill-opacity:1;stroke:none;stroke-width:1;stroke-miterlimit:4;stroke-dasharray:none;stroke-opacity:1;filter:url(#textureGrassBig)" />
</g>
<g inkscape:groupmode="layer" id="grass_texture2_layer" inkscape:label="Grass Texture Small" style="display:inline" sodipodi:insensitive="true" >
  <use xlink:href="#grass" height="100%" width="100%" x="0" y="0" style="display:inline;fill:#8cdd3d;fill-opacity:1;stroke:none;stroke-width:1;stroke-miterlimit:4;stroke-dasharray:none;stroke-opacity:1;filter:url(#textureGrassSmall)" />
</g>
<g inkscape:groupmode="layer" id="grass_master_layer" inkscape:label="Grass Master" style="display:none" sodipodi:insensitive="true" >
  <path id="grass" style="color:#000000;clip-rule:nonzero;display:inline;overflow:visible;visibility:visible;opacity:1;isolation:auto;mix-blend-mode:normal;color-interpolation:sRGB;color-interpolation-filters:linearRGB;solid-color:#000000;solid-opacity:1;fill-opacity:1;fill-rule:evenodd;filter:url(#blurGrass);color-rendering:auto;image-rendering:auto;shape-rendering:auto;text-rendering:auto;enable-background:accumulate" d="m -11.25,236.25 0,112.5 270,0 0,-112.5 -22.5,0 -16.875,0 -14.875,4.625 -15.875,10.125 -19.5,4.625 -17,3.5 -18.125,-2.5 -13.75,1 -19.375,0.5 -5.25,-5 -12.375,7 L 60.875,255.25 45,247.5 37.75,241.875 26,239.75 11.25,236.25 Z" inkscape:connector-curvature="0" />
</g>
<g inkscape:groupmode="layer" id="forest_shadow_layer" inkscape:label="Forest Shadow" style="display:inline" sodipodi:insensitive="true" >
  <g style="filter:url(#blurForestShadow)" >
    <use xlink:href="#forest" height="100%" width="100%" x="0" y="0" style="display:inline;opacity:0.75;fill:#258c1b;fill-opacity:1;filter:url(#roughenForest)" />
  </g>
</g>
<g inkscape:groupmode="layer" id="forest_fill_layer" inkscape:label="Forest Fill" style="display:inline" sodipodi:insensitive="true" >
  <use xlink:href="#forest" height="100%" width="100%" x="0" y="0" style="fill:#83d700;fill-opacity:1;stroke:none;stroke-width:1.5;stroke-miterlimit:4;stroke-dasharray:none;stroke-opacity:1;filter:url(#roughenForest)" />
</g>
<g inkscape:groupmode="layer" id="forest_texture_big_layer" inkscape:label="Forest Texture Big" style="display:inline" sodipodi:insensitive="true" >
  <g style="filter:url(#textureForestBig)" >
    <use xlink:href="#forest" height="100%" width="100%" x="0" y="0" style="fill:#548c00;fill-opacity:1;stroke:none;stroke-width:1.5;stroke-miterlimit:4;stroke-dasharray:none;stroke-opacity:1;filter:url(#roughenForest)" />
  </g>
</g>
<g inkscape:groupmode="layer" id="forest_texture_small_layer" inkscape:label="Forest Texture Small" style="display:inline" sodipodi:insensitive="true" >
  <g style="filter:url(#textureForestSmall)" >
    <use xlink:href="#forest" height="100%" width="100%" x="0" y="0" style="fill:#78c125;fill-opacity:1;stroke:none;stroke-width:1;stroke-miterlimit:4;stroke-dasharray:none;stroke-opacity:1;filter:url(#roughenForest)" />
  </g>
</g>
<g inkscape:groupmode="layer" id="forest_outline_layer" inkscape:label="Forest Outline" style="display:inline" sodipodi:insensitive="true" >
  <use xlink:href="#forest" height="100%" width="100%" x="0" y="0" style="fill:none;fill-opacity:1;stroke:#006800;stroke-width:1.5;stroke-miterlimit:4;stroke-dasharray:none;stroke-opacity:1;filter:url(#roughenForest)" />
</g>
<g inkscape:groupmode="layer" id="forest_master_layer" inkscape:label="Forest Master" style="display:none" sodipodi:insensitive="true" >
  <path id="forest" style="color:#000000;clip-rule:nonzero;display:inline;overflow:visible;visibility:visible;opacity:1;isolation:auto;mix-blend-mode:normal;color-interpolation:sRGB;color-interpolation-filters:linearRGB;solid-color:#000000;solid-opacity:1;fill-opacity:1;fill-rule:nonzero;color-rendering:auto;image-rendering:auto;shape-rendering:auto;text-rendering:auto;enable-background:accumulate" d="m 245.5,256.25 c -2.41258,0.003 -4.65328,1.11543 -5.92969,2.94336 -0.5404,-0.19073 -1.10529,-0.32063 -1.68164,-0.38672 -1.15064,-0.68788 -2.50393,-1.0556 -3.88867,-1.05664 -1.78088,0.003 -3.49347,0.61216 -4.78906,1.70312 -0.99208,-0.45992 -2.0931,-0.70102 -3.21094,-0.70312 -3.86599,0 -7,2.79822 -7,6.25 0.003,0.46025 0.0636,0.91876 0.17969,1.36719 -2.80322,0.48059 -4.99882,2.43275 -5.54883,4.93359 -1.31647,-1.60072 -3.40662,-2.54756 -5.63086,-2.55078 -3.86599,0 -7,2.79822 -7,6.25 -9e-5,2.06301 1.14003,3.99316 3.04688,5.1582 0.36151,3.02057 3.10317,5.37163 6.49804,5.57227 -0.54313,0.78547 -0.88464,1.6686 -1,2.58594 -3.46087,0.42559 -6.04047,3.06436 -6.04492,6.18359 0.001,0.0886 0.005,0.17715 0.01,0.26562 -3.6667,0.22973 -6.50983,2.95249 -6.51,6.23438 0.002,1.23443 0.41296,2.44075 1.18164,3.4668 -2.16177,0.52155 -3.91359,1.93506 -4.71289,3.80273 -2.63195,0.17956 -4.92697,1.66577 -5.93555,3.84375 -1.07103,-0.56267 -2.29052,-0.86064 -3.5332,-0.86328 -0.62359,4.9e-4 -1.24432,0.0754 -1.8457,0.22266 0.55406,-0.91279 0.84471,-1.93444 0.8457,-2.97266 0,-3.45178 -3.13401,-6.25 -7,-6.25 -3.86599,0 -7,2.79822 -7,6.25 0.003,0.8696 0.20923,1.72906 0.60547,2.52344 -0.73352,0.79128 -1.23731,1.73177 -1.4668,2.73828 -3.71913,0.17164 -6.63665,2.91319 -6.63867,6.23828 0.003,1.29313 0.4557,2.55351 1.29492,3.60742 -0.59755,-0.18899 -1.22109,-0.30463 -1.85351,-0.34375 0.037,-0.25325 0.0566,-0.50828 0.0586,-0.76367 0,-3.45178 -3.13401,-6.25 -7,-6.25 -1.07909,0.001 -2.14326,0.22513 -3.10938,0.6543 -0.5947,-2.98187 -3.4984,-5.15388 -6.89062,-5.1543 -3.78495,0.003 -6.88141,2.69229 -6.99023,6.07031 -3.44528,0.43957 -6.00562,3.0723 -6.00977,6.17969 0.001,0.17149 0.0103,0.34285 0.0273,0.51367 -0.0162,0.16173 -0.0253,0.32396 -0.0273,0.48633 0.003,0.24756 0.0227,0.49474 0.0586,0.74023 -0.0368,0.25196 -0.0564,0.50569 -0.0586,0.75977 0.003,0.50585 0.0742,1.00953 0.21289,1.5 -0.13869,0.49047 -0.21018,0.99415 -0.21289,1.5 0.002,0.41472 0.0506,0.82822 0.14453,1.23438 -0.0963,0.41639 -0.14469,0.84046 -0.14453,1.26562 -3.8e-4,0.98491 0.25996,1.95597 0.75977,2.83398 -0.17027,0.54235 -0.25766,1.10277 -0.25977,1.66602 0,3.45178 3.13401,6.25 7,6.25 2.30218,2e-5 4.45718,-1.01066 5.76367,-2.70312 0.56697,0.13233 1.15031,0.20057 1.73633,0.20312 1.49531,-0.002 2.95048,-0.43222 4.15234,-1.22656 1.32801,1.40949 3.28473,2.22419 5.34766,2.22656 0.62566,-6.5e-4 1.24839,-0.0762 1.85156,-0.22461 1.20105,0.79294 2.65471,1.22206 4.14844,1.22461 0.93505,-0.002 1.86016,-0.17145 2.7207,-0.49805 1.12671,0.64899 2.43848,0.99541 3.7793,0.99805 0.58929,-0.002 1.17596,-0.0701 1.74609,-0.20312 1.30453,1.68992 3.45518,2.70027 5.75391,2.70312 2.99403,-0.003 5.6545,-1.70564 6.61914,-4.23633 0.61202,0.15471 1.24479,0.23422 1.88086,0.23633 2.43525,-0.003 4.69352,-1.1366 5.96289,-2.99219 1.11595,0.84686 2.50128,1.35987 3.96094,1.4668 1.27077,0.98258 2.89512,1.52403 4.57617,1.52539 0.0977,-0.002 0.1954,-0.005 0.29297,-0.01 0.069,0.004 0.13797,0.008 0.20703,0.01 3.27571,-0.002 6.11166,-2.03241 6.82617,-4.88672 0.91202,2.60722 3.61463,4.38365 6.67383,4.38672 2.16935,-0.003 4.21448,-0.90416 5.53711,-2.43945 1.25456,0.92911 2.83293,1.43819 4.46289,1.43945 1.90741,-0.003 3.73093,-0.70048 5.04883,-1.93164 1.25266,0.92401 2.82632,1.43015 4.45117,1.43164 1.01221,-0.003 2.01174,-0.20118 2.92969,-0.58203 0.35389,0.0518 0.71171,0.0792 1.07031,0.082 0.54898,-0.003 1.09571,-0.063 1.62891,-0.17969 1.13038,2.23701 3.62245,3.67633 6.37109,3.67969 3.86599,0 7,-2.79822 7,-6.25 9e-5,-2.06301 -1.14003,-3.99316 -3.04688,-5.1582 -0.14664,-1.23191 -0.70001,-2.39712 -1.58984,-3.34766 1.36521,-1.17743 2.13637,-2.79939 2.13672,-4.49414 -0.001,-1.00532 -0.27378,-1.99557 -0.79492,-2.88672 0.84051,-1.05554 1.293,-2.31815 1.29492,-3.61328 -0.003,-1.09721 -0.32996,-2.17432 -0.94727,-3.12305 1.3496,-0.71112 2.39291,-1.80602 2.96289,-3.10937 1.57301,-1.18571 2.48171,-2.92953 2.48438,-4.76758 1.3e-4,-2.05931 -1.13588,-3.98651 -3.03711,-5.15234 2.72846,-0.91568 4.53584,-3.24513 4.53711,-5.84766 -0.004,-2.41 -1.55966,-4.60319 -3.99805,-5.63672 1.27833,-1.16583 1.99541,-2.73176 1.99805,-4.36328 -0.004,-2.64149 -1.86688,-4.9957 -4.6543,-5.88086 0.42792,-0.82045 0.65117,-1.71409 0.6543,-2.61914 -0.003,-2.13332 -1.22481,-4.11784 -3.24023,-5.26367 1.52622,-0.58669 2.76892,-1.63901 3.50585,-2.96875 2.0145,-1.14781 3.23398,-3.13389 3.23438,-5.26758 0,-3.45178 -3.13401,-6.25 -7,-6.25 z m -236,3.5 c -0.9659347,0.002 -1.9208576,0.18329 -2.8046875,0.53125 C 6.4642656,260.26054 6.2322079,260.25011 6,260.25 c -0.7651146,0.003 -1.5245353,0.11763 -2.2480469,0.33984 C 3.0272011,260.36725 2.2664263,260.25244 1.5,260.25 c -0.59264985,0.002 -1.18265613,0.0706 -1.75585938,0.20508 C -0.82526734,260.32151 -1.4112741,260.2526 -2,260.25 c -3.8659932,0 -7,2.79822 -7,6.25 0.00353,2.44109 1.5984805,4.65694 4.0839844,5.67383 -0.7051159,0.99538 -1.080879,2.1484 -1.0839844,3.32617 8.152e-4,1.64488 0.7278515,3.22317 2.0234375,4.39258 0.05733,0.0602 0.1159341,0.11948 0.1757813,0.17773 C -5.503519,281.25418 -6.4994682,283.07312 -6.5,285 c 0.00166,0.0593 0.00426,0.11852 0.00781,0.17773 C -6.8255232,285.91589 -6.9978813,286.7041 -7,287.5 c 0.00206,1.13537 0.3504713,2.24879 1.0078125,3.2207 0.021056,0.51806 0.114219,1.03178 0.2773437,1.5293 C -5.9023122,292.81832 -5.9983252,293.40755 -6,294 c 0.00108,0.95574 0.2476331,1.89852 0.7207031,2.75586 C -5.7504167,297.60964 -5.9969187,298.54822 -6,299.5 c 9.357e-4,1.61099 0.6985397,3.15943 1.9472656,4.32227 C -4.3457871,304.51863 -4.4972517,305.25611 -4.5,306 c 0.00272,1.69203 0.7736864,3.31078 2.1367188,4.48633 C -3.4198508,311.61108 -3.9992843,313.03201 -4,314.5 c 0.00246,1.35402 0.4973271,2.6707 1.4101562,3.75195 C -3.5017764,319.33213 -3.9965988,320.64732 -4,322 c 0.00294,0.85951 0.2043995,1.70924 0.5917969,2.49609 C -3.7967806,325.28535 -3.9982691,326.13785 -4,327 c 0.00167,0.59245 0.097688,1.18168 0.2851562,1.75 -0.1874684,0.56832 -0.2834814,1.15755 -0.2851562,1.75 0.00333,0.67923 0.1306553,1.35344 0.3769531,1.99609 C -3.870285,333.14123 -3.9976185,333.81814 -4,334.5 c 0,3.45178 3.13400675,6.25 7,6.25 0.5014221,-0.003 1.0010345,-0.0541 1.4902344,-0.15234 0.495574,0.0995 1.0018104,0.15062 1.5097656,0.15234 1.4296702,-0.002 2.8242107,-0.39576 3.9960938,-1.12695 1.1740692,0.73255 2.5715692,1.1259 4.0039062,1.12695 2.764456,-0.002 5.268429,-1.45714 6.390625,-3.71289 1.233431,1.98073 3.571122,3.21011 6.109375,3.21289 1.089197,-4.5e-4 2.163249,-0.22783 3.136719,-0.66406 1.134389,2.22861 3.621554,3.66075 6.363281,3.66406 3.865993,0 7,-2.79822 7,-6.25 -0.0027,-0.22523 -0.01897,-0.45017 -0.04883,-0.67383 0.892918,0.82788 2.024224,1.41989 3.269531,1.71094 0.787195,2.77008 3.578502,4.71056 6.779299,4.71289 2.928159,-0.003 5.544721,-1.63323 6.558594,-4.08594 1.161823,0.70722 2.535266,1.08563 3.941406,1.08594 1.1098,-4e-5 2.203684,-0.23569 3.191406,-0.6875 0.62297,0.64798 1.388057,1.1751 2.248047,1.54883 1.246242,1.93857 3.557109,3.13533 6.060547,3.13867 2.143438,-0.003 4.167277,-0.88233 5.492188,-2.38672 1.316495,1.2055 3.122053,1.88575 5.007812,1.88672 1.400353,-0.002 2.767864,-0.37887 3.925781,-1.08203 0.355179,0.052 0.714317,0.0794 1.074219,0.082 1.697667,-0.002 3.336487,-0.55566 4.611328,-1.55664 0.294576,0.0357 0.591401,0.0546 0.888672,0.0566 0.708448,-0.002 1.412431,-0.10024 2.087891,-0.29102 0.529264,3.04335 3.462709,5.28882 6.912109,5.29102 0.76512,-0.003 1.52454,-0.11763 2.24805,-0.33984 0.72475,0.22259 1.48552,0.3374 2.25195,0.33984 3.51743,-0.003 6.48598,-2.33636 6.93555,-5.45117 0.69273,-0.98934 1.06146,-2.13206 1.06445,-3.29883 -1.2e-4,-1.20131 -0.38799,-2.37714 -1.11719,-3.38672 0.0762,-0.36722 0.11546,-0.73981 0.11719,-1.11328 -0.001,-0.7993 -0.1744,-1.59094 -0.50977,-2.33203 0.004,-0.056 0.007,-0.11194 0.01,-0.16797 -0.001,-0.80215 -0.17586,-1.59655 -0.51367,-2.33984 -0.0101,-0.13386 -0.0251,-0.26739 -0.0449,-0.40039 0.0368,-0.25196 0.0564,-0.50569 0.0586,-0.75977 0,-3.45178 -3.13401,-6.25 -7,-6.25 -0.10298,0.003 -0.20587,0.008 -0.30859,0.0156 2.6075,-0.96969 4.30677,-3.2436 4.30856,-5.7656 0,-3.45178 -3.13401,-6.25 -7,-6.25 -0.63033,1.9e-4 -1.25775,0.0764 -1.86523,0.22656 0.23998,-0.63703 0.36331,-1.30446 0.36523,-1.97656 -0.002,-2.94459 -2.30497,-5.48876 -5.529297,-6.10742 1.297733,-1.16856 2.026927,-2.74695 2.029297,-4.39258 0,-3.45178 -3.134007,-6.25 -7,-6.25 -0.419298,0.001 -0.837647,0.0357 -1.25,0.10352 -0.831085,-2.71727 -3.59522,-4.60242 -6.75,-4.60352 -3.865993,0 -7,2.79822 -7,6.25 0.002,1.87291 0.944607,3.64631 2.568359,4.83203 C 78.591109,297.35213 77.003276,299.56427 77,302 c 0.0037,2.83115 2.138487,5.30646 5.203125,6.0332 -0.132445,0.48004 -0.20063,0.97241 -0.203125,1.4668 0.0027,0.25542 0.02291,0.51046 0.06055,0.76367 -3.687492,0.2071 -6.559754,2.93742 -6.560547,6.23633 0.0011,1.6064 0.694953,3.15073 1.9375,4.3125 -0.310578,-0.0396 -0.623784,-0.0605 -0.9375,-0.0625 -1.42967,0.002 -2.824211,0.39576 -3.996094,1.12695 C 71.329837,321.1444 69.932337,320.75105 68.5,320.75 c -0.336145,0.003 -0.671648,0.0267 -1.003906,0.0723 -0.329679,-0.0453 -0.662558,-0.0694 -0.996094,-0.0723 -2.023956,0.002 -3.947803,0.78636 -5.275391,2.15039 -1.288331,-1.05826 -2.97401,-1.6471 -4.724609,-1.65039 -2.413707,0.003 -4.655393,1.11611 -5.931641,2.94531 -1.31997,-1.24057 -3.151888,-1.94369 -5.068359,-1.94531 -1.38408,0.001 -2.736635,0.36909 -3.886719,1.05664 -0.241775,-0.18663 -0.497582,-0.35825 -0.765625,-0.51367 0.04702,-0.20142 0.08287,-0.4048 0.107422,-0.60938 1.674701,-0.20608 3.209297,-0.94632 4.320313,-2.08398 1.288331,1.05826 2.97401,1.6471 4.724609,1.65039 3.865993,0 7,-2.79822 7,-6.25 0,-3.45178 -3.134007,-6.25 -7,-6.25 -2.023956,0.002 -3.947803,0.78636 -5.275391,2.15039 C 43.436278,310.34213 41.750599,309.75329 40,309.75 c -0.913555,0.002 -1.817928,0.16282 -2.662109,0.47461 1.97258,-1.15464 3.161251,-3.11863 3.162109,-5.22461 0,-3.45178 -3.134007,-6.25 -7,-6.25 -2.288628,0.001 -4.432139,1.00099 -5.740234,2.67773 C 27.57761,301.27684 27.386584,301.13471 27.1875,301.00195 28.955467,299.82354 29.99774,297.96989 30,296 c 0,-3.45178 -3.134007,-6.25 -7,-6.25 -1.424735,0.002 -2.814757,0.39275 -3.984375,1.11914 -0.638969,-0.27253 -1.320554,-0.45692 -2.021484,-0.54687 0.240243,-0.53422 0.39667,-1.09552 0.464843,-1.66797 1.305227,-1.16974 2.038987,-2.75312 2.041016,-4.4043 -0.0053,-1.6499 -0.7411,-3.23099 -2.046875,-4.39844 C 20.186926,278.93824 21.999027,276.60617 22,274 c -0.0043,-2.61515 -1.831698,-4.95141 -4.580078,-5.85547 -0.03162,-0.21677 -0.07595,-0.43191 -0.132813,-0.64453 0.138689,-0.49047 0.210176,-0.99415 0.212891,-1.5 0,-3.45178 -3.134007,-6.25 -7,-6.25 -0.180582,9.3e-4 -0.361055,0.008 -0.5410156,0.0215 C 9.8062944,259.75985 9.6532171,259.75268 9.5,259.75 Z m 218.80859,11.14258 c 0.46178,0.78907 1.10704,1.48094 1.89258,2.0293 -1.09591,1.13352 -1.69959,2.58068 -1.70117,4.07812 0.002,0.8257 0.18719,1.64287 0.54492,2.4043 -1.04103,-0.6574 -2.2634,-1.04842 -3.53515,-1.13086 1.57694,-1.18604 2.48804,-2.93249 2.49023,-4.77344 -0.002,-0.82284 -0.18575,-1.63724 -0.54102,-2.39648 0.28789,-0.0543 0.57165,-0.12475 0.84961,-0.21094 z m -10.32421,8.23828 c 0.78644,0.33618 1.6363,0.53821 2.50585,0.5957 -1.11164,0.83864 -1.90289,1.96577 -2.26367,3.22461 -0.41668,-0.0953 -0.8423,-0.1561 -1.27148,-0.18164 0.68001,-0.98269 1.0417,-2.11441 1.04492,-3.26953 -0.001,-0.12316 -0.006,-0.24626 -0.0156,-0.36914 z m 11.13281,10.41406 c 0.36557,0.73204 0.88543,1.39446 1.53125,1.95117 -1.37226,1.17802 -2.14799,2.80423 -2.14844,4.50391 8.6e-4,2.29935 1.41569,4.41258 3.68359,5.50195 -2.26652,1.0887 -3.68112,3.2001 -3.68359,5.49805 0.001,0.0312 0.002,0.0625 0.004,0.0937 l -0.01,0.006 c 0.002,-0.0332 0.004,-0.0664 0.006,-0.0997 -0.001,-0.75209 -0.15498,-1.49776 -0.45312,-2.20117 0.93904,-1.08916 1.44977,-2.42434 1.45312,-3.79883 -0.003,-1.68032 -0.76292,-3.28892 -2.10938,-4.46289 C 227.7903,295.73878 227.9979,294.87445 228,294 c -0.002,-1.23443 -0.41296,-2.44075 -1.18164,-3.4668 0.82761,-0.2009 1.60683,-0.53589 2.29883,-0.98828 z m 13.03515,8.38672 c 0.49747,0.67718 1.13759,1.26158 1.88477,1.7207 -0.1372,0.0476 -0.27268,0.0991 -0.40625,0.1543 -1.64553,0.1848 -3.16413,0.88526 -4.28516,1.97656 -0.17164,-0.10196 -0.34824,-0.19711 -0.52929,-0.28515 1.58399,-0.76185 2.77861,-2.039 3.33593,-3.56641 z m -26.16015,0.43164 c 0.0386,0.033 0.0777,0.0655 0.11719,0.0977 -0.39997,0.79892 -0.60758,1.66392 -0.60938,2.53902 0.001,0.75209 0.15498,1.49776 0.45312,2.20117 -0.93904,1.08916 -1.44977,2.42434 -1.45312,3.79883 0.001,0.17344 0.0101,0.34677 0.0273,0.51953 -0.65729,-0.17817 -1.34038,-0.26899 -2.0273,-0.26953 -0.59938,0.002 -1.19605,0.0717 -1.77539,0.20898 C 209.729,306.99513 208.623,306.75196 207.5,306.75 c -0.31176,0.002 -0.623,0.0232 -0.93164,0.0625 2.67355,-0.94151 4.4309,-3.24644 4.43164,-5.8125 -0.001,-0.0886 -0.005,-0.17715 -0.01,-0.26562 1.96695,-0.12601 3.78314,-0.98694 5.00196,-2.3711 z m -125.000002,3.46484 c 0.337104,0.11688 0.683845,0.21026 1.037109,0.2793 -0.455377,0.40907 -0.845143,0.87246 -1.158203,1.37696 -0.0247,-0.006 -0.04944,-0.0118 -0.07422,-0.0176 C 90.929318,302.98675 90.997503,302.49438 91,302 c -0.0017,-0.0573 -0.0043,-0.11462 -0.0078,-0.17188 z m -62.251954,7.74415 c 1.292581,1.07555 2.992889,1.67488 4.759766,1.67773 0.913555,-0.002 1.817928,-0.16282 2.662109,-0.47461 -1.745563,1.02285 -2.888622,2.68802 -3.117187,4.54102 -0.36162,0.044 -0.718829,0.11326 -1.06836,0.20703 -0.1945,-2.23139 -1.710504,-4.19959 -3.974609,-5.16016 0.270042,-0.24509 0.516973,-0.50966 0.738281,-0.79101 z m -10.492187,1.00585 c 0.519955,0.42992 1.110014,0.78686 1.75,1.0586 -0.65185,0.59558 -1.163827,1.30145 -1.505859,2.07617 -0.164379,-0.12482 -0.335135,-0.24278 -0.511719,-0.35351 0.01037,-0.1196 0.01689,-0.23944 0.01953,-0.35938 -0.0033,-0.66817 -0.12664,-1.33154 -0.365234,-1.96484 0.214004,-0.1418 0.418765,-0.29439 0.613281,-0.45704 z m 76.880859,1.9375 c 0.163146,0.0424 0.327968,0.0796 0.494141,0.11133 -0.262773,0.0832 -0.519741,0.18042 -0.769531,0.29102 0.09743,-0.13098 0.189294,-0.26519 0.27539,-0.40235 z m -2.982422,2.56641 C 91.400474,316.09769 91.002076,317.28541 91,318.5 c 0.0027,0.49373 0.07085,0.98544 0.203125,1.46484 -0.954172,0.80345 -1.636341,1.83009 -1.96875,2.96289 -0.554805,-0.70911 -1.268425,-1.30767 -2.095703,-1.75781 1.498419,-1.1838 2.357871,-2.88351 2.361328,-4.66992 -0.0027,-0.25542 -0.02291,-0.51046 -0.06055,-0.76367 0.942538,-0.0528 1.863359,-0.27539 2.707034,-0.6543 z m 127.025396,0.30469 c 0.58954,0.18634 1.20438,0.30129 1.82812,0.3418 -0.87307,0.65363 -1.55424,1.48766 -1.98438,2.42968 -0.24348,0.0844 -0.48149,0.18091 -0.71289,0.28907 0.12877,-0.4739 0.19497,-0.95963 0.19727,-1.44727 -0.002,-0.0932 -0.005,-0.18629 -0.0117,-0.2793 0.28573,-0.41916 0.51517,-0.8669 0.6836,-1.33398 z m -15.51758,2.83008 c 0.35869,0.2124 0.73855,0.39481 1.13476,0.54492 0.12309,0.3781 0.28593,0.74496 0.48633,1.0957 -0.42056,-0.0705 -0.84748,-0.10649 -1.27539,-0.10742 -2.14593,0.003 -4.17165,0.88503 -5.49609,2.39258 -0.6309,-0.71412 -1.42876,-1.29669 -2.33789,-1.70703 0.30739,-0.0881 0.60759,-0.19518 0.89843,-0.32032 0.47204,0.089 0.95311,0.13414 1.43555,0.13477 1.96124,-0.003 3.83107,-0.7407 5.1543,-2.0332 z m -13.1875,1.66992 c 0.11972,0.0631 0.24152,0.12305 0.36523,0.17969 -0.18768,0.0535 -0.37274,0.11415 -0.55469,0.18164 0.0674,-0.11861 0.13063,-0.23912 0.18946,-0.36133 z m -12.5,0.76758 c 0.34271,0.52151 0.76837,0.99585 1.26367,1.4082 -0.71217,0.48891 -1.31228,1.09566 -1.76758,1.78711 -0.82389,-0.50348 -1.75887,-0.84378 -2.74219,-0.99805 0.2954,-0.50898 0.51096,-1.05183 0.64063,-1.61328 0.90257,-0.0426 1.78735,-0.24096 2.60547,-0.58398 z m -73.41797,0.0312 c 0.31505,0.0408 0.63284,0.0623 0.95117,0.0645 0.0997,-0.001 0.19931,-0.005 0.29883,-0.01 -0.30862,0.1155 -0.60756,0.25062 -0.89453,0.4043 -0.11163,-0.15502 -0.23089,-0.30556 -0.35742,-0.45117 l 0.002,-0.008 z m 125.50976,4.54883 c -0.0371,0.25391 -0.0567,0.50962 -0.0586,0.76567 0.001,0.0677 0.004,0.13546 0.008,0.20312 -0.10449,-0.23213 -0.2245,-0.45845 -0.35937,-0.67773 0.14074,-0.0924 0.27755,-0.18947 0.41015,-0.29101 z m -139.792965,2.83789 c 0.427263,0.5458 0.949473,1.02713 1.546875,1.42578 -0.145724,0.0979 -0.287108,0.20084 -0.423828,0.30859 C 91.094094,329.7709 90.797269,329.752 90.5,329.75 c -0.36376,0.001 -0.72684,0.0283 -1.085938,0.0801 0.383314,-0.5434 0.670539,-1.13629 0.851563,-1.75781 z m 11.673825,2.09375 c 0.0238,0.0583 0.0485,0.11621 0.0742,0.17382 0.0304,0.48799 0.12479,0.97111 0.28125,1.43946 -0.27094,-0.49662 -0.61443,-0.95899 -1.02148,-1.375 0.22642,-0.0692 0.44871,-0.14874 0.66601,-0.23828 z m 104.17578,1.7832 c -0.19125,0.38165 -0.33912,0.77948 -0.4414,1.1875 -0.11678,-0.33948 -0.26576,-0.66945 -0.44531,-0.98633 0.30017,-0.0497 0.59637,-0.11692 0.88671,-0.20117 z m -125.630855,0.18164 c 0.136617,0.0594 0.275363,0.11473 0.416016,0.16602 -0.325989,0.25469 -0.624797,0.53584 -0.892579,0.83984 -0.182157,-0.16568 -0.374512,-0.32218 -0.576171,-0.46875 0.36765,-0.15151 0.719882,-0.33122 1.052734,-0.53711 z" inkscape:connector-curvature="0" />
</g>
<g inkscape:groupmode="layer" id="routes_layer" inkscape:label="Routes" style="display:inline" sodipodi:insensitive="true" >
  <path style="display:inline;fill:none;stroke:#000000;stroke-width:2;stroke-linecap:round;stroke-miterlimit:4;stroke-dasharray:0.1, 5;stroke-dashoffset:0;stroke-opacity:1" d="m 123.75,0 0,11.25 c 0,3.75 -9.38178,51.497812 -22.02082,86.529067 C 87.472972,137.29259 85.162268,200.54638 89.798468,243.97108 126.49231,202.78854 100.64478,183.11601 116.93387,148.2561 c 9.61994,-20.58742 23.42264,-30.48673 44.81613,-28.1311 16.34701,1.79996 23.5,25.09924 42.88173,15.58515 C 215.92262,130.16769 224.24414,118.125 236.25,118.125 l 11.25,0 M 123.75,337.5 l 0,-11.25 c 0,-5.625 -3.99958,-30.51501 -7.74806,-44.05585 C 113.0877,271.66686 99.286183,255.25654 89.229185,248.07969 63.450923,229.68386 61.110412,199.32839 67.462844,180.29679 71.686708,167.64229 85.062154,137.09925 63.69545,119.30172 48.725036,106.83202 22.885407,118.125 11.25,118.125 l -11.25,0" inkscape:connector-curvature="0" />
</g>
<g inkscape:groupmode="layer" id="labels_layer" inkscape:label="Labels" style="display:inline" sodipodi:insensitive="true" >
  <text xml:space="preserve"><textPath xlink:href="#queensport"><tspan
  style="-inkscape-font-specification:'CCTreasureTroveAged Mod, Normal';font-family:'CCTreasureTroveAged Mod';font-weight:normal;font-style:normal;font-stretch:normal;font-variant:normal;font-size:8.75px;text-anchor:start;text-align:start;writing-mode:lr;line-height:125%"
  >Queensport</tspan></textPath></text>
</g>
<g inkscape:groupmode="layer" id="labels_guide_layer" inkscape:label="Labels Guide" style="display:none" sodipodi:insensitive="true" >
  <path id="queensport" style="color:#000000;fill:none;stroke:#000000;stroke-width:1;stroke-opacity:1" d="m 165.52863,223.58781 c -14,-2.75 -41.00368,-1.6198 -57.20038,3.73896" inkscape:connector-curvature="0" />
</g>
<g inkscape:groupmode="layer" id="resources_layer" inkscape:label="Resources" style="display:inline" sodipodi:insensitive="true" >
  <g id="resource-turtle" transform="matrix(0.79312266,-0.60906193,0.60906193,0.79312266,158.74849,333.88963)" >
    <circle cx="0.060593" cy="-110.109990" r="19.000000" style="opacity:1;fill:#ffffff;fill-opacity:1;stroke:#000000;stroke-width:0.89999998;stroke-linecap:round;stroke-linejoin:round;stroke-miterlimit:4;stroke-dasharray:none;stroke-dashoffset:0;stroke-opacity:1" />
    <g >
      <path style="fill:#acf398;fill-opacity:1;fill-rule:evenodd;stroke:#000000;stroke-width:0.89999998;stroke-linecap:round;stroke-linejoin:miter;stroke-miterlimit:4;stroke-dasharray:none;stroke-opacity:1" d="m -13.200987,-100.29637 c 0.383554,0.976603 3.233916,-2.12106 6.131249,-1.42702 1.332863,0.31928 0.882122,-3.09205 -0.399356,-3.57815 -2.371651,-0.89961 -6.659154,2.64419 -5.731893,5.00517 z" inkscape:connector-curvature="0" />
      <path style="fill:#acf398;fill-opacity:1;fill-rule:evenodd;stroke:#000000;stroke-width:0.89999998;stroke-linecap:round;stroke-linejoin:miter;stroke-miterlimit:4;stroke-dasharray:none;stroke-opacity:1" d="m 0.519205,-98.947277 c -1.160888,-0.35295 2.907731,-2.472353 3.949394,-1.850123 1.642844,0.981343 2.297204,4.963396 0.372373,6.157721 -0.745218,0.462395 -0.785725,-3.232509 -4.321767,-4.307598 z" inkscape:connector-curvature="0" />
      <path style="fill:#acf398;fill-opacity:1;fill-rule:evenodd;stroke:#000000;stroke-width:0.89999998;stroke-linecap:round;stroke-linejoin:miter;stroke-miterlimit:4;stroke-dasharray:none;stroke-opacity:1" d="m 7.618715,-114.43269 c 1.934345,-0.44611 4.329746,-0.0993 5.914203,1.00302 2.013049,1.40054 2.917028,5.29708 1.897177,7.52728 -0.282844,0.61852 -3.514643,-5.32749 -6.150465,-4.42389 -1.839455,0.63059 -2.536626,0.15372 -3.169919,-1.68481 -0.27477,-0.79769 0.686895,-2.232 1.509004,-2.4216 z" inkscape:connector-curvature="0" />
      <path style="fill:#acf398;fill-opacity:1;fill-rule:evenodd;stroke:#000000;stroke-width:0.89999998;stroke-linecap:round;stroke-linejoin:miter;stroke-miterlimit:4;stroke-dasharray:none;stroke-opacity:1" d="m -13.605402,-118.51893 c 1.434388,-2.65109 5.159923,-3.50053 7.13722,-3.29637 1.742717,0.17994 3.474416,1.88524 3.953288,3.57051 0.312727,1.10056 -0.218032,2.84568 -1.315095,3.17046 -1.558665,0.46144 -1.358953,-1.39147 -2.644475,-2.38636 -2.809563,-2.17437 -7.671044,-0.06 -7.130938,-1.05824 z" inkscape:connector-curvature="0" />
      <path style="fill:#acf398;fill-opacity:1;fill-rule:evenodd;stroke:#000000;stroke-width:0.89999998;stroke-linecap:round;stroke-linejoin:miter;stroke-miterlimit:4;stroke-dasharray:none;stroke-opacity:1" d="m 1.574508,-116.64822 c -0.973346,-1.40454 -0.400278,-3.52894 -0.15625,-5.22027 0.277861,-1.92582 2.436935,-3.39132 3.77573,-3.50612 0.998071,-0.0856 1.511263,0.0552 2.026651,0.91421 0.545706,0.90951 1.17564,3.12771 0.125,4.74448 -0.918312,1.41314 -1.826689,3.21256 -3.442704,3.69086 -0.965518,0.28577 -1.75489,0.20445 -2.328427,-0.62316 z" inkscape:connector-curvature="0" />
      <path style="fill:#acf398;fill-opacity:1;fill-rule:evenodd;stroke:#000000;stroke-width:0.89999998;stroke-linecap:round;stroke-linejoin:miter;stroke-miterlimit:4;stroke-dasharray:none;stroke-opacity:1" d="m -4.37156,-100.05265 c -1.568711,0.833903 -1.519982,4.156989 -0.84283,4.365801 0.803045,0.247633 2.774585,-2.210096 2.390927,-3.815868 -0.20218,-0.846213 -0.779871,-0.958313 -1.548097,-0.549933 z" inkscape:connector-curvature="0" />
      <path style="fill:#acf398;fill-opacity:1;fill-rule:evenodd;stroke:#000000;stroke-width:0.89999998;stroke-linecap:round;stroke-linejoin:miter;stroke-miterlimit:4;stroke-dasharray:none;stroke-opacity:1" d="m -7.212243,-116.3836 c 1.293667,-1.65845 3.629584,-2.72772 5.073491,-2.91682 3.87448,-0.50741 7.329249,0.88026 10.076271,3.65928 1.485686,1.503 2.189594,3.9511 1.909189,6.04576 -0.610927,4.56371 -3.547497,9.21538 -7.477655,11.614241 -1.864758,1.138194 -4.454815,1.340084 -6.523059,0.636396 -2.202234,-0.749276 -4.339874,-2.571424 -5.09117,-4.772977 -1.613498,-4.72808 -1.039758,-10.32676 2.032933,-14.26588 z" inkscape:connector-curvature="0" />
      <path style="color:#000000;clip-rule:nonzero;display:inline;overflow:visible;visibility:visible;opacity:1;isolation:auto;mix-blend-mode:normal;color-interpolation:sRGB;color-interpolation-filters:linearRGB;solid-color:#000000;solid-opacity:1;fill:none;fill-opacity:1;fill-rule:evenodd;stroke:#000000;stroke-width:0.63;stroke-linecap:butt;stroke-linejoin:miter;stroke-miterlimit:4;stroke-dasharray:none;stroke-dashoffset:0;stroke-opacity:1;color-rendering:auto;image-rendering:auto;shape-rendering:auto;text-rendering:auto;enable-background:accumulate" d="m -2.061438,-117.34644 -0.59283,-1.87446 m 9.785218,5.41 1.414213,-0.83969 m -3.270369,-3.0494 -0.883883,1.45841 m -3.005204,-2.91681 -0.322303,1.63785 m -4.980998,18.116938 -0.637024,1.851254 m 3.244481,-1.320924 0.145526,1.908392 m -5.139468,-3.85294 -1.276269,1.089694 m 0.0491,-3.679294 -1.793656,0.57452 m 1.06066,-3.30874 -1.531171,0.15311 m 1.679379,-3.00521 -1.861517,-0.2134 m 2.347653,-2.30567 -1.656171,-0.60309 m 2.761025,-2.09275 -1.312881,-0.89415 m 3.166356,-0.9571 -1.315562,-1.55438 m 7.32865,17.857125 0.826745,1.744559 m 1.382964,-3.026194 1.087008,1.317787 m 0.636565,-3.615877 1.440561,1.09413 m 0.238817,-3.48062 1.396368,0.61558 m -0.582567,-3.29357 1.567783,0.29327 m -1.419575,-3.1217 1.723572,-0.18483 m -10.817309,9.66873 0.486136,2.607453 m -4.02167,-3.756503 -1.59099,1.28163 m 5.833631,-13.21406 -0.309359,-2.38648 m 4.507806,3.7565 1.856155,-1.59099 m -10.69499,9.8553 -2.740039,-0.13258 m 3.447145,-3.88908 -3.18198,-1.23745 m 4.861359,-3.22617 -2.607456,-1.45841 m 6.452349,12.1534 2.209709,1.45841 m -0.04419,-5.03814 3.049398,1.19324 m -1.635185,-5.34749 2.872622,0.70711 m -9.766913,-0.83968 -0.486137,-2.78425 2.298097,-1.10485 4.021672,1.41421 0.839688,2.65165 -2.298097,1.19325 z m 4.507806,1.28162 0.928077,3.04939 -2.607455,1.28164 m -4.198448,-1.32583 -0.839689,-2.51907 2.298097,-1.76776 m -2.474873,7.95495 -0.574524,-2.34229 1.546796,-1.19324 4.154252,1.19324 0.530329,2.34229 -2.165513,1.19324 z m 3.310975,-14.48201 c -9.036509,1.02413 -9.686118,18.911215 0.316406,18.4082 7.293571,-1.28851 13.245425,-14.43065 4.082031,-17.65234 -1.373439,-0.61154 -2.89993,-0.86992 -4.398437,-0.75586 z" inkscape:connector-curvature="0" />
      <ellipse cx="-83.675232" cy="-91.031174" rx="0.393487" ry="0.537215" style="fill:#000000;fill-opacity:1;stroke:none" transform="matrix(0.71262218,0.70154802,-0.70154802,0.71262218,0,0)" />
      <ellipse cx="0.876442" cy="-122.849910" rx="0.393487" ry="0.537215" style="fill:#000000;fill-opacity:1;stroke:none" transform="matrix(0.99895236,0.04576232,-0.04576232,0.99895236,0,0)" />
    </g>
  </g>
</g>
<g inkscape:groupmode="layer" id="extras_layer" inkscape:label="Extras" style="display:inline" sodipodi:insensitive="true" >
  <g id="extra-ship" transform="matrix(0.4444171,-0.89581998,0.89581998,0.4444171,266.30938,417.60566)" >
    <path style="color:#000000;fill:url(#gradientShip);fill-opacity:1;fill-rule:evenodd;stroke:#000000;stroke-width:0.75;stroke-linecap:butt;stroke-linejoin:round;stroke-miterlimit:4;stroke-dasharray:none;stroke-dashoffset:0;stroke-opacity:1;marker:none;enable-background:accumulate" d="m 243.2364,-52.722824 c -3.10208,-2.937202 -8.72518,-3.346714 -12.49116,-3.032742 -2.95307,0.246202 -6.62512,1.070872 -6.62512,1.070872 l -0.0121,3.725952 c 0,0 2.43298,0.582421 6.39007,0.932887 3.66202,0.324334 9.61676,-0.283241 12.73834,-2.696969 z" inkscape:connector-curvature="0" />
    <path style="color:#000000;opacity:1;isolation:auto;mix-blend-mode:normal;color-interpolation:sRGB;color-interpolation-filters:linearRGB;solid-color:#000000;solid-opacity:1;fill:#000000;fill-opacity:1;fill-rule:evenodd;stroke:none;stroke-width:0.75;stroke-linecap:round;stroke-linejoin:round;stroke-miterlimit:4;stroke-dasharray:none;stroke-dashoffset:0;stroke-opacity:1;marker:none;color-rendering:auto;image-rendering:auto;shape-rendering:auto;text-rendering:auto;enable-background:accumulate" d="m 243.05273,-53.089844 c -0.50461,-0.01007 -0.51271,0.749303 -0.008,0.75 l 2.80546,-0.143551 c 0.50461,0.01007 0.51856,-0.385922 0.0138,-0.386619 z" inkscape:connector-curvature="0" />
    <circle cx="37.651787" cy="-233.087830" r="0.695206" style="color:#000000;opacity:1;isolation:auto;mix-blend-mode:normal;color-interpolation:sRGB;color-interpolation-filters:linearRGB;solid-color:#000000;solid-opacity:1;fill:#a66e00;fill-opacity:1;fill-rule:nonzero;stroke:#000000;stroke-width:0.5;stroke-linecap:butt;stroke-linejoin:miter;stroke-miterlimit:4;stroke-dasharray:none;stroke-dashoffset:0;stroke-opacity:1;color-rendering:auto;image-rendering:auto;shape-rendering:auto;text-rendering:auto;enable-background:accumulate" transform="matrix(0.37654483,0.9263984,-0.9263984,0.37654483,0,0)" />
    <circle cx="39.995537" cy="-238.712830" r="0.695206" style="color:#000000;opacity:1;isolation:auto;mix-blend-mode:normal;color-interpolation:sRGB;color-interpolation-filters:linearRGB;solid-color:#000000;solid-opacity:1;fill:#a66e00;fill-opacity:1;fill-rule:nonzero;stroke:#000000;stroke-width:0.5;stroke-linecap:butt;stroke-linejoin:miter;stroke-miterlimit:4;stroke-dasharray:none;stroke-dashoffset:0;stroke-opacity:1;color-rendering:auto;image-rendering:auto;shape-rendering:auto;text-rendering:auto;enable-background:accumulate" transform="matrix(0.37654483,0.9263984,-0.9263984,0.37654483,0,0)" />
    <path style="color:#000000;fill:#feffff;fill-opacity:1;fill-rule:evenodd;stroke:#000000;stroke-width:0.5;stroke-linecap:butt;stroke-linejoin:round;stroke-miterlimit:4;stroke-dasharray:none;stroke-dashoffset:0;stroke-opacity:1;marker:none;enable-background:accumulate" d="m 230.8139,-58.168744 -0.0696,11.095953 c 0,0 1.11273,-0.901569 1.17305,-2.014949 0.0592,-1.093696 -0.80015,-1.762231 -0.80015,-1.762231 0,0 1.00218,-0.841738 0.9922,-1.921676 -0.0106,-1.140901 -0.9468,-1.722391 -0.9468,-1.722391 0,0 0.80027,-0.5343 0.83406,-1.646805 0.0349,-1.150244 -1.18274,-2.027894 -1.18274,-2.027894 z" inkscape:connector-curvature="0" />
    <path style="color:#000000;fill:#feffff;fill-opacity:1;fill-rule:evenodd;stroke:#000000;stroke-width:0.5;stroke-linecap:butt;stroke-linejoin:round;stroke-miterlimit:4;stroke-dasharray:none;stroke-dashoffset:0;stroke-opacity:1;marker:none;enable-background:accumulate" d="m 236.95087,-57.97366 -0.0645,10.282469 c 0,0 1.03677,-0.785137 1.09267,-1.816887 0.0549,-1.013517 -0.74706,-1.683399 -0.74706,-1.683399 0,0 0.85887,-0.76153 0.84962,-1.762298 -0.01,-1.057255 -0.80754,-1.614603 -0.80754,-1.614603 0,0 0.84013,-0.540128 0.87144,-1.571079 0.0324,-1.065902 -1.19455,-1.834218 -1.19455,-1.834218 z" inkscape:connector-curvature="0" />
    <path style="fill:#000000;stroke:none" d="m 239.16963,-53.312319 -0.0111,0.999645 1.00145,0.01039 0.009,-1.000718 z" inkscape:connector-curvature="0" />
    <path style="fill:#6a4600;stroke:none" d="m 233.00825,-53.641515 -0.0131,1.52646 1.52369,0.01423 0.0142,-1.523703 z" inkscape:connector-curvature="0" />
    <path style="fill:none;stroke:#000000;stroke-width:0.6;stroke-linecap:butt" d="m 227.26126,-55.055042 -0.0734,4.514141" inkscape:connector-curvature="0" />
    <path style="fill:#000000;stroke:none" d="m 223.83649,-54.026834 -0.0111,0.999636 1.00072,0.0086 0.009,-0.998911 z" inkscape:connector-curvature="0" />
    <path style="fill:#000000;stroke:none" d="m 223.85032,-52.581947 -0.0111,0.999637 1.00072,0.0086 0.009,-0.998912 z" inkscape:connector-curvature="0" />
    <path style="fill:none;stroke:#000000;stroke-width:0.5;stroke-linecap:butt;stroke-linejoin:round;stroke-miterlimit:4" d="m 227.2539,-51.578825 1.14997,0.173504 -0.0116,1.05042" inkscape:connector-curvature="0" />
    <path style="fill:none;stroke:#000000;stroke-width:0.5;stroke-linecap:butt;stroke-linejoin:round;stroke-miterlimit:4" d="m 227.25705,-54.143799 1.1481,-0.163064 0.0224,-1.189753" inkscape:connector-curvature="0" />
  </g>
</g>
<g inkscape:groupmode="layer" id="suit_rank_glow_layer" inkscape:label="Suit Rank Glow" style="display:inline" sodipodi:insensitive="true" >
  <g style="opacity:0.75;filter:url(#blurSuitRankGlow)" >
    <path style="fill:#ffffff;fill-opacity:1;stroke:none" d="m 31.453338,20.628773 c -3.90158,4.19568 -7.07982,7.84109 -10.6575,12.24125 3.57768,4.40016 6.75592,8.045575 10.6575,12.241254 3.90158,-4.195679 7.07982,-7.841094 10.6575,-12.241254 -3.57768,-4.40016 -6.75592,-8.04557 -10.6575,-12.241251 z" inkscape:connector-curvature="0" />
    <path style="fill:#ffffff;fill-opacity:1;stroke:none" d="m 215.96335,316.87128 c 3.90158,-4.19568 7.07982,-7.84109 10.6575,-12.24125 -3.57768,-4.40016 -6.75592,-8.04557 -10.6575,-12.24125 -3.90158,4.19568 -7.07982,7.84109 -10.6575,12.24125 3.57768,4.40016 6.75592,8.04557 10.6575,12.24125 z" inkscape:connector-curvature="0" />
    <path style="fill:#ffffff;fill-opacity:1;stroke:none" d="m 21.053333,70.875025 c 0.24,0 0.49333,0.013 0.76,0.04 0.26666,0 0.54666,0.013 0.84,0.04 l 0,-10.48 c 0,-1.3066 0.21333,-2.5466 0.64,-3.72 0.42666,-1.1733 1.01333,-2.1866 1.76,-3.04 0.77333,-0.88 1.69333,-1.5733 2.76,-2.08 1.09332,-0.5066 2.30666,-0.76 3.64,-0.76 1.30665,0 2.47999,0.2534 3.52,0.76 1.03998,0.5067 1.93332,1.2 2.68,2.08 0.74665,0.88 1.33331,1.9067 1.76,3.08 0.42665,1.1467 0.70665,2.3734 0.84,3.68 l 0,12.8 c -2e-5,1.0133 -0.13335,1.9867 -0.4,2.92 -0.24002,0.9067 -0.58669,1.7467 -1.04,2.52 0.55998,0.32 1.14665,0.5733 1.76,0.76 0.63998,0.16 1.33331,0.2267 2.08,0.2 l 0,3.2 c -1.01335,0 -2.01335,-0.1733 -3,-0.52 -0.96002,-0.3467 -1.90668,-0.7867 -2.84,-1.32 -0.72002,0.5867 -1.53335,1.04 -2.44,1.36 -0.88001,0.32 -1.85335,0.48 -2.92,0.48 -1.25334,0 -2.40001,-0.2133 -3.44,-0.64 -1.01334,-0.4533 -1.90667,-1.0667 -2.68,-1.84 -0.74667,-0.8 -1.36,-1.72 -1.84,-2.76 -0.45334,-1.0667 -0.72,-2.2133 -0.8,-3.44 -0.88,-0.08 -1.69333,-0.12 -2.44,-0.12 0,-0.2133 0,-0.4933 0,-0.84 0,-0.3733 0,-0.7333 0,-1.08 0,-0.3466 0,-0.64 0,-0.88 0,-0.2666 0,-0.4 0,-0.4 l 0.8,0 m 16,-10.4 c -2e-5,-0.88 -0.13335,-1.7066 -0.4,-2.48 -0.24002,-0.7733 -0.60002,-1.4533 -1.08,-2.04 -0.48001,-0.5866 -1.06668,-1.04 -1.76,-1.36 -0.69335,-0.3466 -1.48001,-0.52 -2.36,-0.52 -0.88001,0 -1.66668,0.1734 -2.36,0.52 -0.69334,0.32 -1.28001,0.7734 -1.76,1.36 -0.48001,0.5867 -0.85334,1.2667 -1.12,2.04 -0.24001,0.7734 -0.36001,1.6 -0.36,2.48 l 0,10.92 c 1.11999,0.2134 2.25333,0.5334 3.4,0.96 1.14666,0.4267 2.22666,0.9734 3.24,1.64 0.69332,0.48 1.34665,0.9733 1.96,1.48 0.61332,0.48 1.19998,0.9467 1.76,1.4 0.55998,-1.04 0.83998,-2.24 0.84,-3.6 l 0,-12.8 m -5.6,19.2 c 0.93332,0 1.77332,-0.1867 2.52,-0.56 l -2.6,-1.96 c -0.82668,-0.6133 -1.70668,-1.1067 -2.64,-1.48 -0.90667,-0.4 -1.82667,-0.7067 -2.76,-0.92 0.23999,1.4133 0.82666,2.5867 1.76,3.52 0.95999,0.9333 2.19999,1.4 3.72,1.4" inkscape:connector-curvature="0" />
    <path style="fill:#ffffff;fill-opacity:1;stroke:none" d="m 226.36334,266.62502 c -0.24,0 -0.49333,-0.013 -0.76,-0.04 -0.26666,0 -0.54666,-0.013 -0.84,-0.04 l 0,10.48 c 0,1.3066 -0.21333,2.5466 -0.64,3.72 -0.42666,1.1733 -1.01333,2.1866 -1.76,3.04001 -0.77333,0.88 -1.69333,1.5733 -2.76,2.07999 -1.09332,0.5066 -2.30666,0.76 -3.64,0.76 -1.30664,0 -2.47998,-0.2534 -3.52,-0.76 -1.03998,-0.5067 -1.93332,-1.19999 -2.68,-2.07999 -0.74665,-0.88 -1.33331,-1.9067 -1.76,-3.08 -0.42665,-1.1467 -0.70665,-2.3734 -0.84,-3.68 l 0,-12.8 c 2e-5,-1.01331 0.13335,-1.9867 0.4,-2.92001 0.24002,-0.9067 0.58669,-1.74669 1.04,-2.51999 -0.55998,-0.32 -1.14665,-0.57331 -1.76,-0.76 -0.63998,-0.16001 -1.33331,-0.2267 -2.08,-0.2 l 0,-3.2 c 1.01335,0 2.01335,0.1733 3,0.52 0.96002,0.3467 1.90668,0.7867 2.84,1.32 0.72002,-0.5867 1.53335,-1.04 2.44,-1.36 0.88001,-0.32 1.85335,-0.48 2.92,-0.48 1.25334,0 2.40001,0.2133 3.44,0.64 1.01334,0.4533 1.90667,1.06669 2.68,1.84 0.74667,0.8 1.36,1.72 1.84,2.76 0.45334,1.0667 0.72,2.2133 0.8,3.44 0.88,0.08 1.69333,0.12 2.44,0.12 0,0.2133 0,0.4933 0,0.84 0,0.37329 0,0.7333 0,1.08 0,0.3466 0,0.63999 0,0.88 0,0.26659 0,0.39999 0,0.39999 l -0.8,0 m -16,10.4 c 2e-5,0.88 0.13335,1.7066 0.4,2.48 0.24002,0.7733 0.60002,1.4533 1.08,2.04 0.48001,0.5866 1.06668,1.04001 1.76,1.36001 0.69335,0.3466 1.48001,0.51999 2.36,0.51999 0.88001,0 1.66669,-0.1734 2.36001,-0.51999 0.69334,-0.32 1.28001,-0.7734 1.75999,-1.36001 0.48001,-0.5867 0.85334,-1.2667 1.12001,-2.04 0.24001,-0.7734 0.36,-1.6 0.36,-2.48 l 0,-10.92 c -1.11999,-0.2134 -2.25333,-0.5334 -3.4,-0.96 -1.14666,-0.4267 -2.22667,-0.9734 -3.24001,-1.64 -0.69332,-0.48 -1.34665,-0.9733 -1.96,-1.48 -0.61331,-0.48 -1.19998,-0.9467 -1.75999,-1.4 -0.55998,1.04001 -0.83998,2.24 -0.84001,3.60001 l 0,12.8 m 5.6,-19.2 c -0.93332,0 -1.77332,0.1867 -2.52,0.56 l 2.6,1.96 c 0.82668,0.61329 1.70668,1.10669 2.64,1.48 0.90667,0.4 1.82667,0.7067 2.76,0.92 -0.23999,-1.4133 -0.82666,-2.5867 -1.76,-3.52 -0.95999,-0.9333 -2.19999,-1.4 -3.72,-1.4" inkscape:connector-curvature="0" />
  </g>
</g>
<g inkscape:groupmode="layer" id="suit_rank_layer" inkscape:label="Suit Rank" style="display:inline" sodipodi:insensitive="true" >
  <path style="fill:#de0000;fill-opacity:1;stroke:none" d="m 31.453338,20.628773 c -3.90158,4.19568 -7.07982,7.84109 -10.6575,12.24125 3.57768,4.40016 6.75592,8.045575 10.6575,12.241254 3.90158,-4.195679 7.07982,-7.841094 10.6575,-12.241254 -3.57768,-4.40016 -6.75592,-8.04557 -10.6575,-12.241251 z" inkscape:connector-curvature="0" />
  <path style="fill:#de0000;fill-opacity:1;stroke:none" d="m 215.96335,316.87128 c 3.90158,-4.19568 7.07982,-7.84109 10.6575,-12.24125 -3.57768,-4.40016 -6.75592,-8.04557 -10.6575,-12.24125 -3.90158,4.19568 -7.07982,7.84109 -10.6575,12.24125 3.57768,4.40016 6.75592,8.04557 10.6575,12.24125 z" inkscape:connector-curvature="0" />
  <path style="fill:#de0000;fill-opacity:1;stroke:none" d="m 21.053333,70.875025 c 0.24,0 0.49333,0.013 0.76,0.04 0.26666,0 0.54666,0.013 0.84,0.04 l 0,-10.48 c 0,-1.3066 0.21333,-2.5466 0.64,-3.72 0.42666,-1.1733 1.01333,-2.1866 1.76,-3.04 0.77333,-0.88 1.69333,-1.5733 2.76,-2.08 1.09332,-0.5066 2.30666,-0.76 3.64,-0.76 1.30665,0 2.47999,0.2534 3.52,0.76 1.03998,0.5067 1.93332,1.2 2.68,2.08 0.74665,0.88 1.33331,1.9067 1.76,3.08 0.42665,1.1467 0.70665,2.3734 0.84,3.68 l 0,12.8 c -2e-5,1.0133 -0.13335,1.9867 -0.4,2.92 -0.24002,0.9067 -0.58669,1.7467 -1.04,2.52 0.55998,0.32 1.14665,0.5733 1.76,0.76 0.63998,0.16 1.33331,0.2267 2.08,0.2 l 0,3.2 c -1.01335,0 -2.01335,-0.1733 -3,-0.52 -0.96002,-0.3467 -1.90668,-0.7867 -2.84,-1.32 -0.72002,0.5867 -1.53335,1.04 -2.44,1.36 -0.88001,0.32 -1.85335,0.48 -2.92,0.48 -1.25334,0 -2.40001,-0.2133 -3.44,-0.64 -1.01334,-0.4533 -1.90667,-1.0667 -2.68,-1.84 -0.74667,-0.8 -1.36,-1.72 -1.84,-2.76 -0.45334,-1.0667 -0.72,-2.2133 -0.8,-3.44 -0.88,-0.08 -1.69333,-0.12 -2.44,-0.12 0,-0.2133 0,-0.4933 0,-0.84 0,-0.3733 0,-0.7333 0,-1.08 0,-0.3466 0,-0.64 0,-0.88 0,-0.2666 0,-0.4 0,-0.4 l 0.8,0 m 16,-10.4 c -2e-5,-0.88 -0.13335,-1.7066 -0.4,-2.48 -0.24002,-0.7733 -0.60002,-1.4533 -1.08,-2.04 -0.48001,-0.5866 -1.06668,-1.04 -1.76,-1.36 -0.69335,-0.3466 -1.48001,-0.52 -2.36,-0.52 -0.88001,0 -1.66668,0.1734 -2.36,0.52 -0.69334,0.32 -1.28001,0.7734 -1.76,1.36 -0.48001,0.5867 -0.85334,1.2667 -1.12,2.04 -0.24001,0.7734 -0.36001,1.6 -0.36,2.48 l 0,10.92 c 1.11999,0.2134 2.25333,0.5334 3.4,0.96 1.14666,0.4267 2.22666,0.9734 3.24,1.64 0.69332,0.48 1.34665,0.9733 1.96,1.48 0.61332,0.48 1.19998,0.9467 1.76,1.4 0.55998,-1.04 0.83998,-2.24 0.84,-3.6 l 0,-12.8 m -5.6,19.2 c 0.93332,0 1.77332,-0.1867 2.52,-0.56 l -2.6,-1.96 c -0.82668,-0.6133 -1.70668,-1.1067 -2.64,-1.48 -0.90667,-0.4 -1.82667,-0.7067 -2.76,-0.92 0.23999,1.4133 0.82666,2.5867 1.76,3.52 0.95999,0.9333 2.19999,1.4 3.72,1.4" inkscape:connector-curvature="0" />
  <path style="fill:#de0000;fill-opacity:1;stroke:none" d="m 226.36334,266.62502 c -0.24,0 -0.49333,-0.013 -0.76,-0.04 -0.26666,0 -0.54666,-0.013 -0.84,-0.04 l 0,10.48 c 0,1.3066 -0.21333,2.5466 -0.64,3.72 -0.42666,1.1733 -1.01333,2.1866 -1.76,3.04001 -0.77333,0.88 -1.69333,1.5733 -2.76,2.07999 -1.09332,0.5066 -2.30666,0.76 -3.64,0.76 -1.30664,0 -2.47998,-0.2534 -3.52,-0.76 -1.03998,-0.5067 -1.93332,-1.19999 -2.68,-2.07999 -0.74665,-0.88 -1.33331,-1.9067 -1.76,-3.08 -0.42665,-1.1467 -0.70665,-2.3734 -0.84,-3.68 l 0,-12.8 c 2e-5,-1.01331 0.13335,-1.9867 0.4,-2.92001 0.24002,-0.9067 0.58669,-1.74669 1.04,-2.51999 -0.55998,-0.32 -1.14665,-0.57331 -1.76,-0.76 -0.63998,-0.16001 -1.33331,-0.2267 -2.08,-0.2 l 0,-3.2 c 1.01335,0 2.01335,0.1733 3,0.52 0.96002,0.3467 1.90668,0.7867 2.84,1.32 0.72002,-0.5867 1.53335,-1.04 2.44,-1.36 0.88001,-0.32 1.85335,-0.48 2.92,-0.48 1.25334,0 2.40001,0.2133 3.44,0.64 1.01334,0.4533 1.90667,1.06669 2.68,1.84 0.74667,0.8 1.36,1.72 1.84,2.76 0.45334,1.0667 0.72,2.2133 0.8,3.44 0.88,0.08 1.69333,0.12 2.44,0.12 0,0.2133 0,0.4933 0,0.84 0,0.37329 0,0.7333 0,1.08 0,0.3466 0,0.63999 0,0.88 0,0.26659 0,0.39999 0,0.39999 l -0.8,0 m -16,10.4 c 2e-5,0.88 0.13335,1.7066 0.4,2.48 0.24002,0.7733 0.60002,1.4533 1.08,2.04 0.48001,0.5866 1.06668,1.04001 1.76,1.36001 0.69335,0.3466 1.48001,0.51999 2.36,0.51999 0.88001,0 1.66669,-0.1734 2.36001,-0.51999 0.69334,-0.32 1.28001,-0.7734 1.75999,-1.36001 0.48001,-0.5867 0.85334,-1.2667 1.12001,-2.04 0.24001,-0.7734 0.36,-1.6 0.36,-2.48 l 0,-10.92 c -1.11999,-0.2134 -2.25333,-0.5334 -3.4,-0.96 -1.14666,-0.4267 -2.22667,-0.9734 -3.24001,-1.64 -0.69332,-0.48 -1.34665,-0.9733 -1.96,-1.48 -0.61331,-0.48 -1.19998,-0.9467 -1.75999,-1.4 -0.55998,1.04001 -0.83998,2.24 -0.84001,3.60001 l 0,12.8 m 5.6,-19.2 c -0.93332,0 -1.77332,0.1867 -2.52,0.56 l 2.6,1.96 c 0.82668,0.61329 1.70668,1.10669 2.64,1.48 0.90667,0.4 1.82667,0.7067 2.76,0.92 -0.23999,-1.4133 -0.82666,-2.5867 -1.76,-3.52 -0.95999,-0.9333 -2.19999,-1.4 -3.72,-1.4" inkscape:connector-curvature="0" />
</g>
<g inkscape:groupmode="layer" id="guides_layer" inkscape:label="Guides" style="display:none" sodipodi:insensitive="true" >
  <path style="fill:none;stroke:#000000;stroke-width:0.9" d="m 11.250000,11.25 0,-45" inkscape:connector-curvature="0" />
  <path style="fill:none;stroke:#000000;stroke-width:0.9" d="m 11.250000,371.25 0,-45" inkscape:connector-curvature="0" />
  <path style="fill:none;stroke:#000000;stroke-width:0.9" d="m 84.375000,11.25 0,-45" inkscape:connector-curvature="0" />
  <path style="fill:none;stroke:#000000;stroke-width:0.9" d="m 84.375000,371.25 0,-45" inkscape:connector-curvature="0" />
  <path style="fill:none;stroke:#000000;stroke-width:0.9" d="m 123.750000,11.25 0,-45" inkscape:connector-curvature="0" />
  <path style="fill:none;stroke:#000000;stroke-width:0.9" d="m 123.750000,371.25 0,-45" inkscape:connector-curvature="0" />
  <path style="fill:none;stroke:#000000;stroke-width:0.9" d="m 163.125000,11.25 0,-45" inkscape:connector-curvature="0" />
  <path style="fill:none;stroke:#000000;stroke-width:0.9" d="m 163.125000,371.25 0,-45" inkscape:connector-curvature="0" />
  <path style="fill:none;stroke:#000000;stroke-width:0.9" d="m 236.250000,11.25 0,-45" inkscape:connector-curvature="0" />
  <path style="fill:none;stroke:#000000;stroke-width:0.9" d="m 236.250000,371.25 0,-45" inkscape:connector-curvature="0" />
  <path style="fill:none;stroke:#000000;stroke-width:0.9" d="m -33.75,11.250000 45,0" inkscape:connector-curvature="0" />
  <path style="fill:none;stroke:#000000;stroke-width:0.9" d="m 236.25,11.250000 45,0" inkscape:connector-curvature="0" />
  <path style="fill:none;stroke:#000000;stroke-width:0.9" d="m -33.75,118.125000 45,0" inkscape:connector-curvature="0" />
  <path style="fill:none;stroke:#000000;stroke-width:0.9" d="m 236.25,118.125000 45,0" inkscape:connector-curvature="0" />
  <path style="fill:none;stroke:#000000;stroke-width:0.9" d="m -33.75,168.750000 45,0" inkscape:connector-curvature="0" />
  <path style="fill:none;stroke:#000000;stroke-width:0.9" d="m 236.25,168.750000 45,0" inkscape:connector-curvature="0" />
  <path style="fill:none;stroke:#000000;stroke-width:0.9" d="m -33.75,219.375000 45,0" inkscape:connector-curvature="0" />
  <path style="fill:none;stroke:#000000;stroke-width:0.9" d="m 236.25,219.375000 45,0" inkscape:connector-curvature="0" />
  <path style="fill:none;stroke:#000000;stroke-width:0.9" d="m -33.75,326.250000 45,0" inkscape:connector-curvature="0" />
  <path style="fill:none;stroke:#000000;stroke-width:0.9" d="m 236.25,326.250000 45,0" inkscape:connector-curvature="0" />
  <g id="guide-short0-0" >
    <rect x="0.000000" y="-22.500000" width="247.500000" height="22.500000" style="fill:#73baff;stroke:#000000;stroke-width:0.9" />
  </g>
  <g id="guide-long1-1" >
    <rect x="247.500000" y="219.375000" width="22.500000" height="118.125000" style="fill:#ffd291;stroke:#000000;stroke-width:0.9" />
    <rect x="247.500000" y="236.250000" width="22.500000" height="101.250000" style="fill:#b4e982;stroke:#000000;stroke-width:0.9" />
    <rect x="247.500000" y="258.750000" width="22.500000" height="78.750000" style="fill:#5adc4f;stroke:#000000;stroke-width:0.9" />
    <rect x="247.500000" y="0.000000" width="22.500000" height="219.375000" style="fill:#b9deff;stroke:#000000;stroke-width:0.9" />
    <rect x="247.500000" y="0.000000" width="22.500000" height="168.750000" style="fill:#9bceff;stroke:#000000;stroke-width:0.9" />
    <rect x="247.500000" y="0.000000" width="22.500000" height="101.250000" style="fill:#73baff;stroke:#000000;stroke-width:0.9" />
  </g>
  <g id="guide-short2-7" transform="matrix(-1,0,0,1,247.5,360)" >
    <rect x="0.000000" y="-22.500000" width="247.500000" height="22.500000" style="fill:#b4e982;stroke:#000000;stroke-width:0.9" />
    <rect x="0.000000" y="-22.500000" width="118.125000" height="22.500000" style="fill:#5adc4f;stroke:#000000;stroke-width:0.9" />
    <rect x="129.375000" y="-22.500000" width="118.125000" height="22.500000" style="fill:#5adc4f;stroke:#000000;stroke-width:0.9" />
  </g>
  <g id="guide-long3-4" transform="matrix(1,0,0,-1,-270,337.5)" >
    <rect x="247.500000" y="0.000000" width="22.500000" height="118.125000" style="fill:#ffd291;stroke:#000000;stroke-width:0.9" />
    <rect x="247.500000" y="0.000000" width="22.500000" height="101.250000" style="fill:#b4e982;stroke:#000000;stroke-width:0.9" />
    <rect x="247.500000" y="0.000000" width="22.500000" height="78.750000" style="fill:#5adc4f;stroke:#000000;stroke-width:0.9" />
    <rect x="247.500000" y="118.125000" width="22.500000" height="219.375000" style="fill:#b9deff;stroke:#000000;stroke-width:0.9" />
    <rect x="247.500000" y="168.750000" width="22.500000" height="168.750000" style="fill:#9bceff;stroke:#000000;stroke-width:0.9" />
    <rect x="247.500000" y="236.250000" width="22.500000" height="101.250000" style="fill:#73baff;stroke:#000000;stroke-width:0.9" />
  </g>
</g>
<g inkscape:groupmode="layer" id="cut_line_layer" inkscape:label="Cut Line" style="display:none" sodipodi:insensitive="true" >
  <rect style="fill:none;stroke:#000000;stroke-width:0.5;stroke-linecap:butt;stroke-linejoin:bevel;stroke-miterlimit:4;stroke-dasharray:none;stroke-opacity:1" width="225" height="315" x="11.25" y="11.25" ry="17.361111" />
</g>
<g inkscape:groupmode="layer" id="page_border_layer" inkscape:label="Page Border" style="display:none" sodipodi:insensitive="true" >
  <rect style="fill:none;stroke:#000000;stroke-width:0.5;stroke-linecap:butt;stroke-linejoin:bevel;stroke-miterlimit:4;stroke-dasharray:none;stroke-opacity:1" width="247.5" height="337.5" x="0" y="0" />
</g>

</svg>
