<?xml version="1.0" encoding="UTF-8" standalone="no"?>
<svg version="1.1" height="337.5" width="247.5" xmlns:rdf="http://www.w3.org/1999/02/22-rdf-syntax-ns#" xmlns="http://www.w3.org/2000/svg" xmlns:cc="http://creativecommons.org/ns#" xmlns:xlink="http://www.w3.org/1999/xlink" xmlns:dc="http://purl.org/dc/elements/1.1/" xmlns:sodipodi="http://sodipodi.sourceforge.net/DTD/sodipodi-0.dtd" xmlns:svg="http://www.w3.org/2000/svg" xmlns:inkscape="http://www.inkscape.org/namespaces/inkscape">
<metadata>
  <rdf:RDF>
    <cc:Work rdf:about="">
      <dc:format>image/svg+xml</dc:format>
      <dc:type rdf:resource="http://purl.org/dc/dcmitype/StillImage"/>
      <dc:title/>
      <dc:creator>
        <cc:Agent><dc:title>Gary Kacmarcik</dc:title></cc:Agent>
      </dc:creator>
    </cc:Work>
  </rdf:RDF>
</metadata>

<defs>
  <filter inkscape:label="textureGrassBig" style="color-interpolation-filters:sRGB" id="textureGrassBig">
    <feTurbulence numOctaves="2" seed="101" type="turbulence" baseFrequency="0.070000" result="result1" />
    <feColorMatrix result="result0" in="SourceGraphic" type="luminanceToAlpha" />
    <feColorMatrix result="result2" values="1 0 0 0 0 0 1 0 0 0 0 0 1 0 0 0 0 0 0.4 0 " />
    <feComposite in="result2" operator="over" in2="result1" />
    <feColorMatrix result="result91" values="1 0 0 0 0 0 1 0 0 0 0 0 1 0 0 0 0 0 10 -4 " />
    <feComposite operator="out" in="SourceGraphic" in2="result91" />
    <feGaussianBlur stdDeviation="2.500000" />
    <feColorMatrix values="1 0 0 0 0 0 1 0 0 0 0 0 1 0 0 0 0 0 1 0 " />
  </filter>
  <filter inkscape:label="textureGrassSmall" style="color-interpolation-filters:sRGB" id="textureGrassSmall">
    <feTurbulence numOctaves="4" seed="101" type="turbulence" baseFrequency="0.500000" result="result1" />
    <feColorMatrix result="result0" in="SourceGraphic" type="luminanceToAlpha" />
    <feColorMatrix result="result2" values="1 0 0 0 0 0 1 0 0 0 0 0 1 0 0 0 0 0 0.4 0 " />
    <feComposite in="result2" operator="over" in2="result1" />
    <feColorMatrix result="result91" values="1 0 0 0 0 0 1 0 0 0 0 0 1 0 0 0 0 0 10 -4 " />
    <feComposite operator="out" in="SourceGraphic" in2="result91" />
    <feGaussianBlur stdDeviation="1.000000" />
    <feColorMatrix values="1 0 0 0 0 0 1 0 0 0 0 0 1 0 0 0 0 0 1 0 " />
  </filter>
  <filter inkscape:label="textureLand" style="color-interpolation-filters:sRGB" id="textureLand">
    <feTurbulence numOctaves="4" seed="101" type="turbulence" baseFrequency="0.500000" result="result1" />
    <feColorMatrix result="result0" in="SourceGraphic" type="luminanceToAlpha" />
    <feColorMatrix result="result2" values="1 0 0 0 0 0 1 0 0 0 0 0 1 0 0 0 0 0 0.4 0 " />
    <feComposite in="result2" operator="over" in2="result1" />
    <feColorMatrix result="result91" values="1 0 0 0 0 0 1 0 0 0 0 0 1 0 0 0 0 0 10 -4 " />
    <feComposite operator="out" in="SourceGraphic" in2="result91" />
    <feGaussianBlur stdDeviation="0.800000" />
    <feColorMatrix values="1 0 0 0 0 0 1 0 0 0 0 0 1 0 0 0 0 0 1 0 " />
  </filter>
  <filter inkscape:label="textureForestBig" style="color-interpolation-filters:sRGB" id="textureForestBig">
    <feTurbulence numOctaves="2" seed="101" type="turbulence" baseFrequency="0.300000" result="result1" />
    <feColorMatrix result="result0" in="SourceGraphic" type="luminanceToAlpha" />
    <feColorMatrix result="result2" values="1 0 0 0 0 0 1 0 0 0 0 0 1 0 0 0 0 0 0.4 0 " />
    <feComposite in="result2" operator="over" in2="result1" />
    <feColorMatrix result="result91" values="1 0 0 0 0 0 1 0 0 0 0 0 1 0 0 0 0 0 10 -4 " />
    <feComposite operator="out" in="SourceGraphic" in2="result91" />
    <feGaussianBlur stdDeviation="2.000000" />
    <feColorMatrix values="1 0 0 0 0 0 1 0 0 0 0 0 1 0 0 0 0 0 1 0 " />
  </filter>
  <filter inkscape:label="textureForestSmall" style="color-interpolation-filters:sRGB" id="textureForestSmall">
    <feTurbulence numOctaves="4" seed="101" type="turbulence" baseFrequency="0.350000" result="result1" />
    <feColorMatrix result="result0" in="SourceGraphic" type="luminanceToAlpha" />
    <feColorMatrix result="result2" values="1 0 0 0 0 0 1 0 0 0 0 0 1 0 0 0 0 0 0.4 0 " />
    <feComposite in="result2" operator="over" in2="result1" />
    <feColorMatrix result="result91" values="1 0 0 0 0 0 1 0 0 0 0 0 1 0 0 0 0 0 10 -4 " />
    <feComposite operator="out" in="SourceGraphic" in2="result91" />
    <feGaussianBlur stdDeviation="1.000000" />
    <feColorMatrix values="1 0 0 0 0 0 1 0 0 0 0 0 1 0 0 0 0 0 1 0 " />
  </filter>
  <filter inkscape:label="roughenShoreline" style="color-interpolation-filters:sRGB" id="roughenShoreline">
    <feTurbulence numOctaves="4" seed="101" type="turbulence" baseFrequency="0.050000" result="turb" />
    <feDisplacementMap scale="6.600000" yChannelSelector="G" xChannelSelector="R" in="SourceGraphic" in2="turb" />
  </filter>
  <filter inkscape:label="roughenForest" style="color-interpolation-filters:sRGB" id="roughenForest">
    <feTurbulence numOctaves="4" seed="101" type="fractalNoise" baseFrequency="0.150000 0.150000" result="turb" />
    <feDisplacementMap scale="6.600000" yChannelSelector="G" xChannelSelector="R" in="SourceGraphic" in2="turb" />
  </filter>
  <filter inkscape:collect="always" inkscape:label="blurSuitRankGlow" style="color-interpolation-filters:sRGB" id="blurSuitRankGlow" x="-0.029025" y="-0.020458" width="1.058049" height="1.040917">
    <feGaussianBlur inkscape:collect="always" stdDeviation="2.515067" />
  </filter>
  <filter inkscape:collect="always" inkscape:label="blurWaterDeep" style="color-interpolation-filters:sRGB" id="blurWaterDeep" x="-0.056691" y="-0.041620" width="1.113381" height="1.083239">
    <feGaussianBlur inkscape:collect="always" stdDeviation="6.919136" />
  </filter>
  <filter inkscape:collect="always" inkscape:label="blurWaterShallow" style="color-interpolation-filters:sRGB" id="blurWaterShallow" x="-0.055818" y="-0.042103" width="1.111637" height="1.084205">
    <feGaussianBlur inkscape:collect="always" stdDeviation="6.561501" />
  </filter>
  <filter inkscape:collect="always" inkscape:label="blurWaterHilight" style="color-interpolation-filters:sRGB" id="blurWaterHilight" x="-0.071178" y="-0.051856" width="1.142356" height="1.103712">
    <feGaussianBlur inkscape:collect="always" stdDeviation="6.857532" />
  </filter>
  <filter inkscape:collect="always" inkscape:label="blurGrass" style="color-interpolation-filters:sRGB" id="blurGrass" x="-0.032100" y="-0.019164" width="1.064201" height="1.038328">
    <feGaussianBlur inkscape:collect="always" stdDeviation="2.386213" />
  </filter>
  <filter inkscape:collect="always" inkscape:label="blurForestShadow" style="color-interpolation-filters:sRGB" id="blurForestShadow" x="-0.033576" y="-0.018674" width="1.067152" height="1.037348">
    <feGaussianBlur inkscape:collect="always" stdDeviation="2.199785" />
  </filter>
  <filter inkscape:collect="always" inkscape:label="blurFlowerInner" style="color-interpolation-filters:sRGB" id="blurFlowerInner" x="-0.420000" y="-0.420000" width="1.840000" height="1.840000">
    <feGaussianBlur inkscape:collect="always" stdDeviation="1.605540" />
  </filter>
  <filter inkscape:collect="always" inkscape:label="blurFlowerMiddle" style="color-interpolation-filters:sRGB" id="blurFlowerMiddle" x="-0.240000" y="-0.240000" width="1.480000" height="1.480000">
    <feGaussianBlur inkscape:collect="always" stdDeviation="1.933705" />
  </filter>
  <linearGradient id="gradientStopsFish" inkscape:collect="always">
    <stop offset="0.000000" style="stop-color:#ff5555;stop-opacity:1.000000" />
    <stop offset="1.000000" style="stop-color:#ffffff;stop-opacity:1.000000" />
  </linearGradient>
  <linearGradient id="gradientStopsCoconut" inkscape:collect="always">
    <stop offset="0.000000" style="stop-color:#ffffff;stop-opacity:1.000000" />
    <stop offset="1.000000" style="stop-color:#c8c8c8;stop-opacity:0.000000" />
  </linearGradient>
  <linearGradient id="gradientStopsFlower" inkscape:collect="always">
    <stop offset="0.000000" style="stop-color:#b16dff;stop-opacity:1.000000" />
    <stop offset="1.000000" style="stop-color:#e7d2ff;stop-opacity:1.000000" />
  </linearGradient>
  <linearGradient id="gradientStopsJellyfish" inkscape:collect="always">
    <stop offset="0.000000" style="stop-color:#4f97ff;stop-opacity:1.000000" />
    <stop offset="1.000000" style="stop-color:#cfe3ff;stop-opacity:1.000000" />
  </linearGradient>
  <linearGradient id="gradientStopsShip" inkscape:collect="always">
    <stop offset="0.000000" style="stop-color:#b67800;stop-opacity:1.000000" />
    <stop offset="1.000000" style="stop-color:#d28b00;stop-opacity:1.000000" />
  </linearGradient>
  <linearGradient id="gradientFish" xlink:href="#gradientStopsFish" x1="178.789090" y1="-114.782830" x2="180.407300" y2="-103.782830" gradientTransform="translate(-178.76256,1.0606602)" gradientUnits="userSpaceOnUse" inkscape:collect="always" />
  <linearGradient id="gradientJellyfishTentacle1a" xlink:href="#gradientStopsJellyfish" x1="118.024030" y1="-110.827530" x2="121.753140" y2="-96.140030" gradientTransform="translate(-120,0)" gradientUnits="userSpaceOnUse" inkscape:collect="always" />
  <linearGradient id="gradientJellyfishTentacle1b" xlink:href="#gradientStopsJellyfish" x1="118.024030" y1="-110.827530" x2="121.753140" y2="-96.140030" gradientTransform="translate(-120,0)" gradientUnits="userSpaceOnUse" inkscape:collect="always" />
  <linearGradient id="gradientJellyfishTentacle2" xlink:href="#gradientStopsJellyfish" x1="118.218180" y1="-115.782610" x2="121.698270" y2="-97.813858" gradientTransform="translate(-120,0)" gradientUnits="userSpaceOnUse" inkscape:collect="always" />
  <linearGradient id="gradientJellyfishTentacle3" xlink:href="#gradientStopsJellyfish" x1="123.335370" y1="-114.610190" x2="116.678600" y2="-98.453941" gradientTransform="translate(-120,0)" gradientUnits="userSpaceOnUse" inkscape:collect="always" />
  <linearGradient id="gradientShip" xlink:href="#gradientStopsShip" x1="196.432910" y1="221.715270" x2="203.663250" y2="204.277770" gradientTransform="matrix(0.37654483,0.9263984,-0.9263984,0.37654483,355.66788,-318.43897)" gradientUnits="userSpaceOnUse" inkscape:collect="always" />
  <radialGradient id="gradientCoconut" xlink:href="#gradientStopsCoconut" cx="1.944096" cy="-60.612652" fx="1.944096" fy="-60.612652" r="6.723294" gradientUnits="userSpaceOnUse" gradientTransform="matrix(1.691364,-0.31394812,0.29762395,1.603419,17.826033,-7.042221)" inkscape:collect="always" />
  <radialGradient id="gradientFlower" xlink:href="#gradientStopsFlower" cx="60.884877" cy="-69.652750" fx="60.884877" fy="-69.652750" r="15.835310" gradientUnits="userSpaceOnUse" gradientTransform="matrix(0.8413905,0,0,0.87120012,-50.722984,-48.679159)" inkscape:collect="always" />
  <radialGradient id="gradientJellyfish" xlink:href="#gradientStopsJellyfish" cx="120.453410" cy="-112.943900" fx="120.453410" fy="-112.943900" r="10.580511" gradientUnits="userSpaceOnUse" gradientTransform="matrix(1.1662998,0.0435575,-0.04526952,1.2121402,-145.14628,17.080499)" inkscape:collect="always" />
</defs>

<sodipodi:namedview
    id="base"
    pagecolor="#ffffff"
    bordercolor="#666666"
    borderopacity="1.0"
    inkscape:pageopacity="0.0"
    inkscape:pageshadow="2"
    inkscape:zoom="2"
    inkscape:cx="115.37643"
    inkscape:cy="285.04449"
    inkscape:document-units="in"
    showgrid="true"
    units="in"
    inkscape:window-width="1392"
    inkscape:window-height="836"
    inkscape:window-x="39"
    inkscape:window-y="6"
    inkscape:window-maximized="0"
    inkscape:snap-grids="true"
    inkscape:snap-to-guides="true"
    inkscape:snap-nodes="true"
    inkscape:object-nodes="true"
    inkscape:snap-smooth-nodes="true"
    inkscape:snap-intersection-paths="true"
    inkscape:object-paths="true"
    inkscape:snap-bbox="true"
    inkscape:bbox-nodes="true"
    inkscape:snap-others="true"
    inkscape:bbox-paths="false"
    inkscape:snap-global="true" >
  <inkscape:grid
    type="xygrid"
    id="grid3051"
    empspacing="2"
    visible="true"
    enabled="true"
    snapvisiblegridlinesonly="true"
    spacingx="0.0625in"
    spacingy="0.0625in"
    dotted="false"
    units="in" />
</sodipodi:namedview>
<g inkscape:groupmode="layer" id="water_layer" inkscape:label="Water" style="display:inline" sodipodi:insensitive="true" >
  <rect id="water" style="fill:#b9deff;fill-opacity:1;stroke:none" x="0" y="0" width="247.5" height="337.5" />
</g>
<g inkscape:groupmode="layer" id="water_shallow_layer" inkscape:label="Water Shallow" style="display:inline" sodipodi:insensitive="true" >
  <path style="fill:#9bd1ff;fill-opacity:0.70;fill-rule:evenodd;stroke:none;filter:url(#blurWaterShallow)" d="M -11.25 -11.25 L -11.25 168.75 L 11.25 168.75 L 33.75 168.75 L 45 163.125 L 67.5 157.5 L 95.625 168.75 L 112.5 174.375 L 106.875 157.5 L 84.375 146.25 L 67.5 129.375 L 73.125 106.875 L 61.875 84.375 L 61.875 56.25 L 61.875 39.375 L 61.875 11.25 L 61.875 -11.25 L -11.25 -11.25 z M 185.625 157.5 L 180 174.375 L 185.625 196.875 L 202.5 213.75 L 191.25 236.25 L 196.875 264.375 L 196.875 292.5 L 185.625 326.25 L 185.625 348.75 L 258.75 348.75 L 258.75 168.75 L 236.25 168.75 L 219.375 168.75 L 202.5 163.125 L 185.625 157.5 z " inkscape:connector-curvature="0" />
</g>
<g inkscape:groupmode="layer" id="water_deep_layer" inkscape:label="Water Deep" style="display:inline" sodipodi:insensitive="true" >
  <path style="fill:#87c8ff;fill-opacity:0.60;fill-rule:evenodd;stroke:none;filter:url(#blurWaterDeep)" d="m -11.25,-11.25 0,112.5 11.25,0 c 0,0 7.7854518,1.43506 11.25,0 7.349417,-3.044228 11.192835,-13.108114 15.375,-19.875 3.117202,-5.043739 6.175236,-8.022291 7.125,-13.875 1.201367,-7.403156 0,-15 0,-22.5 l 0,-22.5 0,-11.25 0,-11.25 0,-11.25 -45,0 z m 251.41992,246.47656 c -1.55031,0.031 -2.99624,0.30225 -3.91992,1.02344 -6.09348,4.75764 -2.25319,15.54324 -5.625,22.5 -2.82437,5.82726 -9.16651,9.49298 -11.875,15.375 -3.4179,7.42265 -4.16225,15.87129 -5,24 -0.57666,5.59536 0,11.25 0,16.875 l 0,11.25 0,11.25 0,11.25 45,0 0,-112.5 -11.25,0 c 0,0 -3.9194,-1.09161 -7.33008,-1.02344 z" inkscape:connector-curvature="0" />
</g>
<g inkscape:groupmode="layer" id="water_hilight_layer" inkscape:label="Water Hilight" style="display:inline" sodipodi:insensitive="true" >
  <use xlink:href="#shoreline" height="100%" width="100%" x="0" y="0" style="display:inline;fill:#ffffff;fill-opacity:1;stroke:#ffffff;stroke-opacity:1;filter:url(#blurWaterHilight)" />
</g>
<g inkscape:groupmode="layer" id="land_layer" inkscape:label="Land" style="display:inline" sodipodi:insensitive="true" >
  <use xlink:href="#shoreline" height="100%" width="100%" x="0" y="0" style="display:inline;fill:#ffddab;fill-opacity:1;stroke:none;stroke-width:1;stroke-miterlimit:4;stroke-dasharray:none;stroke-opacity:1" />
</g>
<g inkscape:groupmode="layer" id="land_texture_layer" inkscape:label="Land Texture" style="display:inline" sodipodi:insensitive="true" >
  <use xlink:href="#shoreline" height="100%" width="100%" x="0" y="0" style="display:inline;fill:#ffca7d;fill-opacity:1;stroke:none;stroke-width:1;stroke-miterlimit:4;stroke-dasharray:none;stroke-opacity:1;filter:url(#textureLand)" />
</g>
<g inkscape:groupmode="layer" id="shoreline_layer" inkscape:label="Shoreline" style="display:inline" sodipodi:insensitive="true" >
  <use xlink:href="#shoreline" height="100%" width="100%" x="0" y="0" style="display:inline;fill:none;fill-opacity:1;stroke:#5f4c14;stroke-width:1;stroke-miterlimit:4;stroke-dasharray:none;stroke-opacity:1" />
</g>
<g inkscape:groupmode="layer" id="shoreline_master_layer" inkscape:label="Shoreline Master" style="display:none" sodipodi:insensitive="true" >
  <path id="shoreline" style="color:#000000;clip-rule:nonzero;display:inline;overflow:visible;visibility:visible;opacity:1;isolation:auto;mix-blend-mode:normal;color-interpolation:sRGB;color-interpolation-filters:linearRGB;solid-color:#000000;solid-opacity:1;fill-opacity:1;fill-rule:evenodd;filter:url(#roughenShoreline);color-rendering:auto;image-rendering:auto;shape-rendering:auto;text-rendering:auto;enable-background:accumulate" d="m 177.1875,-26.71875 c -45,0 -90,1.40625 -92.8125,4.21875 -5.3033,5.303301 0,15 0,22.5 0,5.625 -4.54845,9.5649669 0,16.875 0.56519,0.908344 -8.267667,19.857333 0,28.125 11.25,11.25 -16.875,16.875 0,22.5 19.24046,6.413487 7.96624,46.31647 11.25,56.25 1.97375,5.97068 36.91207,20.7362 33.75,11.25 -16.875,-50.625 14.60527,-57.236842 22.5,-56.25 45,5.625 39.375,67.5 56.25,67.5 15.39472,0 8.25,-36.625 22.5,-28.125 2.54496,1.51804 11.98694,-0.0969 16.875,0 10.95752,0.21713 18.52252,3.97748 22.5,0 5.625,-5.625 5.625,-135 0,-140.625 -2.8125,-2.8125 -47.8125,-4.21875 -92.8125,-4.21875 z m -42.625,178.13477 c -3.91904,10.4186 12.05215,14.52547 11.54883,19.32421 -0.625,8.12501 -9.75178,6.50362 -9.25195,10.99805 2.125,3.5 13.17187,8.03711 13.17187,8.03711 5.84601,2.64116 9.92969,-0.21484 10.67969,-3.46484 C 159.5748,176.06515 156,160.5 151.375,155.375 c -3.6811,-5.07756 -11.20861,-2.6395 -16.8125,-3.95898 z m -69.580078,39.04882 c -2.699624,0.08 -5.456,0.89663 -8.232422,2.78516 -19.548757,13.2971 -21.191641,26.125 -34.25,26.125 l -22.5,0 c 0,0 -15.791797,-3.3541 -22.5,0 -11.25,5.625 -7.954951,132.67005 0,140.625 11.25,11.25 180,11.25 185.625,0 5.625,-11.25 0,-16.875 0,-22.5 0,-2.80014 1.01122,-6.66636 0,-16.875 -0.70212,-7.0882 20.35645,-39.91829 12.75,-44.875 -14.19638,-9.25101 5.31573,-10.67322 -1.5,-22.625 C 167.59438,241.23479 172.52525,225 168.75,225 c -5.625,0 -11.24957,11.24915 -32.18555,22.21875 C 127.91392,251.75127 121.15609,237.19952 118.125,230.625 111.46621,216.18192 106.62609,210.76245 90,202.5 83.535781,199.28756 74.623935,190.17925 64.982422,190.46484 Z" inkscape:connector-curvature="0" />
</g>
<g inkscape:groupmode="layer" id="grass_layer" inkscape:label="Grass" style="display:inline" sodipodi:insensitive="true" >
  <use xlink:href="#grass" height="100%" width="100%" x="0" y="0" style="display:inline;fill:#b4e982;fill-opacity:1;stroke:none;stroke-width:1;stroke-miterlimit:4;stroke-dasharray:none;stroke-opacity:1" />
</g>
<g inkscape:groupmode="layer" id="grass_texture1_layer" inkscape:label="Grass Texture Big" style="display:inline" sodipodi:insensitive="true" >
  <use xlink:href="#grass" height="100%" width="100%" x="0" y="0" style="display:inline;fill:#a7e46a;fill-opacity:1;stroke:none;stroke-width:1;stroke-miterlimit:4;stroke-dasharray:none;stroke-opacity:1;filter:url(#textureGrassBig)" />
</g>
<g inkscape:groupmode="layer" id="grass_texture2_layer" inkscape:label="Grass Texture Small" style="display:inline" sodipodi:insensitive="true" >
  <use xlink:href="#grass" height="100%" width="100%" x="0" y="0" style="display:inline;fill:#8cdd3d;fill-opacity:1;stroke:none;stroke-width:1;stroke-miterlimit:4;stroke-dasharray:none;stroke-opacity:1;filter:url(#textureGrassSmall)" />
</g>
<g inkscape:groupmode="layer" id="grass_master_layer" inkscape:label="Grass Master" style="display:none" sodipodi:insensitive="true" >
  <path id="grass" style="color:#000000;clip-rule:nonzero;display:inline;overflow:visible;visibility:visible;opacity:1;isolation:auto;mix-blend-mode:normal;color-interpolation:sRGB;color-interpolation-filters:linearRGB;solid-color:#000000;solid-opacity:1;fill-opacity:1;fill-rule:evenodd;filter:url(#blurGrass);color-rendering:auto;image-rendering:auto;shape-rendering:auto;text-rendering:auto;enable-background:accumulate" d="m 101.25,-11.25 0,11.25 c 0,3.75 0.60068,7.548422 0,11.25 -0.94976,5.852709 -8.175236,13.772291 -9.125,19.625 0.779486,11.198224 -0.380408,18.25043 0.25,28 0.963268,4.08047 1.520551,13.376517 3.125,17.25 2.26903,5.477932 6.42524,9.522291 7.375,15.375 0.60068,3.701578 -1.61278,11.00251 -1.75,14.75 -0.28673,7.83047 2.37826,15.81781 5.375,18.75 8.94263,8.75 18.52055,7.62348 15.625,-14.75 -0.76101,-5.88023 0.43237,-16.182373 4.625,-20.375 4.19263,-4.192627 8.54865,-8.519966 13.875,-11.125 6.07298,-2.970195 6.39749,-8.666155 13.125,-8 5.27749,0.522575 11.25,4.25 15,8 3.75,3.75 6.73874,8.46189 11.25,11.25 5.04374,3.117202 16.54709,2.710772 16.125,8.625 -0.82073,11.5 0.94573,21.875 7.125,19.125 5.41704,-2.41078 11.33126,-10.2422 19.375,-15.125 2.26671,-1.37596 11.17519,-2.38974 13.625,-1.375 3.46455,1.43506 7.5,0 11.25,0 l 11.25,0 0,-112.5 z m 47.8125,166.5625 c -0.9767,-0.55983 -2.26072,0.33957 -3.375,0.5 -2.51065,0.36147 -5.32845,-0.15787 -6.875,0 -1.41906,0.14486 -0.33206,3.38614 0.375,4.625 1.17435,2.05761 3.31046,1.08918 5,2.75 1.76818,1.73813 4.1477,4.40601 4.375,6.875 0.18528,2.01264 -0.71222,4.4656 -1.375,6.375 -0.80741,2.32607 -4.80993,3.29981 -4,5.625 0.67671,1.94272 3.13029,4.61773 5.5,5.75 2.09526,1.00113 4.77592,3.86809 6.875,2.875 1.6538,-0.78242 4.11772,-1.58584 4.5,-3.375 0.42016,-1.96643 -2.01682,-7.14634 -2.375,-9.125 -0.38343,-2.11817 -0.82935,-4.24985 -1.625,-6.25 -0.70307,-1.76741 -2.1655,-3.18991 -2.75,-5 -0.63207,-1.95739 -0.12773,-4.16447 -0.75,-6.125 -0.77263,-2.43426 -1.28425,-4.22996 -3.5,-5.5 z m -84.019531,48.2793 c -4.184526,-0.26052 -11.426889,4.02704 -14.828125,6.47851 -6.453392,4.65134 -8.847794,11.82242 -14.839844,17.05469 -6.949912,6.06868 -15.360899,9.45345 -24.125,9.125 l -11.25,0 -11.25,0 0,112.5 157.5,0 0,-11.25 c 0,0 -1.97149,-8.06006 0,-11.25 4.18829,-7.61545 9.78854,-16.38235 11.25,-22.5 1.92654,-8.16094 15.09317,-13.47302 13.75,-21.75 -2.67041,-6.11134 -6.24539,-5.83693 -3.5,-12.5 2.15259,-5.19682 5.29236,-9.90047 1,-16.375 -2.31668,-3.49444 -0.66173,-9.91953 -1.625,-14 -0.43079,-1.82484 -1.01839,-5.09413 -2.75,-4.375 -4.96048,2.06005 -12.89689,8.46398 -18.125,12.75 -4.10127,3.36223 -9.63913,9.08437 -14.75,10.5 -12.04789,1.03531 -28.5128,-8.00192 -35.875,-16.125 -5.549383,-6.28624 -5.700617,-16.21376 -11.25,-22.5 -4.474056,-5.06813 -12.584686,-15.36313 -19.332031,-15.7832 z" inkscape:connector-curvature="0" />
</g>
<g inkscape:groupmode="layer" id="forest_shadow_layer" inkscape:label="Forest Shadow" style="display:inline" sodipodi:insensitive="true" >
  <g style="filter:url(#blurForestShadow)" >
    <use xlink:href="#forest" height="100%" width="100%" x="0" y="0" style="display:inline;opacity:0.75;fill:#258c1b;fill-opacity:1;filter:url(#roughenForest)" />
  </g>
</g>
<g inkscape:groupmode="layer" id="forest_fill_layer" inkscape:label="Forest Fill" style="display:inline" sodipodi:insensitive="true" >
  <use xlink:href="#forest" height="100%" width="100%" x="0" y="0" style="fill:#83d700;fill-opacity:1;stroke:none;stroke-width:1.5;stroke-miterlimit:4;stroke-dasharray:none;stroke-opacity:1;filter:url(#roughenForest)" />
</g>
<g inkscape:groupmode="layer" id="forest_texture_big_layer" inkscape:label="Forest Texture Big" style="display:inline" sodipodi:insensitive="true" >
  <g style="filter:url(#textureForestBig)" >
    <use xlink:href="#forest" height="100%" width="100%" x="0" y="0" style="fill:#548c00;fill-opacity:1;stroke:none;stroke-width:1.5;stroke-miterlimit:4;stroke-dasharray:none;stroke-opacity:1;filter:url(#roughenForest)" />
  </g>
</g>
<g inkscape:groupmode="layer" id="forest_texture_small_layer" inkscape:label="Forest Texture Small" style="display:inline" sodipodi:insensitive="true" >
  <g style="filter:url(#textureForestSmall)" >
    <use xlink:href="#forest" height="100%" width="100%" x="0" y="0" style="fill:#78c125;fill-opacity:1;stroke:none;stroke-width:1;stroke-miterlimit:4;stroke-dasharray:none;stroke-opacity:1;filter:url(#roughenForest)" />
  </g>
</g>
<g inkscape:groupmode="layer" id="forest_outline_layer" inkscape:label="Forest Outline" style="display:inline" sodipodi:insensitive="true" >
  <use xlink:href="#forest" height="100%" width="100%" x="0" y="0" style="fill:none;fill-opacity:1;stroke:#006800;stroke-width:1.5;stroke-miterlimit:4;stroke-dasharray:none;stroke-opacity:1;filter:url(#roughenForest)" />
</g>
<g inkscape:groupmode="layer" id="forest_master_layer" inkscape:label="Forest Master" style="display:none" sodipodi:insensitive="true" >
  <path id="forest" style="color:#000000;clip-rule:nonzero;display:inline;overflow:visible;visibility:visible;opacity:1;isolation:auto;mix-blend-mode:normal;color-interpolation:sRGB;color-interpolation-filters:linearRGB;solid-color:#000000;solid-opacity:1;fill-opacity:1;fill-rule:nonzero;color-rendering:auto;image-rendering:auto;shape-rendering:auto;text-rendering:auto;enable-background:accumulate" d="m 150.9668,-7.2148438 c -2.39505,0.00369 -4.58543,1.5011732 -5.66797,3.875 -2.07399,-0.889725 -5.02329,-1.3984213 -8.11914,-1.4003906 -4.54292,0.00221 -8.61142,1.0890558 -10.22852,2.7324219 -0.6163,-2.5140687 -2.01422,-4.1420481 -3.56055,-4.1464844 -0.1765,0.00285 -0.35269,0.026991 -0.52734,0.072266 -0.39627,-0.2783165 -0.81637,-0.4225385 -1.24023,-0.4257813 -1.9533,-0.00161 -3.53719,2.9274184 -3.53711,6.54101562 0.002,1.90284798 0.45202,3.70966888 1.23242,4.94921878 -0.33556,1.0276463 -0.52471,2.4283958 -0.52539,3.890625 9.7e-4,2.4432068 0.52355,4.5893118 1.28125,5.2617188 0.52625,3.095193 1.924,5.163675 3.49219,5.167968 0.56044,-0.0026 1.11332,-0.271026 1.61718,-0.785156 0.18985,1.223825 1.59361,2.22888 3.47266,2.486328 0.41785,1.338029 1.61603,2.244551 2.96875,2.246094 l 0.008,0 c 0.65088,3.014594 4.28046,5.240595 8.55078,5.244141 0.65776,-0.0022 1.31302,-0.05789 1.95313,-0.166016 -0.004,0.05528 -0.007,0.110629 -0.008,0.166016 2.4e-4,2.147193 1.81966,3.887924 4.06445,3.888671 2.24556,2.88e-4 4.06617,-1.740746 4.06641,-3.888671 -0.003,-1.487334 -0.89205,-2.842933 -2.29102,-3.492188 0.10791,-0.158386 0.20631,-0.319992 0.29492,-0.484375 0.67545,0.514327 1.50064,0.793507 2.34961,0.794922 2.14756,-2.3e-4 3.88844,-1.741114 3.88867,-3.888672 4.3e-4,-1.418251 -0.77122,-2.724286 -2.01367,-3.408203 0.43303,-0.393124 0.82772,-0.86596 1.17383,-1.40625 0.36539,0.605588 0.77591,0.924059 1.19336,0.925781 1.36764,0.0028 2.47677,-3.322847 2.47656,-7.425781 -0.001,-2.5257061 -0.43002,-4.876586 -1.13867,-6.2402341 0.73704,-1.1779312 1.13417,-2.5770966 1.13867,-4.01171872 6e-4,-3.90626158 -2.84959,-7.07304458 -6.36523,-7.07226598 z m 45.96289,0 c -1.94321,9.46e-4 -3.73047,1.6668095 -4.65821,4.3417969 -1.83922,-0.7373207 -4.44802,-1.1585291 -7.18554,-1.1601562 -2.7671,0.00108 -5.40185,0.4308522 -7.24414,1.1816406 -0.93767,-2.3066126 -2.37281,-3.6546202 -3.89258,-3.65625 -2.73441,-0.00152 -4.95144,4.2733611 -4.95117,9.546875 0.003,2.0383733 0.34483,4.0211894 0.97461,5.6582031 -0.17496,0.7617726 -0.26681,1.6104974 -0.26758,2.4726564 1.4e-4,2.929372 1.02944,5.303668 2.29883,5.302734 0.66651,-7.27e-4 1.30006,-0.669193 1.73632,-1.832031 0.14039,0.979944 0.37962,1.874699 0.69922,2.615234 -1.41712,0.763603 -2.25693,1.983763 -2.25976,3.283203 -4e-4,2.245841 2.45347,4.066568 5.48047,4.066407 1.43923,-1.69e-4 2.8206,-0.420403 3.8457,-1.169922 0.61665,0.3595 1.30454,0.606929 2.02539,0.728515 -0.0236,0.204845 -0.036,0.410901 -0.0371,0.617188 -2.1e-4,3.02649 2.37388,5.480149 5.30274,5.480469 0.49494,-7.24e-4 0.98735,-0.07304 1.46289,-0.214844 -0.0308,0.187759 -0.0471,0.377831 -0.0488,0.568359 2e-4,1.952726 1.50428,3.535513 3.35937,3.535157 1.67905,-0.0022 3.09865,-1.309148 3.32422,-3.060547 0.37477,0.120822 0.76158,0.193596 1.15235,0.216797 -0.26903,0.568502 -0.40806,1.173064 -0.41016,1.783203 -9.6e-4,2.734018 2.68988,4.950878 6.00976,4.951172 1.77988,-5.52e-4 3.46792,-0.650733 4.60938,-1.775391 0.85358,0.910674 1.98873,1.419848 3.16992,1.421875 0.48326,-0.0027 0.96311,-0.09034 1.42188,-0.259766 -0.003,0.02732 -0.006,0.05467 -0.008,0.08203 0.002,0.626327 0.33525,1.239922 0.96289,1.771484 -1.06885,0.990176 -1.66834,2.321682 -1.66992,3.708984 3.4e-4,2.928143 2.61107,5.301932 5.83203,5.302735 0.23911,-0.0023 0.47785,-0.01794 0.71485,-0.04687 -0.11992,0.591653 -0.18163,1.201582 -0.1836,1.814453 0.002,2.14865 0.73634,4.179608 1.9961,5.519531 -0.82646,0.947928 -1.28714,2.197425 -1.28907,3.496094 -2.2e-4,2.831665 2.13706,5.127231 4.77344,5.126953 l 0.002,0 c 1.21764,2.39851 3.51483,3.885409 6.00781,3.888672 0.12841,-0.0032 0.25671,-0.01037 0.38476,-0.02148 0.2917,0.722105 0.87683,1.330112 1.64844,1.712891 -0.0559,0.258842 -0.0854,0.520736 -0.0879,0.783203 3.3e-4,1.332161 0.69105,2.60798 1.91602,3.539063 -0.33053,0.445406 -0.50141,0.926115 -0.50196,1.412109 3.5e-4,1.952327 2.69081,3.534949 6.00977,3.535156 2.3064,-0.0017 4.40777,-0.779522 5.4082,-2.001953 0.96026,1.066956 2.09321,1.640908 3.25391,1.648438 3.22218,3.16e-4 5.8343,-4.274209 5.83398,-9.546875 -7.2e-4,-2.789672 -0.74713,-5.43924 -2.04297,-7.251953 3.95062,-1.450322 6.63349,-5.663668 6.63868,-10.425782 -0.006,-5.016647 -2.97779,-9.388234 -7.21485,-10.613281 0.55653,-1.776607 0.84988,-3.783641 0.85156,-5.826172 -0.002,-3.984713 -1.11012,-7.700661 -2.94921,-9.888672 1.79054,-1.610617 2.94659,-5.218117 2.94921,-9.203125 -7.8e-4,-5.199842 -1.9451,-9.5445127 -4.48828,-10.0292965 0.16137,-0.8616896 0.24477,-1.7763491 0.2461,-2.6992187 4e-5,-4.1986639 -1.66238,-7.6022177 -3.71289,-7.6015626 -0.65724,0.00337 -1.30225,0.3639592 -1.86914,1.0449219 -1.09864,-1.497538 -3.47268,-2.4567515 -6.08594,-2.4589843 -2.15264,0.00143 -4.1738,0.6543285 -5.43555,1.7558593 -1.15415,-1.9545264 -3.33446,-3.1668049 -5.70117,-3.1699219 -2.59878,0.00144 -4.95014,1.4581005 -5.99023,3.7109376 -0.49844,-0.346396 -1.05073,-0.5278186 -1.61133,-0.5292969 -1.95261,2.788e-4 -3.53535,2.1374134 -3.53516,4.77343748 0.002,0.99113772 0.23157,1.95705182 0.6582,2.76367182 -0.57629,0.1004657 -1.12576,0.2666924 -1.62695,0.4921876 0.17219,1.3890564 0.26084,2.8610814 0.26172,4.3457031 -0.002,3.6273251 -0.52671,7.0694071 -1.43555,9.4160151 -0.12736,-0.0039 -0.25508,-0.0065 -0.38281,-0.0078 -1.18963,5.31e-4 -2.35999,0.116022 -3.4043,0.335938 0.0184,-0.111279 0.0282,-0.223513 0.0293,-0.335938 3.7e-4,-1.292765 -1.13277,-2.37255 -2.61328,-2.490234 -0.63987,-1.529388 -1.0321,-4.289897 -1.0332,-7.2714848 0.001,-0.765556 0.028,-1.5270233 0.0801,-2.2636718 -0.71664,-0.6735739 -1.65619,-1.1072657 -2.66992,-1.2324219 0.30749,-1.0683424 0.46723,-2.2265102 0.46875,-3.3984375 3e-5,-4.5883459 -2.374,-8.3080999 -5.30273,-8.3085938 z m -1.02735,16.4375 c 0.24281,0.078991 0.48886,0.1312024 0.73633,0.15625 -0.41056,1.1267598 -0.63581,2.5299628 -0.63867,3.9785158 -0.0946,-0.01534 -0.18973,-0.02837 -0.28516,-0.03906 0.18728,-0.689808 0.28445,-1.437205 0.28516,-2.193359 -7.2e-4,-0.631947 -0.0688,-1.2587322 -0.20117,-1.8515625 0.0348,-0.01681 0.0693,-0.033737 0.10351,-0.050784 z m -54.9082,3.0761718 c 0.83767,0.277116 1.75309,0.468132 2.70508,0.564453 0.31455,1.934414 1.10512,3.644425 2.22851,4.820313 -1.55404,-0.985884 -3.55257,-1.539761 -5.63085,-1.560547 -0.3816,-1.630761 -2.45339,-2.831436 -4.88672,-2.832031 -0.29144,1.8e-4 -0.58228,0.01782 -0.86914,0.05273 0.007,-0.0182 0.0132,-0.03643 0.0195,-0.05469 0.0475,8.08e-4 0.095,0.0015 0.14257,0.002 2.39872,-9.34e-4 4.68425,-0.361397 6.29102,-0.992188 z m 38.5293,1.800781 c 0.60219,0.393845 1.30585,0.604197 2.02539,0.605469 0.0541,-1.2e-4 0.10811,-0.0014 0.16211,-0.0039 -0.91304,0.480933 -1.6593,1.183888 -2.1543,2.029297 -0.18105,-0.05017 -0.36555,-0.0932 -0.55273,-0.128907 0.24874,-0.744675 0.42564,-1.596611 0.51953,-2.501959 z m 11.05468,1.582032 c -0.35534,0.551181 -0.58445,1.160821 -0.67382,1.792968 -0.20918,-0.552336 -0.52096,-1.068221 -0.92188,-1.52539 0.54644,-0.04846 1.08206,-0.138279 1.5957,-0.267578 z m -64.02539,0.451171 c 0.0189,0.0059 0.0375,0.01179 0.0567,0.01758 -0.027,0.01477 -0.0537,0.02974 -0.0801,0.04492 0.008,-0.02075 0.0156,-0.04158 0.0234,-0.0625 z m 20.6543,2.566407 c 0.14049,0.08212 0.28318,0.156395 0.42774,0.222656 -0.0328,0.04166 -0.0647,0.08399 -0.0957,0.126953 -0.10507,-0.119202 -0.21581,-0.235806 -0.33203,-0.349609 z m 46.4668,3.943359 c 0.24707,0.06457 0.49904,0.112876 0.7539,0.144531 -0.17633,0.243443 -0.33251,0.502888 -0.46679,0.775391 -0.0693,-0.314781 -0.16537,-0.622618 -0.28711,-0.919922 z m 10.59765,0.326172 c 0.46585,0.243316 0.97395,0.442882 1.51172,0.59375 0.13387,1.946529 1.28729,3.712338 3.09375,4.736328 -0.43169,0.321607 -0.81141,0.722461 -1.12304,1.185547 -1.11222,-0.861262 -2.58074,-1.341691 -4.10743,-1.34375 -0.26469,0.0019 -0.52893,0.01823 -0.79101,0.04883 0.28708,-0.682138 0.43618,-1.421645 0.4375,-2.169922 -0.001,-0.865802 -0.20049,-1.718087 -0.58008,-2.482422 0.53699,-0.02738 1.06589,-0.220252 1.55859,-0.568361 z m 39.6211,0.580078 0.0137,0.02734 c -0.0248,0.01406 -0.0495,0.02838 -0.0742,0.04297 0.0203,-0.02332 0.0402,-0.04675 0.0606,-0.07031 z m -126.86719,2.117188 c -1.56222,1.8e-4 -2.82846,1.346002 -2.82812,3.005859 10e-4,0.749194 0.26605,1.470832 0.74218,2.023437 -0.25143,0.640279 -0.38776,1.418524 -0.38867,2.21875 -1.7e-4,2.051052 0.87095,3.713699 1.94531,3.712891 1.0736,-0.0012 1.94353,-1.663294 1.94336,-3.712891 -5.7e-4,-0.53271 -0.0612,-1.058947 -0.17773,-1.542968 0.97341,-0.50181 1.59211,-1.54966 1.59375,-2.699219 3.4e-4,-1.66067 -1.2671,-3.00683 -2.83008,-3.005859 z m 99.75195,1.90625 c 0.40081,0.945459 1.09282,1.797213 2.01368,2.478515 -0.70261,0.749827 -1.25849,2.299614 -1.5293,4.263672 -0.60155,0.102054 -1.17094,0.250822 -1.68945,0.441406 0.29375,-0.685595 0.44719,-1.435452 0.44921,-2.195312 -0.002,-1.415141 -0.5274,-2.766642 -1.45312,-3.734375 0.82012,-0.278121 1.57124,-0.704489 2.20898,-1.253906 z m 4.66602,3.753906 c 0.55742,0.157558 1.13622,0.263091 1.72461,0.314453 -0.28172,0.69411 -0.42688,1.422507 -0.42969,2.15625 0.002,0.320372 0.0316,0.640199 0.0879,0.957031 -0.18971,-0.07074 -0.38662,-0.135938 -0.58984,-0.195312 -0.15609,-1.256988 -0.42996,-2.373406 -0.79297,-3.232422 z m 3.75,7.314453 c 0.5813,0.470396 1.24379,0.863547 1.96484,1.166016 -1.54056,0.687889 -2.71678,1.82305 -3.30078,3.185547 -0.0195,-8.11e-4 -0.0391,-0.0015 -0.0586,-0.002 -0.002,-0.976379 -0.29965,-1.933408 -0.86133,-2.765625 1.03666,-0.396249 1.82284,-0.948272 2.25586,-1.583984 z m 3.88476,12.003906 c 0.47346,0.08152 0.9558,0.122753 1.43946,0.123047 0.40987,-8e-6 0.81896,-0.02942 1.22265,-0.08789 0.13197,0.03902 0.265,0.0638 0.39844,0.07422 0.0876,0.908127 0.20321,1.796986 0.34571,2.658203 -0.79607,-0.343739 -1.64313,-0.521237 -2.49805,-0.523437 -0.46679,0.0034 -0.93207,0.05899 -1.38867,0.166016 0.26598,-0.759088 0.42868,-1.575161 0.48046,-2.410159 z m -121.06835,0.123047 c -1.2688,0.0015 -2.29699,2.296544 -2.29688,5.126953 5.3e-4,0.93073 0.11464,1.843578 0.33008,2.640625 -0.44252,0.61356 -0.68255,1.362468 -0.68359,2.132813 2e-4,1.951924 1.50309,3.534379 3.35742,3.535156 1.00349,-5.63e-4 1.95418,-0.473399 2.59179,-1.289063 0.9705,0.376132 2.1765,0.581377 3.41993,0.582032 3.02727,1.02e-4 5.48125,-1.187535 5.48046,-2.652344 -10e-4,-1.464047 -2.45476,-2.650493 -5.48046,-2.650391 -1.15791,10e-4 -2.2854,0.179469 -3.22071,0.509766 -0.33006,-0.517449 -0.7842,-0.933859 -1.3164,-1.207031 0.0769,-0.51659 0.11648,-1.057216 0.11718,-1.601563 1.1e-4,-2.832099 -1.02926,-5.127844 -2.29882,-5.126953 z m 135.90039,10.035156 c 0.2585,0.182414 0.52442,0.350574 0.79687,0.503907 -0.28756,0.322555 -0.55686,0.686642 -0.80469,1.08789 0.031,-0.279657 0.0473,-0.561496 0.0488,-0.84375 -0.002,-0.250111 -0.0157,-0.49987 -0.041,-0.748047 z m -1.39454,5.214844 c -0.0525,0.248075 -0.0988,0.49959 -0.13867,0.753906 -0.10911,-0.06928 -0.22115,-0.135722 -0.33593,-0.199218 0.1673,-0.172681 0.3258,-0.357929 0.4746,-0.554688 z m -125.84374,11.97461 c -1.78553,0.0016 -3.37828,0.655057 -3.98438,1.634765 -0.54312,-0.144964 -1.10597,-0.219266 -1.67188,-0.220703 -3.31937,3.26e-4 -6.01,2.453983 -6.00976,5.480469 0.001,2.387245 1.69761,4.498999 4.19336,5.220703 -0.19922,0.738195 -0.30356,1.553542 -0.30469,2.380859 1.7e-4,2.928494 1.26627,5.302427 2.82813,5.302735 1.49829,-0.0035 2.73517,-2.197192 2.82031,-5.001954 0.23597,0.03353 0.47511,0.05119 0.71484,0.05273 2.34404,6.56e-4 4.24457,-1.50368 4.24414,-3.359375 -0.003,-1.382879 -1.07538,-2.623198 -2.70312,-3.125 0.14836,-0.47859 0.22458,-0.973366 0.22656,-1.470703 -7.3e-4,-0.665547 -0.13442,-1.325406 -0.39453,-1.947266 l 0.041,0.002 c 2.34354,4.83e-4 4.24389,-1.107536 4.24414,-2.474609 -2.5e-4,-1.367073 -1.90059,-2.475092 -4.24414,-2.474609 z M 112.7832,102.0332 c -0.55308,-9e-5 -1.08431,0.44984 -1.48047,1.25391 -0.37709,-0.12672 -0.77211,-0.19201 -1.16992,-0.19336 -2.05071,-3.2e-4 -3.71321,1.66218 -3.71289,3.71289 0.002,1.27644 0.6588,2.46255 1.74024,3.14063 -0.21497,0.46001 -0.32591,0.95494 -0.32618,1.45507 5e-4,1.08074 0.5168,2.10763 1.41407,2.8125 l 0,0.0156 c 10e-4,1.5532 0.90698,2.84948 2.08984,2.99023 -0.0573,0.37474 -0.0869,0.76339 -0.0879,1.1543 0,2.27817 0.95139,4.125 2.125,4.125 0.90765,-0.002 1.71429,-1.12378 2.00781,-2.79102 0.0176,8.8e-4 0.0351,0.002 0.0527,0.002 1.65909,-10e-4 3.00372,-1.89994 3.0039,-4.24219 -0.001,-2.05512 -1.04533,-3.81365 -2.47851,-4.17383 -0.0332,-1.01139 -0.51717,-1.96658 -1.33985,-2.64453 0.18483,-0.66838 0.28247,-1.42589 0.28321,-2.19727 1.3e-4,-2.44078 -0.94952,-4.41967 -2.1211,-4.41992 z m 34.34961,59.5918 c -3.36375,0.52559 0.42578,5.78356 0.42578,7.82227 0.21254,3.59089 3.61577,5.43607 2.71485,8.95117 -0.4078,-0.12917 -2.93088,3.81007 -3.36133,3.80859 -3.58414,-0.375 -1.34766,1.59104 -1.34766,3.66211 0.002,1.32227 0.48036,2.28039 1.69336,2.95508 0.52137,1.66179 8.14404,2.424 9.74219,2.42578 2.07107,0 3.125,-3.72183 3.125,-6 -3.12503,-0.82559 -1.00113,-1.843 -1.68359,-2.61328 0.20396,-0.94164 0.93323,-2.34415 0.93359,-3.51172 -1.37587,-2.3317 -1.68604,-8.03315 -2.33594,-8.80664 -0.5691,-0.97445 0.0847,-0.70814 0.0859,-1.06836 -0.61872,-0.62913 -0.17148,-0.71079 -1.49414,-2.125 -1.01057,-1.76996 -3.6548,-2.97584 -3.30274,-4.375 1.9353,1.2394 -0.50439,-3.76 -1.32031,-1.75 0,0 -2.12496,-1.5 -3.87496,0.625 z m -78.896482,49.12695 c -3.124036,-6.3e-4 -5.657234,2.13558 -5.658203,4.77149 0.0013,0.0593 0.0039,0.11853 0.0078,0.17773 l -0.0078,0 c -2.536698,0.002 -4.761625,1.42864 -5.443359,3.49024 -0.632965,-0.20199 -1.30375,-0.30651 -1.980469,-0.3086 -3.124176,2.8e-4 -5.656557,2.13742 -5.65625,4.77344 0.0038,2.56366 2.40711,4.66692 5.443359,4.76367 0.160708,0.30576 0.359064,0.59642 0.591797,0.86719 -2.507369,0.53599 -4.264488,2.43866 -4.267578,4.62109 -3.07e-4,2.63602 2.532074,4.77316 5.65625,4.77344 2.719172,-9.2e-4 5.052853,-1.63409 5.556641,-3.88867 1.048449,1.32383 2.81022,2.11937 4.697265,2.12109 3.124176,-2.8e-4 5.656557,-2.13742 5.65625,-4.77344 -0.0011,-1.25873 -0.591473,-2.46614 -1.642578,-3.35937 1.050542,-0.89275 1.640862,-2.09936 1.642578,-3.35742 -0.0012,-0.0736 -0.0045,-0.14721 -0.0098,-0.22071 0.23761,0.0271 0.477025,0.0415 0.716796,0.043 0.3161,1.4e-4 0.631658,-0.0221 0.94336,-0.0664 0.09458,0.0651 0.191638,0.12767 0.291016,0.1875 -1.231122,0.90478 -1.938901,2.21424 -1.941407,3.59179 -3.07e-4,2.63602 2.532074,4.77316 5.65625,4.77344 3.124938,6.3e-4 5.65851,-2.13677 5.658203,-4.77344 -0.0029,-1.51223 -0.855009,-2.93382 -2.296875,-3.83203 1.231848,-0.90448 1.940362,-2.21398 1.94336,-3.59179 3.07e-4,-2.63667 -2.533265,-4.77407 -5.658203,-4.77344 -0.316752,-2.4e-4 -0.632968,0.022 -0.945313,0.0664 -0.932007,-0.66202 -2.092421,-1.05248 -3.308594,-1.11328 0.0054,-0.0637 0.0093,-0.12754 0.01172,-0.1914 -9.69e-4,-2.63526 -2.532977,-4.77121 -5.65625,-4.77149 z m -6.568359,20.31836 c -0.01774,0.0616 -0.03401,0.12343 -0.04883,0.18555 -0.04054,-0.0502 -0.08222,-0.0996 -0.125,-0.14844 0.05817,-0.0116 0.116121,-0.024 0.173828,-0.0371 z M 18.625,257 c -1.784503,5.5e-4 -3.366247,0.97466 -3.919922,2.41406 C 12.489117,259.14493 9.8407275,259.00026 7.125,259 -0.12373734,259 -6,260.00736 -6,261.25 c 0.00379,0.33904 0.4544684,0.67354 1.3183594,0.97852 -1.7863425,1.73033 -2.814886,4.24716 -2.8183594,6.89648 0.00385,3.91248 2.2281416,7.3868 5.5292969,8.63672 -3.480467,2.81588 -5.7786143,9.86953 -5.7792969,17.73828 0.00414,5.21827 1.0247317,10.20326 2.8222656,13.78516 -0.375089,1.35575 -0.5684587,2.77995 -0.5722656,4.21484 0.00355,2.17547 0.4427411,4.31503 1.2773438,6.22266 -2.0833747,3.23984 -3.2731556,7.83305 -3.2773438,12.65234 0,9.45788 4.4771525,17.125 10,17.125 3.9765274,-0.004 7.573858,-4.04211 9.162109,-10.28516 0.900663,1.28998 2.209866,2.0326 3.587891,2.03516 0.781231,-0.002 1.550029,-0.24203 2.238281,-0.69922 1.470443,3.19593 4.36131,5.19684 7.511719,5.19922 4.69442,0 8.5,-4.36522 8.5,-9.75 -0.0018,-0.84015 -0.09834,-1.67651 -0.287109,-2.48828 0.188891,-1.46967 0.286449,-3.0452 0.287109,-4.63672 -0.0015,-2.47561 -0.237317,-4.89043 -0.675781,-6.91992 0.764715,-1.37134 1.172223,-2.95873 1.175781,-4.58008 -0.0036,-2.39374 -0.886514,-4.67812 -2.4375,-6.30664 0.123221,-0.45534 0.187042,-0.94662 0.1875,-1.44336 -4.32e-4,-1.58324 -0.638572,-2.98288 -1.576172,-3.45703 -0.312557,-2.45355 -1.546213,-4.50767 -3.253906,-5.41797 1.158418,-0.80634 1.82821,-1.99581 1.830078,-3.25 0,-2.34721 -2.294541,-4.25 -5.125,-4.25 -0.829774,10e-4 -1.646798,0.1694 -2.380859,0.49023 -0.03304,-1.4581 -0.253208,-2.87335 -0.638672,-4.10546 0.336665,0.0738 0.6777,0.1123 1.019531,0.11523 1.322408,-0.003 2.608496,-0.5389 3.666016,-1.52734 0.276666,0.0171 0.55514,0.0263 0.833984,0.0273 1.336366,-8.4e-4 2.645312,-0.18629 3.777344,-0.53516 0.803077,1.15225 1.809167,1.78296 2.847656,1.78516 2.485281,0 4.5,-3.52576 4.5,-7.875 -0.0017,-2.2548 -0.555657,-4.40015 -1.521484,-5.89258 C 35.90595,275.41019 35.996994,275.08061 36,274.75 c -0.0044,-1.06319 -0.918477,-2.09139 -2.580078,-2.90234 0.21442,-0.48145 0.32526,-0.97596 0.330078,-1.47266 -0.0011,-2.22742 -2.124394,-4.27892 -5.544922,-5.35742 0.193895,-0.28805 0.293433,-0.5893 0.294922,-0.89258 3.5e-5,-1.58261 -2.613667,-2.86763 -5.847656,-2.875 0.06431,-0.24628 0.09705,-0.49774 0.09766,-0.75 0,-1.933 -1.846825,-3.5 -4.125004,-3.5 z M 62,259.75 c -0.966498,0 -1.75,0.50368 -1.75,1.125 0,0.62132 0.783502,1.125 1.75,1.125 0.966498,0 1.75,-0.50368 1.75,-1.125 0,-0.62132 -0.783502,-1.125 -1.75,-1.125 z m 22.625,3 c -1.173605,0 -2.125,1.84683 -2.125,4.125 8.66e-4,0.89721 0.152404,1.76941 0.431641,2.48438 -0.980574,0.56199 -1.62176,1.70146 -1.673829,2.9746 -0.166423,-0.0547 -0.336793,-0.0829 -0.507812,-0.084 -1.242641,0 -2.25,1.39911 -2.25,3.125 0.0011,0.84474 0.248417,1.65287 0.685547,2.24023 -1.335742,0.60536 -2.184499,1.87129 -2.185547,3.25977 0,2.00203 1.734897,3.625 3.875,3.625 2.140103,0 3.875,-1.62297 3.875,-3.625 -2.55e-4,-1.45965 -0.936325,-2.77677 -2.375,-3.3418 0.349084,-0.50722 0.565106,-1.16285 0.613281,-1.86132 0.395138,0.21504 0.825705,0.32702 1.261719,0.32812 1.656854,0 3,-1.567 3,-3.5 -5.71e-4,-1.05789 -0.411241,-2.05872 -1.117188,-2.72266 0.394783,-0.77168 0.6166,-1.81478 0.617188,-2.90234 0,-2.27817 -0.951395,-4.125 -2.125,-4.125 z m -19.25,2.75 c -0.897463,0 -1.625,1.23122 -1.625,2.75 0,1.51878 0.727537,2.75 1.625,2.75 0.897463,0 1.625,-1.23122 1.625,-2.75 0,-1.51878 -0.727537,-2.75 -1.625,-2.75 z m -49.388672,11.6875 c 0.22156,0.14155 0.462174,0.27783 0.720703,0.4082 -0.183155,0.30521 -0.347678,0.62707 -0.492187,0.96289 -0.06509,-0.4645 -0.141353,-0.92209 -0.228516,-1.37109 z m 12.523438,1.83203 c -0.15485,0.76907 -0.240506,1.57555 -0.253907,2.39063 -0.179737,-0.0263 -0.361521,-0.0491 -0.544921,-0.0684 -0.06249,-0.75234 -0.214541,-1.48892 -0.451172,-2.18555 0.422851,-0.0353 0.840255,-0.0809 1.25,-0.13672 z M 104.25,283.25 c -1.51878,0 -2.75,1.06332 -2.75,2.375 4.3e-4,0.29543 0.0647,0.5882 0.18945,0.86328 -0.12387,0.50055 -0.18906,1.06381 -0.18945,1.63672 0,1.86396 0.67157,3.375 1.5,3.375 0.82843,0 1.5,-1.51104 1.5,-3.375 -2.6e-4,-0.0456 -9.2e-4,-0.0912 -0.002,-0.13672 1.41598,-0.11073 2.50078,-1.13538 2.502,-2.36328 0,-1.31168 -1.23122,-2.375 -2.75,-2.375 z m 45.125,0.25 c -1.03553,0 -1.875,1.00736 -1.875,2.25 0,1.24264 0.83947,2.25 1.875,2.25 1.03553,0 1.875,-1.00736 1.875,-2.25 0,-1.24264 -0.83947,-2.25 -1.875,-2.25 z m -133.0625,2.40039 0.0078,0.0176 -0.0098,0.006 0.002,-0.0234 z m 107.43164,4.75391 c -2.56698,0.003 -4.80978,1.46398 -5.46289,3.55859 -0.18239,-0.0153 -0.36555,-0.0231 -0.54883,-0.0234 -3.12418,2.8e-4 -5.65656,2.13742 -5.65625,4.77344 10e-4,1.73994 1.12456,3.34146 2.93164,4.17969 -0.40497,0.36825 -0.7385,0.78813 -0.98828,1.24414 -0.62214,-0.19434 -1.27995,-0.29483 -1.94336,-0.29688 -3.12327,2.8e-4 -5.65528,2.13623 -5.65625,4.77149 -5.1e-4,1.41693 0.74513,2.76081 2.03516,3.66797 -1.11606,0.50393 -2.07516,1.37936 -2.75391,2.51367 -0.67033,-0.22856 -1.38638,-0.34657 -2.10937,-0.34766 -3.12494,-6.3e-4 -5.658513,2.13677 -5.658206,4.77344 0.002,0.63486 0.154025,1.263 0.447265,1.84766 -0.932395,0.31378 -1.722024,0.70859 -2.324218,1.16211 C 95.409355,320.01307 94.494752,318.50355 93.5,318.5 c -1.932997,0 -3.5,5.54048 -3.5,12.375 0,6.83452 1.567003,12.375 3.5,12.375 1.014036,-10e-4 1.978077,-1.55738 2.642578,-4.26562 1.851731,2.87869 6.294482,4.76363 11.232422,4.76562 3.68478,-0.003 7.16752,-1.05936 9.46484,-2.87109 1.2651,4.43892 3.44487,7.12205 5.78516,7.12109 3.79696,0 6.875,-6.93959 6.875,-15.5 0,-3.34838 -0.47471,-6.44048 -1.27539,-8.97461 1.18649,-0.3841 2.21747,-1.35986 2.88086,-2.72656 0.8988,0.958 2.13299,1.49831 3.42187,1.49805 2.63602,2.7e-4 4.77316,-2.21557 4.77344,-4.94922 -0.002,-1.17979 -0.41105,-2.3199 -1.15234,-3.21485 1.38118,-0.81835 2.21188,-2.19967 2.21289,-3.67969 -0.002,-2.30594 -1.98963,-4.22284 -4.56445,-4.40234 -0.51513,-1.24248 -1.61554,-2.2503 -3.04102,-2.78516 1.23451,-0.90476 1.94462,-2.216 1.94726,-3.5957 -0.004,-2.53052 -2.34731,-4.61882 -5.34179,-4.75976 -0.31252,-2.41952 -2.73263,-4.25312 -5.61719,-4.25586 z m -110.707031,4.49804 c 0.02789,0.46486 0.07493,0.92415 0.140625,1.37305 -0.232822,-0.26421 -0.480355,-0.50195 -0.740234,-0.71094 0.204896,-0.20096 0.404994,-0.42192 0.599609,-0.66211 z m 110.160161,5.02344 c 0.0774,0.005 0.15487,0.008 0.23242,0.01 0.21782,1.6888 1.48306,3.15264 3.32226,3.84375 -1.23451,0.90476 -1.94462,2.216 -1.94726,3.5957 0.002,1.28627 0.62003,2.51727 1.71289,3.41406 -0.74475,0.12225 -1.45739,0.47689 -2.08008,1.03516 -0.0752,-0.90304 -0.45315,-1.76942 -1.08984,-2.49805 0.93568,-0.87493 1.45467,-2.01099 1.45703,-3.18945 -10e-4,-1.73994 -1.12456,-3.34146 -2.93164,-4.17969 0.63254,-0.57497 1.08736,-1.27263 1.32422,-2.03125 z m -103.335942,0.20313 c 0.586866,0.52763 1.325322,0.9234 2.146484,1.15039 -0.403445,0.37939 -0.765697,0.83368 -1.076171,1.34961 -0.848722,-0.36649 -1.831406,-0.57947 -2.847657,-0.61719 0.659692,-0.32132 1.270168,-0.96802 1.777344,-1.88281 z m -4.673828,1.13671 c 0.377068,0.40662 0.782943,0.69192 1.203125,0.84571 -0.393486,0.0621 -0.775815,0.15114 -1.140625,0.26562 l 0,-0.002 c -0.0021,-0.37139 -0.02301,-0.7421 -0.0625,-1.10938 z m -0.546875,7.63477 c 0.926799,0.39026 2.006179,0.59841 3.109375,0.59961 0.767258,-10e-4 1.526305,-0.10308 2.232422,-0.29883 0.170519,0.75599 0.432562,1.4682 0.77539,2.10742 -0.120559,0.14771 -0.236515,0.30017 -0.347656,0.45703 -1.1845,-1.11435 -2.994247,-1.76511 -4.910156,-1.76562 -0.195048,10e-4 -0.389923,0.009 -0.583984,0.0234 -0.07824,-0.37936 -0.170134,-0.75409 -0.275391,-1.12305 z M 64.5,309.5 c -0.384158,0.002 -0.757525,0.66281 -1.0625,1.88086 -2.166504,0.47437 -3.686006,2.17173 -3.6875,4.11914 2.87e-4,0.80975 0.265918,1.60258 0.765625,2.28516 -0.171184,-0.0223 -0.343314,-0.034 -0.515625,-0.0352 -1.038141,0.001 -2.047287,0.38765 -2.873047,1.09961 C 55.961006,317.06759 54.045988,316.00309 52,316 c -3.45178,0 -6.25,2.96611 -6.25,6.625 0.0029,0.50662 0.06052,1.01122 0.171875,1.50391 -0.429761,2.53736 -0.671811,6.00347 -0.671875,9.62109 0,7.45584 1.007359,13.5 2.25,13.5 0.833831,-0.003 1.598991,-2.773 1.988281,-7.19727 2.475861,2.93118 6.656664,4.69457 11.136719,4.69727 3.822129,-0.004 7.459565,-1.29119 9.994141,-3.53711 0.901295,3.189 2.230006,5.03233 3.630859,5.03711 2.623353,0 4.75,-6.32398 4.75,-14.125 -0.0028,-6.94032 -1.700764,-12.84632 -4.005859,-13.93359 0.0029,-0.0637 0.0048,-0.12755 0.0059,-0.19141 -0.0019,-2.2274 -1.089823,-4.11758 -2.558594,-4.44531 C 72.193975,311.48288 71.177273,310.00238 70,310 c -0.90288,10e-4 -1.735307,0.87823 -2.177734,2.29492 -0.647591,-0.4913 -1.432514,-0.82481 -2.275391,-0.9668 C 65.244887,310.14572 64.877647,309.50442 64.5,309.5 Z m 66.45898,2.875 c 0.19482,0.35896 0.44317,0.69272 0.73829,0.99219 -0.20819,0.15971 -0.40349,0.33672 -0.58399,0.52929 -0.28077,-0.57627 -0.62969,-1.0881 -1.0332,-1.51562 0.12668,0.009 0.25371,0.0154 0.38086,0.0176 0.16634,-0.002 0.33252,-0.009 0.49804,-0.0234 z m -8.52734,3.67188 c -0.0487,0.3213 -0.0787,0.64713 -0.0898,0.9746 -2.36175,0.22418 -4.51617,3.16709 -5.68946,7.82813 -0.7061,-0.21932 -1.45278,-0.39564 -2.21484,-0.55078 1.41248,-1.30831 2.23372,-3.27886 2.23438,-5.36133 -0.002,-0.76555 -0.11593,-1.52529 -0.33594,-2.24805 0.76572,0.31413 1.6056,0.47837 2.45703,0.48047 1.33175,-10e-4 2.62027,-0.39897 3.63867,-1.12304 z m -56.408202,7.05468 c 0.92255,1.03897 2.344448,1.64753 3.851562,1.64844 0.111426,0 0.22282,-0.003 0.333984,-0.01 -0.129936,0.61877 -0.243557,1.26654 -0.339843,1.9375 -1.173881,-0.8882 -2.544727,-1.60043 -4.044922,-2.10156 0.07558,-0.45602 0.142313,-0.94997 0.199219,-1.47461 z m -39.927735,3.09766 c -0.004,0.0468 -0.0079,0.0937 -0.01172,0.14062 l -0.01758,-0.004 c 0.01039,-0.0455 0.02016,-0.0911 0.0293,-0.13672 z" inkscape:connector-curvature="0" />
</g>
<g inkscape:groupmode="layer" id="routes_layer" inkscape:label="Routes" style="display:inline" sodipodi:insensitive="true" >
  <path style="display:inline;fill:none;stroke:#000000;stroke-width:2;stroke-linecap:round;stroke-miterlimit:4;stroke-dasharray:0.1, 5;stroke-dashoffset:0;stroke-opacity:1" d="m 120.54934,193.81279 c 7.08267,11.96408 18.38613,25.93715 15.87897,41.36131 m 68.06173,-26.126 c -22,-5.5 -40.07802,0.80343 -52.24004,-2.5481 -13.78664,-3.79923 -36.04923,-11.4141 -51.83021,-27.23528 C 91.71543,170.53819 81.63573,140.37113 77.8348,134.35061 70.09086,122.0845 64.19126,114.5026 51.02756,111.18576 41.38573,108.75632 28.54226,118.125 11.25,118.125 l -16.875,0 M 163.125,0 l 0,11.25 c 0,3.75 -1.5581,10.054758 -1.76777,13.194544 C 160.62673,35.383959 188.40635,47.968236 185.625,61.875 180,90 161.17383,93.17354 163.25001,110.625 c 2.48748,20.90874 21.66789,43.57326 21.66789,65.16421 0,28.125 33.70125,43.58579 45.7071,43.58579 l 16.87501,0 M 84.375,337.5 l 0,-11.25 c 0,-20.12069 0.19026,-34.37079 11.39466,-46.17462 13.45175,-14.17141 26.23919,-7.05719 35.48355,-33.15192" inkscape:connector-curvature="0" />
</g>
<g inkscape:groupmode="layer" id="labels_layer" inkscape:label="Labels" style="display:inline" sodipodi:insensitive="true" >
  <text xml:space="preserve"><textPath xlink:href="#port_rackham"><tspan
  style="-inkscape-font-specification:'CCTreasureTroveAged Mod, Normal';font-family:'CCTreasureTroveAged Mod';font-weight:normal;font-style:normal;font-stretch:normal;font-variant:normal;font-size:8.75px;text-anchor:start;text-align:start;writing-mode:lr;line-height:125%"
  >Port Rackham</tspan></textPath></text>
  <text xml:space="preserve"><textPath xlink:href="#port_tawny"><tspan
  style="-inkscape-font-specification:'CCTreasureTroveAged Mod, Normal';font-family:'CCTreasureTroveAged Mod';font-weight:normal;font-style:normal;font-stretch:normal;font-variant:normal;font-size:8.75px;text-anchor:start;text-align:start;writing-mode:lr;line-height:125%"
  >Port Tawny</tspan></textPath></text>
</g>
<g inkscape:groupmode="layer" id="labels_guide_layer" inkscape:label="Labels Guide" style="display:none" sodipodi:insensitive="true" >
  <path id="port_rackham" style="color:#000000;fill:none;stroke:#000000;stroke-width:1;stroke-opacity:1" d="M 128.875,219.75 C 117.375,203.25 94.25,183.875 70,179.125" inkscape:connector-curvature="0" />
  <path id="port_tawny" style="color:#000000;fill:none;stroke:#000000;stroke-width:1;stroke-opacity:1" d="m 176.375,113.5 c 7.75988,22.01646 15.16954,35.44924 30.625,50.125" inkscape:connector-curvature="0" />
</g>
<g inkscape:groupmode="layer" id="resources_layer" inkscape:label="Resources" style="display:inline" sodipodi:insensitive="true" >
  <g id="resource-squid" transform="matrix(0.88867667,0.45853438,-0.45853438,0.88867667,121.32957,186.8753)" >
    <circle cx="0.060593" cy="-110.109990" r="19.000000" style="opacity:1;fill:#ffffff;fill-opacity:1;stroke:#000000;stroke-width:0.89999998;stroke-linecap:round;stroke-linejoin:round;stroke-miterlimit:4;stroke-dasharray:none;stroke-dashoffset:0;stroke-opacity:1" />
    <g >
      <path style="color:#000000;clip-rule:nonzero;display:inline;overflow:visible;visibility:visible;opacity:1;isolation:auto;mix-blend-mode:normal;color-interpolation:sRGB;color-interpolation-filters:linearRGB;solid-color:#000000;solid-opacity:1;fill:#ffffff;fill-opacity:1;fill-rule:evenodd;stroke:none;stroke-width:0.89999998;stroke-linecap:round;stroke-linejoin:miter;stroke-miterlimit:4;stroke-dasharray:none;stroke-dashoffset:0;stroke-opacity:1;color-rendering:auto;image-rendering:auto;shape-rendering:auto;text-rendering:auto;enable-background:accumulate" d="m 3.751377,-125.43036 -1.988737,1.32582 -2.342292,2.2981 -1.988737,2.43068 -1.104855,2.2981 -0.707107,1.90035 0,1.14905 1.679379,0 -0.397747,1.98873 -0.574525,2.47488 -0.08839,2.34229 -0.08839,1.72357 0.839689,0.70711 1.767767,0.39775 1.856155,0.0442 1.414214,-0.17678 1.414213,-0.57453 0.309359,-0.83968 0.30936,-2.3423 -0.30936,-2.69584 -0.176776,-2.65165 1.723573,0.53033 0.04419,-2.20971 -0.220971,-3.7565 -0.397748,-3.27037 z" inkscape:connector-curvature="0" />
      <path style="fill:#000000;fill-opacity:1;fill-rule:evenodd;stroke:none;stroke-width:0.89999998;stroke-linecap:round;stroke-linejoin:miter;stroke-miterlimit:4;stroke-dasharray:none;stroke-opacity:1" d="m -11.427734,-116.71094 c -0.926654,0.068 -1.828354,0.58 -2.47461,0.98633 l 0.564453,0.62305 c 0.129027,-0.0692 1.250128,-0.8819 2,-0.93164 0.346707,-0.0382 0.804167,0.0783 1.076172,0.39453 0.868797,0.83085 0.783149,2.35847 0.419922,4.20312 -0.329865,1.37596 -0.389964,2.87205 -0.115234,4.36719 0.175945,1.03446 0.565056,2.09121 1.236328,2.96484 0.238071,-0.17566 0.474836,-0.35332 0.707031,-0.53906 0.01663,-0.0136 0.035924,-0.0238 0.052734,-0.0371 -0.6103851,-0.73211 -0.9647481,-1.69528 -1.1601561,-2.53906 -0.328551,-1.46718 -0.279657,-2.86872 -0.0332,-4.05078 0.451937,-2.07874 0.307063,-3.74395 -0.642578,-4.80469 -0.4323489,-0.47732 -1.0683939,-0.67465 -1.6308589,-0.63672 z" inkscape:connector-curvature="0" />
      <path style="fill:#000000;fill-opacity:1;fill-rule:evenodd;stroke:none;stroke-width:0.89999998;stroke-linecap:round;stroke-linejoin:miter;stroke-miterlimit:4;stroke-dasharray:none;stroke-opacity:1" d="m -3.796875,-104.89258 c -0.9058673,0.74517 -1.9188533,1.2608 -2.7324219,1.16406 -0.2030019,0.0833 -0.4030106,0.17309 -0.5839843,0.29102 -0.166691,0.11469 -0.3464295,0.21948 -0.5195313,0.33008 1.7036649,0.94245 3.731315,0.084 4.8828125,-1.03906 -0.3560506,-0.22586 -0.7057338,-0.47583 -1.046875,-0.7461 z" inkscape:connector-curvature="0" />
      <path style="fill:#000000;fill-opacity:1;fill-rule:evenodd;stroke:none;stroke-width:0.89999998;stroke-linecap:round;stroke-linejoin:miter;stroke-miterlimit:4;stroke-dasharray:none;stroke-opacity:1" d="m 4.1640625,-105.46289 c -0.327423,-0.0235 -0.6594367,-0.0232 -0.9921875,0.002 0.078825,0.37091 0.1521001,0.74306 0.2207031,1.11524 1.064043,-0.1503 2.1844576,0.0295 3.203125,0.45898 0.5236021,0.21983 1.046713,0.50703 1.5820313,0.79883 0.1250671,-0.19964 0.2209286,-0.4272 0.3164062,-0.65625 -0.4965073,-0.32152 -0.99925,-0.64667 -1.5488281,-0.92969 -0.8521322,-0.43734 -1.7989811,-0.71849 -2.78125,-0.78906 z" inkscape:connector-curvature="0" />
      <path style="fill:#000000;fill-opacity:1;fill-rule:evenodd;stroke:none;stroke-width:0.89999998;stroke-linecap:round;stroke-linejoin:miter;stroke-miterlimit:4;stroke-dasharray:none;stroke-opacity:1" d="m 9.625,-103.05469 c -0.082921,0.19334 -0.1803086,0.37972 -0.2832031,0.56446 1.0688811,0.48073 2.1976941,0.84215 3.3593751,1.0332 0.499799,0.10355 1.072452,0.1837 1.636719,0.125 0.45283,-0.10452 0.877972,-0.29289 1.207031,-0.60938 -0.854133,0.55171 -1.887915,0.33226 -2.777344,0.11524 -1.10459,-0.26639 -2.156407,-0.6956 -3.142578,-1.22852 z" inkscape:connector-curvature="0" />
      <path style="fill:#000000;fill-opacity:1;fill-rule:evenodd;stroke:none;stroke-width:0.89999998;stroke-linecap:round;stroke-linejoin:miter;stroke-miterlimit:4;stroke-dasharray:none;stroke-opacity:1" d="m 10.445312,-116.39648 c -0.400021,0.0106 -0.806202,0.0811 -1.207031,0.23632 -0.999585,0.47508 -1.487003,1.70748 -1.054687,2.81641 0.73612,1.87741 1.421348,4.07068 1.230468,6.24023 -0.185513,1.89331 -0.460829,3.94627 -1.800781,5.00196 -0.0014,0.001 -0.0025,0.003 -0.0039,0.004 0.320059,0.10607 0.638919,0.21521 0.96875,0.33985 1.230198,-1.44937 1.504195,-3.41815 1.582031,-5.29297 0.119976,-2.35443 -0.620703,-4.61346 -1.384765,-6.52539 -0.32491,-0.80541 0.06377,-1.75045 0.714844,-1.97071 1.477232,-0.63585 3.318013,0.63156 3.894531,1.04493 0.06075,-0.3217 0.119158,-0.65295 0.167968,-0.99219 -0.763734,-0.42041 -1.907357,-0.9341 -3.107422,-0.90234 z" inkscape:connector-curvature="0" />
      <path style="fill:#000000;fill-opacity:1;fill-rule:evenodd;stroke:none;stroke-width:0.89999998;stroke-linecap:round;stroke-linejoin:miter;stroke-miterlimit:4;stroke-dasharray:none;stroke-opacity:1" d="m 2.6855469,-104.19922 -1.3144531,0.16406 c 0.1478645,1.11047 0.8672943,2.90093 2.7285156,3.58399 1.0655975,0.34295 2.2839122,0.21217 3.3339844,-0.36719 -0.2485489,-0.0678 -0.4969496,-0.13368 -0.75,-0.21289 -0.00137,0 -0.00254,-0.002 -0.00391,-0.002 0,0 -0.00195,0 -0.00195,0 -0.3131724,-0.0869 -0.6261833,-0.19311 -0.9375,-0.31055 -0.4385291,0.0409 -0.8692013,-0.007 -1.2519532,-0.16992 -1.067961,-0.37978 -1.6828409,-1.60142 -1.8027343,-2.68555 z" inkscape:connector-curvature="0" />
      <path style="fill:#000000;fill-opacity:1;fill-rule:evenodd;stroke:none;stroke-width:0.89999998;stroke-linecap:round;stroke-linejoin:miter;stroke-miterlimit:4;stroke-dasharray:none;stroke-opacity:1" d="m -0.46875,-103.85156 c -0.37846744,0.0176 -0.7557959,0.0342 -1.1347656,0.0508 -0.026644,1.35579 -0.083772,2.68828 -0.4941406,3.89453 -0.018811,0.05778 -0.047295,0.112792 -0.068359,0.169922 0.0012,0.469321 0.048794,0.930808 0.1503906,1.380859 0.2763156,-0.394741 0.5250997,-0.814331 0.7148438,-1.271484 0.55095568,-1.351977 0.7212245,-2.820157 0.8320312,-4.224607 z" inkscape:connector-curvature="0" />
      <path style="fill:#000000;fill-opacity:1;fill-rule:evenodd;stroke:none;stroke-width:0.89999998;stroke-linecap:round;stroke-linejoin:miter;stroke-miterlimit:4;stroke-dasharray:none;stroke-opacity:1" d="m -3.1230469,-98.044922 c -0.150339,0.197077 -0.3095867,0.389682 -0.4746093,0.578125 -0.714018,0.796578 -1.6209216,1.450225 -2.6289063,1.658203 -0.2940814,0.05997 -0.6139042,0.05055 -0.90625,-0.02344 -0.4427004,-0.04353 -0.8708449,-0.242919 -1.1113281,-0.654297 0.2442222,0.763823 1.2067903,1.184368 2.09375,1.060547 1.1279747,-0.158128 2.18429,-0.790581 3.0175781,-1.617188 0.093062,-0.09152 0.1811077,-0.189952 0.2714844,-0.285156 -0.1018651,-0.234524 -0.1860307,-0.474028 -0.2617188,-0.716797 z" inkscape:connector-curvature="0" />
      <path style="fill:#000000;fill-opacity:1;fill-rule:evenodd;stroke:none;stroke-width:0.89999998;stroke-linecap:round;stroke-linejoin:miter;stroke-miterlimit:4;stroke-dasharray:none;stroke-opacity:1" d="m 4.025391,-125.87891 c -0.146221,-0.0305 -0.303081,0.0119 -0.398438,0.0742 -2.862666,1.87054 -4.880211,3.59029 -6.738281,6.62891 -0.99964,1.72264 -1.777144,3.35668 -1.810547,5.28516 0.006,0.2998 0.273432,0.52657 0.570313,0.48437 0.492456,-0.0709 0.875763,-0.10517 1.1875,-0.1289 -0.218167,0.7447 -0.421021,1.51009 -0.605469,2.3496 -0.397611,1.80973 -0.653445,4.36221 -0.396485,5.81446 0.19055,1.07692 1.186538,1.26127 1.898438,1.47656 0.7119,0.21529 1.794338,0.36669 2.455078,0.27539 1.69421,-0.23411 3.402492,-0.48676 3.824219,-1.49023 0.761046,-1.81087 0.168822,-5.57059 0.01758,-7.99219 0.372935,0.0863 0.744619,0.19639 1.097656,0.36523 0.33685,0.16216 0.647892,-0.0794 0.638672,-0.45312 0,0 -0.123941,-4.19409 -0.244141,-5.86719 -0.19297,-2.68575 -0.356893,-3.69695 -1.158203,-6.45703 -0.0561,-0.23143 -0.19167,-0.33476 -0.33789,-0.36523 z m -0.402344,0.98243 c 0.58883,2.15877 0.873399,3.54998 1.042969,5.91015 0.10223,1.42282 0.178435,4.57706 0.197265,5.32227 -0.75389,-0.22738 -1.480374,-0.38819 -2.083984,-0.44727 0.003,-0.93743 0.01185,-2.67282 0.09375,-4.53515 0.0553,-1.25832 -0.308848,-0.55533 -0.486328,0.38671 -0.38009,2.01743 -0.460938,3.48013 -0.460938,4.40821 -4e-4,0.25604 0.192656,0.47102 0.447266,0.49804 0.246719,0.026 0.520253,0.0702 0.785156,0.10547 0.293188,2.53888 0.74607,5.39541 0.132813,7.61133 -0.202142,0.73041 -3.4124,1.1779 -5.269532,0.78516 -0.518246,-0.1096 -1.363176,-0.31092 -1.404296,-1.08594 -0.0867,-1.63376 0.06432,-3.31607 0.320312,-4.73438 0.389151,-2.15602 1.088748,-4.27614 1.673828,-5.69726 l 0.941406,-2.46289 c 0.56898,-1.4466 0.362088,-1.65162 -0.632812,0.10156 -0.761329,1.50777 -1.310471,2.82853 -1.765625,4.1875 -0.192605,0.0238 -0.6893,0.0859 -1.246094,0.1543 0.0825,-0.52387 0.194473,-1.14129 0.470703,-1.9043 0.35929,-0.99241 0.811648,-1.98486 1.080078,-2.42383 1.64411,-2.6887 3.560553,-4.51162 6.164063,-6.17968 z" inkscape:connector-curvature="0" />
      <path style="fill:#000000;fill-opacity:1;fill-rule:evenodd;stroke:none;stroke-width:0.89999998;stroke-linecap:round;stroke-linejoin:miter;stroke-miterlimit:4;stroke-dasharray:none;stroke-opacity:1" d="m -2.5373427,-104.18887 c 0.3421635,0.16215 0.6859607,0.32221 1.0313325,0.48012 -0.9340133,2.13702 -1.3535777,4.738056 -0.2199471,6.841436 0,0 -1e-7,10e-7 -1e-7,10e-7 0.4977108,0.912316 0.5028499,2.106189 -0.1345524,2.837592 -4e-7,0 -4e-7,0 -4e-7,0 -0.5079821,0.590086 -1.4642213,0.666608 -1.9748687,0.199639 0.5287582,0.326069 1.2462055,0.121597 1.5702851,-0.288591 0.041842,-0.04156 0.079462,-0.08658 0.111943,-0.134807 0.4857643,-0.603214 0.3594186,-1.599406 -0.074296,-2.305366 -10e-8,0 -10e-8,0 -10e-8,0 -1.4089532,-2.272798 -1.2397643,-5.211664 -0.3098958,-7.630024 z" inkscape:connector-curvature="0" />
      <path style="fill:#000000;fill-opacity:1;fill-rule:evenodd;stroke:none;stroke-width:0.89999998;stroke-linecap:round;stroke-linejoin:miter;stroke-miterlimit:4;stroke-dasharray:none;stroke-opacity:1" d="m 2.3835041,-104.06671 c 0.3174615,-0.24063 0.6405059,-0.47527 0.9692112,-0.70375 0.6369547,1.29737 2.1141119,2.13063 3.6421499,2.7018 1.3112305,0.45566 2.9095093,0.83787 3.7952238,2.02156 0,0 0,0 0,0 0.5932,0.800014 0.736953,1.955226 0.161314,2.691399 -0.466912,0.602328 -1.3710736,0.816403 -1.952572,0.446967 0.6368576,0.257218 1.383809,-0.137615 1.639232,-0.653144 -2e-6,3e-6 0.0051,-0.0078 0.0051,-0.0078 0.434378,-0.572556 0.19779,-1.510827 -0.294284,-2.118239 0,0 0,-10e-7 0,-10e-7 -0.7344896,-0.948692 -2.2010381,-1.119902 -3.6049445,-1.560132 -1.6380276,-0.45356 -3.3202746,-1.28178 -4.3604604,-2.81866 z" inkscape:connector-curvature="0" />
      <path style="fill:#000000;fill-opacity:1;fill-rule:evenodd;stroke:none;stroke-width:0.89999998;stroke-linecap:round;stroke-linejoin:miter;stroke-miterlimit:4;stroke-dasharray:none;stroke-opacity:1" d="m -3.2239027,-105.35575 -0.4962606,1.35092 c -1.0480932,-0.46063 -2.4787863,-0.29871 -3.5206168,0.38222 0,0 -3e-7,0 -3e-7,0 -1.3656955,0.93961 -2.9325976,1.77851 -4.6273276,1.94569 0,0 -1e-6,0 -1e-6,0 -0.765571,0.0695 -1.508698,-0.0986 -2.185433,-0.35854 -0.608035,-0.2156 -1.286316,-0.55176 -1.572326,-1.1699 0.158398,0.10812 0.317934,0.17056 0.477991,0.20184 0.313188,0.27579 0.779492,0.42426 1.22658,0.5645 0.660228,0.18101 1.343102,0.27459 1.967694,0.15219 0,0 10e-7,0 10e-7,0 1.508118,-0.2724 2.8419377,-1.18921 4.0822788,-2.18158 0,0 5e-7,0 5e-7,0 1.2448518,-1.01542 3.0322554,-1.4126 4.64742,-0.88734 z" inkscape:connector-curvature="0" />
      <path style="fill:#000000;fill-opacity:1;fill-rule:evenodd;stroke:none;stroke-width:0.89999998;stroke-linecap:round;stroke-linejoin:miter;stroke-miterlimit:4;stroke-dasharray:none;stroke-opacity:1" d="m 1.6621094,-103.86719 c -0.4185714,0.0443 -0.83767516,0.0868 -1.2558594,0.12696 0.25950609,1.60191 0.8206852,3.24717 1.9023438,4.556636 0.342343,0.41542 0.5590507,0.954197 0.4804687,1.44336 -0.025283,0.246453 -0.1119591,0.496485 -0.2246094,0.751953 0.1634384,0.135566 0.3491558,0.240365 0.546875,0.314453 0.1631599,-0.298951 0.302037,-0.612493 0.3789063,-0.960938 0.1468187,-0.721817 -0.060504,-1.49206 -0.5,-2.099609 -0.8380808,-1.188455 -1.181556,-2.668875 -1.328125,-4.132815 z" inkscape:connector-curvature="0" />
      <path style="fill:#000000;fill-opacity:1;fill-rule:evenodd;stroke:none;stroke-width:0.89999998;stroke-linecap:round;stroke-linejoin:miter;stroke-miterlimit:4;stroke-dasharray:none;stroke-opacity:1" d="m 2.0175781,-95.949219 c -0.1436635,0.248282 -0.2873481,0.51336 -0.3984375,0.822266 -0.027528,0.140925 -0.048361,0.286201 -0.056641,0.433594 -2.467e-4,0.681216 0.4247003,1.144359 0.9003906,1.335937 -0.4098373,-0.294911 -0.6597598,-0.801902 -0.5390625,-1.265625 0.1089883,-0.402944 0.3428298,-0.741718 0.578125,-1.082031 -0.1691941,-0.0673 -0.3310469,-0.147961 -0.484375,-0.244141 z" inkscape:connector-curvature="0" />
      <path style="fill:#000000;fill-opacity:1;fill-rule:evenodd;stroke:none;stroke-width:0.89999998;stroke-linecap:round;stroke-linejoin:miter;stroke-miterlimit:4;stroke-dasharray:none;stroke-opacity:1" d="m -0.60141829,-103.73449 c 0.41989804,0.0218 0.83993975,0.0419 1.26010131,0.06 -0.0659788,1.5874 0.0745189,3.19567 0.54825348,4.721421 0,0 3e-7,0 3e-7,0 0.2210797,0.697025 0.4978677,1.375404 0.9689598,1.905354 0,0 5e-7,0 5e-7,0 0.3845928,0.434985 0.9522601,0.744799 1.5524436,0.724004 1.1452221,-0.0092 1.9169042,-1.552437 1.4518695,-2.768928 0.3599911,0.495931 0.5141682,1.195943 0.3843301,1.874168 -0.2819051,0.74386 -0.8986219,1.34968 -1.7797763,1.509444 -0.8169383,0.06458 -1.5929088,-0.260511 -2.1406711,-0.80816 -0.6154334,-0.618165 -1.00944317,-1.374126 -1.28897248,-2.114375 1.1e-7,0 -2.1e-7,-10e-7 -2.1e-7,-10e-7 -0.63428047,-1.632007 -0.9178233,-3.376937 -0.9565385,-5.102977 z" inkscape:connector-curvature="0" />
      <path style="fill:#000000;fill-opacity:1;fill-rule:evenodd;stroke:none;stroke-width:0.89999998;stroke-linecap:round;stroke-linejoin:miter;stroke-miterlimit:4;stroke-dasharray:none;stroke-opacity:1" d="m -3.3945312,-104.69922 c -0.3552481,1.42085 -1.0184522,2.85835 -2.2050782,3.54883 -0.032141,0.0187 -0.080618,0.0419 -0.1152344,0.0625 0.031118,0.13229 0.066803,0.26506 0.078125,0.39648 0.014507,0.1684 0.00634,0.33743 -0.00195,0.50586 0.1820691,-0.0904 0.3573596,-0.19054 0.5039063,-0.29687 1.372379,-0.86601 2.2647831,-2.35534 2.7050781,-3.9082 -0.321271,-0.10556 -0.6428638,-0.2091 -0.9648437,-0.3086 z" inkscape:connector-curvature="0" />
      <path style="fill:#000000;fill-opacity:1;fill-rule:evenodd;stroke:none;stroke-width:0.89999998;stroke-linecap:round;stroke-linejoin:miter;stroke-miterlimit:4;stroke-dasharray:none;stroke-opacity:1" d="m -6.8574219,-102.06641 c -0.092115,-0.0108 -0.1890786,-0.0102 -0.2910156,0.01 -0.418133,0.0808 -0.80098,0.41965 -0.8750005,0.85742 -0.06307,0.373 0.0048,0.78465 0.3886724,1.06445 0.3364651,0.245274 0.7423581,0.290742 1.1484375,0.22852 -0.00622,-0.17417 -0.017944,-0.33714 -0.03125,-0.48047 -0.00651,-0.0701 -0.03744,-0.18008 -0.0625,-0.28125 -0.1991158,0.0605 -0.3975277,0.0949 -0.5761719,0.041 -0.152411,-0.046 -0.2709456,-0.30962 -0.1972656,-0.49219 0.026637,-0.066 0.0676,-0.12052 0.1113281,-0.16797 0.014137,-0.015 0.029411,-0.0282 0.044922,-0.041 0.032512,-0.0274 0.068145,-0.0477 0.1054687,-0.0645 0.020292,-0.009 0.039261,-0.0199 0.060547,-0.0254 0.053423,-0.0142 0.1092213,-0.0193 0.1660156,-0.01 0.074812,0.0126 0.1488622,0.0453 0.2207032,0.10546 0.198543,0.16628 0.3222775,0.70139 0.3359374,0.88672 0.040162,0.545023 0.1414044,1.206348 -0.2597656,2.146488 0.546965,-0.610901 0.7818213,-1.516606 0.7070313,-2.384768 -0.031496,-0.36561 -0.1332691,-0.73326 -0.3613281,-1.0332 -0.043291,-0.0569 -0.096805,-0.11122 -0.1582032,-0.16016 -0.063737,-0.0508 -0.1366607,-0.0942 -0.2167968,-0.1289 -0.079938,-0.0346 -0.1666628,-0.0594 -0.2597657,-0.0703 z" inkscape:connector-curvature="0" />
      <ellipse cx="0.282143" cy="-107.896100" rx="0.508233" ry="0.861786" style="fill:#000000;fill-opacity:1;fill-rule:evenodd;stroke:none;stroke-width:0.89999998;stroke-linecap:round;stroke-linejoin:miter;stroke-miterlimit:4;stroke-dasharray:none;stroke-opacity:1" />
      <ellipse cx="-1.629467" cy="-107.984500" rx="0.508233" ry="0.861786" style="fill:#000000;fill-opacity:1;fill-rule:evenodd;stroke:none;stroke-width:0.89999998;stroke-linecap:round;stroke-linejoin:miter;stroke-miterlimit:4;stroke-dasharray:none;stroke-opacity:1" />
      <path style="color:#000000;clip-rule:nonzero;display:inline;overflow:visible;visibility:visible;opacity:1;isolation:auto;mix-blend-mode:normal;color-interpolation:sRGB;color-interpolation-filters:linearRGB;solid-color:#000000;solid-opacity:1;fill:#ffffff;fill-opacity:1;fill-rule:evenodd;stroke:#000000;stroke-width:0.72000003;stroke-linecap:round;stroke-linejoin:miter;stroke-miterlimit:4;stroke-dasharray:none;stroke-dashoffset:0;stroke-opacity:1;color-rendering:auto;image-rendering:auto;shape-rendering:auto;text-rendering:auto;enable-background:accumulate" d="m 16.079505,-112.80178 c 0,0 -0.534036,-1.98412 -1.352253,-2.375 -1.083027,-0.51738 -2.029029,0.0701 -1.654029,0.82009 0.375,0.75 2.381282,1.33616 3.006282,1.55491 z" inkscape:connector-curvature="0" />
      <path style="color:#000000;clip-rule:nonzero;display:inline;overflow:visible;visibility:visible;opacity:1;isolation:auto;mix-blend-mode:normal;color-interpolation:sRGB;color-interpolation-filters:linearRGB;solid-color:#000000;solid-opacity:1;fill:#ffffff;fill-opacity:1;fill-rule:evenodd;stroke:#000000;stroke-width:0.72000003;stroke-linecap:round;stroke-linejoin:miter;stroke-miterlimit:4;stroke-dasharray:none;stroke-dashoffset:0;stroke-opacity:1;color-rendering:auto;image-rendering:auto;shape-rendering:auto;text-rendering:auto;enable-background:accumulate" d="m -15.544194,-112.67678 c 0,0 -0.104921,-1.79881 0.731694,-2.49777 0.96875,-0.80936 1.875,-0.15625 1.59375,0.53125 -0.28125,0.6875 -1.825444,1.62277 -2.325444,1.96652 z" inkscape:connector-curvature="0" />
    </g>
  </g>
  <g id="resource-coconut" transform="matrix(-0.94277086,-0.33344132,0.33344132,-0.94277086,169.63346,144.19457)" >
    <circle cx="0.060593" cy="-110.109990" r="19.000000" style="opacity:1;fill:#ffffff;fill-opacity:1;stroke:#000000;stroke-width:0.89999998;stroke-linecap:round;stroke-linejoin:round;stroke-miterlimit:4;stroke-dasharray:none;stroke-dashoffset:0;stroke-opacity:1" />
    <g >
      <path style="color:#000000;clip-rule:nonzero;display:inline;overflow:visible;visibility:visible;opacity:1;isolation:auto;mix-blend-mode:normal;color-interpolation:sRGB;color-interpolation-filters:linearRGB;solid-color:#000000;solid-opacity:1;fill:#bc8434;fill-opacity:1;fill-rule:evenodd;stroke:#000000;stroke-width:0.89999998;stroke-linecap:round;stroke-linejoin:miter;stroke-miterlimit:4;stroke-dasharray:none;stroke-dashoffset:0;stroke-opacity:1;color-rendering:auto;image-rendering:auto;shape-rendering:auto;text-rendering:auto;enable-background:accumulate" d="m -4.5080282,-122.99352 c -6.3850178,2.15964 -8.5771578,9.38405 -8.0814268,14.88876 0.55563,6.16983 5.2811628,10.95294 12.64199276,8.10608 3.04329704,-1.17702 6.04119804,-6.34196 6.22442604,-11.57628 0.09818,-2.80474 -0.29778,-5.51103 -1.639173,-7.82455 -1.102579,-1.90162 -3.478014,-3.784 -6.173654,-4.24214 -1.590991,0.97227 -2.972165,0.64813 -2.972165,0.64813 z" inkscape:connector-curvature="0" />
      <ellipse cx="-120.424450" cy="-1.104729" rx="0.540407" ry="0.751301" style="color:#000000;clip-rule:nonzero;display:inline;overflow:visible;visibility:visible;opacity:1;isolation:auto;mix-blend-mode:normal;color-interpolation:sRGB;color-interpolation-filters:linearRGB;solid-color:#000000;solid-opacity:1;fill:#000000;fill-opacity:1;fill-rule:nonzero;stroke:none;stroke-width:0.89999998;stroke-linecap:butt;stroke-linejoin:round;stroke-miterlimit:4;stroke-dasharray:none;stroke-dashoffset:0;stroke-opacity:1;color-rendering:auto;image-rendering:auto;shape-rendering:auto;text-rendering:auto;enable-background:accumulate" transform="matrix(0.04286687,0.99908079,-0.99908079,0.04286687,0,0)" />
      <ellipse cx="-113.374070" cy="-41.165329" rx="0.530946" ry="0.662913" style="color:#000000;clip-rule:nonzero;display:inline;overflow:visible;visibility:visible;opacity:1;isolation:auto;mix-blend-mode:normal;color-interpolation:sRGB;color-interpolation-filters:linearRGB;solid-color:#000000;solid-opacity:1;fill:#000000;fill-opacity:1;fill-rule:nonzero;stroke:none;stroke-width:0.89999998;stroke-linecap:butt;stroke-linejoin:round;stroke-miterlimit:4;stroke-dasharray:none;stroke-dashoffset:0;stroke-opacity:1;color-rendering:auto;image-rendering:auto;shape-rendering:auto;text-rendering:auto;enable-background:accumulate" transform="matrix(0.35065914,0.93650316,-0.93650316,0.35065914,0,0)" />
      <ellipse cx="-115.404910" cy="28.144659" rx="0.751301" ry="0.578731" style="color:#000000;clip-rule:nonzero;display:inline;overflow:visible;visibility:visible;opacity:1;isolation:auto;mix-blend-mode:normal;color-interpolation:sRGB;color-interpolation-filters:linearRGB;solid-color:#000000;solid-opacity:1;fill:#000000;fill-opacity:1;fill-rule:nonzero;stroke:none;stroke-width:0.89999998;stroke-linecap:butt;stroke-linejoin:round;stroke-miterlimit:4;stroke-dasharray:none;stroke-dashoffset:0;stroke-opacity:1;color-rendering:auto;image-rendering:auto;shape-rendering:auto;text-rendering:auto;enable-background:accumulate" transform="matrix(-0.21617976,0.97635358,-0.97635358,-0.21617976,0,0)" />
      <path style="color:#000000;clip-rule:nonzero;display:inline;overflow:visible;visibility:visible;opacity:1;isolation:auto;mix-blend-mode:normal;color-interpolation:sRGB;color-interpolation-filters:linearRGB;solid-color:#000000;solid-opacity:1;fill:#bc8434;fill-opacity:1;fill-rule:evenodd;stroke:#000000;stroke-width:0.89999998;stroke-linecap:round;stroke-linejoin:miter;stroke-miterlimit:4;stroke-dasharray:none;stroke-dashoffset:0;stroke-opacity:1;color-rendering:auto;image-rendering:auto;shape-rendering:auto;text-rendering:auto;enable-background:accumulate" d="m 12.470061,-104.40917 c -1.053625,2.46314 -2.7571896,5.66371 -5.3992166,6.959878 -1.8348159,0.900154 -4.8858287,1.355265 -7.29203855,0.574524 -1.47973495,-0.480128 -3.26695685,-2.153861 -3.88908725,-3.579732 -0.9764548,-2.23794 -1.1678327,-4.60408 -0.6812181,-6.72953 0.2499469,-1.09173 1.186875,-3.22454 1.8151019,-4.00521" inkscape:connector-curvature="0" />
      <path style="color:#000000;clip-rule:nonzero;display:inline;overflow:visible;visibility:visible;opacity:1;isolation:auto;mix-blend-mode:normal;color-interpolation:sRGB;color-interpolation-filters:linearRGB;solid-color:#000000;solid-opacity:1;fill:#ffffff;fill-opacity:1;fill-rule:evenodd;stroke:#000000;stroke-width:0.89999998;stroke-linecap:round;stroke-linejoin:miter;stroke-miterlimit:4;stroke-dasharray:none;stroke-dashoffset:0;stroke-opacity:1;color-rendering:auto;image-rendering:auto;shape-rendering:auto;text-rendering:auto;enable-background:accumulate" d="m -4.1031709,-106.48916 c 0.1858925,1.26956 0.9057567,2.15876 1.8143573,3.06473 0.7258639,0.72377 1.43443306,1.23318 2.38813597,1.53034 0.21168639,0.36954 0.58409309,0.82966 0.71913043,1.00496 0.6211732,0.30789 1.2701423,0.41934 1.7697881,0.53351 1.2859005,0.29381 3.2051814,0.30928 4.487449,0 1.4766975,-0.35618 2.9730411,-1.01232 4.0560481,-2.07749 0.799348,-0.78619 1.474351,-1.85192 1.582847,-2.96784 0.19684,-2.02457 0.0097,-3.62122 -1.250374,-5.21803 -0.765762,-0.24844 -1.101356,-0.47744 -2.0001007,-0.72008 -0.7209049,-0.88161 -1.2999824,-1.55958 -2.1970327,-2.39292 -1.8286746,-0.73618 -4.3613695,-0.80559 -6.0281383,-0.27571 -1.72586214,0.54868 -3.34971,1.59922 -4.0200406,2.49515 -1.4298123,1.911 -1.5302056,3.6019 -1.3220696,5.02338 z" inkscape:connector-curvature="0" />
      <path style="color:#000000;clip-rule:nonzero;display:inline;overflow:visible;visibility:visible;opacity:1;isolation:auto;mix-blend-mode:normal;color-interpolation:sRGB;color-interpolation-filters:linearRGB;solid-color:#000000;solid-opacity:1;fill:url(#gradientCoconut);fill-opacity:1;fill-rule:evenodd;stroke:#000000;stroke-width:0.72000003;stroke-linecap:round;stroke-linejoin:miter;stroke-miterlimit:4;stroke-dasharray:none;stroke-dashoffset:0;stroke-opacity:1;color-rendering:auto;image-rendering:auto;shape-rendering:auto;text-rendering:auto;enable-background:accumulate" d="m 2.5689019,-111.79765 c -1.95421257,0.27864 -3.6605132,1.67502 -3.9378089,3.55663 -0.3092039,2.09813 0.69763676,3.67395 3.1778133,4.47933 0.373786,0.49838 0.6109957,0.84189 0.7612596,1.05028 0.5701086,0.18629 1.6940872,0.30376 2.4051006,0.28378 1.4220267,-0.04 2.5622123,-0.49712 3.5524385,-1.12498 1.980452,-1.2557 2.103312,-3.22456 0.954264,-5.56685 -0.6629126,-0.17678 -1.1503302,-0.34475 -1.6846877,-0.51996 -0.4611538,-0.48593 -0.8524209,-0.92577 -1.6101047,-1.76382 -1.1960277,-0.5413 -2.2986558,-0.51727 -3.6182747,-0.39441 z" inkscape:connector-curvature="0" />
    </g>
  </g>
</g>
<g inkscape:groupmode="layer" id="extras_layer" inkscape:label="Extras" style="display:inline" sodipodi:insensitive="true" >
  <g id="extra-ship" transform="matrix(0.4444171,-0.89581998,0.89581998,0.4444171,266.30938,417.60566)" >
    <path style="color:#000000;fill:url(#gradientShip);fill-opacity:1;fill-rule:evenodd;stroke:#000000;stroke-width:0.75;stroke-linecap:butt;stroke-linejoin:round;stroke-miterlimit:4;stroke-dasharray:none;stroke-dashoffset:0;stroke-opacity:1;marker:none;enable-background:accumulate" d="m 243.2364,-52.722824 c -3.10208,-2.937202 -8.72518,-3.346714 -12.49116,-3.032742 -2.95307,0.246202 -6.62512,1.070872 -6.62512,1.070872 l -0.0121,3.725952 c 0,0 2.43298,0.582421 6.39007,0.932887 3.66202,0.324334 9.61676,-0.283241 12.73834,-2.696969 z" inkscape:connector-curvature="0" />
    <path style="color:#000000;opacity:1;isolation:auto;mix-blend-mode:normal;color-interpolation:sRGB;color-interpolation-filters:linearRGB;solid-color:#000000;solid-opacity:1;fill:#000000;fill-opacity:1;fill-rule:evenodd;stroke:none;stroke-width:0.75;stroke-linecap:round;stroke-linejoin:round;stroke-miterlimit:4;stroke-dasharray:none;stroke-dashoffset:0;stroke-opacity:1;marker:none;color-rendering:auto;image-rendering:auto;shape-rendering:auto;text-rendering:auto;enable-background:accumulate" d="m 243.05273,-53.089844 c -0.50461,-0.01007 -0.51271,0.749303 -0.008,0.75 l 2.80546,-0.143551 c 0.50461,0.01007 0.51856,-0.385922 0.0138,-0.386619 z" inkscape:connector-curvature="0" />
    <circle cx="37.651787" cy="-233.087830" r="0.695206" style="color:#000000;opacity:1;isolation:auto;mix-blend-mode:normal;color-interpolation:sRGB;color-interpolation-filters:linearRGB;solid-color:#000000;solid-opacity:1;fill:#a66e00;fill-opacity:1;fill-rule:nonzero;stroke:#000000;stroke-width:0.5;stroke-linecap:butt;stroke-linejoin:miter;stroke-miterlimit:4;stroke-dasharray:none;stroke-dashoffset:0;stroke-opacity:1;color-rendering:auto;image-rendering:auto;shape-rendering:auto;text-rendering:auto;enable-background:accumulate" transform="matrix(0.37654483,0.9263984,-0.9263984,0.37654483,0,0)" />
    <circle cx="39.995537" cy="-238.712830" r="0.695206" style="color:#000000;opacity:1;isolation:auto;mix-blend-mode:normal;color-interpolation:sRGB;color-interpolation-filters:linearRGB;solid-color:#000000;solid-opacity:1;fill:#a66e00;fill-opacity:1;fill-rule:nonzero;stroke:#000000;stroke-width:0.5;stroke-linecap:butt;stroke-linejoin:miter;stroke-miterlimit:4;stroke-dasharray:none;stroke-dashoffset:0;stroke-opacity:1;color-rendering:auto;image-rendering:auto;shape-rendering:auto;text-rendering:auto;enable-background:accumulate" transform="matrix(0.37654483,0.9263984,-0.9263984,0.37654483,0,0)" />
    <path style="color:#000000;fill:#feffff;fill-opacity:1;fill-rule:evenodd;stroke:#000000;stroke-width:0.5;stroke-linecap:butt;stroke-linejoin:round;stroke-miterlimit:4;stroke-dasharray:none;stroke-dashoffset:0;stroke-opacity:1;marker:none;enable-background:accumulate" d="m 230.8139,-58.168744 -0.0696,11.095953 c 0,0 1.11273,-0.901569 1.17305,-2.014949 0.0592,-1.093696 -0.80015,-1.762231 -0.80015,-1.762231 0,0 1.00218,-0.841738 0.9922,-1.921676 -0.0106,-1.140901 -0.9468,-1.722391 -0.9468,-1.722391 0,0 0.80027,-0.5343 0.83406,-1.646805 0.0349,-1.150244 -1.18274,-2.027894 -1.18274,-2.027894 z" inkscape:connector-curvature="0" />
    <path style="color:#000000;fill:#feffff;fill-opacity:1;fill-rule:evenodd;stroke:#000000;stroke-width:0.5;stroke-linecap:butt;stroke-linejoin:round;stroke-miterlimit:4;stroke-dasharray:none;stroke-dashoffset:0;stroke-opacity:1;marker:none;enable-background:accumulate" d="m 236.95087,-57.97366 -0.0645,10.282469 c 0,0 1.03677,-0.785137 1.09267,-1.816887 0.0549,-1.013517 -0.74706,-1.683399 -0.74706,-1.683399 0,0 0.85887,-0.76153 0.84962,-1.762298 -0.01,-1.057255 -0.80754,-1.614603 -0.80754,-1.614603 0,0 0.84013,-0.540128 0.87144,-1.571079 0.0324,-1.065902 -1.19455,-1.834218 -1.19455,-1.834218 z" inkscape:connector-curvature="0" />
    <path style="fill:#000000;stroke:none" d="m 239.16963,-53.312319 -0.0111,0.999645 1.00145,0.01039 0.009,-1.000718 z" inkscape:connector-curvature="0" />
    <path style="fill:#6a4600;stroke:none" d="m 233.00825,-53.641515 -0.0131,1.52646 1.52369,0.01423 0.0142,-1.523703 z" inkscape:connector-curvature="0" />
    <path style="fill:none;stroke:#000000;stroke-width:0.6;stroke-linecap:butt" d="m 227.26126,-55.055042 -0.0734,4.514141" inkscape:connector-curvature="0" />
    <path style="fill:#000000;stroke:none" d="m 223.83649,-54.026834 -0.0111,0.999636 1.00072,0.0086 0.009,-0.998911 z" inkscape:connector-curvature="0" />
    <path style="fill:#000000;stroke:none" d="m 223.85032,-52.581947 -0.0111,0.999637 1.00072,0.0086 0.009,-0.998912 z" inkscape:connector-curvature="0" />
    <path style="fill:none;stroke:#000000;stroke-width:0.5;stroke-linecap:butt;stroke-linejoin:round;stroke-miterlimit:4" d="m 227.2539,-51.578825 1.14997,0.173504 -0.0116,1.05042" inkscape:connector-curvature="0" />
    <path style="fill:none;stroke:#000000;stroke-width:0.5;stroke-linecap:butt;stroke-linejoin:round;stroke-miterlimit:4" d="m 227.25705,-54.143799 1.1481,-0.163064 0.0224,-1.189753" inkscape:connector-curvature="0" />
  </g>
</g>
<g inkscape:groupmode="layer" id="suit_rank_glow_layer" inkscape:label="Suit Rank Glow" style="display:inline" sodipodi:insensitive="true" >
  <g style="opacity:0.75;filter:url(#blurSuitRankGlow)" >
    <path style="fill:#ffffff;fill-opacity:1;stroke:none" d="m 31.453338,20.628773 c -3.90158,4.19568 -7.07982,7.84109 -10.6575,12.24125 3.57768,4.40016 6.75592,8.045575 10.6575,12.241254 3.90158,-4.195679 7.07982,-7.841094 10.6575,-12.241254 -3.57768,-4.40016 -6.75592,-8.04557 -10.6575,-12.241251 z" inkscape:connector-curvature="0" />
    <path style="fill:#ffffff;fill-opacity:1;stroke:none" d="m 215.96335,316.87128 c 3.90158,-4.19568 7.07982,-7.84109 10.6575,-12.24125 -3.57768,-4.40016 -6.75592,-8.04557 -10.6575,-12.24125 -3.90158,4.19568 -7.07982,7.84109 -10.6575,12.24125 3.57768,4.40016 6.75592,8.04557 10.6575,12.24125 z" inkscape:connector-curvature="0" />
    <path style="fill:#ffffff;fill-opacity:1;stroke:none" d="m 23.013333,79.675025 1.24,0 5.2,-28.8 4,0 5.2,28.8 2.4,0 0,3.2 -8,0 0,-3.2 2.4,0 -1.16,-6.4 -5.68,0 -1.16,6.4 2.4,0 0,3.2 -8,0 c 0.0267,-0.58667 0.04,-1.12 0.04,-1.6 0,-0.4 0,-0.76 0,-1.08 0,-0.32 -0.0133,-0.49333 -0.04,-0.52 l 1.16,0 m 6.2,-9.6 c -10e-6,0.0267 0.22666,0.04 0.68,0.04 0.47999,1e-5 0.99999,1e-5 1.56,0 0.66666,1e-5 1.41332,-0.0133 2.24,-0.04 l -2.24,-12.4 -1.12,6.16 c -0.13334,0.77335 -0.26667,1.53335 -0.4,2.28 -0.13334,0.74668 -0.25334,1.41334 -0.36,2 -0.10667,0.56001 -0.20001,1.02668 -0.28,1.4 -0.0533,0.37334 -0.08,0.56001 -0.08,0.56" inkscape:connector-curvature="0" />
    <path style="fill:#ffffff;fill-opacity:1;stroke:none" d="m 224.40334,257.82503 -1.24,0 -5.2,28.8 -4,0 -5.2,-28.8 -2.4,0 0,-3.2 8,0 0,3.2 -2.4,0 1.16,6.4 5.68,0 1.16,-6.4 -2.4,0 0,-3.2 8,0 c -0.0267,0.58667 -0.04,1.12 -0.04,1.6 0,0.4 0,0.76 0,1.08 0,0.32 0.0133,0.49333 0.04,0.52 l -1.16,0 m -6.2,9.6 c 1e-5,-0.0267 -0.22666,-0.04 -0.68,-0.04 -0.47999,-10e-6 -0.99999,-10e-6 -1.56,0 -0.66666,-10e-6 -1.41332,0.0133 -2.24,0.04 l 2.24,12.4 1.12,-6.16 c 0.13334,-0.77335 0.26667,-1.53335 0.4,-2.28 0.13334,-0.74668 0.25334,-1.41334 0.36,-2 0.10667,-0.56001 0.20001,-1.02668 0.28,-1.4 0.0533,-0.37334 0.08,-0.56001 0.08,-0.56" inkscape:connector-curvature="0" />
  </g>
</g>
<g inkscape:groupmode="layer" id="suit_rank_layer" inkscape:label="Suit Rank" style="display:inline" sodipodi:insensitive="true" >
  <path style="fill:#de0000;fill-opacity:1;stroke:none" d="m 31.453338,20.628773 c -3.90158,4.19568 -7.07982,7.84109 -10.6575,12.24125 3.57768,4.40016 6.75592,8.045575 10.6575,12.241254 3.90158,-4.195679 7.07982,-7.841094 10.6575,-12.241254 -3.57768,-4.40016 -6.75592,-8.04557 -10.6575,-12.241251 z" inkscape:connector-curvature="0" />
  <path style="fill:#de0000;fill-opacity:1;stroke:none" d="m 215.96335,316.87128 c 3.90158,-4.19568 7.07982,-7.84109 10.6575,-12.24125 -3.57768,-4.40016 -6.75592,-8.04557 -10.6575,-12.24125 -3.90158,4.19568 -7.07982,7.84109 -10.6575,12.24125 3.57768,4.40016 6.75592,8.04557 10.6575,12.24125 z" inkscape:connector-curvature="0" />
  <path style="fill:#de0000;fill-opacity:1;stroke:none" d="m 23.013333,79.675025 1.24,0 5.2,-28.8 4,0 5.2,28.8 2.4,0 0,3.2 -8,0 0,-3.2 2.4,0 -1.16,-6.4 -5.68,0 -1.16,6.4 2.4,0 0,3.2 -8,0 c 0.0267,-0.58667 0.04,-1.12 0.04,-1.6 0,-0.4 0,-0.76 0,-1.08 0,-0.32 -0.0133,-0.49333 -0.04,-0.52 l 1.16,0 m 6.2,-9.6 c -10e-6,0.0267 0.22666,0.04 0.68,0.04 0.47999,1e-5 0.99999,1e-5 1.56,0 0.66666,1e-5 1.41332,-0.0133 2.24,-0.04 l -2.24,-12.4 -1.12,6.16 c -0.13334,0.77335 -0.26667,1.53335 -0.4,2.28 -0.13334,0.74668 -0.25334,1.41334 -0.36,2 -0.10667,0.56001 -0.20001,1.02668 -0.28,1.4 -0.0533,0.37334 -0.08,0.56001 -0.08,0.56" inkscape:connector-curvature="0" />
  <path style="fill:#de0000;fill-opacity:1;stroke:none" d="m 224.40334,257.82503 -1.24,0 -5.2,28.8 -4,0 -5.2,-28.8 -2.4,0 0,-3.2 8,0 0,3.2 -2.4,0 1.16,6.4 5.68,0 1.16,-6.4 -2.4,0 0,-3.2 8,0 c -0.0267,0.58667 -0.04,1.12 -0.04,1.6 0,0.4 0,0.76 0,1.08 0,0.32 0.0133,0.49333 0.04,0.52 l -1.16,0 m -6.2,9.6 c 1e-5,-0.0267 -0.22666,-0.04 -0.68,-0.04 -0.47999,-10e-6 -0.99999,-10e-6 -1.56,0 -0.66666,-10e-6 -1.41332,0.0133 -2.24,0.04 l 2.24,12.4 1.12,-6.16 c 0.13334,-0.77335 0.26667,-1.53335 0.4,-2.28 0.13334,-0.74668 0.25334,-1.41334 0.36,-2 0.10667,-0.56001 0.20001,-1.02668 0.28,-1.4 0.0533,-0.37334 0.08,-0.56001 0.08,-0.56" inkscape:connector-curvature="0" />
</g>
<g inkscape:groupmode="layer" id="guides_layer" inkscape:label="Guides" style="display:none" sodipodi:insensitive="true" >
  <path style="fill:none;stroke:#000000;stroke-width:0.9" d="m 11.250000,11.25 0,-45" inkscape:connector-curvature="0" />
  <path style="fill:none;stroke:#000000;stroke-width:0.9" d="m 11.250000,371.25 0,-45" inkscape:connector-curvature="0" />
  <path style="fill:none;stroke:#000000;stroke-width:0.9" d="m 84.375000,11.25 0,-45" inkscape:connector-curvature="0" />
  <path style="fill:none;stroke:#000000;stroke-width:0.9" d="m 84.375000,371.25 0,-45" inkscape:connector-curvature="0" />
  <path style="fill:none;stroke:#000000;stroke-width:0.9" d="m 123.750000,11.25 0,-45" inkscape:connector-curvature="0" />
  <path style="fill:none;stroke:#000000;stroke-width:0.9" d="m 123.750000,371.25 0,-45" inkscape:connector-curvature="0" />
  <path style="fill:none;stroke:#000000;stroke-width:0.9" d="m 163.125000,11.25 0,-45" inkscape:connector-curvature="0" />
  <path style="fill:none;stroke:#000000;stroke-width:0.9" d="m 163.125000,371.25 0,-45" inkscape:connector-curvature="0" />
  <path style="fill:none;stroke:#000000;stroke-width:0.9" d="m 236.250000,11.25 0,-45" inkscape:connector-curvature="0" />
  <path style="fill:none;stroke:#000000;stroke-width:0.9" d="m 236.250000,371.25 0,-45" inkscape:connector-curvature="0" />
  <path style="fill:none;stroke:#000000;stroke-width:0.9" d="m -33.75,11.250000 45,0" inkscape:connector-curvature="0" />
  <path style="fill:none;stroke:#000000;stroke-width:0.9" d="m 236.25,11.250000 45,0" inkscape:connector-curvature="0" />
  <path style="fill:none;stroke:#000000;stroke-width:0.9" d="m -33.75,118.125000 45,0" inkscape:connector-curvature="0" />
  <path style="fill:none;stroke:#000000;stroke-width:0.9" d="m 236.25,118.125000 45,0" inkscape:connector-curvature="0" />
  <path style="fill:none;stroke:#000000;stroke-width:0.9" d="m -33.75,168.750000 45,0" inkscape:connector-curvature="0" />
  <path style="fill:none;stroke:#000000;stroke-width:0.9" d="m 236.25,168.750000 45,0" inkscape:connector-curvature="0" />
  <path style="fill:none;stroke:#000000;stroke-width:0.9" d="m -33.75,219.375000 45,0" inkscape:connector-curvature="0" />
  <path style="fill:none;stroke:#000000;stroke-width:0.9" d="m 236.25,219.375000 45,0" inkscape:connector-curvature="0" />
  <path style="fill:none;stroke:#000000;stroke-width:0.9" d="m -33.75,326.250000 45,0" inkscape:connector-curvature="0" />
  <path style="fill:none;stroke:#000000;stroke-width:0.9" d="m 236.25,326.250000 45,0" inkscape:connector-curvature="0" />
  <g id="guide-short0-3" >
    <rect x="84.375000" y="-22.500000" width="163.125000" height="22.500000" style="fill:#ffd291;stroke:#000000;stroke-width:0.9" />
    <rect x="101.250000" y="-22.500000" width="146.250000" height="22.500000" style="fill:#b4e982;stroke:#000000;stroke-width:0.9" />
    <rect x="213.750000" y="-22.500000" width="33.750000" height="22.500000" style="fill:#5adc4f;stroke:#000000;stroke-width:0.9" />
    <rect x="168.750000" y="-22.500000" width="33.750000" height="22.500000" style="fill:#5adc4f;stroke:#000000;stroke-width:0.9" />
    <rect x="118.125000" y="-22.500000" width="39.375000" height="22.500000" style="fill:#5adc4f;stroke:#000000;stroke-width:0.9" />
    <rect x="0.000000" y="-22.500000" width="84.375000" height="22.500000" style="fill:#b9deff;stroke:#000000;stroke-width:0.9" />
    <rect x="0.000000" y="-22.500000" width="61.875000" height="22.500000" style="fill:#9bceff;stroke:#000000;stroke-width:0.9" />
    <rect x="0.000000" y="-22.500000" width="33.750000" height="22.500000" style="fill:#73baff;stroke:#000000;stroke-width:0.9" />
  </g>
  <g id="guide-long1-4" >
    <rect x="247.500000" y="0.000000" width="22.500000" height="118.125000" style="fill:#ffd291;stroke:#000000;stroke-width:0.9" />
    <rect x="247.500000" y="0.000000" width="22.500000" height="101.250000" style="fill:#b4e982;stroke:#000000;stroke-width:0.9" />
    <rect x="247.500000" y="0.000000" width="22.500000" height="78.750000" style="fill:#5adc4f;stroke:#000000;stroke-width:0.9" />
    <rect x="247.500000" y="118.125000" width="22.500000" height="219.375000" style="fill:#b9deff;stroke:#000000;stroke-width:0.9" />
    <rect x="247.500000" y="168.750000" width="22.500000" height="168.750000" style="fill:#9bceff;stroke:#000000;stroke-width:0.9" />
    <rect x="247.500000" y="236.250000" width="22.500000" height="101.250000" style="fill:#73baff;stroke:#000000;stroke-width:0.9" />
  </g>
  <g id="guide-short2-3" transform="matrix(-1,0,0,1,247.5,360)" >
    <rect x="84.375000" y="-22.500000" width="163.125000" height="22.500000" style="fill:#ffd291;stroke:#000000;stroke-width:0.9" />
    <rect x="101.250000" y="-22.500000" width="146.250000" height="22.500000" style="fill:#b4e982;stroke:#000000;stroke-width:0.9" />
    <rect x="213.750000" y="-22.500000" width="33.750000" height="22.500000" style="fill:#5adc4f;stroke:#000000;stroke-width:0.9" />
    <rect x="168.750000" y="-22.500000" width="33.750000" height="22.500000" style="fill:#5adc4f;stroke:#000000;stroke-width:0.9" />
    <rect x="118.125000" y="-22.500000" width="39.375000" height="22.500000" style="fill:#5adc4f;stroke:#000000;stroke-width:0.9" />
    <rect x="0.000000" y="-22.500000" width="84.375000" height="22.500000" style="fill:#b9deff;stroke:#000000;stroke-width:0.9" />
    <rect x="0.000000" y="-22.500000" width="61.875000" height="22.500000" style="fill:#9bceff;stroke:#000000;stroke-width:0.9" />
    <rect x="0.000000" y="-22.500000" width="33.750000" height="22.500000" style="fill:#73baff;stroke:#000000;stroke-width:0.9" />
  </g>
  <g id="guide-long3-4" transform="matrix(1,0,0,-1,-270,337.5)" >
    <rect x="247.500000" y="0.000000" width="22.500000" height="118.125000" style="fill:#ffd291;stroke:#000000;stroke-width:0.9" />
    <rect x="247.500000" y="0.000000" width="22.500000" height="101.250000" style="fill:#b4e982;stroke:#000000;stroke-width:0.9" />
    <rect x="247.500000" y="0.000000" width="22.500000" height="78.750000" style="fill:#5adc4f;stroke:#000000;stroke-width:0.9" />
    <rect x="247.500000" y="118.125000" width="22.500000" height="219.375000" style="fill:#b9deff;stroke:#000000;stroke-width:0.9" />
    <rect x="247.500000" y="168.750000" width="22.500000" height="168.750000" style="fill:#9bceff;stroke:#000000;stroke-width:0.9" />
    <rect x="247.500000" y="236.250000" width="22.500000" height="101.250000" style="fill:#73baff;stroke:#000000;stroke-width:0.9" />
  </g>
</g>
<g inkscape:groupmode="layer" id="cut_line_layer" inkscape:label="Cut Line" style="display:none" sodipodi:insensitive="true" >
  <rect style="fill:none;stroke:#000000;stroke-width:0.5;stroke-linecap:butt;stroke-linejoin:bevel;stroke-miterlimit:4;stroke-dasharray:none;stroke-opacity:1" width="225" height="315" x="11.25" y="11.25" ry="17.361111" />
</g>
<g inkscape:groupmode="layer" id="page_border_layer" inkscape:label="Page Border" style="display:none" sodipodi:insensitive="true" >
  <rect style="fill:none;stroke:#000000;stroke-width:0.5;stroke-linecap:butt;stroke-linejoin:bevel;stroke-miterlimit:4;stroke-dasharray:none;stroke-opacity:1" width="247.5" height="337.5" x="0" y="0" />
</g>

</svg>
