<?xml version="1.0" encoding="UTF-8" standalone="no"?>
<svg version="1.1" height="337.5" width="247.5" xmlns:rdf="http://www.w3.org/1999/02/22-rdf-syntax-ns#" xmlns="http://www.w3.org/2000/svg" xmlns:cc="http://creativecommons.org/ns#" xmlns:xlink="http://www.w3.org/1999/xlink" xmlns:dc="http://purl.org/dc/elements/1.1/" xmlns:sodipodi="http://sodipodi.sourceforge.net/DTD/sodipodi-0.dtd" xmlns:svg="http://www.w3.org/2000/svg" xmlns:inkscape="http://www.inkscape.org/namespaces/inkscape">
<metadata>
  <rdf:RDF>
    <cc:Work rdf:about="">
      <dc:format>image/svg+xml</dc:format>
      <dc:type rdf:resource="http://purl.org/dc/dcmitype/StillImage"/>
      <dc:title/>
      <dc:creator>
        <cc:Agent><dc:title>Gary Kacmarcik</dc:title></cc:Agent>
      </dc:creator>
    </cc:Work>
  </rdf:RDF>
</metadata>

<defs>
  <filter inkscape:label="textureGrassBig" style="color-interpolation-filters:sRGB" id="textureGrassBig">
    <feTurbulence numOctaves="2" seed="212" type="turbulence" baseFrequency="0.070000" result="result1" />
    <feColorMatrix result="result0" in="SourceGraphic" type="luminanceToAlpha" />
    <feColorMatrix result="result2" values="1 0 0 0 0 0 1 0 0 0 0 0 1 0 0 0 0 0 0.4 0 " />
    <feComposite in="result2" operator="over" in2="result1" />
    <feColorMatrix result="result91" values="1 0 0 0 0 0 1 0 0 0 0 0 1 0 0 0 0 0 10 -4 " />
    <feComposite operator="out" in="SourceGraphic" in2="result91" />
    <feGaussianBlur stdDeviation="2.500000" />
    <feColorMatrix values="1 0 0 0 0 0 1 0 0 0 0 0 1 0 0 0 0 0 1 0 " />
  </filter>
  <filter inkscape:label="textureGrassSmall" style="color-interpolation-filters:sRGB" id="textureGrassSmall">
    <feTurbulence numOctaves="4" seed="212" type="turbulence" baseFrequency="0.500000" result="result1" />
    <feColorMatrix result="result0" in="SourceGraphic" type="luminanceToAlpha" />
    <feColorMatrix result="result2" values="1 0 0 0 0 0 1 0 0 0 0 0 1 0 0 0 0 0 0.4 0 " />
    <feComposite in="result2" operator="over" in2="result1" />
    <feColorMatrix result="result91" values="1 0 0 0 0 0 1 0 0 0 0 0 1 0 0 0 0 0 10 -4 " />
    <feComposite operator="out" in="SourceGraphic" in2="result91" />
    <feGaussianBlur stdDeviation="1.000000" />
    <feColorMatrix values="1 0 0 0 0 0 1 0 0 0 0 0 1 0 0 0 0 0 1 0 " />
  </filter>
  <filter inkscape:label="textureLand" style="color-interpolation-filters:sRGB" id="textureLand">
    <feTurbulence numOctaves="4" seed="212" type="turbulence" baseFrequency="0.500000" result="result1" />
    <feColorMatrix result="result0" in="SourceGraphic" type="luminanceToAlpha" />
    <feColorMatrix result="result2" values="1 0 0 0 0 0 1 0 0 0 0 0 1 0 0 0 0 0 0.4 0 " />
    <feComposite in="result2" operator="over" in2="result1" />
    <feColorMatrix result="result91" values="1 0 0 0 0 0 1 0 0 0 0 0 1 0 0 0 0 0 10 -4 " />
    <feComposite operator="out" in="SourceGraphic" in2="result91" />
    <feGaussianBlur stdDeviation="0.800000" />
    <feColorMatrix values="1 0 0 0 0 0 1 0 0 0 0 0 1 0 0 0 0 0 1 0 " />
  </filter>
  <filter inkscape:label="textureForestBig" style="color-interpolation-filters:sRGB" id="textureForestBig">
    <feTurbulence numOctaves="2" seed="212" type="turbulence" baseFrequency="0.300000" result="result1" />
    <feColorMatrix result="result0" in="SourceGraphic" type="luminanceToAlpha" />
    <feColorMatrix result="result2" values="1 0 0 0 0 0 1 0 0 0 0 0 1 0 0 0 0 0 0.4 0 " />
    <feComposite in="result2" operator="over" in2="result1" />
    <feColorMatrix result="result91" values="1 0 0 0 0 0 1 0 0 0 0 0 1 0 0 0 0 0 10 -4 " />
    <feComposite operator="out" in="SourceGraphic" in2="result91" />
    <feGaussianBlur stdDeviation="2.000000" />
    <feColorMatrix values="1 0 0 0 0 0 1 0 0 0 0 0 1 0 0 0 0 0 1 0 " />
  </filter>
  <filter inkscape:label="textureForestSmall" style="color-interpolation-filters:sRGB" id="textureForestSmall">
    <feTurbulence numOctaves="4" seed="212" type="turbulence" baseFrequency="0.350000" result="result1" />
    <feColorMatrix result="result0" in="SourceGraphic" type="luminanceToAlpha" />
    <feColorMatrix result="result2" values="1 0 0 0 0 0 1 0 0 0 0 0 1 0 0 0 0 0 0.4 0 " />
    <feComposite in="result2" operator="over" in2="result1" />
    <feColorMatrix result="result91" values="1 0 0 0 0 0 1 0 0 0 0 0 1 0 0 0 0 0 10 -4 " />
    <feComposite operator="out" in="SourceGraphic" in2="result91" />
    <feGaussianBlur stdDeviation="1.000000" />
    <feColorMatrix values="1 0 0 0 0 0 1 0 0 0 0 0 1 0 0 0 0 0 1 0 " />
  </filter>
  <filter inkscape:label="roughenShoreline" style="color-interpolation-filters:sRGB" id="roughenShoreline">
    <feTurbulence numOctaves="4" seed="212" type="turbulence" baseFrequency="0.050000" result="turb" />
    <feDisplacementMap scale="6.600000" yChannelSelector="G" xChannelSelector="R" in="SourceGraphic" in2="turb" />
  </filter>
  <filter inkscape:label="roughenForest" style="color-interpolation-filters:sRGB" id="roughenForest">
    <feTurbulence numOctaves="4" seed="212" type="fractalNoise" baseFrequency="0.150000 0.150000" result="turb" />
    <feDisplacementMap scale="6.600000" yChannelSelector="G" xChannelSelector="R" in="SourceGraphic" in2="turb" />
  </filter>
  <filter inkscape:collect="always" inkscape:label="blurSuitRankGlow" style="color-interpolation-filters:sRGB" id="blurSuitRankGlow" x="-0.029025" y="-0.020458" width="1.058049" height="1.040917">
    <feGaussianBlur inkscape:collect="always" stdDeviation="2.515067" />
  </filter>
  <filter inkscape:collect="always" inkscape:label="blurWaterDeep" style="color-interpolation-filters:sRGB" id="blurWaterDeep" x="-0.056691" y="-0.041620" width="1.113381" height="1.083239">
    <feGaussianBlur inkscape:collect="always" stdDeviation="6.919136" />
  </filter>
  <filter inkscape:collect="always" inkscape:label="blurWaterShallow" style="color-interpolation-filters:sRGB" id="blurWaterShallow" x="-0.055818" y="-0.042103" width="1.111637" height="1.084205">
    <feGaussianBlur inkscape:collect="always" stdDeviation="6.561501" />
  </filter>
  <filter inkscape:collect="always" inkscape:label="blurWaterHilight" style="color-interpolation-filters:sRGB" id="blurWaterHilight" x="-0.071178" y="-0.051856" width="1.142356" height="1.103712">
    <feGaussianBlur inkscape:collect="always" stdDeviation="6.857532" />
  </filter>
  <filter inkscape:collect="always" inkscape:label="blurGrass" style="color-interpolation-filters:sRGB" id="blurGrass" x="-0.032100" y="-0.019164" width="1.064201" height="1.038328">
    <feGaussianBlur inkscape:collect="always" stdDeviation="2.386213" />
  </filter>
  <filter inkscape:collect="always" inkscape:label="blurForestShadow" style="color-interpolation-filters:sRGB" id="blurForestShadow" x="-0.033576" y="-0.018674" width="1.067152" height="1.037348">
    <feGaussianBlur inkscape:collect="always" stdDeviation="2.199785" />
  </filter>
  <filter inkscape:collect="always" inkscape:label="blurFlowerInner" style="color-interpolation-filters:sRGB" id="blurFlowerInner" x="-0.420000" y="-0.420000" width="1.840000" height="1.840000">
    <feGaussianBlur inkscape:collect="always" stdDeviation="1.605540" />
  </filter>
  <filter inkscape:collect="always" inkscape:label="blurFlowerMiddle" style="color-interpolation-filters:sRGB" id="blurFlowerMiddle" x="-0.240000" y="-0.240000" width="1.480000" height="1.480000">
    <feGaussianBlur inkscape:collect="always" stdDeviation="1.933705" />
  </filter>
  <linearGradient id="gradientStopsFish" inkscape:collect="always">
    <stop offset="0.000000" style="stop-color:#ff5555;stop-opacity:1.000000" />
    <stop offset="1.000000" style="stop-color:#ffffff;stop-opacity:1.000000" />
  </linearGradient>
  <linearGradient id="gradientStopsCoconut" inkscape:collect="always">
    <stop offset="0.000000" style="stop-color:#ffffff;stop-opacity:1.000000" />
    <stop offset="1.000000" style="stop-color:#c8c8c8;stop-opacity:0.000000" />
  </linearGradient>
  <linearGradient id="gradientStopsFlower" inkscape:collect="always">
    <stop offset="0.000000" style="stop-color:#b16dff;stop-opacity:1.000000" />
    <stop offset="1.000000" style="stop-color:#e7d2ff;stop-opacity:1.000000" />
  </linearGradient>
  <linearGradient id="gradientStopsJellyfish" inkscape:collect="always">
    <stop offset="0.000000" style="stop-color:#4f97ff;stop-opacity:1.000000" />
    <stop offset="1.000000" style="stop-color:#cfe3ff;stop-opacity:1.000000" />
  </linearGradient>
  <linearGradient id="gradientStopsShip" inkscape:collect="always">
    <stop offset="0.000000" style="stop-color:#b67800;stop-opacity:1.000000" />
    <stop offset="1.000000" style="stop-color:#d28b00;stop-opacity:1.000000" />
  </linearGradient>
  <linearGradient id="gradientFish" xlink:href="#gradientStopsFish" x1="178.789090" y1="-114.782830" x2="180.407300" y2="-103.782830" gradientTransform="translate(-178.76256,1.0606602)" gradientUnits="userSpaceOnUse" inkscape:collect="always" />
  <linearGradient id="gradientJellyfishTentacle1a" xlink:href="#gradientStopsJellyfish" x1="118.024030" y1="-110.827530" x2="121.753140" y2="-96.140030" gradientTransform="translate(-120,0)" gradientUnits="userSpaceOnUse" inkscape:collect="always" />
  <linearGradient id="gradientJellyfishTentacle1b" xlink:href="#gradientStopsJellyfish" x1="118.024030" y1="-110.827530" x2="121.753140" y2="-96.140030" gradientTransform="translate(-120,0)" gradientUnits="userSpaceOnUse" inkscape:collect="always" />
  <linearGradient id="gradientJellyfishTentacle2" xlink:href="#gradientStopsJellyfish" x1="118.218180" y1="-115.782610" x2="121.698270" y2="-97.813858" gradientTransform="translate(-120,0)" gradientUnits="userSpaceOnUse" inkscape:collect="always" />
  <linearGradient id="gradientJellyfishTentacle3" xlink:href="#gradientStopsJellyfish" x1="123.335370" y1="-114.610190" x2="116.678600" y2="-98.453941" gradientTransform="translate(-120,0)" gradientUnits="userSpaceOnUse" inkscape:collect="always" />
  <linearGradient id="gradientShip" xlink:href="#gradientStopsShip" x1="196.432910" y1="221.715270" x2="203.663250" y2="204.277770" gradientTransform="matrix(0.37654483,0.9263984,-0.9263984,0.37654483,355.66788,-318.43897)" gradientUnits="userSpaceOnUse" inkscape:collect="always" />
  <radialGradient id="gradientCoconut" xlink:href="#gradientStopsCoconut" cx="1.944096" cy="-60.612652" fx="1.944096" fy="-60.612652" r="6.723294" gradientUnits="userSpaceOnUse" gradientTransform="matrix(1.691364,-0.31394812,0.29762395,1.603419,17.826033,-7.042221)" inkscape:collect="always" />
  <radialGradient id="gradientFlower" xlink:href="#gradientStopsFlower" cx="60.884877" cy="-69.652750" fx="60.884877" fy="-69.652750" r="15.835310" gradientUnits="userSpaceOnUse" gradientTransform="matrix(0.8413905,0,0,0.87120012,-50.722984,-48.679159)" inkscape:collect="always" />
  <radialGradient id="gradientJellyfish" xlink:href="#gradientStopsJellyfish" cx="120.453410" cy="-112.943900" fx="120.453410" fy="-112.943900" r="10.580511" gradientUnits="userSpaceOnUse" gradientTransform="matrix(1.1662998,0.0435575,-0.04526952,1.2121402,-145.14628,17.080499)" inkscape:collect="always" />
</defs>

<sodipodi:namedview
    id="base"
    pagecolor="#ffffff"
    bordercolor="#666666"
    borderopacity="1.0"
    inkscape:pageopacity="0.0"
    inkscape:pageshadow="2"
    inkscape:zoom="2"
    inkscape:cx="115.37643"
    inkscape:cy="285.04449"
    inkscape:document-units="in"
    showgrid="true"
    units="in"
    inkscape:window-width="1392"
    inkscape:window-height="836"
    inkscape:window-x="39"
    inkscape:window-y="6"
    inkscape:window-maximized="0"
    inkscape:snap-grids="true"
    inkscape:snap-to-guides="true"
    inkscape:snap-nodes="true"
    inkscape:object-nodes="true"
    inkscape:snap-smooth-nodes="true"
    inkscape:snap-intersection-paths="true"
    inkscape:object-paths="true"
    inkscape:snap-bbox="true"
    inkscape:bbox-nodes="true"
    inkscape:snap-others="true"
    inkscape:bbox-paths="false"
    inkscape:snap-global="true" >
  <inkscape:grid
    type="xygrid"
    id="grid3051"
    empspacing="2"
    visible="true"
    enabled="true"
    snapvisiblegridlinesonly="true"
    spacingx="0.0625in"
    spacingy="0.0625in"
    dotted="false"
    units="in" />
</sodipodi:namedview>
<g inkscape:groupmode="layer" id="water_layer" inkscape:label="Water" style="display:inline" sodipodi:insensitive="true" >
  <rect id="water" style="fill:#b9deff;fill-opacity:1;stroke:none" x="0" y="0" width="247.5" height="337.5" />
</g>
<g inkscape:groupmode="layer" id="water_shallow_layer" inkscape:label="Water Shallow" style="display:inline" sodipodi:insensitive="true" >
  <path style="fill:#9bd1ff;fill-opacity:0.70;fill-rule:evenodd;stroke:none;filter:url(#blurWaterShallow)" d="m -11.25,-11.25 0,95.625 22.5,0 c 0,0 13.749772,-1.604164 20.375,-3.5 6.575998,-1.881749 13.398857,-3.824198 19,-7.75 7.730197,-5.418041 11.265666,-15.587867 19,-21 8.437831,-5.904408 18.539051,-9.543495 28.625,-11.625 7.6734,-1.583611 15.66704,-0.316761 23.5,-0.5 8.16709,-0.191055 16.53415,-2.436943 24.5,-0.625 9.90294,2.252564 18.11095,9.196395 27.125,13.875 7.85769,4.078415 15.99955,7.671812 23.5,12.375 7.01799,4.400662 12.43472,11.37589 20,14.75 6.02268,2.686111 19.375,4 19.375,4 l 22.5,0 0,-95.625 z" inkscape:connector-curvature="0" />
</g>
<g inkscape:groupmode="layer" id="water_deep_layer" inkscape:label="Water Deep" style="display:inline" sodipodi:insensitive="true" >
  <path style="fill:#87c8ff;fill-opacity:0.60;fill-rule:evenodd;stroke:none;filter:url(#blurWaterDeep)" d="m -11.25,-11.25 0,61.875 22.5,0 25.625,-3 L 56.25,33.75 80.125,23 l 32.5,-3 30.625,1 32.5,5.625 24.25,10.625 25,7.75 11.25,5.625 22.5,0 0,-61.875 z" inkscape:connector-curvature="0" />
</g>
<g inkscape:groupmode="layer" id="water_hilight_layer" inkscape:label="Water Hilight" style="display:inline" sodipodi:insensitive="true" >
  <use xlink:href="#shoreline" height="100%" width="100%" x="0" y="0" style="display:inline;fill:#ffffff;fill-opacity:1;stroke:#ffffff;stroke-opacity:1;filter:url(#blurWaterHilight)" />
</g>
<g inkscape:groupmode="layer" id="land_layer" inkscape:label="Land" style="display:inline" sodipodi:insensitive="true" >
  <use xlink:href="#shoreline" height="100%" width="100%" x="0" y="0" style="display:inline;fill:#ffddab;fill-opacity:1;stroke:none;stroke-width:1;stroke-miterlimit:4;stroke-dasharray:none;stroke-opacity:1" />
</g>
<g inkscape:groupmode="layer" id="land_texture_layer" inkscape:label="Land Texture" style="display:inline" sodipodi:insensitive="true" >
  <use xlink:href="#shoreline" height="100%" width="100%" x="0" y="0" style="display:inline;fill:#ffca7d;fill-opacity:1;stroke:none;stroke-width:1;stroke-miterlimit:4;stroke-dasharray:none;stroke-opacity:1;filter:url(#textureLand)" />
</g>
<g inkscape:groupmode="layer" id="shoreline_layer" inkscape:label="Shoreline" style="display:inline" sodipodi:insensitive="true" >
  <use xlink:href="#shoreline" height="100%" width="100%" x="0" y="0" style="display:inline;fill:none;fill-opacity:1;stroke:#5f4c14;stroke-width:1;stroke-miterlimit:4;stroke-dasharray:none;stroke-opacity:1" />
</g>
<g inkscape:groupmode="layer" id="shoreline_master_layer" inkscape:label="Shoreline Master" style="display:none" sodipodi:insensitive="true" >
  <path id="shoreline" style="color:#000000;clip-rule:nonzero;display:inline;overflow:visible;visibility:visible;opacity:1;isolation:auto;mix-blend-mode:normal;color-interpolation:sRGB;color-interpolation-filters:linearRGB;solid-color:#000000;solid-opacity:1;fill-opacity:1;fill-rule:evenodd;filter:url(#roughenShoreline);color-rendering:auto;image-rendering:auto;shape-rendering:auto;text-rendering:auto;enable-background:accumulate" d="m 127.66211,67.324219 c -8.30706,1.040756 -16.85738,1.768191 -24.57422,5.277343 -3.436595,1.377904 -7.148318,0.316704 -10.649536,-0.155366 -4.294385,-0.202717 -8.087155,2.269154 -11.398729,4.716646 -4.261722,3.134407 -8.179862,6.720911 -12.447019,9.839339 -1.690936,0.809158 -3.578749,1.069582 -5.33599,1.704954 -5.589863,1.650897 -11.278711,3.835661 -15.461039,8.054948 -2.609541,2.515716 -4.681722,5.523287 -6.54753,8.614867 -3.52216,2.6962 -4.9378,7.40623 -8.837891,9.68555 -2.392224,1.20225 -5.10567,0.0442 -7.184728,-1.27027 -1.741679,-1.31766 -4.002341,-1.59233 -6.203944,-1.07153 -5.871374,1.3889 -1.857079,4.21387 -7.771484,5.4043 -5.9144052,1.19043 -27.848013,-1.23999 -33.75,0 -3.864262,0.81187 -0.154735,7.01208 -0.292643,10.87202 -0.348388,3.77148 0.04166,7.56074 -0.09604,11.34005 L -22.5,360 l 292.5,0 0,-241.875 -33.75,0 -26.88086,-6.85547 c -4.91522,-1.25354 -8.94442,-4.81516 -13.13867,-7.68164 -6.34949,0.0518 -12.4106,-2.67641 -17.39258,-6.460937 -5.37565,-3.296048 -11.81611,-4.246041 -18.02539,-4.232422 -1.88947,-0.228818 -3.78839,-0.468832 -5.62109,-1 -2.6801,-2.325794 -5.57985,-4.397477 -8.6543,-6.169922 -2.38187,-2.610013 -2.20498,-6.775713 -5.09766,-9.013671 -3.31891,-2.39477 -5.27341,-6.269835 -8.75738,-8.458312 -1.54832,-0.765007 -3.31193,-0.969701 -5.01996,-0.928407 z" inkscape:connector-curvature="0" />
</g>
<g inkscape:groupmode="layer" id="grass_layer" inkscape:label="Grass" style="display:inline" sodipodi:insensitive="true" >
  <use xlink:href="#grass" height="100%" width="100%" x="0" y="0" style="display:inline;fill:#b4e982;fill-opacity:1;stroke:none;stroke-width:1;stroke-miterlimit:4;stroke-dasharray:none;stroke-opacity:1" />
</g>
<g inkscape:groupmode="layer" id="grass_texture1_layer" inkscape:label="Grass Texture Big" style="display:inline" sodipodi:insensitive="true" >
  <use xlink:href="#grass" height="100%" width="100%" x="0" y="0" style="display:inline;fill:#a7e46a;fill-opacity:1;stroke:none;stroke-width:1;stroke-miterlimit:4;stroke-dasharray:none;stroke-opacity:1;filter:url(#textureGrassBig)" />
</g>
<g inkscape:groupmode="layer" id="grass_texture2_layer" inkscape:label="Grass Texture Small" style="display:inline" sodipodi:insensitive="true" >
  <use xlink:href="#grass" height="100%" width="100%" x="0" y="0" style="display:inline;fill:#8cdd3d;fill-opacity:1;stroke:none;stroke-width:1;stroke-miterlimit:4;stroke-dasharray:none;stroke-opacity:1;filter:url(#textureGrassSmall)" />
</g>
<g inkscape:groupmode="layer" id="grass_master_layer" inkscape:label="Grass Master" style="display:none" sodipodi:insensitive="true" >
  <path id="grass" style="color:#000000;clip-rule:nonzero;display:inline;overflow:visible;visibility:visible;opacity:1;isolation:auto;mix-blend-mode:normal;color-interpolation:sRGB;color-interpolation-filters:linearRGB;solid-color:#000000;solid-opacity:1;fill-opacity:1;fill-rule:evenodd;filter:url(#blurGrass);color-rendering:auto;image-rendering:auto;shape-rendering:auto;text-rendering:auto;enable-background:accumulate" d="M 112.5,78.75 95.625,77.875 79.25,86.5 64.5,97.25 50.625,112.5 l -11.25,5.625 -15.875,3.125 -12.25,2.5 -22.5,0 0,225 270,0 0,-225 -22.5,0 -18.875,-4.5 L 200,113 177.5,104.375 157.5,95.625 141.625,85 129.375,84.375 Z" inkscape:connector-curvature="0" />
</g>
<g inkscape:groupmode="layer" id="forest_shadow_layer" inkscape:label="Forest Shadow" style="display:inline" sodipodi:insensitive="true" >
  <g style="filter:url(#blurForestShadow)" >
    <use xlink:href="#forest" height="100%" width="100%" x="0" y="0" style="display:inline;opacity:0.75;fill:#258c1b;fill-opacity:1;filter:url(#roughenForest)" />
  </g>
</g>
<g inkscape:groupmode="layer" id="forest_fill_layer" inkscape:label="Forest Fill" style="display:inline" sodipodi:insensitive="true" >
  <use xlink:href="#forest" height="100%" width="100%" x="0" y="0" style="fill:#83d700;fill-opacity:1;stroke:none;stroke-width:1.5;stroke-miterlimit:4;stroke-dasharray:none;stroke-opacity:1;filter:url(#roughenForest)" />
</g>
<g inkscape:groupmode="layer" id="forest_texture_big_layer" inkscape:label="Forest Texture Big" style="display:inline" sodipodi:insensitive="true" >
  <g style="filter:url(#textureForestBig)" >
    <use xlink:href="#forest" height="100%" width="100%" x="0" y="0" style="fill:#548c00;fill-opacity:1;stroke:none;stroke-width:1.5;stroke-miterlimit:4;stroke-dasharray:none;stroke-opacity:1;filter:url(#roughenForest)" />
  </g>
</g>
<g inkscape:groupmode="layer" id="forest_texture_small_layer" inkscape:label="Forest Texture Small" style="display:inline" sodipodi:insensitive="true" >
  <g style="filter:url(#textureForestSmall)" >
    <use xlink:href="#forest" height="100%" width="100%" x="0" y="0" style="fill:#78c125;fill-opacity:1;stroke:none;stroke-width:1;stroke-miterlimit:4;stroke-dasharray:none;stroke-opacity:1;filter:url(#roughenForest)" />
  </g>
</g>
<g inkscape:groupmode="layer" id="forest_outline_layer" inkscape:label="Forest Outline" style="display:inline" sodipodi:insensitive="true" >
  <use xlink:href="#forest" height="100%" width="100%" x="0" y="0" style="fill:none;fill-opacity:1;stroke:#006800;stroke-width:1.5;stroke-miterlimit:4;stroke-dasharray:none;stroke-opacity:1;filter:url(#roughenForest)" />
</g>
<g inkscape:groupmode="layer" id="forest_master_layer" inkscape:label="Forest Master" style="display:none" sodipodi:insensitive="true" >
  <path id="forest" style="color:#000000;clip-rule:nonzero;display:inline;overflow:visible;visibility:visible;opacity:1;isolation:auto;mix-blend-mode:normal;color-interpolation:sRGB;color-interpolation-filters:linearRGB;solid-color:#000000;solid-opacity:1;fill-opacity:1;fill-rule:nonzero;color-rendering:auto;image-rendering:auto;shape-rendering:auto;text-rendering:auto;enable-background:accumulate" d="m 190,146 c -3.86599,0 -7,2.91015 -7,6.5 0.005,3.41357 2.85204,6.24226 6.51953,6.47656 0.10198,1.2775 0.6082,2.49855 1.45508,3.50977 -1.2635,1.20995 -1.97148,2.8283 -1.97461,4.51367 0,3.58985 3.13401,6.5 7,6.5 2.41885,-0.003 4.66461,-1.16542 5.93945,-3.07422 0.40574,0.3234 0.85004,0.60256 1.32422,0.83203 0.0795,0.25724 0.17604,0.50967 0.28906,0.75586 -2.94842,0.17731 -5.45947,2.05454 -6.27539,4.69141 -3.102,0.73135 -5.27479,3.3231 -5.27734,6.29492 0.004,2.91839 2.10209,5.47659 5.13086,6.25586 -0.0866,0.40985 -0.13039,0.82649 -0.13086,1.24414 0,3.58985 3.13401,6.5 7,6.5 0.23033,-0.002 0.46043,-0.0142 0.68945,-0.0371 0.73265,2.94529 3.55519,5.03284 6.81055,5.0371 1.3601,-0.001 2.69034,-0.37052 3.82812,-1.0625 0.91169,2.711 3.61331,4.55848 6.67188,4.5625 3.86599,0 7,-2.91015 7,-6.5 -0.003,-0.88227 -0.19867,-1.7548 -0.57617,-2.56445 0.1071,-0.0114 0.21389,-0.025 0.32031,-0.041 0.50724,0.94802 1.25615,1.76667 2.18164,2.38477 -0.60484,0.98058 -0.92393,2.09065 -0.92578,3.22068 0.001,0.99953 0.25037,1.98536 0.72852,2.88086 -0.14917,0.52865 -0.22595,1.07265 -0.22852,1.61914 0,3.58985 3.13401,6.5 7,6.5 0.37889,-8.3e-4 0.75709,-0.0302 1.13086,-0.0879 1.14642,0.70808 2.49227,1.0865 3.86914,1.0879 2.10944,-0.001 4.10568,-0.88625 5.43359,-2.4082 2.74378,-0.94468 4.56517,-3.37451 4.56641,-6.0918 -0.003,-1.33602 -0.45012,-2.63862 -1.2793,-3.73047 2.3212,-1.11695 3.77865,-3.34191 3.7793,-5.76953 2.2e-4,-2.37603 -1.39574,-4.56284 -3.64062,-5.70312 0.0936,-0.42683 0.14066,-0.8613 0.14062,-1.29688 -0.003,-0.93198 -0.22115,-1.85253 -0.64062,-2.69922 0.0938,-0.4281 0.14094,-0.8639 0.14062,-1.30078 -0.003,-1.81645 -0.82472,-3.5488 -2.26562,-4.77734 0.82268,-1.09116 1.26448,-2.39067 1.26562,-3.72266 -0.002,-2.41051 -1.43981,-4.62222 -3.73633,-5.74609 1.42364,-1.22777 2.2337,-2.94975 2.23633,-4.75391 -0.003,-0.52154 -0.0727,-1.04091 -0.20898,-1.54688 2.55299,-1.03068 4.20561,-3.36813 4.20898,-5.95312 0,-3.58985 -3.13401,-6.5 -7,-6.5 -1.34318,5.2e-4 -2.65784,0.35987 -3.78711,1.03516 -0.23683,-0.023 -0.47477,-0.0347 -0.71289,-0.0352 -0.76578,0.003 -1.52587,0.12219 -2.25,0.35352 -0.72413,-0.23133 -1.48422,-0.35075 -2.25,-0.35352 -2.08911,0.002 -4.06819,0.8699 -5.39648,2.36719 -0.97695,-2.61165 -3.62613,-4.36367 -6.60352,-4.36719 -2.89206,0.003 -5.48411,1.65798 -6.52344,4.16406 -1.01065,0.20738 -1.9592,0.62028 -2.77734,1.20899 0.1982,-0.60737 0.29953,-1.23841 0.30078,-1.87305 0,-3.58985 -3.13401,-6.5 -7,-6.5 -3.64639,0.002 -6.68012,2.6035 -6.97266,5.97852 -1.20391,-1.15033 -2.82337,-1.84667 -4.54687,-1.95508 C 196.71165,148.62789 193.66661,146.00034 190,146 Z M 2.5,150 c -2.39104301,0.003 -4.6152648,1.13827 -5.8984375,3.01172 C -7.1031422,153.20785 -9.9993252,156.05433 -10,159.5 c 0,3.58985 3.1340068,6.5 7,6.5 0.1687929,-1.9e-4 0.337523,-0.006 0.5058594,-0.0176 C -3.4671745,167.12687 -3.9975447,168.54188 -4,170 c 0.00271,0.95087 0.2300643,1.8896 0.6660156,2.75 -0.4359513,0.8604 -0.6633013,1.79913 -0.6660156,2.75 0.00129,1.45172 0.5259144,2.86125 1.4902344,4.00391 C -3.4723099,180.64446 -3.9968275,182.05096 -4,183.5 c 0.00226,0.85648 0.186785,1.7041 0.5429688,2.49414 C -3.8148489,186.78782 -3.9994063,187.63958 -4,188.5 c 0.00289,0.50477 0.069091,1.00751 0.1972656,1.49805 C -3.9312327,190.48986 -3.9974364,190.99393 -4,191.5 c 0.00243,1.18015 0.3508232,2.33742 1.0078125,3.34766 -0.00325,0.0508 -0.00585,0.10153 -0.00781,0.15234 0.00342,0.68095 0.1220572,1.35716 0.3515625,2.00391 -3.8062659,0.075 -6.8501284,2.96091 -6.8515625,6.49609 0.00243,1.18015 0.3508232,2.33742 1.0078125,3.34766 -0.00325,0.0508 -0.00585,0.10153 -0.00781,0.15234 0,3.58985 3.1340068,6.5 7,6.5 0.99846078,-0.003 1.98472267,-0.20392 2.8925781,-0.58984 0.3659921,0.0572 0.7363001,0.0872 1.1074219,0.0898 0.5019905,-0.002 1.0022642,-0.0546 1.4921875,-0.15625 C 4.4872109,212.94641 4.9927838,212.9988 5.5,213 6.1768513,212.998 6.8498723,212.9056 7.4980469,212.72461 8.1474754,212.90597 8.8218393,212.99874 9.5,213 c 0.924961,-0.002 1.840383,-0.17366 2.693359,-0.50586 2.888922,-0.0746 5.431504,-1.79006 6.400391,-4.31836 1.041276,0.53967 2.213763,0.82338 3.40625,0.82422 3.865993,0 7,-2.91015 7,-6.5 -0.0018,-1.94884 -0.945238,-3.79409 -2.570312,-5.02734 0.189624,0.0163 0.379887,0.0254 0.570312,0.0273 0.230335,-0.002 0.460433,-0.0142 0.689453,-0.0371 0.732649,2.94529 3.555185,5.03285 6.810547,5.03711 3.865993,0 7,-2.91015 7,-6.5 -0.0027,-0.21668 -0.01702,-0.43309 -0.04297,-0.64844 1.901294,-1.20987 3.039336,-3.2113 3.042969,-5.35156 -0.004,-2.732 -1.847426,-5.17006 -4.613281,-6.10156 C 41.829521,182.69405 42.997296,180.66912 43,178.5 c -2.94e-4,-1.30499 -0.423604,-2.57969 -1.214844,-3.6582 0.467165,-0.88471 0.711607,-1.85647 0.714844,-2.8418 -0.0042,-2.6993 -1.804504,-5.11531 -4.523438,-6.07031 0.01292,-0.14295 0.02073,-0.28626 0.02344,-0.42969 0,-3.58985 -3.134007,-6.5 -7,-6.5 -2.367961,0.003 -4.573996,1.11661 -5.863281,2.96094 C 24.19053,159.30154 21.516214,157.50398 18.5,157.5 c -0.437886,0.001 -0.874697,0.0403 -1.304688,0.11719 -0.269512,-0.82484 -0.713011,-1.59167 -1.304687,-2.25586 C 15.296324,152.25985 12.392519,150.00051 9,150 7.8667878,150.001 6.7508437,150.25795 5.7480469,150.74805 4.7464198,150.25852 3.6318905,150.00184 2.5,150 Z m 200.97266,9.02148 c 0.15481,0.14771 0.3171,0.28849 0.48632,0.42188 -0.19717,0.0719 -0.39073,0.15204 -0.58007,0.24023 0.0434,-0.21907 0.0747,-0.44006 0.0937,-0.66211 z m 9.32812,0.60547 c -0.1982,0.60737 -0.29953,1.23841 -0.30078,1.87305 0.003,0.25276 0.0219,0.50514 0.0566,0.75586 -0.39723,-0.64247 -0.90982,-1.21715 -1.51562,-1.69922 0.63201,-0.22907 1.22479,-0.54224 1.75976,-0.92969 z m 17.10156,2.00196 c 0.13887,0.37681 0.31474,0.74097 0.52539,1.08789 0.0526,0.13322 0.10996,0.2648 0.17188,0.39453 -1.45599,0.91041 -2.49048,2.29555 -2.89844,3.88086 -0.50782,-0.90127 -1.23633,-1.67929 -2.12695,-2.27149 0.17346,-0.28402 0.32362,-0.57978 0.44922,-0.88476 1.52153,-0.31415 2.88661,-1.09086 3.8789,-2.20703 z M 172,164 c -3.86599,0 -7,2.91015 -7,6.5 0.002,0.54372 0.0775,1.08506 0.22461,1.61133 -3.31663,0.57067 -5.7233,3.25652 -5.72461,6.38867 0.002,1.64021 0.67183,3.21905 1.875,4.41992 -0.24611,0.66978 -0.37278,1.37239 -0.375,2.08008 0,3.58985 3.13401,6.5 7,6.5 3.86599,0 7,-2.91015 7,-6.5 -0.002,-1.64021 -0.67183,-3.21905 -1.875,-4.41992 0.24611,-0.66978 0.37278,-1.37239 0.375,-2.08008 -0.002,-0.54372 -0.0775,-1.08506 -0.22461,-1.61133 3.31663,-0.57067 5.7233,-3.25652 5.72461,-6.38867 0,-3.58985 -3.13401,-6.5 -7,-6.5 z m -147.636719,3.53906 c 0.52911,1.48387 1.616356,2.741 3.0625,3.54102 -0.519822,0.0749 -1.028895,0.20396 -1.517578,0.38476 -0.227537,-1.31415 -0.884066,-2.53177 -1.880859,-3.48828 0.118425,-0.14147 0.2305,-0.28743 0.335937,-0.4375 z m 203.941409,3.95703 c 0.0455,0.0849 0.0931,0.16895 0.14258,0.25196 -0.61804,0.98785 -0.94477,2.1095 -0.94727,3.25195 0.002,0.37865 0.0402,0.75639 0.11328,1.12891 -0.40127,-0.50097 -0.87817,-0.94565 -1.41601,-1.32032 1.04636,-0.8814 1.78102,-2.03616 2.10742,-3.3125 z m 0.58984,7.38086 c 0.33008,0.41567 0.71233,0.79334 1.13867,1.125 -0.42971,0.33427 -0.81463,0.71525 -1.14648,1.13477 0.0736,-0.37509 0.1115,-0.75546 0.11328,-1.13672 -7e-5,-0.37648 -0.0353,-0.75224 -0.10547,-1.12305 z m -19.37891,3.61133 c 0.42478,0.32637 0.88959,0.60499 1.38477,0.83008 -0.58896,0.97131 -0.89902,2.06695 -0.90039,3.18164 0.003,0.25276 0.0219,0.50514 0.0566,0.75586 -0.76785,-1.23885 -1.95405,-2.20813 -3.375,-2.75781 1.11566,-0.43152 2.092,-1.12391 2.83398,-2.00977 z M 20.255859,189.28906 C 20.08898,189.84626 20.002934,190.42166 20,191 c 0.0018,1.94884 0.945238,3.79409 2.570312,5.02734 C 22.380688,196.01103 22.190425,196.00191 22,196 c -1.040462,0.002 -2.067318,0.21968 -3.005859,0.63672 0.0025,-0.0455 0.0044,-0.0911 0.0059,-0.13672 -0.0013,-1.45172 -0.525914,-2.86125 -1.490234,-4.00391 0.737492,-0.87528 1.220985,-1.91153 1.404296,-3.00976 0.453096,-0.0252 0.902477,-0.0913 1.341797,-0.19727 z m 200.572261,2.64844 c 0.0711,0.21279 0.15385,0.42205 0.24805,0.62695 -1.0362,0.12717 -2.02858,0.4682 -2.90429,0.99805 -0.0711,-0.21279 -0.15385,-0.42205 -0.24805,-0.62695 1.0362,-0.12717 2.02858,-0.4682 2.90429,-0.99805 z M 198,215 c -1.17947,0.003 -2.33906,0.28227 -3.37109,0.8125 -0.68801,-0.2056 -1.40615,-0.31101 -2.12891,-0.3125 -3.86599,0 -7,2.91015 -7,6.5 0.004,2.77245 1.90103,5.23747 4.72461,6.13867 -0.47366,0.88989 -0.72153,1.86869 -0.72461,2.86133 8.3e-4,0.16753 0.009,0.33498 0.0234,0.50195 l -0.0234,-0.002 c -2.07332,6.4e-4 -4.03967,0.8547 -5.36914,2.33203 -0.50725,0.45618 -0.93725,0.981 -1.27539,1.55664 -0.75532,-0.25409 -1.55211,-0.38555 -2.35547,-0.38862 -3.86599,0 -7,2.91015 -7,6.5 0.002,1.20635 0.36481,2.38846 1.04883,3.41406 -2.57628,0.89794 -4.347,3.1142 -4.52539,5.66406 -0.33863,-0.0493 -0.68069,-0.0754 -1.02344,-0.0781 -3.86599,0 -7,2.91015 -7,6.5 0,3.58985 3.13401,6.5 7,6.5 1.1452,-0.001 2.27255,-0.26356 3.2832,-0.76367 1.30838,1.7295 3.44065,2.7603 5.7168,2.76367 3.86599,0 7,-2.91015 7,-6.5 -0.001,-1.72245 -0.73899,-3.37397 -2.05078,-4.5918 C 183.6328,253.38449 183.99659,252.20453 184,251 l 0,-0.0234 c 0.16631,0.0133 0.33309,0.0211 0.5,0.0234 l 0.0293,0 c 0.18517,0.1426 0.37813,0.27624 0.57812,0.40039 -0.0693,0.36304 -0.10526,0.73091 -0.10742,1.09961 0,3.58985 3.13401,6.5 7,6.5 1.05132,-0.002 2.08872,-0.22339 3.03516,-0.64844 -0.0233,0.21547 -0.0351,0.43188 -0.0352,0.64844 0.003,2.27953 1.29187,4.39098 3.39648,5.56445 -0.8941,0.88341 -1.50432,1.98141 -1.76171,3.16993 -3.03408,0.77888 -5.13507,3.34258 -5.13477,6.26562 0,3.58985 3.13401,6.5 7,6.5 0.34726,-10e-4 0.69392,-0.0269 1.03711,-0.0762 -1.30267,1.21607 -2.0349,2.86097 -2.03711,4.5762 0.003,1.09607 0.30354,2.17375 0.875,3.13281 -1.50644,1.23125 -2.37131,3.00367 -2.375,4.86719 0.004,3.51025 3.00858,6.38347 6.78711,6.49023 0.18881,0.33691 0.40905,0.6578 0.6582,0.95899 -2.05705,0.75155 -3.61093,2.36118 -4.1914,4.3418 -0.81565,1.0886 -1.25319,2.38282 -1.25391,3.70898 0.003,0.70855 0.13124,1.41184 0.37891,2.08203 -0.9043,-0.38147 -1.88567,-0.57987 -2.87891,-0.58203 -0.174,-1.6e-4 -0.34795,0.006 -0.52148,0.0176 C 194.70661,306.62504 191.66361,304.00106 188,304 c -3.86599,0 -7,2.91015 -7,6.5 0,3.58985 3.13401,6.5 7,6.5 0.174,1.5e-4 0.34795,-0.006 0.52148,-0.0176 0.0988,1.20618 0.55805,2.36284 1.32618,3.33985 -1.09518,0.3292 -2.08602,0.90411 -2.88477,1.67382 -1.2547,-0.96593 -2.83306,-1.49503 -4.46289,-1.49607 -1.75651,0.002 -3.44782,0.61808 -4.73828,1.72461 -0.21803,-0.22726 -0.45299,-0.44003 -0.70313,-0.63672 2.12958,-1.16739 3.43779,-3.29155 3.44141,-5.58789 -0.003,-1.75103 -0.76598,-3.42702 -2.11719,-4.64844 C 177.2586,309.01183 174.75913,307.50358 172,307.5 c -2.79124,10e-4 -5.31478,1.5426 -6.42188,3.92188 -0.10324,-0.0585 -0.20809,-0.11451 -0.31445,-0.16797 1.42364,-1.22777 2.2337,-2.94975 2.23633,-4.75391 -0.002,-0.54976 -0.0785,-1.0971 -0.22852,-1.62891 0.47658,-0.89254 0.72583,-1.87486 0.72852,-2.87109 -9.9e-4,-3.11918 -2.38796,-5.79796 -5.6875,-6.38281 1.69545,-1.23133 2.68657,-3.1185 2.6875,-5.11719 -0.003,-0.68095 -0.12206,-1.35716 -0.35156,-2.00391 3.80626,-0.075 6.85013,-2.96091 6.85156,-6.49609 -0.001,-0.33955 -0.0314,-0.67848 -0.0898,-1.01367 3.69927,-0.20162 6.58841,-3.04538 6.58984,-6.48633 0,-3.58985 -3.13401,-6.5 -7,-6.5 -3.86599,0 -7,2.91015 -7,6.5 10e-4,0.33955 0.0314,0.67848 0.0898,1.01367 -0.72238,0.0385 -1.43395,0.18087 -2.10937,0.42188 -0.38581,-0.36054 -0.81583,-0.67781 -1.28125,-0.94532 2.6023,-1.00986 4.29774,-3.37128 4.30082,-5.99023 0,-3.58985 -3.13401,-6.5 -7,-6.5 -0.3703,8e-4 -0.73995,0.0289 -1.10547,0.084 0.0677,-0.35796 0.10301,-0.72056 0.10547,-1.084 0,-3.58985 -3.13401,-6.5 -7,-6.5 -2.8655,0.003 -5.43985,1.62687 -6.49805,4.09961 C 142.44322,256.62565 139.86692,255.00124 137,255 c -3.86599,0 -7,2.91015 -7,6.5 0,3.58985 3.13401,6.5 7,6.5 0.0378,-10e-4 0.0755,-0.002 0.11328,-0.004 -0.27397,0.39721 -0.50057,0.82093 -0.67578,1.26368 -0.62955,-0.1704 -1.28176,-0.25782 -1.9375,-0.25968 -3.86599,0 -7,2.91015 -7,6.5 0,3.58985 3.13401,6.5 7,6.5 2.93245,-0.003 5.55183,-1.70361 6.5625,-4.25977 0.40839,0.11064 0.82678,0.18647 1.25,0.22657 -0.53249,0.93465 -0.81139,1.97582 -0.8125,3.0332 0.002,0.63407 0.10408,1.26444 0.30273,1.87109 -0.73976,-0.24265 -1.51818,-0.36809 -2.30273,-0.37109 -3.86599,0 -7,2.91015 -7,6.5 0.002,0.6156 0.0979,1.22784 0.28516,1.81836 -1.7515,1.22654 -2.78246,3.1446 -2.78516,5.18164 0.002,1.73705 0.75226,3.40118 2.08398,4.62109 -1.92548,1.20673 -3.08084,3.22184 -3.08398,5.37891 0,3.58985 3.13401,6.5 7,6.5 1.3601,-10e-4 2.69034,-0.37052 3.82812,-1.0625 0.34344,1.02175 0.95329,1.94894 1.7754,2.69922 -3.11899,0.59381 -5.41353,3.06731 -5.58399,6.01953 -3.2173,0.64646 -5.51486,3.28711 -5.51953,6.34375 0.001,0.99953 0.25037,1.98536 0.72852,2.88086 -0.14917,0.52865 -0.22595,1.07265 -0.22852,1.61914 0.002,0.4398 0.0527,0.87824 0.15039,1.30859 -1.0656,1.17249 -1.65021,2.6572 -1.65039,4.19141 0.001,2.10828 1.10356,4.08506 2.95703,5.30273 1.03028,2.52533 3.63477,4.1961 6.54297,4.19727 3.07495,-3.3e-4 5.78962,-1.86399 6.69141,-4.59375 0.90836,-0.14678 1.77654,-0.45874 2.55468,-0.91797 0.0845,0.005 0.1692,0.009 0.25391,0.0117 1.7366,-0.003 3.41008,-0.60498 4.69531,-1.68945 1.16335,2.2527 3.61419,3.68691 6.30469,3.68945 1.04984,-0.002 2.08583,-0.22264 3.03125,-0.64648 1.1674,0.74646 2.55134,1.14624 3.96875,1.14648 1.25358,-0.003 2.48325,-0.31882 3.56055,-0.91406 1.32796,1.52563 3.3269,2.41277 5.43945,2.41406 2.60525,-0.002 4.99367,-1.34762 6.19922,-3.49219 0.75098,2.92415 3.56339,4.98863 6.80078,4.99219 2.46019,-0.003 4.73812,-1.20495 6,-3.16602 1.26188,1.96107 3.53981,3.16306 6,3.16602 0.92496,-0.002 1.84038,-0.17366 2.69336,-0.50586 3.2944,-0.0862 6.07784,-2.29456 6.68359,-5.30273 0.68636,0.20372 1.40248,0.30781 2.12305,0.30859 1.88057,-0.002 3.68116,-0.70667 4.99609,-1.95508 1.31683,1.25021 3.12062,1.95497 5.00391,1.95508 1.3322,-7e-4 2.63653,-0.3544 3.75977,-1.01953 0.86647,0.34258 1.79848,0.51928 2.74023,0.51953 2.03276,-10e-4 3.96447,-0.82328 5.29297,-2.25195 1.30916,1.72244 3.43664,2.74832 5.70703,2.75195 1.74396,-0.003 3.42393,-0.61031 4.71094,-1.70312 3.10741,-0.72732 5.28612,-3.32117 5.28906,-6.29688 -0.001,-0.5781 -0.0851,-1.15349 -0.25,-1.71094 1.12521,-1.18473 1.74731,-2.70941 1.75,-4.28906 -0.001,-1.45172 -0.52591,-2.86125 -1.49023,-4.00391 0.96254,-1.14055 1.48706,-2.54705 1.49023,-3.99609 -6.1e-4,-1.67946 -0.70124,-3.29352 -1.95508,-4.50391 1.25182,-1.20844 1.9523,-2.81933 1.95508,-4.49609 -9.4e-4,-2.62717 -1.70494,-4.9955 -4.31836,-6.00195 2.29631,-0.8869 3.91341,-2.83858 4.24805,-5.12696 1.91782,-1.20805 3.06745,-3.21917 3.07031,-5.37109 -0.002,-0.7703 -0.15148,-1.53413 -0.44141,-2.25586 0.61456,-0.98608 0.93921,-2.10484 0.94141,-3.24414 -0.003,-2.44049 -1.4773,-4.67395 -3.81836,-5.7832 -0.0414,-0.0559 -0.0837,-0.1113 -0.12695,-0.16602 2.68104,-0.97588 4.44492,-3.37681 4.44531,-6.05078 -0.003,-2.44049 -1.4773,-4.67395 -3.81836,-5.7832 -0.0187,-0.0242 -0.0376,-0.0483 -0.0566,-0.0723 0.51144,-0.86372 0.80464,-1.82414 0.85742,-2.80859 1.88674,-1.212 3.01414,-3.20557 3.01754,-5.33591 -0.003,-2.27953 -1.29187,-4.39098 -3.39648,-5.56445 1.21496,-1.20175 1.89285,-2.78723 1.89648,-4.43555 -0.003,-2.27953 -1.29187,-4.39098 -3.39648,-5.56445 1.21496,-1.20175 1.89285,-2.78723 1.89648,-4.43555 -0.002,-0.0977 -0.005,-0.19541 -0.0117,-0.29297 0.005,-0.069 0.009,-0.13797 0.0117,-0.20703 -0.001,-1.27008 -0.40326,-2.51198 -1.15625,-3.57227 1.96848,-1.20095 3.15456,-3.24063 3.15625,-5.42773 -0.003,-1.99464 -0.99251,-3.87747 -2.68359,-5.10742 -1.29716,-1.80541 -3.47913,-2.89053 -5.81641,-2.89258 -1.63916,0.002 -3.22547,0.53867 -4.48242,1.51562 -0.56545,0.04 -1.12358,0.1436 -1.66211,0.3086 -1.32801,-1.47101 -3.2883,-2.32176 -5.35547,-2.32422 -2.50245,0.003 -4.81309,1.24537 -6.06055,3.25977 -0.63017,-0.1706 -1.28305,-0.25805 -1.93945,-0.25977 -2.02462,0.002 -3.94929,0.81729 -5.27734,2.23633 -0.87469,-0.42038 -1.83506,-0.66464 -2.81836,-0.7168 0.0607,-0.33698 0.0927,-0.67788 0.0957,-1.01953 0,-3.58985 -3.13401,-6.5 -7,-6.5 -3.86599,0 -7,2.91015 -7,6.5 0.002,1.07932 0.29322,2.14122 0.84766,3.08984 -0.47128,0.0725 -0.93332,0.18969 -1.37891,0.34961 -0.12196,-1.30424 -0.6652,-2.54389 -1.55859,-3.55664 1.92894,-1.20627 3.08678,-3.22334 3.08984,-5.38281 0,-3.58985 -3.13401,-6.5 -7,-6.5 z M 10,225 c -1.631287,0.002 -3.2104974,0.53351 -4.4648438,1.50195 L 5.5,226.5 c -1.1794697,0.003 -2.3390583,0.28227 -3.3710938,0.8125 C 1.4409002,227.1069 0.72275389,227.00149 0,227 c -0.24543367,0.002 -0.49056392,0.0167 -0.734375,0.043 C -0.9885458,227.0157 -1.2441377,227.0013 -1.5,227 c -3.8659932,0 -7,2.91015 -7,6.5 0.00241,2.09608 1.0932144,4.06244 2.9296875,5.28125 C -5.8516199,239.49195 -5.9970356,240.24282 -6,241 c 0.00103,0.82713 0.1720571,1.64647 0.5039062,2.41406 -0.00151,0.0286 -0.00281,0.0573 -0.00391,0.0859 0.00245,1.08473 0.29721,2.15165 0.8574219,3.10352 C -5.833442,247.80094 -6.4963793,249.37009 -6.5,251 c 0.00474,3.23126 2.5649345,5.96868 6.00976562,6.42578 C -3.2052261,258.38542 -4.9997484,260.80247 -5,263.5 c 0.00244,0.30863 0.028546,0.6167 0.078125,0.92188 C -5.3020033,265.23562 -5.4987488,266.113 -5.5,267 c 0.00129,0.59986 0.09199,1.19667 0.2695312,1.77344 -0.8248843,1.09183 -1.2681048,2.39285 -1.2695312,3.72656 9.435e-4,2.62717 1.7049419,4.9955 4.3183594,6.00195 -2.6120066,1.0059 -4.3157193,3.3723 -4.3183594,5.99805 0.00337,1.80157 0.811825,3.52103 2.2324219,4.74805 C -5.6892422,290.47599 -6.4977905,292.19707 -6.5,294 c 0.00268,0.93198 0.2211571,1.85253 0.640625,2.69922 C -5.953208,297.12732 -6.000321,297.56312 -6,298 c 0.00331,1.78171 0.7941163,3.48405 2.1875,4.70898 -0.4497188,0.87133 -0.6845823,1.82479 -0.6875,2.79102 0.00139,1.72245 0.7389915,3.37397 2.0507812,4.5918 -0.6835776,1.02371 -1.0473698,2.20367 -1.0507812,3.4082 0.00257,2.2913 1.3041364,4.41209 3.42578125,5.58203 C -0.99616286,320.20906 -1.496772,321.5847 -1.5,323 c 0.00184,1.50173 0.56361432,2.95654 1.58984375,4.11719 C -1.839098,328.32346 -2.9969364,330.34053 -3,332.5 c 0,3.58985 3.13400675,6.5 7,6.5 0.8977448,-7.8e-4 1.7869464,-0.16192 2.6191406,-0.47461 1.2892302,1.8544 3.5038184,2.97457 5.8808594,2.97461 2.136864,-0.003 4.155204,-0.91222 5.480469,-2.46875 C 19.298617,340.29009 21.10914,341.00021 23,341 c 1.922429,-0.003 3.758766,-0.74071 5.078125,-2.03906 1.280619,1.89043 3.516741,3.03799 5.921875,3.03906 2.351983,-0.002 4.54583,-1.1001 5.839844,-2.92383 1.218785,2.10661 3.584841,3.42167 6.160156,3.42383 3.315088,-5.3e-4 6.175197,-2.16028 6.851562,-5.17383 0.938189,1.19358 2.286357,2.0547 3.822266,2.44141 1.153367,2.27595 3.617345,3.72968 6.326172,3.73242 2.16271,-0.003 4.202293,-0.93487 5.525391,-2.52344 0.157872,0.0128 0.316166,0.0206 0.474609,0.0234 1.880575,-0.002 3.681162,-0.70667 4.996094,-1.95508 1.090878,1.03181 2.521119,1.69642 4.064453,1.88867 C 79.337412,342.8394 81.582814,343.99866 84,344 c 3.567131,-10e-4 6.562782,-2.49292 6.955078,-5.78516 0.492107,0.13787 0.99907,0.22498 1.511719,0.25977 1.32435,1.59132 3.367386,2.52377 5.533203,2.52539 0.591234,-10e-4 1.179906,-0.0722 1.751953,-0.21094 1.326357,1.40247 3.237977,2.20782 5.248047,2.21094 0.16944,-1.5e-4 0.33882,-0.006 0.50781,-0.0176 1.25923,0.97966 2.84941,1.51686 4.49219,1.51758 3.46222,-0.004 6.40118,-2.35766 6.91406,-5.53711 0.70652,-1.03606 1.08299,-2.23658 1.08594,-3.46289 -0.002,-0.41581 -0.0473,-0.83047 -0.13477,-1.23828 0.0891,-0.41549 0.13423,-0.83807 0.13477,-1.26172 -0.002,-1.18015 -0.35082,-2.33742 -1.00781,-3.34766 0.003,-0.0507 0.006,-0.10153 0.008,-0.15234 -1.1e-4,-1.47345 -0.53935,-2.90315 -1.5293,-4.05469 -0.18164,-1.95874 -1.30825,-3.73591 -3.06445,-4.83398 0.39031,-0.82294 0.59248,-1.71212 0.59375,-2.61133 -0.003,-1.80157 -0.81182,-3.52103 -2.23242,-4.74805 1.42166,-1.22794 2.23021,-2.94902 2.23242,-4.75195 0,-3.58985 -3.13401,-6.5 -7,-6.5 -1.19069,0.002 -2.36104,0.28672 -3.40039,0.82617 -0.90464,-1.49887 -2.41161,-2.60417 -4.191407,-3.07422 3.011777,-0.79238 5.090897,-3.34521 5.091797,-6.25195 -0.001,-0.99953 -0.25037,-1.98536 -0.72852,-2.88086 0.14917,-0.52865 0.22595,-1.07265 0.22852,-1.61914 0,-3.58985 -3.134007,-6.5 -7,-6.5 -0.879302,5.6e-4 -1.750619,0.15494 -2.568359,0.45508 -0.144911,-0.32091 -0.31734,-0.6305 -0.515625,-0.92578 -0.03229,-0.19371 -0.074,-0.38597 -0.125,-0.57618 0.750268,-0.30201 1.437746,-0.72375 2.03125,-1.24609 1.206518,0.8371 2.671622,1.29054 4.177734,1.29297 3.86599,0 7,-2.91015 7,-6.5 0,-3.58985 -3.13401,-6.5 -7,-6.5 -0.03777,0.001 -0.07553,0.002 -0.113281,0.004 0.724216,-1.04515 1.110572,-2.26119 1.113281,-3.504 0,-3.58985 -3.134007,-6.5 -7,-6.5 -3.865993,0 -7,2.91015 -7,6.5 0.0033,1.60242 0.643882,3.14725 1.798828,4.33789 -2.731289,0.84339 -4.628193,3.1533 -4.78125,5.82227 C 82.519524,275.05553 82.010636,275.00183 81.5,275 c -1.590671,5.1e-4 -3.133721,0.50406 -4.375,1.42773 C 76.167799,273.78525 73.502416,272.00388 70.5,272 c -3.292711,10e-4 -6.139376,2.13316 -6.837891,5.12109 C 62.3383,275.7726 60.465048,275.00289 58.5,275 c -3.865993,0 -7,2.91015 -7,6.5 6.25e-4,1.67853 0.700509,3.29176 1.953125,4.50195 -2.30552,0.0147 -4.455373,1.08273 -5.748047,2.85547 C 47.899671,288.2548 47.999015,287.62913 48,287 47.998,283.64343 45.243945,280.84031 41.644531,280.53125 41.878428,279.87599 41.998421,279.19032 42,278.5 c 0,-3.58985 -3.134007,-6.5 -7,-6.5 -2.375775,0.003 -4.587886,1.12425 -5.875,2.97852 -0.68208,-0.25496 -1.403161,-0.40853 -2.136719,-0.45508 0.976473,-1.14531 1.509011,-2.56266 1.511719,-4.02344 0,-3.58985 -3.134007,-6.5 -7,-6.5 -0.175983,3.5e-4 -0.35189,0.007 -0.527344,0.0195 0.01658,-0.17277 0.0257,-0.34608 0.02734,-0.51953 -0.004,-3.2332 -2.566501,-5.97216 -6.013672,-6.42773 -0.356761,-0.82297 -0.891167,-1.56941 -1.570312,-2.19336 1.925483,-1.20673 3.080841,-3.22184 3.083984,-5.37891 -0.0031,-0.0932 -0.0083,-0.18631 -0.01563,-0.2793 0.653605,0.1839 1.332674,0.278 2.015625,0.2793 3.865993,0 7,-2.91015 7,-6.5 -0.0017,-2.41051 -1.439811,-4.62222 -3.736328,-5.74609 C 23.187315,236.02614 23.997367,234.30416 24,232.5 c 0,-3.58985 -3.134007,-6.5 -7,-6.5 -0.884962,5.9e-4 -1.761778,0.157 -2.583984,0.46094 C 13.168591,225.51714 11.609083,225.00121 10,225 Z m 222.06055,11.24023 c 0.18225,0.0506 0.36665,0.0942 0.55273,0.13086 -0.39959,0.82701 -0.60849,1.72249 -0.61328,2.62891 -1e-5,1.24272 0.38364,2.4594 1.10547,3.50586 -0.71952,1.04311 -1.10307,2.25541 -1.10547,3.49414 0.003,0.13038 0.0101,0.26064 0.0215,0.39062 -0.19784,-0.10684 -0.40121,-0.20462 -0.60937,-0.29296 0.3863,-0.81912 0.58643,-1.70344 0.58787,-2.59766 -0.003,-1.86198 -0.86543,-3.63344 -2.36914,-4.86523 0.0219,-0.0402 0.0434,-0.0805 0.0644,-0.1211 0.97787,-0.56554 1.7903,-1.34644 2.36524,-2.27344 z m -33.0293,0.82032 c 0.046,0.47782 0.14885,0.94944 0.30664,1.40625 -2.07191,1.18103 -3.33552,3.27571 -3.33789,5.5332 0.004,3.51025 3.00858,6.38347 6.78711,6.49023 0.57923,1.03298 1.44671,1.90248 2.51172,2.51758 0.0758,0.13343 0.15658,0.26437 0.24219,0.39258 -1.07305,-0.58733 -2.29543,-0.89815 -3.54102,-0.90039 -1.05132,0.002 -2.08872,0.22339 -3.03516,0.64844 0.0233,-0.21547 0.0351,-0.43188 0.0352,-0.64844 -7e-4,-2.16878 -1.16623,-4.19437 -3.10742,-5.40039 0.0693,-0.36304 0.10526,-0.73091 0.10742,-1.09961 -0.003,-1.32435 -0.44075,-2.61637 -1.25586,-3.70312 1.12925,-1.18596 1.7536,-2.71383 1.75586,-4.29688 -8.3e-4,-0.16753 -0.009,-0.33498 -0.0234,-0.50195 l 0.0234,0.002 c 0.86576,1.3e-4 1.72403,-0.14888 2.53125,-0.43945 z m 13.42578,1.94531 c 1.31919,1.27361 3.13995,1.99359 5.04297,1.99414 0.36111,-0.001 0.72156,-0.0289 1.07812,-0.082 -0.38069,0.81494 -0.57744,1.69369 -0.57812,2.582 0.001,0.0528 0.003,0.10549 0.006,0.1582 -0.89686,0.18239 -1.74632,0.52682 -2.5,1.01368 -0.0999,-0.0623 -0.20148,-0.12224 -0.30469,-0.17969 -0.91002,-1.61312 -2.50704,-2.79778 -4.40234,-3.26563 0.71417,-0.62419 1.27911,-1.38077 1.6582,-2.2207 z m 18.46094,19.08984 c -0.73873,0.90997 -1.20685,1.98429 -1.35742,3.11524 -0.35752,-0.23574 -0.7381,-0.43976 -1.13672,-0.60938 0.57099,-0.64905 1.00142,-1.3945 1.26758,-2.19531 0.41815,-0.0688 0.8287,-0.1727 1.22656,-0.31055 z m -87.41992,5.80469 c 0.18094,0.42064 0.40874,0.82256 0.67968,1.19922 -0.38885,-0.064 -0.78283,-0.0973 -1.17773,-0.0996 -0.0378,0.001 -0.0755,0.002 -0.11328,0.004 0.24121,-0.34889 0.44592,-0.71842 0.61133,-1.10352 z m 5.32422,4 c 0.38885,0.064 0.78283,0.0973 1.17773,0.0996 0.3703,-8e-4 0.73995,-0.0289 1.10547,-0.084 -0.0677,0.35796 -0.10301,0.72056 -0.10547,1.084 0.003,2.24232 1.25071,4.32479 3.30078,5.50977 -0.69138,0.26922 -1.3317,0.63982 -1.89648,1.09765 -0.96018,-0.59943 -2.0654,-0.96851 -3.2168,-1.07422 0.53249,-0.93465 0.81139,-1.97582 0.8125,-3.0332 -0.002,-1.28144 -0.41162,-2.53377 -1.17773,-3.59961 z M 14.607422,271.625 c 0.346955,1.81983 1.511768,3.41647 3.203125,4.39062 -0.103378,-0.007 -0.20692,-0.0126 -0.310547,-0.0156 -0.393359,-8e-5 -0.786025,0.0306 -1.173828,0.0918 -0.32075,-1.33852 -1.089159,-2.54856 -2.195313,-3.45703 0.189364,-0.32345 0.348791,-0.66126 0.476563,-1.00977 z m 212.939458,1.08398 c 0.0705,0.59418 0.22885,1.17649 0.4707,1.73047 0.0533,0.70691 0.23081,1.40097 0.52539,2.05469 -1.60861,1.2334 -2.54096,3.06874 -2.54297,5.00586 0.002,0.63407 0.10408,1.26444 0.30273,1.87109 C 225.56297,283.12844 224.78455,283.003 224,283 c -2.25484,0.002 -4.37052,1.0127 -5.68359,2.71484 -0.27063,-0.52843 -0.61685,-1.0205 -1.0293,-1.46289 0.64389,-0.68907 1.12436,-1.49628 1.41016,-2.36914 0.42935,0.0768 0.8655,0.11599 1.30273,0.11719 3.86599,0 7,-2.91015 7,-6.5 -0.003,-0.88227 -0.19867,-1.7548 -0.57617,-2.56445 0.38041,-0.0468 0.75602,-0.12259 1.12305,-0.22657 z m -22.2461,2.80274 c 0.21342,0.37899 0.4666,0.7375 0.75586,1.07031 -0.4023,0.60206 -0.69589,1.26114 -0.86914,1.95117 -0.22844,-0.0215 -0.45789,-0.0326 -0.6875,-0.0332 -0.34726,10e-4 -0.69392,0.0269 -1.03711,0.0762 0.90348,-0.84579 1.53926,-1.90588 1.83789,-3.06445 z M 65.337891,282.87891 C 66.6617,284.2274 68.534952,284.99711 70.5,285 c 0.338729,-0.002 0.676857,-0.0268 1.011719,-0.0742 -1.069664,0.37977 -2.02265,0.99744 -2.775391,1.79883 -1.195727,-1.02158 -2.736932,-1.62508 -4.359375,-1.70703 0.455685,-0.65369 0.781169,-1.37809 0.960938,-2.13867 z m 9.537109,0.69336 c 0.131456,0.36449 0.297471,0.71743 0.496094,1.05468 C 74.919671,284.54287 74.460415,284.50034 74,284.5 c -0.338729,0.002 -0.676857,0.0268 -1.011719,0.0742 0.68125,-0.24073 1.317828,-0.57879 1.886719,-1.00195 z m -42.5,0.94921 c 0.63312,0.23801 1.300348,0.3887 1.980469,0.44727 C 34.121572,285.62401 34.001579,286.30968 34,287 c 0.0026,0.23502 0.01888,0.46974 0.04883,0.70312 -0.353585,-0.23167 -0.729543,-0.4324 -1.123047,-0.5996 -0.118416,-0.78678 -0.391152,-1.54673 -0.804687,-2.24219 0.0885,-0.11075 0.173175,-0.22409 0.253904,-0.33985 z m 47.753906,3.35157 c 0.127057,0.0208 0.25471,0.0384 0.382813,0.0527 1.065535,2.45971 3.63309,4.07198 6.488281,4.07425 0.879302,-5.6e-4 1.750619,-0.15494 2.568359,-0.45508 0.04997,0.11336 0.103373,0.22538 0.160157,0.33594 -0.14917,0.52865 -0.225948,1.07265 -0.228516,1.61914 0.0011,0.17212 0.0096,0.34413 0.02539,0.51562 -1.518608,0.0984 -2.961281,0.6538 -4.109375,1.58204 C 84.50162,295.206 83.506985,295.00214 82.5,295 c -1.009931,0.002 -2.007364,0.20753 -2.923828,0.60156 -0.115761,-0.0968 -0.234968,-0.18991 -0.357422,-0.27929 C 80.363455,294.13323 80.99742,292.59489 81,291 c -0.0024,-1.09377 -0.302026,-2.16929 -0.871094,-3.12695 z m -33.333984,2.76953 C 46.600329,291.2452 46.500985,291.87087 46.5,292.5 c 8.57e-4,1.93426 0.929378,3.76767 2.533203,5.00195 L 49,297.5 c -1.667007,0.002 -3.278638,0.55576 -4.544922,1.5625 C 45.45244,297.9108 45.997363,296.47788 46,295 c -0.0015,-0.99448 -0.248735,-1.97538 -0.722656,-2.86719 0.587603,-0.41904 1.099837,-0.92204 1.517578,-1.49023 z m 170.888668,1.64258 c 0.26547,0.5183 0.6037,1.00167 1.00586,1.4375 -1.05726,0.26569 -2.03262,0.75806 -2.84765,1.4375 -0.079,-0.35632 -0.19006,-0.70586 -0.33203,-1.04493 0.8557,-0.46057 1.59659,-1.08429 2.17382,-1.83007 z m -63.99218,3.32812 c 0.87576,0.63841 1.90288,1.07363 2.99609,1.26953 -1.69545,1.23133 -2.68657,3.1185 -2.6875,5.11719 0.002,0.54976 0.0785,1.0971 0.22852,1.62891 -0.25386,0.47536 -0.44407,0.9778 -0.56641,1.49609 -0.54302,0.0992 -1.07145,0.25788 -1.57422,0.47266 -0.6992,-0.86268 -1.61881,-1.55004 -2.67578,-2 2.7544,-0.93884 4.58597,-3.37313 4.58789,-6.09766 -0.002,-0.63958 -0.10632,-1.27534 -0.30859,-1.88672 z m -84.427738,0.16211 c 0.165458,0.14176 0.338185,0.27603 0.517578,0.40234 -0.917016,0.95615 -1.509505,2.14249 -1.703125,3.41016 C 66.80708,298.56506 65.181924,298.00139 63.5,298 c -0.173352,-1.1e-4 -0.346648,0.006 -0.519531,0.0176 -0.0043,-0.0326 -0.0088,-0.0652 -0.01367,-0.0977 0.341794,0.0504 0.687142,0.0772 1.033201,0.0801 2.017849,-0.002 3.936428,-0.81326 5.263672,-2.22461 z m 158.621098,0.63867 c -0.25011,0.67113 -0.38009,1.37578 -0.38477,2.08594 0.001,0.0573 0.003,0.11461 0.006,0.17188 -0.0467,0.032 -0.0929,0.0645 -0.13867,0.0976 -0.14322,-0.68326 -0.4037,-1.34072 -0.77149,-1.94726 0.44296,-0.0968 0.87469,-0.23356 1.28907,-0.40821 z M 18.300781,297.50977 C 19.409946,298.15441 20.691492,298.49746 22,298.5 l 0.03711,-0.002 c -1.022328,0.78863 -1.781744,1.83122 -2.189453,3.00586 -1.111358,0.0237 -2.200655,0.29285 -3.177734,0.78515 -0.451306,-0.31412 -0.941842,-0.57644 -1.460938,-0.78125 1.555156,-0.90481 2.665447,-2.34054 3.091797,-3.99804 z m 122.931639,3.66015 c 0.71667,0.97042 1.70358,1.742 2.85547,2.23242 -0.49739,0.16958 -0.97243,0.39105 -1.41601,0.66016 -0.34031,-1.01433 -0.94318,-1.93575 -1.75586,-2.68359 0.10753,-0.0669 0.21303,-0.13662 0.3164,-0.20899 z m 72.42578,0.16992 c 0.68165,3.00478 3.53486,5.15671 6.8418,5.16016 1.48786,-0.002 2.93617,-0.44511 4.13477,-1.26367 l 0,0.002 c -0.0891,0.41547 -0.13423,0.83804 -0.13477,1.26167 0.003,0.67682 0.12078,1.34898 0.34766,1.99219 -0.15693,0.44461 -0.2617,0.90365 -0.3125,1.36914 -1.9346,1.02505 -3.22836,2.84386 -3.48438,4.89844 -1.44836,0.39454 -2.72058,1.21323 -3.62695,2.33398 -0.13302,-0.8795 -0.45873,-1.72435 -0.95703,-2.48242 0.0214,-0.20318 0.0325,-0.40718 0.0332,-0.61133 -0.002,-2.42024 -1.45255,-4.63886 -3.76367,-5.75781 0.17251,-0.56695 0.26121,-1.15305 0.26367,-1.74219 -0.001,-1.42809 -0.50941,-2.81599 -1.44531,-3.94922 0.77306,-0.28443 1.48536,-0.69448 2.10351,-1.21094 z m -157.136716,3.64258 c 0.02992,0.34434 0.08935,0.68592 0.177735,1.02149 -0.310438,-0.11813 -0.62962,-0.21539 -0.955078,-0.29102 0.06916,-0.23588 0.123934,-0.47519 0.164062,-0.7168 0.03059,0.001 0.06119,0.003 0.0918,0.004 0.174003,1.5e-4 0.347952,-0.006 0.521484,-0.0176 z m 22.708985,2.26172 c 0.817322,0.40126 1.712148,0.64819 2.632812,0.72656 -0.236331,0.65424 -0.35896,1.33925 -0.363281,2.0293 0.004,0.3239 0.03399,0.64706 0.08984,0.9668 -0.730842,-0.26946 -1.505356,-0.42265 -2.291016,-0.45313 C 79.429619,310.01819 79.497142,309.51014 79.5,309 c -0.003,-0.59397 -0.09371,-1.18476 -0.269531,-1.75586 z m -35.9375,0.50391 c 0.956092,1.25484 2.360164,2.15444 3.96289,2.53906 -0.006,0.0202 -0.01183,0.0404 -0.01758,0.0606 C 46.51752,310.11953 45.761494,310.00208 45,310 c -2.605249,0.002 -4.993667,1.34762 -6.199219,3.49219 -0.386081,-1.50187 -1.335322,-2.82707 -2.677734,-3.73828 0.610741,0.16068 1.24218,0.24346 1.876953,0.24609 2.032761,-10e-4 3.964466,-0.82328 5.292969,-2.25195 z m 22.441406,2.90429 c 0.782758,2.75186 3.402546,4.71077 6.464844,4.83399 C 72.069083,315.98188 72.002217,316.48993 72,317 c 0.0024,0.51951 0.07195,1.03687 0.207031,1.54102 -0.23478,-0.0247 -0.470759,-0.0384 -0.707031,-0.041 -1.133212,10e-4 -2.249156,0.25795 -3.251953,0.74805 -0.797621,-0.38793 -1.66835,-0.62932 -2.564453,-0.71094 0.534514,-0.9355 0.814776,-1.9781 0.816406,-3.03711 -7.61e-4,-1.71164 -0.728558,-3.35392 -2.025391,-4.57031 0.428247,-0.0561 0.849973,-0.14896 1.259766,-0.27735 z m 34.166016,1.02149 c 0.353799,0.58547 0.803139,1.1165 1.332029,1.57422 C 99.810757,314.47599 99.002209,316.19707 99,318 c 0.0029,0.50208 0.06844,1.00216 0.195312,1.49023 C 98.087273,318.84624 96.807179,318.50321 95.5,318.5 c -0.362584,0.003 -0.72435,0.0326 -1.082031,0.0879 C 94.800847,317.77139 94.998955,316.89055 95,316 c -0.0025,-0.87939 -0.197227,-1.74915 -0.572266,-2.55664 0.233877,-0.34649 0.432021,-0.71269 0.591797,-1.09375 0.486326,0.0989 0.982624,0.14929 1.480469,0.15039 1.190687,-0.002 2.361045,-0.28672 3.400391,-0.82617 z m -61.701172,6.33398 c 0.362348,1.40859 1.22091,2.66447 2.439453,3.56836 -1.001351,0.4168 -1.883147,1.04637 -2.574219,1.83789 C 36.986017,322.8182 35.754907,322.5025 34.5,322.5 c -1.48719,0.003 -2.934748,0.44548 -4.132812,1.26367 -0.232068,-1.10216 -0.7677,-2.12968 -1.554688,-2.98242 0.9862,0.47062 2.078691,0.71697 3.1875,0.71875 2.605249,-0.002 4.993667,-1.34762 6.199219,-3.49219 z m 13.5625,0.14453 c 0.48873,0.15484 0.994411,0.25899 1.507812,0.31055 0.101943,0.1852 0.213399,0.36575 0.333985,0.54102 -0.03449,-0.002 -0.069,-0.003 -0.103516,-0.004 -0.753278,0.003 -1.501177,0.11795 -2.214844,0.3418 0.200258,-0.3811 0.359873,-0.77949 0.476563,-1.18946 z m 103.628901,0.96094 c 0.32815,0.89201 0.8613,1.70707 1.5625,2.38867 -0.56328,0.54486 -1.01998,1.17671 -1.3496,1.86719 -0.26655,-0.70394 -0.66165,-1.36001 -1.16797,-1.93945 0.47553,-0.70805 0.79979,-1.49451 0.95507,-2.31641 z m 12.73047,1.03711 c 0.0347,0.0375 0.0699,0.0746 0.10547,0.11133 -0.0943,0.0481 -0.18745,0.0983 -0.27929,0.15039 0.0601,-0.086 0.11811,-0.17322 0.17382,-0.26172 z m -151.515621,3.76563 c -0.03761,0.20766 -0.06434,0.41689 -0.08008,0.62695 -0.258833,-0.20106 -0.532986,-0.38449 -0.820313,-0.54883 0.301629,-0.008 0.602387,-0.0341 0.900391,-0.0781 z m 34.554687,7.70117 c 0.195753,0.0648 0.394517,0.12152 0.595703,0.16992 -0.04006,0.12785 -0.07589,0.25682 -0.107421,0.38672 -0.151593,-0.19376 -0.314602,-0.37959 -0.488282,-0.55664 z m 151.835934,0.5039 c 0.33959,0.18164 0.695,0.33648 1.0625,0.46289 -0.35006,-0.0528 -0.70395,-0.0809 -1.05859,-0.084 -0.33873,0.002 -0.67686,0.0268 -1.01172,0.0742 0.34843,-0.12581 0.68544,-0.27734 1.00781,-0.45313 z m -6.68164,0.16016 c 0.98561,0.47034 2.0774,0.71668 3.18555,0.71875 0.33873,-0.002 0.67686,-0.0268 1.01172,-0.0742 -0.0688,0.0257 -0.13718,0.0524 -0.20508,0.0801 -1.04081,0.0256 -2.06236,0.26648 -2.99023,0.70508 -0.2649,-0.51536 -0.60179,-0.99607 -1.00196,-1.42969 z m -11.23047,0.75781 c -0.24892,0.36709 -0.45764,0.75641 -0.62304,1.16211 -0.58583,0.38565 -1.10427,0.8527 -1.53711,1.38477 -0.11163,-0.73319 -0.35735,-1.44328 -0.72656,-2.09961 0.10079,0.007 0.20173,0.0112 0.30273,0.0137 0.88496,-5.9e-4 1.76177,-0.157 2.58398,-0.46094 z" inkscape:connector-curvature="0" />
</g>
<g inkscape:groupmode="layer" id="routes_layer" inkscape:label="Routes" style="display:inline" sodipodi:insensitive="true" >
  <path style="display:inline;fill:none;stroke:#000000;stroke-width:2;stroke-linecap:round;stroke-miterlimit:4;stroke-dasharray:0.1, 5;stroke-dashoffset:0;stroke-opacity:1" d="m 123.75,0 0,11.25 c 0,3.75 1.5581,10.054758 1.76777,13.194544 0.7305,10.939415 12.05651,31.022316 -4.25178,55.21231 -15.73218,23.335446 -33.43156,53.082376 -34.1514,64.747476 -1.127869,18.27723 40.85015,16.03197 19.02019,38.1047 C 94.287292,194.48827 138.75,228.375 117.5,248.5 c -9.13235,8.64888 6.25,65.74414 6.25,77.75 l 0,11.25 M 0,219.375 l 11.25,0 c 33.75,0 39.952905,52.00581 60.10529,45.19352 22.98634,-7.77028 29.28014,-44.21819 48.07061,-44.0314 21.30813,0.21182 25.61594,26.95504 44.28283,16.27364 10.37612,-5.93733 8.64118,-62.87174 25.38871,-40.52881 C 206.46207,219.44816 230.625,219.375 236.25,219.375 l 11.25,0" inkscape:connector-curvature="0" />
</g>
<g inkscape:groupmode="layer" id="labels_layer" inkscape:label="Labels" style="display:inline" sodipodi:insensitive="true" >
  <text xml:space="preserve"><textPath xlink:href="#portaubella"><tspan
  style="-inkscape-font-specification:'CCTreasureTroveAged Mod, Normal';font-family:'CCTreasureTroveAged Mod';font-weight:normal;font-style:normal;font-stretch:normal;font-variant:normal;font-size:8.75px;text-anchor:start;text-align:start;writing-mode:lr;line-height:125%"
  >Port-au-Bella</tspan></textPath></text>
</g>
<g inkscape:groupmode="layer" id="labels_guide_layer" inkscape:label="Labels Guide" style="display:none" sodipodi:insensitive="true" >
  <path id="portaubella" style="color:#000000;fill:none;stroke:#000000;stroke-width:1;stroke-opacity:1" d="m 209.52863,98.08781 c -9.5,-7.75 -46.125,-29.625 -60.625,-32.125" inkscape:connector-curvature="0" />
</g>
<g inkscape:groupmode="layer" id="resources_layer" inkscape:label="Resources" style="display:inline" sodipodi:insensitive="true" >
  <g id="resource-squid" transform="matrix(-0.98824028,-0.15290897,0.15290897,-0.98824028,141.28362,-33.33865)" >
    <circle cx="0.060593" cy="-110.109990" r="19.000000" style="opacity:1;fill:#ffffff;fill-opacity:1;stroke:#000000;stroke-width:0.89999998;stroke-linecap:round;stroke-linejoin:round;stroke-miterlimit:4;stroke-dasharray:none;stroke-dashoffset:0;stroke-opacity:1" />
    <g >
      <path style="color:#000000;clip-rule:nonzero;display:inline;overflow:visible;visibility:visible;opacity:1;isolation:auto;mix-blend-mode:normal;color-interpolation:sRGB;color-interpolation-filters:linearRGB;solid-color:#000000;solid-opacity:1;fill:#ffffff;fill-opacity:1;fill-rule:evenodd;stroke:none;stroke-width:0.89999998;stroke-linecap:round;stroke-linejoin:miter;stroke-miterlimit:4;stroke-dasharray:none;stroke-dashoffset:0;stroke-opacity:1;color-rendering:auto;image-rendering:auto;shape-rendering:auto;text-rendering:auto;enable-background:accumulate" d="m 3.751377,-125.43036 -1.988737,1.32582 -2.342292,2.2981 -1.988737,2.43068 -1.104855,2.2981 -0.707107,1.90035 0,1.14905 1.679379,0 -0.397747,1.98873 -0.574525,2.47488 -0.08839,2.34229 -0.08839,1.72357 0.839689,0.70711 1.767767,0.39775 1.856155,0.0442 1.414214,-0.17678 1.414213,-0.57453 0.309359,-0.83968 0.30936,-2.3423 -0.30936,-2.69584 -0.176776,-2.65165 1.723573,0.53033 0.04419,-2.20971 -0.220971,-3.7565 -0.397748,-3.27037 z" inkscape:connector-curvature="0" />
      <path style="fill:#000000;fill-opacity:1;fill-rule:evenodd;stroke:none;stroke-width:0.89999998;stroke-linecap:round;stroke-linejoin:miter;stroke-miterlimit:4;stroke-dasharray:none;stroke-opacity:1" d="m -11.427734,-116.71094 c -0.926654,0.068 -1.828354,0.58 -2.47461,0.98633 l 0.564453,0.62305 c 0.129027,-0.0692 1.250128,-0.8819 2,-0.93164 0.346707,-0.0382 0.804167,0.0783 1.076172,0.39453 0.868797,0.83085 0.783149,2.35847 0.419922,4.20312 -0.329865,1.37596 -0.389964,2.87205 -0.115234,4.36719 0.175945,1.03446 0.565056,2.09121 1.236328,2.96484 0.238071,-0.17566 0.474836,-0.35332 0.707031,-0.53906 0.01663,-0.0136 0.035924,-0.0238 0.052734,-0.0371 -0.6103851,-0.73211 -0.9647481,-1.69528 -1.1601561,-2.53906 -0.328551,-1.46718 -0.279657,-2.86872 -0.0332,-4.05078 0.451937,-2.07874 0.307063,-3.74395 -0.642578,-4.80469 -0.4323489,-0.47732 -1.0683939,-0.67465 -1.6308589,-0.63672 z" inkscape:connector-curvature="0" />
      <path style="fill:#000000;fill-opacity:1;fill-rule:evenodd;stroke:none;stroke-width:0.89999998;stroke-linecap:round;stroke-linejoin:miter;stroke-miterlimit:4;stroke-dasharray:none;stroke-opacity:1" d="m -3.796875,-104.89258 c -0.9058673,0.74517 -1.9188533,1.2608 -2.7324219,1.16406 -0.2030019,0.0833 -0.4030106,0.17309 -0.5839843,0.29102 -0.166691,0.11469 -0.3464295,0.21948 -0.5195313,0.33008 1.7036649,0.94245 3.731315,0.084 4.8828125,-1.03906 -0.3560506,-0.22586 -0.7057338,-0.47583 -1.046875,-0.7461 z" inkscape:connector-curvature="0" />
      <path style="fill:#000000;fill-opacity:1;fill-rule:evenodd;stroke:none;stroke-width:0.89999998;stroke-linecap:round;stroke-linejoin:miter;stroke-miterlimit:4;stroke-dasharray:none;stroke-opacity:1" d="m 4.1640625,-105.46289 c -0.327423,-0.0235 -0.6594367,-0.0232 -0.9921875,0.002 0.078825,0.37091 0.1521001,0.74306 0.2207031,1.11524 1.064043,-0.1503 2.1844576,0.0295 3.203125,0.45898 0.5236021,0.21983 1.046713,0.50703 1.5820313,0.79883 0.1250671,-0.19964 0.2209286,-0.4272 0.3164062,-0.65625 -0.4965073,-0.32152 -0.99925,-0.64667 -1.5488281,-0.92969 -0.8521322,-0.43734 -1.7989811,-0.71849 -2.78125,-0.78906 z" inkscape:connector-curvature="0" />
      <path style="fill:#000000;fill-opacity:1;fill-rule:evenodd;stroke:none;stroke-width:0.89999998;stroke-linecap:round;stroke-linejoin:miter;stroke-miterlimit:4;stroke-dasharray:none;stroke-opacity:1" d="m 9.625,-103.05469 c -0.082921,0.19334 -0.1803086,0.37972 -0.2832031,0.56446 1.0688811,0.48073 2.1976941,0.84215 3.3593751,1.0332 0.499799,0.10355 1.072452,0.1837 1.636719,0.125 0.45283,-0.10452 0.877972,-0.29289 1.207031,-0.60938 -0.854133,0.55171 -1.887915,0.33226 -2.777344,0.11524 -1.10459,-0.26639 -2.156407,-0.6956 -3.142578,-1.22852 z" inkscape:connector-curvature="0" />
      <path style="fill:#000000;fill-opacity:1;fill-rule:evenodd;stroke:none;stroke-width:0.89999998;stroke-linecap:round;stroke-linejoin:miter;stroke-miterlimit:4;stroke-dasharray:none;stroke-opacity:1" d="m 10.445312,-116.39648 c -0.400021,0.0106 -0.806202,0.0811 -1.207031,0.23632 -0.999585,0.47508 -1.487003,1.70748 -1.054687,2.81641 0.73612,1.87741 1.421348,4.07068 1.230468,6.24023 -0.185513,1.89331 -0.460829,3.94627 -1.800781,5.00196 -0.0014,0.001 -0.0025,0.003 -0.0039,0.004 0.320059,0.10607 0.638919,0.21521 0.96875,0.33985 1.230198,-1.44937 1.504195,-3.41815 1.582031,-5.29297 0.119976,-2.35443 -0.620703,-4.61346 -1.384765,-6.52539 -0.32491,-0.80541 0.06377,-1.75045 0.714844,-1.97071 1.477232,-0.63585 3.318013,0.63156 3.894531,1.04493 0.06075,-0.3217 0.119158,-0.65295 0.167968,-0.99219 -0.763734,-0.42041 -1.907357,-0.9341 -3.107422,-0.90234 z" inkscape:connector-curvature="0" />
      <path style="fill:#000000;fill-opacity:1;fill-rule:evenodd;stroke:none;stroke-width:0.89999998;stroke-linecap:round;stroke-linejoin:miter;stroke-miterlimit:4;stroke-dasharray:none;stroke-opacity:1" d="m 2.6855469,-104.19922 -1.3144531,0.16406 c 0.1478645,1.11047 0.8672943,2.90093 2.7285156,3.58399 1.0655975,0.34295 2.2839122,0.21217 3.3339844,-0.36719 -0.2485489,-0.0678 -0.4969496,-0.13368 -0.75,-0.21289 -0.00137,0 -0.00254,-0.002 -0.00391,-0.002 0,0 -0.00195,0 -0.00195,0 -0.3131724,-0.0869 -0.6261833,-0.19311 -0.9375,-0.31055 -0.4385291,0.0409 -0.8692013,-0.007 -1.2519532,-0.16992 -1.067961,-0.37978 -1.6828409,-1.60142 -1.8027343,-2.68555 z" inkscape:connector-curvature="0" />
      <path style="fill:#000000;fill-opacity:1;fill-rule:evenodd;stroke:none;stroke-width:0.89999998;stroke-linecap:round;stroke-linejoin:miter;stroke-miterlimit:4;stroke-dasharray:none;stroke-opacity:1" d="m -0.46875,-103.85156 c -0.37846744,0.0176 -0.7557959,0.0342 -1.1347656,0.0508 -0.026644,1.35579 -0.083772,2.68828 -0.4941406,3.89453 -0.018811,0.05778 -0.047295,0.112792 -0.068359,0.169922 0.0012,0.469321 0.048794,0.930808 0.1503906,1.380859 0.2763156,-0.394741 0.5250997,-0.814331 0.7148438,-1.271484 0.55095568,-1.351977 0.7212245,-2.820157 0.8320312,-4.224607 z" inkscape:connector-curvature="0" />
      <path style="fill:#000000;fill-opacity:1;fill-rule:evenodd;stroke:none;stroke-width:0.89999998;stroke-linecap:round;stroke-linejoin:miter;stroke-miterlimit:4;stroke-dasharray:none;stroke-opacity:1" d="m -3.1230469,-98.044922 c -0.150339,0.197077 -0.3095867,0.389682 -0.4746093,0.578125 -0.714018,0.796578 -1.6209216,1.450225 -2.6289063,1.658203 -0.2940814,0.05997 -0.6139042,0.05055 -0.90625,-0.02344 -0.4427004,-0.04353 -0.8708449,-0.242919 -1.1113281,-0.654297 0.2442222,0.763823 1.2067903,1.184368 2.09375,1.060547 1.1279747,-0.158128 2.18429,-0.790581 3.0175781,-1.617188 0.093062,-0.09152 0.1811077,-0.189952 0.2714844,-0.285156 -0.1018651,-0.234524 -0.1860307,-0.474028 -0.2617188,-0.716797 z" inkscape:connector-curvature="0" />
      <path style="fill:#000000;fill-opacity:1;fill-rule:evenodd;stroke:none;stroke-width:0.89999998;stroke-linecap:round;stroke-linejoin:miter;stroke-miterlimit:4;stroke-dasharray:none;stroke-opacity:1" d="m 4.025391,-125.87891 c -0.146221,-0.0305 -0.303081,0.0119 -0.398438,0.0742 -2.862666,1.87054 -4.880211,3.59029 -6.738281,6.62891 -0.99964,1.72264 -1.777144,3.35668 -1.810547,5.28516 0.006,0.2998 0.273432,0.52657 0.570313,0.48437 0.492456,-0.0709 0.875763,-0.10517 1.1875,-0.1289 -0.218167,0.7447 -0.421021,1.51009 -0.605469,2.3496 -0.397611,1.80973 -0.653445,4.36221 -0.396485,5.81446 0.19055,1.07692 1.186538,1.26127 1.898438,1.47656 0.7119,0.21529 1.794338,0.36669 2.455078,0.27539 1.69421,-0.23411 3.402492,-0.48676 3.824219,-1.49023 0.761046,-1.81087 0.168822,-5.57059 0.01758,-7.99219 0.372935,0.0863 0.744619,0.19639 1.097656,0.36523 0.33685,0.16216 0.647892,-0.0794 0.638672,-0.45312 0,0 -0.123941,-4.19409 -0.244141,-5.86719 -0.19297,-2.68575 -0.356893,-3.69695 -1.158203,-6.45703 -0.0561,-0.23143 -0.19167,-0.33476 -0.33789,-0.36523 z m -0.402344,0.98243 c 0.58883,2.15877 0.873399,3.54998 1.042969,5.91015 0.10223,1.42282 0.178435,4.57706 0.197265,5.32227 -0.75389,-0.22738 -1.480374,-0.38819 -2.083984,-0.44727 0.003,-0.93743 0.01185,-2.67282 0.09375,-4.53515 0.0553,-1.25832 -0.308848,-0.55533 -0.486328,0.38671 -0.38009,2.01743 -0.460938,3.48013 -0.460938,4.40821 -4e-4,0.25604 0.192656,0.47102 0.447266,0.49804 0.246719,0.026 0.520253,0.0702 0.785156,0.10547 0.293188,2.53888 0.74607,5.39541 0.132813,7.61133 -0.202142,0.73041 -3.4124,1.1779 -5.269532,0.78516 -0.518246,-0.1096 -1.363176,-0.31092 -1.404296,-1.08594 -0.0867,-1.63376 0.06432,-3.31607 0.320312,-4.73438 0.389151,-2.15602 1.088748,-4.27614 1.673828,-5.69726 l 0.941406,-2.46289 c 0.56898,-1.4466 0.362088,-1.65162 -0.632812,0.10156 -0.761329,1.50777 -1.310471,2.82853 -1.765625,4.1875 -0.192605,0.0238 -0.6893,0.0859 -1.246094,0.1543 0.0825,-0.52387 0.194473,-1.14129 0.470703,-1.9043 0.35929,-0.99241 0.811648,-1.98486 1.080078,-2.42383 1.64411,-2.6887 3.560553,-4.51162 6.164063,-6.17968 z" inkscape:connector-curvature="0" />
      <path style="fill:#000000;fill-opacity:1;fill-rule:evenodd;stroke:none;stroke-width:0.89999998;stroke-linecap:round;stroke-linejoin:miter;stroke-miterlimit:4;stroke-dasharray:none;stroke-opacity:1" d="m -2.5373427,-104.18887 c 0.3421635,0.16215 0.6859607,0.32221 1.0313325,0.48012 -0.9340133,2.13702 -1.3535777,4.738056 -0.2199471,6.841436 0,0 -1e-7,10e-7 -1e-7,10e-7 0.4977108,0.912316 0.5028499,2.106189 -0.1345524,2.837592 -4e-7,0 -4e-7,0 -4e-7,0 -0.5079821,0.590086 -1.4642213,0.666608 -1.9748687,0.199639 0.5287582,0.326069 1.2462055,0.121597 1.5702851,-0.288591 0.041842,-0.04156 0.079462,-0.08658 0.111943,-0.134807 0.4857643,-0.603214 0.3594186,-1.599406 -0.074296,-2.305366 -10e-8,0 -10e-8,0 -10e-8,0 -1.4089532,-2.272798 -1.2397643,-5.211664 -0.3098958,-7.630024 z" inkscape:connector-curvature="0" />
      <path style="fill:#000000;fill-opacity:1;fill-rule:evenodd;stroke:none;stroke-width:0.89999998;stroke-linecap:round;stroke-linejoin:miter;stroke-miterlimit:4;stroke-dasharray:none;stroke-opacity:1" d="m 2.3835041,-104.06671 c 0.3174615,-0.24063 0.6405059,-0.47527 0.9692112,-0.70375 0.6369547,1.29737 2.1141119,2.13063 3.6421499,2.7018 1.3112305,0.45566 2.9095093,0.83787 3.7952238,2.02156 0,0 0,0 0,0 0.5932,0.800014 0.736953,1.955226 0.161314,2.691399 -0.466912,0.602328 -1.3710736,0.816403 -1.952572,0.446967 0.6368576,0.257218 1.383809,-0.137615 1.639232,-0.653144 -2e-6,3e-6 0.0051,-0.0078 0.0051,-0.0078 0.434378,-0.572556 0.19779,-1.510827 -0.294284,-2.118239 0,0 0,-10e-7 0,-10e-7 -0.7344896,-0.948692 -2.2010381,-1.119902 -3.6049445,-1.560132 -1.6380276,-0.45356 -3.3202746,-1.28178 -4.3604604,-2.81866 z" inkscape:connector-curvature="0" />
      <path style="fill:#000000;fill-opacity:1;fill-rule:evenodd;stroke:none;stroke-width:0.89999998;stroke-linecap:round;stroke-linejoin:miter;stroke-miterlimit:4;stroke-dasharray:none;stroke-opacity:1" d="m -3.2239027,-105.35575 -0.4962606,1.35092 c -1.0480932,-0.46063 -2.4787863,-0.29871 -3.5206168,0.38222 0,0 -3e-7,0 -3e-7,0 -1.3656955,0.93961 -2.9325976,1.77851 -4.6273276,1.94569 0,0 -1e-6,0 -1e-6,0 -0.765571,0.0695 -1.508698,-0.0986 -2.185433,-0.35854 -0.608035,-0.2156 -1.286316,-0.55176 -1.572326,-1.1699 0.158398,0.10812 0.317934,0.17056 0.477991,0.20184 0.313188,0.27579 0.779492,0.42426 1.22658,0.5645 0.660228,0.18101 1.343102,0.27459 1.967694,0.15219 0,0 10e-7,0 10e-7,0 1.508118,-0.2724 2.8419377,-1.18921 4.0822788,-2.18158 0,0 5e-7,0 5e-7,0 1.2448518,-1.01542 3.0322554,-1.4126 4.64742,-0.88734 z" inkscape:connector-curvature="0" />
      <path style="fill:#000000;fill-opacity:1;fill-rule:evenodd;stroke:none;stroke-width:0.89999998;stroke-linecap:round;stroke-linejoin:miter;stroke-miterlimit:4;stroke-dasharray:none;stroke-opacity:1" d="m 1.6621094,-103.86719 c -0.4185714,0.0443 -0.83767516,0.0868 -1.2558594,0.12696 0.25950609,1.60191 0.8206852,3.24717 1.9023438,4.556636 0.342343,0.41542 0.5590507,0.954197 0.4804687,1.44336 -0.025283,0.246453 -0.1119591,0.496485 -0.2246094,0.751953 0.1634384,0.135566 0.3491558,0.240365 0.546875,0.314453 0.1631599,-0.298951 0.302037,-0.612493 0.3789063,-0.960938 0.1468187,-0.721817 -0.060504,-1.49206 -0.5,-2.099609 -0.8380808,-1.188455 -1.181556,-2.668875 -1.328125,-4.132815 z" inkscape:connector-curvature="0" />
      <path style="fill:#000000;fill-opacity:1;fill-rule:evenodd;stroke:none;stroke-width:0.89999998;stroke-linecap:round;stroke-linejoin:miter;stroke-miterlimit:4;stroke-dasharray:none;stroke-opacity:1" d="m 2.0175781,-95.949219 c -0.1436635,0.248282 -0.2873481,0.51336 -0.3984375,0.822266 -0.027528,0.140925 -0.048361,0.286201 -0.056641,0.433594 -2.467e-4,0.681216 0.4247003,1.144359 0.9003906,1.335937 -0.4098373,-0.294911 -0.6597598,-0.801902 -0.5390625,-1.265625 0.1089883,-0.402944 0.3428298,-0.741718 0.578125,-1.082031 -0.1691941,-0.0673 -0.3310469,-0.147961 -0.484375,-0.244141 z" inkscape:connector-curvature="0" />
      <path style="fill:#000000;fill-opacity:1;fill-rule:evenodd;stroke:none;stroke-width:0.89999998;stroke-linecap:round;stroke-linejoin:miter;stroke-miterlimit:4;stroke-dasharray:none;stroke-opacity:1" d="m -0.60141829,-103.73449 c 0.41989804,0.0218 0.83993975,0.0419 1.26010131,0.06 -0.0659788,1.5874 0.0745189,3.19567 0.54825348,4.721421 0,0 3e-7,0 3e-7,0 0.2210797,0.697025 0.4978677,1.375404 0.9689598,1.905354 0,0 5e-7,0 5e-7,0 0.3845928,0.434985 0.9522601,0.744799 1.5524436,0.724004 1.1452221,-0.0092 1.9169042,-1.552437 1.4518695,-2.768928 0.3599911,0.495931 0.5141682,1.195943 0.3843301,1.874168 -0.2819051,0.74386 -0.8986219,1.34968 -1.7797763,1.509444 -0.8169383,0.06458 -1.5929088,-0.260511 -2.1406711,-0.80816 -0.6154334,-0.618165 -1.00944317,-1.374126 -1.28897248,-2.114375 1.1e-7,0 -2.1e-7,-10e-7 -2.1e-7,-10e-7 -0.63428047,-1.632007 -0.9178233,-3.376937 -0.9565385,-5.102977 z" inkscape:connector-curvature="0" />
      <path style="fill:#000000;fill-opacity:1;fill-rule:evenodd;stroke:none;stroke-width:0.89999998;stroke-linecap:round;stroke-linejoin:miter;stroke-miterlimit:4;stroke-dasharray:none;stroke-opacity:1" d="m -3.3945312,-104.69922 c -0.3552481,1.42085 -1.0184522,2.85835 -2.2050782,3.54883 -0.032141,0.0187 -0.080618,0.0419 -0.1152344,0.0625 0.031118,0.13229 0.066803,0.26506 0.078125,0.39648 0.014507,0.1684 0.00634,0.33743 -0.00195,0.50586 0.1820691,-0.0904 0.3573596,-0.19054 0.5039063,-0.29687 1.372379,-0.86601 2.2647831,-2.35534 2.7050781,-3.9082 -0.321271,-0.10556 -0.6428638,-0.2091 -0.9648437,-0.3086 z" inkscape:connector-curvature="0" />
      <path style="fill:#000000;fill-opacity:1;fill-rule:evenodd;stroke:none;stroke-width:0.89999998;stroke-linecap:round;stroke-linejoin:miter;stroke-miterlimit:4;stroke-dasharray:none;stroke-opacity:1" d="m -6.8574219,-102.06641 c -0.092115,-0.0108 -0.1890786,-0.0102 -0.2910156,0.01 -0.418133,0.0808 -0.80098,0.41965 -0.8750005,0.85742 -0.06307,0.373 0.0048,0.78465 0.3886724,1.06445 0.3364651,0.245274 0.7423581,0.290742 1.1484375,0.22852 -0.00622,-0.17417 -0.017944,-0.33714 -0.03125,-0.48047 -0.00651,-0.0701 -0.03744,-0.18008 -0.0625,-0.28125 -0.1991158,0.0605 -0.3975277,0.0949 -0.5761719,0.041 -0.152411,-0.046 -0.2709456,-0.30962 -0.1972656,-0.49219 0.026637,-0.066 0.0676,-0.12052 0.1113281,-0.16797 0.014137,-0.015 0.029411,-0.0282 0.044922,-0.041 0.032512,-0.0274 0.068145,-0.0477 0.1054687,-0.0645 0.020292,-0.009 0.039261,-0.0199 0.060547,-0.0254 0.053423,-0.0142 0.1092213,-0.0193 0.1660156,-0.01 0.074812,0.0126 0.1488622,0.0453 0.2207032,0.10546 0.198543,0.16628 0.3222775,0.70139 0.3359374,0.88672 0.040162,0.545023 0.1414044,1.206348 -0.2597656,2.146488 0.546965,-0.610901 0.7818213,-1.516606 0.7070313,-2.384768 -0.031496,-0.36561 -0.1332691,-0.73326 -0.3613281,-1.0332 -0.043291,-0.0569 -0.096805,-0.11122 -0.1582032,-0.16016 -0.063737,-0.0508 -0.1366607,-0.0942 -0.2167968,-0.1289 -0.079938,-0.0346 -0.1666628,-0.0594 -0.2597657,-0.0703 z" inkscape:connector-curvature="0" />
      <ellipse cx="0.282143" cy="-107.896100" rx="0.508233" ry="0.861786" style="fill:#000000;fill-opacity:1;fill-rule:evenodd;stroke:none;stroke-width:0.89999998;stroke-linecap:round;stroke-linejoin:miter;stroke-miterlimit:4;stroke-dasharray:none;stroke-opacity:1" />
      <ellipse cx="-1.629467" cy="-107.984500" rx="0.508233" ry="0.861786" style="fill:#000000;fill-opacity:1;fill-rule:evenodd;stroke:none;stroke-width:0.89999998;stroke-linecap:round;stroke-linejoin:miter;stroke-miterlimit:4;stroke-dasharray:none;stroke-opacity:1" />
      <path style="color:#000000;clip-rule:nonzero;display:inline;overflow:visible;visibility:visible;opacity:1;isolation:auto;mix-blend-mode:normal;color-interpolation:sRGB;color-interpolation-filters:linearRGB;solid-color:#000000;solid-opacity:1;fill:#ffffff;fill-opacity:1;fill-rule:evenodd;stroke:#000000;stroke-width:0.72000003;stroke-linecap:round;stroke-linejoin:miter;stroke-miterlimit:4;stroke-dasharray:none;stroke-dashoffset:0;stroke-opacity:1;color-rendering:auto;image-rendering:auto;shape-rendering:auto;text-rendering:auto;enable-background:accumulate" d="m 16.079505,-112.80178 c 0,0 -0.534036,-1.98412 -1.352253,-2.375 -1.083027,-0.51738 -2.029029,0.0701 -1.654029,0.82009 0.375,0.75 2.381282,1.33616 3.006282,1.55491 z" inkscape:connector-curvature="0" />
      <path style="color:#000000;clip-rule:nonzero;display:inline;overflow:visible;visibility:visible;opacity:1;isolation:auto;mix-blend-mode:normal;color-interpolation:sRGB;color-interpolation-filters:linearRGB;solid-color:#000000;solid-opacity:1;fill:#ffffff;fill-opacity:1;fill-rule:evenodd;stroke:#000000;stroke-width:0.72000003;stroke-linecap:round;stroke-linejoin:miter;stroke-miterlimit:4;stroke-dasharray:none;stroke-dashoffset:0;stroke-opacity:1;color-rendering:auto;image-rendering:auto;shape-rendering:auto;text-rendering:auto;enable-background:accumulate" d="m -15.544194,-112.67678 c 0,0 -0.104921,-1.79881 0.731694,-2.49777 0.96875,-0.80936 1.875,-0.15625 1.59375,0.53125 -0.28125,0.6875 -1.825444,1.62277 -2.325444,1.96652 z" inkscape:connector-curvature="0" />
    </g>
  </g>
</g>
<g inkscape:groupmode="layer" id="extras_layer" inkscape:label="Extras" style="display:inline" sodipodi:insensitive="true" >
  <g id="extra-ship" transform="matrix(0.4444171,-0.89581998,0.89581998,0.4444171,266.30938,417.60566)" >
    <path style="color:#000000;fill:url(#gradientShip);fill-opacity:1;fill-rule:evenodd;stroke:#000000;stroke-width:0.75;stroke-linecap:butt;stroke-linejoin:round;stroke-miterlimit:4;stroke-dasharray:none;stroke-dashoffset:0;stroke-opacity:1;marker:none;enable-background:accumulate" d="m 243.2364,-52.722824 c -3.10208,-2.937202 -8.72518,-3.346714 -12.49116,-3.032742 -2.95307,0.246202 -6.62512,1.070872 -6.62512,1.070872 l -0.0121,3.725952 c 0,0 2.43298,0.582421 6.39007,0.932887 3.66202,0.324334 9.61676,-0.283241 12.73834,-2.696969 z" inkscape:connector-curvature="0" />
    <path style="color:#000000;opacity:1;isolation:auto;mix-blend-mode:normal;color-interpolation:sRGB;color-interpolation-filters:linearRGB;solid-color:#000000;solid-opacity:1;fill:#000000;fill-opacity:1;fill-rule:evenodd;stroke:none;stroke-width:0.75;stroke-linecap:round;stroke-linejoin:round;stroke-miterlimit:4;stroke-dasharray:none;stroke-dashoffset:0;stroke-opacity:1;marker:none;color-rendering:auto;image-rendering:auto;shape-rendering:auto;text-rendering:auto;enable-background:accumulate" d="m 243.05273,-53.089844 c -0.50461,-0.01007 -0.51271,0.749303 -0.008,0.75 l 2.80546,-0.143551 c 0.50461,0.01007 0.51856,-0.385922 0.0138,-0.386619 z" inkscape:connector-curvature="0" />
    <circle cx="37.651787" cy="-233.087830" r="0.695206" style="color:#000000;opacity:1;isolation:auto;mix-blend-mode:normal;color-interpolation:sRGB;color-interpolation-filters:linearRGB;solid-color:#000000;solid-opacity:1;fill:#a66e00;fill-opacity:1;fill-rule:nonzero;stroke:#000000;stroke-width:0.5;stroke-linecap:butt;stroke-linejoin:miter;stroke-miterlimit:4;stroke-dasharray:none;stroke-dashoffset:0;stroke-opacity:1;color-rendering:auto;image-rendering:auto;shape-rendering:auto;text-rendering:auto;enable-background:accumulate" transform="matrix(0.37654483,0.9263984,-0.9263984,0.37654483,0,0)" />
    <circle cx="39.995537" cy="-238.712830" r="0.695206" style="color:#000000;opacity:1;isolation:auto;mix-blend-mode:normal;color-interpolation:sRGB;color-interpolation-filters:linearRGB;solid-color:#000000;solid-opacity:1;fill:#a66e00;fill-opacity:1;fill-rule:nonzero;stroke:#000000;stroke-width:0.5;stroke-linecap:butt;stroke-linejoin:miter;stroke-miterlimit:4;stroke-dasharray:none;stroke-dashoffset:0;stroke-opacity:1;color-rendering:auto;image-rendering:auto;shape-rendering:auto;text-rendering:auto;enable-background:accumulate" transform="matrix(0.37654483,0.9263984,-0.9263984,0.37654483,0,0)" />
    <path style="color:#000000;fill:#feffff;fill-opacity:1;fill-rule:evenodd;stroke:#000000;stroke-width:0.5;stroke-linecap:butt;stroke-linejoin:round;stroke-miterlimit:4;stroke-dasharray:none;stroke-dashoffset:0;stroke-opacity:1;marker:none;enable-background:accumulate" d="m 230.8139,-58.168744 -0.0696,11.095953 c 0,0 1.11273,-0.901569 1.17305,-2.014949 0.0592,-1.093696 -0.80015,-1.762231 -0.80015,-1.762231 0,0 1.00218,-0.841738 0.9922,-1.921676 -0.0106,-1.140901 -0.9468,-1.722391 -0.9468,-1.722391 0,0 0.80027,-0.5343 0.83406,-1.646805 0.0349,-1.150244 -1.18274,-2.027894 -1.18274,-2.027894 z" inkscape:connector-curvature="0" />
    <path style="color:#000000;fill:#feffff;fill-opacity:1;fill-rule:evenodd;stroke:#000000;stroke-width:0.5;stroke-linecap:butt;stroke-linejoin:round;stroke-miterlimit:4;stroke-dasharray:none;stroke-dashoffset:0;stroke-opacity:1;marker:none;enable-background:accumulate" d="m 236.95087,-57.97366 -0.0645,10.282469 c 0,0 1.03677,-0.785137 1.09267,-1.816887 0.0549,-1.013517 -0.74706,-1.683399 -0.74706,-1.683399 0,0 0.85887,-0.76153 0.84962,-1.762298 -0.01,-1.057255 -0.80754,-1.614603 -0.80754,-1.614603 0,0 0.84013,-0.540128 0.87144,-1.571079 0.0324,-1.065902 -1.19455,-1.834218 -1.19455,-1.834218 z" inkscape:connector-curvature="0" />
    <path style="fill:#000000;stroke:none" d="m 239.16963,-53.312319 -0.0111,0.999645 1.00145,0.01039 0.009,-1.000718 z" inkscape:connector-curvature="0" />
    <path style="fill:#6a4600;stroke:none" d="m 233.00825,-53.641515 -0.0131,1.52646 1.52369,0.01423 0.0142,-1.523703 z" inkscape:connector-curvature="0" />
    <path style="fill:none;stroke:#000000;stroke-width:0.6;stroke-linecap:butt" d="m 227.26126,-55.055042 -0.0734,4.514141" inkscape:connector-curvature="0" />
    <path style="fill:#000000;stroke:none" d="m 223.83649,-54.026834 -0.0111,0.999636 1.00072,0.0086 0.009,-0.998911 z" inkscape:connector-curvature="0" />
    <path style="fill:#000000;stroke:none" d="m 223.85032,-52.581947 -0.0111,0.999637 1.00072,0.0086 0.009,-0.998912 z" inkscape:connector-curvature="0" />
    <path style="fill:none;stroke:#000000;stroke-width:0.5;stroke-linecap:butt;stroke-linejoin:round;stroke-miterlimit:4" d="m 227.2539,-51.578825 1.14997,0.173504 -0.0116,1.05042" inkscape:connector-curvature="0" />
    <path style="fill:none;stroke:#000000;stroke-width:0.5;stroke-linecap:butt;stroke-linejoin:round;stroke-miterlimit:4" d="m 227.25705,-54.143799 1.1481,-0.163064 0.0224,-1.189753" inkscape:connector-curvature="0" />
  </g>
</g>
<g inkscape:groupmode="layer" id="suit_rank_glow_layer" inkscape:label="Suit Rank Glow" style="display:inline" sodipodi:insensitive="true" >
  <g style="opacity:0.75;filter:url(#blurSuitRankGlow)" >
    <path style="fill:#ffffff;fill-opacity:1;stroke:none" d="m 25.651888,21.229764 c -0.59548,0.0193 -1.29762,0.13183 -2.02125,0.35875 -2.41293,0.84879 -3.90505,3.64994 -3.9025,5.87125 -0.16472,6.86829 6.59266,13.21158 11.69,17.01 0.003,0.0146 0.006,0.0291 0.009,0.0438 0.008,-0.006 0.0181,-0.0114 0.0262,-0.0175 0.008,0.006 0.0181,0.0114 0.0262,0.0175 0.003,-0.0147 0.006,-0.0291 0.009,-0.0438 5.09734,-3.79842 11.85472,-10.14171 11.69,-17.01 0.003,-2.22131 -1.48957,-5.02246 -3.9025,-5.87125 -0.72363,-0.22692 -1.42577,-0.33949 -2.02125,-0.35875 -2.54992,-0.0825 -5.0297,1.40516 -5.80125,3.00125 -0.77155,-1.59609 -3.25133,-3.08374 -5.80125,-3.00125 z" inkscape:connector-curvature="0" />
    <path style="fill:#ffffff;fill-opacity:1;stroke:none" d="m 221.7648,316.27029 c 0.59548,-0.0193 1.29762,-0.13183 2.02125,-0.35875 2.41293,-0.84879 3.90505,-3.64994 3.9025,-5.87125 0.16472,-6.86829 -6.59266,-13.21158 -11.69,-17.01 -0.003,-0.0146 -0.006,-0.0291 -0.009,-0.0438 -0.008,0.006 -0.0181,0.0114 -0.0262,0.0175 -0.008,-0.006 -0.0181,-0.0114 -0.0262,-0.0175 -0.003,0.0147 -0.006,0.0291 -0.009,0.0438 -5.09734,3.79842 -11.85472,10.14171 -11.69,17.01 -0.003,2.22131 1.48957,5.02246 3.9025,5.87125 0.72363,0.22692 1.42577,0.33949 2.02125,0.35875 2.54992,0.0825 5.0297,-1.40516 5.80125,-3.00125 0.77155,1.59609 3.25133,3.08374 5.80125,3.00125 z" inkscape:connector-curvature="0" />
    <path style="fill:#ffffff;fill-opacity:1;stroke:none" d="m 21.053333,70.875025 c 0.24,0 0.49333,0.013 0.76,0.04 0.26666,0 0.54666,0.013 0.84,0.04 l 0,-10.48 c 0,-1.3066 0.21333,-2.5466 0.64,-3.72 0.42666,-1.1733 1.01333,-2.1866 1.76,-3.04 0.77333,-0.88 1.69333,-1.5733 2.76,-2.08 1.09332,-0.5066 2.30666,-0.76 3.64,-0.76 1.30665,0 2.47999,0.2534 3.52,0.76 1.03998,0.5067 1.93332,1.2 2.68,2.08 0.74665,0.88 1.33331,1.9067 1.76,3.08 0.42665,1.1467 0.70665,2.3734 0.84,3.68 l 0,12.8 c -2e-5,1.0133 -0.13335,1.9867 -0.4,2.92 -0.24002,0.9067 -0.58669,1.7467 -1.04,2.52 0.55998,0.32 1.14665,0.5733 1.76,0.76 0.63998,0.16 1.33331,0.2267 2.08,0.2 l 0,3.2 c -1.01335,0 -2.01335,-0.1733 -3,-0.52 -0.96002,-0.3467 -1.90668,-0.7867 -2.84,-1.32 -0.72002,0.5867 -1.53335,1.04 -2.44,1.36 -0.88001,0.32 -1.85335,0.48 -2.92,0.48 -1.25334,0 -2.40001,-0.2133 -3.44,-0.64 -1.01334,-0.4533 -1.90667,-1.0667 -2.68,-1.84 -0.74667,-0.8 -1.36,-1.72 -1.84,-2.76 -0.45334,-1.0667 -0.72,-2.2133 -0.8,-3.44 -0.88,-0.08 -1.69333,-0.12 -2.44,-0.12 0,-0.2133 0,-0.4933 0,-0.84 0,-0.3733 0,-0.7333 0,-1.08 0,-0.3466 0,-0.64 0,-0.88 0,-0.2666 0,-0.4 0,-0.4 l 0.8,0 m 16,-10.4 c -2e-5,-0.88 -0.13335,-1.7066 -0.4,-2.48 -0.24002,-0.7733 -0.60002,-1.4533 -1.08,-2.04 -0.48001,-0.5866 -1.06668,-1.04 -1.76,-1.36 -0.69335,-0.3466 -1.48001,-0.52 -2.36,-0.52 -0.88001,0 -1.66668,0.1734 -2.36,0.52 -0.69334,0.32 -1.28001,0.7734 -1.76,1.36 -0.48001,0.5867 -0.85334,1.2667 -1.12,2.04 -0.24001,0.7734 -0.36001,1.6 -0.36,2.48 l 0,10.92 c 1.11999,0.2134 2.25333,0.5334 3.4,0.96 1.14666,0.4267 2.22666,0.9734 3.24,1.64 0.69332,0.48 1.34665,0.9733 1.96,1.48 0.61332,0.48 1.19998,0.9467 1.76,1.4 0.55998,-1.04 0.83998,-2.24 0.84,-3.6 l 0,-12.8 m -5.6,19.2 c 0.93332,0 1.77332,-0.1867 2.52,-0.56 l -2.6,-1.96 c -0.82668,-0.6133 -1.70668,-1.1067 -2.64,-1.48 -0.90667,-0.4 -1.82667,-0.7067 -2.76,-0.92 0.23999,1.4133 0.82666,2.5867 1.76,3.52 0.95999,0.9333 2.19999,1.4 3.72,1.4" inkscape:connector-curvature="0" />
    <path style="fill:#ffffff;fill-opacity:1;stroke:none" d="m 226.36334,266.62502 c -0.24,0 -0.49333,-0.013 -0.76,-0.04 -0.26666,0 -0.54666,-0.013 -0.84,-0.04 l 0,10.48 c 0,1.3066 -0.21333,2.5466 -0.64,3.72 -0.42666,1.1733 -1.01333,2.1866 -1.76,3.04001 -0.77333,0.88 -1.69333,1.5733 -2.76,2.07999 -1.09332,0.5066 -2.30666,0.76 -3.64,0.76 -1.30664,0 -2.47998,-0.2534 -3.52,-0.76 -1.03998,-0.5067 -1.93332,-1.19999 -2.68,-2.07999 -0.74665,-0.88 -1.33331,-1.9067 -1.76,-3.08 -0.42665,-1.1467 -0.70665,-2.3734 -0.84,-3.68 l 0,-12.8 c 2e-5,-1.01331 0.13335,-1.9867 0.4,-2.92001 0.24002,-0.9067 0.58669,-1.74669 1.04,-2.51999 -0.55998,-0.32 -1.14665,-0.57331 -1.76,-0.76 -0.63998,-0.16001 -1.33331,-0.2267 -2.08,-0.2 l 0,-3.2 c 1.01335,0 2.01335,0.1733 3,0.52 0.96002,0.3467 1.90668,0.7867 2.84,1.32 0.72002,-0.5867 1.53335,-1.04 2.44,-1.36 0.88001,-0.32 1.85335,-0.48 2.92,-0.48 1.25334,0 2.40001,0.2133 3.44,0.64 1.01334,0.4533 1.90667,1.06669 2.68,1.84 0.74667,0.8 1.36,1.72 1.84,2.76 0.45334,1.0667 0.72,2.2133 0.8,3.44 0.88,0.08 1.69333,0.12 2.44,0.12 0,0.2133 0,0.4933 0,0.84 0,0.37329 0,0.7333 0,1.08 0,0.3466 0,0.63999 0,0.88 0,0.26659 0,0.39999 0,0.39999 l -0.8,0 m -16,10.4 c 2e-5,0.88 0.13335,1.7066 0.4,2.48 0.24002,0.7733 0.60002,1.4533 1.08,2.04 0.48001,0.5866 1.06668,1.04001 1.76,1.36001 0.69335,0.3466 1.48001,0.51999 2.36,0.51999 0.88001,0 1.66669,-0.1734 2.36001,-0.51999 0.69334,-0.32 1.28001,-0.7734 1.75999,-1.36001 0.48001,-0.5867 0.85334,-1.2667 1.12001,-2.04 0.24001,-0.7734 0.36,-1.6 0.36,-2.48 l 0,-10.92 c -1.11999,-0.2134 -2.25333,-0.5334 -3.4,-0.96 -1.14666,-0.4267 -2.22667,-0.9734 -3.24001,-1.64 -0.69332,-0.48 -1.34665,-0.9733 -1.96,-1.48 -0.61331,-0.48 -1.19998,-0.9467 -1.75999,-1.4 -0.55998,1.04001 -0.83998,2.24 -0.84001,3.60001 l 0,12.8 m 5.6,-19.2 c -0.93332,0 -1.77332,0.1867 -2.52,0.56 l 2.6,1.96 c 0.82668,0.61329 1.70668,1.10669 2.64,1.48 0.90667,0.4 1.82667,0.7067 2.76,0.92 -0.23999,-1.4133 -0.82666,-2.5867 -1.76,-3.52 -0.95999,-0.9333 -2.19999,-1.4 -3.72,-1.4" inkscape:connector-curvature="0" />
  </g>
</g>
<g inkscape:groupmode="layer" id="suit_rank_layer" inkscape:label="Suit Rank" style="display:inline" sodipodi:insensitive="true" >
  <path style="fill:#de0000;fill-opacity:1;stroke:none" d="m 25.651888,21.229764 c -0.59548,0.0193 -1.29762,0.13183 -2.02125,0.35875 -2.41293,0.84879 -3.90505,3.64994 -3.9025,5.87125 -0.16472,6.86829 6.59266,13.21158 11.69,17.01 0.003,0.0146 0.006,0.0291 0.009,0.0438 0.008,-0.006 0.0181,-0.0114 0.0262,-0.0175 0.008,0.006 0.0181,0.0114 0.0262,0.0175 0.003,-0.0147 0.006,-0.0291 0.009,-0.0438 5.09734,-3.79842 11.85472,-10.14171 11.69,-17.01 0.003,-2.22131 -1.48957,-5.02246 -3.9025,-5.87125 -0.72363,-0.22692 -1.42577,-0.33949 -2.02125,-0.35875 -2.54992,-0.0825 -5.0297,1.40516 -5.80125,3.00125 -0.77155,-1.59609 -3.25133,-3.08374 -5.80125,-3.00125 z" inkscape:connector-curvature="0" />
  <path style="fill:#de0000;fill-opacity:1;stroke:none" d="m 221.7648,316.27029 c 0.59548,-0.0193 1.29762,-0.13183 2.02125,-0.35875 2.41293,-0.84879 3.90505,-3.64994 3.9025,-5.87125 0.16472,-6.86829 -6.59266,-13.21158 -11.69,-17.01 -0.003,-0.0146 -0.006,-0.0291 -0.009,-0.0438 -0.008,0.006 -0.0181,0.0114 -0.0262,0.0175 -0.008,-0.006 -0.0181,-0.0114 -0.0262,-0.0175 -0.003,0.0147 -0.006,0.0291 -0.009,0.0438 -5.09734,3.79842 -11.85472,10.14171 -11.69,17.01 -0.003,2.22131 1.48957,5.02246 3.9025,5.87125 0.72363,0.22692 1.42577,0.33949 2.02125,0.35875 2.54992,0.0825 5.0297,-1.40516 5.80125,-3.00125 0.77155,1.59609 3.25133,3.08374 5.80125,3.00125 z" inkscape:connector-curvature="0" />
  <path style="fill:#de0000;fill-opacity:1;stroke:none" d="m 21.053333,70.875025 c 0.24,0 0.49333,0.013 0.76,0.04 0.26666,0 0.54666,0.013 0.84,0.04 l 0,-10.48 c 0,-1.3066 0.21333,-2.5466 0.64,-3.72 0.42666,-1.1733 1.01333,-2.1866 1.76,-3.04 0.77333,-0.88 1.69333,-1.5733 2.76,-2.08 1.09332,-0.5066 2.30666,-0.76 3.64,-0.76 1.30665,0 2.47999,0.2534 3.52,0.76 1.03998,0.5067 1.93332,1.2 2.68,2.08 0.74665,0.88 1.33331,1.9067 1.76,3.08 0.42665,1.1467 0.70665,2.3734 0.84,3.68 l 0,12.8 c -2e-5,1.0133 -0.13335,1.9867 -0.4,2.92 -0.24002,0.9067 -0.58669,1.7467 -1.04,2.52 0.55998,0.32 1.14665,0.5733 1.76,0.76 0.63998,0.16 1.33331,0.2267 2.08,0.2 l 0,3.2 c -1.01335,0 -2.01335,-0.1733 -3,-0.52 -0.96002,-0.3467 -1.90668,-0.7867 -2.84,-1.32 -0.72002,0.5867 -1.53335,1.04 -2.44,1.36 -0.88001,0.32 -1.85335,0.48 -2.92,0.48 -1.25334,0 -2.40001,-0.2133 -3.44,-0.64 -1.01334,-0.4533 -1.90667,-1.0667 -2.68,-1.84 -0.74667,-0.8 -1.36,-1.72 -1.84,-2.76 -0.45334,-1.0667 -0.72,-2.2133 -0.8,-3.44 -0.88,-0.08 -1.69333,-0.12 -2.44,-0.12 0,-0.2133 0,-0.4933 0,-0.84 0,-0.3733 0,-0.7333 0,-1.08 0,-0.3466 0,-0.64 0,-0.88 0,-0.2666 0,-0.4 0,-0.4 l 0.8,0 m 16,-10.4 c -2e-5,-0.88 -0.13335,-1.7066 -0.4,-2.48 -0.24002,-0.7733 -0.60002,-1.4533 -1.08,-2.04 -0.48001,-0.5866 -1.06668,-1.04 -1.76,-1.36 -0.69335,-0.3466 -1.48001,-0.52 -2.36,-0.52 -0.88001,0 -1.66668,0.1734 -2.36,0.52 -0.69334,0.32 -1.28001,0.7734 -1.76,1.36 -0.48001,0.5867 -0.85334,1.2667 -1.12,2.04 -0.24001,0.7734 -0.36001,1.6 -0.36,2.48 l 0,10.92 c 1.11999,0.2134 2.25333,0.5334 3.4,0.96 1.14666,0.4267 2.22666,0.9734 3.24,1.64 0.69332,0.48 1.34665,0.9733 1.96,1.48 0.61332,0.48 1.19998,0.9467 1.76,1.4 0.55998,-1.04 0.83998,-2.24 0.84,-3.6 l 0,-12.8 m -5.6,19.2 c 0.93332,0 1.77332,-0.1867 2.52,-0.56 l -2.6,-1.96 c -0.82668,-0.6133 -1.70668,-1.1067 -2.64,-1.48 -0.90667,-0.4 -1.82667,-0.7067 -2.76,-0.92 0.23999,1.4133 0.82666,2.5867 1.76,3.52 0.95999,0.9333 2.19999,1.4 3.72,1.4" inkscape:connector-curvature="0" />
  <path style="fill:#de0000;fill-opacity:1;stroke:none" d="m 226.36334,266.62502 c -0.24,0 -0.49333,-0.013 -0.76,-0.04 -0.26666,0 -0.54666,-0.013 -0.84,-0.04 l 0,10.48 c 0,1.3066 -0.21333,2.5466 -0.64,3.72 -0.42666,1.1733 -1.01333,2.1866 -1.76,3.04001 -0.77333,0.88 -1.69333,1.5733 -2.76,2.07999 -1.09332,0.5066 -2.30666,0.76 -3.64,0.76 -1.30664,0 -2.47998,-0.2534 -3.52,-0.76 -1.03998,-0.5067 -1.93332,-1.19999 -2.68,-2.07999 -0.74665,-0.88 -1.33331,-1.9067 -1.76,-3.08 -0.42665,-1.1467 -0.70665,-2.3734 -0.84,-3.68 l 0,-12.8 c 2e-5,-1.01331 0.13335,-1.9867 0.4,-2.92001 0.24002,-0.9067 0.58669,-1.74669 1.04,-2.51999 -0.55998,-0.32 -1.14665,-0.57331 -1.76,-0.76 -0.63998,-0.16001 -1.33331,-0.2267 -2.08,-0.2 l 0,-3.2 c 1.01335,0 2.01335,0.1733 3,0.52 0.96002,0.3467 1.90668,0.7867 2.84,1.32 0.72002,-0.5867 1.53335,-1.04 2.44,-1.36 0.88001,-0.32 1.85335,-0.48 2.92,-0.48 1.25334,0 2.40001,0.2133 3.44,0.64 1.01334,0.4533 1.90667,1.06669 2.68,1.84 0.74667,0.8 1.36,1.72 1.84,2.76 0.45334,1.0667 0.72,2.2133 0.8,3.44 0.88,0.08 1.69333,0.12 2.44,0.12 0,0.2133 0,0.4933 0,0.84 0,0.37329 0,0.7333 0,1.08 0,0.3466 0,0.63999 0,0.88 0,0.26659 0,0.39999 0,0.39999 l -0.8,0 m -16,10.4 c 2e-5,0.88 0.13335,1.7066 0.4,2.48 0.24002,0.7733 0.60002,1.4533 1.08,2.04 0.48001,0.5866 1.06668,1.04001 1.76,1.36001 0.69335,0.3466 1.48001,0.51999 2.36,0.51999 0.88001,0 1.66669,-0.1734 2.36001,-0.51999 0.69334,-0.32 1.28001,-0.7734 1.75999,-1.36001 0.48001,-0.5867 0.85334,-1.2667 1.12001,-2.04 0.24001,-0.7734 0.36,-1.6 0.36,-2.48 l 0,-10.92 c -1.11999,-0.2134 -2.25333,-0.5334 -3.4,-0.96 -1.14666,-0.4267 -2.22667,-0.9734 -3.24001,-1.64 -0.69332,-0.48 -1.34665,-0.9733 -1.96,-1.48 -0.61331,-0.48 -1.19998,-0.9467 -1.75999,-1.4 -0.55998,1.04001 -0.83998,2.24 -0.84001,3.60001 l 0,12.8 m 5.6,-19.2 c -0.93332,0 -1.77332,0.1867 -2.52,0.56 l 2.6,1.96 c 0.82668,0.61329 1.70668,1.10669 2.64,1.48 0.90667,0.4 1.82667,0.7067 2.76,0.92 -0.23999,-1.4133 -0.82666,-2.5867 -1.76,-3.52 -0.95999,-0.9333 -2.19999,-1.4 -3.72,-1.4" inkscape:connector-curvature="0" />
</g>
<g inkscape:groupmode="layer" id="guides_layer" inkscape:label="Guides" style="display:none" sodipodi:insensitive="true" >
  <path style="fill:none;stroke:#000000;stroke-width:0.9" d="m 11.250000,11.25 0,-45" inkscape:connector-curvature="0" />
  <path style="fill:none;stroke:#000000;stroke-width:0.9" d="m 11.250000,371.25 0,-45" inkscape:connector-curvature="0" />
  <path style="fill:none;stroke:#000000;stroke-width:0.9" d="m 84.375000,11.25 0,-45" inkscape:connector-curvature="0" />
  <path style="fill:none;stroke:#000000;stroke-width:0.9" d="m 84.375000,371.25 0,-45" inkscape:connector-curvature="0" />
  <path style="fill:none;stroke:#000000;stroke-width:0.9" d="m 123.750000,11.25 0,-45" inkscape:connector-curvature="0" />
  <path style="fill:none;stroke:#000000;stroke-width:0.9" d="m 123.750000,371.25 0,-45" inkscape:connector-curvature="0" />
  <path style="fill:none;stroke:#000000;stroke-width:0.9" d="m 163.125000,11.25 0,-45" inkscape:connector-curvature="0" />
  <path style="fill:none;stroke:#000000;stroke-width:0.9" d="m 163.125000,371.25 0,-45" inkscape:connector-curvature="0" />
  <path style="fill:none;stroke:#000000;stroke-width:0.9" d="m 236.250000,11.25 0,-45" inkscape:connector-curvature="0" />
  <path style="fill:none;stroke:#000000;stroke-width:0.9" d="m 236.250000,371.25 0,-45" inkscape:connector-curvature="0" />
  <path style="fill:none;stroke:#000000;stroke-width:0.9" d="m -33.75,11.250000 45,0" inkscape:connector-curvature="0" />
  <path style="fill:none;stroke:#000000;stroke-width:0.9" d="m 236.25,11.250000 45,0" inkscape:connector-curvature="0" />
  <path style="fill:none;stroke:#000000;stroke-width:0.9" d="m -33.75,118.125000 45,0" inkscape:connector-curvature="0" />
  <path style="fill:none;stroke:#000000;stroke-width:0.9" d="m 236.25,118.125000 45,0" inkscape:connector-curvature="0" />
  <path style="fill:none;stroke:#000000;stroke-width:0.9" d="m -33.75,168.750000 45,0" inkscape:connector-curvature="0" />
  <path style="fill:none;stroke:#000000;stroke-width:0.9" d="m 236.25,168.750000 45,0" inkscape:connector-curvature="0" />
  <path style="fill:none;stroke:#000000;stroke-width:0.9" d="m -33.75,219.375000 45,0" inkscape:connector-curvature="0" />
  <path style="fill:none;stroke:#000000;stroke-width:0.9" d="m 236.25,219.375000 45,0" inkscape:connector-curvature="0" />
  <path style="fill:none;stroke:#000000;stroke-width:0.9" d="m -33.75,326.250000 45,0" inkscape:connector-curvature="0" />
  <path style="fill:none;stroke:#000000;stroke-width:0.9" d="m 236.25,326.250000 45,0" inkscape:connector-curvature="0" />
  <g id="guide-short0-0" >
    <rect x="0.000000" y="-22.500000" width="247.500000" height="22.500000" style="fill:#73baff;stroke:#000000;stroke-width:0.9" />
  </g>
  <g id="guide-long1-0" >
    <rect x="247.500000" y="0.000000" width="22.500000" height="337.500000" style="fill:#73baff;stroke:#000000;stroke-width:0.9" />
  </g>
  <g id="guide-short2-1" transform="matrix(-1,0,0,1,247.5,360)" >
    <rect x="163.125000" y="-22.500000" width="84.375000" height="22.500000" style="fill:#ffd291;stroke:#000000;stroke-width:0.9" />
    <rect x="168.750000" y="-22.500000" width="78.750000" height="22.500000" style="fill:#b4e982;stroke:#000000;stroke-width:0.9" />
    <rect x="185.625000" y="-22.500000" width="61.875000" height="22.500000" style="fill:#5adc4f;stroke:#000000;stroke-width:0.9" />
    <rect x="0.000000" y="-22.500000" width="163.125000" height="22.500000" style="fill:#b9deff;stroke:#000000;stroke-width:0.9" />
    <rect x="0.000000" y="-22.500000" width="123.750000" height="22.500000" style="fill:#9bceff;stroke:#000000;stroke-width:0.9" />
    <rect x="0.000000" y="-22.500000" width="67.500000" height="22.500000" style="fill:#73baff;stroke:#000000;stroke-width:0.9" />
  </g>
  <g id="guide-long3-6" transform="matrix(1,0,0,-1,-270,337.5)" >
    <rect x="247.500000" y="0.000000" width="22.500000" height="219.375000" style="fill:#ffd291;stroke:#000000;stroke-width:0.9" />
    <rect x="247.500000" y="0.000000" width="22.500000" height="213.750000" style="fill:#b4e982;stroke:#000000;stroke-width:0.9" />
    <rect x="247.500000" y="0.000000" width="22.500000" height="112.500000" style="fill:#5adc4f;stroke:#000000;stroke-width:0.9" />
    <rect x="247.500000" y="123.750000" width="22.500000" height="61.875000" style="fill:#5adc4f;stroke:#000000;stroke-width:0.9" />
    <rect x="247.500000" y="219.375000" width="22.500000" height="118.125000" style="fill:#b9deff;stroke:#000000;stroke-width:0.9" />
    <rect x="247.500000" y="253.125000" width="22.500000" height="84.375000" style="fill:#9bceff;stroke:#000000;stroke-width:0.9" />
    <rect x="247.500000" y="286.875000" width="22.500000" height="50.625000" style="fill:#73baff;stroke:#000000;stroke-width:0.9" />
  </g>
</g>
<g inkscape:groupmode="layer" id="cut_line_layer" inkscape:label="Cut Line" style="display:none" sodipodi:insensitive="true" >
  <rect style="fill:none;stroke:#000000;stroke-width:0.5;stroke-linecap:butt;stroke-linejoin:bevel;stroke-miterlimit:4;stroke-dasharray:none;stroke-opacity:1" width="225" height="315" x="11.25" y="11.25" ry="17.361111" />
</g>
<g inkscape:groupmode="layer" id="page_border_layer" inkscape:label="Page Border" style="display:none" sodipodi:insensitive="true" >
  <rect style="fill:none;stroke:#000000;stroke-width:0.5;stroke-linecap:butt;stroke-linejoin:bevel;stroke-miterlimit:4;stroke-dasharray:none;stroke-opacity:1" width="247.5" height="337.5" x="0" y="0" />
</g>

</svg>
