<?xml version="1.0" encoding="UTF-8" standalone="no"?>
<svg version="1.1" height="337.5" width="247.5" xmlns:rdf="http://www.w3.org/1999/02/22-rdf-syntax-ns#" xmlns="http://www.w3.org/2000/svg" xmlns:cc="http://creativecommons.org/ns#" xmlns:xlink="http://www.w3.org/1999/xlink" xmlns:dc="http://purl.org/dc/elements/1.1/" xmlns:sodipodi="http://sodipodi.sourceforge.net/DTD/sodipodi-0.dtd" xmlns:svg="http://www.w3.org/2000/svg" xmlns:inkscape="http://www.inkscape.org/namespaces/inkscape">
<metadata>
  <rdf:RDF>
    <cc:Work rdf:about="">
      <dc:format>image/svg+xml</dc:format>
      <dc:type rdf:resource="http://purl.org/dc/dcmitype/StillImage"/>
      <dc:title/>
      <dc:creator>
        <cc:Agent><dc:title>Gary Kacmarcik</dc:title></cc:Agent>
      </dc:creator>
    </cc:Work>
  </rdf:RDF>
</metadata>

<defs>
  <filter inkscape:label="textureGrassBig" style="color-interpolation-filters:sRGB" id="textureGrassBig">
    <feTurbulence numOctaves="2" seed="209" type="turbulence" baseFrequency="0.070000" result="result1" />
    <feColorMatrix result="result0" in="SourceGraphic" type="luminanceToAlpha" />
    <feColorMatrix result="result2" values="1 0 0 0 0 0 1 0 0 0 0 0 1 0 0 0 0 0 0.4 0 " />
    <feComposite in="result2" operator="over" in2="result1" />
    <feColorMatrix result="result91" values="1 0 0 0 0 0 1 0 0 0 0 0 1 0 0 0 0 0 10 -4 " />
    <feComposite operator="out" in="SourceGraphic" in2="result91" />
    <feGaussianBlur stdDeviation="2.500000" />
    <feColorMatrix values="1 0 0 0 0 0 1 0 0 0 0 0 1 0 0 0 0 0 1 0 " />
  </filter>
  <filter inkscape:label="textureGrassSmall" style="color-interpolation-filters:sRGB" id="textureGrassSmall">
    <feTurbulence numOctaves="4" seed="209" type="turbulence" baseFrequency="0.500000" result="result1" />
    <feColorMatrix result="result0" in="SourceGraphic" type="luminanceToAlpha" />
    <feColorMatrix result="result2" values="1 0 0 0 0 0 1 0 0 0 0 0 1 0 0 0 0 0 0.4 0 " />
    <feComposite in="result2" operator="over" in2="result1" />
    <feColorMatrix result="result91" values="1 0 0 0 0 0 1 0 0 0 0 0 1 0 0 0 0 0 10 -4 " />
    <feComposite operator="out" in="SourceGraphic" in2="result91" />
    <feGaussianBlur stdDeviation="1.000000" />
    <feColorMatrix values="1 0 0 0 0 0 1 0 0 0 0 0 1 0 0 0 0 0 1 0 " />
  </filter>
  <filter inkscape:label="textureLand" style="color-interpolation-filters:sRGB" id="textureLand">
    <feTurbulence numOctaves="4" seed="209" type="turbulence" baseFrequency="0.500000" result="result1" />
    <feColorMatrix result="result0" in="SourceGraphic" type="luminanceToAlpha" />
    <feColorMatrix result="result2" values="1 0 0 0 0 0 1 0 0 0 0 0 1 0 0 0 0 0 0.4 0 " />
    <feComposite in="result2" operator="over" in2="result1" />
    <feColorMatrix result="result91" values="1 0 0 0 0 0 1 0 0 0 0 0 1 0 0 0 0 0 10 -4 " />
    <feComposite operator="out" in="SourceGraphic" in2="result91" />
    <feGaussianBlur stdDeviation="0.800000" />
    <feColorMatrix values="1 0 0 0 0 0 1 0 0 0 0 0 1 0 0 0 0 0 1 0 " />
  </filter>
  <filter inkscape:label="textureForestBig" style="color-interpolation-filters:sRGB" id="textureForestBig">
    <feTurbulence numOctaves="2" seed="209" type="turbulence" baseFrequency="0.300000" result="result1" />
    <feColorMatrix result="result0" in="SourceGraphic" type="luminanceToAlpha" />
    <feColorMatrix result="result2" values="1 0 0 0 0 0 1 0 0 0 0 0 1 0 0 0 0 0 0.4 0 " />
    <feComposite in="result2" operator="over" in2="result1" />
    <feColorMatrix result="result91" values="1 0 0 0 0 0 1 0 0 0 0 0 1 0 0 0 0 0 10 -4 " />
    <feComposite operator="out" in="SourceGraphic" in2="result91" />
    <feGaussianBlur stdDeviation="2.000000" />
    <feColorMatrix values="1 0 0 0 0 0 1 0 0 0 0 0 1 0 0 0 0 0 1 0 " />
  </filter>
  <filter inkscape:label="textureForestSmall" style="color-interpolation-filters:sRGB" id="textureForestSmall">
    <feTurbulence numOctaves="4" seed="209" type="turbulence" baseFrequency="0.350000" result="result1" />
    <feColorMatrix result="result0" in="SourceGraphic" type="luminanceToAlpha" />
    <feColorMatrix result="result2" values="1 0 0 0 0 0 1 0 0 0 0 0 1 0 0 0 0 0 0.4 0 " />
    <feComposite in="result2" operator="over" in2="result1" />
    <feColorMatrix result="result91" values="1 0 0 0 0 0 1 0 0 0 0 0 1 0 0 0 0 0 10 -4 " />
    <feComposite operator="out" in="SourceGraphic" in2="result91" />
    <feGaussianBlur stdDeviation="1.000000" />
    <feColorMatrix values="1 0 0 0 0 0 1 0 0 0 0 0 1 0 0 0 0 0 1 0 " />
  </filter>
  <filter inkscape:label="roughenShoreline" style="color-interpolation-filters:sRGB" id="roughenShoreline">
    <feTurbulence numOctaves="4" seed="209" type="turbulence" baseFrequency="0.050000" result="turb" />
    <feDisplacementMap scale="6.600000" yChannelSelector="G" xChannelSelector="R" in="SourceGraphic" in2="turb" />
  </filter>
  <filter inkscape:label="roughenForest" style="color-interpolation-filters:sRGB" id="roughenForest">
    <feTurbulence numOctaves="4" seed="209" type="fractalNoise" baseFrequency="0.150000 0.150000" result="turb" />
    <feDisplacementMap scale="6.600000" yChannelSelector="G" xChannelSelector="R" in="SourceGraphic" in2="turb" />
  </filter>
  <filter inkscape:collect="always" inkscape:label="blurSuitRankGlow" style="color-interpolation-filters:sRGB" id="blurSuitRankGlow" x="-0.029025" y="-0.020458" width="1.058049" height="1.040917">
    <feGaussianBlur inkscape:collect="always" stdDeviation="2.515067" />
  </filter>
  <filter inkscape:collect="always" inkscape:label="blurWaterDeep" style="color-interpolation-filters:sRGB" id="blurWaterDeep" x="-0.056691" y="-0.041620" width="1.113381" height="1.083239">
    <feGaussianBlur inkscape:collect="always" stdDeviation="6.919136" />
  </filter>
  <filter inkscape:collect="always" inkscape:label="blurWaterShallow" style="color-interpolation-filters:sRGB" id="blurWaterShallow" x="-0.055818" y="-0.042103" width="1.111637" height="1.084205">
    <feGaussianBlur inkscape:collect="always" stdDeviation="6.561501" />
  </filter>
  <filter inkscape:collect="always" inkscape:label="blurWaterHilight" style="color-interpolation-filters:sRGB" id="blurWaterHilight" x="-0.071178" y="-0.051856" width="1.142356" height="1.103712">
    <feGaussianBlur inkscape:collect="always" stdDeviation="6.857532" />
  </filter>
  <filter inkscape:collect="always" inkscape:label="blurGrass" style="color-interpolation-filters:sRGB" id="blurGrass" x="-0.032100" y="-0.019164" width="1.064201" height="1.038328">
    <feGaussianBlur inkscape:collect="always" stdDeviation="2.386213" />
  </filter>
  <filter inkscape:collect="always" inkscape:label="blurForestShadow" style="color-interpolation-filters:sRGB" id="blurForestShadow" x="-0.033576" y="-0.018674" width="1.067152" height="1.037348">
    <feGaussianBlur inkscape:collect="always" stdDeviation="2.199785" />
  </filter>
  <filter inkscape:collect="always" inkscape:label="blurFlowerInner" style="color-interpolation-filters:sRGB" id="blurFlowerInner" x="-0.420000" y="-0.420000" width="1.840000" height="1.840000">
    <feGaussianBlur inkscape:collect="always" stdDeviation="1.605540" />
  </filter>
  <filter inkscape:collect="always" inkscape:label="blurFlowerMiddle" style="color-interpolation-filters:sRGB" id="blurFlowerMiddle" x="-0.240000" y="-0.240000" width="1.480000" height="1.480000">
    <feGaussianBlur inkscape:collect="always" stdDeviation="1.933705" />
  </filter>
  <linearGradient id="gradientStopsFish" inkscape:collect="always">
    <stop offset="0.000000" style="stop-color:#ff5555;stop-opacity:1.000000" />
    <stop offset="1.000000" style="stop-color:#ffffff;stop-opacity:1.000000" />
  </linearGradient>
  <linearGradient id="gradientStopsCoconut" inkscape:collect="always">
    <stop offset="0.000000" style="stop-color:#ffffff;stop-opacity:1.000000" />
    <stop offset="1.000000" style="stop-color:#c8c8c8;stop-opacity:0.000000" />
  </linearGradient>
  <linearGradient id="gradientStopsFlower" inkscape:collect="always">
    <stop offset="0.000000" style="stop-color:#b16dff;stop-opacity:1.000000" />
    <stop offset="1.000000" style="stop-color:#e7d2ff;stop-opacity:1.000000" />
  </linearGradient>
  <linearGradient id="gradientStopsJellyfish" inkscape:collect="always">
    <stop offset="0.000000" style="stop-color:#4f97ff;stop-opacity:1.000000" />
    <stop offset="1.000000" style="stop-color:#cfe3ff;stop-opacity:1.000000" />
  </linearGradient>
  <linearGradient id="gradientStopsShip" inkscape:collect="always">
    <stop offset="0.000000" style="stop-color:#b67800;stop-opacity:1.000000" />
    <stop offset="1.000000" style="stop-color:#d28b00;stop-opacity:1.000000" />
  </linearGradient>
  <linearGradient id="gradientFish" xlink:href="#gradientStopsFish" x1="178.789090" y1="-114.782830" x2="180.407300" y2="-103.782830" gradientTransform="translate(-178.76256,1.0606602)" gradientUnits="userSpaceOnUse" inkscape:collect="always" />
  <linearGradient id="gradientJellyfishTentacle1a" xlink:href="#gradientStopsJellyfish" x1="118.024030" y1="-110.827530" x2="121.753140" y2="-96.140030" gradientTransform="translate(-120,0)" gradientUnits="userSpaceOnUse" inkscape:collect="always" />
  <linearGradient id="gradientJellyfishTentacle1b" xlink:href="#gradientStopsJellyfish" x1="118.024030" y1="-110.827530" x2="121.753140" y2="-96.140030" gradientTransform="translate(-120,0)" gradientUnits="userSpaceOnUse" inkscape:collect="always" />
  <linearGradient id="gradientJellyfishTentacle2" xlink:href="#gradientStopsJellyfish" x1="118.218180" y1="-115.782610" x2="121.698270" y2="-97.813858" gradientTransform="translate(-120,0)" gradientUnits="userSpaceOnUse" inkscape:collect="always" />
  <linearGradient id="gradientJellyfishTentacle3" xlink:href="#gradientStopsJellyfish" x1="123.335370" y1="-114.610190" x2="116.678600" y2="-98.453941" gradientTransform="translate(-120,0)" gradientUnits="userSpaceOnUse" inkscape:collect="always" />
  <linearGradient id="gradientShip" xlink:href="#gradientStopsShip" x1="196.432910" y1="221.715270" x2="203.663250" y2="204.277770" gradientTransform="matrix(0.37654483,0.9263984,-0.9263984,0.37654483,355.66788,-318.43897)" gradientUnits="userSpaceOnUse" inkscape:collect="always" />
  <radialGradient id="gradientCoconut" xlink:href="#gradientStopsCoconut" cx="1.944096" cy="-60.612652" fx="1.944096" fy="-60.612652" r="6.723294" gradientUnits="userSpaceOnUse" gradientTransform="matrix(1.691364,-0.31394812,0.29762395,1.603419,17.826033,-7.042221)" inkscape:collect="always" />
  <radialGradient id="gradientFlower" xlink:href="#gradientStopsFlower" cx="60.884877" cy="-69.652750" fx="60.884877" fy="-69.652750" r="15.835310" gradientUnits="userSpaceOnUse" gradientTransform="matrix(0.8413905,0,0,0.87120012,-50.722984,-48.679159)" inkscape:collect="always" />
  <radialGradient id="gradientJellyfish" xlink:href="#gradientStopsJellyfish" cx="120.453410" cy="-112.943900" fx="120.453410" fy="-112.943900" r="10.580511" gradientUnits="userSpaceOnUse" gradientTransform="matrix(1.1662998,0.0435575,-0.04526952,1.2121402,-145.14628,17.080499)" inkscape:collect="always" />
</defs>

<sodipodi:namedview
    id="base"
    pagecolor="#ffffff"
    bordercolor="#666666"
    borderopacity="1.0"
    inkscape:pageopacity="0.0"
    inkscape:pageshadow="2"
    inkscape:zoom="2"
    inkscape:cx="115.37643"
    inkscape:cy="285.04449"
    inkscape:document-units="in"
    showgrid="true"
    units="in"
    inkscape:window-width="1392"
    inkscape:window-height="836"
    inkscape:window-x="39"
    inkscape:window-y="6"
    inkscape:window-maximized="0"
    inkscape:snap-grids="true"
    inkscape:snap-to-guides="true"
    inkscape:snap-nodes="true"
    inkscape:object-nodes="true"
    inkscape:snap-smooth-nodes="true"
    inkscape:snap-intersection-paths="true"
    inkscape:object-paths="true"
    inkscape:snap-bbox="true"
    inkscape:bbox-nodes="true"
    inkscape:snap-others="true"
    inkscape:bbox-paths="false"
    inkscape:snap-global="true" >
  <inkscape:grid
    type="xygrid"
    id="grid3051"
    empspacing="2"
    visible="true"
    enabled="true"
    snapvisiblegridlinesonly="true"
    spacingx="0.0625in"
    spacingy="0.0625in"
    dotted="false"
    units="in" />
</sodipodi:namedview>
<g inkscape:groupmode="layer" id="water_layer" inkscape:label="Water" style="display:inline" sodipodi:insensitive="true" >
  <rect id="water" style="fill:#b9deff;fill-opacity:1;stroke:none" x="0" y="0" width="247.5" height="337.5" />
</g>
<g inkscape:groupmode="layer" id="water_shallow_layer" inkscape:label="Water Shallow" style="display:inline" sodipodi:insensitive="true" >
  <path style="fill:#9bd1ff;fill-opacity:0.70;fill-rule:evenodd;stroke:none;filter:url(#blurWaterShallow)" d="m 123.75,-11.25 0,22.5 c 0,0 5.76477,11.576026 8.625,17.375 3.09936,6.283789 7.89782,12.000146 9.25,18.875 1.55546,7.908372 0.17979,16.269776 -1.625,24.125 -2.21422,9.637257 -13.34832,17.864837 -11.125,27.5 1.38643,6.00836 7.9664,10.23665 13.75,12.375 6.37213,2.35595 13.63375,-1.34266 20.375,-0.5 6.74125,0.84266 13.08006,7.32163 19.625,5.5 7.38331,-2.05497 9.57821,-12.20631 15.75,-16.75 5.67255,-4.176146 12.46746,-6.614848 19,-9.25 6.13435,-2.474526 18.875,-6.125 18.875,-6.125 l 22.5,0 0,-95.625 z m -135,264.375 0,95.625 73.125,0 0,-22.5 c 0,0 -4.509097,-8.90114 -7.625,-12.75 -4.544998,-5.61412 -11.822581,-8.7706 -15.875,-14.75 -3.433808,-5.06663 -4.513712,-11.38007 -6.625,-17.125 -2.359114,-6.41928 -2.556509,-13.97248 -6.75,-19.375 -3.372913,-4.34536 -13.75,-9.125 -13.75,-9.125 z" inkscape:connector-curvature="0" />
</g>
<g inkscape:groupmode="layer" id="water_deep_layer" inkscape:label="Water Deep" style="display:inline" sodipodi:insensitive="true" >
  <path style="fill:#87c8ff;fill-opacity:0.60;fill-rule:evenodd;stroke:none;filter:url(#blurWaterDeep)" d="m 180,-11.25 0,22.5 c 0,0 -2.57181,12.435006 -3,18.75 -0.48496,7.152182 -0.93008,14.475489 0.5,21.5 1.48488,7.29369 1.06056,18.822647 8.25,20.75 7.07739,1.897313 10.67383,-10.393407 17.25,-13.625 5.55067,-2.72765 11.98575,-3.058202 18,-4.5 5.07179,-1.215862 15.25,-3.5 15.25,-3.5 l 22.5,0 0,-61.875 z m -191.25,298.125 0,61.875 45,0 0,-22.5 c 0,0 3.029692,-9.64803 2,-14.375 C 34.330471,305.35842 29.794306,299.63633 25,295 21.173037,291.29914 11.25,286.875 11.25,286.875 Z" inkscape:connector-curvature="0" />
</g>
<g inkscape:groupmode="layer" id="water_hilight_layer" inkscape:label="Water Hilight" style="display:inline" sodipodi:insensitive="true" >
  <use xlink:href="#shoreline" height="100%" width="100%" x="0" y="0" style="display:inline;fill:#ffffff;fill-opacity:1;stroke:#ffffff;stroke-opacity:1;filter:url(#blurWaterHilight)" />
</g>
<g inkscape:groupmode="layer" id="land_layer" inkscape:label="Land" style="display:inline" sodipodi:insensitive="true" >
  <use xlink:href="#shoreline" height="100%" width="100%" x="0" y="0" style="display:inline;fill:#ffddab;fill-opacity:1;stroke:none;stroke-width:1;stroke-miterlimit:4;stroke-dasharray:none;stroke-opacity:1" />
</g>
<g inkscape:groupmode="layer" id="land_texture_layer" inkscape:label="Land Texture" style="display:inline" sodipodi:insensitive="true" >
  <use xlink:href="#shoreline" height="100%" width="100%" x="0" y="0" style="display:inline;fill:#ffca7d;fill-opacity:1;stroke:none;stroke-width:1;stroke-miterlimit:4;stroke-dasharray:none;stroke-opacity:1;filter:url(#textureLand)" />
</g>
<g inkscape:groupmode="layer" id="shoreline_layer" inkscape:label="Shoreline" style="display:inline" sodipodi:insensitive="true" >
  <use xlink:href="#shoreline" height="100%" width="100%" x="0" y="0" style="display:inline;fill:none;fill-opacity:1;stroke:#5f4c14;stroke-width:1;stroke-miterlimit:4;stroke-dasharray:none;stroke-opacity:1" />
</g>
<g inkscape:groupmode="layer" id="shoreline_master_layer" inkscape:label="Shoreline Master" style="display:none" sodipodi:insensitive="true" >
  <path id="shoreline" style="color:#000000;clip-rule:nonzero;display:inline;overflow:visible;visibility:visible;opacity:1;isolation:auto;mix-blend-mode:normal;color-interpolation:sRGB;color-interpolation-filters:linearRGB;solid-color:#000000;solid-opacity:1;fill-opacity:1;fill-rule:evenodd;filter:url(#roughenShoreline);color-rendering:auto;image-rendering:auto;shape-rendering:auto;text-rendering:auto;enable-background:accumulate" d="m 30.9375,-26.71875 c -25.3125,0 -50.625,1.40625 -53.4375,4.21875 -5.625,5.625 -5.625,236.25 0,241.875 3.97748,3.97748 11.54248,0.21713 22.5,0 4.88806,-0.0969 8.467129,1.01828 11.25,0 10.269447,-3.75769 10.653546,17.63584 29.259766,23.39648 0.30004,3.49144 8.51562,24.96552 7.332031,27.04102 -6.81573,11.95178 36.114295,17.9209 31.390625,23.60547 -10.470077,12.59992 5.844698,25.74383 5.142578,32.83203 -1.01122,10.20864 0,8.44986 0,11.25 0,5.625 5.625,11.25 0,22.5 0,0 174.375,11.25 185.625,0 7.95495,-7.95495 11.25,-236.25 0,-241.875 -6.7082,-3.3541 -33.75,0 -33.75,0 l -11.25,0 c -11.25,0 -9.61707,10.17974 -15.25,12.25 -5.92881,2.179 -24.98407,23.8659 -31.125,23.5 -19.75604,-1.17713 -31.32631,-13.70148 -42.5,-11.875 -6.66582,1.08961 -22.63031,16.13307 -34.5,4.75 0.60628,-2.93514 -6.10422,-7.07492 -9.267288,-15.5829 -3.16307,-8.50799 -2.77871,-17.38417 -1.982712,-23.7921 0.644857,-5.19122 13.23536,-18.986381 7.384073,-27.658114 C 93.137167,72.86712 107.45355,62.214279 112.5,50.625 114.69912,45.57468 109.88527,37.091352 102.16295,30.143518 94.440619,23.195684 101.25,28.125 95.625,22.5 91.647524,18.522524 84.375,16.875 84.375,11.25 c 0,-7.5 5.3033,-28.446699 0,-33.75 -2.8125,-2.8125 -28.125,-4.21875 -53.4375,-4.21875 z" inkscape:connector-curvature="0" />
</g>
<g inkscape:groupmode="layer" id="grass_layer" inkscape:label="Grass" style="display:inline" sodipodi:insensitive="true" >
  <use xlink:href="#grass" height="100%" width="100%" x="0" y="0" style="display:inline;fill:#b4e982;fill-opacity:1;stroke:none;stroke-width:1;stroke-miterlimit:4;stroke-dasharray:none;stroke-opacity:1" />
</g>
<g inkscape:groupmode="layer" id="grass_texture1_layer" inkscape:label="Grass Texture Big" style="display:inline" sodipodi:insensitive="true" >
  <use xlink:href="#grass" height="100%" width="100%" x="0" y="0" style="display:inline;fill:#a7e46a;fill-opacity:1;stroke:none;stroke-width:1;stroke-miterlimit:4;stroke-dasharray:none;stroke-opacity:1;filter:url(#textureGrassBig)" />
</g>
<g inkscape:groupmode="layer" id="grass_texture2_layer" inkscape:label="Grass Texture Small" style="display:inline" sodipodi:insensitive="true" >
  <use xlink:href="#grass" height="100%" width="100%" x="0" y="0" style="display:inline;fill:#8cdd3d;fill-opacity:1;stroke:none;stroke-width:1;stroke-miterlimit:4;stroke-dasharray:none;stroke-opacity:1;filter:url(#textureGrassSmall)" />
</g>
<g inkscape:groupmode="layer" id="grass_master_layer" inkscape:label="Grass Master" style="display:none" sodipodi:insensitive="true" >
  <path id="grass" style="color:#000000;clip-rule:nonzero;display:inline;overflow:visible;visibility:visible;opacity:1;isolation:auto;mix-blend-mode:normal;color-interpolation:sRGB;color-interpolation-filters:linearRGB;solid-color:#000000;solid-opacity:1;fill-opacity:1;fill-rule:evenodd;filter:url(#blurGrass);color-rendering:auto;image-rendering:auto;shape-rendering:auto;text-rendering:auto;enable-background:accumulate" d="m -11.25,-11.25 0,225 22.5,0 c 0,0 7.516444,3.63341 11.25,5.5 3.766889,1.88326 8.110647,2.94276 11.25,5.75 4.393408,3.92862 7.144368,9.46353 9.75,14.75 2.318549,4.70402 3.268682,9.97015 5.125,14.875 2.66495,7.04145 3.559566,15.30495 8.625,20.875 5.454991,5.99841 15.895119,5.5164 21.5,11.375 3.633371,3.79784 4.358424,9.56968 6.75,14.25 1.968572,3.8525 3.975758,7.69467 6.25,11.375 2.92848,4.73906 9.5,13.75 9.5,13.75 l 0,22.5 157.5,0 0,-225 -22.5,0 c 0,0 -11.01659,1.05257 -15.75,3.625 -6.47255,3.51758 -10.75226,10.08115 -15.875,15.375 -4.61538,4.76955 -7.39987,11.86068 -13.375,14.75 -5.07526,2.45418 -11.24679,1.44828 -16.875,1.125 -7.61245,-0.43725 -14.91773,-3.31885 -22.5,-4.125 -5.43027,-0.57735 -10.93344,-0.95887 -16.375,-0.5 -5.88711,0.49644 -11.51961,4.28675 -17.375,3.5 -8.18132,-1.09927 -16.66891,-4.93037 -22.125,-11.125 -3.971851,-4.50949 -4.596418,-11.15696 -6,-17 -1.84574,-7.68371 -3.931491,-15.63897 -3.125,-23.5 0.630749,-6.148035 4.710602,-11.483717 6.125,-17.5 1.528116,-6.499995 1.054719,-13.356087 2.5,-19.875 1.354765,-6.110643 5.86354,-11.617009 5.75,-17.875 C 101.14791,44.99784 98.673278,39.398188 95.5,34.75 92.436904,30.263205 86.294644,28.499337 83.25,24 80.724165,20.267353 78.75,11.25 78.75,11.25 l 0,-22.5 z" inkscape:connector-curvature="0" />
</g>
<g inkscape:groupmode="layer" id="forest_shadow_layer" inkscape:label="Forest Shadow" style="display:inline" sodipodi:insensitive="true" >
  <g style="filter:url(#blurForestShadow)" >
    <use xlink:href="#forest" height="100%" width="100%" x="0" y="0" style="display:inline;opacity:0.75;fill:#258c1b;fill-opacity:1;filter:url(#roughenForest)" />
  </g>
</g>
<g inkscape:groupmode="layer" id="forest_fill_layer" inkscape:label="Forest Fill" style="display:inline" sodipodi:insensitive="true" >
  <use xlink:href="#forest" height="100%" width="100%" x="0" y="0" style="fill:#83d700;fill-opacity:1;stroke:none;stroke-width:1.5;stroke-miterlimit:4;stroke-dasharray:none;stroke-opacity:1;filter:url(#roughenForest)" />
</g>
<g inkscape:groupmode="layer" id="forest_texture_big_layer" inkscape:label="Forest Texture Big" style="display:inline" sodipodi:insensitive="true" >
  <g style="filter:url(#textureForestBig)" >
    <use xlink:href="#forest" height="100%" width="100%" x="0" y="0" style="fill:#548c00;fill-opacity:1;stroke:none;stroke-width:1.5;stroke-miterlimit:4;stroke-dasharray:none;stroke-opacity:1;filter:url(#roughenForest)" />
  </g>
</g>
<g inkscape:groupmode="layer" id="forest_texture_small_layer" inkscape:label="Forest Texture Small" style="display:inline" sodipodi:insensitive="true" >
  <g style="filter:url(#textureForestSmall)" >
    <use xlink:href="#forest" height="100%" width="100%" x="0" y="0" style="fill:#78c125;fill-opacity:1;stroke:none;stroke-width:1;stroke-miterlimit:4;stroke-dasharray:none;stroke-opacity:1;filter:url(#roughenForest)" />
  </g>
</g>
<g inkscape:groupmode="layer" id="forest_outline_layer" inkscape:label="Forest Outline" style="display:inline" sodipodi:insensitive="true" >
  <use xlink:href="#forest" height="100%" width="100%" x="0" y="0" style="fill:none;fill-opacity:1;stroke:#006800;stroke-width:1.5;stroke-miterlimit:4;stroke-dasharray:none;stroke-opacity:1;filter:url(#roughenForest)" />
</g>
<g inkscape:groupmode="layer" id="forest_master_layer" inkscape:label="Forest Master" style="display:none" sodipodi:insensitive="true" >
  <path id="forest" style="color:#000000;clip-rule:nonzero;display:inline;overflow:visible;visibility:visible;opacity:1;isolation:auto;mix-blend-mode:normal;color-interpolation:sRGB;color-interpolation-filters:linearRGB;solid-color:#000000;solid-opacity:1;fill-opacity:1;fill-rule:nonzero;color-rendering:auto;image-rendering:auto;shape-rendering:auto;text-rendering:auto;enable-background:accumulate" d="m 45.5,-8 c -1.080552,0.0014 -2.146131,0.2708025 -3.113281,0.7871094 C 41.772968,-7.4002953 41.138181,-7.4968934 40.5,-7.5 38.737254,-7.49754 37.040268,-6.7826192 35.748047,-5.4980469 34.456816,-6.781639 32.761397,-7.4964907 31,-7.5 29.608455,-7.49757 28.249163,-7.0508149 27.095703,-6.2167969 26.133569,-6.7289309 25.074323,-6.9969166 24,-7 20.636454,-6.99831 17.749533,-4.4337105 17.125,-0.89257812 16.753313,-0.96079419 16.377088,-0.99671839 16,-1 15.96874,-0.998922 15.93749,-0.99762 15.90625,-0.996094 14.795371,-3.727491 12.280825,-5.4953394 9.5,-5.5 7.1647441,-5.4986159 4.9839247,-4.2496078 3.6855469,-2.1699219 2.6999949,-2.7128858 1.6082052,-2.9973803 0.5,-3 c -3.8659932,0 -7,3.35786438 -7,7.5 0.00366,3.1608307 1.8565061,5.979933 4.6328125,7.048828 C -1.9553448,12.026782 -1.9998258,12.512802 -2,13 c 9.152e-4,1.457077 0.3979464,2.882317 1.14257812,4.101562 C -2.2260666,18.514738 -2.9995003,20.463481 -3,22.5 c 0.00128,2.249346 0.9447436,4.37932 2.5703125,5.802734 C -2.347468,29.69661 -3.4970942,32.017071 -3.5,34.5 c 0.00169,1.220284 0.2812603,2.421697 0.8144531,3.5 -0.5331928,1.078303 -0.8127625,2.279716 -0.8144531,3.5 0.00284,1.516302 0.4345852,2.996069 1.2382812,4.244141 C -3.067528,46.995504 -3.4993688,48.479701 -3.5,50 c 4.227e-4,0.679995 0.087155,1.356769 0.2578125,2.011719 C -3.4108918,52.659107 -3.4976058,53.327856 -3.5,54 c 0.00364,2.341903 1.028082,4.547557 2.76953125,5.962891 C -0.90722941,60.625437 -0.99792638,61.310922 -1,62 c 0.00204,0.242722 0.0150758,0.485195 0.0390625,0.726562 C -2.5674422,64.149953 -3.4982415,66.266448 -3.5,68.5 c 5.594e-4,1.418239 0.376423,2.807241 1.0839844,4.005859 C -3.1215938,73.701108 -3.4973759,75.085747 -3.5,76.5 c 0.0026,0.589779 0.070127,1.177171 0.2011719,1.75 C -3.7572904,79.263204 -3.996941,80.374008 -4,81.5 c 4.227e-4,0.679995 0.087155,1.356769 0.2578125,2.011719 C -3.9108918,84.159107 -3.9976058,84.827856 -4,85.5 c 0.00275,0.589125 0.070269,1.175853 0.2011719,1.748047 C -3.9300156,87.821511 -3.9975404,88.409567 -4,89 c 0.00148,2.246253 0.9425554,4.373538 2.5644531,5.796875 C -4.4329426,95.7209 -6.498143,98.658216 -6.5,102 c 6.797e-4,0.18642 0.00785,0.37274 0.021484,0.55859 C -6.489724,102.70547 -6.496888,102.85267 -6.5,103 c 0.00384,3.11979 1.8098342,5.91123 4.5351562,7.00977 C -0.90973635,110.65659 0.28439523,110.99786 1.5,111 2.8306357,110.99915 4.1334824,110.59197 5.2558594,109.82617 6.3748729,110.58968 7.6733513,110.99677 9,111 9.242814,110.997 9.4853294,110.9809 9.7265625,110.9512 9.9833359,110.9828 10.241544,110.9991 10.5,111 c 3.865993,0 7,-3.35786 7,-7.5 -0.0023,-1.25047 -0.296368,-2.48048 -0.855469,-3.578125 C 17.522578,98.639219 17.997266,97.090671 18,95.5 17.997963,94.661174 17.864602,93.828657 17.605469,93.037109 18.372305,93.339994 19.182722,93.496657 20,93.5 c 0.41932,-0.0015 0.837669,-0.0433 1.25,-0.125 1.189401,2.528973 3.606888,4.124515 6.25,4.125 3.503517,-0.0045 6.464379,-2.783388 6.929688,-6.503906 0.02343,0.0014 0.04687,0.0027 0.07031,0.0039 2.575354,-0.0011 4.94217,-1.517178 6.162109,-3.947266 C 41.841493,85.673051 42.497011,83.8709 42.5,82 42.498476,81.035702 42.323404,80.080767 41.984375,79.1875 44.95724,78.245924 46.998003,75.321467 47,72 46.998383,69.221133 45.562846,66.670988 43.269531,65.373047 43.419735,64.761602 43.497172,64.132262 43.5,63.5 43.498,62.263888 43.210803,61.047479 42.664062,59.958984 43.237196,59.900044 43.801354,59.765563 44.34375,59.558594 45.667176,61.110714 47.537853,61.996451 49.5,62 51.229261,61.9969 52.896253,61.308129 54.179688,60.066406 54.924716,60.350317 55.709257,60.496923 56.5,60.5 c 3.865993,0 7,-3.357864 7,-7.5 0,-4.142136 -3.134007,-7.5 -7,-7.5 -0.10946,0.0018 -0.218865,0.0064 -0.328125,0.01367 1.647225,-1.314261 2.672658,-3.337278 2.804687,-5.533203 C 62.648284,39.712017 65.498954,36.443137 65.5,32.5 c 0,-4.142136 -3.134007,-7.5 -7,-7.5 -2.008193,0.0022 -3.918804,0.928292 -5.246094,2.542969 -0.291332,-1.148572 -0.833617,-2.206363 -1.582031,-3.085938 3.528222,-0.36788 6.242819,-3.503592 6.320313,-7.300781 0.888375,-0.660864 1.621747,-1.533289 2.142578,-2.548828 C 61.63549,13.186814 62.496491,11.14558 62.5,9 62.497086,7.408427 62.021688,5.8591106 61.142578,4.5761719 62.334163,3.1936984 62.997154,1.3818031 63,-0.5 63,-4.6421356 59.865993,-8 56,-8 53.988613,-7.99768 52.075352,-7.0684383 50.748047,-5.4492188 49.421642,-7.0673436 47.510023,-7.996474 45.5,-8 Z M 20.964844,18.908203 c 0.185965,0.02954 0.372966,0.05104 0.560547,0.06445 -0.01424,0.175409 -0.02271,0.3513 -0.02539,0.527347 8.96e-4,0.395151 0.03094,0.789609 0.08984,1.179688 -0.636422,0.556052 -1.176558,1.227751 -1.595703,1.984374 0.0025,-0.05466 0.0045,-0.109353 0.0059,-0.164062 -4.68e-4,-0.674571 -0.08587,-1.345991 -0.253906,-1.996094 0.472879,-0.469247 0.883003,-1.006222 1.21875,-1.595703 z m 16.896484,6.488281 c 0.70533,0.462948 1.481659,0.788292 2.292969,0.960938 -0.3707,0.859701 -0.586084,1.786845 -0.634766,2.732422 -0.274317,-0.04425 -0.550846,-0.07099 -0.828125,-0.08008 -0.503866,-1.023132 -1.221799,-1.907513 -2.097656,-2.583985 0.457652,-0.290387 0.882922,-0.635715 1.267578,-1.029295 z m -18.853516,0.935547 c -0.0032,0.05596 -0.0058,0.11195 -0.0078,0.167969 -3.38e-4,0.428759 0.03364,0.856759 0.101562,1.279297 -0.41238,0.296884 -0.794088,0.639963 -1.138671,1.023437 -0.02663,-0.296099 -0.06967,-0.590238 -0.128907,-0.880859 0.456625,-0.470589 0.851507,-1.005422 1.173828,-1.589844 z m -1.017578,12.904297 c 0.175643,0.192166 0.360806,0.374069 0.554688,0.544922 0.06908,0.706568 0.231513,1.399035 0.482422,2.056641 -0.432926,0.582556 -0.782464,1.230944 -1.03711,1.923828 0.0047,-0.08717 0.0079,-0.174425 0.0098,-0.261719 -0.003,-0.759592 -0.113591,-1.514295 -0.328125,-2.238281 0.192307,-0.656294 0.299431,-1.337813 0.318359,-2.025391 z m 30.90625,6.976563 C 49.86068,46.727629 50.922748,46.996989 52,47 c 0.10946,-0.0018 0.218865,-0.0064 0.328125,-0.01367 -0.175715,0.140486 -0.345173,0.289739 -0.507813,0.447266 C 51.075284,47.149683 50.290743,47.003077 49.5,47 c -0.172063,3.68e-4 -0.344055,0.0075 -0.515625,0.02148 -0.01561,-0.271037 -0.04495,-0.540966 -0.08789,-0.808589 z m -29.037109,15.68164 c 0.891259,0.585749 1.893668,0.95014 2.933594,1.066407 0.532553,1.09752 1.310202,2.036871 2.263672,2.734374 C 24.54622,65.56798 24.024068,65.502466 23.5,65.5 22.422377,65.5015 21.359621,65.769504 20.394531,66.283203 20.46397,65.859501 20.499256,65.430184 20.5,65 20.4961,63.927678 20.277667,62.868715 19.859375,61.894531 Z m 7.583984,4.910157 C 27.95378,66.93202 28.475932,66.997534 29,67 c 0.134878,-0.001 0.2697,-0.0062 0.404297,-0.01563 0.07411,0.224869 0.158192,0.445823 0.251953,0.662109 -0.339682,0.07168 -0.673932,0.170255 -1,0.294922 -0.362108,-0.427668 -0.769101,-0.809101 -1.212891,-1.136713 z m -9.664062,10.5 c 0.07256,0.115512 0.148112,0.228837 0.226562,0.339843 -0.248142,0.442368 -0.453004,0.910997 -0.611328,1.398438 C 16.020245,79.636 14.857014,80.680925 14.072266,82.027344 13.253443,81.679746 12.380751,81.500834 11.5,81.5 10.992605,81.503115 10.48703,81.56533 9.9921875,81.685547 9.9955064,81.623735 9.9981107,81.561881 10,81.5 9.9987317,81.43943 9.9967784,81.378878 9.9941406,81.318359 10.48848,81.437112 10.993391,81.498016 11.5,81.5 c 2.668317,-0.0019 5.10357,-1.628892 6.279297,-4.195312 z M 11.5,123.5 c -1.688958,0.003 -3.3198006,0.66106 -4.5917969,1.85156 -0.8523955,0.28533 -1.6459612,0.74277 -2.3378906,1.34766 C 4.0555781,126.56948 3.5287803,126.50265 3,126.5 2.8455644,126.50039 2.691183,126.506 2.5371094,126.5176 1.7286893,126.17794 0.86834542,126.00243 0,126 c -3.8659932,0 -7,3.35786 -7,7.5 0,4.14214 3.1340068,7.5 7,7.5 0.15443583,-3.9e-4 0.3088172,-0.006 0.46289062,-0.0176 0.54568378,0.22781 1.11589408,0.38136 1.69726558,0.45703 -2.79086985,1.06052 -4.656986,3.88786 -4.6601562,7.06057 0.0028,1.26269 0.3030917,2.50418 0.8730469,3.60938 C -1.8714544,152.87931 -1.9974484,153.68673 -2,154.5 c 4.148e-4,2.22191 0.9203216,4.32926 2.51171875,5.75391 C -1.0777214,161.67681 -1.9974248,163.78082 -2,166 c 0.00333,1.58844 0.4772646,3.13472 1.35351562,4.41602 C -1.6751453,169.81476 -2.828223,169.49979 -4,169.5 c -3.8659932,0 -7,3.35786 -7,7.5 0,4.14214 3.1340068,7.5 7,7.5 0.095116,-0.002 0.1901882,-0.006 0.2851562,-0.0117 1.325368,1.59435 3.22212725,2.50792 5.2148438,2.5117 0.8587773,-1.8e-4 1.7101933,-0.16967 2.5117188,-0.5 0.4180149,-0.002 0.8350458,-0.0436 1.2460937,-0.125 C 5.667577,186.4562 6.0832903,186.49803 6.5,186.5 7.5129208,186.497 8.5131541,186.25837 9.4316406,185.80078 9.9457388,185.93036 10.471873,185.9972 11,186 c 0.09577,-0.002 0.191491,-0.006 0.287109,-0.0117 0.0709,0.005 0.141876,0.009 0.212891,0.0117 0.253209,-9.3e-4 0.506185,-0.0166 0.757812,-0.0469 1.21766,0.99974 2.708126,1.54323 4.242188,1.54688 2.460421,-0.004 4.738396,-1.39106 6,-3.6543 1.261604,2.26324 3.539579,3.65064 6,3.6543 0.196338,-0.003 0.392475,-0.0146 0.587891,-0.0352 -2.754225,1.0832 -4.585756,3.89172 -4.587891,7.0352 0,4.14214 3.134007,7.5 7,7.5 0.324995,-0.004 0.649348,-0.0319 0.970703,-0.084 -0.950282,1.31146 -1.467543,2.92371 -1.470703,4.584 0,4.14214 3.134007,7.5 7,7.5 3.865993,0 7,-3.35786 7,-7.5 -0.0026,-2.14291 -0.860546,-4.18229 -2.357422,-5.60352 C 44.725375,199.53663 45.99737,197.11325 46,194.5 c -1.7e-5,-0.16681 -0.0052,-0.33357 -0.01563,-0.5 L 46,194 c 1.864711,-0.002 3.651777,-0.80017 4.964844,-2.21875 1.252959,2.29955 3.549945,3.71491 6.035156,3.71875 2.132126,-0.003 4.146742,-1.04697 5.472656,-2.83594 0.328207,0.85614 0.505675,1.76997 0.523438,2.69532 0.141144,-0.1033 0.285773,-0.20102 0.433594,-0.29297 0.507037,1.49264 1.443288,2.77425 2.673828,3.66015 -1.035798,1.34327 -1.602758,3.03103 -1.603516,4.77344 0.0034,2.08272 0.814899,4.07015 2.240234,5.48633 -1.49449,-0.0596 -2.931882,-0.63044 -4.101562,-1.62891 -0.270343,0.87679 -0.68948,1.69255 -1.236328,2.40625 0.0112,0.0871 0.02097,0.1743 0.0293,0.26172 C 62.249365,209.67898 63.120681,209.50074 64,209.5 c 0.56312,0.003 1.123813,0.0794 1.669922,0.22656 -1.725356,1.21089 -2.864475,3.1754 -3.113281,5.36914 C 62.207192,215.03522 61.853965,215.00323 61.5,215 c -2.358826,0.003 -4.557784,1.27797 -5.849609,3.39258 -0.380048,0.0697 -0.764821,0.10562 -1.150391,0.10742 -0.829202,-0.004 -1.651221,-0.1649 -2.427734,-0.47656 -0.03335,0.0466 -0.0672,0.0929 -0.101563,0.13867 0.337328,0.11173 0.682061,0.19595 1.03125,0.25195 -8.04e-4,0.0286 -0.0015,0.0573 -0.002,0.0859 0.0031,1.31981 0.331199,2.61538 0.951172,3.75586 C 51.537081,223.50735 50.002541,226.12661 50,229 c 0.0029,2.12779 0.849215,4.15411 2.328125,5.57422 -2.61739,1.15809 -4.325716,3.89172 -4.328125,6.92578 0,4.14214 3.134007,7.5 7,7.5 1.72926,-0.003 3.396252,-0.69187 4.679688,-1.93359 0.745028,0.28391 1.529569,0.43051 2.320312,0.43359 0.499357,-0.003 0.996982,-0.0632 1.484375,-0.17969 0.120848,0.21724 0.251875,0.4278 0.392578,0.63086 -1.678131,1.31415 -2.724371,3.3594 -2.855469,5.58203 C 59.95363,252.86109 58.738466,252.50457 57.5,252.5 c -3.865993,0 -7,3.35786 -7,7.5 0.0032,3.22559 1.930945,6.08772 4.787109,7.10742 0.872908,3.19435 3.606335,5.39016 6.712891,5.39258 1.147619,-0.002 2.277125,-0.30674 3.289062,-0.88672 0.874705,3.19129 3.606622,5.38414 6.710938,5.38672 3.865993,0 7,-3.35786 7,-7.5 -0.0029,-1.87635 -0.662176,-3.68337 -1.847656,-5.06445 0.485324,-0.21472 0.946559,-0.48727 1.375,-0.8125 0.13547,1.74198 0.834587,3.37855 1.976562,4.62695 -1.283652,1.40147 -2.00313,3.28641 -2.003906,5.25 0,4.14214 3.134007,7.5 7,7.5 3.865993,0 7,-3.35786 7,-7.5 -0.0027,-0.17604 -0.01115,-0.35193 -0.02539,-0.52734 0.174748,0.0162 0.350002,0.0253 0.52539,0.0273 0.961676,-0.003 1.912434,-0.21856 2.792969,-0.63281 -0.193008,0.69211 -0.291683,1.41047 -0.292969,2.13281 0.0033,0.55229 0.06359,1.1025 0.179688,1.64062 C 94.598715,277.49515 94.003253,279.21783 94,281 c 0,4.14214 3.134007,7.5 7,7.5 0.58873,-0.003 1.17473,-0.0858 1.74414,-0.24609 1.03977,1.61606 2.62941,2.73098 4.42774,3.10547 -0.7618,1.22689 -1.16939,2.66704 -1.17188,4.14062 9.1e-4,1.9665 0.72264,3.85396 2.00977,5.25586 -1.58823,1.42286 -2.50714,3.52599 -2.50977,5.74414 0,4.14214 3.13401,7.5 7,7.5 1.49627,-0.003 2.95222,-0.51999 4.1543,-1.47461 0.42012,2.16864 1.71341,4.02743 3.5332,5.07813 -1.6934,1.41905 -2.68429,3.5931 -2.6875,5.89648 0.002,1.36191 0.35072,2.69745 1.00781,3.86328 -0.97394,1.32053 -1.50502,2.95366 -1.50781,4.63672 0.002,1.22028 0.28126,2.4217 0.81445,3.5 -0.53319,1.0783 -0.81276,2.27972 -0.81445,3.5 0,4.14214 3.13401,7.5 7,7.5 3.86599,0 7,-3.35786 7,-7.5 -0.003,-0.83972 -0.13778,-1.67292 -0.39844,-2.46484 0.52978,0.20981 1.08132,0.35015 1.64258,0.41796 0.71901,2.84014 2.92181,4.96733 5.63281,5.43946 0.95745,3.0477 3.62172,5.10227 6.62305,5.10742 0.87789,-6.4e-4 1.74783,-0.17821 2.56445,-0.52344 0.14492,0.0127 0.29017,0.0205 0.43555,0.0234 3.51792,-0.004 6.48665,-2.80458 6.93555,-6.54297 0.69247,-1.18676 1.06118,-2.55744 1.06445,-3.95703 -0.003,-1.03102 -0.20455,-2.05029 -0.5918,-2.99414 0.71031,-1.19773 1.0889,-2.5868 1.0918,-4.00586 -0.003,-0.58913 -0.0703,-1.17585 -0.20117,-1.74805 0.13119,-0.57346 0.19871,-1.16152 0.20117,-1.75195 -0.004,-3.50311 -2.27137,-6.53643 -5.46094,-7.30664 1.2552,-1.39475 1.95793,-3.25584 1.96094,-5.19336 -0.003,-2.3989 -1.07656,-4.6516 -2.88867,-6.06055 0.25474,-0.78448 0.38608,-1.60885 0.38867,-2.43945 -0.002,-1.2143 -0.27846,-2.41001 -0.80664,-3.48438 1.16001,-1.37522 1.80361,-3.16199 1.80664,-5.01562 0,-4.14214 -3.13401,-7.5 -7,-7.5 -3.86599,0 -7,3.35786 -7,7.5 0.002,1.2143 0.27846,2.41001 0.80664,3.48438 -0.5226,0.62419 -0.94381,1.33786 -1.24609,2.11132 -0.35074,-0.0607 -0.70528,-0.0927 -1.06055,-0.0957 -0.10424,0.001 -0.20843,0.005 -0.3125,0.0117 -0.36922,-0.75306 -0.85532,-1.43334 -1.4375,-2.01172 1.43219,-1.41758 2.24766,-3.41093 2.25,-5.5 2.1e-4,-0.43208 -0.0344,-0.86337 -0.10352,-1.28906 3.01548,-0.90933 5.09994,-3.85454 5.10352,-7.21094 0,-4.14214 -3.13401,-7.5 -7,-7.5 -1.31724,0.003 -2.60688,0.40474 -3.7207,1.1582 -0.69318,-2.91639 -2.94626,-5.10642 -5.72266,-5.5625 0.28981,-0.83036 0.43992,-1.70919 0.44336,-2.5957 -4.2e-4,-2.22191 -0.92032,-4.32926 -2.51172,-5.75391 0.005,-0.082 0.009,-0.164 0.0117,-0.24609 0,-4.14214 -3.13401,-7.5 -7,-7.5 -0.17534,7.5e-4 -0.3506,0.009 -0.52539,0.0234 0.0142,-0.1741 0.0226,-0.34867 0.0254,-0.5234 0,-4.14214 -3.13401,-7.5 -7,-7.5 -2.10923,0.001 -4.10543,1.02175 -5.43359,2.77734 -0.2917,-0.55108 -0.6474,-1.06035 -1.0586,-1.51562 2.4354,-1.24167 3.98837,-3.872 3.99219,-6.76172 0,-4.14214 -3.13401,-7.5 -7,-7.5 -1.132563,0.002 -2.2478,0.29806 -3.25,0.86328 -0.751956,-0.42207 -1.569295,-0.69407 -2.412109,-0.80273 C 92.942741,236.54788 92.997075,236.02483 93,235.5 92.99654,232.88591 91.722966,230.46235 89.638672,229.10352 91.136998,227.68305 91.99644,225.64356 92,223.5 91.9982,220.71193 90.553156,218.15501 88.248047,216.86133 88.739543,215.8189 88.997032,214.66789 89,213.5 88.997,212.40686 88.771037,211.32763 88.337891,210.33789 89.408057,208.98634 89.996903,207.27239 90,205.5 89.9979,202.97421 88.809389,200.61919 86.837891,199.23438 89.884428,198.3462 91.998949,195.38283 92,192 c -0.002,-3.32147 -2.04276,-6.24592 -5.015625,-7.1875 0.0072,-0.10404 0.01245,-0.20823 0.01563,-0.3125 0,-4.14214 -3.134007,-7.5 -7,-7.5 -1.586343,4.9e-4 -3.12549,0.57827 -4.365234,1.63867 -0.732761,-2.35995 -2.509782,-4.17721 -4.744141,-4.85156 C 70.96158,173.36224 70.998176,172.93161 71,172.5 71,168.35786 67.865993,165 64,165 l -0.01563,0 C 63.73872,161.06075 60.684828,158.00003 57,158 c -0.479312,0.003 -0.957079,0.0585 -1.425781,0.16602 1.53756,-1.42213 2.422749,-3.48971 2.425781,-5.66602 0,-4.14214 -3.134007,-7.5 -7,-7.5 -1.109889,4.2e-4 -2.203778,0.28359 -3.191406,0.82617 -0.610077,-0.97602 -1.425599,-1.78485 -2.38086,-2.36133 C 45.804616,142.52852 45.999339,141.51969 46,140.5 c 0,-4.14214 -3.134007,-7.5 -7,-7.5 -2.564218,2.4e-4 -4.92309,1.50263 -6.148438,3.91602 C 31.823482,136.3151 30.671116,136.00014 29.5,136 l -0.01563,0 c -0.24565,-3.93925 -3.299542,-6.99997 -6.98437,-7 -1.443678,0.003 -2.851047,0.48509 -4.029297,1.37891 C 18.169332,126.49312 15.139233,123.50293 11.5,123.5 Z m 5.96875,18.21094 C 18.786991,143.17298 20.602683,143.99906 22.5,144 l 0.01563,0 c 0.03712,0.54701 0.13012,1.088 0.277344,1.61328 -2.005868,0.37976 -3.757857,1.67682 -4.798828,3.55274 0.0025,-0.0553 0.0045,-0.11066 0.0059,-0.16602 -0.0028,-1.5882 -0.476007,-3.13447 -1.351562,-4.41602 0.451504,-0.8886 0.730539,-1.86588 0.820312,-2.87304 z m 17.9375,5.79883 C 35.1403,148.30924 35.002932,149.15127 35,150 c 0.0025,1.31962 0.329929,2.61518 0.949219,3.75586 -0.04519,0.0255 -0.09011,0.0515 -0.134766,0.0781 -1.008414,-1.61437 -2.562105,-2.74655 -4.333984,-3.1582 1.622661,-0.51242 3.017234,-1.63709 3.925781,-3.16601 z M 246.5,152.5 c -1.55663,7.9e-4 -3.0686,0.55747 -4.29688,1.58203 -0.85612,-0.3841 -1.77498,-0.58194 -2.70312,-0.58203 -0.67688,0.002 -1.3499,0.10929 -1.99805,0.31836 -0.6494,-0.20947 -1.32376,-0.31671 -2.00195,-0.31836 -3.56384,0.004 -6.55572,2.87683 -6.94922,6.67188 -3.2326,0.73293 -5.54664,3.78792 -5.55078,7.32812 0.004,3.74928 2.59105,6.9196 6.05859,7.42383 0.12896,0.32407 0.27907,0.63799 0.44922,0.93945 -0.97394,1.32053 -1.50502,2.95366 -1.50781,4.63672 0.001,0.028 0.003,0.056 0.004,0.084 -2.90117,0.44759 -5.23488,2.78441 -5.84766,5.85547 C 220.83257,184.88804 218.9619,184.00302 217,184 c -3.86599,0 -7,3.35786 -7,7.5 0,4.14214 3.13401,7.5 7,7.5 0.16683,-1.1e-4 0.3336,-0.007 0.5,-0.0195 l 0,0.0195 c 0,4.14214 3.13401,7.5 7,7.5 1.44368,-0.003 2.85105,-0.48509 4.0293,-1.37891 0.30137,3.88578 3.33147,6.87598 6.9707,6.87891 0.42193,-9.7e-4 0.84291,-0.0428 1.25781,-0.125 0.40977,0.0812 0.82548,0.12303 1.24219,0.125 0.93362,-0.002 1.85734,-0.205 2.7168,-0.5957 1.32674,1.6447 3.25425,2.59171 5.2832,2.5957 1.84048,-8.7e-4 3.60659,-0.77832 4.91602,-2.16406 3.24847,-0.71893 5.58,-3.78196 5.58398,-7.33594 -0.003,-3.79027 -2.64446,-6.98259 -6.15625,-7.43945 0.10288,-0.5129 0.15525,-1.03594 0.15625,-1.56055 -9.8e-4,-1.71136 -0.54818,-3.37089 -1.55078,-4.70312 1.31148,-1.40486 2.04905,-3.3099 2.05078,-5.29688 -9.7e-4,-1.7148 -0.55037,-3.37747 -1.55664,-4.71094 1.61701,-1.42323 2.5549,-3.54693 2.55664,-5.78906 1.3e-4,-0.42745 -0.0339,-0.85414 -0.10156,-1.27539 0.0651,-0.40454 0.099,-0.81412 0.10156,-1.22461 -0.003,-1.29908 -0.32044,-2.57512 -0.92188,-3.70312 3.17073,-0.78612 5.41752,-3.8099 5.42188,-7.29688 -10e-4,-3.5773 -2.36007,-6.65583 -5.63477,-7.35352 -1.23877,-1.0632 -2.77801,-1.64377 -4.36523,-1.64648 z m -229.492188,0.33203 c -0.0032,0.056 -0.0058,0.11195 -0.0078,0.16797 3.81e-4,2.48313 1.147834,4.8051 3.064453,6.20117 -0.432548,0.21435 -0.843534,0.47547 -1.226562,0.7793 -0.415607,-2.16694 -1.702898,-4.02676 -3.517579,-5.08203 0.676389,-0.57168 1.248474,-1.27222 1.6875,-2.06641 z m 28.183594,3.8418 C 46.489461,158.75018 48.667509,159.9974 51,160 c 0.479312,-0.003 0.957079,-0.0585 1.425781,-0.16602 -0.802343,0.7465 -1.435531,1.67892 -1.851562,2.72657 C 49.493479,161.86915 48.258733,161.50278 47,161.5 c -0.361793,0.002 -0.722901,0.0339 -1.080078,0.0957 0.05167,-0.36264 0.07843,-0.72886 0.08008,-1.0957 -0.0031,-1.31981 -0.331199,-2.61538 -0.951172,-3.75586 0.04777,-0.0229 0.0953,-0.0463 0.142578,-0.0703 z m -18.507812,15.69726 c 0.08755,0.11087 0.178079,0.21899 0.271484,0.32422 -1.863415,0.45318 -3.472929,1.70283 -4.455078,3.45899 -0.865356,-1.55053 -2.223999,-2.71429 -3.826172,-3.27735 0.228191,-0.15297 0.447957,-0.31991 0.658203,-0.5 1.102037,0.73097 2.371851,1.11976 3.667969,1.12305 1.301958,-0.002 2.577609,-0.3929 3.683594,-1.12891 z m 15.818359,2.37305 c 0.249059,0.22039 0.512057,0.42205 0.787109,0.60352 -1.368274,0.75886 -2.464652,1.98018 -3.11914,3.47461 C 39.188448,178.28458 38.102329,178.00285 37,178 c -0.575113,0.002 -1.147788,0.0802 -1.705078,0.23242 -0.153043,-0.67271 -0.392294,-1.31948 -0.710938,-1.92187 0.914407,0.45186 1.909041,0.68703 2.916016,0.68945 1.882608,-6.9e-4 3.685599,-0.81383 5.001953,-2.25586 z M 173,195 c -1.22056,0.004 -2.41906,0.34893 -3.47656,1.00195 L 169.5,196 c -2.794,0.001 -5.31982,1.78219 -6.42578,4.53125 -0.19093,-0.0188 -0.38249,-0.0293 -0.57422,-0.0312 -3.86599,0 -7,3.35786 -7,7.5 0.004,3.10988 1.79874,5.89454 4.51172,7 l -0.0117,0 c -1.81477,4.8e-4 -3.55844,0.75607 -4.86328,2.10742 0.56625,-1.10559 0.86315,-2.34631 0.86326,-3.60742 0,-4.14214 -3.13401,-7.5 -7,-7.5 -3.86599,0 -7,3.35786 -7,7.5 0.002,0.49139 0.0491,0.98137 0.14062,1.46289 -1.13547,-0.89368 -2.49621,-1.39945 -3.90429,-1.45117 0.17264,-0.65466 0.26134,-1.33144 0.26367,-2.01172 0,-4.14214 -3.13401,-7.5 -7,-7.5 -3.86599,0 -7,3.35786 -7,7.5 0.003,1.79638 0.60841,3.5318 1.70508,4.89062 -2.27829,1.30229 -3.70239,3.84269 -3.70508,6.60938 0.001,3.04343 1.71892,5.78433 4.34766,6.9375 -1.18506,1.38059 -1.84428,3.18683 -1.84766,5.0625 0,4.14214 3.13401,7.5 7,7.5 3.3594,-0.002 6.24404,-2.56 6.87305,-6.0957 1.09277,0.71359 2.34722,1.09255 3.62695,1.0957 0.50733,-0.002 1.0129,-0.064 1.50781,-0.18359 -0.003,0.0612 -0.006,0.12236 -0.008,0.18359 0.002,0.27223 0.0188,0.54412 0.0488,0.81445 -0.87606,0.6431 -1.60407,1.49133 -2.12891,2.48047 -0.6239,-0.19333 -1.27006,-0.29259 -1.9197,-0.29497 -3.86599,0 -7,3.35786 -7,7.5 0,4.14214 3.13401,7.5 7,7.5 2.51594,-0.002 4.83718,-1.45117 6.08008,-3.79492 0.0422,0.0121 0.0845,0.0238 0.12695,0.0351 -0.46183,1.01568 -0.70352,2.13003 -0.70703,3.25982 0,4.14214 3.13401,7.5 7,7.5 1.70327,-0.003 3.34693,-0.67216 4.62305,-1.88086 -0.0807,0.45523 -0.12193,0.91749 -0.12305,1.38086 0.003,3.21845 1.92222,6.07604 4.76953,7.10156 -0.50286,1.05202 -0.76654,2.21648 -0.76953,3.39844 0.005,3.9727 2.89972,7.2524 6.60156,7.47852 -0.7164,1.2011 -1.09851,2.59607 -1.10156,4.02148 0.004,3.13668 1.82971,5.93928 4.57617,7.02539 -0.37944,0.93904 -0.57552,1.95134 -0.57617,2.97461 0.002,3.8858 2.77392,7.12636 6.38672,7.4668 1.31827,1.90507 3.39983,3.02987 5.61328,3.0332 2.96454,-0.004 5.60517,-2.00868 6.5918,-5.00391 1.11116,2.73209 3.62667,4.50008 6.4082,4.50391 1.36083,-10e-4 2.6918,-0.42751 3.83008,-1.22656 0.47665,0.12609 0.96436,0.1981 1.45508,0.21484 1.16144,1.39764 2.76859,2.27959 4.50586,2.47266 -1.4567,1.41901 -2.28833,3.42967 -2.29102,5.53906 0,4.14214 3.13401,7.5 7,7.5 0.43396,-0.002 0.86681,-0.047 1.29297,-0.13477 -0.19318,0.69274 -0.29186,1.41177 -0.29297,2.13477 0.002,2.96326 1.63227,5.64744 4.16016,6.84961 -0.43092,0.98632 -0.65619,2.06136 -0.66016,3.15039 0.003,1.26269 0.30309,2.50418 0.87305,3.60938 -0.2445,0.76993 -0.3705,1.57735 -0.37305,2.39062 0,4.14214 3.13401,7.5 7,7.5 1.91914,-0.003 3.75286,-0.85055 5.07227,-2.34375 1.8683,-0.62274 3.40807,-2.05485 4.24609,-3.94922 0.90324,3.14306 3.61222,5.28902 6.68164,5.29297 2.20807,-0.004 4.285,-1.12378 5.60352,-3.02148 0.13194,0.0112 0.26416,0.0183 0.39648,0.0215 3.86599,0 7,-3.35786 7,-7.5 -0.002,-1.63554 -0.50382,-3.22539 -1.42773,-4.52734 2.67127,-1.13086 4.42673,-3.8953 4.42773,-6.97268 -0.002,-2.00754 -0.75586,-3.93026 -2.0918,-5.33789 0.0587,-0.38423 0.0894,-0.77277 0.0918,-1.16211 -0.003,-2.8063 -1.46797,-5.37603 -3.79688,-6.66016 0.84193,-1.26749 1.29515,-2.78413 1.29688,-4.33984 -0.002,-2.41855 -1.09322,-4.68743 -2.92969,-6.09375 3.41019,-0.56531 5.92713,-3.709 5.92969,-7.40625 -0.002,-2.51545 -1.18042,-4.86243 -3.13867,-6.25 1.95825,-1.38757 3.13688,-3.73455 3.13867,-6.25 -0.003,-2.1007 -0.82868,-4.10363 -2.27539,-5.52148 1.14072,-1.37066 1.77243,-3.1421 1.77539,-4.97852 -0.003,-1.62469 -0.4974,-3.20456 -1.41016,-4.50195 0.91201,-1.29632 1.40684,-2.8747 1.41016,-4.49805 -0.004,-3.10528 -1.79287,-5.88706 -4.5,-6.99609 2.70962,-1.11005 4.49943,-3.89577 4.5,-7.00391 -0.002,-0.0977 -0.005,-0.19539 -0.01,-0.29297 0.004,-0.069 0.008,-0.13797 0.01,-0.20703 -0.003,-1.57273 -0.46785,-3.10458 -1.32812,-4.37891 2.87683,-1.00599 4.82458,-3.87877 4.82812,-7.12109 0,-4.14214 -3.13401,-7.5 -7,-7.5 -1.71853,0.003 -3.37586,0.68396 -4.65625,1.91211 -1.02609,-0.5982 -2.17559,-0.91177 -3.34375,-0.91211 -1.03898,0.002 -2.06443,0.25261 -3.00195,0.73242 -0.93633,-0.47921 -1.96039,-0.72938 -2.99805,-0.73242 -3.86599,0 -7,3.35786 -7,7.5 l 0,0.004 c -0.79761,-0.33016 -1.64494,-0.50095 -2.5,-0.50391 -0.16683,1.1e-4 -0.3336,0.007 -0.5,0.0195 l 0,-0.0195 c 0,-4.14214 -3.13401,-7.5 -7,-7.5 -1.87774,0.003 -3.67581,0.81324 -4.99023,2.25 C 211.45588,224.38491 208.87435,222.5012 206,222.5 c -0.24871,0.003 -0.49711,0.0197 -0.74414,0.0508 -0.75302,-2.99455 -3.14862,-5.18366 -6.02734,-5.50781 0.17792,-0.66434 0.26928,-1.35184 0.27148,-2.04299 0,-4.14214 -3.13401,-7.5 -7,-7.5 -0.28416,0.003 -0.56789,0.0245 -0.84961,0.0644 1.18618,-1.38075 1.84614,-3.18779 1.84961,-5.0644 0,-4.14214 -3.13401,-7.5 -7,-7.5 -3.15643,0.003 -5.92031,2.26966 -6.74805,5.5332 C 178.92383,197.26817 176.15788,195.00148 173,195 Z m 14.34961,14.93555 c -1.07784,1.25793 -1.72275,2.87228 -1.82813,4.57617 -0.58178,-0.24349 -1.19136,-0.40245 -1.8125,-0.47266 1.10591,-1.07612 1.86149,-2.50309 2.15625,-4.07226 0.21101,0.0214 0.42282,0.0324 0.63477,0.0332 0.28416,-0.003 0.56789,-0.0245 0.84961,-0.0644 z m -15.11719,0.46093 c 0.086,0.34044 0.19438,0.67395 0.32422,0.99805 -0.35463,-0.26941 -0.73191,-0.50284 -1.12695,-0.69726 0.27302,-0.0827 0.54109,-0.18319 0.80273,-0.30079 z m 2.7207,4.21875 c 0.98703,0.7491 2.13838,1.21139 3.3418,1.3418 -1.45908,1.41918 -2.29226,3.43158 -2.29492,5.54297 2.6e-4,0.68065 0.087,1.35809 0.25781,2.01367 -0.0858,-0.006 -0.1718,-0.0108 -0.25781,-0.0137 -0.25856,0.003 -0.51677,0.0212 -0.77344,0.0547 0.17958,-0.66801 0.27161,-1.35953 0.27344,-2.05469 -4.2e-4,-0.67999 -0.0872,-1.35677 -0.25781,-2.01172 0.1687,-0.64739 0.25542,-1.31614 0.25781,-1.98828 -0.003,-0.99085 -0.18852,-1.97133 -0.54688,-2.88477 z m -21.08984,4.27735 c -0.10576,0.20852 -0.20222,0.4223 -0.28906,0.64062 -0.0943,-0.0393 -0.18937,-0.0764 -0.28516,-0.11132 0.20018,-0.1652 0.39187,-0.34189 0.57422,-0.5293 z m -9.0039,0.64453 c 0.56506,0.44437 1.18921,0.79529 1.85156,1.04101 -0.77046,0.6396 -1.40776,1.44455 -1.8711,2.36329 -0.0266,-0.0106 -0.0533,-0.021 -0.0801,-0.0312 0.15644,-0.62301 0.23719,-1.26505 0.24026,-1.91021 -0.002,-0.49139 -0.0491,-0.98137 -0.14062,-1.46289 z m 46.07421,2.75977 c 0.27601,0.0715 0.55582,0.12503 0.83789,0.16015 -0.0385,0.1544 -0.0724,0.31008 -0.10156,0.4668 -0.23205,-0.22643 -0.47805,-0.43589 -0.73633,-0.62695 z m -56.00586,5.43164 c 0.2635,0.13857 0.53486,0.25925 0.8125,0.36132 -0.0432,0.16717 -0.081,0.33589 -0.11328,0.50586 -0.31139,-0.20471 -0.63725,-0.38299 -0.97461,-0.5332 0.0949,-0.10838 0.1867,-0.21976 0.27539,-0.33398 z m 58.91211,2.35546 c 0.29137,0.28155 0.60433,0.53635 0.93555,0.76172 -0.60023,0.33357 -1.15219,0.75856 -1.63867,1.26172 0.32423,-0.63461 0.56106,-1.31616 0.70312,-2.02344 z m -37.7539,1.55664 c 0.0463,0.32262 0.11218,0.64166 0.19726,0.95508 -0.16924,-0.20974 -0.3492,-0.40926 -0.53906,-0.59765 0.11769,-0.11494 0.23169,-0.23416 0.3418,-0.35743 z m -92.572268,0.0879 c -0.0061,0.0904 -0.01065,0.18091 -0.01367,0.27148 0.0012,0.23024 0.01226,0.4603 0.0332,0.68945 -0.135928,-0.0317 -0.272707,-0.059 -0.410156,-0.082 0.147835,-0.28359 0.278318,-0.57718 0.390625,-0.8789 z m 105.896488,1.77343 c 0.25348,0.77356 0.62362,1.49735 1.0957,2.14258 -0.54124,0.96265 -0.87365,2.04331 -0.97266,3.16211 -0.35712,0.11333 -0.70523,0.25701 -1.04101,0.42969 -0.0368,-1.1144 -0.30499,-2.20599 -0.78516,-3.19531 0.7279,-0.70876 1.30822,-1.57391 1.70313,-2.53907 z m 22.45507,0.39063 -0.006,0.008 -0.002,-0.002 z m -114.728511,0.46094 c 0.448863,0.0965 0.905477,0.14553 1.363281,0.14648 0.190397,-0.001 0.380659,-0.0112 0.570312,-0.0293 -0.04547,0.34096 -0.06896,0.68488 -0.07031,1.0293 -1.13e-4,0.50647 0.04766,1.01165 0.142578,1.50781 -0.0475,-0.003 -0.09503,-0.006 -0.142578,-0.008 -1.538498,0.002 -3.033525,0.54703 -4.253906,1.55078 -0.09737,-0.12127 -0.198331,-0.23916 -0.302735,-0.35351 1.267033,-0.92998 2.21344,-2.28062 2.69336,-3.84375 z m 140.859371,5.62695 0.004,0 0,0.0195 c 0.002,0.24272 0.0151,0.48519 0.0391,0.72656 -0.13698,-0.2527 -0.28763,-0.49661 -0.45117,-0.73047 0.13618,-9.4e-4 0.2723,-0.006 0.4082,-0.0156 z M 232,240.00195 c 0.14093,0.0583 0.28358,0.11173 0.42773,0.16016 0.10468,0.11568 0.21281,0.22772 0.32422,0.33594 -0.33944,0.3364 -0.64693,0.708 -0.91797,1.10937 0.10912,-0.52719 0.16479,-1.06547 0.16602,-1.60547 z m -76.54102,3.27149 c 0.70307,1.29017 1.74975,2.32597 3.00586,2.97461 -0.99943,0.5173 -1.86972,1.28182 -2.53906,2.23047 -0.51378,-0.31245 -1.06241,-0.55395 -1.63281,-0.71875 0.46182,-1.01566 0.70352,-2.12999 0.70703,-3.25977 -9e-4,-0.27476 -0.0159,-0.54927 -0.0449,-0.82227 0.17354,-0.1266 0.34168,-0.2615 0.5039,-0.40429 z m 46.54688,0.36523 c 0.89575,0.6716 1.92586,1.10907 3.00781,1.27735 0.0784,1.47991 0.56437,2.90174 1.39649,4.08593 -0.15493,0.22052 -0.29838,0.45004 -0.42969,0.6875 -1.16979,0.27874 -2.2532,0.87459 -3.14649,1.73047 -0.25898,-1.27773 -0.82522,-2.46072 -1.64257,-3.43164 0.52943,-1.07535 0.80693,-2.27249 0.80859,-3.48828 -0.003,-0.27358 -0.0199,-0.54677 -0.0508,-0.81836 0.0189,-0.0142 0.0378,-0.0286 0.0566,-0.043 z m 16.95508,0.13477 c 0.70828,1.30135 1.76592,2.34402 3.03515,2.99218 -0.47339,0.51863 -0.87404,1.1081 -1.18945,1.75 -0.10209,-0.008 -0.20433,-0.0128 -0.30664,-0.0156 -0.96956,0.003 -1.92796,0.22186 -2.81445,0.64258 -0.0314,-0.0486 -0.0633,-0.0968 -0.0957,-0.14453 0.91201,-1.29633 1.40683,-2.8747 1.41015,-4.49805 -0.002,-0.24272 -0.0151,-0.48519 -0.0391,-0.72656 z m 11.70703,0.61328 c -0.076,0.37562 -0.12501,0.75695 -0.14649,1.14062 -0.16864,-0.10534 -0.34131,-0.20308 -0.51757,-0.29296 0.24053,-0.26465 0.46249,-0.54797 0.66406,-0.84766 z m -145.169923,2.88281 c 0.482468,1.29441 1.292044,2.41916 2.337891,3.24805 -0.111832,-0.009 -0.223843,-0.0146 -0.335938,-0.0176 -0.297279,0.003 -0.594104,0.0254 -0.888672,0.0684 -0.306776,-0.95894 -0.791804,-1.84129 -1.425781,-2.59375 0.115518,-0.22906 0.219826,-0.4644 0.3125,-0.70508 z m -11.744141,2.17969 c 0.01812,0.0209 0.03635,0.0418 0.05469,0.0625 -0.02949,0.0634 -0.05814,0.12717 -0.08594,0.1914 -0.0326,-0.0519 -0.06581,-0.10331 -0.09961,-0.15429 0.04397,-0.0327 0.0876,-0.0659 0.13086,-0.0996 z m 110.582034,5.48437 c 0.21794,0.0953 0.44022,0.17872 0.66601,0.25 -0.19877,0.0461 -0.39557,0.10153 -0.58984,0.16602 -0.0217,-0.13941 -0.0472,-0.27814 -0.0762,-0.41602 z m 4.94336,0.14844 c 0.0599,0.21809 0.12894,0.43316 0.20703,0.64453 -0.31928,-0.16328 -0.64965,-0.30039 -0.98828,-0.41015 0.26443,-0.0619 0.52528,-0.14014 0.78125,-0.23438 z m 42.18359,2.68945 c 0.18453,0.34341 0.39417,0.6706 0.62695,0.97852 -0.24435,0.32307 -0.4632,0.66736 -0.65429,1.0293 -0.33251,-0.43662 -0.70989,-0.83169 -1.125,-1.17774 0.40884,-0.23509 0.79485,-0.51315 1.15234,-0.83008 z m -30.79687,0.80664 c 0.004,0.0208 0.009,0.0417 0.0137,0.0625 -0.0352,0.008 -0.0704,0.0166 -0.10547,0.0254 0.0308,-0.029 0.0614,-0.0583 0.0918,-0.0879 z m -7.64454,1.19922 c 0.9311,0.47282 1.94814,0.71958 2.97852,0.72266 0.47931,-0.003 0.95708,-0.0585 1.42578,-0.16602 -0.79167,0.7316 -1.42034,1.64391 -1.83984,2.66993 -0.0286,-0.001 -0.0573,-0.003 -0.0859,-0.004 -0.69379,7.4e-4 -1.38362,0.11198 -2.04688,0.33008 0.0299,-0.27555 0.0456,-0.55267 0.0469,-0.83008 -3.1e-4,-0.93152 -0.16259,-1.85482 -0.47852,-2.72266 z m -91.09179,1.44532 c 0.1509,0.2802 0.31857,0.54964 0.50195,0.80664 -0.53517,0.0482 -1.06339,0.16223 -1.57422,0.33984 0.39508,-0.33948 0.75461,-0.72389 1.07227,-1.14648 z m -33.363284,0.24804 c 0.228989,0.39093 0.491169,0.75837 0.783203,1.09766 -0.217742,0.0946 -0.430902,0.20082 -0.638671,0.31836 -0.132959,-0.48277 -0.31094,-0.94996 -0.53125,-1.39453 0.129066,-0.003 0.258022,-0.0105 0.386718,-0.0215 z m 111.021484,2.17969 c 0.0409,0.29043 0.0976,0.57803 0.16992,0.86133 -0.24711,-0.24936 -0.51083,-0.47914 -0.78906,-0.6875 0.20875,-0.0478 0.41534,-0.1058 0.61914,-0.17383 z m 2.1543,4.33789 c 1.29231,1.2896 2.99181,2.00819 4.75781,2.01172 0.69612,-0.003 1.38797,-0.11653 2.05273,-0.33789 -0.0322,0.27802 -0.0498,0.55776 -0.0527,0.83789 0.003,0.0801 0.007,0.16023 0.0117,0.24023 -0.9399,-0.48402 -1.96887,-0.73693 -3.0117,-0.74023 -1.26106,0.003 -2.498,0.3706 -3.58008,1.06445 0.0503,-0.35233 0.077,-0.70805 0.0801,-1.06445 -4.2e-4,-0.67999 -0.0872,-1.35677 -0.25781,-2.01172 z m -71.76953,2.09766 c 0.30614,0.42823 0.65451,0.81981 1.03906,1.16797 -0.005,0.082 -0.009,0.164 -0.0117,0.24609 5.9e-4,1.9597 0.71706,3.84131 1.99609,5.24219 -0.0693,0.19185 -0.13119,0.38668 -0.18554,0.58398 -0.19312,0.10708 -0.38148,0.22374 -0.56446,0.34961 -0.91124,-0.62297 -1.94475,-1.01137 -3.01953,-1.13476 0.17841,-0.66361 0.27043,-1.35044 0.27344,-2.04102 -0.003,-0.58978 -0.0701,-1.17717 -0.20117,-1.75 0.3765,-0.83571 0.60498,-1.73902 0.67383,-2.66406 z m 120.53711,0.13867 c 0.0587,2.14136 0.9692,4.15364 2.50195,5.5293 -0.91488,0.82062 -1.6188,1.87818 -2.04492,3.07226 -0.13579,-1.59319 -0.74351,-3.09811 -1.73438,-4.29492 0.1756,-0.66076 0.26564,-1.34423 0.26758,-2.03125 -0.002,-0.48139 -0.047,-0.96147 -0.13477,-1.43359 0.4066,-0.23927 0.79,-0.52126 1.14454,-0.8418 z m -51.92969,6.21094 c -0.0503,0.35233 -0.077,0.70805 -0.0801,1.06445 5.4e-4,0.41495 0.0332,0.82913 0.0977,1.23828 -0.019,0.0266 -0.0379,0.0533 -0.0566,0.0801 -0.55816,-0.62489 -1.21299,-1.14162 -1.93555,-1.52734 0.69508,-0.17557 1.36099,-0.46406 1.97461,-0.85547 z m 13.91211,0.82812 c 0.93901,0.48207 1.96657,0.73362 3.00781,0.73633 0.5409,-0.003 1.07965,-0.0731 1.60547,-0.20898 0.0699,0.41139 0.17185,0.81579 0.30469,1.20898 -0.0436,0.12641 -0.0839,0.25406 -0.1211,0.38281 C 196.2768,278.80419 195.14731,278.50103 194,278.5 c -0.53886,0.003 -1.07562,0.0723 -1.59961,0.20703 0.0635,-0.39881 0.0969,-0.80247 0.0996,-1.20703 -0.002,-0.0788 -0.004,-0.1576 -0.008,-0.23633 z m 20.93359,1.70313 c 0.81907,0.34986 1.69246,0.53077 2.57422,0.5332 0.33613,-0.003 0.67163,-0.0315 1.00391,-0.0859 -10e-4,0.0286 -0.003,0.0573 -0.004,0.0859 0.002,0.35635 0.0285,0.71207 0.0781,1.06445 -1.08148,-0.69347 -2.31765,-1.06123 -3.57801,-1.06445 -0.10684,10e-4 -0.21364,0.005 -0.32031,0.0117 0.0888,-0.17802 0.17094,-0.35981 0.24609,-0.54492 z m -91.43945,9.84961 c 0.49682,0.12001 1.00438,0.18157 1.51367,0.18359 0.2717,-0.003 0.54299,-0.0235 0.8125,-0.0605 -0.0249,0.0233 -0.0496,0.0467 -0.0742,0.0703 -0.79263,0.0309 -1.5746,0.20592 -2.3125,0.51757 0.0307,-0.23581 0.0509,-0.47306 0.0605,-0.71093 z m 65.9375,0.88476 c 0.48809,0.92215 1.1531,1.72296 1.95117,2.34961 -0.41055,0.5963 -0.73635,1.25449 -0.9668,1.95313 -0.57131,-1.39991 -1.52804,-2.57948 -2.74218,-3.38086 0.62334,-0.21758 1.21506,-0.52791 1.75781,-0.92188 z m 42.58203,0.52735 c -0.003,0.0904 -0.005,0.18096 -0.006,0.27148 0.003,1.33499 0.33767,2.64505 0.9707,3.79492 -0.0336,0.04 -0.0668,0.0804 -0.0996,0.1211 -0.52852,-1.25949 -1.37133,-2.33818 -2.43554,-3.11719 0.56557,-0.28029 1.09367,-0.64024 1.5703,-1.07031 z m -112.07617,9.99023 c 0.84544,1.58267 2.20009,2.7811 3.81054,3.37109 l -0.01,0.0391 c -1.04444,0.20821 -2.03095,0.6684 -2.88477,1.3457 -0.27187,-1.40838 -0.91594,-2.70331 -1.85547,-3.73047 0.34306,-0.30879 0.65766,-0.65217 0.93946,-1.02539 z m 111.70508,2.36523 c 0.0939,0.22676 0.19815,0.44839 0.3125,0.66407 -0.2626,0.48873 -0.47292,1.00763 -0.62696,1.54687 -0.19423,-0.43856 -0.42775,-0.85588 -0.69726,-1.24609 0.36556,-0.28582 0.70438,-0.60895 1.01172,-0.96485 z M 175,303.5 c -3.86599,0 -7,3.35786 -7,7.5 0.002,3.24433 1.9512,6.1193 4.83008,7.125 -2.06624,1.36299 -3.32632,3.77524 -3.33008,6.375 -1.3e-4,0.42745 0.0339,0.85414 0.10156,1.27539 -0.0651,0.40454 -0.099,0.81412 -0.10156,1.22461 0.002,0.60253 0.0726,1.20256 0.20898,1.78711 -0.78771,1.24287 -1.2089,2.71055 -1.20898,4.21289 0.003,2.36341 1.04636,4.58684 2.81445,6 1.21071,2.45845 3.59118,3.99782 6.18555,4 2.63235,-0.003 5.04033,-1.58893 6.23242,-4.10352 0.75293,3.07934 3.23812,5.31398 6.19922,5.57422 0.81748,0.34775 1.68881,0.52732 2.56836,0.5293 2.25183,-0.003 4.36475,-1.16684 5.67773,-3.12695 2.0627,-1.36465 3.31955,-3.77564 3.32227,-6.37305 -0.003,-1.0635 -0.2177,-2.11408 -0.62891,-3.08203 0.0849,-0.4672 0.12803,-0.942 0.12891,-1.41797 -0.003,-0.75959 -0.11359,-1.51429 -0.32812,-2.23828 0.21673,-0.73148 0.32739,-1.49427 0.32812,-2.26172 -0.002,-1.55415 -0.45441,-3.06929 -1.29492,-4.33594 2.32932,-1.28535 3.79367,-3.85682 3.79492,-6.66406 0,-4.14214 -3.13401,-7.5 -7,-7.5 -2.11899,0.003 -4.12265,1.0343 -5.44922,2.80469 C 189.7832,309.64102 188.16924,309.00097 186.5,309 c -1.65054,0.003 -3.24713,0.63004 -4.50781,1.77148 C 181.87698,306.7221 178.78118,303.50264 175,303.5 Z m 41.99219,7.25391 c 0.30924,0.83207 0.75508,1.59807 1.3164,2.26171 -0.10274,-0.008 -0.20563,-0.0129 -0.30859,-0.0156 -0.43396,0.002 -0.86681,0.047 -1.29297,0.13477 C 216.90021,312.44203 216.99889,311.723 217,311 c -0.001,-0.0821 -0.004,-0.16411 -0.008,-0.24609 z m -87.08594,3.24414 c 1.32028,1.88739 3.39233,2.99938 5.59375,3.00195 1.19925,-0.004 2.37754,-0.33711 3.42188,-0.96875 0.59154,1.76782 1.78056,3.23354 3.33203,4.10742 -0.34801,-0.0715 -0.70059,-0.1146 -1.05469,-0.1289 C 139.9889,319.03279 138.51537,318.503 137,318.5 c -2.27459,0.002 -4.40654,1.18759 -5.7168,3.17969 -0.48037,-2.04314 -1.74069,-3.77555 -3.47265,-4.77344 0.91281,-0.76824 1.63298,-1.76763 2.0957,-2.9082 z m 97.74609,0.0293 c -0.0628,0.3215 -0.1059,0.64707 -0.1289,0.97461 L 227.5,315 c -1.33964,0.004 -2.64996,0.42065 -3.77539,1.19922 -0.16399,-0.24969 -0.34205,-0.48841 -0.5332,-0.71484 0.10274,0.008 0.20563,0.0128 0.30859,0.0156 1.4954,-0.003 2.95057,-0.51917 4.15234,-1.47266 z m -48.14453,2.70118 c 0.008,0.3555 0.0404,0.7099 0.0957,1.06054 -0.30095,-0.16051 -0.6123,-0.29758 -0.93164,-0.41015 0.29321,-0.19444 0.57262,-0.41183 0.83593,-0.65039 z" inkscape:connector-curvature="0" />
</g>
<g inkscape:groupmode="layer" id="routes_layer" inkscape:label="Routes" style="display:inline" sodipodi:insensitive="true" >
  <path style="display:inline;fill:none;stroke:#000000;stroke-width:2;stroke-linecap:round;stroke-miterlimit:4;stroke-dasharray:0.1, 5;stroke-dashoffset:0;stroke-opacity:1" d="m 163.125,0 0,11.25 c 0,30.019771 35.61698,57.462204 -0.78185,79.568019 M 247.5,219.375 l -16.875,0 c -8.79226,0 -18.98805,-6.80025 -25.52756,-16.68924 -14.29259,-21.61314 -36.34637,-16.97416 -55.64223,-8.17103 -24.76374,11.29767 -56.06288,-13.55365 -67.705209,-29.38973 -17.891886,-24.33683 -32.23145,-46.22104 -64.875,-47 -5.623399,-0.13419 -16.87500039999998,0 -16.87500039999998,0 M 104.85158,186.50304 c -23.567152,40.22884 23.65127,65.40215 44.89831,86.78376 12.18478,12.26195 13.37511,32.84251 13.37511,52.9632 l 0,11.25" inkscape:connector-curvature="0" />
</g>
<g inkscape:groupmode="layer" id="labels_layer" inkscape:label="Labels" style="display:inline" sodipodi:insensitive="true" >
  <text xml:space="preserve"><textPath xlink:href="#crybey_bay"><tspan
  style="-inkscape-font-specification:'CCTreasureTroveAged Mod, Normal';font-family:'CCTreasureTroveAged Mod';font-weight:normal;font-style:normal;font-stretch:normal;font-variant:normal;font-size:8.75px;text-anchor:start;text-align:start;writing-mode:lr;line-height:125%"
  >Crybey Bay</tspan></textPath></text>
</g>
<g inkscape:groupmode="layer" id="labels_guide_layer" inkscape:label="Labels Guide" style="display:none" sodipodi:insensitive="true" >
  <path id="crybey_bay" style="color:#000000;fill:none;stroke:#000000;stroke-width:1;stroke-opacity:1" d="m 178.02863,139.58781 c -22,-14.75 -49.125,-14.125 -69.625,-2.625" inkscape:connector-curvature="0" />
</g>
<g inkscape:groupmode="layer" id="resources_layer" inkscape:label="Resources" style="display:inline" sodipodi:insensitive="true" >
  <g id="resource-fish" transform="matrix(-0.77041465,0.63754315,-0.63754315,-0.77041465,85.08032,12.00787)" >
    <path style="color:#000000;clip-rule:nonzero;display:inline;overflow:visible;visibility:visible;opacity:1;isolation:auto;mix-blend-mode:normal;color-interpolation:sRGB;color-interpolation-filters:linearRGB;solid-color:#000000;solid-opacity:1;fill:url(#gradientFish);fill-opacity:1;fill-rule:evenodd;stroke:none;stroke-width:0.89999998;stroke-linecap:round;stroke-linejoin:miter;stroke-miterlimit:4;stroke-dasharray:none;stroke-dashoffset:0;stroke-opacity:1;color-rendering:auto;image-rendering:auto;shape-rendering:auto;text-rendering:auto;enable-background:accumulate" d="m 6.75164,-116.27687 c 2.99065,0.60485 4.49367,1.24794 5.89266,2.66121 2.45016,2.47513 3.25045,6.5505 3.25045,6.5505 l -3.54035,0.49898 2.97008,0.83162 c -1.40188,1.23555 -2.8637,2.14124 -4.39572,2.68497 -2.28163,0.80975 -5.89735,1.19916 -8.27072,0.72096 -2.52003,-0.50774 -4.93787,-1.71891 -6.65678,-2.93199 -1.70292,-1.2018 -2.32599,-2.77049 -4.34245,-2.71421 -2.02435,0.0566 -3.06024,1.36024 -6.2744,2.54392 0.98841,-2.25668 1.48644,-4.44986 1.47742,-4.77248 -0.0131,-0.47021 -0.60937,-2.94625 -1.71029,-5.74037 4.56815,1.9526 4.13574,3.93892 6.7876,4.01568 1.65013,0.0477 2.8784,-2.27892 4.84548,-3.01143 0,0 0.0925,-0.76339 -0.85797,-2.09399 2.125,-1.125 5.3749,-2.84347 9.18238,-2.11673 0.63846,0.67205 1.20575,1.59646 1.64258,2.87336 z" inkscape:connector-curvature="0" />
    <path style="color:#000000;font-style:normal;font-variant:normal;font-weight:normal;font-stretch:normal;font-size:medium;line-height:normal;font-family:sans-serif;text-indent:0;text-align:start;text-decoration:none;text-decoration-line:none;text-decoration-style:solid;text-decoration-color:#000000;letter-spacing:normal;word-spacing:normal;text-transform:none;direction:ltr;block-progression:tb;writing-mode:lr-tb;baseline-shift:baseline;text-anchor:start;white-space:normal;clip-rule:nonzero;display:inline;overflow:visible;visibility:visible;opacity:1;isolation:auto;mix-blend-mode:normal;color-interpolation:sRGB;color-interpolation-filters:linearRGB;solid-color:#000000;solid-opacity:1;fill:#000000;fill-opacity:1;fill-rule:evenodd;stroke:none;stroke-width:0.89999998;stroke-linecap:round;stroke-linejoin:miter;stroke-miterlimit:4;stroke-dasharray:none;stroke-dashoffset:0;stroke-opacity:1;color-rendering:auto;image-rendering:auto;shape-rendering:auto;text-rendering:auto;enable-background:accumulate" d="m 3.75195,-119.76758 c -0.55834,-0.0162 -1.08956,0.007 -1.41992,0.0332 -3.44102,0.26924 -4.79186,1.37793 -7.48633,2.26368 0.80029,0.66264 1.38172,1.65445 1.58985,2.40625 -0.74252,0.46927 -1.56885,1.06749 -2.34375,1.66992 -0.78694,0.61179 -1.52805,1.08797 -2.13868,1.07031 -1.213,-0.0351 -1.55439,-0.52183 -2.3789,-1.23633 -1.98577,-1.72081 -3.07464,-2.29632 -5.23438,-3.2207 0.86297,2.18173 2.04317,4.50407 2.07227,6.58984 0.0263,1.88626 -1.13742,3.87948 -1.86328,5.54883 1.62081,-0.53562 3.22001,-1.34059 4.6289,-2.08398 0.89906,-0.47438 1.57632,-0.77317 2.49415,-0.79883 0.89038,-0.0249 1.40182,0.27656 1.98242,0.77734 0.25085,0.21637 0.51534,0.48279 0.79687,0.75586 -0.25647,0.40556 -0.79615,0.53695 -1.76562,1.10352 1.95514,0.58994 2.59141,1.85091 4.15625,2.49414 0.55665,-0.25793 1.08128,-0.52946 1.29882,-1.08594 1.28379,0.64871 2.70563,1.21308 4.19922,1.53906 0.0372,0.49232 -0.0779,0.96218 -0.52343,1.75 1.8525,-0.13727 3.11482,-0.49129 3.85351,-1.48437 1.90282,-0.0616 3.90491,-0.41501 5.41016,-0.94922 1.59542,-0.56623 3.08878,-1.52586 4.54297,-2.77148 0.22554,-0.1932 0.55832,-0.5479 0.15234,-0.66602 l -1.22851,-0.35742 1.51367,-0.22656 c 0.18187,-0.0272 0.35546,-0.2168 0.27734,-0.50586 -0.0502,-0.18564 -0.78361,-4.16347 -3.37305,-6.7793 -1.42433,-1.43886 -3.05654,-2.12894 -5.92382,-2.72852 -0.4724,-1.08092 -0.97717,-2.12518 -1.70508,-2.90429 -0.44021,-0.13092 -1.02565,-0.18691 -1.58399,-0.20313 z m -0.1289,0.86719 c 0.40991,0.0169 0.81105,0.0568 1.19922,0.10547 0.77961,0.94104 1.28338,2.04784 1.60937,2.96875 2.1946,0.39918 4.6041,1.23544 5.89453,2.52734 2.08816,2.09053 2.83239,5.19206 2.98633,5.86133 l -3.01953,0.42578 c -0.44473,0.0627 -0.45389,0.76792 -0.0586,0.87891 l 1.98242,0.55664 c -1.12071,0.87174 -2.24918,1.67981 -3.4375,2.10156 -0.33815,0.12001 -0.71912,0.22666 -1.11524,0.32617 -2.33138,-1.12461 -3.38072,-3.76269 -3.66601,-5.20312 -0.15295,-0.77226 -0.48459,-1.00055 -0.26758,0.46094 0.277,1.86552 1.35587,3.78888 2.74609,4.99218 -1.94553,0.34633 -4.16617,0.4437 -5.72851,0.12891 -2.43884,-0.49138 -4.81456,-1.67957 -6.48633,-2.85938 -0.79723,-0.56263 -1.35875,-1.23084 -2.01953,-1.80078 -0.66079,-0.56995 -1.57913,-0.96766 -2.54883,-0.93164 -0.96571,0.0359 -2.00556,0.34944 -2.93359,0.83789 -0.68049,0.35816 -1.62451,0.79789 -2.58789,1.22461 0.58514,-1.36212 1.15509,-2.85368 1.14062,-3.91797 -0.0229,-1.68436 -0.84568,-3.32406 -1.36523,-4.77929 1.43808,0.75542 2.36518,1.48293 3.00781,2.08984 0.79559,0.75138 1.70527,1.34121 2.9414,1.36523 0.8676,0.0169 1.85414,-0.60951 2.64454,-1.26171 1.07222,-0.88474 2.37395,-1.75346 3.82031,-2.3125 0.84286,-0.32579 2.17657,-0.81342 1.5664,-0.90821 -0.63083,-0.098 -1.90673,0.29013 -2.74804,0.65625 -0.21144,-0.67843 -0.52851,-1.28134 -0.85547,-1.77148 1.86816,-0.59893 2.90957,-1.50638 6.04687,-1.72852 0.42336,-0.0441 0.84204,-0.0501 1.25196,-0.0332 z" inkscape:connector-curvature="0" />
    <path style="color:#000000;clip-rule:nonzero;display:inline;overflow:visible;visibility:visible;opacity:1;isolation:auto;mix-blend-mode:normal;color-interpolation:sRGB;color-interpolation-filters:linearRGB;solid-color:#000000;solid-opacity:1;fill:#000000;fill-opacity:1;fill-rule:evenodd;stroke:none;stroke-width:0.89999998;stroke-linecap:round;stroke-linejoin:miter;stroke-miterlimit:4;stroke-dasharray:none;stroke-dashoffset:0;stroke-opacity:1;color-rendering:auto;image-rendering:auto;shape-rendering:auto;text-rendering:auto;enable-background:accumulate" d="m 4.14858,-108.59983 c -0.47489,-0.30307 -1.53655,-0.90869 -2.26472,-0.88862 -0.0804,0.002 -0.2543,0.14712 -0.15844,0.31108 0.47438,0.81135 0.88194,1.78963 0.81744,2.88053 -0.01,0.15682 0.0463,0.31282 0.28149,0.29908 0.85805,-0.0503 1.22499,-0.14313 1.82534,-0.42991 0.33162,-0.1584 0.28985,0.0295 -0.17284,0.32399 -0.42638,0.27143 -1.15747,0.57467 -1.60626,0.62419 -0.57111,0.063 -0.86938,-0.30115 -0.85559,-0.49509 0.0664,-0.93438 -0.40775,-2.23989 -0.84996,-3.00389 -0.64912,-1.12144 0.5114,-1.14367 1.04743,-1.03991 0.57353,0.11103 1.54086,0.51965 2.36735,1.37318 0.31578,0.3261 0.0887,0.37724 -0.43124,0.0454 z" inkscape:connector-curvature="0" />
    <ellipse cx="35.346939" cy="-105.813170" rx="0.855386" ry="1.092993" style="opacity:1;fill:#000000;fill-opacity:1;fill-rule:nonzero;stroke:none;stroke-width:0.89999998;stroke-linecap:butt;stroke-linejoin:round;stroke-miterlimit:4;stroke-dasharray:none;stroke-dashoffset:0;stroke-opacity:1" transform="matrix(0.97605309,-0.21753245,0.21753245,0.97605309,0,0)" />
  </g>
</g>
<g inkscape:groupmode="layer" id="extras_layer" inkscape:label="Extras" style="display:inline" sodipodi:insensitive="true" >
  <g id="extra-ship" transform="matrix(0.4444171,-0.89581998,0.89581998,0.4444171,266.30938,417.60566)" >
    <path style="color:#000000;fill:url(#gradientShip);fill-opacity:1;fill-rule:evenodd;stroke:#000000;stroke-width:0.75;stroke-linecap:butt;stroke-linejoin:round;stroke-miterlimit:4;stroke-dasharray:none;stroke-dashoffset:0;stroke-opacity:1;marker:none;enable-background:accumulate" d="m 243.2364,-52.722824 c -3.10208,-2.937202 -8.72518,-3.346714 -12.49116,-3.032742 -2.95307,0.246202 -6.62512,1.070872 -6.62512,1.070872 l -0.0121,3.725952 c 0,0 2.43298,0.582421 6.39007,0.932887 3.66202,0.324334 9.61676,-0.283241 12.73834,-2.696969 z" inkscape:connector-curvature="0" />
    <path style="color:#000000;opacity:1;isolation:auto;mix-blend-mode:normal;color-interpolation:sRGB;color-interpolation-filters:linearRGB;solid-color:#000000;solid-opacity:1;fill:#000000;fill-opacity:1;fill-rule:evenodd;stroke:none;stroke-width:0.75;stroke-linecap:round;stroke-linejoin:round;stroke-miterlimit:4;stroke-dasharray:none;stroke-dashoffset:0;stroke-opacity:1;marker:none;color-rendering:auto;image-rendering:auto;shape-rendering:auto;text-rendering:auto;enable-background:accumulate" d="m 243.05273,-53.089844 c -0.50461,-0.01007 -0.51271,0.749303 -0.008,0.75 l 2.80546,-0.143551 c 0.50461,0.01007 0.51856,-0.385922 0.0138,-0.386619 z" inkscape:connector-curvature="0" />
    <circle cx="37.651787" cy="-233.087830" r="0.695206" style="color:#000000;opacity:1;isolation:auto;mix-blend-mode:normal;color-interpolation:sRGB;color-interpolation-filters:linearRGB;solid-color:#000000;solid-opacity:1;fill:#a66e00;fill-opacity:1;fill-rule:nonzero;stroke:#000000;stroke-width:0.5;stroke-linecap:butt;stroke-linejoin:miter;stroke-miterlimit:4;stroke-dasharray:none;stroke-dashoffset:0;stroke-opacity:1;color-rendering:auto;image-rendering:auto;shape-rendering:auto;text-rendering:auto;enable-background:accumulate" transform="matrix(0.37654483,0.9263984,-0.9263984,0.37654483,0,0)" />
    <circle cx="39.995537" cy="-238.712830" r="0.695206" style="color:#000000;opacity:1;isolation:auto;mix-blend-mode:normal;color-interpolation:sRGB;color-interpolation-filters:linearRGB;solid-color:#000000;solid-opacity:1;fill:#a66e00;fill-opacity:1;fill-rule:nonzero;stroke:#000000;stroke-width:0.5;stroke-linecap:butt;stroke-linejoin:miter;stroke-miterlimit:4;stroke-dasharray:none;stroke-dashoffset:0;stroke-opacity:1;color-rendering:auto;image-rendering:auto;shape-rendering:auto;text-rendering:auto;enable-background:accumulate" transform="matrix(0.37654483,0.9263984,-0.9263984,0.37654483,0,0)" />
    <path style="color:#000000;fill:#feffff;fill-opacity:1;fill-rule:evenodd;stroke:#000000;stroke-width:0.5;stroke-linecap:butt;stroke-linejoin:round;stroke-miterlimit:4;stroke-dasharray:none;stroke-dashoffset:0;stroke-opacity:1;marker:none;enable-background:accumulate" d="m 230.8139,-58.168744 -0.0696,11.095953 c 0,0 1.11273,-0.901569 1.17305,-2.014949 0.0592,-1.093696 -0.80015,-1.762231 -0.80015,-1.762231 0,0 1.00218,-0.841738 0.9922,-1.921676 -0.0106,-1.140901 -0.9468,-1.722391 -0.9468,-1.722391 0,0 0.80027,-0.5343 0.83406,-1.646805 0.0349,-1.150244 -1.18274,-2.027894 -1.18274,-2.027894 z" inkscape:connector-curvature="0" />
    <path style="color:#000000;fill:#feffff;fill-opacity:1;fill-rule:evenodd;stroke:#000000;stroke-width:0.5;stroke-linecap:butt;stroke-linejoin:round;stroke-miterlimit:4;stroke-dasharray:none;stroke-dashoffset:0;stroke-opacity:1;marker:none;enable-background:accumulate" d="m 236.95087,-57.97366 -0.0645,10.282469 c 0,0 1.03677,-0.785137 1.09267,-1.816887 0.0549,-1.013517 -0.74706,-1.683399 -0.74706,-1.683399 0,0 0.85887,-0.76153 0.84962,-1.762298 -0.01,-1.057255 -0.80754,-1.614603 -0.80754,-1.614603 0,0 0.84013,-0.540128 0.87144,-1.571079 0.0324,-1.065902 -1.19455,-1.834218 -1.19455,-1.834218 z" inkscape:connector-curvature="0" />
    <path style="fill:#000000;stroke:none" d="m 239.16963,-53.312319 -0.0111,0.999645 1.00145,0.01039 0.009,-1.000718 z" inkscape:connector-curvature="0" />
    <path style="fill:#6a4600;stroke:none" d="m 233.00825,-53.641515 -0.0131,1.52646 1.52369,0.01423 0.0142,-1.523703 z" inkscape:connector-curvature="0" />
    <path style="fill:none;stroke:#000000;stroke-width:0.6;stroke-linecap:butt" d="m 227.26126,-55.055042 -0.0734,4.514141" inkscape:connector-curvature="0" />
    <path style="fill:#000000;stroke:none" d="m 223.83649,-54.026834 -0.0111,0.999636 1.00072,0.0086 0.009,-0.998911 z" inkscape:connector-curvature="0" />
    <path style="fill:#000000;stroke:none" d="m 223.85032,-52.581947 -0.0111,0.999637 1.00072,0.0086 0.009,-0.998912 z" inkscape:connector-curvature="0" />
    <path style="fill:none;stroke:#000000;stroke-width:0.5;stroke-linecap:butt;stroke-linejoin:round;stroke-miterlimit:4" d="m 227.2539,-51.578825 1.14997,0.173504 -0.0116,1.05042" inkscape:connector-curvature="0" />
    <path style="fill:none;stroke:#000000;stroke-width:0.5;stroke-linecap:butt;stroke-linejoin:round;stroke-miterlimit:4" d="m 227.25705,-54.143799 1.1481,-0.163064 0.0224,-1.189753" inkscape:connector-curvature="0" />
  </g>
</g>
<g inkscape:groupmode="layer" id="suit_rank_glow_layer" inkscape:label="Suit Rank Glow" style="display:inline" sodipodi:insensitive="true" >
  <g style="opacity:0.75;filter:url(#blurSuitRankGlow)" >
    <path style="fill:#ffffff;fill-opacity:1;stroke:none" d="m 25.651888,21.229764 c -0.59548,0.0193 -1.29762,0.13183 -2.02125,0.35875 -2.41293,0.84879 -3.90505,3.64994 -3.9025,5.87125 -0.16472,6.86829 6.59266,13.21158 11.69,17.01 0.003,0.0146 0.006,0.0291 0.009,0.0438 0.008,-0.006 0.0181,-0.0114 0.0262,-0.0175 0.008,0.006 0.0181,0.0114 0.0262,0.0175 0.003,-0.0147 0.006,-0.0291 0.009,-0.0438 5.09734,-3.79842 11.85472,-10.14171 11.69,-17.01 0.003,-2.22131 -1.48957,-5.02246 -3.9025,-5.87125 -0.72363,-0.22692 -1.42577,-0.33949 -2.02125,-0.35875 -2.54992,-0.0825 -5.0297,1.40516 -5.80125,3.00125 -0.77155,-1.59609 -3.25133,-3.08374 -5.80125,-3.00125 z" inkscape:connector-curvature="0" />
    <path style="fill:#ffffff;fill-opacity:1;stroke:none" d="m 221.7648,316.27029 c 0.59548,-0.0193 1.29762,-0.13183 2.02125,-0.35875 2.41293,-0.84879 3.90505,-3.64994 3.9025,-5.87125 0.16472,-6.86829 -6.59266,-13.21158 -11.69,-17.01 -0.003,-0.0146 -0.006,-0.0291 -0.009,-0.0438 -0.008,0.006 -0.0181,0.0114 -0.0262,0.0175 -0.008,-0.006 -0.0181,-0.0114 -0.0262,-0.0175 -0.003,0.0147 -0.006,0.0291 -0.009,0.0438 -5.09734,3.79842 -11.85472,10.14171 -11.69,17.01 -0.003,2.22131 1.48957,5.02246 3.9025,5.87125 0.72363,0.22692 1.42577,0.33949 2.02125,0.35875 2.54992,0.0825 5.0297,-1.40516 5.80125,-3.00125 0.77155,1.59609 3.25133,3.08374 5.80125,3.00125 z" inkscape:connector-curvature="0" />
    <path style="fill:#ffffff;fill-opacity:1;stroke:none" d="m 22.253338,61.595025 c -10e-6,-1.5733 0.25333,-3.0266 0.76,-4.36 0.53333,-1.36 1.25332,-2.5333 2.15999,-3.52 0.66667,-0.8533 1.45333,-1.5333 2.36,-2.04 0.90666,-0.5333 2.08,-0.8 3.52,-0.8 1.27999,0 2.39999,0.24 3.36,0.72 0.95999,0.48 1.79999,1.1334 2.52,1.96 0.71999,0.8 1.30665,1.7467 1.76001,2.84 0.47998,1.0667 0.86664,2.2 1.16,3.4 0.29331,1.1734 0.49331,2.3734 0.6,3.6 0.13331,1.2267 0.19997,2.3867 0.19999,3.48 -2e-5,2.2134 -0.18668,4.2934 -0.55999,6.24 -0.37336,1.9467 -0.96002,3.64 -1.76,5.08 -0.77336,1.44 -1.76002,2.5867 -2.96,3.44 -1.20002,0.8267 -2.64002,1.24 -4.32001,1.24 -1.86667,0 -3.44,-0.5067 -4.71999,-1.52 -1.28001,-1.04 -2.30668,-2.44 -3.08,-4.2 l 2.76,-1.64 c 0.53332,1.28 1.21332,2.2933 2.03999,3.04 0.82666,0.7467 1.82666,1.12 3,1.12 0.98666,0 1.85333,-0.2667 2.6,-0.8 0.74666,-0.56 1.37332,-1.32 1.88,-2.28 0.53332,-0.96 0.94666,-2.0933 1.24,-3.4 0.31999,-1.3333 0.51999,-2.76 0.60001,-4.28 -0.82669,1.04 -1.78669,1.8667 -2.88,2.48 -1.09335,0.5867 -2.24002,0.88 -3.44001,0.88 -1.17334,0 -2.29334,-0.28 -3.35999,-0.84 -1.04001,-0.56 -1.97334,-1.32 -2.80001,-2.28 -0.8,-0.96 -1.44,-2.08 -1.91999,-3.36 -0.48001,-1.3066 -0.72001,-2.7066 -0.72,-4.2 m 3.2,0 c -10e-6,1.04 0.14666,2.0134 0.43999,2.92 0.32,0.9067 0.73333,1.7067 1.24001,2.4 0.53332,0.6667 1.13332,1.2 1.79999,1.6 0.69333,0.3734 1.39999,0.56 2.12,0.56 0.71999,0 1.41333,-0.1866 2.08001,-0.56 0.66665,-0.4 1.25331,-0.9333 1.75999,-1.6 0.53332,-0.6933 0.95999,-1.4933 1.28,-2.4 0.31999,-0.9066 0.47999,-1.88 0.48,-2.92 -1e-5,-0.7466 -0.12001,-1.56 -0.36,-2.44 -0.24001,-0.88 -0.60001,-1.6933 -1.07999,-2.44 -0.45335,-0.7466 -1.04002,-1.3733 -1.76,-1.88 -0.69335,-0.5066 -1.49335,-0.76 -2.40001,-0.76 -0.77334,0.053 -1.50667,0.2934 -2.19999,0.72 -0.66668,0.4267 -1.25335,0.9867 -1.76,1.68 -0.50668,0.6667 -0.90668,1.44 -1.20001,2.32 -0.29333,0.88 -0.44,1.8134 -0.43999,2.8" inkscape:connector-curvature="0" />
    <path style="fill:#ffffff;fill-opacity:1;stroke:none" d="m 225.16333,275.90503 c 1e-5,1.5733 -0.25333,3.0266 -0.76,4.36 -0.53333,1.36 -1.25332,2.5333 -2.15999,3.52 -0.66667,0.8533 -1.45333,1.5333 -2.36,2.04 -0.90666,0.5333 -2.08,0.8 -3.52,0.8 -1.27999,0 -2.39999,-0.24 -3.36,-0.72 -0.95999,-0.48 -1.79999,-1.1334 -2.52,-1.96 -0.71999,-0.8 -1.30665,-1.7467 -1.76001,-2.84 -0.47998,-1.0667 -0.86664,-2.2 -1.16,-3.4 -0.29331,-1.1734 -0.49331,-2.3734 -0.6,-3.6 -0.13331,-1.2267 -0.19997,-2.3867 -0.19999,-3.48 2e-5,-2.2134 0.18668,-4.2934 0.55999,-6.24 0.37336,-1.9467 0.96002,-3.64 1.76,-5.08 0.77336,-1.44 1.76002,-2.5867 2.96,-3.44 1.20002,-0.8267 2.64002,-1.24 4.32001,-1.24 1.86667,0 3.44,0.5067 4.71999,1.52 1.28001,1.04 2.30668,2.44 3.08,4.2 l -2.76,1.64 c -0.53332,-1.28 -1.21332,-2.2933 -2.03999,-3.04 -0.82666,-0.7467 -1.82666,-1.12 -3,-1.12 -0.98666,0 -1.85333,0.2667 -2.6,0.8 -0.74666,0.56 -1.37332,1.32 -1.88,2.28 -0.53332,0.96 -0.94666,2.0933 -1.24,3.4 -0.31999,1.3333 -0.51999,2.76 -0.60001,4.28 0.82669,-1.04 1.78669,-1.8667 2.88,-2.48 1.09335,-0.5867 2.24002,-0.88 3.44001,-0.88 1.17334,0 2.29334,0.28 3.35999,0.84 1.04001,0.56 1.97334,1.32 2.80001,2.28 0.8,0.96 1.44,2.08 1.91999,3.36 0.48001,1.3066 0.72001,2.7066 0.72,4.2 m -3.2,0 c 10e-6,-1.04 -0.14666,-2.0134 -0.43999,-2.92 -0.32,-0.9067 -0.73333,-1.7067 -1.24001,-2.4 -0.53332,-0.6667 -1.13332,-1.2 -1.79999,-1.6 -0.69333,-0.3734 -1.39999,-0.56 -2.12,-0.56 -0.71999,0 -1.41333,0.1866 -2.08001,0.56 -0.66665,0.4 -1.25331,0.9333 -1.75999,1.6 -0.53332,0.6933 -0.95999,1.4933 -1.28,2.4 -0.31999,0.9066 -0.47999,1.88 -0.48,2.92 1e-5,0.7466 0.12001,1.56 0.36,2.44 0.24001,0.88 0.60001,1.6933 1.07999,2.44 0.45335,0.7466 1.04002,1.3733 1.76,1.88 0.69335,0.5066 1.49335,0.76 2.40001,0.76 0.77334,-0.053 1.50667,-0.2934 2.19999,-0.72 0.66668,-0.4267 1.25335,-0.9867 1.76,-1.68 0.50668,-0.6667 0.90668,-1.44 1.20001,-2.32 0.29333,-0.88 0.44,-1.8134 0.43999,-2.8" inkscape:connector-curvature="0" />
  </g>
</g>
<g inkscape:groupmode="layer" id="suit_rank_layer" inkscape:label="Suit Rank" style="display:inline" sodipodi:insensitive="true" >
  <path style="fill:#de0000;fill-opacity:1;stroke:none" d="m 25.651888,21.229764 c -0.59548,0.0193 -1.29762,0.13183 -2.02125,0.35875 -2.41293,0.84879 -3.90505,3.64994 -3.9025,5.87125 -0.16472,6.86829 6.59266,13.21158 11.69,17.01 0.003,0.0146 0.006,0.0291 0.009,0.0438 0.008,-0.006 0.0181,-0.0114 0.0262,-0.0175 0.008,0.006 0.0181,0.0114 0.0262,0.0175 0.003,-0.0147 0.006,-0.0291 0.009,-0.0438 5.09734,-3.79842 11.85472,-10.14171 11.69,-17.01 0.003,-2.22131 -1.48957,-5.02246 -3.9025,-5.87125 -0.72363,-0.22692 -1.42577,-0.33949 -2.02125,-0.35875 -2.54992,-0.0825 -5.0297,1.40516 -5.80125,3.00125 -0.77155,-1.59609 -3.25133,-3.08374 -5.80125,-3.00125 z" inkscape:connector-curvature="0" />
  <path style="fill:#de0000;fill-opacity:1;stroke:none" d="m 221.7648,316.27029 c 0.59548,-0.0193 1.29762,-0.13183 2.02125,-0.35875 2.41293,-0.84879 3.90505,-3.64994 3.9025,-5.87125 0.16472,-6.86829 -6.59266,-13.21158 -11.69,-17.01 -0.003,-0.0146 -0.006,-0.0291 -0.009,-0.0438 -0.008,0.006 -0.0181,0.0114 -0.0262,0.0175 -0.008,-0.006 -0.0181,-0.0114 -0.0262,-0.0175 -0.003,0.0147 -0.006,0.0291 -0.009,0.0438 -5.09734,3.79842 -11.85472,10.14171 -11.69,17.01 -0.003,2.22131 1.48957,5.02246 3.9025,5.87125 0.72363,0.22692 1.42577,0.33949 2.02125,0.35875 2.54992,0.0825 5.0297,-1.40516 5.80125,-3.00125 0.77155,1.59609 3.25133,3.08374 5.80125,3.00125 z" inkscape:connector-curvature="0" />
  <path style="fill:#de0000;fill-opacity:1;stroke:none" d="m 22.253338,61.595025 c -10e-6,-1.5733 0.25333,-3.0266 0.76,-4.36 0.53333,-1.36 1.25332,-2.5333 2.15999,-3.52 0.66667,-0.8533 1.45333,-1.5333 2.36,-2.04 0.90666,-0.5333 2.08,-0.8 3.52,-0.8 1.27999,0 2.39999,0.24 3.36,0.72 0.95999,0.48 1.79999,1.1334 2.52,1.96 0.71999,0.8 1.30665,1.7467 1.76001,2.84 0.47998,1.0667 0.86664,2.2 1.16,3.4 0.29331,1.1734 0.49331,2.3734 0.6,3.6 0.13331,1.2267 0.19997,2.3867 0.19999,3.48 -2e-5,2.2134 -0.18668,4.2934 -0.55999,6.24 -0.37336,1.9467 -0.96002,3.64 -1.76,5.08 -0.77336,1.44 -1.76002,2.5867 -2.96,3.44 -1.20002,0.8267 -2.64002,1.24 -4.32001,1.24 -1.86667,0 -3.44,-0.5067 -4.71999,-1.52 -1.28001,-1.04 -2.30668,-2.44 -3.08,-4.2 l 2.76,-1.64 c 0.53332,1.28 1.21332,2.2933 2.03999,3.04 0.82666,0.7467 1.82666,1.12 3,1.12 0.98666,0 1.85333,-0.2667 2.6,-0.8 0.74666,-0.56 1.37332,-1.32 1.88,-2.28 0.53332,-0.96 0.94666,-2.0933 1.24,-3.4 0.31999,-1.3333 0.51999,-2.76 0.60001,-4.28 -0.82669,1.04 -1.78669,1.8667 -2.88,2.48 -1.09335,0.5867 -2.24002,0.88 -3.44001,0.88 -1.17334,0 -2.29334,-0.28 -3.35999,-0.84 -1.04001,-0.56 -1.97334,-1.32 -2.80001,-2.28 -0.8,-0.96 -1.44,-2.08 -1.91999,-3.36 -0.48001,-1.3066 -0.72001,-2.7066 -0.72,-4.2 m 3.2,0 c -10e-6,1.04 0.14666,2.0134 0.43999,2.92 0.32,0.9067 0.73333,1.7067 1.24001,2.4 0.53332,0.6667 1.13332,1.2 1.79999,1.6 0.69333,0.3734 1.39999,0.56 2.12,0.56 0.71999,0 1.41333,-0.1866 2.08001,-0.56 0.66665,-0.4 1.25331,-0.9333 1.75999,-1.6 0.53332,-0.6933 0.95999,-1.4933 1.28,-2.4 0.31999,-0.9066 0.47999,-1.88 0.48,-2.92 -1e-5,-0.7466 -0.12001,-1.56 -0.36,-2.44 -0.24001,-0.88 -0.60001,-1.6933 -1.07999,-2.44 -0.45335,-0.7466 -1.04002,-1.3733 -1.76,-1.88 -0.69335,-0.5066 -1.49335,-0.76 -2.40001,-0.76 -0.77334,0.053 -1.50667,0.2934 -2.19999,0.72 -0.66668,0.4267 -1.25335,0.9867 -1.76,1.68 -0.50668,0.6667 -0.90668,1.44 -1.20001,2.32 -0.29333,0.88 -0.44,1.8134 -0.43999,2.8" inkscape:connector-curvature="0" />
  <path style="fill:#de0000;fill-opacity:1;stroke:none" d="m 225.16333,275.90503 c 1e-5,1.5733 -0.25333,3.0266 -0.76,4.36 -0.53333,1.36 -1.25332,2.5333 -2.15999,3.52 -0.66667,0.8533 -1.45333,1.5333 -2.36,2.04 -0.90666,0.5333 -2.08,0.8 -3.52,0.8 -1.27999,0 -2.39999,-0.24 -3.36,-0.72 -0.95999,-0.48 -1.79999,-1.1334 -2.52,-1.96 -0.71999,-0.8 -1.30665,-1.7467 -1.76001,-2.84 -0.47998,-1.0667 -0.86664,-2.2 -1.16,-3.4 -0.29331,-1.1734 -0.49331,-2.3734 -0.6,-3.6 -0.13331,-1.2267 -0.19997,-2.3867 -0.19999,-3.48 2e-5,-2.2134 0.18668,-4.2934 0.55999,-6.24 0.37336,-1.9467 0.96002,-3.64 1.76,-5.08 0.77336,-1.44 1.76002,-2.5867 2.96,-3.44 1.20002,-0.8267 2.64002,-1.24 4.32001,-1.24 1.86667,0 3.44,0.5067 4.71999,1.52 1.28001,1.04 2.30668,2.44 3.08,4.2 l -2.76,1.64 c -0.53332,-1.28 -1.21332,-2.2933 -2.03999,-3.04 -0.82666,-0.7467 -1.82666,-1.12 -3,-1.12 -0.98666,0 -1.85333,0.2667 -2.6,0.8 -0.74666,0.56 -1.37332,1.32 -1.88,2.28 -0.53332,0.96 -0.94666,2.0933 -1.24,3.4 -0.31999,1.3333 -0.51999,2.76 -0.60001,4.28 0.82669,-1.04 1.78669,-1.8667 2.88,-2.48 1.09335,-0.5867 2.24002,-0.88 3.44001,-0.88 1.17334,0 2.29334,0.28 3.35999,0.84 1.04001,0.56 1.97334,1.32 2.80001,2.28 0.8,0.96 1.44,2.08 1.91999,3.36 0.48001,1.3066 0.72001,2.7066 0.72,4.2 m -3.2,0 c 10e-6,-1.04 -0.14666,-2.0134 -0.43999,-2.92 -0.32,-0.9067 -0.73333,-1.7067 -1.24001,-2.4 -0.53332,-0.6667 -1.13332,-1.2 -1.79999,-1.6 -0.69333,-0.3734 -1.39999,-0.56 -2.12,-0.56 -0.71999,0 -1.41333,0.1866 -2.08001,0.56 -0.66665,0.4 -1.25331,0.9333 -1.75999,1.6 -0.53332,0.6933 -0.95999,1.4933 -1.28,2.4 -0.31999,0.9066 -0.47999,1.88 -0.48,2.92 1e-5,0.7466 0.12001,1.56 0.36,2.44 0.24001,0.88 0.60001,1.6933 1.07999,2.44 0.45335,0.7466 1.04002,1.3733 1.76,1.88 0.69335,0.5066 1.49335,0.76 2.40001,0.76 0.77334,-0.053 1.50667,-0.2934 2.19999,-0.72 0.66668,-0.4267 1.25335,-0.9867 1.76,-1.68 0.50668,-0.6667 0.90668,-1.44 1.20001,-2.32 0.29333,-0.88 0.44,-1.8134 0.43999,-2.8" inkscape:connector-curvature="0" />
</g>
<g inkscape:groupmode="layer" id="guides_layer" inkscape:label="Guides" style="display:none" sodipodi:insensitive="true" >
  <path style="fill:none;stroke:#000000;stroke-width:0.9" d="m 11.250000,11.25 0,-45" inkscape:connector-curvature="0" />
  <path style="fill:none;stroke:#000000;stroke-width:0.9" d="m 11.250000,371.25 0,-45" inkscape:connector-curvature="0" />
  <path style="fill:none;stroke:#000000;stroke-width:0.9" d="m 84.375000,11.25 0,-45" inkscape:connector-curvature="0" />
  <path style="fill:none;stroke:#000000;stroke-width:0.9" d="m 84.375000,371.25 0,-45" inkscape:connector-curvature="0" />
  <path style="fill:none;stroke:#000000;stroke-width:0.9" d="m 123.750000,11.25 0,-45" inkscape:connector-curvature="0" />
  <path style="fill:none;stroke:#000000;stroke-width:0.9" d="m 123.750000,371.25 0,-45" inkscape:connector-curvature="0" />
  <path style="fill:none;stroke:#000000;stroke-width:0.9" d="m 163.125000,11.25 0,-45" inkscape:connector-curvature="0" />
  <path style="fill:none;stroke:#000000;stroke-width:0.9" d="m 163.125000,371.25 0,-45" inkscape:connector-curvature="0" />
  <path style="fill:none;stroke:#000000;stroke-width:0.9" d="m 236.250000,11.25 0,-45" inkscape:connector-curvature="0" />
  <path style="fill:none;stroke:#000000;stroke-width:0.9" d="m 236.250000,371.25 0,-45" inkscape:connector-curvature="0" />
  <path style="fill:none;stroke:#000000;stroke-width:0.9" d="m -33.75,11.250000 45,0" inkscape:connector-curvature="0" />
  <path style="fill:none;stroke:#000000;stroke-width:0.9" d="m 236.25,11.250000 45,0" inkscape:connector-curvature="0" />
  <path style="fill:none;stroke:#000000;stroke-width:0.9" d="m -33.75,118.125000 45,0" inkscape:connector-curvature="0" />
  <path style="fill:none;stroke:#000000;stroke-width:0.9" d="m 236.25,118.125000 45,0" inkscape:connector-curvature="0" />
  <path style="fill:none;stroke:#000000;stroke-width:0.9" d="m -33.75,168.750000 45,0" inkscape:connector-curvature="0" />
  <path style="fill:none;stroke:#000000;stroke-width:0.9" d="m 236.25,168.750000 45,0" inkscape:connector-curvature="0" />
  <path style="fill:none;stroke:#000000;stroke-width:0.9" d="m -33.75,219.375000 45,0" inkscape:connector-curvature="0" />
  <path style="fill:none;stroke:#000000;stroke-width:0.9" d="m 236.25,219.375000 45,0" inkscape:connector-curvature="0" />
  <path style="fill:none;stroke:#000000;stroke-width:0.9" d="m -33.75,326.250000 45,0" inkscape:connector-curvature="0" />
  <path style="fill:none;stroke:#000000;stroke-width:0.9" d="m 236.25,326.250000 45,0" inkscape:connector-curvature="0" />
  <g id="guide-short0-4" >
    <rect x="0.000000" y="-22.500000" width="84.375000" height="22.500000" style="fill:#ffd291;stroke:#000000;stroke-width:0.9" />
    <rect x="0.000000" y="-22.500000" width="78.750000" height="22.500000" style="fill:#b4e982;stroke:#000000;stroke-width:0.9" />
    <rect x="0.000000" y="-22.500000" width="61.875000" height="22.500000" style="fill:#5adc4f;stroke:#000000;stroke-width:0.9" />
    <rect x="84.375000" y="-22.500000" width="163.125000" height="22.500000" style="fill:#b9deff;stroke:#000000;stroke-width:0.9" />
    <rect x="123.750000" y="-22.500000" width="123.750000" height="22.500000" style="fill:#9bceff;stroke:#000000;stroke-width:0.9" />
    <rect x="180.000000" y="-22.500000" width="67.500000" height="22.500000" style="fill:#73baff;stroke:#000000;stroke-width:0.9" />
  </g>
  <g id="guide-long1-3" >
    <rect x="247.500000" y="118.125000" width="22.500000" height="219.375000" style="fill:#ffd291;stroke:#000000;stroke-width:0.9" />
    <rect x="247.500000" y="123.750000" width="22.500000" height="213.750000" style="fill:#b4e982;stroke:#000000;stroke-width:0.9" />
    <rect x="247.500000" y="225.000000" width="22.500000" height="112.500000" style="fill:#5adc4f;stroke:#000000;stroke-width:0.9" />
    <rect x="247.500000" y="151.875000" width="22.500000" height="61.875000" style="fill:#5adc4f;stroke:#000000;stroke-width:0.9" />
    <rect x="247.500000" y="0.000000" width="22.500000" height="118.125000" style="fill:#b9deff;stroke:#000000;stroke-width:0.9" />
    <rect x="247.500000" y="0.000000" width="22.500000" height="84.375000" style="fill:#9bceff;stroke:#000000;stroke-width:0.9" />
    <rect x="247.500000" y="0.000000" width="22.500000" height="50.625000" style="fill:#73baff;stroke:#000000;stroke-width:0.9" />
  </g>
  <g id="guide-short2-6" transform="matrix(-1,0,0,1,247.5,360)" >
    <rect x="0.000000" y="-22.500000" width="163.125000" height="22.500000" style="fill:#ffd291;stroke:#000000;stroke-width:0.9" />
    <rect x="0.000000" y="-22.500000" width="146.250000" height="22.500000" style="fill:#b4e982;stroke:#000000;stroke-width:0.9" />
    <rect x="0.000000" y="-22.500000" width="33.750000" height="22.500000" style="fill:#5adc4f;stroke:#000000;stroke-width:0.9" />
    <rect x="45.000000" y="-22.500000" width="33.750000" height="22.500000" style="fill:#5adc4f;stroke:#000000;stroke-width:0.9" />
    <rect x="90.000000" y="-22.500000" width="39.375000" height="22.500000" style="fill:#5adc4f;stroke:#000000;stroke-width:0.9" />
    <rect x="163.125000" y="-22.500000" width="84.375000" height="22.500000" style="fill:#b9deff;stroke:#000000;stroke-width:0.9" />
    <rect x="185.625000" y="-22.500000" width="61.875000" height="22.500000" style="fill:#9bceff;stroke:#000000;stroke-width:0.9" />
    <rect x="213.750000" y="-22.500000" width="33.750000" height="22.500000" style="fill:#73baff;stroke:#000000;stroke-width:0.9" />
  </g>
  <g id="guide-long3-3" transform="matrix(1,0,0,-1,-270,337.5)" >
    <rect x="247.500000" y="118.125000" width="22.500000" height="219.375000" style="fill:#ffd291;stroke:#000000;stroke-width:0.9" />
    <rect x="247.500000" y="123.750000" width="22.500000" height="213.750000" style="fill:#b4e982;stroke:#000000;stroke-width:0.9" />
    <rect x="247.500000" y="225.000000" width="22.500000" height="112.500000" style="fill:#5adc4f;stroke:#000000;stroke-width:0.9" />
    <rect x="247.500000" y="151.875000" width="22.500000" height="61.875000" style="fill:#5adc4f;stroke:#000000;stroke-width:0.9" />
    <rect x="247.500000" y="0.000000" width="22.500000" height="118.125000" style="fill:#b9deff;stroke:#000000;stroke-width:0.9" />
    <rect x="247.500000" y="0.000000" width="22.500000" height="84.375000" style="fill:#9bceff;stroke:#000000;stroke-width:0.9" />
    <rect x="247.500000" y="0.000000" width="22.500000" height="50.625000" style="fill:#73baff;stroke:#000000;stroke-width:0.9" />
  </g>
</g>
<g inkscape:groupmode="layer" id="cut_line_layer" inkscape:label="Cut Line" style="display:none" sodipodi:insensitive="true" >
  <rect style="fill:none;stroke:#000000;stroke-width:0.5;stroke-linecap:butt;stroke-linejoin:bevel;stroke-miterlimit:4;stroke-dasharray:none;stroke-opacity:1" width="225" height="315" x="11.25" y="11.25" ry="17.361111" />
</g>
<g inkscape:groupmode="layer" id="page_border_layer" inkscape:label="Page Border" style="display:none" sodipodi:insensitive="true" >
  <rect style="fill:none;stroke:#000000;stroke-width:0.5;stroke-linecap:butt;stroke-linejoin:bevel;stroke-miterlimit:4;stroke-dasharray:none;stroke-opacity:1" width="247.5" height="337.5" x="0" y="0" />
</g>

</svg>
