<?xml version="1.0" encoding="UTF-8" standalone="no"?>
<svg version="1.1" height="337.5" width="247.5" xmlns:rdf="http://www.w3.org/1999/02/22-rdf-syntax-ns#" xmlns="http://www.w3.org/2000/svg" xmlns:cc="http://creativecommons.org/ns#" xmlns:xlink="http://www.w3.org/1999/xlink" xmlns:dc="http://purl.org/dc/elements/1.1/" xmlns:sodipodi="http://sodipodi.sourceforge.net/DTD/sodipodi-0.dtd" xmlns:svg="http://www.w3.org/2000/svg" xmlns:inkscape="http://www.inkscape.org/namespaces/inkscape">
<metadata>
  <rdf:RDF>
    <cc:Work rdf:about="">
      <dc:format>image/svg+xml</dc:format>
      <dc:type rdf:resource="http://purl.org/dc/dcmitype/StillImage"/>
      <dc:title/>
      <dc:creator>
        <cc:Agent><dc:title>Gary Kacmarcik</dc:title></cc:Agent>
      </dc:creator>
    </cc:Work>
  </rdf:RDF>
</metadata>

<defs>
  <filter inkscape:label="textureGrassBig" style="color-interpolation-filters:sRGB" id="textureGrassBig">
    <feTurbulence numOctaves="2" seed="302" type="turbulence" baseFrequency="0.070000" result="result1" />
    <feColorMatrix result="result0" in="SourceGraphic" type="luminanceToAlpha" />
    <feColorMatrix result="result2" values="1 0 0 0 0 0 1 0 0 0 0 0 1 0 0 0 0 0 0.4 0 " />
    <feComposite in="result2" operator="over" in2="result1" />
    <feColorMatrix result="result91" values="1 0 0 0 0 0 1 0 0 0 0 0 1 0 0 0 0 0 10 -4 " />
    <feComposite operator="out" in="SourceGraphic" in2="result91" />
    <feGaussianBlur stdDeviation="2.500000" />
    <feColorMatrix values="1 0 0 0 0 0 1 0 0 0 0 0 1 0 0 0 0 0 1 0 " />
  </filter>
  <filter inkscape:label="textureGrassSmall" style="color-interpolation-filters:sRGB" id="textureGrassSmall">
    <feTurbulence numOctaves="4" seed="302" type="turbulence" baseFrequency="0.500000" result="result1" />
    <feColorMatrix result="result0" in="SourceGraphic" type="luminanceToAlpha" />
    <feColorMatrix result="result2" values="1 0 0 0 0 0 1 0 0 0 0 0 1 0 0 0 0 0 0.4 0 " />
    <feComposite in="result2" operator="over" in2="result1" />
    <feColorMatrix result="result91" values="1 0 0 0 0 0 1 0 0 0 0 0 1 0 0 0 0 0 10 -4 " />
    <feComposite operator="out" in="SourceGraphic" in2="result91" />
    <feGaussianBlur stdDeviation="1.000000" />
    <feColorMatrix values="1 0 0 0 0 0 1 0 0 0 0 0 1 0 0 0 0 0 1 0 " />
  </filter>
  <filter inkscape:label="textureLand" style="color-interpolation-filters:sRGB" id="textureLand">
    <feTurbulence numOctaves="4" seed="302" type="turbulence" baseFrequency="0.500000" result="result1" />
    <feColorMatrix result="result0" in="SourceGraphic" type="luminanceToAlpha" />
    <feColorMatrix result="result2" values="1 0 0 0 0 0 1 0 0 0 0 0 1 0 0 0 0 0 0.4 0 " />
    <feComposite in="result2" operator="over" in2="result1" />
    <feColorMatrix result="result91" values="1 0 0 0 0 0 1 0 0 0 0 0 1 0 0 0 0 0 10 -4 " />
    <feComposite operator="out" in="SourceGraphic" in2="result91" />
    <feGaussianBlur stdDeviation="0.800000" />
    <feColorMatrix values="1 0 0 0 0 0 1 0 0 0 0 0 1 0 0 0 0 0 1 0 " />
  </filter>
  <filter inkscape:label="textureForestBig" style="color-interpolation-filters:sRGB" id="textureForestBig">
    <feTurbulence numOctaves="2" seed="302" type="turbulence" baseFrequency="0.300000" result="result1" />
    <feColorMatrix result="result0" in="SourceGraphic" type="luminanceToAlpha" />
    <feColorMatrix result="result2" values="1 0 0 0 0 0 1 0 0 0 0 0 1 0 0 0 0 0 0.4 0 " />
    <feComposite in="result2" operator="over" in2="result1" />
    <feColorMatrix result="result91" values="1 0 0 0 0 0 1 0 0 0 0 0 1 0 0 0 0 0 10 -4 " />
    <feComposite operator="out" in="SourceGraphic" in2="result91" />
    <feGaussianBlur stdDeviation="2.000000" />
    <feColorMatrix values="1 0 0 0 0 0 1 0 0 0 0 0 1 0 0 0 0 0 1 0 " />
  </filter>
  <filter inkscape:label="textureForestSmall" style="color-interpolation-filters:sRGB" id="textureForestSmall">
    <feTurbulence numOctaves="4" seed="302" type="turbulence" baseFrequency="0.350000" result="result1" />
    <feColorMatrix result="result0" in="SourceGraphic" type="luminanceToAlpha" />
    <feColorMatrix result="result2" values="1 0 0 0 0 0 1 0 0 0 0 0 1 0 0 0 0 0 0.4 0 " />
    <feComposite in="result2" operator="over" in2="result1" />
    <feColorMatrix result="result91" values="1 0 0 0 0 0 1 0 0 0 0 0 1 0 0 0 0 0 10 -4 " />
    <feComposite operator="out" in="SourceGraphic" in2="result91" />
    <feGaussianBlur stdDeviation="1.000000" />
    <feColorMatrix values="1 0 0 0 0 0 1 0 0 0 0 0 1 0 0 0 0 0 1 0 " />
  </filter>
  <filter inkscape:label="roughenShoreline" style="color-interpolation-filters:sRGB" id="roughenShoreline">
    <feTurbulence numOctaves="4" seed="302" type="turbulence" baseFrequency="0.050000" result="turb" />
    <feDisplacementMap scale="6.600000" yChannelSelector="G" xChannelSelector="R" in="SourceGraphic" in2="turb" />
  </filter>
  <filter inkscape:label="roughenForest" style="color-interpolation-filters:sRGB" id="roughenForest">
    <feTurbulence numOctaves="4" seed="302" type="fractalNoise" baseFrequency="0.150000 0.150000" result="turb" />
    <feDisplacementMap scale="6.600000" yChannelSelector="G" xChannelSelector="R" in="SourceGraphic" in2="turb" />
  </filter>
  <filter inkscape:collect="always" inkscape:label="blurSuitRankGlow" style="color-interpolation-filters:sRGB" id="blurSuitRankGlow" x="-0.029025" y="-0.020458" width="1.058049" height="1.040917">
    <feGaussianBlur inkscape:collect="always" stdDeviation="2.515067" />
  </filter>
  <filter inkscape:collect="always" inkscape:label="blurWaterDeep" style="color-interpolation-filters:sRGB" id="blurWaterDeep" x="-0.056691" y="-0.041620" width="1.113381" height="1.083239">
    <feGaussianBlur inkscape:collect="always" stdDeviation="6.919136" />
  </filter>
  <filter inkscape:collect="always" inkscape:label="blurWaterShallow" style="color-interpolation-filters:sRGB" id="blurWaterShallow" x="-0.055818" y="-0.042103" width="1.111637" height="1.084205">
    <feGaussianBlur inkscape:collect="always" stdDeviation="6.561501" />
  </filter>
  <filter inkscape:collect="always" inkscape:label="blurWaterHilight" style="color-interpolation-filters:sRGB" id="blurWaterHilight" x="-0.071178" y="-0.051856" width="1.142356" height="1.103712">
    <feGaussianBlur inkscape:collect="always" stdDeviation="6.857532" />
  </filter>
  <filter inkscape:collect="always" inkscape:label="blurGrass" style="color-interpolation-filters:sRGB" id="blurGrass" x="-0.032100" y="-0.019164" width="1.064201" height="1.038328">
    <feGaussianBlur inkscape:collect="always" stdDeviation="2.386213" />
  </filter>
  <filter inkscape:collect="always" inkscape:label="blurForestShadow" style="color-interpolation-filters:sRGB" id="blurForestShadow" x="-0.033576" y="-0.018674" width="1.067152" height="1.037348">
    <feGaussianBlur inkscape:collect="always" stdDeviation="2.199785" />
  </filter>
  <filter inkscape:collect="always" inkscape:label="blurFlowerInner" style="color-interpolation-filters:sRGB" id="blurFlowerInner" x="-0.420000" y="-0.420000" width="1.840000" height="1.840000">
    <feGaussianBlur inkscape:collect="always" stdDeviation="1.605540" />
  </filter>
  <filter inkscape:collect="always" inkscape:label="blurFlowerMiddle" style="color-interpolation-filters:sRGB" id="blurFlowerMiddle" x="-0.240000" y="-0.240000" width="1.480000" height="1.480000">
    <feGaussianBlur inkscape:collect="always" stdDeviation="1.933705" />
  </filter>
  <linearGradient id="gradientStopsFish" inkscape:collect="always">
    <stop offset="0.000000" style="stop-color:#ff5555;stop-opacity:1.000000" />
    <stop offset="1.000000" style="stop-color:#ffffff;stop-opacity:1.000000" />
  </linearGradient>
  <linearGradient id="gradientStopsCoconut" inkscape:collect="always">
    <stop offset="0.000000" style="stop-color:#ffffff;stop-opacity:1.000000" />
    <stop offset="1.000000" style="stop-color:#c8c8c8;stop-opacity:0.000000" />
  </linearGradient>
  <linearGradient id="gradientStopsFlower" inkscape:collect="always">
    <stop offset="0.000000" style="stop-color:#b16dff;stop-opacity:1.000000" />
    <stop offset="1.000000" style="stop-color:#e7d2ff;stop-opacity:1.000000" />
  </linearGradient>
  <linearGradient id="gradientStopsJellyfish" inkscape:collect="always">
    <stop offset="0.000000" style="stop-color:#4f97ff;stop-opacity:1.000000" />
    <stop offset="1.000000" style="stop-color:#cfe3ff;stop-opacity:1.000000" />
  </linearGradient>
  <linearGradient id="gradientStopsShip" inkscape:collect="always">
    <stop offset="0.000000" style="stop-color:#b67800;stop-opacity:1.000000" />
    <stop offset="1.000000" style="stop-color:#d28b00;stop-opacity:1.000000" />
  </linearGradient>
  <linearGradient id="gradientFish" xlink:href="#gradientStopsFish" x1="178.789090" y1="-114.782830" x2="180.407300" y2="-103.782830" gradientTransform="translate(-178.76256,1.0606602)" gradientUnits="userSpaceOnUse" inkscape:collect="always" />
  <linearGradient id="gradientJellyfishTentacle1a" xlink:href="#gradientStopsJellyfish" x1="118.024030" y1="-110.827530" x2="121.753140" y2="-96.140030" gradientTransform="translate(-120,0)" gradientUnits="userSpaceOnUse" inkscape:collect="always" />
  <linearGradient id="gradientJellyfishTentacle1b" xlink:href="#gradientStopsJellyfish" x1="118.024030" y1="-110.827530" x2="121.753140" y2="-96.140030" gradientTransform="translate(-120,0)" gradientUnits="userSpaceOnUse" inkscape:collect="always" />
  <linearGradient id="gradientJellyfishTentacle2" xlink:href="#gradientStopsJellyfish" x1="118.218180" y1="-115.782610" x2="121.698270" y2="-97.813858" gradientTransform="translate(-120,0)" gradientUnits="userSpaceOnUse" inkscape:collect="always" />
  <linearGradient id="gradientJellyfishTentacle3" xlink:href="#gradientStopsJellyfish" x1="123.335370" y1="-114.610190" x2="116.678600" y2="-98.453941" gradientTransform="translate(-120,0)" gradientUnits="userSpaceOnUse" inkscape:collect="always" />
  <linearGradient id="gradientShip" xlink:href="#gradientStopsShip" x1="196.432910" y1="221.715270" x2="203.663250" y2="204.277770" gradientTransform="matrix(0.37654483,0.9263984,-0.9263984,0.37654483,355.66788,-318.43897)" gradientUnits="userSpaceOnUse" inkscape:collect="always" />
  <radialGradient id="gradientCoconut" xlink:href="#gradientStopsCoconut" cx="1.944096" cy="-60.612652" fx="1.944096" fy="-60.612652" r="6.723294" gradientUnits="userSpaceOnUse" gradientTransform="matrix(1.691364,-0.31394812,0.29762395,1.603419,17.826033,-7.042221)" inkscape:collect="always" />
  <radialGradient id="gradientFlower" xlink:href="#gradientStopsFlower" cx="60.884877" cy="-69.652750" fx="60.884877" fy="-69.652750" r="15.835310" gradientUnits="userSpaceOnUse" gradientTransform="matrix(0.8413905,0,0,0.87120012,-50.722984,-48.679159)" inkscape:collect="always" />
  <radialGradient id="gradientJellyfish" xlink:href="#gradientStopsJellyfish" cx="120.453410" cy="-112.943900" fx="120.453410" fy="-112.943900" r="10.580511" gradientUnits="userSpaceOnUse" gradientTransform="matrix(1.1662998,0.0435575,-0.04526952,1.2121402,-145.14628,17.080499)" inkscape:collect="always" />
</defs>

<sodipodi:namedview
    id="base"
    pagecolor="#ffffff"
    bordercolor="#666666"
    borderopacity="1.0"
    inkscape:pageopacity="0.0"
    inkscape:pageshadow="2"
    inkscape:zoom="2"
    inkscape:cx="115.37643"
    inkscape:cy="285.04449"
    inkscape:document-units="in"
    showgrid="true"
    units="in"
    inkscape:window-width="1392"
    inkscape:window-height="836"
    inkscape:window-x="39"
    inkscape:window-y="6"
    inkscape:window-maximized="0"
    inkscape:snap-grids="true"
    inkscape:snap-to-guides="true"
    inkscape:snap-nodes="true"
    inkscape:object-nodes="true"
    inkscape:snap-smooth-nodes="true"
    inkscape:snap-intersection-paths="true"
    inkscape:object-paths="true"
    inkscape:snap-bbox="true"
    inkscape:bbox-nodes="true"
    inkscape:snap-others="true"
    inkscape:bbox-paths="false"
    inkscape:snap-global="true" >
  <inkscape:grid
    type="xygrid"
    id="grid3051"
    empspacing="2"
    visible="true"
    enabled="true"
    snapvisiblegridlinesonly="true"
    spacingx="0.0625in"
    spacingy="0.0625in"
    dotted="false"
    units="in" />
</sodipodi:namedview>
<g inkscape:groupmode="layer" id="water_layer" inkscape:label="Water" style="display:inline" sodipodi:insensitive="true" >
  <rect id="water" style="fill:#b9deff;fill-opacity:1;stroke:none" x="0" y="0" width="247.5" height="337.5" />
</g>
<g inkscape:groupmode="layer" id="water_shallow_layer" inkscape:label="Water Shallow" style="display:inline" sodipodi:insensitive="true" >
  <path style="fill:#9bd1ff;fill-opacity:0.70;fill-rule:evenodd;stroke:none;filter:url(#blurWaterShallow)" d="m 185.625,-11.25 0,22.5 c 0,0 5.47796,10.947553 5.625,16.875 0.18452,7.438216 -3.42923,14.517719 -6,21.5 -2.98225,8.099871 -8.40476,15.229591 -10.875,23.5 -1.62739,5.448547 -1.76923,11.235758 -2.5,16.875 -1.21221,9.354477 -1.11319,18.90934 -3.125,28.125 -1.10442,5.0591 -2.37525,10.21508 -4.875,14.75 -1.61479,2.92945 -3.47844,6.07692 -6.375,7.75 -9.87607,5.70451 -24.17248,-0.56768 -33.75,5.625 -5.67706,3.67071 -10.2579,10.18778 -11.25,16.875 -0.88789,5.98478 2.04151,12.24553 5.25,17.375 2.79888,4.47461 6.71035,8.82592 11.625,10.75 6.98386,2.73417 15.01399,0.45795 22.5,0 7.16513,-0.43832 14.48507,-0.61002 21.375,-2.625 6.38576,-1.86754 12.57011,-4.78027 18,-8.625 4.32816,-3.06464 6.61083,-8.68035 11.25,-11.25 5.1989,-2.87969 11.43197,-4.03955 17.375,-4 5.6187,0.0374 16.375,4 16.375,4 l 22.5,0 0,-180 z" inkscape:connector-curvature="0" />
</g>
<g inkscape:groupmode="layer" id="water_deep_layer" inkscape:label="Water Deep" style="display:inline" sodipodi:insensitive="true" >
  <path style="fill:#87c8ff;fill-opacity:0.60;fill-rule:evenodd;stroke:none;filter:url(#blurWaterDeep)" d="m 213.75,-11.25 0,22.5 c 0,0 5.66696,19.321437 5.625,29.25 -0.0331,7.820065 -2.00633,15.631344 -4.625,23 -3.29533,9.272693 -10.58631,16.806573 -13.75,26.125 -2.21541,6.525322 -7.12389,14.51366 -3.5,20.375 2.42615,3.92409 8.64983,4.35094 13.25,4 5.11032,-0.38986 9.29446,-4.32587 13.875,-6.625 3.91452,-1.96483 11.625,-6.125 11.625,-6.125 l 22.5,0 0,-112.5 z" inkscape:connector-curvature="0" />
</g>
<g inkscape:groupmode="layer" id="water_hilight_layer" inkscape:label="Water Hilight" style="display:inline" sodipodi:insensitive="true" >
  <use xlink:href="#shoreline" height="100%" width="100%" x="0" y="0" style="display:inline;fill:#ffffff;fill-opacity:1;stroke:#ffffff;stroke-opacity:1;filter:url(#blurWaterHilight)" />
</g>
<g inkscape:groupmode="layer" id="land_layer" inkscape:label="Land" style="display:inline" sodipodi:insensitive="true" >
  <use xlink:href="#shoreline" height="100%" width="100%" x="0" y="0" style="display:inline;fill:#ffddab;fill-opacity:1;stroke:none;stroke-width:1;stroke-miterlimit:4;stroke-dasharray:none;stroke-opacity:1" />
</g>
<g inkscape:groupmode="layer" id="land_texture_layer" inkscape:label="Land Texture" style="display:inline" sodipodi:insensitive="true" >
  <use xlink:href="#shoreline" height="100%" width="100%" x="0" y="0" style="display:inline;fill:#ffca7d;fill-opacity:1;stroke:none;stroke-width:1;stroke-miterlimit:4;stroke-dasharray:none;stroke-opacity:1;filter:url(#textureLand)" />
</g>
<g inkscape:groupmode="layer" id="shoreline_layer" inkscape:label="Shoreline" style="display:inline" sodipodi:insensitive="true" >
  <use xlink:href="#shoreline" height="100%" width="100%" x="0" y="0" style="display:inline;fill:none;fill-opacity:1;stroke:#5f4c14;stroke-width:1;stroke-miterlimit:4;stroke-dasharray:none;stroke-opacity:1" />
</g>
<g inkscape:groupmode="layer" id="shoreline_master_layer" inkscape:label="Shoreline Master" style="display:none" sodipodi:insensitive="true" >
  <path id="shoreline" style="color:#000000;clip-rule:nonzero;display:inline;overflow:visible;visibility:visible;opacity:1;isolation:auto;mix-blend-mode:normal;color-interpolation:sRGB;color-interpolation-filters:linearRGB;solid-color:#000000;solid-opacity:1;fill-opacity:1;fill-rule:evenodd;filter:url(#roughenShoreline);color-rendering:auto;image-rendering:auto;shape-rendering:auto;text-rendering:auto;enable-background:accumulate" d="m 30.9375,-26.71875 c -25.3125,0 -50.625,1.40625 -53.4375,4.21875 -5.625,5.625 -1.55775,234.07406 0,241.875 6.51919,32.64697 -6.775138,127.48671 7.732422,135.54297 C 0.53421188,363.41526 58.82084,359.1932 84.375,360 c 33.07443,1.04423 174.375,11.25 185.625,0 7.95495,-7.95495 11.25,-135 0,-140.625 -6.7082,-3.3541 -15,0 -22.5,0 l -22.5,0 c -11.25,0 -22.55457,-4.25775 -28.1875,-5.1875 -3.11611,-0.51434 -8.8818,-1.03627 -14.61526,-1.61298 -5.73346,-0.57672 -7.93468,19.29177 -10.92185,18.55829 -9.66875,-2.37411 -17.15549,-2.67118 -28.40387,-6.00177 -5.74265,-1.70037 -4.04404,12.7436 -8.86227,26.50309 -4.81823,13.75949 -14.32046,23.99807 -16.96628,21.37759 -13.35348,-13.22556 -16.06736,-53.74616 -24.773189,-59.45935 -8.705825,-5.71319 -16.403595,-13.61897 -20.724859,-20.61487 -1.575024,-2.54988 -3.621461,-10.51437 -5.075143,-18.44338 -1.453681,-7.929 13.24384,-46.88311 14.981393,-48.73045 C 91.734942,114.83014 130.9071,112.30356 135,109.125 c 4.3505,-3.37861 -12.80709,-34.799438 0.96398,-53.8527 13.77108,-19.053261 26.59583,-37.488956 27.16102,-38.3973 4.54845,-7.3100331 0,-11.25 0,-16.875 0,-7.5 5.3033,-17.196699 0,-22.5 -2.8125,-2.8125 -106.875,-4.21875 -132.1875,-4.21875 z" inkscape:connector-curvature="0" />
</g>
<g inkscape:groupmode="layer" id="grass_layer" inkscape:label="Grass" style="display:inline" sodipodi:insensitive="true" >
  <use xlink:href="#grass" height="100%" width="100%" x="0" y="0" style="display:inline;fill:#b4e982;fill-opacity:1;stroke:none;stroke-width:1;stroke-miterlimit:4;stroke-dasharray:none;stroke-opacity:1" />
</g>
<g inkscape:groupmode="layer" id="grass_texture1_layer" inkscape:label="Grass Texture Big" style="display:inline" sodipodi:insensitive="true" >
  <use xlink:href="#grass" height="100%" width="100%" x="0" y="0" style="display:inline;fill:#a7e46a;fill-opacity:1;stroke:none;stroke-width:1;stroke-miterlimit:4;stroke-dasharray:none;stroke-opacity:1;filter:url(#textureGrassBig)" />
</g>
<g inkscape:groupmode="layer" id="grass_texture2_layer" inkscape:label="Grass Texture Small" style="display:inline" sodipodi:insensitive="true" >
  <use xlink:href="#grass" height="100%" width="100%" x="0" y="0" style="display:inline;fill:#8cdd3d;fill-opacity:1;stroke:none;stroke-width:1;stroke-miterlimit:4;stroke-dasharray:none;stroke-opacity:1;filter:url(#textureGrassSmall)" />
</g>
<g inkscape:groupmode="layer" id="grass_master_layer" inkscape:label="Grass Master" style="display:none" sodipodi:insensitive="true" >
  <path id="grass" style="color:#000000;clip-rule:nonzero;display:inline;overflow:visible;visibility:visible;opacity:1;isolation:auto;mix-blend-mode:normal;color-interpolation:sRGB;color-interpolation-filters:linearRGB;solid-color:#000000;solid-opacity:1;fill-opacity:1;fill-rule:evenodd;filter:url(#blurGrass);color-rendering:auto;image-rendering:auto;shape-rendering:auto;text-rendering:auto;enable-background:accumulate" d="m -11.25,-11.25 0,360 270,0 0,-112.5 -22.5,0 c 0,0 -7.77919,-2.83778 -11.75,-4 -5.35375,-1.56699 -10.77807,-2.91554 -16.25,-4 -5.74564,-1.1387 -11.59592,-3.57958 -17.375,-2.625 -4.02665,0.66511 -7.01043,4.313 -10.875,5.625 -5.37109,1.82346 -11.08153,2.79486 -16.75,3 -6.36416,0.23032 -13.9753,-5.91253 -19,-2 -5.54664,4.31894 -0.67583,14.2405 -3,20.875 -2.55634,7.29725 -6.06624,14.7579 -11.75,20 -3.09593,2.85536 -7.18231,5.10098 -11.375,5.5 -3.86359,0.3677 -8.3835,-0.38357 -11.25,-3 -6.16299,-5.62533 -5.53622,-15.74847 -8.625,-23.5 C 94.740275,243.31708 91.244767,234.47818 87,226 82.546062,217.10404 77.662941,208.3898 72.125,200.125 68.223329,194.30216 61.57912,190.11088 59.25,183.5 c -2.991178,-8.49003 -1.697901,-18.07852 -0.5,-27 1.063289,-7.91895 2.930745,-15.98191 6.75,-23 3.233955,-5.94257 7.550066,-11.73037 13.25,-15.375 6.389014,-4.08524 14.436817,-4.7728 21.875,-6.25 10.07796,-2.00145 24.42663,4.69459 30.625,-3.5 3.74389,-4.94963 -2.41427,-12.196607 -3,-18.375 -0.57829,-6.099916 -1.37131,-12.310001 -0.5,-18.375 1.0212,-7.108328 3.01458,-14.292258 6.625,-20.5 2.66888,-4.588861 7.74244,-7.375628 10.75,-11.75 2.79762,-4.069027 6.35481,-8.319414 6.625,-13.25 0.28926,-5.278495 -5.5,-14.875 -5.5,-14.875 l 0,-22.5 z" inkscape:connector-curvature="0" />
</g>
<g inkscape:groupmode="layer" id="forest_shadow_layer" inkscape:label="Forest Shadow" style="display:inline" sodipodi:insensitive="true" >
  <g style="filter:url(#blurForestShadow)" >
    <use xlink:href="#forest" height="100%" width="100%" x="0" y="0" style="display:inline;opacity:0.75;fill:#258c1b;fill-opacity:1;filter:url(#roughenForest)" />
  </g>
</g>
<g inkscape:groupmode="layer" id="forest_fill_layer" inkscape:label="Forest Fill" style="display:inline" sodipodi:insensitive="true" >
  <use xlink:href="#forest" height="100%" width="100%" x="0" y="0" style="fill:#83d700;fill-opacity:1;stroke:none;stroke-width:1.5;stroke-miterlimit:4;stroke-dasharray:none;stroke-opacity:1;filter:url(#roughenForest)" />
</g>
<g inkscape:groupmode="layer" id="forest_texture_big_layer" inkscape:label="Forest Texture Big" style="display:inline" sodipodi:insensitive="true" >
  <g style="filter:url(#textureForestBig)" >
    <use xlink:href="#forest" height="100%" width="100%" x="0" y="0" style="fill:#548c00;fill-opacity:1;stroke:none;stroke-width:1.5;stroke-miterlimit:4;stroke-dasharray:none;stroke-opacity:1;filter:url(#roughenForest)" />
  </g>
</g>
<g inkscape:groupmode="layer" id="forest_texture_small_layer" inkscape:label="Forest Texture Small" style="display:inline" sodipodi:insensitive="true" >
  <g style="filter:url(#textureForestSmall)" >
    <use xlink:href="#forest" height="100%" width="100%" x="0" y="0" style="fill:#78c125;fill-opacity:1;stroke:none;stroke-width:1;stroke-miterlimit:4;stroke-dasharray:none;stroke-opacity:1;filter:url(#roughenForest)" />
  </g>
</g>
<g inkscape:groupmode="layer" id="forest_outline_layer" inkscape:label="Forest Outline" style="display:inline" sodipodi:insensitive="true" >
  <use xlink:href="#forest" height="100%" width="100%" x="0" y="0" style="fill:none;fill-opacity:1;stroke:#006800;stroke-width:1.5;stroke-miterlimit:4;stroke-dasharray:none;stroke-opacity:1;filter:url(#roughenForest)" />
</g>
<g inkscape:groupmode="layer" id="forest_master_layer" inkscape:label="Forest Master" style="display:none" sodipodi:insensitive="true" >
  <path id="forest" style="color:#000000;clip-rule:nonzero;display:inline;overflow:visible;visibility:visible;opacity:1;isolation:auto;mix-blend-mode:normal;color-interpolation:sRGB;color-interpolation-filters:linearRGB;solid-color:#000000;solid-opacity:1;fill-opacity:1;fill-rule:nonzero;color-rendering:auto;image-rendering:auto;shape-rendering:auto;text-rendering:auto;enable-background:accumulate" d="m 112,-12.25 c -2.08658,0.0024 -4.04526,1.121981 -5.26562,3.0097656 -0.5877,0.028757 -1.16918,0.1463668 -1.72852,0.3496094 C 104.35826,-9.1269414 103.68137,-9.248214 103,-9.25 c -1.31961,0.00305 -2.60714,0.4540253 -3.691406,1.2929688 C 98.721108,-8.1492029 98.112226,-8.2478339 97.5,-8.25 93.910149,-8.25 91,-5.0040644 91,-1 c 0.0018,0.33665006 0.02466,0.67274985 0.06836,1.00585938 C 91.025146,0.33509723 91.002306,0.66726273 91,1 c 0.0019,0.5921648 0.06877,1.181844 0.199219,1.7558594 C 91.06962,3.326072 91.002722,3.9117581 91,4.5 c 3.74e-4,0.4256821 0.03436,0.8505004 0.101562,1.2695312 C 91.036375,6.1757163 91.002398,6.5873674 91,7 c 0.0019,0.5921648 0.06877,1.181844 0.199219,1.7558594 C 91.06962,9.326072 91.002722,9.9117581 91,10.5 c -1.07e-4,1.143196 0.242162,2.270216 0.707031,3.289062 0.316243,1.380418 0.990137,2.626306 1.9375,3.582032 C 93.222751,18.347234 93.002508,19.416413 93,20.5 c 0,4.004064 2.910149,7.25 6.5,7.25 1.6802,-1.96e-4 3.29505,-0.726076 4.50586,-2.025391 1.20789,1.296185 2.818,2.021821 4.49414,2.025391 0.59153,4e-5 1.1803,-0.08998 1.75,-0.267578 0.0285,0.104927 0.0591,0.209121 0.0918,0.3125 -3.31523,0.376374 -5.83828,3.488213 -5.8418,7.205078 0,4.004064 2.91015,7.25 6.5,7.25 3.58985,0 6.5,-3.245936 6.5,-7.25 -0.002,-0.780508 -0.11786,-1.555457 -0.3418,-2.294922 3.31523,-0.376374 5.83828,-3.488213 5.8418,-7.205078 -1.1e-4,-1.1329 -0.23824,-2.250006 -0.69531,-3.261719 0.065,0.005 0.13016,0.0089 0.19531,0.01172 3.58985,0 6.5,-3.245936 6.5,-7.25 -0.003,-1.22183 -0.28217,-2.423087 -0.8125,-3.492188 C 128.72012,10.434079 128.99968,9.2271234 129,8 128.99734,6.9672858 128.7969,5.9471229 128.41211,5.0078125 129.12027,3.8203059 129.49869,2.4262078 129.5,1 c -0.003,-1.71485771 -0.55128,-3.3729352 -1.54688,-4.6796875 0.0295,-0.2722286 0.0452,-0.5461062 0.0469,-0.8203125 0,-4.0040644 -2.91015,-7.25 -6.5,-7.25 -1.69979,-1.86e-4 -3.33202,0.742309 -4.54688,2.0683594 C 115.72035,-11.307525 113.90908,-12.246727 112,-12.25 Z m -45,3 c -1.884377,0.00225 -3.675135,0.9165157 -4.908203,2.5058594 -0.03059,-0.00219 -0.06119,-0.00415 -0.0918,-0.00586 -1.680195,1.963e-4 -3.29505,0.7260762 -4.505859,2.0253906 C 56.286254,-6.0207948 54.676141,-6.7464302 53,-6.75 c -3.589851,0 -6.5,3.2459356 -6.5,7.25 1.15e-4,0.18575743 0.0066,0.37144133 0.01953,0.5566406 C 46.508965,1.2041701 46.502452,1.3520258 46.5,1.5 c 0.0017,0.9428566 0.168172,1.8763012 0.490234,2.7480469 C 46.667725,5.1210083 46.501195,6.0558285 46.5,7 c 0.0019,0.5921648 0.06877,1.181844 0.199219,1.7558594 C 46.56962,9.326072 46.502722,9.9117581 46.5,10.5 c 0.0021,1.435327 0.386195,2.837648 1.103516,4.029297 0.646674,1.564753 1.771838,2.821475 3.173828,3.544922 0.821533,3.06895 3.351157,5.173 6.222656,5.175781 0.33626,-0.0016 0.671903,-0.03228 1.003906,-0.0918 0.05649,2.80764 1.561633,5.326348 3.863282,6.464844 C 61.626659,30.386936 61.502546,31.190371 61.5,32 c 0.0039,3.583418 2.354409,6.626091 5.53125,7.160156 0.305846,3.730891 3.10986,6.587396 6.46875,6.589844 3.589851,0 6.5,-3.245936 6.5,-7.25 -0.0039,-3.583418 -2.354409,-6.626091 -5.53125,-7.160156 -0.07817,-0.954118 -0.325116,-1.881492 -0.726562,-2.728516 C 76.794092,27.948581 78.997834,24.967962 79,21.5 78.998477,19.077701 77.912465,16.816275 76.105469,15.472656 77.006039,14.197893 77.497088,12.622958 77.5,11 c -0.0014,-0.100325 -0.0046,-0.200607 -0.0098,-0.300781 C 77.494308,10.632866 77.497564,10.566453 77.5,10.5 77.499149,9.130197 77.150398,7.7886887 76.494141,6.6308594 76.496447,6.5872602 76.4984,6.5436386 76.5,6.5 76.499626,6.0743179 76.465641,5.6494996 76.398438,5.2304688 76.463625,4.8242837 76.497602,4.4126326 76.5,4 76.497994,3.4996727 76.449559,3.0009209 76.355469,2.5117188 76.451012,2.0148547 76.499455,1.5081634 76.5,1 76.498407,-1.8744029 74.974496,-4.4763149 72.615234,-5.6328125 71.454837,-7.8681631 69.315806,-9.2460715 67,-9.25 Z m -44.5,1.5 c -3.223678,0.00431 -5.957474,2.643352 -6.423828,6.2011719 C 15.015133,-2.3308072 13.77174,-2.7484406 12.5,-2.75 11.508465,-2.7484544 10.530389,-2.493914 9.640625,-2.0058594 9.1053118,-2.1648866 8.553968,-2.2469318 8,-2.25 5.7148958,-2.2466366 3.5992187,-0.90515048 2.4277344,1.2832031 -0.92552342,1.6137738 -3.4976549,4.7452486 -3.5,8.5 c 3.739e-4,0.4256821 0.034359,0.8505004 0.1015625,1.2695312 C -3.4636243,10.175716 -3.4976018,10.587367 -3.5,11 c 0.00171,0.347839 0.02586,0.69509 0.072266,1.039062 C -3.803269,12.970092 -3.9982795,13.979088 -4,15 c 2.145e-4,2.406187 1.0707173,4.655487 2.8574219,6.003906 C -2.9272311,22.350774 -3.997463,24.596579 -4,27 c 0.00253,2.736674 1.386421,5.238563 3.578125,6.46875 0.17582349,0.435205 0.38975238,0.849979 0.63867188,1.238281 C -0.25199431,35.726121 -0.49763577,36.854599 -0.5,38 c 0.002591,1.28347 0.31060714,2.543168 0.89257812,3.650391 C -2.2322814,42.653816 -3.9966461,45.405095 -4,48.5 c 0.00291,2.290624 0.9761721,4.444984 2.625,5.810547 C -3.3135467,55.6242 -4.4979207,57.970001 -4.5,60.5 c 0.00132,1.866121 0.64772,3.659809 1.8046875,5.007812 C -3.2229229,66.577717 -3.4997119,67.778928 -3.5,69 c 0.00154,0.843543 0.1350551,1.680314 0.3945312,2.472656 C -4.9124653,72.816275 -5.9984774,75.077701 -6,77.5 c 0.00313,1.267565 0.3041494,2.512064 0.8730469,3.609375 C -5.3708291,81.877216 -5.4969441,82.685408 -5.5,83.5 c 0.00269,2.051907 0.7847899,4.006447 2.1523438,5.378906 C -4.09803,90.090225 -4.4999665,91.527659 -4.5,93 c 0.00386,3.019646 1.6853353,5.720427 4.22070312,6.779297 C -1.0714713,101.00944 -1.4983503,102.48542 -1.5,104 c 2.054e-4,0.41838 0.032879,0.83596 0.097656,1.24805 C -2.4307885,106.56561 -2.998126,108.25305 -3,110 c 0.00205,1.84421 0.6341353,3.61823 1.7675781,4.96094 -0.025362,0.0997 -0.048804,0.19997 -0.070312,0.30078 -0.065698,-0.005 -0.1314613,-0.009 -0.1972661,-0.0117 -3.5898509,0 -6.5,3.24594 -6.5,7.25 0.00182,0.33665 0.024663,0.67275 0.068359,1.00586 -0.043213,0.32924 -0.066054,0.6614 -0.068359,0.99414 0.00201,0.50033 0.050442,0.99908 0.1445312,1.48828 C -7.9510115,126.48514 -7.9994549,126.99184 -8,127.5 c 0.00385,3.81824 2.6620887,6.97874 6.078125,7.22656 -0.1081356,0.092 -0.2136563,0.18774 -0.3164062,0.28711 C -5.0524311,135.88482 -7.0001573,138.7425 -7,142 c 0.0029,2.76085 1.4113929,5.28023 3.6328125,6.49805 C -5.5897372,149.71649 -6.9984286,152.23775 -7,155 c 0.00191,2.19015 0.8913665,4.26195 2.4199219,5.63672 1.2165259,1.3515 2.8630651,2.11123 4.5800781,2.11328 1.1602162,-0.003 2.2985646,-0.35233 3.296875,-1.01172 0.8229594,-0.0439 1.6309239,-0.26202 2.3808594,-0.64258 0.4348685,0.10171 0.8779407,0.15341 1.3222656,0.1543 0.4558536,-0.003 0.9101767,-0.0591 1.3554688,-0.16797 1.1652802,1.07722 2.6310532,1.66712 4.1445312,1.66797 3.589851,0 6.5,-3.24594 6.5,-7.25 -8.73e-4,-0.11335 -0.0041,-0.22666 -0.0098,-0.33984 3.168308,-0.54472 5.50746,-3.58454 5.509766,-7.16016 -0.0032,-2.51782 -1.177314,-4.85351 -3.101562,-6.16992 C 22.735942,140.459 23.498017,138.52619 23.5,136.5 c -0.0022,-1.32344 -0.329091,-2.62098 -0.945312,-3.75195 C 26.122482,132.71457 28.999167,129.4796 29,125.5 c 0,-4.00406 -2.910149,-7.25 -6.5,-7.25 -1.176267,0.002 -2.329889,0.36091 -3.337891,1.03711 C 19.383982,118.54989 19.49807,117.77765 19.5,117 c 4.6e-5,-1.63523 -0.495531,-3.22246 -1.40625,-4.50391 0.26589,-0.79893 0.403411,-1.6439 0.40625,-2.49609 -0.003,-2.2463 -0.939279,-4.36419 -2.535156,-5.73438 0.91294,-0.96614 1.554798,-2.20711 1.847656,-3.57226 0.855977,3.00796 3.358122,5.0528 6.1875,5.05664 3.589851,0 6.5,-3.24594 6.5,-7.25 -0.0031,-1.484933 -0.414847,-2.933007 -1.179688,-4.148438 C 30.398871,93.021725 30.997302,91.293233 31,89.5 30.99767,89.219191 30.980714,88.938771 30.949219,88.660156 32.099009,89.686658 33.527253,90.247213 35,90.25 c 3.230172,-0.0046 5.967189,-2.65431 6.425781,-6.220703 1.233252,1.719278 3.100165,2.720282 5.074219,2.720703 3.589851,0 6.5,-3.245936 6.5,-7.25 -0.0032,-2.791975 -1.44355,-5.333803 -3.703125,-6.535156 C 52.080919,72.071605 53.99895,69.231197 54,66 c 0,-4.004064 -2.910149,-7.25 -6.5,-7.25 -1.895243,0.0012 -3.695636,0.924902 -4.929688,2.529297 C 42.10336,60.406805 41.477192,59.65354 40.732422,59.068359 43.026846,57.882711 44.496532,55.320474 44.5,52.5 c -0.001,-0.382083 -0.02909,-0.763479 -0.08398,-1.140625 0.670907,0.256129 1.37487,0.388081 2.083984,0.390625 3.589851,0 6.5,-3.245936 6.5,-7.25 -0.0028,-2.219369 -0.916755,-4.315067 -2.480469,-5.6875 C 51.157715,37.668022 51.497245,36.34778 51.5,35 c 0,-4.004064 -2.910149,-7.25 -6.5,-7.25 -0.24751,0.0031 -0.494658,0.02206 -0.740234,0.05664 C 44.007721,27.771217 43.75403,27.752304 43.5,27.75 c -0.16948,4.25e-4 -0.33888,0.0082 -0.507812,0.02344 C 42.882534,23.8615 40.008968,20.752792 36.5,20.75 c -0.191752,0.0016 -0.383345,0.01269 -0.574219,0.0332 -0.340643,-0.444351 -0.728223,-0.841113 -1.154297,-1.181641 -0.08753,-0.349943 -0.19852,-0.692052 -0.332031,-1.023437 -0.23342,-2.046047 -1.237101,-3.884354 -2.759765,-5.054687 C 32.217334,12.445887 32.499671,11.23318 32.5,10 32.499885,9.8142426 32.49337,9.6285587 32.480469,9.4433594 32.491035,9.2958299 32.497548,9.1479742 32.5,9 32.497051,7.9787744 32.300707,6.9697643 31.923828,6.0390625 31.971541,5.6951959 31.996997,5.3479442 32,5 31.999052,3.6262317 31.648191,2.2810363 30.988281,1.1210938 30.871866,-1.3352548 29.64677,-3.5582218 27.734375,-4.7832031 26.512248,-6.6448291 24.568645,-7.7464461 22.5,-7.75 Z M 18.96875,5.5820312 c 0.01947,0.012482 0.039,0.024852 0.05859,0.037109 0.0031,0.032576 0.0063,0.065129 0.0098,0.097656 -0.02236,-0.045192 -0.04514,-0.090116 -0.06836,-0.1347657 z M 66.042969,15.677734 c 0.09445,0.128075 0.192818,0.252497 0.294922,0.373047 -0.185296,-0.06205 -0.372983,-0.114832 -0.5625,-0.158203 0.09081,-0.06908 0.180028,-0.140717 0.267578,-0.214844 z m 48.480471,1.546875 c 0.50297,0.434109 1.06034,0.783536 1.65429,1.03711 -0.48296,0.02579 -0.96183,0.111609 -1.42773,0.255859 -0.11184,-0.441178 -0.26094,-0.869529 -0.44531,-1.279297 0.073,-0.0032 0.14591,-0.0077 0.21875,-0.01367 z M 26.070312,38.523438 c 0.01686,0.133414 0.03705,0.266278 0.06055,0.398437 -0.16161,0.03745 -0.321882,0.08175 -0.480468,0.132813 0.147649,-0.169347 0.28779,-0.346642 0.419918,-0.53125 z m -9.158203,1.105468 C 18.068069,40.675524 19.511129,41.247784 21,41.25 c 0.626479,-0.0016 1.249458,-0.104237 1.849609,-0.304688 -0.417218,0.473909 -0.774072,1.009518 -1.060547,1.591797 C 21.207606,42.348939 20.605432,42.252302 20,42.25 c -1.219474,0.0011 -2.414064,0.384904 -3.447266,1.107422 -0.137381,-0.384315 -0.304005,-0.754808 -0.498046,-1.107422 0.43526,-0.803538 0.726458,-1.693717 0.857421,-2.621094 z m 1.44336,16.875 c 0.351453,0.104297 0.710133,0.17551 1.072265,0.212891 0.187655,0.348829 0.4013,0.679423 0.638672,0.988281 -0.300998,0.315343 -0.574369,0.661961 -0.816406,1.035156 -0.322705,-0.497289 -0.70073,-0.94685 -1.125,-1.33789 0.09407,-0.29364 0.171048,-0.593742 0.230469,-0.898438 z m 12.419922,4.613282 c 0.227383,0.04747 0.456876,0.08138 0.6875,0.101562 -0.193103,0.350812 -0.359067,0.719331 -0.496094,1.101562 -0.03334,-0.406334 -0.09736,-0.808805 -0.191406,-1.203124 z m -0.242188,4.5625 c 0.193426,2.265837 1.329619,4.298835 3.068359,5.490234 -0.02755,0.02708 -0.0549,0.05443 -0.08203,0.08203 L 33.5,71.25 c -0.631974,0.0018 -1.26033,0.106444 -1.865234,0.310547 -0.878577,-1.260075 -2.105438,-2.161512 -3.490235,-2.564453 1.075627,-0.814184 1.907678,-1.969394 2.388672,-3.316406 z m 11.396485,4.041015 c 0.656546,1.22165 1.621167,2.200536 2.773437,2.814453 -0.353745,0.11498 -0.698084,0.263301 -1.029297,0.44336 -0.542386,-1.085768 -1.325929,-1.997771 -2.27539,-2.648438 0.187615,-0.191362 0.365003,-0.394837 0.53125,-0.609375 z M 14.587891,74.6875 c 0.258921,1.73026 1.071502,3.297132 2.287109,4.410156 -0.07696,0.243984 -0.142155,0.492386 -0.195312,0.744141 -0.318986,0.51099 -0.577625,1.065685 -0.769532,1.650391 -0.327525,-0.551349 -0.72115,-1.050116 -1.169922,-1.482422 C 14.91092,79.356753 14.998366,78.680197 15,78 c -0.0027,-1.032714 -0.2031,-2.052878 -0.587891,-2.992188 0.06106,-0.10506 0.119678,-0.211866 0.175782,-0.320312 z m 4.177734,18.212891 c 0.124327,0.258462 0.262603,0.50827 0.414063,0.748047 -0.725626,0.897554 -1.238572,1.9832 -1.492188,3.158203 -0.09448,-0.335136 -0.210668,-0.66217 -0.347656,-0.978516 0.672587,-0.839222 1.160736,-1.8416 1.425781,-2.927734 z m -2.427734,30.312499 c -0.164506,0.55239 -0.268773,1.12488 -0.310547,1.70508 -0.50333,-0.36479 -1.049536,-0.65005 -1.623047,-0.84766 0.68163,-0.16814 1.334525,-0.45765 1.933594,-0.85742 z M 6.015625,130.65625 C 6.0079785,130.77068 6.0027687,130.88529 6,131 c 3.74e-4,0.42568 0.034359,0.8505 0.1015625,1.26953 C 6.0363757,132.67572 6.0023981,133.08737 6,133.5 c 0.00124,0.10423 0.0045,0.20842 0.00977,0.3125 C 5.2148781,133.44129 4.3617472,133.25008 3.5,133.25 c -0.2475104,0.003 -0.4946578,0.0221 -0.7402344,0.0566 -0.1123521,-0.0143 -0.2250206,-0.0254 -0.3378906,-0.0332 0.8026265,-0.67975 1.4525521,-1.55836 1.8984375,-2.56641 0.225734,0.0276 0.4526076,0.0419 0.6796875,0.043 0.3402197,-0.002 0.6798048,-0.0329 1.015625,-0.0937 z m 1.5273438,15.52148 c 0.1864948,0.24576 0.3874605,0.4774 0.6015624,0.69336 C 7.7669763,146.7931 7.3839681,146.75258 7,146.75 c -0.078173,0.002 -0.1563103,0.005 -0.234375,0.01 0.2713213,-0.17292 0.5311096,-0.36744 0.7773438,-0.58204 z M 5,172.75 c -1.1770948,0.003 -2.331449,0.36179 -3.3398438,1.03906 C 1.4408406,173.76356 1.2205036,173.75052 1,173.75 c -3.5898509,0 -6.5,3.24594 -6.5,7.25 0.00269,0.76329 0.1134261,1.52133 0.328125,2.24609 -0.2154287,0.72725 -0.326177,1.48799 -0.328125,2.25391 1.154e-4,1.63616 0.4964115,3.22417 1.4082031,4.50586 -0.9095557,1.27854 -1.4057198,2.862 -1.4082031,4.49414 0.00276,1.52657 0.4374787,3.01322 1.2421875,4.24805 C -5.0632216,199.98396 -5.4979729,201.4721 -5.5,203 c 0.00314,1.74493 0.5703959,3.43005 1.5976562,4.74609 C -4.931185,209.06416 -5.4985494,210.75238 -5.5,212.5 c 0.0018,1.19446 0.2681516,2.36991 0.7753906,3.42188 C -4.9063713,216.596 -4.9991418,217.29605 -5,218 c 0.00201,0.50033 0.050442,0.99908 0.1445312,1.48828 C -4.9510115,219.98514 -4.9994549,220.49184 -5,221 c 2.133e-4,2.40619 1.0707163,4.65549 2.8574219,6.00391 C -3.9272301,228.35078 -4.9974618,230.59658 -5,233 c 0.00308,1.98415 0.7350998,3.8802 2.0253906,5.24609 C -4.2666637,239.61385 -4.9988371,241.51313 -5,243.5 c 0.00306,1.48493 0.4148468,2.93301 1.1796875,4.14844 C -4.898871,248.97828 -5.4973021,250.70677 -5.5,252.5 c 0.00308,1.98415 0.7350998,3.8802 2.0253906,5.24609 -0.591112,0.62816 -1.0708323,1.37491 -1.4140625,2.20118 C -5.6127453,261.14456 -5.9997253,262.55578 -6,264 c 5.02e-5,1.1314 0.2375022,2.24709 0.6933594,3.25781 -0.4537363,1.006 -0.6911293,2.11606 -0.6933594,3.24219 0.00308,1.98415 0.7350998,3.8802 2.0253906,5.24609 C -5.2666637,277.11385 -5.9988371,279.01313 -6,281 c 1.154e-4,1.63616 0.4964115,3.22417 1.4082031,4.50586 C -5.5013526,286.7844 -5.9975167,288.36786 -6,290 c 0.00203,1.34362 0.33878,2.66017 0.9726562,3.80273 -0.3102918,0.85725 -0.4707259,1.77279 -0.4726562,2.69727 0.00314,1.97045 0.7252057,3.85459 2,5.21875 -0.3292291,0.88132 -0.4991475,1.82649 -0.5,2.78125 1.147e-4,0.18576 0.00663,0.37144 0.019531,0.55664 -0.010566,0.14753 -0.017079,0.29539 -0.019531,0.44336 0.00314,1.74493 0.5703959,3.43005 1.5976562,4.74609 C -3.431185,311.56416 -3.9985494,313.25238 -4,315 c 0.00153,1.4231 0.3785196,2.81423 1.0839844,4 -0.7054648,1.18577 -1.082455,2.5769 -1.0839844,4 0.00253,1.03485 0.2036485,2.05711 0.5898438,2.99805 C -3.7968393,326.94019 -3.9979719,327.96383 -4,329 c 3.74e-4,0.42568 0.034359,0.8505 0.1015625,1.26953 -0.065187,0.40619 -0.099164,0.81784 -0.1015625,1.23047 0.0032,1.48336 0.4142708,2.92994 1.1777344,4.14453 0.2556281,1.22221 0.7913276,2.34946 1.5546875,3.27149 0.77375068,3.1495 3.3397941,5.33332 6.2675781,5.33398 2.2342311,-0.003 4.3105092,-1.28562 5.498047,-3.39648 1.188277,2.11217 3.266333,3.395 5.501953,3.39648 1.792596,-0.003 3.504339,-0.83246 4.730469,-2.29102 1.182471,1.15268 2.699107,1.7889 4.269531,1.79102 2.437229,-0.003 4.668362,-1.52569 5.779297,-3.94531 1.223359,1.84919 3.160308,2.94194 5.220703,2.94531 0.416439,-0.002 0.83176,-0.0482 1.240234,-0.13867 0.414877,0.0918 0.836799,0.13827 1.259766,0.13867 1.912779,-5.6e-4 3.728241,-0.94079 4.962891,-2.57031 1.212159,1.32413 2.840452,2.06713 4.537109,2.07031 3.589851,0 6.5,-3.24594 6.5,-7.25 -0.002,-0.25127 -0.01567,-0.50226 -0.04102,-0.75195 0.01367,7e-4 0.02734,0.001 0.04102,0.002 0.170806,-9.6e-4 0.341511,-0.009 0.511719,-0.0254 -0.0055,0.0917 -0.0094,0.18352 -0.01172,0.27539 0,4.00406 2.910149,7.25 6.5,7.25 2.234231,-0.003 4.310509,-1.28562 5.498047,-3.39648 1.188277,2.11217 3.266333,3.395 5.501953,3.39648 1.680195,-2e-4 3.29505,-0.72608 4.505859,-2.02539 1.207887,1.29619 2.818,2.02182 4.494141,2.02539 2.026522,-0.004 3.935388,-1.06215 5.162109,-2.86133 1.190871,1.19556 2.735674,1.85842 4.337891,1.86133 1.202492,-0.002 2.380949,-0.37575 3.404297,-1.08008 1.165266,2.21437 3.293694,3.57612 5.595703,3.58008 0.59562,-4e-5 1.18841,-0.0914 1.76172,-0.27148 0.56576,0.17774 1.15051,0.26906 1.73828,0.27148 0.61067,-6.7e-4 1.21821,-0.0973 1.80469,-0.28711 1.08597,0.83771 2.37493,1.28666 3.69531,1.28711 3.58985,0 6.5,-3.24594 6.5,-7.25 -0.001,-0.21327 -0.0111,-0.42636 -0.0293,-0.63867 0.34869,-0.90383 0.52878,-1.87737 0.5293,-2.86133 -0.003,-1.52657 -0.43748,-3.01322 -1.24219,-4.24805 0.80541,-1.23591 1.24016,-2.72405 1.24219,-4.25195 -0.001,-3.8323 -2.67595,-7.00177 -6.10547,-7.23438 0.0683,-0.41762 0.1036,-0.84112 0.10547,-1.26562 0,-4.00406 -2.91015,-7.25 -6.5,-7.25 -1.00531,6.6e-4 -1.99679,0.26139 -2.89648,0.76172 -0.856746,-1.20795 -2.036133,-2.08018 -3.367192,-2.49024 0.172985,-0.65657 0.261757,-1.33715 0.263672,-2.02148 0,-4.00406 -2.910149,-7.25 -6.5,-7.25 -3.589851,0 -6.5,3.24594 -6.5,7.25 6.23e-4,1.87696 0.653846,3.6805 1.822266,5.03125 -0.753567,0.5785 -1.389166,1.32791 -1.865235,2.19922 C 84.104598,309.04787 81.320399,306.25356 78,306.25 c -3.589851,0 -6.5,3.24594 -6.5,7.25 0.0017,1.42554 0.380058,2.81891 1.087891,4.00586 C 72.202857,318.44577 72.002414,319.46663 72,320.5 c 0.001,0.0925 0.0036,0.18496 0.0078,0.27734 -1.505311,0.12597 -2.924379,0.8324 -4.013671,1.99805 -0.926199,-0.99225 -2.095166,-1.65625 -3.359375,-1.9082 C 64.873661,320.10627 64.997103,319.30623 65,318.5 c 0,-4.00406 -2.910149,-7.25 -6.5,-7.25 -2.555896,0.003 -4.873215,1.67558 -5.921875,4.27539 C 50.384732,316.75653 49.000543,319.26122 49,322 c 4.03e-4,0.13747 0.0043,0.27489 0.01172,0.41211 C 47.781937,320.73371 45.943366,319.7571 44,319.75 c -0.556736,0.004 -1.11075,0.087 -1.648438,0.24805 -0.43219,-2.2731 -1.815023,-4.1774 -3.71875,-5.1211 C 38.873341,314.11306 38.997454,313.30963 39,312.5 c -0.0023,-2.95973 -1.617277,-5.62077 -4.080078,-6.72266 C 36.543449,304.40831 37.498335,302.27012 37.5,300 37.499832,298.86561 37.261009,297.74709 36.802734,296.73438 38.781323,295.43244 39.996838,293.0623 40,290.5 c 0,-4.00406 -2.910149,-7.25 -6.5,-7.25 -2.174265,0.001 -4.203924,1.21521 -5.408203,3.23438 -0.565131,-1.69991 -1.680778,-3.10196 -3.126953,-3.92969 C 27.909653,281.79493 29.996328,278.87132 30,275.5 c -0.0032,-1.7539 -0.576411,-3.44703 -1.613281,-4.76562 1.208841,-0.0822 2.373042,-0.53953 3.361328,-1.32032 1.096689,0.86738 2.407531,1.33413 3.751953,1.33594 0.465249,-0.003 0.928843,-0.0622 1.382812,-0.17578 C 36.632096,271.35254 36.502624,272.17297 36.5,273 c 0,4.00406 2.910149,7.25 6.5,7.25 1.97102,-0.003 3.834519,-1.00259 5.066406,-2.71875 -0.04153,0.3209 -0.06372,0.64454 -0.06641,0.96875 0,4.00406 2.910149,7.25 6.5,7.25 3.589851,0 6.5,-3.24594 6.5,-7.25 0,-4.00406 -2.910149,-7.25 -6.5,-7.25 -1.97102,0.003 -3.834519,1.00259 -5.066406,2.71875 0.04153,-0.3209 0.06372,-0.64454 0.06641,-0.96875 -0.0039,-3.31335 -2.021153,-6.20219 -4.900391,-7.01758 C 45.504133,264.70588 45.99738,263.12708 46,261.5 c 0,-4.00406 -2.910149,-7.25 -6.5,-7.25 -0.320473,0.002 -0.640355,0.031 -0.957031,0.0859 -0.507428,-1.42603 -1.407363,-2.63574 -2.570313,-3.45508 C 35.684564,247.13205 32.873288,244.25208 29.5,244.25 c -1.219474,0.001 -2.414064,0.3849 -3.447266,1.10742 -0.540649,-1.53591 -1.534847,-2.82016 -2.818359,-3.64062 C 22.012249,239.85517 20.068645,238.75355 18,238.75 c -0.01497,6.1e-4 -0.02995,0.001 -0.04492,0.002 0.02665,-0.24963 0.04165,-0.50063 0.04492,-0.752 -5e-5,-1.1314 -0.237502,-2.24709 -0.693359,-3.25781 0.453736,-1.006 0.691129,-2.11606 0.693359,-3.24219 -0.002,-2.70819 -1.357069,-5.18936 -3.513672,-6.43359 -0.01618,-0.29753 -0.04879,-0.59367 -0.09766,-0.88672 C 16.319318,222.86412 17.497779,220.52347 17.5,218 c -0.0021,-0.0521 -0.0047,-0.1042 -0.0078,-0.15625 1.187283,2.11788 3.268384,3.40492 5.507812,3.40625 3.589851,0 6.5,-3.24594 6.5,-7.25 -0.0032,-2.26913 -0.958748,-4.40569 -2.582031,-5.77344 1.017672,-1.31345 1.579029,-2.99059 1.582031,-4.72656 -0.0026,-2.73048 -1.380305,-5.22779 -3.564453,-6.46094 -0.349289,-2.89275 -2.219803,-5.26976 -4.746094,-6.03125 C 21.34856,189.66084 21.997102,187.86703 22,186 c -0.0045,-3.60639 -2.384752,-6.66083 -5.585938,-7.16797 C 15.900915,175.32562 13.185285,172.75057 10,172.75 c -0.8564864,0.002 -1.704106,0.19355 -2.4941406,0.5625 C 6.7121849,172.94186 5.8604322,172.75066 5,172.75 Z m 12.46875,35.9375 c 0.192868,0.20722 0.397033,0.40095 0.611328,0.58008 C 17.061933,210.58287 16.501201,212.26229 16.5,214 c 0.0014,0.0567 0.0033,0.11331 0.0059,0.16992 -0.232303,-0.42092 -0.502589,-0.81425 -0.80664,-1.17383 1.005916,-1.17455 1.629068,-2.69185 1.769531,-4.30859 z M 208,243.25 c -3.58985,0 -6.5,3.24594 -6.5,7.25 0.004,3.01965 1.68533,5.72043 4.2207,6.7793 -0.0972,0.15287 -0.18908,0.30989 -0.27539,0.4707 -1.13182,-0.96951 -2.51824,-1.49663 -3.94531,-1.5 -0.72226,0.002 -1.43911,0.13903 -2.12109,0.4043 C 198.18332,255.43255 196.6215,254.75334 195,254.75 l -0.008,0 c -0.12073,-3.90273 -2.99111,-6.99763 -6.49219,-7 -3.58985,0 -6.5,3.24594 -6.5,7.25 0.002,1.85696 0.64197,3.64243 1.78906,4.98828 -1.44947,1.375 -2.28598,3.38937 -2.28887,5.51172 0.002,1.60454 0.48039,3.16315 1.36133,4.43164 -1.19073,1.35301 -1.8589,3.17244 -1.86133,5.06836 0,4.00406 2.91015,7.25 6.5,7.25 0.17081,-9.6e-4 0.34151,-0.009 0.51172,-0.0254 -0.005,0.0917 -0.009,0.18353 -0.0117,0.2754 0.001,2.16812 0.87275,4.22174 2.375,5.59766 -0.24571,0.77142 -0.3725,1.58369 -0.375,2.40234 0.003,2.98395 1.64454,5.66118 4.13672,6.74609 -2.49456,1.08595 -4.13675,3.76711 -4.13672,6.75391 0,4.00406 2.91015,7.25 6.5,7.25 0.53223,-0.002 1.06224,-0.0767 1.57812,-0.22266 -0.379,0.93414 -0.57604,1.94732 -0.57812,2.97266 0.002,2.96206 1.62025,5.62452 4.08594,6.72461 -0.23159,0.19181 -0.45148,0.40061 -0.65821,0.625 -1.0283,-0.71585 -2.21558,-1.09673 -3.42773,-1.09961 -1.09297,0.002 -2.16777,0.31198 -3.125,0.90039 -1.19512,-1.21932 -2.75532,-1.89703 -4.375,-1.90039 -0.18456,0.002 -0.36897,0.0121 -0.55273,0.0312 1.30833,-1.36904 2.0512,-3.28031 2.05273,-5.28125 0,-4.00406 -2.91015,-7.25 -6.5,-7.25 -1.6802,2e-4 -3.29505,0.72608 -4.50586,2.02539 -1.20789,-1.29618 -2.818,-2.02182 -4.49414,-2.02539 -3.18307,0.004 -5.89541,2.57806 -6.4082,6.08203 -1.2321,0.8494 -2.17455,2.13349 -2.67774,3.64844 -2.38527,0.6707 -4.22674,2.78581 -4.75781,5.46484 -0.82301,-1.62466 -2.17596,-2.8328 -3.77734,-3.37304 0.3901,-0.92681 0.59978,-1.93527 0.61523,-2.95899 1.87234,-1.33135 3.00583,-3.63663 3.00586,-6.11328 -0.003,-2.80289 -1.45386,-5.35289 -3.72656,-6.54883 1.41196,-1.37413 2.22354,-3.36108 2.22656,-5.45117 2e-5,-2.9131 -1.56318,-5.5433 -3.96875,-6.67773 -1.14663,-1.01555 -2.56709,-1.56956 -4.03125,-1.57227 -0.7741,0.004 -1.54136,0.16196 -2.26562,0.4668 -0.98393,-0.6318 -2.09906,-0.96512 -3.23438,-0.9668 -0.20288,0.002 -0.40558,0.0142 -0.60742,0.0371 0.0701,-0.42461 0.10605,-0.85536 0.10742,-1.28711 -0.003,-0.27885 -0.0195,-0.55731 -0.0508,-0.83398 3.18657,-0.52466 5.548,-3.57326 5.55078,-7.16602 0,-4.00406 -2.91015,-7.25 -6.5,-7.25 -3.58985,0 -6.5,3.24594 -6.5,7.25 0.003,0.27885 0.0195,0.55731 0.0508,0.83398 -3.18658,0.52465 -5.54802,3.57325 -5.5508,7.16602 0.001,2.6905 1.33808,5.15902 3.47266,6.41211 -1.85286,1.33521 -2.97213,3.62744 -2.97266,6.08789 0.003,2.02078 0.76182,3.94851 2.09375,5.31836 -0.0601,0.39036 -0.0915,0.78556 -0.0937,1.18164 9.5e-4,0.11335 0.004,0.22666 0.01,0.33984 -3.1684,0.54461 -5.50768,3.58446 -5.51,7.16016 0.003,2.56027 1.21561,4.92921 3.19141,6.23242 -2.52025,1.06802 -4.18779,3.76048 -4.19141,6.76758 0.003,0.76329 0.11342,1.52133 0.32812,2.24609 -0.21543,0.72725 -0.32617,1.48799 -0.32812,2.25391 3.7e-4,0.42568 0.0344,0.8505 0.10156,1.26953 -0.0652,0.40619 -0.0992,0.81784 -0.10156,1.23047 0.002,0.96076 0.17538,1.91147 0.50977,2.79688 -0.004,0.0677 -0.007,0.13537 -0.01,0.20312 0,4.00406 2.91015,7.25 6.5,7.25 2.34175,-0.002 4.50172,-1.40797 5.6543,-3.68164 0.28002,-0.25909 0.54005,-0.54394 0.77734,-0.85156 0.18893,0.0203 0.37856,0.0314 0.56836,0.0332 1.34309,-0.003 2.65245,-0.46941 3.74805,-1.33594 1.09669,0.86738 2.40753,1.33413 3.75195,1.33594 1.80162,-0.004 3.52109,-0.84104 4.74805,-2.3125 1.22789,1.47257 2.94898,2.31012 4.75195,2.3125 1.89524,-0.001 3.69564,-0.9249 4.92969,-2.5293 1.17199,2.18619 3.28661,3.52599 5.57031,3.5293 0.85649,-0.002 1.70411,-0.19355 2.49414,-0.5625 0.79367,0.37064 1.64543,0.56184 2.50586,0.5625 0.59562,-4e-5 1.18841,-0.0914 1.76172,-0.27148 0.56576,0.17774 1.15051,0.26906 1.73828,0.27148 1.34976,-0.003 2.66517,-0.47479 3.76367,-1.34961 1.1271,2.36728 3.33323,3.8478 5.73633,3.84961 1.68111,-1.6e-4 3.29679,-0.72679 4.50781,-2.02734 0.16369,0.0161 0.32788,0.0252 0.49219,0.0273 0.17604,-0.001 0.35196,-0.0103 0.52734,-0.0273 0.1572,0.0155 0.31486,0.0246 0.47266,0.0273 0.73693,-0.003 1.46806,-0.14556 2.16211,-0.42188 1.23065,1.53766 2.98992,2.41836 4.83789,2.42188 2.43723,-0.003 4.66836,-1.52569 5.7793,-3.94531 0.7113,0.2917 1.46285,0.4424 2.2207,0.44531 1.7926,-0.003 3.50434,-0.83246 4.73047,-2.29102 1.18247,1.15268 2.69911,1.78889 4.26953,1.79102 0.14532,-4.3e-4 0.29058,-0.006 0.43555,-0.0176 1.17352,2.17969 3.28496,3.51445 5.56445,3.51758 2.07792,-0.003 4.02911,-1.1148 5.25,-2.99023 1.22089,1.87543 3.17208,2.98677 5.25,2.99023 1.24268,1.3e-4 2.45936,-0.39707 3.50586,-1.14453 1.04315,0.74507 2.25545,1.14217 3.49414,1.14453 3.58985,0 6.5,-3.24594 6.5,-7.25 -0.002,-0.82206 -0.1296,-1.63772 -0.37695,-2.41211 1.20069,-1.35502 1.87495,-3.18273 1.87695,-5.08789 -5.9e-4,-2.1165 -0.83034,-4.12704 -2.27148,-5.50391 1.43928,-1.37509 2.26885,-3.38232 2.27148,-5.49609 -0.003,-1.73502 -0.56351,-3.41136 -1.58008,-4.72461 1.62304,-1.36861 2.57787,-3.50596 2.58008,-5.77539 -0.002,-2.7037 -1.35277,-5.1815 -3.50391,-6.42773 0.001,-0.0241 0.003,-0.0482 0.004,-0.0723 -0.002,-0.28607 -0.02,-0.57172 -0.0527,-0.85547 0.13409,0.0275 0.26892,0.0503 0.40429,0.0684 0.21545,0.0244 0.43185,0.0368 0.64841,0.0371 3.58985,0 6.5,-3.24594 6.5,-7.25 -0.003,-3.10724 -1.78061,-5.86698 -4.41992,-6.86133 1.22757,-1.35966 1.91854,-3.20905 1.91992,-5.13867 -0.003,-1.779 -0.59264,-3.49461 -1.65625,-4.82031 C 254.5768,274.7076 256.99597,271.63686 257,268 c -0.004,-3.79405 -2.62915,-6.94335 -6.02148,-7.22266 -1.13768,-0.98703 -2.53721,-1.5243 -3.97852,-1.52734 -0.83502,0.002 -1.66194,0.18262 -2.43555,0.5332 -0.18763,-0.0202 -0.37596,-0.0313 -0.56445,-0.0332 -0.59562,4e-5 -1.18841,0.0914 -1.76172,0.27148 -0.56576,-0.17774 -1.15051,-0.26906 -1.73828,-0.27148 -0.59562,4e-5 -1.18841,0.0914 -1.76172,0.27148 -0.56576,-0.17774 -1.15051,-0.26906 -1.73828,-0.27148 -0.0997,0.001 -0.19931,0.005 -0.29883,0.0117 -0.067,-0.005 -0.13406,-0.009 -0.20117,-0.0117 -2.1122,0.003 -4.09121,1.15133 -5.30664,3.07812 -0.77525,-2.75131 -2.93878,-4.72848 -5.50977,-5.03515 -0.85987,-3.00102 -3.35896,-5.03913 -6.18359,-5.04297 -1.94018,0.002 -3.7782,0.97025 -5.01172,2.64062 -0.38105,-0.2695 -0.78623,-0.49402 -1.20898,-0.66992 0.79217,-1.23014 1.21905,-2.70612 1.2207,-4.2207 0,-4.00406 -2.91015,-7.25 -6.5,-7.25 z m -194.505859,7.96484 c 0.264124,0.28695 0.549659,0.54831 0.853515,0.78125 -0.365183,-0.20021 -0.746413,-0.36172 -1.138672,-0.48242 0.09772,-0.0964 0.192815,-0.19605 0.285157,-0.29883 z m 3.287109,3.07813 c 0.160441,0.10083 0.324652,0.19402 0.492188,0.2793 -0.04933,0.10804 -0.09622,0.21745 -0.140626,0.32812 -0.108057,-0.20887 -0.225391,-0.41159 -0.351562,-0.60742 z M 171.5,259.25 c -3.58985,0 -6.5,3.24594 -6.5,7.25 0.001,0.92645 0.16171,1.84404 0.47266,2.70312 -0.63294,1.14087 -0.96965,2.45525 -0.97266,3.79688 0,4.00406 2.91015,7.25 6.5,7.25 3.58985,0 6.5,-3.24594 6.5,-7.25 -0.001,-0.92645 -0.16171,-1.84404 -0.47266,-2.70312 0.63294,-1.14087 0.96965,-2.45525 0.97266,-3.79688 0,-4.00406 -2.91015,-7.25 -6.5,-7.25 z m -153.525391,3.33984 c 0.05908,0.0782 0.119643,0.15508 0.181641,0.23047 -0.06979,0.008 -0.13946,0.017 -0.208984,0.0274 0.01049,-0.0858 0.01961,-0.1717 0.02734,-0.25782 z m 210.595701,8.46485 c -0.0277,0.0718 -0.0545,0.14405 -0.0801,0.21679 -0.0303,-0.0329 -0.0609,-0.0654 -0.0918,-0.0976 0.0578,-0.0387 0.11514,-0.0784 0.17187,-0.11914 z m -25.70703,8.30859 c 0.12014,0.38913 0.26977,0.76614 0.44727,1.12695 -1.15953,1.34746 -1.8081,3.14206 -1.81055,5.00977 7.2e-4,0.13095 0.005,0.26186 0.0117,0.39258 -0.26624,-0.3612 -0.56319,-0.69283 -0.8867,-0.99024 0.24571,-0.77142 0.3725,-1.58369 0.375,-2.40234 -0.002,-0.58144 -0.0671,-1.16047 -0.19336,-1.72461 0.75861,-0.32327 1.4562,-0.80224 2.05664,-1.41211 z m -185.876952,0.3418 c 0.803635,0.86591 1.793828,1.48612 2.875,1.80078 0.216514,0.16141 0.441529,0.30815 0.673828,0.43945 -1.932229,0.49977 -3.554124,1.95624 -4.404297,3.95508 -0.208982,-0.40757 -0.452966,-0.79153 -0.728515,-1.14648 C 16.431185,283.43584 16.998549,281.74762 17,280 c -0.0028,-0.0984 -0.0073,-0.19673 -0.01367,-0.29492 z M 220.05469,282.25 c 0.45989,0.39427 0.96502,0.71811 1.50195,0.96289 -0.9564,1.00115 -1.61888,2.3016 -1.90039,3.73047 -0.71679,-0.81781 -1.59688,-1.43488 -2.56836,-1.80078 1.23345,-0.59857 2.27003,-1.60921 2.9668,-2.89258 z m 19.9375,0.004 c 0.22727,0.6191 0.53028,1.20013 0.90039,1.72656 -0.39075,0.11202 -0.7713,0.26437 -1.13672,0.45508 0.15935,-0.62996 0.24147,-1.28109 0.24414,-1.93564 -0.001,-0.0821 -0.004,-0.16412 -0.008,-0.24609 z M 54.5,290.25 c -3.589851,0 -6.5,3.24594 -6.5,7.25 0,4.00406 2.910149,7.25 6.5,7.25 0.174714,-6.2e-4 0.349336,-0.009 0.523438,-0.0254 1.13737,0.98588 2.536123,1.52244 3.976562,1.5254 3.589851,0 6.5,-3.24594 6.5,-7.25 0,-4.00406 -2.910149,-7.25 -6.5,-7.25 -0.174714,6.1e-4 -0.349336,0.009 -0.523438,0.0254 C 57.339191,290.78952 55.940438,290.25296 54.5,290.25 Z m -27.091797,2.76562 c 0.08365,0.25586 0.180156,0.50625 0.289063,0.75 -0.248673,0.1612 -0.487479,0.34063 -0.714844,0.53711 -0.132462,-0.0596 -0.26665,-0.11432 -0.402344,-0.16406 0.309087,-0.34245 0.586523,-0.71869 0.828125,-1.12305 z m 193.904297,0.67774 c 0.85554,3.00643 3.35566,5.05091 6.18359,5.05664 -0.32429,0.8719 -0.49281,1.80605 -0.49609,2.75 0.004,0.63701 0.0824,1.27073 0.23438,1.88477 -0.40667,-0.0887 -0.82001,-0.13383 -1.23438,-0.13477 -1.97102,0.003 -3.83452,1.00259 -5.06641,2.71875 0.0415,-0.3209 0.0637,-0.64454 0.0664,-0.96875 4.2e-4,-2.65589 -1.30117,-5.09945 -3.39258,-6.36914 1.85845,-0.91031 3.22897,-2.7367 3.70508,-4.9375 z m -203.966797,0.36523 c 0.06573,0.0712 0.132801,0.14092 0.201172,0.20899 -0.08679,0.01 -0.173397,0.0215 -0.259766,0.0351 0.0208,-0.081 0.04033,-0.16239 0.05859,-0.24414 z m 182.167967,2.86133 c 0.0127,0.23352 0.0355,0.46621 0.0684,0.69727 -0.23277,-0.13722 -0.47279,-0.25853 -0.71875,-0.36328 0.22213,-0.0979 0.43926,-0.20942 0.65039,-0.33399 z m -50.24219,5.86914 c 0.22524,0.145 0.45808,0.27479 0.69727,0.38867 0.38816,0.34285 0.81016,0.63511 1.25781,0.8711 -0.13893,0.13743 -0.27252,0.28145 -0.40039,0.43164 -0.72461,-0.39131 -1.50808,-0.62906 -2.31055,-0.70117 -0.0829,-0.22779 -0.1761,-0.45074 -0.27929,-0.66797 0.35243,-0.0754 0.69867,-0.18316 1.03515,-0.32227 z m -120.753902,3.90821 c 0.02079,0.009 0.04163,0.017 0.0625,0.0254 -1.18523,1.00258 -2.026298,2.42826 -2.382812,4.03906 -0.0657,-0.005 -0.131461,-0.009 -0.197266,-0.0117 -0.16948,4.3e-4 -0.33888,0.008 -0.507812,0.0234 C 25.467355,309.8983 25.3006,309.0354 25,308.22656 c 1.282352,-0.11037 2.506525,-0.64258 3.517578,-1.52929 z m 191.048832,2.83398 c -0.0233,0.1932 -0.0396,0.38737 -0.0488,0.58203 -0.10853,-0.0384 -0.21794,-0.0735 -0.32813,-0.10547 0.13184,-0.15263 0.25761,-0.31164 0.37696,-0.47656 z m -74.23633,8.07227 c 0.34958,0.17467 0.71232,0.31454 1.08398,0.41796 0.38749,1.17078 1.03938,2.21017 1.89258,3.01758 -0.58703,-0.19065 -1.19524,-0.28796 -1.80664,-0.28906 -0.77019,0.001 -1.53402,0.15551 -2.25586,0.45508 -0.18219,-0.0743 -0.36727,-0.13947 -0.55469,-0.19531 0.81325,-0.94882 1.3803,-2.12611 1.64063,-3.40625 z m -60.357424,3.48437 c 0.280037,0.38098 0.59416,0.72913 0.9375,1.03906 -0.515636,0.31439 -0.990667,0.70532 -1.412109,1.16211 0.260568,-0.70148 0.420723,-1.44425 0.474609,-2.20117 z m 100.595704,0.12891 c -0.1456,0.14844 -0.28507,0.3042 -0.41797,0.46679 -0.0472,-0.14634 -0.0987,-0.29094 -0.1543,-0.43359 l 0.004,0 c 0.1898,-0.002 0.37943,-0.0129 0.56836,-0.0332 z m -102.560548,4.5039 c -0.09932,0.26175 -0.184754,0.5298 -0.255859,0.80274 -0.03905,-0.14272 -0.08204,-0.28407 -0.128906,-0.42383 0.132678,-0.1206 0.261033,-0.24701 0.384765,-0.37891 z m -71.878906,6.48828 c -0.231279,0.29316 -0.440945,0.60668 -0.626953,0.9375 -0.18749,-0.32896 -0.39846,-0.64051 -0.6308592,-0.93164 0.2090032,0.0231 0.4188842,0.0348 0.6289062,0.0352 0.210106,-0.002 0.419988,-0.016 0.628906,-0.041 z" inkscape:connector-curvature="0" />
</g>
<g inkscape:groupmode="layer" id="routes_layer" inkscape:label="Routes" style="display:inline" sodipodi:insensitive="true" >
  <path style="display:inline;fill:none;stroke:#000000;stroke-width:2;stroke-linecap:round;stroke-miterlimit:4;stroke-dasharray:0.1, 5;stroke-dashoffset:0;stroke-opacity:1" d="M 154.62079,153.53574 C 179.51922,126.69545 211.83274,118.125 230.625,118.125 l 16.875,0 M 84.375,5e-7 84.375,11.25 c 0,3.75 1.64508,10.050158 1.76777,13.194544 0.92984,23.831377 32.41715,67.090996 -2.9919,74.684878 C 55.019325,105.16256 59.63093,124.47457 46.56739,146.15927 38.54172,159.4814 28.88086,168.75 16.875,168.75 L 1e-7,168.75 M 37.485143,158.72245 c 11.05193,3.25 18.787023,35.06417 19.907733,40.78427 3.4105,17.40722 24.003284,15.01759 25.765234,37.58284 1.034756,13.2521 24.41825,12.51952 14.6905,45.58633 C 93.54095,297.31858 123.75,306.12931 123.75,326.25 l 0,11.25" inkscape:connector-curvature="0" />
</g>
<g inkscape:groupmode="layer" id="labels_layer" inkscape:label="Labels" style="display:inline" sodipodi:insensitive="true" >
  <text xml:space="preserve"><textPath xlink:href="#mutiny_bay"><tspan
  style="-inkscape-font-specification:'CCTreasureTroveAged Mod, Normal';font-family:'CCTreasureTroveAged Mod';font-weight:normal;font-style:normal;font-stretch:normal;font-variant:normal;font-size:8.75px;text-anchor:start;text-align:start;writing-mode:lr;line-height:125%"
  >Mutiny Bay</tspan></textPath></text>
</g>
<g inkscape:groupmode="layer" id="labels_guide_layer" inkscape:label="Labels Guide" style="display:none" sodipodi:insensitive="true" >
  <path id="mutiny_bay" style="color:#000000;fill:none;stroke:#000000;stroke-width:1;stroke-opacity:1" d="M 89.254907,193.40274 C 83.532244,171.18002 88.95053,148.99311 99.051784,136.50228" inkscape:connector-curvature="0" />
</g>
<g inkscape:groupmode="layer" id="resources_layer" inkscape:label="Resources" style="display:inline" sodipodi:insensitive="true" >
  <g id="resource-fish" transform="matrix(-0.68501149,0.72853226,-0.72853226,-0.68501149,66.43319,86.984923)" >
    <path style="color:#000000;clip-rule:nonzero;display:inline;overflow:visible;visibility:visible;opacity:1;isolation:auto;mix-blend-mode:normal;color-interpolation:sRGB;color-interpolation-filters:linearRGB;solid-color:#000000;solid-opacity:1;fill:url(#gradientFish);fill-opacity:1;fill-rule:evenodd;stroke:none;stroke-width:0.89999998;stroke-linecap:round;stroke-linejoin:miter;stroke-miterlimit:4;stroke-dasharray:none;stroke-dashoffset:0;stroke-opacity:1;color-rendering:auto;image-rendering:auto;shape-rendering:auto;text-rendering:auto;enable-background:accumulate" d="m 6.75164,-116.27687 c 2.99065,0.60485 4.49367,1.24794 5.89266,2.66121 2.45016,2.47513 3.25045,6.5505 3.25045,6.5505 l -3.54035,0.49898 2.97008,0.83162 c -1.40188,1.23555 -2.8637,2.14124 -4.39572,2.68497 -2.28163,0.80975 -5.89735,1.19916 -8.27072,0.72096 -2.52003,-0.50774 -4.93787,-1.71891 -6.65678,-2.93199 -1.70292,-1.2018 -2.32599,-2.77049 -4.34245,-2.71421 -2.02435,0.0566 -3.06024,1.36024 -6.2744,2.54392 0.98841,-2.25668 1.48644,-4.44986 1.47742,-4.77248 -0.0131,-0.47021 -0.60937,-2.94625 -1.71029,-5.74037 4.56815,1.9526 4.13574,3.93892 6.7876,4.01568 1.65013,0.0477 2.8784,-2.27892 4.84548,-3.01143 0,0 0.0925,-0.76339 -0.85797,-2.09399 2.125,-1.125 5.3749,-2.84347 9.18238,-2.11673 0.63846,0.67205 1.20575,1.59646 1.64258,2.87336 z" inkscape:connector-curvature="0" />
    <path style="color:#000000;font-style:normal;font-variant:normal;font-weight:normal;font-stretch:normal;font-size:medium;line-height:normal;font-family:sans-serif;text-indent:0;text-align:start;text-decoration:none;text-decoration-line:none;text-decoration-style:solid;text-decoration-color:#000000;letter-spacing:normal;word-spacing:normal;text-transform:none;direction:ltr;block-progression:tb;writing-mode:lr-tb;baseline-shift:baseline;text-anchor:start;white-space:normal;clip-rule:nonzero;display:inline;overflow:visible;visibility:visible;opacity:1;isolation:auto;mix-blend-mode:normal;color-interpolation:sRGB;color-interpolation-filters:linearRGB;solid-color:#000000;solid-opacity:1;fill:#000000;fill-opacity:1;fill-rule:evenodd;stroke:none;stroke-width:0.89999998;stroke-linecap:round;stroke-linejoin:miter;stroke-miterlimit:4;stroke-dasharray:none;stroke-dashoffset:0;stroke-opacity:1;color-rendering:auto;image-rendering:auto;shape-rendering:auto;text-rendering:auto;enable-background:accumulate" d="m 3.75195,-119.76758 c -0.55834,-0.0162 -1.08956,0.007 -1.41992,0.0332 -3.44102,0.26924 -4.79186,1.37793 -7.48633,2.26368 0.80029,0.66264 1.38172,1.65445 1.58985,2.40625 -0.74252,0.46927 -1.56885,1.06749 -2.34375,1.66992 -0.78694,0.61179 -1.52805,1.08797 -2.13868,1.07031 -1.213,-0.0351 -1.55439,-0.52183 -2.3789,-1.23633 -1.98577,-1.72081 -3.07464,-2.29632 -5.23438,-3.2207 0.86297,2.18173 2.04317,4.50407 2.07227,6.58984 0.0263,1.88626 -1.13742,3.87948 -1.86328,5.54883 1.62081,-0.53562 3.22001,-1.34059 4.6289,-2.08398 0.89906,-0.47438 1.57632,-0.77317 2.49415,-0.79883 0.89038,-0.0249 1.40182,0.27656 1.98242,0.77734 0.25085,0.21637 0.51534,0.48279 0.79687,0.75586 -0.25647,0.40556 -0.79615,0.53695 -1.76562,1.10352 1.95514,0.58994 2.59141,1.85091 4.15625,2.49414 0.55665,-0.25793 1.08128,-0.52946 1.29882,-1.08594 1.28379,0.64871 2.70563,1.21308 4.19922,1.53906 0.0372,0.49232 -0.0779,0.96218 -0.52343,1.75 1.8525,-0.13727 3.11482,-0.49129 3.85351,-1.48437 1.90282,-0.0616 3.90491,-0.41501 5.41016,-0.94922 1.59542,-0.56623 3.08878,-1.52586 4.54297,-2.77148 0.22554,-0.1932 0.55832,-0.5479 0.15234,-0.66602 l -1.22851,-0.35742 1.51367,-0.22656 c 0.18187,-0.0272 0.35546,-0.2168 0.27734,-0.50586 -0.0502,-0.18564 -0.78361,-4.16347 -3.37305,-6.7793 -1.42433,-1.43886 -3.05654,-2.12894 -5.92382,-2.72852 -0.4724,-1.08092 -0.97717,-2.12518 -1.70508,-2.90429 -0.44021,-0.13092 -1.02565,-0.18691 -1.58399,-0.20313 z m -0.1289,0.86719 c 0.40991,0.0169 0.81105,0.0568 1.19922,0.10547 0.77961,0.94104 1.28338,2.04784 1.60937,2.96875 2.1946,0.39918 4.6041,1.23544 5.89453,2.52734 2.08816,2.09053 2.83239,5.19206 2.98633,5.86133 l -3.01953,0.42578 c -0.44473,0.0627 -0.45389,0.76792 -0.0586,0.87891 l 1.98242,0.55664 c -1.12071,0.87174 -2.24918,1.67981 -3.4375,2.10156 -0.33815,0.12001 -0.71912,0.22666 -1.11524,0.32617 -2.33138,-1.12461 -3.38072,-3.76269 -3.66601,-5.20312 -0.15295,-0.77226 -0.48459,-1.00055 -0.26758,0.46094 0.277,1.86552 1.35587,3.78888 2.74609,4.99218 -1.94553,0.34633 -4.16617,0.4437 -5.72851,0.12891 -2.43884,-0.49138 -4.81456,-1.67957 -6.48633,-2.85938 -0.79723,-0.56263 -1.35875,-1.23084 -2.01953,-1.80078 -0.66079,-0.56995 -1.57913,-0.96766 -2.54883,-0.93164 -0.96571,0.0359 -2.00556,0.34944 -2.93359,0.83789 -0.68049,0.35816 -1.62451,0.79789 -2.58789,1.22461 0.58514,-1.36212 1.15509,-2.85368 1.14062,-3.91797 -0.0229,-1.68436 -0.84568,-3.32406 -1.36523,-4.77929 1.43808,0.75542 2.36518,1.48293 3.00781,2.08984 0.79559,0.75138 1.70527,1.34121 2.9414,1.36523 0.8676,0.0169 1.85414,-0.60951 2.64454,-1.26171 1.07222,-0.88474 2.37395,-1.75346 3.82031,-2.3125 0.84286,-0.32579 2.17657,-0.81342 1.5664,-0.90821 -0.63083,-0.098 -1.90673,0.29013 -2.74804,0.65625 -0.21144,-0.67843 -0.52851,-1.28134 -0.85547,-1.77148 1.86816,-0.59893 2.90957,-1.50638 6.04687,-1.72852 0.42336,-0.0441 0.84204,-0.0501 1.25196,-0.0332 z" inkscape:connector-curvature="0" />
    <path style="color:#000000;clip-rule:nonzero;display:inline;overflow:visible;visibility:visible;opacity:1;isolation:auto;mix-blend-mode:normal;color-interpolation:sRGB;color-interpolation-filters:linearRGB;solid-color:#000000;solid-opacity:1;fill:#000000;fill-opacity:1;fill-rule:evenodd;stroke:none;stroke-width:0.89999998;stroke-linecap:round;stroke-linejoin:miter;stroke-miterlimit:4;stroke-dasharray:none;stroke-dashoffset:0;stroke-opacity:1;color-rendering:auto;image-rendering:auto;shape-rendering:auto;text-rendering:auto;enable-background:accumulate" d="m 4.14858,-108.59983 c -0.47489,-0.30307 -1.53655,-0.90869 -2.26472,-0.88862 -0.0804,0.002 -0.2543,0.14712 -0.15844,0.31108 0.47438,0.81135 0.88194,1.78963 0.81744,2.88053 -0.01,0.15682 0.0463,0.31282 0.28149,0.29908 0.85805,-0.0503 1.22499,-0.14313 1.82534,-0.42991 0.33162,-0.1584 0.28985,0.0295 -0.17284,0.32399 -0.42638,0.27143 -1.15747,0.57467 -1.60626,0.62419 -0.57111,0.063 -0.86938,-0.30115 -0.85559,-0.49509 0.0664,-0.93438 -0.40775,-2.23989 -0.84996,-3.00389 -0.64912,-1.12144 0.5114,-1.14367 1.04743,-1.03991 0.57353,0.11103 1.54086,0.51965 2.36735,1.37318 0.31578,0.3261 0.0887,0.37724 -0.43124,0.0454 z" inkscape:connector-curvature="0" />
    <ellipse cx="35.346939" cy="-105.813170" rx="0.855386" ry="1.092993" style="opacity:1;fill:#000000;fill-opacity:1;fill-rule:nonzero;stroke:none;stroke-width:0.89999998;stroke-linecap:butt;stroke-linejoin:round;stroke-miterlimit:4;stroke-dasharray:none;stroke-dashoffset:0;stroke-opacity:1" transform="matrix(0.97605309,-0.21753245,0.21753245,0.97605309,0,0)" />
  </g>
</g>
<g inkscape:groupmode="layer" id="extras_layer" inkscape:label="Extras" style="display:inline" sodipodi:insensitive="true" >
  <g id="extra-ship" transform="matrix(0.4444171,-0.89581998,0.89581998,0.4444171,266.30938,417.60566)" >
    <path style="color:#000000;fill:url(#gradientShip);fill-opacity:1;fill-rule:evenodd;stroke:#000000;stroke-width:0.75;stroke-linecap:butt;stroke-linejoin:round;stroke-miterlimit:4;stroke-dasharray:none;stroke-dashoffset:0;stroke-opacity:1;marker:none;enable-background:accumulate" d="m 243.2364,-52.722824 c -3.10208,-2.937202 -8.72518,-3.346714 -12.49116,-3.032742 -2.95307,0.246202 -6.62512,1.070872 -6.62512,1.070872 l -0.0121,3.725952 c 0,0 2.43298,0.582421 6.39007,0.932887 3.66202,0.324334 9.61676,-0.283241 12.73834,-2.696969 z" inkscape:connector-curvature="0" />
    <path style="color:#000000;opacity:1;isolation:auto;mix-blend-mode:normal;color-interpolation:sRGB;color-interpolation-filters:linearRGB;solid-color:#000000;solid-opacity:1;fill:#000000;fill-opacity:1;fill-rule:evenodd;stroke:none;stroke-width:0.75;stroke-linecap:round;stroke-linejoin:round;stroke-miterlimit:4;stroke-dasharray:none;stroke-dashoffset:0;stroke-opacity:1;marker:none;color-rendering:auto;image-rendering:auto;shape-rendering:auto;text-rendering:auto;enable-background:accumulate" d="m 243.05273,-53.089844 c -0.50461,-0.01007 -0.51271,0.749303 -0.008,0.75 l 2.80546,-0.143551 c 0.50461,0.01007 0.51856,-0.385922 0.0138,-0.386619 z" inkscape:connector-curvature="0" />
    <circle cx="37.651787" cy="-233.087830" r="0.695206" style="color:#000000;opacity:1;isolation:auto;mix-blend-mode:normal;color-interpolation:sRGB;color-interpolation-filters:linearRGB;solid-color:#000000;solid-opacity:1;fill:#a66e00;fill-opacity:1;fill-rule:nonzero;stroke:#000000;stroke-width:0.5;stroke-linecap:butt;stroke-linejoin:miter;stroke-miterlimit:4;stroke-dasharray:none;stroke-dashoffset:0;stroke-opacity:1;color-rendering:auto;image-rendering:auto;shape-rendering:auto;text-rendering:auto;enable-background:accumulate" transform="matrix(0.37654483,0.9263984,-0.9263984,0.37654483,0,0)" />
    <circle cx="39.995537" cy="-238.712830" r="0.695206" style="color:#000000;opacity:1;isolation:auto;mix-blend-mode:normal;color-interpolation:sRGB;color-interpolation-filters:linearRGB;solid-color:#000000;solid-opacity:1;fill:#a66e00;fill-opacity:1;fill-rule:nonzero;stroke:#000000;stroke-width:0.5;stroke-linecap:butt;stroke-linejoin:miter;stroke-miterlimit:4;stroke-dasharray:none;stroke-dashoffset:0;stroke-opacity:1;color-rendering:auto;image-rendering:auto;shape-rendering:auto;text-rendering:auto;enable-background:accumulate" transform="matrix(0.37654483,0.9263984,-0.9263984,0.37654483,0,0)" />
    <path style="color:#000000;fill:#feffff;fill-opacity:1;fill-rule:evenodd;stroke:#000000;stroke-width:0.5;stroke-linecap:butt;stroke-linejoin:round;stroke-miterlimit:4;stroke-dasharray:none;stroke-dashoffset:0;stroke-opacity:1;marker:none;enable-background:accumulate" d="m 230.8139,-58.168744 -0.0696,11.095953 c 0,0 1.11273,-0.901569 1.17305,-2.014949 0.0592,-1.093696 -0.80015,-1.762231 -0.80015,-1.762231 0,0 1.00218,-0.841738 0.9922,-1.921676 -0.0106,-1.140901 -0.9468,-1.722391 -0.9468,-1.722391 0,0 0.80027,-0.5343 0.83406,-1.646805 0.0349,-1.150244 -1.18274,-2.027894 -1.18274,-2.027894 z" inkscape:connector-curvature="0" />
    <path style="color:#000000;fill:#feffff;fill-opacity:1;fill-rule:evenodd;stroke:#000000;stroke-width:0.5;stroke-linecap:butt;stroke-linejoin:round;stroke-miterlimit:4;stroke-dasharray:none;stroke-dashoffset:0;stroke-opacity:1;marker:none;enable-background:accumulate" d="m 236.95087,-57.97366 -0.0645,10.282469 c 0,0 1.03677,-0.785137 1.09267,-1.816887 0.0549,-1.013517 -0.74706,-1.683399 -0.74706,-1.683399 0,0 0.85887,-0.76153 0.84962,-1.762298 -0.01,-1.057255 -0.80754,-1.614603 -0.80754,-1.614603 0,0 0.84013,-0.540128 0.87144,-1.571079 0.0324,-1.065902 -1.19455,-1.834218 -1.19455,-1.834218 z" inkscape:connector-curvature="0" />
    <path style="fill:#000000;stroke:none" d="m 239.16963,-53.312319 -0.0111,0.999645 1.00145,0.01039 0.009,-1.000718 z" inkscape:connector-curvature="0" />
    <path style="fill:#6a4600;stroke:none" d="m 233.00825,-53.641515 -0.0131,1.52646 1.52369,0.01423 0.0142,-1.523703 z" inkscape:connector-curvature="0" />
    <path style="fill:none;stroke:#000000;stroke-width:0.6;stroke-linecap:butt" d="m 227.26126,-55.055042 -0.0734,4.514141" inkscape:connector-curvature="0" />
    <path style="fill:#000000;stroke:none" d="m 223.83649,-54.026834 -0.0111,0.999636 1.00072,0.0086 0.009,-0.998911 z" inkscape:connector-curvature="0" />
    <path style="fill:#000000;stroke:none" d="m 223.85032,-52.581947 -0.0111,0.999637 1.00072,0.0086 0.009,-0.998912 z" inkscape:connector-curvature="0" />
    <path style="fill:none;stroke:#000000;stroke-width:0.5;stroke-linecap:butt;stroke-linejoin:round;stroke-miterlimit:4" d="m 227.2539,-51.578825 1.14997,0.173504 -0.0116,1.05042" inkscape:connector-curvature="0" />
    <path style="fill:none;stroke:#000000;stroke-width:0.5;stroke-linecap:butt;stroke-linejoin:round;stroke-miterlimit:4" d="m 227.25705,-54.143799 1.1481,-0.163064 0.0224,-1.189753" inkscape:connector-curvature="0" />
  </g>
</g>
<g inkscape:groupmode="layer" id="suit_rank_glow_layer" inkscape:label="Suit Rank Glow" style="display:inline" sodipodi:insensitive="true" >
  <g style="opacity:0.75;filter:url(#blurSuitRankGlow)" >
    <path style="fill:#ffffff;fill-opacity:1;stroke:none" d="m 31.453338,20.865025 c -5.068589,2.178218 -11.123659,8.116004 -11.112499,14.56 0.007,3.899493 2.33855,5.215546 4.47125,5.74875 1.25548,0.313886 3.11121,0.211218 4.40125,-0.53375 -0.0977,1.04834 -0.18907,3.221456 -0.21,4.235 1.633329,0 3.266669,0 4.899999,0 -0.0209,-1.013544 -0.11229,-3.18666 -0.21,-4.235 1.29004,0.744968 3.14577,0.847636 4.40125,0.53375 2.1327,-0.533204 4.4645,-1.849257 4.47125,-5.74875 0.0111,-6.443996 -6.04391,-12.381782 -11.1125,-14.56 z" inkscape:connector-curvature="0" />
    <path style="fill:#ffffff;fill-opacity:1;stroke:none" d="m 215.96335,316.63503 c 5.06859,-2.17822 11.12366,-8.11601 11.1125,-14.56 -0.007,-3.8995 -2.33855,-5.21555 -4.47125,-5.74875 -1.25548,-0.31389 -3.11121,-0.21122 -4.40125,0.53375 0.0977,-1.04834 0.18907,-3.22146 0.21,-4.235 -1.63333,0 -3.26667,0 -4.9,0 0.0209,1.01354 0.11229,3.18666 0.21,4.235 -1.29004,-0.74497 -3.14577,-0.84764 -4.40125,-0.53375 -2.1327,0.5332 -4.4645,1.84925 -4.47125,5.74875 -0.0111,6.44399 6.04391,12.38178 11.1125,14.56 z" inkscape:connector-curvature="0" />
    <path style="fill:#ffffff;fill-opacity:1;stroke:none" d="m 41.053328,82.975025 -19.19999,0 0,-3.2 c -10e-6,-2 0.39999,-3.84 1.19999,-5.52 0.8,-1.7066 1.84,-3.1466 3.12,-4.32 0.74666,-0.6666 1.37333,-1.2 1.88,-1.6 0.50666,-0.4266 0.98666,-0.7866 1.44001,-1.08 0.45332,-0.32 0.90665,-0.6133 1.36,-0.88 0.47998,-0.2933 1.05332,-0.6533 1.72,-1.08 0.82665,-0.5333 1.57331,-0.9866 2.23999,-1.36 0.66666,-0.3733 1.21332,-0.76 1.64001,-1.16 0.45331,-0.4266 0.79998,-0.9066 1.04,-1.44 0.23998,-0.56 0.35998,-1.28 0.36,-2.16 -2e-5,-0.88 -0.17336,-1.64 -0.52,-2.28 -0.32002,-0.6666 -0.77335,-1.2133 -1.36,-1.64 -0.58669,-0.4266 -1.26669,-0.7466 -2.04001,-0.96 -0.77334,-0.2133 -1.60001,-0.32 -2.47999,-0.32 -0.88002,0 -1.70668,0.1334 -2.48,0.4 -0.77335,0.24 -1.45335,0.5867 -2.04001,1.04 -0.58667,0.4534 -1.05333,1 -1.4,1.64 -0.32,0.64 -0.48,1.3467 -0.48,2.12 l 0,0.4 -3.19999,0.04 0,-0.44 c -10e-6,-1.2266 0.25333,-2.3466 0.76,-3.36 0.50666,-1.04 1.18666,-1.9333 2.03999,-2.68 0.88,-0.7466 1.89333,-1.32 3.04001,-1.72 1.17332,-0.4266 2.42665,-0.64 3.76,-0.64 1.30665,0 2.54665,0.2 3.71999,0.6 1.17332,0.3734 2.18665,0.92 3.04001,1.64 0.87998,0.72 1.57331,1.6 2.07999,2.64 0.50665,1.04 0.75998,2.2134 0.76,3.52 -2e-5,1.6 -0.34668,3.0267 -1.03999,4.28 -0.69336,1.2267 -1.65336,2.2134 -2.88,2.96 -0.93335,0.56 -1.76002,1.04 -2.48001,1.44 -0.69334,0.4 -1.37334,0.8134 -2.03999,1.24 -0.64002,0.4 -1.29335,0.8534 -1.96001,1.36 -0.64,0.5067 -1.36,1.1467 -2.15999,1.92 -0.34668,0.32 -0.72001,0.7334 -1.12,1.24 -0.37335,0.5067 -0.73334,1.08 -1.08001,1.72 -0.32,0.64 -0.58667,1.3333 -0.79999,2.08 -0.21334,0.7467 -0.32001,1.5333 -0.32001,2.36 l 12.68001,0 0,-4 1.6,0 1.59999,0 0,7.2" inkscape:connector-curvature="0" />
    <path style="fill:#ffffff;fill-opacity:1;stroke:none" d="m 206.36335,254.52503 19.19999,0 0,3.2 c 1e-5,2 -0.39999,3.84 -1.19999,5.52 -0.8,1.7066 -1.84,3.1466 -3.12,4.32 -0.74666,0.6666 -1.37333,1.2 -1.88,1.6 -0.50666,0.4266 -0.98666,0.7866 -1.44001,1.08 -0.45332,0.32 -0.90665,0.6133 -1.36,0.88 -0.47998,0.2933 -1.05332,0.6533 -1.72,1.08 -0.82665,0.5333 -1.57331,0.9866 -2.23999,1.36 -0.66666,0.3733 -1.21332,0.76 -1.64001,1.16 -0.45331,0.4266 -0.79998,0.9066 -1.04,1.44 -0.23998,0.56 -0.35998,1.28 -0.36,2.16 2e-5,0.88 0.17336,1.64 0.52,2.28 0.32002,0.6666 0.77335,1.2133 1.36,1.64 0.58669,0.4266 1.26669,0.7466 2.04001,0.96 0.77334,0.2133 1.60001,0.32 2.47999,0.32 0.88002,0 1.70668,-0.1334 2.48,-0.4 0.77335,-0.24 1.45335,-0.5867 2.04001,-1.04 0.58667,-0.4534 1.05333,-1 1.4,-1.64 0.32,-0.64 0.48,-1.3467 0.48,-2.12 l 0,-0.4 3.19999,-0.04 0,0.44 c 1e-5,1.2266 -0.25333,2.3466 -0.76,3.36 -0.50666,1.04 -1.18666,1.9333 -2.03999,2.68 -0.88,0.7466 -1.89333,1.32 -3.04001,1.72 -1.17332,0.4266 -2.42665,0.64 -3.76,0.64 -1.30665,0 -2.54665,-0.2 -3.71999,-0.6 -1.17332,-0.3734 -2.18665,-0.92 -3.04001,-1.64 -0.87998,-0.72 -1.57331,-1.6 -2.07999,-2.64 -0.50665,-1.04 -0.75998,-2.2134 -0.76,-3.52 2e-5,-1.6 0.34668,-3.0267 1.03999,-4.28 0.69336,-1.2267 1.65336,-2.2134 2.88,-2.96 0.93335,-0.56 1.76002,-1.04 2.48001,-1.44 0.69334,-0.4 1.37334,-0.8134 2.03999,-1.24 0.64002,-0.4 1.29335,-0.8534 1.96001,-1.36 0.64,-0.5067 1.36,-1.1467 2.15999,-1.92 0.34668,-0.32 0.72001,-0.7334 1.12,-1.24 0.37335,-0.5067 0.73334,-1.08 1.08001,-1.72 0.32,-0.64 0.58667,-1.3333 0.79999,-2.08 0.21334,-0.7467 0.32001,-1.5333 0.32001,-2.36 l -12.68001,0 0,4 -1.6,0 -1.59999,0 0,-7.2" inkscape:connector-curvature="0" />
  </g>
</g>
<g inkscape:groupmode="layer" id="suit_rank_layer" inkscape:label="Suit Rank" style="display:inline" sodipodi:insensitive="true" >
  <path style="fill:#000000;fill-opacity:1;stroke:none" d="m 31.453338,20.865025 c -5.068589,2.178218 -11.123659,8.116004 -11.112499,14.56 0.007,3.899493 2.33855,5.215546 4.47125,5.74875 1.25548,0.313886 3.11121,0.211218 4.40125,-0.53375 -0.0977,1.04834 -0.18907,3.221456 -0.21,4.235 1.633329,0 3.266669,0 4.899999,0 -0.0209,-1.013544 -0.11229,-3.18666 -0.21,-4.235 1.29004,0.744968 3.14577,0.847636 4.40125,0.53375 2.1327,-0.533204 4.4645,-1.849257 4.47125,-5.74875 0.0111,-6.443996 -6.04391,-12.381782 -11.1125,-14.56 z" inkscape:connector-curvature="0" />
  <path style="fill:#000000;fill-opacity:1;stroke:none" d="m 215.96335,316.63503 c 5.06859,-2.17822 11.12366,-8.11601 11.1125,-14.56 -0.007,-3.8995 -2.33855,-5.21555 -4.47125,-5.74875 -1.25548,-0.31389 -3.11121,-0.21122 -4.40125,0.53375 0.0977,-1.04834 0.18907,-3.22146 0.21,-4.235 -1.63333,0 -3.26667,0 -4.9,0 0.0209,1.01354 0.11229,3.18666 0.21,4.235 -1.29004,-0.74497 -3.14577,-0.84764 -4.40125,-0.53375 -2.1327,0.5332 -4.4645,1.84925 -4.47125,5.74875 -0.0111,6.44399 6.04391,12.38178 11.1125,14.56 z" inkscape:connector-curvature="0" />
  <path style="fill:#000000;fill-opacity:1;stroke:none" d="m 41.053328,82.975025 -19.19999,0 0,-3.2 c -10e-6,-2 0.39999,-3.84 1.19999,-5.52 0.8,-1.7066 1.84,-3.1466 3.12,-4.32 0.74666,-0.6666 1.37333,-1.2 1.88,-1.6 0.50666,-0.4266 0.98666,-0.7866 1.44001,-1.08 0.45332,-0.32 0.90665,-0.6133 1.36,-0.88 0.47998,-0.2933 1.05332,-0.6533 1.72,-1.08 0.82665,-0.5333 1.57331,-0.9866 2.23999,-1.36 0.66666,-0.3733 1.21332,-0.76 1.64001,-1.16 0.45331,-0.4266 0.79998,-0.9066 1.04,-1.44 0.23998,-0.56 0.35998,-1.28 0.36,-2.16 -2e-5,-0.88 -0.17336,-1.64 -0.52,-2.28 -0.32002,-0.6666 -0.77335,-1.2133 -1.36,-1.64 -0.58669,-0.4266 -1.26669,-0.7466 -2.04001,-0.96 -0.77334,-0.2133 -1.60001,-0.32 -2.47999,-0.32 -0.88002,0 -1.70668,0.1334 -2.48,0.4 -0.77335,0.24 -1.45335,0.5867 -2.04001,1.04 -0.58667,0.4534 -1.05333,1 -1.4,1.64 -0.32,0.64 -0.48,1.3467 -0.48,2.12 l 0,0.4 -3.19999,0.04 0,-0.44 c -10e-6,-1.2266 0.25333,-2.3466 0.76,-3.36 0.50666,-1.04 1.18666,-1.9333 2.03999,-2.68 0.88,-0.7466 1.89333,-1.32 3.04001,-1.72 1.17332,-0.4266 2.42665,-0.64 3.76,-0.64 1.30665,0 2.54665,0.2 3.71999,0.6 1.17332,0.3734 2.18665,0.92 3.04001,1.64 0.87998,0.72 1.57331,1.6 2.07999,2.64 0.50665,1.04 0.75998,2.2134 0.76,3.52 -2e-5,1.6 -0.34668,3.0267 -1.03999,4.28 -0.69336,1.2267 -1.65336,2.2134 -2.88,2.96 -0.93335,0.56 -1.76002,1.04 -2.48001,1.44 -0.69334,0.4 -1.37334,0.8134 -2.03999,1.24 -0.64002,0.4 -1.29335,0.8534 -1.96001,1.36 -0.64,0.5067 -1.36,1.1467 -2.15999,1.92 -0.34668,0.32 -0.72001,0.7334 -1.12,1.24 -0.37335,0.5067 -0.73334,1.08 -1.08001,1.72 -0.32,0.64 -0.58667,1.3333 -0.79999,2.08 -0.21334,0.7467 -0.32001,1.5333 -0.32001,2.36 l 12.68001,0 0,-4 1.6,0 1.59999,0 0,7.2" inkscape:connector-curvature="0" />
  <path style="fill:#000000;fill-opacity:1;stroke:none" d="m 206.36335,254.52503 19.19999,0 0,3.2 c 1e-5,2 -0.39999,3.84 -1.19999,5.52 -0.8,1.7066 -1.84,3.1466 -3.12,4.32 -0.74666,0.6666 -1.37333,1.2 -1.88,1.6 -0.50666,0.4266 -0.98666,0.7866 -1.44001,1.08 -0.45332,0.32 -0.90665,0.6133 -1.36,0.88 -0.47998,0.2933 -1.05332,0.6533 -1.72,1.08 -0.82665,0.5333 -1.57331,0.9866 -2.23999,1.36 -0.66666,0.3733 -1.21332,0.76 -1.64001,1.16 -0.45331,0.4266 -0.79998,0.9066 -1.04,1.44 -0.23998,0.56 -0.35998,1.28 -0.36,2.16 2e-5,0.88 0.17336,1.64 0.52,2.28 0.32002,0.6666 0.77335,1.2133 1.36,1.64 0.58669,0.4266 1.26669,0.7466 2.04001,0.96 0.77334,0.2133 1.60001,0.32 2.47999,0.32 0.88002,0 1.70668,-0.1334 2.48,-0.4 0.77335,-0.24 1.45335,-0.5867 2.04001,-1.04 0.58667,-0.4534 1.05333,-1 1.4,-1.64 0.32,-0.64 0.48,-1.3467 0.48,-2.12 l 0,-0.4 3.19999,-0.04 0,0.44 c 1e-5,1.2266 -0.25333,2.3466 -0.76,3.36 -0.50666,1.04 -1.18666,1.9333 -2.03999,2.68 -0.88,0.7466 -1.89333,1.32 -3.04001,1.72 -1.17332,0.4266 -2.42665,0.64 -3.76,0.64 -1.30665,0 -2.54665,-0.2 -3.71999,-0.6 -1.17332,-0.3734 -2.18665,-0.92 -3.04001,-1.64 -0.87998,-0.72 -1.57331,-1.6 -2.07999,-2.64 -0.50665,-1.04 -0.75998,-2.2134 -0.76,-3.52 2e-5,-1.6 0.34668,-3.0267 1.03999,-4.28 0.69336,-1.2267 1.65336,-2.2134 2.88,-2.96 0.93335,-0.56 1.76002,-1.04 2.48001,-1.44 0.69334,-0.4 1.37334,-0.8134 2.03999,-1.24 0.64002,-0.4 1.29335,-0.8534 1.96001,-1.36 0.64,-0.5067 1.36,-1.1467 2.15999,-1.92 0.34668,-0.32 0.72001,-0.7334 1.12,-1.24 0.37335,-0.5067 0.73334,-1.08 1.08001,-1.72 0.32,-0.64 0.58667,-1.3333 0.79999,-2.08 0.21334,-0.7467 0.32001,-1.5333 0.32001,-2.36 l -12.68001,0 0,4 -1.6,0 -1.59999,0 0,-7.2" inkscape:connector-curvature="0" />
</g>
<g inkscape:groupmode="layer" id="guides_layer" inkscape:label="Guides" style="display:none" sodipodi:insensitive="true" >
  <path style="fill:none;stroke:#000000;stroke-width:0.9" d="m 11.250000,11.25 0,-45" inkscape:connector-curvature="0" />
  <path style="fill:none;stroke:#000000;stroke-width:0.9" d="m 11.250000,371.25 0,-45" inkscape:connector-curvature="0" />
  <path style="fill:none;stroke:#000000;stroke-width:0.9" d="m 84.375000,11.25 0,-45" inkscape:connector-curvature="0" />
  <path style="fill:none;stroke:#000000;stroke-width:0.9" d="m 84.375000,371.25 0,-45" inkscape:connector-curvature="0" />
  <path style="fill:none;stroke:#000000;stroke-width:0.9" d="m 123.750000,11.25 0,-45" inkscape:connector-curvature="0" />
  <path style="fill:none;stroke:#000000;stroke-width:0.9" d="m 123.750000,371.25 0,-45" inkscape:connector-curvature="0" />
  <path style="fill:none;stroke:#000000;stroke-width:0.9" d="m 163.125000,11.25 0,-45" inkscape:connector-curvature="0" />
  <path style="fill:none;stroke:#000000;stroke-width:0.9" d="m 163.125000,371.25 0,-45" inkscape:connector-curvature="0" />
  <path style="fill:none;stroke:#000000;stroke-width:0.9" d="m 236.250000,11.25 0,-45" inkscape:connector-curvature="0" />
  <path style="fill:none;stroke:#000000;stroke-width:0.9" d="m 236.250000,371.25 0,-45" inkscape:connector-curvature="0" />
  <path style="fill:none;stroke:#000000;stroke-width:0.9" d="m -33.75,11.250000 45,0" inkscape:connector-curvature="0" />
  <path style="fill:none;stroke:#000000;stroke-width:0.9" d="m 236.25,11.250000 45,0" inkscape:connector-curvature="0" />
  <path style="fill:none;stroke:#000000;stroke-width:0.9" d="m -33.75,118.125000 45,0" inkscape:connector-curvature="0" />
  <path style="fill:none;stroke:#000000;stroke-width:0.9" d="m 236.25,118.125000 45,0" inkscape:connector-curvature="0" />
  <path style="fill:none;stroke:#000000;stroke-width:0.9" d="m -33.75,168.750000 45,0" inkscape:connector-curvature="0" />
  <path style="fill:none;stroke:#000000;stroke-width:0.9" d="m 236.25,168.750000 45,0" inkscape:connector-curvature="0" />
  <path style="fill:none;stroke:#000000;stroke-width:0.9" d="m -33.75,219.375000 45,0" inkscape:connector-curvature="0" />
  <path style="fill:none;stroke:#000000;stroke-width:0.9" d="m 236.25,219.375000 45,0" inkscape:connector-curvature="0" />
  <path style="fill:none;stroke:#000000;stroke-width:0.9" d="m -33.75,326.250000 45,0" inkscape:connector-curvature="0" />
  <path style="fill:none;stroke:#000000;stroke-width:0.9" d="m 236.25,326.250000 45,0" inkscape:connector-curvature="0" />
  <g id="guide-short0-6" >
    <rect x="0.000000" y="-22.500000" width="163.125000" height="22.500000" style="fill:#ffd291;stroke:#000000;stroke-width:0.9" />
    <rect x="0.000000" y="-22.500000" width="146.250000" height="22.500000" style="fill:#b4e982;stroke:#000000;stroke-width:0.9" />
    <rect x="0.000000" y="-22.500000" width="33.750000" height="22.500000" style="fill:#5adc4f;stroke:#000000;stroke-width:0.9" />
    <rect x="45.000000" y="-22.500000" width="33.750000" height="22.500000" style="fill:#5adc4f;stroke:#000000;stroke-width:0.9" />
    <rect x="90.000000" y="-22.500000" width="39.375000" height="22.500000" style="fill:#5adc4f;stroke:#000000;stroke-width:0.9" />
    <rect x="163.125000" y="-22.500000" width="84.375000" height="22.500000" style="fill:#b9deff;stroke:#000000;stroke-width:0.9" />
    <rect x="185.625000" y="-22.500000" width="61.875000" height="22.500000" style="fill:#9bceff;stroke:#000000;stroke-width:0.9" />
    <rect x="213.750000" y="-22.500000" width="33.750000" height="22.500000" style="fill:#73baff;stroke:#000000;stroke-width:0.9" />
  </g>
  <g id="guide-long1-1" >
    <rect x="247.500000" y="219.375000" width="22.500000" height="118.125000" style="fill:#ffd291;stroke:#000000;stroke-width:0.9" />
    <rect x="247.500000" y="236.250000" width="22.500000" height="101.250000" style="fill:#b4e982;stroke:#000000;stroke-width:0.9" />
    <rect x="247.500000" y="258.750000" width="22.500000" height="78.750000" style="fill:#5adc4f;stroke:#000000;stroke-width:0.9" />
    <rect x="247.500000" y="0.000000" width="22.500000" height="219.375000" style="fill:#b9deff;stroke:#000000;stroke-width:0.9" />
    <rect x="247.500000" y="0.000000" width="22.500000" height="168.750000" style="fill:#9bceff;stroke:#000000;stroke-width:0.9" />
    <rect x="247.500000" y="0.000000" width="22.500000" height="101.250000" style="fill:#73baff;stroke:#000000;stroke-width:0.9" />
  </g>
  <g id="guide-short2-7" transform="matrix(-1,0,0,1,247.5,360)" >
    <rect x="0.000000" y="-22.500000" width="247.500000" height="22.500000" style="fill:#b4e982;stroke:#000000;stroke-width:0.9" />
    <rect x="0.000000" y="-22.500000" width="118.125000" height="22.500000" style="fill:#5adc4f;stroke:#000000;stroke-width:0.9" />
    <rect x="129.375000" y="-22.500000" width="118.125000" height="22.500000" style="fill:#5adc4f;stroke:#000000;stroke-width:0.9" />
  </g>
  <g id="guide-long3-7" transform="matrix(1,0,0,-1,-270,337.5)" >
    <rect x="247.500000" y="0.000000" width="22.500000" height="337.500000" style="fill:#b4e982;stroke:#000000;stroke-width:0.9" />
    <rect x="247.500000" y="0.000000" width="22.500000" height="163.125000" style="fill:#5adc4f;stroke:#000000;stroke-width:0.9" />
    <rect x="247.500000" y="174.375000" width="22.500000" height="163.125000" style="fill:#5adc4f;stroke:#000000;stroke-width:0.9" />
  </g>
</g>
<g inkscape:groupmode="layer" id="cut_line_layer" inkscape:label="Cut Line" style="display:none" sodipodi:insensitive="true" >
  <rect style="fill:none;stroke:#000000;stroke-width:0.5;stroke-linecap:butt;stroke-linejoin:bevel;stroke-miterlimit:4;stroke-dasharray:none;stroke-opacity:1" width="225" height="315" x="11.25" y="11.25" ry="17.361111" />
</g>
<g inkscape:groupmode="layer" id="page_border_layer" inkscape:label="Page Border" style="display:none" sodipodi:insensitive="true" >
  <rect style="fill:none;stroke:#000000;stroke-width:0.5;stroke-linecap:butt;stroke-linejoin:bevel;stroke-miterlimit:4;stroke-dasharray:none;stroke-opacity:1" width="247.5" height="337.5" x="0" y="0" />
</g>

</svg>
