<?xml version="1.0" encoding="UTF-8" standalone="no"?>
<svg version="1.1" height="337.5" width="247.5" xmlns:rdf="http://www.w3.org/1999/02/22-rdf-syntax-ns#" xmlns="http://www.w3.org/2000/svg" xmlns:cc="http://creativecommons.org/ns#" xmlns:xlink="http://www.w3.org/1999/xlink" xmlns:dc="http://purl.org/dc/elements/1.1/" xmlns:sodipodi="http://sodipodi.sourceforge.net/DTD/sodipodi-0.dtd" xmlns:svg="http://www.w3.org/2000/svg" xmlns:inkscape="http://www.inkscape.org/namespaces/inkscape">
<metadata>
  <rdf:RDF>
    <cc:Work rdf:about="">
      <dc:format>image/svg+xml</dc:format>
      <dc:type rdf:resource="http://purl.org/dc/dcmitype/StillImage"/>
      <dc:title/>
      <dc:creator>
        <cc:Agent><dc:title>Gary Kacmarcik</dc:title></cc:Agent>
      </dc:creator>
    </cc:Work>
  </rdf:RDF>
</metadata>

<defs>
  <filter inkscape:label="textureGrassBig" style="color-interpolation-filters:sRGB" id="textureGrassBig">
    <feTurbulence numOctaves="2" seed="303" type="turbulence" baseFrequency="0.070000" result="result1" />
    <feColorMatrix result="result0" in="SourceGraphic" type="luminanceToAlpha" />
    <feColorMatrix result="result2" values="1 0 0 0 0 0 1 0 0 0 0 0 1 0 0 0 0 0 0.4 0 " />
    <feComposite in="result2" operator="over" in2="result1" />
    <feColorMatrix result="result91" values="1 0 0 0 0 0 1 0 0 0 0 0 1 0 0 0 0 0 10 -4 " />
    <feComposite operator="out" in="SourceGraphic" in2="result91" />
    <feGaussianBlur stdDeviation="2.500000" />
    <feColorMatrix values="1 0 0 0 0 0 1 0 0 0 0 0 1 0 0 0 0 0 1 0 " />
  </filter>
  <filter inkscape:label="textureGrassSmall" style="color-interpolation-filters:sRGB" id="textureGrassSmall">
    <feTurbulence numOctaves="4" seed="303" type="turbulence" baseFrequency="0.500000" result="result1" />
    <feColorMatrix result="result0" in="SourceGraphic" type="luminanceToAlpha" />
    <feColorMatrix result="result2" values="1 0 0 0 0 0 1 0 0 0 0 0 1 0 0 0 0 0 0.4 0 " />
    <feComposite in="result2" operator="over" in2="result1" />
    <feColorMatrix result="result91" values="1 0 0 0 0 0 1 0 0 0 0 0 1 0 0 0 0 0 10 -4 " />
    <feComposite operator="out" in="SourceGraphic" in2="result91" />
    <feGaussianBlur stdDeviation="1.000000" />
    <feColorMatrix values="1 0 0 0 0 0 1 0 0 0 0 0 1 0 0 0 0 0 1 0 " />
  </filter>
  <filter inkscape:label="textureLand" style="color-interpolation-filters:sRGB" id="textureLand">
    <feTurbulence numOctaves="4" seed="303" type="turbulence" baseFrequency="0.500000" result="result1" />
    <feColorMatrix result="result0" in="SourceGraphic" type="luminanceToAlpha" />
    <feColorMatrix result="result2" values="1 0 0 0 0 0 1 0 0 0 0 0 1 0 0 0 0 0 0.4 0 " />
    <feComposite in="result2" operator="over" in2="result1" />
    <feColorMatrix result="result91" values="1 0 0 0 0 0 1 0 0 0 0 0 1 0 0 0 0 0 10 -4 " />
    <feComposite operator="out" in="SourceGraphic" in2="result91" />
    <feGaussianBlur stdDeviation="0.800000" />
    <feColorMatrix values="1 0 0 0 0 0 1 0 0 0 0 0 1 0 0 0 0 0 1 0 " />
  </filter>
  <filter inkscape:label="textureForestBig" style="color-interpolation-filters:sRGB" id="textureForestBig">
    <feTurbulence numOctaves="2" seed="303" type="turbulence" baseFrequency="0.300000" result="result1" />
    <feColorMatrix result="result0" in="SourceGraphic" type="luminanceToAlpha" />
    <feColorMatrix result="result2" values="1 0 0 0 0 0 1 0 0 0 0 0 1 0 0 0 0 0 0.4 0 " />
    <feComposite in="result2" operator="over" in2="result1" />
    <feColorMatrix result="result91" values="1 0 0 0 0 0 1 0 0 0 0 0 1 0 0 0 0 0 10 -4 " />
    <feComposite operator="out" in="SourceGraphic" in2="result91" />
    <feGaussianBlur stdDeviation="2.000000" />
    <feColorMatrix values="1 0 0 0 0 0 1 0 0 0 0 0 1 0 0 0 0 0 1 0 " />
  </filter>
  <filter inkscape:label="textureForestSmall" style="color-interpolation-filters:sRGB" id="textureForestSmall">
    <feTurbulence numOctaves="4" seed="303" type="turbulence" baseFrequency="0.350000" result="result1" />
    <feColorMatrix result="result0" in="SourceGraphic" type="luminanceToAlpha" />
    <feColorMatrix result="result2" values="1 0 0 0 0 0 1 0 0 0 0 0 1 0 0 0 0 0 0.4 0 " />
    <feComposite in="result2" operator="over" in2="result1" />
    <feColorMatrix result="result91" values="1 0 0 0 0 0 1 0 0 0 0 0 1 0 0 0 0 0 10 -4 " />
    <feComposite operator="out" in="SourceGraphic" in2="result91" />
    <feGaussianBlur stdDeviation="1.000000" />
    <feColorMatrix values="1 0 0 0 0 0 1 0 0 0 0 0 1 0 0 0 0 0 1 0 " />
  </filter>
  <filter inkscape:label="roughenShoreline" style="color-interpolation-filters:sRGB" id="roughenShoreline">
    <feTurbulence numOctaves="4" seed="303" type="turbulence" baseFrequency="0.050000" result="turb" />
    <feDisplacementMap scale="6.600000" yChannelSelector="G" xChannelSelector="R" in="SourceGraphic" in2="turb" />
  </filter>
  <filter inkscape:label="roughenForest" style="color-interpolation-filters:sRGB" id="roughenForest">
    <feTurbulence numOctaves="4" seed="303" type="fractalNoise" baseFrequency="0.150000 0.150000" result="turb" />
    <feDisplacementMap scale="6.600000" yChannelSelector="G" xChannelSelector="R" in="SourceGraphic" in2="turb" />
  </filter>
  <filter inkscape:collect="always" inkscape:label="blurSuitRankGlow" style="color-interpolation-filters:sRGB" id="blurSuitRankGlow" x="-0.029025" y="-0.020458" width="1.058049" height="1.040917">
    <feGaussianBlur inkscape:collect="always" stdDeviation="2.515067" />
  </filter>
  <filter inkscape:collect="always" inkscape:label="blurWaterDeep" style="color-interpolation-filters:sRGB" id="blurWaterDeep" x="-0.056691" y="-0.041620" width="1.113381" height="1.083239">
    <feGaussianBlur inkscape:collect="always" stdDeviation="6.919136" />
  </filter>
  <filter inkscape:collect="always" inkscape:label="blurWaterShallow" style="color-interpolation-filters:sRGB" id="blurWaterShallow" x="-0.055818" y="-0.042103" width="1.111637" height="1.084205">
    <feGaussianBlur inkscape:collect="always" stdDeviation="6.561501" />
  </filter>
  <filter inkscape:collect="always" inkscape:label="blurWaterHilight" style="color-interpolation-filters:sRGB" id="blurWaterHilight" x="-0.071178" y="-0.051856" width="1.142356" height="1.103712">
    <feGaussianBlur inkscape:collect="always" stdDeviation="6.857532" />
  </filter>
  <filter inkscape:collect="always" inkscape:label="blurGrass" style="color-interpolation-filters:sRGB" id="blurGrass" x="-0.032100" y="-0.019164" width="1.064201" height="1.038328">
    <feGaussianBlur inkscape:collect="always" stdDeviation="2.386213" />
  </filter>
  <filter inkscape:collect="always" inkscape:label="blurForestShadow" style="color-interpolation-filters:sRGB" id="blurForestShadow" x="-0.033576" y="-0.018674" width="1.067152" height="1.037348">
    <feGaussianBlur inkscape:collect="always" stdDeviation="2.199785" />
  </filter>
  <filter inkscape:collect="always" inkscape:label="blurFlowerInner" style="color-interpolation-filters:sRGB" id="blurFlowerInner" x="-0.420000" y="-0.420000" width="1.840000" height="1.840000">
    <feGaussianBlur inkscape:collect="always" stdDeviation="1.605540" />
  </filter>
  <filter inkscape:collect="always" inkscape:label="blurFlowerMiddle" style="color-interpolation-filters:sRGB" id="blurFlowerMiddle" x="-0.240000" y="-0.240000" width="1.480000" height="1.480000">
    <feGaussianBlur inkscape:collect="always" stdDeviation="1.933705" />
  </filter>
  <linearGradient id="gradientStopsFish" inkscape:collect="always">
    <stop offset="0.000000" style="stop-color:#ff5555;stop-opacity:1.000000" />
    <stop offset="1.000000" style="stop-color:#ffffff;stop-opacity:1.000000" />
  </linearGradient>
  <linearGradient id="gradientStopsCoconut" inkscape:collect="always">
    <stop offset="0.000000" style="stop-color:#ffffff;stop-opacity:1.000000" />
    <stop offset="1.000000" style="stop-color:#c8c8c8;stop-opacity:0.000000" />
  </linearGradient>
  <linearGradient id="gradientStopsFlower" inkscape:collect="always">
    <stop offset="0.000000" style="stop-color:#b16dff;stop-opacity:1.000000" />
    <stop offset="1.000000" style="stop-color:#e7d2ff;stop-opacity:1.000000" />
  </linearGradient>
  <linearGradient id="gradientStopsJellyfish" inkscape:collect="always">
    <stop offset="0.000000" style="stop-color:#4f97ff;stop-opacity:1.000000" />
    <stop offset="1.000000" style="stop-color:#cfe3ff;stop-opacity:1.000000" />
  </linearGradient>
  <linearGradient id="gradientStopsShip" inkscape:collect="always">
    <stop offset="0.000000" style="stop-color:#b67800;stop-opacity:1.000000" />
    <stop offset="1.000000" style="stop-color:#d28b00;stop-opacity:1.000000" />
  </linearGradient>
  <linearGradient id="gradientFish" xlink:href="#gradientStopsFish" x1="178.789090" y1="-114.782830" x2="180.407300" y2="-103.782830" gradientTransform="translate(-178.76256,1.0606602)" gradientUnits="userSpaceOnUse" inkscape:collect="always" />
  <linearGradient id="gradientJellyfishTentacle1a" xlink:href="#gradientStopsJellyfish" x1="118.024030" y1="-110.827530" x2="121.753140" y2="-96.140030" gradientTransform="translate(-120,0)" gradientUnits="userSpaceOnUse" inkscape:collect="always" />
  <linearGradient id="gradientJellyfishTentacle1b" xlink:href="#gradientStopsJellyfish" x1="118.024030" y1="-110.827530" x2="121.753140" y2="-96.140030" gradientTransform="translate(-120,0)" gradientUnits="userSpaceOnUse" inkscape:collect="always" />
  <linearGradient id="gradientJellyfishTentacle2" xlink:href="#gradientStopsJellyfish" x1="118.218180" y1="-115.782610" x2="121.698270" y2="-97.813858" gradientTransform="translate(-120,0)" gradientUnits="userSpaceOnUse" inkscape:collect="always" />
  <linearGradient id="gradientJellyfishTentacle3" xlink:href="#gradientStopsJellyfish" x1="123.335370" y1="-114.610190" x2="116.678600" y2="-98.453941" gradientTransform="translate(-120,0)" gradientUnits="userSpaceOnUse" inkscape:collect="always" />
  <linearGradient id="gradientShip" xlink:href="#gradientStopsShip" x1="196.432910" y1="221.715270" x2="203.663250" y2="204.277770" gradientTransform="matrix(0.37654483,0.9263984,-0.9263984,0.37654483,355.66788,-318.43897)" gradientUnits="userSpaceOnUse" inkscape:collect="always" />
  <radialGradient id="gradientCoconut" xlink:href="#gradientStopsCoconut" cx="1.944096" cy="-60.612652" fx="1.944096" fy="-60.612652" r="6.723294" gradientUnits="userSpaceOnUse" gradientTransform="matrix(1.691364,-0.31394812,0.29762395,1.603419,17.826033,-7.042221)" inkscape:collect="always" />
  <radialGradient id="gradientFlower" xlink:href="#gradientStopsFlower" cx="60.884877" cy="-69.652750" fx="60.884877" fy="-69.652750" r="15.835310" gradientUnits="userSpaceOnUse" gradientTransform="matrix(0.8413905,0,0,0.87120012,-50.722984,-48.679159)" inkscape:collect="always" />
  <radialGradient id="gradientJellyfish" xlink:href="#gradientStopsJellyfish" cx="120.453410" cy="-112.943900" fx="120.453410" fy="-112.943900" r="10.580511" gradientUnits="userSpaceOnUse" gradientTransform="matrix(1.1662998,0.0435575,-0.04526952,1.2121402,-145.14628,17.080499)" inkscape:collect="always" />
</defs>

<sodipodi:namedview
    id="base"
    pagecolor="#ffffff"
    bordercolor="#666666"
    borderopacity="1.0"
    inkscape:pageopacity="0.0"
    inkscape:pageshadow="2"
    inkscape:zoom="2"
    inkscape:cx="115.37643"
    inkscape:cy="285.04449"
    inkscape:document-units="in"
    showgrid="true"
    units="in"
    inkscape:window-width="1392"
    inkscape:window-height="836"
    inkscape:window-x="39"
    inkscape:window-y="6"
    inkscape:window-maximized="0"
    inkscape:snap-grids="true"
    inkscape:snap-to-guides="true"
    inkscape:snap-nodes="true"
    inkscape:object-nodes="true"
    inkscape:snap-smooth-nodes="true"
    inkscape:snap-intersection-paths="true"
    inkscape:object-paths="true"
    inkscape:snap-bbox="true"
    inkscape:bbox-nodes="true"
    inkscape:snap-others="true"
    inkscape:bbox-paths="false"
    inkscape:snap-global="true" >
  <inkscape:grid
    type="xygrid"
    id="grid3051"
    empspacing="2"
    visible="true"
    enabled="true"
    snapvisiblegridlinesonly="true"
    spacingx="0.0625in"
    spacingy="0.0625in"
    dotted="false"
    units="in" />
</sodipodi:namedview>
<g inkscape:groupmode="layer" id="water_layer" inkscape:label="Water" style="display:inline" sodipodi:insensitive="true" >
  <rect id="water" style="fill:#b9deff;fill-opacity:1;stroke:none" x="0" y="0" width="247.5" height="337.5" />
</g>
<g inkscape:groupmode="layer" id="water_shallow_layer" inkscape:label="Water Shallow" style="display:inline" sodipodi:insensitive="true" >
  <path style="fill:#9bd1ff;fill-opacity:0.70;fill-rule:evenodd;stroke:none;filter:url(#blurWaterShallow)" d="m -11.25,-11.25 0,360 135,0 0,-28.125 c 0,0 -3.40273,-15.74493 -6.75,-23 -3.25347,-7.05177 -9.63525,-12.38587 -12.75,-19.5 -3.08438,-7.04478 0.49728,-17.72097 -5.625,-22.375 -5.408428,-4.11138 -13.907729,2.58061 -20.375,0.5 -6.711287,-2.15911 -12.199492,-7.47338 -16.875,-12.75 -4.729982,-5.3381 -8.742808,-11.65608 -10.75,-18.5 -2.124503,-7.24392 -1.220437,-15.07919 -1,-22.625 0.249518,-8.54127 -0.581759,-17.57963 2.625,-25.5 3.084411,-7.61819 8.350419,-14.90889 15.25,-19.375 6.48985,-4.20089 14.772257,-5.40681 22.5,-5.625 6.445003,-0.18197 12.61841,2.70496 19,3.625 6.75447,0.9738 13.77976,3.75326 20.375,2 6.81566,-1.81186 12.64879,-6.90538 17.25,-12.25 5.23989,-6.08649 6.59158,-14.70632 10.875,-21.5 3.67593,-5.83018 7.39056,-11.89124 12.625,-16.375 6.17487,-5.28932 14.41778,-7.5425 21.375,-11.75 7.1,-4.293853 12.69181,-11.77194 20.75,-13.75 7.81138,-1.917475 24,2.5 24,2.5 l 22.5,0 0,-95.625 z" inkscape:connector-curvature="0" />
</g>
<g inkscape:groupmode="layer" id="water_deep_layer" inkscape:label="Water Deep" style="display:inline" sodipodi:insensitive="true" >
  <path style="fill:#87c8ff;fill-opacity:0.60;fill-rule:evenodd;stroke:none;filter:url(#blurWaterDeep)" d="m -11.25,-11.25 0,360 78.75,0 0,-22.5 c 0,0 -3.374774,-14.32382 -5,-21.5 -2.308951,-10.19516 -2.254109,-21.18786 -6.75,-30.625 -4.489136,-9.42296 -14.7007,-15.23117 -19.5,-24.5 -4.729113,-9.13328 -7.005616,-19.46829 -8.625,-29.625 -1.595055,-10.00413 -1.052599,-20.24465 -1,-30.375 0.05998,-11.55234 0.550037,-23.11163 1.5,-34.625 0.707586,-8.57581 0.05453,-17.58651 3.125,-25.625 3.641874,-9.53442 9.713095,-18.52708 17.5,-25.125 8.446479,-7.15678 19.200221,-11.8154 30,-14.25 9.145498,-2.061674 19.410283,3.456058 28.125,0 9.9463,-3.944477 14.43141,-16.126319 23.375,-22 8.26811,-5.430063 17.78906,-8.862465 27.25,-11.75 9.73112,-2.969997 19.8694,-4.68346 30,-5.625 8.71245,-0.809737 17.5,0 26.25,0 7.5,0 22.5,0 22.5,0 l 22.5,0 0,-61.875 z" inkscape:connector-curvature="0" />
</g>
<g inkscape:groupmode="layer" id="water_hilight_layer" inkscape:label="Water Hilight" style="display:inline" sodipodi:insensitive="true" >
  <use xlink:href="#shoreline" height="100%" width="100%" x="0" y="0" style="display:inline;fill:#ffffff;fill-opacity:1;stroke:#ffffff;stroke-opacity:1;filter:url(#blurWaterHilight)" />
</g>
<g inkscape:groupmode="layer" id="land_layer" inkscape:label="Land" style="display:inline" sodipodi:insensitive="true" >
  <use xlink:href="#shoreline" height="100%" width="100%" x="0" y="0" style="display:inline;fill:#ffddab;fill-opacity:1;stroke:none;stroke-width:1;stroke-miterlimit:4;stroke-dasharray:none;stroke-opacity:1" />
</g>
<g inkscape:groupmode="layer" id="land_texture_layer" inkscape:label="Land Texture" style="display:inline" sodipodi:insensitive="true" >
  <use xlink:href="#shoreline" height="100%" width="100%" x="0" y="0" style="display:inline;fill:#ffca7d;fill-opacity:1;stroke:none;stroke-width:1;stroke-miterlimit:4;stroke-dasharray:none;stroke-opacity:1;filter:url(#textureLand)" />
</g>
<g inkscape:groupmode="layer" id="shoreline_layer" inkscape:label="Shoreline" style="display:inline" sodipodi:insensitive="true" >
  <use xlink:href="#shoreline" height="100%" width="100%" x="0" y="0" style="display:inline;fill:none;fill-opacity:1;stroke:#5f4c14;stroke-width:1;stroke-miterlimit:4;stroke-dasharray:none;stroke-opacity:1" />
</g>
<g inkscape:groupmode="layer" id="shoreline_master_layer" inkscape:label="Shoreline Master" style="display:none" sodipodi:insensitive="true" >
  <path id="shoreline" style="color:#000000;clip-rule:nonzero;display:inline;overflow:visible;visibility:visible;opacity:1;isolation:auto;mix-blend-mode:normal;color-interpolation:sRGB;color-interpolation-filters:linearRGB;solid-color:#000000;solid-opacity:1;fill-opacity:1;fill-rule:evenodd;filter:url(#roughenShoreline);color-rendering:auto;image-rendering:auto;shape-rendering:auto;text-rendering:auto;enable-background:accumulate" d="m 206.73242,125.95508 c -9.04013,5.21708 -16.42527,12.14026 -17.48242,22.29492 -1.58943,15.26759 -15.05972,5.62746 -29.56445,26.01367 -4.6399,6.52132 4.58652,13.70536 -2.07227,28.14844 -3.03109,6.57452 -20.10644,1.3263 -24.23828,17.21289 -12.68555,19.40625 -6.32721,50.11884 -1.625,49.625 11.25,16.875 14.5,14.5 15.375,21.5 1.1261,9.00883 16.70212,22.7868 16,29.875 -1.01122,10.20864 0,14.07486 0,16.875 0,5.625 -5.625,11.25 0,22.5 5.625,11.25 95.625,11.25 106.875,0 7.95495,-7.95495 11.25,-236.25 0,-241.875 -6.7082,-3.3541 -22.5,0 -22.5,0 l -22.5,0 c -6.12111,0 -9.06475,2.5191 -18.26758,7.83008 z m -91.38476,56.0625 c -3.07607,-0.0279 -14.74467,11.64948 -18.17383,2.5332 -5.60389,-4.68051 -12.1314,5.38143 -15.812502,10.45899 -4.625,5.125 0.80215,19.19014 -0.333984,29.43554 0.750001,3.25 13.331726,4.10796 19.177736,1.4668 0,0 9.04687,-10.53907 11.17187,-14.03906 0.49983,-4.49443 7.87305,-3.37305 7.24805,-11.49805 14.4371,-8.09984 6.16209,-19.85344 -3.27734,-18.35742 z" inkscape:connector-curvature="0" />
</g>
<g inkscape:groupmode="layer" id="grass_layer" inkscape:label="Grass" style="display:inline" sodipodi:insensitive="true" >
  <use xlink:href="#grass" height="100%" width="100%" x="0" y="0" style="display:inline;fill:#b4e982;fill-opacity:1;stroke:none;stroke-width:1;stroke-miterlimit:4;stroke-dasharray:none;stroke-opacity:1" />
</g>
<g inkscape:groupmode="layer" id="grass_texture1_layer" inkscape:label="Grass Texture Big" style="display:inline" sodipodi:insensitive="true" >
  <use xlink:href="#grass" height="100%" width="100%" x="0" y="0" style="display:inline;fill:#a7e46a;fill-opacity:1;stroke:none;stroke-width:1;stroke-miterlimit:4;stroke-dasharray:none;stroke-opacity:1;filter:url(#textureGrassBig)" />
</g>
<g inkscape:groupmode="layer" id="grass_texture2_layer" inkscape:label="Grass Texture Small" style="display:inline" sodipodi:insensitive="true" >
  <use xlink:href="#grass" height="100%" width="100%" x="0" y="0" style="display:inline;fill:#8cdd3d;fill-opacity:1;stroke:none;stroke-width:1;stroke-miterlimit:4;stroke-dasharray:none;stroke-opacity:1;filter:url(#textureGrassSmall)" />
</g>
<g inkscape:groupmode="layer" id="grass_master_layer" inkscape:label="Grass Master" style="display:none" sodipodi:insensitive="true" >
  <path id="grass" style="color:#000000;clip-rule:nonzero;display:inline;overflow:visible;visibility:visible;opacity:1;isolation:auto;mix-blend-mode:normal;color-interpolation:sRGB;color-interpolation-filters:linearRGB;solid-color:#000000;solid-opacity:1;fill-opacity:1;fill-rule:evenodd;filter:url(#blurGrass);color-rendering:auto;image-rendering:auto;shape-rendering:auto;text-rendering:auto;enable-background:accumulate" d="m 236.25,123.75 -12.25,1.625 -11.125,3.5 -10.375,11.75 -7.125,10.75 -8.125,9.25 -12.875,8.125 -11.25,16.875 -0.375,20 -10.25,6.625 -11.25,7.125 -7.875,17.125 1.625,26.75 11.75,17.375 7.375,16.875 11.125,15.375 3.5,13.375 0,22.5 90,0 0,-225 z M 117.5,187 l -9,5.5 -14.5,-2.5 -8.5,4 0,13.5 1,15.5 14.5,0.5 7,-10.5 8.5,-9.5 6.5,-10.5 z" inkscape:connector-curvature="0" />
</g>
<g inkscape:groupmode="layer" id="forest_shadow_layer" inkscape:label="Forest Shadow" style="display:inline" sodipodi:insensitive="true" >
  <g style="filter:url(#blurForestShadow)" >
    <use xlink:href="#forest" height="100%" width="100%" x="0" y="0" style="display:inline;opacity:0.75;fill:#258c1b;fill-opacity:1;filter:url(#roughenForest)" />
  </g>
</g>
<g inkscape:groupmode="layer" id="forest_fill_layer" inkscape:label="Forest Fill" style="display:inline" sodipodi:insensitive="true" >
  <use xlink:href="#forest" height="100%" width="100%" x="0" y="0" style="fill:#83d700;fill-opacity:1;stroke:none;stroke-width:1.5;stroke-miterlimit:4;stroke-dasharray:none;stroke-opacity:1;filter:url(#roughenForest)" />
</g>
<g inkscape:groupmode="layer" id="forest_texture_big_layer" inkscape:label="Forest Texture Big" style="display:inline" sodipodi:insensitive="true" >
  <g style="filter:url(#textureForestBig)" >
    <use xlink:href="#forest" height="100%" width="100%" x="0" y="0" style="fill:#548c00;fill-opacity:1;stroke:none;stroke-width:1.5;stroke-miterlimit:4;stroke-dasharray:none;stroke-opacity:1;filter:url(#roughenForest)" />
  </g>
</g>
<g inkscape:groupmode="layer" id="forest_texture_small_layer" inkscape:label="Forest Texture Small" style="display:inline" sodipodi:insensitive="true" >
  <g style="filter:url(#textureForestSmall)" >
    <use xlink:href="#forest" height="100%" width="100%" x="0" y="0" style="fill:#78c125;fill-opacity:1;stroke:none;stroke-width:1;stroke-miterlimit:4;stroke-dasharray:none;stroke-opacity:1;filter:url(#roughenForest)" />
  </g>
</g>
<g inkscape:groupmode="layer" id="forest_outline_layer" inkscape:label="Forest Outline" style="display:inline" sodipodi:insensitive="true" >
  <use xlink:href="#forest" height="100%" width="100%" x="0" y="0" style="fill:none;fill-opacity:1;stroke:#006800;stroke-width:1.5;stroke-miterlimit:4;stroke-dasharray:none;stroke-opacity:1;filter:url(#roughenForest)" />
</g>
<g inkscape:groupmode="layer" id="forest_master_layer" inkscape:label="Forest Master" style="display:none" sodipodi:insensitive="true" >
  <path id="forest" style="color:#000000;clip-rule:nonzero;display:inline;overflow:visible;visibility:visible;opacity:1;isolation:auto;mix-blend-mode:normal;color-interpolation:sRGB;color-interpolation-filters:linearRGB;solid-color:#000000;solid-opacity:1;fill-opacity:1;fill-rule:nonzero;color-rendering:auto;image-rendering:auto;shape-rendering:auto;text-rendering:auto;enable-background:accumulate" d="m 220.5,141.75 c -2.69321,0.003 -5.14551,1.49658 -6.30664,3.83984 -1.31043,-1.7781 -3.43119,-2.83593 -5.69336,-2.83984 -3.86599,0 -7,3.02208 -7,6.75 0.001,3.23014 2.37585,6.00658 5.66406,6.62305 -0.78514,0.72691 -1.38367,1.62036 -1.74804,2.60937 -1.32776,-1.56901 -3.31591,-2.48027 -5.41602,-2.48242 -3.86599,0 -7,3.02208 -7,6.75 0.002,2.0139 0.93549,3.92196 2.54688,5.20312 0.37295,3.43369 3.37278,6.04254 6.95312,6.04688 2.54856,-5.4e-4 4.89544,-1.3367 6.12695,-3.48828 0.12854,0.10151 0.26079,0.19857 0.39649,0.29101 -0.0129,0.1488 -0.0208,0.29797 -0.0234,0.44727 0,3.72792 3.13401,6.75 7,6.75 0.0417,-9.7e-4 0.0833,-0.002 0.125,-0.004 0.10844,0.55053 0.28755,1.0859 0.5332,1.59375 -2.52561,1.08187 -4.15473,3.49535 -4.1582,6.16025 0.002,2.41241 1.33961,4.64024 3.50781,5.84375 -0.003,0.0521 -0.006,0.10414 -0.008,0.15625 0.002,3.50947 2.79298,6.43184 6.41992,6.72266 -0.27482,0.73016 -0.41688,1.50058 -0.41992,2.27734 0,3.72792 3.13401,6.75 7,6.75 0.36108,-0.001 0.72153,-0.0292 1.07812,-0.084 1.10355,2.4752 3.62785,4.08052 6.42188,4.08398 0.33675,-0.002 0.67291,-0.0275 1.00586,-0.0762 0.32908,0.0482 0.6613,0.0736 0.99414,0.0762 0.50206,-0.003 1.00233,-0.0579 1.49219,-0.16406 0.49495,0.10721 1.00053,0.16222 1.50781,0.16406 0.65358,-0.001 1.30378,-0.0906 1.93164,-0.26562 1.18609,0.82062 2.60856,1.26313 4.06836,1.26562 3.86599,0 7,-3.02208 7,-6.75 -0.002,-0.24481 -0.0188,-0.48931 -0.0488,-0.73242 0.0314,-0.25475 0.0477,-0.51102 0.0488,-0.76756 -0.003,-1.15134 -0.31051,-2.2829 -0.89453,-3.28711 0.25871,-0.71122 0.39206,-1.45919 0.39453,-2.21289 -0.001,-2.20807 -1.12233,-4.27597 -3.00195,-5.53711 -0.003,-0.23239 -0.0189,-0.46447 -0.0469,-0.69531 0.0314,-0.25476 0.0477,-0.51103 0.0488,-0.76758 -0.002,-1.33491 -0.41472,-2.63923 -1.18555,-3.74805 0.7716,-1.10993 1.1842,-2.41571 1.18555,-3.75195 -0.003,-2.40876 -1.33669,-4.63351 -3.5,-5.83789 1.58247,-1.28066 2.49746,-3.16997 2.5,-5.16211 -0.002,-1.57252 -0.57326,-3.09503 -1.61523,-4.30469 0.0752,-0.39435 0.11371,-0.79436 0.11523,-1.19531 -0.002,-0.42152 -0.0441,-0.84198 -0.12695,-1.25586 0.0423,0.002 0.0846,0.004 0.12695,0.006 3.86599,0 7,-3.02208 7,-6.75 0,-3.72792 -3.13401,-6.75 -7,-6.75 -0.33675,0.002 -0.67291,0.0275 -1.00586,0.0762 -1.25969,-1.01789 -2.85064,-1.57592 -4.49414,-1.57634 -1.32128,0.001 -2.61529,0.3626 -3.73242,1.04297 -0.25485,-0.0279 -0.5111,-0.0422 -0.76758,-0.043 -1.32128,0.001 -2.61529,0.3626 -3.73242,1.04297 -0.8048,-2.96898 -3.5852,-5.04083 -6.76758,-5.04297 -0.17141,4.3e-4 -0.34275,0.007 -0.51367,0.0195 0.006,-0.0897 0.011,-0.17961 0.0137,-0.26953 0,-3.72792 -3.13401,-6.75 -7,-6.75 z m 11.78906,20.85938 c 0.21898,0.40531 0.48009,0.78814 0.7793,1.14257 -0.0479,0.0585 -0.0948,0.11775 -0.14063,0.17774 -0.47629,0.10602 -0.93976,0.25985 -1.38281,0.45898 0.33464,-0.55591 0.58521,-1.15505 0.74414,-1.77929 z m -3.83398,4.50195 c -0.62282,1.02852 -0.95233,2.19764 -0.95508,3.38867 0.003,0.50244 0.065,1.00293 0.18359,1.49219 -1.28413,-1.11913 -2.95271,-1.7398 -4.68359,-1.74219 -0.0417,9.7e-4 -0.0833,0.002 -0.125,0.004 -0.11989,-0.61877 -0.32894,-1.21833 -0.62109,-1.78125 0.51495,-0.26251 0.99392,-0.58597 1.42578,-0.96289 0.59319,0.15685 1.20523,0.23762 1.82031,0.24023 1.02155,-0.002 2.03018,-0.2204 2.95508,-0.63867 z m 0.041,14.05469 c 0.0334,0.0394 0.0673,0.0785 0.10157,0.11718 -0.39235,0.85586 -0.59588,1.78104 -0.59765,2.7168 0.003,1.64377 0.62813,3.22995 1.75781,4.46094 -0.13905,0.26546 -0.25976,0.5395 -0.36133,0.82031 -0.5992,-1.31275 -1.61647,-2.40733 -2.90429,-3.125 0.003,-0.0521 0.006,-0.10414 0.008,-0.15625 -0.003,-0.9815 -0.22729,-1.95063 -0.6582,-2.83984 1.03974,-0.44672 1.95083,-1.13121 2.65429,-1.99414 z M 105.5,192.75 c -3.25791,0.003 -6.082934,2.17304 -6.814453,5.23438 -0.05751,0.0156 -0.114802,0.0318 -0.171875,0.0488 C 97.461944,195.45005 94.877862,193.75085 92,193.75 c -3.865993,0 -7,3.02208 -7,6.75 0,3.72792 3.134007,6.75 7,6.75 0.375591,-8.8e-4 0.7505,-0.0309 1.121094,-0.0898 -0.499125,0.46798 -0.923062,1.00514 -1.257813,1.59375 C 88.052377,208.82574 85.001503,211.8245 85,215.5 c 0,3.72792 3.134007,6.75 7,6.75 2.555496,-2.5e-4 4.907775,-1.34334 6.136719,-3.50391 C 101.94764,218.6743 104.99852,215.67552 105,212 c -0.004,-0.70477 -0.12149,-1.40465 -0.34961,-2.07422 1.34303,-0.95546 2.28784,-2.3422 2.66406,-3.91016 3.05758,-0.79128 5.18383,-3.46291 5.18555,-6.51562 0,-3.72792 -3.13401,-6.75 -7,-6.75 z m 136,32 c -1.29497,0.002 -2.56402,0.35004 -3.66602,1.00586 -1.4551,0.0345 -2.86284,0.50561 -4.02734,1.34766 -1.29773,-1.18742 -3.01767,-1.85065 -4.80664,-1.85352 -3.86599,0 -7,3.02208 -7,6.75 0,3.72792 3.13401,6.75 7,6.75 0.58991,-0.002 1.17725,-0.0751 1.74805,-0.21875 0.27572,0.52345 0.62108,1.00998 1.02734,1.44727 -0.57921,-0.14917 -1.17589,-0.22597 -1.77539,-0.22852 -3.86599,0 -7,3.02208 -7,6.75 0.003,2.15956 1.0776,4.1873 2.89062,5.45508 -0.49371,0.23759 -0.95656,0.53064 -1.3789,0.87304 -0.33484,-0.0496 -0.67296,-0.0757 -1.01172,-0.0781 -1.90376,0.004 -3.72392,0.75456 -5.04102,2.08008 -0.35674,-3.44899 -3.3645,-6.07688 -6.95898,-6.08008 -3.00338,0.005 -5.66906,1.85605 -6.625,4.60156 -0.90332,-0.39464 -1.8833,-0.59968 -2.875,-0.60156 -3.86599,0 -7,3.02208 -7,6.75 0.002,2.74598 1.7286,5.21719 4.36719,6.25 -2.63859,1.03281 -4.36535,3.50402 -4.36719,6.25 0.004,1.56193 0.56902,3.07429 1.59961,4.2793 -0.25124,0.55203 -0.42466,1.13403 -0.51563,1.73047 -3.00788,0.82543 -5.08306,3.47461 -5.08398,6.49023 0,3.72792 3.13401,6.75 7,6.75 0.5261,-0.002 1.05025,-0.062 1.5625,-0.17773 1.16014,0.76481 2.53216,1.17519 3.9375,1.17773 0.53018,-0.003 1.05831,-0.0638 1.57422,-0.18164 -0.047,0.30852 -0.0718,0.61981 -0.0742,0.93164 0.003,0.29804 0.0265,0.59557 0.0703,0.89062 -1.27025,-1.05745 -2.89218,-1.63968 -4.5703,-1.64062 -3.86599,0 -7,3.02208 -7,6.75 0.002,0.60545 0.089,1.20786 0.25781,1.79102 -0.25165,-0.0269 -0.50462,-0.0406 -0.75781,-0.041 -3.86599,0 -7,3.02208 -7,6.75 0.003,3.15845 2.27615,5.89288 5.47266,6.58203 -0.63417,1.03544 -0.96997,2.21544 -0.97266,3.41797 0.003,0.49975 0.0643,0.9976 0.18164,1.48438 -3.05603,0.79271 -5.18039,3.46398 -5.18164,6.51562 0.003,0.50244 0.065,1.00293 0.18359,1.49219 -0.1198,0.49435 -0.18139,1.00015 -0.18359,1.50781 0.003,0.76702 0.14186,1.52792 0.41016,2.25 -0.2683,0.72208 -0.40701,1.48298 -0.41016,2.25 0.003,0.67437 0.10983,1.34458 0.31836,1.98828 -0.21094,0.65121 -0.31828,1.32949 -0.31836,2.01172 0,3.72792 3.13401,6.75 7,6.75 0.39734,-6e-5 0.79396,-0.0328 1.18555,-0.0977 1.13453,0.71414 2.4596,1.09544 3.81445,1.09766 2.78897,-0.001 5.31111,-1.59872 6.41992,-4.06641 0.62506,-0.0799 1.23605,-0.24085 1.81641,-0.47851 0.15029,-0.0129 0.30011,-0.0305 0.44922,-0.0527 1.13453,0.71414 2.4596,1.09544 3.81445,1.09766 1.64449,-0.003 3.23555,-0.56333 4.49414,-1.58398 1.26167,1.02314 2.85734,1.58408 4.50586,1.58398 2.14593,-0.003 4.17165,-0.95583 5.49609,-2.58398 1.32613,1.63023 3.35524,2.58286 5.50391,2.58398 3.64296,-0.003 6.6745,-2.69995 6.9707,-6.20117 0.017,-0.0117 0.0339,-0.0234 0.0508,-0.0352 0.27842,3.51801 3.31958,6.23576 6.9785,6.23637 0.0958,-0.001 0.19149,-0.005 0.28711,-0.01 0.0709,0.004 0.14188,0.008 0.21289,0.01 3.86599,0 7,-3.02208 7,-6.75 -0.002,-0.85727 -0.1727,-1.70639 -0.50391,-2.50195 0.3307,-0.79434 0.50171,-1.64209 0.50391,-2.49805 -0.003,-0.53054 -0.0702,-1.05893 -0.20117,-1.57422 0.45858,-0.91212 0.69823,-1.91212 0.70117,-2.92578 -0.003,-0.75107 -0.13671,-1.49634 -0.39453,-2.20508 0.58536,-1.00652 0.89334,-2.14094 0.89453,-3.29492 -0.003,-1.44045 -0.48448,-2.84209 -1.37305,-4 0.88857,-1.15791 1.3697,-2.55955 1.37305,-4 -0.003,-2.5272 -1.46971,-4.84108 -3.80078,-5.99609 2.33366,-1.15629 3.80083,-3.4739 3.80078,-6.00391 -4e-5,-0.159 -0.006,-0.31796 -0.0176,-0.47656 -0.0736,-0.97095 -0.36406,-1.91506 -0.85156,-2.76758 0.56986,-0.99723 0.86885,-2.11726 0.86916,-3.25586 -0.003,-1.90653 -0.84265,-3.72278 -2.31055,-5 1.4679,-1.27722 2.3072,-3.09347 2.31055,-5 -0.002,-1.13463 -0.30127,-2.25039 -0.86914,-3.24414 0.56985,-0.99723 0.86884,-2.11726 0.86914,-3.25586 -0.002,-1.48762 -0.51348,-2.93294 -1.45508,-4.11133 0.62282,-1.02852 0.95233,-2.19764 0.95508,-3.38867 -0.003,-0.95266 -0.21559,-1.89386 -0.62305,-2.76172 0.0805,-0.40823 0.12165,-0.82275 0.12305,-1.23828 -0.002,-2.0218 -0.94389,-3.93625 -2.56641,-5.2168 1.32128,-1.26582 2.06495,-2.9872 2.06641,-4.7832 -0.003,-0.67437 -0.10983,-1.34458 -0.31836,-1.98828 0.21094,-0.65121 0.31828,-1.32949 0.31836,-2.01172 -7.4e-4,-1.27969 -0.37871,-2.53282 -1.08984,-3.61328 2.21366,-1.19076 3.58679,-3.44246 3.58984,-5.88672 -0.002,-1.81679 -0.76428,-3.55592 -2.11328,-4.82422 0.0733,-0.38798 0.11121,-0.78141 0.11328,-1.17578 -0.003,-0.67437 -0.10983,-1.34458 -0.31836,-1.98828 0.21094,-0.65121 0.31828,-1.32949 0.31836,-2.01172 0,-3.72792 -3.13401,-6.75 -7,-6.75 -0.50206,0.003 -1.00233,0.0579 -1.49219,0.16406 -0.49495,-0.10721 -1.00053,-0.16222 -1.50781,-0.16406 z m -13.51172,39.92188 c 0.21182,0.0296 0.42493,0.0498 0.63867,0.0605 -0.0837,0.41774 -0.12616,0.84217 -0.12695,1.26762 0.001,0.11533 0.006,0.2306 0.0137,0.3457 -0.35726,-0.43725 -0.76924,-0.83021 -1.22656,-1.16992 0.24439,-0.15371 0.47857,-0.32201 0.70117,-0.5039 z m -18.11719,4.82617 c 0.21181,0.27926 0.44557,0.54241 0.69922,0.78711 -0.56365,0.44443 -1.05194,0.97095 -1.44726,1.56054 -0.0429,-0.006 -0.0859,-0.0108 -0.12891,-0.0156 -0.02,-0.71916 -0.15915,-1.43061 -0.41211,-2.10742 0.43602,-0.0359 0.8676,-0.11105 1.28906,-0.22461 z m 20.11524,0.65625 c 0.94926,1.16829 2.27136,2.00233 3.76172,2.37304 -1.23124,0.62267 -2.2423,1.58478 -2.9043,2.76368 -0.44303,-0.64585 -0.998,-1.21338 -1.64063,-1.67774 0.52111,-0.96097 0.79445,-2.02886 0.79688,-3.11328 -0.001,-0.11533 -0.006,-0.2306 -0.0137,-0.3457 z m -13.72852,11.98242 c -0.93162,0.68598 -1.66969,1.58656 -2.14648,2.61914 -0.0371,-0.002 -0.0742,-0.004 -0.11133,-0.006 -1.23354,0.003 -2.44434,0.32043 -3.50977,0.91992 0.004,-0.0566 0.007,-0.11324 0.01,-0.16992 -0.002,-0.22842 -0.0167,-0.45658 -0.043,-0.68359 1.4068,-0.51031 2.6059,-1.4437 3.41992,-2.66211 0.37107,0.061 0.74664,0.093 1.12305,0.0957 0.42195,-0.001 0.84294,-0.039 1.25781,-0.11328 z m 12.82227,2.33789 c 0.0945,0.61703 0.27722,1.21846 0.54297,1.78711 -0.0805,0.40823 -0.12165,0.82275 -0.12305,1.23828 0.001,0.0892 0.005,0.17846 0.01,0.26758 -0.70284,0.0474 -1.39423,0.19689 -2.05079,0.44336 0.0266,-0.23612 0.0403,-0.47343 0.041,-0.71094 -0.003,-0.70814 -0.12173,-1.4114 -0.35156,-2.08398 0.6906,-0.21534 1.34227,-0.53294 1.93164,-0.94141 z m -6.03906,9.31445 c -0.0266,0.23612 -0.0403,0.47343 -0.041,0.71094 0.002,3.49678 2.77251,6.41337 6.38477,6.7207 -0.57928,1.00278 -0.8838,2.13144 -0.88477,3.2793 0.003,1.22258 0.34968,2.42151 1.00391,3.46875 -0.16181,0.10751 -0.31885,0.22155 -0.47071,0.3418 -1.31864,-1.31645 -3.13515,-2.06011 -5.0332,-2.06055 -0.53622,0.003 -1.07032,0.0651 -1.5918,0.18555 -0.5422,-3.27399 -3.46993,-5.68355 -6.9082,-5.68555 -1.14005,0.002 -2.26242,0.27192 -3.26953,0.78711 -1.28908,-1.14594 -2.97719,-1.78369 -4.73047,-1.78711 -0.0156,6.2e-4 -0.0313,0.001 -0.0469,0.002 0.0301,-0.24963 0.0458,-0.50069 0.0469,-0.752 -0.003,-0.29804 -0.0265,-0.59557 -0.0703,-0.89062 1.27025,1.05745 2.89218,1.63969 4.57031,1.64062 1.9896,-0.003 3.88373,-0.82291 5.20898,-2.25391 1.41211,-0.70434 2.53352,-1.85123 3.17969,-3.25195 0.0371,0.002 0.0742,0.004 0.11133,0.006 0.86934,-1.6e-4 1.73104,-0.15647 2.54102,-0.46094 z m -23.29493,11.91406 c 0.25024,0.0287 0.50191,0.0444 0.75391,0.0469 0.0156,-6.2e-4 0.0313,-0.001 0.0469,-0.002 -0.0301,0.24961 -0.0458,0.50065 -0.0469,0.75195 0.001,3.23014 2.37585,6.00658 5.66406,6.62305 -0.15494,0.14438 -0.30288,0.29558 -0.44336,0.45312 -0.63002,0.5699 -1.14521,1.24733 -1.51953,1.99805 -0.72597,-2.33984 -2.70608,-4.11902 -5.17773,-4.65234 0.63623,-1.0362 0.9734,-2.21766 0.97656,-3.42185 -4.3e-4,-0.60725 -0.0858,-1.21166 -0.25391,-1.79688 z m 17.34571,8.36133 c 0.278,1.66787 1.19444,3.1746 2.56836,4.22266 -0.0305,0.0472 -0.0605,0.0947 -0.0898,0.14258 -0.51473,-0.1169 -1.04155,-0.17718 -1.57036,-0.17969 l -0.0137,0 c 0.006,-0.0832 0.0107,-0.16659 0.0137,-0.25 -0.003,-1.38035 -0.44465,-2.72664 -1.26562,-3.85742 0.11983,-0.023 0.23901,-0.0491 0.35742,-0.0781 z" inkscape:connector-curvature="0" />
</g>
<g inkscape:groupmode="layer" id="routes_layer" inkscape:label="Routes" style="display:inline" sodipodi:insensitive="true" >
  <path style="display:inline;fill:none;stroke:#000000;stroke-width:2;stroke-linecap:round;stroke-miterlimit:4;stroke-dasharray:0.1, 5;stroke-dashoffset:0;stroke-opacity:1" d="m 173.25001,252.5 c -14.20351,-21.88591 4.94209,-62.26723 21,-63.375 17.36728,-1.1981 16.70774,30.25 42,30.25 l 16.875,0 M 123.75001,5.2e-6 123.75,11.25 c 0,21.363033 -6.55971,47.208198 -22.5,61.875 -16.262122,14.962922 -34.515435,53.28087 -39.375,67.5 -8.135306,23.80398 -11.976504,77.66024 0,95.625 22.5,33.75 22.50001,77.99415 22.5,90 l -1e-5,11.25 M 55.082107,176.30546 C 36.030906,166.73451 20.929974,169.022 11.25,168.75 l -11.25,0" inkscape:connector-curvature="0" />
</g>
<g inkscape:groupmode="layer" id="labels_layer" inkscape:label="Labels" style="display:inline" sodipodi:insensitive="true" >
  <text xml:space="preserve"><textPath xlink:href="#dissa_point"><tspan
  style="-inkscape-font-specification:'CCTreasureTroveAged Mod, Normal';font-family:'CCTreasureTroveAged Mod';font-weight:normal;font-style:normal;font-stretch:normal;font-variant:normal;font-size:8.75px;text-anchor:start;text-align:start;writing-mode:lr;line-height:125%"
  >Dissa Point</tspan></textPath></text>
</g>
<g inkscape:groupmode="layer" id="labels_guide_layer" inkscape:label="Labels Guide" style="display:none" sodipodi:insensitive="true" >
  <path id="dissa_point" style="color:#000000;fill:none;stroke:#000000;stroke-width:1;stroke-opacity:1" d="m 194.65961,115.78018 c -11.96764,8.19489 -32.63584,27.12879 -41.68169,40.68248" inkscape:connector-curvature="0" />
</g>
<g inkscape:groupmode="layer" id="resources_layer" inkscape:label="Resources" style="display:inline" sodipodi:insensitive="true" >
  <g id="resource-banana" transform="matrix(-0.96244594,-0.2714734,0.2714734,-0.96244594,203.34139,154.20732)" >
    <path style="color:#000000;clip-rule:nonzero;display:inline;overflow:visible;visibility:visible;opacity:1;isolation:auto;mix-blend-mode:normal;color-interpolation:sRGB;color-interpolation-filters:linearRGB;solid-color:#000000;solid-opacity:1;fill:#f6ff7d;fill-opacity:1;fill-rule:evenodd;stroke:#000000;stroke-width:0.89999998;stroke-linecap:round;stroke-linejoin:miter;stroke-miterlimit:4;stroke-dasharray:none;stroke-dashoffset:0;stroke-opacity:1;color-rendering:auto;image-rendering:auto;shape-rendering:auto;text-rendering:auto;enable-background:accumulate" d="m 8.78082,-121.13744 c 0.34471,1.36915 0.66512,3.60435 0.73321,4.6643 -0.49421,3.88746 -1.33998,7.74843 -3.32367,10.57326 -2.40596,3.42618 -5.41293,5.37866 -11.11869,7.679247 -0.60011,0.241966 -1.22538,0.289326 -1.46855,0.679535 -0.16319,0.261865 0.37387,1.454696 0.69075,1.620824 0.62648,0.328443 1.07253,0.177853 1.77872,0.218405 2.75809,0.158378 5.05424,-0.146839 8.30722,-1.151769 2.54386,-0.78586 5.74014,-3.251012 7.23795,-5.452222 1.82616,-2.68377 2.69924,-6.37346 2.5117,-9.61419 -0.15399,-2.66107 -2.58676,-5.30143 -2.58676,-5.30143 -0.24357,-1.33177 -0.66717,-2.90679 -1.14995,-4.64892 -0.58055,0.0153 -1.40915,0.37101 -1.61193,0.73296 z" inkscape:connector-curvature="0" />
    <path style="color:#000000;clip-rule:nonzero;display:inline;overflow:visible;visibility:visible;opacity:1;isolation:auto;mix-blend-mode:normal;color-interpolation:sRGB;color-interpolation-filters:linearRGB;solid-color:#000000;solid-opacity:1;fill:#f6ff7d;fill-opacity:1;fill-rule:evenodd;stroke:#000000;stroke-width:0.89999998;stroke-linecap:round;stroke-linejoin:miter;stroke-miterlimit:4;stroke-dasharray:none;stroke-dashoffset:0;stroke-opacity:1;color-rendering:auto;image-rendering:auto;shape-rendering:auto;text-rendering:auto;enable-background:accumulate" d="m 7.87879,-120.99354 c 0.0285,1.61295 0.38658,3.34631 0.31301,4.75879 -1.00555,3.30202 -3.33857,6.81255 -5.886,9.14173 -3.35597,3.06847 -7.87513,4.2358 -12.26178,5.43386 -0.6242,0.17048 -1.27338,-0.11771 -1.42138,0.51219 -0.15176,0.64587 0.0489,1.217046 0.31467,1.704455 0.33862,0.621027 0.89583,0.442404 1.59118,0.572223 2.67893,0.500153 5.58439,0.941055 8.23815,0.321149 2.59268,-0.605634 5.07646,-1.926877 7.10245,-3.654337 2.47014,-2.10616 4.44803,-4.97661 5.01611,-8.17267 0.39839,-2.24136 -0.605,-3.85067 -0.89708,-6.10835 -0.2048,-1.58315 0.19285,-2.72685 -0.1333,-4.91236 -0.55377,0.056 -1.33048,0.14727 -1.97603,0.40332 z" inkscape:connector-curvature="0" />
    <path style="color:#000000;clip-rule:nonzero;display:inline;overflow:visible;visibility:visible;opacity:1;isolation:auto;mix-blend-mode:normal;color-interpolation:sRGB;color-interpolation-filters:linearRGB;solid-color:#000000;solid-opacity:1;fill:#f6ff7d;fill-opacity:1;fill-rule:evenodd;stroke:#000000;stroke-width:0.89999998;stroke-linecap:round;stroke-linejoin:miter;stroke-miterlimit:4;stroke-dasharray:none;stroke-dashoffset:0;stroke-opacity:1;color-rendering:auto;image-rendering:auto;shape-rendering:auto;text-rendering:auto;enable-background:accumulate" d="m 6.86373,-121.02142 c -0.0162,1.67579 0.0613,3.31817 -0.2121,4.71569 -1.71528,2.99538 -4.19007,5.95351 -7.46659,7.74634 -4.28888,2.34678 -7.01389,2.86781 -11.88451,2.04623 -0.63804,-0.10762 -0.91664,-0.4723 -1.38982,-0.031 -0.50866,0.47443 -0.41626,1.00712 -0.0714,1.61117 0.35071,0.61429 0.52944,0.41897 1.09534,0.84336 1.98511,1.48869 3.74434,2.06677 6.44298,2.04779 2.77975,-0.0196 6.56154,-0.29036 8.90025,-1.56286 2.85139,-1.55146 4.93737,-3.4518 6.15239,-6.46199 0.85208,-2.11101 -0.0744,-4.05058 0.10539,-6.31996 0.12609,-1.59136 0.14328,-2.6534 0.0968,-4.5494 -0.63016,-0.20606 -1.24784,-0.12786 -1.76873,-0.0854 z" inkscape:connector-curvature="0" />
    <path style="color:#000000;font-style:normal;font-variant:normal;font-weight:normal;font-stretch:normal;font-size:medium;line-height:normal;font-family:sans-serif;text-indent:0;text-align:start;text-decoration:none;text-decoration-line:none;text-decoration-style:solid;text-decoration-color:#000000;letter-spacing:normal;word-spacing:normal;text-transform:none;direction:ltr;block-progression:tb;writing-mode:lr-tb;baseline-shift:baseline;text-anchor:start;white-space:normal;clip-rule:nonzero;display:inline;overflow:visible;visibility:visible;opacity:1;isolation:auto;mix-blend-mode:normal;color-interpolation:sRGB;color-interpolation-filters:linearRGB;solid-color:#000000;solid-opacity:1;fill:#737828;fill-opacity:1;fill-rule:evenodd;stroke:none;stroke-width:0.72000003;stroke-linecap:round;stroke-linejoin:miter;stroke-miterlimit:4;stroke-dasharray:none;stroke-dashoffset:0;stroke-opacity:1;color-rendering:auto;image-rendering:auto;shape-rendering:auto;text-rendering:auto;enable-background:accumulate" d="m 2.51814,-107.7686 c -2.07228,1.54391 -3.74795,2.09142 -6.33636,2.57335 -1.72347,0.32089 -3.84937,0.49004 -6.70834,0.0497 -0.53792,-0.0828 -0.32892,0.17921 0.20456,0.28719 2.7148,0.54957 5.27205,0.1766 6.8941,-0.0851 2.63047,-0.42445 3.77137,-0.81223 6.04492,-2.32391 0.12768,-0.58475 -0.15949,-0.11588 -0.0988,-0.5012 z" inkscape:connector-curvature="0" />
    <path style="color:#000000;clip-rule:nonzero;display:inline;overflow:visible;visibility:visible;opacity:1;isolation:auto;mix-blend-mode:normal;color-interpolation:sRGB;color-interpolation-filters:linearRGB;solid-color:#000000;solid-opacity:1;fill:#f7ff7d;fill-opacity:1;fill-rule:evenodd;stroke:#000000;stroke-width:0.72000003;stroke-linecap:round;stroke-linejoin:miter;stroke-miterlimit:4;stroke-dasharray:none;stroke-dashoffset:0;stroke-opacity:1;color-rendering:auto;image-rendering:auto;shape-rendering:auto;text-rendering:auto;enable-background:accumulate" d="m 7.87879,-120.99354 c 0.0285,1.61295 0.38658,3.34631 0.31301,4.75879 -1.00555,3.30202 -3.33857,6.81255 -5.886,9.14173 -3.35597,3.06847 -7.87513,4.2358 -12.26178,5.43386 -0.6242,0.17048 -1.27338,-0.11771 -1.42138,0.51219 -0.15176,0.64587 0.0489,1.217046 0.31467,1.704455 0.33862,0.621027 0.89583,0.442404 1.59118,0.572223 2.67893,0.500153 5.58439,0.941055 8.23815,0.321149 2.59268,-0.605634 5.07646,-1.926877 7.10245,-3.654337 2.47014,-2.10616 4.44803,-4.97661 5.01611,-8.17267 0.39839,-2.24136 -0.605,-3.85067 -0.89708,-6.10835 -0.2048,-1.58315 0.19285,-2.72685 -0.1333,-4.91236 -0.55377,0.056 -1.33048,0.14727 -1.97603,0.40332 z" inkscape:connector-curvature="0" />
    <path style="color:#000000;font-style:normal;font-variant:normal;font-weight:normal;font-stretch:normal;font-size:medium;line-height:normal;font-family:sans-serif;text-indent:0;text-align:start;text-decoration:none;text-decoration-line:none;text-decoration-style:solid;text-decoration-color:#000000;letter-spacing:normal;word-spacing:normal;text-transform:none;direction:ltr;block-progression:tb;writing-mode:lr-tb;baseline-shift:baseline;text-anchor:start;white-space:normal;clip-rule:nonzero;display:inline;overflow:visible;visibility:visible;opacity:1;isolation:auto;mix-blend-mode:normal;color-interpolation:sRGB;color-interpolation-filters:linearRGB;solid-color:#000000;solid-opacity:1;fill:#737828;fill-opacity:1;fill-rule:evenodd;stroke:none;stroke-width:0.72000003;stroke-linecap:round;stroke-linejoin:miter;stroke-miterlimit:4;stroke-dasharray:none;stroke-dashoffset:0;stroke-opacity:1;color-rendering:auto;image-rendering:auto;shape-rendering:auto;text-rendering:auto;enable-background:accumulate" d="m 4.80468,-106.35032 c -1.8366,1.79924 -3.59964,2.90171 -6.00807,3.97021 -1.77027,0.7854 -3.77092,1.22784 -6.52266,1.38661 -0.55888,0.0322 -0.28397,0.22297 0.27546,0.20184 2.71946,-0.10273 4.80476,-0.55229 6.63126,-1.36264 2.43383,-1.07977 4.50278,-2.38649 6.25386,-4.13127 0.79789,-0.79502 1.95252,-2.23179 2.69967,-3.4881 0.21909,-0.3684 0.3354,-1.28542 0.2234,-1.22755 -1.02526,2.0653 -2.6769,3.7927 -3.55292,4.6509 z" inkscape:connector-curvature="0" />
    <path style="color:#000000;clip-rule:nonzero;display:inline;overflow:visible;visibility:visible;opacity:1;isolation:auto;mix-blend-mode:normal;color-interpolation:sRGB;color-interpolation-filters:linearRGB;solid-color:#000000;solid-opacity:1;fill:#f7ff7d;fill-opacity:1;fill-rule:evenodd;stroke:#000000;stroke-width:0.72000003;stroke-linecap:round;stroke-linejoin:miter;stroke-miterlimit:4;stroke-dasharray:none;stroke-dashoffset:0;stroke-opacity:1;color-rendering:auto;image-rendering:auto;shape-rendering:auto;text-rendering:auto;enable-background:accumulate" d="m 8.78082,-121.13744 c 0.34471,1.36915 0.66512,3.60435 0.73321,4.6643 -0.49421,3.88746 -1.33998,7.74843 -3.32367,10.57326 -2.40596,3.42618 -5.41293,5.37866 -11.11869,7.679247 -0.60011,0.241966 -1.22538,0.289326 -1.46855,0.679535 -0.16319,0.261865 0.37387,1.454696 0.69075,1.620824 0.62648,0.328443 1.07253,0.177853 1.77872,0.218405 2.75809,0.158378 5.05424,-0.146839 8.30722,-1.151769 2.54386,-0.78586 5.74014,-3.251012 7.23795,-5.452222 1.82616,-2.68377 2.69924,-6.37346 2.5117,-9.61419 -0.15399,-2.66107 -2.58676,-5.30143 -2.58676,-5.30143 -0.24357,-1.33177 -0.66717,-2.90679 -1.14995,-4.64892 -0.58055,0.0153 -1.40915,0.37101 -1.61193,0.73296 z" inkscape:connector-curvature="0" />
    <path style="color:#000000;font-style:normal;font-variant:normal;font-weight:normal;font-stretch:normal;font-size:medium;line-height:normal;font-family:sans-serif;text-indent:0;text-align:start;text-decoration:none;text-decoration-line:none;text-decoration-style:solid;text-decoration-color:#000000;letter-spacing:normal;word-spacing:normal;text-transform:none;direction:ltr;block-progression:tb;writing-mode:lr-tb;baseline-shift:baseline;text-anchor:start;white-space:normal;clip-rule:nonzero;display:inline;overflow:visible;visibility:visible;opacity:1;isolation:auto;mix-blend-mode:normal;color-interpolation:sRGB;color-interpolation-filters:linearRGB;solid-color:#000000;solid-opacity:1;fill:#737828;fill-opacity:1;fill-rule:evenodd;stroke:none;stroke-width:0.72000003;stroke-linecap:round;stroke-linejoin:miter;stroke-miterlimit:4;stroke-dasharray:none;stroke-dashoffset:0;stroke-opacity:1;color-rendering:auto;image-rendering:auto;shape-rendering:auto;text-rendering:auto;enable-background:accumulate" d="m 11.17023,-113.86439 c -0.011,1.77939 -0.15804,3.37671 -0.70318,5.01283 -0.47684,1.43111 -0.94867,2.44937 -1.96984,4.0718 -1.36954,2.17594 -2.93041,3.68885 -5.19121,5.042 -1.55728,0.93208 -2.86824,1.715367 -5.59247,2.278309 -0.52698,0.108898 -1.00078,0.418847 -0.4677,0.345229 2.76772,-0.382229 4.71945,-1.233835 6.39997,-2.314868 2.23928,-1.44048 3.93705,-2.7933 5.38929,-5.10065 1.02607,-1.63022 1.47452,-2.54995 1.94328,-4.06882 0.56259,-1.82288 0.63573,-3.73693 0.46838,-5.5182 -0.0877,-0.93395 -0.2737,-0.2032 -0.27652,0.25237 z" inkscape:connector-curvature="0" />
  </g>
</g>
<g inkscape:groupmode="layer" id="extras_layer" inkscape:label="Extras" style="display:inline" sodipodi:insensitive="true" >
  <g id="extra-ship" transform="matrix(0.4444171,-0.89581998,0.89581998,0.4444171,266.30938,417.60566)" >
    <path style="color:#000000;fill:url(#gradientShip);fill-opacity:1;fill-rule:evenodd;stroke:#000000;stroke-width:0.75;stroke-linecap:butt;stroke-linejoin:round;stroke-miterlimit:4;stroke-dasharray:none;stroke-dashoffset:0;stroke-opacity:1;marker:none;enable-background:accumulate" d="m 243.2364,-52.722824 c -3.10208,-2.937202 -8.72518,-3.346714 -12.49116,-3.032742 -2.95307,0.246202 -6.62512,1.070872 -6.62512,1.070872 l -0.0121,3.725952 c 0,0 2.43298,0.582421 6.39007,0.932887 3.66202,0.324334 9.61676,-0.283241 12.73834,-2.696969 z" inkscape:connector-curvature="0" />
    <path style="color:#000000;opacity:1;isolation:auto;mix-blend-mode:normal;color-interpolation:sRGB;color-interpolation-filters:linearRGB;solid-color:#000000;solid-opacity:1;fill:#000000;fill-opacity:1;fill-rule:evenodd;stroke:none;stroke-width:0.75;stroke-linecap:round;stroke-linejoin:round;stroke-miterlimit:4;stroke-dasharray:none;stroke-dashoffset:0;stroke-opacity:1;marker:none;color-rendering:auto;image-rendering:auto;shape-rendering:auto;text-rendering:auto;enable-background:accumulate" d="m 243.05273,-53.089844 c -0.50461,-0.01007 -0.51271,0.749303 -0.008,0.75 l 2.80546,-0.143551 c 0.50461,0.01007 0.51856,-0.385922 0.0138,-0.386619 z" inkscape:connector-curvature="0" />
    <circle cx="37.651787" cy="-233.087830" r="0.695206" style="color:#000000;opacity:1;isolation:auto;mix-blend-mode:normal;color-interpolation:sRGB;color-interpolation-filters:linearRGB;solid-color:#000000;solid-opacity:1;fill:#a66e00;fill-opacity:1;fill-rule:nonzero;stroke:#000000;stroke-width:0.5;stroke-linecap:butt;stroke-linejoin:miter;stroke-miterlimit:4;stroke-dasharray:none;stroke-dashoffset:0;stroke-opacity:1;color-rendering:auto;image-rendering:auto;shape-rendering:auto;text-rendering:auto;enable-background:accumulate" transform="matrix(0.37654483,0.9263984,-0.9263984,0.37654483,0,0)" />
    <circle cx="39.995537" cy="-238.712830" r="0.695206" style="color:#000000;opacity:1;isolation:auto;mix-blend-mode:normal;color-interpolation:sRGB;color-interpolation-filters:linearRGB;solid-color:#000000;solid-opacity:1;fill:#a66e00;fill-opacity:1;fill-rule:nonzero;stroke:#000000;stroke-width:0.5;stroke-linecap:butt;stroke-linejoin:miter;stroke-miterlimit:4;stroke-dasharray:none;stroke-dashoffset:0;stroke-opacity:1;color-rendering:auto;image-rendering:auto;shape-rendering:auto;text-rendering:auto;enable-background:accumulate" transform="matrix(0.37654483,0.9263984,-0.9263984,0.37654483,0,0)" />
    <path style="color:#000000;fill:#feffff;fill-opacity:1;fill-rule:evenodd;stroke:#000000;stroke-width:0.5;stroke-linecap:butt;stroke-linejoin:round;stroke-miterlimit:4;stroke-dasharray:none;stroke-dashoffset:0;stroke-opacity:1;marker:none;enable-background:accumulate" d="m 230.8139,-58.168744 -0.0696,11.095953 c 0,0 1.11273,-0.901569 1.17305,-2.014949 0.0592,-1.093696 -0.80015,-1.762231 -0.80015,-1.762231 0,0 1.00218,-0.841738 0.9922,-1.921676 -0.0106,-1.140901 -0.9468,-1.722391 -0.9468,-1.722391 0,0 0.80027,-0.5343 0.83406,-1.646805 0.0349,-1.150244 -1.18274,-2.027894 -1.18274,-2.027894 z" inkscape:connector-curvature="0" />
    <path style="color:#000000;fill:#feffff;fill-opacity:1;fill-rule:evenodd;stroke:#000000;stroke-width:0.5;stroke-linecap:butt;stroke-linejoin:round;stroke-miterlimit:4;stroke-dasharray:none;stroke-dashoffset:0;stroke-opacity:1;marker:none;enable-background:accumulate" d="m 236.95087,-57.97366 -0.0645,10.282469 c 0,0 1.03677,-0.785137 1.09267,-1.816887 0.0549,-1.013517 -0.74706,-1.683399 -0.74706,-1.683399 0,0 0.85887,-0.76153 0.84962,-1.762298 -0.01,-1.057255 -0.80754,-1.614603 -0.80754,-1.614603 0,0 0.84013,-0.540128 0.87144,-1.571079 0.0324,-1.065902 -1.19455,-1.834218 -1.19455,-1.834218 z" inkscape:connector-curvature="0" />
    <path style="fill:#000000;stroke:none" d="m 239.16963,-53.312319 -0.0111,0.999645 1.00145,0.01039 0.009,-1.000718 z" inkscape:connector-curvature="0" />
    <path style="fill:#6a4600;stroke:none" d="m 233.00825,-53.641515 -0.0131,1.52646 1.52369,0.01423 0.0142,-1.523703 z" inkscape:connector-curvature="0" />
    <path style="fill:none;stroke:#000000;stroke-width:0.6;stroke-linecap:butt" d="m 227.26126,-55.055042 -0.0734,4.514141" inkscape:connector-curvature="0" />
    <path style="fill:#000000;stroke:none" d="m 223.83649,-54.026834 -0.0111,0.999636 1.00072,0.0086 0.009,-0.998911 z" inkscape:connector-curvature="0" />
    <path style="fill:#000000;stroke:none" d="m 223.85032,-52.581947 -0.0111,0.999637 1.00072,0.0086 0.009,-0.998912 z" inkscape:connector-curvature="0" />
    <path style="fill:none;stroke:#000000;stroke-width:0.5;stroke-linecap:butt;stroke-linejoin:round;stroke-miterlimit:4" d="m 227.2539,-51.578825 1.14997,0.173504 -0.0116,1.05042" inkscape:connector-curvature="0" />
    <path style="fill:none;stroke:#000000;stroke-width:0.5;stroke-linecap:butt;stroke-linejoin:round;stroke-miterlimit:4" d="m 227.25705,-54.143799 1.1481,-0.163064 0.0224,-1.189753" inkscape:connector-curvature="0" />
  </g>
</g>
<g inkscape:groupmode="layer" id="suit_rank_glow_layer" inkscape:label="Suit Rank Glow" style="display:inline" sodipodi:insensitive="true" >
  <g style="opacity:0.75;filter:url(#blurSuitRankGlow)" >
    <path style="fill:#ffffff;fill-opacity:1;stroke:none" d="m 31.453338,20.865025 c -5.068589,2.178218 -11.123659,8.116004 -11.112499,14.56 0.007,3.899493 2.33855,5.215546 4.47125,5.74875 1.25548,0.313886 3.11121,0.211218 4.40125,-0.53375 -0.0977,1.04834 -0.18907,3.221456 -0.21,4.235 1.633329,0 3.266669,0 4.899999,0 -0.0209,-1.013544 -0.11229,-3.18666 -0.21,-4.235 1.29004,0.744968 3.14577,0.847636 4.40125,0.53375 2.1327,-0.533204 4.4645,-1.849257 4.47125,-5.74875 0.0111,-6.443996 -6.04391,-12.381782 -11.1125,-14.56 z" inkscape:connector-curvature="0" />
    <path style="fill:#ffffff;fill-opacity:1;stroke:none" d="m 215.96335,316.63503 c 5.06859,-2.17822 11.12366,-8.11601 11.1125,-14.56 -0.007,-3.8995 -2.33855,-5.21555 -4.47125,-5.74875 -1.25548,-0.31389 -3.11121,-0.21122 -4.40125,0.53375 0.0977,-1.04834 0.18907,-3.22146 0.21,-4.235 -1.63333,0 -3.26667,0 -4.9,0 0.0209,1.01354 0.11229,3.18666 0.21,4.235 -1.29004,-0.74497 -3.14577,-0.84764 -4.40125,-0.53375 -2.1327,0.5332 -4.4645,1.84925 -4.47125,5.74875 -0.0111,6.44399 6.04391,12.38178 11.1125,14.56 z" inkscape:connector-curvature="0" />
    <path style="fill:#ffffff;fill-opacity:1;stroke:none" d="m 25.533343,64.095025 9.67999,-10.12 -9.47999,0 0,4 -3.2,0 0,-7.2 17.2,0 0,3.2 -7.56001,7.84 c 1.30666,0.08 2.51999,0.4 3.64,0.96 1.11999,0.5334 2.09332,1.2534 2.92001,2.16 0.82664,0.9067 1.46664,1.9734 1.92,3.2 0.45331,1.2267 0.67997,2.5467 0.67999,3.96 -2e-5,1.5467 -0.28002,2.9867 -0.83999,4.32 -0.53336,1.3333 -1.26669,2.4933 -2.2,3.48 -0.93336,0.96 -2.04002,1.72 -3.32,2.28 -1.25335,0.5333 -2.60002,0.8 -4.04001,0.8 -2.08,0 -3.94667,-0.5733 -5.6,-1.72 -1.65333,-1.1733 -2.90666,-2.6933 -3.76,-4.56 l 2.76,-1.68 c 0.56,1.4133 1.42667,2.56 2.6,3.44 1.2,0.88 2.53333,1.32 4,1.32 0.98666,0 1.91999,-0.1867 2.80001,-0.56 0.87998,-0.4 1.63998,-0.9333 2.28,-1.6 0.66665,-0.6933 1.18665,-1.5067 1.55999,-2.44 0.37332,-0.96 0.55999,-1.9866 0.56001,-3.08 -2e-5,-1.0933 -0.17336,-2.08 -0.52,-2.96 -0.32002,-0.88 -0.78669,-1.6266 -1.40001,-2.24 -0.58668,-0.6133 -1.30668,-1.08 -2.16,-1.4 -0.82667,-0.3466 -1.73334,-0.52 -2.72,-0.52 -0.77334,0 -1.4,0.1067 -1.88,0.32 -0.48,0.2134 -1.01334,0.56 -1.59999,1.04 l -2.32,-2.24" inkscape:connector-curvature="0" />
    <path style="fill:#ffffff;fill-opacity:1;stroke:none" d="m 221.88333,273.40503 -9.67999,10.12 9.47999,0 0,-4 3.2,0 0,7.2 -17.2,0 0,-3.2 7.56001,-7.84 c -1.30666,-0.08 -2.51999,-0.4 -3.64,-0.96 -1.11999,-0.5334 -2.09332,-1.2534 -2.92001,-2.16 -0.82664,-0.9067 -1.46664,-1.9734 -1.92,-3.2 -0.45331,-1.2267 -0.67997,-2.5467 -0.67999,-3.96 2e-5,-1.5467 0.28002,-2.9867 0.83999,-4.32 0.53336,-1.3333 1.26669,-2.4933 2.2,-3.48 0.93336,-0.96 2.04002,-1.72 3.32,-2.28 1.25335,-0.5333 2.60002,-0.8 4.04001,-0.8 2.08,0 3.94667,0.5733 5.6,1.72 1.65333,1.1733 2.90666,2.6933 3.76,4.56 l -2.76,1.68 c -0.56,-1.4133 -1.42667,-2.56 -2.6,-3.44 -1.2,-0.88 -2.53333,-1.32 -4,-1.32 -0.98666,0 -1.91999,0.1867 -2.80001,0.56 -0.87998,0.4 -1.63998,0.9333 -2.28,1.6 -0.66665,0.6933 -1.18665,1.5067 -1.55999,2.44 -0.37332,0.96 -0.55999,1.9866 -0.56001,3.08 2e-5,1.0933 0.17336,2.08 0.52,2.96 0.32002,0.88 0.78669,1.6266 1.40001,2.24 0.58668,0.6133 1.30668,1.08 2.16,1.4 0.82667,0.3466 1.73334,0.52 2.72,0.52 0.77334,0 1.4,-0.1067 1.88,-0.32 0.48,-0.2134 1.01334,-0.56 1.59999,-1.04 l 2.32,2.24" inkscape:connector-curvature="0" />
  </g>
</g>
<g inkscape:groupmode="layer" id="suit_rank_layer" inkscape:label="Suit Rank" style="display:inline" sodipodi:insensitive="true" >
  <path style="fill:#000000;fill-opacity:1;stroke:none" d="m 31.453338,20.865025 c -5.068589,2.178218 -11.123659,8.116004 -11.112499,14.56 0.007,3.899493 2.33855,5.215546 4.47125,5.74875 1.25548,0.313886 3.11121,0.211218 4.40125,-0.53375 -0.0977,1.04834 -0.18907,3.221456 -0.21,4.235 1.633329,0 3.266669,0 4.899999,0 -0.0209,-1.013544 -0.11229,-3.18666 -0.21,-4.235 1.29004,0.744968 3.14577,0.847636 4.40125,0.53375 2.1327,-0.533204 4.4645,-1.849257 4.47125,-5.74875 0.0111,-6.443996 -6.04391,-12.381782 -11.1125,-14.56 z" inkscape:connector-curvature="0" />
  <path style="fill:#000000;fill-opacity:1;stroke:none" d="m 215.96335,316.63503 c 5.06859,-2.17822 11.12366,-8.11601 11.1125,-14.56 -0.007,-3.8995 -2.33855,-5.21555 -4.47125,-5.74875 -1.25548,-0.31389 -3.11121,-0.21122 -4.40125,0.53375 0.0977,-1.04834 0.18907,-3.22146 0.21,-4.235 -1.63333,0 -3.26667,0 -4.9,0 0.0209,1.01354 0.11229,3.18666 0.21,4.235 -1.29004,-0.74497 -3.14577,-0.84764 -4.40125,-0.53375 -2.1327,0.5332 -4.4645,1.84925 -4.47125,5.74875 -0.0111,6.44399 6.04391,12.38178 11.1125,14.56 z" inkscape:connector-curvature="0" />
  <path style="fill:#000000;fill-opacity:1;stroke:none" d="m 25.533343,64.095025 9.67999,-10.12 -9.47999,0 0,4 -3.2,0 0,-7.2 17.2,0 0,3.2 -7.56001,7.84 c 1.30666,0.08 2.51999,0.4 3.64,0.96 1.11999,0.5334 2.09332,1.2534 2.92001,2.16 0.82664,0.9067 1.46664,1.9734 1.92,3.2 0.45331,1.2267 0.67997,2.5467 0.67999,3.96 -2e-5,1.5467 -0.28002,2.9867 -0.83999,4.32 -0.53336,1.3333 -1.26669,2.4933 -2.2,3.48 -0.93336,0.96 -2.04002,1.72 -3.32,2.28 -1.25335,0.5333 -2.60002,0.8 -4.04001,0.8 -2.08,0 -3.94667,-0.5733 -5.6,-1.72 -1.65333,-1.1733 -2.90666,-2.6933 -3.76,-4.56 l 2.76,-1.68 c 0.56,1.4133 1.42667,2.56 2.6,3.44 1.2,0.88 2.53333,1.32 4,1.32 0.98666,0 1.91999,-0.1867 2.80001,-0.56 0.87998,-0.4 1.63998,-0.9333 2.28,-1.6 0.66665,-0.6933 1.18665,-1.5067 1.55999,-2.44 0.37332,-0.96 0.55999,-1.9866 0.56001,-3.08 -2e-5,-1.0933 -0.17336,-2.08 -0.52,-2.96 -0.32002,-0.88 -0.78669,-1.6266 -1.40001,-2.24 -0.58668,-0.6133 -1.30668,-1.08 -2.16,-1.4 -0.82667,-0.3466 -1.73334,-0.52 -2.72,-0.52 -0.77334,0 -1.4,0.1067 -1.88,0.32 -0.48,0.2134 -1.01334,0.56 -1.59999,1.04 l -2.32,-2.24" inkscape:connector-curvature="0" />
  <path style="fill:#000000;fill-opacity:1;stroke:none" d="m 221.88333,273.40503 -9.67999,10.12 9.47999,0 0,-4 3.2,0 0,7.2 -17.2,0 0,-3.2 7.56001,-7.84 c -1.30666,-0.08 -2.51999,-0.4 -3.64,-0.96 -1.11999,-0.5334 -2.09332,-1.2534 -2.92001,-2.16 -0.82664,-0.9067 -1.46664,-1.9734 -1.92,-3.2 -0.45331,-1.2267 -0.67997,-2.5467 -0.67999,-3.96 2e-5,-1.5467 0.28002,-2.9867 0.83999,-4.32 0.53336,-1.3333 1.26669,-2.4933 2.2,-3.48 0.93336,-0.96 2.04002,-1.72 3.32,-2.28 1.25335,-0.5333 2.60002,-0.8 4.04001,-0.8 2.08,0 3.94667,0.5733 5.6,1.72 1.65333,1.1733 2.90666,2.6933 3.76,4.56 l -2.76,1.68 c -0.56,-1.4133 -1.42667,-2.56 -2.6,-3.44 -1.2,-0.88 -2.53333,-1.32 -4,-1.32 -0.98666,0 -1.91999,0.1867 -2.80001,0.56 -0.87998,0.4 -1.63998,0.9333 -2.28,1.6 -0.66665,0.6933 -1.18665,1.5067 -1.55999,2.44 -0.37332,0.96 -0.55999,1.9866 -0.56001,3.08 2e-5,1.0933 0.17336,2.08 0.52,2.96 0.32002,0.88 0.78669,1.6266 1.40001,2.24 0.58668,0.6133 1.30668,1.08 2.16,1.4 0.82667,0.3466 1.73334,0.52 2.72,0.52 0.77334,0 1.4,-0.1067 1.88,-0.32 0.48,-0.2134 1.01334,-0.56 1.59999,-1.04 l 2.32,2.24" inkscape:connector-curvature="0" />
</g>
<g inkscape:groupmode="layer" id="guides_layer" inkscape:label="Guides" style="display:none" sodipodi:insensitive="true" >
  <path style="fill:none;stroke:#000000;stroke-width:0.9" d="m 11.250000,11.25 0,-45" inkscape:connector-curvature="0" />
  <path style="fill:none;stroke:#000000;stroke-width:0.9" d="m 11.250000,371.25 0,-45" inkscape:connector-curvature="0" />
  <path style="fill:none;stroke:#000000;stroke-width:0.9" d="m 84.375000,11.25 0,-45" inkscape:connector-curvature="0" />
  <path style="fill:none;stroke:#000000;stroke-width:0.9" d="m 84.375000,371.25 0,-45" inkscape:connector-curvature="0" />
  <path style="fill:none;stroke:#000000;stroke-width:0.9" d="m 123.750000,11.25 0,-45" inkscape:connector-curvature="0" />
  <path style="fill:none;stroke:#000000;stroke-width:0.9" d="m 123.750000,371.25 0,-45" inkscape:connector-curvature="0" />
  <path style="fill:none;stroke:#000000;stroke-width:0.9" d="m 163.125000,11.25 0,-45" inkscape:connector-curvature="0" />
  <path style="fill:none;stroke:#000000;stroke-width:0.9" d="m 163.125000,371.25 0,-45" inkscape:connector-curvature="0" />
  <path style="fill:none;stroke:#000000;stroke-width:0.9" d="m 236.250000,11.25 0,-45" inkscape:connector-curvature="0" />
  <path style="fill:none;stroke:#000000;stroke-width:0.9" d="m 236.250000,371.25 0,-45" inkscape:connector-curvature="0" />
  <path style="fill:none;stroke:#000000;stroke-width:0.9" d="m -33.75,11.250000 45,0" inkscape:connector-curvature="0" />
  <path style="fill:none;stroke:#000000;stroke-width:0.9" d="m 236.25,11.250000 45,0" inkscape:connector-curvature="0" />
  <path style="fill:none;stroke:#000000;stroke-width:0.9" d="m -33.75,118.125000 45,0" inkscape:connector-curvature="0" />
  <path style="fill:none;stroke:#000000;stroke-width:0.9" d="m 236.25,118.125000 45,0" inkscape:connector-curvature="0" />
  <path style="fill:none;stroke:#000000;stroke-width:0.9" d="m -33.75,168.750000 45,0" inkscape:connector-curvature="0" />
  <path style="fill:none;stroke:#000000;stroke-width:0.9" d="m 236.25,168.750000 45,0" inkscape:connector-curvature="0" />
  <path style="fill:none;stroke:#000000;stroke-width:0.9" d="m -33.75,219.375000 45,0" inkscape:connector-curvature="0" />
  <path style="fill:none;stroke:#000000;stroke-width:0.9" d="m 236.25,219.375000 45,0" inkscape:connector-curvature="0" />
  <path style="fill:none;stroke:#000000;stroke-width:0.9" d="m -33.75,326.250000 45,0" inkscape:connector-curvature="0" />
  <path style="fill:none;stroke:#000000;stroke-width:0.9" d="m 236.25,326.250000 45,0" inkscape:connector-curvature="0" />
  <g id="guide-short0-0" >
    <rect x="0.000000" y="-22.500000" width="247.500000" height="22.500000" style="fill:#73baff;stroke:#000000;stroke-width:0.9" />
  </g>
  <g id="guide-long1-3" >
    <rect x="247.500000" y="118.125000" width="22.500000" height="219.375000" style="fill:#ffd291;stroke:#000000;stroke-width:0.9" />
    <rect x="247.500000" y="123.750000" width="22.500000" height="213.750000" style="fill:#b4e982;stroke:#000000;stroke-width:0.9" />
    <rect x="247.500000" y="225.000000" width="22.500000" height="112.500000" style="fill:#5adc4f;stroke:#000000;stroke-width:0.9" />
    <rect x="247.500000" y="151.875000" width="22.500000" height="61.875000" style="fill:#5adc4f;stroke:#000000;stroke-width:0.9" />
    <rect x="247.500000" y="0.000000" width="22.500000" height="118.125000" style="fill:#b9deff;stroke:#000000;stroke-width:0.9" />
    <rect x="247.500000" y="0.000000" width="22.500000" height="84.375000" style="fill:#9bceff;stroke:#000000;stroke-width:0.9" />
    <rect x="247.500000" y="0.000000" width="22.500000" height="50.625000" style="fill:#73baff;stroke:#000000;stroke-width:0.9" />
  </g>
  <g id="guide-short2-4" transform="matrix(-1,0,0,1,247.5,360)" >
    <rect x="0.000000" y="-22.500000" width="84.375000" height="22.500000" style="fill:#ffd291;stroke:#000000;stroke-width:0.9" />
    <rect x="0.000000" y="-22.500000" width="78.750000" height="22.500000" style="fill:#b4e982;stroke:#000000;stroke-width:0.9" />
    <rect x="0.000000" y="-22.500000" width="61.875000" height="22.500000" style="fill:#5adc4f;stroke:#000000;stroke-width:0.9" />
    <rect x="84.375000" y="-22.500000" width="163.125000" height="22.500000" style="fill:#b9deff;stroke:#000000;stroke-width:0.9" />
    <rect x="123.750000" y="-22.500000" width="123.750000" height="22.500000" style="fill:#9bceff;stroke:#000000;stroke-width:0.9" />
    <rect x="180.000000" y="-22.500000" width="67.500000" height="22.500000" style="fill:#73baff;stroke:#000000;stroke-width:0.9" />
  </g>
  <g id="guide-long3-0" transform="matrix(1,0,0,-1,-270,337.5)" >
    <rect x="247.500000" y="0.000000" width="22.500000" height="337.500000" style="fill:#73baff;stroke:#000000;stroke-width:0.9" />
  </g>
</g>
<g inkscape:groupmode="layer" id="cut_line_layer" inkscape:label="Cut Line" style="display:none" sodipodi:insensitive="true" >
  <rect style="fill:none;stroke:#000000;stroke-width:0.5;stroke-linecap:butt;stroke-linejoin:bevel;stroke-miterlimit:4;stroke-dasharray:none;stroke-opacity:1" width="225" height="315" x="11.25" y="11.25" ry="17.361111" />
</g>
<g inkscape:groupmode="layer" id="page_border_layer" inkscape:label="Page Border" style="display:none" sodipodi:insensitive="true" >
  <rect style="fill:none;stroke:#000000;stroke-width:0.5;stroke-linecap:butt;stroke-linejoin:bevel;stroke-miterlimit:4;stroke-dasharray:none;stroke-opacity:1" width="247.5" height="337.5" x="0" y="0" />
</g>

</svg>
