<?xml version="1.0" encoding="UTF-8" standalone="no"?>
<svg version="1.1" height="246.6" width="246.6" inkscape:version="0.91 r13725" xmlns:rdf="http://www.w3.org/1999/02/22-rdf-syntax-ns#" xmlns="http://www.w3.org/2000/svg" xmlns:cc="http://creativecommons.org/ns#" xmlns:xlink="http://www.w3.org/1999/xlink" xmlns:dc="http://purl.org/dc/elements/1.1/" xmlns:sodipodi="http://sodipodi.sourceforge.net/DTD/sodipodi-0.dtd" xmlns:svg="http://www.w3.org/2000/svg" xmlns:inkscape="http://www.inkscape.org/namespaces/inkscape">
<metadata>
  <rdf:RDF>
    <cc:Work rdf:about="">
      <dc:format>image/svg+xml</dc:format>
      <dc:type rdf:resource="http://purl.org/dc/dcmitype/StillImage"/>
      <dc:title/>
      <dc:creator>
        <cc:Agent><dc:title>Gary Kacmarcik</dc:title></cc:Agent>
      </dc:creator>
    </cc:Work>
  </rdf:RDF>
</metadata>

<defs>
  <filter inkscape:collect="always" inkscape:label="blurWaterDeep" style="color-interpolation-filters:sRGB" id="blurWaterDeep" x="-0.056691" y="-0.041620" width="1.113381" height="1.083239">
    <feGaussianBlur inkscape:collect="always" stdDeviation="6.919136" />
  </filter>
  <filter inkscape:collect="always" inkscape:label="blurWaterShallow" style="color-interpolation-filters:sRGB" id="blurWaterShallow" x="-0.055818" y="-0.042103" width="1.111637" height="1.084205">
    <feGaussianBlur inkscape:collect="always" stdDeviation="6.561501" />
  </filter>
  <filter inkscape:collect="always" inkscape:label="blurWaterHilight" style="color-interpolation-filters:sRGB" id="blurWaterHilight" x="-0.250000" y="-0.250000" width="1.500000" height="1.500000">
    <feGaussianBlur inkscape:collect="always" stdDeviation="6.857532" />
  </filter>
  <filter inkscape:collect="always" inkscape:label="blurGrass" style="color-interpolation-filters:sRGB" id="blurGrass" x="-0.100000" y="-0.100000" width="1.200000" height="1.200000">
    <feGaussianBlur inkscape:collect="always" stdDeviation="0.800000" />
  </filter>
  <filter inkscape:collect="always" inkscape:label="blurForestShadow" style="color-interpolation-filters:sRGB" id="blurForestShadow" x="-0.100000" y="-0.100000" width="1.200000" height="1.200000">
    <feGaussianBlur inkscape:collect="always" stdDeviation="0.800000" />
  </filter>
  <filter inkscape:collect="always" inkscape:label="blurFlowerInner" style="color-interpolation-filters:sRGB" id="blurFlowerInner" x="-0.420000" y="-0.420000" width="1.840000" height="1.840000">
    <feGaussianBlur inkscape:collect="always" stdDeviation="1.605540" />
  </filter>
  <filter inkscape:collect="always" inkscape:label="blurFlowerMiddle" style="color-interpolation-filters:sRGB" id="blurFlowerMiddle" x="-0.240000" y="-0.240000" width="1.480000" height="1.480000">
    <feGaussianBlur inkscape:collect="always" stdDeviation="1.933705" />
  </filter>
  <linearGradient id="gradientStopsFish" inkscape:collect="always">
    <stop offset="0.000000" style="stop-color:#ff5555;stop-opacity:1.000000" />
    <stop offset="1.000000" style="stop-color:#ffffff;stop-opacity:1.000000" />
  </linearGradient>
  <linearGradient id="gradientStopsCoconut" inkscape:collect="always">
    <stop offset="0.000000" style="stop-color:#ffffff;stop-opacity:1.000000" />
    <stop offset="1.000000" style="stop-color:#c8c8c8;stop-opacity:0.000000" />
  </linearGradient>
  <linearGradient id="gradientStopsFlower" inkscape:collect="always">
    <stop offset="0.000000" style="stop-color:#b16dff;stop-opacity:1.000000" />
    <stop offset="1.000000" style="stop-color:#e7d2ff;stop-opacity:1.000000" />
  </linearGradient>
  <linearGradient id="gradientFish" xlink:href="#gradientStopsFish" x1="178.789090" y1="-114.782830" x2="180.407300" y2="-103.782830" gradientTransform="translate(-178.76256,1.0606602)" gradientUnits="userSpaceOnUse" inkscape:collect="always" />
  <radialGradient id="gradientCoconut" xlink:href="#gradientStopsCoconut" cx="1.944096" cy="-60.612652" fx="1.944096" fy="-60.612652" r="6.723294" gradientUnits="userSpaceOnUse" gradientTransform="matrix(1.691364,-0.31394812,0.29762395,1.603419,17.826033,-7.042221)" inkscape:collect="always" />
  <radialGradient id="gradientFlower" xlink:href="#gradientStopsFlower" cx="60.884877" cy="-69.652750" fx="60.884877" fy="-69.652750" r="15.835310" gradientUnits="userSpaceOnUse" gradientTransform="matrix(0.8413905,0,0,0.87120012,-50.722984,-48.679159)" inkscape:collect="always" />
</defs>

<sodipodi:namedview
    id="base"
    pagecolor="#ffffff"
    bordercolor="#666666"
    borderopacity="1.0"
    inkscape:pageopacity="0.0"
    inkscape:pageshadow="2"
    inkscape:zoom="2"
    inkscape:cx="115.37643"
    inkscape:cy="285.04449"
    inkscape:document-units="in"
    showgrid="true"
    units="in"
    inkscape:window-width="1392"
    inkscape:window-height="836"
    inkscape:window-x="39"
    inkscape:window-y="6"
    inkscape:window-maximized="0"
    inkscape:snap-grids="true"
    inkscape:snap-to-guides="true"
    inkscape:snap-nodes="true"
    inkscape:object-nodes="true"
    inkscape:snap-smooth-nodes="true"
    inkscape:snap-intersection-paths="true"
    inkscape:object-paths="true"
    inkscape:snap-bbox="true"
    inkscape:bbox-nodes="true"
    inkscape:snap-others="true"
    inkscape:bbox-paths="false"
    inkscape:snap-global="true" >
  <inkscape:grid
    type="xygrid"
    id="grid3051"
    empspacing="2"
    visible="true"
    enabled="true"
    snapvisiblegridlinesonly="true"
    spacingx="0.0625in"
    spacingy="0.0625in"
    dotted="false"
    units="in" />
</sodipodi:namedview>
<g inkscape:groupmode="layer" id="water_layer" inkscape:label="Water" style="display:inline" sodipodi:insensitive="true" >
  <rect id="water" x="0" y="0" width="246.6" height="246.6" style="fill:#b9deff;fill-opacity:1;stroke:none" />
</g>
<g inkscape:groupmode="layer" id="water_medium_layer" inkscape:label="Water Shallow" style="display:inline" sodipodi:insensitive="true" >
  <path style="fill:#9bd1ff;fill-opacity:0.70;fill-rule:evenodd;stroke:none;filter:url(#blurWaterShallow)" d="M 11.050781,-8.9492188 -8.9492188,11.050781 -8.95,57.92496 l 20.000001,0 14.203905,-0.223792 25.253906,-3.029297 16.353516,-2.984375 42.740232,-5.097656 37.375,7.070312 10.53711,7.654297 0.5625,10.201172 -8.61523,14.458984 -16.71875,26.486335 -6.47266,23.52734 10.60547,22.22266 35.86133,-9.59571 36.36523,11.11133 -12.32812,25.58789 -6.35938,34.01172 -1.73908,16.22385 0,20 46.8758,7.6e-4 20,-20 0,-224.500003 -20,-19.9999998 z M 207.04102,62.25 l 8.14453,16.65625 -10.37696,15.587891 -20.32184,-3.866999 -1.63674,-16.148051 7.75546,-12.055263 z" inkscape:connector-curvature="0" />
</g>
<g inkscape:groupmode="layer" id="water_deep_layer" inkscape:label="Water Deep" style="display:inline" sodipodi:insensitive="true" >
  <path style="fill:#87c8ff;fill-opacity:0.60;fill-rule:evenodd;stroke:none;filter:url(#blurWaterDeep)" d="m 210.79998,255.55002 0,-20 1.83713,-12.18353 3.24428,-45.41423 8.03581,-35.26035 -12.12844,-4.79195 -23.39531,-0.39643 -17.67767,-12.12183 3.88963,-25.18574 16.78961,8.41004 18.35966,-1.37754 13.2553,-27.222264 -8.55609,-30.108277 -29.53086,1.58227 -16.77492,11.852776 1.7199,-17.588422 -16.32482,-12.791804 -53.53809,-4.04061 -39.901024,0 -21.072375,7.383439 -27.9817,-0.495608 -20.000001,0 10e-6,-24.74994 19.99999,-19.9999902 224.49999,0 20.00003,20.0000312 0,224.499989 -20.00003,20.00004 z" inkscape:connector-curvature="0" />
</g>
<g inkscape:groupmode="layer" id="water_hilight_layer" inkscape:label="Water Hilight" style="display:inline" sodipodi:insensitive="true" >
  <use xlink:href="#shoreline" height="100%" width="100%" x="0" y="0" style="display:inline;fill:#ffffff;fill-opacity:1;stroke:#ffffff;stroke-opacity:1;filter:url(#blurWaterHilight)" />
</g>
<g inkscape:groupmode="layer" id="shoreline_layer" inkscape:label="Shoreline" style="display:inline" sodipodi:insensitive="true" >
  <use xlink:href="#shoreline" height="100%" width="100%" x="0" y="0" style="display:inline;fill:#ffddab;fill-opacity:1;stroke:#5f4c14;stroke-width:1;stroke-miterlimit:4;stroke-dasharray:none;stroke-opacity:1" />
</g>
<g inkscape:groupmode="layer" id="shoreline_master_layer" inkscape:label="Shoreline Master" style="display:none" sodipodi:insensitive="true" >
  <path id="shoreline" style="color:#000000;clip-rule:nonzero;display:inline;overflow:visible;visibility:visible;opacity:1;isolation:auto;mix-blend-mode:normal;color-interpolation:sRGB;color-interpolation-filters:linearRGB;solid-color:#000000;solid-opacity:1;fill-opacity:1;fill-rule:evenodd;color-rendering:auto;image-rendering:auto;shape-rendering:auto;text-rendering:auto;enable-background:accumulate" d="m 88.511719,64.007812 -42.050781,10.980469 -35.410937,5.436679 -20.000001,0 7.812e-4,155.12582 19.9999998,20 155.124199,-7.6e-4 0,-20 3.41877,-18.25314 12.27344,-28.45118 15.43554,-24.11132 -14.46289,0.0293 -27.11914,14.53321 -16.36718,16.38476 -35.33204,-6.57031 -23.30273,-15.93164 -6.427734,-39.89063 16.972656,-37.015622 24.058598,-8.21875 16.63671,-19.664063 z m 116.044921,3.794922 -6.0625,4.041016 1.01172,15.152344 9.08984,-5.556641 -2.52539,-6.564453 z" inkscape:connector-curvature="0" />
</g>
<g inkscape:groupmode="layer" id="grass_layer" inkscape:label="Grass" style="display:inline" sodipodi:insensitive="true" >
  <use xlink:href="#grass" height="100%" width="100%" x="0" y="0" style="display:inline;fill:#b4e982;fill-opacity:1;stroke:none;stroke-width:1;stroke-miterlimit:4;stroke-dasharray:none;stroke-opacity:1" />
</g>
<g inkscape:groupmode="layer" id="grass_master_layer" inkscape:label="Grass Master" style="display:none" sodipodi:insensitive="true" >
  <path id="grass" style="color:#000000;clip-rule:nonzero;display:inline;overflow:visible;visibility:visible;opacity:1;isolation:auto;mix-blend-mode:normal;color-interpolation:sRGB;color-interpolation-filters:linearRGB;solid-color:#000000;solid-opacity:1;fill-opacity:1;fill-rule:evenodd;filter:url(#blurGrass);color-rendering:auto;image-rendering:auto;shape-rendering:auto;text-rendering:auto;enable-background:accumulate" d="m 146.95486,255.55008 0,-20 5.62819,-11.4247 3.29321,-12.76647 -10.11918,-7.85064 -15.86657,-1.60279 -42.213748,-0.8158 L 65.985427,173.9869 65.605699,143.38661 77.864908,96.194031 83.607081,80.705609 65.177669,81.287622 37.361678,93.649301 11.050001,99.29996 l -20.000001,0 10e-6,136.25006 20.00001,20.00006 z" inkscape:connector-curvature="0" />
</g>
<g inkscape:groupmode="layer" id="forest_shadow_layer" inkscape:label="Forest Shadow" style="display:inline" sodipodi:insensitive="true" >
  <g style="filter:url(#blurForestShadow)" >
    <use xlink:href="#forest" height="100%" width="100%" x="0" y="0" style="display:inline;opacity:0.75;fill:#258c1b;fill-opacity:1" />
  </g>
</g>
<g inkscape:groupmode="layer" id="forest_fill_layer" inkscape:label="Forest Fill" style="display:inline" sodipodi:insensitive="true" >
  <use xlink:href="#forest" height="100%" width="100%" x="0" y="0" style="fill:#7ebd47;fill-opacity:1;fill-rule:nonzero;stroke:#496e28;stroke-width:0.5;stroke-linecap:round;stroke-linejoin:round;stroke-miterlimit:4;stroke-dasharray:none;stroke-dashoffset:0;stroke-opacity:1" />
</g>
<g inkscape:groupmode="layer" id="forest_master_layer" inkscape:label="Forest Master" style="display:none" sodipodi:insensitive="true" >
  <path id="forest" style="color:#000000;clip-rule:nonzero;display:inline;overflow:visible;visibility:visible;opacity:1;isolation:auto;mix-blend-mode:normal;color-interpolation:sRGB;color-interpolation-filters:linearRGB;solid-color:#000000;solid-opacity:1;fill-opacity:1;fill-rule:nonzero;color-rendering:auto;image-rendering:auto;shape-rendering:auto;text-rendering:auto;enable-background:accumulate" d="m 128.54432,255.55008 0.25566,-20.00006 -2.53782,-11.45002 -1.25,-9.28571 -13.60732,-8.21864 -17.800224,6.47408 -2.554641,22.48029 0,20 z m -47.744345,-6e-5 0,-20 -5.627562,-12.75605 -5.894065,-5.00148 -9.071717,4.09088 -7.156656,13.66665 0,20 z m -38,-20 -5.566105,-18.10793 4.368777,-12.71455 -12.016567,-2.63262 -18.536079,1.70504 -20.000001,0 7.812e-4,31.75082 19.9999998,20 31.749194,-7.6e-4 z m -31.749974,-42.00006 9.595826,-2.40037 8.17232,-10.64125 -4.475704,-11.83401 -13.292442,-2.87437 -20.000001,0 0,27.75 z m 0,-38 14.192436,-5.6546 15.624137,-15.68242 -12.208488,-10.64595 -17.608085,-5.76703 -20.000001,0 0,37.75 z" inkscape:connector-curvature="0" />
</g>
<g inkscape:groupmode="layer" id="routes_layer" inkscape:label="Routes" style="display:inline" sodipodi:insensitive="true" >
  <path style="display:inline;fill:none;stroke:#000000;stroke-width:2;stroke-linecap:round;stroke-miterlimit:4;stroke-dasharray:0.1, 5;stroke-dashoffset:0;stroke-opacity:1" d="m 255.55,123.3 -20,0 C 211.30634,122.79492 137.53522,116.0037 173.37387,68.637126 187.65019,49.768654 123.29998,54.319377 123.29998,11.049971 l 0,-20.000001 m -37.416669,264.50005 0,-20 C 85.378231,207.26575 70.318831,197.24293 56.66098,189.37219 35.667608,177.27413 46.864402,162.41664 11.050001,160.71662 l -20,0 m 45.694297,7.59655 c 7.718297,-7.14657 12.659658,-64.9125 50.188101,-64.8303 m 77.141051,-8.9805 c -15.81083,10.80798 -33.86394,17.71056 -58.13768,9.97558" inkscape:connector-curvature="0" />
</g>
<g inkscape:groupmode="layer" id="labels_layer" inkscape:label="Labels" style="display:inline" sodipodi:insensitive="true" >
  <text xml:space="preserve" style="font-style:normal;font-variant:normal;font-weight:normal;font-stretch:normal;font-size:10px;line-height:125%;font-family:CCTreasureTrove;-inkscape-font-specification:'CCTreasureTrove, Normal';text-align:start;letter-spacing:0px;word-spacing:0px;writing-mode:lr-tb;text-anchor:start;display:inline;fill:#5d481b;fill-opacity:1;stroke:none;stroke-width:1px;stroke-linecap:butt;stroke-linejoin:miter;stroke-opacity:1"><textPath xlink:href="#label-path"
>Port Folio</textPath></text>
</g>
<g inkscape:groupmode="layer" id="labels_guide_layer" inkscape:label="Labels Guide" style="display:none" sodipodi:insensitive="true" >
  <path id="label-path" style="color:#000000;fill:none;stroke:#000000;stroke-width:1;stroke-opacity:1" d="M 112.18483,178.82344 C 89.179763,165.64506 87.732112,134.66105 96.384048,115.33945" inkscape:connector-curvature="0" />
</g>
<g inkscape:groupmode="layer" id="resources_layer" inkscape:label="Resources" style="display:inline" sodipodi:insensitive="true" >
  <g id="resource-portcircle" transform="matrix(0.70696053,-0.707253,0.707253,0.70696053,-123.39665,262.49094)" >
    <g transform="translate(168.55655,-76.089882)" >
      <path style="opacity:1;fill:#000000;fill-opacity:1;stroke:none;stroke-width:0.5;stroke-linejoin:miter;stroke-miterlimit:4;stroke-dasharray:none;stroke-dashoffset:0;stroke-opacity:1" d="m 117.61371,135.33305 -14.27687,-7.03247 -5.122553,15.06798 -5.122556,-15.06798 -14.276867,7.03247 7.032478,-14.27686 -15.067982,-5.12256 15.067981,-5.12255 -7.032477,-14.276871 14.276866,7.032481 5.122557,-15.067985 5.122553,15.067985 14.27687,-7.032481 -7.03248,14.276861 15.06798,5.12256 -15.06798,5.12256 z" inkscape:connector-curvature="0" />
      <path style="opacity:1;fill:#000000;fill-opacity:1;stroke:none;stroke-width:0.5;stroke-linejoin:miter;stroke-miterlimit:4;stroke-dasharray:none;stroke-dashoffset:0;stroke-opacity:1" transform="matrix(0.92387953,-0.38268343,0.38268343,0.92387953,-92.322534,69.370912)" d="m 174.56986,132.36623 -10.89361,-3.15815 -5.51643,9.91029 -5.46979,-9.9361 -10.90834,3.10693 3.15816,-10.89362 -9.91029,-5.51642 9.9361,-5.4698 -3.10693,-10.908329 10.89361,3.158149 5.51643,-9.910281 5.46979,9.936101 10.90834,-3.106932 -3.15816,10.893612 9.91029,5.51643 -9.9361,5.46979 z" inkscape:connector-curvature="0" />
    </g>
    <circle cx="266.770840" cy="39.843746" r="19.000000" style="opacity:1;fill:#ffffff;fill-opacity:1;stroke:#000000;stroke-width:1.79999995;stroke-linecap:round;stroke-linejoin:round;stroke-miterlimit:4;stroke-dasharray:none;stroke-dashoffset:0;stroke-opacity:1" />
  </g>
  <g id="resource-fish" transform="matrix(0.70696053,-0.707253,0.707253,0.70696053,171.2122,179.8707)" >
    <path style="color:#000000;clip-rule:nonzero;display:inline;overflow:visible;visibility:visible;opacity:1;isolation:auto;mix-blend-mode:normal;color-interpolation:sRGB;color-interpolation-filters:linearRGB;solid-color:#000000;solid-opacity:1;fill:url(#gradientFish);fill-opacity:1;fill-rule:evenodd;stroke:none;stroke-width:0.89999998;stroke-linecap:round;stroke-linejoin:miter;stroke-miterlimit:4;stroke-dasharray:none;stroke-dashoffset:0;stroke-opacity:1;color-rendering:auto;image-rendering:auto;shape-rendering:auto;text-rendering:auto;enable-background:accumulate" d="m 6.75164,-116.27687 c 2.99065,0.60485 4.49367,1.24794 5.89266,2.66121 2.45016,2.47513 3.25045,6.5505 3.25045,6.5505 l -3.54035,0.49898 2.97008,0.83162 c -1.40188,1.23555 -2.8637,2.14124 -4.39572,2.68497 -2.28163,0.80975 -5.89735,1.19916 -8.27072,0.72096 -2.52003,-0.50774 -4.93787,-1.71891 -6.65678,-2.93199 -1.70292,-1.2018 -2.32599,-2.77049 -4.34245,-2.71421 -2.02435,0.0566 -3.06024,1.36024 -6.2744,2.54392 0.98841,-2.25668 1.48644,-4.44986 1.47742,-4.77248 -0.0131,-0.47021 -0.60937,-2.94625 -1.71029,-5.74037 4.56815,1.9526 4.13574,3.93892 6.7876,4.01568 1.65013,0.0477 2.8784,-2.27892 4.84548,-3.01143 0,0 0.0925,-0.76339 -0.85797,-2.09399 2.125,-1.125 5.3749,-2.84347 9.18238,-2.11673 0.63846,0.67205 1.20575,1.59646 1.64258,2.87336 z" inkscape:connector-curvature="0" />
    <path style="color:#000000;font-style:normal;font-variant:normal;font-weight:normal;font-stretch:normal;font-size:medium;line-height:normal;font-family:sans-serif;text-indent:0;text-align:start;text-decoration:none;text-decoration-line:none;text-decoration-style:solid;text-decoration-color:#000000;letter-spacing:normal;word-spacing:normal;text-transform:none;direction:ltr;block-progression:tb;writing-mode:lr-tb;baseline-shift:baseline;text-anchor:start;white-space:normal;clip-rule:nonzero;display:inline;overflow:visible;visibility:visible;opacity:1;isolation:auto;mix-blend-mode:normal;color-interpolation:sRGB;color-interpolation-filters:linearRGB;solid-color:#000000;solid-opacity:1;fill:#000000;fill-opacity:1;fill-rule:evenodd;stroke:none;stroke-width:0.89999998;stroke-linecap:round;stroke-linejoin:miter;stroke-miterlimit:4;stroke-dasharray:none;stroke-dashoffset:0;stroke-opacity:1;color-rendering:auto;image-rendering:auto;shape-rendering:auto;text-rendering:auto;enable-background:accumulate" d="m 3.75195,-119.76758 c -0.55834,-0.0162 -1.08956,0.007 -1.41992,0.0332 -3.44102,0.26924 -4.79186,1.37793 -7.48633,2.26368 0.80029,0.66264 1.38172,1.65445 1.58985,2.40625 -0.74252,0.46927 -1.56885,1.06749 -2.34375,1.66992 -0.78694,0.61179 -1.52805,1.08797 -2.13868,1.07031 -1.213,-0.0351 -1.55439,-0.52183 -2.3789,-1.23633 -1.98577,-1.72081 -3.07464,-2.29632 -5.23438,-3.2207 0.86297,2.18173 2.04317,4.50407 2.07227,6.58984 0.0263,1.88626 -1.13742,3.87948 -1.86328,5.54883 1.62081,-0.53562 3.22001,-1.34059 4.6289,-2.08398 0.89906,-0.47438 1.57632,-0.77317 2.49415,-0.79883 0.89038,-0.0249 1.40182,0.27656 1.98242,0.77734 0.25085,0.21637 0.51534,0.48279 0.79687,0.75586 -0.25647,0.40556 -0.79615,0.53695 -1.76562,1.10352 1.95514,0.58994 2.59141,1.85091 4.15625,2.49414 0.55665,-0.25793 1.08128,-0.52946 1.29882,-1.08594 1.28379,0.64871 2.70563,1.21308 4.19922,1.53906 0.0372,0.49232 -0.0779,0.96218 -0.52343,1.75 1.8525,-0.13727 3.11482,-0.49129 3.85351,-1.48437 1.90282,-0.0616 3.90491,-0.41501 5.41016,-0.94922 1.59542,-0.56623 3.08878,-1.52586 4.54297,-2.77148 0.22554,-0.1932 0.55832,-0.5479 0.15234,-0.66602 l -1.22851,-0.35742 1.51367,-0.22656 c 0.18187,-0.0272 0.35546,-0.2168 0.27734,-0.50586 -0.0502,-0.18564 -0.78361,-4.16347 -3.37305,-6.7793 -1.42433,-1.43886 -3.05654,-2.12894 -5.92382,-2.72852 -0.4724,-1.08092 -0.97717,-2.12518 -1.70508,-2.90429 -0.44021,-0.13092 -1.02565,-0.18691 -1.58399,-0.20313 z m -0.1289,0.86719 c 0.40991,0.0169 0.81105,0.0568 1.19922,0.10547 0.77961,0.94104 1.28338,2.04784 1.60937,2.96875 2.1946,0.39918 4.6041,1.23544 5.89453,2.52734 2.08816,2.09053 2.83239,5.19206 2.98633,5.86133 l -3.01953,0.42578 c -0.44473,0.0627 -0.45389,0.76792 -0.0586,0.87891 l 1.98242,0.55664 c -1.12071,0.87174 -2.24918,1.67981 -3.4375,2.10156 -0.33815,0.12001 -0.71912,0.22666 -1.11524,0.32617 -2.33138,-1.12461 -3.38072,-3.76269 -3.66601,-5.20312 -0.15295,-0.77226 -0.48459,-1.00055 -0.26758,0.46094 0.277,1.86552 1.35587,3.78888 2.74609,4.99218 -1.94553,0.34633 -4.16617,0.4437 -5.72851,0.12891 -2.43884,-0.49138 -4.81456,-1.67957 -6.48633,-2.85938 -0.79723,-0.56263 -1.35875,-1.23084 -2.01953,-1.80078 -0.66079,-0.56995 -1.57913,-0.96766 -2.54883,-0.93164 -0.96571,0.0359 -2.00556,0.34944 -2.93359,0.83789 -0.68049,0.35816 -1.62451,0.79789 -2.58789,1.22461 0.58514,-1.36212 1.15509,-2.85368 1.14062,-3.91797 -0.0229,-1.68436 -0.84568,-3.32406 -1.36523,-4.77929 1.43808,0.75542 2.36518,1.48293 3.00781,2.08984 0.79559,0.75138 1.70527,1.34121 2.9414,1.36523 0.8676,0.0169 1.85414,-0.60951 2.64454,-1.26171 1.07222,-0.88474 2.37395,-1.75346 3.82031,-2.3125 0.84286,-0.32579 2.17657,-0.81342 1.5664,-0.90821 -0.63083,-0.098 -1.90673,0.29013 -2.74804,0.65625 -0.21144,-0.67843 -0.52851,-1.28134 -0.85547,-1.77148 1.86816,-0.59893 2.90957,-1.50638 6.04687,-1.72852 0.42336,-0.0441 0.84204,-0.0501 1.25196,-0.0332 z" inkscape:connector-curvature="0" />
    <path style="color:#000000;clip-rule:nonzero;display:inline;overflow:visible;visibility:visible;opacity:1;isolation:auto;mix-blend-mode:normal;color-interpolation:sRGB;color-interpolation-filters:linearRGB;solid-color:#000000;solid-opacity:1;fill:#000000;fill-opacity:1;fill-rule:evenodd;stroke:none;stroke-width:0.89999998;stroke-linecap:round;stroke-linejoin:miter;stroke-miterlimit:4;stroke-dasharray:none;stroke-dashoffset:0;stroke-opacity:1;color-rendering:auto;image-rendering:auto;shape-rendering:auto;text-rendering:auto;enable-background:accumulate" d="m 4.14858,-108.59983 c -0.47489,-0.30307 -1.53655,-0.90869 -2.26472,-0.88862 -0.0804,0.002 -0.2543,0.14712 -0.15844,0.31108 0.47438,0.81135 0.88194,1.78963 0.81744,2.88053 -0.01,0.15682 0.0463,0.31282 0.28149,0.29908 0.85805,-0.0503 1.22499,-0.14313 1.82534,-0.42991 0.33162,-0.1584 0.28985,0.0295 -0.17284,0.32399 -0.42638,0.27143 -1.15747,0.57467 -1.60626,0.62419 -0.57111,0.063 -0.86938,-0.30115 -0.85559,-0.49509 0.0664,-0.93438 -0.40775,-2.23989 -0.84996,-3.00389 -0.64912,-1.12144 0.5114,-1.14367 1.04743,-1.03991 0.57353,0.11103 1.54086,0.51965 2.36735,1.37318 0.31578,0.3261 0.0887,0.37724 -0.43124,0.0454 z" inkscape:connector-curvature="0" />
    <ellipse cx="35.346939" cy="-105.813170" rx="0.855386" ry="1.092993" style="opacity:1;fill:#000000;fill-opacity:1;fill-rule:nonzero;stroke:none;stroke-width:0.89999998;stroke-linecap:butt;stroke-linejoin:round;stroke-miterlimit:4;stroke-dasharray:none;stroke-dashoffset:0;stroke-opacity:1" transform="matrix(0.97605309,-0.21753245,0.21753245,0.97605309,0,0)" />
  </g>
</g>
<g inkscape:groupmode="layer" id="edge_guides_layer" inkscape:label="Edges" style="display:none" sodipodi:insensitive="true" >
  <g id="guide0-0" transform="" >
    <rect x="0" y="-22.5" width="246.6" height="22.5" style="fill:#73baff;stroke:#000000;stroke-width:0.9" />
    <path style="display:inline;fill:none;stroke:#000000;stroke-width:2;stroke-linecap:round;stroke-miterlimit:4;stroke-dasharray:0.1, 5;stroke-dashoffset:0;stroke-opacity:1" d="m 123.75,0 0,-22.5" inkscape:connector-curvature="0" />
  </g>
  <g id="guide1-0" transform="matrix(0,1,-1,0,246.6,0)" >
    <rect x="0" y="-22.5" width="246.6" height="22.5" style="fill:#73baff;stroke:#000000;stroke-width:0.9" />
    <path style="display:inline;fill:none;stroke:#000000;stroke-width:2;stroke-linecap:round;stroke-miterlimit:4;stroke-dasharray:0.1, 5;stroke-dashoffset:0;stroke-opacity:1" d="m 123.75,0 0,-22.5" inkscape:connector-curvature="0" />
  </g>
  <g id="guide2-3" transform="matrix(-1,0,0,-1,246.6,246.6)" >
    <rect x="81.725" y="-22.5" width="164.875" height="22.5" style="fill:#ffd291;stroke:#000000;stroke-width:0.9" />
    <rect x="98.6" y="-22.5" width="148" height="22.5" style="fill:#b4e982;stroke:#000000;stroke-width:0.9" />
    <rect x="203.1" y="-22.5" width="43.5" height="22.5" style="fill:#5adc4f;stroke:#000000;stroke-width:0.9" />
    <rect x="152.35" y="-22.5" width="39.5" height="22.5" style="fill:#5adc4f;stroke:#000000;stroke-width:0.9" />
    <rect x="91.6" y="-22.5" width="49.5" height="22.5" style="fill:#5adc4f;stroke:#000000;stroke-width:0.9" />
    <rect x="0" y="-22.5" width="81.725" height="22.5" style="fill:#b9deff;stroke:#000000;stroke-width:0.9" />
    <rect x="0" y="-22.5" width="58.625" height="22.5" style="fill:#9bceff;stroke:#000000;stroke-width:0.9" />
    <rect x="0" y="-22.5" width="36.5" height="22.5" style="fill:#73baff;stroke:#000000;stroke-width:0.9" />
    <path style="display:inline;fill:none;stroke:#000000;stroke-width:2;stroke-linecap:round;stroke-miterlimit:4;stroke-dasharray:0.1, 5;stroke-dashoffset:0;stroke-opacity:1" d="m 161.25,0 0,-22.5" inkscape:connector-curvature="0" />
  </g>
  <g id="guide3-6" transform="matrix(0,-1,1,0,0,246.6)" >
    <rect x="0" y="-22.5" width="164.875" height="22.5" style="fill:#ffd291;stroke:#000000;stroke-width:0.9" />
    <rect x="0" y="-22.5" width="148" height="22.5" style="fill:#b4e982;stroke:#000000;stroke-width:0.9" />
    <rect x="0" y="-22.5" width="43.5" height="22.5" style="fill:#5adc4f;stroke:#000000;stroke-width:0.9" />
    <rect x="54.75" y="-22.5" width="39.5" height="22.5" style="fill:#5adc4f;stroke:#000000;stroke-width:0.9" />
    <rect x="105.5" y="-22.5" width="49.5" height="22.5" style="fill:#5adc4f;stroke:#000000;stroke-width:0.9" />
    <rect x="164.875" y="-22.5" width="81.725" height="22.5" style="fill:#b9deff;stroke:#000000;stroke-width:0.9" />
    <rect x="187.975" y="-22.5" width="58.625" height="22.5" style="fill:#9bceff;stroke:#000000;stroke-width:0.9" />
    <rect x="210.1" y="-22.5" width="36.5" height="22.5" style="fill:#73baff;stroke:#000000;stroke-width:0.9" />
    <path style="display:inline;fill:none;stroke:#000000;stroke-width:2;stroke-linecap:round;stroke-miterlimit:4;stroke-dasharray:0.1, 5;stroke-dashoffset:0;stroke-opacity:1" d="m 86.25,0 0,-22.5" inkscape:connector-curvature="0" />
  </g>
</g>
<g inkscape:groupmode="layer" id="id_layer" inkscape:label="Card ID" style="display:inline" sodipodi:insensitive="true" >
  <text xml:space="preserve" x="19.7" y="27.3" style="font-style:normal;font-variant:normal;font-weight:normal;font-stretch:normal;font-size:9px;line-height:125%;font-family:CCTreasureTrove;-inkscape-font-specification:'CCTreasureTrove, Normal';text-align:start;letter-spacing:0px;word-spacing:0px;writing-mode:lr-tb;text-anchor:start;display:inline;fill:#606060;fill-opacity:1;stroke:none;stroke-width:1px;stroke-linecap:butt;stroke-linejoin:miter;stroke-opacity:1" 
>0036a</text></g>
<g inkscape:groupmode="layer" id="cut_layer" inkscape:label="Cut Line" style="display:inline" sodipodi:insensitive="true" >
  <rect x="11.25" y="11.25" width="224.5" height="224.5" style="fill:none;stroke:#000000;stroke-width:0.5;stroke-linecap:butt;stroke-linejoin:bevel;stroke-miterlimit:4;stroke-dasharray:none;stroke-opacity:1" ry="11.338962" />
</g>
<g inkscape:groupmode="layer" id="page_border_layer" inkscape:label="Page Border" style="display:none" sodipodi:insensitive="true" >
  <rect x="0" y="0" width="246.6" height="246.6" style="fill:none;stroke:#000000;stroke-width:0.5;stroke-linecap:butt;stroke-linejoin:bevel;stroke-miterlimit:4;stroke-dasharray:none;stroke-opacity:1" />
</g>

</svg>
