<?xml version="1.0" encoding="UTF-8" standalone="no"?>
<svg version="1.1" height="246.6" width="246.6" inkscape:version="0.91 r13725" xmlns:rdf="http://www.w3.org/1999/02/22-rdf-syntax-ns#" xmlns="http://www.w3.org/2000/svg" xmlns:cc="http://creativecommons.org/ns#" xmlns:xlink="http://www.w3.org/1999/xlink" xmlns:dc="http://purl.org/dc/elements/1.1/" xmlns:sodipodi="http://sodipodi.sourceforge.net/DTD/sodipodi-0.dtd" xmlns:svg="http://www.w3.org/2000/svg" xmlns:inkscape="http://www.inkscape.org/namespaces/inkscape">
<metadata>
  <rdf:RDF>
    <cc:Work rdf:about="">
      <dc:format>image/svg+xml</dc:format>
      <dc:type rdf:resource="http://purl.org/dc/dcmitype/StillImage"/>
      <dc:title/>
      <dc:creator>
        <cc:Agent><dc:title>Gary Kacmarcik</dc:title></cc:Agent>
      </dc:creator>
    </cc:Work>
  </rdf:RDF>
</metadata>

<defs>
  <filter inkscape:collect="always" inkscape:label="blurWaterDeep" style="color-interpolation-filters:sRGB" id="blurWaterDeep" x="-0.056691" y="-0.041620" width="1.113381" height="1.083239">
    <feGaussianBlur inkscape:collect="always" stdDeviation="6.919136" />
  </filter>
  <filter inkscape:collect="always" inkscape:label="blurWaterShallow" style="color-interpolation-filters:sRGB" id="blurWaterShallow" x="-0.055818" y="-0.042103" width="1.111637" height="1.084205">
    <feGaussianBlur inkscape:collect="always" stdDeviation="6.561501" />
  </filter>
  <filter inkscape:collect="always" inkscape:label="blurWaterHilight" style="color-interpolation-filters:sRGB" id="blurWaterHilight" x="-0.250000" y="-0.250000" width="1.500000" height="1.500000">
    <feGaussianBlur inkscape:collect="always" stdDeviation="6.857532" />
  </filter>
  <filter inkscape:collect="always" inkscape:label="blurGrass" style="color-interpolation-filters:sRGB" id="blurGrass" x="-0.100000" y="-0.100000" width="1.200000" height="1.200000">
    <feGaussianBlur inkscape:collect="always" stdDeviation="0.800000" />
  </filter>
  <filter inkscape:collect="always" inkscape:label="blurForestShadow" style="color-interpolation-filters:sRGB" id="blurForestShadow" x="-0.100000" y="-0.100000" width="1.200000" height="1.200000">
    <feGaussianBlur inkscape:collect="always" stdDeviation="0.800000" />
  </filter>
  <filter inkscape:collect="always" inkscape:label="blurFlowerInner" style="color-interpolation-filters:sRGB" id="blurFlowerInner" x="-0.420000" y="-0.420000" width="1.840000" height="1.840000">
    <feGaussianBlur inkscape:collect="always" stdDeviation="1.605540" />
  </filter>
  <filter inkscape:collect="always" inkscape:label="blurFlowerMiddle" style="color-interpolation-filters:sRGB" id="blurFlowerMiddle" x="-0.240000" y="-0.240000" width="1.480000" height="1.480000">
    <feGaussianBlur inkscape:collect="always" stdDeviation="1.933705" />
  </filter>
  <linearGradient id="gradientStopsFish" inkscape:collect="always">
    <stop offset="0.000000" style="stop-color:#ff5555;stop-opacity:1.000000" />
    <stop offset="1.000000" style="stop-color:#ffffff;stop-opacity:1.000000" />
  </linearGradient>
  <linearGradient id="gradientStopsCoconut" inkscape:collect="always">
    <stop offset="0.000000" style="stop-color:#ffffff;stop-opacity:1.000000" />
    <stop offset="1.000000" style="stop-color:#c8c8c8;stop-opacity:0.000000" />
  </linearGradient>
  <linearGradient id="gradientStopsFlower" inkscape:collect="always">
    <stop offset="0.000000" style="stop-color:#b16dff;stop-opacity:1.000000" />
    <stop offset="1.000000" style="stop-color:#e7d2ff;stop-opacity:1.000000" />
  </linearGradient>
  <linearGradient id="gradientFish" xlink:href="#gradientStopsFish" x1="178.789090" y1="-114.782830" x2="180.407300" y2="-103.782830" gradientTransform="translate(-178.76256,1.0606602)" gradientUnits="userSpaceOnUse" inkscape:collect="always" />
  <radialGradient id="gradientCoconut" xlink:href="#gradientStopsCoconut" cx="1.944096" cy="-60.612652" fx="1.944096" fy="-60.612652" r="6.723294" gradientUnits="userSpaceOnUse" gradientTransform="matrix(1.691364,-0.31394812,0.29762395,1.603419,17.826033,-7.042221)" inkscape:collect="always" />
  <radialGradient id="gradientFlower" xlink:href="#gradientStopsFlower" cx="60.884877" cy="-69.652750" fx="60.884877" fy="-69.652750" r="15.835310" gradientUnits="userSpaceOnUse" gradientTransform="matrix(0.8413905,0,0,0.87120012,-50.722984,-48.679159)" inkscape:collect="always" />
</defs>

<sodipodi:namedview
    id="base"
    pagecolor="#ffffff"
    bordercolor="#666666"
    borderopacity="1.0"
    inkscape:pageopacity="0.0"
    inkscape:pageshadow="2"
    inkscape:zoom="2"
    inkscape:cx="115.37643"
    inkscape:cy="285.04449"
    inkscape:document-units="in"
    showgrid="true"
    units="in"
    inkscape:window-width="1392"
    inkscape:window-height="836"
    inkscape:window-x="39"
    inkscape:window-y="6"
    inkscape:window-maximized="0"
    inkscape:snap-grids="true"
    inkscape:snap-to-guides="true"
    inkscape:snap-nodes="true"
    inkscape:object-nodes="true"
    inkscape:snap-smooth-nodes="true"
    inkscape:snap-intersection-paths="true"
    inkscape:object-paths="true"
    inkscape:snap-bbox="true"
    inkscape:bbox-nodes="true"
    inkscape:snap-others="true"
    inkscape:bbox-paths="false"
    inkscape:snap-global="true" >
  <inkscape:grid
    type="xygrid"
    id="grid3051"
    empspacing="2"
    visible="true"
    enabled="true"
    snapvisiblegridlinesonly="true"
    spacingx="0.0625in"
    spacingy="0.0625in"
    dotted="false"
    units="in" />
</sodipodi:namedview>
<g inkscape:groupmode="layer" id="water_layer" inkscape:label="Water" style="display:inline" sodipodi:insensitive="true" >
  <rect id="water" x="0" y="0" width="246.6" height="246.6" style="fill:#b9deff;fill-opacity:1;stroke:none" />
</g>
<g inkscape:groupmode="layer" id="water_medium_layer" inkscape:label="Water Shallow" style="display:inline" sodipodi:insensitive="true" >
  <path style="fill:#9bd1ff;fill-opacity:0.70;fill-rule:evenodd;stroke:none;filter:url(#blurWaterShallow)" d="M 11.050781,-8.9492188 -8.9492188,11.050781 -8.95,57.92496 l 20.000001,0 c 0,0 9.551335,0.652584 14.203905,-0.223792 8.694839,-1.637794 16.068832,-7.877032 24.748047,-9.595703 11.837924,-2.344163 24.21881,-2.245201 36.195313,-0.763672 9.245932,1.14375 18.910384,2.685452 26.957034,7.380859 5.73578,3.346959 12.29814,7.730637 14.03404,14.140625 2.26013,8.345774 -9.67073,17.077477 -6.48479,25.115504 1.76255,4.446841 7.41575,6.867389 12.13239,7.663799 6.23414,1.05263 12.63431,-6.728914 18.47265,-4.30274 8.27813,3.44005 6.8079,17.7299 14.1543,22.86719 6.99337,4.89041 17.398,1.44936 25.07031,5.18555 7.86076,3.82795 18.25993,8.38133 20.02149,16.94531 1.41085,6.85896 -8.22913,11.89097 -9.37696,18.79883 -1.54961,9.32588 5.86697,18.89078 3.77149,28.10937 -2.02661,8.91563 -12.13636,14.26809 -15.04102,22.9375 -2.47994,7.40175 -1.23322,23.36643 -1.23322,23.36643 l 0,20 46.8758,7.6e-4 20,-20 0,-224.500003 -20,-19.9999998 z M 80.715123,90.529018 c -2.30777,4.056537 4.419187,8.939031 8.570591,11.071432 5.722308,2.93931 15.846336,6.15 19.285996,0.71372 1.79361,-2.834748 -1.88731,-7.015518 -4.64286,-8.928568 -6.404201,-4.446135 -19.358608,-9.633011 -23.213727,-2.856584 z m 64.642297,69.285432 c -2.91378,0.64036 -8.30595,1.33575 -7.85742,4.28516 0.91267,6.00141 12.82154,0.18261 17.85742,3.57227 5.91648,3.9824 4.68163,18.4931 11.78516,17.85742 3.61205,-0.32323 4.99187,-6.44304 4.28515,-10 -1.39441,-7.01816 -8.82244,-12.08134 -15.35546,-15 -3.26823,-1.4601 -7.21873,-1.48319 -10.71485,-0.71485 z" inkscape:connector-curvature="0" />
</g>
<g inkscape:groupmode="layer" id="water_deep_layer" inkscape:label="Water Deep" style="display:inline" sodipodi:insensitive="true" >
  <path style="fill:#87c8ff;fill-opacity:0.60;fill-rule:evenodd;stroke:none;filter:url(#blurWaterDeep)" d="m 210.79998,255.55002 0,-20 c 0,0 0.26559,-8.13866 0.82697,-12.18353 1.81955,-13.11031 5.13658,-25.99251 6.75443,-39.12923 1.97108,-16.00492 8.38114,-32.84898 3.5835,-48.24461 -3.20675,-10.29047 -12.02099,-18.26376 -20.28999,-25.17758 -9.75128,-8.15317 -24.97238,-8.82811 -33.45911,-18.290513 -6.60428,-7.36353 -8.56614,-17.928791 -11.32728,-27.426905 -2.48654,-8.553506 1.62888,-19.980781 -4.63031,-26.318589 C 139.80283,26.167263 117.61683,30.917208 100.0051,28.912129 88.200044,27.568135 76.228121,26.473804 64.38979,27.483558 56.309822,28.172741 48.593743,31.210771 40.597692,32.561338 30.81041,34.214451 11.050001,35.79996 11.050001,35.79996 l -20.000001,0 10e-6,-24.74994 19.99999,-19.9999902 224.49999,0 20.00003,20.0000312 0,224.499989 -20.00003,20.00004 z" inkscape:connector-curvature="0" />
</g>
<g inkscape:groupmode="layer" id="water_hilight_layer" inkscape:label="Water Hilight" style="display:inline" sodipodi:insensitive="true" >
  <use xlink:href="#shoreline" height="100%" width="100%" x="0" y="0" style="display:inline;fill:#ffffff;fill-opacity:1;stroke:#ffffff;stroke-opacity:1;filter:url(#blurWaterHilight)" />
</g>
<g inkscape:groupmode="layer" id="shoreline_layer" inkscape:label="Shoreline" style="display:inline" sodipodi:insensitive="true" >
  <use xlink:href="#shoreline" height="100%" width="100%" x="0" y="0" style="display:inline;fill:#ffddab;fill-opacity:1;stroke:#5f4c14;stroke-width:1;stroke-miterlimit:4;stroke-dasharray:none;stroke-opacity:1" />
</g>
<g inkscape:groupmode="layer" id="shoreline_master_layer" inkscape:label="Shoreline Master" style="display:none" sodipodi:insensitive="true" >
  <path id="shoreline" style="color:#000000;clip-rule:nonzero;display:inline;overflow:visible;visibility:visible;opacity:1;isolation:auto;mix-blend-mode:normal;color-interpolation:sRGB;color-interpolation-filters:linearRGB;solid-color:#000000;solid-opacity:1;fill-opacity:1;fill-rule:evenodd;color-rendering:auto;image-rendering:auto;shape-rendering:auto;text-rendering:auto;enable-background:accumulate" d="m 77.902344,61.148438 -8.949219,2.697265 2.957031,6.363281 10.447266,-0.425781 8.546875,7.171875 12.230473,1.429688 0.33203,-6.228516 -7.167972,-9.597656 z M -8.95,80.42496 l 7.812e-4,155.12582 19.9999998,20 155.124199,-7.6e-4 0,-20 -3.6535,-19.76877 -10.53906,-20.17969 -15.63867,-11.44336 -20.79492,-1.37444 -13.13762,12.344 -2.718016,-13.81107 -7.392413,-6.1956 -14.656629,-3.57889 6.092176,-17.77853 -3.429701,-11.25901 8.400404,-0.89138 9.44336,-5.55664 L 89.3125,122.42383 71.73577,120.05497 61.166842,113.6742 54.515821,122.54432 52.072266,108.82812 42.585938,95.443359 28.083984,83.203125 11.050001,80.42496 Z m 135.37773,35.45981 4.28711,3.92968 0,10.71485 13.21289,7.5 5.71485,7.85547 4.28515,-7.5 -0.35546,-8.57032 -10,-3.57226 -3.92969,-10.35742 z m 64.28711,21.42968 -8.92968,1.07032 -6.07032,5.35742 5.71289,5.35742 18.92969,-5.71484 z m -5,29.28516 4.28516,14.64258 5,-5 -2.14258,-9.28516 z" inkscape:connector-curvature="0" />
</g>
<g inkscape:groupmode="layer" id="grass_layer" inkscape:label="Grass" style="display:inline" sodipodi:insensitive="true" >
  <use xlink:href="#grass" height="100%" width="100%" x="0" y="0" style="display:inline;fill:#b4e982;fill-opacity:1;stroke:none;stroke-width:1;stroke-miterlimit:4;stroke-dasharray:none;stroke-opacity:1" />
</g>
<g inkscape:groupmode="layer" id="grass_master_layer" inkscape:label="Grass Master" style="display:none" sodipodi:insensitive="true" >
  <path id="grass" style="color:#000000;clip-rule:nonzero;display:inline;overflow:visible;visibility:visible;opacity:1;isolation:auto;mix-blend-mode:normal;color-interpolation:sRGB;color-interpolation-filters:linearRGB;solid-color:#000000;solid-opacity:1;fill-opacity:1;fill-rule:evenodd;filter:url(#blurGrass);color-rendering:auto;image-rendering:auto;shape-rendering:auto;text-rendering:auto;enable-background:accumulate" d="m 146.95486,255.55008 0,-20 L 145.51198,221.6 127.65484,197.67143 98.329207,200.65424 84.415174,188.04434 73.613744,177.37675 72.987502,158.70351 68.462842,139.64804 49.473897,123.80249 36.25,106.95024 11.050001,99.29996 l -20.000001,0 10e-6,136.25006 20.00001,20.00006 z" inkscape:connector-curvature="0" />
</g>
<g inkscape:groupmode="layer" id="forest_shadow_layer" inkscape:label="Forest Shadow" style="display:inline" sodipodi:insensitive="true" >
  <g style="filter:url(#blurForestShadow)" >
    <use xlink:href="#forest" height="100%" width="100%" x="0" y="0" style="display:inline;opacity:0.75;fill:#258c1b;fill-opacity:1" />
  </g>
</g>
<g inkscape:groupmode="layer" id="forest_fill_layer" inkscape:label="Forest Fill" style="display:inline" sodipodi:insensitive="true" >
  <use xlink:href="#forest" height="100%" width="100%" x="0" y="0" style="fill:#7ebd47;fill-opacity:1;fill-rule:nonzero;stroke:#496e28;stroke-width:0.5;stroke-linecap:round;stroke-linejoin:round;stroke-miterlimit:4;stroke-dasharray:none;stroke-dashoffset:0;stroke-opacity:1" />
</g>
<g inkscape:groupmode="layer" id="forest_master_layer" inkscape:label="Forest Master" style="display:none" sodipodi:insensitive="true" >
  <path id="forest" style="color:#000000;clip-rule:nonzero;display:inline;overflow:visible;visibility:visible;opacity:1;isolation:auto;mix-blend-mode:normal;color-interpolation:sRGB;color-interpolation-filters:linearRGB;solid-color:#000000;solid-opacity:1;fill-opacity:1;fill-rule:nonzero;color-rendering:auto;image-rendering:auto;shape-rendering:auto;text-rendering:auto;enable-background:accumulate" d="m 129.0494,255.55008 0,-20 -1.17048,-16.98489 -3.49438,-10.72916 -9.39776,-0.57686 -10.75454,-0.28445 -12.794058,10.67313 -0.388207,17.90217 0,20 z m -48.249425,-20.00006 -7.723234,-18.86201 -18.43993,-9.48716 -3.738698,15.74141 2.151862,12.60776 0,20 27.75,0 z m -38,0 -4.48266,-10.68613 -15.174818,-15.84785 -12.092496,-5.21608 -10.7135158,-0.35644 -9.285704,32.10726 19.9991638,19.99927 31.75003,-3e-5 z m -31.749974,-42.00006 13.310171,-8.16943 -3.739707,-11.19783 -9.570464,-8.38274 -20.000001,0 0,27.75 z m 0,-38 12.519123,-6.80712 17.960972,-19.09916 -12.601525,-12.60678 -17.87857,0.76306 -20.000001,0 0,37.75 z M 48.571428,154.1 l 3.214287,-8.92857 5.568862,5.23698 6.071429,0 -1.997435,7.62016 3.214286,6.42857 -8.571428,5 -3.214286,-7.14285 -10.357143,5.71428 0,-6.78571 -5,-6.78572 z" inkscape:connector-curvature="0" />
</g>
<g inkscape:groupmode="layer" id="routes_layer" inkscape:label="Routes" style="display:inline" sodipodi:insensitive="true" >
  <path style="display:inline;fill:none;stroke:#000000;stroke-width:2;stroke-linecap:round;stroke-miterlimit:4;stroke-dasharray:0.1, 5;stroke-dashoffset:0;stroke-opacity:1" d="m 255.55002,123.30006 h -20 C 208.78098,122.79498 187.09649,109.43475 162.51603,81.963514 134.87553,51.072374 123.80506,31.253024 123.29998,11.049971 V -8.95003 M 85.883311,255.55002 v -20 C 86.388384,219.89266 68.461603,200.57593 53.972796,194.4991 34.624503,186.38412 32.263207,162.23186 11.050001,160.71662 h -20" inkscape:connector-curvature="0" />
</g>
<g inkscape:groupmode="layer" id="labels_layer" inkscape:label="Labels" style="display:inline" sodipodi:insensitive="true" >
  <text xml:space="preserve" style="font-style:normal;font-variant:normal;font-weight:normal;font-stretch:normal;font-size:10px;line-height:125%;font-family:CCTreasureTrove;-inkscape-font-specification:'CCTreasureTrove, Normal';text-align:start;letter-spacing:0px;word-spacing:0px;writing-mode:lr-tb;text-anchor:start;display:inline;fill:#5d481b;fill-opacity:1;stroke:none;stroke-width:1px;stroke-linecap:butt;stroke-linejoin:miter;stroke-opacity:1"><textPath xlink:href="#label-path"
>Rept Isles</textPath></text>
</g>
<g inkscape:groupmode="layer" id="labels_guide_layer" inkscape:label="Labels Guide" style="display:none" sodipodi:insensitive="true" >
  <path id="label-path" style="color:#000000;fill:none;stroke:#000000;stroke-width:1;stroke-opacity:1" d="M 167.47792,123.42882 C 151.76364,99.500257 124.64369,89.814727 95.000837,89.100447" inkscape:connector-curvature="0" />
</g>
<g inkscape:groupmode="layer" id="resources_layer" inkscape:label="Resources" style="display:inline" sodipodi:insensitive="true" >
  <g id="resource-squid" transform="matrix(-0.67687398,0.73609892,-0.73609892,-0.67687398,103.32147,-13.284702)" >
    <path style="color:#000000;clip-rule:nonzero;display:inline;overflow:visible;visibility:visible;opacity:1;isolation:auto;mix-blend-mode:normal;color-interpolation:sRGB;color-interpolation-filters:linearRGB;solid-color:#000000;solid-opacity:1;fill:#ffffff;fill-opacity:1;fill-rule:evenodd;stroke:none;stroke-width:0.89999998;stroke-linecap:round;stroke-linejoin:miter;stroke-miterlimit:4;stroke-dasharray:none;stroke-dashoffset:0;stroke-opacity:1;color-rendering:auto;image-rendering:auto;shape-rendering:auto;text-rendering:auto;enable-background:accumulate" d="m 3.751377,-125.43036 -1.988737,1.32582 -2.342292,2.2981 -1.988737,2.43068 -1.104855,2.2981 -0.707107,1.90035 0,1.14905 1.679379,0 -0.397747,1.98873 -0.574525,2.47488 -0.08839,2.34229 -0.08839,1.72357 0.839689,0.70711 1.767767,0.39775 1.856155,0.0442 1.414214,-0.17678 1.414213,-0.57453 0.309359,-0.83968 0.30936,-2.3423 -0.30936,-2.69584 -0.176776,-2.65165 1.723573,0.53033 0.04419,-2.20971 -0.220971,-3.7565 -0.397748,-3.27037 z" inkscape:connector-curvature="0" />
    <path style="fill:#000000;fill-opacity:1;fill-rule:evenodd;stroke:none;stroke-width:0.89999998;stroke-linecap:round;stroke-linejoin:miter;stroke-miterlimit:4;stroke-dasharray:none;stroke-opacity:1" d="m -11.427734,-116.71094 c -0.926654,0.068 -1.828354,0.58 -2.47461,0.98633 l 0.564453,0.62305 c 0.129027,-0.0692 1.250128,-0.8819 2,-0.93164 0.346707,-0.0382 0.804167,0.0783 1.076172,0.39453 0.868797,0.83085 0.783149,2.35847 0.419922,4.20312 -0.329865,1.37596 -0.389964,2.87205 -0.115234,4.36719 0.175945,1.03446 0.565056,2.09121 1.236328,2.96484 0.238071,-0.17566 0.474836,-0.35332 0.707031,-0.53906 0.01663,-0.0136 0.035924,-0.0238 0.052734,-0.0371 -0.6103851,-0.73211 -0.9647481,-1.69528 -1.1601561,-2.53906 -0.328551,-1.46718 -0.279657,-2.86872 -0.0332,-4.05078 0.451937,-2.07874 0.307063,-3.74395 -0.642578,-4.80469 -0.4323489,-0.47732 -1.0683939,-0.67465 -1.6308589,-0.63672 z" inkscape:connector-curvature="0" />
    <path style="fill:#000000;fill-opacity:1;fill-rule:evenodd;stroke:none;stroke-width:0.89999998;stroke-linecap:round;stroke-linejoin:miter;stroke-miterlimit:4;stroke-dasharray:none;stroke-opacity:1" d="m -3.796875,-104.89258 c -0.9058673,0.74517 -1.9188533,1.2608 -2.7324219,1.16406 -0.2030019,0.0833 -0.4030106,0.17309 -0.5839843,0.29102 -0.166691,0.11469 -0.3464295,0.21948 -0.5195313,0.33008 1.7036649,0.94245 3.731315,0.084 4.8828125,-1.03906 -0.3560506,-0.22586 -0.7057338,-0.47583 -1.046875,-0.7461 z" inkscape:connector-curvature="0" />
    <path style="fill:#000000;fill-opacity:1;fill-rule:evenodd;stroke:none;stroke-width:0.89999998;stroke-linecap:round;stroke-linejoin:miter;stroke-miterlimit:4;stroke-dasharray:none;stroke-opacity:1" d="m 4.1640625,-105.46289 c -0.327423,-0.0235 -0.6594367,-0.0232 -0.9921875,0.002 0.078825,0.37091 0.1521001,0.74306 0.2207031,1.11524 1.064043,-0.1503 2.1844576,0.0295 3.203125,0.45898 0.5236021,0.21983 1.046713,0.50703 1.5820313,0.79883 0.1250671,-0.19964 0.2209286,-0.4272 0.3164062,-0.65625 -0.4965073,-0.32152 -0.99925,-0.64667 -1.5488281,-0.92969 -0.8521322,-0.43734 -1.7989811,-0.71849 -2.78125,-0.78906 z" inkscape:connector-curvature="0" />
    <path style="fill:#000000;fill-opacity:1;fill-rule:evenodd;stroke:none;stroke-width:0.89999998;stroke-linecap:round;stroke-linejoin:miter;stroke-miterlimit:4;stroke-dasharray:none;stroke-opacity:1" d="m 9.625,-103.05469 c -0.082921,0.19334 -0.1803086,0.37972 -0.2832031,0.56446 1.0688811,0.48073 2.1976941,0.84215 3.3593751,1.0332 0.499799,0.10355 1.072452,0.1837 1.636719,0.125 0.45283,-0.10452 0.877972,-0.29289 1.207031,-0.60938 -0.854133,0.55171 -1.887915,0.33226 -2.777344,0.11524 -1.10459,-0.26639 -2.156407,-0.6956 -3.142578,-1.22852 z" inkscape:connector-curvature="0" />
    <path style="fill:#000000;fill-opacity:1;fill-rule:evenodd;stroke:none;stroke-width:0.89999998;stroke-linecap:round;stroke-linejoin:miter;stroke-miterlimit:4;stroke-dasharray:none;stroke-opacity:1" d="m 10.445312,-116.39648 c -0.400021,0.0106 -0.806202,0.0811 -1.207031,0.23632 -0.999585,0.47508 -1.487003,1.70748 -1.054687,2.81641 0.73612,1.87741 1.421348,4.07068 1.230468,6.24023 -0.185513,1.89331 -0.460829,3.94627 -1.800781,5.00196 -0.0014,0.001 -0.0025,0.003 -0.0039,0.004 0.320059,0.10607 0.638919,0.21521 0.96875,0.33985 1.230198,-1.44937 1.504195,-3.41815 1.582031,-5.29297 0.119976,-2.35443 -0.620703,-4.61346 -1.384765,-6.52539 -0.32491,-0.80541 0.06377,-1.75045 0.714844,-1.97071 1.477232,-0.63585 3.318013,0.63156 3.894531,1.04493 0.06075,-0.3217 0.119158,-0.65295 0.167968,-0.99219 -0.763734,-0.42041 -1.907357,-0.9341 -3.107422,-0.90234 z" inkscape:connector-curvature="0" />
    <path style="fill:#000000;fill-opacity:1;fill-rule:evenodd;stroke:none;stroke-width:0.89999998;stroke-linecap:round;stroke-linejoin:miter;stroke-miterlimit:4;stroke-dasharray:none;stroke-opacity:1" d="m 2.6855469,-104.19922 -1.3144531,0.16406 c 0.1478645,1.11047 0.8672943,2.90093 2.7285156,3.58399 1.0655975,0.34295 2.2839122,0.21217 3.3339844,-0.36719 -0.2485489,-0.0678 -0.4969496,-0.13368 -0.75,-0.21289 -0.00137,0 -0.00254,-0.002 -0.00391,-0.002 0,0 -0.00195,0 -0.00195,0 -0.3131724,-0.0869 -0.6261833,-0.19311 -0.9375,-0.31055 -0.4385291,0.0409 -0.8692013,-0.007 -1.2519532,-0.16992 -1.067961,-0.37978 -1.6828409,-1.60142 -1.8027343,-2.68555 z" inkscape:connector-curvature="0" />
    <path style="fill:#000000;fill-opacity:1;fill-rule:evenodd;stroke:none;stroke-width:0.89999998;stroke-linecap:round;stroke-linejoin:miter;stroke-miterlimit:4;stroke-dasharray:none;stroke-opacity:1" d="m -0.46875,-103.85156 c -0.37846744,0.0176 -0.7557959,0.0342 -1.1347656,0.0508 -0.026644,1.35579 -0.083772,2.68828 -0.4941406,3.89453 -0.018811,0.05778 -0.047295,0.112792 -0.068359,0.169922 0.0012,0.469321 0.048794,0.930808 0.1503906,1.380859 0.2763156,-0.394741 0.5250997,-0.814331 0.7148438,-1.271484 0.55095568,-1.351977 0.7212245,-2.820157 0.8320312,-4.224607 z" inkscape:connector-curvature="0" />
    <path style="fill:#000000;fill-opacity:1;fill-rule:evenodd;stroke:none;stroke-width:0.89999998;stroke-linecap:round;stroke-linejoin:miter;stroke-miterlimit:4;stroke-dasharray:none;stroke-opacity:1" d="m -3.1230469,-98.044922 c -0.150339,0.197077 -0.3095867,0.389682 -0.4746093,0.578125 -0.714018,0.796578 -1.6209216,1.450225 -2.6289063,1.658203 -0.2940814,0.05997 -0.6139042,0.05055 -0.90625,-0.02344 -0.4427004,-0.04353 -0.8708449,-0.242919 -1.1113281,-0.654297 0.2442222,0.763823 1.2067903,1.184368 2.09375,1.060547 1.1279747,-0.158128 2.18429,-0.790581 3.0175781,-1.617188 0.093062,-0.09152 0.1811077,-0.189952 0.2714844,-0.285156 -0.1018651,-0.234524 -0.1860307,-0.474028 -0.2617188,-0.716797 z" inkscape:connector-curvature="0" />
    <path style="fill:#000000;fill-opacity:1;fill-rule:evenodd;stroke:none;stroke-width:0.89999998;stroke-linecap:round;stroke-linejoin:miter;stroke-miterlimit:4;stroke-dasharray:none;stroke-opacity:1" d="m 4.025391,-125.87891 c -0.146221,-0.0305 -0.303081,0.0119 -0.398438,0.0742 -2.862666,1.87054 -4.880211,3.59029 -6.738281,6.62891 -0.99964,1.72264 -1.777144,3.35668 -1.810547,5.28516 0.006,0.2998 0.273432,0.52657 0.570313,0.48437 0.492456,-0.0709 0.875763,-0.10517 1.1875,-0.1289 -0.218167,0.7447 -0.421021,1.51009 -0.605469,2.3496 -0.397611,1.80973 -0.653445,4.36221 -0.396485,5.81446 0.19055,1.07692 1.186538,1.26127 1.898438,1.47656 0.7119,0.21529 1.794338,0.36669 2.455078,0.27539 1.69421,-0.23411 3.402492,-0.48676 3.824219,-1.49023 0.761046,-1.81087 0.168822,-5.57059 0.01758,-7.99219 0.372935,0.0863 0.744619,0.19639 1.097656,0.36523 0.33685,0.16216 0.647892,-0.0794 0.638672,-0.45312 0,0 -0.123941,-4.19409 -0.244141,-5.86719 -0.19297,-2.68575 -0.356893,-3.69695 -1.158203,-6.45703 -0.0561,-0.23143 -0.19167,-0.33476 -0.33789,-0.36523 z m -0.402344,0.98243 c 0.58883,2.15877 0.873399,3.54998 1.042969,5.91015 0.10223,1.42282 0.178435,4.57706 0.197265,5.32227 -0.75389,-0.22738 -1.480374,-0.38819 -2.083984,-0.44727 0.003,-0.93743 0.01185,-2.67282 0.09375,-4.53515 0.0553,-1.25832 -0.308848,-0.55533 -0.486328,0.38671 -0.38009,2.01743 -0.460938,3.48013 -0.460938,4.40821 -4e-4,0.25604 0.192656,0.47102 0.447266,0.49804 0.246719,0.026 0.520253,0.0702 0.785156,0.10547 0.293188,2.53888 0.74607,5.39541 0.132813,7.61133 -0.202142,0.73041 -3.4124,1.1779 -5.269532,0.78516 -0.518246,-0.1096 -1.363176,-0.31092 -1.404296,-1.08594 -0.0867,-1.63376 0.06432,-3.31607 0.320312,-4.73438 0.389151,-2.15602 1.088748,-4.27614 1.673828,-5.69726 l 0.941406,-2.46289 c 0.56898,-1.4466 0.362088,-1.65162 -0.632812,0.10156 -0.761329,1.50777 -1.310471,2.82853 -1.765625,4.1875 -0.192605,0.0238 -0.6893,0.0859 -1.246094,0.1543 0.0825,-0.52387 0.194473,-1.14129 0.470703,-1.9043 0.35929,-0.99241 0.811648,-1.98486 1.080078,-2.42383 1.64411,-2.6887 3.560553,-4.51162 6.164063,-6.17968 z" inkscape:connector-curvature="0" />
    <path style="fill:#000000;fill-opacity:1;fill-rule:evenodd;stroke:none;stroke-width:0.89999998;stroke-linecap:round;stroke-linejoin:miter;stroke-miterlimit:4;stroke-dasharray:none;stroke-opacity:1" d="m -2.5373427,-104.18887 c 0.3421635,0.16215 0.6859607,0.32221 1.0313325,0.48012 -0.9340133,2.13702 -1.3535777,4.738056 -0.2199471,6.841436 0,0 -1e-7,10e-7 -1e-7,10e-7 0.4977108,0.912316 0.5028499,2.106189 -0.1345524,2.837592 -4e-7,0 -4e-7,0 -4e-7,0 -0.5079821,0.590086 -1.4642213,0.666608 -1.9748687,0.199639 0.5287582,0.326069 1.2462055,0.121597 1.5702851,-0.288591 0.041842,-0.04156 0.079462,-0.08658 0.111943,-0.134807 0.4857643,-0.603214 0.3594186,-1.599406 -0.074296,-2.305366 -10e-8,0 -10e-8,0 -10e-8,0 -1.4089532,-2.272798 -1.2397643,-5.211664 -0.3098958,-7.630024 z" inkscape:connector-curvature="0" />
    <path style="fill:#000000;fill-opacity:1;fill-rule:evenodd;stroke:none;stroke-width:0.89999998;stroke-linecap:round;stroke-linejoin:miter;stroke-miterlimit:4;stroke-dasharray:none;stroke-opacity:1" d="m 2.3835041,-104.06671 c 0.3174615,-0.24063 0.6405059,-0.47527 0.9692112,-0.70375 0.6369547,1.29737 2.1141119,2.13063 3.6421499,2.7018 1.3112305,0.45566 2.9095093,0.83787 3.7952238,2.02156 0,0 0,0 0,0 0.5932,0.800014 0.736953,1.955226 0.161314,2.691399 -0.466912,0.602328 -1.3710736,0.816403 -1.952572,0.446967 0.6368576,0.257218 1.383809,-0.137615 1.639232,-0.653144 -2e-6,3e-6 0.0051,-0.0078 0.0051,-0.0078 0.434378,-0.572556 0.19779,-1.510827 -0.294284,-2.118239 0,0 0,-10e-7 0,-10e-7 -0.7344896,-0.948692 -2.2010381,-1.119902 -3.6049445,-1.560132 -1.6380276,-0.45356 -3.3202746,-1.28178 -4.3604604,-2.81866 z" inkscape:connector-curvature="0" />
    <path style="fill:#000000;fill-opacity:1;fill-rule:evenodd;stroke:none;stroke-width:0.89999998;stroke-linecap:round;stroke-linejoin:miter;stroke-miterlimit:4;stroke-dasharray:none;stroke-opacity:1" d="m -3.2239027,-105.35575 -0.4962606,1.35092 c -1.0480932,-0.46063 -2.4787863,-0.29871 -3.5206168,0.38222 0,0 -3e-7,0 -3e-7,0 -1.3656955,0.93961 -2.9325976,1.77851 -4.6273276,1.94569 0,0 -1e-6,0 -1e-6,0 -0.765571,0.0695 -1.508698,-0.0986 -2.185433,-0.35854 -0.608035,-0.2156 -1.286316,-0.55176 -1.572326,-1.1699 0.158398,0.10812 0.317934,0.17056 0.477991,0.20184 0.313188,0.27579 0.779492,0.42426 1.22658,0.5645 0.660228,0.18101 1.343102,0.27459 1.967694,0.15219 0,0 10e-7,0 10e-7,0 1.508118,-0.2724 2.8419377,-1.18921 4.0822788,-2.18158 0,0 5e-7,0 5e-7,0 1.2448518,-1.01542 3.0322554,-1.4126 4.64742,-0.88734 z" inkscape:connector-curvature="0" />
    <path style="fill:#000000;fill-opacity:1;fill-rule:evenodd;stroke:none;stroke-width:0.89999998;stroke-linecap:round;stroke-linejoin:miter;stroke-miterlimit:4;stroke-dasharray:none;stroke-opacity:1" d="m 1.6621094,-103.86719 c -0.4185714,0.0443 -0.83767516,0.0868 -1.2558594,0.12696 0.25950609,1.60191 0.8206852,3.24717 1.9023438,4.556636 0.342343,0.41542 0.5590507,0.954197 0.4804687,1.44336 -0.025283,0.246453 -0.1119591,0.496485 -0.2246094,0.751953 0.1634384,0.135566 0.3491558,0.240365 0.546875,0.314453 0.1631599,-0.298951 0.302037,-0.612493 0.3789063,-0.960938 0.1468187,-0.721817 -0.060504,-1.49206 -0.5,-2.099609 -0.8380808,-1.188455 -1.181556,-2.668875 -1.328125,-4.132815 z" inkscape:connector-curvature="0" />
    <path style="fill:#000000;fill-opacity:1;fill-rule:evenodd;stroke:none;stroke-width:0.89999998;stroke-linecap:round;stroke-linejoin:miter;stroke-miterlimit:4;stroke-dasharray:none;stroke-opacity:1" d="m 2.0175781,-95.949219 c -0.1436635,0.248282 -0.2873481,0.51336 -0.3984375,0.822266 -0.027528,0.140925 -0.048361,0.286201 -0.056641,0.433594 -2.467e-4,0.681216 0.4247003,1.144359 0.9003906,1.335937 -0.4098373,-0.294911 -0.6597598,-0.801902 -0.5390625,-1.265625 0.1089883,-0.402944 0.3428298,-0.741718 0.578125,-1.082031 -0.1691941,-0.0673 -0.3310469,-0.147961 -0.484375,-0.244141 z" inkscape:connector-curvature="0" />
    <path style="fill:#000000;fill-opacity:1;fill-rule:evenodd;stroke:none;stroke-width:0.89999998;stroke-linecap:round;stroke-linejoin:miter;stroke-miterlimit:4;stroke-dasharray:none;stroke-opacity:1" d="m -0.60141829,-103.73449 c 0.41989804,0.0218 0.83993975,0.0419 1.26010131,0.06 -0.0659788,1.5874 0.0745189,3.19567 0.54825348,4.721421 0,0 3e-7,0 3e-7,0 0.2210797,0.697025 0.4978677,1.375404 0.9689598,1.905354 0,0 5e-7,0 5e-7,0 0.3845928,0.434985 0.9522601,0.744799 1.5524436,0.724004 1.1452221,-0.0092 1.9169042,-1.552437 1.4518695,-2.768928 0.3599911,0.495931 0.5141682,1.195943 0.3843301,1.874168 -0.2819051,0.74386 -0.8986219,1.34968 -1.7797763,1.509444 -0.8169383,0.06458 -1.5929088,-0.260511 -2.1406711,-0.80816 -0.6154334,-0.618165 -1.00944317,-1.374126 -1.28897248,-2.114375 1.1e-7,0 -2.1e-7,-10e-7 -2.1e-7,-10e-7 -0.63428047,-1.632007 -0.9178233,-3.376937 -0.9565385,-5.102977 z" inkscape:connector-curvature="0" />
    <path style="fill:#000000;fill-opacity:1;fill-rule:evenodd;stroke:none;stroke-width:0.89999998;stroke-linecap:round;stroke-linejoin:miter;stroke-miterlimit:4;stroke-dasharray:none;stroke-opacity:1" d="m -3.3945312,-104.69922 c -0.3552481,1.42085 -1.0184522,2.85835 -2.2050782,3.54883 -0.032141,0.0187 -0.080618,0.0419 -0.1152344,0.0625 0.031118,0.13229 0.066803,0.26506 0.078125,0.39648 0.014507,0.1684 0.00634,0.33743 -0.00195,0.50586 0.1820691,-0.0904 0.3573596,-0.19054 0.5039063,-0.29687 1.372379,-0.86601 2.2647831,-2.35534 2.7050781,-3.9082 -0.321271,-0.10556 -0.6428638,-0.2091 -0.9648437,-0.3086 z" inkscape:connector-curvature="0" />
    <path style="fill:#000000;fill-opacity:1;fill-rule:evenodd;stroke:none;stroke-width:0.89999998;stroke-linecap:round;stroke-linejoin:miter;stroke-miterlimit:4;stroke-dasharray:none;stroke-opacity:1" d="m -6.8574219,-102.06641 c -0.092115,-0.0108 -0.1890786,-0.0102 -0.2910156,0.01 -0.418133,0.0808 -0.80098,0.41965 -0.8750005,0.85742 -0.06307,0.373 0.0048,0.78465 0.3886724,1.06445 0.3364651,0.245274 0.7423581,0.290742 1.1484375,0.22852 -0.00622,-0.17417 -0.017944,-0.33714 -0.03125,-0.48047 -0.00651,-0.0701 -0.03744,-0.18008 -0.0625,-0.28125 -0.1991158,0.0605 -0.3975277,0.0949 -0.5761719,0.041 -0.152411,-0.046 -0.2709456,-0.30962 -0.1972656,-0.49219 0.026637,-0.066 0.0676,-0.12052 0.1113281,-0.16797 0.014137,-0.015 0.029411,-0.0282 0.044922,-0.041 0.032512,-0.0274 0.068145,-0.0477 0.1054687,-0.0645 0.020292,-0.009 0.039261,-0.0199 0.060547,-0.0254 0.053423,-0.0142 0.1092213,-0.0193 0.1660156,-0.01 0.074812,0.0126 0.1488622,0.0453 0.2207032,0.10546 0.198543,0.16628 0.3222775,0.70139 0.3359374,0.88672 0.040162,0.545023 0.1414044,1.206348 -0.2597656,2.146488 0.546965,-0.610901 0.7818213,-1.516606 0.7070313,-2.384768 -0.031496,-0.36561 -0.1332691,-0.73326 -0.3613281,-1.0332 -0.043291,-0.0569 -0.096805,-0.11122 -0.1582032,-0.16016 -0.063737,-0.0508 -0.1366607,-0.0942 -0.2167968,-0.1289 -0.079938,-0.0346 -0.1666628,-0.0594 -0.2597657,-0.0703 z" inkscape:connector-curvature="0" />
    <ellipse cx="0.282143" cy="-107.896100" rx="0.508233" ry="0.861786" style="fill:#000000;fill-opacity:1;fill-rule:evenodd;stroke:none;stroke-width:0.89999998;stroke-linecap:round;stroke-linejoin:miter;stroke-miterlimit:4;stroke-dasharray:none;stroke-opacity:1" />
    <ellipse cx="-1.629467" cy="-107.984500" rx="0.508233" ry="0.861786" style="fill:#000000;fill-opacity:1;fill-rule:evenodd;stroke:none;stroke-width:0.89999998;stroke-linecap:round;stroke-linejoin:miter;stroke-miterlimit:4;stroke-dasharray:none;stroke-opacity:1" />
    <path style="color:#000000;clip-rule:nonzero;display:inline;overflow:visible;visibility:visible;opacity:1;isolation:auto;mix-blend-mode:normal;color-interpolation:sRGB;color-interpolation-filters:linearRGB;solid-color:#000000;solid-opacity:1;fill:#ffffff;fill-opacity:1;fill-rule:evenodd;stroke:#000000;stroke-width:0.72000003;stroke-linecap:round;stroke-linejoin:miter;stroke-miterlimit:4;stroke-dasharray:none;stroke-dashoffset:0;stroke-opacity:1;color-rendering:auto;image-rendering:auto;shape-rendering:auto;text-rendering:auto;enable-background:accumulate" d="m 16.079505,-112.80178 c 0,0 -0.534036,-1.98412 -1.352253,-2.375 -1.083027,-0.51738 -2.029029,0.0701 -1.654029,0.82009 0.375,0.75 2.381282,1.33616 3.006282,1.55491 z" inkscape:connector-curvature="0" />
    <path style="color:#000000;clip-rule:nonzero;display:inline;overflow:visible;visibility:visible;opacity:1;isolation:auto;mix-blend-mode:normal;color-interpolation:sRGB;color-interpolation-filters:linearRGB;solid-color:#000000;solid-opacity:1;fill:#ffffff;fill-opacity:1;fill-rule:evenodd;stroke:#000000;stroke-width:0.72000003;stroke-linecap:round;stroke-linejoin:miter;stroke-miterlimit:4;stroke-dasharray:none;stroke-dashoffset:0;stroke-opacity:1;color-rendering:auto;image-rendering:auto;shape-rendering:auto;text-rendering:auto;enable-background:accumulate" d="m -15.544194,-112.67678 c 0,0 -0.104921,-1.79881 0.731694,-2.49777 0.96875,-0.80936 1.875,-0.15625 1.59375,0.53125 -0.28125,0.6875 -1.825444,1.62277 -2.325444,1.96652 z" inkscape:connector-curvature="0" />
  </g>
  <g id="resource-coconut" transform="rotate(10.017063,-1637.5422,435.18684)" >
    <path style="color:#000000;clip-rule:nonzero;display:inline;overflow:visible;visibility:visible;opacity:1;isolation:auto;mix-blend-mode:normal;color-interpolation:sRGB;color-interpolation-filters:linearRGB;solid-color:#000000;solid-opacity:1;fill:#bc8434;fill-opacity:1;fill-rule:evenodd;stroke:#000000;stroke-width:0.89999998;stroke-linecap:round;stroke-linejoin:miter;stroke-miterlimit:4;stroke-dasharray:none;stroke-dashoffset:0;stroke-opacity:1;color-rendering:auto;image-rendering:auto;shape-rendering:auto;text-rendering:auto;enable-background:accumulate" d="m -4.5080282,-122.99352 c -6.3850178,2.15964 -8.5771578,9.38405 -8.0814268,14.88876 0.55563,6.16983 5.2811628,10.95294 12.64199276,8.10608 3.04329704,-1.17702 6.04119804,-6.34196 6.22442604,-11.57628 0.09818,-2.80474 -0.29778,-5.51103 -1.639173,-7.82455 -1.102579,-1.90162 -3.478014,-3.784 -6.173654,-4.24214 -1.590991,0.97227 -2.972165,0.64813 -2.972165,0.64813 z" inkscape:connector-curvature="0" />
    <ellipse cx="-120.424450" cy="-1.104729" rx="0.540407" ry="0.751301" style="color:#000000;clip-rule:nonzero;display:inline;overflow:visible;visibility:visible;opacity:1;isolation:auto;mix-blend-mode:normal;color-interpolation:sRGB;color-interpolation-filters:linearRGB;solid-color:#000000;solid-opacity:1;fill:#000000;fill-opacity:1;fill-rule:nonzero;stroke:none;stroke-width:0.89999998;stroke-linecap:butt;stroke-linejoin:round;stroke-miterlimit:4;stroke-dasharray:none;stroke-dashoffset:0;stroke-opacity:1;color-rendering:auto;image-rendering:auto;shape-rendering:auto;text-rendering:auto;enable-background:accumulate" transform="matrix(0.04286687,0.99908079,-0.99908079,0.04286687,0,0)" />
    <ellipse cx="-113.374070" cy="-41.165329" rx="0.530946" ry="0.662913" style="color:#000000;clip-rule:nonzero;display:inline;overflow:visible;visibility:visible;opacity:1;isolation:auto;mix-blend-mode:normal;color-interpolation:sRGB;color-interpolation-filters:linearRGB;solid-color:#000000;solid-opacity:1;fill:#000000;fill-opacity:1;fill-rule:nonzero;stroke:none;stroke-width:0.89999998;stroke-linecap:butt;stroke-linejoin:round;stroke-miterlimit:4;stroke-dasharray:none;stroke-dashoffset:0;stroke-opacity:1;color-rendering:auto;image-rendering:auto;shape-rendering:auto;text-rendering:auto;enable-background:accumulate" transform="matrix(0.35065914,0.93650316,-0.93650316,0.35065914,0,0)" />
    <ellipse cx="-115.404910" cy="28.144659" rx="0.751301" ry="0.578731" style="color:#000000;clip-rule:nonzero;display:inline;overflow:visible;visibility:visible;opacity:1;isolation:auto;mix-blend-mode:normal;color-interpolation:sRGB;color-interpolation-filters:linearRGB;solid-color:#000000;solid-opacity:1;fill:#000000;fill-opacity:1;fill-rule:nonzero;stroke:none;stroke-width:0.89999998;stroke-linecap:butt;stroke-linejoin:round;stroke-miterlimit:4;stroke-dasharray:none;stroke-dashoffset:0;stroke-opacity:1;color-rendering:auto;image-rendering:auto;shape-rendering:auto;text-rendering:auto;enable-background:accumulate" transform="matrix(-0.21617976,0.97635358,-0.97635358,-0.21617976,0,0)" />
    <path style="color:#000000;clip-rule:nonzero;display:inline;overflow:visible;visibility:visible;opacity:1;isolation:auto;mix-blend-mode:normal;color-interpolation:sRGB;color-interpolation-filters:linearRGB;solid-color:#000000;solid-opacity:1;fill:#bc8434;fill-opacity:1;fill-rule:evenodd;stroke:#000000;stroke-width:0.89999998;stroke-linecap:round;stroke-linejoin:miter;stroke-miterlimit:4;stroke-dasharray:none;stroke-dashoffset:0;stroke-opacity:1;color-rendering:auto;image-rendering:auto;shape-rendering:auto;text-rendering:auto;enable-background:accumulate" d="m 12.470061,-104.40917 c -1.053625,2.46314 -2.7571896,5.66371 -5.3992166,6.959878 -1.8348159,0.900154 -4.8858287,1.355265 -7.29203855,0.574524 -1.47973495,-0.480128 -3.26695685,-2.153861 -3.88908725,-3.579732 -0.9764548,-2.23794 -1.1678327,-4.60408 -0.6812181,-6.72953 0.2499469,-1.09173 1.186875,-3.22454 1.8151019,-4.00521" inkscape:connector-curvature="0" />
    <path style="color:#000000;clip-rule:nonzero;display:inline;overflow:visible;visibility:visible;opacity:1;isolation:auto;mix-blend-mode:normal;color-interpolation:sRGB;color-interpolation-filters:linearRGB;solid-color:#000000;solid-opacity:1;fill:#ffffff;fill-opacity:1;fill-rule:evenodd;stroke:#000000;stroke-width:0.89999998;stroke-linecap:round;stroke-linejoin:miter;stroke-miterlimit:4;stroke-dasharray:none;stroke-dashoffset:0;stroke-opacity:1;color-rendering:auto;image-rendering:auto;shape-rendering:auto;text-rendering:auto;enable-background:accumulate" d="m -4.1031709,-106.48916 c 0.1858925,1.26956 0.9057567,2.15876 1.8143573,3.06473 0.7258639,0.72377 1.43443306,1.23318 2.38813597,1.53034 0.21168639,0.36954 0.58409309,0.82966 0.71913043,1.00496 0.6211732,0.30789 1.2701423,0.41934 1.7697881,0.53351 1.2859005,0.29381 3.2051814,0.30928 4.487449,0 1.4766975,-0.35618 2.9730411,-1.01232 4.0560481,-2.07749 0.799348,-0.78619 1.474351,-1.85192 1.582847,-2.96784 0.19684,-2.02457 0.0097,-3.62122 -1.250374,-5.21803 -0.765762,-0.24844 -1.101356,-0.47744 -2.0001007,-0.72008 -0.7209049,-0.88161 -1.2999824,-1.55958 -2.1970327,-2.39292 -1.8286746,-0.73618 -4.3613695,-0.80559 -6.0281383,-0.27571 -1.72586214,0.54868 -3.34971,1.59922 -4.0200406,2.49515 -1.4298123,1.911 -1.5302056,3.6019 -1.3220696,5.02338 z" inkscape:connector-curvature="0" />
    <path style="color:#000000;clip-rule:nonzero;display:inline;overflow:visible;visibility:visible;opacity:1;isolation:auto;mix-blend-mode:normal;color-interpolation:sRGB;color-interpolation-filters:linearRGB;solid-color:#000000;solid-opacity:1;fill:url(#gradientCoconut);fill-opacity:1;fill-rule:evenodd;stroke:#000000;stroke-width:0.72000003;stroke-linecap:round;stroke-linejoin:miter;stroke-miterlimit:4;stroke-dasharray:none;stroke-dashoffset:0;stroke-opacity:1;color-rendering:auto;image-rendering:auto;shape-rendering:auto;text-rendering:auto;enable-background:accumulate" d="m 2.5689019,-111.79765 c -1.95421257,0.27864 -3.6605132,1.67502 -3.9378089,3.55663 -0.3092039,2.09813 0.69763676,3.67395 3.1778133,4.47933 0.373786,0.49838 0.6109957,0.84189 0.7612596,1.05028 0.5701086,0.18629 1.6940872,0.30376 2.4051006,0.28378 1.4220267,-0.04 2.5622123,-0.49712 3.5524385,-1.12498 1.980452,-1.2557 2.103312,-3.22456 0.954264,-5.56685 -0.6629126,-0.17678 -1.1503302,-0.34475 -1.6846877,-0.51996 -0.4611538,-0.48593 -0.8524209,-0.92577 -1.6101047,-1.76382 -1.1960277,-0.5413 -2.2986558,-0.51727 -3.6182747,-0.39441 z" inkscape:connector-curvature="0" />
  </g>
</g>
<g inkscape:groupmode="layer" id="edge_guides_layer" inkscape:label="Edges" style="display:none" sodipodi:insensitive="true" >
  <g id="guide0-0" transform="" >
    <rect x="0" y="-22.5" width="246.6" height="22.5" style="fill:#73baff;stroke:#000000;stroke-width:0.9" />
    <path style="display:inline;fill:none;stroke:#000000;stroke-width:2;stroke-linecap:round;stroke-miterlimit:4;stroke-dasharray:0.1, 5;stroke-dashoffset:0;stroke-opacity:1" d="m 123.75,0 0,-22.5" inkscape:connector-curvature="0" />
  </g>
  <g id="guide1-0" transform="matrix(0,1,-1,0,246.6,0)" >
    <rect x="0" y="-22.5" width="246.6" height="22.5" style="fill:#73baff;stroke:#000000;stroke-width:0.9" />
    <path style="display:inline;fill:none;stroke:#000000;stroke-width:2;stroke-linecap:round;stroke-miterlimit:4;stroke-dasharray:0.1, 5;stroke-dashoffset:0;stroke-opacity:1" d="m 123.75,0 0,-22.5" inkscape:connector-curvature="0" />
  </g>
  <g id="guide2-3" transform="matrix(-1,0,0,-1,246.6,246.6)" >
    <rect x="81.725" y="-22.5" width="164.875" height="22.5" style="fill:#ffd291;stroke:#000000;stroke-width:0.9" />
    <rect x="98.6" y="-22.5" width="148" height="22.5" style="fill:#b4e982;stroke:#000000;stroke-width:0.9" />
    <rect x="203.1" y="-22.5" width="43.5" height="22.5" style="fill:#5adc4f;stroke:#000000;stroke-width:0.9" />
    <rect x="152.35" y="-22.5" width="39.5" height="22.5" style="fill:#5adc4f;stroke:#000000;stroke-width:0.9" />
    <rect x="91.6" y="-22.5" width="49.5" height="22.5" style="fill:#5adc4f;stroke:#000000;stroke-width:0.9" />
    <rect x="0" y="-22.5" width="81.725" height="22.5" style="fill:#b9deff;stroke:#000000;stroke-width:0.9" />
    <rect x="0" y="-22.5" width="58.625" height="22.5" style="fill:#9bceff;stroke:#000000;stroke-width:0.9" />
    <rect x="0" y="-22.5" width="36.5" height="22.5" style="fill:#73baff;stroke:#000000;stroke-width:0.9" />
    <path style="display:inline;fill:none;stroke:#000000;stroke-width:2;stroke-linecap:round;stroke-miterlimit:4;stroke-dasharray:0.1, 5;stroke-dashoffset:0;stroke-opacity:1" d="m 161.25,0 0,-22.5" inkscape:connector-curvature="0" />
  </g>
  <g id="guide3-6" transform="matrix(0,-1,1,0,0,246.6)" >
    <rect x="0" y="-22.5" width="164.875" height="22.5" style="fill:#ffd291;stroke:#000000;stroke-width:0.9" />
    <rect x="0" y="-22.5" width="148" height="22.5" style="fill:#b4e982;stroke:#000000;stroke-width:0.9" />
    <rect x="0" y="-22.5" width="43.5" height="22.5" style="fill:#5adc4f;stroke:#000000;stroke-width:0.9" />
    <rect x="54.75" y="-22.5" width="39.5" height="22.5" style="fill:#5adc4f;stroke:#000000;stroke-width:0.9" />
    <rect x="105.5" y="-22.5" width="49.5" height="22.5" style="fill:#5adc4f;stroke:#000000;stroke-width:0.9" />
    <rect x="164.875" y="-22.5" width="81.725" height="22.5" style="fill:#b9deff;stroke:#000000;stroke-width:0.9" />
    <rect x="187.975" y="-22.5" width="58.625" height="22.5" style="fill:#9bceff;stroke:#000000;stroke-width:0.9" />
    <rect x="210.1" y="-22.5" width="36.5" height="22.5" style="fill:#73baff;stroke:#000000;stroke-width:0.9" />
    <path style="display:inline;fill:none;stroke:#000000;stroke-width:2;stroke-linecap:round;stroke-miterlimit:4;stroke-dasharray:0.1, 5;stroke-dashoffset:0;stroke-opacity:1" d="m 86.25,0 0,-22.5" inkscape:connector-curvature="0" />
  </g>
</g>
<g inkscape:groupmode="layer" id="id_layer" inkscape:label="Card ID" style="display:none" sodipodi:insensitive="true" >
  <text xml:space="preserve" x="19.7" y="27.3" style="font-style:normal;font-variant:normal;font-weight:normal;font-stretch:normal;font-size:9px;line-height:125%;font-family:CCTreasureTrove;-inkscape-font-specification:'CCTreasureTrove, Normal';text-align:start;letter-spacing:0px;word-spacing:0px;writing-mode:lr-tb;text-anchor:start;display:inline;fill:#606060;fill-opacity:1;stroke:none;stroke-width:1px;stroke-linecap:butt;stroke-linejoin:miter;stroke-opacity:1" 
>0036c</text></g>
<g inkscape:groupmode="layer" id="cut_layer" inkscape:label="Cut Line" style="display:none" sodipodi:insensitive="true" >
  <rect id="cut-line" x="11.25" y="11.25" width="224.5" height="224.5" style="fill:none;stroke:#000000;stroke-width:0.5;stroke-linecap:butt;stroke-linejoin:bevel;stroke-miterlimit:4;stroke-dasharray:none;stroke-opacity:1" ry="11.338962" />
</g>
<g inkscape:groupmode="layer" id="page_border_layer" inkscape:label="Page Border" style="display:none" sodipodi:insensitive="true" >
  <rect x="0" y="0" width="246.6" height="246.6" style="fill:none;stroke:#000000;stroke-width:0.5;stroke-linecap:butt;stroke-linejoin:bevel;stroke-miterlimit:4;stroke-dasharray:none;stroke-opacity:1" />
</g>

</svg>
