<?xml version="1.0" encoding="UTF-8" standalone="no"?>
<svg version="1.1" height="246.6" width="246.6" inkscape:version="0.91 r13725" xmlns:rdf="http://www.w3.org/1999/02/22-rdf-syntax-ns#" xmlns="http://www.w3.org/2000/svg" xmlns:cc="http://creativecommons.org/ns#" xmlns:xlink="http://www.w3.org/1999/xlink" xmlns:dc="http://purl.org/dc/elements/1.1/" xmlns:sodipodi="http://sodipodi.sourceforge.net/DTD/sodipodi-0.dtd" xmlns:svg="http://www.w3.org/2000/svg" xmlns:inkscape="http://www.inkscape.org/namespaces/inkscape">
<metadata>
  <rdf:RDF>
    <cc:Work rdf:about="">
      <dc:format>image/svg+xml</dc:format>
      <dc:type rdf:resource="http://purl.org/dc/dcmitype/StillImage"/>
      <dc:title/>
      <dc:creator>
        <cc:Agent><dc:title>Gary Kacmarcik</dc:title></cc:Agent>
      </dc:creator>
    </cc:Work>
  </rdf:RDF>
</metadata>

<defs>
  <filter inkscape:collect="always" inkscape:label="blurWaterDeep" style="color-interpolation-filters:sRGB" id="blurWaterDeep" x="-0.056691" y="-0.041620" width="1.113381" height="1.083239">
    <feGaussianBlur inkscape:collect="always" stdDeviation="6.919136" />
  </filter>
  <filter inkscape:collect="always" inkscape:label="blurWaterShallow" style="color-interpolation-filters:sRGB" id="blurWaterShallow" x="-0.055818" y="-0.042103" width="1.111637" height="1.084205">
    <feGaussianBlur inkscape:collect="always" stdDeviation="6.561501" />
  </filter>
  <filter inkscape:collect="always" inkscape:label="blurWaterHilight" style="color-interpolation-filters:sRGB" id="blurWaterHilight" x="-0.250000" y="-0.250000" width="1.500000" height="1.500000">
    <feGaussianBlur inkscape:collect="always" stdDeviation="6.857532" />
  </filter>
  <filter inkscape:collect="always" inkscape:label="blurGrass" style="color-interpolation-filters:sRGB" id="blurGrass" x="-0.100000" y="-0.100000" width="1.200000" height="1.200000">
    <feGaussianBlur inkscape:collect="always" stdDeviation="0.800000" />
  </filter>
  <filter inkscape:collect="always" inkscape:label="blurForestShadow" style="color-interpolation-filters:sRGB" id="blurForestShadow" x="-0.100000" y="-0.100000" width="1.200000" height="1.200000">
    <feGaussianBlur inkscape:collect="always" stdDeviation="0.800000" />
  </filter>
  <filter inkscape:collect="always" inkscape:label="blurFlowerInner" style="color-interpolation-filters:sRGB" id="blurFlowerInner" x="-0.420000" y="-0.420000" width="1.840000" height="1.840000">
    <feGaussianBlur inkscape:collect="always" stdDeviation="1.605540" />
  </filter>
  <filter inkscape:collect="always" inkscape:label="blurFlowerMiddle" style="color-interpolation-filters:sRGB" id="blurFlowerMiddle" x="-0.240000" y="-0.240000" width="1.480000" height="1.480000">
    <feGaussianBlur inkscape:collect="always" stdDeviation="1.933705" />
  </filter>
  <linearGradient id="gradientStopsFish" inkscape:collect="always">
    <stop offset="0.000000" style="stop-color:#ff5555;stop-opacity:1.000000" />
    <stop offset="1.000000" style="stop-color:#ffffff;stop-opacity:1.000000" />
  </linearGradient>
  <linearGradient id="gradientStopsCoconut" inkscape:collect="always">
    <stop offset="0.000000" style="stop-color:#ffffff;stop-opacity:1.000000" />
    <stop offset="1.000000" style="stop-color:#c8c8c8;stop-opacity:0.000000" />
  </linearGradient>
  <linearGradient id="gradientStopsFlower" inkscape:collect="always">
    <stop offset="0.000000" style="stop-color:#b16dff;stop-opacity:1.000000" />
    <stop offset="1.000000" style="stop-color:#e7d2ff;stop-opacity:1.000000" />
  </linearGradient>
  <linearGradient id="gradientFish" xlink:href="#gradientStopsFish" x1="178.789090" y1="-114.782830" x2="180.407300" y2="-103.782830" gradientTransform="translate(-178.76256,1.0606602)" gradientUnits="userSpaceOnUse" inkscape:collect="always" />
  <radialGradient id="gradientCoconut" xlink:href="#gradientStopsCoconut" cx="1.944096" cy="-60.612652" fx="1.944096" fy="-60.612652" r="6.723294" gradientUnits="userSpaceOnUse" gradientTransform="matrix(1.691364,-0.31394812,0.29762395,1.603419,17.826033,-7.042221)" inkscape:collect="always" />
  <radialGradient id="gradientFlower" xlink:href="#gradientStopsFlower" cx="60.884877" cy="-69.652750" fx="60.884877" fy="-69.652750" r="15.835310" gradientUnits="userSpaceOnUse" gradientTransform="matrix(0.8413905,0,0,0.87120012,-50.722984,-48.679159)" inkscape:collect="always" />
</defs>

<sodipodi:namedview
    id="base"
    pagecolor="#ffffff"
    bordercolor="#666666"
    borderopacity="1.0"
    inkscape:pageopacity="0.0"
    inkscape:pageshadow="2"
    inkscape:zoom="2"
    inkscape:cx="115.37643"
    inkscape:cy="285.04449"
    inkscape:document-units="in"
    showgrid="true"
    units="in"
    inkscape:window-width="1392"
    inkscape:window-height="836"
    inkscape:window-x="39"
    inkscape:window-y="6"
    inkscape:window-maximized="0"
    inkscape:snap-grids="true"
    inkscape:snap-to-guides="true"
    inkscape:snap-nodes="true"
    inkscape:object-nodes="true"
    inkscape:snap-smooth-nodes="true"
    inkscape:snap-intersection-paths="true"
    inkscape:object-paths="true"
    inkscape:snap-bbox="true"
    inkscape:bbox-nodes="true"
    inkscape:snap-others="true"
    inkscape:bbox-paths="false"
    inkscape:snap-global="true" >
  <inkscape:grid
    type="xygrid"
    id="grid3051"
    empspacing="2"
    visible="true"
    enabled="true"
    snapvisiblegridlinesonly="true"
    spacingx="0.0625in"
    spacingy="0.0625in"
    dotted="false"
    units="in" />
</sodipodi:namedview>
<g inkscape:groupmode="layer" id="water_layer" inkscape:label="Water" style="display:inline" sodipodi:insensitive="true" >
  <rect id="water" x="0" y="0" width="246.6" height="246.6" style="fill:#b9deff;fill-opacity:1;stroke:none" />
</g>
<g inkscape:groupmode="layer" id="water_medium_layer" inkscape:label="Water Shallow" style="display:inline" sodipodi:insensitive="true" >
  <path style="fill:#9bd1ff;fill-opacity:0.70;fill-rule:evenodd;stroke:none;filter:url(#blurWaterShallow)" d="m 201.52543,60.573487 -39.27339,-2.969181 -25.38801,9.322469 -1.88359,18.776094 -0.60594,19.123721 -24.51375,1.09174 L 84.940111,89.08041 65.307127,69.909961 40.406101,64.772542 l -29.3561,-6.847582 -20.000001,0 10e-6,-46.87492 19.99999,-19.9999902 224.49999,0 20.00003,20.0000312 -2e-5,46.874919 -20,0 z" inkscape:connector-curvature="0" />
</g>
<g inkscape:groupmode="layer" id="water_deep_layer" inkscape:label="Water Deep" style="display:inline" sodipodi:insensitive="true" >
  <path style="fill:#87c8ff;fill-opacity:0.60;fill-rule:evenodd;stroke:none;filter:url(#blurWaterDeep)" d="m 189.75887,37.912969 -52.08414,4.402108 -24.09739,17.802491 -22.969056,4.78456 -27.970348,-20.149301 -51.587935,-8.952867 -20.000001,0 10e-6,-24.74994 19.99999,-19.9999902 224.49999,0 20.00003,20.0000312 -2e-5,24.749939 -20,0 z" inkscape:connector-curvature="0" />
</g>
<g inkscape:groupmode="layer" id="water_hilight_layer" inkscape:label="Water Hilight" style="display:inline" sodipodi:insensitive="true" >
  <use xlink:href="#shoreline" height="100%" width="100%" x="0" y="0" style="display:inline;fill:#ffffff;fill-opacity:1;stroke:#ffffff;stroke-opacity:1;filter:url(#blurWaterHilight)" />
</g>
<g inkscape:groupmode="layer" id="shoreline_layer" inkscape:label="Shoreline" style="display:inline" sodipodi:insensitive="true" >
  <use xlink:href="#shoreline" height="100%" width="100%" x="0" y="0" style="display:inline;fill:#ffddab;fill-opacity:1;stroke:#5f4c14;stroke-width:1;stroke-miterlimit:4;stroke-dasharray:none;stroke-opacity:1" />
</g>
<g inkscape:groupmode="layer" id="shoreline_master_layer" inkscape:label="Shoreline Master" style="display:none" sodipodi:insensitive="true" >
  <path id="shoreline" style="color:#000000;clip-rule:nonzero;display:inline;overflow:visible;visibility:visible;opacity:1;isolation:auto;mix-blend-mode:normal;color-interpolation:sRGB;color-interpolation-filters:linearRGB;solid-color:#000000;solid-opacity:1;fill-opacity:1;fill-rule:evenodd;color-rendering:auto;image-rendering:auto;shape-rendering:auto;text-rendering:auto;enable-background:accumulate" d="m 235.84828,255.55008 19.70175,-20.00005 -3e-5,-155.12503 -20,0 -38.9102,-7.86636 -12.83665,-2.255639 -10.89206,5.517501 0.77642,10.902022 5.44611,16.459816 1.27313,30.70205 -29.22227,9.89262 -22.79386,0.27538 -21.12723,-9.41333 L 83.814799,139.5683 73.709054,124.78073 60.906823,109.85289 39.887059,91.123917 11.050001,80.423672 l -20.000001,0 10e-6,155.126348 20.00001,20.00006 z" inkscape:connector-curvature="0" />
</g>
<g inkscape:groupmode="layer" id="grass_layer" inkscape:label="Grass" style="display:inline" sodipodi:insensitive="true" >
  <use xlink:href="#grass" height="100%" width="100%" x="0" y="0" style="display:inline;fill:#b4e982;fill-opacity:1;stroke:none;stroke-width:1;stroke-miterlimit:4;stroke-dasharray:none;stroke-opacity:1" />
</g>
<g inkscape:groupmode="layer" id="grass_master_layer" inkscape:label="Grass Master" style="display:none" sodipodi:insensitive="true" >
  <path id="grass" style="color:#000000;clip-rule:nonzero;display:inline;overflow:visible;visibility:visible;opacity:1;isolation:auto;mix-blend-mode:normal;color-interpolation:sRGB;color-interpolation-filters:linearRGB;solid-color:#000000;solid-opacity:1;fill-opacity:1;fill-rule:evenodd;filter:url(#blurGrass);color-rendering:auto;image-rendering:auto;shape-rendering:auto;text-rendering:auto;enable-background:accumulate" d="m 235.84828,255.55008 19.69798,-20 L 255.55,99.3 l -20,0 -23.03306,-10.401 -15.15062,-10.684342 -17.63594,3.23109 7.23375,19.607282 0.63854,39.0206 -13.32129,11.16453 -25.58575,7.45665 -15.54592,1.20789 -18.64506,-6.02073 -11.97481,-13.27975 -18.714261,4.08273 -8.006824,2.62153 -14.901932,-29.2393 -24.591193,-15.15754 -25.265619,-3.264459 -20.000001,0 0,135.904839 20.00001,20.00006 z" inkscape:connector-curvature="0" />
</g>
<g inkscape:groupmode="layer" id="forest_shadow_layer" inkscape:label="Forest Shadow" style="display:inline" sodipodi:insensitive="true" >
  <g style="filter:url(#blurForestShadow)" >
    <use xlink:href="#forest" height="100%" width="100%" x="0" y="0" style="display:inline;opacity:0.75;fill:#258c1b;fill-opacity:1" />
  </g>
</g>
<g inkscape:groupmode="layer" id="forest_fill_layer" inkscape:label="Forest Fill" style="display:inline" sodipodi:insensitive="true" >
  <use xlink:href="#forest" height="100%" width="100%" x="0" y="0" style="fill:#7ebd47;fill-opacity:1;fill-rule:nonzero;stroke:#496e28;stroke-width:0.5;stroke-linecap:round;stroke-linejoin:round;stroke-miterlimit:4;stroke-dasharray:none;stroke-dashoffset:0;stroke-opacity:1" />
</g>
<g inkscape:groupmode="layer" id="forest_master_layer" inkscape:label="Forest Master" style="display:none" sodipodi:insensitive="true" >
  <path id="forest" style="color:#000000;clip-rule:nonzero;display:inline;overflow:visible;visibility:visible;opacity:1;isolation:auto;mix-blend-mode:normal;color-interpolation:sRGB;color-interpolation-filters:linearRGB;solid-color:#000000;solid-opacity:1;fill-opacity:1;fill-rule:nonzero;color-rendering:auto;image-rendering:auto;shape-rendering:auto;text-rendering:auto;enable-background:accumulate" d="m 235.55,165.8 -16.73158,6.67901 -0.60798,12.59181 17.33956,8.47918 20,0 0,-27.75 z m -244.5,27.74996 20.000001,0 16.361051,-9.533 -2.401602,-13.56769 -13.959449,-4.64931 -20.000001,0 z m 0,-38 20.000001,0 L 47.485133,143.88734 51.23423,128.62302 31.688543,127.6076 11.050011,118.05571 -8.95,117.79996 Z m 0,80 20.00002,20.00012 106.2857,-5e-5 -4e-5,-20.00001 -15.98596,-20.46615 -28.447066,-11.81635 -43.546411,5.31053 -18.306242,-4.77809 -20.000001,0 z M 235.84828,255.55008 255.55,235.55 l 0,-31.75 -20,0 -19.89137,10.3434 -74.59721,-2.99756 -11.79716,24.40418 -3e-5,20.00001 z M 235.55,117.8 l -25.96602,0.95263 6.78103,14.85506 -1.45356,21.85746 20.63855,0.0849 20,0 0,-37.75005 z" inkscape:connector-curvature="0" />
</g>
<g inkscape:groupmode="layer" id="routes_layer" inkscape:label="Routes" style="display:inline" sodipodi:insensitive="true" >
  <path style="display:inline;fill:none;stroke:#000000;stroke-width:2;stroke-linecap:round;stroke-miterlimit:4;stroke-dasharray:0.1, 5;stroke-dashoffset:0;stroke-opacity:1" d="m 123.29997,255.55002 0,-20 c -4.78751,-42.79988 44.37538,-35.63754 64.51285,-51.63272 38.34931,-30.46083 18.28803,-78.28353 -8.07603,-66.69487 -24.69741,10.85606 -65.07714,9.03928 -70.38478,-24.107647 C 105.48711,68.977901 124.72118,34.073147 123.3,11.050031 l 0,-20.000001 m 78.60417,177.27909 c 11.61595,4.42033 23.86736,-7.7604 33.64583,-7.61246 l 20,0 M 132.71652,207.41183 C 111.6288,191.3679 89.268064,203.47924 63.017298,193.88786 45.16737,187.36593 39.177608,159.70047 11.050001,160.71662 l -20,0" inkscape:connector-curvature="0" />
</g>
<g inkscape:groupmode="layer" id="labels_layer" inkscape:label="Labels" style="display:inline" sodipodi:insensitive="true" >
  <text xml:space="preserve" style="font-style:normal;font-variant:normal;font-weight:normal;font-stretch:normal;font-size:10px;line-height:125%;font-family:CCTreasureTrove;-inkscape-font-specification:'CCTreasureTrove, Normal';text-align:start;letter-spacing:0px;word-spacing:0px;writing-mode:lr-tb;text-anchor:start;display:inline;fill:#5d481b;fill-opacity:1;stroke:none;stroke-width:1px;stroke-linecap:butt;stroke-linejoin:miter;stroke-opacity:1"><textPath xlink:href="#label-path"
>Crusted Port</textPath></text>
</g>
<g inkscape:groupmode="layer" id="labels_guide_layer" inkscape:label="Labels Guide" style="display:none" sodipodi:insensitive="true" >
  <path id="label-path" style="color:#000000;fill:none;stroke:#000000;stroke-width:1;stroke-opacity:1" d="M 144.4268,128.26383 C 113.71251,127.1924 82.283941,121.83526 63.712522,88.263832" inkscape:connector-curvature="0" />
</g>
<g inkscape:groupmode="layer" id="resources_layer" inkscape:label="Resources" style="display:inline" sodipodi:insensitive="true" >
  <g id="resource-portcircle" transform="matrix(-0.66337468,0.7482874,-0.7482874,-0.66337468,386.27342,-55.80068)" >
    <g transform="translate(168.55655,-76.089882)" >
      <path style="opacity:1;fill:#000000;fill-opacity:1;stroke:none;stroke-width:0.5;stroke-linejoin:miter;stroke-miterlimit:4;stroke-dasharray:none;stroke-dashoffset:0;stroke-opacity:1" d="m 117.61371,135.33305 -14.27687,-7.03247 -5.122553,15.06798 -5.122556,-15.06798 -14.276867,7.03247 7.032478,-14.27686 -15.067982,-5.12256 15.067981,-5.12255 -7.032477,-14.276871 14.276866,7.032481 5.122557,-15.067985 5.122553,15.067985 14.27687,-7.032481 -7.03248,14.276861 15.06798,5.12256 -15.06798,5.12256 z" inkscape:connector-curvature="0" />
      <path style="opacity:1;fill:#000000;fill-opacity:1;stroke:none;stroke-width:0.5;stroke-linejoin:miter;stroke-miterlimit:4;stroke-dasharray:none;stroke-dashoffset:0;stroke-opacity:1" transform="matrix(0.92387953,-0.38268343,0.38268343,0.92387953,-92.322534,69.370912)" d="m 174.56986,132.36623 -10.89361,-3.15815 -5.51643,9.91029 -5.46979,-9.9361 -10.90834,3.10693 3.15816,-10.89362 -9.91029,-5.51642 9.9361,-5.4698 -3.10693,-10.908329 10.89361,3.158149 5.51643,-9.910281 5.46979,9.936101 10.90834,-3.106932 -3.15816,10.893612 9.91029,5.51643 -9.9361,5.46979 z" inkscape:connector-curvature="0" />
    </g>
    <circle cx="266.770840" cy="39.843746" r="19.000000" style="opacity:1;fill:#ffffff;fill-opacity:1;stroke:#000000;stroke-width:1.79999995;stroke-linecap:round;stroke-linejoin:round;stroke-miterlimit:4;stroke-dasharray:none;stroke-dashoffset:0;stroke-opacity:1" />
  </g>
  <g id="resource-banana" transform="matrix(-0.66337468,0.7482874,-0.7482874,-0.66337468,97.136115,44.29972)" >
    <path style="color:#000000;clip-rule:nonzero;display:inline;overflow:visible;visibility:visible;opacity:1;isolation:auto;mix-blend-mode:normal;color-interpolation:sRGB;color-interpolation-filters:linearRGB;solid-color:#000000;solid-opacity:1;fill:#f6ff7d;fill-opacity:1;fill-rule:evenodd;stroke:#000000;stroke-width:0.89999998;stroke-linecap:round;stroke-linejoin:miter;stroke-miterlimit:4;stroke-dasharray:none;stroke-dashoffset:0;stroke-opacity:1;color-rendering:auto;image-rendering:auto;shape-rendering:auto;text-rendering:auto;enable-background:accumulate" d="m 6.86373,-121.02142 c -0.0162,1.67579 0.0613,3.31817 -0.2121,4.71569 -1.71528,2.99538 -4.19007,5.95351 -7.46659,7.74634 -4.28888,2.34678 -7.01389,2.86781 -11.88451,2.04623 -0.63804,-0.10762 -0.91664,-0.4723 -1.38982,-0.031 -0.50866,0.47443 -0.41626,1.00712 -0.0714,1.61117 0.35071,0.61429 0.52944,0.41897 1.09534,0.84336 1.98511,1.48869 3.74434,2.06677 6.44298,2.04779 2.77975,-0.0196 6.56154,-0.29036 8.90025,-1.56286 2.85139,-1.55146 4.93737,-3.4518 6.15239,-6.46199 0.85208,-2.11101 -0.0744,-4.05058 0.10539,-6.31996 0.12609,-1.59136 0.14328,-2.6534 0.0968,-4.5494 -0.63016,-0.20606 -1.24784,-0.12786 -1.76873,-0.0854 z" inkscape:connector-curvature="0" />
    <path style="color:#000000;clip-rule:nonzero;display:inline;overflow:visible;visibility:visible;opacity:1;isolation:auto;mix-blend-mode:normal;color-interpolation:sRGB;color-interpolation-filters:linearRGB;solid-color:#000000;solid-opacity:1;fill:#f6ff7d;fill-opacity:1;fill-rule:evenodd;stroke:#000000;stroke-width:0.89999998;stroke-linecap:round;stroke-linejoin:miter;stroke-miterlimit:4;stroke-dasharray:none;stroke-dashoffset:0;stroke-opacity:1;color-rendering:auto;image-rendering:auto;shape-rendering:auto;text-rendering:auto;enable-background:accumulate" d="m 7.87879,-120.99354 c 0.0285,1.61295 0.38658,3.34631 0.31301,4.75879 -1.00555,3.30202 -3.33857,6.81255 -5.886,9.14173 -3.35597,3.06847 -7.87513,4.2358 -12.26178,5.43386 -0.6242,0.17048 -1.27338,-0.11771 -1.42138,0.51219 -0.15176,0.64587 0.0489,1.217046 0.31467,1.704455 0.33862,0.621027 0.89583,0.442404 1.59118,0.572223 2.67893,0.500153 5.58439,0.941055 8.23815,0.321149 2.59268,-0.605634 5.07646,-1.926877 7.10245,-3.654337 2.47014,-2.10616 4.44803,-4.97661 5.01611,-8.17267 0.39839,-2.24136 -0.605,-3.85067 -0.89708,-6.10835 -0.2048,-1.58315 0.19285,-2.72685 -0.1333,-4.91236 -0.55377,0.056 -1.33048,0.14727 -1.97603,0.40332 z" inkscape:connector-curvature="0" />
    <path style="color:#000000;clip-rule:nonzero;display:inline;overflow:visible;visibility:visible;opacity:1;isolation:auto;mix-blend-mode:normal;color-interpolation:sRGB;color-interpolation-filters:linearRGB;solid-color:#000000;solid-opacity:1;fill:#f6ff7d;fill-opacity:1;fill-rule:evenodd;stroke:#000000;stroke-width:0.89999998;stroke-linecap:round;stroke-linejoin:miter;stroke-miterlimit:4;stroke-dasharray:none;stroke-dashoffset:0;stroke-opacity:1;color-rendering:auto;image-rendering:auto;shape-rendering:auto;text-rendering:auto;enable-background:accumulate" d="m 8.78082,-121.13744 c 0.34471,1.36915 0.66512,3.60435 0.73321,4.6643 -0.49421,3.88746 -1.33998,7.74843 -3.32367,10.57326 -2.40596,3.42618 -5.41293,5.37866 -11.11869,7.679247 -0.60011,0.241966 -1.22538,0.289326 -1.46855,0.679535 -0.16319,0.261865 0.37387,1.454696 0.69075,1.620824 0.62648,0.328443 1.07253,0.177853 1.77872,0.218405 2.75809,0.158378 5.05424,-0.146839 8.30722,-1.151769 2.54386,-0.78586 5.74014,-3.251012 7.23795,-5.452222 1.82616,-2.68377 2.69924,-6.37346 2.5117,-9.61419 -0.15399,-2.66107 -2.58676,-5.30143 -2.58676,-5.30143 -0.24357,-1.33177 -0.66717,-2.90679 -1.14995,-4.64892 -0.58055,0.0153 -1.40915,0.37101 -1.61193,0.73296 z" inkscape:connector-curvature="0" />
    <path style="color:#000000;clip-rule:nonzero;display:inline;overflow:visible;visibility:visible;opacity:1;isolation:auto;mix-blend-mode:normal;color-interpolation:sRGB;color-interpolation-filters:linearRGB;solid-color:#000000;solid-opacity:1;fill:#f7ff7d;fill-opacity:1;fill-rule:evenodd;stroke:#000000;stroke-width:0.72000003;stroke-linecap:round;stroke-linejoin:miter;stroke-miterlimit:4;stroke-dasharray:none;stroke-dashoffset:0;stroke-opacity:1;color-rendering:auto;image-rendering:auto;shape-rendering:auto;text-rendering:auto;enable-background:accumulate" d="m 6.86373,-121.02142 c -0.0162,1.67579 0.0613,3.31817 -0.2121,4.71569 -1.71528,2.99538 -4.19007,5.95351 -7.46659,7.74634 -4.28888,2.34678 -7.01389,2.86781 -11.88451,2.04623 -0.63804,-0.10762 -0.91664,-0.4723 -1.38982,-0.031 -0.50866,0.47443 -0.41626,1.00712 -0.0714,1.61117 0.35071,0.61429 0.52944,0.41897 1.09534,0.84336 1.98511,1.48869 3.74434,2.06677 6.44298,2.04779 2.77975,-0.0196 6.56154,-0.29036 8.90025,-1.56286 2.85139,-1.55146 4.93737,-3.4518 6.15239,-6.46199 0.85208,-2.11101 -0.0744,-4.05058 0.10539,-6.31996 0.12609,-1.59136 0.14328,-2.6534 0.0968,-4.5494 -0.63016,-0.20606 -1.24784,-0.12786 -1.76873,-0.0854 z" inkscape:connector-curvature="0" />
    <path style="color:#000000;font-style:normal;font-variant:normal;font-weight:normal;font-stretch:normal;font-size:medium;line-height:normal;font-family:sans-serif;text-indent:0;text-align:start;text-decoration:none;text-decoration-line:none;text-decoration-style:solid;text-decoration-color:#000000;letter-spacing:normal;word-spacing:normal;text-transform:none;direction:ltr;block-progression:tb;writing-mode:lr-tb;baseline-shift:baseline;text-anchor:start;white-space:normal;clip-rule:nonzero;display:inline;overflow:visible;visibility:visible;opacity:1;isolation:auto;mix-blend-mode:normal;color-interpolation:sRGB;color-interpolation-filters:linearRGB;solid-color:#000000;solid-opacity:1;fill:#737828;fill-opacity:1;fill-rule:evenodd;stroke:none;stroke-width:0.72000003;stroke-linecap:round;stroke-linejoin:miter;stroke-miterlimit:4;stroke-dasharray:none;stroke-dashoffset:0;stroke-opacity:1;color-rendering:auto;image-rendering:auto;shape-rendering:auto;text-rendering:auto;enable-background:accumulate" d="m 2.51814,-107.7686 c -2.07228,1.54391 -3.74795,2.09142 -6.33636,2.57335 -1.72347,0.32089 -3.84937,0.49004 -6.70834,0.0497 -0.53792,-0.0828 -0.32892,0.17921 0.20456,0.28719 2.7148,0.54957 5.27205,0.1766 6.8941,-0.0851 2.63047,-0.42445 3.77137,-0.81223 6.04492,-2.32391 0.12768,-0.58475 -0.15949,-0.11588 -0.0988,-0.5012 z" inkscape:connector-curvature="0" />
    <path style="color:#000000;clip-rule:nonzero;display:inline;overflow:visible;visibility:visible;opacity:1;isolation:auto;mix-blend-mode:normal;color-interpolation:sRGB;color-interpolation-filters:linearRGB;solid-color:#000000;solid-opacity:1;fill:#f7ff7d;fill-opacity:1;fill-rule:evenodd;stroke:#000000;stroke-width:0.72000003;stroke-linecap:round;stroke-linejoin:miter;stroke-miterlimit:4;stroke-dasharray:none;stroke-dashoffset:0;stroke-opacity:1;color-rendering:auto;image-rendering:auto;shape-rendering:auto;text-rendering:auto;enable-background:accumulate" d="m 7.87879,-120.99354 c 0.0285,1.61295 0.38658,3.34631 0.31301,4.75879 -1.00555,3.30202 -3.33857,6.81255 -5.886,9.14173 -3.35597,3.06847 -7.87513,4.2358 -12.26178,5.43386 -0.6242,0.17048 -1.27338,-0.11771 -1.42138,0.51219 -0.15176,0.64587 0.0489,1.217046 0.31467,1.704455 0.33862,0.621027 0.89583,0.442404 1.59118,0.572223 2.67893,0.500153 5.58439,0.941055 8.23815,0.321149 2.59268,-0.605634 5.07646,-1.926877 7.10245,-3.654337 2.47014,-2.10616 4.44803,-4.97661 5.01611,-8.17267 0.39839,-2.24136 -0.605,-3.85067 -0.89708,-6.10835 -0.2048,-1.58315 0.19285,-2.72685 -0.1333,-4.91236 -0.55377,0.056 -1.33048,0.14727 -1.97603,0.40332 z" inkscape:connector-curvature="0" />
    <path style="color:#000000;font-style:normal;font-variant:normal;font-weight:normal;font-stretch:normal;font-size:medium;line-height:normal;font-family:sans-serif;text-indent:0;text-align:start;text-decoration:none;text-decoration-line:none;text-decoration-style:solid;text-decoration-color:#000000;letter-spacing:normal;word-spacing:normal;text-transform:none;direction:ltr;block-progression:tb;writing-mode:lr-tb;baseline-shift:baseline;text-anchor:start;white-space:normal;clip-rule:nonzero;display:inline;overflow:visible;visibility:visible;opacity:1;isolation:auto;mix-blend-mode:normal;color-interpolation:sRGB;color-interpolation-filters:linearRGB;solid-color:#000000;solid-opacity:1;fill:#737828;fill-opacity:1;fill-rule:evenodd;stroke:none;stroke-width:0.72000003;stroke-linecap:round;stroke-linejoin:miter;stroke-miterlimit:4;stroke-dasharray:none;stroke-dashoffset:0;stroke-opacity:1;color-rendering:auto;image-rendering:auto;shape-rendering:auto;text-rendering:auto;enable-background:accumulate" d="m 4.80468,-106.35032 c -1.8366,1.79924 -3.59964,2.90171 -6.00807,3.97021 -1.77027,0.7854 -3.77092,1.22784 -6.52266,1.38661 -0.55888,0.0322 -0.28397,0.22297 0.27546,0.20184 2.71946,-0.10273 4.80476,-0.55229 6.63126,-1.36264 2.43383,-1.07977 4.50278,-2.38649 6.25386,-4.13127 0.79789,-0.79502 1.95252,-2.23179 2.69967,-3.4881 0.21909,-0.3684 0.3354,-1.28542 0.2234,-1.22755 -1.02526,2.0653 -2.6769,3.7927 -3.55292,4.6509 z" inkscape:connector-curvature="0" />
    <path style="color:#000000;clip-rule:nonzero;display:inline;overflow:visible;visibility:visible;opacity:1;isolation:auto;mix-blend-mode:normal;color-interpolation:sRGB;color-interpolation-filters:linearRGB;solid-color:#000000;solid-opacity:1;fill:#f7ff7d;fill-opacity:1;fill-rule:evenodd;stroke:#000000;stroke-width:0.72000003;stroke-linecap:round;stroke-linejoin:miter;stroke-miterlimit:4;stroke-dasharray:none;stroke-dashoffset:0;stroke-opacity:1;color-rendering:auto;image-rendering:auto;shape-rendering:auto;text-rendering:auto;enable-background:accumulate" d="m 8.78082,-121.13744 c 0.34471,1.36915 0.66512,3.60435 0.73321,4.6643 -0.49421,3.88746 -1.33998,7.74843 -3.32367,10.57326 -2.40596,3.42618 -5.41293,5.37866 -11.11869,7.679247 -0.60011,0.241966 -1.22538,0.289326 -1.46855,0.679535 -0.16319,0.261865 0.37387,1.454696 0.69075,1.620824 0.62648,0.328443 1.07253,0.177853 1.77872,0.218405 2.75809,0.158378 5.05424,-0.146839 8.30722,-1.151769 2.54386,-0.78586 5.74014,-3.251012 7.23795,-5.452222 1.82616,-2.68377 2.69924,-6.37346 2.5117,-9.61419 -0.15399,-2.66107 -2.58676,-5.30143 -2.58676,-5.30143 -0.24357,-1.33177 -0.66717,-2.90679 -1.14995,-4.64892 -0.58055,0.0153 -1.40915,0.37101 -1.61193,0.73296 z" inkscape:connector-curvature="0" />
    <path style="color:#000000;font-style:normal;font-variant:normal;font-weight:normal;font-stretch:normal;font-size:medium;line-height:normal;font-family:sans-serif;text-indent:0;text-align:start;text-decoration:none;text-decoration-line:none;text-decoration-style:solid;text-decoration-color:#000000;letter-spacing:normal;word-spacing:normal;text-transform:none;direction:ltr;block-progression:tb;writing-mode:lr-tb;baseline-shift:baseline;text-anchor:start;white-space:normal;clip-rule:nonzero;display:inline;overflow:visible;visibility:visible;opacity:1;isolation:auto;mix-blend-mode:normal;color-interpolation:sRGB;color-interpolation-filters:linearRGB;solid-color:#000000;solid-opacity:1;fill:#737828;fill-opacity:1;fill-rule:evenodd;stroke:none;stroke-width:0.72000003;stroke-linecap:round;stroke-linejoin:miter;stroke-miterlimit:4;stroke-dasharray:none;stroke-dashoffset:0;stroke-opacity:1;color-rendering:auto;image-rendering:auto;shape-rendering:auto;text-rendering:auto;enable-background:accumulate" d="m 11.17023,-113.86439 c -0.011,1.77939 -0.15804,3.37671 -0.70318,5.01283 -0.47684,1.43111 -0.94867,2.44937 -1.96984,4.0718 -1.36954,2.17594 -2.93041,3.68885 -5.19121,5.042 -1.55728,0.93208 -2.86824,1.715367 -5.59247,2.278309 -0.52698,0.108898 -1.00078,0.418847 -0.4677,0.345229 2.76772,-0.382229 4.71945,-1.233835 6.39997,-2.314868 2.23928,-1.44048 3.93705,-2.7933 5.38929,-5.10065 1.02607,-1.63022 1.47452,-2.54995 1.94328,-4.06882 0.56259,-1.82288 0.63573,-3.73693 0.46838,-5.5182 -0.0877,-0.93395 -0.2737,-0.2032 -0.27652,0.25237 z" inkscape:connector-curvature="0" />
  </g>
</g>
<g inkscape:groupmode="layer" id="edge_guides_layer" inkscape:label="Edges" style="display:none" sodipodi:insensitive="true" >
  <g id="guide0-0" transform="" >
    <rect x="0" y="-22.5" width="246.6" height="22.5" style="fill:#73baff;stroke:#000000;stroke-width:0.9" />
    <path style="display:inline;fill:none;stroke:#000000;stroke-width:2;stroke-linecap:round;stroke-miterlimit:4;stroke-dasharray:0.1, 5;stroke-dashoffset:0;stroke-opacity:1" d="m 123.75,0 0,-22.5" inkscape:connector-curvature="0" />
  </g>
  <g id="guide1-3" transform="matrix(0,1,-1,0,246.6,0)" >
    <rect x="81.725" y="-22.5" width="164.875" height="22.5" style="fill:#ffd291;stroke:#000000;stroke-width:0.9" />
    <rect x="98.6" y="-22.5" width="148" height="22.5" style="fill:#b4e982;stroke:#000000;stroke-width:0.9" />
    <rect x="203.1" y="-22.5" width="43.5" height="22.5" style="fill:#5adc4f;stroke:#000000;stroke-width:0.9" />
    <rect x="152.35" y="-22.5" width="39.5" height="22.5" style="fill:#5adc4f;stroke:#000000;stroke-width:0.9" />
    <rect x="91.6" y="-22.5" width="49.5" height="22.5" style="fill:#5adc4f;stroke:#000000;stroke-width:0.9" />
    <rect x="0" y="-22.5" width="81.725" height="22.5" style="fill:#b9deff;stroke:#000000;stroke-width:0.9" />
    <rect x="0" y="-22.5" width="58.625" height="22.5" style="fill:#9bceff;stroke:#000000;stroke-width:0.9" />
    <rect x="0" y="-22.5" width="36.5" height="22.5" style="fill:#73baff;stroke:#000000;stroke-width:0.9" />
    <path style="display:inline;fill:none;stroke:#000000;stroke-width:2;stroke-linecap:round;stroke-miterlimit:4;stroke-dasharray:0.1, 5;stroke-dashoffset:0;stroke-opacity:1" d="m 161.25,0 0,-22.5" inkscape:connector-curvature="0" />
  </g>
  <g id="guide2-7" transform="matrix(-1,0,0,-1,246.6,246.6)" >
    <rect x="0" y="-22.5" width="246.6" height="22.5" style="fill:#b4e982;stroke:#000000;stroke-width:0.9" />
    <rect x="0" y="-22.5" width="118.036" height="22.5" style="fill:#5adc4f;stroke:#000000;stroke-width:0.9" />
    <rect x="128.564" y="-22.5" width="118.036" height="22.5" style="fill:#5adc4f;stroke:#000000;stroke-width:0.9" />
    <path style="display:inline;fill:none;stroke:#000000;stroke-width:2;stroke-linecap:round;stroke-miterlimit:4;stroke-dasharray:0.1, 5;stroke-dashoffset:0;stroke-opacity:1" d="m 123.75,0 0,-22.5" inkscape:connector-curvature="0" />
  </g>
  <g id="guide3-6" transform="matrix(0,-1,1,0,0,246.6)" >
    <rect x="0" y="-22.5" width="164.875" height="22.5" style="fill:#ffd291;stroke:#000000;stroke-width:0.9" />
    <rect x="0" y="-22.5" width="148" height="22.5" style="fill:#b4e982;stroke:#000000;stroke-width:0.9" />
    <rect x="0" y="-22.5" width="43.5" height="22.5" style="fill:#5adc4f;stroke:#000000;stroke-width:0.9" />
    <rect x="54.75" y="-22.5" width="39.5" height="22.5" style="fill:#5adc4f;stroke:#000000;stroke-width:0.9" />
    <rect x="105.5" y="-22.5" width="49.5" height="22.5" style="fill:#5adc4f;stroke:#000000;stroke-width:0.9" />
    <rect x="164.875" y="-22.5" width="81.725" height="22.5" style="fill:#b9deff;stroke:#000000;stroke-width:0.9" />
    <rect x="187.975" y="-22.5" width="58.625" height="22.5" style="fill:#9bceff;stroke:#000000;stroke-width:0.9" />
    <rect x="210.1" y="-22.5" width="36.5" height="22.5" style="fill:#73baff;stroke:#000000;stroke-width:0.9" />
    <path style="display:inline;fill:none;stroke:#000000;stroke-width:2;stroke-linecap:round;stroke-miterlimit:4;stroke-dasharray:0.1, 5;stroke-dashoffset:0;stroke-opacity:1" d="m 86.25,0 0,-22.5" inkscape:connector-curvature="0" />
  </g>
</g>
<g inkscape:groupmode="layer" id="id_layer" inkscape:label="Card ID" style="display:inline" sodipodi:insensitive="true" >
  <text xml:space="preserve" x="19.7" y="27.3" style="font-style:normal;font-variant:normal;font-weight:normal;font-stretch:normal;font-size:9px;line-height:125%;font-family:CCTreasureTrove;-inkscape-font-specification:'CCTreasureTrove, Normal';text-align:start;letter-spacing:0px;word-spacing:0px;writing-mode:lr-tb;text-anchor:start;display:inline;fill:#606060;fill-opacity:1;stroke:none;stroke-width:1px;stroke-linecap:butt;stroke-linejoin:miter;stroke-opacity:1" 
>0376a</text></g>
<g inkscape:groupmode="layer" id="cut_layer" inkscape:label="Cut Line" style="display:none" sodipodi:insensitive="true" >
  <rect id="cut-line" x="11.25" y="11.25" width="224.5" height="224.5" style="fill:none;stroke:#000000;stroke-width:0.5;stroke-linecap:butt;stroke-linejoin:bevel;stroke-miterlimit:4;stroke-dasharray:none;stroke-opacity:1" ry="11.338962" />
</g>
<g inkscape:groupmode="layer" id="page_border_layer" inkscape:label="Page Border" style="display:none" sodipodi:insensitive="true" >
  <rect x="0" y="0" width="246.6" height="246.6" style="fill:none;stroke:#000000;stroke-width:0.5;stroke-linecap:butt;stroke-linejoin:bevel;stroke-miterlimit:4;stroke-dasharray:none;stroke-opacity:1" />
</g>

</svg>
