<?xml version="1.0" encoding="UTF-8" standalone="no"?>
<svg version="1.1" height="246.6" width="246.6" inkscape:version="0.91 r13725" xmlns:rdf="http://www.w3.org/1999/02/22-rdf-syntax-ns#" xmlns="http://www.w3.org/2000/svg" xmlns:cc="http://creativecommons.org/ns#" xmlns:xlink="http://www.w3.org/1999/xlink" xmlns:dc="http://purl.org/dc/elements/1.1/" xmlns:sodipodi="http://sodipodi.sourceforge.net/DTD/sodipodi-0.dtd" xmlns:svg="http://www.w3.org/2000/svg" xmlns:inkscape="http://www.inkscape.org/namespaces/inkscape">
<metadata>
  <rdf:RDF>
    <cc:Work rdf:about="">
      <dc:format>image/svg+xml</dc:format>
      <dc:type rdf:resource="http://purl.org/dc/dcmitype/StillImage"/>
      <dc:title/>
      <dc:creator>
        <cc:Agent><dc:title>Gary Kacmarcik</dc:title></cc:Agent>
      </dc:creator>
    </cc:Work>
  </rdf:RDF>
</metadata>

<defs>
  <filter inkscape:collect="always" inkscape:label="blurWaterDeep" style="color-interpolation-filters:sRGB" id="blurWaterDeep" x="-0.056691" y="-0.041620" width="1.113381" height="1.083239">
    <feGaussianBlur inkscape:collect="always" stdDeviation="6.919136" />
  </filter>
  <filter inkscape:collect="always" inkscape:label="blurWaterShallow" style="color-interpolation-filters:sRGB" id="blurWaterShallow" x="-0.055818" y="-0.042103" width="1.111637" height="1.084205">
    <feGaussianBlur inkscape:collect="always" stdDeviation="6.561501" />
  </filter>
  <filter inkscape:collect="always" inkscape:label="blurWaterHilight" style="color-interpolation-filters:sRGB" id="blurWaterHilight" x="-0.250000" y="-0.250000" width="1.500000" height="1.500000">
    <feGaussianBlur inkscape:collect="always" stdDeviation="6.857532" />
  </filter>
  <filter inkscape:collect="always" inkscape:label="blurGrass" style="color-interpolation-filters:sRGB" id="blurGrass" x="-0.100000" y="-0.100000" width="1.200000" height="1.200000">
    <feGaussianBlur inkscape:collect="always" stdDeviation="0.800000" />
  </filter>
  <filter inkscape:collect="always" inkscape:label="blurForestShadow" style="color-interpolation-filters:sRGB" id="blurForestShadow" x="-0.100000" y="-0.100000" width="1.200000" height="1.200000">
    <feGaussianBlur inkscape:collect="always" stdDeviation="0.800000" />
  </filter>
  <filter inkscape:collect="always" inkscape:label="blurFlowerInner" style="color-interpolation-filters:sRGB" id="blurFlowerInner" x="-0.420000" y="-0.420000" width="1.840000" height="1.840000">
    <feGaussianBlur inkscape:collect="always" stdDeviation="1.605540" />
  </filter>
  <filter inkscape:collect="always" inkscape:label="blurFlowerMiddle" style="color-interpolation-filters:sRGB" id="blurFlowerMiddle" x="-0.240000" y="-0.240000" width="1.480000" height="1.480000">
    <feGaussianBlur inkscape:collect="always" stdDeviation="1.933705" />
  </filter>
  <linearGradient id="gradientStopsFish" inkscape:collect="always">
    <stop offset="0.000000" style="stop-color:#ff5555;stop-opacity:1.000000" />
    <stop offset="1.000000" style="stop-color:#ffffff;stop-opacity:1.000000" />
  </linearGradient>
  <linearGradient id="gradientStopsCoconut" inkscape:collect="always">
    <stop offset="0.000000" style="stop-color:#ffffff;stop-opacity:1.000000" />
    <stop offset="1.000000" style="stop-color:#c8c8c8;stop-opacity:0.000000" />
  </linearGradient>
  <linearGradient id="gradientStopsFlower" inkscape:collect="always">
    <stop offset="0.000000" style="stop-color:#b16dff;stop-opacity:1.000000" />
    <stop offset="1.000000" style="stop-color:#e7d2ff;stop-opacity:1.000000" />
  </linearGradient>
  <linearGradient id="gradientFish" xlink:href="#gradientStopsFish" x1="178.789090" y1="-114.782830" x2="180.407300" y2="-103.782830" gradientTransform="translate(-178.76256,1.0606602)" gradientUnits="userSpaceOnUse" inkscape:collect="always" />
  <radialGradient id="gradientCoconut" xlink:href="#gradientStopsCoconut" cx="1.944096" cy="-60.612652" fx="1.944096" fy="-60.612652" r="6.723294" gradientUnits="userSpaceOnUse" gradientTransform="matrix(1.691364,-0.31394812,0.29762395,1.603419,17.826033,-7.042221)" inkscape:collect="always" />
  <radialGradient id="gradientFlower" xlink:href="#gradientStopsFlower" cx="60.884877" cy="-69.652750" fx="60.884877" fy="-69.652750" r="15.835310" gradientUnits="userSpaceOnUse" gradientTransform="matrix(0.8413905,0,0,0.87120012,-50.722984,-48.679159)" inkscape:collect="always" />
</defs>

<sodipodi:namedview
    id="base"
    pagecolor="#ffffff"
    bordercolor="#666666"
    borderopacity="1.0"
    inkscape:pageopacity="0.0"
    inkscape:pageshadow="2"
    inkscape:zoom="2"
    inkscape:cx="115.37643"
    inkscape:cy="285.04449"
    inkscape:document-units="in"
    showgrid="true"
    units="in"
    inkscape:window-width="1392"
    inkscape:window-height="836"
    inkscape:window-x="39"
    inkscape:window-y="6"
    inkscape:window-maximized="0"
    inkscape:snap-grids="true"
    inkscape:snap-to-guides="true"
    inkscape:snap-nodes="true"
    inkscape:object-nodes="true"
    inkscape:snap-smooth-nodes="true"
    inkscape:snap-intersection-paths="true"
    inkscape:object-paths="true"
    inkscape:snap-bbox="true"
    inkscape:bbox-nodes="true"
    inkscape:snap-others="true"
    inkscape:bbox-paths="false"
    inkscape:snap-global="true" >
  <inkscape:grid
    type="xygrid"
    id="grid3051"
    empspacing="2"
    visible="true"
    enabled="true"
    snapvisiblegridlinesonly="true"
    spacingx="0.0625in"
    spacingy="0.0625in"
    dotted="false"
    units="in" />
</sodipodi:namedview>
<g inkscape:groupmode="layer" id="water_layer" inkscape:label="Water" style="display:inline" sodipodi:insensitive="true" >
  <rect id="water" x="0" y="0" width="246.6" height="246.6" style="fill:#b9deff;fill-opacity:1;stroke:none" />
</g>
<g inkscape:groupmode="layer" id="water_medium_layer" inkscape:label="Water Shallow" style="display:inline" sodipodi:insensitive="true" >
  <path style="fill:#9bd1ff;fill-opacity:0.70;fill-rule:evenodd;stroke:none;filter:url(#blurWaterShallow)" d="M 11.050781,-8.9492188 -8.9492188,11.050781 -8.95,57.92496 l 20.000001,0 20.264452,3.817228 30.304688,-8.082032 23.929687,-8.033203 21.527342,-6.107422 6.72378,-28.46955 0,-20.000001 z M 183.3418,186.49609 l -31.81836,4.54493 -17.17383,28.28515 -1.54883,16.22461 0,20 102.75,0 20,-20 -7.8e-4,-46.87578 -20,0 z" inkscape:connector-curvature="0" />
</g>
<g inkscape:groupmode="layer" id="water_deep_layer" inkscape:label="Water Deep" style="display:inline" sodipodi:insensitive="true" >
  <path style="fill:#87c8ff;fill-opacity:0.60;fill-rule:evenodd;stroke:none;filter:url(#blurWaterDeep)" d="m 11.050781,-8.9492188 -19.9999998,19.9999998 0,24.699219 19.9992198,0.04996 24.446093,-1.01871 24.607422,-5.869141 5.446434,-17.862128 0,-20.000001 z M 215.88086,209.77148 l -27.99219,10.0586 -6.83789,15.7207 0,20 54.5,0 20,-20 L 255.55,210.8 l -20,0 z" inkscape:connector-curvature="0" />
</g>
<g inkscape:groupmode="layer" id="water_hilight_layer" inkscape:label="Water Hilight" style="display:inline" sodipodi:insensitive="true" >
  <use xlink:href="#shoreline" height="100%" width="100%" x="0" y="0" style="display:inline;fill:#ffffff;fill-opacity:1;stroke:#ffffff;stroke-opacity:1;filter:url(#blurWaterHilight)" />
</g>
<g inkscape:groupmode="layer" id="shoreline_layer" inkscape:label="Shoreline" style="display:inline" sodipodi:insensitive="true" >
  <use xlink:href="#shoreline" height="100%" width="100%" x="0" y="0" style="display:inline;fill:#ffddab;fill-opacity:1;stroke:#5f4c14;stroke-width:1;stroke-miterlimit:4;stroke-dasharray:none;stroke-opacity:1" />
</g>
<g inkscape:groupmode="layer" id="shoreline_master_layer" inkscape:label="Shoreline Master" style="display:none" sodipodi:insensitive="true" >
  <path id="shoreline" style="color:#000000;clip-rule:nonzero;display:inline;overflow:visible;visibility:visible;opacity:1;isolation:auto;mix-blend-mode:normal;color-interpolation:sRGB;color-interpolation-filters:linearRGB;solid-color:#000000;solid-opacity:1;fill-opacity:1;fill-rule:evenodd;color-rendering:auto;image-rendering:auto;shape-rendering:auto;text-rendering:auto;enable-background:accumulate" d="m 155.17495,-8.95002 0,20.000001 -0.94057,19.020331 10.706,20.874208 -1.641,39.516003 -9.82848,21.178007 -30.11027,19.32378 -8.20269,-10.88851 -29.118642,1.01445 L 53.533203,102.01151 22.467318,83.232776 11.050001,80.42496 l -20.000001,0 7.812e-4,155.12582 19.9999998,20 80.375,0 0,-20 3.414827,-17.49669 18.842912,-16.07598 12.7508,-18.0495 31.19771,-18.8209 32.35468,-4.59971 31.52433,7.52302 14.03896,-1.85602 20,0 3e-5,-155.12503 -20.00008,-19.99999 z" inkscape:connector-curvature="0" />
</g>
<g inkscape:groupmode="layer" id="grass_layer" inkscape:label="Grass" style="display:inline" sodipodi:insensitive="true" >
  <use xlink:href="#grass" height="100%" width="100%" x="0" y="0" style="display:inline;fill:#b4e982;fill-opacity:1;stroke:none;stroke-width:1;stroke-miterlimit:4;stroke-dasharray:none;stroke-opacity:1" />
</g>
<g inkscape:groupmode="layer" id="grass_master_layer" inkscape:label="Grass Master" style="display:none" sodipodi:insensitive="true" >
  <path id="grass" style="color:#000000;clip-rule:nonzero;display:inline;overflow:visible;visibility:visible;opacity:1;isolation:auto;mix-blend-mode:normal;color-interpolation:sRGB;color-interpolation-filters:linearRGB;solid-color:#000000;solid-opacity:1;fill-opacity:1;fill-rule:evenodd;filter:url(#blurGrass);color-rendering:auto;image-rendering:auto;shape-rendering:auto;text-rendering:auto;enable-background:accumulate" d="m 164.79995,-8.95002 0,20.000001 2.53599,16.7508 8.34175,15.565237 -0.0447,16.502538 -1.51656,25.007993 -13.88787,36.379671 -32.87447,20.33412 -19.52366,-14.42998 -26.89074,-3.90898 -20.054687,-9.63886 -29.331608,-12.38747 -20.503364,-1.92509 -20.000001,0 7.812e-4,136.25082 19.9999998,20 70.75,0 0,-20 -1.443359,-13.95117 21.710288,-29.9599 21.25598,-19.78554 37.82479,-19.15761 27.17475,-2.76732 23.26993,2.28559 24.03965,-4.98431 20,0 L 255.55,11.05 235.55001,-8.95002 Z" inkscape:connector-curvature="0" />
</g>
<g inkscape:groupmode="layer" id="forest_shadow_layer" inkscape:label="Forest Shadow" style="display:inline" sodipodi:insensitive="true" >
  <g style="filter:url(#blurForestShadow)" >
    <use xlink:href="#forest" height="100%" width="100%" x="0" y="0" style="display:inline;opacity:0.75;fill:#258c1b;fill-opacity:1" />
  </g>
</g>
<g inkscape:groupmode="layer" id="forest_fill_layer" inkscape:label="Forest Fill" style="display:inline" sodipodi:insensitive="true" >
  <use xlink:href="#forest" height="100%" width="100%" x="0" y="0" style="fill:#7ebd47;fill-opacity:1;fill-rule:nonzero;stroke:#496e28;stroke-width:0.5;stroke-linecap:round;stroke-linejoin:round;stroke-miterlimit:4;stroke-dasharray:none;stroke-dashoffset:0;stroke-opacity:1" />
</g>
<g inkscape:groupmode="layer" id="forest_master_layer" inkscape:label="Forest Master" style="display:none" sodipodi:insensitive="true" >
  <path id="forest" style="color:#000000;clip-rule:nonzero;display:inline;overflow:visible;visibility:visible;opacity:1;isolation:auto;mix-blend-mode:normal;color-interpolation:sRGB;color-interpolation-filters:linearRGB;solid-color:#000000;solid-opacity:1;fill-opacity:1;fill-rule:nonzero;color-rendering:auto;image-rendering:auto;shape-rendering:auto;text-rendering:auto;enable-background:accumulate" d="M 179.67578 -8.9492188 L 179.67578 11.050781 L 179.33203 22.513672 L 178.43945 32.513672 L 188.43945 36.443359 L 188.08203 47.693359 L 192.28516 63.550781 L 184.36719 76.462891 L 173.01953 83.378906 L 191.2793 86.986328 L 208.95703 83.839844 L 235.55078 80.800781 L 255.55078 80.800781 L 255.55078 53.050781 L 235.55078 53.050781 L 215.39648 46.589844 L 235.55078 42.800781 L 255.55078 42.800781 L 255.55078 11.050781 L 235.55078 -8.9492188 L 179.67578 -8.9492188 z M 235.55078 91.050781 L 212.68164 101.94922 L 208.24609 110.92578 L 234.94531 128.55859 L 254.94531 128.55859 L 255.55078 91.050781 L 235.55078 91.050781 z M 192.93945 115.2793 L 181.57422 127.6543 L 178.54492 134.2207 L 159.85742 145.08008 L 157.58398 149.87695 L 177.78711 150.63477 L 197.48438 144.82617 L 211.375 146.84766 L 220.21289 139.01953 L 214.6582 128.66406 L 200.51562 125.88672 L 192.93945 115.2793 z M -8.9492188 117.55078 L -8.9492188 155.55078 L 11.050781 155.55078 L 35.746094 136.93359 L 36.234375 126.0918 L 11.050781 117.55078 L -8.9492188 117.55078 z M 64.902344 127.15039 L 65.154297 132.20117 L 62.125 132.70508 L 61.871094 139.52344 L 67.175781 147.60547 L 74.751953 147.60547 L 78.539062 155.93945 L 83.841797 152.15039 L 94.701172 154.67578 L 103.79297 153.16016 L 102.27734 148.10938 L 105.56055 144.57422 L 115.41016 147.09961 L 116.41992 141.54492 L 113.89453 134.97852 L 104.04492 133.46289 L 92.681641 134.47266 L 82.328125 138.51367 L 74.751953 128.91797 L 64.902344 127.15039 z M -8.9492188 165.80078 L -8.9492188 193.55078 L 11.050781 193.55078 L 36.632812 197.73438 L 11.050781 203.80078 L -8.9492188 203.80078 L -8.9492188 235.55078 L 11.050781 255.55078 L 66.925781 255.55078 L 66.925781 235.55078 L 64.642578 224.09961 L 65.535156 214.09961 L 75.738281 198.04883 L 70.035156 182.25391 L 77.447266 180.53906 L 85.744141 171.91992 L 69.818359 170.68555 L 56.201172 176.01367 L 46.986328 175.76367 L 26.96875 167.74219 L 11.050781 165.80078 L -8.9492188 165.80078 z " inkscape:connector-curvature="0" />
</g>
<g inkscape:groupmode="layer" id="routes_layer" inkscape:label="Routes" style="display:inline" sodipodi:insensitive="true" >
  <path style="display:inline;fill:none;stroke:#000000;stroke-width:2;stroke-linecap:round;stroke-miterlimit:4;stroke-dasharray:0.1, 5;stroke-dashoffset:0;stroke-opacity:1" d="m 255.55,85.883336 -20,0 c -41.92133,-0.50508 -68.31742,50.281484 -106.11646,67.295934 -37.712459,16.97548 -77.977436,10.56781 -118.383539,7.53735 l -20,0 m 169.666689,94.83346 0,-20 c -1.51523,-19.69797 10.76765,-34.33656 39.35987,-38.46143 M 124.43094,88.433085 C 165.14501,46.932572 86.640897,49.940854 85.88328,11.049981 l 0,-20.000001" inkscape:connector-curvature="0" />
</g>
<g inkscape:groupmode="layer" id="labels_layer" inkscape:label="Labels" style="display:inline" sodipodi:insensitive="true" >
  <text xml:space="preserve" style="font-style:normal;font-variant:normal;font-weight:normal;font-stretch:normal;font-size:10px;line-height:125%;font-family:CCTreasureTrove;-inkscape-font-specification:'CCTreasureTrove, Normal';text-align:start;letter-spacing:0px;word-spacing:0px;writing-mode:lr-tb;text-anchor:start;display:inline;fill:#5d481b;fill-opacity:1;stroke:none;stroke-width:1px;stroke-linecap:butt;stroke-linejoin:miter;stroke-opacity:1"><textPath xlink:href="#label-path"
>Mutiny Bay</textPath></text>
</g>
<g inkscape:groupmode="layer" id="labels_guide_layer" inkscape:label="Labels Guide" style="display:none" sodipodi:insensitive="true" >
  <path id="label-path" style="color:#000000;fill:none;stroke:#000000;stroke-width:1;stroke-opacity:1" d="M 101.26635,107.45365 C 67.382746,96.310261 55.975834,84.256495 24.538847,60.588717" inkscape:connector-curvature="0" />
</g>
<g inkscape:groupmode="layer" id="resources_layer" inkscape:label="Resources" style="display:inline" sodipodi:insensitive="true" >
  <g id="resource-fish" transform="matrix(0.95469769,-0.29757742,0.29757742,0.95469769,234.00506,300.97477)" >
    <path style="color:#000000;clip-rule:nonzero;display:inline;overflow:visible;visibility:visible;opacity:1;isolation:auto;mix-blend-mode:normal;color-interpolation:sRGB;color-interpolation-filters:linearRGB;solid-color:#000000;solid-opacity:1;fill:url(#gradientFish);fill-opacity:1;fill-rule:evenodd;stroke:none;stroke-width:0.89999998;stroke-linecap:round;stroke-linejoin:miter;stroke-miterlimit:4;stroke-dasharray:none;stroke-dashoffset:0;stroke-opacity:1;color-rendering:auto;image-rendering:auto;shape-rendering:auto;text-rendering:auto;enable-background:accumulate" d="m 6.75164,-116.27687 c 2.99065,0.60485 4.49367,1.24794 5.89266,2.66121 2.45016,2.47513 3.25045,6.5505 3.25045,6.5505 l -3.54035,0.49898 2.97008,0.83162 c -1.40188,1.23555 -2.8637,2.14124 -4.39572,2.68497 -2.28163,0.80975 -5.89735,1.19916 -8.27072,0.72096 -2.52003,-0.50774 -4.93787,-1.71891 -6.65678,-2.93199 -1.70292,-1.2018 -2.32599,-2.77049 -4.34245,-2.71421 -2.02435,0.0566 -3.06024,1.36024 -6.2744,2.54392 0.98841,-2.25668 1.48644,-4.44986 1.47742,-4.77248 -0.0131,-0.47021 -0.60937,-2.94625 -1.71029,-5.74037 4.56815,1.9526 4.13574,3.93892 6.7876,4.01568 1.65013,0.0477 2.8784,-2.27892 4.84548,-3.01143 0,0 0.0925,-0.76339 -0.85797,-2.09399 2.125,-1.125 5.3749,-2.84347 9.18238,-2.11673 0.63846,0.67205 1.20575,1.59646 1.64258,2.87336 z" inkscape:connector-curvature="0" />
    <path style="color:#000000;font-style:normal;font-variant:normal;font-weight:normal;font-stretch:normal;font-size:medium;line-height:normal;font-family:sans-serif;text-indent:0;text-align:start;text-decoration:none;text-decoration-line:none;text-decoration-style:solid;text-decoration-color:#000000;letter-spacing:normal;word-spacing:normal;text-transform:none;direction:ltr;block-progression:tb;writing-mode:lr-tb;baseline-shift:baseline;text-anchor:start;white-space:normal;clip-rule:nonzero;display:inline;overflow:visible;visibility:visible;opacity:1;isolation:auto;mix-blend-mode:normal;color-interpolation:sRGB;color-interpolation-filters:linearRGB;solid-color:#000000;solid-opacity:1;fill:#000000;fill-opacity:1;fill-rule:evenodd;stroke:none;stroke-width:0.89999998;stroke-linecap:round;stroke-linejoin:miter;stroke-miterlimit:4;stroke-dasharray:none;stroke-dashoffset:0;stroke-opacity:1;color-rendering:auto;image-rendering:auto;shape-rendering:auto;text-rendering:auto;enable-background:accumulate" d="m 3.75195,-119.76758 c -0.55834,-0.0162 -1.08956,0.007 -1.41992,0.0332 -3.44102,0.26924 -4.79186,1.37793 -7.48633,2.26368 0.80029,0.66264 1.38172,1.65445 1.58985,2.40625 -0.74252,0.46927 -1.56885,1.06749 -2.34375,1.66992 -0.78694,0.61179 -1.52805,1.08797 -2.13868,1.07031 -1.213,-0.0351 -1.55439,-0.52183 -2.3789,-1.23633 -1.98577,-1.72081 -3.07464,-2.29632 -5.23438,-3.2207 0.86297,2.18173 2.04317,4.50407 2.07227,6.58984 0.0263,1.88626 -1.13742,3.87948 -1.86328,5.54883 1.62081,-0.53562 3.22001,-1.34059 4.6289,-2.08398 0.89906,-0.47438 1.57632,-0.77317 2.49415,-0.79883 0.89038,-0.0249 1.40182,0.27656 1.98242,0.77734 0.25085,0.21637 0.51534,0.48279 0.79687,0.75586 -0.25647,0.40556 -0.79615,0.53695 -1.76562,1.10352 1.95514,0.58994 2.59141,1.85091 4.15625,2.49414 0.55665,-0.25793 1.08128,-0.52946 1.29882,-1.08594 1.28379,0.64871 2.70563,1.21308 4.19922,1.53906 0.0372,0.49232 -0.0779,0.96218 -0.52343,1.75 1.8525,-0.13727 3.11482,-0.49129 3.85351,-1.48437 1.90282,-0.0616 3.90491,-0.41501 5.41016,-0.94922 1.59542,-0.56623 3.08878,-1.52586 4.54297,-2.77148 0.22554,-0.1932 0.55832,-0.5479 0.15234,-0.66602 l -1.22851,-0.35742 1.51367,-0.22656 c 0.18187,-0.0272 0.35546,-0.2168 0.27734,-0.50586 -0.0502,-0.18564 -0.78361,-4.16347 -3.37305,-6.7793 -1.42433,-1.43886 -3.05654,-2.12894 -5.92382,-2.72852 -0.4724,-1.08092 -0.97717,-2.12518 -1.70508,-2.90429 -0.44021,-0.13092 -1.02565,-0.18691 -1.58399,-0.20313 z m -0.1289,0.86719 c 0.40991,0.0169 0.81105,0.0568 1.19922,0.10547 0.77961,0.94104 1.28338,2.04784 1.60937,2.96875 2.1946,0.39918 4.6041,1.23544 5.89453,2.52734 2.08816,2.09053 2.83239,5.19206 2.98633,5.86133 l -3.01953,0.42578 c -0.44473,0.0627 -0.45389,0.76792 -0.0586,0.87891 l 1.98242,0.55664 c -1.12071,0.87174 -2.24918,1.67981 -3.4375,2.10156 -0.33815,0.12001 -0.71912,0.22666 -1.11524,0.32617 -2.33138,-1.12461 -3.38072,-3.76269 -3.66601,-5.20312 -0.15295,-0.77226 -0.48459,-1.00055 -0.26758,0.46094 0.277,1.86552 1.35587,3.78888 2.74609,4.99218 -1.94553,0.34633 -4.16617,0.4437 -5.72851,0.12891 -2.43884,-0.49138 -4.81456,-1.67957 -6.48633,-2.85938 -0.79723,-0.56263 -1.35875,-1.23084 -2.01953,-1.80078 -0.66079,-0.56995 -1.57913,-0.96766 -2.54883,-0.93164 -0.96571,0.0359 -2.00556,0.34944 -2.93359,0.83789 -0.68049,0.35816 -1.62451,0.79789 -2.58789,1.22461 0.58514,-1.36212 1.15509,-2.85368 1.14062,-3.91797 -0.0229,-1.68436 -0.84568,-3.32406 -1.36523,-4.77929 1.43808,0.75542 2.36518,1.48293 3.00781,2.08984 0.79559,0.75138 1.70527,1.34121 2.9414,1.36523 0.8676,0.0169 1.85414,-0.60951 2.64454,-1.26171 1.07222,-0.88474 2.37395,-1.75346 3.82031,-2.3125 0.84286,-0.32579 2.17657,-0.81342 1.5664,-0.90821 -0.63083,-0.098 -1.90673,0.29013 -2.74804,0.65625 -0.21144,-0.67843 -0.52851,-1.28134 -0.85547,-1.77148 1.86816,-0.59893 2.90957,-1.50638 6.04687,-1.72852 0.42336,-0.0441 0.84204,-0.0501 1.25196,-0.0332 z" inkscape:connector-curvature="0" />
    <path style="color:#000000;clip-rule:nonzero;display:inline;overflow:visible;visibility:visible;opacity:1;isolation:auto;mix-blend-mode:normal;color-interpolation:sRGB;color-interpolation-filters:linearRGB;solid-color:#000000;solid-opacity:1;fill:#000000;fill-opacity:1;fill-rule:evenodd;stroke:none;stroke-width:0.89999998;stroke-linecap:round;stroke-linejoin:miter;stroke-miterlimit:4;stroke-dasharray:none;stroke-dashoffset:0;stroke-opacity:1;color-rendering:auto;image-rendering:auto;shape-rendering:auto;text-rendering:auto;enable-background:accumulate" d="m 4.14858,-108.59983 c -0.47489,-0.30307 -1.53655,-0.90869 -2.26472,-0.88862 -0.0804,0.002 -0.2543,0.14712 -0.15844,0.31108 0.47438,0.81135 0.88194,1.78963 0.81744,2.88053 -0.01,0.15682 0.0463,0.31282 0.28149,0.29908 0.85805,-0.0503 1.22499,-0.14313 1.82534,-0.42991 0.33162,-0.1584 0.28985,0.0295 -0.17284,0.32399 -0.42638,0.27143 -1.15747,0.57467 -1.60626,0.62419 -0.57111,0.063 -0.86938,-0.30115 -0.85559,-0.49509 0.0664,-0.93438 -0.40775,-2.23989 -0.84996,-3.00389 -0.64912,-1.12144 0.5114,-1.14367 1.04743,-1.03991 0.57353,0.11103 1.54086,0.51965 2.36735,1.37318 0.31578,0.3261 0.0887,0.37724 -0.43124,0.0454 z" inkscape:connector-curvature="0" />
    <ellipse cx="35.346939" cy="-105.813170" rx="0.855386" ry="1.092993" style="opacity:1;fill:#000000;fill-opacity:1;fill-rule:nonzero;stroke:none;stroke-width:0.89999998;stroke-linecap:butt;stroke-linejoin:round;stroke-miterlimit:4;stroke-dasharray:none;stroke-dashoffset:0;stroke-opacity:1" transform="matrix(0.97605309,-0.21753245,0.21753245,0.97605309,0,0)" />
  </g>
  <g id="resource-turtle" transform="matrix(-0.92859504,-0.37109467,0.37109467,-0.92859504,165.26266,-16.253535)" >
    <path style="fill:#acf398;fill-opacity:1;fill-rule:evenodd;stroke:#000000;stroke-width:0.89999998;stroke-linecap:round;stroke-linejoin:miter;stroke-miterlimit:4;stroke-dasharray:none;stroke-opacity:1" d="m -13.200987,-100.29637 c 0.383554,0.976603 3.233916,-2.12106 6.131249,-1.42702 1.332863,0.31928 0.882122,-3.09205 -0.399356,-3.57815 -2.371651,-0.89961 -6.659154,2.64419 -5.731893,5.00517 z" inkscape:connector-curvature="0" />
    <path style="fill:#acf398;fill-opacity:1;fill-rule:evenodd;stroke:#000000;stroke-width:0.89999998;stroke-linecap:round;stroke-linejoin:miter;stroke-miterlimit:4;stroke-dasharray:none;stroke-opacity:1" d="m 0.519205,-98.947277 c -1.160888,-0.35295 2.907731,-2.472353 3.949394,-1.850123 1.642844,0.981343 2.297204,4.963396 0.372373,6.157721 -0.745218,0.462395 -0.785725,-3.232509 -4.321767,-4.307598 z" inkscape:connector-curvature="0" />
    <path style="fill:#acf398;fill-opacity:1;fill-rule:evenodd;stroke:#000000;stroke-width:0.89999998;stroke-linecap:round;stroke-linejoin:miter;stroke-miterlimit:4;stroke-dasharray:none;stroke-opacity:1" d="m 7.618715,-114.43269 c 1.934345,-0.44611 4.329746,-0.0993 5.914203,1.00302 2.013049,1.40054 2.917028,5.29708 1.897177,7.52728 -0.282844,0.61852 -3.514643,-5.32749 -6.150465,-4.42389 -1.839455,0.63059 -2.536626,0.15372 -3.169919,-1.68481 -0.27477,-0.79769 0.686895,-2.232 1.509004,-2.4216 z" inkscape:connector-curvature="0" />
    <path style="fill:#acf398;fill-opacity:1;fill-rule:evenodd;stroke:#000000;stroke-width:0.89999998;stroke-linecap:round;stroke-linejoin:miter;stroke-miterlimit:4;stroke-dasharray:none;stroke-opacity:1" d="m -13.605402,-118.51893 c 1.434388,-2.65109 5.159923,-3.50053 7.13722,-3.29637 1.742717,0.17994 3.474416,1.88524 3.953288,3.57051 0.312727,1.10056 -0.218032,2.84568 -1.315095,3.17046 -1.558665,0.46144 -1.358953,-1.39147 -2.644475,-2.38636 -2.809563,-2.17437 -7.671044,-0.06 -7.130938,-1.05824 z" inkscape:connector-curvature="0" />
    <path style="fill:#acf398;fill-opacity:1;fill-rule:evenodd;stroke:#000000;stroke-width:0.89999998;stroke-linecap:round;stroke-linejoin:miter;stroke-miterlimit:4;stroke-dasharray:none;stroke-opacity:1" d="m 1.574508,-116.64822 c -0.973346,-1.40454 -0.400278,-3.52894 -0.15625,-5.22027 0.277861,-1.92582 2.436935,-3.39132 3.77573,-3.50612 0.998071,-0.0856 1.511263,0.0552 2.026651,0.91421 0.545706,0.90951 1.17564,3.12771 0.125,4.74448 -0.918312,1.41314 -1.826689,3.21256 -3.442704,3.69086 -0.965518,0.28577 -1.75489,0.20445 -2.328427,-0.62316 z" inkscape:connector-curvature="0" />
    <path style="fill:#acf398;fill-opacity:1;fill-rule:evenodd;stroke:#000000;stroke-width:0.89999998;stroke-linecap:round;stroke-linejoin:miter;stroke-miterlimit:4;stroke-dasharray:none;stroke-opacity:1" d="m -4.37156,-100.05265 c -1.568711,0.833903 -1.519982,4.156989 -0.84283,4.365801 0.803045,0.247633 2.774585,-2.210096 2.390927,-3.815868 -0.20218,-0.846213 -0.779871,-0.958313 -1.548097,-0.549933 z" inkscape:connector-curvature="0" />
    <path style="fill:#acf398;fill-opacity:1;fill-rule:evenodd;stroke:#000000;stroke-width:0.89999998;stroke-linecap:round;stroke-linejoin:miter;stroke-miterlimit:4;stroke-dasharray:none;stroke-opacity:1" d="m -7.212243,-116.3836 c 1.293667,-1.65845 3.629584,-2.72772 5.073491,-2.91682 3.87448,-0.50741 7.329249,0.88026 10.076271,3.65928 1.485686,1.503 2.189594,3.9511 1.909189,6.04576 -0.610927,4.56371 -3.547497,9.21538 -7.477655,11.614241 -1.864758,1.138194 -4.454815,1.340084 -6.523059,0.636396 -2.202234,-0.749276 -4.339874,-2.571424 -5.09117,-4.772977 -1.613498,-4.72808 -1.039758,-10.32676 2.032933,-14.26588 z" inkscape:connector-curvature="0" />
    <path style="color:#000000;clip-rule:nonzero;display:inline;overflow:visible;visibility:visible;opacity:1;isolation:auto;mix-blend-mode:normal;color-interpolation:sRGB;color-interpolation-filters:linearRGB;solid-color:#000000;solid-opacity:1;fill:none;fill-opacity:1;fill-rule:evenodd;stroke:#000000;stroke-width:0.63;stroke-linecap:butt;stroke-linejoin:miter;stroke-miterlimit:4;stroke-dasharray:none;stroke-dashoffset:0;stroke-opacity:1;color-rendering:auto;image-rendering:auto;shape-rendering:auto;text-rendering:auto;enable-background:accumulate" d="m -2.061438,-117.34644 -0.59283,-1.87446 m 9.785218,5.41 1.414213,-0.83969 m -3.270369,-3.0494 -0.883883,1.45841 m -3.005204,-2.91681 -0.322303,1.63785 m -4.980998,18.116938 -0.637024,1.851254 m 3.244481,-1.320924 0.145526,1.908392 m -5.139468,-3.85294 -1.276269,1.089694 m 0.0491,-3.679294 -1.793656,0.57452 m 1.06066,-3.30874 -1.531171,0.15311 m 1.679379,-3.00521 -1.861517,-0.2134 m 2.347653,-2.30567 -1.656171,-0.60309 m 2.761025,-2.09275 -1.312881,-0.89415 m 3.166356,-0.9571 -1.315562,-1.55438 m 7.32865,17.857125 0.826745,1.744559 m 1.382964,-3.026194 1.087008,1.317787 m 0.636565,-3.615877 1.440561,1.09413 m 0.238817,-3.48062 1.396368,0.61558 m -0.582567,-3.29357 1.567783,0.29327 m -1.419575,-3.1217 1.723572,-0.18483 m -10.817309,9.66873 0.486136,2.607453 m -4.02167,-3.756503 -1.59099,1.28163 m 5.833631,-13.21406 -0.309359,-2.38648 m 4.507806,3.7565 1.856155,-1.59099 m -10.69499,9.8553 -2.740039,-0.13258 m 3.447145,-3.88908 -3.18198,-1.23745 m 4.861359,-3.22617 -2.607456,-1.45841 m 6.452349,12.1534 2.209709,1.45841 m -0.04419,-5.03814 3.049398,1.19324 m -1.635185,-5.34749 2.872622,0.70711 m -9.766913,-0.83968 -0.486137,-2.78425 2.298097,-1.10485 4.021672,1.41421 0.839688,2.65165 -2.298097,1.19325 z m 4.507806,1.28162 0.928077,3.04939 -2.607455,1.28164 m -4.198448,-1.32583 -0.839689,-2.51907 2.298097,-1.76776 m -2.474873,7.95495 -0.574524,-2.34229 1.546796,-1.19324 4.154252,1.19324 0.530329,2.34229 -2.165513,1.19324 z m 3.310975,-14.48201 c -9.036509,1.02413 -9.686118,18.911215 0.316406,18.4082 7.293571,-1.28851 13.245425,-14.43065 4.082031,-17.65234 -1.373439,-0.61154 -2.89993,-0.86992 -4.398437,-0.75586 z" inkscape:connector-curvature="0" />
    <ellipse cx="-83.675232" cy="-91.031174" rx="0.393487" ry="0.537215" style="fill:#000000;fill-opacity:1;stroke:none" transform="matrix(0.71262218,0.70154802,-0.70154802,0.71262218,0,0)" />
    <ellipse cx="0.876442" cy="-122.849910" rx="0.393487" ry="0.537215" style="fill:#000000;fill-opacity:1;stroke:none" transform="matrix(0.99895236,0.04576232,-0.04576232,0.99895236,0,0)" />
  </g>
  <g id="resource-pirate" transform="rotate(113.51337,166.55419,229.77042)" >
    <path style="display:inline;opacity:1;fill:#000000;fill-opacity:1;stroke:none;stroke-width:0.72000003;stroke-linejoin:miter;stroke-miterlimit:4;stroke-dasharray:none;stroke-dashoffset:0;stroke-opacity:1" transform="scale(-1,-1)" d="m -107.60416,-273.69223 -7.8991,-1.94695 -6.08951,-5.39484 -2.88489,-7.60683 0.98062,-8.07619 4.6215,-6.69539 7.20363,-3.78076 8.13551,0 7.203628,3.78076 4.621495,6.69539 0.980627,8.07619 -2.88489,7.60683 -6.089513,5.39484 z" inkscape:connector-curvature="0" />
    <g transform="translate(6.943425,5.6840535)" >
      <g transform="translate(0,-10)" >
        <path style="color:#000000;clip-rule:nonzero;display:inline;overflow:visible;visibility:visible;opacity:1;isolation:auto;mix-blend-mode:normal;color-interpolation:sRGB;color-interpolation-filters:linearRGB;solid-color:#000000;solid-opacity:1;fill:#ffffff;fill-opacity:1;fill-rule:nonzero;stroke:none;stroke-width:0.49999997;stroke-linecap:butt;stroke-linejoin:miter;stroke-miterlimit:4;stroke-dasharray:none;stroke-dashoffset:0;stroke-opacity:1;color-rendering:auto;image-rendering:auto;shape-rendering:auto;text-rendering:auto;enable-background:accumulate" d="m 91.84844,289.85155 c 4.41124,3.03993 11.33218,5.63427 19.39618,8.47116 0.51356,0.18067 1.26729,0.0129 1.26729,0.0129 1.03108,0.0262 1.76032,0.59243 1.42127,1.81302 -0.15625,0.5625 -0.60065,0.1875 -1.10065,0.75 -0.59594,0.67043 -0.31337,0.98447 -0.78702,1.45924 -0.37301,0.37389 -0.95237,0.38325 -1.41542,-0.0762 -0.43122,-0.4279 -0.24851,-1.07751 -0.79513,-1.34257 -5.2397,-2.54083 -12.94978,-6.27419 -18.97954,-8.64117 -0.75546,-0.29655 -1.95134,0.5095 -2.69668,0.18835 -0.65522,-0.28232 -1.04679,-1.02773 -0.89579,-1.72503 0.11053,-0.51043 1.25,-0.94464 1.25,-0.94464 l 0.16316,0.45958 c -0.38049,-1.27579 -0.54342,-1.55226 0.0416,-2.29926 0.47038,-0.60064 1.71455,-0.2507 2.18742,0.26834 0.3856,0.42325 0.37162,1.21233 0.94334,1.60632 z" inkscape:connector-curvature="0" />
        <path style="color:#000000;font-style:normal;font-variant:normal;font-weight:normal;font-stretch:normal;font-size:medium;line-height:normal;font-family:sans-serif;text-indent:0;text-align:start;text-decoration:none;text-decoration-line:none;text-decoration-style:solid;text-decoration-color:#000000;letter-spacing:normal;word-spacing:normal;text-transform:none;direction:ltr;block-progression:tb;writing-mode:lr-tb;baseline-shift:baseline;text-anchor:start;white-space:normal;clip-rule:nonzero;display:inline;overflow:visible;visibility:visible;opacity:1;isolation:auto;mix-blend-mode:normal;color-interpolation:sRGB;color-interpolation-filters:linearRGB;solid-color:#000000;solid-opacity:1;fill:#000000;fill-opacity:1;fill-rule:nonzero;stroke:none;stroke-width:0.49999997;stroke-linecap:butt;stroke-linejoin:miter;stroke-miterlimit:4;stroke-dasharray:none;stroke-dashoffset:0;stroke-opacity:1;color-rendering:auto;image-rendering:auto;shape-rendering:auto;text-rendering:auto;enable-background:accumulate" d="m 89.94141,287.44531 c -0.54653,-0.13973 -1.02793,0.0475 -1.41993,0.37696 -0.39461,0.33166 -0.45344,0.73455 -0.43554,1.11718 0.009,0.1953 0.0749,0.48278 0.14843,0.71094 0.0247,0.0765 -0.13751,0.0543 -0.37499,0.19141 -0.31892,0.18405 -0.69539,0.49169 -0.78516,0.90624 -0.17772,0.8207 0.18277,1.73389 0.98633,1.96876 0.90806,0.26541 1.87242,-0.46589 2.70312,-0.18553 6.12153,2.06605 13.77428,5.90495 18.93945,8.59375 0.44579,0.23206 0.47891,0.99792 0.75,1.33398 0.47609,0.59019 1.43418,0.58737 1.82423,0.0606 0.41555,-0.56124 0.35263,-0.97015 0.71093,-1.40039 0.19962,-0.2397 0.27907,-0.36717 0.48047,-0.41602 0.10069,-0.0244 0.3919,-0.085 0.64844,-0.32813 0.37646,-0.35676 0.31231,-1.20126 -0.13264,-1.71679 -0.40032,-0.46384 -1.02404,-0.57439 -1.4961,-0.57426 -0.43431,1.2e-4 -0.8621,0.10335 -1.16011,0.002 -8.09046,-2.75143 -14.91003,-5.38426 -19.27539,-8.39258 -0.22086,-0.1522 -0.39434,-0.43852 -0.51171,-0.72461 -0.2365,-0.57649 -0.55594,-1.25663 -1.59983,-1.52351 z m 1.2188,1.80664 c 0.16982,0.38884 0.34852,0.54692 0.5469,0.80468 4.45711,3.07156 11.38831,5.66408 19.45508,8.50195 0.6315,0.22216 1.0547,0.10621 1.35742,0.0683 0.71089,-0.0889 1.08312,0.23005 1.22662,0.42788 0.35341,0.48722 0.19231,1.06561 -0.21479,1.15626 -0.18569,0.0413 -0.61103,0.17616 -0.88477,0.52148 -0.33647,0.42445 -0.37657,1.24201 -0.78515,1.55078 -0.31976,0.24165 -0.75772,0.27891 -1.05469,-0.17966 -0.32208,-0.49734 -0.27651,-1.10107 -0.88672,-1.42774 -5.13397,-2.7485 -12.86209,-6.41107 -18.97265,-8.61133 -0.88412,-0.31835 -1.92323,0.3249 -2.69727,0.23828 -0.58607,-0.0656 -0.8665,-0.91439 -0.74219,-1.48829 0.0208,-0.0959 0.18739,-0.36795 0.46875,-0.52344 0.30948,-0.17102 0.40248,-0.17047 0.44922,-0.0664 0.0857,0.19085 0.13229,0.44867 0.15637,0.72069 0.0197,0.22228 0.17958,-0.0361 0.20117,-0.10743 0.0917,-0.30287 -1.1e-4,-0.84555 -0.0587,-0.98826 -0.35066,-0.85435 -0.24288,-1.31016 0.12868,-1.7077 0.29779,-0.31861 0.72973,-0.39498 1.09186,-0.27481 0.69853,0.2318 0.95425,0.78805 1.21486,1.38476 z" inkscape:connector-curvature="0" />
      </g>
      <g transform="translate(0,-10)" >
        <path style="color:#000000;clip-rule:nonzero;display:inline;overflow:visible;visibility:visible;opacity:1;isolation:auto;mix-blend-mode:normal;color-interpolation:sRGB;color-interpolation-filters:linearRGB;solid-color:#000000;solid-opacity:1;fill:#ffffff;fill-opacity:1;fill-rule:nonzero;stroke:none;stroke-width:0.49999997;stroke-linecap:butt;stroke-linejoin:miter;stroke-miterlimit:4;stroke-dasharray:none;stroke-dashoffset:0;stroke-opacity:1;color-rendering:auto;image-rendering:auto;shape-rendering:auto;text-rendering:auto;enable-background:accumulate" d="m 109.41706,289.80736 c -4.41124,3.03993 -11.33218,5.63427 -19.39618,8.47116 -0.51356,0.18067 -1.26729,0.0129 -1.26729,0.0129 -1.03108,0.0262 -1.76032,0.59243 -1.42127,1.81302 0.15625,0.5625 0.60065,0.1875 1.10065,0.75 0.59594,0.67043 0.31337,0.98447 0.78702,1.45924 0.37301,0.37389 0.95237,0.38325 1.41542,-0.0762 0.43122,-0.4279 0.24851,-1.07751 0.79513,-1.34257 5.2397,-2.54083 12.94978,-6.27419 18.97954,-8.64117 0.75546,-0.29655 1.95134,0.5095 2.69668,0.18835 0.65522,-0.28232 1.04679,-1.02773 0.89579,-1.72503 -0.11053,-0.51043 -1.25,-0.94464 -1.25,-0.94464 l -0.16316,0.45958 c 0.38049,-1.27579 0.54342,-1.55226 -0.0416,-2.29926 -0.47038,-0.60064 -1.71455,-0.2507 -2.18742,0.26834 -0.3856,0.42325 -0.37162,1.21233 -0.94334,1.60632 z" inkscape:connector-curvature="0" />
        <path style="color:#000000;font-style:normal;font-variant:normal;font-weight:normal;font-stretch:normal;font-size:medium;line-height:normal;font-family:sans-serif;text-indent:0;text-align:start;text-decoration:none;text-decoration-line:none;text-decoration-style:solid;text-decoration-color:#000000;letter-spacing:normal;word-spacing:normal;text-transform:none;direction:ltr;block-progression:tb;writing-mode:lr-tb;baseline-shift:baseline;text-anchor:start;white-space:normal;clip-rule:nonzero;display:inline;overflow:visible;visibility:visible;opacity:1;isolation:auto;mix-blend-mode:normal;color-interpolation:sRGB;color-interpolation-filters:linearRGB;solid-color:#000000;solid-opacity:1;fill:#000000;fill-opacity:1;fill-rule:nonzero;stroke:none;stroke-width:0.49999997;stroke-linecap:butt;stroke-linejoin:miter;stroke-miterlimit:4;stroke-dasharray:none;stroke-dashoffset:0;stroke-opacity:1;color-rendering:auto;image-rendering:auto;shape-rendering:auto;text-rendering:auto;enable-background:accumulate" d="m 111.38756,287.33529 c -0.48664,0.0425 -1.11759,0.35128 -1.31171,0.78554 -0.25532,0.57121 -0.35791,1.10841 -0.80095,1.43578 -4.2638,3.15061 -11.02151,5.86741 -19.11914,8.59765 -0.37569,0.12667 -0.793,0.007 -1.18941,0 -0.55986,-0.009 -1.2909,0.0173 -1.62304,0.38477 -0.33215,0.36747 -0.49179,0.82955 -0.3072,1.49398 0.0492,0.17698 0.19508,0.41555 0.31501,0.50406 0.11993,0.0885 0.24305,0.11618 0.34375,0.14063 0.20139,0.0489 0.34354,0.0657 0.55078,0.29883 0.27206,0.30606 0.32523,0.48899 0.38672,0.70508 0.0615,0.21608 0.13631,0.48917 0.41016,0.76367 0.46295,0.46404 1.23127,0.45987 1.76953,-0.0742 0.27305,-0.27093 0.34319,-0.599 0.41601,-0.83594 0.0728,-0.23693 0.11923,-0.36621 0.31055,-0.45898 5.23957,-2.54077 12.92679,-6.14139 18.94079,-8.50219 0.26425,-0.10373 0.73389,-0.14378 1.22132,-0.0193 0.48743,0.1245 1.01877,0.28217 1.50586,0.0723 0.76885,-0.33126 1.21875,-1.18712 1.04101,-2.00781 -0.0898,-0.41456 -0.51237,-0.7471 -0.8313,-0.93114 -0.23626,-0.13633 -0.30692,-0.13408 -0.29326,-0.2428 0.0341,-0.27151 0.0324,-0.44202 0.0416,-0.63783 0.018,-0.38263 -0.0918,-0.65157 -0.42093,-1.02881 -0.39713,-0.45513 -0.89964,-0.48317 -1.35615,-0.44329 z m 0.96351,0.70764 c 0.31461,0.3192 0.35498,0.60714 0.37427,0.86802 0.0265,0.35796 0.0566,0.77981 -0.21212,1.56266 -0.0629,0.1834 -0.13514,0.41283 0.0458,0.26781 0.21765,-0.17449 0.32969,-0.52131 0.40328,-0.67267 0.0499,-0.10264 0.1234,-0.0467 0.3034,0.0364 0.32381,0.14909 0.5206,0.38204 0.54136,0.65469 0.0446,0.5855 -0.25812,1.17489 -0.79972,1.40825 -0.25824,0.11127 -0.69789,0.0264 -1.18359,-0.0976 -0.48573,-0.12404 -1.03674,-0.15395 -1.52796,0.0389 -6.04551,2.3732 -13.73417,5.97497 -18.974,8.51586 -0.35529,0.17229 -0.49003,0.5006 -0.57031,0.76171 -0.0803,0.26112 -0.13479,0.47195 -0.29297,0.62891 -0.38783,0.38482 -0.77943,0.36186 -1.0625,0.0781 -0.1998,-0.20028 -0.21858,-0.32159 -0.2832,-0.54883 -0.0646,-0.22722 -0.16831,-0.53603 -0.49219,-0.90039 -0.29276,-0.32936 -0.5411,-0.43101 -0.7644,-0.44761 -0.16657,-0.0124 -0.31978,-0.24306 -0.3377,-0.29665 -0.18307,-0.54743 -0.0422,-0.79871 0.17376,-1.01614 0.27893,-0.28078 0.87349,-0.22843 1.22527,-0.2358 0.44842,-0.009 0.77278,0.20066 1.40429,-0.0215 8.06676,-2.83789 14.84782,-5.48941 19.23633,-8.6582 0.53983,-0.38979 0.52785,-0.93704 0.79316,-1.50218 0.22245,-0.47382 0.76204,-0.67588 1.09941,-0.72147 0.2658,-0.0359 0.66161,0.0555 0.90033,0.29773 z" inkscape:connector-curvature="0" />
      </g>
      <g >
        <path style="color:#000000;clip-rule:nonzero;display:inline;overflow:visible;visibility:visible;opacity:1;isolation:auto;mix-blend-mode:normal;color-interpolation:sRGB;color-interpolation-filters:linearRGB;solid-color:#000000;solid-opacity:1;fill:#ffffff;fill-opacity:1;fill-rule:nonzero;stroke:none;stroke-width:0.49999997;stroke-linecap:butt;stroke-linejoin:miter;stroke-miterlimit:4;stroke-dasharray:none;stroke-dashoffset:0;stroke-opacity:1;color-rendering:auto;image-rendering:auto;shape-rendering:auto;text-rendering:auto;enable-background:accumulate" d="m 95.61696,289.40928 c -0.28542,-0.70119 -0.64431,-0.0511 -1.28032,-1.5943 -0.1555,-0.3773 0.0533,-1.26257 -0.20606,-1.97221 -1.08563,-2.97045 -0.70376,-4.38729 -0.13829,-5.43857 0.90077,-1.67462 2.37389,-2.68893 4.18898,-3.25565 1.68855,-0.52721 3.7114,-0.48187 5.36931,0.13497 1.87949,0.69928 2.96812,1.82798 3.83709,3.63528 0.56796,1.18125 0.75027,1.95911 0.46372,3.37367 -0.0839,0.41394 -0.6938,1.7573 -0.89959,2.67781 -0.13567,0.60688 0.13543,0.88631 0.028,1.10465 -0.68013,1.38226 -0.85951,0.68912 -1.42722,1.53162 -0.82001,1.21692 -0.9135,2.26072 -0.9135,2.26072 -2.62487,0.21736 -5.43031,0.27039 -8.01047,-0.13519 -0.21074,-2.67946 -0.3887,-0.7924 -1.01165,-2.3228 z" inkscape:connector-curvature="0" />
        <path style="color:#000000;font-style:normal;font-variant:normal;font-weight:normal;font-stretch:normal;font-size:medium;line-height:normal;font-family:sans-serif;text-indent:0;text-align:start;text-decoration:none;text-decoration-line:none;text-decoration-style:solid;text-decoration-color:#000000;letter-spacing:normal;word-spacing:normal;text-transform:none;direction:ltr;block-progression:tb;writing-mode:lr-tb;baseline-shift:baseline;text-anchor:start;white-space:normal;clip-rule:nonzero;display:inline;overflow:visible;visibility:visible;opacity:1;isolation:auto;mix-blend-mode:normal;color-interpolation:sRGB;color-interpolation-filters:linearRGB;solid-color:#000000;solid-opacity:1;fill:#000000;fill-opacity:1;fill-rule:nonzero;stroke:none;stroke-width:0.49999997;stroke-linecap:butt;stroke-linejoin:miter;stroke-miterlimit:4;stroke-dasharray:none;stroke-dashoffset:0;stroke-opacity:1;color-rendering:auto;image-rendering:auto;shape-rendering:auto;text-rendering:auto;enable-background:accumulate" d="m 101.77982,284.55725 c 0.004,0.96632 0.45036,2.0941 1.39212,2.05041 0.94176,-0.0437 1.37747,-1.03396 1.36409,-2.0552 -0.0134,-1.02124 -0.49476,-1.92637 -1.40364,-1.94387 -0.90889,-0.0175 -1.3563,0.98234 -1.35257,1.94866 z" inkscape:connector-curvature="0" />
        <path style="color:#000000;font-style:normal;font-variant:normal;font-weight:normal;font-stretch:normal;font-size:medium;line-height:normal;font-family:sans-serif;text-indent:0;text-align:start;text-decoration:none;text-decoration-line:none;text-decoration-style:solid;text-decoration-color:#000000;letter-spacing:normal;word-spacing:normal;text-transform:none;direction:ltr;block-progression:tb;writing-mode:lr-tb;baseline-shift:baseline;text-anchor:start;white-space:normal;clip-rule:nonzero;display:inline;overflow:visible;visibility:visible;opacity:1;isolation:auto;mix-blend-mode:normal;color-interpolation:sRGB;color-interpolation-filters:linearRGB;solid-color:#000000;solid-opacity:1;fill:#000000;fill-opacity:1;fill-rule:nonzero;stroke:none;stroke-width:0.49999997;stroke-linecap:butt;stroke-linejoin:miter;stroke-miterlimit:4;stroke-dasharray:none;stroke-dashoffset:0;stroke-opacity:1;color-rendering:auto;image-rendering:auto;shape-rendering:auto;text-rendering:auto;enable-background:accumulate" d="m 100.03721,289.11908 c -0.42377,-0.36462 -0.23973,-1.10247 0.38785,-2.14089 0.0843,-0.13938 0.41827,-0.11168 0.51275,0.021 0.6035,0.84762 0.67744,2.01011 0.33563,2.12543 -0.234,0.079 -0.36489,-0.0838 -0.58623,-0.37016 -0.23681,0.29673 -0.365,0.60983 -0.65,0.36461 z" inkscape:connector-curvature="0" />
        <path style="color:#000000;font-style:normal;font-variant:normal;font-weight:normal;font-stretch:normal;font-size:medium;line-height:normal;font-family:sans-serif;text-indent:0;text-align:start;text-decoration:none;text-decoration-line:none;text-decoration-style:solid;text-decoration-color:#000000;letter-spacing:normal;word-spacing:normal;text-transform:none;direction:ltr;block-progression:tb;writing-mode:lr-tb;baseline-shift:baseline;text-anchor:start;white-space:normal;clip-rule:nonzero;display:inline;overflow:visible;visibility:visible;opacity:1;isolation:auto;mix-blend-mode:normal;color-interpolation:sRGB;color-interpolation-filters:linearRGB;solid-color:#000000;solid-opacity:1;fill:#000000;fill-opacity:1;fill-rule:nonzero;stroke:none;stroke-width:0.49999997;stroke-linecap:butt;stroke-linejoin:miter;stroke-miterlimit:4;stroke-dasharray:none;stroke-dashoffset:0;stroke-opacity:1;color-rendering:auto;image-rendering:auto;shape-rendering:auto;text-rendering:auto;enable-background:accumulate" d="m 96.79629,284.49096 c 0.004,0.96632 0.38407,2.09409 1.34792,2.0725 0.96385,-0.0216 1.44376,-1.01186 1.43038,-2.0331 -0.0134,-1.02124 -0.45057,-1.90429 -1.33735,-1.94387 -0.88677,-0.0396 -1.44468,0.93815 -1.44095,1.90447 z" inkscape:connector-curvature="0" />
        <path style="color:#000000;font-style:normal;font-variant:normal;font-weight:normal;font-stretch:normal;font-size:medium;line-height:normal;font-family:sans-serif;text-indent:0;text-align:start;text-decoration:none;text-decoration-line:none;text-decoration-style:solid;text-decoration-color:#000000;letter-spacing:normal;word-spacing:normal;text-transform:none;direction:ltr;block-progression:tb;writing-mode:lr-tb;baseline-shift:baseline;text-anchor:start;white-space:normal;clip-rule:nonzero;display:inline;overflow:visible;visibility:visible;opacity:1;isolation:auto;mix-blend-mode:normal;color-interpolation:sRGB;color-interpolation-filters:linearRGB;solid-color:#000000;solid-opacity:1;fill:#000000;fill-opacity:1;fill-rule:nonzero;stroke:none;stroke-width:0.49999997;stroke-linecap:butt;stroke-linejoin:miter;stroke-miterlimit:4;stroke-dasharray:none;stroke-dashoffset:0;stroke-opacity:1;color-rendering:auto;image-rendering:auto;shape-rendering:auto;text-rendering:auto;enable-background:accumulate" d="m 100.65625,276.60942 c -0.85308,-0.0126 -2.0994,0.19349 -2.75586,0.39844 -1.86941,0.58365 -2.83514,1.247 -3.88476,2.72657 -0.44,0.76902 -1.06058,1.73123 -0.99181,3.39023 0.058,1.39821 1.39651,3.32249 1.12006,4.24558 -0.10938,0.36524 -0.0785,0.6196 0.30526,1.01848 1.20238,1.37095 1.90562,2.41351 1.91019,3.23239 -0.008,0.23436 0.045,0.42743 0.24414,0.44141 2.80929,0.37265 5.12783,0.29481 7.9453,0.08 0.21185,-0.008 0.29297,-0.1875 0.29297,-0.39063 0.19662,-1.54374 0.9314,-2.00835 1.9863,-3.07614 0.28784,-0.27357 0.62427,-0.65332 0.29883,-1.33789 -0.23102,-0.48596 0.92245,-2.47356 1.06055,-3.55859 0.14911,-1.17151 -0.15793,-2.26393 -0.5293,-3.10157 -0.88762,-1.84613 -1.94831,-2.7592 -3.86523,-3.52929 -0.93109,-0.37405 -2.26053,-0.52603 -3.13664,-0.53899 z m -0.043,0.46285 c 1.09915,0.0507 2.08553,0.14066 3.01172,0.51567 1.72448,0.69823 2.70048,1.44439 3.55078,3.21288 0.36939,0.76826 0.69557,1.73619 0.54493,2.99415 -0.2428,1.03053 -1.05425,2.50934 -1.02149,3.02539 0,0 -0.0861,-0.15602 -0.21289,-0.41601 -0.18281,-0.37493 -0.21233,-0.57486 -0.27149,-1.11328 -0.0268,-0.24371 -0.29862,-0.32626 -0.29296,-0.22657 0.0416,0.73466 0.10464,1.0742 0.24804,1.5918 0.10978,0.39625 0.43528,0.73247 0.46485,1.14258 0.009,0.12977 -0.0461,0.34222 -0.13868,0.43359 -1.26028,1.19619 -2.08802,2.47382 -2.17578,3.43356 -2.51398,0.3381 -4.97436,0.2315 -7.47461,-0.0937 -0.14518,-1.85044 -1.10626,-2.38298 -2.14453,-3.76949 -0.18886,-0.25326 0.28842,-0.85838 0.40236,-1.26172 0.1228,-0.43469 0.32716,-0.88898 0.22258,-1.5508 -0.0245,-0.15513 -0.22882,0.13848 -0.28125,0.41603 -0.11651,0.61664 -0.28224,0.85172 -0.51435,1.37048 -0.0721,-1.12896 -0.74529,-2.04641 -0.91036,-3.0504 -0.28321,-1.72251 0.14892,-2.51897 0.80286,-3.6236 0.72882,-1.23113 1.99799,-2.15947 3.63348,-2.63984 0.72356,-0.21252 1.87504,-0.42215 2.55679,-0.39072 z" inkscape:connector-curvature="0" />
        <path style="color:#000000;font-style:normal;font-variant:normal;font-weight:normal;font-stretch:normal;font-size:medium;line-height:normal;font-family:sans-serif;text-indent:0;text-align:start;text-decoration:none;text-decoration-line:none;text-decoration-style:solid;text-decoration-color:#000000;letter-spacing:normal;word-spacing:normal;text-transform:none;direction:ltr;block-progression:tb;writing-mode:lr-tb;baseline-shift:baseline;text-anchor:start;white-space:normal;clip-rule:nonzero;display:inline;overflow:visible;visibility:visible;opacity:1;isolation:auto;mix-blend-mode:normal;color-interpolation:sRGB;color-interpolation-filters:linearRGB;solid-color:#000000;solid-opacity:1;fill:#000000;fill-opacity:1;fill-rule:nonzero;stroke:none;stroke-width:0.49999997;stroke-linecap:butt;stroke-linejoin:miter;stroke-miterlimit:4;stroke-dasharray:none;stroke-dashoffset:0;stroke-opacity:1;color-rendering:auto;image-rendering:auto;shape-rendering:auto;text-rendering:auto;enable-background:accumulate" d="m 97.6294,290.74837 c 0.0146,1.13412 -0.0956,1.27773 -0.0956,1.27773 l 0.61964,-0.048 c 0,0 -0.0652,-0.2374 -0.0975,-1.11199 -0.005,-0.1474 -0.42845,-0.26523 -0.42655,-0.11774 z" inkscape:connector-curvature="0" />
        <path style="color:#000000;font-style:normal;font-variant:normal;font-weight:normal;font-stretch:normal;font-size:medium;line-height:normal;font-family:sans-serif;text-indent:0;text-align:start;text-decoration:none;text-decoration-line:none;text-decoration-style:solid;text-decoration-color:#000000;letter-spacing:normal;word-spacing:normal;text-transform:none;direction:ltr;block-progression:tb;writing-mode:lr-tb;baseline-shift:baseline;text-anchor:start;white-space:normal;clip-rule:nonzero;display:inline;overflow:visible;visibility:visible;opacity:1;isolation:auto;mix-blend-mode:normal;color-interpolation:sRGB;color-interpolation-filters:linearRGB;solid-color:#000000;solid-opacity:1;fill:#000000;fill-opacity:1;fill-rule:nonzero;stroke:none;stroke-width:0.49999997;stroke-linecap:butt;stroke-linejoin:miter;stroke-miterlimit:4;stroke-dasharray:none;stroke-dashoffset:0;stroke-opacity:1;color-rendering:auto;image-rendering:auto;shape-rendering:auto;text-rendering:auto;enable-background:accumulate" d="m 99.05443,290.95071 c 0.0466,0.86236 -0.0404,1.24458 -0.0404,1.24458 l 0.53125,-0.0811 c 0,0 -0.054,-0.23486 -0.0422,-1.1341 0.002,-0.1427 -0.40962,-0.22457 -0.4376,-0.0846 z" inkscape:connector-curvature="0" />
        <path style="color:#000000;font-style:normal;font-variant:normal;font-weight:normal;font-stretch:normal;font-size:medium;line-height:normal;font-family:sans-serif;text-indent:0;text-align:start;text-decoration:none;text-decoration-line:none;text-decoration-style:solid;text-decoration-color:#000000;letter-spacing:normal;word-spacing:normal;text-transform:none;direction:ltr;block-progression:tb;writing-mode:lr-tb;baseline-shift:baseline;text-anchor:start;white-space:normal;clip-rule:nonzero;display:inline;overflow:visible;visibility:visible;opacity:1;isolation:auto;mix-blend-mode:normal;color-interpolation:sRGB;color-interpolation-filters:linearRGB;solid-color:#000000;solid-opacity:1;fill:#000000;fill-opacity:1;fill-rule:nonzero;stroke:none;stroke-width:0.49999997;stroke-linecap:butt;stroke-linejoin:miter;stroke-miterlimit:4;stroke-dasharray:none;stroke-dashoffset:0;stroke-opacity:1;color-rendering:auto;image-rendering:auto;shape-rendering:auto;text-rendering:auto;enable-background:accumulate" d="m 100.4009,290.99111 c 0.0202,0.9611 -0.0846,1.25563 -0.0846,1.25563 l 0.60859,-0.11428 c 0,0 -0.11429,-0.11132 -0.0532,-1.12305 0.0103,-0.17158 -0.47427,-0.19016 -0.47066,-0.0183 z" inkscape:connector-curvature="0" />
        <path style="color:#000000;font-style:normal;font-variant:normal;font-weight:normal;font-stretch:normal;font-size:medium;line-height:normal;font-family:sans-serif;text-indent:0;text-align:start;text-decoration:none;text-decoration-line:none;text-decoration-style:solid;text-decoration-color:#000000;letter-spacing:normal;word-spacing:normal;text-transform:none;direction:ltr;block-progression:tb;writing-mode:lr-tb;baseline-shift:baseline;text-anchor:start;white-space:normal;clip-rule:nonzero;display:inline;overflow:visible;visibility:visible;opacity:1;isolation:auto;mix-blend-mode:normal;color-interpolation:sRGB;color-interpolation-filters:linearRGB;solid-color:#000000;solid-opacity:1;fill:#000000;fill-opacity:1;fill-rule:nonzero;stroke:none;stroke-width:0.49999997;stroke-linecap:butt;stroke-linejoin:miter;stroke-miterlimit:4;stroke-dasharray:none;stroke-dashoffset:0;stroke-opacity:1;color-rendering:auto;image-rendering:auto;shape-rendering:auto;text-rendering:auto;enable-background:accumulate" d="m 101.7947,291.02458 c 0.0146,1.13412 -0.0957,1.1562 -0.0957,1.1562 l 0.61964,-0.048 c 0,0 -0.0653,-0.24845 -0.0974,-1.12304 -0.005,-0.1474 -0.42845,-0.13265 -0.42655,0.0148 z" inkscape:connector-curvature="0" />
        <path style="color:#000000;font-style:normal;font-variant:normal;font-weight:normal;font-stretch:normal;font-size:medium;line-height:normal;font-family:sans-serif;text-indent:0;text-align:start;text-decoration:none;text-decoration-line:none;text-decoration-style:solid;text-decoration-color:#000000;letter-spacing:normal;word-spacing:normal;text-transform:none;direction:ltr;block-progression:tb;writing-mode:lr-tb;baseline-shift:baseline;text-anchor:start;white-space:normal;clip-rule:nonzero;display:inline;overflow:visible;visibility:visible;opacity:1;isolation:auto;mix-blend-mode:normal;color-interpolation:sRGB;color-interpolation-filters:linearRGB;solid-color:#000000;solid-opacity:1;fill:#000000;fill-opacity:1;fill-rule:nonzero;stroke:none;stroke-width:0.49999997;stroke-linecap:butt;stroke-linejoin:miter;stroke-miterlimit:4;stroke-dasharray:none;stroke-dashoffset:0;stroke-opacity:1;color-rendering:auto;image-rendering:auto;shape-rendering:auto;text-rendering:auto;enable-background:accumulate" d="m 103.054,291.017 c 0.0466,0.86236 -0.0625,1.112 -0.0625,1.112 l 0.53125,-0.0811 c 0,0 -0.054,-0.16857 -0.0422,-1.06781 0.002,-0.1427 -0.43425,-0.1056 -0.42655,0.0369 z" inkscape:connector-curvature="0" />
      </g>
    </g>
  </g>
</g>
<g inkscape:groupmode="layer" id="edge_guides_layer" inkscape:label="Edges" style="display:none" sodipodi:insensitive="true" >
  <g id="guide0-1" transform="" >
    <rect x="156.475" y="-22.5" width="90.125" height="22.5" style="fill:#ffd291;stroke:#000000;stroke-width:0.9" />
    <rect x="164.1" y="-22.5" width="82.5" height="22.5" style="fill:#b4e982;stroke:#000000;stroke-width:0.9" />
    <rect x="178.975" y="-22.5" width="67.625" height="22.5" style="fill:#5adc4f;stroke:#000000;stroke-width:0.9" />
    <rect x="0" y="-22.5" width="156.475" height="22.5" style="fill:#b9deff;stroke:#000000;stroke-width:0.9" />
    <rect x="0" y="-22.5" width="114.5" height="22.5" style="fill:#9bceff;stroke:#000000;stroke-width:0.9" />
    <rect x="0" y="-22.5" width="66.25" height="22.5" style="fill:#73baff;stroke:#000000;stroke-width:0.9" />
    <path style="display:inline;fill:none;stroke:#000000;stroke-width:2;stroke-linecap:round;stroke-miterlimit:4;stroke-dasharray:0.1, 5;stroke-dashoffset:0;stroke-opacity:1" d="m 86.25,0 0,-22.5" inkscape:connector-curvature="0" />
  </g>
  <g id="guide1-6" transform="matrix(0,1,-1,0,246.6,0)" >
    <rect x="0" y="-22.5" width="164.875" height="22.5" style="fill:#ffd291;stroke:#000000;stroke-width:0.9" />
    <rect x="0" y="-22.5" width="148" height="22.5" style="fill:#b4e982;stroke:#000000;stroke-width:0.9" />
    <rect x="0" y="-22.5" width="43.5" height="22.5" style="fill:#5adc4f;stroke:#000000;stroke-width:0.9" />
    <rect x="54.75" y="-22.5" width="39.5" height="22.5" style="fill:#5adc4f;stroke:#000000;stroke-width:0.9" />
    <rect x="105.5" y="-22.5" width="49.5" height="22.5" style="fill:#5adc4f;stroke:#000000;stroke-width:0.9" />
    <rect x="164.875" y="-22.5" width="81.725" height="22.5" style="fill:#b9deff;stroke:#000000;stroke-width:0.9" />
    <rect x="187.975" y="-22.5" width="58.625" height="22.5" style="fill:#9bceff;stroke:#000000;stroke-width:0.9" />
    <rect x="210.1" y="-22.5" width="36.5" height="22.5" style="fill:#73baff;stroke:#000000;stroke-width:0.9" />
    <path style="display:inline;fill:none;stroke:#000000;stroke-width:2;stroke-linecap:round;stroke-miterlimit:4;stroke-dasharray:0.1, 5;stroke-dashoffset:0;stroke-opacity:1" d="m 86.25,0 0,-22.5" inkscape:connector-curvature="0" />
  </g>
  <g id="guide2-1" transform="matrix(-1,0,0,-1,246.6,246.6)" >
    <rect x="156.475" y="-22.5" width="90.125" height="22.5" style="fill:#ffd291;stroke:#000000;stroke-width:0.9" />
    <rect x="164.1" y="-22.5" width="82.5" height="22.5" style="fill:#b4e982;stroke:#000000;stroke-width:0.9" />
    <rect x="178.975" y="-22.5" width="67.625" height="22.5" style="fill:#5adc4f;stroke:#000000;stroke-width:0.9" />
    <rect x="0" y="-22.5" width="156.475" height="22.5" style="fill:#b9deff;stroke:#000000;stroke-width:0.9" />
    <rect x="0" y="-22.5" width="114.5" height="22.5" style="fill:#9bceff;stroke:#000000;stroke-width:0.9" />
    <rect x="0" y="-22.5" width="66.25" height="22.5" style="fill:#73baff;stroke:#000000;stroke-width:0.9" />
    <path style="display:inline;fill:none;stroke:#000000;stroke-width:2;stroke-linecap:round;stroke-miterlimit:4;stroke-dasharray:0.1, 5;stroke-dashoffset:0;stroke-opacity:1" d="m 86.25,0 0,-22.5" inkscape:connector-curvature="0" />
  </g>
  <g id="guide3-6" transform="matrix(0,-1,1,0,0,246.6)" >
    <rect x="0" y="-22.5" width="164.875" height="22.5" style="fill:#ffd291;stroke:#000000;stroke-width:0.9" />
    <rect x="0" y="-22.5" width="148" height="22.5" style="fill:#b4e982;stroke:#000000;stroke-width:0.9" />
    <rect x="0" y="-22.5" width="43.5" height="22.5" style="fill:#5adc4f;stroke:#000000;stroke-width:0.9" />
    <rect x="54.75" y="-22.5" width="39.5" height="22.5" style="fill:#5adc4f;stroke:#000000;stroke-width:0.9" />
    <rect x="105.5" y="-22.5" width="49.5" height="22.5" style="fill:#5adc4f;stroke:#000000;stroke-width:0.9" />
    <rect x="164.875" y="-22.5" width="81.725" height="22.5" style="fill:#b9deff;stroke:#000000;stroke-width:0.9" />
    <rect x="187.975" y="-22.5" width="58.625" height="22.5" style="fill:#9bceff;stroke:#000000;stroke-width:0.9" />
    <rect x="210.1" y="-22.5" width="36.5" height="22.5" style="fill:#73baff;stroke:#000000;stroke-width:0.9" />
    <path style="display:inline;fill:none;stroke:#000000;stroke-width:2;stroke-linecap:round;stroke-miterlimit:4;stroke-dasharray:0.1, 5;stroke-dashoffset:0;stroke-opacity:1" d="m 86.25,0 0,-22.5" inkscape:connector-curvature="0" />
  </g>
</g>
<g inkscape:groupmode="layer" id="id_layer" inkscape:label="Card ID" style="display:none" sodipodi:insensitive="true" >
  <text xml:space="preserve" x="19.7" y="27.3" style="font-style:normal;font-variant:normal;font-weight:normal;font-stretch:normal;font-size:9px;line-height:125%;font-family:CCTreasureTrove;-inkscape-font-specification:'CCTreasureTrove, Normal';text-align:start;letter-spacing:0px;word-spacing:0px;writing-mode:lr-tb;text-anchor:start;display:inline;fill:#606060;fill-opacity:1;stroke:none;stroke-width:1px;stroke-linecap:butt;stroke-linejoin:miter;stroke-opacity:1" 
>1616b</text></g>
<g inkscape:groupmode="layer" id="cut_layer" inkscape:label="Cut Line" style="display:none" sodipodi:insensitive="true" >
  <rect id="cut-line" x="11.25" y="11.25" width="224.5" height="224.5" style="fill:none;stroke:#000000;stroke-width:0.5;stroke-linecap:butt;stroke-linejoin:bevel;stroke-miterlimit:4;stroke-dasharray:none;stroke-opacity:1" ry="11.338962" />
</g>
<g inkscape:groupmode="layer" id="page_border_layer" inkscape:label="Page Border" style="display:none" sodipodi:insensitive="true" >
  <rect x="0" y="0" width="246.6" height="246.6" style="fill:none;stroke:#000000;stroke-width:0.5;stroke-linecap:butt;stroke-linejoin:bevel;stroke-miterlimit:4;stroke-dasharray:none;stroke-opacity:1" />
</g>

</svg>
