<?xml version="1.0" encoding="UTF-8" standalone="no"?>
<svg version="1.1" height="246.6" width="246.6" inkscape:version="0.91 r13725" xmlns:rdf="http://www.w3.org/1999/02/22-rdf-syntax-ns#" xmlns="http://www.w3.org/2000/svg" xmlns:cc="http://creativecommons.org/ns#" xmlns:xlink="http://www.w3.org/1999/xlink" xmlns:dc="http://purl.org/dc/elements/1.1/" xmlns:sodipodi="http://sodipodi.sourceforge.net/DTD/sodipodi-0.dtd" xmlns:svg="http://www.w3.org/2000/svg" xmlns:inkscape="http://www.inkscape.org/namespaces/inkscape">
<metadata>
  <rdf:RDF>
    <cc:Work rdf:about="">
      <dc:format>image/svg+xml</dc:format>
      <dc:type rdf:resource="http://purl.org/dc/dcmitype/StillImage"/>
      <dc:title/>
      <dc:creator>
        <cc:Agent><dc:title>Gary Kacmarcik</dc:title></cc:Agent>
      </dc:creator>
    </cc:Work>
  </rdf:RDF>
</metadata>

<defs>
  <filter inkscape:collect="always" inkscape:label="blurWaterDeep" style="color-interpolation-filters:sRGB" id="blurWaterDeep" x="-0.056691" y="-0.041620" width="1.113381" height="1.083239">
    <feGaussianBlur inkscape:collect="always" stdDeviation="6.919136" />
  </filter>
  <filter inkscape:collect="always" inkscape:label="blurWaterShallow" style="color-interpolation-filters:sRGB" id="blurWaterShallow" x="-0.055818" y="-0.042103" width="1.111637" height="1.084205">
    <feGaussianBlur inkscape:collect="always" stdDeviation="6.561501" />
  </filter>
  <filter inkscape:collect="always" inkscape:label="blurWaterHilight" style="color-interpolation-filters:sRGB" id="blurWaterHilight" x="-0.250000" y="-0.250000" width="1.500000" height="1.500000">
    <feGaussianBlur inkscape:collect="always" stdDeviation="6.857532" />
  </filter>
  <filter inkscape:collect="always" inkscape:label="blurGrass" style="color-interpolation-filters:sRGB" id="blurGrass" x="-0.100000" y="-0.100000" width="1.200000" height="1.200000">
    <feGaussianBlur inkscape:collect="always" stdDeviation="0.800000" />
  </filter>
  <filter inkscape:collect="always" inkscape:label="blurForestShadow" style="color-interpolation-filters:sRGB" id="blurForestShadow" x="-0.100000" y="-0.100000" width="1.200000" height="1.200000">
    <feGaussianBlur inkscape:collect="always" stdDeviation="0.800000" />
  </filter>
  <filter inkscape:collect="always" inkscape:label="blurFlowerInner" style="color-interpolation-filters:sRGB" id="blurFlowerInner" x="-0.420000" y="-0.420000" width="1.840000" height="1.840000">
    <feGaussianBlur inkscape:collect="always" stdDeviation="1.605540" />
  </filter>
  <filter inkscape:collect="always" inkscape:label="blurFlowerMiddle" style="color-interpolation-filters:sRGB" id="blurFlowerMiddle" x="-0.240000" y="-0.240000" width="1.480000" height="1.480000">
    <feGaussianBlur inkscape:collect="always" stdDeviation="1.933705" />
  </filter>
  <linearGradient id="gradientStopsFish" inkscape:collect="always">
    <stop offset="0.000000" style="stop-color:#ff5555;stop-opacity:1.000000" />
    <stop offset="1.000000" style="stop-color:#ffffff;stop-opacity:1.000000" />
  </linearGradient>
  <linearGradient id="gradientStopsCoconut" inkscape:collect="always">
    <stop offset="0.000000" style="stop-color:#ffffff;stop-opacity:1.000000" />
    <stop offset="1.000000" style="stop-color:#c8c8c8;stop-opacity:0.000000" />
  </linearGradient>
  <linearGradient id="gradientStopsFlower" inkscape:collect="always">
    <stop offset="0.000000" style="stop-color:#b16dff;stop-opacity:1.000000" />
    <stop offset="1.000000" style="stop-color:#e7d2ff;stop-opacity:1.000000" />
  </linearGradient>
  <linearGradient id="gradientFish" xlink:href="#gradientStopsFish" x1="178.789090" y1="-114.782830" x2="180.407300" y2="-103.782830" gradientTransform="translate(-178.76256,1.0606602)" gradientUnits="userSpaceOnUse" inkscape:collect="always" />
  <radialGradient id="gradientCoconut" xlink:href="#gradientStopsCoconut" cx="1.944096" cy="-60.612652" fx="1.944096" fy="-60.612652" r="6.723294" gradientUnits="userSpaceOnUse" gradientTransform="matrix(1.691364,-0.31394812,0.29762395,1.603419,17.826033,-7.042221)" inkscape:collect="always" />
  <radialGradient id="gradientFlower" xlink:href="#gradientStopsFlower" cx="60.884877" cy="-69.652750" fx="60.884877" fy="-69.652750" r="15.835310" gradientUnits="userSpaceOnUse" gradientTransform="matrix(0.8413905,0,0,0.87120012,-50.722984,-48.679159)" inkscape:collect="always" />
</defs>

<sodipodi:namedview
    id="base"
    pagecolor="#ffffff"
    bordercolor="#666666"
    borderopacity="1.0"
    inkscape:pageopacity="0.0"
    inkscape:pageshadow="2"
    inkscape:zoom="2"
    inkscape:cx="115.37643"
    inkscape:cy="285.04449"
    inkscape:document-units="in"
    showgrid="true"
    units="in"
    inkscape:window-width="1392"
    inkscape:window-height="836"
    inkscape:window-x="39"
    inkscape:window-y="6"
    inkscape:window-maximized="0"
    inkscape:snap-grids="true"
    inkscape:snap-to-guides="true"
    inkscape:snap-nodes="true"
    inkscape:object-nodes="true"
    inkscape:snap-smooth-nodes="true"
    inkscape:snap-intersection-paths="true"
    inkscape:object-paths="true"
    inkscape:snap-bbox="true"
    inkscape:bbox-nodes="true"
    inkscape:snap-others="true"
    inkscape:bbox-paths="false"
    inkscape:snap-global="true" >
  <inkscape:grid
    type="xygrid"
    id="grid3051"
    empspacing="2"
    visible="true"
    enabled="true"
    snapvisiblegridlinesonly="true"
    spacingx="0.0625in"
    spacingy="0.0625in"
    dotted="false"
    units="in" />
</sodipodi:namedview>
<g inkscape:groupmode="layer" id="water_layer" inkscape:label="Water" style="display:inline" sodipodi:insensitive="true" >
  <rect id="water" x="0" y="0" width="246.6" height="246.6" style="fill:#b9deff;fill-opacity:1;stroke:none" />
</g>
<g inkscape:groupmode="layer" id="water_medium_layer" inkscape:label="Water Shallow" style="display:inline" sodipodi:insensitive="true" >
  <path style="fill:#9bd1ff;fill-opacity:0.70;fill-rule:evenodd;stroke:none;filter:url(#blurWaterShallow)" d="M 11.050781,-8.9492188 -8.9492188,11.050781 -8.95,57.92496 l 20.000001,0 19.254687,1.797696 24.748046,-2.021484 19.890625,-8.539063 24.050782,-8.632812 14.805809,-29.479316 0,-20.000001 z M 214.15234,185.48633 l -22.22265,11.61523 -4.54688,15.65821 1.29217,22.79025 0,20 46.8758,7.6e-4 20,-20 -7.8e-4,-46.87578 -20,0 z" inkscape:connector-curvature="0" />
</g>
<g inkscape:groupmode="layer" id="water_deep_layer" inkscape:label="Water Deep" style="display:inline" sodipodi:insensitive="true" >
  <path style="fill:#87c8ff;fill-opacity:0.60;fill-rule:evenodd;stroke:none;filter:url(#blurWaterDeep)" d="M 11.050781,-8.9492188 -8.9492188,11.050781 -8.95,35.79996 l 20.000001,0 21.920702,-0.514804 23.091797,-6.373047 9.48745,-17.862128 0,-20.000001 z M 217.39648,208.76172 l -7.28515,11.57422 0.68865,15.21408 0,20 24.7508,7.6e-4 20,-20 L 255.55,210.8 l -20,0 z" inkscape:connector-curvature="0" />
</g>
<g inkscape:groupmode="layer" id="water_hilight_layer" inkscape:label="Water Hilight" style="display:inline" sodipodi:insensitive="true" >
  <use xlink:href="#shoreline" height="100%" width="100%" x="0" y="0" style="display:inline;fill:#ffffff;fill-opacity:1;stroke:#ffffff;stroke-opacity:1;filter:url(#blurWaterHilight)" />
</g>
<g inkscape:groupmode="layer" id="shoreline_layer" inkscape:label="Shoreline" style="display:inline" sodipodi:insensitive="true" >
  <use xlink:href="#shoreline" height="100%" width="100%" x="0" y="0" style="display:inline;fill:#ffddab;fill-opacity:1;stroke:#5f4c14;stroke-width:1;stroke-miterlimit:4;stroke-dasharray:none;stroke-opacity:1" />
</g>
<g inkscape:groupmode="layer" id="shoreline_master_layer" inkscape:label="Shoreline Master" style="display:none" sodipodi:insensitive="true" >
  <path id="shoreline" style="color:#000000;clip-rule:nonzero;display:inline;overflow:visible;visibility:visible;opacity:1;isolation:auto;mix-blend-mode:normal;color-interpolation:sRGB;color-interpolation-filters:linearRGB;solid-color:#000000;solid-opacity:1;fill-opacity:1;fill-rule:evenodd;color-rendering:auto;image-rendering:auto;shape-rendering:auto;text-rendering:auto;enable-background:accumulate" d="m 155.17495,11.049981 -1.45846,13.140397 2.51787,5.879934 -3.1836,17.84375 4.41992,35.980469 L 129.84889,106.57779 91.847656,105.43164 50.501953,91.152344 11.050001,80.42496 l -20.000001,0 7.812e-4,155.12582 19.9999998,20 155.124199,-7.6e-4 0,-20 -7.18789,-27.84929 1.66724,-27.94849 18.5132,-29.47921 23.93164,6.44725 32.45083,9.45472 20,0 3e-5,-155.12503 -20.00008,-19.99999 -80.375,0 z" inkscape:connector-curvature="0" />
</g>
<g inkscape:groupmode="layer" id="grass_layer" inkscape:label="Grass" style="display:inline" sodipodi:insensitive="true" >
  <use xlink:href="#grass" height="100%" width="100%" x="0" y="0" style="display:inline;fill:#b4e982;fill-opacity:1;stroke:none;stroke-width:1;stroke-miterlimit:4;stroke-dasharray:none;stroke-opacity:1" />
</g>
<g inkscape:groupmode="layer" id="grass_master_layer" inkscape:label="Grass Master" style="display:none" sodipodi:insensitive="true" >
  <path id="grass" style="color:#000000;clip-rule:nonzero;display:inline;overflow:visible;visibility:visible;opacity:1;isolation:auto;mix-blend-mode:normal;color-interpolation:sRGB;color-interpolation-filters:linearRGB;solid-color:#000000;solid-opacity:1;fill-opacity:1;fill-rule:evenodd;filter:url(#blurGrass);color-rendering:auto;image-rendering:auto;shape-rendering:auto;text-rendering:auto;enable-background:accumulate" d="m 164.79995,-8.95002 0,20.000001 0.53599,12.7508 -4.28516,16.070313 0.71289,16.25 7.32227,20.714844 -19.83121,33.349612 -43.31299,10.79385 -31.672209,-1.30557 -25.796875,-8.34766 -37.422655,-12.02621 -20.000001,0 7.812e-4,136.25082 19.9999998,20 136.249199,-7.6e-4 0,-20 -3.80779,-23.54611 5.8011,-20.61754 -3.24026,-13.72426 8.04075,-13.42787 12.27927,-21.84166 42.96875,-8.32031 26.2082,13.22773 20,0 3e-5,-136.25003 -20.00002,-19.99999 z" inkscape:connector-curvature="0" />
</g>
<g inkscape:groupmode="layer" id="forest_shadow_layer" inkscape:label="Forest Shadow" style="display:inline" sodipodi:insensitive="true" >
  <g style="filter:url(#blurForestShadow)" >
    <use xlink:href="#forest" height="100%" width="100%" x="0" y="0" style="display:inline;opacity:0.75;fill:#258c1b;fill-opacity:1" />
  </g>
</g>
<g inkscape:groupmode="layer" id="forest_fill_layer" inkscape:label="Forest Fill" style="display:inline" sodipodi:insensitive="true" >
  <use xlink:href="#forest" height="100%" width="100%" x="0" y="0" style="fill:#7ebd47;fill-opacity:1;fill-rule:nonzero;stroke:#496e28;stroke-width:0.5;stroke-linecap:round;stroke-linejoin:round;stroke-miterlimit:4;stroke-dasharray:none;stroke-dashoffset:0;stroke-opacity:1" />
</g>
<g inkscape:groupmode="layer" id="forest_master_layer" inkscape:label="Forest Master" style="display:none" sodipodi:insensitive="true" >
  <path id="forest" style="color:#000000;clip-rule:nonzero;display:inline;overflow:visible;visibility:visible;opacity:1;isolation:auto;mix-blend-mode:normal;color-interpolation:sRGB;color-interpolation-filters:linearRGB;solid-color:#000000;solid-opacity:1;fill-opacity:1;fill-rule:nonzero;color-rendering:auto;image-rendering:auto;shape-rendering:auto;text-rendering:auto;enable-background:accumulate" d="M 206.05253,88.006052 235.55,80.8 l 20,0 0,-27.75 -20,0 L 213.24986,46.968605 235.55,42.8 l 20,0 3e-5,-31.75003 -20.00002,-19.99999 -55.87506,0 0,20.000001 1.65708,11.463691 -0.89258,10 10,3.929687 -0.35742,11.25 -8.92773,12.320313 14.04115,28.609679 z m -3.3787,21.384568 17.67383,15.17188 15.20234,4.2375 20,0 0,-37.75 -20,0 -25.01286,14.99848 z m -111.623855,126.1594 0,20 37.750005,0 0,-20 -4.55779,-20.03635 -16.78516,-9.49414 -2.29675,9.37894 z M 94.279297,188.31445 79.97343,175.9926 58.716963,161.81 l -13.371264,1.45242 -34.295698,2.53754 -20.000001,0 0,27.75 20.000001,0 22.047598,4.31018 -22.047598,5.93982 -20.000001,0 7.812e-4,31.75082 19.9999998,20 31.749194,-7.6e-4 0,-20 3.955418,-9.20584 -11.711705,-13.66312 9.457417,1.85378 2.976064,-10.5026 2.981013,7.58042 7.41909,-0.94051 -4.996748,5.63353 3.95036,4.577 -5.168029,4.17796 1.38712,10.48938 0,20 27.75,0 0,-20 2.790148,-29.37121 -2.672291,-8.15509 z m -38.352346,-50.20596 -22.723826,-8.48154 -22.153124,-11.82699 -20.000001,0 0,37.75 20.000001,0 32.072732,-11.22823 z" inkscape:connector-curvature="0" />
</g>
<g inkscape:groupmode="layer" id="routes_layer" inkscape:label="Routes" style="display:inline" sodipodi:insensitive="true" >
  <path style="display:inline;fill:none;stroke:#000000;stroke-width:2;stroke-linecap:round;stroke-miterlimit:4;stroke-dasharray:0.1, 5;stroke-dashoffset:0;stroke-opacity:1" d="m 255.55,85.883336 -20,0 C 193.62867,85.378256 163.86298,151.86115 124.13023,140.04728 84.397475,128.23341 51.456104,163.74708 11.050001,160.71662 l -20,0 m 94.83331,94.8334 0,-20 c -0.50508,-41.92133 27.633069,-54.60372 18.092039,-94.58901 m 4.54568,-68.185293 C 93.424175,59.054402 85.883282,34.28349 85.88328,11.049981 l 0,-20.000001" inkscape:connector-curvature="0" />
</g>
<g inkscape:groupmode="layer" id="labels_layer" inkscape:label="Labels" style="display:inline" sodipodi:insensitive="true" >
  <text xml:space="preserve" style="font-style:normal;font-variant:normal;font-weight:normal;font-stretch:normal;font-size:10px;line-height:125%;font-family:CCTreasureTrove;-inkscape-font-specification:'CCTreasureTrove, Normal';text-align:start;letter-spacing:0px;word-spacing:0px;writing-mode:lr-tb;text-anchor:start;display:inline;fill:#5d481b;fill-opacity:1;stroke:none;stroke-width:1px;stroke-linecap:butt;stroke-linejoin:miter;stroke-opacity:1"><textPath xlink:href="#label-path"
>Unused</textPath></text>
</g>
<g inkscape:groupmode="layer" id="labels_guide_layer" inkscape:label="Labels Guide" style="display:none" sodipodi:insensitive="true" >
  <path id="label-path" style="color:#000000;fill:none;stroke:#000000;stroke-width:1;stroke-opacity:1" d="M 100.50875,94.574202 C 77.045004,69.85956 50.152393,65.487699 27.779307,64.268342" inkscape:connector-curvature="0" />
</g>
<g inkscape:groupmode="layer" id="resources_layer" inkscape:label="Resources" style="display:inline" sodipodi:insensitive="true" >
  <g id="resource-turtle" transform="matrix(-0.55469152,0.83205608,-0.83205608,-0.55469152,17.391046,13.530068)" >
    <path style="fill:#acf398;fill-opacity:1;fill-rule:evenodd;stroke:#000000;stroke-width:0.89999998;stroke-linecap:round;stroke-linejoin:miter;stroke-miterlimit:4;stroke-dasharray:none;stroke-opacity:1" d="m -13.200987,-100.29637 c 0.383554,0.976603 3.233916,-2.12106 6.131249,-1.42702 1.332863,0.31928 0.882122,-3.09205 -0.399356,-3.57815 -2.371651,-0.89961 -6.659154,2.64419 -5.731893,5.00517 z" inkscape:connector-curvature="0" />
    <path style="fill:#acf398;fill-opacity:1;fill-rule:evenodd;stroke:#000000;stroke-width:0.89999998;stroke-linecap:round;stroke-linejoin:miter;stroke-miterlimit:4;stroke-dasharray:none;stroke-opacity:1" d="m 0.519205,-98.947277 c -1.160888,-0.35295 2.907731,-2.472353 3.949394,-1.850123 1.642844,0.981343 2.297204,4.963396 0.372373,6.157721 -0.745218,0.462395 -0.785725,-3.232509 -4.321767,-4.307598 z" inkscape:connector-curvature="0" />
    <path style="fill:#acf398;fill-opacity:1;fill-rule:evenodd;stroke:#000000;stroke-width:0.89999998;stroke-linecap:round;stroke-linejoin:miter;stroke-miterlimit:4;stroke-dasharray:none;stroke-opacity:1" d="m 7.618715,-114.43269 c 1.934345,-0.44611 4.329746,-0.0993 5.914203,1.00302 2.013049,1.40054 2.917028,5.29708 1.897177,7.52728 -0.282844,0.61852 -3.514643,-5.32749 -6.150465,-4.42389 -1.839455,0.63059 -2.536626,0.15372 -3.169919,-1.68481 -0.27477,-0.79769 0.686895,-2.232 1.509004,-2.4216 z" inkscape:connector-curvature="0" />
    <path style="fill:#acf398;fill-opacity:1;fill-rule:evenodd;stroke:#000000;stroke-width:0.89999998;stroke-linecap:round;stroke-linejoin:miter;stroke-miterlimit:4;stroke-dasharray:none;stroke-opacity:1" d="m -13.605402,-118.51893 c 1.434388,-2.65109 5.159923,-3.50053 7.13722,-3.29637 1.742717,0.17994 3.474416,1.88524 3.953288,3.57051 0.312727,1.10056 -0.218032,2.84568 -1.315095,3.17046 -1.558665,0.46144 -1.358953,-1.39147 -2.644475,-2.38636 -2.809563,-2.17437 -7.671044,-0.06 -7.130938,-1.05824 z" inkscape:connector-curvature="0" />
    <path style="fill:#acf398;fill-opacity:1;fill-rule:evenodd;stroke:#000000;stroke-width:0.89999998;stroke-linecap:round;stroke-linejoin:miter;stroke-miterlimit:4;stroke-dasharray:none;stroke-opacity:1" d="m 1.574508,-116.64822 c -0.973346,-1.40454 -0.400278,-3.52894 -0.15625,-5.22027 0.277861,-1.92582 2.436935,-3.39132 3.77573,-3.50612 0.998071,-0.0856 1.511263,0.0552 2.026651,0.91421 0.545706,0.90951 1.17564,3.12771 0.125,4.74448 -0.918312,1.41314 -1.826689,3.21256 -3.442704,3.69086 -0.965518,0.28577 -1.75489,0.20445 -2.328427,-0.62316 z" inkscape:connector-curvature="0" />
    <path style="fill:#acf398;fill-opacity:1;fill-rule:evenodd;stroke:#000000;stroke-width:0.89999998;stroke-linecap:round;stroke-linejoin:miter;stroke-miterlimit:4;stroke-dasharray:none;stroke-opacity:1" d="m -4.37156,-100.05265 c -1.568711,0.833903 -1.519982,4.156989 -0.84283,4.365801 0.803045,0.247633 2.774585,-2.210096 2.390927,-3.815868 -0.20218,-0.846213 -0.779871,-0.958313 -1.548097,-0.549933 z" inkscape:connector-curvature="0" />
    <path style="fill:#acf398;fill-opacity:1;fill-rule:evenodd;stroke:#000000;stroke-width:0.89999998;stroke-linecap:round;stroke-linejoin:miter;stroke-miterlimit:4;stroke-dasharray:none;stroke-opacity:1" d="m -7.212243,-116.3836 c 1.293667,-1.65845 3.629584,-2.72772 5.073491,-2.91682 3.87448,-0.50741 7.329249,0.88026 10.076271,3.65928 1.485686,1.503 2.189594,3.9511 1.909189,6.04576 -0.610927,4.56371 -3.547497,9.21538 -7.477655,11.614241 -1.864758,1.138194 -4.454815,1.340084 -6.523059,0.636396 -2.202234,-0.749276 -4.339874,-2.571424 -5.09117,-4.772977 -1.613498,-4.72808 -1.039758,-10.32676 2.032933,-14.26588 z" inkscape:connector-curvature="0" />
    <path style="color:#000000;clip-rule:nonzero;display:inline;overflow:visible;visibility:visible;opacity:1;isolation:auto;mix-blend-mode:normal;color-interpolation:sRGB;color-interpolation-filters:linearRGB;solid-color:#000000;solid-opacity:1;fill:none;fill-opacity:1;fill-rule:evenodd;stroke:#000000;stroke-width:0.63;stroke-linecap:butt;stroke-linejoin:miter;stroke-miterlimit:4;stroke-dasharray:none;stroke-dashoffset:0;stroke-opacity:1;color-rendering:auto;image-rendering:auto;shape-rendering:auto;text-rendering:auto;enable-background:accumulate" d="m -2.061438,-117.34644 -0.59283,-1.87446 m 9.785218,5.41 1.414213,-0.83969 m -3.270369,-3.0494 -0.883883,1.45841 m -3.005204,-2.91681 -0.322303,1.63785 m -4.980998,18.116938 -0.637024,1.851254 m 3.244481,-1.320924 0.145526,1.908392 m -5.139468,-3.85294 -1.276269,1.089694 m 0.0491,-3.679294 -1.793656,0.57452 m 1.06066,-3.30874 -1.531171,0.15311 m 1.679379,-3.00521 -1.861517,-0.2134 m 2.347653,-2.30567 -1.656171,-0.60309 m 2.761025,-2.09275 -1.312881,-0.89415 m 3.166356,-0.9571 -1.315562,-1.55438 m 7.32865,17.857125 0.826745,1.744559 m 1.382964,-3.026194 1.087008,1.317787 m 0.636565,-3.615877 1.440561,1.09413 m 0.238817,-3.48062 1.396368,0.61558 m -0.582567,-3.29357 1.567783,0.29327 m -1.419575,-3.1217 1.723572,-0.18483 m -10.817309,9.66873 0.486136,2.607453 m -4.02167,-3.756503 -1.59099,1.28163 m 5.833631,-13.21406 -0.309359,-2.38648 m 4.507806,3.7565 1.856155,-1.59099 m -10.69499,9.8553 -2.740039,-0.13258 m 3.447145,-3.88908 -3.18198,-1.23745 m 4.861359,-3.22617 -2.607456,-1.45841 m 6.452349,12.1534 2.209709,1.45841 m -0.04419,-5.03814 3.049398,1.19324 m -1.635185,-5.34749 2.872622,0.70711 m -9.766913,-0.83968 -0.486137,-2.78425 2.298097,-1.10485 4.021672,1.41421 0.839688,2.65165 -2.298097,1.19325 z m 4.507806,1.28162 0.928077,3.04939 -2.607455,1.28164 m -4.198448,-1.32583 -0.839689,-2.51907 2.298097,-1.76776 m -2.474873,7.95495 -0.574524,-2.34229 1.546796,-1.19324 4.154252,1.19324 0.530329,2.34229 -2.165513,1.19324 z m 3.310975,-14.48201 c -9.036509,1.02413 -9.686118,18.911215 0.316406,18.4082 7.293571,-1.28851 13.245425,-14.43065 4.082031,-17.65234 -1.373439,-0.61154 -2.89993,-0.86992 -4.398437,-0.75586 z" inkscape:connector-curvature="0" />
    <ellipse cx="-83.675232" cy="-91.031174" rx="0.393487" ry="0.537215" style="fill:#000000;fill-opacity:1;stroke:none" transform="matrix(0.71262218,0.70154802,-0.70154802,0.71262218,0,0)" />
    <ellipse cx="0.876442" cy="-122.849910" rx="0.393487" ry="0.537215" style="fill:#000000;fill-opacity:1;stroke:none" transform="matrix(0.99895236,0.04576232,-0.04576232,0.99895236,0,0)" />
  </g>
</g>
<g inkscape:groupmode="layer" id="edge_guides_layer" inkscape:label="Edges" style="display:none" sodipodi:insensitive="true" >
  <g id="guide0-1" transform="" >
    <rect x="156.475" y="-22.5" width="90.125" height="22.5" style="fill:#ffd291;stroke:#000000;stroke-width:0.9" />
    <rect x="164.1" y="-22.5" width="82.5" height="22.5" style="fill:#b4e982;stroke:#000000;stroke-width:0.9" />
    <rect x="178.975" y="-22.5" width="67.625" height="22.5" style="fill:#5adc4f;stroke:#000000;stroke-width:0.9" />
    <rect x="0" y="-22.5" width="156.475" height="22.5" style="fill:#b9deff;stroke:#000000;stroke-width:0.9" />
    <rect x="0" y="-22.5" width="114.5" height="22.5" style="fill:#9bceff;stroke:#000000;stroke-width:0.9" />
    <rect x="0" y="-22.5" width="66.25" height="22.5" style="fill:#73baff;stroke:#000000;stroke-width:0.9" />
    <path style="display:inline;fill:none;stroke:#000000;stroke-width:2;stroke-linecap:round;stroke-miterlimit:4;stroke-dasharray:0.1, 5;stroke-dashoffset:0;stroke-opacity:1" d="m 86.25,0 0,-22.5" inkscape:connector-curvature="0" />
  </g>
  <g id="guide1-6" transform="matrix(0,1,-1,0,246.6,0)" >
    <rect x="0" y="-22.5" width="164.875" height="22.5" style="fill:#ffd291;stroke:#000000;stroke-width:0.9" />
    <rect x="0" y="-22.5" width="148" height="22.5" style="fill:#b4e982;stroke:#000000;stroke-width:0.9" />
    <rect x="0" y="-22.5" width="43.5" height="22.5" style="fill:#5adc4f;stroke:#000000;stroke-width:0.9" />
    <rect x="54.75" y="-22.5" width="39.5" height="22.5" style="fill:#5adc4f;stroke:#000000;stroke-width:0.9" />
    <rect x="105.5" y="-22.5" width="49.5" height="22.5" style="fill:#5adc4f;stroke:#000000;stroke-width:0.9" />
    <rect x="164.875" y="-22.5" width="81.725" height="22.5" style="fill:#b9deff;stroke:#000000;stroke-width:0.9" />
    <rect x="187.975" y="-22.5" width="58.625" height="22.5" style="fill:#9bceff;stroke:#000000;stroke-width:0.9" />
    <rect x="210.1" y="-22.5" width="36.5" height="22.5" style="fill:#73baff;stroke:#000000;stroke-width:0.9" />
    <path style="display:inline;fill:none;stroke:#000000;stroke-width:2;stroke-linecap:round;stroke-miterlimit:4;stroke-dasharray:0.1, 5;stroke-dashoffset:0;stroke-opacity:1" d="m 86.25,0 0,-22.5" inkscape:connector-curvature="0" />
  </g>
  <g id="guide2-3" transform="matrix(-1,0,0,-1,246.6,246.6)" >
    <rect x="81.725" y="-22.5" width="164.875" height="22.5" style="fill:#ffd291;stroke:#000000;stroke-width:0.9" />
    <rect x="98.6" y="-22.5" width="148" height="22.5" style="fill:#b4e982;stroke:#000000;stroke-width:0.9" />
    <rect x="203.1" y="-22.5" width="43.5" height="22.5" style="fill:#5adc4f;stroke:#000000;stroke-width:0.9" />
    <rect x="152.35" y="-22.5" width="39.5" height="22.5" style="fill:#5adc4f;stroke:#000000;stroke-width:0.9" />
    <rect x="91.6" y="-22.5" width="49.5" height="22.5" style="fill:#5adc4f;stroke:#000000;stroke-width:0.9" />
    <rect x="0" y="-22.5" width="81.725" height="22.5" style="fill:#b9deff;stroke:#000000;stroke-width:0.9" />
    <rect x="0" y="-22.5" width="58.625" height="22.5" style="fill:#9bceff;stroke:#000000;stroke-width:0.9" />
    <rect x="0" y="-22.5" width="36.5" height="22.5" style="fill:#73baff;stroke:#000000;stroke-width:0.9" />
    <path style="display:inline;fill:none;stroke:#000000;stroke-width:2;stroke-linecap:round;stroke-miterlimit:4;stroke-dasharray:0.1, 5;stroke-dashoffset:0;stroke-opacity:1" d="m 161.25,0 0,-22.5" inkscape:connector-curvature="0" />
  </g>
  <g id="guide3-6" transform="matrix(0,-1,1,0,0,246.6)" >
    <rect x="0" y="-22.5" width="164.875" height="22.5" style="fill:#ffd291;stroke:#000000;stroke-width:0.9" />
    <rect x="0" y="-22.5" width="148" height="22.5" style="fill:#b4e982;stroke:#000000;stroke-width:0.9" />
    <rect x="0" y="-22.5" width="43.5" height="22.5" style="fill:#5adc4f;stroke:#000000;stroke-width:0.9" />
    <rect x="54.75" y="-22.5" width="39.5" height="22.5" style="fill:#5adc4f;stroke:#000000;stroke-width:0.9" />
    <rect x="105.5" y="-22.5" width="49.5" height="22.5" style="fill:#5adc4f;stroke:#000000;stroke-width:0.9" />
    <rect x="164.875" y="-22.5" width="81.725" height="22.5" style="fill:#b9deff;stroke:#000000;stroke-width:0.9" />
    <rect x="187.975" y="-22.5" width="58.625" height="22.5" style="fill:#9bceff;stroke:#000000;stroke-width:0.9" />
    <rect x="210.1" y="-22.5" width="36.5" height="22.5" style="fill:#73baff;stroke:#000000;stroke-width:0.9" />
    <path style="display:inline;fill:none;stroke:#000000;stroke-width:2;stroke-linecap:round;stroke-miterlimit:4;stroke-dasharray:0.1, 5;stroke-dashoffset:0;stroke-opacity:1" d="m 86.25,0 0,-22.5" inkscape:connector-curvature="0" />
  </g>
</g>
<g inkscape:groupmode="layer" id="id_layer" inkscape:label="Card ID" style="display:inline" sodipodi:insensitive="true" >
  <text xml:space="preserve" x="19.7" y="27.3" style="font-style:normal;font-variant:normal;font-weight:normal;font-stretch:normal;font-size:10px;line-height:125%;font-family:CCTreasureTrove;-inkscape-font-specification:'CCTreasureTrove, Normal';text-align:start;letter-spacing:0px;word-spacing:0px;writing-mode:lr-tb;text-anchor:start;display:inline;fill:#909090;fill-opacity:1;stroke:none;stroke-width:1px;stroke-linecap:butt;stroke-linejoin:miter;stroke-opacity:1" 
>1636d</text></g>
<g inkscape:groupmode="layer" id="cut_layer" inkscape:label="Cut Line" style="display:inline" sodipodi:insensitive="true" >
  <rect x="11.25" y="11.25" width="224.5" height="224.5" style="fill:none;stroke:#000000;stroke-width:0.5;stroke-linecap:butt;stroke-linejoin:bevel;stroke-miterlimit:4;stroke-dasharray:none;stroke-opacity:1" ry="11.338962" />
</g>
<g inkscape:groupmode="layer" id="page_border_layer" inkscape:label="Page Border" style="display:none" sodipodi:insensitive="true" >
  <rect x="0" y="0" width="246.6" height="246.6" style="fill:none;stroke:#000000;stroke-width:0.5;stroke-linecap:butt;stroke-linejoin:bevel;stroke-miterlimit:4;stroke-dasharray:none;stroke-opacity:1" />
</g>

</svg>
