<?xml version="1.0" encoding="UTF-8" standalone="no"?>
<svg version="1.1" height="246.6" width="246.6" xmlns:rdf="http://www.w3.org/1999/02/22-rdf-syntax-ns#" xmlns="http://www.w3.org/2000/svg" xmlns:cc="http://creativecommons.org/ns#" xmlns:xlink="http://www.w3.org/1999/xlink" xmlns:dc="http://purl.org/dc/elements/1.1/" xmlns:sodipodi="http://sodipodi.sourceforge.net/DTD/sodipodi-0.dtd" xmlns:svg="http://www.w3.org/2000/svg" xmlns:inkscape="http://www.inkscape.org/namespaces/inkscape">
<metadata>
  <rdf:RDF>
    <cc:Work rdf:about="">
      <dc:format>image/svg+xml</dc:format>
      <dc:type rdf:resource="http://purl.org/dc/dcmitype/StillImage"/>
      <dc:title/>
      <dc:creator>
        <cc:Agent><dc:title>Gary Kacmarcik</dc:title></cc:Agent>
      </dc:creator>
    </cc:Work>
  </rdf:RDF>
</metadata>

<defs>
  <filter inkscape:collect="always" inkscape:label="blurWaterDeep" style="color-interpolation-filters:sRGB" id="blurWaterDeep" x="-0.056691" y="-0.041620" width="1.113381" height="1.083239">
    <feGaussianBlur inkscape:collect="always" stdDeviation="6.919136" />
  </filter>
  <filter inkscape:collect="always" inkscape:label="blurWaterShallow" style="color-interpolation-filters:sRGB" id="blurWaterShallow" x="-0.055818" y="-0.042103" width="1.111637" height="1.084205">
    <feGaussianBlur inkscape:collect="always" stdDeviation="6.561501" />
  </filter>
  <filter inkscape:collect="always" inkscape:label="blurWaterHilight" style="color-interpolation-filters:sRGB" id="blurWaterHilight" x="-0.250000" y="-0.250000" width="1.500000" height="1.500000">
    <feGaussianBlur inkscape:collect="always" stdDeviation="6.857532" />
  </filter>
  <filter inkscape:collect="always" inkscape:label="blurGrass" style="color-interpolation-filters:sRGB" id="blurGrass" x="-0.100000" y="-0.100000" width="1.200000" height="1.200000">
    <feGaussianBlur inkscape:collect="always" stdDeviation="0.800000" />
  </filter>
  <filter inkscape:collect="always" inkscape:label="blurForestShadow" style="color-interpolation-filters:sRGB" id="blurForestShadow" x="-0.100000" y="-0.100000" width="1.200000" height="1.200000">
    <feGaussianBlur inkscape:collect="always" stdDeviation="0.800000" />
  </filter>
  <filter inkscape:collect="always" inkscape:label="blurFlowerInner" style="color-interpolation-filters:sRGB" id="blurFlowerInner" x="-0.420000" y="-0.420000" width="1.840000" height="1.840000">
    <feGaussianBlur inkscape:collect="always" stdDeviation="1.605540" />
  </filter>
  <filter inkscape:collect="always" inkscape:label="blurFlowerMiddle" style="color-interpolation-filters:sRGB" id="blurFlowerMiddle" x="-0.240000" y="-0.240000" width="1.480000" height="1.480000">
    <feGaussianBlur inkscape:collect="always" stdDeviation="1.933705" />
  </filter>
  <linearGradient id="gradientStopsFish" inkscape:collect="always">
    <stop offset="0.000000" style="stop-color:#ff5555;stop-opacity:1.000000" />
    <stop offset="1.000000" style="stop-color:#ffffff;stop-opacity:1.000000" />
  </linearGradient>
  <linearGradient id="gradientStopsCoconut" inkscape:collect="always">
    <stop offset="0.000000" style="stop-color:#ffffff;stop-opacity:1.000000" />
    <stop offset="1.000000" style="stop-color:#c8c8c8;stop-opacity:0.000000" />
  </linearGradient>
  <linearGradient id="gradientStopsFlower" inkscape:collect="always">
    <stop offset="0.000000" style="stop-color:#b16dff;stop-opacity:1.000000" />
    <stop offset="1.000000" style="stop-color:#e7d2ff;stop-opacity:1.000000" />
  </linearGradient>
  <linearGradient id="gradientFish" xlink:href="#gradientStopsFish" x1="178.789090" y1="-114.782830" x2="180.407300" y2="-103.782830" gradientTransform="translate(-178.76256,1.0606602)" gradientUnits="userSpaceOnUse" inkscape:collect="always" />
  <radialGradient id="gradientCoconut" xlink:href="#gradientStopsCoconut" cx="1.944096" cy="-60.612652" fx="1.944096" fy="-60.612652" r="6.723294" gradientUnits="userSpaceOnUse" gradientTransform="matrix(1.691364,-0.31394812,0.29762395,1.603419,17.826033,-7.042221)" inkscape:collect="always" />
  <radialGradient id="gradientFlower" xlink:href="#gradientStopsFlower" cx="60.884877" cy="-69.652750" fx="60.884877" fy="-69.652750" r="15.835310" gradientUnits="userSpaceOnUse" gradientTransform="matrix(0.8413905,0,0,0.87120012,-50.722984,-48.679159)" inkscape:collect="always" />
</defs>

<sodipodi:namedview
    id="base"
    pagecolor="#ffffff"
    bordercolor="#666666"
    borderopacity="1.0"
    inkscape:pageopacity="0.0"
    inkscape:pageshadow="2"
    inkscape:zoom="2"
    inkscape:cx="115.37643"
    inkscape:cy="285.04449"
    inkscape:document-units="in"
    showgrid="true"
    units="in"
    inkscape:window-width="1392"
    inkscape:window-height="836"
    inkscape:window-x="39"
    inkscape:window-y="6"
    inkscape:window-maximized="0"
    inkscape:snap-grids="true"
    inkscape:snap-to-guides="true"
    inkscape:snap-nodes="true"
    inkscape:object-nodes="true"
    inkscape:snap-smooth-nodes="true"
    inkscape:snap-intersection-paths="true"
    inkscape:object-paths="true"
    inkscape:snap-bbox="true"
    inkscape:bbox-nodes="true"
    inkscape:snap-others="true"
    inkscape:bbox-paths="false"
    inkscape:snap-global="true" >
  <inkscape:grid
    type="xygrid"
    id="grid3051"
    empspacing="2"
    visible="true"
    enabled="true"
    snapvisiblegridlinesonly="true"
    spacingx="0.0625in"
    spacingy="0.0625in"
    dotted="false"
    units="in" />
</sodipodi:namedview>
<g inkscape:groupmode="layer" id="water_layer" inkscape:label="Water" style="display:inline" sodipodi:insensitive="true" >
  <rect id="water" x="0" y="0" width="246.6" height="246.6" style="fill:#b9deff;fill-opacity:1;stroke:none" />
</g>
<g inkscape:groupmode="layer" id="water_medium_layer" inkscape:label="Water Shallow" style="display:inline" sodipodi:insensitive="true" >
  <path style="fill:#9bd1ff;fill-opacity:0.70;fill-rule:evenodd;stroke:none;filter:url(#blurWaterShallow)" d="m 95.964491,52.650713 -36.679154,22.775701 -9.282786,28.742076 -24.748738,9.59645 -14.203802,0.0351 -20.000001,0 0,-102.75 19.99999,-19.9999902 101.76646,0 1.3122,20.0000312 z" inkscape:connector-curvature="0" />
</g>
<g inkscape:groupmode="layer" id="water_deep_layer" inkscape:label="Water Deep" style="display:inline" sodipodi:insensitive="true" >
  <path style="fill:#87c8ff;fill-opacity:0.60;fill-rule:evenodd;stroke:none;filter:url(#blurWaterDeep)" d="m 60.104076,28.912129 -14.506384,27.58649 -34.547681,9.051401 -20.000001,0 0,-54.5 19.99999,-19.9999902 53.279134,0 0.807131,20.0000312 z" inkscape:connector-curvature="0" />
</g>
<g inkscape:groupmode="layer" id="water_hilight_layer" inkscape:label="Water Hilight" style="display:inline" sodipodi:insensitive="true" >
  <use xlink:href="#shoreline" height="100%" width="100%" x="0" y="0" style="display:inline;fill:#ffffff;fill-opacity:1;stroke:#ffffff;stroke-opacity:1;filter:url(#blurWaterHilight)" />
</g>
<g inkscape:groupmode="layer" id="shoreline_layer" inkscape:label="Shoreline" style="display:inline" sodipodi:insensitive="true" >
  <use xlink:href="#shoreline" height="100%" width="100%" x="0" y="0" style="display:inline;fill:#ffddab;fill-opacity:1;stroke:#5f4c14;stroke-width:1;stroke-miterlimit:4;stroke-dasharray:none;stroke-opacity:1" />
</g>
<g inkscape:groupmode="layer" id="shoreline_master_layer" inkscape:label="Shoreline Master" style="display:none" sodipodi:insensitive="true" >
  <path id="shoreline" style="color:#000000;clip-rule:nonzero;display:inline;overflow:visible;visibility:visible;opacity:1;isolation:auto;mix-blend-mode:normal;color-interpolation:sRGB;color-interpolation-filters:linearRGB;solid-color:#000000;solid-opacity:1;fill-opacity:1;fill-rule:evenodd;color-rendering:auto;image-rendering:auto;shape-rendering:auto;text-rendering:auto;enable-background:accumulate" d="m 235.37174,255.55002 19.69798,-20 -0.11899,-223.819724 -20.55493,-20.8749076 -79.67733,1.3961242 1.27448,18.2251804 -17.5339,45.927586 -25.11005,37.846366 -51.374014,32.290525 -24.604972,21.17885 -26.320013,7.45494 -20.000001,0 10e-6,80.37512 20.00001,20 z" inkscape:connector-curvature="0" />
</g>
<g inkscape:groupmode="layer" id="grass_layer" inkscape:label="Grass" style="display:inline" sodipodi:insensitive="true" >
  <use xlink:href="#grass" height="100%" width="100%" x="0" y="0" style="display:inline;fill:#b4e982;fill-opacity:1;stroke:none;stroke-width:1;stroke-miterlimit:4;stroke-dasharray:none;stroke-opacity:1" />
</g>
<g inkscape:groupmode="layer" id="grass_master_layer" inkscape:label="Grass Master" style="display:none" sodipodi:insensitive="true" >
  <path id="grass" style="color:#000000;clip-rule:nonzero;display:inline;overflow:visible;visibility:visible;opacity:1;isolation:auto;mix-blend-mode:normal;color-interpolation:sRGB;color-interpolation-filters:linearRGB;solid-color:#000000;solid-opacity:1;fill-opacity:1;fill-rule:evenodd;filter:url(#blurGrass);color-rendering:auto;image-rendering:auto;shape-rendering:auto;text-rendering:auto;enable-background:accumulate" d="m 234.83813,255.55008 20.20305,-20 0.0724,-224.061809 -20.46302,-20.6171167 -69.90974,0.417517 -0.25036,19.6918217 -10.344,43.283368 L 126.12474,89.466009 91.032003,116.08186 82.203231,142.19264 47.5,158.56429 l -21.25,1.25 -15.199989,4.98573 -20.000001,0 0,70.75 20.00001,20.00006 z" inkscape:connector-curvature="0" />
</g>
<g inkscape:groupmode="layer" id="forest_shadow_layer" inkscape:label="Forest Shadow" style="display:inline" sodipodi:insensitive="true" >
  <g style="filter:url(#blurForestShadow)" >
    <use xlink:href="#forest" height="100%" width="100%" x="0" y="0" style="display:inline;opacity:0.75;fill:#258c1b;fill-opacity:1" />
  </g>
</g>
<g inkscape:groupmode="layer" id="forest_fill_layer" inkscape:label="Forest Fill" style="display:inline" sodipodi:insensitive="true" >
  <use xlink:href="#forest" height="100%" width="100%" x="0" y="0" style="fill:#7ebd47;fill-opacity:1;fill-rule:nonzero;stroke:#496e28;stroke-width:0.5;stroke-linecap:round;stroke-linejoin:round;stroke-miterlimit:4;stroke-dasharray:none;stroke-dashoffset:0;stroke-opacity:1" />
</g>
<g inkscape:groupmode="layer" id="forest_master_layer" inkscape:label="Forest Master" style="display:none" sodipodi:insensitive="true" >
  <path id="forest" style="color:#000000;clip-rule:nonzero;display:inline;overflow:visible;visibility:visible;opacity:1;isolation:auto;mix-blend-mode:normal;color-interpolation:sRGB;color-interpolation-filters:linearRGB;solid-color:#000000;solid-opacity:1;fill-opacity:1;fill-rule:nonzero;color-rendering:auto;image-rendering:auto;shape-rendering:auto;text-rendering:auto;enable-background:accumulate" d="m 235.62049,255.55008 19.1929,-20 0.7483,-224.087191 -20.32035,-20.101525 -55.96194,-0.3930361 0.86222,18.5495 L 170.88745,67.907076 150.52069,96.915242 71.585214,163.99322 27.142857,176.6 l -16.092846,3.07502 -20.000001,0 0,55.87506 19.99995,20 z" inkscape:connector-curvature="0" />
</g>
<g inkscape:groupmode="layer" id="routes_layer" inkscape:label="Routes" style="display:inline" sodipodi:insensitive="true" >
  <path style="display:inline;fill:none;stroke:#000000;stroke-width:2;stroke-linecap:round;stroke-miterlimit:4;stroke-dasharray:0.1, 5;stroke-dashoffset:0;stroke-opacity:1" d="m 255.55002,123.30006 -20,0 c -41.92133,-0.50508 -67.14135,15.42911 -81.11521,29.37413 -29.34118,29.28062 -30.12469,59.13725 -31.13484,82.87583 l 0,20 M -8.95,85.88329 l 20.000001,0 C 32.768277,86.388367 138.77019,81.951355 148.42206,152.57777 M 49.932186,82.372169 C 70.695742,63.600088 88.91374,51.456083 85.88328,11.049981 l 0,-20.000001" inkscape:connector-curvature="0" />
</g>
<g inkscape:groupmode="layer" id="labels_layer" inkscape:label="Labels" style="display:inline" sodipodi:insensitive="true" >
  <text xml:space="preserve" style="font-style:normal;font-variant:normal;font-weight:normal;font-stretch:normal;font-size:10px;line-height:125%;font-family:CCTreasureTrove;-inkscape-font-specification:'CCTreasureTrove, Normal';text-align:start;letter-spacing:0px;word-spacing:0px;writing-mode:lr-tb;text-anchor:start;display:inline;fill:#5d481b;fill-opacity:1;stroke:none;stroke-width:1px;stroke-linecap:butt;stroke-linejoin:miter;stroke-opacity:1"><textPath xlink:href="#label-path"
>Freeport</textPath></text>
</g>
<g inkscape:groupmode="layer" id="labels_guide_layer" inkscape:label="Labels Guide" style="display:none" sodipodi:insensitive="true" >
  <path id="label-path" style="color:#000000;fill:none;stroke:#000000;stroke-width:1;stroke-opacity:1" d="M 132.83362,22.348296 C 127.04755,52.181891 112.06677,63.828378 93.734296,75.235929" inkscape:connector-curvature="0" />
</g>
<g inkscape:groupmode="layer" id="resources_layer" inkscape:label="Resources" style="display:inline" sodipodi:insensitive="true" >
  <g id="resource-portcircle" transform="matrix(-0.52661708,0.85010261,-0.85010261,-0.52661708,282.93855,-102.95918)" >
    <g transform="translate(168.55655,-76.089882)" >
      <path style="opacity:1;fill:#000000;fill-opacity:1;stroke:none;stroke-width:0.5;stroke-linejoin:miter;stroke-miterlimit:4;stroke-dasharray:none;stroke-dashoffset:0;stroke-opacity:1" d="m 117.61371,135.33305 -14.27687,-7.03247 -5.122553,15.06798 -5.122556,-15.06798 -14.276867,7.03247 7.032478,-14.27686 -15.067982,-5.12256 15.067981,-5.12255 -7.032477,-14.276871 14.276866,7.032481 5.122557,-15.067985 5.122553,15.067985 14.27687,-7.032481 -7.03248,14.276861 15.06798,5.12256 -15.06798,5.12256 z" inkscape:connector-curvature="0" />
      <path style="opacity:1;fill:#000000;fill-opacity:1;stroke:none;stroke-width:0.5;stroke-linejoin:miter;stroke-miterlimit:4;stroke-dasharray:none;stroke-dashoffset:0;stroke-opacity:1" transform="matrix(0.92387953,-0.38268343,0.38268343,0.92387953,-92.322534,69.370912)" d="m 174.56986,132.36623 -10.89361,-3.15815 -5.51643,9.91029 -5.46979,-9.9361 -10.90834,3.10693 3.15816,-10.89362 -9.91029,-5.51642 9.9361,-5.4698 -3.10693,-10.908329 10.89361,3.158149 5.51643,-9.910281 5.46979,9.936101 10.90834,-3.106932 -3.15816,10.893612 9.91029,5.51643 -9.9361,5.46979 z" inkscape:connector-curvature="0" />
    </g>
    <circle cx="266.770840" cy="39.843746" r="19.000000" style="opacity:1;fill:#ffffff;fill-opacity:1;stroke:#000000;stroke-width:1.79999995;stroke-linecap:round;stroke-linejoin:round;stroke-miterlimit:4;stroke-dasharray:none;stroke-dashoffset:0;stroke-opacity:1" />
  </g>
  <g id="resource-coconut" transform="matrix(-0.52661708,0.85010261,-0.85010261,-0.52661708,15.008326,44.803695)" >
    <path style="color:#000000;clip-rule:nonzero;display:inline;overflow:visible;visibility:visible;opacity:1;isolation:auto;mix-blend-mode:normal;color-interpolation:sRGB;color-interpolation-filters:linearRGB;solid-color:#000000;solid-opacity:1;fill:#bc8434;fill-opacity:1;fill-rule:evenodd;stroke:#000000;stroke-width:0.89999998;stroke-linecap:round;stroke-linejoin:miter;stroke-miterlimit:4;stroke-dasharray:none;stroke-dashoffset:0;stroke-opacity:1;color-rendering:auto;image-rendering:auto;shape-rendering:auto;text-rendering:auto;enable-background:accumulate" d="m -4.5080282,-122.99352 c -6.3850178,2.15964 -8.5771578,9.38405 -8.0814268,14.88876 0.55563,6.16983 5.2811628,10.95294 12.64199276,8.10608 3.04329704,-1.17702 6.04119804,-6.34196 6.22442604,-11.57628 0.09818,-2.80474 -0.29778,-5.51103 -1.639173,-7.82455 -1.102579,-1.90162 -3.478014,-3.784 -6.173654,-4.24214 -1.590991,0.97227 -2.972165,0.64813 -2.972165,0.64813 z" inkscape:connector-curvature="0" />
    <ellipse cx="-120.424450" cy="-1.104729" rx="0.540407" ry="0.751301" style="color:#000000;clip-rule:nonzero;display:inline;overflow:visible;visibility:visible;opacity:1;isolation:auto;mix-blend-mode:normal;color-interpolation:sRGB;color-interpolation-filters:linearRGB;solid-color:#000000;solid-opacity:1;fill:#000000;fill-opacity:1;fill-rule:nonzero;stroke:none;stroke-width:0.89999998;stroke-linecap:butt;stroke-linejoin:round;stroke-miterlimit:4;stroke-dasharray:none;stroke-dashoffset:0;stroke-opacity:1;color-rendering:auto;image-rendering:auto;shape-rendering:auto;text-rendering:auto;enable-background:accumulate" transform="matrix(0.04286687,0.99908079,-0.99908079,0.04286687,0,0)" />
    <ellipse cx="-113.374070" cy="-41.165329" rx="0.530946" ry="0.662913" style="color:#000000;clip-rule:nonzero;display:inline;overflow:visible;visibility:visible;opacity:1;isolation:auto;mix-blend-mode:normal;color-interpolation:sRGB;color-interpolation-filters:linearRGB;solid-color:#000000;solid-opacity:1;fill:#000000;fill-opacity:1;fill-rule:nonzero;stroke:none;stroke-width:0.89999998;stroke-linecap:butt;stroke-linejoin:round;stroke-miterlimit:4;stroke-dasharray:none;stroke-dashoffset:0;stroke-opacity:1;color-rendering:auto;image-rendering:auto;shape-rendering:auto;text-rendering:auto;enable-background:accumulate" transform="matrix(0.35065914,0.93650316,-0.93650316,0.35065914,0,0)" />
    <ellipse cx="-115.404910" cy="28.144659" rx="0.751301" ry="0.578731" style="color:#000000;clip-rule:nonzero;display:inline;overflow:visible;visibility:visible;opacity:1;isolation:auto;mix-blend-mode:normal;color-interpolation:sRGB;color-interpolation-filters:linearRGB;solid-color:#000000;solid-opacity:1;fill:#000000;fill-opacity:1;fill-rule:nonzero;stroke:none;stroke-width:0.89999998;stroke-linecap:butt;stroke-linejoin:round;stroke-miterlimit:4;stroke-dasharray:none;stroke-dashoffset:0;stroke-opacity:1;color-rendering:auto;image-rendering:auto;shape-rendering:auto;text-rendering:auto;enable-background:accumulate" transform="matrix(-0.21617976,0.97635358,-0.97635358,-0.21617976,0,0)" />
    <path style="color:#000000;clip-rule:nonzero;display:inline;overflow:visible;visibility:visible;opacity:1;isolation:auto;mix-blend-mode:normal;color-interpolation:sRGB;color-interpolation-filters:linearRGB;solid-color:#000000;solid-opacity:1;fill:#bc8434;fill-opacity:1;fill-rule:evenodd;stroke:#000000;stroke-width:0.89999998;stroke-linecap:round;stroke-linejoin:miter;stroke-miterlimit:4;stroke-dasharray:none;stroke-dashoffset:0;stroke-opacity:1;color-rendering:auto;image-rendering:auto;shape-rendering:auto;text-rendering:auto;enable-background:accumulate" d="m 12.470061,-104.40917 c -1.053625,2.46314 -2.7571896,5.66371 -5.3992166,6.959878 -1.8348159,0.900154 -4.8858287,1.355265 -7.29203855,0.574524 -1.47973495,-0.480128 -3.26695685,-2.153861 -3.88908725,-3.579732 -0.9764548,-2.23794 -1.1678327,-4.60408 -0.6812181,-6.72953 0.2499469,-1.09173 1.186875,-3.22454 1.8151019,-4.00521" inkscape:connector-curvature="0" />
    <path style="color:#000000;clip-rule:nonzero;display:inline;overflow:visible;visibility:visible;opacity:1;isolation:auto;mix-blend-mode:normal;color-interpolation:sRGB;color-interpolation-filters:linearRGB;solid-color:#000000;solid-opacity:1;fill:#ffffff;fill-opacity:1;fill-rule:evenodd;stroke:#000000;stroke-width:0.89999998;stroke-linecap:round;stroke-linejoin:miter;stroke-miterlimit:4;stroke-dasharray:none;stroke-dashoffset:0;stroke-opacity:1;color-rendering:auto;image-rendering:auto;shape-rendering:auto;text-rendering:auto;enable-background:accumulate" d="m -4.1031709,-106.48916 c 0.1858925,1.26956 0.9057567,2.15876 1.8143573,3.06473 0.7258639,0.72377 1.43443306,1.23318 2.38813597,1.53034 0.21168639,0.36954 0.58409309,0.82966 0.71913043,1.00496 0.6211732,0.30789 1.2701423,0.41934 1.7697881,0.53351 1.2859005,0.29381 3.2051814,0.30928 4.487449,0 1.4766975,-0.35618 2.9730411,-1.01232 4.0560481,-2.07749 0.799348,-0.78619 1.474351,-1.85192 1.582847,-2.96784 0.19684,-2.02457 0.0097,-3.62122 -1.250374,-5.21803 -0.765762,-0.24844 -1.101356,-0.47744 -2.0001007,-0.72008 -0.7209049,-0.88161 -1.2999824,-1.55958 -2.1970327,-2.39292 -1.8286746,-0.73618 -4.3613695,-0.80559 -6.0281383,-0.27571 -1.72586214,0.54868 -3.34971,1.59922 -4.0200406,2.49515 -1.4298123,1.911 -1.5302056,3.6019 -1.3220696,5.02338 z" inkscape:connector-curvature="0" />
    <path style="color:#000000;clip-rule:nonzero;display:inline;overflow:visible;visibility:visible;opacity:1;isolation:auto;mix-blend-mode:normal;color-interpolation:sRGB;color-interpolation-filters:linearRGB;solid-color:#000000;solid-opacity:1;fill:url(#gradientCoconut);fill-opacity:1;fill-rule:evenodd;stroke:#000000;stroke-width:0.72000003;stroke-linecap:round;stroke-linejoin:miter;stroke-miterlimit:4;stroke-dasharray:none;stroke-dashoffset:0;stroke-opacity:1;color-rendering:auto;image-rendering:auto;shape-rendering:auto;text-rendering:auto;enable-background:accumulate" d="m 2.5689019,-111.79765 c -1.95421257,0.27864 -3.6605132,1.67502 -3.9378089,3.55663 -0.3092039,2.09813 0.69763676,3.67395 3.1778133,4.47933 0.373786,0.49838 0.6109957,0.84189 0.7612596,1.05028 0.5701086,0.18629 1.6940872,0.30376 2.4051006,0.28378 1.4220267,-0.04 2.5622123,-0.49712 3.5524385,-1.12498 1.980452,-1.2557 2.103312,-3.22456 0.954264,-5.56685 -0.6629126,-0.17678 -1.1503302,-0.34475 -1.6846877,-0.51996 -0.4611538,-0.48593 -0.8524209,-0.92577 -1.6101047,-1.76382 -1.1960277,-0.5413 -2.2986558,-0.51727 -3.6182747,-0.39441 z" inkscape:connector-curvature="0" />
  </g>
</g>
<g inkscape:groupmode="layer" id="edge_guides_layer" inkscape:label="Edges" style="display:none" sodipodi:insensitive="true" >
  <g id="guide0-1" transform="" >
    <rect x="156.475" y="-22.5" width="90.125" height="22.5" style="fill:#ffd291;stroke:#000000;stroke-width:0.9" />
    <rect x="164.1" y="-22.5" width="82.5" height="22.5" style="fill:#b4e982;stroke:#000000;stroke-width:0.9" />
    <rect x="178.975" y="-22.5" width="67.625" height="22.5" style="fill:#5adc4f;stroke:#000000;stroke-width:0.9" />
    <rect x="0" y="-22.5" width="156.475" height="22.5" style="fill:#b9deff;stroke:#000000;stroke-width:0.9" />
    <rect x="0" y="-22.5" width="114.5" height="22.5" style="fill:#9bceff;stroke:#000000;stroke-width:0.9" />
    <rect x="0" y="-22.5" width="66.25" height="22.5" style="fill:#73baff;stroke:#000000;stroke-width:0.9" />
    <path style="display:inline;fill:none;stroke:#000000;stroke-width:2;stroke-linecap:round;stroke-miterlimit:4;stroke-dasharray:0.1, 5;stroke-dashoffset:0;stroke-opacity:1" d="m 86.25,0 0,-22.5" inkscape:connector-curvature="0" />
  </g>
  <g id="guide1-7" transform="matrix(0,1,-1,0,246.6,0)" >
    <rect x="0" y="-22.5" width="246.6" height="22.5" style="fill:#b4e982;stroke:#000000;stroke-width:0.9" />
    <rect x="0" y="-22.5" width="118.036" height="22.5" style="fill:#5adc4f;stroke:#000000;stroke-width:0.9" />
    <rect x="128.564" y="-22.5" width="118.036" height="22.5" style="fill:#5adc4f;stroke:#000000;stroke-width:0.9" />
    <path style="display:inline;fill:none;stroke:#000000;stroke-width:2;stroke-linecap:round;stroke-miterlimit:4;stroke-dasharray:0.1, 5;stroke-dashoffset:0;stroke-opacity:1" d="m 123.75,0 0,-22.5" inkscape:connector-curvature="0" />
  </g>
  <g id="guide2-7" transform="matrix(-1,0,0,-1,246.6,246.6)" >
    <rect x="0" y="-22.5" width="246.6" height="22.5" style="fill:#b4e982;stroke:#000000;stroke-width:0.9" />
    <rect x="0" y="-22.5" width="118.036" height="22.5" style="fill:#5adc4f;stroke:#000000;stroke-width:0.9" />
    <rect x="128.564" y="-22.5" width="118.036" height="22.5" style="fill:#5adc4f;stroke:#000000;stroke-width:0.9" />
    <path style="display:inline;fill:none;stroke:#000000;stroke-width:2;stroke-linecap:round;stroke-miterlimit:4;stroke-dasharray:0.1, 5;stroke-dashoffset:0;stroke-opacity:1" d="m 123.75,0 0,-22.5" inkscape:connector-curvature="0" />
  </g>
  <g id="guide3-4" transform="matrix(0,-1,1,0,0,246.6)" >
    <rect x="0" y="-22.5" width="90.125" height="22.5" style="fill:#ffd291;stroke:#000000;stroke-width:0.9" />
    <rect x="0" y="-22.5" width="82.5" height="22.5" style="fill:#b4e982;stroke:#000000;stroke-width:0.9" />
    <rect x="0" y="-22.5" width="67.625" height="22.5" style="fill:#5adc4f;stroke:#000000;stroke-width:0.9" />
    <rect x="90.125" y="-22.5" width="156.475" height="22.5" style="fill:#b9deff;stroke:#000000;stroke-width:0.9" />
    <rect x="132.1" y="-22.5" width="114.5" height="22.5" style="fill:#9bceff;stroke:#000000;stroke-width:0.9" />
    <rect x="180.35" y="-22.5" width="66.25" height="22.5" style="fill:#73baff;stroke:#000000;stroke-width:0.9" />
    <path style="display:inline;fill:none;stroke:#000000;stroke-width:2;stroke-linecap:round;stroke-miterlimit:4;stroke-dasharray:0.1, 5;stroke-dashoffset:0;stroke-opacity:1" d="m 161.25,0 0,-22.5" inkscape:connector-curvature="0" />
  </g>
</g>
<g inkscape:groupmode="layer" id="cut_layer" inkscape:label="Cut Line" style="display:none" sodipodi:insensitive="true" >
  <rect x="11.25" y="11.25" width="224.5" height="224.5" style="fill:none;stroke:#000000;stroke-width:0.5;stroke-linecap:butt;stroke-linejoin:bevel;stroke-miterlimit:4;stroke-dasharray:none;stroke-opacity:1" ry="11.338962" />
</g>
<g inkscape:groupmode="layer" id="page_border_layer" inkscape:label="Page Border" style="display:none" sodipodi:insensitive="true" >
  <rect x="0" y="0" width="246.6" height="246.6" style="fill:none;stroke:#000000;stroke-width:0.5;stroke-linecap:butt;stroke-linejoin:bevel;stroke-miterlimit:4;stroke-dasharray:none;stroke-opacity:1" />
</g>

</svg>
