<?xml version="1.0" encoding="UTF-8" standalone="no"?>
<svg version="1.1" height="246.6" width="246.6" inkscape:version="0.91 r13725" xmlns:rdf="http://www.w3.org/1999/02/22-rdf-syntax-ns#" xmlns="http://www.w3.org/2000/svg" xmlns:cc="http://creativecommons.org/ns#" xmlns:xlink="http://www.w3.org/1999/xlink" xmlns:dc="http://purl.org/dc/elements/1.1/" xmlns:sodipodi="http://sodipodi.sourceforge.net/DTD/sodipodi-0.dtd" xmlns:svg="http://www.w3.org/2000/svg" xmlns:inkscape="http://www.inkscape.org/namespaces/inkscape">
<metadata>
  <rdf:RDF>
    <cc:Work rdf:about="">
      <dc:format>image/svg+xml</dc:format>
      <dc:type rdf:resource="http://purl.org/dc/dcmitype/StillImage"/>
      <dc:title/>
      <dc:creator>
        <cc:Agent><dc:title>Gary Kacmarcik</dc:title></cc:Agent>
      </dc:creator>
    </cc:Work>
  </rdf:RDF>
</metadata>

<defs>
  <filter inkscape:collect="always" inkscape:label="blurWaterDeep" style="color-interpolation-filters:sRGB" id="blurWaterDeep" x="-0.056691" y="-0.041620" width="1.113381" height="1.083239">
    <feGaussianBlur inkscape:collect="always" stdDeviation="6.919136" />
  </filter>
  <filter inkscape:collect="always" inkscape:label="blurWaterShallow" style="color-interpolation-filters:sRGB" id="blurWaterShallow" x="-0.055818" y="-0.042103" width="1.111637" height="1.084205">
    <feGaussianBlur inkscape:collect="always" stdDeviation="6.561501" />
  </filter>
  <filter inkscape:collect="always" inkscape:label="blurWaterHilight" style="color-interpolation-filters:sRGB" id="blurWaterHilight" x="-0.250000" y="-0.250000" width="1.500000" height="1.500000">
    <feGaussianBlur inkscape:collect="always" stdDeviation="6.857532" />
  </filter>
  <filter inkscape:collect="always" inkscape:label="blurGrass" style="color-interpolation-filters:sRGB" id="blurGrass" x="-0.100000" y="-0.100000" width="1.200000" height="1.200000">
    <feGaussianBlur inkscape:collect="always" stdDeviation="0.800000" />
  </filter>
  <filter inkscape:collect="always" inkscape:label="blurForestShadow" style="color-interpolation-filters:sRGB" id="blurForestShadow" x="-0.100000" y="-0.100000" width="1.200000" height="1.200000">
    <feGaussianBlur inkscape:collect="always" stdDeviation="0.800000" />
  </filter>
  <filter inkscape:collect="always" inkscape:label="blurFlowerInner" style="color-interpolation-filters:sRGB" id="blurFlowerInner" x="-0.420000" y="-0.420000" width="1.840000" height="1.840000">
    <feGaussianBlur inkscape:collect="always" stdDeviation="1.605540" />
  </filter>
  <filter inkscape:collect="always" inkscape:label="blurFlowerMiddle" style="color-interpolation-filters:sRGB" id="blurFlowerMiddle" x="-0.240000" y="-0.240000" width="1.480000" height="1.480000">
    <feGaussianBlur inkscape:collect="always" stdDeviation="1.933705" />
  </filter>
  <linearGradient id="gradientStopsFish" inkscape:collect="always">
    <stop offset="0.000000" style="stop-color:#ff5555;stop-opacity:1.000000" />
    <stop offset="1.000000" style="stop-color:#ffffff;stop-opacity:1.000000" />
  </linearGradient>
  <linearGradient id="gradientStopsCoconut" inkscape:collect="always">
    <stop offset="0.000000" style="stop-color:#ffffff;stop-opacity:1.000000" />
    <stop offset="1.000000" style="stop-color:#c8c8c8;stop-opacity:0.000000" />
  </linearGradient>
  <linearGradient id="gradientStopsFlower" inkscape:collect="always">
    <stop offset="0.000000" style="stop-color:#b16dff;stop-opacity:1.000000" />
    <stop offset="1.000000" style="stop-color:#e7d2ff;stop-opacity:1.000000" />
  </linearGradient>
  <linearGradient id="gradientFish" xlink:href="#gradientStopsFish" x1="178.789090" y1="-114.782830" x2="180.407300" y2="-103.782830" gradientTransform="translate(-178.76256,1.0606602)" gradientUnits="userSpaceOnUse" inkscape:collect="always" />
  <radialGradient id="gradientCoconut" xlink:href="#gradientStopsCoconut" cx="1.944096" cy="-60.612652" fx="1.944096" fy="-60.612652" r="6.723294" gradientUnits="userSpaceOnUse" gradientTransform="matrix(1.691364,-0.31394812,0.29762395,1.603419,17.826033,-7.042221)" inkscape:collect="always" />
  <radialGradient id="gradientFlower" xlink:href="#gradientStopsFlower" cx="60.884877" cy="-69.652750" fx="60.884877" fy="-69.652750" r="15.835310" gradientUnits="userSpaceOnUse" gradientTransform="matrix(0.8413905,0,0,0.87120012,-50.722984,-48.679159)" inkscape:collect="always" />
</defs>

<sodipodi:namedview
    id="base"
    pagecolor="#ffffff"
    bordercolor="#666666"
    borderopacity="1.0"
    inkscape:pageopacity="0.0"
    inkscape:pageshadow="2"
    inkscape:zoom="2"
    inkscape:cx="115.37643"
    inkscape:cy="285.04449"
    inkscape:document-units="in"
    showgrid="true"
    units="in"
    inkscape:window-width="1392"
    inkscape:window-height="836"
    inkscape:window-x="39"
    inkscape:window-y="6"
    inkscape:window-maximized="0"
    inkscape:snap-grids="true"
    inkscape:snap-to-guides="true"
    inkscape:snap-nodes="true"
    inkscape:object-nodes="true"
    inkscape:snap-smooth-nodes="true"
    inkscape:snap-intersection-paths="true"
    inkscape:object-paths="true"
    inkscape:snap-bbox="true"
    inkscape:bbox-nodes="true"
    inkscape:snap-others="true"
    inkscape:bbox-paths="false"
    inkscape:snap-global="true" >
  <inkscape:grid
    type="xygrid"
    id="grid3051"
    empspacing="2"
    visible="true"
    enabled="true"
    snapvisiblegridlinesonly="true"
    spacingx="0.0625in"
    spacingy="0.0625in"
    dotted="false"
    units="in" />
</sodipodi:namedview>
<g inkscape:groupmode="layer" id="water_layer" inkscape:label="Water" style="display:inline" sodipodi:insensitive="true" >
  <rect id="water" x="0" y="0" width="246.6" height="246.6" style="fill:#b9deff;fill-opacity:1;stroke:none" />
</g>
<g inkscape:groupmode="layer" id="water_medium_layer" inkscape:label="Water Shallow" style="display:inline" sodipodi:insensitive="true" >
  <path style="fill:#9bd1ff;fill-opacity:0.70;fill-rule:evenodd;stroke:none;filter:url(#blurWaterShallow)" d="m 57.92498,-8.95002 0,20.000001 4.93214,9.121398 10.17857,10.000001 3.21429,10.535713 0.53571,11.25 -16.77971,8.01589 -14.82743,-5.158746 -16.96429,-1.607143 -17.16427,4.717876 -20,0 0,-46.875 19.99999,-19.99999 z" inkscape:connector-curvature="0" />
</g>
<g inkscape:groupmode="layer" id="water_deep_layer" inkscape:label="Water Deep" style="display:inline" sodipodi:insensitive="true" >
  <path style="fill:#87c8ff;fill-opacity:0.60;fill-rule:evenodd;stroke:none;filter:url(#blurWaterDeep)" d="m 35.79998,-8.95002 0,20.000001 8.84285,9.299969 5.39972,8.100535 -5.75686,8.149466 -15.71428,0 -17.52142,-0.799981 -20,0 0,-24.749999 19.99999,-19.999991 z" inkscape:connector-curvature="0" />
</g>
<g inkscape:groupmode="layer" id="water_hilight_layer" inkscape:label="Water Hilight" style="display:inline" sodipodi:insensitive="true" >
  <use xlink:href="#shoreline" height="100%" width="100%" x="0" y="0" style="display:inline;fill:#ffffff;fill-opacity:1;stroke:#ffffff;stroke-opacity:1;filter:url(#blurWaterHilight)" />
</g>
<g inkscape:groupmode="layer" id="shoreline_layer" inkscape:label="Shoreline" style="display:inline" sodipodi:insensitive="true" >
  <use xlink:href="#shoreline" height="100%" width="100%" x="0" y="0" style="display:inline;fill:#ffddab;fill-opacity:1;stroke:#5f4c14;stroke-width:1;stroke-miterlimit:4;stroke-dasharray:none;stroke-opacity:1" />
</g>
<g inkscape:groupmode="layer" id="shoreline_master_layer" inkscape:label="Shoreline Master" style="display:none" sodipodi:insensitive="true" >
  <path id="shoreline" style="color:#000000;clip-rule:nonzero;display:inline;overflow:visible;visibility:visible;opacity:1;isolation:auto;mix-blend-mode:normal;color-interpolation:sRGB;color-interpolation-filters:linearRGB;solid-color:#000000;solid-opacity:1;fill-opacity:1;fill-rule:evenodd;color-rendering:auto;image-rendering:auto;shape-rendering:auto;text-rendering:auto;enable-background:accumulate" d="m 80.42501,-8.9500503 0,20.0000003 10.01562,18.21875 11.12305,7.992188 -4.05469,10.148437 1.3457,16.216797 7.73047,16.664063 4.47657,15.320312 -4.07618,13.066403 -9.11914,3.97266 -3.79883,-11.55078 -0.0039,-13.601565 -8.58008,-11.498046 -13.43555,0.861328 -10.48632,9.224609 -11.19141,2.867188 -12.56445,-4.330079 -15.5879,2.574219 -11.16796,-6.771484 -20,0 0,155.125 20,20 224.5,0 20,-20 0,-224.5 -20,-20.0000003 z" inkscape:connector-curvature="0" />
</g>
<g inkscape:groupmode="layer" id="grass_layer" inkscape:label="Grass" style="display:inline" sodipodi:insensitive="true" >
  <use xlink:href="#grass" height="100%" width="100%" x="0" y="0" style="display:inline;fill:#b4e982;fill-opacity:1;stroke:none;stroke-width:1;stroke-miterlimit:4;stroke-dasharray:none;stroke-opacity:1" />
</g>
<g inkscape:groupmode="layer" id="grass_master_layer" inkscape:label="Grass Master" style="display:none" sodipodi:insensitive="true" >
  <path id="grass" style="color:#000000;clip-rule:nonzero;display:inline;overflow:visible;visibility:visible;opacity:1;isolation:auto;mix-blend-mode:normal;color-interpolation:sRGB;color-interpolation-filters:linearRGB;solid-color:#000000;solid-opacity:1;fill-opacity:1;fill-rule:evenodd;filter:url(#blurGrass);color-rendering:auto;image-rendering:auto;shape-rendering:auto;text-rendering:auto;enable-background:accumulate" d="m 99.29998,11.049984 0,-20.000004 136.25003,-3e-5 20,20.000064 0,224.499986 -20.00004,20.00004 -224.49999,0 -19.99999,-20.00007 0,-136.249997 20,0 13.2357,-2.70002 9.82143,2.5 6.60714,-5 7.5,-2.67857 14.10715,-0.714286 7.27038,-8.516545 12.91485,-1.15785 6.71357,8.038686 3.1012,18.778562 5.35714,17.85714 15.71429,-8.57142 1.07143,-29.285716 -8.21429,-20 -1.42857,-15.178571 1.25,-6.607143 -1.07143,-6.964286 -5,-9.821429 z" inkscape:connector-curvature="0" />
</g>
<g inkscape:groupmode="layer" id="forest_shadow_layer" inkscape:label="Forest Shadow" style="display:inline" sodipodi:insensitive="true" >
  <g style="filter:url(#blurForestShadow)" >
    <use xlink:href="#forest" height="100%" width="100%" x="0" y="0" style="display:inline;opacity:0.75;fill:#258c1b;fill-opacity:1" />
  </g>
</g>
<g inkscape:groupmode="layer" id="forest_fill_layer" inkscape:label="Forest Fill" style="display:inline" sodipodi:insensitive="true" >
  <use xlink:href="#forest" height="100%" width="100%" x="0" y="0" style="fill:#7ebd47;fill-opacity:1;fill-rule:nonzero;stroke:#496e28;stroke-width:0.5;stroke-linecap:round;stroke-linejoin:round;stroke-miterlimit:4;stroke-dasharray:none;stroke-dashoffset:0;stroke-opacity:1" />
</g>
<g inkscape:groupmode="layer" id="forest_master_layer" inkscape:label="Forest Master" style="display:none" sodipodi:insensitive="true" >
  <path id="forest" style="color:#000000;clip-rule:nonzero;display:inline;overflow:visible;visibility:visible;opacity:1;isolation:auto;mix-blend-mode:normal;color-interpolation:sRGB;color-interpolation-filters:linearRGB;solid-color:#000000;solid-opacity:1;fill-opacity:1;fill-rule:nonzero;color-rendering:auto;image-rendering:auto;shape-rendering:auto;text-rendering:auto;enable-background:accumulate" d="m 117.80078,-8.9492188 0,19.9999998 2.91211,10.90625 -5,2.142578 0.71484,10.714844 -7.49804,1.248047 5,11.072266 -5.00196,5.357422 10.53711,5.714843 -2.67968,12.142578 0.53515,7.142579 6.78711,10.357421 5.71289,-6.785156 5.71485,8.037109 16.78711,2.320313 5.35546,-9.287109 -5.71484,-8.212891 6.07422,-5.355469 1.42578,-10.001953 -5.71289,-7.857422 -4.64453,6.785157 -7.5,-8.214844 6.42969,-8.927735 -3.74805,-6.964843 12.14258,-2.498047 -3.92969,-11.78711 3.05078,-8.048828 0,-19.9999998 z m 48,0 0,19.9999998 3.8418,6.978516 8.57226,3.927734 6.42969,11.072266 -10.17969,-1.25 4.10743,8.392578 -5,6.070313 0.35546,9.287109 11.07227,3.212891 3.21484,10.357421 10.71289,6.429688 -9.28515,1.070312 -3.21485,8.572266 8.57227,9.285156 8.92969,4.285157 -2.14453,7.501952 13.92968,6.78516 12.85743,-1.07227 6.97851,5.37891 20,0 0,-106.285159 -20,-19.9999998 -31.75,0 0,19.9999998 -2.19531,5.191407 9.82226,5.714843 -9.82031,-1.25 -12.14453,3.214844 4.46484,-7.322266 -0.37695,-5.548828 0,-19.9999998 z m 49.02149,53.4062498 5.71289,0.714844 -3.92774,9.820313 1.25,-6.427735 z m -86.60743,6.072266 5,2.142578 L 130,54.457031 Z m 82.67774,19.285156 3.92969,8.392578 1.60546,8.572266 -2.85546,-4.466797 -2.14454,3.216797 z M 80.892578,90.171875 71.964844,93.386719 75,101.95703 l -6.072266,8.21485 2.142578,-9.28516 -7.857421,-5.179689 -7.5,6.249999 L 52.5,96.599609 l -6.787109,-1.072265 -1.070313,7.859376 -8.927734,-0.71484 -1.072266,8.21484 -6.072266,7.49805 -9.283203,-3.21485 -8.236328,2.63086 -19.9999998,0 0,37.75 19.9999998,0 8.591797,1.40625 7.142578,-3.92773 -0.71289,-13.92774 4.998046,4.28321 L 40,136.60156 l -2.857422,12.85547 12.5,7.5 11.072266,-6.42773 5.357422,-10.89453 12.142578,1.78515 11.25,-3.39062 -6.267578,-5.6211 7.697265,-4.02343 0.710938,-8.03516 -5.890625,0.17773 1.25,-9.99804 L 81.25,100.17188 Z m 154.658202,39.091795 -10.9082,2.33594 -5,8.92773 -13.92774,-2.49804 -1.42968,7.5 -7.5,-2.5 -4.46289,-4.28711 -8.92774,-0.71289 6.96289,14.82226 -0.71484,11.07032 5.71484,-0.002 0.35742,8.2168 -7.5,6.78516 -8.39257,-12.32032 -8.21485,1.96289 -8.75195,-8.75 -8.0332,6.78516 -1.42774,8.21484 7.85547,1.07227 -0.89258,6.42773 8.25391,1.42383 -8.25391,9.64844 -15.71484,-1.42969 -11.78516,3.92774 -4.46484,10.35546 9.20117,9.66602 -4.37891,7.6582 -3.95117,11.98633 0,20 106.28711,0 20,-20 0,-106.28711 z M 32.5,165.5293 l -9.285156,7.14258 -5.894532,-6.07227 -6.269531,-0.79883 -19.9999998,0 0,27.75 19.9999998,0 6.449219,-1.59375 8.212891,-3.92773 7.142578,-0.35742 -4.105469,6.78515 7.322266,7.14453 10.533203,-5.17968 7.5,6.07031 -6.070313,0.71484 2.142578,5.71485 -1.072265,7.14257 -6.785157,-3.92773 -8.21289,5 -11.964844,-5.7168 3.570313,-4.10742 -10.355469,-1.42773 -4.306641,-2.08399 -19.9999998,0 0,31.75 19.9999998,20 106.285159,0 0,-20 -4.1211,-6.45117 -0.35742,-11.42773 -7.53711,-17.86719 -11.392576,-5.34766 -2.5,10.71485 -5,-6.07227 -2.142578,-6.07227 L 85,185.5293 l -4.642578,-3.75 -7.142578,3.21484 -6.427735,-2.32226 -5.716797,6.07031 -3.035156,-4.64453 3.214844,-4.64258 -3.212891,-7.49805 -8.75,-1.60742 -3.216797,6.42969 -6.607421,-7.14258 z m 86.42773,4.2832 -4.64257,4.4668 -2.14258,7.5 10.17969,6.60742 3.03515,-5.53711 5,-3.92773 -4.82226,-2.32227 -1.42774,-4.64258 z M 200,195.88477 l 6.78516,4.28515 9.28711,-3.57031 -8.92969,7.5 -7.5,1.78711 -8.92774,8.92773 1.07032,-5.71484 10.00195,-8.57031 z m -134.107422,14.64257 10,0.35743 -0.357422,5.17968 7.144532,-0.17968 4.642578,4.64257 -7.142578,-0.35742 -9.822266,-1.78515 z" inkscape:connector-curvature="0" />
</g>
<g inkscape:groupmode="layer" id="routes_layer" inkscape:label="Routes" style="display:inline" sodipodi:insensitive="true" >
  <path style="display:inline;fill:none;stroke:#000000;stroke-width:2;stroke-linecap:round;stroke-miterlimit:4;stroke-dasharray:0.1, 5;stroke-dashoffset:0;stroke-opacity:1" d="m 255.54998,123.29996 h -20 c -32.85714,1.42857 -63.13389,-2.11044 -92.39677,7.61485 m -4.73509,-12.31123 C 176.61673,99.904804 160.71664,45.692834 160.71664,11.049977 V -8.950019 M -8.950006,160.71663 h 20 c 33.57143,-0.35716 63.981314,6.56133 110.154256,-29.73258 m 14.67878,9.23343 c 10.65926,8.72799 13.39591,32.00271 -1.84913,46.57065 -10.27227,9.81603 -10.92217,19.6133 -10.73395,48.76184 v 20" inkscape:connector-curvature="0" />
</g>
<g inkscape:groupmode="layer" id="labels_layer" inkscape:label="Labels" style="display:inline" sodipodi:insensitive="true" >
  <text xml:space="preserve" style="font-style:normal;font-variant:normal;font-weight:normal;font-stretch:normal;font-size:10px;line-height:125%;font-family:CCTreasureTrove;-inkscape-font-specification:'CCTreasureTrove, Normal';text-align:start;letter-spacing:0px;word-spacing:0px;writing-mode:lr-tb;text-anchor:start;display:inline;fill:#5d481b;fill-opacity:1;stroke:none;stroke-width:1px;stroke-linecap:butt;stroke-linejoin:miter;stroke-opacity:1"><textPath xlink:href="#label-path"
>Cove Arient</textPath></text>
</g>
<g inkscape:groupmode="layer" id="labels_guide_layer" inkscape:label="Labels Guide" style="display:none" sodipodi:insensitive="true" >
  <path id="label-path" style="color:#000000;fill:none;stroke:#000000;stroke-width:1;stroke-opacity:1" d="M 85.608991,45.076729 C 70.731546,70.364636 41.861171,62.818226 21.50839,66.649632" inkscape:connector-curvature="0" />
</g>
<g inkscape:groupmode="layer" id="resources_layer" inkscape:label="Resources" style="display:inline" sodipodi:insensitive="true" >
  <g id="resource-pirate" transform="rotate(126.96073,159.10725,216.52566)" >
    <path style="display:inline;opacity:1;fill:#000000;fill-opacity:1;stroke:none;stroke-width:0.72000003;stroke-linejoin:miter;stroke-miterlimit:4;stroke-dasharray:none;stroke-dashoffset:0;stroke-opacity:1" transform="scale(-1,-1)" d="m -107.60416,-273.69223 -7.8991,-1.94695 -6.08951,-5.39484 -2.88489,-7.60683 0.98062,-8.07619 4.6215,-6.69539 7.20363,-3.78076 8.13551,0 7.203628,3.78076 4.621495,6.69539 0.980627,8.07619 -2.88489,7.60683 -6.089513,5.39484 z" inkscape:connector-curvature="0" />
    <g transform="translate(6.943425,5.6840535)" >
      <g transform="translate(0,-10)" >
        <path style="color:#000000;clip-rule:nonzero;display:inline;overflow:visible;visibility:visible;opacity:1;isolation:auto;mix-blend-mode:normal;color-interpolation:sRGB;color-interpolation-filters:linearRGB;solid-color:#000000;solid-opacity:1;fill:#ffffff;fill-opacity:1;fill-rule:nonzero;stroke:none;stroke-width:0.49999997;stroke-linecap:butt;stroke-linejoin:miter;stroke-miterlimit:4;stroke-dasharray:none;stroke-dashoffset:0;stroke-opacity:1;color-rendering:auto;image-rendering:auto;shape-rendering:auto;text-rendering:auto;enable-background:accumulate" d="m 91.84844,289.85155 c 4.41124,3.03993 11.33218,5.63427 19.39618,8.47116 0.51356,0.18067 1.26729,0.0129 1.26729,0.0129 1.03108,0.0262 1.76032,0.59243 1.42127,1.81302 -0.15625,0.5625 -0.60065,0.1875 -1.10065,0.75 -0.59594,0.67043 -0.31337,0.98447 -0.78702,1.45924 -0.37301,0.37389 -0.95237,0.38325 -1.41542,-0.0762 -0.43122,-0.4279 -0.24851,-1.07751 -0.79513,-1.34257 -5.2397,-2.54083 -12.94978,-6.27419 -18.97954,-8.64117 -0.75546,-0.29655 -1.95134,0.5095 -2.69668,0.18835 -0.65522,-0.28232 -1.04679,-1.02773 -0.89579,-1.72503 0.11053,-0.51043 1.25,-0.94464 1.25,-0.94464 l 0.16316,0.45958 c -0.38049,-1.27579 -0.54342,-1.55226 0.0416,-2.29926 0.47038,-0.60064 1.71455,-0.2507 2.18742,0.26834 0.3856,0.42325 0.37162,1.21233 0.94334,1.60632 z" inkscape:connector-curvature="0" />
        <path style="color:#000000;font-style:normal;font-variant:normal;font-weight:normal;font-stretch:normal;font-size:medium;line-height:normal;font-family:sans-serif;text-indent:0;text-align:start;text-decoration:none;text-decoration-line:none;text-decoration-style:solid;text-decoration-color:#000000;letter-spacing:normal;word-spacing:normal;text-transform:none;direction:ltr;block-progression:tb;writing-mode:lr-tb;baseline-shift:baseline;text-anchor:start;white-space:normal;clip-rule:nonzero;display:inline;overflow:visible;visibility:visible;opacity:1;isolation:auto;mix-blend-mode:normal;color-interpolation:sRGB;color-interpolation-filters:linearRGB;solid-color:#000000;solid-opacity:1;fill:#000000;fill-opacity:1;fill-rule:nonzero;stroke:none;stroke-width:0.49999997;stroke-linecap:butt;stroke-linejoin:miter;stroke-miterlimit:4;stroke-dasharray:none;stroke-dashoffset:0;stroke-opacity:1;color-rendering:auto;image-rendering:auto;shape-rendering:auto;text-rendering:auto;enable-background:accumulate" d="m 89.94141,287.44531 c -0.54653,-0.13973 -1.02793,0.0475 -1.41993,0.37696 -0.39461,0.33166 -0.45344,0.73455 -0.43554,1.11718 0.009,0.1953 0.0749,0.48278 0.14843,0.71094 0.0247,0.0765 -0.13751,0.0543 -0.37499,0.19141 -0.31892,0.18405 -0.69539,0.49169 -0.78516,0.90624 -0.17772,0.8207 0.18277,1.73389 0.98633,1.96876 0.90806,0.26541 1.87242,-0.46589 2.70312,-0.18553 6.12153,2.06605 13.77428,5.90495 18.93945,8.59375 0.44579,0.23206 0.47891,0.99792 0.75,1.33398 0.47609,0.59019 1.43418,0.58737 1.82423,0.0606 0.41555,-0.56124 0.35263,-0.97015 0.71093,-1.40039 0.19962,-0.2397 0.27907,-0.36717 0.48047,-0.41602 0.10069,-0.0244 0.3919,-0.085 0.64844,-0.32813 0.37646,-0.35676 0.31231,-1.20126 -0.13264,-1.71679 -0.40032,-0.46384 -1.02404,-0.57439 -1.4961,-0.57426 -0.43431,1.2e-4 -0.8621,0.10335 -1.16011,0.002 -8.09046,-2.75143 -14.91003,-5.38426 -19.27539,-8.39258 -0.22086,-0.1522 -0.39434,-0.43852 -0.51171,-0.72461 -0.2365,-0.57649 -0.55594,-1.25663 -1.59983,-1.52351 z m 1.2188,1.80664 c 0.16982,0.38884 0.34852,0.54692 0.5469,0.80468 4.45711,3.07156 11.38831,5.66408 19.45508,8.50195 0.6315,0.22216 1.0547,0.10621 1.35742,0.0683 0.71089,-0.0889 1.08312,0.23005 1.22662,0.42788 0.35341,0.48722 0.19231,1.06561 -0.21479,1.15626 -0.18569,0.0413 -0.61103,0.17616 -0.88477,0.52148 -0.33647,0.42445 -0.37657,1.24201 -0.78515,1.55078 -0.31976,0.24165 -0.75772,0.27891 -1.05469,-0.17966 -0.32208,-0.49734 -0.27651,-1.10107 -0.88672,-1.42774 -5.13397,-2.7485 -12.86209,-6.41107 -18.97265,-8.61133 -0.88412,-0.31835 -1.92323,0.3249 -2.69727,0.23828 -0.58607,-0.0656 -0.8665,-0.91439 -0.74219,-1.48829 0.0208,-0.0959 0.18739,-0.36795 0.46875,-0.52344 0.30948,-0.17102 0.40248,-0.17047 0.44922,-0.0664 0.0857,0.19085 0.13229,0.44867 0.15637,0.72069 0.0197,0.22228 0.17958,-0.0361 0.20117,-0.10743 0.0917,-0.30287 -1.1e-4,-0.84555 -0.0587,-0.98826 -0.35066,-0.85435 -0.24288,-1.31016 0.12868,-1.7077 0.29779,-0.31861 0.72973,-0.39498 1.09186,-0.27481 0.69853,0.2318 0.95425,0.78805 1.21486,1.38476 z" inkscape:connector-curvature="0" />
      </g>
      <g transform="translate(0,-10)" >
        <path style="color:#000000;clip-rule:nonzero;display:inline;overflow:visible;visibility:visible;opacity:1;isolation:auto;mix-blend-mode:normal;color-interpolation:sRGB;color-interpolation-filters:linearRGB;solid-color:#000000;solid-opacity:1;fill:#ffffff;fill-opacity:1;fill-rule:nonzero;stroke:none;stroke-width:0.49999997;stroke-linecap:butt;stroke-linejoin:miter;stroke-miterlimit:4;stroke-dasharray:none;stroke-dashoffset:0;stroke-opacity:1;color-rendering:auto;image-rendering:auto;shape-rendering:auto;text-rendering:auto;enable-background:accumulate" d="m 109.41706,289.80736 c -4.41124,3.03993 -11.33218,5.63427 -19.39618,8.47116 -0.51356,0.18067 -1.26729,0.0129 -1.26729,0.0129 -1.03108,0.0262 -1.76032,0.59243 -1.42127,1.81302 0.15625,0.5625 0.60065,0.1875 1.10065,0.75 0.59594,0.67043 0.31337,0.98447 0.78702,1.45924 0.37301,0.37389 0.95237,0.38325 1.41542,-0.0762 0.43122,-0.4279 0.24851,-1.07751 0.79513,-1.34257 5.2397,-2.54083 12.94978,-6.27419 18.97954,-8.64117 0.75546,-0.29655 1.95134,0.5095 2.69668,0.18835 0.65522,-0.28232 1.04679,-1.02773 0.89579,-1.72503 -0.11053,-0.51043 -1.25,-0.94464 -1.25,-0.94464 l -0.16316,0.45958 c 0.38049,-1.27579 0.54342,-1.55226 -0.0416,-2.29926 -0.47038,-0.60064 -1.71455,-0.2507 -2.18742,0.26834 -0.3856,0.42325 -0.37162,1.21233 -0.94334,1.60632 z" inkscape:connector-curvature="0" />
        <path style="color:#000000;font-style:normal;font-variant:normal;font-weight:normal;font-stretch:normal;font-size:medium;line-height:normal;font-family:sans-serif;text-indent:0;text-align:start;text-decoration:none;text-decoration-line:none;text-decoration-style:solid;text-decoration-color:#000000;letter-spacing:normal;word-spacing:normal;text-transform:none;direction:ltr;block-progression:tb;writing-mode:lr-tb;baseline-shift:baseline;text-anchor:start;white-space:normal;clip-rule:nonzero;display:inline;overflow:visible;visibility:visible;opacity:1;isolation:auto;mix-blend-mode:normal;color-interpolation:sRGB;color-interpolation-filters:linearRGB;solid-color:#000000;solid-opacity:1;fill:#000000;fill-opacity:1;fill-rule:nonzero;stroke:none;stroke-width:0.49999997;stroke-linecap:butt;stroke-linejoin:miter;stroke-miterlimit:4;stroke-dasharray:none;stroke-dashoffset:0;stroke-opacity:1;color-rendering:auto;image-rendering:auto;shape-rendering:auto;text-rendering:auto;enable-background:accumulate" d="m 111.38756,287.33529 c -0.48664,0.0425 -1.11759,0.35128 -1.31171,0.78554 -0.25532,0.57121 -0.35791,1.10841 -0.80095,1.43578 -4.2638,3.15061 -11.02151,5.86741 -19.11914,8.59765 -0.37569,0.12667 -0.793,0.007 -1.18941,0 -0.55986,-0.009 -1.2909,0.0173 -1.62304,0.38477 -0.33215,0.36747 -0.49179,0.82955 -0.3072,1.49398 0.0492,0.17698 0.19508,0.41555 0.31501,0.50406 0.11993,0.0885 0.24305,0.11618 0.34375,0.14063 0.20139,0.0489 0.34354,0.0657 0.55078,0.29883 0.27206,0.30606 0.32523,0.48899 0.38672,0.70508 0.0615,0.21608 0.13631,0.48917 0.41016,0.76367 0.46295,0.46404 1.23127,0.45987 1.76953,-0.0742 0.27305,-0.27093 0.34319,-0.599 0.41601,-0.83594 0.0728,-0.23693 0.11923,-0.36621 0.31055,-0.45898 5.23957,-2.54077 12.92679,-6.14139 18.94079,-8.50219 0.26425,-0.10373 0.73389,-0.14378 1.22132,-0.0193 0.48743,0.1245 1.01877,0.28217 1.50586,0.0723 0.76885,-0.33126 1.21875,-1.18712 1.04101,-2.00781 -0.0898,-0.41456 -0.51237,-0.7471 -0.8313,-0.93114 -0.23626,-0.13633 -0.30692,-0.13408 -0.29326,-0.2428 0.0341,-0.27151 0.0324,-0.44202 0.0416,-0.63783 0.018,-0.38263 -0.0918,-0.65157 -0.42093,-1.02881 -0.39713,-0.45513 -0.89964,-0.48317 -1.35615,-0.44329 z m 0.96351,0.70764 c 0.31461,0.3192 0.35498,0.60714 0.37427,0.86802 0.0265,0.35796 0.0566,0.77981 -0.21212,1.56266 -0.0629,0.1834 -0.13514,0.41283 0.0458,0.26781 0.21765,-0.17449 0.32969,-0.52131 0.40328,-0.67267 0.0499,-0.10264 0.1234,-0.0467 0.3034,0.0364 0.32381,0.14909 0.5206,0.38204 0.54136,0.65469 0.0446,0.5855 -0.25812,1.17489 -0.79972,1.40825 -0.25824,0.11127 -0.69789,0.0264 -1.18359,-0.0976 -0.48573,-0.12404 -1.03674,-0.15395 -1.52796,0.0389 -6.04551,2.3732 -13.73417,5.97497 -18.974,8.51586 -0.35529,0.17229 -0.49003,0.5006 -0.57031,0.76171 -0.0803,0.26112 -0.13479,0.47195 -0.29297,0.62891 -0.38783,0.38482 -0.77943,0.36186 -1.0625,0.0781 -0.1998,-0.20028 -0.21858,-0.32159 -0.2832,-0.54883 -0.0646,-0.22722 -0.16831,-0.53603 -0.49219,-0.90039 -0.29276,-0.32936 -0.5411,-0.43101 -0.7644,-0.44761 -0.16657,-0.0124 -0.31978,-0.24306 -0.3377,-0.29665 -0.18307,-0.54743 -0.0422,-0.79871 0.17376,-1.01614 0.27893,-0.28078 0.87349,-0.22843 1.22527,-0.2358 0.44842,-0.009 0.77278,0.20066 1.40429,-0.0215 8.06676,-2.83789 14.84782,-5.48941 19.23633,-8.6582 0.53983,-0.38979 0.52785,-0.93704 0.79316,-1.50218 0.22245,-0.47382 0.76204,-0.67588 1.09941,-0.72147 0.2658,-0.0359 0.66161,0.0555 0.90033,0.29773 z" inkscape:connector-curvature="0" />
      </g>
      <g >
        <path style="color:#000000;clip-rule:nonzero;display:inline;overflow:visible;visibility:visible;opacity:1;isolation:auto;mix-blend-mode:normal;color-interpolation:sRGB;color-interpolation-filters:linearRGB;solid-color:#000000;solid-opacity:1;fill:#ffffff;fill-opacity:1;fill-rule:nonzero;stroke:none;stroke-width:0.49999997;stroke-linecap:butt;stroke-linejoin:miter;stroke-miterlimit:4;stroke-dasharray:none;stroke-dashoffset:0;stroke-opacity:1;color-rendering:auto;image-rendering:auto;shape-rendering:auto;text-rendering:auto;enable-background:accumulate" d="m 95.61696,289.40928 c -0.28542,-0.70119 -0.64431,-0.0511 -1.28032,-1.5943 -0.1555,-0.3773 0.0533,-1.26257 -0.20606,-1.97221 -1.08563,-2.97045 -0.70376,-4.38729 -0.13829,-5.43857 0.90077,-1.67462 2.37389,-2.68893 4.18898,-3.25565 1.68855,-0.52721 3.7114,-0.48187 5.36931,0.13497 1.87949,0.69928 2.96812,1.82798 3.83709,3.63528 0.56796,1.18125 0.75027,1.95911 0.46372,3.37367 -0.0839,0.41394 -0.6938,1.7573 -0.89959,2.67781 -0.13567,0.60688 0.13543,0.88631 0.028,1.10465 -0.68013,1.38226 -0.85951,0.68912 -1.42722,1.53162 -0.82001,1.21692 -0.9135,2.26072 -0.9135,2.26072 -2.62487,0.21736 -5.43031,0.27039 -8.01047,-0.13519 -0.21074,-2.67946 -0.3887,-0.7924 -1.01165,-2.3228 z" inkscape:connector-curvature="0" />
        <path style="color:#000000;font-style:normal;font-variant:normal;font-weight:normal;font-stretch:normal;font-size:medium;line-height:normal;font-family:sans-serif;text-indent:0;text-align:start;text-decoration:none;text-decoration-line:none;text-decoration-style:solid;text-decoration-color:#000000;letter-spacing:normal;word-spacing:normal;text-transform:none;direction:ltr;block-progression:tb;writing-mode:lr-tb;baseline-shift:baseline;text-anchor:start;white-space:normal;clip-rule:nonzero;display:inline;overflow:visible;visibility:visible;opacity:1;isolation:auto;mix-blend-mode:normal;color-interpolation:sRGB;color-interpolation-filters:linearRGB;solid-color:#000000;solid-opacity:1;fill:#000000;fill-opacity:1;fill-rule:nonzero;stroke:none;stroke-width:0.49999997;stroke-linecap:butt;stroke-linejoin:miter;stroke-miterlimit:4;stroke-dasharray:none;stroke-dashoffset:0;stroke-opacity:1;color-rendering:auto;image-rendering:auto;shape-rendering:auto;text-rendering:auto;enable-background:accumulate" d="m 101.77982,284.55725 c 0.004,0.96632 0.45036,2.0941 1.39212,2.05041 0.94176,-0.0437 1.37747,-1.03396 1.36409,-2.0552 -0.0134,-1.02124 -0.49476,-1.92637 -1.40364,-1.94387 -0.90889,-0.0175 -1.3563,0.98234 -1.35257,1.94866 z" inkscape:connector-curvature="0" />
        <path style="color:#000000;font-style:normal;font-variant:normal;font-weight:normal;font-stretch:normal;font-size:medium;line-height:normal;font-family:sans-serif;text-indent:0;text-align:start;text-decoration:none;text-decoration-line:none;text-decoration-style:solid;text-decoration-color:#000000;letter-spacing:normal;word-spacing:normal;text-transform:none;direction:ltr;block-progression:tb;writing-mode:lr-tb;baseline-shift:baseline;text-anchor:start;white-space:normal;clip-rule:nonzero;display:inline;overflow:visible;visibility:visible;opacity:1;isolation:auto;mix-blend-mode:normal;color-interpolation:sRGB;color-interpolation-filters:linearRGB;solid-color:#000000;solid-opacity:1;fill:#000000;fill-opacity:1;fill-rule:nonzero;stroke:none;stroke-width:0.49999997;stroke-linecap:butt;stroke-linejoin:miter;stroke-miterlimit:4;stroke-dasharray:none;stroke-dashoffset:0;stroke-opacity:1;color-rendering:auto;image-rendering:auto;shape-rendering:auto;text-rendering:auto;enable-background:accumulate" d="m 100.03721,289.11908 c -0.42377,-0.36462 -0.23973,-1.10247 0.38785,-2.14089 0.0843,-0.13938 0.41827,-0.11168 0.51275,0.021 0.6035,0.84762 0.67744,2.01011 0.33563,2.12543 -0.234,0.079 -0.36489,-0.0838 -0.58623,-0.37016 -0.23681,0.29673 -0.365,0.60983 -0.65,0.36461 z" inkscape:connector-curvature="0" />
        <path style="color:#000000;font-style:normal;font-variant:normal;font-weight:normal;font-stretch:normal;font-size:medium;line-height:normal;font-family:sans-serif;text-indent:0;text-align:start;text-decoration:none;text-decoration-line:none;text-decoration-style:solid;text-decoration-color:#000000;letter-spacing:normal;word-spacing:normal;text-transform:none;direction:ltr;block-progression:tb;writing-mode:lr-tb;baseline-shift:baseline;text-anchor:start;white-space:normal;clip-rule:nonzero;display:inline;overflow:visible;visibility:visible;opacity:1;isolation:auto;mix-blend-mode:normal;color-interpolation:sRGB;color-interpolation-filters:linearRGB;solid-color:#000000;solid-opacity:1;fill:#000000;fill-opacity:1;fill-rule:nonzero;stroke:none;stroke-width:0.49999997;stroke-linecap:butt;stroke-linejoin:miter;stroke-miterlimit:4;stroke-dasharray:none;stroke-dashoffset:0;stroke-opacity:1;color-rendering:auto;image-rendering:auto;shape-rendering:auto;text-rendering:auto;enable-background:accumulate" d="m 96.79629,284.49096 c 0.004,0.96632 0.38407,2.09409 1.34792,2.0725 0.96385,-0.0216 1.44376,-1.01186 1.43038,-2.0331 -0.0134,-1.02124 -0.45057,-1.90429 -1.33735,-1.94387 -0.88677,-0.0396 -1.44468,0.93815 -1.44095,1.90447 z" inkscape:connector-curvature="0" />
        <path style="color:#000000;font-style:normal;font-variant:normal;font-weight:normal;font-stretch:normal;font-size:medium;line-height:normal;font-family:sans-serif;text-indent:0;text-align:start;text-decoration:none;text-decoration-line:none;text-decoration-style:solid;text-decoration-color:#000000;letter-spacing:normal;word-spacing:normal;text-transform:none;direction:ltr;block-progression:tb;writing-mode:lr-tb;baseline-shift:baseline;text-anchor:start;white-space:normal;clip-rule:nonzero;display:inline;overflow:visible;visibility:visible;opacity:1;isolation:auto;mix-blend-mode:normal;color-interpolation:sRGB;color-interpolation-filters:linearRGB;solid-color:#000000;solid-opacity:1;fill:#000000;fill-opacity:1;fill-rule:nonzero;stroke:none;stroke-width:0.49999997;stroke-linecap:butt;stroke-linejoin:miter;stroke-miterlimit:4;stroke-dasharray:none;stroke-dashoffset:0;stroke-opacity:1;color-rendering:auto;image-rendering:auto;shape-rendering:auto;text-rendering:auto;enable-background:accumulate" d="m 100.65625,276.60942 c -0.85308,-0.0126 -2.0994,0.19349 -2.75586,0.39844 -1.86941,0.58365 -2.83514,1.247 -3.88476,2.72657 -0.44,0.76902 -1.06058,1.73123 -0.99181,3.39023 0.058,1.39821 1.39651,3.32249 1.12006,4.24558 -0.10938,0.36524 -0.0785,0.6196 0.30526,1.01848 1.20238,1.37095 1.90562,2.41351 1.91019,3.23239 -0.008,0.23436 0.045,0.42743 0.24414,0.44141 2.80929,0.37265 5.12783,0.29481 7.9453,0.08 0.21185,-0.008 0.29297,-0.1875 0.29297,-0.39063 0.19662,-1.54374 0.9314,-2.00835 1.9863,-3.07614 0.28784,-0.27357 0.62427,-0.65332 0.29883,-1.33789 -0.23102,-0.48596 0.92245,-2.47356 1.06055,-3.55859 0.14911,-1.17151 -0.15793,-2.26393 -0.5293,-3.10157 -0.88762,-1.84613 -1.94831,-2.7592 -3.86523,-3.52929 -0.93109,-0.37405 -2.26053,-0.52603 -3.13664,-0.53899 z m -0.043,0.46285 c 1.09915,0.0507 2.08553,0.14066 3.01172,0.51567 1.72448,0.69823 2.70048,1.44439 3.55078,3.21288 0.36939,0.76826 0.69557,1.73619 0.54493,2.99415 -0.2428,1.03053 -1.05425,2.50934 -1.02149,3.02539 0,0 -0.0861,-0.15602 -0.21289,-0.41601 -0.18281,-0.37493 -0.21233,-0.57486 -0.27149,-1.11328 -0.0268,-0.24371 -0.29862,-0.32626 -0.29296,-0.22657 0.0416,0.73466 0.10464,1.0742 0.24804,1.5918 0.10978,0.39625 0.43528,0.73247 0.46485,1.14258 0.009,0.12977 -0.0461,0.34222 -0.13868,0.43359 -1.26028,1.19619 -2.08802,2.47382 -2.17578,3.43356 -2.51398,0.3381 -4.97436,0.2315 -7.47461,-0.0937 -0.14518,-1.85044 -1.10626,-2.38298 -2.14453,-3.76949 -0.18886,-0.25326 0.28842,-0.85838 0.40236,-1.26172 0.1228,-0.43469 0.32716,-0.88898 0.22258,-1.5508 -0.0245,-0.15513 -0.22882,0.13848 -0.28125,0.41603 -0.11651,0.61664 -0.28224,0.85172 -0.51435,1.37048 -0.0721,-1.12896 -0.74529,-2.04641 -0.91036,-3.0504 -0.28321,-1.72251 0.14892,-2.51897 0.80286,-3.6236 0.72882,-1.23113 1.99799,-2.15947 3.63348,-2.63984 0.72356,-0.21252 1.87504,-0.42215 2.55679,-0.39072 z" inkscape:connector-curvature="0" />
        <path style="color:#000000;font-style:normal;font-variant:normal;font-weight:normal;font-stretch:normal;font-size:medium;line-height:normal;font-family:sans-serif;text-indent:0;text-align:start;text-decoration:none;text-decoration-line:none;text-decoration-style:solid;text-decoration-color:#000000;letter-spacing:normal;word-spacing:normal;text-transform:none;direction:ltr;block-progression:tb;writing-mode:lr-tb;baseline-shift:baseline;text-anchor:start;white-space:normal;clip-rule:nonzero;display:inline;overflow:visible;visibility:visible;opacity:1;isolation:auto;mix-blend-mode:normal;color-interpolation:sRGB;color-interpolation-filters:linearRGB;solid-color:#000000;solid-opacity:1;fill:#000000;fill-opacity:1;fill-rule:nonzero;stroke:none;stroke-width:0.49999997;stroke-linecap:butt;stroke-linejoin:miter;stroke-miterlimit:4;stroke-dasharray:none;stroke-dashoffset:0;stroke-opacity:1;color-rendering:auto;image-rendering:auto;shape-rendering:auto;text-rendering:auto;enable-background:accumulate" d="m 97.6294,290.74837 c 0.0146,1.13412 -0.0956,1.27773 -0.0956,1.27773 l 0.61964,-0.048 c 0,0 -0.0652,-0.2374 -0.0975,-1.11199 -0.005,-0.1474 -0.42845,-0.26523 -0.42655,-0.11774 z" inkscape:connector-curvature="0" />
        <path style="color:#000000;font-style:normal;font-variant:normal;font-weight:normal;font-stretch:normal;font-size:medium;line-height:normal;font-family:sans-serif;text-indent:0;text-align:start;text-decoration:none;text-decoration-line:none;text-decoration-style:solid;text-decoration-color:#000000;letter-spacing:normal;word-spacing:normal;text-transform:none;direction:ltr;block-progression:tb;writing-mode:lr-tb;baseline-shift:baseline;text-anchor:start;white-space:normal;clip-rule:nonzero;display:inline;overflow:visible;visibility:visible;opacity:1;isolation:auto;mix-blend-mode:normal;color-interpolation:sRGB;color-interpolation-filters:linearRGB;solid-color:#000000;solid-opacity:1;fill:#000000;fill-opacity:1;fill-rule:nonzero;stroke:none;stroke-width:0.49999997;stroke-linecap:butt;stroke-linejoin:miter;stroke-miterlimit:4;stroke-dasharray:none;stroke-dashoffset:0;stroke-opacity:1;color-rendering:auto;image-rendering:auto;shape-rendering:auto;text-rendering:auto;enable-background:accumulate" d="m 99.05443,290.95071 c 0.0466,0.86236 -0.0404,1.24458 -0.0404,1.24458 l 0.53125,-0.0811 c 0,0 -0.054,-0.23486 -0.0422,-1.1341 0.002,-0.1427 -0.40962,-0.22457 -0.4376,-0.0846 z" inkscape:connector-curvature="0" />
        <path style="color:#000000;font-style:normal;font-variant:normal;font-weight:normal;font-stretch:normal;font-size:medium;line-height:normal;font-family:sans-serif;text-indent:0;text-align:start;text-decoration:none;text-decoration-line:none;text-decoration-style:solid;text-decoration-color:#000000;letter-spacing:normal;word-spacing:normal;text-transform:none;direction:ltr;block-progression:tb;writing-mode:lr-tb;baseline-shift:baseline;text-anchor:start;white-space:normal;clip-rule:nonzero;display:inline;overflow:visible;visibility:visible;opacity:1;isolation:auto;mix-blend-mode:normal;color-interpolation:sRGB;color-interpolation-filters:linearRGB;solid-color:#000000;solid-opacity:1;fill:#000000;fill-opacity:1;fill-rule:nonzero;stroke:none;stroke-width:0.49999997;stroke-linecap:butt;stroke-linejoin:miter;stroke-miterlimit:4;stroke-dasharray:none;stroke-dashoffset:0;stroke-opacity:1;color-rendering:auto;image-rendering:auto;shape-rendering:auto;text-rendering:auto;enable-background:accumulate" d="m 100.4009,290.99111 c 0.0202,0.9611 -0.0846,1.25563 -0.0846,1.25563 l 0.60859,-0.11428 c 0,0 -0.11429,-0.11132 -0.0532,-1.12305 0.0103,-0.17158 -0.47427,-0.19016 -0.47066,-0.0183 z" inkscape:connector-curvature="0" />
        <path style="color:#000000;font-style:normal;font-variant:normal;font-weight:normal;font-stretch:normal;font-size:medium;line-height:normal;font-family:sans-serif;text-indent:0;text-align:start;text-decoration:none;text-decoration-line:none;text-decoration-style:solid;text-decoration-color:#000000;letter-spacing:normal;word-spacing:normal;text-transform:none;direction:ltr;block-progression:tb;writing-mode:lr-tb;baseline-shift:baseline;text-anchor:start;white-space:normal;clip-rule:nonzero;display:inline;overflow:visible;visibility:visible;opacity:1;isolation:auto;mix-blend-mode:normal;color-interpolation:sRGB;color-interpolation-filters:linearRGB;solid-color:#000000;solid-opacity:1;fill:#000000;fill-opacity:1;fill-rule:nonzero;stroke:none;stroke-width:0.49999997;stroke-linecap:butt;stroke-linejoin:miter;stroke-miterlimit:4;stroke-dasharray:none;stroke-dashoffset:0;stroke-opacity:1;color-rendering:auto;image-rendering:auto;shape-rendering:auto;text-rendering:auto;enable-background:accumulate" d="m 101.7947,291.02458 c 0.0146,1.13412 -0.0957,1.1562 -0.0957,1.1562 l 0.61964,-0.048 c 0,0 -0.0653,-0.24845 -0.0974,-1.12304 -0.005,-0.1474 -0.42845,-0.13265 -0.42655,0.0148 z" inkscape:connector-curvature="0" />
        <path style="color:#000000;font-style:normal;font-variant:normal;font-weight:normal;font-stretch:normal;font-size:medium;line-height:normal;font-family:sans-serif;text-indent:0;text-align:start;text-decoration:none;text-decoration-line:none;text-decoration-style:solid;text-decoration-color:#000000;letter-spacing:normal;word-spacing:normal;text-transform:none;direction:ltr;block-progression:tb;writing-mode:lr-tb;baseline-shift:baseline;text-anchor:start;white-space:normal;clip-rule:nonzero;display:inline;overflow:visible;visibility:visible;opacity:1;isolation:auto;mix-blend-mode:normal;color-interpolation:sRGB;color-interpolation-filters:linearRGB;solid-color:#000000;solid-opacity:1;fill:#000000;fill-opacity:1;fill-rule:nonzero;stroke:none;stroke-width:0.49999997;stroke-linecap:butt;stroke-linejoin:miter;stroke-miterlimit:4;stroke-dasharray:none;stroke-dashoffset:0;stroke-opacity:1;color-rendering:auto;image-rendering:auto;shape-rendering:auto;text-rendering:auto;enable-background:accumulate" d="m 103.054,291.017 c 0.0466,0.86236 -0.0625,1.112 -0.0625,1.112 l 0.53125,-0.0811 c 0,0 -0.054,-0.16857 -0.0422,-1.06781 0.002,-0.1427 -0.43425,-0.1056 -0.42655,0.0369 z" inkscape:connector-curvature="0" />
      </g>
    </g>
  </g>
</g>
<g inkscape:groupmode="layer" id="edge_guides_layer" inkscape:label="Edges" style="display:none" sodipodi:insensitive="true" >
  <g id="guide0-3" transform="" >
    <rect x="81.725" y="-22.5" width="164.875" height="22.5" style="fill:#ffd291;stroke:#000000;stroke-width:0.9" />
    <rect x="98.6" y="-22.5" width="148" height="22.5" style="fill:#b4e982;stroke:#000000;stroke-width:0.9" />
    <rect x="203.1" y="-22.5" width="43.5" height="22.5" style="fill:#5adc4f;stroke:#000000;stroke-width:0.9" />
    <rect x="152.35" y="-22.5" width="39.5" height="22.5" style="fill:#5adc4f;stroke:#000000;stroke-width:0.9" />
    <rect x="91.6" y="-22.5" width="49.5" height="22.5" style="fill:#5adc4f;stroke:#000000;stroke-width:0.9" />
    <rect x="0" y="-22.5" width="81.725" height="22.5" style="fill:#b9deff;stroke:#000000;stroke-width:0.9" />
    <rect x="0" y="-22.5" width="58.625" height="22.5" style="fill:#9bceff;stroke:#000000;stroke-width:0.9" />
    <rect x="0" y="-22.5" width="36.5" height="22.5" style="fill:#73baff;stroke:#000000;stroke-width:0.9" />
    <path style="display:inline;fill:none;stroke:#000000;stroke-width:2;stroke-linecap:round;stroke-miterlimit:4;stroke-dasharray:0.1, 5;stroke-dashoffset:0;stroke-opacity:1" d="m 161.25,0 0,-22.5" inkscape:connector-curvature="0" />
  </g>
  <g id="guide1-7" transform="matrix(0,1,-1,0,246.6,0)" >
    <rect x="0" y="-22.5" width="246.6" height="22.5" style="fill:#b4e982;stroke:#000000;stroke-width:0.9" />
    <rect x="0" y="-22.5" width="118.036" height="22.5" style="fill:#5adc4f;stroke:#000000;stroke-width:0.9" />
    <rect x="128.564" y="-22.5" width="118.036" height="22.5" style="fill:#5adc4f;stroke:#000000;stroke-width:0.9" />
    <path style="display:inline;fill:none;stroke:#000000;stroke-width:2;stroke-linecap:round;stroke-miterlimit:4;stroke-dasharray:0.1, 5;stroke-dashoffset:0;stroke-opacity:1" d="m 123.75,0 0,-22.5" inkscape:connector-curvature="0" />
  </g>
  <g id="guide2-7" transform="matrix(-1,0,0,-1,246.6,246.6)" >
    <rect x="0" y="-22.5" width="246.6" height="22.5" style="fill:#b4e982;stroke:#000000;stroke-width:0.9" />
    <rect x="0" y="-22.5" width="118.036" height="22.5" style="fill:#5adc4f;stroke:#000000;stroke-width:0.9" />
    <rect x="128.564" y="-22.5" width="118.036" height="22.5" style="fill:#5adc4f;stroke:#000000;stroke-width:0.9" />
    <path style="display:inline;fill:none;stroke:#000000;stroke-width:2;stroke-linecap:round;stroke-miterlimit:4;stroke-dasharray:0.1, 5;stroke-dashoffset:0;stroke-opacity:1" d="m 123.75,0 0,-22.5" inkscape:connector-curvature="0" />
  </g>
  <g id="guide3-6" transform="matrix(0,-1,1,0,0,246.6)" >
    <rect x="0" y="-22.5" width="164.875" height="22.5" style="fill:#ffd291;stroke:#000000;stroke-width:0.9" />
    <rect x="0" y="-22.5" width="148" height="22.5" style="fill:#b4e982;stroke:#000000;stroke-width:0.9" />
    <rect x="0" y="-22.5" width="43.5" height="22.5" style="fill:#5adc4f;stroke:#000000;stroke-width:0.9" />
    <rect x="54.75" y="-22.5" width="39.5" height="22.5" style="fill:#5adc4f;stroke:#000000;stroke-width:0.9" />
    <rect x="105.5" y="-22.5" width="49.5" height="22.5" style="fill:#5adc4f;stroke:#000000;stroke-width:0.9" />
    <rect x="164.875" y="-22.5" width="81.725" height="22.5" style="fill:#b9deff;stroke:#000000;stroke-width:0.9" />
    <rect x="187.975" y="-22.5" width="58.625" height="22.5" style="fill:#9bceff;stroke:#000000;stroke-width:0.9" />
    <rect x="210.1" y="-22.5" width="36.5" height="22.5" style="fill:#73baff;stroke:#000000;stroke-width:0.9" />
    <path style="display:inline;fill:none;stroke:#000000;stroke-width:2;stroke-linecap:round;stroke-miterlimit:4;stroke-dasharray:0.1, 5;stroke-dashoffset:0;stroke-opacity:1" d="m 86.25,0 0,-22.5" inkscape:connector-curvature="0" />
  </g>
</g>
<g inkscape:groupmode="layer" id="id_layer" inkscape:label="Card ID" style="display:none" sodipodi:insensitive="true" >
  <text xml:space="preserve" x="19.7" y="27.3" style="font-style:normal;font-variant:normal;font-weight:normal;font-stretch:normal;font-size:9px;line-height:125%;font-family:CCTreasureTrove;-inkscape-font-specification:'CCTreasureTrove, Normal';text-align:start;letter-spacing:0px;word-spacing:0px;writing-mode:lr-tb;text-anchor:start;display:inline;fill:#606060;fill-opacity:1;stroke:none;stroke-width:1px;stroke-linecap:butt;stroke-linejoin:miter;stroke-opacity:1" 
>3776c</text></g>
<g inkscape:groupmode="layer" id="cut_layer" inkscape:label="Cut Line" style="display:none" sodipodi:insensitive="true" >
  <rect id="cut-line" x="11.25" y="11.25" width="224.5" height="224.5" style="fill:none;stroke:#000000;stroke-width:0.5;stroke-linecap:butt;stroke-linejoin:bevel;stroke-miterlimit:4;stroke-dasharray:none;stroke-opacity:1" ry="11.338962" />
</g>
<g inkscape:groupmode="layer" id="page_border_layer" inkscape:label="Page Border" style="display:none" sodipodi:insensitive="true" >
  <rect x="0" y="0" width="246.6" height="246.6" style="fill:none;stroke:#000000;stroke-width:0.5;stroke-linecap:butt;stroke-linejoin:bevel;stroke-miterlimit:4;stroke-dasharray:none;stroke-opacity:1" />
</g>

</svg>
