<?xml version="1.0" encoding="UTF-8" standalone="no"?>
<svg version="1.1" height="337.5" width="247.5" xmlns:rdf="http://www.w3.org/1999/02/22-rdf-syntax-ns#" xmlns="http://www.w3.org/2000/svg" xmlns:cc="http://creativecommons.org/ns#" xmlns:xlink="http://www.w3.org/1999/xlink" xmlns:dc="http://purl.org/dc/elements/1.1/" xmlns:sodipodi="http://sodipodi.sourceforge.net/DTD/sodipodi-0.dtd" xmlns:svg="http://www.w3.org/2000/svg" xmlns:inkscape="http://www.inkscape.org/namespaces/inkscape">
<metadata>
  <rdf:RDF>
    <cc:Work rdf:about="">
      <dc:format>image/svg+xml</dc:format>
      <dc:type rdf:resource="http://purl.org/dc/dcmitype/StillImage"/>
      <dc:title/>
      <dc:creator>
        <cc:Agent><dc:title>Gary Kacmarcik</dc:title></cc:Agent>
      </dc:creator>
    </cc:Work>
  </rdf:RDF>
</metadata>

<defs>
  <filter inkscape:label="textureGrassBig" style="color-interpolation-filters:sRGB" id="textureGrassBig">
    <feTurbulence numOctaves="2" seed="4" type="turbulence" baseFrequency="0.070000" result="result1" />
    <feColorMatrix result="result0" in="SourceGraphic" type="luminanceToAlpha" />
    <feColorMatrix result="result2" values="1 0 0 0 0 0 1 0 0 0 0 0 1 0 0 0 0 0 0.4 0 " />
    <feComposite in="result2" operator="over" in2="result1" />
    <feColorMatrix result="result91" values="1 0 0 0 0 0 1 0 0 0 0 0 1 0 0 0 0 0 10 -4 " />
    <feComposite operator="out" in="SourceGraphic" in2="result91" />
    <feGaussianBlur stdDeviation="2.500000" />
    <feColorMatrix values="1 0 0 0 0 0 1 0 0 0 0 0 1 0 0 0 0 0 1 0 " />
  </filter>
  <filter inkscape:label="textureGrassSmall" style="color-interpolation-filters:sRGB" id="textureGrassSmall">
    <feTurbulence numOctaves="4" seed="4" type="turbulence" baseFrequency="0.500000" result="result1" />
    <feColorMatrix result="result0" in="SourceGraphic" type="luminanceToAlpha" />
    <feColorMatrix result="result2" values="1 0 0 0 0 0 1 0 0 0 0 0 1 0 0 0 0 0 0.4 0 " />
    <feComposite in="result2" operator="over" in2="result1" />
    <feColorMatrix result="result91" values="1 0 0 0 0 0 1 0 0 0 0 0 1 0 0 0 0 0 10 -4 " />
    <feComposite operator="out" in="SourceGraphic" in2="result91" />
    <feGaussianBlur stdDeviation="1.000000" />
    <feColorMatrix values="1 0 0 0 0 0 1 0 0 0 0 0 1 0 0 0 0 0 1 0 " />
  </filter>
  <filter inkscape:label="textureLand" style="color-interpolation-filters:sRGB" id="textureLand">
    <feTurbulence numOctaves="4" seed="4" type="turbulence" baseFrequency="0.500000" result="result1" />
    <feColorMatrix result="result0" in="SourceGraphic" type="luminanceToAlpha" />
    <feColorMatrix result="result2" values="1 0 0 0 0 0 1 0 0 0 0 0 1 0 0 0 0 0 0.4 0 " />
    <feComposite in="result2" operator="over" in2="result1" />
    <feColorMatrix result="result91" values="1 0 0 0 0 0 1 0 0 0 0 0 1 0 0 0 0 0 10 -4 " />
    <feComposite operator="out" in="SourceGraphic" in2="result91" />
    <feGaussianBlur stdDeviation="0.800000" />
    <feColorMatrix values="1 0 0 0 0 0 1 0 0 0 0 0 1 0 0 0 0 0 1 0 " />
  </filter>
  <filter inkscape:label="textureForestBig" style="color-interpolation-filters:sRGB" id="textureForestBig">
    <feTurbulence numOctaves="2" seed="4" type="turbulence" baseFrequency="0.300000" result="result1" />
    <feColorMatrix result="result0" in="SourceGraphic" type="luminanceToAlpha" />
    <feColorMatrix result="result2" values="1 0 0 0 0 0 1 0 0 0 0 0 1 0 0 0 0 0 0.4 0 " />
    <feComposite in="result2" operator="over" in2="result1" />
    <feColorMatrix result="result91" values="1 0 0 0 0 0 1 0 0 0 0 0 1 0 0 0 0 0 10 -4 " />
    <feComposite operator="out" in="SourceGraphic" in2="result91" />
    <feGaussianBlur stdDeviation="2.000000" />
    <feColorMatrix values="1 0 0 0 0 0 1 0 0 0 0 0 1 0 0 0 0 0 1 0 " />
  </filter>
  <filter inkscape:label="textureForestSmall" style="color-interpolation-filters:sRGB" id="textureForestSmall">
    <feTurbulence numOctaves="4" seed="4" type="turbulence" baseFrequency="0.350000" result="result1" />
    <feColorMatrix result="result0" in="SourceGraphic" type="luminanceToAlpha" />
    <feColorMatrix result="result2" values="1 0 0 0 0 0 1 0 0 0 0 0 1 0 0 0 0 0 0.4 0 " />
    <feComposite in="result2" operator="over" in2="result1" />
    <feColorMatrix result="result91" values="1 0 0 0 0 0 1 0 0 0 0 0 1 0 0 0 0 0 10 -4 " />
    <feComposite operator="out" in="SourceGraphic" in2="result91" />
    <feGaussianBlur stdDeviation="1.000000" />
    <feColorMatrix values="1 0 0 0 0 0 1 0 0 0 0 0 1 0 0 0 0 0 1 0 " />
  </filter>
  <filter inkscape:label="roughenShoreline" style="color-interpolation-filters:sRGB" id="roughenShoreline">
    <feTurbulence numOctaves="4" seed="4" type="turbulence" baseFrequency="0.050000" result="turb" />
    <feDisplacementMap scale="6.600000" yChannelSelector="G" xChannelSelector="R" in="SourceGraphic" in2="turb" />
  </filter>
  <filter inkscape:label="roughenForest" style="color-interpolation-filters:sRGB" id="roughenForest">
    <feTurbulence numOctaves="4" seed="4" type="fractalNoise" baseFrequency="0.150000 0.150000" result="turb" />
    <feDisplacementMap scale="6.600000" yChannelSelector="G" xChannelSelector="R" in="SourceGraphic" in2="turb" />
  </filter>
  <filter inkscape:collect="always" inkscape:label="blurSuitRankGlow" style="color-interpolation-filters:sRGB" id="blurSuitRankGlow" x="-0.029025" y="-0.020458" width="1.058049" height="1.040917">
    <feGaussianBlur inkscape:collect="always" stdDeviation="2.515067" />
  </filter>
  <filter inkscape:collect="always" inkscape:label="blurWaterDeep" style="color-interpolation-filters:sRGB" id="blurWaterDeep" x="-0.056691" y="-0.041620" width="1.113381" height="1.083239">
    <feGaussianBlur inkscape:collect="always" stdDeviation="6.919136" />
  </filter>
  <filter inkscape:collect="always" inkscape:label="blurWaterShallow" style="color-interpolation-filters:sRGB" id="blurWaterShallow" x="-0.055818" y="-0.042103" width="1.111637" height="1.084205">
    <feGaussianBlur inkscape:collect="always" stdDeviation="6.561501" />
  </filter>
  <filter inkscape:collect="always" inkscape:label="blurWaterHilight" style="color-interpolation-filters:sRGB" id="blurWaterHilight" x="-0.071178" y="-0.051856" width="1.142356" height="1.103712">
    <feGaussianBlur inkscape:collect="always" stdDeviation="6.857532" />
  </filter>
  <filter inkscape:collect="always" inkscape:label="blurGrass" style="color-interpolation-filters:sRGB" id="blurGrass" x="-0.032100" y="-0.019164" width="1.064201" height="1.038328">
    <feGaussianBlur inkscape:collect="always" stdDeviation="2.386213" />
  </filter>
  <filter inkscape:collect="always" inkscape:label="blurForestShadow" style="color-interpolation-filters:sRGB" id="blurForestShadow" x="-0.033576" y="-0.018674" width="1.067152" height="1.037348">
    <feGaussianBlur inkscape:collect="always" stdDeviation="2.199785" />
  </filter>
  <filter inkscape:collect="always" inkscape:label="blurFlowerInner" style="color-interpolation-filters:sRGB" id="blurFlowerInner" x="-0.420000" y="-0.420000" width="1.840000" height="1.840000">
    <feGaussianBlur inkscape:collect="always" stdDeviation="1.605540" />
  </filter>
  <filter inkscape:collect="always" inkscape:label="blurFlowerMiddle" style="color-interpolation-filters:sRGB" id="blurFlowerMiddle" x="-0.240000" y="-0.240000" width="1.480000" height="1.480000">
    <feGaussianBlur inkscape:collect="always" stdDeviation="1.933705" />
  </filter>
  <linearGradient id="gradientStopsFish" inkscape:collect="always">
    <stop offset="0.000000" style="stop-color:#ff5555;stop-opacity:1.000000" />
    <stop offset="1.000000" style="stop-color:#ffffff;stop-opacity:1.000000" />
  </linearGradient>
  <linearGradient id="gradientStopsCoconut" inkscape:collect="always">
    <stop offset="0.000000" style="stop-color:#ffffff;stop-opacity:1.000000" />
    <stop offset="1.000000" style="stop-color:#c8c8c8;stop-opacity:0.000000" />
  </linearGradient>
  <linearGradient id="gradientStopsFlower" inkscape:collect="always">
    <stop offset="0.000000" style="stop-color:#b16dff;stop-opacity:1.000000" />
    <stop offset="1.000000" style="stop-color:#e7d2ff;stop-opacity:1.000000" />
  </linearGradient>
  <linearGradient id="gradientStopsJellyfish" inkscape:collect="always">
    <stop offset="0.000000" style="stop-color:#4f97ff;stop-opacity:1.000000" />
    <stop offset="1.000000" style="stop-color:#cfe3ff;stop-opacity:1.000000" />
  </linearGradient>
  <linearGradient id="gradientStopsShip" inkscape:collect="always">
    <stop offset="0.000000" style="stop-color:#b67800;stop-opacity:1.000000" />
    <stop offset="1.000000" style="stop-color:#d28b00;stop-opacity:1.000000" />
  </linearGradient>
  <linearGradient id="gradientFish" xlink:href="#gradientStopsFish" x1="178.789090" y1="-114.782830" x2="180.407300" y2="-103.782830" gradientTransform="translate(-178.76256,1.0606602)" gradientUnits="userSpaceOnUse" inkscape:collect="always" />
  <linearGradient id="gradientJellyfishTentacle1a" xlink:href="#gradientStopsJellyfish" x1="118.024030" y1="-110.827530" x2="121.753140" y2="-96.140030" gradientTransform="translate(-120,0)" gradientUnits="userSpaceOnUse" inkscape:collect="always" />
  <linearGradient id="gradientJellyfishTentacle1b" xlink:href="#gradientStopsJellyfish" x1="118.024030" y1="-110.827530" x2="121.753140" y2="-96.140030" gradientTransform="translate(-120,0)" gradientUnits="userSpaceOnUse" inkscape:collect="always" />
  <linearGradient id="gradientJellyfishTentacle2" xlink:href="#gradientStopsJellyfish" x1="118.218180" y1="-115.782610" x2="121.698270" y2="-97.813858" gradientTransform="translate(-120,0)" gradientUnits="userSpaceOnUse" inkscape:collect="always" />
  <linearGradient id="gradientJellyfishTentacle3" xlink:href="#gradientStopsJellyfish" x1="123.335370" y1="-114.610190" x2="116.678600" y2="-98.453941" gradientTransform="translate(-120,0)" gradientUnits="userSpaceOnUse" inkscape:collect="always" />
  <linearGradient id="gradientShip" xlink:href="#gradientStopsShip" x1="196.432910" y1="221.715270" x2="203.663250" y2="204.277770" gradientTransform="matrix(0.37654483,0.9263984,-0.9263984,0.37654483,355.66788,-318.43897)" gradientUnits="userSpaceOnUse" inkscape:collect="always" />
  <radialGradient id="gradientCoconut" xlink:href="#gradientStopsCoconut" cx="1.944096" cy="-60.612652" fx="1.944096" fy="-60.612652" r="6.723294" gradientUnits="userSpaceOnUse" gradientTransform="matrix(1.691364,-0.31394812,0.29762395,1.603419,17.826033,-7.042221)" inkscape:collect="always" />
  <radialGradient id="gradientFlower" xlink:href="#gradientStopsFlower" cx="60.884877" cy="-69.652750" fx="60.884877" fy="-69.652750" r="15.835310" gradientUnits="userSpaceOnUse" gradientTransform="matrix(0.8413905,0,0,0.87120012,-50.722984,-48.679159)" inkscape:collect="always" />
  <radialGradient id="gradientJellyfish" xlink:href="#gradientStopsJellyfish" cx="120.453410" cy="-112.943900" fx="120.453410" fy="-112.943900" r="10.580511" gradientUnits="userSpaceOnUse" gradientTransform="matrix(1.1662998,0.0435575,-0.04526952,1.2121402,-145.14628,17.080499)" inkscape:collect="always" />
</defs>

<sodipodi:namedview
    id="base"
    pagecolor="#ffffff"
    bordercolor="#666666"
    borderopacity="1.0"
    inkscape:pageopacity="0.0"
    inkscape:pageshadow="2"
    inkscape:zoom="2"
    inkscape:cx="115.37643"
    inkscape:cy="285.04449"
    inkscape:document-units="in"
    showgrid="true"
    units="in"
    inkscape:window-width="1392"
    inkscape:window-height="836"
    inkscape:window-x="39"
    inkscape:window-y="6"
    inkscape:window-maximized="0"
    inkscape:snap-grids="true"
    inkscape:snap-to-guides="true"
    inkscape:snap-nodes="true"
    inkscape:object-nodes="true"
    inkscape:snap-smooth-nodes="true"
    inkscape:snap-intersection-paths="true"
    inkscape:object-paths="true"
    inkscape:snap-bbox="true"
    inkscape:bbox-nodes="true"
    inkscape:snap-others="true"
    inkscape:bbox-paths="false"
    inkscape:snap-global="true" >
  <inkscape:grid
    type="xygrid"
    id="grid3051"
    empspacing="2"
    visible="true"
    enabled="true"
    snapvisiblegridlinesonly="true"
    spacingx="0.0625in"
    spacingy="0.0625in"
    dotted="false"
    units="in" />
</sodipodi:namedview>
<g inkscape:groupmode="layer" id="water_layer" inkscape:label="Water" style="display:inline" sodipodi:insensitive="true" >
  <rect id="water" style="fill:#b9deff;fill-opacity:1;stroke:none" x="0" y="0" width="247.5" height="337.5" />
</g>
<g inkscape:groupmode="layer" id="water_shallow_layer" inkscape:label="Water Shallow" style="display:inline" sodipodi:insensitive="true" >
  <path style="fill:#9bd1ff;fill-opacity:0.70;fill-rule:evenodd;stroke:none;filter:url(#blurWaterShallow)" d="m -11.25,-11.25 0,0.75 -1.75,0 1.75,30.5 0,64.375 22.5,0 11.25,0 L 45,67.5 l 22.5,-5.625 0,-22.5 11.25,-11.25 22.5,5.625 11.25,5.625 5.625,11.25 11.25,39.375 28.125,0 16.875,16.875 22.5,28.125 0,22.5 16.875,11.25 22.5,0 22.5,0 0,-180 z M 139.125,144.375 138,165.75 l 16.5,15.875 13.75,10.25 0.5,-14 -15.375,-4.625 z" inkscape:connector-curvature="0" />
</g>
<g inkscape:groupmode="layer" id="water_deep_layer" inkscape:label="Water Deep" style="display:inline" sodipodi:insensitive="true" >
  <path style="fill:#87c8ff;fill-opacity:0.60;fill-rule:evenodd;stroke:none;filter:url(#blurWaterDeep)" d="m -11.25,-11.25 0,61.875 22.5,0 c 0,0 11.678178,2.152594 16.875,0 4.899611,-2.029485 7.298362,-7.713115 11.25,-11.25 8.945901,-8.006964 16.795932,-18.525978 28.125,-22.5 7.077212,-2.482552 15.018868,-0.531668 22.5,0 13.2249,0.939865 27.51646,-0.304271 39.375,5.625 7.11512,3.557562 10.18668,12.568303 16.875,16.875 13.46921,8.673003 32.6914,6.621266 45,16.875 8.40014,6.997776 9.55272,20.006167 16.875,28.125 6.2788,6.961842 13.60609,13.910365 22.5,16.875 1.77878,0.59293 5.625,0 5.625,0 l 22.5,0 0,-112.5 z" inkscape:connector-curvature="0" />
</g>
<g inkscape:groupmode="layer" id="water_hilight_layer" inkscape:label="Water Hilight" style="display:inline" sodipodi:insensitive="true" >
  <use xlink:href="#shoreline" height="100%" width="100%" x="0" y="0" style="display:inline;fill:#ffffff;fill-opacity:1;stroke:#ffffff;stroke-opacity:1;filter:url(#blurWaterHilight)" />
</g>
<g inkscape:groupmode="layer" id="land_layer" inkscape:label="Land" style="display:inline" sodipodi:insensitive="true" >
  <use xlink:href="#shoreline" height="100%" width="100%" x="0" y="0" style="display:inline;fill:#ffddab;fill-opacity:1;stroke:none;stroke-width:1;stroke-miterlimit:4;stroke-dasharray:none;stroke-opacity:1" />
</g>
<g inkscape:groupmode="layer" id="land_texture_layer" inkscape:label="Land Texture" style="display:inline" sodipodi:insensitive="true" >
  <use xlink:href="#shoreline" height="100%" width="100%" x="0" y="0" style="display:inline;fill:#ffca7d;fill-opacity:1;stroke:none;stroke-width:1;stroke-miterlimit:4;stroke-dasharray:none;stroke-opacity:1;filter:url(#textureLand)" />
</g>
<g inkscape:groupmode="layer" id="shoreline_layer" inkscape:label="Shoreline" style="display:inline" sodipodi:insensitive="true" >
  <use xlink:href="#shoreline" height="100%" width="100%" x="0" y="0" style="display:inline;fill:none;fill-opacity:1;stroke:#5f4c14;stroke-width:1;stroke-miterlimit:4;stroke-dasharray:none;stroke-opacity:1" />
</g>
<g inkscape:groupmode="layer" id="shoreline_master_layer" inkscape:label="Shoreline Master" style="display:none" sodipodi:insensitive="true" >
  <path id="shoreline" style="color:#000000;clip-rule:nonzero;display:inline;overflow:visible;visibility:visible;opacity:1;isolation:auto;mix-blend-mode:normal;color-interpolation:sRGB;color-interpolation-filters:linearRGB;solid-color:#000000;solid-opacity:1;fill-opacity:1;fill-rule:evenodd;filter:url(#roughenShoreline);color-rendering:auto;image-rendering:auto;shape-rendering:auto;text-rendering:auto;enable-background:accumulate" d="M 89.41797,41.066406 C 88.13794,40.839111 83.6875,45.625 83.6875,45.625 L 86,52.25 c 0,0 1.25,6.125 2.25,10 0,0 -0.375,4.75 5,3 l -1.20117,-8.136719 c 0,0 8.45117,-11.988281 5.07617,-12.363281 L 89.75,41.5 C 89.7188,41.234375 89.60083,41.098877 89.41797,41.066406 Z M 151,126 c 0.375,11.125 4.875,16.125 6.25,20.75 0,0 11.875,8.5 15.75,6.75 l 8.5,3 c 2.125,-1 -6,-10.375 -6,-10.375 C 169,139.625 163,130.5 163,130.5 Z M 97.917969,87.121094 C 91.136233,86.864793 88.020197,101.95976 80.695312,94.55078 76.238076,90.042372 64.13104,90.94787 57.875,88.625 52.10789,86.48367 48.671684,100.89711 42.439454,101.92578 36.806523,102.85552 33.75,112.5 22.5,118.125 l -22.5,0 -22.5,0 0,241.875 292.5,0 0,-140.625 -22.5,0 c -5.41347,-2.375 -13.49074,-2.75 -18.875,-1 L 218.5,207.25 c -7.57222,-8.32009 -13.4428,-26.49677 -20.47852,-23.29102 -7.48161,3.40892 -9.27354,16.04643 -10.38281,20.2129 -3.28071,12.32247 4.22905,60.80119 -12.0664,62.62695 -7.54033,0.84483 -15.66986,-17.81836 -14.94532,-21.52344 1.47735,-7.55483 -7.62777,-24.22196 -12.41992,-32.81641 -4.75604,-8.52969 -15.67261,-14.25853 -16.32422,-21.46875 -0.86559,-9.57797 -17.30091,-15.47067 -19.30469,-23.1914 -2.44279,-9.41233 -0.73772,-11.97632 5.23438,-21.45703 3.9246,-6.23029 -3.69822,-20.22435 -0.79688,-26.86914 4.86272,-11.13687 -6.02487,-0.16423 -5.74218,-9.28516 0.20897,-6.74203 -4.89601,-19.678046 -11.947268,-22.730469 -0.48703,-0.21083 -0.956088,-0.318851 -1.408203,-0.335937 z" inkscape:connector-curvature="0" />
</g>
<g inkscape:groupmode="layer" id="grass_layer" inkscape:label="Grass" style="display:inline" sodipodi:insensitive="true" >
  <use xlink:href="#grass" height="100%" width="100%" x="0" y="0" style="display:inline;fill:#b4e982;fill-opacity:1;stroke:none;stroke-width:1;stroke-miterlimit:4;stroke-dasharray:none;stroke-opacity:1" />
</g>
<g inkscape:groupmode="layer" id="grass_texture1_layer" inkscape:label="Grass Texture Big" style="display:inline" sodipodi:insensitive="true" >
  <use xlink:href="#grass" height="100%" width="100%" x="0" y="0" style="display:inline;fill:#a7e46a;fill-opacity:1;stroke:none;stroke-width:1;stroke-miterlimit:4;stroke-dasharray:none;stroke-opacity:1;filter:url(#textureGrassBig)" />
</g>
<g inkscape:groupmode="layer" id="grass_texture2_layer" inkscape:label="Grass Texture Small" style="display:inline" sodipodi:insensitive="true" >
  <use xlink:href="#grass" height="100%" width="100%" x="0" y="0" style="display:inline;fill:#8cdd3d;fill-opacity:1;stroke:none;stroke-width:1;stroke-miterlimit:4;stroke-dasharray:none;stroke-opacity:1;filter:url(#textureGrassSmall)" />
</g>
<g inkscape:groupmode="layer" id="grass_master_layer" inkscape:label="Grass Master" style="display:none" sodipodi:insensitive="true" >
  <path id="grass" style="color:#000000;clip-rule:nonzero;display:inline;overflow:visible;visibility:visible;opacity:1;isolation:auto;mix-blend-mode:normal;color-interpolation:sRGB;color-interpolation-filters:linearRGB;solid-color:#000000;solid-opacity:1;fill-opacity:1;fill-rule:evenodd;filter:url(#blurGrass);color-rendering:auto;image-rendering:auto;shape-rendering:auto;text-rendering:auto;enable-background:accumulate" d="m 99.25,94.125 c -5.236863,-1.673608 -9.40857,6.53862 -14.875,7.125 -5.024365,0.53896 -9.697144,-3.558019 -14.75,-3.5 -4.60815,0.05291 -9.218521,1.509641 -13.375,3.5 -3.600254,1.72401 -6.429666,4.73254 -9.625,7.125 -4.309326,3.22655 -8.302198,6.90916 -12.875,9.75 -3.561334,2.21247 -7.16953,4.66173 -11.25,5.625 -3.649684,0.86157 -11.25,0 -11.25,0 l -22.5,0 0,225 270,0 0,-112.5 -22.5,0 c 0,0 -8.3488,-4.05101 -11.25,-7.5 -3.51854,-4.18289 -3.22966,-10.71649 -6.625,-15 -3.82544,-4.82611 -10.316,-15.27211 -16.25,-13.625 -5.80034,1.61001 -7.60404,11.34044 -8.75,17.25 -1.42777,7.36284 -1.79863,11.59684 -3,19 -0.94976,5.85271 1.48003,16.54865 -1.125,21.875 -2.9702,6.07298 -3.06136,14.65399 -9.25,17.375 -5.21118,2.29125 -12.19285,0.61286 -16.875,-2.625 -6.26137,-4.32994 -9.04356,-12.58907 -11.25,-19.875 -1.98585,-6.5575 0.36002,-13.9057 -1.5,-20.5 -1.92243,-6.81556 -6.21498,-12.73894 -9.75,-18.875 -4.4428,-7.71178 -8.98113,-17.92072 -14.375,-25 -4.48786,-5.89018 -11.56137,-7.37769 -14.875,-14 -2.31829,-4.63312 -3.31318,-10.07871 -3,-15.25 0.3656,-6.03692 4.91807,-11.24347 5.625,-17.25 0.72317,-6.14449 -0.17559,-12.45651 -1.5,-18.5 -1.27261,-5.80711 -3.65751,-11.34135 -6.125,-16.75 -2.03587,-4.46254 -2.45279,-11.381846 -7.125,-12.875 z" inkscape:connector-curvature="0" />
</g>
<g inkscape:groupmode="layer" id="forest_shadow_layer" inkscape:label="Forest Shadow" style="display:inline" sodipodi:insensitive="true" >
  <g style="filter:url(#blurForestShadow)" >
    <use xlink:href="#forest" height="100%" width="100%" x="0" y="0" style="display:inline;opacity:0.75;fill:#258c1b;fill-opacity:1;filter:url(#roughenForest)" />
  </g>
</g>
<g inkscape:groupmode="layer" id="forest_fill_layer" inkscape:label="Forest Fill" style="display:inline" sodipodi:insensitive="true" >
  <use xlink:href="#forest" height="100%" width="100%" x="0" y="0" style="fill:#83d700;fill-opacity:1;stroke:none;stroke-width:1.5;stroke-miterlimit:4;stroke-dasharray:none;stroke-opacity:1;filter:url(#roughenForest)" />
</g>
<g inkscape:groupmode="layer" id="forest_texture_big_layer" inkscape:label="Forest Texture Big" style="display:inline" sodipodi:insensitive="true" >
  <g style="filter:url(#textureForestBig)" >
    <use xlink:href="#forest" height="100%" width="100%" x="0" y="0" style="fill:#548c00;fill-opacity:1;stroke:none;stroke-width:1.5;stroke-miterlimit:4;stroke-dasharray:none;stroke-opacity:1;filter:url(#roughenForest)" />
  </g>
</g>
<g inkscape:groupmode="layer" id="forest_texture_small_layer" inkscape:label="Forest Texture Small" style="display:inline" sodipodi:insensitive="true" >
  <g style="filter:url(#textureForestSmall)" >
    <use xlink:href="#forest" height="100%" width="100%" x="0" y="0" style="fill:#78c125;fill-opacity:1;stroke:none;stroke-width:1;stroke-miterlimit:4;stroke-dasharray:none;stroke-opacity:1;filter:url(#roughenForest)" />
  </g>
</g>
<g inkscape:groupmode="layer" id="forest_outline_layer" inkscape:label="Forest Outline" style="display:inline" sodipodi:insensitive="true" >
  <use xlink:href="#forest" height="100%" width="100%" x="0" y="0" style="fill:none;fill-opacity:1;stroke:#006800;stroke-width:1.5;stroke-miterlimit:4;stroke-dasharray:none;stroke-opacity:1;filter:url(#roughenForest)" />
</g>
<g inkscape:groupmode="layer" id="forest_master_layer" inkscape:label="Forest Master" style="display:none" sodipodi:insensitive="true" >
  <path id="forest" style="color:#000000;clip-rule:nonzero;display:inline;overflow:visible;visibility:visible;opacity:1;isolation:auto;mix-blend-mode:normal;color-interpolation:sRGB;color-interpolation-filters:linearRGB;solid-color:#000000;solid-opacity:1;fill-opacity:1;fill-rule:nonzero;color-rendering:auto;image-rendering:auto;shape-rendering:auto;text-rendering:auto;enable-background:accumulate" d="m 83.5,104 c -4.418278,0 -8,2.91015 -8,6.5 0.0032,0.95743 0.266594,1.90248 0.771484,2.76758 -2.052686,1.2221 -3.267317,3.16479 -3.271484,5.23242 4.07e-4,1.45305 0.600031,2.8641 1.703125,4.00781 -0.06767,-0.003 -0.135379,-0.006 -0.203125,-0.008 -4.418278,0 -8,2.91015 -8,6.5 0.003,2.65585 1.994279,5.04308 5.029297,6.0293 -0.01677,0.15656 -0.02654,0.31356 -0.0293,0.4707 0,3.58985 3.581722,6.5 8,6.5 1.798858,-7e-5 3.545188,-0.49273 4.957031,-1.39844 1.225433,0.5861 2.620991,0.89623 4.042972,0.89844 4.418278,0 8,-2.91015 8,-6.5 -0.0018,-0.33627 -0.0358,-0.67191 -0.101562,-1.00391 0.03384,0.001 0.0677,0.003 0.101562,0.004 4.41828,0 8,-2.91015 8,-6.5 -0.006,-3.42815 -3.2871,-6.26343 -7.498047,-6.47852 C 100.02145,120.0283 101.99823,117.64675 102,115 c 0,-3.58985 -3.581722,-6.5 -8,-6.5 -0.939275,0.002 -1.870818,0.138 -2.751953,0.40234 C 90.348814,106.02101 87.15849,104.00243 83.5,104 Z m 5.294922,15.93359 c 1.319915,0.91589 2.970651,1.45814 4.703125,1.54493 -1.424515,0.46917 -2.652519,1.26185 -3.537109,2.2832 -0.755369,-0.57494 -1.640877,-1.02532 -2.607422,-1.32617 0.695557,-0.74044 1.187126,-1.59369 1.441406,-2.50196 z M 42,143 c -4.418278,0 -8,2.91015 -8,6.5 0.0015,0.3978 0.0479,0.79465 0.138672,1.18555 -0.577505,0.42461 -1.075599,0.91547 -1.478516,1.45703 C 32.114405,152.04814 31.557991,152.00036 31,152 c -1.654927,0.003 -3.268085,0.42239 -4.617188,1.20117 C 24.946761,151.22021 22.329592,150.00297 19.5,150 c -3.114844,0.003 -5.944429,1.47444 -7.251953,3.77148 C 11.095125,153.2692 9.8081916,153.0043 8.5,153 7.1928211,153.0013 5.9059466,153.26283 4.7519531,153.76172 3.5967925,153.26233 2.3085008,153.00078 1,153 c -4.418278,0 -8,2.91015 -8,6.5 0.00461,2.71129 2.080026,5.13546 5.2070312,6.08203 C -2.5785026,166.60805 -2.9964885,167.79167 -3,169 c 6.917e-4,1.67946 0.8014205,3.29352 2.234375,4.50391 -1.3613765,1.15359 -2.1519563,2.67425 -2.2207031,4.27148 -1.6023303,1.22675 -2.5116115,2.9358 -2.5136719,4.72461 8.025e-4,2.12711 1.282494,4.11931 3.4316406,5.33398 -1.5540259,1.22404 -2.4313181,2.90746 -2.4316406,4.66602 0.00209,0.86067 0.2145348,1.71243 0.625,2.50586 -0.041647,-0.002 -0.083315,-0.004 -0.125,-0.006 -4.418278,0 -8,2.91015 -8,6.5 0.0043,2.95993 2.4692375,5.54373 5.9960938,6.28516 0.1952578,0.17975 0.4026059,0.35058 0.6210937,0.51172 1.4354505,1.98171 4.0527313,3.19974 6.8828125,3.20312 0.4259682,-0.001 0.8511482,-0.0298 1.2714844,-0.0859 0.4061741,0.0543 0.816899,0.083 1.2285156,0.0859 0.131609,-0.001 0.2631595,-0.005 0.3945312,-0.0117 C 5.3773411,211.82538 6.4332055,211.99937 7.5,212 7.9068651,211.998 8.3129914,211.9717 8.7148438,211.9199 9.7469674,212.30015 10.866741,212.49788 12,212.5 c 0.2446,-0.001 0.488998,-0.0117 0.732422,-0.0312 0.255095,0.0204 0.51125,0.0308 0.767578,0.0312 2.500951,-0.002 4.856699,-0.95468 6.367188,-2.57422 0.374961,0.0465 0.75352,0.0713 1.132812,0.0742 0.835343,-0.002 1.665058,-0.1112 2.458984,-0.32227 1.48782,1.16634 3.473596,1.8194 5.541016,1.82227 4.418278,0 8,-2.91015 8,-6.5 -0.0039,-1.59524 -0.729614,-3.13363 -2.039062,-4.32227 3.244986,-0.85481 5.465881,-3.28744 5.53125,-6.05859 1.217249,0.57508 2.599746,0.87893 4.007812,0.88086 4.418278,0 8,-2.91015 8,-6.5 -5e-4,-1.68125 -0.802749,-3.29695 -2.238281,-4.50781 C 54.573738,184.37751 57.997125,181.50539 58,178 57.9989,176.06031 56.931655,174.22237 55.089844,172.98828 58.061114,171.97742 59.996364,169.61725 60,167 c -0.0019,-2.82803 -2.254069,-5.33055 -5.570312,-6.18945 0.04422,-0.26873 0.0677,-0.53944 0.07031,-0.81055 -0.0018,-3.06887 -2.644998,-5.71862 -6.339844,-6.35547 C 49.34857,152.47917 49.999254,151.01341 50,149.5 50,145.91015 46.418278,143 42,143 Z m -23.8125,23.60547 c -0.104735,0.13759 -0.203111,0.27831 -0.294922,0.42187 0.02473,-0.11606 0.04557,-0.23263 0.0625,-0.34961 0.07793,-0.0231 0.155414,-0.0472 0.232422,-0.0723 z m 16.171875,0.55273 c 0.538971,0.5245 1.176355,0.97666 1.888672,1.33985 -2.330753,1.18824 -3.746373,3.2663 -3.748047,5.50195 0.0015,0.0397 0.0035,0.0794 0.0059,0.11914 -0.403556,-0.0612 -0.812315,-0.0972 -1.222656,-0.10742 C 32.392241,172.8684 32.996782,171.45571 33,170 c -0.0035,-0.68433 -0.139907,-1.36392 -0.404297,-2.01367 0.62892,-0.21385 1.221614,-0.49215 1.763672,-0.82813 z m -17.248047,1.80469 c -0.02621,0.11862 -0.04836,0.2378 -0.06641,0.35742 -0.07655,0.0199 -0.152735,0.0407 -0.228516,0.0625 0.104683,-0.13695 0.203058,-0.27702 0.294926,-0.41992 z m -1.855469,12.03906 c 0.694299,0.35286 1.451165,0.61701 2.244141,0.78321 -0.302689,0.23509 -0.582193,0.48912 -0.835938,0.75976 -0.621451,-0.43024 -1.3203,-0.78065 -2.072265,-1.03906 0.232925,-0.15761 0.454637,-0.32585 0.664062,-0.50391 z m 15.691407,6.21485 c 0.245271,0.28899 0.518952,0.56137 0.818359,0.81445 -0.351694,0.0274 -0.700766,0.0737 -1.044922,0.13867 0.104655,-0.31267 0.180387,-0.63127 0.226563,-0.95312 z m -13.119141,4.24023 c 0.02139,0.0144 0.04287,0.0288 0.06445,0.043 -0.09001,0.22374 -0.164985,0.45129 -0.224609,0.68164 -0.04676,-0.1348 -0.09887,-0.26833 -0.15625,-0.40039 0.109677,-0.10532 0.215199,-0.21345 0.316406,-0.32422 z m -0.002,3.86719 c 0.245672,0.67763 0.625655,1.31819 1.125,1.89648 -1.721131,0.37224 -3.240162,1.20049 -4.316406,2.35352 -0.146595,-0.0183 -0.293788,-0.0333 -0.441407,-0.0449 1.87027,-0.93689 3.183967,-2.45753 3.632813,-4.20508 z M 24,222.5 c -3.303904,0.003 -6.265755,1.65569 -7.455078,4.16016 C 15.210106,225.90741 13.624826,225.50274 12,225.5 c -0.941244,0.001 -1.87483,0.13745 -2.7578125,0.40234 C 8.3641318,225.63892 7.4359926,225.50274 6.5,225.5 5.740994,225.501 4.9860296,225.5898 4.2578125,225.76367 3.1011158,225.26284 1.8106862,225.0006 0.5,225 c -4.418278,0 -8,2.91015 -8,6.5 1.909e-4,2.15352 1.3131214,4.16717 3.5058594,5.37695 C -6.4692775,238.03576 -7.9961042,240.17898 -8,242.5 c 0.0012,0.0977 0.0051,0.1954 0.011719,0.29297 -0.00526,0.069 -0.00917,0.13797 -0.011719,0.20703 3.783e-4,0.79244 0.1790989,1.57815 0.5273438,2.31836 C -8.1451721,246.2898 -8.4989476,247.38543 -8.5,248.5 c 0.00337,1.56101 0.6980384,3.06891 1.9570312,4.24805 C -7.8030416,253.92821 -8.4977851,255.43764 -8.5,257 c 0.00175,1.42559 0.5802825,2.81117 1.6464844,3.94336 -0.4260301,0.80793 -0.6459579,1.67768 -0.6464844,2.55664 8.025e-4,2.12711 1.282494,4.11931 3.4316406,5.33398 -1.5540259,1.22404 -2.4313181,2.90746 -2.4316406,4.66602 0.00418,2.51345 1.7914921,4.79968 4.5898438,5.87109 C -3.8587215,280.60192 -4.9989578,282.49463 -5,284.5 c 0.00213,2.32377 1.530895,4.46986 4.00976562,5.62891 C -3.182347,291.33681 -4.4965422,293.34796 -4.5,295.5 c 0.00187,1.89031 1.0164464,3.68632 2.7792969,4.91992 -1.1048497,1.1135 -1.7268236,2.49201 -1.7695313,3.92188 -0.6616198,0.96585 -1.0091589,2.05283 -1.0097656,3.1582 7.516e-4,1.70304 0.8241018,3.33782 2.2929688,4.55273 -2.7922772,0.99651 -4.6443246,3.19624 -4.7753907,5.67188 C -7.3210531,318.45182 -7.4963562,319.22249 -7.5,320 c 0.00438,2.96596 2.4792876,5.55336 6.015625,6.28906 0.0096,0.0235 0.019367,0.0469 0.029297,0.0703 C -3.9519613,327.5132 -5.4958262,329.66611 -5.5,332 c 0,3.58985 3.581722,6.5 8,6.5 0.4259669,-10e-4 0.8511468,-0.0298 1.2714844,-0.0859 0.2544696,0.17892 0.5225804,0.34462 0.8027344,0.4961 C 5.787351,341.37893 8.7283375,342.9987 12,343 c 3.688157,-0.004 6.89483,-2.05646 7.763672,-4.96875 1.506387,1.25878 3.575442,1.96889 5.736328,1.96875 1.308906,-0.002 2.597221,-0.26487 3.751953,-0.76562 1.309036,2.29371 4.136283,3.76257 7.248047,3.76562 2.615302,-6.7e-4 5.065077,-1.03994 6.560547,-2.7832 1.420638,2.02672 4.06885,3.27965 6.939453,3.2832 2.431586,-0.002 4.730008,-0.90264 6.246094,-2.44727 1.517795,1.54637 3.81958,2.4471 6.253906,2.44727 1.757203,-0.002 3.464913,-0.47305 4.859375,-1.3418 1.51809,1.48195 3.767582,2.33982 6.140625,2.3418 1.560705,-10e-4 3.086911,-0.3732 4.390625,-1.07031 0.367335,0.0443 0.738023,0.0678 1.109375,0.0703 1.131283,-0.003 2.248973,-0.20051 3.279297,-0.58008 1.45102,1.01791 3.303673,1.57863 5.220703,1.58008 2.173653,-0.003 4.252324,-0.72414 5.757812,-1.99805 1.27079,0.64951 2.740877,0.99538 4.242188,0.99805 2.361791,8e-5 4.60293,-0.84776 6.12305,-2.31641 1.18622,0.53482 2.52034,0.81576 3.87695,0.81641 4.00647,-0.003 7.39218,-2.41394 7.92188,-5.64062 1.33414,-1.19344 2.07479,-2.74714 2.07812,-4.35938 -1e-5,-1.46059 -0.60547,-2.8786 -1.71875,-4.02539 0.14202,-0.48313 0.21542,-0.9779 0.21875,-1.47461 -0.004,-1.78562 -0.9113,-3.49137 -2.50977,-4.7168 -0.0707,-1.63124 -0.89408,-3.18118 -2.30664,-4.34179 1.78367,-1.23283 2.81297,-3.03874 2.81641,-4.94141 -0.003,-0.96907 -0.27255,-1.92534 -0.78906,-2.79883 0.18853,-0.55417 0.28573,-1.12622 0.28906,-1.70117 -0.003,-1.3702 -0.53902,-2.70456 -1.53125,-3.8125 0.67508,-0.97287 1.03024,-2.07066 1.03125,-3.1875 -0.002,-2.81718 -2.23821,-5.31239 -5.53711,-6.17969 0.35187,-0.7403 0.53391,-1.52671 0.53711,-2.3203 -0.003,-2.29815 -1.4993,-4.42421 -3.93555,-5.5918 -1.10139,-2.6328 -4.142025,-4.40473 -7.56445,-4.4082 -4.418278,0 -8,2.91015 -8,6.5 0.0032,0.50879 0.07988,1.01551 0.228516,1.50977 -0.278712,0.23465 -0.535296,0.48601 -0.767578,0.75195 -0.585244,-0.44536 -1.24957,-0.81669 -1.970704,-1.10156 0.0041,-0.0534 0.0073,-0.10674 0.0098,-0.16016 0,-3.58985 -3.581722,-6.5 -8,-6.5 -3.109949,0.003 -5.935955,1.47005 -7.246094,3.76172 -0.645912,0.2777 -1.24195,0.62599 -1.771484,1.03516 0.0086,-0.0988 0.0145,-0.19782 0.01758,-0.29688 -0.0016,-3.44095 -3.303507,-6.28471 -7.53125,-6.48633 0.01875,-0.17082 0.02918,-0.34218 0.03125,-0.51367 -0.0029,-1.98094 -1.117478,-3.85267 -3.027344,-5.08398 0.01458,-0.1384 0.0237,-0.27714 0.02734,-0.41602 0,-3.58985 -3.581722,-6.5 -8,-6.5 -0.759006,10e-4 -1.513971,0.0898 -2.242188,0.26367 C 47.101115,268.76284 45.810686,268.5006 44.5,268.5 c -0.520859,0.002 -1.040252,0.045 -1.550781,0.12891 -0.681089,-1.41173 -1.948198,-2.58557 -3.582031,-3.31836 1.503153,-1.1063 2.433044,-2.63517 2.601562,-4.27735 1.345705,-0.43948 2.519053,-1.16793 3.394531,-2.10742 0.376251,0.0467 0.756122,0.0715 1.136719,0.0742 4.418278,0 8,-2.91015 8,-6.5 -0.0024,-3.56001 -3.528879,-6.45611 -7.910156,-6.49609 l 0.01172,-0.0195 c 0.132632,0.008 0.265485,0.0131 0.398436,0.0156 4.418278,0 8,-2.91015 8,-6.5 -0.0021,-0.75489 -0.165989,-1.50371 -0.484375,-2.21289 C 58.038694,236.54185 60.49821,233.95792 60.5,231 c 0,-3.58985 -3.581722,-6.5 -8,-6.5 -2.615302,6.7e-4 -5.065077,1.03994 -6.560547,2.7832 C 44.518815,225.25648 41.870603,224.00355 39,224 c -3.057209,0.003 -5.845149,1.42102 -7.183594,3.6543 C 31.034637,224.65268 27.776114,222.50394 24,222.5 Z m 183,2.5 c -4.41828,0 -8,2.91015 -8,6.5 0.005,3.51299 3.4438,6.38731 7.76562,6.49023 -1.51863,0.77257 -2.6741,1.93698 -3.28124,3.30665 -1.58487,1.2257 -2.48269,2.92534 -2.48438,4.70312 0.003,0.95312 0.26482,1.89396 0.76562,2.75586 -2.6221,1.12453 -4.26369,3.33512 -4.26562,5.74414 1.9e-4,2.15352 1.31312,4.16717 3.50586,5.37695 -2.47514,1.15881 -4.00196,3.30203 -4.00586,5.62305 0.003,2.24351 1.43055,4.32698 3.77539,5.51172 -0.0917,-0.005 -0.18352,-0.009 -0.27539,-0.0117 -4.09485,5.5e-4 -7.52813,2.51334 -7.95508,5.82227 -3.30114,0.86485 -5.54032,3.35957 -5.54492,6.17773 8.3e-4,1.48142 0.62445,2.91817 1.76758,4.07227 -1.02745,-0.37557 -2.14094,-0.57059 -3.26758,-0.57227 -2.99079,0.002 -5.73018,1.36003 -7.10156,3.51953 -4.17254,0.25565 -7.39771,3.08065 -7.39844,6.48047 0.003,0.51748 0.0813,1.03284 0.23438,1.53516 -4.1003,0.3203 -7.23101,3.11799 -7.23438,6.46484 0.002,2.41701 1.65526,4.63333 4.29102,5.75391 -3.4283,0.80025 -5.79036,3.34793 -5.79102,6.24609 0.003,1.53963 0.67851,3.02841 1.90625,4.20117 -0.48807,0.1969 -0.95011,0.43381 -1.37891,0.70703 -1.06063,-1.58917 -2.8879,-2.74767 -5.04296,-3.19726 -1.17283,-2.53257 -4.15402,-4.20988 -7.48438,-4.21094 -1.90975,0.003 -3.75532,0.56038 -5.20312,1.57227 -0.12791,-0.45792 -0.31651,-0.90323 -0.5625,-1.32813 2.6221,-1.12453 4.26369,-3.33512 4.26562,-5.74414 -0.002,-2.41979 -1.65852,-4.6383 -4.29883,-5.75781 C 143.73173,299.93807 140.58479,298.00027 137,298 c -4.41828,0 -8,2.91015 -8,6.5 0.002,2.41979 1.65852,4.6383 4.29883,5.75781 0.12102,0.34247 0.27649,0.67628 0.46484,0.99805 -2.62134,1.12495 -4.26212,3.33546 -4.26367,5.74414 0.003,1.11433 0.35904,2.20927 1.0332,3.17969 -1.30677,1.18884 -2.03035,2.72637 -2.0332,4.32031 0.003,0.8995 0.2358,1.78869 0.68359,2.61133 -0.77089,1.01951 -1.18046,2.19213 -1.18359,3.38867 0.003,1.56081 0.69679,3.06868 1.95508,4.24805 -1.25937,1.18039 -1.95341,2.6898 -1.95508,4.25195 0,3.58985 3.58172,6.5 8,6.5 3.72104,-0.004 6.9477,-2.09133 7.78516,-5.03711 1.63598,-0.13244 3.18202,-0.6712 4.42773,-1.54297 1.03272,0.38045 2.15319,0.57818 3.28711,0.58008 0.83534,-0.002 1.66506,-0.1112 2.45898,-0.32227 1.48782,1.16634 3.4736,1.8194 5.54102,1.82227 1.35812,-0.003 2.69301,-0.28642 3.87891,-0.82422 1.51784,1.47113 3.75842,2.3219 6.12109,2.32422 1.30718,-10e-4 2.59406,-0.26283 3.74805,-0.76172 1.15516,0.49939 2.44345,0.76094 3.75195,0.76172 0.75901,-10e-4 1.51397,-0.0898 2.24219,-0.26367 1.1567,0.50083 2.44712,0.76307 3.75781,0.76367 1.87768,-0.002 3.69465,-0.54062 5.13281,-1.52148 2.63947,-0.17119 5.0037,-1.39242 6.31446,-3.26172 1.49389,1.74142 3.94019,2.78046 6.55273,2.7832 1.40387,-0.003 2.78205,-0.30613 3.99609,-0.87891 1.13822,0.53391 2.42081,0.83175 3.73438,0.86719 1.27688,0.65834 2.75727,1.00914 4.26953,1.01172 2.52929,-0.003 4.90774,-0.97805 6.41406,-2.62891 0.52205,0.0858 1.05333,0.12894 1.58594,0.12891 1.13128,-0.003 2.24898,-0.2005 3.2793,-0.58008 1.45102,1.01791 3.30367,1.57863 5.2207,1.58008 2.55652,-0.003 4.9576,-0.99764 6.46094,-2.67773 1.10003,0.44362 2.31099,0.67552 3.53906,0.67773 0.76251,-0.002 1.52083,-0.0916 2.25195,-0.26758 0.72987,0.17564 1.48685,0.26574 2.24805,0.26758 4.41828,0 8,-2.91015 8,-6.5 -0.003,-0.50546 -0.0795,-1.00886 -0.22656,-1.5 0.14705,-0.49114 0.22308,-0.99454 0.22656,-1.5 -0.002,-2.41354 -1.64961,-4.62749 -4.2793,-5.75 2.62969,-1.12251 4.27737,-3.33646 4.2793,-5.75 -0.002,-0.77018 -0.17147,-1.53401 -0.50195,-2.25586 0.32881,-0.71816 0.49874,-1.4779 0.50195,-2.24414 -0.004,-1.78171 -0.90756,-3.48405 -2.5,-4.70898 1.2396,-1.14524 1.9441,-2.60817 1.99023,-4.13282 0.66162,-0.96585 1.00916,-2.05283 1.00977,-3.1582 -0.002,-2.32377 -1.5309,-4.46986 -4.00977,-5.62891 2.19211,-1.2079 3.50631,-3.21905 3.50977,-5.37109 -0.004,-2.77179 -2.17075,-5.23662 -5.39648,-6.13867 3.72001,-0.61838 6.39253,-3.27622 6.39648,-6.36133 -0.003,-0.49939 -0.0773,-0.99681 -0.2207,-1.48242 1.11194,-1.14448 1.71797,-2.55948 1.7207,-4.01758 -0.001,-1.04543 -0.31275,-2.0752 -0.9082,-3.00195 0.5947,-0.92558 0.90622,-1.95394 0.9082,-2.99805 0,-3.58985 -3.58172,-6.5 -8,-6.5 -0.33321,0.003 -0.66589,0.0222 -0.99609,0.0586 -0.33279,-0.0366 -0.66809,-0.0562 -1.00391,-0.0586 -0.67832,10e-4 -1.35366,0.073 -2.00977,0.21289 -0.64978,-0.13858 -1.31845,-0.2101 -1.99023,-0.21289 -0.64669,0.002 -1.29071,0.0675 -1.91797,0.19531 C 237.47082,259.24035 236.24431,259.00227 235,259 c -1.25604,0.002 -2.49387,0.24415 -3.61328,0.70703 -1.43495,-1.98419 -4.05426,-3.20396 -6.88672,-3.20703 -0.57361,0.002 -1.14526,0.0546 -1.70508,0.15625 0.46273,-0.83517 0.70301,-1.74036 0.70508,-2.65625 -0.002,-3.06887 -2.645,-5.71862 -6.33984,-6.35547 0.70889,-0.69833 1.23044,-1.50927 1.53125,-2.38086 2.64639,-1.11833 4.30722,-3.34004 4.30859,-5.76367 0,-3.58985 -3.58172,-6.5 -8,-6.5 -0.0762,0.001 -0.15239,0.003 -0.22852,0.006 0.14828,-0.49303 0.22497,-0.99847 0.22852,-1.506 0,-3.58985 -3.58172,-6.5 -8,-6.5 z M 17.859375,236.4082 c 0.04889,0.13223 0.102955,0.26315 0.162109,0.39258 -0.106601,-0.0832 -0.216018,-0.16394 -0.328125,-0.24219 0.05629,-0.0494 0.11164,-0.0996 0.166016,-0.15039 z M 36.75,236.73242 c 0.116481,0.0269 0.233699,0.0516 0.351562,0.0742 -0.158478,0.0383 -0.315455,0.0807 -0.470703,0.12695 0.04113,-0.0665 0.08085,-0.13356 0.119141,-0.20117 z m -16.787109,2.44922 c 0.307647,0.24255 0.638792,0.46462 0.990234,0.66406 -0.224402,0.0617 -0.445323,0.1314 -0.662109,0.20899 -0.08406,-0.2969 -0.193703,-0.58864 -0.328125,-0.87305 z m 12.40625,0.88477 c -0.536675,0.86177 -0.830248,1.80987 -0.859375,2.77539 -0.19799,0.29361 -0.367767,0.5992 -0.507813,0.91406 -0.568454,-1.25642 -1.600479,-2.33961 -2.955078,-3.10156 0.208885,-0.0569 0.414789,-0.12073 0.617187,-0.19141 0.277658,0.0242 0.556686,0.0366 0.835938,0.0371 0.981011,-3.8e-4 1.95357,-0.14735 2.869141,-0.43359 z M 69,251.5 c -4.418278,0 -8,2.91015 -8,6.5 0.0049,3.19471 2.866338,5.91294 6.75,6.41211 -0.16354,0.51891 -0.24751,1.05225 -0.25,1.58789 0,3.58985 3.581722,6.5 8,6.5 4.418278,0 8,-2.91015 8,-6.5 -0.0015,-3.19744 -2.86482,-5.91915 -6.751953,-6.41797 C 76.911658,259.06509 76.996279,258.53375 77,258 c 0,-3.58985 -3.581722,-6.5 -8,-6.5 z m -42.552734,5.31445 c 0.2474,0.0998 0.500995,0.1891 0.759765,0.26758 -0.338892,0.44259 -0.611029,0.9167 -0.810547,1.41211 0.0658,-0.32874 0.100409,-0.66109 0.103516,-0.99414 -0.0027,-0.22911 -0.0203,-0.45795 -0.05273,-0.68555 z m -0.34375,2.69141 C 26.037715,259.8346 26.003107,260.16695 26,260.5 c 0.0037,0.29287 0.03176,0.5852 0.08398,0.875 -1.792954,1.13822 -2.904557,2.84292 -3.05664,4.6875 C 22.686902,266.02375 22.343744,266.00288 22,266 c -1.309567,0.002 -2.59859,0.26462 -3.753906,0.76562 -0.369796,-0.65224 -0.870062,-1.25018 -1.480469,-1.76953 0.372336,-0.31452 0.704742,-0.6587 0.992187,-1.02734 0.246667,0.0197 0.49433,0.0302 0.742188,0.0312 3.464897,-0.002 6.534271,-1.81631 7.603516,-4.49414 z m 183.427734,11.3418 c 0.74594,0.29222 1.54319,0.48857 2.36328,0.58203 -0.40388,0.19689 -0.78557,0.42238 -1.14062,0.67383 -0.54554,-0.38437 -1.15262,-0.70697 -1.80469,-0.95899 0.19915,-0.0921 0.39334,-0.19119 0.58203,-0.29687 z m -180.214844,4.27148 c 1.159888,1.14798 2.768676,1.93859 4.558594,2.24024 -0.73637,0.88451 -1.193191,1.90279 -1.330078,2.96484 C 31.056509,279.15641 29.069106,278.50258 27,278.5 c -0.230194,10e-4 -0.460226,0.0101 -0.689453,0.0273 -0.119827,-0.12942 -0.245566,-0.25516 -0.376953,-0.37695 1.499833,-0.68818 2.686244,-1.75129 3.382812,-3.03125 z m 198.505864,2.22266 c 0.44944,0.75268 1.07349,1.42779 1.83789,1.98828 -0.73695,0.45842 -1.37009,1.01754 -1.8711,1.65234 -0.66156,-0.68328 -1.4851,-1.25178 -2.42187,-1.67187 0.5181,-0.38117 0.97249,-0.81586 1.35156,-1.29297 0.39114,-0.19898 0.76036,-0.42508 1.10352,-0.67578 z m -26.96094,10.07031 c 0.14269,0.37881 0.3277,0.74622 0.55273,1.09766 -0.81392,0.27787 -1.56561,0.66328 -2.22461,1.14062 -0.55498,-0.0987 -1.12133,-0.14914 -1.68945,-0.15039 -1.62231,0.003 -3.20533,0.40581 -4.53906,1.15625 -0.29753,-0.62413 -0.71193,-1.20717 -1.22852,-1.72852 1.02745,0.37557 2.14094,0.57059 3.26758,0.57227 2.22622,-0.003 4.3502,-0.75962 5.86133,-2.08789 z m 27.35937,1.10156 c 0.16115,0.17021 0.33259,0.33382 0.51368,0.49024 -0.50095,0.4269 -0.92805,0.90722 -1.26954,1.42773 -0.036,-0.31723 -0.1006,-0.63188 -0.19336,-0.94141 0.35412,-0.30011 0.67198,-0.62712 0.94922,-0.97656 z M 30.878906,290.67578 C 32.396752,292.14692 34.637327,292.99768 37,293 c 0.887275,-0.003 1.767783,-0.12563 2.605469,-0.36328 0.395623,0.2505 0.819363,0.47022 1.265625,0.65625 C 40.103339,293.09906 39.303993,293.0003 38.5,293 c -1.505531,10e-4 -2.979996,0.34808 -4.253906,1 -1.271662,-0.65077 -2.74322,-0.99734 -4.246094,-1 -0.919108,0.002 -1.830887,0.13297 -2.695312,0.38672 C 27.430863,292.93152 27.496344,292.4666 27.5,292 c -0.0027,-0.17151 -0.0138,-0.34287 -0.0332,-0.51367 1.197794,-0.0588 2.363953,-0.33586 3.412106,-0.81055 z m 17.125,2.66211 c 0.873966,0.34684 1.818452,0.56129 2.78711,0.63281 -0.839997,1.05075 -1.288324,2.27636 -1.291016,3.5293 0.003,0.43316 0.05926,0.86499 0.167969,1.28906 -1.221742,0.30571 -2.335526,0.84485 -3.248047,1.57227 0.05017,-0.28535 0.07692,-0.57309 0.08008,-0.86133 -0.0039,-2.47741 -1.74069,-4.7376 -4.478516,-5.82812 0.799761,0.2147 1.636236,0.32544 2.478516,0.32812 1.214688,-0.002 2.41295,-0.22814 3.503906,-0.66211 z m 166.113284,2.45899 c 1.47058,1.09259 3.3901,1.69993 5.38281,1.70312 l 0.0293,0 c -0.0177,0.1663 -0.0274,0.33309 -0.0293,0.5 0.004,3.39361 3.22039,6.21363 7.38477,6.47461 0.0364,0.0945 0.0755,0.18824 0.11718,0.28125 -0.25316,0.55798 -0.41088,1.14155 -0.46875,1.73437 -0.9622,-0.32215 -1.99251,-0.48867 -3.0332,-0.49023 -3.87949,0.003 -7.19731,2.26691 -7.87109,5.37109 -1.48487,-1.79283 -3.96926,-2.86886 -6.62891,-2.87109 -0.36537,0.002 -0.73016,0.024 -1.0918,0.0664 -0.29596,-1.65069 -1.36166,-3.14575 -2.97656,-4.17579 0.37309,-0.76067 0.56593,-1.57177 0.56836,-2.39061 -0.002,-0.35079 -0.0382,-0.70089 -0.10938,-1.04688 3.18946,-0.29103 5.8561,-2.10262 6.77344,-4.60156 0.67785,-0.11542 1.33438,-0.30187 1.95313,-0.55468 z m -143.517581,2.87695 c 1.192034,0.54136 2.534784,0.82578 3.900391,0.82617 0.275994,-7.8e-4 0.551753,-0.0132 0.826172,-0.0371 -0.07296,0.0349 -0.145235,0.0707 -0.216797,0.10742 C 74.74204,299.52599 74.371352,299.50249 74,299.5 c -4.418278,0 -8,2.91015 -8,6.5 0.0021,0.33827 0.03673,0.67588 0.103516,1.00977 -0.608639,-0.4121 -1.289243,-0.74845 -2.019532,-0.99805 C 64.684027,305.0826 64.998317,304.04926 65,303 c -0.003,-0.51617 -0.0817,-1.03021 -0.234375,-1.53125 2.358044,-0.18389 4.49453,-1.20743 5.833984,-2.79492 z m 18.439453,1.06445 c 1.479395,1.12878 3.431495,1.75853 5.460938,1.76172 0.852629,-0.003 1.699249,-0.11609 2.507812,-0.33594 0.02119,0.62544 0.153417,1.24511 0.392579,1.83985 -4.377455,0.0443 -7.898097,2.93913 -7.900391,6.49609 0.003,0.0749 0.0075,0.14981 0.01367,0.22461 -0.804291,-0.74362 -1.807005,-1.32815 -2.931641,-1.70899 0.601475,-0.93015 0.91646,-1.96491 0.917971,-3.01562 -0.0034,-1.16794 -0.394041,-2.31357 -1.130859,-3.31641 1.05969,-0.47592 1.972598,-1.14107 2.669921,-1.94531 z m -44.949218,4.41016 c -0.03084,0.16718 -0.05365,0.33527 -0.06836,0.5039 -2.366576,0.93193 -4.01827,2.74938 -4.417968,4.86133 -1.29776,-2.03147 -3.814881,-3.35866 -6.626954,-3.49414 -0.01633,-0.15819 -0.03978,-0.31585 -0.07031,-0.47265 0.469389,-0.14745 0.920606,-0.33055 1.347654,-0.54688 1.271662,0.65077 2.74322,0.99734 4.246094,1 2.089375,-4.2e-4 4.095639,-0.66497 5.589844,-1.85156 z m 137.130856,9.86718 c -0.11996,0.41533 -0.18931,0.83926 -0.20703,1.26563 -0.1457,-0.32273 -0.32269,-0.63556 -0.52929,-0.93555 0.25239,-0.0995 0.49817,-0.20964 0.73632,-0.33008 z m 35.65039,2.11329 c 0.21126,0.25327 0.44426,0.4941 0.69727,0.7207 -0.13028,0.057 -0.25858,0.11691 -0.38477,0.17969 -0.19227,-0.0141 -0.3851,-0.0226 -0.57812,-0.0254 0.11335,-0.28632 0.2021,-0.57869 0.26562,-0.87499 z m -35.38476,1.58984 c 0.30186,0.67712 0.74012,1.30877 1.29687,1.86914 -0.42413,-0.0573 -0.85325,-0.0867 -1.2832,-0.0879 -0.13362,0.003 -0.26713,0.009 -0.40039,0.0176 0.23244,-0.58184 0.36263,-1.18742 0.38672,-1.79883 z m 14.65429,0.69922 c 1.02592,0.89685 2.34274,1.54003 3.79883,1.85547 -0.33452,0.31285 -0.63144,0.65098 -0.88672,1.00976 -0.84609,-0.98093 -2.00934,-1.75283 -3.36132,-2.23047 0.1643,-0.20456 0.31427,-0.41648 0.44921,-0.63476 z m -136.587886,0.75976 c 0.0359,0.2788 0.09397,0.55542 0.173828,0.82813 -0.07548,-0.003 -0.151011,-0.005 -0.226562,-0.006 -0.507646,0.003 -1.013835,0.0445 -1.511719,0.125 0.567099,-0.26271 1.092489,-0.58083 1.564453,-0.94727 z m 20.152344,0.54297 c 1.166037,0.51108 2.470042,0.77886 3.794922,0.7793 0.838874,-0.003 1.671971,-0.11295 2.46875,-0.32617 0.539318,1.23226 1.5236,2.30367 2.824219,3.07422 -1.108661,0.47095 -2.065932,1.14659 -2.794922,1.97265 -1.437367,-1.62862 -3.718995,-2.62746 -6.183594,-2.70703 -0.33469,-0.34868 -0.712297,-0.66869 -1.126953,-0.95508 0.454729,-0.56592 0.798047,-1.186 1.017578,-1.83789 z m -61.294922,9.85742 c 0.166489,0.0805 0.336523,0.15609 0.509766,0.22657 -0.153357,0.17961 -0.295464,0.36539 -0.425781,0.55664 -0.0085,-0.26221 -0.03656,-0.52376 -0.08398,-0.78321 z m 156.537114,0.13868 0.002,0.004 -0.006,0 z m -119.390629,2.43359 c 0.354866,0.16197 0.724429,0.3017 1.105468,0.41797 -0.14204,0.12197 -0.27821,0.24837 -0.408203,0.37891 -0.266805,-0.2678 -0.559393,-0.51794 -0.875,-0.74805 0.05948,-0.0157 0.118727,-0.032 0.177735,-0.0488 z" inkscape:connector-curvature="0" />
</g>
<g inkscape:groupmode="layer" id="routes_layer" inkscape:label="Routes" style="display:inline" sodipodi:insensitive="true" >
  <path style="display:inline;fill:none;stroke:#000000;stroke-width:2;stroke-linecap:round;stroke-miterlimit:4;stroke-dasharray:0.1, 5;stroke-dashoffset:0;stroke-opacity:1" d="m 123.75,0 c 0,0 0,7.5 0,11.25 0,3.75 -1.5581,10.054758 -1.76777,13.194544 -0.7305,10.939415 -4.86751,40.466677 6.01955,49.555455 12.20463,10.188713 27.79924,14.916864 35.24822,36.625001 2.72157,7.93131 14.79289,14.95711 26.75,8.625 11.11546,-5.8864 28.61914,-1.125 40.625,-1.125 5.625,0 16.875,0 16.875,0 M 123.75,337.5 c 0,0 0,-7.5 0,-11.25 0,-5.625 0.8242,-42.64762 -23.977922,-60.84619 C 62.278009,237.8925 78.095032,230.70381 60.902557,220.28195 51.709869,214.70946 22.5,219.375 16.875,219.375 c -5.625,0 -16.875,0 -16.875,0" inkscape:connector-curvature="0" />
</g>
<g inkscape:groupmode="layer" id="labels_layer" inkscape:label="Labels" style="display:inline" sodipodi:insensitive="true" >
  <text xml:space="preserve"><textPath xlink:href="#letme_inlet"><tspan
  style="-inkscape-font-specification:'CCTreasureTroveAged Mod, Normal';font-family:'CCTreasureTroveAged Mod';font-weight:normal;font-style:normal;font-stretch:normal;font-variant:normal;font-size:8.75px;text-anchor:start;text-align:start;writing-mode:lr;line-height:125%"
  >Letme Inlet</tspan></textPath></text>
</g>
<g inkscape:groupmode="layer" id="labels_guide_layer" inkscape:label="Labels Guide" style="display:none" sodipodi:insensitive="true" >
  <path id="letme_inlet" style="color:#000000;fill:none;stroke:#000000;stroke-width:1;stroke-opacity:1" d="m 178.5,246.5 c -6.57799,-30.58869 -25.64675,-61.60496 -48.82127,-78.91003" inkscape:connector-curvature="0" />
</g>
<g inkscape:groupmode="layer" id="resources_layer" inkscape:label="Resources" style="display:inline" sodipodi:insensitive="true" >
  <g id="resource-pineapple" transform="matrix(0.84773883,0.53041387,-0.53041387,0.84773883,41.805724,331.53622)" >
    <path style="color:#000000;clip-rule:nonzero;display:inline;overflow:visible;visibility:visible;opacity:1;isolation:auto;mix-blend-mode:normal;color-interpolation:sRGB;color-interpolation-filters:linearRGB;solid-color:#000000;solid-opacity:1;fill:#12d412;fill-opacity:1;fill-rule:evenodd;stroke:#000000;stroke-width:0.89999998;stroke-linecap:round;stroke-linejoin:miter;stroke-miterlimit:4;stroke-dasharray:none;stroke-dashoffset:0;stroke-opacity:1;color-rendering:auto;image-rendering:auto;shape-rendering:auto;text-rendering:auto;enable-background:accumulate" d="m 1.60156,-126.85938 c -0.36816,0.89627 -0.65117,2.26266 -0.81445,3.75586 -0.46343,-1.48903 -1.12834,-2.68315 -1.97656,-3.57617 0.0257,1.23409 0.13016,2.79792 0.26757,4.52344 -0.36941,-0.60113 -0.76709,-1.13198 -1.18945,-1.51953 0.0312,0.52933 0.0693,1.12994 0.125,1.77148 -1.05341,-1.32608 -2.2808,-2.02215 -3.52734,-2.57617 1.20446,1.90706 2.6487,4.21985 3.17578,6.1582 -1.54731,-1.36782 -3.35936,-2.13235 -4.65625,-2.24609 1.88521,1.70135 3.06165,2.62635 4.32031,4.38867 -1.8453,-0.67649 -3.75342,-0.73974 -4.96094,-0.48047 1.98868,0.79386 3.7013,1.85704 5.11719,3.23047 -1.40418,-0.25598 -2.50175,0.17732 -3.66797,0.73242 2.27558,0.24417 3.64128,0.76417 4.93164,1.13868 l 1.01172,-0.96485 c -0.61366,-0.3661 -1.16396,-0.6055 -1.67578,-0.76367 l 1.75195,-1.48242 c -0.46155,-0.38582 -0.96259,-0.68989 -1.47656,-0.95508 l 0.86133,-0.58984 c 0.0651,0.17694 0.12114,0.34941 0.19336,0.52929 l 1.96289,-1.05468 c -0.21445,-0.64444 -0.50995,-1.44777 -0.83984,-2.27735 l 0.69531,-0.27148 c -0.0546,0.29808 -0.10862,0.59614 -0.15235,0.91797 l 0.67969,0.0156 c -0.0948,0.35621 -0.16965,0.72 -0.21093,1.09375 l 0.7207,0.33398 c -0.32118,0.46889 -0.60879,0.93943 -0.81055,1.39844 l 1.16211,0.83789 c -0.22862,0.2522 -0.4414,0.52066 -0.63086,0.80664 l 0.66406,1.41797 c -0.099,0.10935 -0.20151,0.21248 -0.29101,0.3457 L 2.37695,-111 c 1.36745,-0.74524 2.98116,-1.47776 4.98828,-1.81445 -1.40868,-0.55163 -2.65818,-0.8038 -3.6582,-0.46289 1.39038,-1.6397 3.52907,-2.78693 5.02149,-3.85743 -1.45556,-0.27322 -3.21935,0.17176 -4.70118,1.15235 1.14954,-2.04356 3.05591,-4.14017 4.22266,-5.47461 -1.2538,0.14729 -2.71382,1.01308 -3.99219,2.16211 0.57839,-1.83619 1.35069,-3.66217 1.81836,-4.9043 -0.85298,0.63603 -1.63122,1.34347 -2.30078,2.11133 0.10164,-1.29098 0.15025,-2.60136 0.13477,-3.70117 -0.53955,0.80089 -1.04461,1.6363 -1.48828,2.58593 -0.11478,-1.3294 -0.36407,-2.64913 -0.82032,-3.65625 z m -3.08594,8.20313 c 0.13752,0.59339 0.30603,1.2074 0.52149,1.8457 -0.36577,-0.4988 -0.76332,-0.95863 -1.19531,-1.35937 l 0.67382,-0.48633 z" inkscape:connector-curvature="0" />
    <path style="color:#000000;clip-rule:nonzero;display:inline;overflow:visible;visibility:visible;opacity:1;isolation:auto;mix-blend-mode:normal;color-interpolation:sRGB;color-interpolation-filters:linearRGB;solid-color:#000000;solid-opacity:1;fill:#ff8f2c;fill-opacity:1;fill-rule:evenodd;stroke:#000000;stroke-width:1.03194177;stroke-linecap:round;stroke-linejoin:miter;stroke-miterlimit:4;stroke-dasharray:none;stroke-dashoffset:0;stroke-opacity:1;color-rendering:auto;image-rendering:auto;shape-rendering:auto;text-rendering:auto;enable-background:accumulate" d="m -4.0409905,-110.15662 c -1.9630663,1.6771 -3.0986308,4.69414 -3.3488922,6.67014 -0.478559,3.778564 0.608356,7.258163 2.6043246,8.901699 2.1779383,1.793377 7.602474,1.882838 9.655624,0.163772 1.9490737,-1.631925 3.0591362,-5.225017 3.0175857,-7.890311 -0.04067,-2.62564 -0.8282349,-6.17264 -2.68931,-7.74821 -2.3583189,-1.99653 -7.0124747,-1.99957 -9.2393321,-0.0971 z" inkscape:connector-curvature="0" />
    <path style="color:#000000;font-style:normal;font-variant:normal;font-weight:normal;font-stretch:normal;font-size:medium;line-height:normal;font-family:sans-serif;text-indent:0;text-align:start;text-decoration:none;text-decoration-line:none;text-decoration-style:solid;text-decoration-color:#000000;letter-spacing:normal;word-spacing:normal;text-transform:none;direction:ltr;block-progression:tb;writing-mode:lr-tb;baseline-shift:baseline;text-anchor:start;white-space:normal;clip-rule:nonzero;display:inline;overflow:visible;visibility:visible;opacity:1;isolation:auto;mix-blend-mode:normal;color-interpolation:sRGB;color-interpolation-filters:linearRGB;solid-color:#000000;solid-opacity:1;fill:#000000;fill-opacity:1;fill-rule:evenodd;stroke:none;stroke-width:0.82555348;stroke-linecap:round;stroke-linejoin:miter;stroke-miterlimit:4;stroke-dasharray:none;stroke-dashoffset:0;stroke-opacity:1;color-rendering:auto;image-rendering:auto;shape-rendering:auto;text-rendering:auto;enable-background:accumulate" d="m 1.03711,-111.63672 a 0.36003601,0.36003601 0 0 0 -0.29688,0.15625 c -0.17914,0.25293 -0.53563,0.59609 -0.95312,0.96875 l -0.51172,-0.39453 -0.55664,0.4082 c -0.19403,-0.21038 -0.36415,-0.41014 -0.47461,-0.58593 a 0.36003601,0.36003601 0 0 0 -0.29883,-0.17188 0.36003601,0.36003601 0 0 0 -0.31054,0.55664 c 0.22989,0.3659 0.58342,0.75431 0.99414,1.1543 -0.33864,0.27226 -0.70227,0.55684 -1.07227,0.84375 l -0.48437,-0.35938 -0.49024,0.37305 c -0.34337,-0.43352 -0.57815,-0.83255 -0.65039,-1.16406 a 0.36003601,0.36003601 0 0 0 -0.36328,-0.28907 0.36003601,0.36003601 0 0 0 -0.33984,0.44141 c 0.1412,0.64805 0.56858,1.27356 1.1621,1.91016 -0.34542,0.26544 -0.68941,0.53081 -1.02148,0.79297 l -0.36719,-0.41993 -0.55859,0.47461 c -0.0923,-0.17283 -0.15548,-0.33548 -0.1875,-0.48242 a 0.36003601,0.36003601 0 0 0 -0.36328,-0.28906 0.36003601,0.36003601 0 0 0 -0.33985,0.44141 c 0.0923,0.42342 0.31578,0.83813 0.62305,1.2539 -0.0324,0.0278 -0.0717,0.0583 -0.10351,0.0859 -0.51144,0.44363 -0.94159,0.85306 -1.26172,1.24414 a 0.36003601,0.36003601 0 0 0 -0.27539,0.38477 c -0.0252,0.0403 -0.0599,0.0811 -0.082,0.12109 a 0.36062818,0.36062818 0 0 0 0.30665,0.53516 c 0.22155,0.46234 0.56751,0.91351 1,1.36523 -0.57868,0.57258 -1.0788,1.15121 -1.42969,1.73828 a 0.36003601,0.36003601 0 0 0 -0.01,0.38477 0.36003601,0.36003601 0 0 0 -0.004,0.398437 c 0.36315,0.577974 0.95687,1.142417 1.64453,1.697266 -0.20539,0.26185 -0.38844,0.51947 -0.53906,0.771484 a 0.36003601,0.36003601 0 1 0 0.61718,0.369141 c 0.13245,-0.221602 0.30088,-0.455361 0.49414,-0.697266 0.54569,0.404892 1.12714,0.803998 1.72461,1.199219 -0.21854,0.231558 -0.41764,0.461408 -0.60351,0.689453 l -0.56641,-0.347656 -0.61719,0.636719 0.61328,0.49414 c -0.0286,0.0452 -0.0669,0.09172 -0.0937,0.136719 a 0.36092156,0.36092156 0 1 0 0.61915,0.371094 c 0.29011,-0.485385 0.73511,-1.0145 1.26953,-1.566406 0.65267,0.428899 1.27104,0.841745 1.8457,1.240234 -0.24665,0.235474 -0.49168,0.470252 -0.66406,0.683594 l -0.57227,-0.320313 -0.53516,0.636719 0.66407,0.533203 0.12695,-0.08984 a 0.36062794,0.36062794 0 0 0 0.64453,0.0293 c 0.12775,-0.230941 0.49685,-0.617037 0.94727,-1.046875 0.001,7.92e-4 0.003,0.0012 0.004,0.002 0.71996,0.530936 1.26746,1.032307 1.47852,1.384766 a 0.36003601,0.36003601 0 0 0 0.56836,0.08984 0.36067455,0.36067455 0 0 0 0.26172,-0.125 c 0.26781,-0.308029 0.9828,-0.823649 1.77734,-1.378907 0.15104,0.184683 0.29364,0.368251 0.41016,0.548829 a 0.36027136,0.36027136 0 1 0 0.60547,-0.390625 c -0.12384,-0.191921 -0.27213,-0.381984 -0.42383,-0.572266 0.18057,-0.125015 0.34008,-0.237 0.52148,-0.363281 0.43315,-0.301528 0.84967,-0.60745 1.24219,-0.91211 a 0.36027058,0.36027058 0 0 0 0.58398,-0.419921 c -0.007,-0.01111 -0.0181,-0.02209 -0.0254,-0.0332 0.4603,-0.397739 0.8375,-0.77751 1.0293,-1.195312 a 0.36003601,0.36003601 0 0 0 -0.35547,-0.513672 0.36003601,0.36003601 0 0 0 -0.29883,0.214844 c -0.0424,0.09231 -0.14445,0.219791 -0.24804,0.345703 l -0.31836,-0.353516 -0.64453,0.462891 c -0.31004,-0.33632 -0.64985,-0.67428 -1.0293,-1.013672 0.56742,-0.460313 1.11551,-0.915948 1.61133,-1.355469 0.40259,0.410701 0.74643,0.810527 0.99218,1.191407 a 0.36003601,0.36003601 0 1 0 0.60352,-0.388672 c -0.27918,-0.432677 -0.64916,-0.866632 -1.07031,-1.302733 0.66119,-0.62058 1.22854,-1.20957 1.53711,-1.74024 a 0.36003601,0.36003601 0 0 0 -0.1211,-0.49218 0.36091907,0.36091907 0 0 0 -0.0488,-0.2168 c -0.2679,-0.44737 -0.80304,-0.93017 -1.44532,-1.45899 0.53255,-0.59317 0.93343,-1.1645 1.09961,-1.73242 a 0.36003601,0.36003601 0 0 0 -0.10937,-0.3789 0.36035275,0.36035275 0 0 0 -0.0215,-0.0801 c -0.26818,-0.64968 -0.89465,-1.16803 -1.63672,-1.67383 0.21146,-0.35161 0.37865,-0.69854 0.44141,-1.04297 a 0.36003601,0.36003601 0 0 0 -0.36523,-0.42969 0.36003601,0.36003601 0 0 0 -0.3418,0.30078 c -0.019,0.1042 -0.0737,0.22936 -0.125,0.35157 L 5,-109.35938 l -0.33594,0.38086 c -0.3496,-0.22254 -0.68554,-0.45668 -1.02734,-0.6875 0.25432,-0.38291 0.44488,-0.76901 0.51758,-1.16796 a 0.36003601,0.36003601 0 0 0 -0.36719,-0.42774 0.36003601,0.36003601 0 0 0 -0.3418,0.29883 c -0.0324,0.17765 -0.11477,0.3739 -0.22265,0.57812 l -0.34571,-0.29296 -0.27929,0.26171 c -0.37858,-0.30704 -0.72391,-0.61885 -0.96875,-0.9414 a 0.36003601,0.36003601 0 0 0 -0.3125,-0.14649 0.36003601,0.36003601 0 0 0 -0.2793,-0.13281 z m 0.10351,0.80469 c 0.39268,0.48991 0.89226,0.93446 1.44727,1.3418 -0.20652,0.23916 -0.43477,0.48302 -0.70312,0.73437 -0.005,0.004 -0.011,0.009 -0.0156,0.0137 l -0.49023,-0.36523 -0.58203,0.4414 c -0.37276,-0.29471 -0.7126,-0.57581 -1.03126,-0.85156 0.56113,-0.46976 1.04422,-0.91403 1.375,-1.31445 z m 2.04688,1.7539 c 0.3945,0.26479 0.79437,0.5219 1.18359,0.76954 0.16465,0.10475 0.31565,0.20673 0.47266,0.31054 -0.21498,0.27706 -0.46846,0.56709 -0.75977,0.8711 l -0.55078,-0.35352 -0.52539,0.49219 c -0.37678,-0.27482 -0.74857,-0.55328 -1.11719,-0.83008 0.15671,-0.13668 0.34146,-0.27642 0.48633,-0.41211 0.3036,-0.28437 0.56803,-0.56611 0.81055,-0.84766 z m -4.00391,0.0312 c 0.46984,0.41322 0.98328,0.83511 1.54883,1.26563 -0.3571,0.28857 -0.72802,0.58207 -1.12109,0.87891 l -0.60156,-0.44727 -0.58008,0.44336 c -0.27206,-0.22605 -0.57269,-0.45919 -0.81055,-0.67773 -0.0513,-0.0472 -0.0912,-0.0918 -0.14062,-0.13868 0.59415,-0.45319 1.16953,-0.89702 1.70507,-1.32422 z m 6.26368,1.46485 c 0.69288,0.4958 1.2331,0.96299 1.38867,1.33984 a 0.36035275,0.36035275 0 0 0 0.0566,0.0937 c -0.0901,0.24186 -0.25163,0.51962 -0.48047,0.82617 l -0.47852,-0.42773 -0.51953,0.53711 c -0.4091,-0.30954 -0.82877,-0.6242 -1.27734,-0.95117 0.0728,-0.0707 0.16619,-0.14678 0.23633,-0.2168 0.41608,-0.41538 0.76985,-0.81193 1.07422,-1.20117 z m -4.12891,0.24805 c 0.46615,0.34603 0.94251,0.69375 1.41992,1.04101 0.0941,0.0684 0.16802,0.12528 0.26172,0.19336 -0.33305,0.30354 -0.64972,0.60218 -1.01953,0.91797 l -0.51367,-0.38281 -0.66407,0.50586 c -0.42066,-0.31003 -0.82855,-0.61491 -1.22461,-0.91797 0.61517,-0.45725 1.19278,-0.90973 1.74024,-1.35742 z m -4.41406,0.0566 c 0.0781,0.0745 0.14675,0.14753 0.22851,0.22265 0.37788,0.34719 0.82245,0.70379 1.26758,1.06055 -0.4096,0.30082 -0.82289,0.60389 -1.23437,0.9082 l -0.60547,-0.44922 -0.55078,0.41993 c -0.003,-0.003 -0.008,-0.007 -0.0117,-0.01 -0.30479,-0.27666 -0.56446,-0.54252 -0.79883,-0.80274 0.53523,-0.43761 1.1053,-0.88911 1.70508,-1.34961 z m 6.68359,1.61523 c 0.66294,0.48295 1.32981,0.96739 1.88477,1.40039 -0.11846,0.11868 -0.22802,0.23394 -0.35743,0.35547 -0.2211,0.20766 -0.50044,0.43238 -0.74804,0.64844 l -0.52539,-0.43946 -0.54297,0.48438 c -0.44806,-0.33539 -0.89521,-0.6686 -1.35156,-1.00195 0.58817,-0.4931 1.12611,-0.97399 1.64062,-1.44727 z m -4.60937,0.13477 c 0.53777,0.41518 1.09616,0.83317 1.67187,1.25586 0.0422,0.031 0.0846,0.0627 0.12695,0.0937 -0.18859,0.15528 -0.36316,0.3045 -0.55468,0.46093 -0.19646,0.16046 -0.39386,0.32159 -0.5918,0.48242 l -0.58594,-0.43554 -0.63281,0.48047 c -0.44455,-0.33277 -0.85791,-0.6586 -1.25977,-0.98047 0.60122,-0.45489 1.21755,-0.90928 1.82618,-1.35742 z m -4.33985,0.0605 c 0.26285,0.288 0.54811,0.57827 0.875,0.875 0.14457,0.13122 0.32905,0.26949 0.48438,0.40234 -0.37432,0.28975 -0.75336,0.57789 -1.10157,0.87109 l -0.51171,-0.38086 -0.53711,0.40625 c -0.24657,-0.31717 -0.41654,-0.61325 -0.51758,-0.88671 0.27348,-0.33887 0.69634,-0.76093 1.21289,-1.20899 0.0289,-0.0251 0.0662,-0.0528 0.0957,-0.0781 z m 11.39649,1.66601 c 0.63839,0.53281 1.15217,1.01738 1.32422,1.30469 a 0.36091907,0.36091907 0 0 0 0.084,0.0957 c -0.18692,0.28682 -0.49693,0.63583 -0.86719,1.01367 l -0.51953,-0.38672 -0.48437,0.36914 c -0.35948,-0.31436 -0.7548,-0.62716 -1.15235,-0.9414 0.4123,-0.34893 0.83276,-0.70016 1.18946,-1.03516 0.15219,-0.14294 0.28583,-0.28052 0.42578,-0.41992 z m -4.66016,0.0625 c 0.64717,0.47507 1.275,0.9489 1.89453,1.42383 -0.3715,0.30366 -0.76304,0.61582 -1.15625,0.92773 l -0.58203,-0.41796 -0.5918,0.47656 c -0.44064,-0.32082 -0.88283,-0.64202 -1.32031,-0.96094 0.35485,-0.2902 0.70763,-0.58088 1.06055,-0.86914 0.23941,-0.19555 0.46009,-0.38588 0.69531,-0.58008 z m -4.80078,0.0234 c 0.58747,0.47539 1.20635,0.95811 1.86914,1.44727 -0.43248,0.35397 -0.83656,0.70377 -1.25,1.05468 l -0.53906,-0.39843 -0.55664,0.42187 c -0.4473,-0.35128 -0.88489,-0.70085 -1.25196,-1.03711 -0.0144,-0.0132 -0.0249,-0.0259 -0.0391,-0.0391 0.53219,-0.47863 1.14169,-0.96363 1.76758,-1.44921 z m 7.28125,1.85547 c 0.61773,0.48741 1.20335,0.97062 1.70898,1.43945 -0.34816,0.30754 -0.73305,0.627981 -1.125,0.951176 l -0.55859,-0.412109 -0.51172,0.388671 c -0.40181,-0.322023 -0.83133,-0.644418 -1.26172,-0.966798 0.59892,-0.4727 1.18841,-0.94101 1.74805,-1.40039 z m -4.81055,0.0391 c 0.0376,0.0275 0.0717,0.0545 0.10938,0.082 0.58854,0.4293 1.18385,0.86344 1.76953,1.29688 -0.40437,0.31831 -0.80968,0.635545 -1.20899,0.955074 l -0.63281,-0.476563 -0.63281,0.527344 c -0.11296,-0.08111 -0.22769,-0.163276 -0.33984,-0.244141 -0.29414,-0.212082 -0.56341,-0.417694 -0.84766,-0.626954 0.57271,-0.49843 1.16152,-1.00178 1.7832,-1.51367 z m -4.76172,0.0508 c 0.0268,0.0249 0.049,0.0493 0.0762,0.0742 0.51279,0.46975 1.10928,0.94565 1.74023,1.42578 -0.41822,0.377746 -0.80582,0.74804 -1.16406,1.115236 l -0.5918,-0.509765 -0.51758,0.517578 c -0.37847,-0.34657 -0.70368,-0.684862 -0.89844,-0.994139 a 0.36003601,0.36003601 0 0 0 0.0195,-0.0332 c 0.30764,-0.51472 0.77832,-1.05021 1.33593,-1.5957 z m 7.23438,1.779298 c 0.63619,0.478638 1.25442,0.954187 1.81445,1.419922 -0.24789,0.197819 -0.4908,0.394563 -0.74023,0.591796 -0.16688,0.13195 -0.30112,0.246039 -0.4668,0.376954 l -0.55664,-0.414063 -0.58984,0.447266 c -0.42085,-0.32225 -0.83669,-0.64473 -1.2754,-0.962891 0.59438,-0.487185 1.19893,-0.972602 1.81446,-1.458984 z m -4.81641,0.166015 c 0.32824,0.242664 0.64657,0.483537 0.98633,0.728516 0.27636,0.199268 0.55353,0.402438 0.83203,0.603515 -0.38583,0.323617 -0.77208,0.647765 -1.125,0.96875 l -0.62109,-0.382812 -0.58985,0.554688 0.0469,0.04297 c -0.42608,-0.290306 -0.8279,-0.580268 -1.21485,-0.86914 0.47536,-0.521203 1.04574,-1.072279 1.68555,-1.646485 z m 7.19141,1.726563 c 0.57709,0.507351 1.06947,0.997566 1.45508,1.464844 -0.35458,0.275877 -0.73471,0.557532 -1.13868,0.839843 l -0.50976,-0.378906 -0.5586,0.423828 c -0.3154,-0.309533 -0.6608,-0.616385 -1.02343,-0.921875 0.32356,-0.25658 0.58943,-0.481278 0.92187,-0.74414 0.28691,-0.226859 0.56812,-0.455484 0.85352,-0.683594 z m -4.76172,0.04883 c 0.63435,0.462568 1.24709,0.924562 1.83008,1.386719 -0.39291,0.315757 -0.82422,0.651451 -1.17188,0.945312 l -0.47656,-0.351562 -0.57227,0.433593 c -0.43322,-0.292759 -0.88289,-0.590013 -1.34375,-0.892578 0.51442,-0.49231 1.12034,-1.005979 1.73438,-1.521484 z m 2.4043,1.847656 c 0.52162,0.434206 0.99463,0.864368 1.40039,1.28711 -0.40875,0.280779 -0.80403,0.561346 -1.12891,0.818359 l -0.39453,-0.292969 -0.52539,0.402344 c -0.28119,-0.277995 -0.62832,-0.558185 -1.01563,-0.847656 0.0722,-0.06341 0.1177,-0.11492 0.19336,-0.179688 0.41809,-0.357886 0.97292,-0.788622 1.47071,-1.1875 z" inkscape:connector-curvature="0" />
    <path style="color:#000000;clip-rule:nonzero;display:inline;overflow:visible;visibility:visible;opacity:1;isolation:auto;mix-blend-mode:normal;color-interpolation:sRGB;color-interpolation-filters:linearRGB;solid-color:#000000;solid-opacity:1;fill:#12d412;fill-opacity:1;fill-rule:evenodd;stroke:#000000;stroke-width:0.72000003;stroke-linecap:round;stroke-linejoin:miter;stroke-miterlimit:4;stroke-dasharray:none;stroke-dashoffset:0;stroke-opacity:1;color-rendering:auto;image-rendering:auto;shape-rendering:auto;text-rendering:auto;enable-background:accumulate" d="m 0.64643,-120.06351 c -0.0812,-2.56953 0.34432,-5.30788 0.95562,-6.79606 0.8867,1.95729 1.00521,5.10326 0.83485,7.18336 z" inkscape:connector-curvature="0" />
    <path style="color:#000000;clip-rule:nonzero;display:inline;overflow:visible;visibility:visible;opacity:1;isolation:auto;mix-blend-mode:normal;color-interpolation:sRGB;color-interpolation-filters:linearRGB;solid-color:#000000;solid-opacity:1;fill:#12d412;fill-opacity:1;fill-rule:evenodd;stroke:#000000;stroke-width:0.72000003;stroke-linecap:round;stroke-linejoin:miter;stroke-miterlimit:4;stroke-dasharray:none;stroke-dashoffset:0;stroke-opacity:1;color-rendering:auto;image-rendering:auto;shape-rendering:auto;text-rendering:auto;enable-background:accumulate" d="m -0.62032,-118.66347 c -0.31979,-3.33222 -0.52685,-6.00009 -0.56885,-8.01606 1.45054,1.52715 2.38355,3.90681 2.64474,7.2039 z" inkscape:connector-curvature="0" />
    <path style="color:#000000;clip-rule:nonzero;display:inline;overflow:visible;visibility:visible;opacity:1;isolation:auto;mix-blend-mode:normal;color-interpolation:sRGB;color-interpolation-filters:linearRGB;solid-color:#000000;solid-opacity:1;fill:#12d412;fill-opacity:1;fill-rule:evenodd;stroke:#000000;stroke-width:0.72000003;stroke-linecap:round;stroke-linejoin:miter;stroke-miterlimit:4;stroke-dasharray:none;stroke-dashoffset:0;stroke-opacity:1;color-rendering:auto;image-rendering:auto;shape-rendering:auto;text-rendering:auto;enable-background:accumulate" d="m 1.07716,-118.47139 c 0.46442,-3.41859 1.56797,-5.4385 2.83362,-7.31722 0.0314,2.22982 -0.19958,5.32375 -0.60516,7.37104 z" inkscape:connector-curvature="0" />
    <path style="color:#000000;clip-rule:nonzero;display:inline;overflow:visible;visibility:visible;opacity:1;isolation:auto;mix-blend-mode:normal;color-interpolation:sRGB;color-interpolation-filters:linearRGB;solid-color:#000000;solid-opacity:1;fill:#12d412;fill-opacity:1;fill-rule:evenodd;stroke:#000000;stroke-width:0.72000003;stroke-linecap:round;stroke-linejoin:miter;stroke-miterlimit:4;stroke-dasharray:none;stroke-dashoffset:0;stroke-opacity:1;color-rendering:auto;image-rendering:auto;shape-rendering:auto;text-rendering:auto;enable-background:accumulate" d="m 1.54692,-117.36127 c 0.30617,-2.77196 2.15206,-5.06448 4.52995,-6.83756 -0.71841,1.90809 -2.2078,5.18583 -2.50085,7.77869 z" inkscape:connector-curvature="0" />
    <path style="color:#000000;clip-rule:nonzero;display:inline;overflow:visible;visibility:visible;opacity:1;isolation:auto;mix-blend-mode:normal;color-interpolation:sRGB;color-interpolation-filters:linearRGB;solid-color:#000000;solid-opacity:1;fill:#12d412;fill-opacity:1;fill-rule:evenodd;stroke:#000000;stroke-width:0.72000003;stroke-linecap:round;stroke-linejoin:miter;stroke-miterlimit:4;stroke-dasharray:none;stroke-dashoffset:0;stroke-opacity:1;color-rendering:auto;image-rendering:auto;shape-rendering:auto;text-rendering:auto;enable-background:accumulate" d="m -2.26912,-118.08898 c -0.46958,-1.98272 -1.99182,-4.40872 -3.24407,-6.39144 1.87837,0.83483 3.72254,1.9594 4.97479,5.14219 z" inkscape:connector-curvature="0" />
    <path style="color:#000000;clip-rule:nonzero;display:inline;overflow:visible;visibility:visible;opacity:1;isolation:auto;mix-blend-mode:normal;color-interpolation:sRGB;color-interpolation-filters:linearRGB;solid-color:#000000;solid-opacity:1;fill:#12d412;fill-opacity:1;fill-rule:evenodd;stroke:#000000;stroke-width:0.72000003;stroke-linecap:round;stroke-linejoin:miter;stroke-miterlimit:4;stroke-dasharray:none;stroke-dashoffset:0;stroke-opacity:1;color-rendering:auto;image-rendering:auto;shape-rendering:auto;text-rendering:auto;enable-background:accumulate" d="m -0.58879,-115.78461 c -1.28535,-3.20161 -1.40773,-5.94783 -1.52227,-7.89072 1.58324,1.45278 2.82732,4.8561 3.4863,6.83641 z" inkscape:connector-curvature="0" />
    <path style="color:#000000;clip-rule:nonzero;display:inline;overflow:visible;visibility:visible;opacity:1;isolation:auto;mix-blend-mode:normal;color-interpolation:sRGB;color-interpolation-filters:linearRGB;solid-color:#000000;solid-opacity:1;fill:#12d412;fill-opacity:1;fill-rule:evenodd;stroke:#000000;stroke-width:0.72000003;stroke-linecap:round;stroke-linejoin:miter;stroke-miterlimit:4;stroke-dasharray:none;stroke-dashoffset:0;stroke-opacity:1;color-rendering:auto;image-rendering:auto;shape-rendering:auto;text-rendering:auto;enable-background:accumulate" d="m 1.45703,-115.62806 c 1.12243,-2.55359 4.35364,-5.54186 6.79281,-5.8284 -1.48854,1.70248 -4.20019,4.64565 -4.97832,7.1363 z" inkscape:connector-curvature="0" />
    <path style="color:#000000;clip-rule:nonzero;display:inline;overflow:visible;visibility:visible;opacity:1;isolation:auto;mix-blend-mode:normal;color-interpolation:sRGB;color-interpolation-filters:linearRGB;solid-color:#000000;solid-opacity:1;fill:#12d412;fill-opacity:1;fill-rule:evenodd;stroke:#000000;stroke-width:0.72000003;stroke-linecap:round;stroke-linejoin:miter;stroke-miterlimit:4;stroke-dasharray:none;stroke-dashoffset:0;stroke-opacity:1;color-rendering:auto;image-rendering:auto;shape-rendering:auto;text-rendering:auto;enable-background:accumulate" d="m -2.13911,-115.38567 c -1.47899,-2.31252 -2.70665,-3.24343 -4.85589,-5.18305 1.81549,0.15922 4.65169,1.56987 6.33783,4.16856 z" inkscape:connector-curvature="0" />
    <path style="color:#000000;clip-rule:nonzero;display:inline;overflow:visible;visibility:visible;opacity:1;isolation:auto;mix-blend-mode:normal;color-interpolation:sRGB;color-interpolation-filters:linearRGB;solid-color:#000000;solid-opacity:1;fill:#12d412;fill-opacity:1;fill-rule:evenodd;stroke:#000000;stroke-width:0.72000003;stroke-linecap:round;stroke-linejoin:miter;stroke-miterlimit:4;stroke-dasharray:none;stroke-dashoffset:0;stroke-opacity:1;color-rendering:auto;image-rendering:auto;shape-rendering:auto;text-rendering:auto;enable-background:accumulate" d="m -2.15205,-113.08913 c -1.47816,-1.54904 -3.32619,-2.71073 -5.48263,-3.57155 1.78184,-0.38259 5.09255,-0.0951 7.46932,1.89162 z" inkscape:connector-curvature="0" />
    <path style="color:#000000;clip-rule:nonzero;display:inline;overflow:visible;visibility:visible;opacity:1;isolation:auto;mix-blend-mode:normal;color-interpolation:sRGB;color-interpolation-filters:linearRGB;solid-color:#000000;solid-opacity:1;fill:#12d412;fill-opacity:1;fill-rule:evenodd;stroke:#000000;stroke-width:0.72000003;stroke-linecap:round;stroke-linejoin:miter;stroke-miterlimit:4;stroke-dasharray:none;stroke-dashoffset:0;stroke-opacity:1;color-rendering:auto;image-rendering:auto;shape-rendering:auto;text-rendering:auto;enable-background:accumulate" d="m -1.25471,-111.55927 c -1.29036,-0.37451 -2.65484,-0.89451 -4.93042,-1.13868 1.72604,-0.82157 3.28253,-1.41307 5.94285,0.17404 z" inkscape:connector-curvature="0" />
    <path style="color:#000000;clip-rule:nonzero;display:inline;overflow:visible;visibility:visible;opacity:1;isolation:auto;mix-blend-mode:normal;color-interpolation:sRGB;color-interpolation-filters:linearRGB;solid-color:#000000;solid-opacity:1;fill:#12d412;fill-opacity:1;fill-rule:evenodd;stroke:#000000;stroke-width:0.72000003;stroke-linecap:round;stroke-linejoin:miter;stroke-miterlimit:4;stroke-dasharray:none;stroke-dashoffset:0;stroke-opacity:1;color-rendering:auto;image-rendering:auto;shape-rendering:auto;text-rendering:auto;enable-background:accumulate" d="m -0.21576,-113.44531 c 0.44663,-3.42096 1.43248,-6.32458 2.12252,-7.14808 0.66929,2.04189 0.43855,5.06572 0.0437,7.1151 z" inkscape:connector-curvature="0" />
    <path style="color:#000000;clip-rule:nonzero;display:inline;overflow:visible;visibility:visible;opacity:1;isolation:auto;mix-blend-mode:normal;color-interpolation:sRGB;color-interpolation-filters:linearRGB;solid-color:#000000;solid-opacity:1;fill:#12d412;fill-opacity:1;fill-rule:evenodd;stroke:#000000;stroke-width:0.72000003;stroke-linecap:round;stroke-linejoin:miter;stroke-miterlimit:4;stroke-dasharray:none;stroke-dashoffset:0;stroke-opacity:1;color-rendering:auto;image-rendering:auto;shape-rendering:auto;text-rendering:auto;enable-background:accumulate" d="m 1.98846,-113.98401 c 1.54054,-2.32539 4.50873,-3.56961 6.74009,-3.15076 -1.8329,1.31471 -4.6593,2.73286 -5.84986,5.05479 z" inkscape:connector-curvature="0" />
    <path style="color:#000000;clip-rule:nonzero;display:inline;overflow:visible;visibility:visible;opacity:1;isolation:auto;mix-blend-mode:normal;color-interpolation:sRGB;color-interpolation-filters:linearRGB;solid-color:#000000;solid-opacity:1;fill:#12d412;fill-opacity:1;fill-rule:evenodd;stroke:#000000;stroke-width:0.72000003;stroke-linecap:round;stroke-linejoin:miter;stroke-miterlimit:4;stroke-dasharray:none;stroke-dashoffset:0;stroke-opacity:1;color-rendering:auto;image-rendering:auto;shape-rendering:auto;text-rendering:auto;enable-background:accumulate" d="m 2.36204,-112.22159 c 1.07858,-1.60538 2.86172,-1.43156 5.00318,-0.59299 -2.00712,0.3367 -3.62152,1.06843 -4.98897,1.81368 z" inkscape:connector-curvature="0" />
    <path style="color:#000000;clip-rule:nonzero;display:inline;overflow:visible;visibility:visible;opacity:1;isolation:auto;mix-blend-mode:normal;color-interpolation:sRGB;color-interpolation-filters:linearRGB;solid-color:#000000;solid-opacity:1;fill:#12d412;fill-opacity:1;fill-rule:evenodd;stroke:#000000;stroke-width:0.72000003;stroke-linecap:round;stroke-linejoin:miter;stroke-miterlimit:4;stroke-dasharray:none;stroke-dashoffset:0;stroke-opacity:1;color-rendering:auto;image-rendering:auto;shape-rendering:auto;text-rendering:auto;enable-background:accumulate" d="m -0.36653,-112.00637 c -0.81455,-2.43836 -1.19204,-5.18375 -1.03309,-6.78472 1.41067,1.62087 2.42622,4.60077 2.85943,6.64238 z" inkscape:connector-curvature="0" />
    <path style="color:#000000;clip-rule:nonzero;display:inline;overflow:visible;visibility:visible;opacity:1;isolation:auto;mix-blend-mode:normal;color-interpolation:sRGB;color-interpolation-filters:linearRGB;solid-color:#000000;solid-opacity:1;fill:#12d412;fill-opacity:1;fill-rule:evenodd;stroke:#000000;stroke-width:0.72000003;stroke-linecap:round;stroke-linejoin:miter;stroke-miterlimit:4;stroke-dasharray:none;stroke-dashoffset:0;stroke-opacity:1;color-rendering:auto;image-rendering:auto;shape-rendering:auto;text-rendering:auto;enable-background:accumulate" d="m -1.55785,-111.09741 c -0.91477,-0.0254 -1.58445,0.15709 -3.16904,0.24009 1.00913,-0.76453 2.08892,-0.98689 2.90044,-0.95066 z" inkscape:connector-curvature="0" />
    <path style="color:#000000;clip-rule:nonzero;display:inline;overflow:visible;visibility:visible;opacity:1;isolation:auto;mix-blend-mode:normal;color-interpolation:sRGB;color-interpolation-filters:linearRGB;solid-color:#000000;solid-opacity:1;fill:#12d412;fill-opacity:1;fill-rule:evenodd;stroke:#000000;stroke-width:0.72000003;stroke-linecap:round;stroke-linejoin:miter;stroke-miterlimit:4;stroke-dasharray:none;stroke-dashoffset:0;stroke-opacity:1;color-rendering:auto;image-rendering:auto;shape-rendering:auto;text-rendering:auto;enable-background:accumulate" d="m -1.12103,-110.78686 c -0.12779,-0.83135 -0.79097,-2.42139 -1.55531,-3.81193 2.34974,1.10735 2.85124,2.25905 3.19507,3.73178 z" inkscape:connector-curvature="0" />
    <path style="color:#000000;clip-rule:nonzero;display:inline;overflow:visible;visibility:visible;opacity:1;isolation:auto;mix-blend-mode:normal;color-interpolation:sRGB;color-interpolation-filters:linearRGB;solid-color:#000000;solid-opacity:1;fill:#12d412;fill-opacity:1;fill-rule:evenodd;stroke:#000000;stroke-width:0.72000003;stroke-linecap:round;stroke-linejoin:miter;stroke-miterlimit:4;stroke-dasharray:none;stroke-dashoffset:0;stroke-opacity:1;color-rendering:auto;image-rendering:auto;shape-rendering:auto;text-rendering:auto;enable-background:accumulate" d="m 0.62355,-110.85028 c 0.0292,-2.06436 1.66728,-4.19837 2.35732,-5.02187 -0.16556,2.04188 -0.80066,3.8787 -0.5694,5.14542 z" inkscape:connector-curvature="0" />
    <path style="color:#000000;clip-rule:nonzero;display:inline;overflow:visible;visibility:visible;opacity:1;isolation:auto;mix-blend-mode:normal;color-interpolation:sRGB;color-interpolation-filters:linearRGB;solid-color:#000000;solid-opacity:1;fill:#12d412;fill-opacity:1;fill-rule:evenodd;stroke:#000000;stroke-width:0.72000003;stroke-linecap:round;stroke-linejoin:miter;stroke-miterlimit:4;stroke-dasharray:none;stroke-dashoffset:0;stroke-opacity:1;color-rendering:auto;image-rendering:auto;shape-rendering:auto;text-rendering:auto;enable-background:accumulate" d="m -0.15742,-110.87985 c -0.74621,0.3881 -1.85444,1.26869 -2.92572,2.43924 0.18308,-1.25273 0.11641,-1.91316 1.40066,-2.71191 z" inkscape:connector-curvature="0" />
    <path style="color:#000000;clip-rule:nonzero;display:inline;overflow:visible;visibility:visible;opacity:1;isolation:auto;mix-blend-mode:normal;color-interpolation:sRGB;color-interpolation-filters:linearRGB;solid-color:#000000;solid-opacity:1;fill:#12d412;fill-opacity:1;fill-rule:evenodd;stroke:#000000;stroke-width:0.72000003;stroke-linecap:round;stroke-linejoin:miter;stroke-miterlimit:4;stroke-dasharray:none;stroke-dashoffset:0;stroke-opacity:1;color-rendering:auto;image-rendering:auto;shape-rendering:auto;text-rendering:auto;enable-background:accumulate" d="m 2.91023,-110.94983 c 0.91477,-0.0254 1.54755,0.15709 2.87388,-0.20264 -1.2305,-0.43249 -2.05203,-0.24901 -2.86354,-0.21278 z" inkscape:connector-curvature="0" />
    <path style="color:#000000;clip-rule:nonzero;display:inline;overflow:visible;visibility:visible;opacity:1;isolation:auto;mix-blend-mode:normal;color-interpolation:sRGB;color-interpolation-filters:linearRGB;solid-color:#000000;solid-opacity:1;fill:#12d412;fill-opacity:1;fill-rule:evenodd;stroke:#000000;stroke-width:0.72000003;stroke-linecap:round;stroke-linejoin:miter;stroke-miterlimit:4;stroke-dasharray:none;stroke-dashoffset:0;stroke-opacity:1;color-rendering:auto;image-rendering:auto;shape-rendering:auto;text-rendering:auto;enable-background:accumulate" d="m 1.17826,-110.84295 c 0.7462,0.3881 2.44475,2.44931 3.51602,3.17712 0.18587,-1.25272 -0.37467,-2.57726 -1.65892,-3.376 z" inkscape:connector-curvature="0" />
    <path style="color:#000000;clip-rule:nonzero;display:inline;overflow:visible;visibility:visible;opacity:1;isolation:auto;mix-blend-mode:normal;color-interpolation:sRGB;color-interpolation-filters:linearRGB;solid-color:#000000;solid-opacity:1;fill:#12d412;fill-opacity:1;fill-rule:evenodd;stroke:#000000;stroke-width:0.72000003;stroke-linecap:round;stroke-linejoin:miter;stroke-miterlimit:4;stroke-dasharray:none;stroke-dashoffset:0;stroke-opacity:1;color-rendering:auto;image-rendering:auto;shape-rendering:auto;text-rendering:auto;enable-background:accumulate" d="m 1.20768,-110.69537 c -0.15589,0.53567 -0.63692,1.56384 -1.56062,2.32855 -0.14897,-0.88378 -0.40011,-1.80248 -0.001,-2.45365 z" inkscape:connector-curvature="0" />
  </g>
</g>
<g inkscape:groupmode="layer" id="extras_layer" inkscape:label="Extras" style="display:inline" sodipodi:insensitive="true" >
  <g id="extra-ship" transform="matrix(0.4444171,-0.89581998,0.89581998,0.4444171,266.30938,417.60566)" >
    <path style="color:#000000;fill:url(#gradientShip);fill-opacity:1;fill-rule:evenodd;stroke:#000000;stroke-width:0.75;stroke-linecap:butt;stroke-linejoin:round;stroke-miterlimit:4;stroke-dasharray:none;stroke-dashoffset:0;stroke-opacity:1;marker:none;enable-background:accumulate" d="m 243.2364,-52.722824 c -3.10208,-2.937202 -8.72518,-3.346714 -12.49116,-3.032742 -2.95307,0.246202 -6.62512,1.070872 -6.62512,1.070872 l -0.0121,3.725952 c 0,0 2.43298,0.582421 6.39007,0.932887 3.66202,0.324334 9.61676,-0.283241 12.73834,-2.696969 z" inkscape:connector-curvature="0" />
    <path style="color:#000000;opacity:1;isolation:auto;mix-blend-mode:normal;color-interpolation:sRGB;color-interpolation-filters:linearRGB;solid-color:#000000;solid-opacity:1;fill:#000000;fill-opacity:1;fill-rule:evenodd;stroke:none;stroke-width:0.75;stroke-linecap:round;stroke-linejoin:round;stroke-miterlimit:4;stroke-dasharray:none;stroke-dashoffset:0;stroke-opacity:1;marker:none;color-rendering:auto;image-rendering:auto;shape-rendering:auto;text-rendering:auto;enable-background:accumulate" d="m 243.05273,-53.089844 c -0.50461,-0.01007 -0.51271,0.749303 -0.008,0.75 l 2.80546,-0.143551 c 0.50461,0.01007 0.51856,-0.385922 0.0138,-0.386619 z" inkscape:connector-curvature="0" />
    <circle cx="37.651787" cy="-233.087830" r="0.695206" style="color:#000000;opacity:1;isolation:auto;mix-blend-mode:normal;color-interpolation:sRGB;color-interpolation-filters:linearRGB;solid-color:#000000;solid-opacity:1;fill:#a66e00;fill-opacity:1;fill-rule:nonzero;stroke:#000000;stroke-width:0.5;stroke-linecap:butt;stroke-linejoin:miter;stroke-miterlimit:4;stroke-dasharray:none;stroke-dashoffset:0;stroke-opacity:1;color-rendering:auto;image-rendering:auto;shape-rendering:auto;text-rendering:auto;enable-background:accumulate" transform="matrix(0.37654483,0.9263984,-0.9263984,0.37654483,0,0)" />
    <circle cx="39.995537" cy="-238.712830" r="0.695206" style="color:#000000;opacity:1;isolation:auto;mix-blend-mode:normal;color-interpolation:sRGB;color-interpolation-filters:linearRGB;solid-color:#000000;solid-opacity:1;fill:#a66e00;fill-opacity:1;fill-rule:nonzero;stroke:#000000;stroke-width:0.5;stroke-linecap:butt;stroke-linejoin:miter;stroke-miterlimit:4;stroke-dasharray:none;stroke-dashoffset:0;stroke-opacity:1;color-rendering:auto;image-rendering:auto;shape-rendering:auto;text-rendering:auto;enable-background:accumulate" transform="matrix(0.37654483,0.9263984,-0.9263984,0.37654483,0,0)" />
    <path style="color:#000000;fill:#feffff;fill-opacity:1;fill-rule:evenodd;stroke:#000000;stroke-width:0.5;stroke-linecap:butt;stroke-linejoin:round;stroke-miterlimit:4;stroke-dasharray:none;stroke-dashoffset:0;stroke-opacity:1;marker:none;enable-background:accumulate" d="m 230.8139,-58.168744 -0.0696,11.095953 c 0,0 1.11273,-0.901569 1.17305,-2.014949 0.0592,-1.093696 -0.80015,-1.762231 -0.80015,-1.762231 0,0 1.00218,-0.841738 0.9922,-1.921676 -0.0106,-1.140901 -0.9468,-1.722391 -0.9468,-1.722391 0,0 0.80027,-0.5343 0.83406,-1.646805 0.0349,-1.150244 -1.18274,-2.027894 -1.18274,-2.027894 z" inkscape:connector-curvature="0" />
    <path style="color:#000000;fill:#feffff;fill-opacity:1;fill-rule:evenodd;stroke:#000000;stroke-width:0.5;stroke-linecap:butt;stroke-linejoin:round;stroke-miterlimit:4;stroke-dasharray:none;stroke-dashoffset:0;stroke-opacity:1;marker:none;enable-background:accumulate" d="m 236.95087,-57.97366 -0.0645,10.282469 c 0,0 1.03677,-0.785137 1.09267,-1.816887 0.0549,-1.013517 -0.74706,-1.683399 -0.74706,-1.683399 0,0 0.85887,-0.76153 0.84962,-1.762298 -0.01,-1.057255 -0.80754,-1.614603 -0.80754,-1.614603 0,0 0.84013,-0.540128 0.87144,-1.571079 0.0324,-1.065902 -1.19455,-1.834218 -1.19455,-1.834218 z" inkscape:connector-curvature="0" />
    <path style="fill:#000000;stroke:none" d="m 239.16963,-53.312319 -0.0111,0.999645 1.00145,0.01039 0.009,-1.000718 z" inkscape:connector-curvature="0" />
    <path style="fill:#6a4600;stroke:none" d="m 233.00825,-53.641515 -0.0131,1.52646 1.52369,0.01423 0.0142,-1.523703 z" inkscape:connector-curvature="0" />
    <path style="fill:none;stroke:#000000;stroke-width:0.6;stroke-linecap:butt" d="m 227.26126,-55.055042 -0.0734,4.514141" inkscape:connector-curvature="0" />
    <path style="fill:#000000;stroke:none" d="m 223.83649,-54.026834 -0.0111,0.999636 1.00072,0.0086 0.009,-0.998911 z" inkscape:connector-curvature="0" />
    <path style="fill:#000000;stroke:none" d="m 223.85032,-52.581947 -0.0111,0.999637 1.00072,0.0086 0.009,-0.998912 z" inkscape:connector-curvature="0" />
    <path style="fill:none;stroke:#000000;stroke-width:0.5;stroke-linecap:butt;stroke-linejoin:round;stroke-miterlimit:4" d="m 227.2539,-51.578825 1.14997,0.173504 -0.0116,1.05042" inkscape:connector-curvature="0" />
    <path style="fill:none;stroke:#000000;stroke-width:0.5;stroke-linecap:butt;stroke-linejoin:round;stroke-miterlimit:4" d="m 227.25705,-54.143799 1.1481,-0.163064 0.0224,-1.189753" inkscape:connector-curvature="0" />
  </g>
</g>
<g inkscape:groupmode="layer" id="suit_rank_glow_layer" inkscape:label="Suit Rank Glow" style="display:inline" sodipodi:insensitive="true" >
  <g style="opacity:0.75;filter:url(#blurSuitRankGlow)" >
    <path style="fill:#ffffff;fill-opacity:1;stroke:none" d="m 31.453338,21.223775 c -3.28572,0 -5.95,2.65553 -5.95,5.94125 0,0.85821 0.18762,1.67115 0.51625,2.40625 -0.26383,-0.0358 -0.53136,-0.0525 -0.805,-0.0525 -3.28572,0 -5.95,2.65553 -5.95,5.94125 0,3.28571 2.66428,5.95 5.95,5.95 1.44726,0 2.87049,-0.3694 3.77125,-1.1725 -0.12772,1.47874 -0.1736,2.78641 -0.21875,4.27875 1.79083,0 3.58167,0 5.3725,0 -0.0452,-1.49234 -0.091,-2.80001 -0.21875,-4.27875 0.90076,0.8031 2.32399,1.1725 3.77125,1.1725 3.28572,0 5.95,-2.66429 5.95,-5.95 0,-3.28572 -2.66428,-5.94125 -5.95,-5.94125 -0.27364,0 -0.54117,0.0167 -0.805,0.0525 0.32863,-0.7351 0.51625,-1.54804 0.51625,-2.40625 0,-3.28572 -2.66428,-5.94125 -5.95,-5.94125 z" inkscape:connector-curvature="0" />
    <path style="fill:#ffffff;fill-opacity:1;stroke:none" d="m 215.96335,316.27628 c 3.28572,0 5.95,-2.65553 5.95,-5.94125 0,-0.85821 -0.18762,-1.67114 -0.51625,-2.40625 0.26383,0.0358 0.53136,0.0525 0.805,0.0525 3.28572,0 5.95,-2.65553 5.95,-5.94125 0,-3.2857 -2.66428,-5.95 -5.95,-5.95 -1.44726,0 -2.87049,0.3694 -3.77125,1.1725 0.12772,-1.47874 0.1736,-2.78641 0.21875,-4.27875 -1.79083,0 -3.58167,0 -5.3725,0 0.0452,1.49234 0.091,2.80001 0.21875,4.27875 -0.90076,-0.8031 -2.32399,-1.1725 -3.77125,-1.1725 -3.28572,0 -5.95,2.66429 -5.95,5.95 0,3.28572 2.66428,5.94125 5.95,5.94125 0.27364,0 0.54117,-0.0167 0.805,-0.0525 -0.32863,0.73511 -0.51625,1.54804 -0.51625,2.40625 0,3.28572 2.66428,5.94125 5.95,5.94125 z" inkscape:connector-curvature="0" />
    <path style="fill:#ffffff;fill-opacity:1;stroke:none" d="m 27.85334,74.875025 -6,0 0,-3.2 12,-20.8 3.19999,0 0,20.8 3.999996,0 0,3.2 -3.999996,-0.04 0,4.84 2.400006,0 0,3.2 -7.999996,0 0,-3.2 2.4,0 0,-4.8 -6,0 m 6,-3.2 c -2e-5,0 -2e-5,-0.36 0,-1.08 -2e-5,-0.72 -2e-5,-1.6133 0,-2.68 -2e-5,-1.0933 -2e-5,-2.2533 0,-3.48 -2e-5,-1.2533 -2e-5,-2.4133 0,-3.48 -2e-5,-1.0933 -2e-5,-1.9866 0,-2.68 -2e-5,-0.72 -2e-5,-1.08 0,-1.08 -0.42668,0.72 -0.86668,1.48 -1.32001,2.28 -0.40001,0.6934 -0.84001,1.4667 -1.31999,2.32 -0.48002,0.8534 -0.98668,1.7334 -1.52,2.64 -1.22668,2.1334 -2.62668,4.5467 -4.2,7.24 l 4.15999,0 c 0.50666,0 1.01333,0 1.52,0 0.50666,0 0.94666,0 1.32001,0 0.39998,0 0.71998,0 0.96,0 0.26665,0 0.39998,0 0.4,0" inkscape:connector-curvature="0" />
    <path style="fill:#ffffff;fill-opacity:1;stroke:none" d="m 219.56334,262.62502 6,0 0,3.2 -12,20.8 -3.2,0 0,-20.8 -4,0 0,-3.2 4,0.04 0,-4.83999 -2.40001,0 0,-3.2 8,0 0,3.2 -2.40001,0 0,4.8 6,0 m -6,3.2 c 3e-5,0 3e-5,0.36 0,1.07999 3e-5,0.72001 3e-5,1.61329 0,2.68 3e-5,1.0933 3e-5,2.25331 0,3.48001 3e-5,1.2533 3e-5,2.4133 0,3.48 3e-5,1.0933 3e-5,1.9866 0,2.68 3e-5,0.72 3e-5,1.08 0,1.08 0.42669,-0.72001 0.86669,-1.48 1.32002,-2.28 0.40001,-0.6934 0.84001,-1.4667 1.31998,-2.32 0.48002,-0.8534 0.98669,-1.7334 1.52001,-2.64 1.22667,-2.1334 2.62668,-4.5467 4.19999,-7.24 l -4.15999,0 c -0.50666,0 -1.01332,0 -1.51999,0 -0.50666,0 -0.94667,0 -1.32002,0 -0.39998,0 -0.71997,0 -0.96,0 -0.26665,0 -0.39998,0 -0.4,0" inkscape:connector-curvature="0" />
  </g>
</g>
<g inkscape:groupmode="layer" id="suit_rank_layer" inkscape:label="Suit Rank" style="display:inline" sodipodi:insensitive="true" >
  <path style="fill:#000000;fill-opacity:1;stroke:none" d="m 31.453338,21.223775 c -3.28572,0 -5.95,2.65553 -5.95,5.94125 0,0.85821 0.18762,1.67115 0.51625,2.40625 -0.26383,-0.0358 -0.53136,-0.0525 -0.805,-0.0525 -3.28572,0 -5.95,2.65553 -5.95,5.94125 0,3.28571 2.66428,5.95 5.95,5.95 1.44726,0 2.87049,-0.3694 3.77125,-1.1725 -0.12772,1.47874 -0.1736,2.78641 -0.21875,4.27875 1.79083,0 3.58167,0 5.3725,0 -0.0452,-1.49234 -0.091,-2.80001 -0.21875,-4.27875 0.90076,0.8031 2.32399,1.1725 3.77125,1.1725 3.28572,0 5.95,-2.66429 5.95,-5.95 0,-3.28572 -2.66428,-5.94125 -5.95,-5.94125 -0.27364,0 -0.54117,0.0167 -0.805,0.0525 0.32863,-0.7351 0.51625,-1.54804 0.51625,-2.40625 0,-3.28572 -2.66428,-5.94125 -5.95,-5.94125 z" inkscape:connector-curvature="0" />
  <path style="fill:#000000;fill-opacity:1;stroke:none" d="m 215.96335,316.27628 c 3.28572,0 5.95,-2.65553 5.95,-5.94125 0,-0.85821 -0.18762,-1.67114 -0.51625,-2.40625 0.26383,0.0358 0.53136,0.0525 0.805,0.0525 3.28572,0 5.95,-2.65553 5.95,-5.94125 0,-3.2857 -2.66428,-5.95 -5.95,-5.95 -1.44726,0 -2.87049,0.3694 -3.77125,1.1725 0.12772,-1.47874 0.1736,-2.78641 0.21875,-4.27875 -1.79083,0 -3.58167,0 -5.3725,0 0.0452,1.49234 0.091,2.80001 0.21875,4.27875 -0.90076,-0.8031 -2.32399,-1.1725 -3.77125,-1.1725 -3.28572,0 -5.95,2.66429 -5.95,5.95 0,3.28572 2.66428,5.94125 5.95,5.94125 0.27364,0 0.54117,-0.0167 0.805,-0.0525 -0.32863,0.73511 -0.51625,1.54804 -0.51625,2.40625 0,3.28572 2.66428,5.94125 5.95,5.94125 z" inkscape:connector-curvature="0" />
  <path style="fill:#000000;fill-opacity:1;stroke:none" d="m 27.85334,74.875025 -6,0 0,-3.2 12,-20.8 3.19999,0 0,20.8 3.999996,0 0,3.2 -3.999996,-0.04 0,4.84 2.400006,0 0,3.2 -7.999996,0 0,-3.2 2.4,0 0,-4.8 -6,0 m 6,-3.2 c -2e-5,0 -2e-5,-0.36 0,-1.08 -2e-5,-0.72 -2e-5,-1.6133 0,-2.68 -2e-5,-1.0933 -2e-5,-2.2533 0,-3.48 -2e-5,-1.2533 -2e-5,-2.4133 0,-3.48 -2e-5,-1.0933 -2e-5,-1.9866 0,-2.68 -2e-5,-0.72 -2e-5,-1.08 0,-1.08 -0.42668,0.72 -0.86668,1.48 -1.32001,2.28 -0.40001,0.6934 -0.84001,1.4667 -1.31999,2.32 -0.48002,0.8534 -0.98668,1.7334 -1.52,2.64 -1.22668,2.1334 -2.62668,4.5467 -4.2,7.24 l 4.15999,0 c 0.50666,0 1.01333,0 1.52,0 0.50666,0 0.94666,0 1.32001,0 0.39998,0 0.71998,0 0.96,0 0.26665,0 0.39998,0 0.4,0" inkscape:connector-curvature="0" />
  <path style="fill:#000000;fill-opacity:1;stroke:none" d="m 219.56334,262.62502 6,0 0,3.2 -12,20.8 -3.2,0 0,-20.8 -4,0 0,-3.2 4,0.04 0,-4.83999 -2.40001,0 0,-3.2 8,0 0,3.2 -2.40001,0 0,4.8 6,0 m -6,3.2 c 3e-5,0 3e-5,0.36 0,1.07999 3e-5,0.72001 3e-5,1.61329 0,2.68 3e-5,1.0933 3e-5,2.25331 0,3.48001 3e-5,1.2533 3e-5,2.4133 0,3.48 3e-5,1.0933 3e-5,1.9866 0,2.68 3e-5,0.72 3e-5,1.08 0,1.08 0.42669,-0.72001 0.86669,-1.48 1.32002,-2.28 0.40001,-0.6934 0.84001,-1.4667 1.31998,-2.32 0.48002,-0.8534 0.98669,-1.7334 1.52001,-2.64 1.22667,-2.1334 2.62668,-4.5467 4.19999,-7.24 l -4.15999,0 c -0.50666,0 -1.01332,0 -1.51999,0 -0.50666,0 -0.94667,0 -1.32002,0 -0.39998,0 -0.71997,0 -0.96,0 -0.26665,0 -0.39998,0 -0.4,0" inkscape:connector-curvature="0" />
</g>
<g inkscape:groupmode="layer" id="guides_layer" inkscape:label="Guides" style="display:none" sodipodi:insensitive="true" >
  <path style="fill:none;stroke:#000000;stroke-width:0.9" d="m 11.250000,11.25 0,-45" inkscape:connector-curvature="0" />
  <path style="fill:none;stroke:#000000;stroke-width:0.9" d="m 11.250000,371.25 0,-45" inkscape:connector-curvature="0" />
  <path style="fill:none;stroke:#000000;stroke-width:0.9" d="m 84.375000,11.25 0,-45" inkscape:connector-curvature="0" />
  <path style="fill:none;stroke:#000000;stroke-width:0.9" d="m 84.375000,371.25 0,-45" inkscape:connector-curvature="0" />
  <path style="fill:none;stroke:#000000;stroke-width:0.9" d="m 123.750000,11.25 0,-45" inkscape:connector-curvature="0" />
  <path style="fill:none;stroke:#000000;stroke-width:0.9" d="m 123.750000,371.25 0,-45" inkscape:connector-curvature="0" />
  <path style="fill:none;stroke:#000000;stroke-width:0.9" d="m 163.125000,11.25 0,-45" inkscape:connector-curvature="0" />
  <path style="fill:none;stroke:#000000;stroke-width:0.9" d="m 163.125000,371.25 0,-45" inkscape:connector-curvature="0" />
  <path style="fill:none;stroke:#000000;stroke-width:0.9" d="m 236.250000,11.25 0,-45" inkscape:connector-curvature="0" />
  <path style="fill:none;stroke:#000000;stroke-width:0.9" d="m 236.250000,371.25 0,-45" inkscape:connector-curvature="0" />
  <path style="fill:none;stroke:#000000;stroke-width:0.9" d="m -33.75,11.250000 45,0" inkscape:connector-curvature="0" />
  <path style="fill:none;stroke:#000000;stroke-width:0.9" d="m 236.25,11.250000 45,0" inkscape:connector-curvature="0" />
  <path style="fill:none;stroke:#000000;stroke-width:0.9" d="m -33.75,118.125000 45,0" inkscape:connector-curvature="0" />
  <path style="fill:none;stroke:#000000;stroke-width:0.9" d="m 236.25,118.125000 45,0" inkscape:connector-curvature="0" />
  <path style="fill:none;stroke:#000000;stroke-width:0.9" d="m -33.75,168.750000 45,0" inkscape:connector-curvature="0" />
  <path style="fill:none;stroke:#000000;stroke-width:0.9" d="m 236.25,168.750000 45,0" inkscape:connector-curvature="0" />
  <path style="fill:none;stroke:#000000;stroke-width:0.9" d="m -33.75,219.375000 45,0" inkscape:connector-curvature="0" />
  <path style="fill:none;stroke:#000000;stroke-width:0.9" d="m 236.25,219.375000 45,0" inkscape:connector-curvature="0" />
  <path style="fill:none;stroke:#000000;stroke-width:0.9" d="m -33.75,326.250000 45,0" inkscape:connector-curvature="0" />
  <path style="fill:none;stroke:#000000;stroke-width:0.9" d="m 236.25,326.250000 45,0" inkscape:connector-curvature="0" />
  <g id="guide-short0-0" >
    <rect x="0.000000" y="-22.500000" width="247.500000" height="22.500000" style="fill:#73baff;stroke:#000000;stroke-width:0.9" />
  </g>
  <g id="guide-long1-1" >
    <rect x="247.500000" y="219.375000" width="22.500000" height="118.125000" style="fill:#ffd291;stroke:#000000;stroke-width:0.9" />
    <rect x="247.500000" y="236.250000" width="22.500000" height="101.250000" style="fill:#b4e982;stroke:#000000;stroke-width:0.9" />
    <rect x="247.500000" y="258.750000" width="22.500000" height="78.750000" style="fill:#5adc4f;stroke:#000000;stroke-width:0.9" />
    <rect x="247.500000" y="0.000000" width="22.500000" height="219.375000" style="fill:#b9deff;stroke:#000000;stroke-width:0.9" />
    <rect x="247.500000" y="0.000000" width="22.500000" height="168.750000" style="fill:#9bceff;stroke:#000000;stroke-width:0.9" />
    <rect x="247.500000" y="0.000000" width="22.500000" height="101.250000" style="fill:#73baff;stroke:#000000;stroke-width:0.9" />
  </g>
  <g id="guide-short2-7" transform="matrix(-1,0,0,1,247.5,360)" >
    <rect x="0.000000" y="-22.500000" width="247.500000" height="22.500000" style="fill:#b4e982;stroke:#000000;stroke-width:0.9" />
    <rect x="0.000000" y="-22.500000" width="118.125000" height="22.500000" style="fill:#5adc4f;stroke:#000000;stroke-width:0.9" />
    <rect x="129.375000" y="-22.500000" width="118.125000" height="22.500000" style="fill:#5adc4f;stroke:#000000;stroke-width:0.9" />
  </g>
  <g id="guide-long3-6" transform="matrix(1,0,0,-1,-270,337.5)" >
    <rect x="247.500000" y="0.000000" width="22.500000" height="219.375000" style="fill:#ffd291;stroke:#000000;stroke-width:0.9" />
    <rect x="247.500000" y="0.000000" width="22.500000" height="213.750000" style="fill:#b4e982;stroke:#000000;stroke-width:0.9" />
    <rect x="247.500000" y="0.000000" width="22.500000" height="112.500000" style="fill:#5adc4f;stroke:#000000;stroke-width:0.9" />
    <rect x="247.500000" y="123.750000" width="22.500000" height="61.875000" style="fill:#5adc4f;stroke:#000000;stroke-width:0.9" />
    <rect x="247.500000" y="219.375000" width="22.500000" height="118.125000" style="fill:#b9deff;stroke:#000000;stroke-width:0.9" />
    <rect x="247.500000" y="253.125000" width="22.500000" height="84.375000" style="fill:#9bceff;stroke:#000000;stroke-width:0.9" />
    <rect x="247.500000" y="286.875000" width="22.500000" height="50.625000" style="fill:#73baff;stroke:#000000;stroke-width:0.9" />
  </g>
</g>
<g inkscape:groupmode="layer" id="cut_line_layer" inkscape:label="Cut Line" style="display:none" sodipodi:insensitive="true" >
  <rect style="fill:none;stroke:#000000;stroke-width:0.5;stroke-linecap:butt;stroke-linejoin:bevel;stroke-miterlimit:4;stroke-dasharray:none;stroke-opacity:1" width="225" height="315" x="11.25" y="11.25" ry="17.361111" />
</g>
<g inkscape:groupmode="layer" id="page_border_layer" inkscape:label="Page Border" style="display:none" sodipodi:insensitive="true" >
  <rect style="fill:none;stroke:#000000;stroke-width:0.5;stroke-linecap:butt;stroke-linejoin:bevel;stroke-miterlimit:4;stroke-dasharray:none;stroke-opacity:1" width="247.5" height="337.5" x="0" y="0" />
</g>

</svg>
