<?xml version="1.0" encoding="UTF-8" standalone="no"?>
<svg
   xmlns:dc="http://purl.org/dc/elements/1.1/"
   xmlns:cc="http://creativecommons.org/ns#"
   xmlns:rdf="http://www.w3.org/1999/02/22-rdf-syntax-ns#"
   xmlns:svg="http://www.w3.org/2000/svg"
   xmlns="http://www.w3.org/2000/svg"
   xmlns:xlink="http://www.w3.org/1999/xlink"
   xmlns:sodipodi="http://sodipodi.sourceforge.net/DTD/sodipodi-0.dtd"
   xmlns:inkscape="http://www.inkscape.org/namespaces/inkscape"
   version="1.1"
   height="337.5"
   width="247.5"
   id="svg2"
   inkscape:version="0.91 r13725"
   sodipodi:docname="clubs-7.svg">
  <metadata
     id="metadata4">
    <rdf:RDF>
      <cc:Work
         rdf:about="">
        <dc:format>image/svg+xml</dc:format>
        <dc:type
           rdf:resource="http://purl.org/dc/dcmitype/StillImage" />
        <dc:title />
        <dc:creator>
          <cc:Agent>
            <dc:title>Gary Kacmarcik</dc:title>
          </cc:Agent>
        </dc:creator>
      </cc:Work>
    </rdf:RDF>
  </metadata>
  <defs
     id="defs6">
    <filter
       inkscape:label="textureGrassBig"
       style="color-interpolation-filters:sRGB"
       id="textureGrassBig">
      <feTurbulence
         numOctaves="2"
         seed="7"
         type="turbulence"
         baseFrequency="0.070000"
         result="result1"
         id="feTurbulence9" />
      <feColorMatrix
         result="result0"
         in="SourceGraphic"
         type="luminanceToAlpha"
         id="feColorMatrix11" />
      <feColorMatrix
         result="result2"
         values="1 0 0 0 0 0 1 0 0 0 0 0 1 0 0 0 0 0 0.4 0 "
         id="feColorMatrix13" />
      <feComposite
         in="result2"
         operator="over"
         in2="result1"
         id="feComposite15" />
      <feColorMatrix
         result="result91"
         values="1 0 0 0 0 0 1 0 0 0 0 0 1 0 0 0 0 0 10 -4 "
         id="feColorMatrix17" />
      <feComposite
         operator="out"
         in="SourceGraphic"
         in2="result91"
         id="feComposite19" />
      <feGaussianBlur
         stdDeviation="2.500000"
         id="feGaussianBlur21" />
      <feColorMatrix
         values="1 0 0 0 0 0 1 0 0 0 0 0 1 0 0 0 0 0 1 0 "
         id="feColorMatrix23" />
    </filter>
    <filter
       inkscape:label="textureGrassSmall"
       style="color-interpolation-filters:sRGB"
       id="textureGrassSmall">
      <feTurbulence
         numOctaves="4"
         seed="7"
         type="turbulence"
         baseFrequency="0.500000"
         result="result1"
         id="feTurbulence26" />
      <feColorMatrix
         result="result0"
         in="SourceGraphic"
         type="luminanceToAlpha"
         id="feColorMatrix28" />
      <feColorMatrix
         result="result2"
         values="1 0 0 0 0 0 1 0 0 0 0 0 1 0 0 0 0 0 0.4 0 "
         id="feColorMatrix30" />
      <feComposite
         in="result2"
         operator="over"
         in2="result1"
         id="feComposite32" />
      <feColorMatrix
         result="result91"
         values="1 0 0 0 0 0 1 0 0 0 0 0 1 0 0 0 0 0 10 -4 "
         id="feColorMatrix34" />
      <feComposite
         operator="out"
         in="SourceGraphic"
         in2="result91"
         id="feComposite36" />
      <feGaussianBlur
         stdDeviation="1.000000"
         id="feGaussianBlur38" />
      <feColorMatrix
         values="1 0 0 0 0 0 1 0 0 0 0 0 1 0 0 0 0 0 1 0 "
         id="feColorMatrix40" />
    </filter>
    <filter
       inkscape:label="textureLand"
       style="color-interpolation-filters:sRGB"
       id="textureLand">
      <feTurbulence
         numOctaves="4"
         seed="7"
         type="turbulence"
         baseFrequency="0.500000"
         result="result1"
         id="feTurbulence43" />
      <feColorMatrix
         result="result0"
         in="SourceGraphic"
         type="luminanceToAlpha"
         id="feColorMatrix45" />
      <feColorMatrix
         result="result2"
         values="1 0 0 0 0 0 1 0 0 0 0 0 1 0 0 0 0 0 0.4 0 "
         id="feColorMatrix47" />
      <feComposite
         in="result2"
         operator="over"
         in2="result1"
         id="feComposite49" />
      <feColorMatrix
         result="result91"
         values="1 0 0 0 0 0 1 0 0 0 0 0 1 0 0 0 0 0 10 -4 "
         id="feColorMatrix51" />
      <feComposite
         operator="out"
         in="SourceGraphic"
         in2="result91"
         id="feComposite53" />
      <feGaussianBlur
         stdDeviation="0.800000"
         id="feGaussianBlur55" />
      <feColorMatrix
         values="1 0 0 0 0 0 1 0 0 0 0 0 1 0 0 0 0 0 1 0 "
         id="feColorMatrix57" />
    </filter>
    <filter
       inkscape:label="textureForestBig"
       style="color-interpolation-filters:sRGB"
       id="textureForestBig">
      <feTurbulence
         numOctaves="2"
         seed="7"
         type="turbulence"
         baseFrequency="0.300000"
         result="result1"
         id="feTurbulence60" />
      <feColorMatrix
         result="result0"
         in="SourceGraphic"
         type="luminanceToAlpha"
         id="feColorMatrix62" />
      <feColorMatrix
         result="result2"
         values="1 0 0 0 0 0 1 0 0 0 0 0 1 0 0 0 0 0 0.4 0 "
         id="feColorMatrix64" />
      <feComposite
         in="result2"
         operator="over"
         in2="result1"
         id="feComposite66" />
      <feColorMatrix
         result="result91"
         values="1 0 0 0 0 0 1 0 0 0 0 0 1 0 0 0 0 0 10 -4 "
         id="feColorMatrix68" />
      <feComposite
         operator="out"
         in="SourceGraphic"
         in2="result91"
         id="feComposite70" />
      <feGaussianBlur
         stdDeviation="2.000000"
         id="feGaussianBlur72" />
      <feColorMatrix
         values="1 0 0 0 0 0 1 0 0 0 0 0 1 0 0 0 0 0 1 0 "
         id="feColorMatrix74" />
    </filter>
    <filter
       inkscape:label="textureForestSmall"
       style="color-interpolation-filters:sRGB"
       id="textureForestSmall">
      <feTurbulence
         numOctaves="4"
         seed="7"
         type="turbulence"
         baseFrequency="0.350000"
         result="result1"
         id="feTurbulence77" />
      <feColorMatrix
         result="result0"
         in="SourceGraphic"
         type="luminanceToAlpha"
         id="feColorMatrix79" />
      <feColorMatrix
         result="result2"
         values="1 0 0 0 0 0 1 0 0 0 0 0 1 0 0 0 0 0 0.4 0 "
         id="feColorMatrix81" />
      <feComposite
         in="result2"
         operator="over"
         in2="result1"
         id="feComposite83" />
      <feColorMatrix
         result="result91"
         values="1 0 0 0 0 0 1 0 0 0 0 0 1 0 0 0 0 0 10 -4 "
         id="feColorMatrix85" />
      <feComposite
         operator="out"
         in="SourceGraphic"
         in2="result91"
         id="feComposite87" />
      <feGaussianBlur
         stdDeviation="1.000000"
         id="feGaussianBlur89" />
      <feColorMatrix
         values="1 0 0 0 0 0 1 0 0 0 0 0 1 0 0 0 0 0 1 0 "
         id="feColorMatrix91" />
    </filter>
    <filter
       inkscape:label="roughenShoreline"
       style="color-interpolation-filters:sRGB"
       id="roughenShoreline">
      <feTurbulence
         numOctaves="4"
         seed="7"
         type="turbulence"
         baseFrequency="0.050000"
         result="turb"
         id="feTurbulence94" />
      <feDisplacementMap
         scale="6.600000"
         yChannelSelector="G"
         xChannelSelector="R"
         in="SourceGraphic"
         in2="turb"
         id="feDisplacementMap96" />
    </filter>
    <filter
       inkscape:label="roughenForest"
       style="color-interpolation-filters:sRGB"
       id="roughenForest">
      <feTurbulence
         numOctaves="4"
         seed="7"
         type="fractalNoise"
         baseFrequency="0.150000 0.150000"
         result="turb"
         id="feTurbulence99" />
      <feDisplacementMap
         scale="6.600000"
         yChannelSelector="G"
         xChannelSelector="R"
         in="SourceGraphic"
         in2="turb"
         id="feDisplacementMap101" />
    </filter>
    <filter
       inkscape:collect="always"
       inkscape:label="blurSuitRankGlow"
       style="color-interpolation-filters:sRGB"
       id="blurSuitRankGlow"
       x="-0.029025"
       y="-0.020458"
       width="1.058049"
       height="1.040917">
      <feGaussianBlur
         inkscape:collect="always"
         stdDeviation="2.515067"
         id="feGaussianBlur104" />
    </filter>
    <filter
       inkscape:collect="always"
       inkscape:label="blurWaterDeep"
       style="color-interpolation-filters:sRGB"
       id="blurWaterDeep"
       x="-0.056691"
       y="-0.041620"
       width="1.113381"
       height="1.083239">
      <feGaussianBlur
         inkscape:collect="always"
         stdDeviation="6.919136"
         id="feGaussianBlur107" />
    </filter>
    <filter
       inkscape:collect="always"
       inkscape:label="blurWaterShallow"
       style="color-interpolation-filters:sRGB"
       id="blurWaterShallow"
       x="-0.055818"
       y="-0.042103"
       width="1.111637"
       height="1.084205">
      <feGaussianBlur
         inkscape:collect="always"
         stdDeviation="6.561501"
         id="feGaussianBlur110" />
    </filter>
    <filter
       inkscape:collect="always"
       inkscape:label="blurWaterHilight"
       style="color-interpolation-filters:sRGB"
       id="blurWaterHilight"
       x="-0.071178"
       y="-0.051856"
       width="1.142356"
       height="1.103712">
      <feGaussianBlur
         inkscape:collect="always"
         stdDeviation="6.857532"
         id="feGaussianBlur113" />
    </filter>
    <filter
       inkscape:collect="always"
       inkscape:label="blurGrass"
       style="color-interpolation-filters:sRGB"
       id="blurGrass"
       x="-0.032100"
       y="-0.019164"
       width="1.064201"
       height="1.038328">
      <feGaussianBlur
         inkscape:collect="always"
         stdDeviation="2.386213"
         id="feGaussianBlur116" />
    </filter>
    <filter
       inkscape:collect="always"
       inkscape:label="blurForestShadow"
       style="color-interpolation-filters:sRGB"
       id="blurForestShadow"
       x="-0.033576"
       y="-0.018674"
       width="1.067152"
       height="1.037348">
      <feGaussianBlur
         inkscape:collect="always"
         stdDeviation="2.199785"
         id="feGaussianBlur119" />
    </filter>
    <linearGradient
       id="gradientStopsFish"
       inkscape:collect="always">
      <stop
         offset="0.000000"
         style="stop-color:#ff5555;stop-opacity:1.000000"
         id="stop128" />
      <stop
         offset="1.000000"
         style="stop-color:#ffffff;stop-opacity:1.000000"
         id="stop130" />
    </linearGradient>
    <linearGradient
       id="gradientStopsCoconut"
       inkscape:collect="always">
      <stop
         offset="0.000000"
         style="stop-color:#ffffff;stop-opacity:1.000000"
         id="stop133" />
      <stop
         offset="1.000000"
         style="stop-color:#c8c8c8;stop-opacity:0.000000"
         id="stop135" />
    </linearGradient>
    <linearGradient
       id="gradientStopsFlower"
       inkscape:collect="always">
      <stop
         offset="0.000000"
         style="stop-color:#b16dff;stop-opacity:1.000000"
         id="stop138" />
      <stop
         offset="1.000000"
         style="stop-color:#e7d2ff;stop-opacity:1.000000"
         id="stop140" />
    </linearGradient>
    <linearGradient
       id="gradientStopsJellyfish"
       inkscape:collect="always">
      <stop
         offset="0.000000"
         style="stop-color:#4f97ff;stop-opacity:1.000000"
         id="stop143" />
      <stop
         offset="1.000000"
         style="stop-color:#cfe3ff;stop-opacity:1.000000"
         id="stop145" />
    </linearGradient>
    <linearGradient
       id="gradientStopsShip"
       inkscape:collect="always">
      <stop
         offset="0.000000"
         style="stop-color:#b67800;stop-opacity:1.000000"
         id="stop148" />
      <stop
         offset="1.000000"
         style="stop-color:#d28b00;stop-opacity:1.000000"
         id="stop150" />
    </linearGradient>
    <linearGradient
       id="gradientFish"
       xlink:href="#gradientStopsFish"
       x1="178.789090"
       y1="-114.782830"
       x2="180.407300"
       y2="-103.782830"
       gradientTransform="translate(-178.76256,1.0606602)"
       gradientUnits="userSpaceOnUse"
       inkscape:collect="always" />
    <linearGradient
       id="gradientJellyfishTentacle1a"
       xlink:href="#gradientStopsJellyfish"
       x1="118.024030"
       y1="-110.827530"
       x2="121.753140"
       y2="-96.140030"
       gradientTransform="translate(-120,0)"
       gradientUnits="userSpaceOnUse"
       inkscape:collect="always" />
    <linearGradient
       id="gradientJellyfishTentacle1b"
       xlink:href="#gradientStopsJellyfish"
       x1="118.024030"
       y1="-110.827530"
       x2="121.753140"
       y2="-96.140030"
       gradientTransform="translate(-120,0)"
       gradientUnits="userSpaceOnUse"
       inkscape:collect="always" />
    <linearGradient
       id="gradientJellyfishTentacle2"
       xlink:href="#gradientStopsJellyfish"
       x1="118.218180"
       y1="-115.782610"
       x2="121.698270"
       y2="-97.813858"
       gradientTransform="translate(-120,0)"
       gradientUnits="userSpaceOnUse"
       inkscape:collect="always" />
    <linearGradient
       id="gradientJellyfishTentacle3"
       xlink:href="#gradientStopsJellyfish"
       x1="123.335370"
       y1="-114.610190"
       x2="116.678600"
       y2="-98.453941"
       gradientTransform="translate(-120,0)"
       gradientUnits="userSpaceOnUse"
       inkscape:collect="always" />
    <linearGradient
       id="gradientShip"
       xlink:href="#gradientStopsShip"
       x1="196.432910"
       y1="221.715270"
       x2="203.663250"
       y2="204.277770"
       gradientTransform="matrix(0.37654483,0.9263984,-0.9263984,0.37654483,355.66788,-318.43897)"
       gradientUnits="userSpaceOnUse"
       inkscape:collect="always" />
    <radialGradient
       id="gradientCoconut"
       xlink:href="#gradientStopsCoconut"
       cx="1.944096"
       cy="-60.612652"
       fx="1.944096"
       fy="-60.612652"
       r="6.723294"
       gradientUnits="userSpaceOnUse"
       gradientTransform="matrix(1.691364,-0.31394812,0.29762395,1.603419,17.826033,-7.042221)"
       inkscape:collect="always" />
    <radialGradient
       id="gradientFlower"
       xlink:href="#gradientStopsFlower"
       cx="60.884877"
       cy="-69.652750"
       fx="60.884877"
       fy="-69.652750"
       r="15.835310"
       gradientUnits="userSpaceOnUse"
       gradientTransform="matrix(0.8413905,0,0,0.87120012,-50.722984,-48.679159)"
       inkscape:collect="always" />
    <radialGradient
       id="gradientJellyfish"
       xlink:href="#gradientStopsJellyfish"
       cx="120.453410"
       cy="-112.943900"
       fx="120.453410"
       fy="-112.943900"
       r="10.580511"
       gradientUnits="userSpaceOnUse"
       gradientTransform="matrix(1.1662998,0.0435575,-0.04526952,1.2121402,-145.14628,17.080499)"
       inkscape:collect="always" />
  </defs>
  <sodipodi:namedview
     id="base"
     pagecolor="#ffffff"
     bordercolor="#666666"
     borderopacity="1.0"
     inkscape:pageopacity="0.0"
     inkscape:pageshadow="2"
     inkscape:zoom="2"
     inkscape:cx="182.37643"
     inkscape:cy="185.04449"
     inkscape:document-units="in"
     showgrid="true"
     units="in"
     inkscape:window-width="1392"
     inkscape:window-height="836"
     inkscape:window-x="39"
     inkscape:window-y="6"
     inkscape:window-maximized="0"
     inkscape:snap-grids="true"
     inkscape:snap-to-guides="true"
     inkscape:snap-nodes="true"
     inkscape:object-nodes="true"
     inkscape:snap-smooth-nodes="true"
     inkscape:snap-intersection-paths="true"
     inkscape:object-paths="true"
     inkscape:snap-bbox="true"
     inkscape:bbox-nodes="true"
     inkscape:snap-others="true"
     inkscape:bbox-paths="false"
     inkscape:snap-global="false"
     inkscape:current-layer="resources_layer">
    <inkscape:grid
       type="xygrid"
       id="grid3051"
       empspacing="2"
       visible="true"
       enabled="true"
       snapvisiblegridlinesonly="true"
       spacingx="0.0625in"
       spacingy="0.0625in"
       dotted="false"
       units="in" />
  </sodipodi:namedview>
  <g
     inkscape:groupmode="layer"
     id="water_layer"
     inkscape:label="Water"
     style="display:inline"
     sodipodi:insensitive="true">
    <rect
       id="water"
       style="fill:#b9deff;fill-opacity:1;stroke:none"
       x="0"
       y="0"
       width="247.5"
       height="337.5" />
  </g>
  <g
     inkscape:groupmode="layer"
     id="water_shallow_layer"
     inkscape:label="Water Shallow"
     style="display:inline"
     sodipodi:insensitive="true">
    <path
       style="fill:#9bd1ff;fill-opacity:0.70;fill-rule:evenodd;stroke:none;filter:url(#blurWaterShallow)"
       d="m -11.25,-11.25 0,95.625 22.5,0 16.875,0 28.125,0 28.125,28.125 11.25,28.125 28.125,0 22.5,16.875 5.625,22.5 16.875,5.625 16.875,28.125 11.25,28.125 -11.25,33.75 -5.625,16.875 5.625,16.875 0,16.875 0,22.5 73.125,0 0,-180 -22.5,0 -5.625,0 -11.25,-16.875 -28.125,16.875 -22.5,-22.5 -28.125,-16.875 -16.875,-22.5 -5.625,-39.375 5.625,-39.375 0,-16.875 0,-22.5 z"
       inkscape:connector-curvature="0"
       id="path166" />
  </g>
  <g
     inkscape:groupmode="layer"
     id="water_deep_layer"
     inkscape:label="Water Deep"
     style="display:inline"
     sodipodi:insensitive="true">
    <path
       style="fill:#87c8ff;fill-opacity:0.60;fill-rule:evenodd;stroke:none;filter:url(#blurWaterDeep)"
       d="m -11.25,-11.25 0,61.875 22.5,0 L 45,56.25 67.5,45 73.125,28.125 67.5,11.25 l 0,-22.5 z m 247.5,247.5 -11.25,22.5 -5.625,22.5 5.625,28.125 -11.25,16.875 0,22.5 45,0 0,-112.5 z"
       inkscape:connector-curvature="0"
       id="path169" />
  </g>
  <g
     inkscape:groupmode="layer"
     id="water_hilight_layer"
     inkscape:label="Water Hilight"
     style="display:inline"
     sodipodi:insensitive="true">
    <use
       xlink:href="#shoreline"
       height="100%"
       width="100%"
       x="0"
       y="0"
       style="display:inline;fill:#ffffff;fill-opacity:1;stroke:#ffffff;stroke-opacity:1;filter:url(#blurWaterHilight)"
       id="use172" />
  </g>
  <g
     inkscape:groupmode="layer"
     id="land_layer"
     inkscape:label="Land"
     style="display:inline"
     sodipodi:insensitive="true">
    <use
       xlink:href="#shoreline"
       height="100%"
       width="100%"
       x="0"
       y="0"
       style="display:inline;fill:#ffddab;fill-opacity:1;stroke:none;stroke-width:1;stroke-miterlimit:4;stroke-dasharray:none;stroke-opacity:1"
       id="use175" />
  </g>
  <g
     inkscape:groupmode="layer"
     id="land_texture_layer"
     inkscape:label="Land Texture"
     style="display:inline"
     sodipodi:insensitive="true">
    <use
       xlink:href="#shoreline"
       height="100%"
       width="100%"
       x="0"
       y="0"
       style="display:inline;fill:#ffca7d;fill-opacity:1;stroke:none;stroke-width:1;stroke-miterlimit:4;stroke-dasharray:none;stroke-opacity:1;filter:url(#textureLand)"
       id="use178" />
  </g>
  <g
     inkscape:groupmode="layer"
     id="shoreline_layer"
     inkscape:label="Shoreline"
     style="display:inline"
     sodipodi:insensitive="true">
    <use
       xlink:href="#shoreline"
       height="100%"
       width="100%"
       x="0"
       y="0"
       style="display:inline;fill:none;fill-opacity:1;stroke:#5f4c14;stroke-width:1;stroke-miterlimit:4;stroke-dasharray:none;stroke-opacity:1"
       id="use181" />
  </g>
  <g
     inkscape:groupmode="layer"
     id="shoreline_master_layer"
     inkscape:label="Shoreline Master"
     style="display:none"
     sodipodi:insensitive="true">
    <path
       id="shoreline"
       style="color:#000000;clip-rule:nonzero;display:inline;overflow:visible;visibility:visible;opacity:1;isolation:auto;mix-blend-mode:normal;color-interpolation:sRGB;color-interpolation-filters:linearRGB;solid-color:#000000;solid-opacity:1;fill-opacity:1;fill-rule:evenodd;filter:url(#roughenShoreline);color-rendering:auto;image-rendering:auto;shape-rendering:auto;text-rendering:auto;enable-background:accumulate"
       d="m 216.5625,-26.71875 c -25.3125,0 -50.625,1.40625 -53.4375,4.21875 -5.3033,5.303301 0,15 0,22.5 0,5.625 -4.54846,9.5649729 0,16.875 1.13038,1.816688 -2.02629,10.547415 -6.75,20.5 -3.4071,7.178559 -4.42048,19.904365 -1.13672,29.837891 1.97375,5.970682 6.53125,13.504624 6.25,23.5 -0.40118,14.257389 12.69689,17.053979 15.5,24.499999 7.05672,18.74508 16.68461,10.01316 22.13672,-1.71289 4.6151,-9.92585 19.625,-22.625 27.375,-12.125 1.75977,2.38421 16.11194,16.6531 21,16.75 10.95752,0.21713 18.52252,3.97748 22.5,0 5.625,-5.625 5.625,-135 0,-140.625 -2.8125,-2.8125 -28.125,-4.21875 -53.4375,-4.21875 z M -14.308594,116.63867 c -3.111316,0.045 -6.095093,0.43817 -8.191406,1.48633 -11.25,5.625 -7.954951,233.92005 0,241.875 11.25,11.25 185.625,0 185.625,0 -5.625,-11.25 0,-16.875 0,-22.5 0,-2.80014 1.01122,-6.66636 0,-16.875 -0.70212,-7.0882 -14.65548,-24.3129 -7.35742,-39.70703 7.2587,-15.3111 10.70635,-43.15369 -2.60938,-54.60547 -10.37774,-8.92505 -14.72361,-8.14564 -18.44531,-8.7793 -13.40743,-2.28275 14.91327,31.72365 -7.64844,33.68555 -9.72932,0.84603 -17.98319,-14.11318 -25.17773,-13.30664 -14.568078,1.63316 -9.889154,-18.50739 -16.306642,-23.19141 -6.869676,-5.01407 -21.737725,-15.47632 -15.765625,-24.95703 3.924597,-6.23029 5.596707,-1.83763 8.498047,-8.48242 4.86272,-11.13687 -6.02488,-0.16618 -5.74219,-9.28711 0.20897,-6.74203 -3.901189,-23.09606 -10.535154,-26.97266 -5.772654,-3.37329 3.276588,-6.70998 -8.408203,-13.92578 -12.673694,-7.82648 -5.794741,-16.78064 -12.050781,-19.10351 -5.76711,-2.14133 -9.070505,-5.98766 -15.302734,-4.95899 -5.63293,0.92974 -2.625711,7.0379 -8.773438,8.0918 l -17.5,3 c 0,0 -7.4636981,-1.58541 -14.308594,-1.48633 z m 123.925784,49.4668 c -3.91904,10.41861 8.17715,9.52548 7.67383,14.32422 0,0 -7.62679,10.62861 -3.37696,10.49804 l 14.66992,9.03711 C 130.93,199.856 127.63867,192 127.63867,192 c -3.51114,-8.49541 -6.08594,-19.06055 -6.08594,-19.06055 z"
       inkscape:connector-curvature="0" />
  </g>
  <g
     inkscape:groupmode="layer"
     id="grass_layer"
     inkscape:label="Grass"
     style="display:inline"
     sodipodi:insensitive="true">
    <use
       xlink:href="#grass"
       height="100%"
       width="100%"
       x="0"
       y="0"
       style="display:inline;fill:#b4e982;fill-opacity:1;stroke:none;stroke-width:1;stroke-miterlimit:4;stroke-dasharray:none;stroke-opacity:1"
       id="use186" />
  </g>
  <g
     inkscape:groupmode="layer"
     id="grass_texture1_layer"
     inkscape:label="Grass Texture Big"
     style="display:inline"
     sodipodi:insensitive="true">
    <use
       xlink:href="#grass"
       height="100%"
       width="100%"
       x="0"
       y="0"
       style="display:inline;fill:#a7e46a;fill-opacity:1;stroke:none;stroke-width:1;stroke-miterlimit:4;stroke-dasharray:none;stroke-opacity:1;filter:url(#textureGrassBig)"
       id="use189" />
  </g>
  <g
     inkscape:groupmode="layer"
     id="grass_texture2_layer"
     inkscape:label="Grass Texture Small"
     style="display:inline"
     sodipodi:insensitive="true">
    <use
       xlink:href="#grass"
       height="100%"
       width="100%"
       x="0"
       y="0"
       style="display:inline;fill:#8cdd3d;fill-opacity:1;stroke:none;stroke-width:1;stroke-miterlimit:4;stroke-dasharray:none;stroke-opacity:1;filter:url(#textureGrassSmall)"
       id="use192" />
  </g>
  <g
     inkscape:groupmode="layer"
     id="grass_master_layer"
     inkscape:label="Grass Master"
     style="display:none"
     sodipodi:insensitive="true">
    <path
       id="grass"
       style="color:#000000;clip-rule:nonzero;display:inline;overflow:visible;visibility:visible;opacity:1;isolation:auto;mix-blend-mode:normal;color-interpolation:sRGB;color-interpolation-filters:linearRGB;solid-color:#000000;solid-opacity:1;fill-opacity:1;fill-rule:evenodd;filter:url(#blurGrass);color-rendering:auto;image-rendering:auto;shape-rendering:auto;text-rendering:auto;enable-background:accumulate"
       d="m 168.75,-11.25 0,22.5 c 0,0 4.29562,8.382755 3.625,12.75 -0.84018,5.471422 -6.82055,8.841923 -9.125,13.875 -1.83939,4.017362 -3.01499,8.373876 -3.625,12.75 -0.65578,4.704514 -0.83112,9.573277 0,14.25 1.46002,8.215538 4.29383,16.367843 8.625,23.5 3.01585,4.966216 8.56733,8.014004 11.75,12.875 3.24901,4.96231 1.39816,15.28223 7.25,16.25 4.59605,0.76009 5.80382,-7.41458 9.5,-10.25 3.40129,-2.6092 7.50099,-4.16458 11.375,-6 3.67859,-1.742827 7.29473,-3.788079 11.25,-4.75 3.65479,-0.888846 11.25,-0.875 11.25,-0.875 l 5.625,5.625 11.25,0 11.25,0 0,-112.5 z M 38.25,118.125 c -2.487444,-2.59843 -7.314028,-4.95329 -10.25,-2.875 -4.314028,3.05378 -16.75,8.5 -16.75,8.5 l -22.5,0 0,225 157.5,0 0,-22.5 c 0,0 5.32779,-7.06792 5.625,-11.25 0.42032,-5.91435 -4.67524,-11.02229 -5.625,-16.875 -0.90103,-5.55237 -1.99272,-11.6148 0,-16.875 1.53719,-4.05773 6.75614,-5.83394 8.625,-9.75 2.60213,-5.45258 3.1918,-11.83638 3,-17.875 -0.2323,-7.31365 -0.66052,-15.48328 -5,-21.375 -3.12335,-4.24058 -9.34083,-11.06329 -13.625,-8 -4.73943,3.38881 3.43391,11.29904 3.5,17.125 0.0452,3.97995 0.78486,9.03435 -2.125,11.75 -4.44376,4.14719 -12.06773,2.50561 -18.125,2 -9.27965,-0.77458 -18.73509,-3.10243 -26.875,-7.625 -4.873131,-2.70753 -9.476398,-6.48804 -12.375,-11.25 -3.02692,-4.97276 -1.592235,-11.83164 -4.5,-16.875 -2.648901,-4.59438 -8.886962,-6.50226 -11.25,-11.25 -2.15563,-4.33102 -2.014994,-9.5372 -2,-14.375 0.01435,-4.63154 1.665795,-9.13051 2,-13.75 0.405889,-5.61034 1.459109,-11.44254 0,-16.875 -1.423733,-5.30075 -5.27357,-9.63851 -8.25,-14.25 -2.056682,-3.18649 -4.017484,-6.496 -6.625,-9.25 -3.158595,-3.33604 -8.21488,-4.79367 -10.75,-8.625 -2.4603,-3.71825 -0.541879,-9.65431 -3.625,-12.875 z"
       inkscape:connector-curvature="0" />
  </g>
  <g
     inkscape:groupmode="layer"
     id="forest_shadow_layer"
     inkscape:label="Forest Shadow"
     style="display:inline"
     sodipodi:insensitive="true">
    <g
       style="filter:url(#blurForestShadow)"
       id="g197">
      <use
         xlink:href="#forest"
         height="100%"
         width="100%"
         x="0"
         y="0"
         style="display:inline;opacity:0.75;fill:#258c1b;fill-opacity:1;filter:url(#roughenForest)"
         id="use199" />
    </g>
  </g>
  <g
     inkscape:groupmode="layer"
     id="forest_fill_layer"
     inkscape:label="Forest Fill"
     style="display:inline"
     sodipodi:insensitive="true">
    <use
       xlink:href="#forest"
       height="100%"
       width="100%"
       x="0"
       y="0"
       style="fill:#83d700;fill-opacity:1;stroke:none;stroke-width:1.5;stroke-miterlimit:4;stroke-dasharray:none;stroke-opacity:1;filter:url(#roughenForest)"
       id="use202" />
  </g>
  <g
     inkscape:groupmode="layer"
     id="forest_texture_big_layer"
     inkscape:label="Forest Texture Big"
     style="display:inline"
     sodipodi:insensitive="true">
    <g
       style="filter:url(#textureForestBig)"
       id="g205">
      <use
         xlink:href="#forest"
         height="100%"
         width="100%"
         x="0"
         y="0"
         style="fill:#548c00;fill-opacity:1;stroke:none;stroke-width:1.5;stroke-miterlimit:4;stroke-dasharray:none;stroke-opacity:1;filter:url(#roughenForest)"
         id="use207" />
    </g>
  </g>
  <g
     inkscape:groupmode="layer"
     id="forest_texture_small_layer"
     inkscape:label="Forest Texture Small"
     style="display:inline"
     sodipodi:insensitive="true">
    <g
       style="filter:url(#textureForestSmall)"
       id="g210">
      <use
         xlink:href="#forest"
         height="100%"
         width="100%"
         x="0"
         y="0"
         style="fill:#78c125;fill-opacity:1;stroke:none;stroke-width:1;stroke-miterlimit:4;stroke-dasharray:none;stroke-opacity:1;filter:url(#roughenForest)"
         id="use212" />
    </g>
  </g>
  <g
     inkscape:groupmode="layer"
     id="forest_outline_layer"
     inkscape:label="Forest Outline"
     style="display:inline"
     sodipodi:insensitive="true">
    <use
       xlink:href="#forest"
       height="100%"
       width="100%"
       x="0"
       y="0"
       style="fill:none;fill-opacity:1;stroke:#006800;stroke-width:1.5;stroke-miterlimit:4;stroke-dasharray:none;stroke-opacity:1;filter:url(#roughenForest)"
       id="use215" />
  </g>
  <g
     inkscape:groupmode="layer"
     id="forest_master_layer"
     inkscape:label="Forest Master"
     style="display:none"
     sodipodi:insensitive="true">
    <path
       id="forest"
       style="color:#000000;clip-rule:nonzero;display:inline;overflow:visible;visibility:visible;opacity:1;isolation:auto;mix-blend-mode:normal;color-interpolation:sRGB;color-interpolation-filters:linearRGB;solid-color:#000000;solid-opacity:1;fill-opacity:1;fill-rule:nonzero;color-rendering:auto;image-rendering:auto;shape-rendering:auto;text-rendering:auto;enable-background:accumulate"
       d="m 213,-6.75 c -3.21335,0.00418 -6.01126,2.2737511 -6.78516,5.5039062 -0.1522,0.1813117 -0.2956,0.37034704 -0.42968,0.5664063 C 204.61255,-3.1683 202.17366,-4.7477473 199.5,-4.75 c -1.78438,0.00129 -3.50092,0.7083077 -4.79883,1.9765625 C 194.14522,-2.9208976 193.57388,-2.9969895 193,-3 c -3.86599,0 -7,3.24593557 -7,7.25 0.001,1.427779 0.40969,2.8233642 1.17383,4.0117188 C 183.44015,8.4421011 180.50198,11.628769 180.5,15.5 c 0,4.004064 3.13401,7.25 7,7.25 1.73111,-0.0031 3.39972,-0.670364 4.68359,-1.873047 C 192.06353,21.409074 192.00194,21.953547 192,22.5 c 0,4.004064 3.13401,7.25 7,7.25 3.75849,-0.0048 6.84255,-3.08278 6.98633,-6.972656 0.73428,-0.436112 1.38611,-1.006542 1.92383,-1.683594 0.74229,-0.159164 1.45469,-0.442146 2.10937,-0.837891 1.26715,2.16691 3.53447,3.491613 5.98047,3.494141 1.62931,-0.002 3.20692,-0.592542 4.46094,-1.669922 1.03343,2.810747 3.63513,4.66877 6.53906,4.669922 0.51277,-0.0032 1.02365,-0.06479 1.52344,-0.183594 0.17642,2.296146 1.39582,4.368843 3.28515,5.583985 C 230.64761,33.479775 230.00329,35.207482 230,37 c 0.001,2.151688 0.92482,4.191733 2.52148,5.568359 -0.0113,0.143627 -0.0185,0.287572 -0.0215,0.431641 3.4e-4,1.157417 0.26822,2.297931 0.78125,3.326172 C 232.44894,47.547378 232.00143,49.005191 232,50.5 c 0.003,0.333404 0.0274,0.666225 0.0742,0.996094 C 231.11772,51.008149 230.06623,50.752959 229,50.75 c -1.98527,0.0031 -3.87588,0.879226 -5.20117,2.410156 C 223.0601,52.891231 222.28303,52.752588 221.5,52.75 c -3.86599,0 -7,3.245936 -7,7.25 0.003,1.471787 0.43818,2.907811 1.24805,4.117188 C 215.58597,64.730802 215.50257,65.363843 215.5,66 c 0,4.004064 3.13401,7.25 7,7.25 0.24216,-0.0026 0.48402,-0.01828 0.72461,-0.04687 1.17745,2.476221 3.61035,4.045148 6.27539,4.04687 1.29108,-0.002 2.55647,-0.373777 3.65625,-1.074219 1.23524,1.01678 2.76591,1.571513 4.34375,1.574219 1.52263,-0.0022 3.00305,-0.518521 4.2168,-1.470703 1.29485,1.262291 3.005,1.966881 4.7832,1.970703 3.86599,0 7,-3.245936 7,-7.25 -4.5e-4,-1.897576 -0.7192,-3.719336 -2.00195,-5.074219 -0.0224,-1.968876 -0.81698,-3.843644 -2.20117,-5.193359 0.70441,-0.848065 1.20978,-1.85346 1.47656,-2.9375 C 252.19163,56.425501 252.99788,54.508184 253,52.5 c -0.003,-1.268156 -0.32674,-2.513368 -0.93945,-3.611328 0.93055,-1.260348 1.43622,-2.802058 1.43945,-4.388672 -0.003,-2.298531 -1.05801,-4.459467 -2.84375,-5.824219 2.07536,-1.31659 3.34152,-3.655129 3.34375,-6.175781 -0.004,-3.343053 -2.21456,-6.249851 -5.35156,-7.037109 0.55837,-1.06263 0.85112,-2.253087 0.85156,-3.462891 -0.002,-0.455012 -0.045,-0.908837 -0.12891,-1.355469 C 250.42243,19.341681 250.99891,17.69797 251,16 c -0.002,-2.340042 -1.09456,-4.535164 -2.93359,-5.894531 C 248.67612,9.0086453 248.99799,7.7656197 249,6.5 c 0,-4.0040644 -3.13401,-7.25 -7,-7.25 -1.86685,0.001893 -3.65562,0.77604424 -4.96875,2.1503906 C 235.99272,-1.3999114 233.39633,-3.2485949 230.5,-3.25 c -3.11221,0.00258 -5.84904,2.1329857 -6.7168,5.2285156 -0.42502,0.1118979 -0.83895,0.2649143 -1.23632,0.4570313 C 222.03952,2.3143041 221.52068,2.2520701 221,2.25 c -0.41731,0.00122 -0.83368,0.041096 -1.24414,0.1191406 C 219.91548,1.7597627 219.99755,1.1313995 220,0.5 c 0,-4.0040644 -3.13401,-7.25 -7,-7.25 z m -7.78516,13.4296875 c 0.0272,0.059638 0.0552,0.1188881 0.084,0.1777344 -0.087,0.018475 -0.17356,0.038661 -0.25977,0.060547 0.0602,-0.078163 0.11878,-0.1576075 0.17578,-0.2382813 z M 184.5,32.75 c -1.74726,0.0026 -3.43043,0.681823 -4.71875,1.904297 C 179.04776,34.389365 178.27681,34.252733 177.5,34.25 c -3.86599,0 -7,3.245936 -7,7.25 0.003,0.724819 0.11101,1.445067 0.32031,2.136719 C 169.65202,44.967786 169.00323,46.701152 169,48.5 c 0.001,0.635978 0.0834,1.269015 0.24414,1.882812 -2.02019,1.33036 -3.24386,3.637724 -3.24414,6.117188 1.8e-4,2.404911 1.15177,4.653217 3.07422,6.001953 -0.0469,0.330514 -0.0717,0.663991 -0.0742,0.998047 0.001,0.635978 0.0834,1.269015 0.24414,1.882812 -2.02019,1.33036 -3.24386,3.637724 -3.24414,6.117188 0.004,3.61455 2.57856,6.673668 6.03516,7.171875 0.25686,2.827169 2.08368,5.23876 4.67382,6.169922 C 176.24548,85.825595 176.00309,86.90533 176,88 c 0.004,3.048655 1.84944,5.768877 4.61719,6.806641 0.60888,3.441799 3.50437,5.942079 6.88281,5.943359 3.25948,-0.003 6.08584,-2.335004 6.81641,-5.625 0.90052,3.04235 3.61122,5.12092 6.68359,5.125 3.86599,0 7,-3.245936 7,-7.25 -0.003,-2.498807 -1.24794,-4.819968 -3.29492,-6.142578 1.45889,-1.371693 2.29205,-3.31668 2.29492,-5.357422 -0.003,-3.105416 -1.91578,-5.863807 -4.75586,-6.859375 0.81703,-1.215007 1.2553,-2.659978 1.25586,-4.140625 0,-4.004064 -3.13401,-7.25 -7,-7.25 -0.72018,0.0028 -1.43563,0.120756 -2.12109,0.349609 2.5057,-1.170944 4.11773,-3.752483 4.12109,-6.599609 0,-4.004064 -3.13401,-7.25 -7,-7.25 -0.683,0.0018 -1.36206,0.107046 -2.01562,0.3125 -0.0835,-1.398209 -0.55635,-2.741416 -1.36133,-3.867188 C 190.21687,44.883516 191.49728,42.534489 191.5,40 c 0,-4.004064 -3.13401,-7.25 -7,-7.25 z m 49.49609,30.318359 c 0.25643,0.267984 0.53266,0.514828 0.82618,0.738282 -0.33876,0.145706 -0.66594,0.318765 -0.97852,0.517578 -0.21998,-0.18017 -0.45021,-0.346486 -0.68945,-0.498047 0.29961,-0.229013 0.5811,-0.482421 0.84179,-0.757813 z m -40.375,0.832032 c -1.62763,0.760285 -2.91323,2.136014 -3.59375,3.845703 -0.3927,-0.237072 -0.80676,-0.433966 -1.23632,-0.587891 C 189.25452,66.174405 189.49691,65.09467 189.5,64 c -5.8e-4,-0.01888 -0.001,-0.03776 -0.002,-0.05664 0.64945,0.202108 1.32382,0.305401 2.00195,0.306641 0.72018,-0.0028 1.43563,-0.120756 2.12109,-0.349609 z m -13.66601,6.845703 c 0.084,0.03359 0.16868,0.06549 0.2539,0.0957 l -0.0117,0.02344 c -0.0773,-0.01372 -0.15476,-0.02609 -0.23243,-0.03711 -0.003,-0.02736 -0.007,-0.05471 -0.01,-0.08203 z m 13.01758,6.007812 c 0.40697,0.246042 0.83688,0.448894 1.2832,0.605469 -0.70825,1.056782 -1.13226,2.289713 -1.22852,3.572266 C 192.52621,80.813198 192.01401,80.752284 191.5,80.75 c -1.53838,0.0016 -3.0334,0.528131 -4.25391,1.498047 -0.59156,-0.468692 -1.25155,-0.8366 -1.95507,-1.089844 l 0.01,-0.02344 c 0.39572,0.07401 0.79687,0.112564 1.19898,0.115237 2.83807,-0.0011 5.39462,-1.776975 6.47266,-4.496094 z M 22.5,149.25 c -2.838533,0.001 -5.395208,1.77817 -6.472656,4.49805 C 15.22184,153.42174 14.364922,153.25287 13.5,153.25 c -1.035327,0.002 -2.057269,0.24245 -2.992188,0.70312 C 9.2458697,152.85309 7.6494105,152.24992 6,152.25 4.6028307,152.25236 3.2383089,152.6877 2.0820312,153.5 1.1234706,153.0095 0.06916415,152.75294 -1,152.75 c -3.8659932,0 -7,3.24594 -7,7.25 0.00233,2.59444 1.3430355,4.98982 3.515625,6.28125 C -4.8234042,167.14474 -4.9984756,168.06785 -5,169 c 0.00339,1.48904 0.4493743,2.94088 1.2773438,4.1582 C -5.1711665,174.52946 -5.9974004,176.4675 -6,178.5 c 0.0011,2.6843 1.4341007,5.14828 3.7246094,6.4043 l -0.00195,0.002 C -3.0738336,186.1121 -3.5000056,187.53901 -3.5,189 c 5.1e-4,1.62608 0.5288065,3.20478 1.5,4.48242 l 0,0.0176 c 0.00219,0.60838 0.078312,1.21405 0.2265625,1.80273 C -5.3152286,195.71054 -7.9959008,198.80912 -8,202.5 c 0.00116,2.93887 1.7151931,5.58628 4.3398438,6.70312 0.9247805,3.0029 3.61689443,5.04291 6.6601562,5.04688 0.6768265,-0.002 1.349847,-0.10492 1.9980469,-0.30664 0.6494539,0.20211 1.3238173,0.3054 2.0019531,0.30664 1.7627886,-0.002 3.459781,-0.69368 4.751953,-1.93555 1.291183,1.24093 2.986608,1.93207 4.748047,1.93555 0.593974,-0.002 1.185314,-0.0819 1.759766,-0.23828 0.568127,0.15474 1.1528,0.2348 1.740234,0.23828 3.865993,0 7,-3.24594 7,-7.25 0,-4.00406 -3.134007,-7.25 -7,-7.25 -0.340062,0.002 -0.679503,0.0305 -1.015625,0.084 0.0077,-0.11119 0.0129,-0.22256 0.01563,-0.334 -0.0013,-1.86419 -0.695869,-3.65622 -1.939453,-5.00391 C 18.302331,193.15036 18.996762,191.36148 19,189.5 c -0.0032,-1.03496 -0.220299,-2.05723 -0.636719,-2.99805 C 18.780226,185.55993 18.997344,184.53628 19,183.5 c -4.85e-4,-1.40677 -0.39612,-2.78301 -1.138672,-3.96094 0.536275,0.13703 1.086326,0.20783 1.638672,0.21094 3.33894,2e-5 6.213095,-2.44239 6.865234,-5.83398 1.322799,1.48506 3.18394,2.33103 5.134766,2.33398 3.865993,0 7,-3.24594 7,-7.25 -0.0026,-1.24219 -0.313313,-2.46286 -0.902344,-3.54492 1.218856,-1.34142 1.899021,-3.11306 1.902344,-4.95508 0,-4.00406 -3.134007,-7.25 -7,-7.25 -1.183934,0.003 -2.347827,0.31667 -3.382812,0.91211 C 28.152111,151.22801 25.492793,149.25393 22.5,149.25 Z m -7.5,76 c -1.316642,0.001 -2.606239,0.38716 -3.720703,1.11328 -0.457306,0.0833 -0.905477,0.21348 -1.3378908,0.38867 -1.1358631,0.0115 -2.2519599,0.30913 -3.2519531,0.86719 C 5.9949394,227.38101 5.2686755,227.25711 4.5371094,227.25195 3.4649847,226.59836 2.2440532,226.25251 1,226.25 c -3.8659932,0 -7,3.24594 -7,7.25 2.998e-4,1.37273 0.3768783,2.71717 1.0859375,3.87695 C -6.5490743,238.7528 -7.4988814,240.81813 -7.5,243 c 0.00233,0.9622 0.1895592,1.91429 0.5507812,2.80078 0.2807466,2.62282 1.9152942,4.88052 4.2675782,5.89453 -1.7708369,1.3662 -2.8154576,3.5177 -2.8183594,5.80469 0.00323,2.02786 0.8263271,3.96164 2.2695312,5.33203 -2.5856956,1.13448 -4.2665357,3.75954 -4.2695312,6.66797 0.00371,2.2557 1.0209266,4.3811 2.7519531,5.75 -0.491601,1.0079 -0.7490925,2.1208 -0.7519531,3.25 0.0029,2.25396 1.0177961,4.37832 2.7460938,5.74805 C -4.4832534,285.61862 -5.4982714,287.74467 -5.5,290 c 0.00183,1.66182 0.5548319,3.27255 1.5664062,4.5625 -0.041693,0.31068 -0.063875,0.62384 -0.066406,0.9375 0.00335,1.77988 0.638752,3.4963 1.7851562,4.82227 -0.8344426,1.22182 -1.2833638,2.68115 -1.2851562,4.17773 0.00195,0.94005 0.1803902,1.87074 0.5253906,2.74023 -0.096166,0.16293 -0.1860802,0.32972 -0.2695312,0.5 C -4.9792687,309.11038 -5.9982964,311.24016 -6,313.5 c 0.00296,2.5687 1.3180373,4.94402 3.4570312,6.24414 C -5.2308849,320.82965 -7.0004709,323.51194 -7,326.5 c 0.00318,2.02984 0.8278222,3.96534 2.2734375,5.33594 C -5.5542534,333.05537 -5.9989188,334.5094 -6,336 c 0,4.00406 3.1340068,7.25 7,7.25 1.1581807,-0.002 2.2976947,-0.30236 3.3164062,-0.87305 C 5.600279,343.57963 7.2688917,344.24694 9,344.25 c 0.647333,-3.4e-4 1.291492,-0.0937 1.914062,-0.27734 1.272213,1.14492 2.900552,1.77601 4.585938,1.77734 2.044184,-0.001 3.985624,-0.92828 5.314453,-2.53711 1.31158,1.90254 3.428436,3.03332 5.685547,3.03711 3.865993,0 7,-3.24594 7,-7.25 -0.0016,-0.93005 -0.176024,-1.85109 -0.513672,-2.71289 0.0064,-0.0956 0.01095,-0.19132 0.01367,-0.28711 -0.0023,-1.84146 -0.681006,-3.61303 -1.898438,-4.95508 C 31.68923,329.96247 31.998594,328.74183 32,327.5 c -0.0019,-0.94005 -0.18039,-1.87074 -0.525391,-2.74023 C 32.142143,323.6273 32.496819,322.32683 32.5,321 c -0.0013,-0.0977 -0.0046,-0.19539 -0.0098,-0.29297 0.0042,-0.069 0.0075,-0.13798 0.0098,-0.20703 -0.0032,-2.02984 -0.827822,-3.96534 -2.273438,-5.33594 C 31.054253,313.94463 31.498919,312.4906 31.5,311 c 0,-4.00406 -3.134007,-7.25 -7,-7.25 -0.376928,0.001 -0.753151,0.0338 -1.125,0.0977 0.08216,-0.44421 0.124013,-0.89541 0.125,-1.3477 -0.0014,-2.17881 -0.948794,-4.24145 -2.580078,-5.61719 C 21.301653,295.97309 21.499084,294.99192 21.5,294 c -0.0031,-2.24739 -1.012415,-4.3662 -2.732422,-5.73633 1.114408,-1.31883 1.729845,-3.0111 1.732422,-4.76367 -0.0023,-0.59422 -0.0751,-1.1859 -0.216797,-1.76172 0.0722,0.005 0.144477,0.009 0.216797,0.0117 3.865993,0 7,-3.24594 7,-7.25 -0.0029,-1.80964 -0.659209,-3.55272 -1.839844,-4.88672 0.441336,0.0901 0.890025,0.13584 1.339844,0.13672 1.32809,-2.4e-4 2.62871,-0.39178 3.75,-1.12891 1.305186,1.95659 3.453859,3.1258 5.75,3.12891 2.447513,-0.004 4.715174,-1.33204 5.980469,-3.50195 L 42.5,268.25 c 3.408983,-0.004 6.319518,-2.55076 6.892578,-6.03125 0.201941,0.0195 0.404607,0.0299 0.607422,0.0312 3.865993,0 7,-3.24594 7,-7.25 -0.0013,-3.20588 -2.035396,-6.03024 -5.001953,-6.94531 7.17e-4,-0.0182 0.0014,-0.0365 0.002,-0.0547 -0.0038,-3.80338 -2.844672,-6.95719 -6.507812,-7.22461 C 45.375087,236.86244 42.27983,233.75249 38.5,233.75 c -0.896426,0.001 -1.784254,0.18106 -2.615234,0.5293 C 35.959657,233.85724 35.99822,233.42913 36,233 c 0,-4.00406 -3.134007,-7.25 -7,-7.25 -2.074388,7.1e-4 -4.041632,0.95429 -5.371094,2.60352 -0.360809,-0.0634 -0.725861,-0.0973 -1.091797,-0.10157 -0.814794,-0.49405 -1.717668,-0.81228 -2.654297,-0.93554 C 18.577625,225.99454 16.825493,225.25303 15,225.25 Z m 20.539062,22.31055 c 0.776706,0.37608 1.613512,0.60117 2.46875,0.66406 0.0259,0.85736 0.1985,1.70316 0.509766,2.49805 -1.073925,0.42422 -2.030469,1.1158 -2.785156,2.01367 -0.969069,-0.76299 -2.113493,-1.25105 -3.320313,-1.41602 1.43687,-0.83329 2.544085,-2.16457 3.126953,-3.75976 z m -18.164062,1.91797 0.0078,0.004 C 16.804957,250.55837 16.501144,251.76889 16.5,253 c 0.0021,0.35116 0.0289,0.70169 0.08008,1.04883 -0.251109,-0.7259 -0.61242,-1.40567 -1.070312,-2.01367 0.79808,-0.69745 1.43539,-1.571 1.865232,-2.55664 z m 4.154297,17.54101 c 0.09951,0.12597 0.203081,0.24844 0.310547,0.36719 -0.210007,-0.0432 -0.421818,-0.0765 -0.634766,-0.0996 0.1106,-0.0859 0.21872,-0.17509 0.324219,-0.26759 z m -5.537109,1.64453 c 0.100555,0.0186 0.201491,0.0348 0.302734,0.0488 -0.108569,0.0847 -0.214734,0.1726 -0.31836,0.26367 0.0074,-0.10404 0.01259,-0.20823 0.01563,-0.3125 z M 67.5,269.25 c -3.865993,0 -7,3.24594 -7,7.25 0,4.00406 3.134007,7.25 7,7.25 1.702375,-0.003 3.345232,-0.6491 4.621094,-1.81641 0.641023,1.02721 1.522538,1.86975 2.5625,2.44922 C 74.563956,284.91302 74.50237,285.45551 74.5,286 c 0.0019,0.85548 0.150064,1.70385 0.4375,2.50586 C 73.776356,287.68762 72.40442,287.25004 71,287.25 c -0.863016,2.6e-4 -1.718545,0.1658 -2.523438,0.48828 C 67.208748,285.57485 64.943473,284.2527 62.5,284.25 c -3.06241,1.9e-4 -5.769186,2.06212 -6.681641,5.08984 -0.860909,0.55213 -1.595912,1.29113 -2.154297,2.16602 -3.047625,0.8579 -5.163166,3.72316 -5.164062,6.99414 4.18e-4,0.18381 0.0076,0.36754 0.02148,0.55078 C 45.545851,299.95889 43.502207,302.78709 43.5,306 c 0.0029,1.47179 0.438179,2.90781 1.248047,4.11719 C 44.585966,310.7308 44.502568,311.36384 44.5,312 c 0.0025,2.20029 0.969585,4.28035 2.628906,5.6543 -2.235661,1.27238 -3.626021,3.70364 -3.628906,6.3457 4.74e-4,1.13152 0.256656,2.24721 0.748047,3.25781 -0.489107,1.00588 -0.745226,2.11595 -0.748047,3.24219 0.0018,1.66182 0.554832,3.27255 1.566406,4.5625 -0.04169,0.31068 -0.06388,0.62384 -0.06641,0.9375 0,4.00406 3.134007,7.25 7,7.25 0.425968,-0.002 0.850908,-0.0434 1.269531,-0.125 1.116079,0.73208 2.409395,1.1221 3.730469,1.125 2.566058,-5.9e-4 4.926123,-1.4553 6.150391,-3.79102 0.668175,3.36855 3.529289,5.78749 6.849609,5.79102 3.865993,0 7,-3.24594 7,-7.25 -9.6e-4,-0.43767 -0.04018,-0.87435 -0.117188,-1.30469 C 78.236538,336.33041 79.0001,334.45672 79,332.5 c -0.0033,-1.99797 -0.802534,-3.90597 -2.208984,-5.27344 C 76.92735,326.66182 76.997517,326.08212 77,325.5 c -0.0032,-1.25074 -0.318765,-2.47934 -0.916016,-3.56641 0.27213,-0.78056 0.412846,-1.60371 0.416016,-2.43359 -0.0033,-3.94252 -3.047778,-7.15969 -6.853516,-7.24219 C 69.878928,311.52932 69.998252,310.76724 70,310 c 0,-4.00406 -3.134007,-7.25 -7,-7.25 -0.707711,0.002 -1.41102,0.11539 -2.085938,0.33594 0.150204,-0.18975 0.29101,-0.38727 0.421876,-0.5918 1.796931,-0.50787 3.324333,-1.73653 4.24414,-3.41406 1.327943,1.68768 3.317865,2.66794 5.419922,2.66992 3.865993,0 7,-3.24594 7,-7.25 -0.0019,-0.85548 -0.150064,-1.70385 -0.4375,-2.50586 1.161144,0.81824 2.53308,1.25582 3.9375,1.25586 2.336603,-0.001 4.518435,-1.21034 5.816406,-3.22266 0.550401,0.14467 1.115754,0.21944 1.683594,0.22266 3.865993,0 7,-3.24594 7,-7.25 -0.002,-1.33575 -0.360198,-2.64498 -1.035156,-3.7832 0.02314,-0.23819 0.03487,-0.47741 0.03516,-0.7168 0,-4.00406 -3.134007,-7.25 -7,-7.25 -1.769976,0.002 -3.473474,0.69857 -4.767578,1.94922 C 81.906707,271.6454 80.002059,270.75386 78,270.75 c -1.702375,0.003 -3.345232,0.6491 -4.621094,1.81641 C 72.089729,270.49918 69.876082,269.25042 67.5,269.25 Z m 57.5,16.5 c -3.80193,0.003 -6.90616,3.14923 -6.99219,7.08594 -0.3335,-0.0538 -0.67031,-0.0825 -1.00781,-0.0859 -3.86599,0 -7,3.24594 -7,7.25 0.003,1.75122 0.61886,3.44196 1.73242,4.75977 -2.9668,0.11662 -5.53985,2.15893 -6.41992,5.0957 l -0.002,0 c -1.91218,0.34405 -3.60061,1.4949 -4.66211,3.17773 -0.975942,-0.51232 -2.05425,-0.78057 -3.14839,-0.7832 -3.865993,0 -7,3.24594 -7,7.25 0.0022,1.3234 0.354114,2.62093 1.017578,3.75195 C 90.854775,324.38184 90.502893,325.67793 90.5,327 c 0.0026,1.22249 0.303566,2.42446 0.875,3.49414 -0.573284,1.07315 -0.874341,2.2794 -0.875,3.50586 0,4.00406 3.134007,7.25 7,7.25 2.074386,-7.1e-4 4.04163,-0.95429 5.37109,-2.60352 0.37298,0.0661 0.75052,0.10067 1.12891,0.10352 1.64787,-0.002 3.24208,-0.60693 4.50195,-1.70703 0.0228,3.98649 3.14896,7.20599 6.99805,7.20703 0.64733,-3.4e-4 1.29149,-0.0937 1.91406,-0.27734 1.27221,1.14492 2.90055,1.77601 4.58594,1.77734 3.86599,0 7,-3.24594 7,-7.25 -9.9e-4,-0.63458 -0.0824,-1.26628 -0.24219,-1.87891 0.80852,-1.21117 1.2418,-2.64862 1.24219,-4.12109 -0.003,-2.83627 -1.60245,-5.41033 -4.09375,-6.58789 0.39024,-0.91773 0.59241,-1.90932 0.59375,-2.91211 -2.5e-4,-1.89085 -0.71372,-3.70678 -1.98828,-5.06055 2.95914,-0.91959 4.98628,-3.73964 4.98828,-6.93945 -9.9e-4,-0.63458 -0.0824,-1.26628 -0.24219,-1.87891 0.80852,-1.21117 1.2418,-2.64862 1.24219,-4.12109 -0.001,-2.10862 -0.88906,-4.11215 -2.43164,-5.48828 2.40411,-1.21432 3.92992,-3.74143 3.93164,-6.51172 0,-4.00406 -3.13401,-7.25 -7,-7.25 z m -67.414062,19.66406 c -0.03438,0.0451 -0.06823,0.0907 -0.101563,0.13672 -0.0017,-0.0339 -0.0037,-0.0677 -0.0059,-0.10156 0.0359,-0.0114 0.07171,-0.0232 0.107422,-0.0352 z m 2.902343,11.34375 c 0.05507,0.0222 0.110417,0.0437 0.166016,0.0645 -0.02567,0.033 -0.05106,0.0662 -0.07617,0.0996 -0.02926,-0.0551 -0.05921,-0.10979 -0.08984,-0.16407 z M 7.0546875,317.125 c 0.234479,0.2407 0.4851046,0.46391 0.75,0.66797 -0.4719271,0.0486 -0.9378624,0.14678 -1.390625,0.29297 0.2381416,-0.30195 0.452378,-0.62331 0.640625,-0.96094 z m 106.5898425,1.91406 c -0.73661,1.16579 -1.13329,2.52672 -1.14258,3.91992 -0.44748,-0.22004 -0.91625,-0.39026 -1.39843,-0.50781 0.97667,-0.88128 1.69809,-2.02595 2.08398,-3.30664 l 0.002,0 c 0.15278,-0.0299 0.30456,-0.0651 0.45508,-0.10547 z m -9.94531,4.60156 c 0.38642,0.17308 0.78713,0.30971 1.19726,0.40821 -0.0878,0.0759 -0.17373,0.15408 -0.25781,0.23437 -0.21229,-0.0211 -0.4254,-0.0322 -0.63867,-0.0332 l -0.0293,0.002 c -0.0813,-0.20802 -0.1719,-0.41201 -0.27148,-0.61133 z m 12.79883,5.9004 c 0.0318,0.0159 0.0637,0.0315 0.0957,0.0469 -0.0333,0.0814 -0.0653,0.16346 -0.0957,0.24609 l -0.0137,-0.002 c 0.006,-0.0969 0.011,-0.19392 0.0137,-0.29101 z m -51.414066,4.03515 c 0.0099,0.0763 0.02096,0.15253 0.0332,0.22852 -0.504488,0.50941 -0.93183,1.09478 -1.267579,1.73633 -0.01732,-0.0876 -0.0362,-0.17485 -0.05664,-0.26172 0.510227,-0.49758 0.945418,-1.07169 1.291019,-1.70313 z"
       inkscape:connector-curvature="0" />
  </g>
  <g
     inkscape:groupmode="layer"
     id="routes_layer"
     inkscape:label="Routes"
     style="display:inline"
     sodipodi:insensitive="true">
    <path
       style="display:inline;fill:none;stroke:#000000;stroke-width:2;stroke-linecap:round;stroke-miterlimit:4;stroke-dasharray:0.1, 5;stroke-dashoffset:0;stroke-opacity:1"
       d="m 84.375,0 0,11.25 c 0,3.75 -1.558103,10.054758 -1.76777,13.194544 -0.730505,10.939415 -3.547481,54.842495 2.04962,67.873475 18.56561,43.223821 35.6334,42.950761 60.09315,54.306981 14.15683,6.57276 35.31502,31.79811 42.66789,46.16421 9.08456,17.74949 31.20125,26.58579 43.20711,26.58579 l 16.875,0 M 84.375,337.5 l 0,-11.25 c 0,-15.12069 5.34017,-27.85745 16.16979,-34.73528 14.65906,-9.30988 6.29676,-23.52971 -10.334994,-28.66411 C 70.329247,256.71327 66.458356,245.72153 51.902557,232.68576 44.581614,226.12933 34.167262,219.375 16.875,219.375 l -16.875,0"
       inkscape:connector-curvature="0"
       id="path220" />
  </g>
  <g
     inkscape:groupmode="layer"
     id="labels_layer"
     inkscape:label="Labels"
     style="display:inline"
     sodipodi:insensitive="true">
    <text
       xml:space="preserve"
       id="text223"><textPath
         xlink:href="#season_pass"
         id="textPath225"><tspan
   style="-inkscape-font-specification:'CCTreasureTroveAged Mod, Normal';font-family:'CCTreasureTroveAged Mod';font-weight:normal;font-style:normal;font-stretch:normal;font-variant:normal;font-size:8.75px;text-anchor:start;text-align:start;writing-mode:lr;line-height:125%"
   id="tspan227">Season Pass</tspan></textPath></text>
  </g>
  <g
     inkscape:groupmode="layer"
     id="labels_guide_layer"
     inkscape:label="Labels Guide"
     style="display:none"
     sodipodi:insensitive="true">
    <path
       id="season_pass"
       style="color:#000000;fill:none;stroke:#000000;stroke-width:1;stroke-opacity:1"
       d="M 162.5,169.125 C 143.5,143.875 118.875,149.5 95.375,123"
       inkscape:connector-curvature="0" />
  </g>
  <g
     inkscape:groupmode="layer"
     id="resources_layer"
     inkscape:label="Resources"
     style="display:inline">
    <g
       id="resource-turtle"
       transform="matrix(0.638828,-0.76934959,0.76934959,0.638828,201.26384,158.9361)">
      <path
         style="fill:#acf398;fill-opacity:1;fill-rule:evenodd;stroke:#000000;stroke-width:0.89999998;stroke-linecap:round;stroke-linejoin:miter;stroke-miterlimit:4;stroke-dasharray:none;stroke-opacity:1"
         d="m -13.200987,-100.29637 c 0.383554,0.976603 3.233916,-2.12106 6.131249,-1.42702 1.332863,0.31928 0.882122,-3.09205 -0.399356,-3.57815 -2.371651,-0.89961 -6.659154,2.64419 -5.731893,5.00517 z"
         inkscape:connector-curvature="0"
         id="path233" />
      <path
         style="fill:#acf398;fill-opacity:1;fill-rule:evenodd;stroke:#000000;stroke-width:0.89999998;stroke-linecap:round;stroke-linejoin:miter;stroke-miterlimit:4;stroke-dasharray:none;stroke-opacity:1"
         d="m 0.519205,-98.947277 c -1.160888,-0.35295 2.907731,-2.472353 3.949394,-1.850123 1.642844,0.981343 2.297204,4.963396 0.372373,6.157721 -0.745218,0.462395 -0.785725,-3.232509 -4.321767,-4.307598 z"
         inkscape:connector-curvature="0"
         id="path235" />
      <path
         style="fill:#acf398;fill-opacity:1;fill-rule:evenodd;stroke:#000000;stroke-width:0.89999998;stroke-linecap:round;stroke-linejoin:miter;stroke-miterlimit:4;stroke-dasharray:none;stroke-opacity:1"
         d="m 7.618715,-114.43269 c 1.934345,-0.44611 4.329746,-0.0993 5.914203,1.00302 2.013049,1.40054 2.917028,5.29708 1.897177,7.52728 -0.282844,0.61852 -3.514643,-5.32749 -6.150465,-4.42389 -1.839455,0.63059 -2.536626,0.15372 -3.169919,-1.68481 -0.27477,-0.79769 0.686895,-2.232 1.509004,-2.4216 z"
         inkscape:connector-curvature="0"
         id="path237" />
      <path
         style="fill:#acf398;fill-opacity:1;fill-rule:evenodd;stroke:#000000;stroke-width:0.89999998;stroke-linecap:round;stroke-linejoin:miter;stroke-miterlimit:4;stroke-dasharray:none;stroke-opacity:1"
         d="m -13.605402,-118.51893 c 1.434388,-2.65109 5.159923,-3.50053 7.13722,-3.29637 1.742717,0.17994 3.474416,1.88524 3.953288,3.57051 0.312727,1.10056 -0.218032,2.84568 -1.315095,3.17046 -1.558665,0.46144 -1.358953,-1.39147 -2.644475,-2.38636 -2.809563,-2.17437 -7.671044,-0.06 -7.130938,-1.05824 z"
         inkscape:connector-curvature="0"
         id="path239" />
      <path
         style="fill:#acf398;fill-opacity:1;fill-rule:evenodd;stroke:#000000;stroke-width:0.89999998;stroke-linecap:round;stroke-linejoin:miter;stroke-miterlimit:4;stroke-dasharray:none;stroke-opacity:1"
         d="m 1.574508,-116.64822 c -0.973346,-1.40454 -0.400278,-3.52894 -0.15625,-5.22027 0.277861,-1.92582 2.436935,-3.39132 3.77573,-3.50612 0.998071,-0.0856 1.511263,0.0552 2.026651,0.91421 0.545706,0.90951 1.17564,3.12771 0.125,4.74448 -0.918312,1.41314 -1.826689,3.21256 -3.442704,3.69086 -0.965518,0.28577 -1.75489,0.20445 -2.328427,-0.62316 z"
         inkscape:connector-curvature="0"
         id="path241" />
      <path
         style="fill:#acf398;fill-opacity:1;fill-rule:evenodd;stroke:#000000;stroke-width:0.89999998;stroke-linecap:round;stroke-linejoin:miter;stroke-miterlimit:4;stroke-dasharray:none;stroke-opacity:1"
         d="m -4.37156,-100.05265 c -1.568711,0.833903 -1.519982,4.156989 -0.84283,4.365801 0.803045,0.247633 2.774585,-2.210096 2.390927,-3.815868 -0.20218,-0.846213 -0.779871,-0.958313 -1.548097,-0.549933 z"
         inkscape:connector-curvature="0"
         id="path243" />
      <path
         style="fill:#acf398;fill-opacity:1;fill-rule:evenodd;stroke:#000000;stroke-width:0.89999998;stroke-linecap:round;stroke-linejoin:miter;stroke-miterlimit:4;stroke-dasharray:none;stroke-opacity:1"
         d="m -7.212243,-116.3836 c 1.293667,-1.65845 3.629584,-2.72772 5.073491,-2.91682 3.87448,-0.50741 7.329249,0.88026 10.076271,3.65928 1.485686,1.503 2.189594,3.9511 1.909189,6.04576 -0.610927,4.56371 -3.547497,9.21538 -7.477655,11.614241 -1.864758,1.138194 -4.454815,1.340084 -6.523059,0.636396 -2.202234,-0.749276 -4.339874,-2.571424 -5.09117,-4.772977 -1.613498,-4.72808 -1.039758,-10.32676 2.032933,-14.26588 z"
         inkscape:connector-curvature="0"
         id="path245" />
      <path
         style="color:#000000;clip-rule:nonzero;display:inline;overflow:visible;visibility:visible;opacity:1;isolation:auto;mix-blend-mode:normal;color-interpolation:sRGB;color-interpolation-filters:linearRGB;solid-color:#000000;solid-opacity:1;fill:none;fill-opacity:1;fill-rule:evenodd;stroke:#000000;stroke-width:0.63;stroke-linecap:butt;stroke-linejoin:miter;stroke-miterlimit:4;stroke-dasharray:none;stroke-dashoffset:0;stroke-opacity:1;color-rendering:auto;image-rendering:auto;shape-rendering:auto;text-rendering:auto;enable-background:accumulate"
         d="m -2.061438,-117.34644 -0.59283,-1.87446 m 9.785218,5.41 1.414213,-0.83969 m -3.270369,-3.0494 -0.883883,1.45841 m -3.005204,-2.91681 -0.322303,1.63785 m -4.980998,18.116938 -0.637024,1.851254 m 3.244481,-1.320924 0.145526,1.908392 m -5.139468,-3.85294 -1.276269,1.089694 m 0.0491,-3.679294 -1.793656,0.57452 m 1.06066,-3.30874 -1.531171,0.15311 m 1.679379,-3.00521 -1.861517,-0.2134 m 2.347653,-2.30567 -1.656171,-0.60309 m 2.761025,-2.09275 -1.312881,-0.89415 m 3.166356,-0.9571 -1.315562,-1.55438 m 7.32865,17.857125 0.826745,1.744559 m 1.382964,-3.026194 1.087008,1.317787 m 0.636565,-3.615877 1.440561,1.09413 m 0.238817,-3.48062 1.396368,0.61558 m -0.582567,-3.29357 1.567783,0.29327 m -1.419575,-3.1217 1.723572,-0.18483 m -10.817309,9.66873 0.486136,2.607453 m -4.02167,-3.756503 -1.59099,1.28163 m 5.833631,-13.21406 -0.309359,-2.38648 m 4.507806,3.7565 1.856155,-1.59099 m -10.69499,9.8553 -2.740039,-0.13258 m 3.447145,-3.88908 -3.18198,-1.23745 m 4.861359,-3.22617 -2.607456,-1.45841 m 6.452349,12.1534 2.209709,1.45841 m -0.04419,-5.03814 3.049398,1.19324 m -1.635185,-5.34749 2.872622,0.70711 m -9.766913,-0.83968 -0.486137,-2.78425 2.298097,-1.10485 4.021672,1.41421 0.839688,2.65165 -2.298097,1.19325 z m 4.507806,1.28162 0.928077,3.04939 -2.607455,1.28164 m -4.198448,-1.32583 -0.839689,-2.51907 2.298097,-1.76776 m -2.474873,7.95495 -0.574524,-2.34229 1.546796,-1.19324 4.154252,1.19324 0.530329,2.34229 -2.165513,1.19324 z m 3.310975,-14.48201 c -9.036509,1.02413 -9.686118,18.911215 0.316406,18.4082 7.293571,-1.28851 13.245425,-14.43065 4.082031,-17.65234 -1.373439,-0.61154 -2.89993,-0.86992 -4.398437,-0.75586 z"
         inkscape:connector-curvature="0"
         id="path247" />
      <ellipse
         cx="-83.675232"
         cy="-91.031174"
         rx="0.39348701"
         ry="0.53721499"
         style="fill:#000000;fill-opacity:1;stroke:none"
         transform="matrix(0.71262218,0.70154802,-0.70154802,0.71262218,0,0)"
         id="ellipse249" />
      <ellipse
         cx="0.87644202"
         cy="-122.84991"
         rx="0.39348701"
         ry="0.53721499"
         style="fill:#000000;fill-opacity:1;stroke:none"
         transform="matrix(0.99895236,0.04576232,-0.04576232,0.99895236,0,0)"
         id="ellipse251" />
    </g>
  </g>
  <g
     inkscape:groupmode="layer"
     id="extras_layer"
     inkscape:label="Extras"
     style="display:inline"
     sodipodi:insensitive="true">
    <g
       id="extra-ship"
       transform="matrix(0.4444171,-0.89581998,0.89581998,0.4444171,266.30938,417.60566)">
      <path
         style="color:#000000;fill:url(#gradientShip);fill-opacity:1;fill-rule:evenodd;stroke:#000000;stroke-width:0.75;stroke-linecap:butt;stroke-linejoin:round;stroke-miterlimit:4;stroke-dasharray:none;stroke-dashoffset:0;stroke-opacity:1;marker:none;enable-background:accumulate"
         d="m 243.2364,-52.722824 c -3.10208,-2.937202 -8.72518,-3.346714 -12.49116,-3.032742 -2.95307,0.246202 -6.62512,1.070872 -6.62512,1.070872 l -0.0121,3.725952 c 0,0 2.43298,0.582421 6.39007,0.932887 3.66202,0.324334 9.61676,-0.283241 12.73834,-2.696969 z"
         inkscape:connector-curvature="0"
         id="path255" />
      <path
         style="color:#000000;opacity:1;isolation:auto;mix-blend-mode:normal;color-interpolation:sRGB;color-interpolation-filters:linearRGB;solid-color:#000000;solid-opacity:1;fill:#000000;fill-opacity:1;fill-rule:evenodd;stroke:none;stroke-width:0.75;stroke-linecap:round;stroke-linejoin:round;stroke-miterlimit:4;stroke-dasharray:none;stroke-dashoffset:0;stroke-opacity:1;marker:none;color-rendering:auto;image-rendering:auto;shape-rendering:auto;text-rendering:auto;enable-background:accumulate"
         d="m 243.05273,-53.089844 c -0.50461,-0.01007 -0.51271,0.749303 -0.008,0.75 l 2.80546,-0.143551 c 0.50461,0.01007 0.51856,-0.385922 0.0138,-0.386619 z"
         inkscape:connector-curvature="0"
         id="path257" />
      <circle
         cx="37.651787"
         cy="-233.087830"
         r="0.695206"
         style="color:#000000;opacity:1;isolation:auto;mix-blend-mode:normal;color-interpolation:sRGB;color-interpolation-filters:linearRGB;solid-color:#000000;solid-opacity:1;fill:#a66e00;fill-opacity:1;fill-rule:nonzero;stroke:#000000;stroke-width:0.5;stroke-linecap:butt;stroke-linejoin:miter;stroke-miterlimit:4;stroke-dasharray:none;stroke-dashoffset:0;stroke-opacity:1;color-rendering:auto;image-rendering:auto;shape-rendering:auto;text-rendering:auto;enable-background:accumulate"
         transform="matrix(0.37654483,0.9263984,-0.9263984,0.37654483,0,0)"
         id="circle259" />
      <circle
         cx="39.995537"
         cy="-238.712830"
         r="0.695206"
         style="color:#000000;opacity:1;isolation:auto;mix-blend-mode:normal;color-interpolation:sRGB;color-interpolation-filters:linearRGB;solid-color:#000000;solid-opacity:1;fill:#a66e00;fill-opacity:1;fill-rule:nonzero;stroke:#000000;stroke-width:0.5;stroke-linecap:butt;stroke-linejoin:miter;stroke-miterlimit:4;stroke-dasharray:none;stroke-dashoffset:0;stroke-opacity:1;color-rendering:auto;image-rendering:auto;shape-rendering:auto;text-rendering:auto;enable-background:accumulate"
         transform="matrix(0.37654483,0.9263984,-0.9263984,0.37654483,0,0)"
         id="circle261" />
      <path
         style="color:#000000;fill:#feffff;fill-opacity:1;fill-rule:evenodd;stroke:#000000;stroke-width:0.5;stroke-linecap:butt;stroke-linejoin:round;stroke-miterlimit:4;stroke-dasharray:none;stroke-dashoffset:0;stroke-opacity:1;marker:none;enable-background:accumulate"
         d="m 230.8139,-58.168744 -0.0696,11.095953 c 0,0 1.11273,-0.901569 1.17305,-2.014949 0.0592,-1.093696 -0.80015,-1.762231 -0.80015,-1.762231 0,0 1.00218,-0.841738 0.9922,-1.921676 -0.0106,-1.140901 -0.9468,-1.722391 -0.9468,-1.722391 0,0 0.80027,-0.5343 0.83406,-1.646805 0.0349,-1.150244 -1.18274,-2.027894 -1.18274,-2.027894 z"
         inkscape:connector-curvature="0"
         id="path263" />
      <path
         style="color:#000000;fill:#feffff;fill-opacity:1;fill-rule:evenodd;stroke:#000000;stroke-width:0.5;stroke-linecap:butt;stroke-linejoin:round;stroke-miterlimit:4;stroke-dasharray:none;stroke-dashoffset:0;stroke-opacity:1;marker:none;enable-background:accumulate"
         d="m 236.95087,-57.97366 -0.0645,10.282469 c 0,0 1.03677,-0.785137 1.09267,-1.816887 0.0549,-1.013517 -0.74706,-1.683399 -0.74706,-1.683399 0,0 0.85887,-0.76153 0.84962,-1.762298 -0.01,-1.057255 -0.80754,-1.614603 -0.80754,-1.614603 0,0 0.84013,-0.540128 0.87144,-1.571079 0.0324,-1.065902 -1.19455,-1.834218 -1.19455,-1.834218 z"
         inkscape:connector-curvature="0"
         id="path265" />
      <path
         style="fill:#000000;stroke:none"
         d="m 239.16963,-53.312319 -0.0111,0.999645 1.00145,0.01039 0.009,-1.000718 z"
         inkscape:connector-curvature="0"
         id="path267" />
      <path
         style="fill:#6a4600;stroke:none"
         d="m 233.00825,-53.641515 -0.0131,1.52646 1.52369,0.01423 0.0142,-1.523703 z"
         inkscape:connector-curvature="0"
         id="path269" />
      <path
         style="fill:none;stroke:#000000;stroke-width:0.6;stroke-linecap:butt"
         d="m 227.26126,-55.055042 -0.0734,4.514141"
         inkscape:connector-curvature="0"
         id="path271" />
      <path
         style="fill:#000000;stroke:none"
         d="m 223.83649,-54.026834 -0.0111,0.999636 1.00072,0.0086 0.009,-0.998911 z"
         inkscape:connector-curvature="0"
         id="path273" />
      <path
         style="fill:#000000;stroke:none"
         d="m 223.85032,-52.581947 -0.0111,0.999637 1.00072,0.0086 0.009,-0.998912 z"
         inkscape:connector-curvature="0"
         id="path275" />
      <path
         style="fill:none;stroke:#000000;stroke-width:0.5;stroke-linecap:butt;stroke-linejoin:round;stroke-miterlimit:4"
         d="m 227.2539,-51.578825 1.14997,0.173504 -0.0116,1.05042"
         inkscape:connector-curvature="0"
         id="path277" />
      <path
         style="fill:none;stroke:#000000;stroke-width:0.5;stroke-linecap:butt;stroke-linejoin:round;stroke-miterlimit:4"
         d="m 227.25705,-54.143799 1.1481,-0.163064 0.0224,-1.189753"
         inkscape:connector-curvature="0"
         id="path279" />
    </g>
  </g>
  <g
     inkscape:groupmode="layer"
     id="suit_rank_glow_layer"
     inkscape:label="Suit Rank Glow"
     style="display:inline"
     sodipodi:insensitive="true">
    <g
       style="opacity:0.75;filter:url(#blurSuitRankGlow)"
       id="g282">
      <path
         style="fill:#ffffff;fill-opacity:1;stroke:none"
         d="m 31.453338,21.223775 c -3.28572,0 -5.95,2.65553 -5.95,5.94125 0,0.85821 0.18762,1.67115 0.51625,2.40625 -0.26383,-0.0358 -0.53136,-0.0525 -0.805,-0.0525 -3.28572,0 -5.95,2.65553 -5.95,5.94125 0,3.28571 2.66428,5.95 5.95,5.95 1.44726,0 2.87049,-0.3694 3.77125,-1.1725 -0.12772,1.47874 -0.1736,2.78641 -0.21875,4.27875 1.79083,0 3.58167,0 5.3725,0 -0.0452,-1.49234 -0.091,-2.80001 -0.21875,-4.27875 0.90076,0.8031 2.32399,1.1725 3.77125,1.1725 3.28572,0 5.95,-2.66429 5.95,-5.95 0,-3.28572 -2.66428,-5.94125 -5.95,-5.94125 -0.27364,0 -0.54117,0.0167 -0.805,0.0525 0.32863,-0.7351 0.51625,-1.54804 0.51625,-2.40625 0,-3.28572 -2.66428,-5.94125 -5.95,-5.94125 z"
         inkscape:connector-curvature="0"
         id="path284" />
      <path
         style="fill:#ffffff;fill-opacity:1;stroke:none"
         d="m 215.96335,316.27628 c 3.28572,0 5.95,-2.65553 5.95,-5.94125 0,-0.85821 -0.18762,-1.67114 -0.51625,-2.40625 0.26383,0.0358 0.53136,0.0525 0.805,0.0525 3.28572,0 5.95,-2.65553 5.95,-5.94125 0,-3.2857 -2.66428,-5.95 -5.95,-5.95 -1.44726,0 -2.87049,0.3694 -3.77125,1.1725 0.12772,-1.47874 0.1736,-2.78641 0.21875,-4.27875 -1.79083,0 -3.58167,0 -5.3725,0 0.0452,1.49234 0.091,2.80001 0.21875,4.27875 -0.90076,-0.8031 -2.32399,-1.1725 -3.77125,-1.1725 -3.28572,0 -5.95,2.66429 -5.95,5.95 0,3.28572 2.66428,5.94125 5.95,5.94125 0.27364,0 0.54117,-0.0167 0.805,-0.0525 -0.32863,0.73511 -0.51625,1.54804 -0.51625,2.40625 0,3.28572 2.66428,5.94125 5.95,5.94125 z"
         inkscape:connector-curvature="0"
         id="path286" />
      <path
         style="fill:#ffffff;fill-opacity:1;stroke:none"
         d="m 21.893333,58.075025 c -10e-6,0 -10e-6,-0.093 0,-0.28 -10e-6,-0.2133 -10e-6,-0.4933 0,-0.84 -10e-6,-0.3466 -10e-6,-0.7333 0,-1.16 -10e-6,-0.4266 -10e-6,-0.8666 0,-1.32 l 0,-3.6 17.19999,0 1.92001,3.92 c -0.85336,1.5467 -1.68002,3.0534 -2.48,4.52 -0.69336,1.28 -1.38669,2.6134 -2.08001,4 -0.69334,1.3867 -1.25334,2.6267 -1.67999,3.72 -0.80002,2.0534 -1.45335,3.92 -1.96001,5.6 -0.50667,1.68 -0.90667,3.1867 -1.19999,4.52 -0.29335,1.3067 -0.52002,2.44 -0.68001,3.4 -0.13334,0.96 -0.21334,1.7333 -0.24,2.32 l -3.19999,0 c -10e-6,-0.6667 0.08,-1.5333 0.24,-2.6 0.15999,-1.0933 0.38665,-2.3067 0.68,-3.64 0.31999,-1.3333 0.69332,-2.7467 1.12,-4.24 0.45332,-1.52 0.95998,-3.0533 1.52,-4.6 0.15998,-0.4266 0.37332,-0.9466 0.63999,-1.56 0.26666,-0.64 0.55999,-1.32 0.88,-2.04 0.34666,-0.72 0.69333,-1.4666 1.04001,-2.24 0.37331,-0.8 0.74665,-1.5733 1.12,-2.32 0.85331,-1.76 1.77331,-3.6133 2.76,-5.56 l -6.2,0 -6.20001,0 0,4 -3.19999,0"
         inkscape:connector-curvature="0"
         id="path288" />
      <path
         style="fill:#ffffff;fill-opacity:1;stroke:none"
         d="m 225.52334,279.42502 c 1e-5,0 1e-5,0.093 0,0.28 1e-5,0.2133 1e-5,0.4933 0,0.84 1e-5,0.3466 1e-5,0.7333 0,1.16001 1e-5,0.4266 1e-5,0.8666 0,1.32 l 0,3.6 -17.19999,0 -1.92001,-3.92 c 0.85336,-1.5467 1.68002,-3.0534 2.48,-4.52001 0.69336,-1.27999 1.38669,-2.61339 2.08001,-4 0.69334,-1.38669 1.25334,-2.62669 1.67999,-3.71999 0.80002,-2.0534 1.45335,-3.92001 1.96001,-5.6 0.50667,-1.68001 0.90667,-3.1867 1.19999,-4.52 0.29335,-1.30671 0.52002,-2.44 0.68001,-3.40001 0.13334,-0.96 0.21334,-1.7333 0.24,-2.31999 l 3.19999,0 c 1e-5,0.6667 -0.08,1.53329 -0.24,2.6 -0.15999,1.0933 -0.38665,2.3067 -0.68,3.63999 -0.31999,1.3333 -0.69332,2.7467 -1.12,4.24 -0.45332,1.52001 -0.95998,3.0533 -1.52,4.6 -0.15998,0.4266 -0.37332,0.9466 -0.63999,1.56001 -0.26666,0.64 -0.55999,1.31999 -0.88,2.03999 -0.34666,0.72001 -0.69333,1.4666 -1.04001,2.24 -0.37331,0.80001 -0.74665,1.57331 -1.12,2.32 -0.85331,1.76 -1.77331,3.6133 -2.76,5.56 l 6.2,0 6.20001,0 0,-4 3.19999,0"
         inkscape:connector-curvature="0"
         id="path290" />
    </g>
  </g>
  <g
     inkscape:groupmode="layer"
     id="suit_rank_layer"
     inkscape:label="Suit Rank"
     style="display:inline"
     sodipodi:insensitive="true">
    <path
       style="fill:#000000;fill-opacity:1;stroke:none"
       d="m 31.453338,21.223775 c -3.28572,0 -5.95,2.65553 -5.95,5.94125 0,0.85821 0.18762,1.67115 0.51625,2.40625 -0.26383,-0.0358 -0.53136,-0.0525 -0.805,-0.0525 -3.28572,0 -5.95,2.65553 -5.95,5.94125 0,3.28571 2.66428,5.95 5.95,5.95 1.44726,0 2.87049,-0.3694 3.77125,-1.1725 -0.12772,1.47874 -0.1736,2.78641 -0.21875,4.27875 1.79083,0 3.58167,0 5.3725,0 -0.0452,-1.49234 -0.091,-2.80001 -0.21875,-4.27875 0.90076,0.8031 2.32399,1.1725 3.77125,1.1725 3.28572,0 5.95,-2.66429 5.95,-5.95 0,-3.28572 -2.66428,-5.94125 -5.95,-5.94125 -0.27364,0 -0.54117,0.0167 -0.805,0.0525 0.32863,-0.7351 0.51625,-1.54804 0.51625,-2.40625 0,-3.28572 -2.66428,-5.94125 -5.95,-5.94125 z"
       inkscape:connector-curvature="0"
       id="path293" />
    <path
       style="fill:#000000;fill-opacity:1;stroke:none"
       d="m 215.96335,316.27628 c 3.28572,0 5.95,-2.65553 5.95,-5.94125 0,-0.85821 -0.18762,-1.67114 -0.51625,-2.40625 0.26383,0.0358 0.53136,0.0525 0.805,0.0525 3.28572,0 5.95,-2.65553 5.95,-5.94125 0,-3.2857 -2.66428,-5.95 -5.95,-5.95 -1.44726,0 -2.87049,0.3694 -3.77125,1.1725 0.12772,-1.47874 0.1736,-2.78641 0.21875,-4.27875 -1.79083,0 -3.58167,0 -5.3725,0 0.0452,1.49234 0.091,2.80001 0.21875,4.27875 -0.90076,-0.8031 -2.32399,-1.1725 -3.77125,-1.1725 -3.28572,0 -5.95,2.66429 -5.95,5.95 0,3.28572 2.66428,5.94125 5.95,5.94125 0.27364,0 0.54117,-0.0167 0.805,-0.0525 -0.32863,0.73511 -0.51625,1.54804 -0.51625,2.40625 0,3.28572 2.66428,5.94125 5.95,5.94125 z"
       inkscape:connector-curvature="0"
       id="path295" />
    <path
       style="fill:#000000;fill-opacity:1;stroke:none"
       d="m 21.893333,58.075025 c -10e-6,0 -10e-6,-0.093 0,-0.28 -10e-6,-0.2133 -10e-6,-0.4933 0,-0.84 -10e-6,-0.3466 -10e-6,-0.7333 0,-1.16 -10e-6,-0.4266 -10e-6,-0.8666 0,-1.32 l 0,-3.6 17.19999,0 1.92001,3.92 c -0.85336,1.5467 -1.68002,3.0534 -2.48,4.52 -0.69336,1.28 -1.38669,2.6134 -2.08001,4 -0.69334,1.3867 -1.25334,2.6267 -1.67999,3.72 -0.80002,2.0534 -1.45335,3.92 -1.96001,5.6 -0.50667,1.68 -0.90667,3.1867 -1.19999,4.52 -0.29335,1.3067 -0.52002,2.44 -0.68001,3.4 -0.13334,0.96 -0.21334,1.7333 -0.24,2.32 l -3.19999,0 c -10e-6,-0.6667 0.08,-1.5333 0.24,-2.6 0.15999,-1.0933 0.38665,-2.3067 0.68,-3.64 0.31999,-1.3333 0.69332,-2.7467 1.12,-4.24 0.45332,-1.52 0.95998,-3.0533 1.52,-4.6 0.15998,-0.4266 0.37332,-0.9466 0.63999,-1.56 0.26666,-0.64 0.55999,-1.32 0.88,-2.04 0.34666,-0.72 0.69333,-1.4666 1.04001,-2.24 0.37331,-0.8 0.74665,-1.5733 1.12,-2.32 0.85331,-1.76 1.77331,-3.6133 2.76,-5.56 l -6.2,0 -6.20001,0 0,4 -3.19999,0"
       inkscape:connector-curvature="0"
       id="path297" />
    <path
       style="fill:#000000;fill-opacity:1;stroke:none"
       d="m 225.52334,279.42502 c 1e-5,0 1e-5,0.093 0,0.28 1e-5,0.2133 1e-5,0.4933 0,0.84 1e-5,0.3466 1e-5,0.7333 0,1.16001 1e-5,0.4266 1e-5,0.8666 0,1.32 l 0,3.6 -17.19999,0 -1.92001,-3.92 c 0.85336,-1.5467 1.68002,-3.0534 2.48,-4.52001 0.69336,-1.27999 1.38669,-2.61339 2.08001,-4 0.69334,-1.38669 1.25334,-2.62669 1.67999,-3.71999 0.80002,-2.0534 1.45335,-3.92001 1.96001,-5.6 0.50667,-1.68001 0.90667,-3.1867 1.19999,-4.52 0.29335,-1.30671 0.52002,-2.44 0.68001,-3.40001 0.13334,-0.96 0.21334,-1.7333 0.24,-2.31999 l 3.19999,0 c 1e-5,0.6667 -0.08,1.53329 -0.24,2.6 -0.15999,1.0933 -0.38665,2.3067 -0.68,3.63999 -0.31999,1.3333 -0.69332,2.7467 -1.12,4.24 -0.45332,1.52001 -0.95998,3.0533 -1.52,4.6 -0.15998,0.4266 -0.37332,0.9466 -0.63999,1.56001 -0.26666,0.64 -0.55999,1.31999 -0.88,2.03999 -0.34666,0.72001 -0.69333,1.4666 -1.04001,2.24 -0.37331,0.80001 -0.74665,1.57331 -1.12,2.32 -0.85331,1.76 -1.77331,3.6133 -2.76,5.56 l 6.2,0 6.20001,0 0,-4 3.19999,0"
       inkscape:connector-curvature="0"
       id="path299" />
  </g>
  <g
     inkscape:groupmode="layer"
     id="guides_layer"
     inkscape:label="Guides"
     style="display:none"
     sodipodi:insensitive="true">
    <path
       style="fill:none;stroke:#000000;stroke-width:0.9"
       d="m 11.250000,11.25 0,-45"
       inkscape:connector-curvature="0"
       id="path302" />
    <path
       style="fill:none;stroke:#000000;stroke-width:0.9"
       d="m 11.250000,371.25 0,-45"
       inkscape:connector-curvature="0"
       id="path304" />
    <path
       style="fill:none;stroke:#000000;stroke-width:0.9"
       d="m 84.375000,11.25 0,-45"
       inkscape:connector-curvature="0"
       id="path306" />
    <path
       style="fill:none;stroke:#000000;stroke-width:0.9"
       d="m 84.375000,371.25 0,-45"
       inkscape:connector-curvature="0"
       id="path308" />
    <path
       style="fill:none;stroke:#000000;stroke-width:0.9"
       d="m 123.750000,11.25 0,-45"
       inkscape:connector-curvature="0"
       id="path310" />
    <path
       style="fill:none;stroke:#000000;stroke-width:0.9"
       d="m 123.750000,371.25 0,-45"
       inkscape:connector-curvature="0"
       id="path312" />
    <path
       style="fill:none;stroke:#000000;stroke-width:0.9"
       d="m 163.125000,11.25 0,-45"
       inkscape:connector-curvature="0"
       id="path314" />
    <path
       style="fill:none;stroke:#000000;stroke-width:0.9"
       d="m 163.125000,371.25 0,-45"
       inkscape:connector-curvature="0"
       id="path316" />
    <path
       style="fill:none;stroke:#000000;stroke-width:0.9"
       d="m 236.250000,11.25 0,-45"
       inkscape:connector-curvature="0"
       id="path318" />
    <path
       style="fill:none;stroke:#000000;stroke-width:0.9"
       d="m 236.250000,371.25 0,-45"
       inkscape:connector-curvature="0"
       id="path320" />
    <path
       style="fill:none;stroke:#000000;stroke-width:0.9"
       d="m -33.75,11.250000 45,0"
       inkscape:connector-curvature="0"
       id="path322" />
    <path
       style="fill:none;stroke:#000000;stroke-width:0.9"
       d="m 236.25,11.250000 45,0"
       inkscape:connector-curvature="0"
       id="path324" />
    <path
       style="fill:none;stroke:#000000;stroke-width:0.9"
       d="m -33.75,118.125000 45,0"
       inkscape:connector-curvature="0"
       id="path326" />
    <path
       style="fill:none;stroke:#000000;stroke-width:0.9"
       d="m 236.25,118.125000 45,0"
       inkscape:connector-curvature="0"
       id="path328" />
    <path
       style="fill:none;stroke:#000000;stroke-width:0.9"
       d="m -33.75,168.750000 45,0"
       inkscape:connector-curvature="0"
       id="path330" />
    <path
       style="fill:none;stroke:#000000;stroke-width:0.9"
       d="m 236.25,168.750000 45,0"
       inkscape:connector-curvature="0"
       id="path332" />
    <path
       style="fill:none;stroke:#000000;stroke-width:0.9"
       d="m -33.75,219.375000 45,0"
       inkscape:connector-curvature="0"
       id="path334" />
    <path
       style="fill:none;stroke:#000000;stroke-width:0.9"
       d="m 236.25,219.375000 45,0"
       inkscape:connector-curvature="0"
       id="path336" />
    <path
       style="fill:none;stroke:#000000;stroke-width:0.9"
       d="m -33.75,326.250000 45,0"
       inkscape:connector-curvature="0"
       id="path338" />
    <path
       style="fill:none;stroke:#000000;stroke-width:0.9"
       d="m 236.25,326.250000 45,0"
       inkscape:connector-curvature="0"
       id="path340" />
    <g
       id="guide-short0-1">
      <rect
         x="163.125000"
         y="-22.500000"
         width="84.375000"
         height="22.500000"
         style="fill:#ffd291;stroke:#000000;stroke-width:0.9"
         id="rect343" />
      <rect
         x="168.750000"
         y="-22.500000"
         width="78.750000"
         height="22.500000"
         style="fill:#b4e982;stroke:#000000;stroke-width:0.9"
         id="rect345" />
      <rect
         x="185.625000"
         y="-22.500000"
         width="61.875000"
         height="22.500000"
         style="fill:#5adc4f;stroke:#000000;stroke-width:0.9"
         id="rect347" />
      <rect
         x="0.000000"
         y="-22.500000"
         width="163.125000"
         height="22.500000"
         style="fill:#b9deff;stroke:#000000;stroke-width:0.9"
         id="rect349" />
      <rect
         x="0.000000"
         y="-22.500000"
         width="123.750000"
         height="22.500000"
         style="fill:#9bceff;stroke:#000000;stroke-width:0.9"
         id="rect351" />
      <rect
         x="0.000000"
         y="-22.500000"
         width="67.500000"
         height="22.500000"
         style="fill:#73baff;stroke:#000000;stroke-width:0.9"
         id="rect353" />
    </g>
    <g
       id="guide-long1-4">
      <rect
         x="247.500000"
         y="0.000000"
         width="22.500000"
         height="118.125000"
         style="fill:#ffd291;stroke:#000000;stroke-width:0.9"
         id="rect356" />
      <rect
         x="247.500000"
         y="0.000000"
         width="22.500000"
         height="101.250000"
         style="fill:#b4e982;stroke:#000000;stroke-width:0.9"
         id="rect358" />
      <rect
         x="247.500000"
         y="0.000000"
         width="22.500000"
         height="78.750000"
         style="fill:#5adc4f;stroke:#000000;stroke-width:0.9"
         id="rect360" />
      <rect
         x="247.500000"
         y="118.125000"
         width="22.500000"
         height="219.375000"
         style="fill:#b9deff;stroke:#000000;stroke-width:0.9"
         id="rect362" />
      <rect
         x="247.500000"
         y="168.750000"
         width="22.500000"
         height="168.750000"
         style="fill:#9bceff;stroke:#000000;stroke-width:0.9"
         id="rect364" />
      <rect
         x="247.500000"
         y="236.250000"
         width="22.500000"
         height="101.250000"
         style="fill:#73baff;stroke:#000000;stroke-width:0.9"
         id="rect366" />
    </g>
    <g
       id="guide-short2-3"
       transform="matrix(-1,0,0,1,247.5,360)">
      <rect
         x="84.375000"
         y="-22.500000"
         width="163.125000"
         height="22.500000"
         style="fill:#ffd291;stroke:#000000;stroke-width:0.9"
         id="rect369" />
      <rect
         x="101.250000"
         y="-22.500000"
         width="146.250000"
         height="22.500000"
         style="fill:#b4e982;stroke:#000000;stroke-width:0.9"
         id="rect371" />
      <rect
         x="213.750000"
         y="-22.500000"
         width="33.750000"
         height="22.500000"
         style="fill:#5adc4f;stroke:#000000;stroke-width:0.9"
         id="rect373" />
      <rect
         x="168.750000"
         y="-22.500000"
         width="33.750000"
         height="22.500000"
         style="fill:#5adc4f;stroke:#000000;stroke-width:0.9"
         id="rect375" />
      <rect
         x="118.125000"
         y="-22.500000"
         width="39.375000"
         height="22.500000"
         style="fill:#5adc4f;stroke:#000000;stroke-width:0.9"
         id="rect377" />
      <rect
         x="0.000000"
         y="-22.500000"
         width="84.375000"
         height="22.500000"
         style="fill:#b9deff;stroke:#000000;stroke-width:0.9"
         id="rect379" />
      <rect
         x="0.000000"
         y="-22.500000"
         width="61.875000"
         height="22.500000"
         style="fill:#9bceff;stroke:#000000;stroke-width:0.9"
         id="rect381" />
      <rect
         x="0.000000"
         y="-22.500000"
         width="33.750000"
         height="22.500000"
         style="fill:#73baff;stroke:#000000;stroke-width:0.9"
         id="rect383" />
    </g>
    <g
       id="guide-long3-6"
       transform="matrix(1,0,0,-1,-270,337.5)">
      <rect
         x="247.500000"
         y="0.000000"
         width="22.500000"
         height="219.375000"
         style="fill:#ffd291;stroke:#000000;stroke-width:0.9"
         id="rect386" />
      <rect
         x="247.500000"
         y="0.000000"
         width="22.500000"
         height="213.750000"
         style="fill:#b4e982;stroke:#000000;stroke-width:0.9"
         id="rect388" />
      <rect
         x="247.500000"
         y="0.000000"
         width="22.500000"
         height="112.500000"
         style="fill:#5adc4f;stroke:#000000;stroke-width:0.9"
         id="rect390" />
      <rect
         x="247.500000"
         y="123.750000"
         width="22.500000"
         height="61.875000"
         style="fill:#5adc4f;stroke:#000000;stroke-width:0.9"
         id="rect392" />
      <rect
         x="247.500000"
         y="219.375000"
         width="22.500000"
         height="118.125000"
         style="fill:#b9deff;stroke:#000000;stroke-width:0.9"
         id="rect394" />
      <rect
         x="247.500000"
         y="253.125000"
         width="22.500000"
         height="84.375000"
         style="fill:#9bceff;stroke:#000000;stroke-width:0.9"
         id="rect396" />
      <rect
         x="247.500000"
         y="286.875000"
         width="22.500000"
         height="50.625000"
         style="fill:#73baff;stroke:#000000;stroke-width:0.9"
         id="rect398" />
    </g>
  </g>
  <g
     inkscape:groupmode="layer"
     id="cut_line_layer"
     inkscape:label="Cut Line"
     style="display:none"
     sodipodi:insensitive="true">
    <rect
       style="fill:none;stroke:#000000;stroke-width:0.5;stroke-linecap:butt;stroke-linejoin:bevel;stroke-miterlimit:4;stroke-dasharray:none;stroke-opacity:1"
       width="225"
       height="315"
       x="11.25"
       y="11.25"
       ry="17.361111"
       id="rect401" />
  </g>
  <g
     inkscape:groupmode="layer"
     id="page_border_layer"
     inkscape:label="Page Border"
     style="display:none"
     sodipodi:insensitive="true">
    <rect
       style="fill:none;stroke:#000000;stroke-width:0.5;stroke-linecap:butt;stroke-linejoin:bevel;stroke-miterlimit:4;stroke-dasharray:none;stroke-opacity:1"
       width="247.5"
       height="337.5"
       x="0"
       y="0"
       id="rect404" />
  </g>
</svg>
