<?xml version="1.0" encoding="UTF-8" standalone="no"?>
<svg
   xmlns:dc="http://purl.org/dc/elements/1.1/"
   xmlns:cc="http://creativecommons.org/ns#"
   xmlns:rdf="http://www.w3.org/1999/02/22-rdf-syntax-ns#"
   xmlns:svg="http://www.w3.org/2000/svg"
   xmlns="http://www.w3.org/2000/svg"
   xmlns:xlink="http://www.w3.org/1999/xlink"
   xmlns:sodipodi="http://sodipodi.sourceforge.net/DTD/sodipodi-0.dtd"
   xmlns:inkscape="http://www.inkscape.org/namespaces/inkscape"
   version="1.1"
   height="337.5"
   width="247.5"
   id="svg2"
   inkscape:version="0.91 r13725"
   sodipodi:docname="clubs-queen.svg">
  <metadata
     id="metadata4">
    <rdf:RDF>
      <cc:Work
         rdf:about="">
        <dc:format>image/svg+xml</dc:format>
        <dc:type
           rdf:resource="http://purl.org/dc/dcmitype/StillImage" />
        <dc:title />
        <dc:creator>
          <cc:Agent>
            <dc:title>Gary Kacmarcik</dc:title>
          </cc:Agent>
        </dc:creator>
      </cc:Work>
    </rdf:RDF>
  </metadata>
  <defs
     id="defs6">
    <filter
       inkscape:label="textureGrassBig"
       style="color-interpolation-filters:sRGB"
       id="textureGrassBig">
      <feTurbulence
         numOctaves="2"
         seed="12"
         type="turbulence"
         baseFrequency="0.070000"
         result="result1"
         id="feTurbulence9" />
      <feColorMatrix
         result="result0"
         in="SourceGraphic"
         type="luminanceToAlpha"
         id="feColorMatrix11" />
      <feColorMatrix
         result="result2"
         values="1 0 0 0 0 0 1 0 0 0 0 0 1 0 0 0 0 0 0.4 0 "
         id="feColorMatrix13" />
      <feComposite
         in="result2"
         operator="over"
         in2="result1"
         id="feComposite15" />
      <feColorMatrix
         result="result91"
         values="1 0 0 0 0 0 1 0 0 0 0 0 1 0 0 0 0 0 10 -4 "
         id="feColorMatrix17" />
      <feComposite
         operator="out"
         in="SourceGraphic"
         in2="result91"
         id="feComposite19" />
      <feGaussianBlur
         stdDeviation="2.500000"
         id="feGaussianBlur21" />
      <feColorMatrix
         values="1 0 0 0 0 0 1 0 0 0 0 0 1 0 0 0 0 0 1 0 "
         id="feColorMatrix23" />
    </filter>
    <filter
       inkscape:label="textureGrassSmall"
       style="color-interpolation-filters:sRGB"
       id="textureGrassSmall">
      <feTurbulence
         numOctaves="4"
         seed="12"
         type="turbulence"
         baseFrequency="0.500000"
         result="result1"
         id="feTurbulence26" />
      <feColorMatrix
         result="result0"
         in="SourceGraphic"
         type="luminanceToAlpha"
         id="feColorMatrix28" />
      <feColorMatrix
         result="result2"
         values="1 0 0 0 0 0 1 0 0 0 0 0 1 0 0 0 0 0 0.4 0 "
         id="feColorMatrix30" />
      <feComposite
         in="result2"
         operator="over"
         in2="result1"
         id="feComposite32" />
      <feColorMatrix
         result="result91"
         values="1 0 0 0 0 0 1 0 0 0 0 0 1 0 0 0 0 0 10 -4 "
         id="feColorMatrix34" />
      <feComposite
         operator="out"
         in="SourceGraphic"
         in2="result91"
         id="feComposite36" />
      <feGaussianBlur
         stdDeviation="1.000000"
         id="feGaussianBlur38" />
      <feColorMatrix
         values="1 0 0 0 0 0 1 0 0 0 0 0 1 0 0 0 0 0 1 0 "
         id="feColorMatrix40" />
    </filter>
    <filter
       inkscape:label="textureLand"
       style="color-interpolation-filters:sRGB"
       id="textureLand">
      <feTurbulence
         numOctaves="4"
         seed="12"
         type="turbulence"
         baseFrequency="0.500000"
         result="result1"
         id="feTurbulence43" />
      <feColorMatrix
         result="result0"
         in="SourceGraphic"
         type="luminanceToAlpha"
         id="feColorMatrix45" />
      <feColorMatrix
         result="result2"
         values="1 0 0 0 0 0 1 0 0 0 0 0 1 0 0 0 0 0 0.4 0 "
         id="feColorMatrix47" />
      <feComposite
         in="result2"
         operator="over"
         in2="result1"
         id="feComposite49" />
      <feColorMatrix
         result="result91"
         values="1 0 0 0 0 0 1 0 0 0 0 0 1 0 0 0 0 0 10 -4 "
         id="feColorMatrix51" />
      <feComposite
         operator="out"
         in="SourceGraphic"
         in2="result91"
         id="feComposite53" />
      <feGaussianBlur
         stdDeviation="0.800000"
         id="feGaussianBlur55" />
      <feColorMatrix
         values="1 0 0 0 0 0 1 0 0 0 0 0 1 0 0 0 0 0 1 0 "
         id="feColorMatrix57" />
    </filter>
    <filter
       inkscape:label="textureForestBig"
       style="color-interpolation-filters:sRGB"
       id="textureForestBig">
      <feTurbulence
         numOctaves="2"
         seed="12"
         type="turbulence"
         baseFrequency="0.300000"
         result="result1"
         id="feTurbulence60" />
      <feColorMatrix
         result="result0"
         in="SourceGraphic"
         type="luminanceToAlpha"
         id="feColorMatrix62" />
      <feColorMatrix
         result="result2"
         values="1 0 0 0 0 0 1 0 0 0 0 0 1 0 0 0 0 0 0.4 0 "
         id="feColorMatrix64" />
      <feComposite
         in="result2"
         operator="over"
         in2="result1"
         id="feComposite66" />
      <feColorMatrix
         result="result91"
         values="1 0 0 0 0 0 1 0 0 0 0 0 1 0 0 0 0 0 10 -4 "
         id="feColorMatrix68" />
      <feComposite
         operator="out"
         in="SourceGraphic"
         in2="result91"
         id="feComposite70" />
      <feGaussianBlur
         stdDeviation="2.000000"
         id="feGaussianBlur72" />
      <feColorMatrix
         values="1 0 0 0 0 0 1 0 0 0 0 0 1 0 0 0 0 0 1 0 "
         id="feColorMatrix74" />
    </filter>
    <filter
       inkscape:label="textureForestSmall"
       style="color-interpolation-filters:sRGB"
       id="textureForestSmall">
      <feTurbulence
         numOctaves="4"
         seed="12"
         type="turbulence"
         baseFrequency="0.350000"
         result="result1"
         id="feTurbulence77" />
      <feColorMatrix
         result="result0"
         in="SourceGraphic"
         type="luminanceToAlpha"
         id="feColorMatrix79" />
      <feColorMatrix
         result="result2"
         values="1 0 0 0 0 0 1 0 0 0 0 0 1 0 0 0 0 0 0.4 0 "
         id="feColorMatrix81" />
      <feComposite
         in="result2"
         operator="over"
         in2="result1"
         id="feComposite83" />
      <feColorMatrix
         result="result91"
         values="1 0 0 0 0 0 1 0 0 0 0 0 1 0 0 0 0 0 10 -4 "
         id="feColorMatrix85" />
      <feComposite
         operator="out"
         in="SourceGraphic"
         in2="result91"
         id="feComposite87" />
      <feGaussianBlur
         stdDeviation="1.000000"
         id="feGaussianBlur89" />
      <feColorMatrix
         values="1 0 0 0 0 0 1 0 0 0 0 0 1 0 0 0 0 0 1 0 "
         id="feColorMatrix91" />
    </filter>
    <filter
       inkscape:label="roughenShoreline"
       style="color-interpolation-filters:sRGB"
       id="roughenShoreline">
      <feTurbulence
         numOctaves="4"
         seed="12"
         type="turbulence"
         baseFrequency="0.050000"
         result="turb"
         id="feTurbulence94" />
      <feDisplacementMap
         scale="6.600000"
         yChannelSelector="G"
         xChannelSelector="R"
         in="SourceGraphic"
         in2="turb"
         id="feDisplacementMap96" />
    </filter>
    <filter
       inkscape:label="roughenForest"
       style="color-interpolation-filters:sRGB"
       id="roughenForest">
      <feTurbulence
         numOctaves="4"
         seed="12"
         type="fractalNoise"
         baseFrequency="0.150000 0.150000"
         result="turb"
         id="feTurbulence99" />
      <feDisplacementMap
         scale="6.600000"
         yChannelSelector="G"
         xChannelSelector="R"
         in="SourceGraphic"
         in2="turb"
         id="feDisplacementMap101" />
    </filter>
    <filter
       inkscape:collect="always"
       inkscape:label="blurSuitRankGlow"
       style="color-interpolation-filters:sRGB"
       id="blurSuitRankGlow"
       x="-0.029025"
       y="-0.020458"
       width="1.058049"
       height="1.040917">
      <feGaussianBlur
         inkscape:collect="always"
         stdDeviation="2.515067"
         id="feGaussianBlur104" />
    </filter>
    <filter
       inkscape:collect="always"
       inkscape:label="blurWaterDeep"
       style="color-interpolation-filters:sRGB"
       id="blurWaterDeep"
       x="-0.056691"
       y="-0.041620"
       width="1.113381"
       height="1.083239">
      <feGaussianBlur
         inkscape:collect="always"
         stdDeviation="6.919136"
         id="feGaussianBlur107" />
    </filter>
    <filter
       inkscape:collect="always"
       inkscape:label="blurWaterShallow"
       style="color-interpolation-filters:sRGB"
       id="blurWaterShallow"
       x="-0.055818"
       y="-0.042103"
       width="1.111637"
       height="1.084205">
      <feGaussianBlur
         inkscape:collect="always"
         stdDeviation="6.561501"
         id="feGaussianBlur110" />
    </filter>
    <filter
       inkscape:collect="always"
       inkscape:label="blurWaterHilight"
       style="color-interpolation-filters:sRGB"
       id="blurWaterHilight"
       x="-0.071178"
       y="-0.051856"
       width="1.142356"
       height="1.103712">
      <feGaussianBlur
         inkscape:collect="always"
         stdDeviation="6.857532"
         id="feGaussianBlur113" />
    </filter>
    <filter
       inkscape:collect="always"
       inkscape:label="blurGrass"
       style="color-interpolation-filters:sRGB"
       id="blurGrass"
       x="-0.032100"
       y="-0.019164"
       width="1.064201"
       height="1.038328">
      <feGaussianBlur
         inkscape:collect="always"
         stdDeviation="2.386213"
         id="feGaussianBlur116" />
    </filter>
    <filter
       inkscape:collect="always"
       inkscape:label="blurForestShadow"
       style="color-interpolation-filters:sRGB"
       id="blurForestShadow"
       x="-0.033576"
       y="-0.018674"
       width="1.067152"
       height="1.037348">
      <feGaussianBlur
         inkscape:collect="always"
         stdDeviation="2.199785"
         id="feGaussianBlur119" />
    </filter>
    <linearGradient
       id="gradientStopsFish"
       inkscape:collect="always">
      <stop
         offset="0.000000"
         style="stop-color:#ff5555;stop-opacity:1.000000"
         id="stop128" />
      <stop
         offset="1.000000"
         style="stop-color:#ffffff;stop-opacity:1.000000"
         id="stop130" />
    </linearGradient>
    <linearGradient
       id="gradientStopsCoconut"
       inkscape:collect="always">
      <stop
         offset="0.000000"
         style="stop-color:#ffffff;stop-opacity:1.000000"
         id="stop133" />
      <stop
         offset="1.000000"
         style="stop-color:#c8c8c8;stop-opacity:0.000000"
         id="stop135" />
    </linearGradient>
    <linearGradient
       id="gradientStopsFlower"
       inkscape:collect="always">
      <stop
         offset="0.000000"
         style="stop-color:#b16dff;stop-opacity:1.000000"
         id="stop138" />
      <stop
         offset="1.000000"
         style="stop-color:#e7d2ff;stop-opacity:1.000000"
         id="stop140" />
    </linearGradient>
    <linearGradient
       id="gradientStopsJellyfish"
       inkscape:collect="always">
      <stop
         offset="0.000000"
         style="stop-color:#4f97ff;stop-opacity:1.000000"
         id="stop143" />
      <stop
         offset="1.000000"
         style="stop-color:#cfe3ff;stop-opacity:1.000000"
         id="stop145" />
    </linearGradient>
    <linearGradient
       id="gradientStopsShip"
       inkscape:collect="always">
      <stop
         offset="0.000000"
         style="stop-color:#b67800;stop-opacity:1.000000"
         id="stop148" />
      <stop
         offset="1.000000"
         style="stop-color:#d28b00;stop-opacity:1.000000"
         id="stop150" />
    </linearGradient>
    <linearGradient
       id="gradientFish"
       xlink:href="#gradientStopsFish"
       x1="178.789090"
       y1="-114.782830"
       x2="180.407300"
       y2="-103.782830"
       gradientTransform="translate(-178.76256,1.0606602)"
       gradientUnits="userSpaceOnUse"
       inkscape:collect="always" />
    <linearGradient
       id="gradientJellyfishTentacle1a"
       xlink:href="#gradientStopsJellyfish"
       x1="118.024030"
       y1="-110.827530"
       x2="121.753140"
       y2="-96.140030"
       gradientTransform="translate(-120,0)"
       gradientUnits="userSpaceOnUse"
       inkscape:collect="always" />
    <linearGradient
       id="gradientJellyfishTentacle1b"
       xlink:href="#gradientStopsJellyfish"
       x1="118.024030"
       y1="-110.827530"
       x2="121.753140"
       y2="-96.140030"
       gradientTransform="translate(-120,0)"
       gradientUnits="userSpaceOnUse"
       inkscape:collect="always" />
    <linearGradient
       id="gradientJellyfishTentacle2"
       xlink:href="#gradientStopsJellyfish"
       x1="118.218180"
       y1="-115.782610"
       x2="121.698270"
       y2="-97.813858"
       gradientTransform="translate(-120,0)"
       gradientUnits="userSpaceOnUse"
       inkscape:collect="always" />
    <linearGradient
       id="gradientJellyfishTentacle3"
       xlink:href="#gradientStopsJellyfish"
       x1="123.335370"
       y1="-114.610190"
       x2="116.678600"
       y2="-98.453941"
       gradientTransform="translate(-120,0)"
       gradientUnits="userSpaceOnUse"
       inkscape:collect="always" />
    <linearGradient
       id="gradientShip"
       xlink:href="#gradientStopsShip"
       x1="196.432910"
       y1="221.715270"
       x2="203.663250"
       y2="204.277770"
       gradientTransform="matrix(0.37654483,0.9263984,-0.9263984,0.37654483,355.66788,-318.43897)"
       gradientUnits="userSpaceOnUse"
       inkscape:collect="always" />
    <radialGradient
       id="gradientCoconut"
       xlink:href="#gradientStopsCoconut"
       cx="1.944096"
       cy="-60.612652"
       fx="1.944096"
       fy="-60.612652"
       r="6.723294"
       gradientUnits="userSpaceOnUse"
       gradientTransform="matrix(1.691364,-0.31394812,0.29762395,1.603419,17.826033,-7.042221)"
       inkscape:collect="always" />
    <radialGradient
       id="gradientFlower"
       xlink:href="#gradientStopsFlower"
       cx="60.884877"
       cy="-69.652750"
       fx="60.884877"
       fy="-69.652750"
       r="15.835310"
       gradientUnits="userSpaceOnUse"
       gradientTransform="matrix(0.8413905,0,0,0.87120012,-50.722984,-48.679159)"
       inkscape:collect="always" />
    <radialGradient
       id="gradientJellyfish"
       xlink:href="#gradientStopsJellyfish"
       cx="120.453410"
       cy="-112.943900"
       fx="120.453410"
       fy="-112.943900"
       r="10.580511"
       gradientUnits="userSpaceOnUse"
       gradientTransform="matrix(1.1662998,0.0435575,-0.04526952,1.2121402,-145.14628,17.080499)"
       inkscape:collect="always" />
  </defs>
  <sodipodi:namedview
     id="base"
     pagecolor="#ffffff"
     bordercolor="#666666"
     borderopacity="1.0"
     inkscape:pageopacity="0.0"
     inkscape:pageshadow="2"
     inkscape:zoom="2"
     inkscape:cx="42.37643"
     inkscape:cy="185.04449"
     inkscape:document-units="in"
     showgrid="true"
     units="in"
     inkscape:window-width="1392"
     inkscape:window-height="836"
     inkscape:window-x="39"
     inkscape:window-y="6"
     inkscape:window-maximized="0"
     inkscape:snap-grids="true"
     inkscape:snap-to-guides="true"
     inkscape:snap-nodes="true"
     inkscape:object-nodes="true"
     inkscape:snap-smooth-nodes="true"
     inkscape:snap-intersection-paths="true"
     inkscape:object-paths="true"
     inkscape:snap-bbox="true"
     inkscape:bbox-nodes="true"
     inkscape:snap-others="true"
     inkscape:bbox-paths="false"
     inkscape:snap-global="false"
     inkscape:current-layer="resources_layer">
    <inkscape:grid
       type="xygrid"
       id="grid3051"
       empspacing="2"
       visible="true"
       enabled="true"
       snapvisiblegridlinesonly="true"
       spacingx="0.0625in"
       spacingy="0.0625in"
       dotted="false"
       units="in" />
  </sodipodi:namedview>
  <g
     inkscape:groupmode="layer"
     id="water_layer"
     inkscape:label="Water"
     style="display:inline"
     sodipodi:insensitive="true">
    <rect
       id="water"
       style="fill:#b9deff;fill-opacity:1;stroke:none"
       x="0"
       y="0"
       width="247.5"
       height="337.5" />
  </g>
  <g
     inkscape:groupmode="layer"
     id="water_shallow_layer"
     inkscape:label="Water Shallow"
     style="display:inline"
     sodipodi:insensitive="true">
    <path
       style="fill:#9bd1ff;fill-opacity:0.70;fill-rule:evenodd;stroke:none;filter:url(#blurWaterShallow)"
       d="m -11.25,-11.25 0,180 22.5,0 5.625,0 11.25,-11.25 33.75,-39.375 22.5,-11.25 L 101.25,90 118.125,67.5 146.25,56.25 l 28.125,0 22.5,11.25 16.875,22.5 5.625,33.75 -5.625,28.125 5.625,16.875 16.875,0 22.5,0 0,-180 z m 73.125,40 31.875,5.5 22.625,15.25 -16.125,23.5 -20,1.625 -23.875,-9.75 -2.75,-13.25 0.5,-12.875 z"
       inkscape:connector-curvature="0"
       id="path166" />
  </g>
  <g
     inkscape:groupmode="layer"
     id="water_deep_layer"
     inkscape:label="Water Deep"
     style="display:inline"
     sodipodi:insensitive="true">
    <path
       style="fill:#87c8ff;fill-opacity:0.60;fill-rule:evenodd;stroke:none;filter:url(#blurWaterDeep)"
       d="m -11.25,-11.25 0,112.5 22.5,0 8.25,0.25 L 37,96.5 49.5,85 34.5,75 27,56 31.5,33.5 45,23.5 l 24.5,-2 21.5,2 21.5,3 12,6.5 7.875,5.5 11.125,-7 19,-4 20,4.5 22,10 15.5,17.5 7,23.5 9.25,18.25 22.5,0 0,-112.5 z"
       inkscape:connector-curvature="0"
       id="path169" />
  </g>
  <g
     inkscape:groupmode="layer"
     id="water_hilight_layer"
     inkscape:label="Water Hilight"
     style="display:inline"
     sodipodi:insensitive="true">
    <use
       xlink:href="#shoreline"
       height="100%"
       width="100%"
       x="0"
       y="0"
       style="display:inline;fill:#ffffff;fill-opacity:1;stroke:#ffffff;stroke-opacity:1;filter:url(#blurWaterHilight)"
       id="use172" />
  </g>
  <g
     inkscape:groupmode="layer"
     id="land_layer"
     inkscape:label="Land"
     style="display:inline"
     sodipodi:insensitive="true">
    <use
       xlink:href="#shoreline"
       height="100%"
       width="100%"
       x="0"
       y="0"
       style="display:inline;fill:#ffddab;fill-opacity:1;stroke:none;stroke-width:1;stroke-miterlimit:4;stroke-dasharray:none;stroke-opacity:1"
       id="use175" />
  </g>
  <g
     inkscape:groupmode="layer"
     id="land_texture_layer"
     inkscape:label="Land Texture"
     style="display:inline"
     sodipodi:insensitive="true">
    <use
       xlink:href="#shoreline"
       height="100%"
       width="100%"
       x="0"
       y="0"
       style="display:inline;fill:#ffca7d;fill-opacity:1;stroke:none;stroke-width:1;stroke-miterlimit:4;stroke-dasharray:none;stroke-opacity:1;filter:url(#textureLand)"
       id="use178" />
  </g>
  <g
     inkscape:groupmode="layer"
     id="shoreline_layer"
     inkscape:label="Shoreline"
     style="display:inline"
     sodipodi:insensitive="true">
    <use
       xlink:href="#shoreline"
       height="100%"
       width="100%"
       x="0"
       y="0"
       style="display:inline;fill:none;fill-opacity:1;stroke:#5f4c14;stroke-width:1;stroke-miterlimit:4;stroke-dasharray:none;stroke-opacity:1"
       id="use181" />
  </g>
  <g
     inkscape:groupmode="layer"
     id="shoreline_master_layer"
     inkscape:label="Shoreline Master"
     style="display:none"
     sodipodi:insensitive="true">
    <path
       id="shoreline"
       style="color:#000000;clip-rule:nonzero;display:inline;overflow:visible;visibility:visible;opacity:1;isolation:auto;mix-blend-mode:normal;color-interpolation:sRGB;color-interpolation-filters:linearRGB;solid-color:#000000;solid-opacity:1;fill-opacity:1;fill-rule:evenodd;filter:url(#roughenShoreline);color-rendering:auto;image-rendering:auto;shape-rendering:auto;text-rendering:auto;enable-background:accumulate"
       d="m 62.11719,36.597656 c -7.51024,8.215996 0.5397,13.405822 -1.71094,17.673828 0,0 4.81265,3.139506 8.80664,4.597656 l 10.42969,-1.78711 c 2.21844,0.7708 7.03906,-2.61719 7.03906,-2.61719 C 86.57912,42.773027 74.3457,42.660156 74.3457,42.660156 Z m 43.54492,85.890624 c -6.781736,-0.2563 -9.899726,19.83867 -17.22461,16.92969 -5.89213,-2.33998 -19.230288,11.00256 -25.486328,8.67969 C 57.184062,145.95633 45.526679,174.86694 33.75,180 20.06421,185.96518 21.929089,215.85965 16.375,216.75 L 0,219.375 l -22.5,0 0,140.625 292.5,0 0,-140.625 -22.5,0 c -5.41347,-2.375 -11.49074,-1.75 -16.875,0 L 225,213.75 c -7.95495,-7.95495 -17.0972,-7.27223 -22.97852,-12.29102 -9.48161,-8.09108 -8.5841,-19.74754 -12.38281,-21.7871 -7.78071,-4.17753 13.71928,-23.13436 1.42383,-29.3086 -6.78062,-3.40493 0.91218,-11.10937 1.63672,-14.81445 1.47735,-7.55483 -4.13949,-4.58524 -8.93164,-13.17969 -4.75604,-8.52969 -12.50074,1.75124 -13.15235,-5.45898 -1.01744,-7.62262 -11.60396,2.98788 -24.85742,-8.57032 -2.13728,-13.63687 -14.52488,8.83382 -14.24219,-0.28711 0.20897,-6.74203 -17.396,17.82196 -24.44726,14.76954 -0.48703,-0.21083 -0.95413,-0.3169 -1.40625,-0.33399 z"
       inkscape:connector-curvature="0" />
  </g>
  <g
     inkscape:groupmode="layer"
     id="grass_layer"
     inkscape:label="Grass"
     style="display:inline"
     sodipodi:insensitive="true">
    <use
       xlink:href="#grass"
       height="100%"
       width="100%"
       x="0"
       y="0"
       style="display:inline;fill:#b4e982;fill-opacity:1;stroke:none;stroke-width:1;stroke-miterlimit:4;stroke-dasharray:none;stroke-opacity:1"
       id="use186" />
  </g>
  <g
     inkscape:groupmode="layer"
     id="grass_texture1_layer"
     inkscape:label="Grass Texture Big"
     style="display:inline"
     sodipodi:insensitive="true">
    <use
       xlink:href="#grass"
       height="100%"
       width="100%"
       x="0"
       y="0"
       style="display:inline;fill:#a7e46a;fill-opacity:1;stroke:none;stroke-width:1;stroke-miterlimit:4;stroke-dasharray:none;stroke-opacity:1;filter:url(#textureGrassBig)"
       id="use189" />
  </g>
  <g
     inkscape:groupmode="layer"
     id="grass_texture2_layer"
     inkscape:label="Grass Texture Small"
     style="display:inline"
     sodipodi:insensitive="true">
    <use
       xlink:href="#grass"
       height="100%"
       width="100%"
       x="0"
       y="0"
       style="display:inline;fill:#8cdd3d;fill-opacity:1;stroke:none;stroke-width:1;stroke-miterlimit:4;stroke-dasharray:none;stroke-opacity:1;filter:url(#textureGrassSmall)"
       id="use192" />
  </g>
  <g
     inkscape:groupmode="layer"
     id="grass_master_layer"
     inkscape:label="Grass Master"
     style="display:none"
     sodipodi:insensitive="true">
    <path
       id="grass"
       style="color:#000000;clip-rule:nonzero;display:inline;overflow:visible;visibility:visible;opacity:1;isolation:auto;mix-blend-mode:normal;color-interpolation:sRGB;color-interpolation-filters:linearRGB;solid-color:#000000;solid-opacity:1;fill-opacity:1;fill-rule:evenodd;filter:url(#blurGrass);color-rendering:auto;image-rendering:auto;shape-rendering:auto;text-rendering:auto;enable-background:accumulate"
       d="m 151.875,163.125 -28.125,11.25 -22.5,-5.625 -28.125,0 0,16.875 -33.75,16.875 0,16.875 -16.875,16.875 -11.25,0 -22.5,0 0,112.5 270,0 0,-112.5 -22.5,0 -16.875,-5.625 -11.25,-11.25 L 191.25,202.5 180,180 174.375,163.125 Z"
       inkscape:connector-curvature="0" />
  </g>
  <g
     inkscape:groupmode="layer"
     id="forest_shadow_layer"
     inkscape:label="Forest Shadow"
     style="display:inline"
     sodipodi:insensitive="true">
    <g
       style="filter:url(#blurForestShadow)"
       id="g197">
      <use
         xlink:href="#forest"
         height="100%"
         width="100%"
         x="0"
         y="0"
         style="display:inline;opacity:0.75;fill:#258c1b;fill-opacity:1;filter:url(#roughenForest)"
         id="use199" />
    </g>
  </g>
  <g
     inkscape:groupmode="layer"
     id="forest_fill_layer"
     inkscape:label="Forest Fill"
     style="display:inline"
     sodipodi:insensitive="true">
    <use
       xlink:href="#forest"
       height="100%"
       width="100%"
       x="0"
       y="0"
       style="fill:#83d700;fill-opacity:1;stroke:none;stroke-width:1.5;stroke-miterlimit:4;stroke-dasharray:none;stroke-opacity:1;filter:url(#roughenForest)"
       id="use202" />
  </g>
  <g
     inkscape:groupmode="layer"
     id="forest_texture_big_layer"
     inkscape:label="Forest Texture Big"
     style="display:inline"
     sodipodi:insensitive="true">
    <g
       style="filter:url(#textureForestBig)"
       id="g205">
      <use
         xlink:href="#forest"
         height="100%"
         width="100%"
         x="0"
         y="0"
         style="fill:#548c00;fill-opacity:1;stroke:none;stroke-width:1.5;stroke-miterlimit:4;stroke-dasharray:none;stroke-opacity:1;filter:url(#roughenForest)"
         id="use207" />
    </g>
  </g>
  <g
     inkscape:groupmode="layer"
     id="forest_texture_small_layer"
     inkscape:label="Forest Texture Small"
     style="display:inline"
     sodipodi:insensitive="true">
    <g
       style="filter:url(#textureForestSmall)"
       id="g210">
      <use
         xlink:href="#forest"
         height="100%"
         width="100%"
         x="0"
         y="0"
         style="fill:#78c125;fill-opacity:1;stroke:none;stroke-width:1;stroke-miterlimit:4;stroke-dasharray:none;stroke-opacity:1;filter:url(#roughenForest)"
         id="use212" />
    </g>
  </g>
  <g
     inkscape:groupmode="layer"
     id="forest_outline_layer"
     inkscape:label="Forest Outline"
     style="display:inline"
     sodipodi:insensitive="true">
    <use
       xlink:href="#forest"
       height="100%"
       width="100%"
       x="0"
       y="0"
       style="fill:none;fill-opacity:1;stroke:#006800;stroke-width:1.5;stroke-miterlimit:4;stroke-dasharray:none;stroke-opacity:1;filter:url(#roughenForest)"
       id="use215" />
  </g>
  <g
     inkscape:groupmode="layer"
     id="forest_master_layer"
     inkscape:label="Forest Master"
     style="display:none"
     sodipodi:insensitive="true">
    <path
       id="forest"
       style="color:#000000;clip-rule:nonzero;display:inline;overflow:visible;visibility:visible;opacity:1;isolation:auto;mix-blend-mode:normal;color-interpolation:sRGB;color-interpolation-filters:linearRGB;solid-color:#000000;solid-opacity:1;fill-opacity:1;fill-rule:nonzero;color-rendering:auto;image-rendering:auto;shape-rendering:auto;text-rendering:auto;enable-background:accumulate"
       d="M 80,212.25 A 6.5,5.75 0 0 0 74.984375,214.34766 6.5,5.75 0 0 0 70.5,212.75 6.5,5.75 0 0 0 64,218.5 6.5,5.75 0 0 0 67.902344,223.76758 6.5,5.75 0 0 0 67.5,223.75 6.5,5.75 0 0 0 61,229.5 a 6.5,5.75 0 0 0 1.335938,3.48438 6.5,5.75 0 0 0 -2.546876,2.27148 6.5,5.75 0 0 0 -5.115234,2.45312 A 6.5,5.75 0 0 0 49,234.75 6.5,5.75 0 0 0 42.5,240.5 6.5,5.75 0 0 0 42.51758,240.91602 6.5,5.75 0 0 0 41,240.75 6.5,5.75 0 0 0 35.052734,244.18945 6.5,5.75 0 0 0 31.5,243.25 6.5,5.75 0 0 0 25,249 a 6.5,5.75 0 0 0 2.634766,4.61523 l -3.195313,3.19532 A 6.5,5.75 0 0 0 20,255.25 a 6.5,5.75 0 0 0 -5.980469,3.5 l -2.769531,0 -22.5,0 0,90 129.375,0 0,-22.5 0,-6.31055 a 6.5,5.75 0 0 0 0.64258,-0.54687 6.5,5.75 0 0 1 -4.22656,-4.79492 A 6.5,5.75 0 0 1 109.5,309 6.5,5.75 0 0 1 109.7168,307.55859 6.5,5.75 0 0 0 105,305.75 6.5,5.75 0 0 0 101.85938,306.47266 6.5,5.75 0 0 0 102.5,304 6.5,5.75 0 0 0 98.888672,298.85547 l 3.529298,-5.29297 a 6.5,5.75 0 0 0 3.08203,0.6875 6.5,5.75 0 0 0 6.5,-5.75 6.5,5.75 0 0 0 -6.5,-5.75 6.5,5.75 0 0 0 -0.66992,0.0371 l -0.68164,-1.36523 A 6.5,5.75 0 0 0 106.5,277 a 6.5,5.75 0 0 0 -6.5,-5.75 6.5,5.75 0 0 0 -4.419922,1.54102 l -0.18164,-0.0918 A 6.5,5.75 0 0 0 96.5,269.5 6.5,5.75 0 0 0 90,263.75 l 0,-9.78516 A 6.5,5.75 0 0 0 94.5,248.5 6.5,5.75 0 0 0 88.423828,242.76953 l -0.1875,-0.56055 A 6.5,5.75 0 0 0 92,237 a 6.5,5.75 0 0 0 -6.5,-5.75 6.5,5.75 0 0 0 -0.896484,0.0606 L 84.375,230.625 l 0,-1.2168 A 6.5,5.75 0 0 0 87.5,224.5 6.5,5.75 0 0 0 85.78125,220.61523 6.5,5.75 0 0 0 86.5,218 6.5,5.75 0 0 0 80,212.25 Z m -8.054688,11.84961 -0.251953,1.00586 A 6.5,5.75 0 0 0 70.097656,224.23242 6.5,5.75 0 0 0 70.5,224.25 6.5,5.75 0 0 0 71.945312,224.09961 Z M 122.5,224.25 A 6.5,5.75 0 0 0 116,230 6.5,5.75 0 0 0 116.16602,231.25977 6.5,5.75 0 0 0 113.5,230.75 a 6.5,5.75 0 0 0 -6.5,5.75 6.5,5.75 0 0 0 6.5,5.75 6.5,5.75 0 0 0 0.76562,-0.0469 l -0.92578,2.7793 A 6.5,5.75 0 0 0 110,250 a 6.5,5.75 0 0 0 6.5,5.75 6.5,5.75 0 0 0 0.95703,-0.0684 6.5,5.75 0 0 0 -2.95703,4.8184 6.5,5.75 0 0 0 6.5,5.75 6.5,5.75 0 0 0 3.63477,-0.99023 l 1.55859,1.55859 A 6.5,5.75 0 0 0 122.5,272 a 6.5,5.75 0 0 0 6.5,5.75 6.5,5.75 0 0 0 2.77344,-0.55664 l 0.47265,1.41797 A 6.5,5.75 0 0 0 128,284 a 6.5,5.75 0 0 0 6.04883,5.73047 l -0.67578,2.02344 A 6.5,5.75 0 0 0 127,297.5 a 6.5,5.75 0 0 0 1.34375,3.49609 6.5,5.75 0 0 0 -1.08789,1.32813 A 6.5,5.75 0 0 1 130,307 a 6.5,5.75 0 0 1 -0.75391,2.67969 6.5,5.75 0 0 0 3.62696,1.06445 l 0.58007,1.16211 A 6.5,5.75 0 0 0 133,314 a 6.5,5.75 0 0 0 0.98242,3.0332 l -0.38867,0.7793 A 6.5,5.75 0 0 0 128,323.5 a 6.5,5.75 0 0 0 1.375,3.5332 l 0,21.7168 129.375,0 0,-90 -20.06641,0 a 6.5,5.75 0 0 0 -6.18359,-4 6.5,5.75 0 0 0 -0.24219,0.008 l -1.63281,-1.63281 -0.12891,-0.0644 A 6.5,5.75 0 0 0 230.5,253 6.5,5.75 0 0 0 224,247.25 6.5,5.75 0 0 0 221.79102,247.59766 6.5,5.75 0 0 0 222.5,245 6.5,5.75 0 0 0 216,239.25 6.5,5.75 0 0 0 211.9707,240.48828 6.5,5.75 0 0 0 205.5,235.25 6.5,5.75 0 0 0 199,241 a 6.5,5.75 0 0 0 0.0801,0.875 l -1.08399,0 A 6.5,5.75 0 0 0 191.5,236.25 6.5,5.75 0 0 0 185,242 a 6.5,5.75 0 0 0 2.95703,4.81445 l -2.85547,4.28321 A 6.5,5.75 0 0 0 179.5,248.25 a 6.5,5.75 0 0 0 -4.10352,1.29492 L 174.375,247.5 173.30664,245.36133 A 6.5,5.75 0 0 0 175,241.5 a 6.5,5.75 0 0 0 -6.5,-5.75 6.5,5.75 0 0 0 -1.36719,0.13672 A 6.5,5.75 0 0 0 167.5,234 a 6.5,5.75 0 0 0 -6.5,-5.75 6.5,5.75 0 0 0 -6.5,5.75 6.5,5.75 0 0 0 0.52539,2.25 l -2.54492,0 A 6.5,5.75 0 0 0 153,234 a 6.5,5.75 0 0 0 -6.5,-5.75 6.5,5.75 0 0 0 -3.22266,0.76367 A 6.5,5.75 0 0 0 137,224.75 a 6.5,5.75 0 0 0 -6.5,5.75 6.5,5.75 0 0 0 0.004,0.125 l -1.54493,0 A 6.5,5.75 0 0 0 129,230 a 6.5,5.75 0 0 0 -6.5,-5.75 z m 13,15.5 a 6.75,6.75 0 0 1 1.875,0.26953 6.75,6.75 0 0 0 -2.17969,1.82031 6.75,6.75 0 0 0 -1.23437,-1.90625 A 6.75,6.75 0 0 1 135.5,239.75 Z m -9.36328,13.06445 A 6.75,6.75 0 0 0 128.5,253.25 a 6.75,6.75 0 0 0 0.14648,-0.006 6.75,6.75 0 0 0 -0.37695,1.87109 6.75,6.75 0 0 1 -2.13281,-2.30078 z m 26.70312,10.38672 A 6.75,6.75 0 0 0 155.5,263.75 a 6.75,6.75 0 0 0 0.80664,-0.0566 6.75,6.75 0 0 0 -1.48828,3.40039 6.75,6.75 0 0 0 -1.57813,-1.83594 6.75,6.75 0 0 0 -0.40039,-2.05664 z m -90.205074,0.51758 A 6.75,6.75 0 0 0 69,268.25 6.75,6.75 0 0 0 69.146484,268.24414 6.75,6.75 0 0 0 68.75,270.5 a 6.75,6.75 0 0 0 1.066406,3.64062 6.75,6.75 0 0 0 -0.835937,0.98243 6.75,6.75 0 0 0 -4.722657,-4.63282 6.75,6.75 0 0 0 -3.787109,-2.94531 6.75,6.75 0 0 0 2.164063,-3.82617 z m -31.289063,6.10742 a 6.75,6.75 0 0 0 -0.855469,1.91602 6.75,6.75 0 0 0 -1.949218,1.80078 6.75,6.75 0 0 1 2.804687,-3.7168 z m 14.316406,0.84375 a 6.75,6.75 0 0 0 1.97461,1.14453 6.75,6.75 0 0 0 -3.898438,1.90625 6.75,6.75 0 0 0 0.01172,-0.2207 6.75,6.75 0 0 0 -0.285156,-1.91992 6.75,6.75 0 0 0 2.197265,-0.91016 z m 132.105471,0.58789 a 6.75,6.75 0 0 0 0.21094,0.24024 6.75,6.75 0 0 0 -2.2168,4.75976 6.75,6.75 0 0 0 -0.63672,0.0566 6.75,6.75 0 0 0 -1.6543,-0.76953 6.75,6.75 0 0 0 2.16992,-3.86328 6.75,6.75 0 0 1 2.12696,-0.42383 z m -22.08594,0.14844 a 6.75,6.75 0 0 0 0.76953,1.0625 6.75,6.75 0 0 1 -0.71484,0.82422 6.75,6.75 0 0 0 -0.58203,-0.0352 6.75,6.75 0 0 0 0.52734,-1.85156 z m -103.628906,0.51563 a 6.75,6.75 0 0 0 -0.478515,0.57617 6.75,6.75 0 0 0 -0.710938,-0.3125 6.75,6.75 0 0 0 1.189453,-0.26367 z m 29.478516,1.59179 A 6.75,6.75 0 0 1 83.25,278 a 6.75,6.75 0 0 1 -0.214844,1.65234 6.75,6.75 0 0 0 -1.888672,-1.82422 6.75,6.75 0 0 0 -0.96289,-2.46874 6.75,6.75 0 0 0 1.347656,-1.84571 z m 77.25781,0.66406 a 6.75,6.75 0 0 0 2.06836,0.54102 6.75,6.75 0 0 0 -0.43164,1.27734 6.75,6.75 0 0 0 -1.7793,-1.66797 6.75,6.75 0 0 1 0.14258,-0.15039 z m -14.58984,1.94336 a 6.75,6.75 0 0 0 1.28711,0.12891 6.75,6.75 0 0 0 3.35937,0.99219 6.75,6.75 0 0 0 -0.35156,1.00781 6.75,6.75 0 0 0 -4.30859,1.56836 6.75,6.75 0 0 0 -0.41407,-0.80469 6.75,6.75 0 0 1 -0.0215,-0.51367 6.75,6.75 0 0 1 0.44922,-2.37891 z m 17.375,5.38086 a 6.75,6.75 0 0 0 0.0215,0.0273 6.75,6.75 0 0 0 -0.0312,0.01 6.75,6.75 0 0 0 0.01,-0.0371 z m -125.802736,2.50977 a 6.75,6.75 0 0 0 0.06055,0.49805 6.75,6.75 0 0 0 -0.0625,0.58789 6.75,6.75 0 0 0 -1.519531,-0.60938 6.75,6.75 0 0 0 -0.0098,-0.24805 6.75,6.75 0 0 0 1.53125,-0.22851 z m 154.216796,3.40625 a 6.75,6.75 0 0 0 2.50977,1.15625 6.75,6.75 0 0 0 -1.85157,2.07422 6.75,6.75 0 0 1 -1.66601,-2.11133 6.75,6.75 0 0 0 1.00781,-1.11914 z m -47.67383,0.26367 A 6.75,6.75 0 0 0 148.5,291.75 a 6.75,6.75 0 0 0 0.51367,-0.0215 6.75,6.75 0 0 1 -0.0996,0.36132 6.75,6.75 0 0 1 2.07422,-0.33984 6.75,6.75 0 0 0 -0.18555,0.94922 A 6.75,6.75 0 0 0 149.25,297 a 6.75,6.75 0 0 0 6.75,6.75 6.75,6.75 0 0 0 1.26758,-0.125 6.75,6.75 0 0 0 -0.0176,0.375 6.75,6.75 0 0 0 6.75,6.75 6.75,6.75 0 0 0 0.34766,-0.0137 6.75,6.75 0 0 0 -0.59766,2.76367 6.75,6.75 0 0 0 0.37305,2.18555 6.75,6.75 0 0 1 -5.86719,-6.53321 A 6.75,6.75 0 0 1 155.5,309.75 6.75,6.75 0 0 1 149.04688,304.95898 6.75,6.75 0 0 1 144.25,298.5 6.75,6.75 0 0 1 144.58594,296.41016 6.75,6.75 0 0 1 142.5,296.75 6.75,6.75 0 0 1 135.75,290 6.75,6.75 0 0 1 135.84961,288.89258 6.75,6.75 0 0 0 138,289.25 a 6.75,6.75 0 0 0 4.31445,-1.56836 z m -81.566403,0.35156 a 6.75,6.75 0 0 0 3.339844,3.54688 6.75,6.75 0 0 0 0.804687,1.66797 A 6.75,6.75 0 0 0 63.75,297 6.75,6.75 0 0 0 66.810547,302.64453 6.75,6.75 0 0 0 66.75,303.5 6.75,6.75 0 0 0 67.330078,306.2168 6.75,6.75 0 0 1 63.453125,304.47656 6.75,6.75 0 0 0 63.75,302.5 6.75,6.75 0 0 0 61.548828,297.52539 6.75,6.75 0 0 1 62.740234,295.2793 6.75,6.75 0 0 1 60.75,290.5 6.75,6.75 0 0 1 60.792969,289.76758 6.75,6.75 0 0 1 60.646484,289.63867 6.75,6.75 0 0 0 60.75,288.5 6.75,6.75 0 0 0 60.7402,288.21484 6.75,6.75 0 0 0 60.748,288.0332 Z m -35.865235,2.6875 a 6.75,6.75 0 0 0 0.867188,0.29102 6.75,6.75 0 0 0 0.06055,0.82617 6.75,6.75 0 0 1 -0.927735,-1.11719 z m 152.441408,0.93164 a 6.75,6.75 0 0 0 0.66211,0.37891 6.75,6.75 0 0 1 -0.4375,0.36133 6.75,6.75 0 0 0 -0.22461,-0.74024 z M 38.878906,293.1875 a 6.75,6.75 0 0 0 0.375,0.23047 6.75,6.75 0 0 0 -0.0039,0.082 6.75,6.75 0 0 0 3.710938,6.01953 6.75,6.75 0 0 0 -0.970704,1.42383 6.75,6.75 0 0 1 -4.634765,-5.26563 6.75,6.75 0 0 0 1.523437,-2.49023 z m 150.964844,1.92969 a 6.75,6.75 0 0 0 0.11719,0.53125 6.75,6.75 0 0 0 -1.21094,3.85156 6.75,6.75 0 0 0 1,3.52539 6.75,6.75 0 0 0 0.34766,2.08594 A 6.75,6.75 0 0 1 187.75,300 a 6.75,6.75 0 0 1 2.09375,-4.88281 z m -19.99609,5.52734 A 6.75,6.75 0 0 0 171,300.75 a 6.75,6.75 0 0 0 0.25781,-0.0137 6.75,6.75 0 0 0 0.0215,0.34375 6.75,6.75 0 0 0 -0.94336,0.60937 6.75,6.75 0 0 0 -0.48828,-1.04492 z m 41.62695,0.79297 A 6.75,6.75 0 0 0 213.5,301.75 6.75,6.75 0 0 0 215.22461,301.52148 6.75,6.75 0 0 1 208.5,307.75 a 6.75,6.75 0 0 1 -5.51953,-2.87891 6.75,6.75 0 0 0 0.23828,-1.22851 A 6.75,6.75 0 0 0 206,304.25 a 6.75,6.75 0 0 0 5.47461,-2.8125 z m -136.701172,8.68555 a 6.75,6.75 0 0 0 0.02148,0.0137 6.75,6.75 0 0 1 -0.04687,-0.008 6.75,6.75 0 0 0 0.02539,-0.006 z m 107.783202,10.33984 a 6.75,6.75 0 0 0 0.52344,0.13281 6.75,6.75 0 0 0 1.16406,0.81641 A 6.75,6.75 0 0 1 181,322.25 a 6.75,6.75 0 0 1 -0.83398,-0.0566 6.75,6.75 0 0 0 2.39062,-1.73047 z"
       inkscape:connector-curvature="0" />
  </g>
  <g
     inkscape:groupmode="layer"
     id="routes_layer"
     inkscape:label="Routes"
     style="display:inline"
     sodipodi:insensitive="true">
    <path
       style="display:inline;fill:none;stroke:#000000;stroke-width:2;stroke-linecap:round;stroke-miterlimit:4;stroke-dasharray:0.1, 5;stroke-dashoffset:0;stroke-opacity:1"
       d="m 123.75,0 0,11.25 c 0,3.75 0.13119,33.260295 -9.52082,45.029067 -19.342553,23.584545 -4.56691,56.767313 2.56929,68.192013 4.19384,-14.68254 1.60731,-29.01462 8.6354,-40.71498 10.46279,-17.418451 27.51818,-24.362798 41.81613,-18.1311 16.81929,7.330613 18.15037,13.462988 29.88173,30.58515 10.14711,14.80991 21.48741,21.91485 33.49327,21.91485 l 16.875,0 M 123.75,337.5 l 0,-11.25 c 0,-5.625 -0.10718,-32.26507 -7.74806,-44.05585 C 106.5877,267.66686 99.457233,244.859 97.729185,231.57969 93.547386,199.44436 116.73766,170.42645 120.96284,151.79679 126.81223,126.00568 104.14872,107.33265 69.69545,104.30172 40.235243,101.71004 35.010407,118.125 16.875,118.125 l -16.875,0"
       inkscape:connector-curvature="0"
       id="path220" />
  </g>
  <g
     inkscape:groupmode="layer"
     id="labels_layer"
     inkscape:label="Labels"
     style="display:inline"
     sodipodi:insensitive="true">
    <text
       xml:space="preserve"
       id="text223"><textPath
         xlink:href="#port_end"
         id="textPath225"><tspan
   style="-inkscape-font-specification:'CCTreasureTroveAged Mod, Normal';font-family:'CCTreasureTroveAged Mod';font-weight:normal;font-style:normal;font-stretch:normal;font-variant:normal;font-size:8.75px;text-anchor:start;text-align:start;writing-mode:lr;line-height:125%"
   id="tspan227">Port End</tspan></textPath></text>
  </g>
  <g
     inkscape:groupmode="layer"
     id="labels_guide_layer"
     inkscape:label="Labels Guide"
     style="display:none"
     sodipodi:insensitive="true">
    <path
       id="port_end"
       style="color:#000000;fill:none;stroke:#000000;stroke-width:1;stroke-opacity:1"
       d="M 86.256906,119.87001 C 73.187275,125.59253 51.690477,136.6571 38.167289,153.55798"
       inkscape:connector-curvature="0" />
  </g>
  <g
     inkscape:groupmode="layer"
     id="resources_layer"
     inkscape:label="Resources"
     style="display:inline">
    <g
       id="resource-pineapple"
       transform="matrix(-0.90275515,0.43015479,-0.43015479,-0.90275515,66.845227,23.57217)">
      <circle
         cx="0.060593002"
         cy="-110.10999"
         r="19"
         style="opacity:1;fill:#ffffff;fill-opacity:1;stroke:#000000;stroke-width:0.89999998;stroke-linecap:round;stroke-linejoin:round;stroke-miterlimit:4;stroke-dasharray:none;stroke-dashoffset:0;stroke-opacity:1"
         id="circle233" />
      <g
         id="g235">
        <path
           style="color:#000000;clip-rule:nonzero;display:inline;overflow:visible;visibility:visible;opacity:1;isolation:auto;mix-blend-mode:normal;color-interpolation:sRGB;color-interpolation-filters:linearRGB;solid-color:#000000;solid-opacity:1;fill:#12d412;fill-opacity:1;fill-rule:evenodd;stroke:#000000;stroke-width:0.89999998;stroke-linecap:round;stroke-linejoin:miter;stroke-miterlimit:4;stroke-dasharray:none;stroke-dashoffset:0;stroke-opacity:1;color-rendering:auto;image-rendering:auto;shape-rendering:auto;text-rendering:auto;enable-background:accumulate"
           d="m 1.60156,-126.85938 c -0.36816,0.89627 -0.65117,2.26266 -0.81445,3.75586 -0.46343,-1.48903 -1.12834,-2.68315 -1.97656,-3.57617 0.0257,1.23409 0.13016,2.79792 0.26757,4.52344 -0.36941,-0.60113 -0.76709,-1.13198 -1.18945,-1.51953 0.0312,0.52933 0.0693,1.12994 0.125,1.77148 -1.05341,-1.32608 -2.2808,-2.02215 -3.52734,-2.57617 1.20446,1.90706 2.6487,4.21985 3.17578,6.1582 -1.54731,-1.36782 -3.35936,-2.13235 -4.65625,-2.24609 1.88521,1.70135 3.06165,2.62635 4.32031,4.38867 -1.8453,-0.67649 -3.75342,-0.73974 -4.96094,-0.48047 1.98868,0.79386 3.7013,1.85704 5.11719,3.23047 -1.40418,-0.25598 -2.50175,0.17732 -3.66797,0.73242 2.27558,0.24417 3.64128,0.76417 4.93164,1.13868 l 1.01172,-0.96485 c -0.61366,-0.3661 -1.16396,-0.6055 -1.67578,-0.76367 l 1.75195,-1.48242 c -0.46155,-0.38582 -0.96259,-0.68989 -1.47656,-0.95508 l 0.86133,-0.58984 c 0.0651,0.17694 0.12114,0.34941 0.19336,0.52929 l 1.96289,-1.05468 c -0.21445,-0.64444 -0.50995,-1.44777 -0.83984,-2.27735 l 0.69531,-0.27148 c -0.0546,0.29808 -0.10862,0.59614 -0.15235,0.91797 l 0.67969,0.0156 c -0.0948,0.35621 -0.16965,0.72 -0.21093,1.09375 l 0.7207,0.33398 c -0.32118,0.46889 -0.60879,0.93943 -0.81055,1.39844 l 1.16211,0.83789 c -0.22862,0.2522 -0.4414,0.52066 -0.63086,0.80664 l 0.66406,1.41797 c -0.099,0.10935 -0.20151,0.21248 -0.29101,0.3457 L 2.37695,-111 c 1.36745,-0.74524 2.98116,-1.47776 4.98828,-1.81445 -1.40868,-0.55163 -2.65818,-0.8038 -3.6582,-0.46289 1.39038,-1.6397 3.52907,-2.78693 5.02149,-3.85743 -1.45556,-0.27322 -3.21935,0.17176 -4.70118,1.15235 1.14954,-2.04356 3.05591,-4.14017 4.22266,-5.47461 -1.2538,0.14729 -2.71382,1.01308 -3.99219,2.16211 0.57839,-1.83619 1.35069,-3.66217 1.81836,-4.9043 -0.85298,0.63603 -1.63122,1.34347 -2.30078,2.11133 0.10164,-1.29098 0.15025,-2.60136 0.13477,-3.70117 -0.53955,0.80089 -1.04461,1.6363 -1.48828,2.58593 -0.11478,-1.3294 -0.36407,-2.64913 -0.82032,-3.65625 z m -3.08594,8.20313 c 0.13752,0.59339 0.30603,1.2074 0.52149,1.8457 -0.36577,-0.4988 -0.76332,-0.95863 -1.19531,-1.35937 l 0.67382,-0.48633 z"
           inkscape:connector-curvature="0"
           id="path237" />
        <path
           style="color:#000000;clip-rule:nonzero;display:inline;overflow:visible;visibility:visible;opacity:1;isolation:auto;mix-blend-mode:normal;color-interpolation:sRGB;color-interpolation-filters:linearRGB;solid-color:#000000;solid-opacity:1;fill:#ff8f2c;fill-opacity:1;fill-rule:evenodd;stroke:#000000;stroke-width:1.03194177;stroke-linecap:round;stroke-linejoin:miter;stroke-miterlimit:4;stroke-dasharray:none;stroke-dashoffset:0;stroke-opacity:1;color-rendering:auto;image-rendering:auto;shape-rendering:auto;text-rendering:auto;enable-background:accumulate"
           d="m -4.0409905,-110.15662 c -1.9630663,1.6771 -3.0986308,4.69414 -3.3488922,6.67014 -0.478559,3.778564 0.608356,7.258163 2.6043246,8.901699 2.1779383,1.793377 7.602474,1.882838 9.655624,0.163772 1.9490737,-1.631925 3.0591362,-5.225017 3.0175857,-7.890311 -0.04067,-2.62564 -0.8282349,-6.17264 -2.68931,-7.74821 -2.3583189,-1.99653 -7.0124747,-1.99957 -9.2393321,-0.0971 z"
           inkscape:connector-curvature="0"
           id="path239" />
        <path
           style="color:#000000;font-style:normal;font-variant:normal;font-weight:normal;font-stretch:normal;font-size:medium;line-height:normal;font-family:sans-serif;text-indent:0;text-align:start;text-decoration:none;text-decoration-line:none;text-decoration-style:solid;text-decoration-color:#000000;letter-spacing:normal;word-spacing:normal;text-transform:none;direction:ltr;block-progression:tb;writing-mode:lr-tb;baseline-shift:baseline;text-anchor:start;white-space:normal;clip-rule:nonzero;display:inline;overflow:visible;visibility:visible;opacity:1;isolation:auto;mix-blend-mode:normal;color-interpolation:sRGB;color-interpolation-filters:linearRGB;solid-color:#000000;solid-opacity:1;fill:#000000;fill-opacity:1;fill-rule:evenodd;stroke:none;stroke-width:0.82555348;stroke-linecap:round;stroke-linejoin:miter;stroke-miterlimit:4;stroke-dasharray:none;stroke-dashoffset:0;stroke-opacity:1;color-rendering:auto;image-rendering:auto;shape-rendering:auto;text-rendering:auto;enable-background:accumulate"
           d="m 1.03711,-111.63672 a 0.36003601,0.36003601 0 0 0 -0.29688,0.15625 c -0.17914,0.25293 -0.53563,0.59609 -0.95312,0.96875 l -0.51172,-0.39453 -0.55664,0.4082 c -0.19403,-0.21038 -0.36415,-0.41014 -0.47461,-0.58593 a 0.36003601,0.36003601 0 0 0 -0.29883,-0.17188 0.36003601,0.36003601 0 0 0 -0.31054,0.55664 c 0.22989,0.3659 0.58342,0.75431 0.99414,1.1543 -0.33864,0.27226 -0.70227,0.55684 -1.07227,0.84375 l -0.48437,-0.35938 -0.49024,0.37305 c -0.34337,-0.43352 -0.57815,-0.83255 -0.65039,-1.16406 a 0.36003601,0.36003601 0 0 0 -0.36328,-0.28907 0.36003601,0.36003601 0 0 0 -0.33984,0.44141 c 0.1412,0.64805 0.56858,1.27356 1.1621,1.91016 -0.34542,0.26544 -0.68941,0.53081 -1.02148,0.79297 l -0.36719,-0.41993 -0.55859,0.47461 c -0.0923,-0.17283 -0.15548,-0.33548 -0.1875,-0.48242 a 0.36003601,0.36003601 0 0 0 -0.36328,-0.28906 0.36003601,0.36003601 0 0 0 -0.33985,0.44141 c 0.0923,0.42342 0.31578,0.83813 0.62305,1.2539 -0.0324,0.0278 -0.0717,0.0583 -0.10351,0.0859 -0.51144,0.44363 -0.94159,0.85306 -1.26172,1.24414 a 0.36003601,0.36003601 0 0 0 -0.27539,0.38477 c -0.0252,0.0403 -0.0599,0.0811 -0.082,0.12109 a 0.36062818,0.36062818 0 0 0 0.30665,0.53516 c 0.22155,0.46234 0.56751,0.91351 1,1.36523 -0.57868,0.57258 -1.0788,1.15121 -1.42969,1.73828 a 0.36003601,0.36003601 0 0 0 -0.01,0.38477 0.36003601,0.36003601 0 0 0 -0.004,0.398437 c 0.36315,0.577974 0.95687,1.142417 1.64453,1.697266 -0.20539,0.26185 -0.38844,0.51947 -0.53906,0.771484 a 0.36003601,0.36003601 0 1 0 0.61718,0.369141 c 0.13245,-0.221602 0.30088,-0.455361 0.49414,-0.697266 0.54569,0.404892 1.12714,0.803998 1.72461,1.199219 -0.21854,0.231558 -0.41764,0.461408 -0.60351,0.689453 l -0.56641,-0.347656 -0.61719,0.636719 0.61328,0.49414 c -0.0286,0.0452 -0.0669,0.09172 -0.0937,0.136719 a 0.36092156,0.36092156 0 1 0 0.61915,0.371094 c 0.29011,-0.485385 0.73511,-1.0145 1.26953,-1.566406 0.65267,0.428899 1.27104,0.841745 1.8457,1.240234 -0.24665,0.235474 -0.49168,0.470252 -0.66406,0.683594 l -0.57227,-0.320313 -0.53516,0.636719 0.66407,0.533203 0.12695,-0.08984 a 0.36062794,0.36062794 0 0 0 0.64453,0.0293 c 0.12775,-0.230941 0.49685,-0.617037 0.94727,-1.046875 0.001,7.92e-4 0.003,0.0012 0.004,0.002 0.71996,0.530936 1.26746,1.032307 1.47852,1.384766 a 0.36003601,0.36003601 0 0 0 0.56836,0.08984 0.36067455,0.36067455 0 0 0 0.26172,-0.125 c 0.26781,-0.308029 0.9828,-0.823649 1.77734,-1.378907 0.15104,0.184683 0.29364,0.368251 0.41016,0.548829 a 0.36027136,0.36027136 0 1 0 0.60547,-0.390625 c -0.12384,-0.191921 -0.27213,-0.381984 -0.42383,-0.572266 0.18057,-0.125015 0.34008,-0.237 0.52148,-0.363281 0.43315,-0.301528 0.84967,-0.60745 1.24219,-0.91211 a 0.36027058,0.36027058 0 0 0 0.58398,-0.419921 c -0.007,-0.01111 -0.0181,-0.02209 -0.0254,-0.0332 0.4603,-0.397739 0.8375,-0.77751 1.0293,-1.195312 a 0.36003601,0.36003601 0 0 0 -0.35547,-0.513672 0.36003601,0.36003601 0 0 0 -0.29883,0.214844 c -0.0424,0.09231 -0.14445,0.219791 -0.24804,0.345703 l -0.31836,-0.353516 -0.64453,0.462891 c -0.31004,-0.33632 -0.64985,-0.67428 -1.0293,-1.013672 0.56742,-0.460313 1.11551,-0.915948 1.61133,-1.355469 0.40259,0.410701 0.74643,0.810527 0.99218,1.191407 a 0.36003601,0.36003601 0 1 0 0.60352,-0.388672 c -0.27918,-0.432677 -0.64916,-0.866632 -1.07031,-1.302733 0.66119,-0.62058 1.22854,-1.20957 1.53711,-1.74024 a 0.36003601,0.36003601 0 0 0 -0.1211,-0.49218 0.36091907,0.36091907 0 0 0 -0.0488,-0.2168 c -0.2679,-0.44737 -0.80304,-0.93017 -1.44532,-1.45899 0.53255,-0.59317 0.93343,-1.1645 1.09961,-1.73242 a 0.36003601,0.36003601 0 0 0 -0.10937,-0.3789 0.36035275,0.36035275 0 0 0 -0.0215,-0.0801 c -0.26818,-0.64968 -0.89465,-1.16803 -1.63672,-1.67383 0.21146,-0.35161 0.37865,-0.69854 0.44141,-1.04297 a 0.36003601,0.36003601 0 0 0 -0.36523,-0.42969 0.36003601,0.36003601 0 0 0 -0.3418,0.30078 c -0.019,0.1042 -0.0737,0.22936 -0.125,0.35157 L 5,-109.35938 l -0.33594,0.38086 c -0.3496,-0.22254 -0.68554,-0.45668 -1.02734,-0.6875 0.25432,-0.38291 0.44488,-0.76901 0.51758,-1.16796 a 0.36003601,0.36003601 0 0 0 -0.36719,-0.42774 0.36003601,0.36003601 0 0 0 -0.3418,0.29883 c -0.0324,0.17765 -0.11477,0.3739 -0.22265,0.57812 l -0.34571,-0.29296 -0.27929,0.26171 c -0.37858,-0.30704 -0.72391,-0.61885 -0.96875,-0.9414 a 0.36003601,0.36003601 0 0 0 -0.3125,-0.14649 0.36003601,0.36003601 0 0 0 -0.2793,-0.13281 z m 0.10351,0.80469 c 0.39268,0.48991 0.89226,0.93446 1.44727,1.3418 -0.20652,0.23916 -0.43477,0.48302 -0.70312,0.73437 -0.005,0.004 -0.011,0.009 -0.0156,0.0137 l -0.49023,-0.36523 -0.58203,0.4414 c -0.37276,-0.29471 -0.7126,-0.57581 -1.03126,-0.85156 0.56113,-0.46976 1.04422,-0.91403 1.375,-1.31445 z m 2.04688,1.7539 c 0.3945,0.26479 0.79437,0.5219 1.18359,0.76954 0.16465,0.10475 0.31565,0.20673 0.47266,0.31054 -0.21498,0.27706 -0.46846,0.56709 -0.75977,0.8711 l -0.55078,-0.35352 -0.52539,0.49219 c -0.37678,-0.27482 -0.74857,-0.55328 -1.11719,-0.83008 0.15671,-0.13668 0.34146,-0.27642 0.48633,-0.41211 0.3036,-0.28437 0.56803,-0.56611 0.81055,-0.84766 z m -4.00391,0.0312 c 0.46984,0.41322 0.98328,0.83511 1.54883,1.26563 -0.3571,0.28857 -0.72802,0.58207 -1.12109,0.87891 l -0.60156,-0.44727 -0.58008,0.44336 c -0.27206,-0.22605 -0.57269,-0.45919 -0.81055,-0.67773 -0.0513,-0.0472 -0.0912,-0.0918 -0.14062,-0.13868 0.59415,-0.45319 1.16953,-0.89702 1.70507,-1.32422 z m 6.26368,1.46485 c 0.69288,0.4958 1.2331,0.96299 1.38867,1.33984 a 0.36035275,0.36035275 0 0 0 0.0566,0.0937 c -0.0901,0.24186 -0.25163,0.51962 -0.48047,0.82617 l -0.47852,-0.42773 -0.51953,0.53711 c -0.4091,-0.30954 -0.82877,-0.6242 -1.27734,-0.95117 0.0728,-0.0707 0.16619,-0.14678 0.23633,-0.2168 0.41608,-0.41538 0.76985,-0.81193 1.07422,-1.20117 z m -4.12891,0.24805 c 0.46615,0.34603 0.94251,0.69375 1.41992,1.04101 0.0941,0.0684 0.16802,0.12528 0.26172,0.19336 -0.33305,0.30354 -0.64972,0.60218 -1.01953,0.91797 l -0.51367,-0.38281 -0.66407,0.50586 c -0.42066,-0.31003 -0.82855,-0.61491 -1.22461,-0.91797 0.61517,-0.45725 1.19278,-0.90973 1.74024,-1.35742 z m -4.41406,0.0566 c 0.0781,0.0745 0.14675,0.14753 0.22851,0.22265 0.37788,0.34719 0.82245,0.70379 1.26758,1.06055 -0.4096,0.30082 -0.82289,0.60389 -1.23437,0.9082 l -0.60547,-0.44922 -0.55078,0.41993 c -0.003,-0.003 -0.008,-0.007 -0.0117,-0.01 -0.30479,-0.27666 -0.56446,-0.54252 -0.79883,-0.80274 0.53523,-0.43761 1.1053,-0.88911 1.70508,-1.34961 z m 6.68359,1.61523 c 0.66294,0.48295 1.32981,0.96739 1.88477,1.40039 -0.11846,0.11868 -0.22802,0.23394 -0.35743,0.35547 -0.2211,0.20766 -0.50044,0.43238 -0.74804,0.64844 l -0.52539,-0.43946 -0.54297,0.48438 c -0.44806,-0.33539 -0.89521,-0.6686 -1.35156,-1.00195 0.58817,-0.4931 1.12611,-0.97399 1.64062,-1.44727 z m -4.60937,0.13477 c 0.53777,0.41518 1.09616,0.83317 1.67187,1.25586 0.0422,0.031 0.0846,0.0627 0.12695,0.0937 -0.18859,0.15528 -0.36316,0.3045 -0.55468,0.46093 -0.19646,0.16046 -0.39386,0.32159 -0.5918,0.48242 l -0.58594,-0.43554 -0.63281,0.48047 c -0.44455,-0.33277 -0.85791,-0.6586 -1.25977,-0.98047 0.60122,-0.45489 1.21755,-0.90928 1.82618,-1.35742 z m -4.33985,0.0605 c 0.26285,0.288 0.54811,0.57827 0.875,0.875 0.14457,0.13122 0.32905,0.26949 0.48438,0.40234 -0.37432,0.28975 -0.75336,0.57789 -1.10157,0.87109 l -0.51171,-0.38086 -0.53711,0.40625 c -0.24657,-0.31717 -0.41654,-0.61325 -0.51758,-0.88671 0.27348,-0.33887 0.69634,-0.76093 1.21289,-1.20899 0.0289,-0.0251 0.0662,-0.0528 0.0957,-0.0781 z m 11.39649,1.66601 c 0.63839,0.53281 1.15217,1.01738 1.32422,1.30469 a 0.36091907,0.36091907 0 0 0 0.084,0.0957 c -0.18692,0.28682 -0.49693,0.63583 -0.86719,1.01367 l -0.51953,-0.38672 -0.48437,0.36914 c -0.35948,-0.31436 -0.7548,-0.62716 -1.15235,-0.9414 0.4123,-0.34893 0.83276,-0.70016 1.18946,-1.03516 0.15219,-0.14294 0.28583,-0.28052 0.42578,-0.41992 z m -4.66016,0.0625 c 0.64717,0.47507 1.275,0.9489 1.89453,1.42383 -0.3715,0.30366 -0.76304,0.61582 -1.15625,0.92773 l -0.58203,-0.41796 -0.5918,0.47656 c -0.44064,-0.32082 -0.88283,-0.64202 -1.32031,-0.96094 0.35485,-0.2902 0.70763,-0.58088 1.06055,-0.86914 0.23941,-0.19555 0.46009,-0.38588 0.69531,-0.58008 z m -4.80078,0.0234 c 0.58747,0.47539 1.20635,0.95811 1.86914,1.44727 -0.43248,0.35397 -0.83656,0.70377 -1.25,1.05468 l -0.53906,-0.39843 -0.55664,0.42187 c -0.4473,-0.35128 -0.88489,-0.70085 -1.25196,-1.03711 -0.0144,-0.0132 -0.0249,-0.0259 -0.0391,-0.0391 0.53219,-0.47863 1.14169,-0.96363 1.76758,-1.44921 z m 7.28125,1.85547 c 0.61773,0.48741 1.20335,0.97062 1.70898,1.43945 -0.34816,0.30754 -0.73305,0.627981 -1.125,0.951176 l -0.55859,-0.412109 -0.51172,0.388671 c -0.40181,-0.322023 -0.83133,-0.644418 -1.26172,-0.966798 0.59892,-0.4727 1.18841,-0.94101 1.74805,-1.40039 z m -4.81055,0.0391 c 0.0376,0.0275 0.0717,0.0545 0.10938,0.082 0.58854,0.4293 1.18385,0.86344 1.76953,1.29688 -0.40437,0.31831 -0.80968,0.635545 -1.20899,0.955074 l -0.63281,-0.476563 -0.63281,0.527344 c -0.11296,-0.08111 -0.22769,-0.163276 -0.33984,-0.244141 -0.29414,-0.212082 -0.56341,-0.417694 -0.84766,-0.626954 0.57271,-0.49843 1.16152,-1.00178 1.7832,-1.51367 z m -4.76172,0.0508 c 0.0268,0.0249 0.049,0.0493 0.0762,0.0742 0.51279,0.46975 1.10928,0.94565 1.74023,1.42578 -0.41822,0.377746 -0.80582,0.74804 -1.16406,1.115236 l -0.5918,-0.509765 -0.51758,0.517578 c -0.37847,-0.34657 -0.70368,-0.684862 -0.89844,-0.994139 a 0.36003601,0.36003601 0 0 0 0.0195,-0.0332 c 0.30764,-0.51472 0.77832,-1.05021 1.33593,-1.5957 z m 7.23438,1.779298 c 0.63619,0.478638 1.25442,0.954187 1.81445,1.419922 -0.24789,0.197819 -0.4908,0.394563 -0.74023,0.591796 -0.16688,0.13195 -0.30112,0.246039 -0.4668,0.376954 l -0.55664,-0.414063 -0.58984,0.447266 c -0.42085,-0.32225 -0.83669,-0.64473 -1.2754,-0.962891 0.59438,-0.487185 1.19893,-0.972602 1.81446,-1.458984 z m -4.81641,0.166015 c 0.32824,0.242664 0.64657,0.483537 0.98633,0.728516 0.27636,0.199268 0.55353,0.402438 0.83203,0.603515 -0.38583,0.323617 -0.77208,0.647765 -1.125,0.96875 l -0.62109,-0.382812 -0.58985,0.554688 0.0469,0.04297 c -0.42608,-0.290306 -0.8279,-0.580268 -1.21485,-0.86914 0.47536,-0.521203 1.04574,-1.072279 1.68555,-1.646485 z m 7.19141,1.726563 c 0.57709,0.507351 1.06947,0.997566 1.45508,1.464844 -0.35458,0.275877 -0.73471,0.557532 -1.13868,0.839843 l -0.50976,-0.378906 -0.5586,0.423828 c -0.3154,-0.309533 -0.6608,-0.616385 -1.02343,-0.921875 0.32356,-0.25658 0.58943,-0.481278 0.92187,-0.74414 0.28691,-0.226859 0.56812,-0.455484 0.85352,-0.683594 z m -4.76172,0.04883 c 0.63435,0.462568 1.24709,0.924562 1.83008,1.386719 -0.39291,0.315757 -0.82422,0.651451 -1.17188,0.945312 l -0.47656,-0.351562 -0.57227,0.433593 c -0.43322,-0.292759 -0.88289,-0.590013 -1.34375,-0.892578 0.51442,-0.49231 1.12034,-1.005979 1.73438,-1.521484 z m 2.4043,1.847656 c 0.52162,0.434206 0.99463,0.864368 1.40039,1.28711 -0.40875,0.280779 -0.80403,0.561346 -1.12891,0.818359 l -0.39453,-0.292969 -0.52539,0.402344 c -0.28119,-0.277995 -0.62832,-0.558185 -1.01563,-0.847656 0.0722,-0.06341 0.1177,-0.11492 0.19336,-0.179688 0.41809,-0.357886 0.97292,-0.788622 1.47071,-1.1875 z"
           inkscape:connector-curvature="0"
           id="path241" />
        <path
           style="color:#000000;clip-rule:nonzero;display:inline;overflow:visible;visibility:visible;opacity:1;isolation:auto;mix-blend-mode:normal;color-interpolation:sRGB;color-interpolation-filters:linearRGB;solid-color:#000000;solid-opacity:1;fill:#12d412;fill-opacity:1;fill-rule:evenodd;stroke:#000000;stroke-width:0.72000003;stroke-linecap:round;stroke-linejoin:miter;stroke-miterlimit:4;stroke-dasharray:none;stroke-dashoffset:0;stroke-opacity:1;color-rendering:auto;image-rendering:auto;shape-rendering:auto;text-rendering:auto;enable-background:accumulate"
           d="m 0.64643,-120.06351 c -0.0812,-2.56953 0.34432,-5.30788 0.95562,-6.79606 0.8867,1.95729 1.00521,5.10326 0.83485,7.18336 z"
           inkscape:connector-curvature="0"
           id="path243" />
        <path
           style="color:#000000;clip-rule:nonzero;display:inline;overflow:visible;visibility:visible;opacity:1;isolation:auto;mix-blend-mode:normal;color-interpolation:sRGB;color-interpolation-filters:linearRGB;solid-color:#000000;solid-opacity:1;fill:#12d412;fill-opacity:1;fill-rule:evenodd;stroke:#000000;stroke-width:0.72000003;stroke-linecap:round;stroke-linejoin:miter;stroke-miterlimit:4;stroke-dasharray:none;stroke-dashoffset:0;stroke-opacity:1;color-rendering:auto;image-rendering:auto;shape-rendering:auto;text-rendering:auto;enable-background:accumulate"
           d="m -0.62032,-118.66347 c -0.31979,-3.33222 -0.52685,-6.00009 -0.56885,-8.01606 1.45054,1.52715 2.38355,3.90681 2.64474,7.2039 z"
           inkscape:connector-curvature="0"
           id="path245" />
        <path
           style="color:#000000;clip-rule:nonzero;display:inline;overflow:visible;visibility:visible;opacity:1;isolation:auto;mix-blend-mode:normal;color-interpolation:sRGB;color-interpolation-filters:linearRGB;solid-color:#000000;solid-opacity:1;fill:#12d412;fill-opacity:1;fill-rule:evenodd;stroke:#000000;stroke-width:0.72000003;stroke-linecap:round;stroke-linejoin:miter;stroke-miterlimit:4;stroke-dasharray:none;stroke-dashoffset:0;stroke-opacity:1;color-rendering:auto;image-rendering:auto;shape-rendering:auto;text-rendering:auto;enable-background:accumulate"
           d="m 1.07716,-118.47139 c 0.46442,-3.41859 1.56797,-5.4385 2.83362,-7.31722 0.0314,2.22982 -0.19958,5.32375 -0.60516,7.37104 z"
           inkscape:connector-curvature="0"
           id="path247" />
        <path
           style="color:#000000;clip-rule:nonzero;display:inline;overflow:visible;visibility:visible;opacity:1;isolation:auto;mix-blend-mode:normal;color-interpolation:sRGB;color-interpolation-filters:linearRGB;solid-color:#000000;solid-opacity:1;fill:#12d412;fill-opacity:1;fill-rule:evenodd;stroke:#000000;stroke-width:0.72000003;stroke-linecap:round;stroke-linejoin:miter;stroke-miterlimit:4;stroke-dasharray:none;stroke-dashoffset:0;stroke-opacity:1;color-rendering:auto;image-rendering:auto;shape-rendering:auto;text-rendering:auto;enable-background:accumulate"
           d="m 1.54692,-117.36127 c 0.30617,-2.77196 2.15206,-5.06448 4.52995,-6.83756 -0.71841,1.90809 -2.2078,5.18583 -2.50085,7.77869 z"
           inkscape:connector-curvature="0"
           id="path249" />
        <path
           style="color:#000000;clip-rule:nonzero;display:inline;overflow:visible;visibility:visible;opacity:1;isolation:auto;mix-blend-mode:normal;color-interpolation:sRGB;color-interpolation-filters:linearRGB;solid-color:#000000;solid-opacity:1;fill:#12d412;fill-opacity:1;fill-rule:evenodd;stroke:#000000;stroke-width:0.72000003;stroke-linecap:round;stroke-linejoin:miter;stroke-miterlimit:4;stroke-dasharray:none;stroke-dashoffset:0;stroke-opacity:1;color-rendering:auto;image-rendering:auto;shape-rendering:auto;text-rendering:auto;enable-background:accumulate"
           d="m -2.26912,-118.08898 c -0.46958,-1.98272 -1.99182,-4.40872 -3.24407,-6.39144 1.87837,0.83483 3.72254,1.9594 4.97479,5.14219 z"
           inkscape:connector-curvature="0"
           id="path251" />
        <path
           style="color:#000000;clip-rule:nonzero;display:inline;overflow:visible;visibility:visible;opacity:1;isolation:auto;mix-blend-mode:normal;color-interpolation:sRGB;color-interpolation-filters:linearRGB;solid-color:#000000;solid-opacity:1;fill:#12d412;fill-opacity:1;fill-rule:evenodd;stroke:#000000;stroke-width:0.72000003;stroke-linecap:round;stroke-linejoin:miter;stroke-miterlimit:4;stroke-dasharray:none;stroke-dashoffset:0;stroke-opacity:1;color-rendering:auto;image-rendering:auto;shape-rendering:auto;text-rendering:auto;enable-background:accumulate"
           d="m -0.58879,-115.78461 c -1.28535,-3.20161 -1.40773,-5.94783 -1.52227,-7.89072 1.58324,1.45278 2.82732,4.8561 3.4863,6.83641 z"
           inkscape:connector-curvature="0"
           id="path253" />
        <path
           style="color:#000000;clip-rule:nonzero;display:inline;overflow:visible;visibility:visible;opacity:1;isolation:auto;mix-blend-mode:normal;color-interpolation:sRGB;color-interpolation-filters:linearRGB;solid-color:#000000;solid-opacity:1;fill:#12d412;fill-opacity:1;fill-rule:evenodd;stroke:#000000;stroke-width:0.72000003;stroke-linecap:round;stroke-linejoin:miter;stroke-miterlimit:4;stroke-dasharray:none;stroke-dashoffset:0;stroke-opacity:1;color-rendering:auto;image-rendering:auto;shape-rendering:auto;text-rendering:auto;enable-background:accumulate"
           d="m 1.45703,-115.62806 c 1.12243,-2.55359 4.35364,-5.54186 6.79281,-5.8284 -1.48854,1.70248 -4.20019,4.64565 -4.97832,7.1363 z"
           inkscape:connector-curvature="0"
           id="path255" />
        <path
           style="color:#000000;clip-rule:nonzero;display:inline;overflow:visible;visibility:visible;opacity:1;isolation:auto;mix-blend-mode:normal;color-interpolation:sRGB;color-interpolation-filters:linearRGB;solid-color:#000000;solid-opacity:1;fill:#12d412;fill-opacity:1;fill-rule:evenodd;stroke:#000000;stroke-width:0.72000003;stroke-linecap:round;stroke-linejoin:miter;stroke-miterlimit:4;stroke-dasharray:none;stroke-dashoffset:0;stroke-opacity:1;color-rendering:auto;image-rendering:auto;shape-rendering:auto;text-rendering:auto;enable-background:accumulate"
           d="m -2.13911,-115.38567 c -1.47899,-2.31252 -2.70665,-3.24343 -4.85589,-5.18305 1.81549,0.15922 4.65169,1.56987 6.33783,4.16856 z"
           inkscape:connector-curvature="0"
           id="path257" />
        <path
           style="color:#000000;clip-rule:nonzero;display:inline;overflow:visible;visibility:visible;opacity:1;isolation:auto;mix-blend-mode:normal;color-interpolation:sRGB;color-interpolation-filters:linearRGB;solid-color:#000000;solid-opacity:1;fill:#12d412;fill-opacity:1;fill-rule:evenodd;stroke:#000000;stroke-width:0.72000003;stroke-linecap:round;stroke-linejoin:miter;stroke-miterlimit:4;stroke-dasharray:none;stroke-dashoffset:0;stroke-opacity:1;color-rendering:auto;image-rendering:auto;shape-rendering:auto;text-rendering:auto;enable-background:accumulate"
           d="m -2.15205,-113.08913 c -1.47816,-1.54904 -3.32619,-2.71073 -5.48263,-3.57155 1.78184,-0.38259 5.09255,-0.0951 7.46932,1.89162 z"
           inkscape:connector-curvature="0"
           id="path259" />
        <path
           style="color:#000000;clip-rule:nonzero;display:inline;overflow:visible;visibility:visible;opacity:1;isolation:auto;mix-blend-mode:normal;color-interpolation:sRGB;color-interpolation-filters:linearRGB;solid-color:#000000;solid-opacity:1;fill:#12d412;fill-opacity:1;fill-rule:evenodd;stroke:#000000;stroke-width:0.72000003;stroke-linecap:round;stroke-linejoin:miter;stroke-miterlimit:4;stroke-dasharray:none;stroke-dashoffset:0;stroke-opacity:1;color-rendering:auto;image-rendering:auto;shape-rendering:auto;text-rendering:auto;enable-background:accumulate"
           d="m -1.25471,-111.55927 c -1.29036,-0.37451 -2.65484,-0.89451 -4.93042,-1.13868 1.72604,-0.82157 3.28253,-1.41307 5.94285,0.17404 z"
           inkscape:connector-curvature="0"
           id="path261" />
        <path
           style="color:#000000;clip-rule:nonzero;display:inline;overflow:visible;visibility:visible;opacity:1;isolation:auto;mix-blend-mode:normal;color-interpolation:sRGB;color-interpolation-filters:linearRGB;solid-color:#000000;solid-opacity:1;fill:#12d412;fill-opacity:1;fill-rule:evenodd;stroke:#000000;stroke-width:0.72000003;stroke-linecap:round;stroke-linejoin:miter;stroke-miterlimit:4;stroke-dasharray:none;stroke-dashoffset:0;stroke-opacity:1;color-rendering:auto;image-rendering:auto;shape-rendering:auto;text-rendering:auto;enable-background:accumulate"
           d="m -0.21576,-113.44531 c 0.44663,-3.42096 1.43248,-6.32458 2.12252,-7.14808 0.66929,2.04189 0.43855,5.06572 0.0437,7.1151 z"
           inkscape:connector-curvature="0"
           id="path263" />
        <path
           style="color:#000000;clip-rule:nonzero;display:inline;overflow:visible;visibility:visible;opacity:1;isolation:auto;mix-blend-mode:normal;color-interpolation:sRGB;color-interpolation-filters:linearRGB;solid-color:#000000;solid-opacity:1;fill:#12d412;fill-opacity:1;fill-rule:evenodd;stroke:#000000;stroke-width:0.72000003;stroke-linecap:round;stroke-linejoin:miter;stroke-miterlimit:4;stroke-dasharray:none;stroke-dashoffset:0;stroke-opacity:1;color-rendering:auto;image-rendering:auto;shape-rendering:auto;text-rendering:auto;enable-background:accumulate"
           d="m 1.98846,-113.98401 c 1.54054,-2.32539 4.50873,-3.56961 6.74009,-3.15076 -1.8329,1.31471 -4.6593,2.73286 -5.84986,5.05479 z"
           inkscape:connector-curvature="0"
           id="path265" />
        <path
           style="color:#000000;clip-rule:nonzero;display:inline;overflow:visible;visibility:visible;opacity:1;isolation:auto;mix-blend-mode:normal;color-interpolation:sRGB;color-interpolation-filters:linearRGB;solid-color:#000000;solid-opacity:1;fill:#12d412;fill-opacity:1;fill-rule:evenodd;stroke:#000000;stroke-width:0.72000003;stroke-linecap:round;stroke-linejoin:miter;stroke-miterlimit:4;stroke-dasharray:none;stroke-dashoffset:0;stroke-opacity:1;color-rendering:auto;image-rendering:auto;shape-rendering:auto;text-rendering:auto;enable-background:accumulate"
           d="m 2.36204,-112.22159 c 1.07858,-1.60538 2.86172,-1.43156 5.00318,-0.59299 -2.00712,0.3367 -3.62152,1.06843 -4.98897,1.81368 z"
           inkscape:connector-curvature="0"
           id="path267" />
        <path
           style="color:#000000;clip-rule:nonzero;display:inline;overflow:visible;visibility:visible;opacity:1;isolation:auto;mix-blend-mode:normal;color-interpolation:sRGB;color-interpolation-filters:linearRGB;solid-color:#000000;solid-opacity:1;fill:#12d412;fill-opacity:1;fill-rule:evenodd;stroke:#000000;stroke-width:0.72000003;stroke-linecap:round;stroke-linejoin:miter;stroke-miterlimit:4;stroke-dasharray:none;stroke-dashoffset:0;stroke-opacity:1;color-rendering:auto;image-rendering:auto;shape-rendering:auto;text-rendering:auto;enable-background:accumulate"
           d="m -0.36653,-112.00637 c -0.81455,-2.43836 -1.19204,-5.18375 -1.03309,-6.78472 1.41067,1.62087 2.42622,4.60077 2.85943,6.64238 z"
           inkscape:connector-curvature="0"
           id="path269" />
        <path
           style="color:#000000;clip-rule:nonzero;display:inline;overflow:visible;visibility:visible;opacity:1;isolation:auto;mix-blend-mode:normal;color-interpolation:sRGB;color-interpolation-filters:linearRGB;solid-color:#000000;solid-opacity:1;fill:#12d412;fill-opacity:1;fill-rule:evenodd;stroke:#000000;stroke-width:0.72000003;stroke-linecap:round;stroke-linejoin:miter;stroke-miterlimit:4;stroke-dasharray:none;stroke-dashoffset:0;stroke-opacity:1;color-rendering:auto;image-rendering:auto;shape-rendering:auto;text-rendering:auto;enable-background:accumulate"
           d="m -1.55785,-111.09741 c -0.91477,-0.0254 -1.58445,0.15709 -3.16904,0.24009 1.00913,-0.76453 2.08892,-0.98689 2.90044,-0.95066 z"
           inkscape:connector-curvature="0"
           id="path271" />
        <path
           style="color:#000000;clip-rule:nonzero;display:inline;overflow:visible;visibility:visible;opacity:1;isolation:auto;mix-blend-mode:normal;color-interpolation:sRGB;color-interpolation-filters:linearRGB;solid-color:#000000;solid-opacity:1;fill:#12d412;fill-opacity:1;fill-rule:evenodd;stroke:#000000;stroke-width:0.72000003;stroke-linecap:round;stroke-linejoin:miter;stroke-miterlimit:4;stroke-dasharray:none;stroke-dashoffset:0;stroke-opacity:1;color-rendering:auto;image-rendering:auto;shape-rendering:auto;text-rendering:auto;enable-background:accumulate"
           d="m -1.12103,-110.78686 c -0.12779,-0.83135 -0.79097,-2.42139 -1.55531,-3.81193 2.34974,1.10735 2.85124,2.25905 3.19507,3.73178 z"
           inkscape:connector-curvature="0"
           id="path273" />
        <path
           style="color:#000000;clip-rule:nonzero;display:inline;overflow:visible;visibility:visible;opacity:1;isolation:auto;mix-blend-mode:normal;color-interpolation:sRGB;color-interpolation-filters:linearRGB;solid-color:#000000;solid-opacity:1;fill:#12d412;fill-opacity:1;fill-rule:evenodd;stroke:#000000;stroke-width:0.72000003;stroke-linecap:round;stroke-linejoin:miter;stroke-miterlimit:4;stroke-dasharray:none;stroke-dashoffset:0;stroke-opacity:1;color-rendering:auto;image-rendering:auto;shape-rendering:auto;text-rendering:auto;enable-background:accumulate"
           d="m 0.62355,-110.85028 c 0.0292,-2.06436 1.66728,-4.19837 2.35732,-5.02187 -0.16556,2.04188 -0.80066,3.8787 -0.5694,5.14542 z"
           inkscape:connector-curvature="0"
           id="path275" />
        <path
           style="color:#000000;clip-rule:nonzero;display:inline;overflow:visible;visibility:visible;opacity:1;isolation:auto;mix-blend-mode:normal;color-interpolation:sRGB;color-interpolation-filters:linearRGB;solid-color:#000000;solid-opacity:1;fill:#12d412;fill-opacity:1;fill-rule:evenodd;stroke:#000000;stroke-width:0.72000003;stroke-linecap:round;stroke-linejoin:miter;stroke-miterlimit:4;stroke-dasharray:none;stroke-dashoffset:0;stroke-opacity:1;color-rendering:auto;image-rendering:auto;shape-rendering:auto;text-rendering:auto;enable-background:accumulate"
           d="m -0.15742,-110.87985 c -0.74621,0.3881 -1.85444,1.26869 -2.92572,2.43924 0.18308,-1.25273 0.11641,-1.91316 1.40066,-2.71191 z"
           inkscape:connector-curvature="0"
           id="path277" />
        <path
           style="color:#000000;clip-rule:nonzero;display:inline;overflow:visible;visibility:visible;opacity:1;isolation:auto;mix-blend-mode:normal;color-interpolation:sRGB;color-interpolation-filters:linearRGB;solid-color:#000000;solid-opacity:1;fill:#12d412;fill-opacity:1;fill-rule:evenodd;stroke:#000000;stroke-width:0.72000003;stroke-linecap:round;stroke-linejoin:miter;stroke-miterlimit:4;stroke-dasharray:none;stroke-dashoffset:0;stroke-opacity:1;color-rendering:auto;image-rendering:auto;shape-rendering:auto;text-rendering:auto;enable-background:accumulate"
           d="m 2.91023,-110.94983 c 0.91477,-0.0254 1.54755,0.15709 2.87388,-0.20264 -1.2305,-0.43249 -2.05203,-0.24901 -2.86354,-0.21278 z"
           inkscape:connector-curvature="0"
           id="path279" />
        <path
           style="color:#000000;clip-rule:nonzero;display:inline;overflow:visible;visibility:visible;opacity:1;isolation:auto;mix-blend-mode:normal;color-interpolation:sRGB;color-interpolation-filters:linearRGB;solid-color:#000000;solid-opacity:1;fill:#12d412;fill-opacity:1;fill-rule:evenodd;stroke:#000000;stroke-width:0.72000003;stroke-linecap:round;stroke-linejoin:miter;stroke-miterlimit:4;stroke-dasharray:none;stroke-dashoffset:0;stroke-opacity:1;color-rendering:auto;image-rendering:auto;shape-rendering:auto;text-rendering:auto;enable-background:accumulate"
           d="m 1.17826,-110.84295 c 0.7462,0.3881 2.44475,2.44931 3.51602,3.17712 0.18587,-1.25272 -0.37467,-2.57726 -1.65892,-3.376 z"
           inkscape:connector-curvature="0"
           id="path281" />
        <path
           style="color:#000000;clip-rule:nonzero;display:inline;overflow:visible;visibility:visible;opacity:1;isolation:auto;mix-blend-mode:normal;color-interpolation:sRGB;color-interpolation-filters:linearRGB;solid-color:#000000;solid-opacity:1;fill:#12d412;fill-opacity:1;fill-rule:evenodd;stroke:#000000;stroke-width:0.72000003;stroke-linecap:round;stroke-linejoin:miter;stroke-miterlimit:4;stroke-dasharray:none;stroke-dashoffset:0;stroke-opacity:1;color-rendering:auto;image-rendering:auto;shape-rendering:auto;text-rendering:auto;enable-background:accumulate"
           d="m 1.20768,-110.69537 c -0.15589,0.53567 -0.63692,1.56384 -1.56062,2.32855 -0.14897,-0.88378 -0.40011,-1.80248 -0.001,-2.45365 z"
           inkscape:connector-curvature="0"
           id="path283" />
      </g>
    </g>
  </g>
  <g
     inkscape:groupmode="layer"
     id="extras_layer"
     inkscape:label="Extras"
     style="display:inline"
     sodipodi:insensitive="true">
    <g
       id="extra-ship"
       transform="matrix(0.4444171,-0.89581998,0.89581998,0.4444171,266.30938,417.60566)">
      <path
         style="color:#000000;fill:url(#gradientShip);fill-opacity:1;fill-rule:evenodd;stroke:#000000;stroke-width:0.75;stroke-linecap:butt;stroke-linejoin:round;stroke-miterlimit:4;stroke-dasharray:none;stroke-dashoffset:0;stroke-opacity:1;marker:none;enable-background:accumulate"
         d="m 243.2364,-52.722824 c -3.10208,-2.937202 -8.72518,-3.346714 -12.49116,-3.032742 -2.95307,0.246202 -6.62512,1.070872 -6.62512,1.070872 l -0.0121,3.725952 c 0,0 2.43298,0.582421 6.39007,0.932887 3.66202,0.324334 9.61676,-0.283241 12.73834,-2.696969 z"
         inkscape:connector-curvature="0"
         id="path287" />
      <path
         style="color:#000000;opacity:1;isolation:auto;mix-blend-mode:normal;color-interpolation:sRGB;color-interpolation-filters:linearRGB;solid-color:#000000;solid-opacity:1;fill:#000000;fill-opacity:1;fill-rule:evenodd;stroke:none;stroke-width:0.75;stroke-linecap:round;stroke-linejoin:round;stroke-miterlimit:4;stroke-dasharray:none;stroke-dashoffset:0;stroke-opacity:1;marker:none;color-rendering:auto;image-rendering:auto;shape-rendering:auto;text-rendering:auto;enable-background:accumulate"
         d="m 243.05273,-53.089844 c -0.50461,-0.01007 -0.51271,0.749303 -0.008,0.75 l 2.80546,-0.143551 c 0.50461,0.01007 0.51856,-0.385922 0.0138,-0.386619 z"
         inkscape:connector-curvature="0"
         id="path289" />
      <circle
         cx="37.651787"
         cy="-233.087830"
         r="0.695206"
         style="color:#000000;opacity:1;isolation:auto;mix-blend-mode:normal;color-interpolation:sRGB;color-interpolation-filters:linearRGB;solid-color:#000000;solid-opacity:1;fill:#a66e00;fill-opacity:1;fill-rule:nonzero;stroke:#000000;stroke-width:0.5;stroke-linecap:butt;stroke-linejoin:miter;stroke-miterlimit:4;stroke-dasharray:none;stroke-dashoffset:0;stroke-opacity:1;color-rendering:auto;image-rendering:auto;shape-rendering:auto;text-rendering:auto;enable-background:accumulate"
         transform="matrix(0.37654483,0.9263984,-0.9263984,0.37654483,0,0)"
         id="circle291" />
      <circle
         cx="39.995537"
         cy="-238.712830"
         r="0.695206"
         style="color:#000000;opacity:1;isolation:auto;mix-blend-mode:normal;color-interpolation:sRGB;color-interpolation-filters:linearRGB;solid-color:#000000;solid-opacity:1;fill:#a66e00;fill-opacity:1;fill-rule:nonzero;stroke:#000000;stroke-width:0.5;stroke-linecap:butt;stroke-linejoin:miter;stroke-miterlimit:4;stroke-dasharray:none;stroke-dashoffset:0;stroke-opacity:1;color-rendering:auto;image-rendering:auto;shape-rendering:auto;text-rendering:auto;enable-background:accumulate"
         transform="matrix(0.37654483,0.9263984,-0.9263984,0.37654483,0,0)"
         id="circle293" />
      <path
         style="color:#000000;fill:#feffff;fill-opacity:1;fill-rule:evenodd;stroke:#000000;stroke-width:0.5;stroke-linecap:butt;stroke-linejoin:round;stroke-miterlimit:4;stroke-dasharray:none;stroke-dashoffset:0;stroke-opacity:1;marker:none;enable-background:accumulate"
         d="m 230.8139,-58.168744 -0.0696,11.095953 c 0,0 1.11273,-0.901569 1.17305,-2.014949 0.0592,-1.093696 -0.80015,-1.762231 -0.80015,-1.762231 0,0 1.00218,-0.841738 0.9922,-1.921676 -0.0106,-1.140901 -0.9468,-1.722391 -0.9468,-1.722391 0,0 0.80027,-0.5343 0.83406,-1.646805 0.0349,-1.150244 -1.18274,-2.027894 -1.18274,-2.027894 z"
         inkscape:connector-curvature="0"
         id="path295" />
      <path
         style="color:#000000;fill:#feffff;fill-opacity:1;fill-rule:evenodd;stroke:#000000;stroke-width:0.5;stroke-linecap:butt;stroke-linejoin:round;stroke-miterlimit:4;stroke-dasharray:none;stroke-dashoffset:0;stroke-opacity:1;marker:none;enable-background:accumulate"
         d="m 236.95087,-57.97366 -0.0645,10.282469 c 0,0 1.03677,-0.785137 1.09267,-1.816887 0.0549,-1.013517 -0.74706,-1.683399 -0.74706,-1.683399 0,0 0.85887,-0.76153 0.84962,-1.762298 -0.01,-1.057255 -0.80754,-1.614603 -0.80754,-1.614603 0,0 0.84013,-0.540128 0.87144,-1.571079 0.0324,-1.065902 -1.19455,-1.834218 -1.19455,-1.834218 z"
         inkscape:connector-curvature="0"
         id="path297" />
      <path
         style="fill:#000000;stroke:none"
         d="m 239.16963,-53.312319 -0.0111,0.999645 1.00145,0.01039 0.009,-1.000718 z"
         inkscape:connector-curvature="0"
         id="path299" />
      <path
         style="fill:#6a4600;stroke:none"
         d="m 233.00825,-53.641515 -0.0131,1.52646 1.52369,0.01423 0.0142,-1.523703 z"
         inkscape:connector-curvature="0"
         id="path301" />
      <path
         style="fill:none;stroke:#000000;stroke-width:0.6;stroke-linecap:butt"
         d="m 227.26126,-55.055042 -0.0734,4.514141"
         inkscape:connector-curvature="0"
         id="path303" />
      <path
         style="fill:#000000;stroke:none"
         d="m 223.83649,-54.026834 -0.0111,0.999636 1.00072,0.0086 0.009,-0.998911 z"
         inkscape:connector-curvature="0"
         id="path305" />
      <path
         style="fill:#000000;stroke:none"
         d="m 223.85032,-52.581947 -0.0111,0.999637 1.00072,0.0086 0.009,-0.998912 z"
         inkscape:connector-curvature="0"
         id="path307" />
      <path
         style="fill:none;stroke:#000000;stroke-width:0.5;stroke-linecap:butt;stroke-linejoin:round;stroke-miterlimit:4"
         d="m 227.2539,-51.578825 1.14997,0.173504 -0.0116,1.05042"
         inkscape:connector-curvature="0"
         id="path309" />
      <path
         style="fill:none;stroke:#000000;stroke-width:0.5;stroke-linecap:butt;stroke-linejoin:round;stroke-miterlimit:4"
         d="m 227.25705,-54.143799 1.1481,-0.163064 0.0224,-1.189753"
         inkscape:connector-curvature="0"
         id="path311" />
    </g>
  </g>
  <g
     inkscape:groupmode="layer"
     id="suit_rank_glow_layer"
     inkscape:label="Suit Rank Glow"
     style="display:inline"
     sodipodi:insensitive="true">
    <g
       style="opacity:0.75;filter:url(#blurSuitRankGlow)"
       id="g314">
      <path
         style="fill:#ffffff;fill-opacity:1;stroke:none"
         d="m 31.453338,21.223775 c -3.28572,0 -5.95,2.65553 -5.95,5.94125 0,0.85821 0.18762,1.67115 0.51625,2.40625 -0.26383,-0.0358 -0.53136,-0.0525 -0.805,-0.0525 -3.28572,0 -5.95,2.65553 -5.95,5.94125 0,3.28571 2.66428,5.95 5.95,5.95 1.44726,0 2.87049,-0.3694 3.77125,-1.1725 -0.12772,1.47874 -0.1736,2.78641 -0.21875,4.27875 1.79083,0 3.58167,0 5.3725,0 -0.0452,-1.49234 -0.091,-2.80001 -0.21875,-4.27875 0.90076,0.8031 2.32399,1.1725 3.77125,1.1725 3.28572,0 5.95,-2.66429 5.95,-5.95 0,-3.28572 -2.66428,-5.94125 -5.95,-5.94125 -0.27364,0 -0.54117,0.0167 -0.805,0.0525 0.32863,-0.7351 0.51625,-1.54804 0.51625,-2.40625 0,-3.28572 -2.66428,-5.94125 -5.95,-5.94125 z"
         inkscape:connector-curvature="0"
         id="path316" />
      <path
         style="fill:#ffffff;fill-opacity:1;stroke:none"
         d="m 215.96335,316.27628 c 3.28572,0 5.95,-2.65553 5.95,-5.94125 0,-0.85821 -0.18762,-1.67114 -0.51625,-2.40625 0.26383,0.0358 0.53136,0.0525 0.805,0.0525 3.28572,0 5.95,-2.65553 5.95,-5.94125 0,-3.2857 -2.66428,-5.95 -5.95,-5.95 -1.44726,0 -2.87049,0.3694 -3.77125,1.1725 0.12772,-1.47874 0.1736,-2.78641 0.21875,-4.27875 -1.79083,0 -3.58167,0 -5.3725,0 0.0452,1.49234 0.091,2.80001 0.21875,4.27875 -0.90076,-0.8031 -2.32399,-1.1725 -3.77125,-1.1725 -3.28572,0 -5.95,2.66429 -5.95,5.95 0,3.28572 2.66428,5.94125 5.95,5.94125 0.27364,0 0.54117,-0.0167 0.805,-0.0525 -0.32863,0.73511 -0.51625,1.54804 -0.51625,2.40625 0,3.28572 2.66428,5.94125 5.95,5.94125 z"
         inkscape:connector-curvature="0"
         id="path318" />
      <path
         style="fill:#ffffff;fill-opacity:1;stroke:none"
         d="m 21.053333,70.875025 c 0.24,0 0.49333,0.013 0.76,0.04 0.26666,0 0.54666,0.013 0.84,0.04 l 0,-10.48 c 0,-1.3066 0.21333,-2.5466 0.64,-3.72 0.42666,-1.1733 1.01333,-2.1866 1.76,-3.04 0.77333,-0.88 1.69333,-1.5733 2.76,-2.08 1.09332,-0.5066 2.30666,-0.76 3.64,-0.76 1.30665,0 2.47999,0.2534 3.52,0.76 1.03998,0.5067 1.93332,1.2 2.68,2.08 0.74665,0.88 1.33331,1.9067 1.76,3.08 0.42665,1.1467 0.70665,2.3734 0.84,3.68 l 0,12.8 c -2e-5,1.0133 -0.13335,1.9867 -0.4,2.92 -0.24002,0.9067 -0.58669,1.7467 -1.04,2.52 0.55998,0.32 1.14665,0.5733 1.76,0.76 0.63998,0.16 1.33331,0.2267 2.08,0.2 l 0,3.2 c -1.01335,0 -2.01335,-0.1733 -3,-0.52 -0.96002,-0.3467 -1.90668,-0.7867 -2.84,-1.32 -0.72002,0.5867 -1.53335,1.04 -2.44,1.36 -0.88001,0.32 -1.85335,0.48 -2.92,0.48 -1.25334,0 -2.40001,-0.2133 -3.44,-0.64 -1.01334,-0.4533 -1.90667,-1.0667 -2.68,-1.84 -0.74667,-0.8 -1.36,-1.72 -1.84,-2.76 -0.45334,-1.0667 -0.72,-2.2133 -0.8,-3.44 -0.88,-0.08 -1.69333,-0.12 -2.44,-0.12 0,-0.2133 0,-0.4933 0,-0.84 0,-0.3733 0,-0.7333 0,-1.08 0,-0.3466 0,-0.64 0,-0.88 0,-0.2666 0,-0.4 0,-0.4 l 0.8,0 m 16,-10.4 c -2e-5,-0.88 -0.13335,-1.7066 -0.4,-2.48 -0.24002,-0.7733 -0.60002,-1.4533 -1.08,-2.04 -0.48001,-0.5866 -1.06668,-1.04 -1.76,-1.36 -0.69335,-0.3466 -1.48001,-0.52 -2.36,-0.52 -0.88001,0 -1.66668,0.1734 -2.36,0.52 -0.69334,0.32 -1.28001,0.7734 -1.76,1.36 -0.48001,0.5867 -0.85334,1.2667 -1.12,2.04 -0.24001,0.7734 -0.36001,1.6 -0.36,2.48 l 0,10.92 c 1.11999,0.2134 2.25333,0.5334 3.4,0.96 1.14666,0.4267 2.22666,0.9734 3.24,1.64 0.69332,0.48 1.34665,0.9733 1.96,1.48 0.61332,0.48 1.19998,0.9467 1.76,1.4 0.55998,-1.04 0.83998,-2.24 0.84,-3.6 l 0,-12.8 m -5.6,19.2 c 0.93332,0 1.77332,-0.1867 2.52,-0.56 l -2.6,-1.96 c -0.82668,-0.6133 -1.70668,-1.1067 -2.64,-1.48 -0.90667,-0.4 -1.82667,-0.7067 -2.76,-0.92 0.23999,1.4133 0.82666,2.5867 1.76,3.52 0.95999,0.9333 2.19999,1.4 3.72,1.4"
         inkscape:connector-curvature="0"
         id="path320" />
      <path
         style="fill:#ffffff;fill-opacity:1;stroke:none"
         d="m 226.36334,266.62502 c -0.24,0 -0.49333,-0.013 -0.76,-0.04 -0.26666,0 -0.54666,-0.013 -0.84,-0.04 l 0,10.48 c 0,1.3066 -0.21333,2.5466 -0.64,3.72 -0.42666,1.1733 -1.01333,2.1866 -1.76,3.04001 -0.77333,0.88 -1.69333,1.5733 -2.76,2.07999 -1.09332,0.5066 -2.30666,0.76 -3.64,0.76 -1.30664,0 -2.47998,-0.2534 -3.52,-0.76 -1.03998,-0.5067 -1.93332,-1.19999 -2.68,-2.07999 -0.74665,-0.88 -1.33331,-1.9067 -1.76,-3.08 -0.42665,-1.1467 -0.70665,-2.3734 -0.84,-3.68 l 0,-12.8 c 2e-5,-1.01331 0.13335,-1.9867 0.4,-2.92001 0.24002,-0.9067 0.58669,-1.74669 1.04,-2.51999 -0.55998,-0.32 -1.14665,-0.57331 -1.76,-0.76 -0.63998,-0.16001 -1.33331,-0.2267 -2.08,-0.2 l 0,-3.2 c 1.01335,0 2.01335,0.1733 3,0.52 0.96002,0.3467 1.90668,0.7867 2.84,1.32 0.72002,-0.5867 1.53335,-1.04 2.44,-1.36 0.88001,-0.32 1.85335,-0.48 2.92,-0.48 1.25334,0 2.40001,0.2133 3.44,0.64 1.01334,0.4533 1.90667,1.06669 2.68,1.84 0.74667,0.8 1.36,1.72 1.84,2.76 0.45334,1.0667 0.72,2.2133 0.8,3.44 0.88,0.08 1.69333,0.12 2.44,0.12 0,0.2133 0,0.4933 0,0.84 0,0.37329 0,0.7333 0,1.08 0,0.3466 0,0.63999 0,0.88 0,0.26659 0,0.39999 0,0.39999 l -0.8,0 m -16,10.4 c 2e-5,0.88 0.13335,1.7066 0.4,2.48 0.24002,0.7733 0.60002,1.4533 1.08,2.04 0.48001,0.5866 1.06668,1.04001 1.76,1.36001 0.69335,0.3466 1.48001,0.51999 2.36,0.51999 0.88001,0 1.66669,-0.1734 2.36001,-0.51999 0.69334,-0.32 1.28001,-0.7734 1.75999,-1.36001 0.48001,-0.5867 0.85334,-1.2667 1.12001,-2.04 0.24001,-0.7734 0.36,-1.6 0.36,-2.48 l 0,-10.92 c -1.11999,-0.2134 -2.25333,-0.5334 -3.4,-0.96 -1.14666,-0.4267 -2.22667,-0.9734 -3.24001,-1.64 -0.69332,-0.48 -1.34665,-0.9733 -1.96,-1.48 -0.61331,-0.48 -1.19998,-0.9467 -1.75999,-1.4 -0.55998,1.04001 -0.83998,2.24 -0.84001,3.60001 l 0,12.8 m 5.6,-19.2 c -0.93332,0 -1.77332,0.1867 -2.52,0.56 l 2.6,1.96 c 0.82668,0.61329 1.70668,1.10669 2.64,1.48 0.90667,0.4 1.82667,0.7067 2.76,0.92 -0.23999,-1.4133 -0.82666,-2.5867 -1.76,-3.52 -0.95999,-0.9333 -2.19999,-1.4 -3.72,-1.4"
         inkscape:connector-curvature="0"
         id="path322" />
    </g>
  </g>
  <g
     inkscape:groupmode="layer"
     id="suit_rank_layer"
     inkscape:label="Suit Rank"
     style="display:inline"
     sodipodi:insensitive="true">
    <path
       style="fill:#000000;fill-opacity:1;stroke:none"
       d="m 31.453338,21.223775 c -3.28572,0 -5.95,2.65553 -5.95,5.94125 0,0.85821 0.18762,1.67115 0.51625,2.40625 -0.26383,-0.0358 -0.53136,-0.0525 -0.805,-0.0525 -3.28572,0 -5.95,2.65553 -5.95,5.94125 0,3.28571 2.66428,5.95 5.95,5.95 1.44726,0 2.87049,-0.3694 3.77125,-1.1725 -0.12772,1.47874 -0.1736,2.78641 -0.21875,4.27875 1.79083,0 3.58167,0 5.3725,0 -0.0452,-1.49234 -0.091,-2.80001 -0.21875,-4.27875 0.90076,0.8031 2.32399,1.1725 3.77125,1.1725 3.28572,0 5.95,-2.66429 5.95,-5.95 0,-3.28572 -2.66428,-5.94125 -5.95,-5.94125 -0.27364,0 -0.54117,0.0167 -0.805,0.0525 0.32863,-0.7351 0.51625,-1.54804 0.51625,-2.40625 0,-3.28572 -2.66428,-5.94125 -5.95,-5.94125 z"
       inkscape:connector-curvature="0"
       id="path325" />
    <path
       style="fill:#000000;fill-opacity:1;stroke:none"
       d="m 215.96335,316.27628 c 3.28572,0 5.95,-2.65553 5.95,-5.94125 0,-0.85821 -0.18762,-1.67114 -0.51625,-2.40625 0.26383,0.0358 0.53136,0.0525 0.805,0.0525 3.28572,0 5.95,-2.65553 5.95,-5.94125 0,-3.2857 -2.66428,-5.95 -5.95,-5.95 -1.44726,0 -2.87049,0.3694 -3.77125,1.1725 0.12772,-1.47874 0.1736,-2.78641 0.21875,-4.27875 -1.79083,0 -3.58167,0 -5.3725,0 0.0452,1.49234 0.091,2.80001 0.21875,4.27875 -0.90076,-0.8031 -2.32399,-1.1725 -3.77125,-1.1725 -3.28572,0 -5.95,2.66429 -5.95,5.95 0,3.28572 2.66428,5.94125 5.95,5.94125 0.27364,0 0.54117,-0.0167 0.805,-0.0525 -0.32863,0.73511 -0.51625,1.54804 -0.51625,2.40625 0,3.28572 2.66428,5.94125 5.95,5.94125 z"
       inkscape:connector-curvature="0"
       id="path327" />
    <path
       style="fill:#000000;fill-opacity:1;stroke:none"
       d="m 21.053333,70.875025 c 0.24,0 0.49333,0.013 0.76,0.04 0.26666,0 0.54666,0.013 0.84,0.04 l 0,-10.48 c 0,-1.3066 0.21333,-2.5466 0.64,-3.72 0.42666,-1.1733 1.01333,-2.1866 1.76,-3.04 0.77333,-0.88 1.69333,-1.5733 2.76,-2.08 1.09332,-0.5066 2.30666,-0.76 3.64,-0.76 1.30665,0 2.47999,0.2534 3.52,0.76 1.03998,0.5067 1.93332,1.2 2.68,2.08 0.74665,0.88 1.33331,1.9067 1.76,3.08 0.42665,1.1467 0.70665,2.3734 0.84,3.68 l 0,12.8 c -2e-5,1.0133 -0.13335,1.9867 -0.4,2.92 -0.24002,0.9067 -0.58669,1.7467 -1.04,2.52 0.55998,0.32 1.14665,0.5733 1.76,0.76 0.63998,0.16 1.33331,0.2267 2.08,0.2 l 0,3.2 c -1.01335,0 -2.01335,-0.1733 -3,-0.52 -0.96002,-0.3467 -1.90668,-0.7867 -2.84,-1.32 -0.72002,0.5867 -1.53335,1.04 -2.44,1.36 -0.88001,0.32 -1.85335,0.48 -2.92,0.48 -1.25334,0 -2.40001,-0.2133 -3.44,-0.64 -1.01334,-0.4533 -1.90667,-1.0667 -2.68,-1.84 -0.74667,-0.8 -1.36,-1.72 -1.84,-2.76 -0.45334,-1.0667 -0.72,-2.2133 -0.8,-3.44 -0.88,-0.08 -1.69333,-0.12 -2.44,-0.12 0,-0.2133 0,-0.4933 0,-0.84 0,-0.3733 0,-0.7333 0,-1.08 0,-0.3466 0,-0.64 0,-0.88 0,-0.2666 0,-0.4 0,-0.4 l 0.8,0 m 16,-10.4 c -2e-5,-0.88 -0.13335,-1.7066 -0.4,-2.48 -0.24002,-0.7733 -0.60002,-1.4533 -1.08,-2.04 -0.48001,-0.5866 -1.06668,-1.04 -1.76,-1.36 -0.69335,-0.3466 -1.48001,-0.52 -2.36,-0.52 -0.88001,0 -1.66668,0.1734 -2.36,0.52 -0.69334,0.32 -1.28001,0.7734 -1.76,1.36 -0.48001,0.5867 -0.85334,1.2667 -1.12,2.04 -0.24001,0.7734 -0.36001,1.6 -0.36,2.48 l 0,10.92 c 1.11999,0.2134 2.25333,0.5334 3.4,0.96 1.14666,0.4267 2.22666,0.9734 3.24,1.64 0.69332,0.48 1.34665,0.9733 1.96,1.48 0.61332,0.48 1.19998,0.9467 1.76,1.4 0.55998,-1.04 0.83998,-2.24 0.84,-3.6 l 0,-12.8 m -5.6,19.2 c 0.93332,0 1.77332,-0.1867 2.52,-0.56 l -2.6,-1.96 c -0.82668,-0.6133 -1.70668,-1.1067 -2.64,-1.48 -0.90667,-0.4 -1.82667,-0.7067 -2.76,-0.92 0.23999,1.4133 0.82666,2.5867 1.76,3.52 0.95999,0.9333 2.19999,1.4 3.72,1.4"
       inkscape:connector-curvature="0"
       id="path329" />
    <path
       style="fill:#000000;fill-opacity:1;stroke:none"
       d="m 226.36334,266.62502 c -0.24,0 -0.49333,-0.013 -0.76,-0.04 -0.26666,0 -0.54666,-0.013 -0.84,-0.04 l 0,10.48 c 0,1.3066 -0.21333,2.5466 -0.64,3.72 -0.42666,1.1733 -1.01333,2.1866 -1.76,3.04001 -0.77333,0.88 -1.69333,1.5733 -2.76,2.07999 -1.09332,0.5066 -2.30666,0.76 -3.64,0.76 -1.30664,0 -2.47998,-0.2534 -3.52,-0.76 -1.03998,-0.5067 -1.93332,-1.19999 -2.68,-2.07999 -0.74665,-0.88 -1.33331,-1.9067 -1.76,-3.08 -0.42665,-1.1467 -0.70665,-2.3734 -0.84,-3.68 l 0,-12.8 c 2e-5,-1.01331 0.13335,-1.9867 0.4,-2.92001 0.24002,-0.9067 0.58669,-1.74669 1.04,-2.51999 -0.55998,-0.32 -1.14665,-0.57331 -1.76,-0.76 -0.63998,-0.16001 -1.33331,-0.2267 -2.08,-0.2 l 0,-3.2 c 1.01335,0 2.01335,0.1733 3,0.52 0.96002,0.3467 1.90668,0.7867 2.84,1.32 0.72002,-0.5867 1.53335,-1.04 2.44,-1.36 0.88001,-0.32 1.85335,-0.48 2.92,-0.48 1.25334,0 2.40001,0.2133 3.44,0.64 1.01334,0.4533 1.90667,1.06669 2.68,1.84 0.74667,0.8 1.36,1.72 1.84,2.76 0.45334,1.0667 0.72,2.2133 0.8,3.44 0.88,0.08 1.69333,0.12 2.44,0.12 0,0.2133 0,0.4933 0,0.84 0,0.37329 0,0.7333 0,1.08 0,0.3466 0,0.63999 0,0.88 0,0.26659 0,0.39999 0,0.39999 l -0.8,0 m -16,10.4 c 2e-5,0.88 0.13335,1.7066 0.4,2.48 0.24002,0.7733 0.60002,1.4533 1.08,2.04 0.48001,0.5866 1.06668,1.04001 1.76,1.36001 0.69335,0.3466 1.48001,0.51999 2.36,0.51999 0.88001,0 1.66669,-0.1734 2.36001,-0.51999 0.69334,-0.32 1.28001,-0.7734 1.75999,-1.36001 0.48001,-0.5867 0.85334,-1.2667 1.12001,-2.04 0.24001,-0.7734 0.36,-1.6 0.36,-2.48 l 0,-10.92 c -1.11999,-0.2134 -2.25333,-0.5334 -3.4,-0.96 -1.14666,-0.4267 -2.22667,-0.9734 -3.24001,-1.64 -0.69332,-0.48 -1.34665,-0.9733 -1.96,-1.48 -0.61331,-0.48 -1.19998,-0.9467 -1.75999,-1.4 -0.55998,1.04001 -0.83998,2.24 -0.84001,3.60001 l 0,12.8 m 5.6,-19.2 c -0.93332,0 -1.77332,0.1867 -2.52,0.56 l 2.6,1.96 c 0.82668,0.61329 1.70668,1.10669 2.64,1.48 0.90667,0.4 1.82667,0.7067 2.76,0.92 -0.23999,-1.4133 -0.82666,-2.5867 -1.76,-3.52 -0.95999,-0.9333 -2.19999,-1.4 -3.72,-1.4"
       inkscape:connector-curvature="0"
       id="path331" />
  </g>
  <g
     inkscape:groupmode="layer"
     id="guides_layer"
     inkscape:label="Guides"
     style="display:none"
     sodipodi:insensitive="true">
    <path
       style="fill:none;stroke:#000000;stroke-width:0.9"
       d="m 11.250000,11.25 0,-45"
       inkscape:connector-curvature="0"
       id="path334" />
    <path
       style="fill:none;stroke:#000000;stroke-width:0.9"
       d="m 11.250000,371.25 0,-45"
       inkscape:connector-curvature="0"
       id="path336" />
    <path
       style="fill:none;stroke:#000000;stroke-width:0.9"
       d="m 84.375000,11.25 0,-45"
       inkscape:connector-curvature="0"
       id="path338" />
    <path
       style="fill:none;stroke:#000000;stroke-width:0.9"
       d="m 84.375000,371.25 0,-45"
       inkscape:connector-curvature="0"
       id="path340" />
    <path
       style="fill:none;stroke:#000000;stroke-width:0.9"
       d="m 123.750000,11.25 0,-45"
       inkscape:connector-curvature="0"
       id="path342" />
    <path
       style="fill:none;stroke:#000000;stroke-width:0.9"
       d="m 123.750000,371.25 0,-45"
       inkscape:connector-curvature="0"
       id="path344" />
    <path
       style="fill:none;stroke:#000000;stroke-width:0.9"
       d="m 163.125000,11.25 0,-45"
       inkscape:connector-curvature="0"
       id="path346" />
    <path
       style="fill:none;stroke:#000000;stroke-width:0.9"
       d="m 163.125000,371.25 0,-45"
       inkscape:connector-curvature="0"
       id="path348" />
    <path
       style="fill:none;stroke:#000000;stroke-width:0.9"
       d="m 236.250000,11.25 0,-45"
       inkscape:connector-curvature="0"
       id="path350" />
    <path
       style="fill:none;stroke:#000000;stroke-width:0.9"
       d="m 236.250000,371.25 0,-45"
       inkscape:connector-curvature="0"
       id="path352" />
    <path
       style="fill:none;stroke:#000000;stroke-width:0.9"
       d="m -33.75,11.250000 45,0"
       inkscape:connector-curvature="0"
       id="path354" />
    <path
       style="fill:none;stroke:#000000;stroke-width:0.9"
       d="m 236.25,11.250000 45,0"
       inkscape:connector-curvature="0"
       id="path356" />
    <path
       style="fill:none;stroke:#000000;stroke-width:0.9"
       d="m -33.75,118.125000 45,0"
       inkscape:connector-curvature="0"
       id="path358" />
    <path
       style="fill:none;stroke:#000000;stroke-width:0.9"
       d="m 236.25,118.125000 45,0"
       inkscape:connector-curvature="0"
       id="path360" />
    <path
       style="fill:none;stroke:#000000;stroke-width:0.9"
       d="m -33.75,168.750000 45,0"
       inkscape:connector-curvature="0"
       id="path362" />
    <path
       style="fill:none;stroke:#000000;stroke-width:0.9"
       d="m 236.25,168.750000 45,0"
       inkscape:connector-curvature="0"
       id="path364" />
    <path
       style="fill:none;stroke:#000000;stroke-width:0.9"
       d="m -33.75,219.375000 45,0"
       inkscape:connector-curvature="0"
       id="path366" />
    <path
       style="fill:none;stroke:#000000;stroke-width:0.9"
       d="m 236.25,219.375000 45,0"
       inkscape:connector-curvature="0"
       id="path368" />
    <path
       style="fill:none;stroke:#000000;stroke-width:0.9"
       d="m -33.75,326.250000 45,0"
       inkscape:connector-curvature="0"
       id="path370" />
    <path
       style="fill:none;stroke:#000000;stroke-width:0.9"
       d="m 236.25,326.250000 45,0"
       inkscape:connector-curvature="0"
       id="path372" />
    <g
       id="guide-short0-0">
      <rect
         x="0.000000"
         y="-22.500000"
         width="247.500000"
         height="22.500000"
         style="fill:#73baff;stroke:#000000;stroke-width:0.9"
         id="rect375" />
    </g>
    <g
       id="guide-long1-1">
      <rect
         x="247.500000"
         y="219.375000"
         width="22.500000"
         height="118.125000"
         style="fill:#ffd291;stroke:#000000;stroke-width:0.9"
         id="rect378" />
      <rect
         x="247.500000"
         y="236.250000"
         width="22.500000"
         height="101.250000"
         style="fill:#b4e982;stroke:#000000;stroke-width:0.9"
         id="rect380" />
      <rect
         x="247.500000"
         y="258.750000"
         width="22.500000"
         height="78.750000"
         style="fill:#5adc4f;stroke:#000000;stroke-width:0.9"
         id="rect382" />
      <rect
         x="247.500000"
         y="0.000000"
         width="22.500000"
         height="219.375000"
         style="fill:#b9deff;stroke:#000000;stroke-width:0.9"
         id="rect384" />
      <rect
         x="247.500000"
         y="0.000000"
         width="22.500000"
         height="168.750000"
         style="fill:#9bceff;stroke:#000000;stroke-width:0.9"
         id="rect386" />
      <rect
         x="247.500000"
         y="0.000000"
         width="22.500000"
         height="101.250000"
         style="fill:#73baff;stroke:#000000;stroke-width:0.9"
         id="rect388" />
    </g>
    <g
       id="guide-short2-7"
       transform="matrix(-1,0,0,1,247.5,360)">
      <rect
         x="0.000000"
         y="-22.500000"
         width="247.500000"
         height="22.500000"
         style="fill:#b4e982;stroke:#000000;stroke-width:0.9"
         id="rect391" />
      <rect
         x="0.000000"
         y="-22.500000"
         width="118.125000"
         height="22.500000"
         style="fill:#5adc4f;stroke:#000000;stroke-width:0.9"
         id="rect393" />
      <rect
         x="129.375000"
         y="-22.500000"
         width="118.125000"
         height="22.500000"
         style="fill:#5adc4f;stroke:#000000;stroke-width:0.9"
         id="rect395" />
    </g>
    <g
       id="guide-long3-4"
       transform="matrix(1,0,0,-1,-270,337.5)">
      <rect
         x="247.500000"
         y="0.000000"
         width="22.500000"
         height="118.125000"
         style="fill:#ffd291;stroke:#000000;stroke-width:0.9"
         id="rect398" />
      <rect
         x="247.500000"
         y="0.000000"
         width="22.500000"
         height="101.250000"
         style="fill:#b4e982;stroke:#000000;stroke-width:0.9"
         id="rect400" />
      <rect
         x="247.500000"
         y="0.000000"
         width="22.500000"
         height="78.750000"
         style="fill:#5adc4f;stroke:#000000;stroke-width:0.9"
         id="rect402" />
      <rect
         x="247.500000"
         y="118.125000"
         width="22.500000"
         height="219.375000"
         style="fill:#b9deff;stroke:#000000;stroke-width:0.9"
         id="rect404" />
      <rect
         x="247.500000"
         y="168.750000"
         width="22.500000"
         height="168.750000"
         style="fill:#9bceff;stroke:#000000;stroke-width:0.9"
         id="rect406" />
      <rect
         x="247.500000"
         y="236.250000"
         width="22.500000"
         height="101.250000"
         style="fill:#73baff;stroke:#000000;stroke-width:0.9"
         id="rect408" />
    </g>
  </g>
  <g
     inkscape:groupmode="layer"
     id="cut_line_layer"
     inkscape:label="Cut Line"
     style="display:none"
     sodipodi:insensitive="true">
    <rect
       style="fill:none;stroke:#000000;stroke-width:0.5;stroke-linecap:butt;stroke-linejoin:bevel;stroke-miterlimit:4;stroke-dasharray:none;stroke-opacity:1"
       width="225"
       height="315"
       x="11.25"
       y="11.25"
       ry="17.361111"
       id="rect411" />
  </g>
  <g
     inkscape:groupmode="layer"
     id="page_border_layer"
     inkscape:label="Page Border"
     style="display:none"
     sodipodi:insensitive="true">
    <rect
       style="fill:none;stroke:#000000;stroke-width:0.5;stroke-linecap:butt;stroke-linejoin:bevel;stroke-miterlimit:4;stroke-dasharray:none;stroke-opacity:1"
       width="247.5"
       height="337.5"
       x="0"
       y="0"
       id="rect414" />
  </g>
</svg>
