<?xml version="1.0" encoding="UTF-8" standalone="no"?>
<svg
   xmlns:dc="http://purl.org/dc/elements/1.1/"
   xmlns:cc="http://creativecommons.org/ns#"
   xmlns:rdf="http://www.w3.org/1999/02/22-rdf-syntax-ns#"
   xmlns:svg="http://www.w3.org/2000/svg"
   xmlns="http://www.w3.org/2000/svg"
   xmlns:xlink="http://www.w3.org/1999/xlink"
   xmlns:sodipodi="http://sodipodi.sourceforge.net/DTD/sodipodi-0.dtd"
   xmlns:inkscape="http://www.inkscape.org/namespaces/inkscape"
   version="1.1"
   height="337.5"
   width="247.5"
   id="svg2"
   inkscape:version="0.91 r13725"
   sodipodi:docname="diamonds-6.svg">
  <metadata
     id="metadata4">
    <rdf:RDF>
      <cc:Work
         rdf:about="">
        <dc:format>image/svg+xml</dc:format>
        <dc:type
           rdf:resource="http://purl.org/dc/dcmitype/StillImage" />
        <dc:title />
        <dc:creator>
          <cc:Agent>
            <dc:title>Gary Kacmarcik</dc:title>
          </cc:Agent>
        </dc:creator>
      </cc:Work>
    </rdf:RDF>
  </metadata>
  <defs
     id="defs6">
    <filter
       inkscape:label="textureGrassBig"
       style="color-interpolation-filters:sRGB"
       id="textureGrassBig">
      <feTurbulence
         numOctaves="2"
         seed="106"
         type="turbulence"
         baseFrequency="0.070000"
         result="result1"
         id="feTurbulence9" />
      <feColorMatrix
         result="result0"
         in="SourceGraphic"
         type="luminanceToAlpha"
         id="feColorMatrix11" />
      <feColorMatrix
         result="result2"
         values="1 0 0 0 0 0 1 0 0 0 0 0 1 0 0 0 0 0 0.4 0 "
         id="feColorMatrix13" />
      <feComposite
         in="result2"
         operator="over"
         in2="result1"
         id="feComposite15" />
      <feColorMatrix
         result="result91"
         values="1 0 0 0 0 0 1 0 0 0 0 0 1 0 0 0 0 0 10 -4 "
         id="feColorMatrix17" />
      <feComposite
         operator="out"
         in="SourceGraphic"
         in2="result91"
         id="feComposite19" />
      <feGaussianBlur
         stdDeviation="2.500000"
         id="feGaussianBlur21" />
      <feColorMatrix
         values="1 0 0 0 0 0 1 0 0 0 0 0 1 0 0 0 0 0 1 0 "
         id="feColorMatrix23" />
    </filter>
    <filter
       inkscape:label="textureGrassSmall"
       style="color-interpolation-filters:sRGB"
       id="textureGrassSmall">
      <feTurbulence
         numOctaves="4"
         seed="106"
         type="turbulence"
         baseFrequency="0.500000"
         result="result1"
         id="feTurbulence26" />
      <feColorMatrix
         result="result0"
         in="SourceGraphic"
         type="luminanceToAlpha"
         id="feColorMatrix28" />
      <feColorMatrix
         result="result2"
         values="1 0 0 0 0 0 1 0 0 0 0 0 1 0 0 0 0 0 0.4 0 "
         id="feColorMatrix30" />
      <feComposite
         in="result2"
         operator="over"
         in2="result1"
         id="feComposite32" />
      <feColorMatrix
         result="result91"
         values="1 0 0 0 0 0 1 0 0 0 0 0 1 0 0 0 0 0 10 -4 "
         id="feColorMatrix34" />
      <feComposite
         operator="out"
         in="SourceGraphic"
         in2="result91"
         id="feComposite36" />
      <feGaussianBlur
         stdDeviation="1.000000"
         id="feGaussianBlur38" />
      <feColorMatrix
         values="1 0 0 0 0 0 1 0 0 0 0 0 1 0 0 0 0 0 1 0 "
         id="feColorMatrix40" />
    </filter>
    <filter
       inkscape:label="textureLand"
       style="color-interpolation-filters:sRGB"
       id="textureLand">
      <feTurbulence
         numOctaves="4"
         seed="106"
         type="turbulence"
         baseFrequency="0.500000"
         result="result1"
         id="feTurbulence43" />
      <feColorMatrix
         result="result0"
         in="SourceGraphic"
         type="luminanceToAlpha"
         id="feColorMatrix45" />
      <feColorMatrix
         result="result2"
         values="1 0 0 0 0 0 1 0 0 0 0 0 1 0 0 0 0 0 0.4 0 "
         id="feColorMatrix47" />
      <feComposite
         in="result2"
         operator="over"
         in2="result1"
         id="feComposite49" />
      <feColorMatrix
         result="result91"
         values="1 0 0 0 0 0 1 0 0 0 0 0 1 0 0 0 0 0 10 -4 "
         id="feColorMatrix51" />
      <feComposite
         operator="out"
         in="SourceGraphic"
         in2="result91"
         id="feComposite53" />
      <feGaussianBlur
         stdDeviation="0.800000"
         id="feGaussianBlur55" />
      <feColorMatrix
         values="1 0 0 0 0 0 1 0 0 0 0 0 1 0 0 0 0 0 1 0 "
         id="feColorMatrix57" />
    </filter>
    <filter
       inkscape:label="textureForestBig"
       style="color-interpolation-filters:sRGB"
       id="textureForestBig">
      <feTurbulence
         numOctaves="2"
         seed="106"
         type="turbulence"
         baseFrequency="0.300000"
         result="result1"
         id="feTurbulence60" />
      <feColorMatrix
         result="result0"
         in="SourceGraphic"
         type="luminanceToAlpha"
         id="feColorMatrix62" />
      <feColorMatrix
         result="result2"
         values="1 0 0 0 0 0 1 0 0 0 0 0 1 0 0 0 0 0 0.4 0 "
         id="feColorMatrix64" />
      <feComposite
         in="result2"
         operator="over"
         in2="result1"
         id="feComposite66" />
      <feColorMatrix
         result="result91"
         values="1 0 0 0 0 0 1 0 0 0 0 0 1 0 0 0 0 0 10 -4 "
         id="feColorMatrix68" />
      <feComposite
         operator="out"
         in="SourceGraphic"
         in2="result91"
         id="feComposite70" />
      <feGaussianBlur
         stdDeviation="2.000000"
         id="feGaussianBlur72" />
      <feColorMatrix
         values="1 0 0 0 0 0 1 0 0 0 0 0 1 0 0 0 0 0 1 0 "
         id="feColorMatrix74" />
    </filter>
    <filter
       inkscape:label="textureForestSmall"
       style="color-interpolation-filters:sRGB"
       id="textureForestSmall">
      <feTurbulence
         numOctaves="4"
         seed="106"
         type="turbulence"
         baseFrequency="0.350000"
         result="result1"
         id="feTurbulence77" />
      <feColorMatrix
         result="result0"
         in="SourceGraphic"
         type="luminanceToAlpha"
         id="feColorMatrix79" />
      <feColorMatrix
         result="result2"
         values="1 0 0 0 0 0 1 0 0 0 0 0 1 0 0 0 0 0 0.4 0 "
         id="feColorMatrix81" />
      <feComposite
         in="result2"
         operator="over"
         in2="result1"
         id="feComposite83" />
      <feColorMatrix
         result="result91"
         values="1 0 0 0 0 0 1 0 0 0 0 0 1 0 0 0 0 0 10 -4 "
         id="feColorMatrix85" />
      <feComposite
         operator="out"
         in="SourceGraphic"
         in2="result91"
         id="feComposite87" />
      <feGaussianBlur
         stdDeviation="1.000000"
         id="feGaussianBlur89" />
      <feColorMatrix
         values="1 0 0 0 0 0 1 0 0 0 0 0 1 0 0 0 0 0 1 0 "
         id="feColorMatrix91" />
    </filter>
    <filter
       inkscape:label="roughenShoreline"
       style="color-interpolation-filters:sRGB"
       id="roughenShoreline">
      <feTurbulence
         numOctaves="4"
         seed="106"
         type="turbulence"
         baseFrequency="0.050000"
         result="turb"
         id="feTurbulence94" />
      <feDisplacementMap
         scale="6.600000"
         yChannelSelector="G"
         xChannelSelector="R"
         in="SourceGraphic"
         in2="turb"
         id="feDisplacementMap96" />
    </filter>
    <filter
       inkscape:label="roughenForest"
       style="color-interpolation-filters:sRGB"
       id="roughenForest">
      <feTurbulence
         numOctaves="4"
         seed="106"
         type="fractalNoise"
         baseFrequency="0.150000 0.150000"
         result="turb"
         id="feTurbulence99" />
      <feDisplacementMap
         scale="6.600000"
         yChannelSelector="G"
         xChannelSelector="R"
         in="SourceGraphic"
         in2="turb"
         id="feDisplacementMap101" />
    </filter>
    <filter
       inkscape:collect="always"
       inkscape:label="blurSuitRankGlow"
       style="color-interpolation-filters:sRGB"
       id="blurSuitRankGlow"
       x="-0.029025"
       y="-0.020458"
       width="1.058049"
       height="1.040917">
      <feGaussianBlur
         inkscape:collect="always"
         stdDeviation="2.515067"
         id="feGaussianBlur104" />
    </filter>
    <filter
       inkscape:collect="always"
       inkscape:label="blurWaterDeep"
       style="color-interpolation-filters:sRGB"
       id="blurWaterDeep"
       x="-0.056691"
       y="-0.041620"
       width="1.113381"
       height="1.083239">
      <feGaussianBlur
         inkscape:collect="always"
         stdDeviation="6.919136"
         id="feGaussianBlur107" />
    </filter>
    <filter
       inkscape:collect="always"
       inkscape:label="blurWaterShallow"
       style="color-interpolation-filters:sRGB"
       id="blurWaterShallow"
       x="-0.055818"
       y="-0.042103"
       width="1.111637"
       height="1.084205">
      <feGaussianBlur
         inkscape:collect="always"
         stdDeviation="6.561501"
         id="feGaussianBlur110" />
    </filter>
    <filter
       inkscape:collect="always"
       inkscape:label="blurWaterHilight"
       style="color-interpolation-filters:sRGB"
       id="blurWaterHilight"
       x="-0.071178"
       y="-0.051856"
       width="1.142356"
       height="1.103712">
      <feGaussianBlur
         inkscape:collect="always"
         stdDeviation="6.857532"
         id="feGaussianBlur113" />
    </filter>
    <filter
       inkscape:collect="always"
       inkscape:label="blurGrass"
       style="color-interpolation-filters:sRGB"
       id="blurGrass"
       x="-0.032100"
       y="-0.019164"
       width="1.064201"
       height="1.038328">
      <feGaussianBlur
         inkscape:collect="always"
         stdDeviation="2.386213"
         id="feGaussianBlur116" />
    </filter>
    <filter
       inkscape:collect="always"
       inkscape:label="blurForestShadow"
       style="color-interpolation-filters:sRGB"
       id="blurForestShadow"
       x="-0.033576"
       y="-0.018674"
       width="1.067152"
       height="1.037348">
      <feGaussianBlur
         inkscape:collect="always"
         stdDeviation="2.199785"
         id="feGaussianBlur119" />
    </filter>
    <linearGradient
       id="gradientStopsFish"
       inkscape:collect="always">
      <stop
         offset="0.000000"
         style="stop-color:#ff5555;stop-opacity:1.000000"
         id="stop128" />
      <stop
         offset="1.000000"
         style="stop-color:#ffffff;stop-opacity:1.000000"
         id="stop130" />
    </linearGradient>
    <linearGradient
       id="gradientStopsCoconut"
       inkscape:collect="always">
      <stop
         offset="0.000000"
         style="stop-color:#ffffff;stop-opacity:1.000000"
         id="stop133" />
      <stop
         offset="1.000000"
         style="stop-color:#c8c8c8;stop-opacity:0.000000"
         id="stop135" />
    </linearGradient>
    <linearGradient
       id="gradientStopsFlower"
       inkscape:collect="always">
      <stop
         offset="0.000000"
         style="stop-color:#b16dff;stop-opacity:1.000000"
         id="stop138" />
      <stop
         offset="1.000000"
         style="stop-color:#e7d2ff;stop-opacity:1.000000"
         id="stop140" />
    </linearGradient>
    <linearGradient
       id="gradientStopsJellyfish"
       inkscape:collect="always">
      <stop
         offset="0.000000"
         style="stop-color:#4f97ff;stop-opacity:1.000000"
         id="stop143" />
      <stop
         offset="1.000000"
         style="stop-color:#cfe3ff;stop-opacity:1.000000"
         id="stop145" />
    </linearGradient>
    <linearGradient
       id="gradientStopsShip"
       inkscape:collect="always">
      <stop
         offset="0.000000"
         style="stop-color:#b67800;stop-opacity:1.000000"
         id="stop148" />
      <stop
         offset="1.000000"
         style="stop-color:#d28b00;stop-opacity:1.000000"
         id="stop150" />
    </linearGradient>
    <linearGradient
       id="gradientFish"
       xlink:href="#gradientStopsFish"
       x1="178.789090"
       y1="-114.782830"
       x2="180.407300"
       y2="-103.782830"
       gradientTransform="translate(-178.76256,1.0606602)"
       gradientUnits="userSpaceOnUse"
       inkscape:collect="always" />
    <linearGradient
       id="gradientJellyfishTentacle1a"
       xlink:href="#gradientStopsJellyfish"
       x1="118.024030"
       y1="-110.827530"
       x2="121.753140"
       y2="-96.140030"
       gradientTransform="translate(-120,0)"
       gradientUnits="userSpaceOnUse"
       inkscape:collect="always" />
    <linearGradient
       id="gradientJellyfishTentacle1b"
       xlink:href="#gradientStopsJellyfish"
       x1="118.024030"
       y1="-110.827530"
       x2="121.753140"
       y2="-96.140030"
       gradientTransform="translate(-120,0)"
       gradientUnits="userSpaceOnUse"
       inkscape:collect="always" />
    <linearGradient
       id="gradientJellyfishTentacle2"
       xlink:href="#gradientStopsJellyfish"
       x1="118.218180"
       y1="-115.782610"
       x2="121.698270"
       y2="-97.813858"
       gradientTransform="translate(-120,0)"
       gradientUnits="userSpaceOnUse"
       inkscape:collect="always" />
    <linearGradient
       id="gradientJellyfishTentacle3"
       xlink:href="#gradientStopsJellyfish"
       x1="123.335370"
       y1="-114.610190"
       x2="116.678600"
       y2="-98.453941"
       gradientTransform="translate(-120,0)"
       gradientUnits="userSpaceOnUse"
       inkscape:collect="always" />
    <linearGradient
       id="gradientShip"
       xlink:href="#gradientStopsShip"
       x1="196.432910"
       y1="221.715270"
       x2="203.663250"
       y2="204.277770"
       gradientTransform="matrix(0.37654483,0.9263984,-0.9263984,0.37654483,355.66788,-318.43897)"
       gradientUnits="userSpaceOnUse"
       inkscape:collect="always" />
    <radialGradient
       id="gradientCoconut"
       xlink:href="#gradientStopsCoconut"
       cx="1.944096"
       cy="-60.612652"
       fx="1.944096"
       fy="-60.612652"
       r="6.723294"
       gradientUnits="userSpaceOnUse"
       gradientTransform="matrix(1.691364,-0.31394812,0.29762395,1.603419,17.826033,-7.042221)"
       inkscape:collect="always" />
    <radialGradient
       id="gradientFlower"
       xlink:href="#gradientStopsFlower"
       cx="60.884877"
       cy="-69.652750"
       fx="60.884877"
       fy="-69.652750"
       r="15.835310"
       gradientUnits="userSpaceOnUse"
       gradientTransform="matrix(0.8413905,0,0,0.87120012,-50.722984,-48.679159)"
       inkscape:collect="always" />
    <radialGradient
       id="gradientJellyfish"
       xlink:href="#gradientStopsJellyfish"
       cx="120.453410"
       cy="-112.943900"
       fx="120.453410"
       fy="-112.943900"
       r="10.580511"
       gradientUnits="userSpaceOnUse"
       gradientTransform="matrix(1.1662998,0.0435575,-0.04526952,1.2121402,-145.14628,17.080499)"
       inkscape:collect="always" />
  </defs>
  <sodipodi:namedview
     id="base"
     pagecolor="#ffffff"
     bordercolor="#666666"
     borderopacity="1.0"
     inkscape:pageopacity="0.0"
     inkscape:pageshadow="2"
     inkscape:zoom="2"
     inkscape:cx="42.37643"
     inkscape:cy="205.04449"
     inkscape:document-units="in"
     showgrid="true"
     units="in"
     inkscape:window-width="1392"
     inkscape:window-height="836"
     inkscape:window-x="39"
     inkscape:window-y="6"
     inkscape:window-maximized="0"
     inkscape:snap-grids="true"
     inkscape:snap-to-guides="true"
     inkscape:snap-nodes="true"
     inkscape:object-nodes="true"
     inkscape:snap-smooth-nodes="true"
     inkscape:snap-intersection-paths="true"
     inkscape:object-paths="true"
     inkscape:snap-bbox="true"
     inkscape:bbox-nodes="true"
     inkscape:snap-others="true"
     inkscape:bbox-paths="false"
     inkscape:snap-global="false"
     inkscape:current-layer="labels_guide_layer">
    <inkscape:grid
       type="xygrid"
       id="grid3051"
       empspacing="2"
       visible="true"
       enabled="true"
       snapvisiblegridlinesonly="true"
       spacingx="0.0625in"
       spacingy="0.0625in"
       dotted="false"
       units="in" />
  </sodipodi:namedview>
  <g
     inkscape:groupmode="layer"
     id="water_layer"
     inkscape:label="Water"
     style="display:inline"
     sodipodi:insensitive="true">
    <rect
       id="water"
       style="fill:#b9deff;fill-opacity:1;stroke:none"
       x="0"
       y="0"
       width="247.5"
       height="337.5" />
  </g>
  <g
     inkscape:groupmode="layer"
     id="water_shallow_layer"
     inkscape:label="Water Shallow"
     style="display:inline"
     sodipodi:insensitive="true">
    <path
       style="fill:#9bd1ff;fill-opacity:0.70;fill-rule:evenodd;stroke:none;filter:url(#blurWaterShallow)"
       d="m -11.25,-11.25 0,360 135,0 0,-22.5 c 0,0 2.48729,-15.42445 0,-22.5 -3.22413,-9.17163 -16.27703,-13.23048 -18.25,-22.75 -2.01651,-9.72957 9.08256,-18.88731 7.875,-28.75 -1.00433,-8.20283 -8.94752,-13.99619 -12.125,-21.625 -3.03241,-7.28051 -5.327793,-14.95081 -6.5,-22.75 C 92.897955,195.55256 92.328203,182.84818 94,170.5 c 1.901356,-14.04375 8.59985,-27.02355 12.125,-40.75 2.6407,-10.2825 3.03888,-21.17861 6.75,-31.125 2.63993,-7.075451 9.00419,-12.558491 10.875,-19.875 2.78693,-10.899335 2.58472,-22.800949 0,-33.75 -0.96327,-4.08047 -5.16751,-7.082407 -5.625,-11.25 -0.84356,-7.684662 5.625,-22.5 5.625,-22.5 l 0,-22.5 z"
       inkscape:connector-curvature="0"
       id="path166" />
  </g>
  <g
     inkscape:groupmode="layer"
     id="water_deep_layer"
     inkscape:label="Water Deep"
     style="display:inline"
     sodipodi:insensitive="true">
    <path
       style="fill:#87c8ff;fill-opacity:0.60;fill-rule:evenodd;stroke:none;filter:url(#blurWaterDeep)"
       d="m -11.25,-11.25 0,360 78.75,0 0,-22.5 5.625,-22.5 L 67.5,286.875 39.375,270 33.75,230.625 28.125,202.5 45,163.125 50.625,140.625 45,112.5 56.25,73.125 61.875,39.375 67.5,11.25 l 0,-22.5 z"
       inkscape:connector-curvature="0"
       id="path169" />
  </g>
  <g
     inkscape:groupmode="layer"
     id="water_hilight_layer"
     inkscape:label="Water Hilight"
     style="display:inline"
     sodipodi:insensitive="true">
    <use
       xlink:href="#shoreline"
       height="100%"
       width="100%"
       x="0"
       y="0"
       style="display:inline;fill:#ffffff;fill-opacity:1;stroke:#ffffff;stroke-opacity:1;filter:url(#blurWaterHilight)"
       id="use172" />
  </g>
  <g
     inkscape:groupmode="layer"
     id="land_layer"
     inkscape:label="Land"
     style="display:inline"
     sodipodi:insensitive="true">
    <use
       xlink:href="#shoreline"
       height="100%"
       width="100%"
       x="0"
       y="0"
       style="display:inline;fill:#ffddab;fill-opacity:1;stroke:none;stroke-width:1;stroke-miterlimit:4;stroke-dasharray:none;stroke-opacity:1"
       id="use175" />
  </g>
  <g
     inkscape:groupmode="layer"
     id="land_texture_layer"
     inkscape:label="Land Texture"
     style="display:inline"
     sodipodi:insensitive="true">
    <use
       xlink:href="#shoreline"
       height="100%"
       width="100%"
       x="0"
       y="0"
       style="display:inline;fill:#ffca7d;fill-opacity:1;stroke:none;stroke-width:1;stroke-miterlimit:4;stroke-dasharray:none;stroke-opacity:1;filter:url(#textureLand)"
       id="use178" />
  </g>
  <g
     inkscape:groupmode="layer"
     id="shoreline_layer"
     inkscape:label="Shoreline"
     style="display:inline"
     sodipodi:insensitive="true">
    <use
       xlink:href="#shoreline"
       height="100%"
       width="100%"
       x="0"
       y="0"
       style="display:inline;fill:none;fill-opacity:1;stroke:#5f4c14;stroke-width:1;stroke-miterlimit:4;stroke-dasharray:none;stroke-opacity:1"
       id="use181" />
  </g>
  <g
     inkscape:groupmode="layer"
     id="shoreline_master_layer"
     inkscape:label="Shoreline Master"
     style="display:none"
     sodipodi:insensitive="true">
    <path
       id="shoreline"
       style="color:#000000;clip-rule:nonzero;display:inline;overflow:visible;visibility:visible;opacity:1;isolation:auto;mix-blend-mode:normal;color-interpolation:sRGB;color-interpolation-filters:linearRGB;solid-color:#000000;solid-opacity:1;fill-opacity:1;fill-rule:evenodd;filter:url(#roughenShoreline);color-rendering:auto;image-rendering:auto;shape-rendering:auto;text-rendering:auto;enable-background:accumulate"
       d="m 246.28906,-11.558594 c -26.20897,2.5689729 -52.5738,1.50427 -78.85008,0.96308 -1.7397,-0.17063 -3.95699,0.354566 -4.54367,2.2290267 -0.91649,2.435519 0.0784,5.0169513 0.0778,7.51475023 0.79477,10.00982377 1.58955,20.01964807 2.38432,30.02947107 2.13059,2.629503 5.60968,4.231235 6.71485,7.623047 4.46402,15.194931 6.35115,31.067631 6.33645,46.881095 0.25484,6.360297 -0.12439,12.878654 1.78352,19.036764 0.6563,2.82755 1.20846,5.67881 1.91586,8.49509 1.35651,5.5446 0.5309,11.27485 0.50923,16.90567 -0.11432,3.23307 0.23945,6.45776 0.87053,9.62498 0.48919,2.77145 0.46661,5.69566 -0.64713,8.32196 -1.45329,3.91515 -4.4721,7.03563 -7.88508,9.33848 -2.74991,2.11277 -5.41914,4.82152 -6.02716,8.37754 -1.80574,6.77598 -3.47238,13.90476 -2.06631,20.91873 1.45709,8.50839 6.01995,16.05247 8.09288,24.38074 1.43503,7.1872 -0.003,14.49045 -0.50493,21.69529 -0.98965,10.50825 -1.42872,21.28585 -5.22944,31.2565 -2.38235,6.10858 -7.49015,10.62997 -10.12889,16.59724 -2.10899,5.14759 -1.94353,10.86527 -1.43799,16.30366 1.40825,12.56461 4.30593,24.96521 4.70389,37.63816 0.15256,3.77545 -0.0556,7.55377 0.0407,11.32966 0.74855,3.99384 4.91392,6.77114 8.87695,6.40235 14.03109,0.56405 28.1191,0.94151 42.12409,-0.32122 7.44356,-0.77333 14.98048,-2.11463 21.756,-5.42198 7.48194,-3.82826 13.53891,-10.71484 15.62921,-18.93676 2.49325,-8.38959 1.80201,-17.23512 1.86046,-25.86884 -0.35177,-97.70053 -0.70354,-195.40106 -1.05531,-293.1015931 2.78637,-4.0792349 4.5873,-8.8241232 5.21094,-13.7246094 -2.55459,-3.0359805 -6.58502,-4.6107965 -10.51172,-4.4882815 z"
       inkscape:connector-curvature="0" />
  </g>
  <g
     inkscape:groupmode="layer"
     id="grass_layer"
     inkscape:label="Grass"
     style="display:inline"
     sodipodi:insensitive="true">
    <use
       xlink:href="#grass"
       height="100%"
       width="100%"
       x="0"
       y="0"
       style="display:inline;fill:#b4e982;fill-opacity:1;stroke:none;stroke-width:1;stroke-miterlimit:4;stroke-dasharray:none;stroke-opacity:1"
       id="use186" />
  </g>
  <g
     inkscape:groupmode="layer"
     id="grass_texture1_layer"
     inkscape:label="Grass Texture Big"
     style="display:inline"
     sodipodi:insensitive="true">
    <use
       xlink:href="#grass"
       height="100%"
       width="100%"
       x="0"
       y="0"
       style="display:inline;fill:#a7e46a;fill-opacity:1;stroke:none;stroke-width:1;stroke-miterlimit:4;stroke-dasharray:none;stroke-opacity:1;filter:url(#textureGrassBig)"
       id="use189" />
  </g>
  <g
     inkscape:groupmode="layer"
     id="grass_texture2_layer"
     inkscape:label="Grass Texture Small"
     style="display:inline"
     sodipodi:insensitive="true">
    <use
       xlink:href="#grass"
       height="100%"
       width="100%"
       x="0"
       y="0"
       style="display:inline;fill:#8cdd3d;fill-opacity:1;stroke:none;stroke-width:1;stroke-miterlimit:4;stroke-dasharray:none;stroke-opacity:1;filter:url(#textureGrassSmall)"
       id="use192" />
  </g>
  <g
     inkscape:groupmode="layer"
     id="grass_master_layer"
     inkscape:label="Grass Master"
     style="display:none"
     sodipodi:insensitive="true">
    <path
       id="grass"
       style="color:#000000;clip-rule:nonzero;display:inline;overflow:visible;visibility:visible;opacity:1;isolation:auto;mix-blend-mode:normal;color-interpolation:sRGB;color-interpolation-filters:linearRGB;solid-color:#000000;solid-opacity:1;fill-opacity:1;fill-rule:evenodd;filter:url(#blurGrass);color-rendering:auto;image-rendering:auto;shape-rendering:auto;text-rendering:auto;enable-background:accumulate"
       d="m 168.75,-11.25 0,22.5 c 0,0 -0.67402,7.561071 0,11.25 1.31305,7.186373 5.3981,13.583597 7.75,20.5 3.37789,9.933613 7.93381,19.700611 9.125,30.125 0.85337,7.46805 -1.92347,14.99529 -1.5,22.5 0.3817,6.76453 2.41862,13.33298 3.625,20 1.16856,6.45799 3.56129,12.81242 3.5,19.375 -0.0893,9.56024 -3.52751,18.79726 -5.625,28.125 -1.69605,7.54248 -5.13262,14.78487 -5.625,22.5 -0.3848,6.0294 2.03783,11.95896 2.125,18 0.10863,7.52879 -1.26115,15.00677 -2,22.5 -0.987,10.00997 -0.40304,20.3528 -3.25,30 -2.23097,7.55985 -8.35826,13.5758 -10.625,21.125 -2.55787,8.51881 -3.69207,17.62355 -3.125,26.5 0.49288,7.7151 5.625,22.5 5.625,22.5 l 0,22.5 90,0 0,-360 z"
       inkscape:connector-curvature="0" />
  </g>
  <g
     inkscape:groupmode="layer"
     id="forest_shadow_layer"
     inkscape:label="Forest Shadow"
     style="display:inline"
     sodipodi:insensitive="true">
    <g
       style="filter:url(#blurForestShadow)"
       id="g197">
      <use
         xlink:href="#forest"
         height="100%"
         width="100%"
         x="0"
         y="0"
         style="display:inline;opacity:0.75;fill:#258c1b;fill-opacity:1;filter:url(#roughenForest)"
         id="use199" />
    </g>
  </g>
  <g
     inkscape:groupmode="layer"
     id="forest_fill_layer"
     inkscape:label="Forest Fill"
     style="display:inline"
     sodipodi:insensitive="true">
    <use
       xlink:href="#forest"
       height="100%"
       width="100%"
       x="0"
       y="0"
       style="fill:#83d700;fill-opacity:1;stroke:none;stroke-width:1.5;stroke-miterlimit:4;stroke-dasharray:none;stroke-opacity:1;filter:url(#roughenForest)"
       id="use202" />
  </g>
  <g
     inkscape:groupmode="layer"
     id="forest_texture_big_layer"
     inkscape:label="Forest Texture Big"
     style="display:inline"
     sodipodi:insensitive="true">
    <g
       style="filter:url(#textureForestBig)"
       id="g205">
      <use
         xlink:href="#forest"
         height="100%"
         width="100%"
         x="0"
         y="0"
         style="fill:#548c00;fill-opacity:1;stroke:none;stroke-width:1.5;stroke-miterlimit:4;stroke-dasharray:none;stroke-opacity:1;filter:url(#roughenForest)"
         id="use207" />
    </g>
  </g>
  <g
     inkscape:groupmode="layer"
     id="forest_texture_small_layer"
     inkscape:label="Forest Texture Small"
     style="display:inline"
     sodipodi:insensitive="true">
    <g
       style="filter:url(#textureForestSmall)"
       id="g210">
      <use
         xlink:href="#forest"
         height="100%"
         width="100%"
         x="0"
         y="0"
         style="fill:#78c125;fill-opacity:1;stroke:none;stroke-width:1;stroke-miterlimit:4;stroke-dasharray:none;stroke-opacity:1;filter:url(#roughenForest)"
         id="use212" />
    </g>
  </g>
  <g
     inkscape:groupmode="layer"
     id="forest_outline_layer"
     inkscape:label="Forest Outline"
     style="display:inline"
     sodipodi:insensitive="true">
    <use
       xlink:href="#forest"
       height="100%"
       width="100%"
       x="0"
       y="0"
       style="fill:none;fill-opacity:1;stroke:#006800;stroke-width:1.5;stroke-miterlimit:4;stroke-dasharray:none;stroke-opacity:1;filter:url(#roughenForest)"
       id="use215" />
  </g>
  <g
     inkscape:groupmode="layer"
     id="forest_master_layer"
     inkscape:label="Forest Master"
     style="display:none"
     sodipodi:insensitive="true">
    <path
       id="forest"
       style="color:#000000;clip-rule:nonzero;display:inline;overflow:visible;visibility:visible;opacity:1;isolation:auto;mix-blend-mode:normal;color-interpolation:sRGB;color-interpolation-filters:linearRGB;solid-color:#000000;solid-opacity:1;fill-opacity:1;fill-rule:nonzero;color-rendering:auto;image-rendering:auto;shape-rendering:auto;text-rendering:auto;enable-background:accumulate"
       d="m 194,-6.25 c -3.20541,0.00407 -5.9292,2.2544027 -6.41602,5.30078125 C 186.87833,0.07326764 186.50134,1.2728697 186.5,2.5 c 0.001,0.9557895 0.2304,1.898578 0.66992,2.7558594 C 186.73221,6.1095891 186.50308,7.0481698 186.5,8 c 0.003,0.6798664 0.12083,1.3547481 0.34961,1.9980469 C 186.62039,10.642587 186.5023,11.318822 186.5,12 c 0.003,1.602724 0.64632,3.143073 1.79688,4.302734 -0.26425,-0.03327 -0.53038,-0.05088 -0.79688,-0.05273 -3.58985,0 -6.5,2.79822 -6.5,6.25 0.002,2.116112 1.11803,4.08739 2.96484,5.238281 C 183.33676,28.719248 183.00285,29.84804 183,31 c 0.004,2.89703 2.07711,5.411983 5.00977,6.076172 -0.33612,0.767233 -0.50943,1.591303 -0.50977,2.423828 0,3.45178 2.91015,6.25 6.5,6.25 1.45482,-4.52e-4 2.86742,-0.470173 4.01172,-1.333984 0.32187,0.739481 0.78869,1.412518 1.375,1.982422 C 199.13346,47.072459 199.00264,47.783341 199,48.5 c 4.1e-4,0.366742 0.0344,0.732738 0.10156,1.09375 C 198.42549,49.368741 197.71542,49.252596 197,49.25 c -0.91179,0.0026 -1.81281,0.189563 -2.64453,0.548828 C 193.27542,47.63192 190.99903,46.252265 188.5,46.25 c -3.58985,0 -6.5,2.79822 -6.5,6.25 0,3.45178 2.91015,6.25 6.5,6.25 0.91179,-0.0026 1.81281,-0.189563 2.64453,-0.548828 1.08005,2.166908 3.35644,3.546563 5.85547,3.548828 0.41179,-0.0016 0.82249,-0.04086 1.22656,-0.117188 0.16243,0.570896 0.40838,1.116713 0.73047,1.621094 C 196.55973,64.233824 195.0024,66.495263 195,69 c 6.6e-4,0.974075 0.2381,1.934518 0.69336,2.804688 C 194.60673,72.952439 194.00311,74.4479 194,76 c 0.003,1.467993 0.54273,2.888228 1.52539,4.011719 0.23613,2.756101 2.32788,5.035335 5.14258,5.603515 C 200.55845,86.069355 200.50211,86.533833 200.5,87 c 0.004,2.137088 1.14395,4.123903 3.02148,5.267578 -3.39472,0.240956 -6.02114,2.959387 -6.02148,6.232422 0,3.45178 2.91015,6.25 6.5,6.25 0.86212,-0.002 1.71527,-0.1684 2.50977,-0.49023 -0.005,0.08 -0.008,0.1601 -0.01,0.24023 9.5e-4,2.74934 1.8703,5.17522 4.60547,5.97656 0.12244,0.17625 0.25412,0.34639 0.39453,0.50977 l 0,0.0137 c 0,3.45178 2.91015,6.25 6.5,6.25 3.04916,-0.002 5.68723,-2.04119 6.34375,-4.9043 0.87951,-0.50715 1.62173,-1.20722 2.16602,-2.04297 -0.004,0.0657 -0.008,0.13147 -0.01,0.19727 0.002,1.14774 0.33222,2.27285 0.95508,3.25195 -0.62197,0.978 -0.95222,2.10165 -0.95462,3.24802 0.005,0.95815 0.23873,1.90239 0.68359,2.75977 -0.0611,-0.004 -0.12235,-0.008 -0.18359,-0.01 -3.58985,0 -6.5,2.79822 -6.5,6.25 0,3.45178 2.91015,6.25 6.5,6.25 0.0853,-0.001 0.17064,-0.004 0.25586,-0.008 -1.12465,1.1546 -1.75212,2.6763 -1.75586,4.25823 0.003,1.94888 0.95135,3.78485 2.56445,4.96484 -0.37037,0.79783 -0.56265,1.66146 -0.56445,2.53516 0.002,1.81876 0.82761,3.54651 2.26172,4.73242 -1.12907,1.15609 -1.75885,2.68165 -1.76172,4.26758 0.003,2.36145 1.39066,4.51944 3.58594,5.57812 1.23215,1.37595 3.0257,2.16865 4.91406,2.17188 0.40585,-0.002 0.81061,-0.0406 1.20898,-0.11523 0.87121,0.40201 1.82468,0.61219 2.79102,0.61523 0.23505,-0.003 0.46976,-0.0177 0.70312,-0.0449 1.22908,1.29948 2.97011,2.04169 4.79688,2.0449 3.58985,0 6.5,-2.79822 6.5,-6.25 -0.002,-0.93542 -0.22217,-1.8585 -0.64453,-2.70117 0.0952,-0.4269 0.14367,-0.86222 0.14453,-1.29883 -7.3e-4,-2.727 -1.84017,-5.13875 -4.54492,-5.95898 0.99646,-1.12856 1.54394,-2.56059 1.54492,-4.04102 -0.003,-0.67987 -0.12083,-1.35475 -0.34961,-1.99805 0.0391,-0.11163 0.0749,-0.22431 0.10742,-0.33789 0.80512,-1.06505 1.23985,-2.34738 1.24219,-3.66406 -0.003,-1.50619 -0.57189,-2.96062 -1.60156,-4.0957 -0.0848,-0.44842 -0.22039,-0.88657 -0.4043,-1.30664 0.002,-0.0325 0.004,-0.0651 0.006,-0.0977 -0.002,-1.04678 -0.2773,-2.07632 -0.80078,-2.99414 0.52546,-0.9213 0.80088,-1.95511 0.80078,-3.00586 -0.002,-0.63355 -0.10398,-1.26314 -0.30273,-1.86719 1.75289,-1.16565 2.80013,-3.08353 2.80273,-5.13281 -9.6e-4,-0.17344 -0.009,-0.34677 -0.0254,-0.51953 0.0149,-0.15978 0.0233,-0.32006 0.0254,-0.48047 -0.003,-1.14256 -0.33093,-2.26257 -0.94922,-3.23828 0.29412,-0.72065 0.44645,-1.48757 0.44922,-2.26172 -8.2e-4,-0.10032 -0.004,-0.20061 -0.01,-0.30078 0.004,-0.0663 0.008,-0.13277 0.01,-0.19922 -0.003,-0.67987 -0.12083,-1.35475 -0.34961,-1.99805 0.22922,-0.64454 0.34731,-1.32077 0.34961,-2.00195 -0.002,-1.46165 -0.53711,-2.87634 -1.51172,-3.99805 0.9755,-1.12274 1.51047,-2.53896 1.51172,-4.00195 -0.002,-0.415392 -0.0472,-0.829549 -0.13477,-1.236328 0.0894,-0.41573 0.1346,-0.83914 0.13477,-1.263672 -0.001,-1.223892 -0.37607,-2.420515 -1.07812,-3.441406 -0.20733,-1.307304 -0.84056,-2.517685 -1.8086,-3.457032 C 247.36654,89.427541 247.49736,88.716659 247.5,88 c -5.5e-4,-0.55289 -0.0774,-1.103267 -0.22852,-1.636719 C 247.74827,85.478356 247.99806,84.496627 248,83.5 c -0.002,-0.825036 -0.17399,-1.641516 -0.50586,-2.402344 0.002,-0.03254 0.004,-0.06509 0.006,-0.09766 -0.002,-1.353925 -0.46126,-2.670603 -1.30859,-3.751953 0.84649,-1.080282 1.30567,-2.395459 1.30859,-3.748047 -2.7e-4,-0.341582 -0.0297,-0.682568 -0.0879,-1.019531 0.056,-0.324094 0.0854,-0.651933 0.0879,-0.980469 -0.002,-1.375644 -0.47544,-2.712306 -1.34766,-3.802734 C 248.48997,66.692635 249.99642,64.462018 250,62 c -7.5e-4,-0.100321 -0.004,-0.200611 -0.01,-0.300781 0.004,-0.06635 0.008,-0.132767 0.01,-0.199219 -0.003,-0.859466 -0.18934,-1.709198 -0.54883,-2.496094 C 249.81175,58.214599 249.99861,57.362099 250,56.5 c -0.002,-1.793061 -0.80537,-3.498817 -2.20508,-4.683594 C 248.25609,50.943654 248.49761,49.978941 248.5,49 c -0.003,-1.337573 -0.45198,-2.638974 -1.28125,-3.712891 0.94469,-0.961378 1.54784,-2.186139 1.72266,-3.498047 C 251.39355,40.833494 252.99859,38.5441 253,36 c -0.002,-2.462284 -1.50816,-4.693737 -3.8457,-5.699219 1.48436,-1.186053 2.34381,-2.94503 2.3457,-4.800781 -0.004,-2.894077 -2.07313,-5.407225 -5.00195,-6.074219 C 248.07636,18.241885 248.99933,16.42477 249,14.5 c -0.002,-0.847227 -0.1837,-1.685163 -0.5332,-2.462891 C 249.7638,10.857408 250.49905,9.2166784 250.5,7.5 250.49706,6.382856 250.18277,5.2868877 249.58984,4.3261719 248.64507,1.8774046 246.21631,0.25173879 243.5,0.25 c -0.84774,0.001125 -1.68707,0.16169165 -2.4707,0.47265625 C 239.84708,-1.1232137 237.75453,-2.2482091 235.5,-2.25 c -2.54309,0.00286 -4.85087,1.4314823 -5.90625,3.65625 -0.0418,0.00872 -0.0834,0.017834 -0.125,0.027344 C 229.16426,-1.7837578 226.35987,-4.2477618 223,-4.25 c -1.30577,0.00236 -2.58053,0.382814 -3.6582,1.0917969 -1.23081,-1.328012 -2.99182,-2.0888193 -4.8418,-2.0917969 -1.55293,0.00244 -3.05364,0.5393946 -4.23047,1.5136719 C 209.04115,-5.0175282 207.31227,-5.7474525 205.5,-5.75 c -1.88236,0.00203 -3.67136,0.7885924 -4.9043,2.15625 -0.36424,0.075877 -0.72102,0.1817361 -1.0664,0.3164062 C 198.34708,-5.1232137 196.25453,-6.2482092 194,-6.25 Z m 19.01367,20.113281 c 0.0269,0.431257 0.10019,0.858673 0.21875,1.275391 -0.25905,-0.09163 -0.52391,-0.167308 -0.79297,-0.226563 0.22553,-0.331329 0.4178,-0.682517 0.57422,-1.048828 z m -8,3.583985 c 0.18008,0.05449 0.36255,0.101409 0.54688,0.140625 -0.0876,0.126613 -0.17031,0.256256 -0.24805,0.388671 -0.0907,-0.180947 -0.19043,-0.357584 -0.29883,-0.529296 z m -12.80664,0.748046 c 0.26292,0.03377 0.52773,0.05203 0.79297,0.05469 0.18717,-0.0013 0.3742,-0.01047 0.56055,-0.02734 -0.17885,0.387284 -0.31628,0.791054 -0.41016,1.205078 -0.26077,-0.446411 -0.57759,-0.86032 -0.94336,-1.232426 z m 31.50586,4.486329 c 0.81647,0.693315 1.80105,1.178218 2.86328,1.410156 -0.0385,0.243894 -0.062,0.489766 -0.0703,0.736328 -0.95521,0.14257 -1.86533,0.4882 -2.66406,1.011719 C 223.94464,25.400022 223.99768,24.950793 224,24.5 c -0.002,-0.616417 -0.0987,-1.22917 -0.28711,-1.818359 z m -29.86523,1.146484 c 0.22582,0.382067 0.49292,0.740167 0.79687,1.068359 -0.46686,0.09495 -0.92142,0.239052 -1.35547,0.429688 0.25183,-0.474422 0.43955,-0.977851 0.5586,-1.498047 z m 8.20117,2.669922 c 0.97019,2.132699 3.09264,3.570245 5.50781,3.730469 -0.014,0.108426 -0.0251,0.217188 -0.0332,0.326172 -0.17575,0.05279 -0.34908,0.112743 -0.51953,0.179687 C 206.2108,30.415282 205.35974,30.250646 204.5,30.25 c -0.68502,0.0027 -1.36528,0.10947 -2.01562,0.316406 -0.10252,-1.374336 -0.6745,-2.677577 -1.62696,-3.707031 0.40828,-0.08338 0.80726,-0.204384 1.19141,-0.361328 z M 229.30469,47 c 0.27817,0.491408 0.6237,0.944676 1.02734,1.347656 -0.51039,0.336759 -0.96814,0.741892 -1.35937,1.203125 -0.4003,-0.895738 -1.01298,-1.68901 -1.78907,-2.316406 0.10532,0.0077 0.21082,0.01289 0.31641,0.01563 0.61079,-0.0014 1.21833,-0.08555 1.80469,-0.25 z m -17.46289,0.166016 c 0.64979,0.422266 1.3737,0.727973 2.13672,0.902343 -0.72769,0.226717 -1.40805,0.575161 -2.00977,1.029297 0.0203,-0.198625 0.0308,-0.398072 0.0312,-0.597656 -0.003,-0.448833 -0.0558,-0.896075 -0.1582,-1.333984 z m 6.55468,0.427734 c -0.14952,0.14428 -0.29162,0.295502 -0.42578,0.453125 -0.14826,-0.04355 -0.2981,-0.08199 -0.44922,-0.115234 0.29979,-0.09211 0.59223,-0.205041 0.875,-0.337891 z m -3.09765,13.216797 c 0.25049,0.250487 0.52226,0.48045 0.8125,0.6875 -0.33596,0.242662 -0.64666,0.516077 -0.92774,0.816406 -0.23691,-0.105122 -0.48019,-0.196433 -0.72851,-0.273437 0.33074,-0.376723 0.61396,-0.78975 0.84375,-1.230469 z m 22.58789,4.326172 c 0.1387,0.231242 0.29266,0.453703 0.46094,0.666015 -0.26519,0.11227 -0.52228,0.241464 -0.76954,0.386719 0.13466,-0.341566 0.23793,-0.693826 0.3086,-1.052734 z m -10.91211,3.341797 0.002,0.002 c 0.34959,0.325749 0.73613,0.612705 1.15235,0.855469 -0.0119,0.02402 -0.0236,0.04811 -0.0352,0.07227 -1.00916,1.116304 -1.57388,2.540566 -1.59375,4.019531 -0.42748,0.09667 -0.84367,0.234745 -1.24219,0.41211 -0.0834,-0.112121 -0.17074,-0.221556 -0.26172,-0.328125 C 226.27567,72.333322 226.99948,70.703681 227,69 c -9.1e-4,-0.174092 -0.009,-0.348072 -0.0254,-0.521484 z m -19.88672,3.701172 c 0.0824,0.0139 0.16513,0.02628 0.24805,0.03711 -0.34022,0.42633 -0.62184,0.89307 -0.83789,1.388672 -0.0587,-0.138882 -0.12251,-0.275689 -0.19141,-0.410157 0.29542,-0.312302 0.55717,-0.652581 0.78125,-1.015625 z m 18.85352,15.230468 c 0.49134,0.588735 1.08954,1.087014 1.76562,1.470703 -0.51266,0.692917 -0.87287,1.479139 -1.05859,2.310547 -1.01474,-0.808915 -2.26126,-1.302075 -3.57422,-1.414062 -0.005,-0.01303 -0.009,-0.02605 -0.0137,-0.03906 1.17802,-0.485927 2.18032,-1.295922 2.88086,-2.328125 z m -10.50196,10.648438 c 0.3239,0.07898 0.65366,0.133834 0.98633,0.164062 0.27114,0.677849 0.66307,1.305072 1.1582,1.853514 -0.73506,-0.705357 -1.63519,-1.2311 -2.625,-1.533201 0.16904,-0.15309 0.32943,-0.31478 0.48047,-0.484375 z m 2.47657,2.365236 c 0.26906,0.25848 0.56119,0.49376 0.87304,0.70312 -0.0156,0.005 -0.0313,0.0103 -0.0469,0.0156 -0.11469,-0.0429 -0.23062,-0.0826 -0.34766,-0.11914 -0.14678,-0.20897 -0.30657,-0.4092 -0.47851,-0.59961 z m 8.86523,0.26953 c -0.18527,0.58572 -0.28003,1.19443 -0.28125,1.80664 0.004,0.51137 0.0725,1.02038 0.20508,1.51562 -0.48225,-0.85421 -1.16505,-1.5885 -1.99414,-2.14453 0.7603,-0.2653 1.46242,-0.66472 2.07031,-1.17773 z m 0.52344,4.80859 c 0.20173,0.35317 0.43851,0.68676 0.70703,0.9961 -0.19131,0.22373 -0.36621,0.45998 -0.52344,0.70703 0.005,-0.0683 0.009,-0.13666 0.0117,-0.20508 -0.002,-0.5051 -0.0675,-1.00812 -0.19531,-1.49805 z m 11.5332,42.66211 c 0.36744,0.23972 0.75946,0.4426 1.16992,0.60547 -0.22071,0.0165 -0.4404,0.0439 -0.6582,0.082 -0.19012,-0.20745 -0.39434,-0.40254 -0.61133,-0.58398 0.0336,-0.0342 0.0668,-0.0686 0.0996,-0.10352 z M 240.5,174.75 c -0.8715,0.002 -1.73365,0.17291 -2.53516,0.50195 -0.0847,0.001 -0.16933,0.004 -0.2539,0.008 -0.0702,-0.004 -0.14057,-0.008 -0.21094,-0.01 -3.58985,0 -6.5,2.79822 -6.5,6.25 4.6e-4,0.9955 0.24822,1.9765 0.72266,2.86133 -0.79291,1.06029 -1.22048,2.33278 -1.22266,3.63872 0.002,2.02685 1.02524,3.92711 2.74609,5.09766 -1.66868,0.93037 -2.82141,2.52531 -3.14648,4.35351 -0.52245,-0.13067 -1.05979,-0.19824 -1.59961,-0.20117 -3.58985,0 -6.5,2.79822 -6.5,6.25 0.003,1.30942 0.43318,2.58494 1.23047,3.64648 -2.54253,0.91093 -4.22911,3.24459 -4.23047,5.85352 0.003,0.44079 0.0536,0.88009 0.15234,1.31055 -3.23152,0.4087 -5.6486,3.05546 -5.65234,6.18945 0,3.45178 2.91015,6.25 6.5,6.25 0.55782,-0.001 1.11317,-0.0714 1.65234,-0.20898 0.51338,0.7163 1.17661,1.32165 1.94727,1.77734 -3.20753,0.43138 -5.59541,3.06745 -5.59961,6.18164 0.004,2.65735 1.75488,5.02179 4.36523,5.89453 -0.5651,0.9449 -0.86338,2.01548 -0.86523,3.10547 4.3e-4,1.62579 0.6597,3.18743 1.83789,4.35352 -2.35266,0.41227 -4.27987,2.03341 -5.01758,4.2207 -0.68791,-2.82308 -3.3048,-4.82052 -6.32031,-4.82422 -1.83273,0.003 -3.57895,0.74991 -4.80859,2.05664 -0.42641,0.0517 -0.84644,0.14396 -1.25391,0.27539 -1.19948,-1.76567 -3.24416,-2.8306 -5.4375,-2.83203 -2.88922,0.002 -5.43006,1.83813 -6.23633,4.50586 -1.22842,-1.27688 -2.95467,-2.00376 -4.76367,-2.00586 -3.58985,0 -6.5,2.79822 -6.5,6.25 0.003,0.67987 0.12083,1.35475 0.34961,1.99805 -0.22922,0.64454 -0.34731,1.32077 -0.34961,2.00195 0.002,1.66963 0.6993,3.26896 1.93555,4.44141 -2.89656,0.69064 -4.93188,3.18909 -4.93555,6.05859 0.002,1.46165 0.53711,2.87634 1.51172,3.99805 -0.33373,0.38699 -0.61768,0.81128 -0.8457,1.26367 -3.45409,0.17088 -6.1641,2.91265 -6.16602,6.23828 0.003,0.47763 0.0623,0.9534 0.17773,1.41797 -0.76532,1.04962 -1.17648,2.30014 -1.17773,3.58203 0,3.45178 2.91015,6.25 6.5,6.25 3.58985,0 6.5,-2.79822 6.5,-6.25 -0.001,-0.0899 -0.005,-0.17977 -0.01,-0.26953 0.51899,-0.0399 1.03113,-0.13954 1.52539,-0.29688 0.2369,3.27561 3.06951,5.81643 6.48438,5.81641 0.0443,-9e-4 0.0886,-0.002 0.13281,-0.004 -0.088,0.41264 -0.13245,0.83277 -0.13258,1.254 0,3.45178 2.91015,6.25 6.5,6.25 0.30533,-0.002 0.61012,-0.025 0.91211,-0.0684 0.42825,1.09852 1.16939,2.05896 2.13867,2.77148 -0.47155,0.53558 -0.84592,1.14369 -1.10742,1.79883 -1.35963,0.0132 -2.68073,0.43603 -3.77734,1.20899 0.21936,-0.63233 0.33212,-1.29432 0.33398,-1.9609 0,-3.45178 -2.91015,-6.25 -6.5,-6.25 -3.04464,0.002 -5.67953,2.03667 -6.33984,4.89453 -1.22353,-1.21077 -2.90442,-1.89412 -4.66016,-1.89453 -3.58985,0 -6.5,2.79822 -6.5,6.25 0.002,1.59567 0.63853,3.13019 1.7793,4.28906 -0.82817,1.07361 -1.27654,2.37425 -1.2793,3.71094 0.004,3.04155 2.28456,5.63871 5.40234,6.15234 0.72744,1.89857 2.36573,3.34107 4.39649,3.8711 -0.51985,0.91277 -0.79443,1.9359 -0.79883,2.97656 0.003,0.67987 0.12083,1.35475 0.34961,1.99805 -0.22922,0.64454 -0.34731,1.32077 -0.34961,2.00195 0.002,0.41539 0.0472,0.82955 0.13477,1.23633 -0.0894,0.41573 -0.1346,0.83914 -0.13477,1.26367 0.003,2.36411 1.39294,4.52429 3.5918,5.58203 1.19887,1.06938 2.77291,1.66496 4.4082,1.66797 0.96684,-0.002 1.921,-0.21167 2.79297,-0.61328 0.38183,0.0703 0.76945,0.1076 1.1582,0.11133 0.80575,0.33077 1.67272,0.50151 2.54883,0.50195 1.52981,-0.002 3.00986,-0.5228 4.17969,-1.4707 1.0975,2.12556 3.35228,3.4701 5.82031,3.4707 3.58985,0 6.5,-2.79822 6.5,-6.25 -4.4e-4,-0.34821 -0.0311,-0.69577 -0.0918,-1.03906 0.10223,-0.14579 0.19802,-0.29566 0.28711,-0.44922 -0.12701,0.48675 -0.19258,0.98645 -0.19531,1.48828 0,3.45178 2.91015,6.25 6.5,6.25 3.58985,0 6.5,-2.79822 6.5,-6.25 -0.003,-0.44079 -0.0536,-0.88009 -0.15234,-1.31055 0.3235,-0.04 0.64342,-0.1033 0.95703,-0.18945 0.3725,0.65487 0.86398,1.24029 1.45117,1.72852 0.8011,2.6766 3.3475,4.52048 6.24414,4.52148 1.917,-4.6e-4 3.73603,-0.81456 4.9707,-2.22461 0.93356,0.47456 1.97331,0.72327 3.0293,0.72461 3.58985,0 6.5,-2.79822 6.5,-6.25 -0.002,-2.34028 -1.36447,-4.48315 -3.5293,-5.55273 2.6943,-0.82424 4.52543,-3.22864 4.5293,-5.94727 -0.003,-1.92771 -0.93161,-3.74608 -2.51562,-4.92773 -0.12536,-1.72822 -0.99112,-3.32888 -2.39063,-4.41993 0.20913,-0.54587 0.33798,-1.11713 0.38281,-1.69726 0.34508,-0.77599 0.52314,-1.61113 0.52344,-2.45508 -0.002,-0.71721 -0.13194,-1.42877 -0.38477,-2.10352 1.20618,-1.16945 1.88352,-2.74944 1.88477,-4.39648 1.2e-4,-2.0642 -1.05973,-3.99533 -2.83203,-5.16016 1.17263,-1.16359 1.82948,-2.71958 1.83203,-4.33984 -0.002,-1.35392 -0.46126,-2.6706 -1.30859,-3.75195 0.84649,-1.08028 1.30567,-2.39546 1.30859,-3.74805 -0.003,-2.12142 -1.12407,-4.09677 -2.97852,-5.24609 2.40844,-0.97467 3.97573,-3.24135 3.97852,-5.75391 -0.003,-1.11714 -0.31723,-2.21311 -0.91016,-3.17383 -0.17181,-0.44557 -0.39591,-0.87084 -0.66796,-1.26758 -0.15179,-0.94705 -0.52802,-1.84786 -1.09961,-2.63281 0.11602,-0.46712 0.17565,-0.94553 0.17773,-1.42578 l 0,-0.0117 c 0.96815,-1.12069 1.49872,-2.53138 1.5,-3.98828 -0.002,-0.20753 -0.0154,-0.41481 -0.0391,-0.62109 0.67622,-1.00718 1.03692,-2.18011 1.0391,-3.37893 -0.002,-1.35392 -0.46126,-2.6706 -1.30859,-3.75195 0.84649,-1.08028 1.30567,-2.39546 1.30859,-3.74805 -0.002,-1.57822 -0.6253,-3.09721 -1.74414,-4.25195 1.11789,-1.15375 1.74091,-2.67117 1.74414,-4.24805 -0.002,-2.09954 -1.10049,-4.05777 -2.92383,-5.21289 -0.25181,-0.63627 -0.61005,-1.22871 -1.06055,-1.75391 2.14095,-1.07812 3.48304,-3.20937 3.48438,-5.5332 -0.002,-0.39205 -0.0414,-0.7831 -0.11914,-1.16797 1.93513,-1.13315 3.11696,-3.15344 3.11914,-5.33203 2.1e-4,-0.14727 -0.005,-0.2945 -0.0156,-0.44141 -0.088,-1.1536 -0.50719,-2.2611 -1.21094,-3.19921 0.47547,-0.88392 0.72456,-1.86423 0.72654,-2.85938 -0.002,-1.8785 -0.88285,-3.65645 -2.39844,-4.8418 0.58603,-0.95726 0.89616,-2.0474 0.89844,-3.1582 -0.002,-2.26231 -1.27446,-4.3472 -3.32812,-5.45117 0.54232,-0.93159 0.82742,-1.98123 0.82812,-3.04883 -0.002,-1.57822 -0.6253,-3.09721 -1.74414,-4.25195 1.11789,-1.15375 1.74091,-2.67117 1.74414,-4.24805 -0.003,-0.24887 -0.0211,-0.49736 -0.0547,-0.74414 0.0341,-0.25066 0.0524,-0.50308 0.0547,-0.75586 -0.002,-0.92665 -0.21804,-1.8413 -0.63281,-2.67773 2.493,-0.93736 4.13344,-3.2484 4.13281,-5.82227 0,-3.45178 -2.91015,-6.25 -6.5,-6.25 -0.41584,0.002 -0.8305,0.0427 -1.23828,0.12109 -0.41546,-0.0798 -0.83805,-0.12036 -1.26172,-0.12109 -0.41584,0.002 -0.8305,0.0427 -1.23828,0.12109 -0.41546,-0.0798 -0.83805,-0.12036 -1.26172,-0.12109 z m -52,27.5 c -3.58985,0 -6.5,2.79822 -6.5,6.25 0.003,2.19019 1.19833,4.219 3.15039,5.34766 -1.06075,1.14288 -1.64805,2.62053 -1.65039,4.15234 0.002,1.23381 0.38412,2.43939 1.09766,3.46484 -0.0624,0.34185 -0.0951,0.6881 -0.0977,1.03516 0,3.45178 2.91015,6.25 6.5,6.25 0.95145,-0.002 1.89088,-0.20455 2.75195,-0.59375 0.85989,0.38867 1.79794,0.59134 2.74809,0.59375 3.58985,0 6.5,-2.79822 6.5,-6.25 -0.001,-1.64043 -0.67338,-3.21459 -1.87109,-4.38281 0.56921,-0.9478 0.86959,-2.02271 0.87109,-3.11719 0,-3.45178 -2.91015,-6.25 -6.5,-6.25 -0.17145,6.5e-4 -0.34281,0.008 -0.51367,0.0215 0.007,-0.0904 0.0112,-0.18092 0.0137,-0.2715 0,-3.45178 -2.91015,-6.25 -6.5,-6.25 z m 42.14062,25.92188 c 0.15266,0.3146 0.33232,0.61643 0.53711,0.90234 -0.11602,0.46712 -0.17565,0.94553 -0.17773,1.42578 0.002,1.14774 0.33222,2.27285 0.95508,3.25195 -0.62214,0.97797 -0.95255,2.10163 -0.95508,3.24805 5.1e-4,0.0247 0.001,0.0495 0.002,0.0742 -0.2403,0.18359 -0.46678,0.3833 -0.67773,0.59766 -0.0628,-0.0231 -0.12595,-0.0452 -0.18945,-0.0664 0.56508,-0.9449 0.86334,-2.01548 0.86518,-3.10546 -0.003,-2.16997 -1.17628,-4.18317 -3.09961,-5.31836 0.98152,-0.13133 1.91881,-0.47672 2.74023,-1.00976 z m -0.55273,21.23828 c -0.19009,0.21368 -0.36497,0.43945 -0.52344,0.67578 -0.1269,-0.15245 -0.26116,-0.2991 -0.40234,-0.43946 0.31422,-0.0568 0.62365,-0.13576 0.92578,-0.23632 z m -15.06055,9.61718 c 0.051,0.59756 0.19106,1.18496 0.41602,1.74414 -0.40311,0.6395 -0.6836,1.34336 -0.82813,2.07813 -0.36807,-0.064 -0.7412,-0.0973 -1.11523,-0.0996 -0.52829,0.002 -1.0543,0.0666 -1.56641,0.19141 -0.44434,-0.4989 -0.96769,-0.92734 -1.55078,-1.26953 0.0236,-0.12699 0.0432,-0.25466 0.0586,-0.38282 0.90363,-0.35429 1.7127,-0.89968 2.36718,-1.5957 0.77519,-0.092 1.52679,-0.31763 2.21875,-0.66602 z m 12.49219,1.81836 c 0.0321,0.56257 0.1431,1.11839 0.33008,1.65235 -0.22922,0.64454 -0.34731,1.32077 -0.34961,2.00195 0.004,2.40185 1.4387,4.58913 3.69141,5.62695 -1.53489,0.87394 -2.6288,2.31601 -3.02539,3.98828 -0.34321,-0.11678 -0.69601,-0.20564 -1.05469,-0.26562 0.89712,-1.09802 1.38601,-2.45328 1.38867,-3.84961 -4.5e-4,-1.40481 -0.49309,-2.76852 -1.39844,-3.87109 0.26049,-0.68198 0.39532,-1.4024 0.39844,-2.12891 3.6e-4,-0.77708 -0.15,-1.54741 -0.44336,-2.27148 0.1783,-0.28206 0.33308,-0.57726 0.46289,-0.88282 z m -27.67969,10.00977 c 0.21235,0.20703 0.43946,0.39955 0.67969,0.57617 -0.26173,-0.062 -0.52721,-0.10834 -0.79492,-0.13867 0.0439,-0.14445 0.0823,-0.29038 0.11523,-0.4375 z m 3.14063,1.71289 c 0.4815,0.11363 0.97494,0.17392 1.4707,0.17969 0.24251,0.0984 0.49102,0.18253 0.74414,0.25195 0.14563,0.56185 0.37175,1.10152 0.67188,1.60352 -0.31783,0.10509 -0.6267,0.23373 -0.92383,0.38476 -0.43496,-0.95096 -1.1096,-1.78268 -1.96289,-2.41992 z m 13.78125,2.5918 c 0.84243,0.37869 1.75955,0.57917 2.68945,0.58789 0.46145,0.1869 0.94382,0.32191 1.4375,0.40234 -0.79042,0.97048 -1.26473,2.14403 -1.36328,3.37305 -1.21114,-1.13463 -2.83445,-1.77079 -4.52539,-1.77344 -0.37653,5.6e-4 -0.75229,0.0326 -1.12305,0.0957 -0.075,-0.15285 -0.15648,-0.30272 -0.24414,-0.44922 1.25637,-0.42005 2.34848,-1.2006 3.12891,-2.23632 z m 23.19531,3.72461 c 0.16753,0.12864 0.34157,0.24922 0.52149,0.36132 -0.29414,0.11903 -0.57877,0.25873 -0.85157,0.41797 -0.0453,-0.0548 -0.0915,-0.10882 -0.13867,-0.16211 0.1692,-0.19634 0.32574,-0.40245 0.46875,-0.61718 z m -47.13476,0.53906 c 0.005,0.013 0.009,0.0261 0.0137,0.0391 l -0.0254,0.006 c 0.004,-0.0149 0.008,-0.0299 0.0117,-0.0449 z m 27.92578,17.77929 c 0.17009,0.5757 0.4253,1.12493 0.75781,1.63086 -0.33251,-0.053 -0.66882,-0.0811 -1.00586,-0.084 -0.15577,4.9e-4 -0.31147,0.006 -0.4668,0.0176 0.31165,-0.48756 0.55218,-1.01396 0.71485,-1.56446 z m 8.47265,4.16602 c -0.79059,1.05834 -1.21739,2.32781 -1.2207,3.63086 0.002,1.37564 0.47545,2.7123 1.34766,3.80273 -0.52755,0.22949 -1.02085,0.52573 -1.4668,0.88086 0.0787,-0.38999 0.11864,-0.78632 0.11914,-1.18359 -5.7e-4,-1.18254 -0.35004,-2.34065 -1.00781,-3.33984 0.003,-0.0534 0.006,-0.10674 0.008,-0.16016 -0.001,-1.18036 -0.34988,-2.33628 -1.00586,-3.33398 0.33252,0.053 0.66882,0.0811 1.00586,0.084 0.75766,-0.002 1.50921,-0.13043 2.2207,-0.38086 z m -14.21484,7.01367 c -0.002,0.039 -0.004,0.0781 -0.006,0.11719 0.002,0.30472 0.0264,0.60892 0.0742,0.91016 -0.26755,0.0568 -0.5311,0.12991 -0.78906,0.21875 0.28888,-0.38757 0.53069,-0.80566 0.7207,-1.2461 z m -3.79102,3.48828 c -0.14995,0.19906 -0.28756,0.40645 -0.41211,0.6211 -0.0402,-0.15333 -0.0865,-0.30513 -0.13867,-0.45508 0.18606,-0.0475 0.36983,-0.10287 0.55078,-0.16602 z m 14.41211,1.45313 c -0.0808,0.38719 -0.12336,0.78088 -0.12695,1.17578 0.002,0.42205 0.0485,0.84282 0.13867,1.25586 -0.0462,-0.002 -0.0924,-0.004 -0.13867,-0.006 -0.8785,0.002 -1.74757,0.17428 -2.55469,0.50781 0.0342,-0.2513 0.0525,-0.50437 0.0547,-0.75781 -0.002,-0.30472 -0.0264,-0.60892 -0.0742,-0.91016 0.99084,-0.21323 1.91594,-0.64668 2.70117,-1.26562 z m 11.88282,4.47656 c 0.005,0.0893 0.0123,0.17854 0.0215,0.26758 -0.0525,-0.0176 -0.10524,-0.0345 -0.1582,-0.0508 0.0471,-0.0714 0.0927,-0.14365 0.13672,-0.2168 z m -36.95508,1.15625 c 0.17577,0.12932 0.3583,0.24992 0.54687,0.36133 -0.51394,0.0683 -1.01752,0.1955 -1.5,0.37891 0.34124,-0.21734 0.66037,-0.46519 0.95313,-0.74024 z m 17.24414,13.23633 c -0.38804,0.38864 -0.72219,0.82388 -0.99414,1.29492 0.10345,-0.40588 0.1643,-0.82072 0.18164,-1.23828 l 0.0137,0 c 0.26723,-0.003 0.53402,-0.022 0.79883,-0.0566 z"
       inkscape:connector-curvature="0" />
  </g>
  <g
     inkscape:groupmode="layer"
     id="routes_layer"
     inkscape:label="Routes"
     style="display:inline"
     sodipodi:insensitive="true">
    <path
       style="display:inline;fill:none;stroke:#000000;stroke-width:2;stroke-linecap:round;stroke-miterlimit:4;stroke-dasharray:0.1, 5;stroke-dashoffset:0;stroke-opacity:1"
       d="m 67.47266,106.953 c 13.192325,23.73691 33.64521,32.33382 45.80726,31.94721 17.05494,-0.54216 37.20458,2.8733 59.91167,32.62048 -28.74327,2.32917 -74.501939,16.93724 -92.27031,37.49959 -11.229549,12.99533 -27.292257,35.59894 -7.56599,68.04824 C 82.591012,292.26109 84.375,320.625 84.375,326.25 l 0,11.25 m 0,-337.5 0,11.25 c 1.800367,11.92926 -4.95018,19.610744 -11.25,28.125 -15.189609,20.528874 -7.22527,45.080205 -5.625,61.875 1.447757,15.19418 -8.924183,41.68564 -17,52 -7.547813,9.33655 -21.619142,15.5 -33.625,15.5 L 0,168.75 m 166.05841,6.02069 c 7.33516,-15.54993 30.9047,-22.10829 42.59393,-14.06769 4.48242,3.0833 21.97266,8.047 27.59766,8.047 l 11.25,0"
       inkscape:connector-curvature="0"
       id="path220" />
  </g>
  <g
     inkscape:groupmode="layer"
     id="labels_layer"
     inkscape:label="Labels"
     style="display:inline"
     sodipodi:insensitive="true">
    <text
       xml:space="preserve"
       id="text223"><textPath
         xlink:href="#port_hole"
         id="textPath225"><tspan
   style="-inkscape-font-specification:'CCTreasureTroveAged Mod, Normal';font-family:'CCTreasureTroveAged Mod';font-weight:normal;font-style:normal;font-stretch:normal;font-variant:normal;font-size:8.75px;text-anchor:start;text-align:start;writing-mode:lr;line-height:125%"
   id="tspan227">Port Hole</tspan></textPath></text>
  </g>
  <g
     inkscape:groupmode="layer"
     id="labels_guide_layer"
     inkscape:label="Labels Guide"
     style="display:none">
    <path
       id="port_hole"
       style="color:#000000;fill:none;stroke:#000000;stroke-width:1;stroke-opacity:1"
       d="m 164.64711,99.29654 c 4.04208,12.36056 8.06419,34.85609 4.50999,50.0066"
       inkscape:connector-curvature="0"
       sodipodi:nodetypes="cc" />
  </g>
  <g
     inkscape:groupmode="layer"
     id="resources_layer"
     inkscape:label="Resources"
     style="display:inline"
     sodipodi:insensitive="true">
    <g
       id="resource-banana"
       transform="matrix(-0.3074897,0.9515514,-0.9515514,-0.3074897,63.96074,136.34049)">
      <circle
         cx="0.060593"
         cy="-110.109990"
         r="19.000000"
         style="opacity:1;fill:#ffffff;fill-opacity:1;stroke:#000000;stroke-width:0.89999998;stroke-linecap:round;stroke-linejoin:round;stroke-miterlimit:4;stroke-dasharray:none;stroke-dashoffset:0;stroke-opacity:1"
         id="circle233" />
      <g
         id="g235">
        <path
           style="color:#000000;clip-rule:nonzero;display:inline;overflow:visible;visibility:visible;opacity:1;isolation:auto;mix-blend-mode:normal;color-interpolation:sRGB;color-interpolation-filters:linearRGB;solid-color:#000000;solid-opacity:1;fill:#f6ff7d;fill-opacity:1;fill-rule:evenodd;stroke:#000000;stroke-width:0.89999998;stroke-linecap:round;stroke-linejoin:miter;stroke-miterlimit:4;stroke-dasharray:none;stroke-dashoffset:0;stroke-opacity:1;color-rendering:auto;image-rendering:auto;shape-rendering:auto;text-rendering:auto;enable-background:accumulate"
           d="m 8.78082,-121.13744 c 0.34471,1.36915 0.66512,3.60435 0.73321,4.6643 -0.49421,3.88746 -1.33998,7.74843 -3.32367,10.57326 -2.40596,3.42618 -5.41293,5.37866 -11.11869,7.679247 -0.60011,0.241966 -1.22538,0.289326 -1.46855,0.679535 -0.16319,0.261865 0.37387,1.454696 0.69075,1.620824 0.62648,0.328443 1.07253,0.177853 1.77872,0.218405 2.75809,0.158378 5.05424,-0.146839 8.30722,-1.151769 2.54386,-0.78586 5.74014,-3.251012 7.23795,-5.452222 1.82616,-2.68377 2.69924,-6.37346 2.5117,-9.61419 -0.15399,-2.66107 -2.58676,-5.30143 -2.58676,-5.30143 -0.24357,-1.33177 -0.66717,-2.90679 -1.14995,-4.64892 -0.58055,0.0153 -1.40915,0.37101 -1.61193,0.73296 z"
           inkscape:connector-curvature="0"
           id="path237" />
        <path
           style="color:#000000;clip-rule:nonzero;display:inline;overflow:visible;visibility:visible;opacity:1;isolation:auto;mix-blend-mode:normal;color-interpolation:sRGB;color-interpolation-filters:linearRGB;solid-color:#000000;solid-opacity:1;fill:#f6ff7d;fill-opacity:1;fill-rule:evenodd;stroke:#000000;stroke-width:0.89999998;stroke-linecap:round;stroke-linejoin:miter;stroke-miterlimit:4;stroke-dasharray:none;stroke-dashoffset:0;stroke-opacity:1;color-rendering:auto;image-rendering:auto;shape-rendering:auto;text-rendering:auto;enable-background:accumulate"
           d="m 7.87879,-120.99354 c 0.0285,1.61295 0.38658,3.34631 0.31301,4.75879 -1.00555,3.30202 -3.33857,6.81255 -5.886,9.14173 -3.35597,3.06847 -7.87513,4.2358 -12.26178,5.43386 -0.6242,0.17048 -1.27338,-0.11771 -1.42138,0.51219 -0.15176,0.64587 0.0489,1.217046 0.31467,1.704455 0.33862,0.621027 0.89583,0.442404 1.59118,0.572223 2.67893,0.500153 5.58439,0.941055 8.23815,0.321149 2.59268,-0.605634 5.07646,-1.926877 7.10245,-3.654337 2.47014,-2.10616 4.44803,-4.97661 5.01611,-8.17267 0.39839,-2.24136 -0.605,-3.85067 -0.89708,-6.10835 -0.2048,-1.58315 0.19285,-2.72685 -0.1333,-4.91236 -0.55377,0.056 -1.33048,0.14727 -1.97603,0.40332 z"
           inkscape:connector-curvature="0"
           id="path239" />
        <path
           style="color:#000000;clip-rule:nonzero;display:inline;overflow:visible;visibility:visible;opacity:1;isolation:auto;mix-blend-mode:normal;color-interpolation:sRGB;color-interpolation-filters:linearRGB;solid-color:#000000;solid-opacity:1;fill:#f6ff7d;fill-opacity:1;fill-rule:evenodd;stroke:#000000;stroke-width:0.89999998;stroke-linecap:round;stroke-linejoin:miter;stroke-miterlimit:4;stroke-dasharray:none;stroke-dashoffset:0;stroke-opacity:1;color-rendering:auto;image-rendering:auto;shape-rendering:auto;text-rendering:auto;enable-background:accumulate"
           d="m 6.86373,-121.02142 c -0.0162,1.67579 0.0613,3.31817 -0.2121,4.71569 -1.71528,2.99538 -4.19007,5.95351 -7.46659,7.74634 -4.28888,2.34678 -7.01389,2.86781 -11.88451,2.04623 -0.63804,-0.10762 -0.91664,-0.4723 -1.38982,-0.031 -0.50866,0.47443 -0.41626,1.00712 -0.0714,1.61117 0.35071,0.61429 0.52944,0.41897 1.09534,0.84336 1.98511,1.48869 3.74434,2.06677 6.44298,2.04779 2.77975,-0.0196 6.56154,-0.29036 8.90025,-1.56286 2.85139,-1.55146 4.93737,-3.4518 6.15239,-6.46199 0.85208,-2.11101 -0.0744,-4.05058 0.10539,-6.31996 0.12609,-1.59136 0.14328,-2.6534 0.0968,-4.5494 -0.63016,-0.20606 -1.24784,-0.12786 -1.76873,-0.0854 z"
           inkscape:connector-curvature="0"
           id="path241" />
        <path
           style="color:#000000;font-style:normal;font-variant:normal;font-weight:normal;font-stretch:normal;font-size:medium;line-height:normal;font-family:sans-serif;text-indent:0;text-align:start;text-decoration:none;text-decoration-line:none;text-decoration-style:solid;text-decoration-color:#000000;letter-spacing:normal;word-spacing:normal;text-transform:none;direction:ltr;block-progression:tb;writing-mode:lr-tb;baseline-shift:baseline;text-anchor:start;white-space:normal;clip-rule:nonzero;display:inline;overflow:visible;visibility:visible;opacity:1;isolation:auto;mix-blend-mode:normal;color-interpolation:sRGB;color-interpolation-filters:linearRGB;solid-color:#000000;solid-opacity:1;fill:#737828;fill-opacity:1;fill-rule:evenodd;stroke:none;stroke-width:0.72000003;stroke-linecap:round;stroke-linejoin:miter;stroke-miterlimit:4;stroke-dasharray:none;stroke-dashoffset:0;stroke-opacity:1;color-rendering:auto;image-rendering:auto;shape-rendering:auto;text-rendering:auto;enable-background:accumulate"
           d="m 2.51814,-107.7686 c -2.07228,1.54391 -3.74795,2.09142 -6.33636,2.57335 -1.72347,0.32089 -3.84937,0.49004 -6.70834,0.0497 -0.53792,-0.0828 -0.32892,0.17921 0.20456,0.28719 2.7148,0.54957 5.27205,0.1766 6.8941,-0.0851 2.63047,-0.42445 3.77137,-0.81223 6.04492,-2.32391 0.12768,-0.58475 -0.15949,-0.11588 -0.0988,-0.5012 z"
           inkscape:connector-curvature="0"
           id="path243" />
        <path
           style="color:#000000;clip-rule:nonzero;display:inline;overflow:visible;visibility:visible;opacity:1;isolation:auto;mix-blend-mode:normal;color-interpolation:sRGB;color-interpolation-filters:linearRGB;solid-color:#000000;solid-opacity:1;fill:#f7ff7d;fill-opacity:1;fill-rule:evenodd;stroke:#000000;stroke-width:0.72000003;stroke-linecap:round;stroke-linejoin:miter;stroke-miterlimit:4;stroke-dasharray:none;stroke-dashoffset:0;stroke-opacity:1;color-rendering:auto;image-rendering:auto;shape-rendering:auto;text-rendering:auto;enable-background:accumulate"
           d="m 7.87879,-120.99354 c 0.0285,1.61295 0.38658,3.34631 0.31301,4.75879 -1.00555,3.30202 -3.33857,6.81255 -5.886,9.14173 -3.35597,3.06847 -7.87513,4.2358 -12.26178,5.43386 -0.6242,0.17048 -1.27338,-0.11771 -1.42138,0.51219 -0.15176,0.64587 0.0489,1.217046 0.31467,1.704455 0.33862,0.621027 0.89583,0.442404 1.59118,0.572223 2.67893,0.500153 5.58439,0.941055 8.23815,0.321149 2.59268,-0.605634 5.07646,-1.926877 7.10245,-3.654337 2.47014,-2.10616 4.44803,-4.97661 5.01611,-8.17267 0.39839,-2.24136 -0.605,-3.85067 -0.89708,-6.10835 -0.2048,-1.58315 0.19285,-2.72685 -0.1333,-4.91236 -0.55377,0.056 -1.33048,0.14727 -1.97603,0.40332 z"
           inkscape:connector-curvature="0"
           id="path245" />
        <path
           style="color:#000000;font-style:normal;font-variant:normal;font-weight:normal;font-stretch:normal;font-size:medium;line-height:normal;font-family:sans-serif;text-indent:0;text-align:start;text-decoration:none;text-decoration-line:none;text-decoration-style:solid;text-decoration-color:#000000;letter-spacing:normal;word-spacing:normal;text-transform:none;direction:ltr;block-progression:tb;writing-mode:lr-tb;baseline-shift:baseline;text-anchor:start;white-space:normal;clip-rule:nonzero;display:inline;overflow:visible;visibility:visible;opacity:1;isolation:auto;mix-blend-mode:normal;color-interpolation:sRGB;color-interpolation-filters:linearRGB;solid-color:#000000;solid-opacity:1;fill:#737828;fill-opacity:1;fill-rule:evenodd;stroke:none;stroke-width:0.72000003;stroke-linecap:round;stroke-linejoin:miter;stroke-miterlimit:4;stroke-dasharray:none;stroke-dashoffset:0;stroke-opacity:1;color-rendering:auto;image-rendering:auto;shape-rendering:auto;text-rendering:auto;enable-background:accumulate"
           d="m 4.80468,-106.35032 c -1.8366,1.79924 -3.59964,2.90171 -6.00807,3.97021 -1.77027,0.7854 -3.77092,1.22784 -6.52266,1.38661 -0.55888,0.0322 -0.28397,0.22297 0.27546,0.20184 2.71946,-0.10273 4.80476,-0.55229 6.63126,-1.36264 2.43383,-1.07977 4.50278,-2.38649 6.25386,-4.13127 0.79789,-0.79502 1.95252,-2.23179 2.69967,-3.4881 0.21909,-0.3684 0.3354,-1.28542 0.2234,-1.22755 -1.02526,2.0653 -2.6769,3.7927 -3.55292,4.6509 z"
           inkscape:connector-curvature="0"
           id="path247" />
        <path
           style="color:#000000;clip-rule:nonzero;display:inline;overflow:visible;visibility:visible;opacity:1;isolation:auto;mix-blend-mode:normal;color-interpolation:sRGB;color-interpolation-filters:linearRGB;solid-color:#000000;solid-opacity:1;fill:#f7ff7d;fill-opacity:1;fill-rule:evenodd;stroke:#000000;stroke-width:0.72000003;stroke-linecap:round;stroke-linejoin:miter;stroke-miterlimit:4;stroke-dasharray:none;stroke-dashoffset:0;stroke-opacity:1;color-rendering:auto;image-rendering:auto;shape-rendering:auto;text-rendering:auto;enable-background:accumulate"
           d="m 8.78082,-121.13744 c 0.34471,1.36915 0.66512,3.60435 0.73321,4.6643 -0.49421,3.88746 -1.33998,7.74843 -3.32367,10.57326 -2.40596,3.42618 -5.41293,5.37866 -11.11869,7.679247 -0.60011,0.241966 -1.22538,0.289326 -1.46855,0.679535 -0.16319,0.261865 0.37387,1.454696 0.69075,1.620824 0.62648,0.328443 1.07253,0.177853 1.77872,0.218405 2.75809,0.158378 5.05424,-0.146839 8.30722,-1.151769 2.54386,-0.78586 5.74014,-3.251012 7.23795,-5.452222 1.82616,-2.68377 2.69924,-6.37346 2.5117,-9.61419 -0.15399,-2.66107 -2.58676,-5.30143 -2.58676,-5.30143 -0.24357,-1.33177 -0.66717,-2.90679 -1.14995,-4.64892 -0.58055,0.0153 -1.40915,0.37101 -1.61193,0.73296 z"
           inkscape:connector-curvature="0"
           id="path249" />
        <path
           style="color:#000000;font-style:normal;font-variant:normal;font-weight:normal;font-stretch:normal;font-size:medium;line-height:normal;font-family:sans-serif;text-indent:0;text-align:start;text-decoration:none;text-decoration-line:none;text-decoration-style:solid;text-decoration-color:#000000;letter-spacing:normal;word-spacing:normal;text-transform:none;direction:ltr;block-progression:tb;writing-mode:lr-tb;baseline-shift:baseline;text-anchor:start;white-space:normal;clip-rule:nonzero;display:inline;overflow:visible;visibility:visible;opacity:1;isolation:auto;mix-blend-mode:normal;color-interpolation:sRGB;color-interpolation-filters:linearRGB;solid-color:#000000;solid-opacity:1;fill:#737828;fill-opacity:1;fill-rule:evenodd;stroke:none;stroke-width:0.72000003;stroke-linecap:round;stroke-linejoin:miter;stroke-miterlimit:4;stroke-dasharray:none;stroke-dashoffset:0;stroke-opacity:1;color-rendering:auto;image-rendering:auto;shape-rendering:auto;text-rendering:auto;enable-background:accumulate"
           d="m 11.17023,-113.86439 c -0.011,1.77939 -0.15804,3.37671 -0.70318,5.01283 -0.47684,1.43111 -0.94867,2.44937 -1.96984,4.0718 -1.36954,2.17594 -2.93041,3.68885 -5.19121,5.042 -1.55728,0.93208 -2.86824,1.715367 -5.59247,2.278309 -0.52698,0.108898 -1.00078,0.418847 -0.4677,0.345229 2.76772,-0.382229 4.71945,-1.233835 6.39997,-2.314868 2.23928,-1.44048 3.93705,-2.7933 5.38929,-5.10065 1.02607,-1.63022 1.47452,-2.54995 1.94328,-4.06882 0.56259,-1.82288 0.63573,-3.73693 0.46838,-5.5182 -0.0877,-0.93395 -0.2737,-0.2032 -0.27652,0.25237 z"
           inkscape:connector-curvature="0"
           id="path251" />
      </g>
    </g>
  </g>
  <g
     inkscape:groupmode="layer"
     id="extras_layer"
     inkscape:label="Extras"
     style="display:inline"
     sodipodi:insensitive="true">
    <g
       id="extra-ship"
       transform="matrix(0.4444171,-0.89581998,0.89581998,0.4444171,266.30938,417.60566)">
      <path
         style="color:#000000;fill:url(#gradientShip);fill-opacity:1;fill-rule:evenodd;stroke:#000000;stroke-width:0.75;stroke-linecap:butt;stroke-linejoin:round;stroke-miterlimit:4;stroke-dasharray:none;stroke-dashoffset:0;stroke-opacity:1;marker:none;enable-background:accumulate"
         d="m 243.2364,-52.722824 c -3.10208,-2.937202 -8.72518,-3.346714 -12.49116,-3.032742 -2.95307,0.246202 -6.62512,1.070872 -6.62512,1.070872 l -0.0121,3.725952 c 0,0 2.43298,0.582421 6.39007,0.932887 3.66202,0.324334 9.61676,-0.283241 12.73834,-2.696969 z"
         inkscape:connector-curvature="0"
         id="path255" />
      <path
         style="color:#000000;opacity:1;isolation:auto;mix-blend-mode:normal;color-interpolation:sRGB;color-interpolation-filters:linearRGB;solid-color:#000000;solid-opacity:1;fill:#000000;fill-opacity:1;fill-rule:evenodd;stroke:none;stroke-width:0.75;stroke-linecap:round;stroke-linejoin:round;stroke-miterlimit:4;stroke-dasharray:none;stroke-dashoffset:0;stroke-opacity:1;marker:none;color-rendering:auto;image-rendering:auto;shape-rendering:auto;text-rendering:auto;enable-background:accumulate"
         d="m 243.05273,-53.089844 c -0.50461,-0.01007 -0.51271,0.749303 -0.008,0.75 l 2.80546,-0.143551 c 0.50461,0.01007 0.51856,-0.385922 0.0138,-0.386619 z"
         inkscape:connector-curvature="0"
         id="path257" />
      <circle
         cx="37.651787"
         cy="-233.087830"
         r="0.695206"
         style="color:#000000;opacity:1;isolation:auto;mix-blend-mode:normal;color-interpolation:sRGB;color-interpolation-filters:linearRGB;solid-color:#000000;solid-opacity:1;fill:#a66e00;fill-opacity:1;fill-rule:nonzero;stroke:#000000;stroke-width:0.5;stroke-linecap:butt;stroke-linejoin:miter;stroke-miterlimit:4;stroke-dasharray:none;stroke-dashoffset:0;stroke-opacity:1;color-rendering:auto;image-rendering:auto;shape-rendering:auto;text-rendering:auto;enable-background:accumulate"
         transform="matrix(0.37654483,0.9263984,-0.9263984,0.37654483,0,0)"
         id="circle259" />
      <circle
         cx="39.995537"
         cy="-238.712830"
         r="0.695206"
         style="color:#000000;opacity:1;isolation:auto;mix-blend-mode:normal;color-interpolation:sRGB;color-interpolation-filters:linearRGB;solid-color:#000000;solid-opacity:1;fill:#a66e00;fill-opacity:1;fill-rule:nonzero;stroke:#000000;stroke-width:0.5;stroke-linecap:butt;stroke-linejoin:miter;stroke-miterlimit:4;stroke-dasharray:none;stroke-dashoffset:0;stroke-opacity:1;color-rendering:auto;image-rendering:auto;shape-rendering:auto;text-rendering:auto;enable-background:accumulate"
         transform="matrix(0.37654483,0.9263984,-0.9263984,0.37654483,0,0)"
         id="circle261" />
      <path
         style="color:#000000;fill:#feffff;fill-opacity:1;fill-rule:evenodd;stroke:#000000;stroke-width:0.5;stroke-linecap:butt;stroke-linejoin:round;stroke-miterlimit:4;stroke-dasharray:none;stroke-dashoffset:0;stroke-opacity:1;marker:none;enable-background:accumulate"
         d="m 230.8139,-58.168744 -0.0696,11.095953 c 0,0 1.11273,-0.901569 1.17305,-2.014949 0.0592,-1.093696 -0.80015,-1.762231 -0.80015,-1.762231 0,0 1.00218,-0.841738 0.9922,-1.921676 -0.0106,-1.140901 -0.9468,-1.722391 -0.9468,-1.722391 0,0 0.80027,-0.5343 0.83406,-1.646805 0.0349,-1.150244 -1.18274,-2.027894 -1.18274,-2.027894 z"
         inkscape:connector-curvature="0"
         id="path263" />
      <path
         style="color:#000000;fill:#feffff;fill-opacity:1;fill-rule:evenodd;stroke:#000000;stroke-width:0.5;stroke-linecap:butt;stroke-linejoin:round;stroke-miterlimit:4;stroke-dasharray:none;stroke-dashoffset:0;stroke-opacity:1;marker:none;enable-background:accumulate"
         d="m 236.95087,-57.97366 -0.0645,10.282469 c 0,0 1.03677,-0.785137 1.09267,-1.816887 0.0549,-1.013517 -0.74706,-1.683399 -0.74706,-1.683399 0,0 0.85887,-0.76153 0.84962,-1.762298 -0.01,-1.057255 -0.80754,-1.614603 -0.80754,-1.614603 0,0 0.84013,-0.540128 0.87144,-1.571079 0.0324,-1.065902 -1.19455,-1.834218 -1.19455,-1.834218 z"
         inkscape:connector-curvature="0"
         id="path265" />
      <path
         style="fill:#000000;stroke:none"
         d="m 239.16963,-53.312319 -0.0111,0.999645 1.00145,0.01039 0.009,-1.000718 z"
         inkscape:connector-curvature="0"
         id="path267" />
      <path
         style="fill:#6a4600;stroke:none"
         d="m 233.00825,-53.641515 -0.0131,1.52646 1.52369,0.01423 0.0142,-1.523703 z"
         inkscape:connector-curvature="0"
         id="path269" />
      <path
         style="fill:none;stroke:#000000;stroke-width:0.6;stroke-linecap:butt"
         d="m 227.26126,-55.055042 -0.0734,4.514141"
         inkscape:connector-curvature="0"
         id="path271" />
      <path
         style="fill:#000000;stroke:none"
         d="m 223.83649,-54.026834 -0.0111,0.999636 1.00072,0.0086 0.009,-0.998911 z"
         inkscape:connector-curvature="0"
         id="path273" />
      <path
         style="fill:#000000;stroke:none"
         d="m 223.85032,-52.581947 -0.0111,0.999637 1.00072,0.0086 0.009,-0.998912 z"
         inkscape:connector-curvature="0"
         id="path275" />
      <path
         style="fill:none;stroke:#000000;stroke-width:0.5;stroke-linecap:butt;stroke-linejoin:round;stroke-miterlimit:4"
         d="m 227.2539,-51.578825 1.14997,0.173504 -0.0116,1.05042"
         inkscape:connector-curvature="0"
         id="path277" />
      <path
         style="fill:none;stroke:#000000;stroke-width:0.5;stroke-linecap:butt;stroke-linejoin:round;stroke-miterlimit:4"
         d="m 227.25705,-54.143799 1.1481,-0.163064 0.0224,-1.189753"
         inkscape:connector-curvature="0"
         id="path279" />
    </g>
  </g>
  <g
     inkscape:groupmode="layer"
     id="suit_rank_glow_layer"
     inkscape:label="Suit Rank Glow"
     style="display:inline"
     sodipodi:insensitive="true">
    <g
       style="opacity:0.75;filter:url(#blurSuitRankGlow)"
       id="g282">
      <path
         style="fill:#ffffff;fill-opacity:1;stroke:none"
         d="m 31.453338,20.628773 c -3.90158,4.19568 -7.07982,7.84109 -10.6575,12.24125 3.57768,4.40016 6.75592,8.045575 10.6575,12.241254 3.90158,-4.195679 7.07982,-7.841094 10.6575,-12.241254 -3.57768,-4.40016 -6.75592,-8.04557 -10.6575,-12.241251 z"
         inkscape:connector-curvature="0"
         id="path284" />
      <path
         style="fill:#ffffff;fill-opacity:1;stroke:none"
         d="m 215.96335,316.87128 c 3.90158,-4.19568 7.07982,-7.84109 10.6575,-12.24125 -3.57768,-4.40016 -6.75592,-8.04557 -10.6575,-12.24125 -3.90158,4.19568 -7.07982,7.84109 -10.6575,12.24125 3.57768,4.40016 6.75592,8.04557 10.6575,12.24125 z"
         inkscape:connector-curvature="0"
         id="path286" />
      <path
         style="fill:#ffffff;fill-opacity:1;stroke:none"
         d="m 40.653333,72.155025 c -2e-5,1.5733 -0.26669,3.04 -0.8,4.4 -0.50669,1.3333 -1.21335,2.4933 -2.12,3.48 -0.66668,0.8533 -1.45335,1.5467 -2.36,2.08 -0.90668,0.5067 -2.08001,0.76 -3.52,0.76 -1.28001,0 -2.40001,-0.24 -3.36,-0.72 -0.96001,-0.48 -1.80001,-1.12 -2.52,-1.92 -0.72,-0.8267 -1.32,-1.7733 -1.8,-2.84 -0.45334,-1.0933 -0.82667,-2.2267 -1.12,-3.4 -0.29334,-1.2 -0.50667,-2.4 -0.64,-3.6 -0.10667,-1.2266 -0.16,-2.4 -0.16,-3.52 0,-2.2133 0.18666,-4.2933 0.56,-6.24 0.37333,-1.9466 0.94666,-3.64 1.72,-5.08 0.79999,-1.44 1.79999,-2.5733 3,-3.4 1.19999,-0.8533 2.63999,-1.28 4.32,-1.28 1.86665,0 3.43998,0.52 4.72,1.56 1.27998,1.0134 2.30665,2.4 3.08,4.16 l -2.76,1.64 c -0.53335,-1.28 -1.21335,-2.2933 -2.04,-3.04 -0.82668,-0.7466 -1.82668,-1.12 -3,-1.12 -0.98668,0 -1.85334,0.28 -2.6,0.84 -0.74667,0.5334 -1.38667,1.28 -1.92,2.24 -0.50667,0.96 -0.92001,2.1067 -1.24,3.44 -0.29334,1.3067 -0.48001,2.72 -0.56,4.24 0.82666,-1.04 1.78666,-1.8533 2.88,-2.44 1.09332,-0.6133 2.23999,-0.92 3.44,-0.92 1.14665,0 2.25332,0.28 3.32,0.84 1.06665,0.56 1.99998,1.32 2.8,2.28 0.82665,0.96 1.47998,2.0934 1.96,3.4 0.47998,1.3067 0.71998,2.6934 0.72,4.16 m -3.2,0 c -2e-5,-1.04 -0.16002,-2.0133 -0.48,-2.92 -0.32002,-0.9066 -0.74668,-1.6933 -1.28,-2.36 -0.50668,-0.6933 -1.09335,-1.2266 -1.76,-1.6 -0.66668,-0.4 -1.36001,-0.6 -2.08,-0.6 -0.72001,0 -1.42668,0.2 -2.12,0.6 -0.66668,0.3734 -1.26667,0.9067 -1.8,1.6 -0.50667,0.6667 -0.92001,1.4534 -1.24,2.36 -0.29334,0.9067 -0.44001,1.88 -0.44,2.92 -10e-6,0.7467 0.11999,1.56 0.36,2.44 0.23999,0.88 0.58666,1.6933 1.04,2.44 0.47999,0.7467 1.06666,1.3733 1.76,1.88 0.69332,0.5067 1.50666,0.76 2.44,0.76 0.77332,-0.053 1.49332,-0.2933 2.16,-0.72 0.69332,-0.4267 1.29332,-0.9733 1.8,-1.64 0.50665,-0.6933 0.90665,-1.48 1.2,-2.36 0.29332,-0.88 0.43998,-1.8133 0.44,-2.8"
         inkscape:connector-curvature="0"
         id="path288" />
      <path
         style="fill:#ffffff;fill-opacity:1;stroke:none"
         d="m 206.76334,265.34503 c 2e-5,-1.5733 0.26669,-3.04 0.8,-4.4 0.50669,-1.3333 1.21335,-2.4933 2.12,-3.48 0.66668,-0.8533 1.45335,-1.5467 2.36,-2.08 0.90668,-0.5067 2.08001,-0.76 3.52,-0.76 1.28001,0 2.40001,0.24 3.36,0.72 0.96002,0.48 1.80001,1.12 2.52001,1.92 0.72,0.8267 1.32,1.7733 1.8,2.84 0.45334,1.0933 0.82667,2.2267 1.12,3.4 0.29334,1.2 0.50667,2.4 0.64,3.6 0.10667,1.2266 0.16,2.4 0.16,3.52 0,2.2133 -0.18666,4.2933 -0.56,6.24 -0.37334,1.9466 -0.94667,3.64 -1.72,5.08 -0.8,1.44 -1.8,2.5733 -3,3.4 -1.2,0.8533 -2.64,1.28 -4.32,1.28 -1.86665,0 -3.43998,-0.52 -4.72,-1.56 -1.27998,-1.0134 -2.30665,-2.4 -3.08,-4.16 l 2.75999,-1.64 c 0.53336,1.27999 1.21335,2.2933 2.04,3.04 0.82668,0.7466 1.82668,1.12 3,1.12 0.98668,0 1.85334,-0.28 2.6,-0.84 0.74667,-0.5334 1.38667,-1.28 1.92,-2.24 0.50667,-0.96 0.92001,-2.1067 1.24,-3.44 0.29334,-1.3067 0.48001,-2.72 0.56,-4.24 -0.82666,1.04 -1.78666,1.8533 -2.88,2.44 -1.09332,0.6133 -2.23999,0.92 -3.44,0.92 -1.14665,0 -2.25332,-0.28 -3.32,-0.84 -1.06665,-0.56 -1.99998,-1.32 -2.8,-2.28 -0.82665,-0.96 -1.47998,-2.0934 -1.96,-3.4 -0.47998,-1.3067 -0.71998,-2.6934 -0.72,-4.16 m 3.2,0 c 2e-5,1.04 0.16002,2.0133 0.48,2.92 0.32002,0.9066 0.74668,1.6933 1.28,2.36 0.50668,0.6933 1.09335,1.2266 1.76,1.6 0.66668,0.4 1.36001,0.6 2.08,0.6 0.72001,0 1.42668,-0.2 2.12,-0.6 0.66668,-0.3734 1.26667,-0.9067 1.8,-1.6 0.50667,-0.6667 0.92001,-1.4534 1.24,-2.36 0.29334,-0.9067 0.44001,-1.88 0.44,-2.92 1e-5,-0.7467 -0.11999,-1.56 -0.36,-2.44 -0.23999,-0.88 -0.58666,-1.6933 -1.04,-2.44 -0.47999,-0.7467 -1.06666,-1.3733 -1.76,-1.88 -0.69332,-0.5067 -1.50666,-0.76 -2.44,-0.76 -0.77332,0.053 -1.49332,0.2933 -2.16,0.72 -0.69332,0.4267 -1.29332,0.9733 -1.8,1.64 -0.50665,0.6933 -0.90665,1.48 -1.2,2.36 -0.29332,0.88 -0.43998,1.8133 -0.44,2.8"
         inkscape:connector-curvature="0"
         id="path290" />
    </g>
  </g>
  <g
     inkscape:groupmode="layer"
     id="suit_rank_layer"
     inkscape:label="Suit Rank"
     style="display:inline"
     sodipodi:insensitive="true">
    <path
       style="fill:#de0000;fill-opacity:1;stroke:none"
       d="m 31.453338,20.628773 c -3.90158,4.19568 -7.07982,7.84109 -10.6575,12.24125 3.57768,4.40016 6.75592,8.045575 10.6575,12.241254 3.90158,-4.195679 7.07982,-7.841094 10.6575,-12.241254 -3.57768,-4.40016 -6.75592,-8.04557 -10.6575,-12.241251 z"
       inkscape:connector-curvature="0"
       id="path293" />
    <path
       style="fill:#de0000;fill-opacity:1;stroke:none"
       d="m 215.96335,316.87128 c 3.90158,-4.19568 7.07982,-7.84109 10.6575,-12.24125 -3.57768,-4.40016 -6.75592,-8.04557 -10.6575,-12.24125 -3.90158,4.19568 -7.07982,7.84109 -10.6575,12.24125 3.57768,4.40016 6.75592,8.04557 10.6575,12.24125 z"
       inkscape:connector-curvature="0"
       id="path295" />
    <path
       style="fill:#de0000;fill-opacity:1;stroke:none"
       d="m 40.653333,72.155025 c -2e-5,1.5733 -0.26669,3.04 -0.8,4.4 -0.50669,1.3333 -1.21335,2.4933 -2.12,3.48 -0.66668,0.8533 -1.45335,1.5467 -2.36,2.08 -0.90668,0.5067 -2.08001,0.76 -3.52,0.76 -1.28001,0 -2.40001,-0.24 -3.36,-0.72 -0.96001,-0.48 -1.80001,-1.12 -2.52,-1.92 -0.72,-0.8267 -1.32,-1.7733 -1.8,-2.84 -0.45334,-1.0933 -0.82667,-2.2267 -1.12,-3.4 -0.29334,-1.2 -0.50667,-2.4 -0.64,-3.6 -0.10667,-1.2266 -0.16,-2.4 -0.16,-3.52 0,-2.2133 0.18666,-4.2933 0.56,-6.24 0.37333,-1.9466 0.94666,-3.64 1.72,-5.08 0.79999,-1.44 1.79999,-2.5733 3,-3.4 1.19999,-0.8533 2.63999,-1.28 4.32,-1.28 1.86665,0 3.43998,0.52 4.72,1.56 1.27998,1.0134 2.30665,2.4 3.08,4.16 l -2.76,1.64 c -0.53335,-1.28 -1.21335,-2.2933 -2.04,-3.04 -0.82668,-0.7466 -1.82668,-1.12 -3,-1.12 -0.98668,0 -1.85334,0.28 -2.6,0.84 -0.74667,0.5334 -1.38667,1.28 -1.92,2.24 -0.50667,0.96 -0.92001,2.1067 -1.24,3.44 -0.29334,1.3067 -0.48001,2.72 -0.56,4.24 0.82666,-1.04 1.78666,-1.8533 2.88,-2.44 1.09332,-0.6133 2.23999,-0.92 3.44,-0.92 1.14665,0 2.25332,0.28 3.32,0.84 1.06665,0.56 1.99998,1.32 2.8,2.28 0.82665,0.96 1.47998,2.0934 1.96,3.4 0.47998,1.3067 0.71998,2.6934 0.72,4.16 m -3.2,0 c -2e-5,-1.04 -0.16002,-2.0133 -0.48,-2.92 -0.32002,-0.9066 -0.74668,-1.6933 -1.28,-2.36 -0.50668,-0.6933 -1.09335,-1.2266 -1.76,-1.6 -0.66668,-0.4 -1.36001,-0.6 -2.08,-0.6 -0.72001,0 -1.42668,0.2 -2.12,0.6 -0.66668,0.3734 -1.26667,0.9067 -1.8,1.6 -0.50667,0.6667 -0.92001,1.4534 -1.24,2.36 -0.29334,0.9067 -0.44001,1.88 -0.44,2.92 -10e-6,0.7467 0.11999,1.56 0.36,2.44 0.23999,0.88 0.58666,1.6933 1.04,2.44 0.47999,0.7467 1.06666,1.3733 1.76,1.88 0.69332,0.5067 1.50666,0.76 2.44,0.76 0.77332,-0.053 1.49332,-0.2933 2.16,-0.72 0.69332,-0.4267 1.29332,-0.9733 1.8,-1.64 0.50665,-0.6933 0.90665,-1.48 1.2,-2.36 0.29332,-0.88 0.43998,-1.8133 0.44,-2.8"
       inkscape:connector-curvature="0"
       id="path297" />
    <path
       style="fill:#de0000;fill-opacity:1;stroke:none"
       d="m 206.76334,265.34503 c 2e-5,-1.5733 0.26669,-3.04 0.8,-4.4 0.50669,-1.3333 1.21335,-2.4933 2.12,-3.48 0.66668,-0.8533 1.45335,-1.5467 2.36,-2.08 0.90668,-0.5067 2.08001,-0.76 3.52,-0.76 1.28001,0 2.40001,0.24 3.36,0.72 0.96002,0.48 1.80001,1.12 2.52001,1.92 0.72,0.8267 1.32,1.7733 1.8,2.84 0.45334,1.0933 0.82667,2.2267 1.12,3.4 0.29334,1.2 0.50667,2.4 0.64,3.6 0.10667,1.2266 0.16,2.4 0.16,3.52 0,2.2133 -0.18666,4.2933 -0.56,6.24 -0.37334,1.9466 -0.94667,3.64 -1.72,5.08 -0.8,1.44 -1.8,2.5733 -3,3.4 -1.2,0.8533 -2.64,1.28 -4.32,1.28 -1.86665,0 -3.43998,-0.52 -4.72,-1.56 -1.27998,-1.0134 -2.30665,-2.4 -3.08,-4.16 l 2.75999,-1.64 c 0.53336,1.27999 1.21335,2.2933 2.04,3.04 0.82668,0.7466 1.82668,1.12 3,1.12 0.98668,0 1.85334,-0.28 2.6,-0.84 0.74667,-0.5334 1.38667,-1.28 1.92,-2.24 0.50667,-0.96 0.92001,-2.1067 1.24,-3.44 0.29334,-1.3067 0.48001,-2.72 0.56,-4.24 -0.82666,1.04 -1.78666,1.8533 -2.88,2.44 -1.09332,0.6133 -2.23999,0.92 -3.44,0.92 -1.14665,0 -2.25332,-0.28 -3.32,-0.84 -1.06665,-0.56 -1.99998,-1.32 -2.8,-2.28 -0.82665,-0.96 -1.47998,-2.0934 -1.96,-3.4 -0.47998,-1.3067 -0.71998,-2.6934 -0.72,-4.16 m 3.2,0 c 2e-5,1.04 0.16002,2.0133 0.48,2.92 0.32002,0.9066 0.74668,1.6933 1.28,2.36 0.50668,0.6933 1.09335,1.2266 1.76,1.6 0.66668,0.4 1.36001,0.6 2.08,0.6 0.72001,0 1.42668,-0.2 2.12,-0.6 0.66668,-0.3734 1.26667,-0.9067 1.8,-1.6 0.50667,-0.6667 0.92001,-1.4534 1.24,-2.36 0.29334,-0.9067 0.44001,-1.88 0.44,-2.92 1e-5,-0.7467 -0.11999,-1.56 -0.36,-2.44 -0.23999,-0.88 -0.58666,-1.6933 -1.04,-2.44 -0.47999,-0.7467 -1.06666,-1.3733 -1.76,-1.88 -0.69332,-0.5067 -1.50666,-0.76 -2.44,-0.76 -0.77332,0.053 -1.49332,0.2933 -2.16,0.72 -0.69332,0.4267 -1.29332,0.9733 -1.8,1.64 -0.50665,0.6933 -0.90665,1.48 -1.2,2.36 -0.29332,0.88 -0.43998,1.8133 -0.44,2.8"
       inkscape:connector-curvature="0"
       id="path299" />
  </g>
  <g
     inkscape:groupmode="layer"
     id="guides_layer"
     inkscape:label="Guides"
     style="display:none"
     sodipodi:insensitive="true">
    <path
       style="fill:none;stroke:#000000;stroke-width:0.9"
       d="m 11.250000,11.25 0,-45"
       inkscape:connector-curvature="0"
       id="path302" />
    <path
       style="fill:none;stroke:#000000;stroke-width:0.9"
       d="m 11.250000,371.25 0,-45"
       inkscape:connector-curvature="0"
       id="path304" />
    <path
       style="fill:none;stroke:#000000;stroke-width:0.9"
       d="m 84.375000,11.25 0,-45"
       inkscape:connector-curvature="0"
       id="path306" />
    <path
       style="fill:none;stroke:#000000;stroke-width:0.9"
       d="m 84.375000,371.25 0,-45"
       inkscape:connector-curvature="0"
       id="path308" />
    <path
       style="fill:none;stroke:#000000;stroke-width:0.9"
       d="m 123.750000,11.25 0,-45"
       inkscape:connector-curvature="0"
       id="path310" />
    <path
       style="fill:none;stroke:#000000;stroke-width:0.9"
       d="m 123.750000,371.25 0,-45"
       inkscape:connector-curvature="0"
       id="path312" />
    <path
       style="fill:none;stroke:#000000;stroke-width:0.9"
       d="m 163.125000,11.25 0,-45"
       inkscape:connector-curvature="0"
       id="path314" />
    <path
       style="fill:none;stroke:#000000;stroke-width:0.9"
       d="m 163.125000,371.25 0,-45"
       inkscape:connector-curvature="0"
       id="path316" />
    <path
       style="fill:none;stroke:#000000;stroke-width:0.9"
       d="m 236.250000,11.25 0,-45"
       inkscape:connector-curvature="0"
       id="path318" />
    <path
       style="fill:none;stroke:#000000;stroke-width:0.9"
       d="m 236.250000,371.25 0,-45"
       inkscape:connector-curvature="0"
       id="path320" />
    <path
       style="fill:none;stroke:#000000;stroke-width:0.9"
       d="m -33.75,11.250000 45,0"
       inkscape:connector-curvature="0"
       id="path322" />
    <path
       style="fill:none;stroke:#000000;stroke-width:0.9"
       d="m 236.25,11.250000 45,0"
       inkscape:connector-curvature="0"
       id="path324" />
    <path
       style="fill:none;stroke:#000000;stroke-width:0.9"
       d="m -33.75,118.125000 45,0"
       inkscape:connector-curvature="0"
       id="path326" />
    <path
       style="fill:none;stroke:#000000;stroke-width:0.9"
       d="m 236.25,118.125000 45,0"
       inkscape:connector-curvature="0"
       id="path328" />
    <path
       style="fill:none;stroke:#000000;stroke-width:0.9"
       d="m -33.75,168.750000 45,0"
       inkscape:connector-curvature="0"
       id="path330" />
    <path
       style="fill:none;stroke:#000000;stroke-width:0.9"
       d="m 236.25,168.750000 45,0"
       inkscape:connector-curvature="0"
       id="path332" />
    <path
       style="fill:none;stroke:#000000;stroke-width:0.9"
       d="m -33.75,219.375000 45,0"
       inkscape:connector-curvature="0"
       id="path334" />
    <path
       style="fill:none;stroke:#000000;stroke-width:0.9"
       d="m 236.25,219.375000 45,0"
       inkscape:connector-curvature="0"
       id="path336" />
    <path
       style="fill:none;stroke:#000000;stroke-width:0.9"
       d="m -33.75,326.250000 45,0"
       inkscape:connector-curvature="0"
       id="path338" />
    <path
       style="fill:none;stroke:#000000;stroke-width:0.9"
       d="m 236.25,326.250000 45,0"
       inkscape:connector-curvature="0"
       id="path340" />
    <g
       id="guide-short0-1">
      <rect
         x="163.125000"
         y="-22.500000"
         width="84.375000"
         height="22.500000"
         style="fill:#ffd291;stroke:#000000;stroke-width:0.9"
         id="rect343" />
      <rect
         x="168.750000"
         y="-22.500000"
         width="78.750000"
         height="22.500000"
         style="fill:#b4e982;stroke:#000000;stroke-width:0.9"
         id="rect345" />
      <rect
         x="185.625000"
         y="-22.500000"
         width="61.875000"
         height="22.500000"
         style="fill:#5adc4f;stroke:#000000;stroke-width:0.9"
         id="rect347" />
      <rect
         x="0.000000"
         y="-22.500000"
         width="163.125000"
         height="22.500000"
         style="fill:#b9deff;stroke:#000000;stroke-width:0.9"
         id="rect349" />
      <rect
         x="0.000000"
         y="-22.500000"
         width="123.750000"
         height="22.500000"
         style="fill:#9bceff;stroke:#000000;stroke-width:0.9"
         id="rect351" />
      <rect
         x="0.000000"
         y="-22.500000"
         width="67.500000"
         height="22.500000"
         style="fill:#73baff;stroke:#000000;stroke-width:0.9"
         id="rect353" />
    </g>
    <g
       id="guide-long1-7">
      <rect
         x="247.500000"
         y="0.000000"
         width="22.500000"
         height="337.500000"
         style="fill:#b4e982;stroke:#000000;stroke-width:0.9"
         id="rect356" />
      <rect
         x="247.500000"
         y="0.000000"
         width="22.500000"
         height="163.125000"
         style="fill:#5adc4f;stroke:#000000;stroke-width:0.9"
         id="rect358" />
      <rect
         x="247.500000"
         y="174.375000"
         width="22.500000"
         height="163.125000"
         style="fill:#5adc4f;stroke:#000000;stroke-width:0.9"
         id="rect360" />
    </g>
    <g
       id="guide-short2-4"
       transform="matrix(-1,0,0,1,247.5,360)">
      <rect
         x="0.000000"
         y="-22.500000"
         width="84.375000"
         height="22.500000"
         style="fill:#ffd291;stroke:#000000;stroke-width:0.9"
         id="rect363" />
      <rect
         x="0.000000"
         y="-22.500000"
         width="78.750000"
         height="22.500000"
         style="fill:#b4e982;stroke:#000000;stroke-width:0.9"
         id="rect365" />
      <rect
         x="0.000000"
         y="-22.500000"
         width="61.875000"
         height="22.500000"
         style="fill:#5adc4f;stroke:#000000;stroke-width:0.9"
         id="rect367" />
      <rect
         x="84.375000"
         y="-22.500000"
         width="163.125000"
         height="22.500000"
         style="fill:#b9deff;stroke:#000000;stroke-width:0.9"
         id="rect369" />
      <rect
         x="123.750000"
         y="-22.500000"
         width="123.750000"
         height="22.500000"
         style="fill:#9bceff;stroke:#000000;stroke-width:0.9"
         id="rect371" />
      <rect
         x="180.000000"
         y="-22.500000"
         width="67.500000"
         height="22.500000"
         style="fill:#73baff;stroke:#000000;stroke-width:0.9"
         id="rect373" />
    </g>
    <g
       id="guide-long3-0"
       transform="matrix(1,0,0,-1,-270,337.5)">
      <rect
         x="247.500000"
         y="0.000000"
         width="22.500000"
         height="337.500000"
         style="fill:#73baff;stroke:#000000;stroke-width:0.9"
         id="rect376" />
    </g>
  </g>
  <g
     inkscape:groupmode="layer"
     id="cut_line_layer"
     inkscape:label="Cut Line"
     style="display:none"
     sodipodi:insensitive="true">
    <rect
       style="fill:none;stroke:#000000;stroke-width:0.5;stroke-linecap:butt;stroke-linejoin:bevel;stroke-miterlimit:4;stroke-dasharray:none;stroke-opacity:1"
       width="225"
       height="315"
       x="11.25"
       y="11.25"
       ry="17.361111"
       id="rect379" />
  </g>
  <g
     inkscape:groupmode="layer"
     id="page_border_layer"
     inkscape:label="Page Border"
     style="display:none"
     sodipodi:insensitive="true">
    <rect
       style="fill:none;stroke:#000000;stroke-width:0.5;stroke-linecap:butt;stroke-linejoin:bevel;stroke-miterlimit:4;stroke-dasharray:none;stroke-opacity:1"
       width="247.5"
       height="337.5"
       x="0"
       y="0"
       id="rect382" />
  </g>
</svg>
