<?xml version="1.0" encoding="UTF-8" standalone="no"?>
<svg
   xmlns:dc="http://purl.org/dc/elements/1.1/"
   xmlns:cc="http://creativecommons.org/ns#"
   xmlns:rdf="http://www.w3.org/1999/02/22-rdf-syntax-ns#"
   xmlns:svg="http://www.w3.org/2000/svg"
   xmlns="http://www.w3.org/2000/svg"
   xmlns:xlink="http://www.w3.org/1999/xlink"
   xmlns:sodipodi="http://sodipodi.sourceforge.net/DTD/sodipodi-0.dtd"
   xmlns:inkscape="http://www.inkscape.org/namespaces/inkscape"
   version="1.1"
   height="337.5"
   width="247.5"
   id="svg2"
   inkscape:version="0.91 r13725"
   sodipodi:docname="diamonds-3.svg">
  <metadata
     id="metadata4">
    <rdf:RDF>
      <cc:Work
         rdf:about="">
        <dc:format>image/svg+xml</dc:format>
        <dc:type
           rdf:resource="http://purl.org/dc/dcmitype/StillImage" />
        <dc:title />
        <dc:creator>
          <cc:Agent>
            <dc:title>Gary Kacmarcik</dc:title>
          </cc:Agent>
        </dc:creator>
      </cc:Work>
    </rdf:RDF>
  </metadata>
  <defs
     id="defs6">
    <filter
       inkscape:label="textureGrassBig"
       style="color-interpolation-filters:sRGB"
       id="textureGrassBig">
      <feTurbulence
         numOctaves="2"
         seed="103"
         type="turbulence"
         baseFrequency="0.070000"
         result="result1"
         id="feTurbulence9" />
      <feColorMatrix
         result="result0"
         in="SourceGraphic"
         type="luminanceToAlpha"
         id="feColorMatrix11" />
      <feColorMatrix
         result="result2"
         values="1 0 0 0 0 0 1 0 0 0 0 0 1 0 0 0 0 0 0.4 0 "
         id="feColorMatrix13" />
      <feComposite
         in="result2"
         operator="over"
         in2="result1"
         id="feComposite15" />
      <feColorMatrix
         result="result91"
         values="1 0 0 0 0 0 1 0 0 0 0 0 1 0 0 0 0 0 10 -4 "
         id="feColorMatrix17" />
      <feComposite
         operator="out"
         in="SourceGraphic"
         in2="result91"
         id="feComposite19" />
      <feGaussianBlur
         stdDeviation="2.500000"
         id="feGaussianBlur21" />
      <feColorMatrix
         values="1 0 0 0 0 0 1 0 0 0 0 0 1 0 0 0 0 0 1 0 "
         id="feColorMatrix23" />
    </filter>
    <filter
       inkscape:label="textureGrassSmall"
       style="color-interpolation-filters:sRGB"
       id="textureGrassSmall">
      <feTurbulence
         numOctaves="4"
         seed="103"
         type="turbulence"
         baseFrequency="0.500000"
         result="result1"
         id="feTurbulence26" />
      <feColorMatrix
         result="result0"
         in="SourceGraphic"
         type="luminanceToAlpha"
         id="feColorMatrix28" />
      <feColorMatrix
         result="result2"
         values="1 0 0 0 0 0 1 0 0 0 0 0 1 0 0 0 0 0 0.4 0 "
         id="feColorMatrix30" />
      <feComposite
         in="result2"
         operator="over"
         in2="result1"
         id="feComposite32" />
      <feColorMatrix
         result="result91"
         values="1 0 0 0 0 0 1 0 0 0 0 0 1 0 0 0 0 0 10 -4 "
         id="feColorMatrix34" />
      <feComposite
         operator="out"
         in="SourceGraphic"
         in2="result91"
         id="feComposite36" />
      <feGaussianBlur
         stdDeviation="1.000000"
         id="feGaussianBlur38" />
      <feColorMatrix
         values="1 0 0 0 0 0 1 0 0 0 0 0 1 0 0 0 0 0 1 0 "
         id="feColorMatrix40" />
    </filter>
    <filter
       inkscape:label="textureLand"
       style="color-interpolation-filters:sRGB"
       id="textureLand">
      <feTurbulence
         numOctaves="4"
         seed="103"
         type="turbulence"
         baseFrequency="0.500000"
         result="result1"
         id="feTurbulence43" />
      <feColorMatrix
         result="result0"
         in="SourceGraphic"
         type="luminanceToAlpha"
         id="feColorMatrix45" />
      <feColorMatrix
         result="result2"
         values="1 0 0 0 0 0 1 0 0 0 0 0 1 0 0 0 0 0 0.4 0 "
         id="feColorMatrix47" />
      <feComposite
         in="result2"
         operator="over"
         in2="result1"
         id="feComposite49" />
      <feColorMatrix
         result="result91"
         values="1 0 0 0 0 0 1 0 0 0 0 0 1 0 0 0 0 0 10 -4 "
         id="feColorMatrix51" />
      <feComposite
         operator="out"
         in="SourceGraphic"
         in2="result91"
         id="feComposite53" />
      <feGaussianBlur
         stdDeviation="0.800000"
         id="feGaussianBlur55" />
      <feColorMatrix
         values="1 0 0 0 0 0 1 0 0 0 0 0 1 0 0 0 0 0 1 0 "
         id="feColorMatrix57" />
    </filter>
    <filter
       inkscape:label="textureForestBig"
       style="color-interpolation-filters:sRGB"
       id="textureForestBig">
      <feTurbulence
         numOctaves="2"
         seed="103"
         type="turbulence"
         baseFrequency="0.300000"
         result="result1"
         id="feTurbulence60" />
      <feColorMatrix
         result="result0"
         in="SourceGraphic"
         type="luminanceToAlpha"
         id="feColorMatrix62" />
      <feColorMatrix
         result="result2"
         values="1 0 0 0 0 0 1 0 0 0 0 0 1 0 0 0 0 0 0.4 0 "
         id="feColorMatrix64" />
      <feComposite
         in="result2"
         operator="over"
         in2="result1"
         id="feComposite66" />
      <feColorMatrix
         result="result91"
         values="1 0 0 0 0 0 1 0 0 0 0 0 1 0 0 0 0 0 10 -4 "
         id="feColorMatrix68" />
      <feComposite
         operator="out"
         in="SourceGraphic"
         in2="result91"
         id="feComposite70" />
      <feGaussianBlur
         stdDeviation="2.000000"
         id="feGaussianBlur72" />
      <feColorMatrix
         values="1 0 0 0 0 0 1 0 0 0 0 0 1 0 0 0 0 0 1 0 "
         id="feColorMatrix74" />
    </filter>
    <filter
       inkscape:label="textureForestSmall"
       style="color-interpolation-filters:sRGB"
       id="textureForestSmall">
      <feTurbulence
         numOctaves="4"
         seed="103"
         type="turbulence"
         baseFrequency="0.350000"
         result="result1"
         id="feTurbulence77" />
      <feColorMatrix
         result="result0"
         in="SourceGraphic"
         type="luminanceToAlpha"
         id="feColorMatrix79" />
      <feColorMatrix
         result="result2"
         values="1 0 0 0 0 0 1 0 0 0 0 0 1 0 0 0 0 0 0.4 0 "
         id="feColorMatrix81" />
      <feComposite
         in="result2"
         operator="over"
         in2="result1"
         id="feComposite83" />
      <feColorMatrix
         result="result91"
         values="1 0 0 0 0 0 1 0 0 0 0 0 1 0 0 0 0 0 10 -4 "
         id="feColorMatrix85" />
      <feComposite
         operator="out"
         in="SourceGraphic"
         in2="result91"
         id="feComposite87" />
      <feGaussianBlur
         stdDeviation="1.000000"
         id="feGaussianBlur89" />
      <feColorMatrix
         values="1 0 0 0 0 0 1 0 0 0 0 0 1 0 0 0 0 0 1 0 "
         id="feColorMatrix91" />
    </filter>
    <filter
       inkscape:label="roughenShoreline"
       style="color-interpolation-filters:sRGB"
       id="roughenShoreline">
      <feTurbulence
         numOctaves="4"
         seed="103"
         type="turbulence"
         baseFrequency="0.050000"
         result="turb"
         id="feTurbulence94" />
      <feDisplacementMap
         scale="6.600000"
         yChannelSelector="G"
         xChannelSelector="R"
         in="SourceGraphic"
         in2="turb"
         id="feDisplacementMap96" />
    </filter>
    <filter
       inkscape:label="roughenForest"
       style="color-interpolation-filters:sRGB"
       id="roughenForest">
      <feTurbulence
         numOctaves="4"
         seed="103"
         type="fractalNoise"
         baseFrequency="0.150000 0.150000"
         result="turb"
         id="feTurbulence99" />
      <feDisplacementMap
         scale="6.600000"
         yChannelSelector="G"
         xChannelSelector="R"
         in="SourceGraphic"
         in2="turb"
         id="feDisplacementMap101" />
    </filter>
    <filter
       inkscape:collect="always"
       inkscape:label="blurSuitRankGlow"
       style="color-interpolation-filters:sRGB"
       id="blurSuitRankGlow"
       x="-0.029025"
       y="-0.020458"
       width="1.058049"
       height="1.040917">
      <feGaussianBlur
         inkscape:collect="always"
         stdDeviation="2.515067"
         id="feGaussianBlur104" />
    </filter>
    <filter
       inkscape:collect="always"
       inkscape:label="blurWaterDeep"
       style="color-interpolation-filters:sRGB"
       id="blurWaterDeep"
       x="-0.056691"
       y="-0.041620"
       width="1.113381"
       height="1.083239">
      <feGaussianBlur
         inkscape:collect="always"
         stdDeviation="6.919136"
         id="feGaussianBlur107" />
    </filter>
    <filter
       inkscape:collect="always"
       inkscape:label="blurWaterShallow"
       style="color-interpolation-filters:sRGB"
       id="blurWaterShallow"
       x="-0.055818"
       y="-0.042103"
       width="1.111637"
       height="1.084205">
      <feGaussianBlur
         inkscape:collect="always"
         stdDeviation="6.561501"
         id="feGaussianBlur110" />
    </filter>
    <filter
       inkscape:collect="always"
       inkscape:label="blurWaterHilight"
       style="color-interpolation-filters:sRGB"
       id="blurWaterHilight"
       x="-0.071178"
       y="-0.051856"
       width="1.142356"
       height="1.103712">
      <feGaussianBlur
         inkscape:collect="always"
         stdDeviation="6.857532"
         id="feGaussianBlur113" />
    </filter>
    <filter
       inkscape:collect="always"
       inkscape:label="blurGrass"
       style="color-interpolation-filters:sRGB"
       id="blurGrass"
       x="-0.032100"
       y="-0.019164"
       width="1.064201"
       height="1.038328">
      <feGaussianBlur
         inkscape:collect="always"
         stdDeviation="2.386213"
         id="feGaussianBlur116" />
    </filter>
    <filter
       inkscape:collect="always"
       inkscape:label="blurForestShadow"
       style="color-interpolation-filters:sRGB"
       id="blurForestShadow"
       x="-0.033576"
       y="-0.018674"
       width="1.067152"
       height="1.037348">
      <feGaussianBlur
         inkscape:collect="always"
         stdDeviation="2.199785"
         id="feGaussianBlur119" />
    </filter>
    <linearGradient
       id="gradientStopsFish"
       inkscape:collect="always">
      <stop
         offset="0.000000"
         style="stop-color:#ff5555;stop-opacity:1.000000"
         id="stop128" />
      <stop
         offset="1.000000"
         style="stop-color:#ffffff;stop-opacity:1.000000"
         id="stop130" />
    </linearGradient>
    <linearGradient
       id="gradientStopsCoconut"
       inkscape:collect="always">
      <stop
         offset="0.000000"
         style="stop-color:#ffffff;stop-opacity:1.000000"
         id="stop133" />
      <stop
         offset="1.000000"
         style="stop-color:#c8c8c8;stop-opacity:0.000000"
         id="stop135" />
    </linearGradient>
    <linearGradient
       id="gradientStopsFlower"
       inkscape:collect="always">
      <stop
         offset="0.000000"
         style="stop-color:#b16dff;stop-opacity:1.000000"
         id="stop138" />
      <stop
         offset="1.000000"
         style="stop-color:#e7d2ff;stop-opacity:1.000000"
         id="stop140" />
    </linearGradient>
    <linearGradient
       id="gradientStopsJellyfish"
       inkscape:collect="always">
      <stop
         offset="0.000000"
         style="stop-color:#4f97ff;stop-opacity:1.000000"
         id="stop143" />
      <stop
         offset="1.000000"
         style="stop-color:#cfe3ff;stop-opacity:1.000000"
         id="stop145" />
    </linearGradient>
    <linearGradient
       id="gradientStopsShip"
       inkscape:collect="always">
      <stop
         offset="0.000000"
         style="stop-color:#b67800;stop-opacity:1.000000"
         id="stop148" />
      <stop
         offset="1.000000"
         style="stop-color:#d28b00;stop-opacity:1.000000"
         id="stop150" />
    </linearGradient>
    <linearGradient
       id="gradientFish"
       xlink:href="#gradientStopsFish"
       x1="178.789090"
       y1="-114.782830"
       x2="180.407300"
       y2="-103.782830"
       gradientTransform="translate(-178.76256,1.0606602)"
       gradientUnits="userSpaceOnUse"
       inkscape:collect="always" />
    <linearGradient
       id="gradientJellyfishTentacle1a"
       xlink:href="#gradientStopsJellyfish"
       x1="118.024030"
       y1="-110.827530"
       x2="121.753140"
       y2="-96.140030"
       gradientTransform="translate(-120,0)"
       gradientUnits="userSpaceOnUse"
       inkscape:collect="always" />
    <linearGradient
       id="gradientJellyfishTentacle1b"
       xlink:href="#gradientStopsJellyfish"
       x1="118.024030"
       y1="-110.827530"
       x2="121.753140"
       y2="-96.140030"
       gradientTransform="translate(-120,0)"
       gradientUnits="userSpaceOnUse"
       inkscape:collect="always" />
    <linearGradient
       id="gradientJellyfishTentacle2"
       xlink:href="#gradientStopsJellyfish"
       x1="118.218180"
       y1="-115.782610"
       x2="121.698270"
       y2="-97.813858"
       gradientTransform="translate(-120,0)"
       gradientUnits="userSpaceOnUse"
       inkscape:collect="always" />
    <linearGradient
       id="gradientJellyfishTentacle3"
       xlink:href="#gradientStopsJellyfish"
       x1="123.335370"
       y1="-114.610190"
       x2="116.678600"
       y2="-98.453941"
       gradientTransform="translate(-120,0)"
       gradientUnits="userSpaceOnUse"
       inkscape:collect="always" />
    <linearGradient
       id="gradientShip"
       xlink:href="#gradientStopsShip"
       x1="196.432910"
       y1="221.715270"
       x2="203.663250"
       y2="204.277770"
       gradientTransform="matrix(0.37654483,0.9263984,-0.9263984,0.37654483,355.66788,-318.43897)"
       gradientUnits="userSpaceOnUse"
       inkscape:collect="always" />
    <radialGradient
       id="gradientCoconut"
       xlink:href="#gradientStopsCoconut"
       cx="1.944096"
       cy="-60.612652"
       fx="1.944096"
       fy="-60.612652"
       r="6.723294"
       gradientUnits="userSpaceOnUse"
       gradientTransform="matrix(1.691364,-0.31394812,0.29762395,1.603419,17.826033,-7.042221)"
       inkscape:collect="always" />
    <radialGradient
       id="gradientFlower"
       xlink:href="#gradientStopsFlower"
       cx="60.884877"
       cy="-69.652750"
       fx="60.884877"
       fy="-69.652750"
       r="15.835310"
       gradientUnits="userSpaceOnUse"
       gradientTransform="matrix(0.8413905,0,0,0.87120012,-50.722984,-48.679159)"
       inkscape:collect="always" />
    <radialGradient
       id="gradientJellyfish"
       xlink:href="#gradientStopsJellyfish"
       cx="120.453410"
       cy="-112.943900"
       fx="120.453410"
       fy="-112.943900"
       r="10.580511"
       gradientUnits="userSpaceOnUse"
       gradientTransform="matrix(1.1662998,0.0435575,-0.04526952,1.2121402,-145.14628,17.080499)"
       inkscape:collect="always" />
  </defs>
  <sodipodi:namedview
     id="base"
     pagecolor="#ffffff"
     bordercolor="#666666"
     borderopacity="1.0"
     inkscape:pageopacity="0.0"
     inkscape:pageshadow="2"
     inkscape:zoom="2"
     inkscape:cx="102.37643"
     inkscape:cy="205.04449"
     inkscape:document-units="in"
     showgrid="true"
     units="in"
     inkscape:window-width="1392"
     inkscape:window-height="836"
     inkscape:window-x="39"
     inkscape:window-y="6"
     inkscape:window-maximized="0"
     inkscape:snap-grids="true"
     inkscape:snap-to-guides="true"
     inkscape:snap-nodes="true"
     inkscape:object-nodes="true"
     inkscape:snap-smooth-nodes="true"
     inkscape:snap-intersection-paths="true"
     inkscape:object-paths="true"
     inkscape:snap-bbox="true"
     inkscape:bbox-nodes="true"
     inkscape:snap-others="true"
     inkscape:bbox-paths="false"
     inkscape:snap-global="false"
     inkscape:current-layer="labels_guide_layer">
    <inkscape:grid
       type="xygrid"
       id="grid3051"
       empspacing="2"
       visible="true"
       enabled="true"
       snapvisiblegridlinesonly="true"
       spacingx="0.0625in"
       spacingy="0.0625in"
       dotted="false"
       units="in" />
  </sodipodi:namedview>
  <g
     inkscape:groupmode="layer"
     id="water_layer"
     inkscape:label="Water"
     style="display:inline"
     sodipodi:insensitive="true">
    <rect
       id="water"
       style="fill:#b9deff;fill-opacity:1;stroke:none"
       x="0"
       y="0"
       width="247.5"
       height="337.5" />
  </g>
  <g
     inkscape:groupmode="layer"
     id="water_shallow_layer"
     inkscape:label="Water Shallow"
     style="display:inline"
     sodipodi:insensitive="true">
    <path
       style="fill:#9bd1ff;fill-opacity:0.70;fill-rule:evenodd;stroke:none;filter:url(#blurWaterShallow)"
       d="m -11.25,-11.25 0,180 22.5,0 22.5,5.625 L 50.625,191.25 67.5,180 67.5,163.125 90,157.5 90,129.375 84.375,106.875 78.75,90 73.125,78.75 67.5,61.875 l -5.625,-22.5 0,-16.875 0,-11.25 0,-22.5 z"
       inkscape:connector-curvature="0"
       id="path166" />
  </g>
  <g
     inkscape:groupmode="layer"
     id="water_deep_layer"
     inkscape:label="Water Deep"
     style="display:inline"
     sodipodi:insensitive="true">
    <path
       style="fill:#87c8ff;fill-opacity:0.60;fill-rule:evenodd;stroke:none;filter:url(#blurWaterDeep)"
       d="m -11.25,-11.25 0,112.5 22.5,0 11.25,5.625 22.5,-5.625 -5.625,-22.5 0,-16.875 0,-22.5 -5.625,-22.5 0,-5.625 0,-22.5 z"
       inkscape:connector-curvature="0"
       id="path169" />
  </g>
  <g
     inkscape:groupmode="layer"
     id="water_hilight_layer"
     inkscape:label="Water Hilight"
     style="display:inline"
     sodipodi:insensitive="true">
    <use
       xlink:href="#shoreline"
       height="100%"
       width="100%"
       x="0"
       y="0"
       style="display:inline;fill:#ffffff;fill-opacity:1;stroke:#ffffff;stroke-opacity:1;filter:url(#blurWaterHilight)"
       id="use172" />
  </g>
  <g
     inkscape:groupmode="layer"
     id="land_layer"
     inkscape:label="Land"
     style="display:inline"
     sodipodi:insensitive="true">
    <use
       xlink:href="#shoreline"
       height="100%"
       width="100%"
       x="0"
       y="0"
       style="display:inline;fill:#ffddab;fill-opacity:1;stroke:none;stroke-width:1;stroke-miterlimit:4;stroke-dasharray:none;stroke-opacity:1"
       id="use175" />
  </g>
  <g
     inkscape:groupmode="layer"
     id="land_texture_layer"
     inkscape:label="Land Texture"
     style="display:inline"
     sodipodi:insensitive="true">
    <use
       xlink:href="#shoreline"
       height="100%"
       width="100%"
       x="0"
       y="0"
       style="display:inline;fill:#ffca7d;fill-opacity:1;stroke:none;stroke-width:1;stroke-miterlimit:4;stroke-dasharray:none;stroke-opacity:1;filter:url(#textureLand)"
       id="use178" />
  </g>
  <g
     inkscape:groupmode="layer"
     id="shoreline_layer"
     inkscape:label="Shoreline"
     style="display:inline"
     sodipodi:insensitive="true">
    <use
       xlink:href="#shoreline"
       height="100%"
       width="100%"
       x="0"
       y="0"
       style="display:inline;fill:none;fill-opacity:1;stroke:#5f4c14;stroke-width:1;stroke-miterlimit:4;stroke-dasharray:none;stroke-opacity:1"
       id="use181" />
  </g>
  <g
     inkscape:groupmode="layer"
     id="shoreline_master_layer"
     inkscape:label="Shoreline Master"
     style="display:none"
     sodipodi:insensitive="true">
    <path
       id="shoreline"
       style="color:#000000;clip-rule:nonzero;display:inline;overflow:visible;visibility:visible;opacity:1;isolation:auto;mix-blend-mode:normal;color-interpolation:sRGB;color-interpolation-filters:linearRGB;solid-color:#000000;solid-opacity:1;fill-opacity:1;fill-rule:evenodd;filter:url(#roughenShoreline);color-rendering:auto;image-rendering:auto;shape-rendering:auto;text-rendering:auto;enable-background:accumulate"
       d="m 216.5625,-26.71875 c -25.3125,0 -129.375,1.40625 -132.1875,4.21875 -5.3033,5.303301 0,15 0,22.5 0,5.625 -0.386558,2.6490955 0,11.25 0.5,11.125 18.04569,25.327299 19.35938,43.015625 0.8562,11.528491 4.57812,38.671875 20.01562,41.359375 5.1054,0.888795 19.21624,23.81647 22.5,33.75 1.592,4.81586 -2.47495,45.52524 -5.625,50.625 -8.64253,13.9918 -18.96087,30.06058 -35.66784,26.5117 C 90.386748,203.41666 98.087515,231.50181 78.75,236.25 72.775649,237.71697 55.945477,238.77454 49.713248,239.80321 44.080318,240.73295 22.5,219.375 11.25,219.375 l -11.25,0 c -7.5,0 -15.791797,-3.3541 -22.5,0 -11.25,5.625 -7.954951,132.67005 0,140.625 11.25,11.25 152.55057,1.04423 185.625,0 25.55416,-0.8068 83.84079,3.41526 99.14258,-5.08203 14.50756,-8.05626 1.21323,-102.896 7.73242,-135.54297 1.55775,-7.80094 5.625,-236.25 0,-241.875 -2.8125,-2.8125 -28.125,-4.21875 -53.4375,-4.21875 z"
       inkscape:connector-curvature="0" />
  </g>
  <g
     inkscape:groupmode="layer"
     id="grass_layer"
     inkscape:label="Grass"
     style="display:inline"
     sodipodi:insensitive="true">
    <use
       xlink:href="#grass"
       height="100%"
       width="100%"
       x="0"
       y="0"
       style="display:inline;fill:#b4e982;fill-opacity:1;stroke:none;stroke-width:1;stroke-miterlimit:4;stroke-dasharray:none;stroke-opacity:1"
       id="use186" />
  </g>
  <g
     inkscape:groupmode="layer"
     id="grass_texture1_layer"
     inkscape:label="Grass Texture Big"
     style="display:inline"
     sodipodi:insensitive="true">
    <use
       xlink:href="#grass"
       height="100%"
       width="100%"
       x="0"
       y="0"
       style="display:inline;fill:#a7e46a;fill-opacity:1;stroke:none;stroke-width:1;stroke-miterlimit:4;stroke-dasharray:none;stroke-opacity:1;filter:url(#textureGrassBig)"
       id="use189" />
  </g>
  <g
     inkscape:groupmode="layer"
     id="grass_texture2_layer"
     inkscape:label="Grass Texture Small"
     style="display:inline"
     sodipodi:insensitive="true">
    <use
       xlink:href="#grass"
       height="100%"
       width="100%"
       x="0"
       y="0"
       style="display:inline;fill:#8cdd3d;fill-opacity:1;stroke:none;stroke-width:1;stroke-miterlimit:4;stroke-dasharray:none;stroke-opacity:1;filter:url(#textureGrassSmall)"
       id="use192" />
  </g>
  <g
     inkscape:groupmode="layer"
     id="grass_master_layer"
     inkscape:label="Grass Master"
     style="display:none"
     sodipodi:insensitive="true">
    <path
       id="grass"
       style="color:#000000;clip-rule:nonzero;display:inline;overflow:visible;visibility:visible;opacity:1;isolation:auto;mix-blend-mode:normal;color-interpolation:sRGB;color-interpolation-filters:linearRGB;solid-color:#000000;solid-opacity:1;fill-opacity:1;fill-rule:evenodd;filter:url(#blurGrass);color-rendering:auto;image-rendering:auto;shape-rendering:auto;text-rendering:auto;enable-background:accumulate"
       d="m 101.25,-11.25 0,22.5 0,5.625 5.625,11.25 0,5.625 5.625,11.25 0,11.25 11.25,5.625 11.25,16.875 0,11.25 5.625,11.25 5.625,16.875 5.625,11.25 5.625,16.875 5.625,16.875 -5.625,16.875 -11.25,11.25 -11.25,5.625 -11.25,11.25 0,11.25 -11.25,0 -11.25,5.625 -5.625,16.875 -11.25,11.25 -28.125,5.625 -16.875,-11.25 -11.25,0 -11.25,-11.25 -5.625,0 -22.5,0 0,112.5 270,0 0,-360 z"
       inkscape:connector-curvature="0" />
  </g>
  <g
     inkscape:groupmode="layer"
     id="forest_shadow_layer"
     inkscape:label="Forest Shadow"
     style="display:inline"
     sodipodi:insensitive="true">
    <g
       style="filter:url(#blurForestShadow)"
       id="g197">
      <use
         xlink:href="#forest"
         height="100%"
         width="100%"
         x="0"
         y="0"
         style="display:inline;opacity:0.75;fill:#258c1b;fill-opacity:1;filter:url(#roughenForest)"
         id="use199" />
    </g>
  </g>
  <g
     inkscape:groupmode="layer"
     id="forest_fill_layer"
     inkscape:label="Forest Fill"
     style="display:inline"
     sodipodi:insensitive="true">
    <use
       xlink:href="#forest"
       height="100%"
       width="100%"
       x="0"
       y="0"
       style="fill:#83d700;fill-opacity:1;stroke:none;stroke-width:1.5;stroke-miterlimit:4;stroke-dasharray:none;stroke-opacity:1;filter:url(#roughenForest)"
       id="use202" />
  </g>
  <g
     inkscape:groupmode="layer"
     id="forest_texture_big_layer"
     inkscape:label="Forest Texture Big"
     style="display:inline"
     sodipodi:insensitive="true">
    <g
       style="filter:url(#textureForestBig)"
       id="g205">
      <use
         xlink:href="#forest"
         height="100%"
         width="100%"
         x="0"
         y="0"
         style="fill:#548c00;fill-opacity:1;stroke:none;stroke-width:1.5;stroke-miterlimit:4;stroke-dasharray:none;stroke-opacity:1;filter:url(#roughenForest)"
         id="use207" />
    </g>
  </g>
  <g
     inkscape:groupmode="layer"
     id="forest_texture_small_layer"
     inkscape:label="Forest Texture Small"
     style="display:inline"
     sodipodi:insensitive="true">
    <g
       style="filter:url(#textureForestSmall)"
       id="g210">
      <use
         xlink:href="#forest"
         height="100%"
         width="100%"
         x="0"
         y="0"
         style="fill:#78c125;fill-opacity:1;stroke:none;stroke-width:1;stroke-miterlimit:4;stroke-dasharray:none;stroke-opacity:1;filter:url(#roughenForest)"
         id="use212" />
    </g>
  </g>
  <g
     inkscape:groupmode="layer"
     id="forest_outline_layer"
     inkscape:label="Forest Outline"
     style="display:inline"
     sodipodi:insensitive="true">
    <use
       xlink:href="#forest"
       height="100%"
       width="100%"
       x="0"
       y="0"
       style="fill:none;fill-opacity:1;stroke:#006800;stroke-width:1.5;stroke-miterlimit:4;stroke-dasharray:none;stroke-opacity:1;filter:url(#roughenForest)"
       id="use215" />
  </g>
  <g
     inkscape:groupmode="layer"
     id="forest_master_layer"
     inkscape:label="Forest Master"
     style="display:none"
     sodipodi:insensitive="true">
    <path
       id="forest"
       style="color:#000000;clip-rule:nonzero;display:inline;overflow:visible;visibility:visible;opacity:1;isolation:auto;mix-blend-mode:normal;color-interpolation:sRGB;color-interpolation-filters:linearRGB;solid-color:#000000;solid-opacity:1;fill-opacity:1;fill-rule:nonzero;color-rendering:auto;image-rendering:auto;shape-rendering:auto;text-rendering:auto;enable-background:accumulate"
       d="m 118.125,-11.25 0,22.5 0,0.912109 a 6.75,7 0 0 0 -0.77734,3.25 6.75,7 0 0 0 6.29101,6.976563 L 123.75,22.5 l 0.16211,0 A 6.75,7 0 0 0 123.75,24 6.75,7 0 0 0 130.5,31 6.75,7 0 0 0 132.49023,30.679688 6.75,7 0 0 0 132.25,32.5 a 6.75,7 0 0 0 6.75,7 6.75,7 0 0 0 6.63672,-5.75 l 0.61328,0 0.76562,-0.765625 A 6.75,7 0 0 0 150.5,34 a 6.75,7 0 0 0 6.75,-7 6.75,7 0 0 0 -0.85547,-3.394531 L 157.5,22.5 l 0,-11.25 0,-22.5 -39.375,0 z m 50.625,0 0,22.5 3.43555,3.435547 a 6.75,7 0 0 0 -0.0371,0.726562 6.75,7 0 0 0 6.75,7 6.75,7 0 0 0 1.10156,-0.0957 l 0,11.433594 5.625,5.625 -2.06641,4.132812 A 6.75,7 0 0 0 177,50.5 a 6.75,7 0 0 0 5.23047,6.814453 l 0.8125,2.439453 A 6.75,7 0 0 0 180.75,65 a 6.75,7 0 0 0 6.75,7 6.75,7 0 0 0 6.29688,-4.5 l 3.07812,0 0,-5.625 5.38867,-2.695312 A 6.75,7 0 0 0 208,62.5 6.75,7 0 0 0 212.54297,60.667969 L 213.75,61.875 l 1.18164,3.546875 A 6.75,7 0 0 0 212.25,71 6.75,7 0 0 0 215.64258,77.064453 6.75,7 0 0 0 209.75,84 a 6.75,7 0 0 0 4,6.386719 l 0,5.238281 1.58984,0.794922 A 6.75,7 0 0 0 215.25,97.5 a 6.75,7 0 0 0 6.75,7 6.75,7 0 0 0 1.46289,-0.17578 l -2.7793,5.56055 A 6.75,7 0 0 0 218.5,109.5 6.75,7 0 0 0 212.23633,113.9043 6.75,7 0 0 0 210,113.5 a 6.75,7 0 0 0 -6.75,7 6.75,7 0 0 0 6.75,7 6.75,7 0 0 0 1.6543,-0.2207 l 2.48828,2.48828 A 6.75,7 0 0 0 211.25,135.5 a 6.75,7 0 0 0 4.56641,6.61523 l -0.92383,1.84766 A 6.75,7 0 0 0 212.5,143.5 a 6.75,7 0 0 0 -6.75,7 6.75,7 0 0 0 6.75,7 6.75,7 0 0 0 2.97461,-0.7207 A 6.75,7 0 0 0 222,162 a 6.75,7 0 0 0 2.23633,-0.4043 L 225,163.125 l 11.25,0 22.5,0 0,-174.375 -45,0 0,22.5 3.5332,10.378906 A 6.75,7 0 0 0 216,21.5 a 6.75,7 0 0 0 -6.75,7 6.75,7 0 0 0 0.0156,0.453125 l -0.77539,-0.740234 A 6.75,7 0 0 0 209.25,25 6.75,7 0 0 0 202.5,18 l 0,-1.125 0,-5.625 0,-22.5 -33.75,0 z m 22.16016,28.154297 a 4.2426405,4.5961943 0 0 1 0.008,0.275391 4.2426405,4.5961943 0 0 1 -0.10742,1.013671 4.2426405,4.5961943 0 0 0 -1.33203,0.896485 4.2426405,4.5961943 0 0 0 0.0254,-0.494141 4.2426405,4.5961943 0 0 0 -0.008,-0.263672 4.2426405,4.5961943 0 0 0 1.41407,-1.427734 z m -44.5625,0.748047 a 4.2426405,4.5961943 0 0 1 -0.58594,1.892578 4.2426405,4.5961943 0 0 1 1.66992,3.646484 4.2426405,4.5961943 0 0 1 -0.0352,0.564453 4.2426405,4.5961943 0 0 0 -3.85351,-2.685547 4.2426405,4.5961943 0 0 0 -2.6543,1.011719 4.2426405,4.5961943 0 0 0 -1.06836,-0.677734 4.2426405,4.5961943 0 0 0 1.23438,-1.314453 4.2426405,4.5961943 0 0 0 1.42773,0.273437 4.2426405,4.5961943 0 0 0 3.86524,-2.710937 z m -11.75391,3.189453 a 4.2426405,4.5961943 0 0 0 1.35742,0.953125 4.2426405,4.5961943 0 0 0 -1.93359,3.421875 4.2426405,4.5961943 0 0 1 -1.43555,-3.439453 4.2426405,4.5961943 0 0 1 0.0566,-0.708985 4.2426405,4.5961943 0 0 0 0.30078,-0.01758 4.2426405,4.5961943 0 0 0 0.34961,0.01953 4.2426405,4.5961943 0 0 0 1.30469,-0.228515 z m 99.94727,7.681641 a 4.2426405,4.5961943 0 0 1 -4.02344,3.152343 4.2426405,4.5961943 0 0 1 -0.76563,-0.07813 4.2426405,4.5961943 0 0 1 -3.125,1.492188 4.2426405,4.5961943 0 0 1 -1.24218,-0.201172 4.2426405,4.5961943 0 0 0 2.11328,-1.576172 4.2426405,4.5961943 0 0 0 0.18945,0.0098 4.2426405,4.5961943 0 0 0 2.78711,-1.136719 4.2426405,4.5961943 0 0 0 0.75,0.07617 4.2426405,4.5961943 0 0 0 3.31641,-1.738281 z m -35.02344,0.228515 a 4.2426405,4.5961943 0 0 1 1.38476,2.037109 4.2426405,4.5961943 0 0 0 -1.14453,-0.173828 4.2426405,4.5961943 0 0 0 -0.0156,0 4.2426405,4.5961943 0 0 0 0.0156,-0.353515 4.2426405,4.5961943 0 0 0 -0.24023,-1.509766 z m -6.58789,5.148438 a 4.2426405,4.5961943 0 0 0 2.58593,0.957031 4.2426405,4.5961943 0 0 0 0.0176,0 4.2426405,4.5961943 0 0 0 -0.0176,0.353516 4.2426405,4.5961943 0 0 0 0.0254,0.470703 4.2426405,4.5961943 0 0 0 -0.65821,1.064453 4.2426405,4.5961943 0 0 1 -0.0488,-0.371094 4.2426405,4.5961943 0 0 1 -1.90429,-2.474609 z m 38.29492,0.957031 a 4.2426405,4.5961943 0 0 1 0.52344,0.03906 4.2426405,4.5961943 0 0 0 -0.39063,0.658204 4.2426405,4.5961943 0 0 0 -0.9043,1.123046 4.2426405,4.5961943 0 0 0 -1.69531,-0.958984 4.2426405,4.5961943 0 0 1 2.4668,-0.861328 z m -20.85938,1.769531 a 4.2426405,4.5961943 0 0 1 1.76172,0.419922 4.2426405,4.5961943 0 0 0 -0.70117,-0.06641 4.2426405,4.5961943 0 0 0 -4.24414,4.595703 4.2426405,4.5961943 0 0 0 3.17969,4.443359 4.2426405,4.5961943 0 0 0 3.18555,1.566407 4.2426405,4.5961943 0 0 0 2.89843,-1.246094 4.2426405,4.5961943 0 0 0 0.55664,0.695312 4.2426405,4.5961943 0 0 0 -0.27343,1.611328 4.2426405,4.5961943 0 0 0 0.0156,0.373047 A 4.2426405,4.5961943 0 0 0 216.375,49 4.2426405,4.5961943 0 0 0 214.96094,49.267578 4.2426405,4.5961943 0 0 0 213.54688,49 a 4.2426405,4.5961943 0 0 0 -0.29883,0.01172 4.2426405,4.5961943 0 0 1 0.002,-0.01367 4.2426405,4.5961943 0 0 1 -0.0566,0.002 4.2426405,4.5961943 0 0 1 -3.94531,-2.90625 4.2426405,4.5961943 0 0 1 -3.48047,-4.517578 4.2426405,4.5961943 0 0 1 1.5664,-3.564453 4.2426405,4.5961943 0 0 1 3.03125,-1.384766 z m 13.75782,6.023438 a 4.2426405,4.5961943 0 0 0 3.05859,2.072265 4.2426405,4.5961943 0 0 0 1.95703,2.619141 4.2426405,4.5961943 0 0 0 -0.60156,0.923828 4.2426405,4.5961943 0 0 0 -3.32422,-1.740234 4.2426405,4.5961943 0 0 0 -0.46289,0.0332 4.2426405,4.5961943 0 0 0 -0.85938,-1.238282 4.2426405,4.5961943 0 0 1 -0.006,-0.03125 4.2426405,4.5961943 0 0 0 0.26757,-1.591796 4.2426405,4.5961943 0 0 0 -0.082,-0.886719 4.2426405,4.5961943 0 0 1 0.0527,-0.160156 z m -31.80469,10.109375 a 4.2426405,4.5961943 0 0 0 2.6543,1.179687 4.2426405,4.5961943 0 0 1 -3.34766,1.779297 4.2426405,4.5961943 0 0 1 -3.10547,-1.470703 4.2426405,4.5961943 0 0 0 0.63086,0.05664 4.2426405,4.5961943 0 0 0 3.16797,-1.544922 z m 29.11523,0.451172 a 4.2426405,4.5961943 0 0 0 1.34571,1.671874 4.2426405,4.5961943 0 0 0 0.29101,1.1875 4.2426405,4.5961943 0 0 1 -2.66601,-1.046874 4.2426405,4.5961943 0 0 0 0.21289,-1.427735 4.2426405,4.5961943 0 0 0 -0.0156,-0.373047 4.2426405,4.5961943 0 0 0 0.36914,0.01953 4.2426405,4.5961943 0 0 0 0.46289,-0.03125 z m 3.20508,4.921874 a 4.2426405,4.5961943 0 0 0 2.3418,0.767579 4.2426405,4.5961943 0 0 0 0.75391,-0.07422 4.2426405,4.5961943 0 0 0 0.52734,1.662109 4.2426405,4.5961943 0 0 0 -0.57422,2.300781 4.2426405,4.5961943 0 0 0 0.71094,2.539063 4.2426405,4.5961943 0 0 0 -1.07227,0.363281 4.2426405,4.5961943 0 0 0 -0.39648,-1.666015 4.2426405,4.5961943 0 0 1 0.47265,-0.417969 4.2426405,4.5961943 0 0 1 -1.04687,-0.566406 4.2426405,4.5961943 0 0 0 -0.87305,-0.867188 4.2426405,4.5961943 0 0 1 -0.97656,-2.919922 4.2426405,4.5961943 0 0 1 0.13281,-1.121094 z m 9.375,8.654297 a 4.2426405,4.5961943 0 0 1 0.0391,0.597657 4.2426405,4.5961943 0 0 1 -0.0195,0.421875 4.2426405,4.5961943 0 0 0 -0.99804,0.335937 4.2426405,4.5961943 0 0 0 -0.40039,-0.822266 4.2426405,4.5961943 0 0 0 1.3789,-0.533203 z m -6.42773,9.560547 a 4.2426405,4.5961943 0 0 0 3.29883,2.992188 4.2426405,4.5961943 0 0 1 -0.72071,0.06641 4.2426405,4.5961943 0 0 1 -3.91406,-2.830078 4.2426405,4.5961943 0 0 0 0.0234,0.002 4.2426405,4.5961943 0 0 0 1.3125,-0.230469 z m -7.1836,13.332032 a 4.2426405,4.5961943 0 0 0 3.04297,1.394531 4.2426405,4.5961943 0 0 0 1.72657,-0.404297 4.2426405,4.5961943 0 0 0 0.58789,1.111328 4.2426405,4.5961943 0 0 1 -1.60743,0.353516 4.2426405,4.5961943 0 0 1 -3.75,-2.455078 z m 5.52344,2.310546 a 4.2426405,4.5961943 0 0 0 1.03516,0.919922 4.2426405,4.5961943 0 0 0 -0.91797,0.296875 4.2426405,4.5961943 0 0 1 -0.12305,-1.072265 4.2426405,4.5961943 0 0 1 0.006,-0.144532 z m 10.19727,5.267578 a 4.2426405,4.5961943 0 0 1 0.40429,1.947266 4.2426405,4.5961943 0 0 1 -0.006,0.111328 4.2426405,4.5961943 0 0 0 -1.18554,-0.814453 4.2426405,4.5961943 0 0 0 0.78711,-1.244141 z m -6.51367,4.277348 a 4.2426405,4.5961943 0 0 0 -0.14844,1.08984 4.2426405,4.5961943 0 0 1 -0.62696,-0.76367 4.2426405,4.5961943 0 0 0 0.7754,-0.32617 z m -0.0332,2.26953 a 4.2426405,4.5961943 0 0 0 0.78125,1.76758 4.2426405,4.5961943 0 0 0 -0.90039,2.82421 4.2426405,4.5961943 0 0 0 0.90625,2.83985 4.2426405,4.5961943 0 0 0 -1.74023,2.42578 4.2426405,4.5961943 0 0 0 -0.10157,0.0488 4.2426405,4.5961943 0 0 1 -0.12695,-1.07032 4.2426405,4.5961943 0 0 1 0.61914,-2.38085 4.2426405,4.5961943 0 0 1 -0.97265,-2.92383 4.2426405,4.5961943 0 0 1 1.53515,-3.53125 z m 7.1836,7.76758 a 4.2426405,4.5961943 0 0 1 0.12109,1.06835 4.2426405,4.5961943 0 0 1 -0.16016,1.22461 4.2426405,4.5961943 0 0 0 -0.74804,-1.58984 4.2426405,4.5961943 0 0 0 0.78711,-0.70312 z m -1.31446,8.59179 a 4.2426405,4.5961943 0 0 1 -4.2207,4.14258 4.2426405,4.5961943 0 0 1 -3.99023,-3.04492 4.2426405,4.5961943 0 0 0 2.92968,1.27734 4.2426405,4.5961943 0 0 0 1.63282,-0.35937 4.2426405,4.5961943 0 0 0 0.13476,0.006 4.2426405,4.5961943 0 0 0 3.51367,-2.02149 z M 220.75,123.59375 a 4.2426405,4.5961943 0 0 0 -0.0254,0.0586 4.2426405,4.5961943 0 0 0 -0.0273,0.004 4.2426405,4.5961943 0 0 1 0.0527,-0.0625 z m 6.80273,5.32031 a 4.2426405,4.5961943 0 0 1 -3.125,2.41016 4.2426405,4.5961943 0 0 0 0.67969,-1.0586 4.2426405,4.5961943 0 0 0 2.44531,-1.35156 z m -1.41601,3.85156 a 4.2426405,4.5961943 0 0 0 -0.16211,0.7461 4.2426405,4.5961943 0 0 0 -0.29688,0.0391 4.2426405,4.5961943 0 0 1 0.45899,-0.78516 z m 7.34375,4.29883 a 4.2426405,4.5961943 0 0 1 -1.45703,2.21094 4.2426405,4.5961943 0 0 0 -1.56446,-0.45703 4.2426405,4.5961943 0 0 0 0.004,-0.0312 4.2426405,4.5961943 0 0 0 3.01758,-1.72266 z m -9.38672,4.9668 a 4.2426405,4.5961943 0 0 0 1.88281,0.64453 4.2426405,4.5961943 0 0 0 -0.0566,0.72266 4.2426405,4.5961943 0 0 0 4.24414,4.59765 4.2426405,4.5961943 0 0 0 2.92383,-1.26953 4.2426405,4.5961943 0 0 1 -3.98437,3.03711 4.2426405,4.5961943 0 0 1 -2.45899,-0.85351 4.2426405,4.5961943 0 0 1 -3.19922,-4.45118 4.2426405,4.5961943 0 0 1 0.64844,-2.42773 z m 6.53125,32.34375 -11.25,5.625 0,1.68555 a 6.75,7 0 0 0 -3,-0.73828 6.75,7 0 0 0 -6.13867,4.10742 6.75,7 0 0 0 -1.64063,-0.21875 6.75,7 0 0 0 -0.81836,0.0605 6.75,7 0 0 0 -5.1914,-2.53515 6.75,7 0 0 0 -6.72071,6.40234 6.75,7 0 0 0 -0.70312,-0.0391 6.75,7 0 0 0 -6.75,7 6.75,7 0 0 0 6.75,7 6.75,7 0 0 0 1.71289,-0.23242 l 0,0.008 3.67969,0 a 6.75,7 0 0 0 5.5664,3.05273 6.75,7 0 0 0 2.11914,-0.36132 6.75,7 0 0 0 3.67383,2.8789 6.75,7 0 0 0 -3.34961,6.03907 6.75,7 0 0 0 0.12696,1.32617 l -6.10157,2.0332 a 6.75,7 0 0 0 -6.36718,-4.70117 6.75,7 0 0 0 -3.85938,1.26562 6.75,7 0 0 0 -6.74805,-6.92382 6.75,7 0 0 0 -6.64648,5.8164 6.75,7 0 0 0 -3.25195,-0.86523 6.75,7 0 0 0 -6.75,7 6.75,7 0 0 0 5.76562,6.91601 6.75,7 0 0 0 -0.8164,3.33594 6.75,7 0 0 0 6.08398,6.96484 l 0,5.59766 -2.41406,4.83008 A 6.75,7 0 0 0 174.65625,246 a 6.75,7 0 0 0 -6.75,7 6.75,7 0 0 0 0.0195,0.53711 l -1.50195,0.75195 a 6.75,7 0 0 0 -6.26367,-4.39844 6.75,7 0 0 0 -6.75,7 6.75,7 0 0 0 6.75,7 6.75,7 0 0 0 2.11718,-0.36328 l 5.8125,5.8125 a 6.75,7 0 0 0 -1.59961,4.52149 6.75,7 0 0 0 6.15039,6.96875 l -0.0605,0.18359 a 6.75,7 0 0 0 -6.44336,6.98828 6.75,7 0 0 0 2.08203,5.04297 6.75,7 0 0 0 -6.27539,6.16797 l -1.86524,-1.24414 a 6.75,7 0 0 0 0.4668,-2.54102 6.75,7 0 0 0 -6.75,-7 6.75,7 0 0 0 -5.83984,3.5 6.75,7 0 0 0 -6.17969,-4.20703 6.75,7 0 0 0 -6.75,7 6.75,7 0 0 0 1.19727,3.96485 6.75,7 0 0 0 -0.10547,-0.006 6.75,7 0 0 0 -6.75,7 6.75,7 0 0 0 0.69531,3.08398 6.75,7 0 0 0 -1.75586,4.69531 6.75,7 0 0 0 2.8418,5.69922 l -1.77344,7.0918 0,22.5 129.375,0 0,-174.375 -22.5,0 -5.625,0 z m -4.85156,16.75977 a 4.2426405,4.5961943 0 0 0 -0.14453,0.65625 4.2426405,4.5961943 0 0 0 -0.93946,-0.45899 4.2426405,4.5961943 0 0 1 1.08399,-0.19726 z m -5.15625,1.05468 a 4.2426405,4.5961943 0 0 1 0.11719,0.006 4.2426405,4.5961943 0 0 0 -0.22266,0.22071 4.2426405,4.5961943 0 0 0 -0.61524,-0.16016 4.2426405,4.5961943 0 0 1 0.72071,-0.0664 z m 12.06836,3.71875 a 4.2426405,4.5961943 0 0 0 -0.28321,0.88086 4.2426405,4.5961943 0 0 0 -0.11718,-0.004 4.2426405,4.5961943 0 0 0 -3.82227,2.61132 4.2426405,4.5961943 0 0 1 -0.49414,0.34571 4.2426405,4.5961943 0 0 0 0.0723,-0.83594 4.2426405,4.5961943 0 0 0 -0.47461,-2.10937 4.2426405,4.5961943 0 0 0 0.0605,-0.32032 4.2426405,4.5961943 0 0 0 2.1836,0.66211 4.2426405,4.5961943 0 0 0 2.875,-1.23047 z m -12.5293,5.34961 a 4.2426405,4.5961943 0 0 0 0.0566,0.10352 4.2426405,4.5961943 0 0 1 -0.28906,-0.0469 4.2426405,4.5961943 0 0 0 0.23242,-0.0566 z m 8.00781,1.19531 a 4.2426405,4.5961943 0 0 0 1.55274,2.58008 4.2426405,4.5961943 0 0 0 -1.14649,0.89649 4.2426405,4.5961943 0 0 0 -2.65039,-1.01172 4.2426405,4.5961943 0 0 0 -1.40039,0.26367 4.2426405,4.5961943 0 0 1 3.64453,-2.72852 z m -5.35937,10.17383 a 4.2426405,4.5961943 0 0 0 1.72265,1.22266 4.2426405,4.5961943 0 0 0 1.95704,3.4375 4.2426405,4.5961943 0 0 0 -0.21094,1.41992 4.2426405,4.5961943 0 0 0 0.42383,1.99024 4.2426405,4.5961943 0 0 0 -1.85352,2.24609 4.2426405,4.5961943 0 0 0 0.0156,-0.34766 4.2426405,4.5961943 0 0 0 -1.72071,-3.6914 4.2426405,4.5961943 0 0 1 1.34961,-1.78907 4.2426405,4.5961943 0 0 1 -1.75,-3.71289 4.2426405,4.5961943 0 0 1 0.0664,-0.77539 z M 216.375,224.7168 a 4.2426405,4.5961943 0 0 1 0.5,0.0371 4.2426405,4.5961943 0 0 0 0.30664,0.52929 4.2426405,4.5961943 0 0 0 -0.37695,0.25 4.2426405,4.5961943 0 0 0 -1.84375,-0.46289 4.2426405,4.5961943 0 0 0 -0.22071,0.008 4.2426405,4.5961943 0 0 1 1.63477,-0.36132 z m -25.45312,3.60156 a 4.2426405,4.5961943 0 0 0 3.5332,2.05469 4.2426405,4.5961943 0 0 0 0.76562,-0.0781 4.2426405,4.5961943 0 0 0 0.38868,0.41211 4.2426405,4.5961943 0 0 0 0.33789,0.27735 4.2426405,4.5961943 0 0 0 1.55273,0.71093 4.2426405,4.5961943 0 0 0 0.10742,0.0176 4.2426405,4.5961943 0 0 0 -0.80859,0.42383 4.2426405,4.5961943 0 0 1 -1.1543,-1.15234 4.2426405,4.5961943 0 0 1 -0.83594,0.0957 4.2426405,4.5961943 0 0 1 -3.88671,-2.76172 z m 9.12695,3.07422 a 4.2426405,4.5961943 0 0 0 0.13476,0.21289 4.2426405,4.5961943 0 0 0 -0.39648,-0.0977 4.2426405,4.5961943 0 0 0 0.26172,-0.11523 z m 4.66015,2.01367 a 4.2426405,4.5961943 0 0 0 0.73243,0.70898 4.2426405,4.5961943 0 0 0 -0.0273,0.5 4.2426405,4.5961943 0 0 0 0.42188,1.98633 4.2426405,4.5961943 0 0 1 -0.78321,-0.29101 4.2426405,4.5961943 0 0 1 0.71485,2.54883 4.2426405,4.5961943 0 0 1 -4.20313,4.59374 4.2426405,4.5961943 0 0 0 -3.57422,-2.11914 4.2426405,4.5961943 0 0 0 -0.0391,0.002 4.2426405,4.5961943 0 0 1 -0.1914,-0.36133 4.2426405,4.5961943 0 0 0 1.64453,0.35937 4.2426405,4.5961943 0 0 0 4.24218,-4.59765 4.2426405,4.5961943 0 0 0 -0.4746,-2.10938 4.2426405,4.5961943 0 0 1 0.1289,0.0625 4.2426405,4.5961943 0 0 1 -0.53711,-1.23828 4.2426405,4.5961943 0 0 0 0.88281,0.10352 4.2426405,4.5961943 0 0 0 1.0625,-0.14844 z m 31.42774,0.64844 a 4.2426405,4.5961943 0 0 1 0.0371,0.56054 4.2426405,4.5961943 0 0 1 -0.0566,0.70899 4.2426405,4.5961943 0 0 0 -0.88281,0.11914 4.2426405,4.5961943 0 0 0 0.90234,-1.38867 z m -19.95703,0.01 a 4.2426405,4.5961943 0 0 0 0.89453,1.80664 4.2426405,4.5961943 0 0 1 -2.4668,0.86524 4.2426405,4.5961943 0 0 1 -1.11523,-0.16797 4.2426405,4.5961943 0 0 0 0.4082,-1.95313 4.2426405,4.5961943 0 0 0 -0.0332,-0.51367 4.2426405,4.5961943 0 0 0 1.09375,0.16016 4.2426405,4.5961943 0 0 0 1.21875,-0.19727 z m 12.50781,6.78125 a 4.2426405,4.5961943 0 0 1 -0.002,0.002 4.2426405,4.5961943 0 0 1 -0.002,0.002 4.2426405,4.5961943 0 0 0 -0.004,-0.002 4.2426405,4.5961943 0 0 0 0.008,-0.002 z m -34.9375,1.81641 a 4.2426405,4.5961943 0 0 0 -2.125,3.97461 4.2426405,4.5961943 0 0 0 2.0625,3.93555 4.2426405,4.5961943 0 0 0 -0.29102,0.59179 4.2426405,4.5961943 0 0 1 -2.47851,-4.17383 4.2426405,4.5961943 0 0 1 2.83203,-4.32812 z m 39.44141,5.5293 a 4.2426405,4.5961943 0 0 0 0.13671,0.24609 4.2426405,4.5961943 0 0 1 -1.52929,3.1582 4.2426405,4.5961943 0 0 0 0.48633,-2.13086 4.2426405,4.5961943 0 0 0 -0.1211,-1.07031 4.2426405,4.5961943 0 0 0 1.02735,-0.20312 z m -199.603519,1.69921 a 6.75,7 0 0 0 -5.855469,3.52735 6.75,7 0 0 0 -4.044922,-1.40625 6.75,7 0 0 0 -6.736328,6.73828 l -5.701172,0 -22.5,0 0,90 129.375,0 0,-22.5 0,-8.08789 a 6.75,7 0 0 0 1.76172,-4.70313 6.75,7 0 0 0 -6.75,-7 6.75,7 0 0 0 -0.63672,0.0371 l 0,-1.0664 a 6.75,7 0 0 0 5.26562,-6.82031 6.75,7 0 0 0 -6.75,-7 6.75,7 0 0 0 -0.64062,0.0391 6.75,7 0 0 0 2.08789,-5.06055 6.75,7 0 0 0 -1.20117,-3.9707 6.75,7 0 0 0 1.9082,-4.86719 6.75,7 0 0 0 -2.99023,-5.81055 6.75,7 0 0 0 0.51562,-2.67578 6.75,7 0 0 0 -6.75,-7 6.75,7 0 0 0 -4.318357,1.62891 6.75,7 0 0 0 -6.289062,-4.45703 6.75,7 0 0 0 -6.75,7 A 6.75,7 0 0 0 87.537109,270 l -3.162109,0 -3.101562,-1.0332 a 6.75,7 0 0 0 -6.673829,-5.9961 6.75,7 0 0 0 -4.857421,2.15235 L 67.5,264.375 l -3.894531,0 a 6.75,7 0 0 0 -5.714844,-4.55469 6.75,7 0 0 0 -6.625,-5.6875 6.75,7 0 0 0 -1.832031,0.26172 6.75,7 0 0 0 -5.59375,-3.08984 6.75,7 0 0 0 -4.550782,1.84179 6.75,7 0 0 0 -5.701171,-3.25586 z m 192.832029,3.8125 a 4.2426405,4.5961943 0 0 0 1.6211,0.35743 4.2426405,4.5961943 0 0 0 1.58007,-0.33008 4.2426405,4.5961943 0 0 1 1.95703,3.86719 4.2426405,4.5961943 0 0 1 -0.25585,1.55664 4.2426405,4.5961943 0 0 0 -0.54883,1.1289 4.2426405,4.5961943 0 0 1 -1.33985,1.30078 4.2426405,4.5961943 0 0 0 0.73047,-2.57226 4.2426405,4.5961943 0 0 0 -4.02539,-4.58594 4.2426405,4.5961943 0 0 0 0.28125,-0.72266 z m -45.04687,1.43555 a 4.2426405,4.5961943 0 0 0 1.4375,3.42383 4.2426405,4.5961943 0 0 0 -0.73047,2.57031 4.2426405,4.5961943 0 0 0 0.98633,2.93946 4.2426405,4.5961943 0 0 1 -1.33985,0.24218 4.2426405,4.5961943 0 0 1 -4.24218,-4.5957 4.2426405,4.5961943 0 0 1 3.88867,-4.58008 z m 39.36328,1.39063 a 4.2426405,4.5961943 0 0 0 1.42969,0.34961 4.2426405,4.5961943 0 0 0 -0.46485,1.65625 4.2426405,4.5961943 0 0 1 -0.96484,-2.00586 z m -24.76367,0.83984 a 4.2426405,4.5961943 0 0 0 1.31054,0.22852 4.2426405,4.5961943 0 0 0 0.69336,-0.0645 4.2426405,4.5961943 0 0 1 -2.6289,3.96289 4.2426405,4.5961943 0 0 0 -0.18555,-0.01 4.2426405,4.5961943 0 0 0 -1.60156,0.34375 4.2426405,4.5961943 0 0 1 -2.32227,-0.88672 4.2426405,4.5961943 0 0 1 0.0332,0.54297 4.2426405,4.5961943 0 0 1 -4.24218,4.5957 4.2426405,4.5961943 0 0 1 -2.11914,-0.62109 4.2426405,4.5961943 0 0 0 1.41211,0.26758 4.2426405,4.5961943 0 0 0 4.24218,-4.59571 4.2426405,4.5961943 0 0 0 -0.11133,-1.01953 4.2426405,4.5961943 0 0 0 1.52735,0.3125 4.2426405,4.5961943 0 0 0 3.99219,-3.05664 z m -171.089848,3.75391 a 4.2426405,4.5961943 0 0 0 -0.349609,0.99023 4.2426405,4.5961943 0 0 0 -0.314453,-0.24414 4.2426405,4.5961943 0 0 1 0.664062,-0.74609 z m 205.728518,1.6582 a 4.2426405,4.5961943 0 0 0 1.125,2.2793 4.2426405,4.5961943 0 0 0 -1.92578,3.84961 4.2426405,4.5961943 0 0 0 0.72656,2.56836 4.2426405,4.5961943 0 0 1 -2.84961,-4.33594 4.2426405,4.5961943 0 0 1 2.92383,-4.36133 z m -184.646486,2.86133 a 4.2426405,4.5961943 0 0 0 -2.052735,3.15625 4.2426405,4.5961943 0 0 0 -0.705078,0.33398 4.2426405,4.5961943 0 0 1 2.757813,-3.49023 z m -14.632813,1.15625 a 4.2426405,4.5961943 0 0 1 -3.753906,2.46484 4.2426405,4.5961943 0 0 1 -0.847656,-0.0937 4.2426405,4.5961943 0 0 1 0.138672,1.1543 4.2426405,4.5961943 0 0 1 -1.796875,3.75 4.2426405,4.5961943 0 0 0 -2.673828,-3.78516 4.2426405,4.5961943 0 0 0 3.626953,-3.41992 4.2426405,4.5961943 0 0 0 2.613281,0.98047 4.2426405,4.5961943 0 0 0 2.693359,-1.05078 z m -12.660156,1.8789 a 4.2426405,4.5961943 0 0 0 1.707031,1.32813 4.2426405,4.5961943 0 0 0 -1.964844,0.8125 4.2426405,4.5961943 0 0 1 -0.0293,-0.49414 4.2426405,4.5961943 0 0 1 0.287109,-1.64649 z m 178.113285,1.64649 a 4.2426405,4.5961943 0 0 0 -0.0957,0.38476 4.2426405,4.5961943 0 0 0 -0.46679,-0.0312 4.2426405,4.5961943 0 0 0 -1.30469,0.22852 4.2426405,4.5961943 0 0 1 -0.16016,-0.24805 4.2426405,4.5961943 0 0 0 0.4043,0.0195 4.2426405,4.5961943 0 0 0 1.62305,-0.35351 z m -137.312504,2.69531 a 4.2426405,4.5961943 0 0 0 -0.06055,0.48633 4.2426405,4.5961943 0 0 0 -0.01563,0 4.2426405,4.5961943 0 0 0 -0.646484,0.0586 4.2426405,4.5961943 0 0 1 0.722656,-0.54492 z M 49.5,273.94531 a 4.2426405,4.5961943 0 0 1 -0.07813,0.0488 4.2426405,4.5961943 0 0 0 0.0039,-0.0215 4.2426405,4.5961943 0 0 0 0.07422,-0.0274 z m 31.462891,1.6836 a 4.2426405,4.5961943 0 0 1 3.347656,1.77539 4.2426405,4.5961943 0 0 1 0.189453,-0.008 4.2426405,4.5961943 0 0 1 2.740234,1.08985 4.2426405,4.5961943 0 0 0 -2.603515,1.37109 4.2426405,4.5961943 0 0 0 -4.027344,-3.16797 4.2426405,4.5961943 0 0 0 -3.783203,2.52735 4.2426405,4.5961943 0 0 1 4.136719,-3.58789 z m 151.322269,1.06054 a 4.2426405,4.5961943 0 0 1 0.88867,0.10352 4.2426405,4.5961943 0 0 0 -3.36328,4.49219 4.2426405,4.5961943 0 0 0 0.002,0.0644 4.2426405,4.5961943 0 0 0 -1.69922,0.75 4.2426405,4.5961943 0 0 1 -0.0723,-0.81445 4.2426405,4.5961943 0 0 1 4.24414,-4.59571 z M 65.6875,277.88086 a 4.2426405,4.5961943 0 0 1 -3.525391,3.70117 4.2426405,4.5961943 0 0 0 1.460938,-3.125 4.2426405,4.5961943 0 0 0 0.01563,0 4.2426405,4.5961943 0 0 0 2.048828,-0.57617 z m 133.82422,0.29297 a 4.2426405,4.5961943 0 0 0 -0.10742,0.99023 4.2426405,4.5961943 0 0 0 2.60156,4.23633 4.2426405,4.5961943 0 0 1 -0.12695,0.006 4.2426405,4.5961943 0 0 1 -2.73243,-1.08008 4.2426405,4.5961943 0 0 1 -2.26171,-2.51367 4.2426405,4.5961943 0 0 0 2.62695,-1.63867 z m -161.398439,3.36328 a 6.75,7 0 0 0 3.605469,1.0918 6.75,7 0 0 0 0.166016,-0.006 6.75,7 0 0 0 6.199218,4.24804 6.75,7 0 0 0 2.160157,-0.3789 6.75,7 0 0 1 0.835937,1.17383 6.75,7 0 0 1 0.205078,-0.19336 6.75,7 0 0 0 4.929688,2.22656 6.75,7 0 0 0 2.5625,-0.53125 6.75,7 0 0 0 -2.242188,5.19922 6.75,7 0 0 0 1.796875,4.74414 6.75,7 0 0 1 -1.828125,0.44922 6.75,7 0 0 0 -6.652344,-5.83008 6.75,7 0 0 0 -6.015624,3.8418 6.75,7 0 0 0 0.03711,-0.73047 6.75,7 0 0 0 -6.75,-7 6.75,7 0 0 0 -3.755859,1.1914 6.75,7 0 0 1 -0.519532,-2.67773 6.75,7 0 0 1 0.234375,-1.79688 6.75,7 0 0 0 4.544922,-4.89062 6.75,7 0 0 1 0.486328,-0.13086 z m 173.781249,1.14062 a 4.2426405,4.5961943 0 0 0 3.77344,2.4961 4.2426405,4.5961943 0 0 0 2.11914,-0.6211 4.2426405,4.5961943 0 0 0 1.08984,0.47657 4.2426405,4.5961943 0 0 1 -2.85547,1.20508 4.2426405,4.5961943 0 0 1 -4.12695,-3.55665 z m -194.890624,1.25 a 4.2426405,4.5961943 0 0 0 4.208985,4.07422 4.2426405,4.5961943 0 0 0 4.210937,-4.05078 4.2426405,4.5961943 0 0 1 0.03125,0.51563 4.2426405,4.5961943 0 0 1 -4.242187,4.5957 4.2426405,4.5961943 0 0 1 -4.242188,-4.5957 4.2426405,4.5961943 0 0 1 0.0332,-0.53907 z m 219.513674,1.08985 a 4.2426405,4.5961943 0 0 1 -2.59375,4.03711 4.2426405,4.5961943 0 0 0 -0.0371,-0.0391 4.2426405,4.5961943 0 0 0 0.87305,-2.78124 4.2426405,4.5961943 0 0 0 -0.008,-0.19922 4.2426405,4.5961943 0 0 0 0.008,-0.1543 4.2426405,4.5961943 0 0 0 -0.002,-0.0644 4.2426405,4.5961943 0 0 0 1.75977,-0.79883 z m -175.722658,2.81445 a 6.75,7 0 0 1 0.01953,0.0215 6.75,7 0 0 0 -0.08984,0.041 6.75,7 0 0 0 0.07031,-0.0625 z m 28.996094,0.52344 a 4.2426405,4.5961943 0 0 1 0.01172,0 4.2426405,4.5961943 0 0 1 4.242188,4.59765 4.2426405,4.5961943 0 0 1 -0.05469,0.68946 4.2426405,4.5961943 0 0 0 -4.1875,-3.87305 4.2426405,4.5961943 0 0 0 -4.242187,4.59766 4.2426405,4.5961943 0 0 0 0.357422,1.83203 4.2426405,4.5961943 0 0 0 -2.333985,1.32617 4.2426405,4.5961943 0 0 0 -3.328125,-1.74414 4.2426405,4.5961943 0 0 0 -4.242187,4.5957 4.2426405,4.5961943 0 0 0 0.05469,0.71094 4.2426405,4.5961943 0 0 0 -0.05469,-0.004 4.2426405,4.5961943 0 0 0 -0.02148,0 4.2426405,4.5961943 0 0 1 -0.332032,-1.76757 4.2426405,4.5961943 0 0 1 4.242188,-4.59571 4.2426405,4.5961943 0 0 1 2.482422,0.87305 4.2426405,4.5961943 0 0 1 -0.0059,-0.16602 4.2426405,4.5961943 0 0 1 3.640625,-4.54492 4.2426405,4.5961943 0 0 1 0.08398,-0.16211 4.2426405,4.5961943 0 0 0 2.8125,-2.25976 4.2426405,4.5961943 0 0 1 0.875,-0.10547 z m 123.734374,6.10742 a 4.2426405,4.5961943 0 0 1 0.0469,0.0469 4.2426405,4.5961943 0 0 0 -0.0547,0.0117 4.2426405,4.5961943 0 0 0 0.008,-0.0586 z m -17.65625,2.37891 a 4.2426405,4.5961943 0 0 1 4.24219,4.5957 4.2426405,4.5961943 0 0 1 -0.084,0.87891 4.2426405,4.5961943 0 0 0 -1.09765,0.52539 4.2426405,4.5961943 0 0 0 -3.09961,-3.38477 4.2426405,4.5961943 0 0 0 -1.01953,-2.46289 4.2426405,4.5961943 0 0 1 1.05859,-0.15234 z m -12.63672,0.5664 a 4.2426405,4.5961943 0 0 0 0.94922,2.08594 4.2426405,4.5961943 0 0 0 -1.74805,3.71094 4.2426405,4.5961943 0 0 0 0.19922,1.3789 4.2426405,4.5961943 0 0 0 -1.02343,-0.83203 4.2426405,4.5961943 0 0 1 -0.58985,-2.31445 4.2426405,4.5961943 0 0 1 2.21289,-4.0293 z M 206.5,298.35938 a 4.2426405,4.5961943 0 0 0 1.39258,0.53515 4.2426405,4.5961943 0 0 0 -0.004,0.0684 4.2426405,4.5961943 0 0 0 1.17578,3.17383 4.2426405,4.5961943 0 0 1 -2.56445,-3.77734 z m 19.35742,3.0332 a 4.2426405,4.5961943 0 0 0 0.54492,0.75976 4.2426405,4.5961943 0 0 0 -0.1289,-0.008 4.2426405,4.5961943 0 0 0 -0.4375,0.0293 4.2426405,4.5961943 0 0 0 -0.49219,-0.38281 4.2426405,4.5961943 0 0 1 0.51367,-0.39844 z m -24.33203,0.75195 a 4.2426405,4.5961943 0 0 1 4.24219,4.5957 4.2426405,4.5961943 0 0 1 -4.04297,4.58985 4.2426405,4.5961943 0 0 0 -0.0723,-0.0274 4.2426405,4.5961943 0 0 0 3.76172,-4.5625 4.2426405,4.5961943 0 0 0 -4.10547,-4.58789 4.2426405,4.5961943 0 0 1 0.2168,-0.008 z m -106.066406,0.70703 a 4.2426405,4.5961943 0 0 1 2.740235,1.08985 4.2426405,4.5961943 0 0 0 -2.410157,1.17187 4.2426405,4.5961943 0 0 0 -2.451171,-0.84766 4.2426405,4.5961943 0 0 0 -1.0625,0.1504 4.2426405,4.5961943 0 0 1 3.183593,-1.56446 z m 136.181636,0.0449 a 4.2426405,4.5961943 0 0 1 0.64454,2.42969 4.2426405,4.5961943 0 0 1 -0.0645,0.75977 4.2426405,4.5961943 0 0 0 -2.00195,-1.03516 4.2426405,4.5961943 0 0 0 -0.89063,-1.5 4.2426405,4.5961943 0 0 0 0.12891,0.008 4.2426405,4.5961943 0 0 0 2.18359,-0.66211 z m -53.79101,0.72657 a 4.2426405,4.5961943 0 0 0 -2.48633,4.17773 4.2426405,4.5961943 0 0 0 2.48828,4.18164 4.2426405,4.5961943 0 0 0 0.63086,2.13867 4.2426405,4.5961943 0 0 0 -2.05859,3.9336 4.2426405,4.5961943 0 0 0 0.11133,1.02734 4.2426405,4.5961943 0 0 1 -0.46485,0.0332 4.2426405,4.5961943 0 0 1 -1.93359,-0.50976 4.2426405,4.5961943 0 0 1 -0.6211,1.39062 4.2426405,4.5961943 0 0 0 -3.45703,-1.9414 4.2426405,4.5961943 0 0 0 -3.46093,1.9414 4.2426405,4.5961943 0 0 1 -0.56446,-1.21875 4.2426405,4.5961943 0 0 0 0.49024,-2.13672 4.2426405,4.5961943 0 0 0 -4.24219,-4.5957 4.2426405,4.5961943 0 0 0 -3.125,1.49219 4.2426405,4.5961943 0 0 0 -0.0469,-0.008 4.2426405,4.5961943 0 0 1 -0.51954,-1.16797 4.2426405,4.5961943 0 0 0 0.50977,0.0371 4.2426405,4.5961943 0 0 0 4.24219,-4.59766 4.2426405,4.5961943 0 0 0 -0.20118,-1.37695 4.2426405,4.5961943 0 0 1 0.0313,0.004 4.2426405,4.5961943 0 0 1 0.52343,-0.041 4.2426405,4.5961943 0 0 1 0.70899,0.0703 4.2426405,4.5961943 0 0 1 1.74218,-0.42383 4.2426405,4.5961943 0 0 0 3.91211,2.82813 4.2426405,4.5961943 0 0 0 3.81836,-2.60547 4.2426405,4.5961943 0 0 1 0.63867,0.46875 4.2426405,4.5961943 0 0 1 3.33399,-3.10156 z m -105.654298,0.0684 a 4.2426405,4.5961943 0 0 0 -0.423828,1.98828 4.2426405,4.5961943 0 0 0 0.0078,0.26562 4.2426405,4.5961943 0 0 0 -2.716797,3.26758 4.2426405,4.5961943 0 0 1 -0.119141,-1.05859 4.2426405,4.5961943 0 0 1 3.251953,-4.46289 z m 13.115235,1.4082 a 4.2426405,4.5961943 0 0 0 1.310547,0.22656 4.2426405,4.5961943 0 0 0 1.009765,-0.13672 4.2426405,4.5961943 0 0 1 0.757813,2.61133 4.2426405,4.5961943 0 0 1 -0.728516,2.57031 4.2426405,4.5961943 0 0 0 -2.101562,-1.08789 4.2426405,4.5961943 0 0 0 0.355468,-1.83593 4.2426405,4.5961943 0 0 0 -0.603515,-2.34766 z m 57.865233,0.18945 a 4.2426405,4.5961943 0 0 0 -0.33984,1.80469 4.2426405,4.5961943 0 0 0 0.42187,1.99414 4.2426405,4.5961943 0 0 0 -0.49609,0.34766 4.2426405,4.5961943 0 0 1 -0.2793,-1.63477 4.2426405,4.5961943 0 0 1 0.69336,-2.51172 z M 32.097656,305.8965 a 4.2426405,4.5961943 0 0 1 2.197266,4.0254 4.2426405,4.5961943 0 0 1 -1.175781,3.16992 4.2426405,4.5961943 0 0 0 0.115234,-1.04688 4.2426405,4.5961943 0 0 0 -1.431641,-3.43554 4.2426405,4.5961943 0 0 0 0.371094,-1.86915 4.2426405,4.5961943 0 0 0 -0.07617,-0.84375 z m 151.546874,0.51563 a 4.2426405,4.5961943 0 0 0 0.99609,0.82031 4.2426405,4.5961943 0 0 0 -0.0781,0.73633 4.2426405,4.5961943 0 0 0 -0.72266,-0.45508 4.2426405,4.5961943 0 0 0 -0.19531,-1.10156 z m -138.744139,0.32812 a 4.2426405,4.5961943 0 0 1 4.193359,3.91407 4.2426405,4.5961943 0 0 1 0.404297,-0.0234 4.2426405,4.5961943 0 0 1 4.242187,4.5957 4.2426405,4.5961943 0 0 1 -0.0078,0.1543 4.2426405,4.5961943 0 0 0 -4.234375,-4.39648 4.2426405,4.5961943 0 0 0 -0.884766,0.10546 4.2426405,4.5961943 0 0 0 -4.066406,-3.28906 4.2426405,4.5961943 0 0 0 -3.78125,2.52539 4.2426405,4.5961943 0 0 1 4.134766,-3.58594 z m 106.113279,2.06055 a 4.2426405,4.5961943 0 0 0 0.66016,0.0606 4.2426405,4.5961943 0 0 0 0.23633,-0.008 4.2426405,4.5961943 0 0 1 -2.47852,3.17968 4.2426405,4.5961943 0 0 0 -0.30078,-0.92187 4.2426405,4.5961943 0 0 0 1.88281,-2.31055 z m 72.51758,1.44531 a 4.2426405,4.5961943 0 0 0 1.98047,1.01368 4.2426405,4.5961943 0 0 0 0.1582,0.3789 4.2426405,4.5961943 0 0 1 -2.29297,-1.19336 4.2426405,4.5961943 0 0 0 0.11719,-0.19336 4.2426405,4.5961943 0 0 0 0.0371,-0.006 z m -144.796875,0.51368 a 4.2426405,4.5961943 0 0 0 2.230469,1.21484 4.2426405,4.5961943 0 0 0 -0.355469,1.83789 4.2426405,4.5961943 0 0 0 1.978516,3.88086 4.2426405,4.5961943 0 0 1 -0.208985,0.008 4.2426405,4.5961943 0 0 1 -4.24414,-4.5957 4.2426405,4.5961943 0 0 1 0.599609,-2.3457 z m -41.103516,4.1582 a 4.2426405,4.5961943 0 0 0 -1.300781,1.46094 4.2426405,4.5961943 0 0 0 -0.824219,-0.47071 4.2426405,4.5961943 0 0 1 2.125,-0.99023 z m 158.269531,1.1875 a 4.2426405,4.5961943 0 0 0 3.60547,4.01953 4.2426405,4.5961943 0 0 0 0.72266,1.10547 4.2426405,4.5961943 0 0 1 -0.11719,0.006 4.2426405,4.5961943 0 0 1 -4.24219,-4.59571 4.2426405,4.5961943 0 0 1 0.0312,-0.53515 z m 16.2207,1.32226 a 4.2426405,4.5961943 0 0 0 0.70899,0.35547 4.2426405,4.5961943 0 0 1 -3.88086,2.7461 4.2426405,4.5961943 0 0 1 -1.8457,-0.4668 4.2426405,4.5961943 0 0 0 0.27734,-0.79492 4.2426405,4.5961943 0 0 0 1.21484,0.20117 4.2426405,4.5961943 0 0 0 3.52539,-2.04102 z m -68.18359,0.0215 a 4.2426405,4.5961943 0 0 0 1.37305,0.25195 4.2426405,4.5961943 0 0 0 0.37109,-0.0215 4.2426405,4.5961943 0 0 0 -0.0176,0.375 4.2426405,4.5961943 0 0 0 3.34961,4.49023 4.2426405,4.5961943 0 0 1 -0.875,0.10547 4.2426405,4.5961943 0 0 1 -4.24219,-4.5957 4.2426405,4.5961943 0 0 1 0.041,-0.60547 z m 10.24609,0.043 a 4.2426405,4.5961943 0 0 0 -0.0352,0.5625 4.2426405,4.5961943 0 0 0 0.20703,1.39258 4.2426405,4.5961943 0 0 0 -0.49024,0.24804 4.2426405,4.5961943 0 0 0 0.28321,-1.64062 4.2426405,4.5961943 0 0 0 -0.0352,-0.54492 4.2426405,4.5961943 0 0 1 0.0703,-0.0176 z m -2.22461,4.58008 a 4.2426405,4.5961943 0 0 0 -0.28515,1.63867 4.2426405,4.5961943 0 0 0 0.0859,0.89648 4.2426405,4.5961943 0 0 1 -0.75782,-2.11523 4.2426405,4.5961943 0 0 0 0.95703,-0.41992 z M 37.5625,322.55859 a 4.2426405,4.5961943 0 0 0 2.388672,0.79883 4.2426405,4.5961943 0 0 0 0.552734,-0.0449 4.2426405,4.5961943 0 0 1 -2.320312,0.75195 4.2426405,4.5961943 0 0 1 -1.564453,-0.32812 4.2426405,4.5961943 0 0 0 0.943359,-1.17774 z"
       inkscape:connector-curvature="0" />
  </g>
  <g
     inkscape:groupmode="layer"
     id="routes_layer"
     inkscape:label="Routes"
     style="display:inline"
     sodipodi:insensitive="true">
    <path
       style="display:inline;fill:none;stroke:#000000;stroke-width:2;stroke-linecap:round;stroke-miterlimit:4;stroke-dasharray:0.1, 5;stroke-dashoffset:0;stroke-opacity:1"
       d="M 85.601042,135.2931 C 60.225333,116.27925 25.667262,118.125 16.875,118.125 L 0,118.125 M 163.125,0 l 0,11.25 c 0,3.75 -1.64508,10.050158 -1.76777,13.194544 -0.92984,23.831377 1.13855,45.196975 7.4919,58.684878 9.27064,19.681168 -2.48006,40.345148 10.58348,62.029848 8.02567,13.32213 39.18653,23.59073 51.19239,23.59073 l 16.875,0 m -57.16192,-13.3811 c -11.05193,3.25 -17.14578,22.18549 -18.26649,27.90559 -3.4105,17.40722 -18.02841,8.28967 -22.79036,24.35492 -3.77759,12.74436 -23.02544,5.64881 -28.62984,43.54648 -1.0394,7.02854 3.09861,54.95342 3.09861,75.07411 l 0,11.25"
       inkscape:connector-curvature="0"
       id="path220" />
  </g>
  <g
     inkscape:groupmode="layer"
     id="labels_layer"
     inkscape:label="Labels"
     style="display:inline"
     sodipodi:insensitive="true">
    <text
       xml:space="preserve"
       id="text223"><textPath
         xlink:href="#scurvy_dog_bay"
         id="textPath225"><tspan
   style="-inkscape-font-specification:'CCTreasureTroveAged Mod, Normal';font-family:'CCTreasureTroveAged Mod';font-weight:normal;font-style:normal;font-stretch:normal;font-variant:normal;font-size:8.75px;text-anchor:start;text-align:start;writing-mode:lr;line-height:125%"
   id="tspan227">Scurvy Dog Bay</tspan></textPath></text>
  </g>
  <g
     inkscape:groupmode="layer"
     id="labels_guide_layer"
     inkscape:label="Labels Guide"
     style="display:none">
    <path
       id="scurvy_dog_bay"
       style="color:#000000;fill:none;stroke:#000000;stroke-width:1;stroke-opacity:1"
       d="m 130.81081,127.82614 c 7.26346,26.94848 -11.13362,63.23643 -28.65875,70.94354"
       inkscape:connector-curvature="0"
       sodipodi:nodetypes="cc" />
  </g>
  <g
     inkscape:groupmode="layer"
     id="resources_layer"
     inkscape:label="Resources"
     style="display:inline">
    <g
       id="resource-fish"
       transform="matrix(0.8920763,0.4518848,-0.4518848,0.8920763,38.16267,233.88989)">
      <path
         style="color:#000000;clip-rule:nonzero;display:inline;overflow:visible;visibility:visible;opacity:1;isolation:auto;mix-blend-mode:normal;color-interpolation:sRGB;color-interpolation-filters:linearRGB;solid-color:#000000;solid-opacity:1;fill:url(#gradientFish);fill-opacity:1;fill-rule:evenodd;stroke:none;stroke-width:0.89999998;stroke-linecap:round;stroke-linejoin:miter;stroke-miterlimit:4;stroke-dasharray:none;stroke-dashoffset:0;stroke-opacity:1;color-rendering:auto;image-rendering:auto;shape-rendering:auto;text-rendering:auto;enable-background:accumulate"
         d="m 6.75164,-116.27687 c 2.99065,0.60485 4.49367,1.24794 5.89266,2.66121 2.45016,2.47513 3.25045,6.5505 3.25045,6.5505 l -3.54035,0.49898 2.97008,0.83162 c -1.40188,1.23555 -2.8637,2.14124 -4.39572,2.68497 -2.28163,0.80975 -5.89735,1.19916 -8.27072,0.72096 -2.52003,-0.50774 -4.93787,-1.71891 -6.65678,-2.93199 -1.70292,-1.2018 -2.32599,-2.77049 -4.34245,-2.71421 -2.02435,0.0566 -3.06024,1.36024 -6.2744,2.54392 0.98841,-2.25668 1.48644,-4.44986 1.47742,-4.77248 -0.0131,-0.47021 -0.60937,-2.94625 -1.71029,-5.74037 4.56815,1.9526 4.13574,3.93892 6.7876,4.01568 1.65013,0.0477 2.8784,-2.27892 4.84548,-3.01143 0,0 0.0925,-0.76339 -0.85797,-2.09399 2.125,-1.125 5.3749,-2.84347 9.18238,-2.11673 0.63846,0.67205 1.20575,1.59646 1.64258,2.87336 z"
         inkscape:connector-curvature="0"
         id="path233" />
      <path
         style="color:#000000;font-style:normal;font-variant:normal;font-weight:normal;font-stretch:normal;font-size:medium;line-height:normal;font-family:sans-serif;text-indent:0;text-align:start;text-decoration:none;text-decoration-line:none;text-decoration-style:solid;text-decoration-color:#000000;letter-spacing:normal;word-spacing:normal;text-transform:none;direction:ltr;block-progression:tb;writing-mode:lr-tb;baseline-shift:baseline;text-anchor:start;white-space:normal;clip-rule:nonzero;display:inline;overflow:visible;visibility:visible;opacity:1;isolation:auto;mix-blend-mode:normal;color-interpolation:sRGB;color-interpolation-filters:linearRGB;solid-color:#000000;solid-opacity:1;fill:#000000;fill-opacity:1;fill-rule:evenodd;stroke:none;stroke-width:0.89999998;stroke-linecap:round;stroke-linejoin:miter;stroke-miterlimit:4;stroke-dasharray:none;stroke-dashoffset:0;stroke-opacity:1;color-rendering:auto;image-rendering:auto;shape-rendering:auto;text-rendering:auto;enable-background:accumulate"
         d="m 3.75195,-119.76758 c -0.55834,-0.0162 -1.08956,0.007 -1.41992,0.0332 -3.44102,0.26924 -4.79186,1.37793 -7.48633,2.26368 0.80029,0.66264 1.38172,1.65445 1.58985,2.40625 -0.74252,0.46927 -1.56885,1.06749 -2.34375,1.66992 -0.78694,0.61179 -1.52805,1.08797 -2.13868,1.07031 -1.213,-0.0351 -1.55439,-0.52183 -2.3789,-1.23633 -1.98577,-1.72081 -3.07464,-2.29632 -5.23438,-3.2207 0.86297,2.18173 2.04317,4.50407 2.07227,6.58984 0.0263,1.88626 -1.13742,3.87948 -1.86328,5.54883 1.62081,-0.53562 3.22001,-1.34059 4.6289,-2.08398 0.89906,-0.47438 1.57632,-0.77317 2.49415,-0.79883 0.89038,-0.0249 1.40182,0.27656 1.98242,0.77734 0.25085,0.21637 0.51534,0.48279 0.79687,0.75586 -0.25647,0.40556 -0.79615,0.53695 -1.76562,1.10352 1.95514,0.58994 2.59141,1.85091 4.15625,2.49414 0.55665,-0.25793 1.08128,-0.52946 1.29882,-1.08594 1.28379,0.64871 2.70563,1.21308 4.19922,1.53906 0.0372,0.49232 -0.0779,0.96218 -0.52343,1.75 1.8525,-0.13727 3.11482,-0.49129 3.85351,-1.48437 1.90282,-0.0616 3.90491,-0.41501 5.41016,-0.94922 1.59542,-0.56623 3.08878,-1.52586 4.54297,-2.77148 0.22554,-0.1932 0.55832,-0.5479 0.15234,-0.66602 l -1.22851,-0.35742 1.51367,-0.22656 c 0.18187,-0.0272 0.35546,-0.2168 0.27734,-0.50586 -0.0502,-0.18564 -0.78361,-4.16347 -3.37305,-6.7793 -1.42433,-1.43886 -3.05654,-2.12894 -5.92382,-2.72852 -0.4724,-1.08092 -0.97717,-2.12518 -1.70508,-2.90429 -0.44021,-0.13092 -1.02565,-0.18691 -1.58399,-0.20313 z m -0.1289,0.86719 c 0.40991,0.0169 0.81105,0.0568 1.19922,0.10547 0.77961,0.94104 1.28338,2.04784 1.60937,2.96875 2.1946,0.39918 4.6041,1.23544 5.89453,2.52734 2.08816,2.09053 2.83239,5.19206 2.98633,5.86133 l -3.01953,0.42578 c -0.44473,0.0627 -0.45389,0.76792 -0.0586,0.87891 l 1.98242,0.55664 c -1.12071,0.87174 -2.24918,1.67981 -3.4375,2.10156 -0.33815,0.12001 -0.71912,0.22666 -1.11524,0.32617 -2.33138,-1.12461 -3.38072,-3.76269 -3.66601,-5.20312 -0.15295,-0.77226 -0.48459,-1.00055 -0.26758,0.46094 0.277,1.86552 1.35587,3.78888 2.74609,4.99218 -1.94553,0.34633 -4.16617,0.4437 -5.72851,0.12891 -2.43884,-0.49138 -4.81456,-1.67957 -6.48633,-2.85938 -0.79723,-0.56263 -1.35875,-1.23084 -2.01953,-1.80078 -0.66079,-0.56995 -1.57913,-0.96766 -2.54883,-0.93164 -0.96571,0.0359 -2.00556,0.34944 -2.93359,0.83789 -0.68049,0.35816 -1.62451,0.79789 -2.58789,1.22461 0.58514,-1.36212 1.15509,-2.85368 1.14062,-3.91797 -0.0229,-1.68436 -0.84568,-3.32406 -1.36523,-4.77929 1.43808,0.75542 2.36518,1.48293 3.00781,2.08984 0.79559,0.75138 1.70527,1.34121 2.9414,1.36523 0.8676,0.0169 1.85414,-0.60951 2.64454,-1.26171 1.07222,-0.88474 2.37395,-1.75346 3.82031,-2.3125 0.84286,-0.32579 2.17657,-0.81342 1.5664,-0.90821 -0.63083,-0.098 -1.90673,0.29013 -2.74804,0.65625 -0.21144,-0.67843 -0.52851,-1.28134 -0.85547,-1.77148 1.86816,-0.59893 2.90957,-1.50638 6.04687,-1.72852 0.42336,-0.0441 0.84204,-0.0501 1.25196,-0.0332 z"
         inkscape:connector-curvature="0"
         id="path235" />
      <path
         style="color:#000000;clip-rule:nonzero;display:inline;overflow:visible;visibility:visible;opacity:1;isolation:auto;mix-blend-mode:normal;color-interpolation:sRGB;color-interpolation-filters:linearRGB;solid-color:#000000;solid-opacity:1;fill:#000000;fill-opacity:1;fill-rule:evenodd;stroke:none;stroke-width:0.89999998;stroke-linecap:round;stroke-linejoin:miter;stroke-miterlimit:4;stroke-dasharray:none;stroke-dashoffset:0;stroke-opacity:1;color-rendering:auto;image-rendering:auto;shape-rendering:auto;text-rendering:auto;enable-background:accumulate"
         d="m 4.14858,-108.59983 c -0.47489,-0.30307 -1.53655,-0.90869 -2.26472,-0.88862 -0.0804,0.002 -0.2543,0.14712 -0.15844,0.31108 0.47438,0.81135 0.88194,1.78963 0.81744,2.88053 -0.01,0.15682 0.0463,0.31282 0.28149,0.29908 0.85805,-0.0503 1.22499,-0.14313 1.82534,-0.42991 0.33162,-0.1584 0.28985,0.0295 -0.17284,0.32399 -0.42638,0.27143 -1.15747,0.57467 -1.60626,0.62419 -0.57111,0.063 -0.86938,-0.30115 -0.85559,-0.49509 0.0664,-0.93438 -0.40775,-2.23989 -0.84996,-3.00389 -0.64912,-1.12144 0.5114,-1.14367 1.04743,-1.03991 0.57353,0.11103 1.54086,0.51965 2.36735,1.37318 0.31578,0.3261 0.0887,0.37724 -0.43124,0.0454 z"
         inkscape:connector-curvature="0"
         id="path237" />
      <ellipse
         cx="35.346939"
         cy="-105.81317"
         rx="0.85538602"
         ry="1.092993"
         style="opacity:1;fill:#000000;fill-opacity:1;fill-rule:nonzero;stroke:none;stroke-width:0.89999998;stroke-linecap:butt;stroke-linejoin:round;stroke-miterlimit:4;stroke-dasharray:none;stroke-dashoffset:0;stroke-opacity:1"
         transform="matrix(0.97605309,-0.21753245,0.21753245,0.97605309,0,0)"
         id="ellipse239" />
    </g>
  </g>
  <g
     inkscape:groupmode="layer"
     id="extras_layer"
     inkscape:label="Extras"
     style="display:inline"
     sodipodi:insensitive="true">
    <g
       id="extra-ship"
       transform="matrix(0.4444171,-0.89581998,0.89581998,0.4444171,266.30938,417.60566)">
      <path
         style="color:#000000;fill:url(#gradientShip);fill-opacity:1;fill-rule:evenodd;stroke:#000000;stroke-width:0.75;stroke-linecap:butt;stroke-linejoin:round;stroke-miterlimit:4;stroke-dasharray:none;stroke-dashoffset:0;stroke-opacity:1;marker:none;enable-background:accumulate"
         d="m 243.2364,-52.722824 c -3.10208,-2.937202 -8.72518,-3.346714 -12.49116,-3.032742 -2.95307,0.246202 -6.62512,1.070872 -6.62512,1.070872 l -0.0121,3.725952 c 0,0 2.43298,0.582421 6.39007,0.932887 3.66202,0.324334 9.61676,-0.283241 12.73834,-2.696969 z"
         inkscape:connector-curvature="0"
         id="path243" />
      <path
         style="color:#000000;opacity:1;isolation:auto;mix-blend-mode:normal;color-interpolation:sRGB;color-interpolation-filters:linearRGB;solid-color:#000000;solid-opacity:1;fill:#000000;fill-opacity:1;fill-rule:evenodd;stroke:none;stroke-width:0.75;stroke-linecap:round;stroke-linejoin:round;stroke-miterlimit:4;stroke-dasharray:none;stroke-dashoffset:0;stroke-opacity:1;marker:none;color-rendering:auto;image-rendering:auto;shape-rendering:auto;text-rendering:auto;enable-background:accumulate"
         d="m 243.05273,-53.089844 c -0.50461,-0.01007 -0.51271,0.749303 -0.008,0.75 l 2.80546,-0.143551 c 0.50461,0.01007 0.51856,-0.385922 0.0138,-0.386619 z"
         inkscape:connector-curvature="0"
         id="path245" />
      <circle
         cx="37.651787"
         cy="-233.087830"
         r="0.695206"
         style="color:#000000;opacity:1;isolation:auto;mix-blend-mode:normal;color-interpolation:sRGB;color-interpolation-filters:linearRGB;solid-color:#000000;solid-opacity:1;fill:#a66e00;fill-opacity:1;fill-rule:nonzero;stroke:#000000;stroke-width:0.5;stroke-linecap:butt;stroke-linejoin:miter;stroke-miterlimit:4;stroke-dasharray:none;stroke-dashoffset:0;stroke-opacity:1;color-rendering:auto;image-rendering:auto;shape-rendering:auto;text-rendering:auto;enable-background:accumulate"
         transform="matrix(0.37654483,0.9263984,-0.9263984,0.37654483,0,0)"
         id="circle247" />
      <circle
         cx="39.995537"
         cy="-238.712830"
         r="0.695206"
         style="color:#000000;opacity:1;isolation:auto;mix-blend-mode:normal;color-interpolation:sRGB;color-interpolation-filters:linearRGB;solid-color:#000000;solid-opacity:1;fill:#a66e00;fill-opacity:1;fill-rule:nonzero;stroke:#000000;stroke-width:0.5;stroke-linecap:butt;stroke-linejoin:miter;stroke-miterlimit:4;stroke-dasharray:none;stroke-dashoffset:0;stroke-opacity:1;color-rendering:auto;image-rendering:auto;shape-rendering:auto;text-rendering:auto;enable-background:accumulate"
         transform="matrix(0.37654483,0.9263984,-0.9263984,0.37654483,0,0)"
         id="circle249" />
      <path
         style="color:#000000;fill:#feffff;fill-opacity:1;fill-rule:evenodd;stroke:#000000;stroke-width:0.5;stroke-linecap:butt;stroke-linejoin:round;stroke-miterlimit:4;stroke-dasharray:none;stroke-dashoffset:0;stroke-opacity:1;marker:none;enable-background:accumulate"
         d="m 230.8139,-58.168744 -0.0696,11.095953 c 0,0 1.11273,-0.901569 1.17305,-2.014949 0.0592,-1.093696 -0.80015,-1.762231 -0.80015,-1.762231 0,0 1.00218,-0.841738 0.9922,-1.921676 -0.0106,-1.140901 -0.9468,-1.722391 -0.9468,-1.722391 0,0 0.80027,-0.5343 0.83406,-1.646805 0.0349,-1.150244 -1.18274,-2.027894 -1.18274,-2.027894 z"
         inkscape:connector-curvature="0"
         id="path251" />
      <path
         style="color:#000000;fill:#feffff;fill-opacity:1;fill-rule:evenodd;stroke:#000000;stroke-width:0.5;stroke-linecap:butt;stroke-linejoin:round;stroke-miterlimit:4;stroke-dasharray:none;stroke-dashoffset:0;stroke-opacity:1;marker:none;enable-background:accumulate"
         d="m 236.95087,-57.97366 -0.0645,10.282469 c 0,0 1.03677,-0.785137 1.09267,-1.816887 0.0549,-1.013517 -0.74706,-1.683399 -0.74706,-1.683399 0,0 0.85887,-0.76153 0.84962,-1.762298 -0.01,-1.057255 -0.80754,-1.614603 -0.80754,-1.614603 0,0 0.84013,-0.540128 0.87144,-1.571079 0.0324,-1.065902 -1.19455,-1.834218 -1.19455,-1.834218 z"
         inkscape:connector-curvature="0"
         id="path253" />
      <path
         style="fill:#000000;stroke:none"
         d="m 239.16963,-53.312319 -0.0111,0.999645 1.00145,0.01039 0.009,-1.000718 z"
         inkscape:connector-curvature="0"
         id="path255" />
      <path
         style="fill:#6a4600;stroke:none"
         d="m 233.00825,-53.641515 -0.0131,1.52646 1.52369,0.01423 0.0142,-1.523703 z"
         inkscape:connector-curvature="0"
         id="path257" />
      <path
         style="fill:none;stroke:#000000;stroke-width:0.6;stroke-linecap:butt"
         d="m 227.26126,-55.055042 -0.0734,4.514141"
         inkscape:connector-curvature="0"
         id="path259" />
      <path
         style="fill:#000000;stroke:none"
         d="m 223.83649,-54.026834 -0.0111,0.999636 1.00072,0.0086 0.009,-0.998911 z"
         inkscape:connector-curvature="0"
         id="path261" />
      <path
         style="fill:#000000;stroke:none"
         d="m 223.85032,-52.581947 -0.0111,0.999637 1.00072,0.0086 0.009,-0.998912 z"
         inkscape:connector-curvature="0"
         id="path263" />
      <path
         style="fill:none;stroke:#000000;stroke-width:0.5;stroke-linecap:butt;stroke-linejoin:round;stroke-miterlimit:4"
         d="m 227.2539,-51.578825 1.14997,0.173504 -0.0116,1.05042"
         inkscape:connector-curvature="0"
         id="path265" />
      <path
         style="fill:none;stroke:#000000;stroke-width:0.5;stroke-linecap:butt;stroke-linejoin:round;stroke-miterlimit:4"
         d="m 227.25705,-54.143799 1.1481,-0.163064 0.0224,-1.189753"
         inkscape:connector-curvature="0"
         id="path267" />
    </g>
  </g>
  <g
     inkscape:groupmode="layer"
     id="suit_rank_glow_layer"
     inkscape:label="Suit Rank Glow"
     style="display:inline"
     sodipodi:insensitive="true">
    <g
       style="opacity:0.75;filter:url(#blurSuitRankGlow)"
       id="g270">
      <path
         style="fill:#ffffff;fill-opacity:1;stroke:none"
         d="m 31.453338,20.628773 c -3.90158,4.19568 -7.07982,7.84109 -10.6575,12.24125 3.57768,4.40016 6.75592,8.045575 10.6575,12.241254 3.90158,-4.195679 7.07982,-7.841094 10.6575,-12.241254 -3.57768,-4.40016 -6.75592,-8.04557 -10.6575,-12.241251 z"
         inkscape:connector-curvature="0"
         id="path272" />
      <path
         style="fill:#ffffff;fill-opacity:1;stroke:none"
         d="m 215.96335,316.87128 c 3.90158,-4.19568 7.07982,-7.84109 10.6575,-12.24125 -3.57768,-4.40016 -6.75592,-8.04557 -10.6575,-12.24125 -3.90158,4.19568 -7.07982,7.84109 -10.6575,12.24125 3.57768,4.40016 6.75592,8.04557 10.6575,12.24125 z"
         inkscape:connector-curvature="0"
         id="path274" />
      <path
         style="fill:#ffffff;fill-opacity:1;stroke:none"
         d="m 25.533343,64.095025 9.67999,-10.12 -9.47999,0 0,4 -3.2,0 0,-7.2 17.2,0 0,3.2 -7.56001,7.84 c 1.30666,0.08 2.51999,0.4 3.64,0.96 1.11999,0.5334 2.09332,1.2534 2.92001,2.16 0.82664,0.9067 1.46664,1.9734 1.92,3.2 0.45331,1.2267 0.67997,2.5467 0.67999,3.96 -2e-5,1.5467 -0.28002,2.9867 -0.83999,4.32 -0.53336,1.3333 -1.26669,2.4933 -2.2,3.48 -0.93336,0.96 -2.04002,1.72 -3.32,2.28 -1.25335,0.5333 -2.60002,0.8 -4.04001,0.8 -2.08,0 -3.94667,-0.5733 -5.6,-1.72 -1.65333,-1.1733 -2.90666,-2.6933 -3.76,-4.56 l 2.76,-1.68 c 0.56,1.4133 1.42667,2.56 2.6,3.44 1.2,0.88 2.53333,1.32 4,1.32 0.98666,0 1.91999,-0.1867 2.80001,-0.56 0.87998,-0.4 1.63998,-0.9333 2.28,-1.6 0.66665,-0.6933 1.18665,-1.5067 1.55999,-2.44 0.37332,-0.96 0.55999,-1.9866 0.56001,-3.08 -2e-5,-1.0933 -0.17336,-2.08 -0.52,-2.96 -0.32002,-0.88 -0.78669,-1.6266 -1.40001,-2.24 -0.58668,-0.6133 -1.30668,-1.08 -2.16,-1.4 -0.82667,-0.3466 -1.73334,-0.52 -2.72,-0.52 -0.77334,0 -1.4,0.1067 -1.88,0.32 -0.48,0.2134 -1.01334,0.56 -1.59999,1.04 l -2.32,-2.24"
         inkscape:connector-curvature="0"
         id="path276" />
      <path
         style="fill:#ffffff;fill-opacity:1;stroke:none"
         d="m 221.88333,273.40503 -9.67999,10.12 9.47999,0 0,-4 3.2,0 0,7.2 -17.2,0 0,-3.2 7.56001,-7.84 c -1.30666,-0.08 -2.51999,-0.4 -3.64,-0.96 -1.11999,-0.5334 -2.09332,-1.2534 -2.92001,-2.16 -0.82664,-0.9067 -1.46664,-1.9734 -1.92,-3.2 -0.45331,-1.2267 -0.67997,-2.5467 -0.67999,-3.96 2e-5,-1.5467 0.28002,-2.9867 0.83999,-4.32 0.53336,-1.3333 1.26669,-2.4933 2.2,-3.48 0.93336,-0.96 2.04002,-1.72 3.32,-2.28 1.25335,-0.5333 2.60002,-0.8 4.04001,-0.8 2.08,0 3.94667,0.5733 5.6,1.72 1.65333,1.1733 2.90666,2.6933 3.76,4.56 l -2.76,1.68 c -0.56,-1.4133 -1.42667,-2.56 -2.6,-3.44 -1.2,-0.88 -2.53333,-1.32 -4,-1.32 -0.98666,0 -1.91999,0.1867 -2.80001,0.56 -0.87998,0.4 -1.63998,0.9333 -2.28,1.6 -0.66665,0.6933 -1.18665,1.5067 -1.55999,2.44 -0.37332,0.96 -0.55999,1.9866 -0.56001,3.08 2e-5,1.0933 0.17336,2.08 0.52,2.96 0.32002,0.88 0.78669,1.6266 1.40001,2.24 0.58668,0.6133 1.30668,1.08 2.16,1.4 0.82667,0.3466 1.73334,0.52 2.72,0.52 0.77334,0 1.4,-0.1067 1.88,-0.32 0.48,-0.2134 1.01334,-0.56 1.59999,-1.04 l 2.32,2.24"
         inkscape:connector-curvature="0"
         id="path278" />
    </g>
  </g>
  <g
     inkscape:groupmode="layer"
     id="suit_rank_layer"
     inkscape:label="Suit Rank"
     style="display:inline"
     sodipodi:insensitive="true">
    <path
       style="fill:#de0000;fill-opacity:1;stroke:none"
       d="m 31.453338,20.628773 c -3.90158,4.19568 -7.07982,7.84109 -10.6575,12.24125 3.57768,4.40016 6.75592,8.045575 10.6575,12.241254 3.90158,-4.195679 7.07982,-7.841094 10.6575,-12.241254 -3.57768,-4.40016 -6.75592,-8.04557 -10.6575,-12.241251 z"
       inkscape:connector-curvature="0"
       id="path281" />
    <path
       style="fill:#de0000;fill-opacity:1;stroke:none"
       d="m 215.96335,316.87128 c 3.90158,-4.19568 7.07982,-7.84109 10.6575,-12.24125 -3.57768,-4.40016 -6.75592,-8.04557 -10.6575,-12.24125 -3.90158,4.19568 -7.07982,7.84109 -10.6575,12.24125 3.57768,4.40016 6.75592,8.04557 10.6575,12.24125 z"
       inkscape:connector-curvature="0"
       id="path283" />
    <path
       style="fill:#de0000;fill-opacity:1;stroke:none"
       d="m 25.533343,64.095025 9.67999,-10.12 -9.47999,0 0,4 -3.2,0 0,-7.2 17.2,0 0,3.2 -7.56001,7.84 c 1.30666,0.08 2.51999,0.4 3.64,0.96 1.11999,0.5334 2.09332,1.2534 2.92001,2.16 0.82664,0.9067 1.46664,1.9734 1.92,3.2 0.45331,1.2267 0.67997,2.5467 0.67999,3.96 -2e-5,1.5467 -0.28002,2.9867 -0.83999,4.32 -0.53336,1.3333 -1.26669,2.4933 -2.2,3.48 -0.93336,0.96 -2.04002,1.72 -3.32,2.28 -1.25335,0.5333 -2.60002,0.8 -4.04001,0.8 -2.08,0 -3.94667,-0.5733 -5.6,-1.72 -1.65333,-1.1733 -2.90666,-2.6933 -3.76,-4.56 l 2.76,-1.68 c 0.56,1.4133 1.42667,2.56 2.6,3.44 1.2,0.88 2.53333,1.32 4,1.32 0.98666,0 1.91999,-0.1867 2.80001,-0.56 0.87998,-0.4 1.63998,-0.9333 2.28,-1.6 0.66665,-0.6933 1.18665,-1.5067 1.55999,-2.44 0.37332,-0.96 0.55999,-1.9866 0.56001,-3.08 -2e-5,-1.0933 -0.17336,-2.08 -0.52,-2.96 -0.32002,-0.88 -0.78669,-1.6266 -1.40001,-2.24 -0.58668,-0.6133 -1.30668,-1.08 -2.16,-1.4 -0.82667,-0.3466 -1.73334,-0.52 -2.72,-0.52 -0.77334,0 -1.4,0.1067 -1.88,0.32 -0.48,0.2134 -1.01334,0.56 -1.59999,1.04 l -2.32,-2.24"
       inkscape:connector-curvature="0"
       id="path285" />
    <path
       style="fill:#de0000;fill-opacity:1;stroke:none"
       d="m 221.88333,273.40503 -9.67999,10.12 9.47999,0 0,-4 3.2,0 0,7.2 -17.2,0 0,-3.2 7.56001,-7.84 c -1.30666,-0.08 -2.51999,-0.4 -3.64,-0.96 -1.11999,-0.5334 -2.09332,-1.2534 -2.92001,-2.16 -0.82664,-0.9067 -1.46664,-1.9734 -1.92,-3.2 -0.45331,-1.2267 -0.67997,-2.5467 -0.67999,-3.96 2e-5,-1.5467 0.28002,-2.9867 0.83999,-4.32 0.53336,-1.3333 1.26669,-2.4933 2.2,-3.48 0.93336,-0.96 2.04002,-1.72 3.32,-2.28 1.25335,-0.5333 2.60002,-0.8 4.04001,-0.8 2.08,0 3.94667,0.5733 5.6,1.72 1.65333,1.1733 2.90666,2.6933 3.76,4.56 l -2.76,1.68 c -0.56,-1.4133 -1.42667,-2.56 -2.6,-3.44 -1.2,-0.88 -2.53333,-1.32 -4,-1.32 -0.98666,0 -1.91999,0.1867 -2.80001,0.56 -0.87998,0.4 -1.63998,0.9333 -2.28,1.6 -0.66665,0.6933 -1.18665,1.5067 -1.55999,2.44 -0.37332,0.96 -0.55999,1.9866 -0.56001,3.08 2e-5,1.0933 0.17336,2.08 0.52,2.96 0.32002,0.88 0.78669,1.6266 1.40001,2.24 0.58668,0.6133 1.30668,1.08 2.16,1.4 0.82667,0.3466 1.73334,0.52 2.72,0.52 0.77334,0 1.4,-0.1067 1.88,-0.32 0.48,-0.2134 1.01334,-0.56 1.59999,-1.04 l 2.32,2.24"
       inkscape:connector-curvature="0"
       id="path287" />
  </g>
  <g
     inkscape:groupmode="layer"
     id="guides_layer"
     inkscape:label="Guides"
     style="display:none"
     sodipodi:insensitive="true">
    <path
       style="fill:none;stroke:#000000;stroke-width:0.9"
       d="m 11.250000,11.25 0,-45"
       inkscape:connector-curvature="0"
       id="path290" />
    <path
       style="fill:none;stroke:#000000;stroke-width:0.9"
       d="m 11.250000,371.25 0,-45"
       inkscape:connector-curvature="0"
       id="path292" />
    <path
       style="fill:none;stroke:#000000;stroke-width:0.9"
       d="m 84.375000,11.25 0,-45"
       inkscape:connector-curvature="0"
       id="path294" />
    <path
       style="fill:none;stroke:#000000;stroke-width:0.9"
       d="m 84.375000,371.25 0,-45"
       inkscape:connector-curvature="0"
       id="path296" />
    <path
       style="fill:none;stroke:#000000;stroke-width:0.9"
       d="m 123.750000,11.25 0,-45"
       inkscape:connector-curvature="0"
       id="path298" />
    <path
       style="fill:none;stroke:#000000;stroke-width:0.9"
       d="m 123.750000,371.25 0,-45"
       inkscape:connector-curvature="0"
       id="path300" />
    <path
       style="fill:none;stroke:#000000;stroke-width:0.9"
       d="m 163.125000,11.25 0,-45"
       inkscape:connector-curvature="0"
       id="path302" />
    <path
       style="fill:none;stroke:#000000;stroke-width:0.9"
       d="m 163.125000,371.25 0,-45"
       inkscape:connector-curvature="0"
       id="path304" />
    <path
       style="fill:none;stroke:#000000;stroke-width:0.9"
       d="m 236.250000,11.25 0,-45"
       inkscape:connector-curvature="0"
       id="path306" />
    <path
       style="fill:none;stroke:#000000;stroke-width:0.9"
       d="m 236.250000,371.25 0,-45"
       inkscape:connector-curvature="0"
       id="path308" />
    <path
       style="fill:none;stroke:#000000;stroke-width:0.9"
       d="m -33.75,11.250000 45,0"
       inkscape:connector-curvature="0"
       id="path310" />
    <path
       style="fill:none;stroke:#000000;stroke-width:0.9"
       d="m 236.25,11.250000 45,0"
       inkscape:connector-curvature="0"
       id="path312" />
    <path
       style="fill:none;stroke:#000000;stroke-width:0.9"
       d="m -33.75,118.125000 45,0"
       inkscape:connector-curvature="0"
       id="path314" />
    <path
       style="fill:none;stroke:#000000;stroke-width:0.9"
       d="m 236.25,118.125000 45,0"
       inkscape:connector-curvature="0"
       id="path316" />
    <path
       style="fill:none;stroke:#000000;stroke-width:0.9"
       d="m -33.75,168.750000 45,0"
       inkscape:connector-curvature="0"
       id="path318" />
    <path
       style="fill:none;stroke:#000000;stroke-width:0.9"
       d="m 236.25,168.750000 45,0"
       inkscape:connector-curvature="0"
       id="path320" />
    <path
       style="fill:none;stroke:#000000;stroke-width:0.9"
       d="m -33.75,219.375000 45,0"
       inkscape:connector-curvature="0"
       id="path322" />
    <path
       style="fill:none;stroke:#000000;stroke-width:0.9"
       d="m 236.25,219.375000 45,0"
       inkscape:connector-curvature="0"
       id="path324" />
    <path
       style="fill:none;stroke:#000000;stroke-width:0.9"
       d="m -33.75,326.250000 45,0"
       inkscape:connector-curvature="0"
       id="path326" />
    <path
       style="fill:none;stroke:#000000;stroke-width:0.9"
       d="m 236.25,326.250000 45,0"
       inkscape:connector-curvature="0"
       id="path328" />
    <g
       id="guide-short0-3">
      <rect
         x="84.375000"
         y="-22.500000"
         width="163.125000"
         height="22.500000"
         style="fill:#ffd291;stroke:#000000;stroke-width:0.9"
         id="rect331" />
      <rect
         x="101.250000"
         y="-22.500000"
         width="146.250000"
         height="22.500000"
         style="fill:#b4e982;stroke:#000000;stroke-width:0.9"
         id="rect333" />
      <rect
         x="213.750000"
         y="-22.500000"
         width="33.750000"
         height="22.500000"
         style="fill:#5adc4f;stroke:#000000;stroke-width:0.9"
         id="rect335" />
      <rect
         x="168.750000"
         y="-22.500000"
         width="33.750000"
         height="22.500000"
         style="fill:#5adc4f;stroke:#000000;stroke-width:0.9"
         id="rect337" />
      <rect
         x="118.125000"
         y="-22.500000"
         width="39.375000"
         height="22.500000"
         style="fill:#5adc4f;stroke:#000000;stroke-width:0.9"
         id="rect339" />
      <rect
         x="0.000000"
         y="-22.500000"
         width="84.375000"
         height="22.500000"
         style="fill:#b9deff;stroke:#000000;stroke-width:0.9"
         id="rect341" />
      <rect
         x="0.000000"
         y="-22.500000"
         width="61.875000"
         height="22.500000"
         style="fill:#9bceff;stroke:#000000;stroke-width:0.9"
         id="rect343" />
      <rect
         x="0.000000"
         y="-22.500000"
         width="33.750000"
         height="22.500000"
         style="fill:#73baff;stroke:#000000;stroke-width:0.9"
         id="rect345" />
    </g>
    <g
       id="guide-long1-7">
      <rect
         x="247.500000"
         y="0.000000"
         width="22.500000"
         height="337.500000"
         style="fill:#b4e982;stroke:#000000;stroke-width:0.9"
         id="rect348" />
      <rect
         x="247.500000"
         y="0.000000"
         width="22.500000"
         height="163.125000"
         style="fill:#5adc4f;stroke:#000000;stroke-width:0.9"
         id="rect350" />
      <rect
         x="247.500000"
         y="174.375000"
         width="22.500000"
         height="163.125000"
         style="fill:#5adc4f;stroke:#000000;stroke-width:0.9"
         id="rect352" />
    </g>
    <g
       id="guide-short2-7"
       transform="matrix(-1,0,0,1,247.5,360)">
      <rect
         x="0.000000"
         y="-22.500000"
         width="247.500000"
         height="22.500000"
         style="fill:#b4e982;stroke:#000000;stroke-width:0.9"
         id="rect355" />
      <rect
         x="0.000000"
         y="-22.500000"
         width="118.125000"
         height="22.500000"
         style="fill:#5adc4f;stroke:#000000;stroke-width:0.9"
         id="rect357" />
      <rect
         x="129.375000"
         y="-22.500000"
         width="118.125000"
         height="22.500000"
         style="fill:#5adc4f;stroke:#000000;stroke-width:0.9"
         id="rect359" />
    </g>
    <g
       id="guide-long3-4"
       transform="matrix(1,0,0,-1,-270,337.5)">
      <rect
         x="247.500000"
         y="0.000000"
         width="22.500000"
         height="118.125000"
         style="fill:#ffd291;stroke:#000000;stroke-width:0.9"
         id="rect362" />
      <rect
         x="247.500000"
         y="0.000000"
         width="22.500000"
         height="101.250000"
         style="fill:#b4e982;stroke:#000000;stroke-width:0.9"
         id="rect364" />
      <rect
         x="247.500000"
         y="0.000000"
         width="22.500000"
         height="78.750000"
         style="fill:#5adc4f;stroke:#000000;stroke-width:0.9"
         id="rect366" />
      <rect
         x="247.500000"
         y="118.125000"
         width="22.500000"
         height="219.375000"
         style="fill:#b9deff;stroke:#000000;stroke-width:0.9"
         id="rect368" />
      <rect
         x="247.500000"
         y="168.750000"
         width="22.500000"
         height="168.750000"
         style="fill:#9bceff;stroke:#000000;stroke-width:0.9"
         id="rect370" />
      <rect
         x="247.500000"
         y="236.250000"
         width="22.500000"
         height="101.250000"
         style="fill:#73baff;stroke:#000000;stroke-width:0.9"
         id="rect372" />
    </g>
  </g>
  <g
     inkscape:groupmode="layer"
     id="cut_line_layer"
     inkscape:label="Cut Line"
     style="display:none"
     sodipodi:insensitive="true">
    <rect
       style="fill:none;stroke:#000000;stroke-width:0.5;stroke-linecap:butt;stroke-linejoin:bevel;stroke-miterlimit:4;stroke-dasharray:none;stroke-opacity:1"
       width="225"
       height="315"
       x="11.25"
       y="11.25"
       ry="17.361111"
       id="rect375" />
  </g>
  <g
     inkscape:groupmode="layer"
     id="page_border_layer"
     inkscape:label="Page Border"
     style="display:none"
     sodipodi:insensitive="true">
    <rect
       style="fill:none;stroke:#000000;stroke-width:0.5;stroke-linecap:butt;stroke-linejoin:bevel;stroke-miterlimit:4;stroke-dasharray:none;stroke-opacity:1"
       width="247.5"
       height="337.5"
       x="0"
       y="0"
       id="rect378" />
  </g>
</svg>
