<?xml version="1.0" encoding="UTF-8" standalone="no"?>
<svg
   xmlns:dc="http://purl.org/dc/elements/1.1/"
   xmlns:cc="http://creativecommons.org/ns#"
   xmlns:rdf="http://www.w3.org/1999/02/22-rdf-syntax-ns#"
   xmlns:svg="http://www.w3.org/2000/svg"
   xmlns="http://www.w3.org/2000/svg"
   xmlns:xlink="http://www.w3.org/1999/xlink"
   xmlns:sodipodi="http://sodipodi.sourceforge.net/DTD/sodipodi-0.dtd"
   xmlns:inkscape="http://www.inkscape.org/namespaces/inkscape"
   version="1.1"
   height="337.5"
   width="247.5"
   id="svg2"
   inkscape:version="0.91 r13725"
   sodipodi:docname="hearts-ace.svg">
  <metadata
     id="metadata4">
    <rdf:RDF>
      <cc:Work
         rdf:about="">
        <dc:format>image/svg+xml</dc:format>
        <dc:type
           rdf:resource="http://purl.org/dc/dcmitype/StillImage" />
        <dc:title />
        <dc:creator>
          <cc:Agent>
            <dc:title>Gary Kacmarcik</dc:title>
          </cc:Agent>
        </dc:creator>
      </cc:Work>
    </rdf:RDF>
  </metadata>
  <defs
     id="defs6">
    <filter
       inkscape:label="textureGrassBig"
       style="color-interpolation-filters:sRGB"
       id="textureGrassBig">
      <feTurbulence
         numOctaves="2"
         seed="201"
         type="turbulence"
         baseFrequency="0.070000"
         result="result1"
         id="feTurbulence9" />
      <feColorMatrix
         result="result0"
         in="SourceGraphic"
         type="luminanceToAlpha"
         id="feColorMatrix11" />
      <feColorMatrix
         result="result2"
         values="1 0 0 0 0 0 1 0 0 0 0 0 1 0 0 0 0 0 0.4 0 "
         id="feColorMatrix13" />
      <feComposite
         in="result2"
         operator="over"
         in2="result1"
         id="feComposite15" />
      <feColorMatrix
         result="result91"
         values="1 0 0 0 0 0 1 0 0 0 0 0 1 0 0 0 0 0 10 -4 "
         id="feColorMatrix17" />
      <feComposite
         operator="out"
         in="SourceGraphic"
         in2="result91"
         id="feComposite19" />
      <feGaussianBlur
         stdDeviation="2.500000"
         id="feGaussianBlur21" />
      <feColorMatrix
         values="1 0 0 0 0 0 1 0 0 0 0 0 1 0 0 0 0 0 1 0 "
         id="feColorMatrix23" />
    </filter>
    <filter
       inkscape:label="textureGrassSmall"
       style="color-interpolation-filters:sRGB"
       id="textureGrassSmall">
      <feTurbulence
         numOctaves="4"
         seed="201"
         type="turbulence"
         baseFrequency="0.500000"
         result="result1"
         id="feTurbulence26" />
      <feColorMatrix
         result="result0"
         in="SourceGraphic"
         type="luminanceToAlpha"
         id="feColorMatrix28" />
      <feColorMatrix
         result="result2"
         values="1 0 0 0 0 0 1 0 0 0 0 0 1 0 0 0 0 0 0.4 0 "
         id="feColorMatrix30" />
      <feComposite
         in="result2"
         operator="over"
         in2="result1"
         id="feComposite32" />
      <feColorMatrix
         result="result91"
         values="1 0 0 0 0 0 1 0 0 0 0 0 1 0 0 0 0 0 10 -4 "
         id="feColorMatrix34" />
      <feComposite
         operator="out"
         in="SourceGraphic"
         in2="result91"
         id="feComposite36" />
      <feGaussianBlur
         stdDeviation="1.000000"
         id="feGaussianBlur38" />
      <feColorMatrix
         values="1 0 0 0 0 0 1 0 0 0 0 0 1 0 0 0 0 0 1 0 "
         id="feColorMatrix40" />
    </filter>
    <filter
       inkscape:label="textureLand"
       style="color-interpolation-filters:sRGB"
       id="textureLand">
      <feTurbulence
         numOctaves="4"
         seed="201"
         type="turbulence"
         baseFrequency="0.500000"
         result="result1"
         id="feTurbulence43" />
      <feColorMatrix
         result="result0"
         in="SourceGraphic"
         type="luminanceToAlpha"
         id="feColorMatrix45" />
      <feColorMatrix
         result="result2"
         values="1 0 0 0 0 0 1 0 0 0 0 0 1 0 0 0 0 0 0.4 0 "
         id="feColorMatrix47" />
      <feComposite
         in="result2"
         operator="over"
         in2="result1"
         id="feComposite49" />
      <feColorMatrix
         result="result91"
         values="1 0 0 0 0 0 1 0 0 0 0 0 1 0 0 0 0 0 10 -4 "
         id="feColorMatrix51" />
      <feComposite
         operator="out"
         in="SourceGraphic"
         in2="result91"
         id="feComposite53" />
      <feGaussianBlur
         stdDeviation="0.800000"
         id="feGaussianBlur55" />
      <feColorMatrix
         values="1 0 0 0 0 0 1 0 0 0 0 0 1 0 0 0 0 0 1 0 "
         id="feColorMatrix57" />
    </filter>
    <filter
       inkscape:label="textureForestBig"
       style="color-interpolation-filters:sRGB"
       id="textureForestBig">
      <feTurbulence
         numOctaves="2"
         seed="201"
         type="turbulence"
         baseFrequency="0.300000"
         result="result1"
         id="feTurbulence60" />
      <feColorMatrix
         result="result0"
         in="SourceGraphic"
         type="luminanceToAlpha"
         id="feColorMatrix62" />
      <feColorMatrix
         result="result2"
         values="1 0 0 0 0 0 1 0 0 0 0 0 1 0 0 0 0 0 0.4 0 "
         id="feColorMatrix64" />
      <feComposite
         in="result2"
         operator="over"
         in2="result1"
         id="feComposite66" />
      <feColorMatrix
         result="result91"
         values="1 0 0 0 0 0 1 0 0 0 0 0 1 0 0 0 0 0 10 -4 "
         id="feColorMatrix68" />
      <feComposite
         operator="out"
         in="SourceGraphic"
         in2="result91"
         id="feComposite70" />
      <feGaussianBlur
         stdDeviation="2.000000"
         id="feGaussianBlur72" />
      <feColorMatrix
         values="1 0 0 0 0 0 1 0 0 0 0 0 1 0 0 0 0 0 1 0 "
         id="feColorMatrix74" />
    </filter>
    <filter
       inkscape:label="textureForestSmall"
       style="color-interpolation-filters:sRGB"
       id="textureForestSmall">
      <feTurbulence
         numOctaves="4"
         seed="201"
         type="turbulence"
         baseFrequency="0.350000"
         result="result1"
         id="feTurbulence77" />
      <feColorMatrix
         result="result0"
         in="SourceGraphic"
         type="luminanceToAlpha"
         id="feColorMatrix79" />
      <feColorMatrix
         result="result2"
         values="1 0 0 0 0 0 1 0 0 0 0 0 1 0 0 0 0 0 0.4 0 "
         id="feColorMatrix81" />
      <feComposite
         in="result2"
         operator="over"
         in2="result1"
         id="feComposite83" />
      <feColorMatrix
         result="result91"
         values="1 0 0 0 0 0 1 0 0 0 0 0 1 0 0 0 0 0 10 -4 "
         id="feColorMatrix85" />
      <feComposite
         operator="out"
         in="SourceGraphic"
         in2="result91"
         id="feComposite87" />
      <feGaussianBlur
         stdDeviation="1.000000"
         id="feGaussianBlur89" />
      <feColorMatrix
         values="1 0 0 0 0 0 1 0 0 0 0 0 1 0 0 0 0 0 1 0 "
         id="feColorMatrix91" />
    </filter>
    <filter
       inkscape:label="roughenShoreline"
       style="color-interpolation-filters:sRGB"
       id="roughenShoreline">
      <feTurbulence
         numOctaves="4"
         seed="201"
         type="turbulence"
         baseFrequency="0.050000"
         result="turb"
         id="feTurbulence94" />
      <feDisplacementMap
         scale="6.600000"
         yChannelSelector="G"
         xChannelSelector="R"
         in="SourceGraphic"
         in2="turb"
         id="feDisplacementMap96" />
    </filter>
    <filter
       inkscape:label="roughenForest"
       style="color-interpolation-filters:sRGB"
       id="roughenForest">
      <feTurbulence
         numOctaves="4"
         seed="201"
         type="fractalNoise"
         baseFrequency="0.150000 0.150000"
         result="turb"
         id="feTurbulence99" />
      <feDisplacementMap
         scale="6.600000"
         yChannelSelector="G"
         xChannelSelector="R"
         in="SourceGraphic"
         in2="turb"
         id="feDisplacementMap101" />
    </filter>
    <filter
       inkscape:collect="always"
       inkscape:label="blurSuitRankGlow"
       style="color-interpolation-filters:sRGB"
       id="blurSuitRankGlow"
       x="-0.029025"
       y="-0.020458"
       width="1.058049"
       height="1.040917">
      <feGaussianBlur
         inkscape:collect="always"
         stdDeviation="2.515067"
         id="feGaussianBlur104" />
    </filter>
    <filter
       inkscape:collect="always"
       inkscape:label="blurWaterDeep"
       style="color-interpolation-filters:sRGB"
       id="blurWaterDeep"
       x="-0.056691"
       y="-0.041620"
       width="1.113381"
       height="1.083239">
      <feGaussianBlur
         inkscape:collect="always"
         stdDeviation="6.919136"
         id="feGaussianBlur107" />
    </filter>
    <filter
       inkscape:collect="always"
       inkscape:label="blurWaterShallow"
       style="color-interpolation-filters:sRGB"
       id="blurWaterShallow"
       x="-0.055818"
       y="-0.042103"
       width="1.111637"
       height="1.084205">
      <feGaussianBlur
         inkscape:collect="always"
         stdDeviation="6.561501"
         id="feGaussianBlur110" />
    </filter>
    <filter
       inkscape:collect="always"
       inkscape:label="blurWaterHilight"
       style="color-interpolation-filters:sRGB"
       id="blurWaterHilight"
       x="-0.071178"
       y="-0.051856"
       width="1.142356"
       height="1.103712">
      <feGaussianBlur
         inkscape:collect="always"
         stdDeviation="6.857532"
         id="feGaussianBlur113" />
    </filter>
    <filter
       inkscape:collect="always"
       inkscape:label="blurGrass"
       style="color-interpolation-filters:sRGB"
       id="blurGrass"
       x="-0.032100"
       y="-0.019164"
       width="1.064201"
       height="1.038328">
      <feGaussianBlur
         inkscape:collect="always"
         stdDeviation="2.386213"
         id="feGaussianBlur116" />
    </filter>
    <filter
       inkscape:collect="always"
       inkscape:label="blurForestShadow"
       style="color-interpolation-filters:sRGB"
       id="blurForestShadow"
       x="-0.033576"
       y="-0.018674"
       width="1.067152"
       height="1.037348">
      <feGaussianBlur
         inkscape:collect="always"
         stdDeviation="2.199785"
         id="feGaussianBlur119" />
    </filter>
    <linearGradient
       id="gradientStopsFish"
       inkscape:collect="always">
      <stop
         offset="0.000000"
         style="stop-color:#ff5555;stop-opacity:1.000000"
         id="stop128" />
      <stop
         offset="1.000000"
         style="stop-color:#ffffff;stop-opacity:1.000000"
         id="stop130" />
    </linearGradient>
    <linearGradient
       id="gradientStopsCoconut"
       inkscape:collect="always">
      <stop
         offset="0.000000"
         style="stop-color:#ffffff;stop-opacity:1.000000"
         id="stop133" />
      <stop
         offset="1.000000"
         style="stop-color:#c8c8c8;stop-opacity:0.000000"
         id="stop135" />
    </linearGradient>
    <linearGradient
       id="gradientStopsFlower"
       inkscape:collect="always">
      <stop
         offset="0.000000"
         style="stop-color:#b16dff;stop-opacity:1.000000"
         id="stop138" />
      <stop
         offset="1.000000"
         style="stop-color:#e7d2ff;stop-opacity:1.000000"
         id="stop140" />
    </linearGradient>
    <linearGradient
       id="gradientStopsJellyfish"
       inkscape:collect="always">
      <stop
         offset="0.000000"
         style="stop-color:#4f97ff;stop-opacity:1.000000"
         id="stop143" />
      <stop
         offset="1.000000"
         style="stop-color:#cfe3ff;stop-opacity:1.000000"
         id="stop145" />
    </linearGradient>
    <linearGradient
       id="gradientStopsShip"
       inkscape:collect="always">
      <stop
         offset="0.000000"
         style="stop-color:#b67800;stop-opacity:1.000000"
         id="stop148" />
      <stop
         offset="1.000000"
         style="stop-color:#d28b00;stop-opacity:1.000000"
         id="stop150" />
    </linearGradient>
    <linearGradient
       id="gradientFish"
       xlink:href="#gradientStopsFish"
       x1="178.789090"
       y1="-114.782830"
       x2="180.407300"
       y2="-103.782830"
       gradientTransform="translate(-178.76256,1.0606602)"
       gradientUnits="userSpaceOnUse"
       inkscape:collect="always" />
    <linearGradient
       id="gradientJellyfishTentacle1a"
       xlink:href="#gradientStopsJellyfish"
       x1="118.024030"
       y1="-110.827530"
       x2="121.753140"
       y2="-96.140030"
       gradientTransform="translate(-120,0)"
       gradientUnits="userSpaceOnUse"
       inkscape:collect="always" />
    <linearGradient
       id="gradientJellyfishTentacle1b"
       xlink:href="#gradientStopsJellyfish"
       x1="118.024030"
       y1="-110.827530"
       x2="121.753140"
       y2="-96.140030"
       gradientTransform="translate(-120,0)"
       gradientUnits="userSpaceOnUse"
       inkscape:collect="always" />
    <linearGradient
       id="gradientJellyfishTentacle2"
       xlink:href="#gradientStopsJellyfish"
       x1="118.218180"
       y1="-115.782610"
       x2="121.698270"
       y2="-97.813858"
       gradientTransform="translate(-120,0)"
       gradientUnits="userSpaceOnUse"
       inkscape:collect="always" />
    <linearGradient
       id="gradientJellyfishTentacle3"
       xlink:href="#gradientStopsJellyfish"
       x1="123.335370"
       y1="-114.610190"
       x2="116.678600"
       y2="-98.453941"
       gradientTransform="translate(-120,0)"
       gradientUnits="userSpaceOnUse"
       inkscape:collect="always" />
    <linearGradient
       id="gradientShip"
       xlink:href="#gradientStopsShip"
       x1="196.432910"
       y1="221.715270"
       x2="203.663250"
       y2="204.277770"
       gradientTransform="matrix(0.37654483,0.9263984,-0.9263984,0.37654483,355.66788,-318.43897)"
       gradientUnits="userSpaceOnUse"
       inkscape:collect="always" />
    <radialGradient
       id="gradientCoconut"
       xlink:href="#gradientStopsCoconut"
       cx="1.944096"
       cy="-60.612652"
       fx="1.944096"
       fy="-60.612652"
       r="6.723294"
       gradientUnits="userSpaceOnUse"
       gradientTransform="matrix(1.691364,-0.31394812,0.29762395,1.603419,17.826033,-7.042221)"
       inkscape:collect="always" />
    <radialGradient
       id="gradientFlower"
       xlink:href="#gradientStopsFlower"
       cx="60.884877"
       cy="-69.652750"
       fx="60.884877"
       fy="-69.652750"
       r="15.835310"
       gradientUnits="userSpaceOnUse"
       gradientTransform="matrix(0.8413905,0,0,0.87120012,-50.722984,-48.679159)"
       inkscape:collect="always" />
    <radialGradient
       id="gradientJellyfish"
       xlink:href="#gradientStopsJellyfish"
       cx="120.453410"
       cy="-112.943900"
       fx="120.453410"
       fy="-112.943900"
       r="10.580511"
       gradientUnits="userSpaceOnUse"
       gradientTransform="matrix(1.1662998,0.0435575,-0.04526952,1.2121402,-145.14628,17.080499)"
       inkscape:collect="always" />
  </defs>
  <sodipodi:namedview
     id="base"
     pagecolor="#ffffff"
     bordercolor="#666666"
     borderopacity="1.0"
     inkscape:pageopacity="0.0"
     inkscape:pageshadow="2"
     inkscape:zoom="2"
     inkscape:cx="42.37643"
     inkscape:cy="185.04449"
     inkscape:document-units="in"
     showgrid="true"
     units="in"
     inkscape:window-width="1392"
     inkscape:window-height="836"
     inkscape:window-x="39"
     inkscape:window-y="6"
     inkscape:window-maximized="0"
     inkscape:snap-grids="true"
     inkscape:snap-to-guides="true"
     inkscape:snap-nodes="true"
     inkscape:object-nodes="true"
     inkscape:snap-smooth-nodes="true"
     inkscape:snap-intersection-paths="true"
     inkscape:object-paths="true"
     inkscape:snap-bbox="true"
     inkscape:bbox-nodes="true"
     inkscape:snap-others="true"
     inkscape:bbox-paths="false"
     inkscape:snap-global="false"
     inkscape:current-layer="resources_layer">
    <inkscape:grid
       type="xygrid"
       id="grid3051"
       empspacing="2"
       visible="true"
       enabled="true"
       snapvisiblegridlinesonly="true"
       spacingx="0.0625in"
       spacingy="0.0625in"
       dotted="false"
       units="in" />
  </sodipodi:namedview>
  <g
     inkscape:groupmode="layer"
     id="water_layer"
     inkscape:label="Water"
     style="display:inline"
     sodipodi:insensitive="true">
    <rect
       id="water"
       style="fill:#b9deff;fill-opacity:1;stroke:none"
       x="0"
       y="0"
       width="247.5"
       height="337.5" />
  </g>
  <g
     inkscape:groupmode="layer"
     id="water_shallow_layer"
     inkscape:label="Water Shallow"
     style="display:inline"
     sodipodi:insensitive="true">
    <path
       style="fill:#9bd1ff;fill-opacity:0.70;fill-rule:evenodd;stroke:none;filter:url(#blurWaterShallow)"
       d="m 123.75,-11.25 0,22.5 c 0,0 1.24501,11.835674 4.25,16.75 2.89545,4.735182 8.63332,7.018251 12.5,11 6.18447,6.36851 14.67284,11.933211 17,20.5 2.16923,7.985403 -3.33114,16.252282 -4,24.5 -0.66012,8.139944 1.64204,16.50012 0,24.5 -1.53127,7.46024 -5.46547,14.25411 -9,21 -4.65715,8.8885 -11.88924,16.34598 -16,25.5 -3.4138,7.602 -4.7383,15.97945 -7,24 -2.88322,10.22462 -2.8096,21.70112 -8.375,30.75 -4.49757,7.31266 -12.43068,11.87513 -19.125,17.25 -6.66247,5.3493 -13.559912,10.45992 -20.875,14.875 -9.667776,5.83507 -19.12166,13.33325 -30.25,15.25 -10.471462,1.80361 -31.625,-4 -31.625,-4 l -22.5,0 0,95.625 135,0 0,-22.5 c 0,0 -1.59478,-6.8139 -2.25,-10.25 -1.17017,-6.13665 -2.72608,-12.25879 -3,-18.5 -0.30042,-6.84501 -0.63573,-13.98977 1.5,-20.5 2.92968,-8.9304 9.1046,-16.55521 15,-23.875 5.71083,-7.09063 13.60587,-12.18599 19.5,-19.125 7.12458,-8.38758 15.47739,-16.57396 19,-27 2.77617,-8.21676 0.70198,-17.33205 1,-26 0.37815,-10.99855 -1.455,-22.27227 1,-33 2.64631,-11.5637 8.02972,-22.55728 14.5,-32.5 5.02042,-7.71476 10.9092,-15.29404 18.5,-20.5 8.16838,-5.602088 27.75,-10.625 27.75,-10.625 l 22.5,0 0,-95.625 z"
       inkscape:connector-curvature="0"
       id="path166" />
  </g>
  <g
     inkscape:groupmode="layer"
     id="water_deep_layer"
     inkscape:label="Water Deep"
     style="display:inline"
     sodipodi:insensitive="true">
    <path
       style="fill:#87c8ff;fill-opacity:0.60;fill-rule:evenodd;stroke:none;filter:url(#blurWaterDeep)"
       d="m 180,-11.25 0,22.5 c 0,0 5.55981,11.064034 8,16.75 2.39259,5.575042 5.45363,11.02416 6.5,17 1.55255,8.866643 -8.33702,22.57181 -0.5,27 7.36757,4.162933 13.92373,-9.730228 21.5,-13.5 6.62342,-3.295652 20.75,-7.875 20.75,-7.875 l 22.5,0 0,-61.875 z M 81.078125,268.89844 C 74.25983,268.78649 66.34573,274.26039 59.5,276.5 c -7.092939,2.32049 -13.236384,7.28702 -20.5,9 -9.014075,2.1258 -27.75,1.375 -27.75,1.375 l -22.5,0 0,61.875 78.75,0 0,-22.5 c 0,-10 10.817141,-9.84311 15,-16.75 3.415472,-5.63975 7.721921,-12.41252 8,-19 0.286739,-6.79264 1.696647,-16.28915 -4,-20 -1.689863,-1.10079 -3.512752,-1.57022 -5.421875,-1.60156 z"
       inkscape:connector-curvature="0"
       id="path169" />
  </g>
  <g
     inkscape:groupmode="layer"
     id="water_hilight_layer"
     inkscape:label="Water Hilight"
     style="display:inline"
     sodipodi:insensitive="true">
    <use
       xlink:href="#shoreline"
       height="100%"
       width="100%"
       x="0"
       y="0"
       style="display:inline;fill:#ffffff;fill-opacity:1;stroke:#ffffff;stroke-opacity:1;filter:url(#blurWaterHilight)"
       id="use172" />
  </g>
  <g
     inkscape:groupmode="layer"
     id="land_layer"
     inkscape:label="Land"
     style="display:inline"
     sodipodi:insensitive="true">
    <use
       xlink:href="#shoreline"
       height="100%"
       width="100%"
       x="0"
       y="0"
       style="display:inline;fill:#ffddab;fill-opacity:1;stroke:none;stroke-width:1;stroke-miterlimit:4;stroke-dasharray:none;stroke-opacity:1"
       id="use175" />
  </g>
  <g
     inkscape:groupmode="layer"
     id="land_texture_layer"
     inkscape:label="Land Texture"
     style="display:inline"
     sodipodi:insensitive="true">
    <use
       xlink:href="#shoreline"
       height="100%"
       width="100%"
       x="0"
       y="0"
       style="display:inline;fill:#ffca7d;fill-opacity:1;stroke:none;stroke-width:1;stroke-miterlimit:4;stroke-dasharray:none;stroke-opacity:1;filter:url(#textureLand)"
       id="use178" />
  </g>
  <g
     inkscape:groupmode="layer"
     id="shoreline_layer"
     inkscape:label="Shoreline"
     style="display:inline"
     sodipodi:insensitive="true">
    <use
       xlink:href="#shoreline"
       height="100%"
       width="100%"
       x="0"
       y="0"
       style="display:inline;fill:none;fill-opacity:1;stroke:#5f4c14;stroke-width:1;stroke-miterlimit:4;stroke-dasharray:none;stroke-opacity:1"
       id="use181" />
  </g>
  <g
     inkscape:groupmode="layer"
     id="shoreline_master_layer"
     inkscape:label="Shoreline Master"
     style="display:none"
     sodipodi:insensitive="true">
    <path
       id="shoreline"
       style="color:#000000;clip-rule:nonzero;display:inline;overflow:visible;visibility:visible;opacity:1;isolation:auto;mix-blend-mode:normal;color-interpolation:sRGB;color-interpolation-filters:linearRGB;solid-color:#000000;solid-opacity:1;fill-opacity:1;fill-rule:evenodd;filter:url(#roughenShoreline);color-rendering:auto;image-rendering:auto;shape-rendering:auto;text-rendering:auto;enable-background:accumulate"
       d="M 33.046875,-30.9375 C 8.4375,-30.9375 -16.875,-28.125 -22.5,-22.5 c -7.954951,7.95495 -11.25,236.25 0,241.875 6.708203,3.3541 22.5,0 22.5,0 l 12,0.5 c 13.047038,0.54363 18.927984,14.13268 36.59375,-10.24609 9.007056,-12.42975 22.286175,-12.30124 32.082031,-33.86719 9.410702,-20.71802 -7.447852,-16.73075 -0.789062,-31.17383 3.03109,-6.57452 -0.098,-13.43859 8.642581,-17.79492 7.38404,-3.68023 12.14607,-16.6678 10.27539,-25.35156 -0.795037,-3.690596 18.73516,-5.553761 5.85156,-35.304691 -3.9794,-9.18928 -0.63003,-9.954705 -13.955078,-20.421875 C 81.690614,38.636814 83.67288,23.9632 84.375,16.875 c 1.01122,-10.20864 0,-14.07486 0,-16.875 0,-5.625 5.625,-11.25 0,-22.5 -2.8125,-5.625 -26.71875,-8.4375 -51.328125,-8.4375 z M 265.22656,116.31836 c -4.26294,-0.16706 -10.19326,1.65736 -17.72656,1.80664 -4.88806,0.0969 -13.96295,0.54885 -16.875,0 -18.18839,-3.42804 -16.56735,24.37918 -26.70312,37.00977 -9.5003,11.8387 -4.17277,35.50492 -3.92188,43.86523 0.23865,7.95259 -7.06878,41.01777 -17.70313,47.39649 -8.57503,5.14348 -17.38757,9.54494 -19.36132,15.51562 -3.28376,9.93353 -9.31124,9.04431 -11.56055,13.71289 -2.3505,4.87861 -2.36136,19.22119 1.18958,28.54783 3.55095,9.32664 10.6637,13.63734 10.56042,16.45217 -0.39822,10.85345 0,11.25 0,16.875 0,7.5 -5.3033,17.1967 0,22.5 5.625,5.625 101.25,5.625 106.875,0 5.625,-5.625 5.625,-236.25 0,-241.875 -1.24296,-1.24296 -2.83574,-1.7307 -4.77344,-1.80664 z"
       inkscape:connector-curvature="0" />
  </g>
  <g
     inkscape:groupmode="layer"
     id="grass_layer"
     inkscape:label="Grass"
     style="display:inline"
     sodipodi:insensitive="true">
    <use
       xlink:href="#grass"
       height="100%"
       width="100%"
       x="0"
       y="0"
       style="display:inline;fill:#b4e982;fill-opacity:1;stroke:none;stroke-width:1;stroke-miterlimit:4;stroke-dasharray:none;stroke-opacity:1"
       id="use186" />
  </g>
  <g
     inkscape:groupmode="layer"
     id="grass_texture1_layer"
     inkscape:label="Grass Texture Big"
     style="display:inline"
     sodipodi:insensitive="true">
    <use
       xlink:href="#grass"
       height="100%"
       width="100%"
       x="0"
       y="0"
       style="display:inline;fill:#a7e46a;fill-opacity:1;stroke:none;stroke-width:1;stroke-miterlimit:4;stroke-dasharray:none;stroke-opacity:1;filter:url(#textureGrassBig)"
       id="use189" />
  </g>
  <g
     inkscape:groupmode="layer"
     id="grass_texture2_layer"
     inkscape:label="Grass Texture Small"
     style="display:inline"
     sodipodi:insensitive="true">
    <use
       xlink:href="#grass"
       height="100%"
       width="100%"
       x="0"
       y="0"
       style="display:inline;fill:#8cdd3d;fill-opacity:1;stroke:none;stroke-width:1;stroke-miterlimit:4;stroke-dasharray:none;stroke-opacity:1;filter:url(#textureGrassSmall)"
       id="use192" />
  </g>
  <g
     inkscape:groupmode="layer"
     id="grass_master_layer"
     inkscape:label="Grass Master"
     style="display:none"
     sodipodi:insensitive="true">
    <path
       id="grass"
       style="color:#000000;clip-rule:nonzero;display:inline;overflow:visible;visibility:visible;opacity:1;isolation:auto;mix-blend-mode:normal;color-interpolation:sRGB;color-interpolation-filters:linearRGB;solid-color:#000000;solid-opacity:1;fill-opacity:1;fill-rule:evenodd;filter:url(#blurGrass);color-rendering:auto;image-rendering:auto;shape-rendering:auto;text-rendering:auto;enable-background:accumulate"
       d="m -11.25,-11.25 0,225 22.5,0 c 0,0 12.467675,4.5559 18.875,4 5.457516,-0.4735 10.672276,-3.11616 15.25,-6.125 5.638188,-3.70586 9.442505,-9.64641 14.375,-14.25 4.3384,-4.04911 10.09374,-6.80527 13.375,-11.75 3.278428,-4.94046 5.2512,-10.95752 5.625,-16.875 0.283852,-4.49355 -1.742426,-8.83484 -2.625,-13.25 -0.991494,-4.96004 -4.272717,-9.97957 -3,-14.875 1.241768,-4.77639 6.677402,-7.29177 9.625,-11.25 2.664545,-3.57813 4.887255,-7.46579 7.25,-11.25 2.217734,-3.55195 4.625993,-7.00529 6.5,-10.75 1.890632,-3.77793 3.9435,-7.6031 4.75,-11.75 0.7159,-3.681031 0.36952,-7.51825 0,-11.25 C 100.30792,74.860867 100.13627,64.679392 95.625,56.25 93.122595,51.574214 87.074959,49.564561 84.375,45 82.475173,41.788146 82.159738,37.869078 81.25,34.25 80.273788,30.366479 79.168966,26.48236 78.75,22.5 c -0.392355,-3.729418 0,-11.25 0,-11.25 l 0,-22.5 z m 236.25,135 c -3.56646,2.20419 -4.02055,7.37652 -5.625,11.25 -2.26903,5.47793 -3.22629,11.4526 -5.625,16.875 -2.37729,5.37399 -7.13922,9.6896 -8.625,15.375 -1.07457,4.11191 0.0115,8.50002 0,12.75 -0.0208,7.66675 0.47598,15.35681 -0.125,23 -0.43282,5.50459 -1.20561,11.00728 -2.5,16.375 -1.38996,5.76405 -2.97895,11.5689 -5.625,16.875 -3.34226,6.7022 -7.33875,13.32229 -12.75,18.5 -4.36869,4.18014 -10.9032,5.55535 -15.375,9.625 -4.96776,4.521 -9.79246,9.74872 -12.25,16 -1.91433,4.86951 -2.46551,10.48258 -1.5,15.625 1.05907,5.64071 5.38281,10.14665 7.75,15.375 2.20519,4.87054 6,14.875 6,14.875 l 0,22.5 90,0 0,-225 c 0,0 -15,0 -22.5,0 -3.75,0 -8.06006,-1.97149 -11.25,0 z"
       inkscape:connector-curvature="0" />
  </g>
  <g
     inkscape:groupmode="layer"
     id="forest_shadow_layer"
     inkscape:label="Forest Shadow"
     style="display:inline"
     sodipodi:insensitive="true">
    <g
       style="filter:url(#blurForestShadow)"
       id="g197">
      <use
         xlink:href="#forest"
         height="100%"
         width="100%"
         x="0"
         y="0"
         style="display:inline;opacity:0.75;fill:#258c1b;fill-opacity:1;filter:url(#roughenForest)"
         id="use199" />
    </g>
  </g>
  <g
     inkscape:groupmode="layer"
     id="forest_fill_layer"
     inkscape:label="Forest Fill"
     style="display:inline"
     sodipodi:insensitive="true">
    <use
       xlink:href="#forest"
       height="100%"
       width="100%"
       x="0"
       y="0"
       style="fill:#83d700;fill-opacity:1;stroke:none;stroke-width:1.5;stroke-miterlimit:4;stroke-dasharray:none;stroke-opacity:1;filter:url(#roughenForest)"
       id="use202" />
  </g>
  <g
     inkscape:groupmode="layer"
     id="forest_texture_big_layer"
     inkscape:label="Forest Texture Big"
     style="display:inline"
     sodipodi:insensitive="true">
    <g
       style="filter:url(#textureForestBig)"
       id="g205">
      <use
         xlink:href="#forest"
         height="100%"
         width="100%"
         x="0"
         y="0"
         style="fill:#548c00;fill-opacity:1;stroke:none;stroke-width:1.5;stroke-miterlimit:4;stroke-dasharray:none;stroke-opacity:1;filter:url(#roughenForest)"
         id="use207" />
    </g>
  </g>
  <g
     inkscape:groupmode="layer"
     id="forest_texture_small_layer"
     inkscape:label="Forest Texture Small"
     style="display:inline"
     sodipodi:insensitive="true">
    <g
       style="filter:url(#textureForestSmall)"
       id="g210">
      <use
         xlink:href="#forest"
         height="100%"
         width="100%"
         x="0"
         y="0"
         style="fill:#78c125;fill-opacity:1;stroke:none;stroke-width:1;stroke-miterlimit:4;stroke-dasharray:none;stroke-opacity:1;filter:url(#roughenForest)"
         id="use212" />
    </g>
  </g>
  <g
     inkscape:groupmode="layer"
     id="forest_outline_layer"
     inkscape:label="Forest Outline"
     style="display:inline"
     sodipodi:insensitive="true">
    <use
       xlink:href="#forest"
       height="100%"
       width="100%"
       x="0"
       y="0"
       style="fill:none;fill-opacity:1;stroke:#006800;stroke-width:1.5;stroke-miterlimit:4;stroke-dasharray:none;stroke-opacity:1;filter:url(#roughenForest)"
       id="use215" />
  </g>
  <g
     inkscape:groupmode="layer"
     id="forest_master_layer"
     inkscape:label="Forest Master"
     style="display:none"
     sodipodi:insensitive="true">
    <path
       id="forest"
       style="color:#000000;clip-rule:nonzero;display:inline;overflow:visible;visibility:visible;opacity:1;isolation:auto;mix-blend-mode:normal;color-interpolation:sRGB;color-interpolation-filters:linearRGB;solid-color:#000000;solid-opacity:1;fill-opacity:1;fill-rule:nonzero;color-rendering:auto;image-rendering:auto;shape-rendering:auto;text-rendering:auto;enable-background:accumulate"
       d="m 51.5,-8.5 c -2.129368,4.903e-4 -4.123486,1.1241423 -5.337891,3.0078125 C 46.108105,-5.495518 46.054064,-5.4981224 46,-5.5 44.195569,-5.496861 42.473549,-4.6860826 41.246094,-3.2617188 40.12271,-5.5589934 37.910905,-6.9979448 35.5,-7 34.7297,-6.99798 33.965867,-6.8485177 33.244141,-6.5585938 32.258059,-7.173156 31.139303,-7.4978039 30,-7.5 c -1.242719,-5.2e-6 -2.459395,0.3836374 -3.505859,1.1054688 C 25.451035,-7.1140513 24.238732,-7.4975968 23,-7.5 20.382537,-7.4994205 18.020764,-5.808151 17.007812,-3.2089844 15.821025,-5.2546838 13.739834,-6.4982324 11.5,-6.5 9.6864184,-6.4965867 7.9566292,-5.6773619 6.7285156,-4.2402344 6.1658069,-4.4101098 5.5843954,-4.4974858 5,-4.5 3.7650045,-4.4994968 2.5556993,-4.120107 1.5136719,-3.40625 1.1785747,-3.4659738 0.83964613,-3.4973198 0.5,-3.5 c -3.5898509,0 -6.5,3.13400675 -6.5,7 0.00162,0.6768513 0.094378,1.3498723 0.2753906,1.9980469 C -5.9059697,6.1474754 -5.9987359,6.8218393 -6,7.5 c 0.00251,1.5011499 0.4530581,2.961668 1.2851562,4.166016 C -5.2299651,12.689725 -5.4998302,13.835645 -5.5,15 c 0.00279,1.17947 0.2822699,2.339058 0.8125,3.371094 C -4.8930972,19.0591 -4.9985132,19.777246 -5,20.5 c 9.112e-4,3.846418 2.8834898,6.971464 6.4550781,6.998047 -0.82680866,0.874308 -1.42155748,1.97075 -1.72265622,3.175781 C -2.5435249,31.827195 -3.9972644,34.291173 -4,37 c 2.378e-4,0.858795 0.1472165,1.710212 0.4335938,2.511719 C -3.8501711,40.305871 -3.997105,41.149086 -4,42 c 0.0033,1.719629 0.5942546,3.377783 1.6601562,4.658203 -2.9213656,0.666776 -5.0450173,3.391431 -5.1484374,6.605469 C -8.1467021,54.381082 -8.4975022,55.676604 -8.5,57 c 0.00257,1.274253 0.3280697,2.523581 0.9414062,3.613281 C -8.4895074,61.855726 -8.9980915,63.40353 -9,65 c 0.00123,1.795576 0.6431278,3.521984 1.7929688,4.822266 C -8.0441339,71.028784 -8.4975695,72.493888 -8.5,74 c 0.00178,1.856335 0.6881684,3.635895 1.9082031,4.947266 C -7.1837303,80.022906 -7.4973309,81.249657 -7.5,82.5 c 0.00178,1.856335 0.6881684,3.635895 1.9082031,4.947266 C -6.1837303,88.522906 -6.4973309,89.749657 -6.5,91 c 0.00303,2.136864 0.9122172,4.155204 2.46875,5.480469 C -5.2900856,97.798617 -6.0002052,99.60914 -6,101.5 c 0.00173,0.92496 0.1736591,1.84038 0.5058594,2.69336 0.07082,2.68411 1.561135,5.08804 3.8359375,6.1875 C -0.43471985,111.73539 1.2453128,112.49969 3,112.5 3.7702999,112.498 4.5341337,112.34852 5.2558594,112.05859 6.241941,112.67315 7.3606965,112.9978 8.5,113 c 1.2287859,-7.7e-4 2.4322,-0.37662 3.470703,-1.08398 C 15.14773,111.39928 17.497483,108.46022 17.5,105 17.4981,104.44306 17.43451,103.88836 17.310547,103.34766 20.328971,102.67852 22.496221,99.818765 22.5,96.5 22.496,93.047488 20.15511,90.113735 16.986328,89.589844 16.973218,89.334592 16.947138,89.080305 16.908198,88.828125 17.972432,89.590581 19.221784,89.998199 20.5,90 21.598375,89.9973 22.678207,89.694944 23.638672,89.121094 24.755627,90.01382 26.109045,90.497135 27.5,90.5 30.928721,90.495 33.764224,87.622753 33.978516,83.9375 35.211878,85.557947 37.054415,86.498207 39,86.5 c 3.229473,-0.0043 5.966232,-2.561401 6.425781,-6.003906 0.02473,0.0015 0.04947,0.0028 0.07422,0.0039 3.589851,0 6.5,-3.134007 6.5,-7 -0.003,-2.460193 -1.204946,-4.738117 -3.166016,-6 0.882154,-0.568596 1.626488,-1.35443 2.171875,-2.292969 C 51.930404,65.726145 52.957342,65.998119 54,66 c 3.589851,0 6.5,-3.134007 6.5,-7 3e-5,-0.861552 -0.147626,-1.715709 -0.435547,-2.519531 C 61.302101,55.165839 61.999198,53.372096 62,51.5 61.996851,49.802028 61.420718,48.163171 60.378906,46.888672 60.748911,46.96063 61.124015,46.997879 61.5,47 c 3.589851,0 6.5,-3.134007 6.5,-7 0,-3.865993 -2.910149,-7 -6.5,-7 0,-3.865993 -2.910149,-7 -6.5,-7 -0.156417,4.34e-4 -0.312769,0.0069 -0.46875,0.01953 C 53.384796,25.038469 51.964324,24.503039 50.5,24.5 c -0.147929,4.25e-4 -0.295801,0.0063 -0.443359,0.01758 0.139654,-0.384183 0.247495,-0.780909 0.322265,-1.185547 2.173449,-0.510327 3.953618,-2.182182 4.71875,-4.43164 C 58.218816,18.324508 60.500418,15.410226 60.5,12 60.498385,11.323149 60.405622,10.650128 60.224609,10.001953 60.405969,9.3525246 60.498736,8.6781607 60.5,8 60.497905,6.9610174 60.281072,5.935566 59.865234,4.9980469 60.280548,4.061718 60.497367,3.0376637 60.5,2 60.498964,-0.32766407 59.423616,-2.5025161 57.630859,-3.8027344 56.721959,-6.6126023 54.262937,-8.496625 51.5,-8.5 Z M 40.253906,4.7617188 c 0.05933,0.1191125 0.121861,0.2363491 0.1875,0.3515624 C 40.336144,5.2510289 40.235811,5.3930597 40.140625,5.5390625 40.068742,5.400901 39.992526,5.2654063 39.912109,5.1328125 40.030291,5.0137402 40.144303,4.889956 40.253906,4.7617188 Z M 23.498047,18.71875 c 0.399095,0.68197 0.904573,1.284578 1.494141,1.78125 -1.093425,0.004 -2.168254,0.304913 -3.125,0.875 -0.129035,-0.15753 -0.264589,-0.308724 -0.40625,-0.453125 0.823806,-0.560637 1.520013,-1.313582 2.037109,-2.203125 z m 9.248047,1.990234 c 0.397951,0.304085 0.826432,0.558946 1.277344,0.759766 -0.260767,0.219165 -0.505619,0.459446 -0.732422,0.71875 -0.637423,-0.327827 -1.320204,-0.541567 -2.021485,-0.632812 0.52395,-0.212252 1.020244,-0.496506 1.476563,-0.845704 z m 2.46289,12.603516 c 0.768452,0.393972 1.601268,0.621586 2.451172,0.669922 -0.02635,0.132074 -0.04915,0.264942 -0.06836,0.398437 C 36.918603,34.131396 36.211928,34.002729 35.5,34 c -0.37447,-2.16e-4 -0.748256,0.03442 -1.117188,0.103516 0.295749,-0.237928 0.572139,-0.502557 0.826172,-0.791016 z m 6.699219,8.806641 c 0.515402,0.189267 1.050847,0.308036 1.59375,0.353515 L 43.5,42.5 c 0.0022,0.555629 0.06578,1.109003 0.189453,1.648438 l -0.002,-0.002 c -0.578972,-0.521714 -1.237911,-0.930824 -1.947266,-1.208984 0.07112,-0.268929 0.127207,-0.542205 0.167969,-0.818359 z M 56.300781,44.1875 c 0.101608,0.145712 0.20846,0.287096 0.320313,0.423828 -0.134733,-0.02674 -0.270217,-0.04889 -0.40625,-0.06641 0.03156,-0.118306 0.06022,-0.237488 0.08594,-0.357418 z m -8.904297,4.722656 c 0.600442,0.283158 1.237202,0.466877 1.888672,0.544922 C 49.096623,50.117757 49.000523,50.806915 49,51.5 c -3e-5,0.861552 0.147626,1.715709 0.435547,2.519531 -0.190051,0.204715 -0.368127,0.421929 -0.533203,0.650391 C 48.965275,54.283583 48.997942,53.892232 49,53.5 48.996894,51.811877 48.427417,50.181827 47.396484,48.910156 Z M 29.800781,50.6875 c 0.08131,0.116755 0.165984,0.230743 0.253907,0.341797 -0.11052,-0.0089 -0.221234,-0.01477 -0.332032,-0.01758 0.02844,-0.107386 0.05449,-0.21549 0.07813,-0.324217 z m 5.5,4.154297 c 0.07361,0.0636 0.148498,0.125461 0.22461,0.185547 -0.0501,-0.0032 -0.100234,-0.0058 -0.150391,-0.0078 -0.02397,-0.05961 -0.04872,-0.118863 -0.07422,-0.177734 z m -17.326172,1.673828 c 0.174531,0.182179 0.358414,0.353673 0.550782,0.513672 C 18.3507,57.0119 18.175426,57.002126 18,57 c -0.02539,5.06e-4 -0.05078,0.0012 -0.07617,0.002 0.02219,-0.161422 0.03912,-0.323631 0.05078,-0.486328 z m 4,1.955078 C 22.1493,58.4881 22.324574,58.497874 22.5,58.5 c 0.172119,-0.0011 0.34413,-0.0096 0.515625,-0.02539 0.02926,0.470291 0.102545,0.936197 0.21875,1.390625 -0.357597,-0.525729 -0.781614,-0.995105 -1.259766,-1.394532 z M 3.8984375,63.775391 c 0.3841121,0.105397 0.7763713,0.172735 1.171875,0.201171 0.024821,0.188171 0.056749,0.375175 0.095703,0.560547 C 4.9447462,64.512474 4.7224485,64.500088 4.5,64.5 4.3278806,64.5011 4.1558701,64.5096 3.984375,64.52539 3.96829,64.273906 3.939602,64.023541 3.898438,63.775391 Z m 23.5039065,0.841797 c 0.556324,0.204421 1.135826,0.326629 1.722656,0.363281 0.08785,0.198134 0.184314,0.391708 0.289062,0.580078 -0.417027,0.365559 -0.790322,0.785434 -1.111328,1.25 -0.180738,-0.781454 -0.485337,-1.52346 -0.90039,-2.193359 z m 13.013672,1.24414 c 0.487407,0.654777 1.080172,1.209833 1.75,1.638672 -0.923702,0.595776 -1.695511,1.429329 -2.246094,2.425781 -0.128836,-0.878297 -0.411877,-1.722118 -0.833984,-2.486328 0.515557,-0.449847 0.964114,-0.982055 1.330078,-1.578125 z M 10.833984,69.962891 C 11.055253,69.987526 11.277551,69.999912 11.5,70 c 0.02409,-5.22e-4 0.04818,-0.0012 0.07227,-0.002 l 0,0.0059 C 11.548187,70.002456 11.524097,70.001156 11.5,70 c -0.217328,0.0026 -0.434397,0.01695 -0.650391,0.04297 -0.0051,-0.02673 -0.01028,-0.05342 -0.01563,-0.08008 z m 9.865235,5.396484 c 0.311932,0.06519 0.627883,0.105667 0.945312,0.121094 -0.08666,0.195211 -0.164869,0.394643 -0.234375,0.597656 C 21.108846,76.02914 20.804711,76.003034 20.5,76 c -0.863668,0.0026 -1.718201,0.190474 -2.513672,0.552734 -0.01263,-0.186314 -0.03217,-0.37201 -0.05859,-0.55664 0.02408,0.0014 0.04817,0.0027 0.07227,0.0039 0.931982,-0.0027 1.852531,-0.221157 2.699219,-0.640625 z M 5.2109375,78.75 c 0.1060942,0.441338 0.2519692,0.87046 0.4355469,1.28125 C 5.5117233,80.242518 5.3878388,80.461598 5.2753906,80.6875 5.1176675,80.060655 4.8797082,79.460498 4.5683594,78.904297 4.7848348,78.864587 4.9993025,78.813089 5.2109375,78.75 Z M 4.7246094,85.8125 C 4.7764976,86.018501 4.8371078,86.221839 4.90625,86.421875 4.8055555,86.294827 4.7006707,86.171701 4.5917969,86.052734 4.6375484,85.973616 4.6818281,85.893522 4.7246094,85.8125 Z M 59,108.5 c -3.589851,0 -6.5,3.13401 -6.5,7 0.0035,2.18309 0.952591,4.23942 2.566406,5.56055 C 53.160595,122.33742 52.001345,124.58282 52,127 c 0,3.86599 2.910149,7 6.5,7 2.043343,-0.004 3.966198,-1.04166 5.191406,-2.80273 1.229762,1.46327 2.975968,2.29949 4.808594,2.30273 3.589851,0 6.5,-3.13401 6.5,-7 0,-3.86599 -2.910149,-7 -6.5,-7 -2.043343,0.004 -3.966198,1.04166 -5.191406,2.80273 -0.266614,-0.31589 -0.559501,-0.60485 -0.875,-0.86328 1.905811,-1.27687 3.065061,-3.52227 3.066406,-5.93945 0,-3.86599 -2.910149,-7 -6.5,-7 z m -47,14 c -0.845766,0.002 -1.68303,0.18185 -2.4648438,0.5293 C 9.3572206,123.01162 9.1786835,123.00184 9,123 7.2182858,123.003 5.5159433,123.79412 4.2910156,125.1875 3.4196894,124.73778 2.4662235,124.50292 1.5,124.5 1.0841869,124.502 0.66952616,124.5473 0.26171875,124.63477 -0.15377101,124.54567 -0.57635383,124.50054 -1,124.5 c -3.5898509,0 -6.5,3.13401 -6.5,7 0,3.86599 2.9101491,7 6.5,7 0.41581309,-0.002 0.83047384,-0.0473 1.23828125,-0.13477 0.30241975,0.0617 0.60852859,0.10023 0.91601565,0.11524 0.2565457,1.28401 0.843354,2.4644 1.6933593,3.40625 C 0.78415019,143.11908 -0.49716341,145.45893 -0.5,148 c 0.002081,2.01143 0.80751797,3.9247 2.2109375,5.25195 C 0.30846524,154.5783 -0.49687907,156.48993 -0.5,158.5 c 3.2098e-4,0.14595 0.004881,0.29186 0.0136719,0.4375 C -1.7716729,160.25781 -2.4992889,162.08708 -2.5,164 l 0,0.0293 c -0.7635725,0.99453 -1.2570038,2.19702 -1.4257812,3.47461 -0.024733,-10e-4 -0.049473,-0.003 -0.074219,-0.004 -3.5898509,0 -6.4999998,3.13401 -6.4999998,7 0.0034,2.70478 1.4534843,5.16542 3.7246092,6.32031 0.7641413,3.05567 3.3368861,5.17921 6.2753906,5.17969 0.67682001,-0.003 1.34898262,-0.12078 1.9921875,-0.34766 C 2.1403755,185.88096 2.8179368,185.99828 3.5,186 c 1.2287859,-7.7e-4 2.4322,-0.37662 3.4707031,-1.08398 0.1771571,-0.0299 0.3530889,-0.0677 0.5273438,-0.11329 C 7.9898598,184.93123 8.4939251,184.99744 9,185 c 0.5047677,-0.003 1.007505,-0.0691 1.498047,-0.19727 0.491813,0.1285 0.995878,0.19471 1.501953,0.19727 2.140984,2.1e-4 4.144756,-1.13499 5.357422,-3.03516 0.213522,0.0231 0.427978,0.0349 0.642578,0.0352 0.708549,-0.003 1.411837,-0.13124 2.082031,-0.37891 1.199816,1.2041 2.777943,1.87526 4.417969,1.87891 3.239329,-0.004 5.98139,-2.57631 6.429688,-6.03125 0.189587,0.0194 0.379875,0.0298 0.570312,0.0312 3.132554,-0.003 5.817723,-2.41112 6.386719,-5.72852 0.526749,0.14865 1.068755,0.22542 1.613281,0.22852 3.589851,0 6.5,-3.13401 6.5,-7 0,-3.86599 -2.910149,-7 -6.5,-7 -0.882269,0.003 -1.754804,0.19867 -2.564453,0.57617 C 36.505916,155.10102 33.755395,152.5041 30.5,152.5 c -0.189786,0.001 -0.37942,0.0119 -0.568359,0.0312 -0.181448,-1.38905 -0.746224,-2.68735 -1.621094,-3.72656 C 30.563252,147.64134 31.997462,145.1905 32,142.5 c 0,-3.86599 -2.910149,-7 -6.5,-7 -0.437125,0.002 -0.872925,0.052 -1.300781,0.14844 C 23.061523,133.40186 20.876171,132.00288 18.5,132 c -0.147929,4.3e-4 -0.295801,0.006 -0.443359,0.0176 0.290371,-0.80267 0.440675,-1.65616 0.443359,-2.51758 0,-3.86599 -2.910149,-7 -6.5,-7 z m 7.800781,23.35156 c 0.246006,0.48407 0.544301,0.93512 0.888672,1.34375 -1.192317,0.6164 -2.181659,1.60983 -2.835937,2.84766 -0.177821,-0.27996 -0.374303,-0.54564 -0.587891,-0.79492 0.788022,-0.91584 1.33424,-2.04199 1.582031,-3.26172 0.320362,-0.0195 0.638941,-0.0646 0.953125,-0.13477 z M 232,146.5 c -3.58985,0 -6.5,3.13401 -6.5,7 0.001,0.11597 0.005,0.2319 0.0117,0.34766 -0.99931,-2.62845 -3.37435,-4.34607 -6.0117,-4.34766 -3.58985,0 -6.5,3.13401 -6.5,7 0,3.86599 2.91015,7 6.5,7 3.58985,0 6.5,-3.13401 6.5,-7 -0.001,-0.11597 -0.005,-0.2319 -0.0117,-0.34766 0.40616,1.06728 1.05092,2.00993 1.87695,2.74414 -2.61089,0.97766 -4.36201,3.62668 -4.36525,6.60352 0,3.86599 2.91015,7 6.5,7 0.21599,-0.002 0.43175,-0.0158 0.64648,-0.041 0.62013,0.97101 1.45787,1.75769 2.43555,2.28711 -0.9786,0.52968 -1.81706,1.31708 -2.4375,2.28907 -0.21417,-0.0232 -0.42928,-0.035 -0.64453,-0.0352 -3.58985,0 -6.5,3.13401 -6.5,7 0.002,0.72494 0.10893,1.44512 0.31641,2.13477 -2.32061,1.13284 -3.81265,3.62134 -3.81641,6.36523 0.003,2.45598 1.20059,4.73073 3.15625,5.99414 -0.10252,0.49439 -0.15492,0.9993 -0.15625,1.50586 0,3.86599 2.91015,7 6.5,7 0.0247,-5.1e-4 0.0495,-0.001 0.0742,-0.002 0.46035,3.44176 3.1969,5.99783 6.4258,6.002 1.58079,-0.003 3.10631,-0.6268 4.29102,-1.75391 1.0886,0.81565 2.38282,1.25319 3.70898,1.25391 0.33955,-0.001 0.67848,-0.0314 1.01367,-0.0898 0.32618,0.0569 0.65591,0.0869 0.98633,0.0898 3.58985,0 6.5,-3.13401 6.5,-7 -0.003,-1.94435 -0.75771,-3.79954 -2.08203,-5.12109 0.38147,-0.9043 0.57987,-1.88567 0.58203,-2.87891 -0.001,-0.44788 -0.0425,-0.89458 -0.12305,-1.33398 1.35015,-1.32435 2.12068,-3.19929 2.12305,-5.16602 -0.002,-1.76265 -0.62132,-3.45962 -1.73438,-4.75195 1.11221,-1.29134 1.73152,-2.98675 1.73438,-4.74805 -0.001,-2.54361 -1.28365,-4.88631 -3.34961,-6.11914 0.63721,-0.70576 1.12903,-1.54832 1.44336,-2.47266 2.36893,-1.11023 3.90243,-3.62593 3.90625,-6.4082 -0.003,-2.6544 -1.40013,-5.07853 -3.60742,-6.25977 0.07,-0.40915 0.10591,-0.8242 0.10742,-1.24023 0,-3.86599 -2.91015,-7 -6.5,-7 -0.8365,0.002 -1.6648,0.17762 -2.43945,0.51758 -0.72968,0.0553 -1.44547,0.24282 -2.11719,0.55469 -0.6354,-0.42672 -1.33448,-0.732 -2.06641,-0.90235 C 237.78566,148.8797 235.1119,146.50239 232,146.5 Z M 63.5,152 c -3.589851,0 -6.5,3.13401 -6.5,7 -1.36e-4,2.31552 1.063006,4.48129 2.839844,5.78516 C 59.616659,165.49894 59.501902,166.24684 59.5,167 c 1.23e-4,0.17924 0.0066,0.35841 0.01953,0.53711 -2.430286,1.08053 -4.01676,3.63138 -4.01953,6.46289 0,3.86599 2.910149,7 6.5,7 3.589851,0 6.5,-3.13401 6.5,-7 -1.22e-4,-0.17924 -0.0066,-0.35841 -0.01953,-0.53711 2.430287,-1.08053 4.01676,-3.63138 4.01953,-6.46289 1.36e-4,-2.31552 -1.063006,-4.48129 -2.839844,-5.78516 C 69.883341,160.50106 69.998098,159.75316 70,159 c 0,-3.86599 -2.910149,-7 -6.5,-7 z m 176.07227,22.34375 c 0.57718,0.94554 1.35861,1.7263 2.27734,2.27539 -0.15128,0.1673 -0.29469,0.34265 -0.42969,0.52539 -0.62606,-1.01827 -1.4886,-1.84243 -2.50195,-2.39062 0.22531,-0.12291 0.44378,-0.25987 0.6543,-0.41016 z M 237,224.5 c -2.6963,0.003 -5.11066,1.7993 -6.06836,4.51367 -0.77246,-0.33756 -1.59801,-0.51196 -2.43164,-0.51367 -3.58985,0 -6.5,3.13401 -6.5,7 8.6e-4,0.19561 0.009,0.39109 0.0254,0.58594 -1.8212,1.24396 -2.95089,3.3797 -3.01562,5.70117 -2.15543,1.20266 -3.50894,3.59859 -3.50978,6.21289 0.003,2.1986 0.96497,4.26794 2.59766,5.58789 -0.81912,-0.3863 -1.70344,-0.58644 -2.59766,-0.58789 -3.58985,0 -6.5,3.13401 -6.5,7 -0.67682,0.003 -1.34898,0.12078 -1.99219,0.34766 C 206.35962,260.11905 205.68206,260.00172 205,260 c -3.58985,0 -6.5,3.13401 -6.5,7 4.8e-4,0.0306 0.001,0.0612 0.002,0.0918 -0.3313,-0.0584 -0.6663,-0.0891 -1.002,-0.0918 -3.58985,0 -6.5,3.13401 -6.5,7 0.003,1.26186 0.32172,2.49952 0.92383,3.58203 -1.49522,0.69568 -2.69342,1.97056 -3.35742,3.57227 C 187.50759,280.40318 186.2679,280.00194 185,280 c -3.58985,0 -6.5,3.13401 -6.5,7 8.6e-4,2.54317 1.28245,4.88577 3.34766,6.11914 -2.33761,1.12517 -3.84406,3.62343 -3.84766,6.38086 0,3.86599 2.91015,7 6.5,7 3.43963,-10e-4 6.28287,-2.8882 6.48633,-6.58594 1.43906,-0.2397 2.7617,-0.99284 3.75586,-2.13867 1.18005,1.1084 2.69198,1.7208 4.25781,1.72461 0.14205,-1.9e-4 0.28405,-0.005 0.42578,-0.0156 0.0484,0.13254 0.10047,0.26346 0.15625,0.39257 -0.6703,-0.24701 -1.37358,-0.37434 -2.08203,-0.37697 -2.7114,0.004 -5.13561,1.82032 -6.08203,4.55664 -1.52808,1.328 -2.41682,3.32873 -2.41797,5.44336 0.003,1.00567 0.20651,1.99891 0.59766,2.91211 -1.0284,1.27207 -1.59574,2.90125 -1.59766,4.58789 0.002,1.5294 0.46929,3.01598 1.33008,4.23242 -1.76836,1.30273 -2.82703,3.46024 -2.83008,5.76758 0.001,0.10033 0.005,0.20061 0.01,0.30078 -0.004,0.0663 -0.008,0.13277 -0.01,0.19922 0.002,0.92496 0.17366,1.84038 0.50586,2.69336 0.0162,0.61166 0.10683,1.2184 0.26953,1.80469 -0.18136,0.64943 -0.27413,1.32379 -0.27539,2.00195 0.002,0.24544 0.0167,0.49057 0.043,0.73438 -0.0273,0.25417 -0.0417,0.50976 -0.043,0.76562 0,3.86599 2.91015,7 6.5,7 2.23458,-0.003 4.31093,-1.24245 5.49805,-3.28125 1.18786,2.04006 3.26599,3.27942 5.50195,3.28125 0.93198,-0.003 1.85253,-0.22115 2.69922,-0.64062 0.4281,0.0938 0.8639,0.14094 1.30078,0.14062 1.93426,-8.6e-4 3.76767,-0.92938 5.00195,-2.5332 1.23341,1.60269 3.06516,2.53109 4.99805,2.5332 1.45172,-10e-4 2.86125,-0.52591 4.00391,-1.49023 1.14055,0.96254 2.54705,1.48706 3.99609,1.49023 1.9168,-1.8e-4 3.7358,-0.91147 4.9707,-2.49023 1.21152,1.27326 2.83648,1.98729 4.5293,1.99023 1.38854,-0.003 2.73968,-0.48495 3.85547,-1.375 0.96254,0.57352 2.04449,0.87459 3.14453,0.875 1.47345,-1.1e-4 2.90315,-0.53935 4.05469,-1.5293 3.36119,-0.31003 5.9435,-3.33771 5.94531,-6.9707 -0.002,-1.75651 -0.61808,-3.44782 -1.72461,-4.73828 1.41087,-1.3268 2.22169,-3.24455 2.22461,-5.26172 -0.001,-1.3601 -0.37052,-2.69034 -1.0625,-3.82812 -0.23351,-0.57157 -0.53698,-1.10692 -0.90234,-1.5918 0.30482,-0.82071 0.46255,-1.69616 0.46484,-2.58008 -0.003,-1.94803 -0.75956,-3.80662 -2.08789,-5.12891 0.70842,-1.14698 1.08685,-2.49356 1.08789,-3.87109 -0.002,-1.64517 -0.54212,-3.237 -1.52539,-4.49609 0.98488,-1.26115 1.52504,-2.85605 1.52539,-4.50391 -0.003,-2.46019 -1.20495,-4.73812 -3.16602,-6 1.96107,-1.26188 3.16306,-3.53981 3.16602,-6 -0.002,-1.03898 -0.21893,-2.06443 -0.63477,-3.00195 0.41532,-0.93633 0.63214,-1.96038 0.63477,-2.99805 -0.001,-2.08876 -0.86868,-4.06778 -2.36523,-5.39648 2.61088,-0.97767 4.362,-3.62668 4.36523,-6.60352 -0.003,-0.76578 -0.12219,-1.52587 -0.35352,-2.25 0.23133,-0.72413 0.35075,-1.48422 0.35352,-2.25 -2.2e-4,-2.3097 -1.05839,-4.47063 -2.82812,-5.77539 0.85859,-1.21458 1.32498,-2.69812 1.32812,-4.22461 -0.002,-1.63916 -0.53867,-3.22547 -1.51562,-4.48242 -0.0413,-0.60243 -0.15492,-1.19656 -0.3379,-1.76758 0.23133,-0.72413 0.35075,-1.48422 0.35352,-2.25 -0.003,-1.43634 -0.41622,-2.83692 -1.18359,-4.01172 3.46151,-0.18168 6.1819,-3.25607 6.18359,-6.98828 -0.004,-3.71068 -2.69647,-6.77309 -6.13672,-6.98047 -1.01368,-0.66405 -2.17679,-1.01663 -3.36328,-1.01953 -0.50477,0.003 -1.00751,0.0691 -1.49805,0.19727 -0.49181,-0.1285 -0.99588,-0.1947 -1.50195,-0.19727 -0.59437,9.3e-4 -1.18582,0.0896 -1.75781,0.26367 -0.14895,-0.0475 -0.29944,-0.0891 -0.45117,-0.125 -0.42497,-0.0925 -0.85746,-0.13893 -1.29102,-0.13867 -0.33955,0.001 -0.67848,0.0314 -1.01367,0.0898 C 237.66015,224.5329 237.33042,224.5029 237,224.5 Z m -8.68555,25.12695 c 0.39714,1.33752 1.15864,2.5155 2.18555,3.38086 0.003,1.14255 0.26471,2.26707 0.76367,3.27539 -0.31033,0.23332 -0.60115,0.49539 -0.86914,0.78321 -0.79607,-1.85369 -2.30418,-3.24052 -4.12891,-3.79688 1.01766,-0.95557 1.73375,-2.2287 2.04883,-3.64258 z m -8.91211,4.78516 c 0.27033,0.12631 0.54831,0.23267 0.83204,0.31836 -0.0811,0.0728 -0.16057,0.14767 -0.23829,0.22461 -0.18766,-0.19361 -0.38593,-0.37493 -0.59375,-0.54297 z m 0.60157,10.63281 c 0.63722,0.65769 1.39215,1.16873 2.21875,1.50196 -0.23989,-0.0301 -0.48115,-0.0457 -0.72266,-0.0469 -0.76964,0.002 -1.5328,0.15173 -2.25391,0.44141 -0.47645,-0.19063 -0.97203,-0.32043 -1.47656,-0.38672 0.83278,-0.33351 1.59323,-0.84734 2.23438,-1.50977 z m 7.50976,1.15235 c -0.007,0.10079 -0.0111,0.20173 -0.0137,0.30273 8e-4,0.61009 0.0756,1.21745 0.22266,1.80664 -0.26329,0.55001 -0.45769,1.13519 -0.57813,1.74024 -0.75176,-1.42371 -1.94328,-2.51848 -3.36719,-3.09376 0.23989,0.0301 0.48115,0.0457 0.72266,0.0469 1.05002,-0.002 2.08406,-0.27694 3.01367,-0.80273 z m -13.29297,13.62109 c 0.25459,0.13153 0.51686,0.24505 0.78516,0.33984 0.0265,1.17236 0.32599,2.31878 0.87109,3.33399 C 215.12024,283.1693 214.31394,283.00234 213.5,283 c -0.50876,0.003 -1.01549,0.0694 -1.50977,0.19922 -0.0102,-0.25179 -0.0331,-0.50281 -0.0684,-0.75195 0.96658,-0.64471 1.75923,-1.55117 2.29882,-2.62891 z m 4.90235,6.68945 c 0.32392,0.13867 0.65768,0.24905 0.99804,0.33008 -0.19991,0.19424 -0.38843,0.40167 -0.56445,0.62109 -0.12201,-0.3284 -0.26695,-0.64637 -0.43359,-0.95117 z m 20.09961,2.0625 c 0.0658,0.10352 0.13419,0.20512 0.20507,0.30469 -0.3167,0.11235 -0.6249,0.25078 -0.92187,0.41406 -0.085,-0.14412 -0.17494,-0.28483 -0.26953,-0.42187 0.33552,-0.0709 0.66532,-0.17014 0.98633,-0.29688 z m -20.7793,5.97071 c 0.31715,0.87549 0.79474,1.67324 1.4043,2.3457 -2.06351,1.23236 -3.34482,3.57221 -3.34766,6.11328 0,3.86599 2.91015,7 6.5,7 0.68573,-0.003 1.36667,-0.12311 2.01758,-0.35547 -0.009,0.11831 -0.0145,0.23684 -0.0176,0.35547 3.3e-4,0.14595 0.005,0.29186 0.0137,0.4375 -1.05731,1.09002 -1.74205,2.53245 -1.94336,4.09375 -0.1896,-0.0194 -0.37989,-0.0298 -0.57034,-0.0312 -2.15503,5.1e-4 -4.16972,1.15124 -5.37891,3.07227 -0.52616,0.0758 -1.04172,0.22079 -1.53515,0.43164 -0.0286,-0.002 -0.0573,-0.003 -0.0859,-0.004 -0.19372,0.002 -0.38728,0.0128 -0.58008,0.0332 0.0504,-0.34179 0.0771,-0.68714 0.0801,-1.0332 -0.002,-0.46461 -0.0473,-0.92783 -0.13477,-1.38281 1.65435,-1.31773 2.63162,-3.40122 2.63477,-5.61719 -0.004,-3.48943 -2.3943,-6.44257 -5.60352,-6.92383 -0.29702,-0.69884 -0.69888,-1.34024 -1.18945,-1.89844 0.8371,-1.20652 1.29054,-2.67162 1.29297,-4.17773 -0.001,-0.0658 -0.003,-0.13155 -0.006,-0.19727 0.49308,0.12883 0.99848,0.19503 1.50586,0.19727 1.90254,-10e-4 3.70915,-0.89971 4.94336,-2.45898 z m -16.41992,16.98632 c 0.46369,0.38883 0.9742,0.70815 1.51758,0.94922 -0.99454,1.26392 -1.54058,2.86675 -1.54102,4.52344 0.001,1.1392 0.26076,2.26085 0.75586,3.26758 C 202.18467,320.09242 201.59389,320.00239 201,320 c -0.21863,0.002 -0.43701,0.0168 -0.6543,0.043 0.42814,-0.94831 0.65181,-1.98854 0.6543,-3.043 -0.003,-1.00567 -0.20651,-1.99891 -0.59766,-2.91211 0.5092,-0.63308 0.90876,-1.35944 1.17969,-2.14453 0.15287,-0.13145 0.30016,-0.27026 0.44141,-0.41602 z"
       inkscape:connector-curvature="0" />
  </g>
  <g
     inkscape:groupmode="layer"
     id="routes_layer"
     inkscape:label="Routes"
     style="display:inline"
     sodipodi:insensitive="true">
    <path
       style="display:inline;fill:none;stroke:#000000;stroke-width:2;stroke-linecap:round;stroke-miterlimit:4;stroke-dasharray:0.1, 5;stroke-dashoffset:0;stroke-opacity:1"
       d="M 174.85355,88.457106 C 152.96915,70.179895 121.41182,66.788778 105.38541,68.892767 86.422107,71.382317 56.032196,87.932877 43.75,103.875 c -4.903143,6.36421 -15.20774,14.25 -32.5,14.25 l -16.8749997,0 M 84.375,337.5 l 0,-11.25 c 0,-3.75 -1.5581,-10.05476 -1.76777,-13.19454 -0.7305,-10.93942 3.621301,-50.96271 9.892766,-63.68288 9.262914,-18.78761 23.960634,-38.46212 43.036814,-61.41358 13.459,-16.19316 30.32136,-33.50901 35.23896,-54.53248 C 183.90715,77.287901 163.125,53.679828 163.125,11.25 l 0,-11.25 m -34.84628,197.03816 c 31.13116,5.53991 60.44319,35.52782 66.2421,32.56424 16.85408,-8.61342 21.60849,-10.2274 41.72918,-10.2274 l 11.25,0"
       inkscape:connector-curvature="0"
       id="path220" />
  </g>
  <g
     inkscape:groupmode="layer"
     id="labels_layer"
     inkscape:label="Labels"
     style="display:inline"
     sodipodi:insensitive="true">
    <text
       xml:space="preserve"
       id="text223"><textPath
         xlink:href="#port_crabbe"
         id="textPath225"><tspan
   style="-inkscape-font-specification:'CCTreasureTroveAged Mod, Normal';font-family:'CCTreasureTroveAged Mod';font-weight:normal;font-style:normal;font-stretch:normal;font-variant:normal;font-size:8.75px;text-anchor:start;text-align:start;writing-mode:lr;line-height:125%"
   id="tspan227">Port Crabbe</tspan></textPath></text>
    <text
       xml:space="preserve"
       id="text229"><textPath
         xlink:href="#ruby_port"
         id="textPath231"><tspan
   style="-inkscape-font-specification:'CCTreasureTroveAged Mod, Normal';font-family:'CCTreasureTroveAged Mod';font-weight:normal;font-style:normal;font-stretch:normal;font-variant:normal;font-size:8.75px;text-anchor:start;text-align:start;writing-mode:lr;line-height:125%"
   id="tspan233">Ruby Port</tspan></textPath></text>
  </g>
  <g
     inkscape:groupmode="layer"
     id="labels_guide_layer"
     inkscape:label="Labels Guide"
     style="display:none">
    <path
       id="port_crabbe"
       style="color:#000000;fill:none;stroke:#000000;stroke-width:1;stroke-opacity:1"
       d="m 170.0893,238.79491 c -17.18198,11.03858 -31.45774,28.60901 -35.98718,42.27628"
       inkscape:connector-curvature="0" />
    <path
       id="ruby_port"
       style="color:#000000;fill:none;stroke:#000000;stroke-width:1;stroke-opacity:1"
       d="m 104.18192,135.15025 c 4.73833,-8.40685 15.1004,-29.26282 19.4098,-47.061808"
       inkscape:connector-curvature="0"
       sodipodi:nodetypes="cc" />
  </g>
  <g
     inkscape:groupmode="layer"
     id="resources_layer"
     inkscape:label="Resources"
     style="display:inline">
    <g
       id="resource-banana"
       transform="matrix(-0.8516201,0.5241595,-0.5241595,-0.8516201,136.73616,133.3781)">
      <circle
         cx="0.060593002"
         cy="-110.10999"
         r="19"
         style="opacity:1;fill:#ffffff;fill-opacity:1;stroke:#000000;stroke-width:0.89999998;stroke-linecap:round;stroke-linejoin:round;stroke-miterlimit:4;stroke-dasharray:none;stroke-dashoffset:0;stroke-opacity:1"
         id="circle240" />
      <g
         id="g242">
        <path
           style="color:#000000;clip-rule:nonzero;display:inline;overflow:visible;visibility:visible;opacity:1;isolation:auto;mix-blend-mode:normal;color-interpolation:sRGB;color-interpolation-filters:linearRGB;solid-color:#000000;solid-opacity:1;fill:#f6ff7d;fill-opacity:1;fill-rule:evenodd;stroke:#000000;stroke-width:0.89999998;stroke-linecap:round;stroke-linejoin:miter;stroke-miterlimit:4;stroke-dasharray:none;stroke-dashoffset:0;stroke-opacity:1;color-rendering:auto;image-rendering:auto;shape-rendering:auto;text-rendering:auto;enable-background:accumulate"
           d="m 8.78082,-121.13744 c 0.34471,1.36915 0.66512,3.60435 0.73321,4.6643 -0.49421,3.88746 -1.33998,7.74843 -3.32367,10.57326 -2.40596,3.42618 -5.41293,5.37866 -11.11869,7.679247 -0.60011,0.241966 -1.22538,0.289326 -1.46855,0.679535 -0.16319,0.261865 0.37387,1.454696 0.69075,1.620824 0.62648,0.328443 1.07253,0.177853 1.77872,0.218405 2.75809,0.158378 5.05424,-0.146839 8.30722,-1.151769 2.54386,-0.78586 5.74014,-3.251012 7.23795,-5.452222 1.82616,-2.68377 2.69924,-6.37346 2.5117,-9.61419 -0.15399,-2.66107 -2.58676,-5.30143 -2.58676,-5.30143 -0.24357,-1.33177 -0.66717,-2.90679 -1.14995,-4.64892 -0.58055,0.0153 -1.40915,0.37101 -1.61193,0.73296 z"
           inkscape:connector-curvature="0"
           id="path244" />
        <path
           style="color:#000000;clip-rule:nonzero;display:inline;overflow:visible;visibility:visible;opacity:1;isolation:auto;mix-blend-mode:normal;color-interpolation:sRGB;color-interpolation-filters:linearRGB;solid-color:#000000;solid-opacity:1;fill:#f6ff7d;fill-opacity:1;fill-rule:evenodd;stroke:#000000;stroke-width:0.89999998;stroke-linecap:round;stroke-linejoin:miter;stroke-miterlimit:4;stroke-dasharray:none;stroke-dashoffset:0;stroke-opacity:1;color-rendering:auto;image-rendering:auto;shape-rendering:auto;text-rendering:auto;enable-background:accumulate"
           d="m 7.87879,-120.99354 c 0.0285,1.61295 0.38658,3.34631 0.31301,4.75879 -1.00555,3.30202 -3.33857,6.81255 -5.886,9.14173 -3.35597,3.06847 -7.87513,4.2358 -12.26178,5.43386 -0.6242,0.17048 -1.27338,-0.11771 -1.42138,0.51219 -0.15176,0.64587 0.0489,1.217046 0.31467,1.704455 0.33862,0.621027 0.89583,0.442404 1.59118,0.572223 2.67893,0.500153 5.58439,0.941055 8.23815,0.321149 2.59268,-0.605634 5.07646,-1.926877 7.10245,-3.654337 2.47014,-2.10616 4.44803,-4.97661 5.01611,-8.17267 0.39839,-2.24136 -0.605,-3.85067 -0.89708,-6.10835 -0.2048,-1.58315 0.19285,-2.72685 -0.1333,-4.91236 -0.55377,0.056 -1.33048,0.14727 -1.97603,0.40332 z"
           inkscape:connector-curvature="0"
           id="path246" />
        <path
           style="color:#000000;clip-rule:nonzero;display:inline;overflow:visible;visibility:visible;opacity:1;isolation:auto;mix-blend-mode:normal;color-interpolation:sRGB;color-interpolation-filters:linearRGB;solid-color:#000000;solid-opacity:1;fill:#f6ff7d;fill-opacity:1;fill-rule:evenodd;stroke:#000000;stroke-width:0.89999998;stroke-linecap:round;stroke-linejoin:miter;stroke-miterlimit:4;stroke-dasharray:none;stroke-dashoffset:0;stroke-opacity:1;color-rendering:auto;image-rendering:auto;shape-rendering:auto;text-rendering:auto;enable-background:accumulate"
           d="m 6.86373,-121.02142 c -0.0162,1.67579 0.0613,3.31817 -0.2121,4.71569 -1.71528,2.99538 -4.19007,5.95351 -7.46659,7.74634 -4.28888,2.34678 -7.01389,2.86781 -11.88451,2.04623 -0.63804,-0.10762 -0.91664,-0.4723 -1.38982,-0.031 -0.50866,0.47443 -0.41626,1.00712 -0.0714,1.61117 0.35071,0.61429 0.52944,0.41897 1.09534,0.84336 1.98511,1.48869 3.74434,2.06677 6.44298,2.04779 2.77975,-0.0196 6.56154,-0.29036 8.90025,-1.56286 2.85139,-1.55146 4.93737,-3.4518 6.15239,-6.46199 0.85208,-2.11101 -0.0744,-4.05058 0.10539,-6.31996 0.12609,-1.59136 0.14328,-2.6534 0.0968,-4.5494 -0.63016,-0.20606 -1.24784,-0.12786 -1.76873,-0.0854 z"
           inkscape:connector-curvature="0"
           id="path248" />
        <path
           style="color:#000000;font-style:normal;font-variant:normal;font-weight:normal;font-stretch:normal;font-size:medium;line-height:normal;font-family:sans-serif;text-indent:0;text-align:start;text-decoration:none;text-decoration-line:none;text-decoration-style:solid;text-decoration-color:#000000;letter-spacing:normal;word-spacing:normal;text-transform:none;direction:ltr;block-progression:tb;writing-mode:lr-tb;baseline-shift:baseline;text-anchor:start;white-space:normal;clip-rule:nonzero;display:inline;overflow:visible;visibility:visible;opacity:1;isolation:auto;mix-blend-mode:normal;color-interpolation:sRGB;color-interpolation-filters:linearRGB;solid-color:#000000;solid-opacity:1;fill:#737828;fill-opacity:1;fill-rule:evenodd;stroke:none;stroke-width:0.72000003;stroke-linecap:round;stroke-linejoin:miter;stroke-miterlimit:4;stroke-dasharray:none;stroke-dashoffset:0;stroke-opacity:1;color-rendering:auto;image-rendering:auto;shape-rendering:auto;text-rendering:auto;enable-background:accumulate"
           d="m 2.51814,-107.7686 c -2.07228,1.54391 -3.74795,2.09142 -6.33636,2.57335 -1.72347,0.32089 -3.84937,0.49004 -6.70834,0.0497 -0.53792,-0.0828 -0.32892,0.17921 0.20456,0.28719 2.7148,0.54957 5.27205,0.1766 6.8941,-0.0851 2.63047,-0.42445 3.77137,-0.81223 6.04492,-2.32391 0.12768,-0.58475 -0.15949,-0.11588 -0.0988,-0.5012 z"
           inkscape:connector-curvature="0"
           id="path250" />
        <path
           style="color:#000000;clip-rule:nonzero;display:inline;overflow:visible;visibility:visible;opacity:1;isolation:auto;mix-blend-mode:normal;color-interpolation:sRGB;color-interpolation-filters:linearRGB;solid-color:#000000;solid-opacity:1;fill:#f7ff7d;fill-opacity:1;fill-rule:evenodd;stroke:#000000;stroke-width:0.72000003;stroke-linecap:round;stroke-linejoin:miter;stroke-miterlimit:4;stroke-dasharray:none;stroke-dashoffset:0;stroke-opacity:1;color-rendering:auto;image-rendering:auto;shape-rendering:auto;text-rendering:auto;enable-background:accumulate"
           d="m 7.87879,-120.99354 c 0.0285,1.61295 0.38658,3.34631 0.31301,4.75879 -1.00555,3.30202 -3.33857,6.81255 -5.886,9.14173 -3.35597,3.06847 -7.87513,4.2358 -12.26178,5.43386 -0.6242,0.17048 -1.27338,-0.11771 -1.42138,0.51219 -0.15176,0.64587 0.0489,1.217046 0.31467,1.704455 0.33862,0.621027 0.89583,0.442404 1.59118,0.572223 2.67893,0.500153 5.58439,0.941055 8.23815,0.321149 2.59268,-0.605634 5.07646,-1.926877 7.10245,-3.654337 2.47014,-2.10616 4.44803,-4.97661 5.01611,-8.17267 0.39839,-2.24136 -0.605,-3.85067 -0.89708,-6.10835 -0.2048,-1.58315 0.19285,-2.72685 -0.1333,-4.91236 -0.55377,0.056 -1.33048,0.14727 -1.97603,0.40332 z"
           inkscape:connector-curvature="0"
           id="path252" />
        <path
           style="color:#000000;font-style:normal;font-variant:normal;font-weight:normal;font-stretch:normal;font-size:medium;line-height:normal;font-family:sans-serif;text-indent:0;text-align:start;text-decoration:none;text-decoration-line:none;text-decoration-style:solid;text-decoration-color:#000000;letter-spacing:normal;word-spacing:normal;text-transform:none;direction:ltr;block-progression:tb;writing-mode:lr-tb;baseline-shift:baseline;text-anchor:start;white-space:normal;clip-rule:nonzero;display:inline;overflow:visible;visibility:visible;opacity:1;isolation:auto;mix-blend-mode:normal;color-interpolation:sRGB;color-interpolation-filters:linearRGB;solid-color:#000000;solid-opacity:1;fill:#737828;fill-opacity:1;fill-rule:evenodd;stroke:none;stroke-width:0.72000003;stroke-linecap:round;stroke-linejoin:miter;stroke-miterlimit:4;stroke-dasharray:none;stroke-dashoffset:0;stroke-opacity:1;color-rendering:auto;image-rendering:auto;shape-rendering:auto;text-rendering:auto;enable-background:accumulate"
           d="m 4.80468,-106.35032 c -1.8366,1.79924 -3.59964,2.90171 -6.00807,3.97021 -1.77027,0.7854 -3.77092,1.22784 -6.52266,1.38661 -0.55888,0.0322 -0.28397,0.22297 0.27546,0.20184 2.71946,-0.10273 4.80476,-0.55229 6.63126,-1.36264 2.43383,-1.07977 4.50278,-2.38649 6.25386,-4.13127 0.79789,-0.79502 1.95252,-2.23179 2.69967,-3.4881 0.21909,-0.3684 0.3354,-1.28542 0.2234,-1.22755 -1.02526,2.0653 -2.6769,3.7927 -3.55292,4.6509 z"
           inkscape:connector-curvature="0"
           id="path254" />
        <path
           style="color:#000000;clip-rule:nonzero;display:inline;overflow:visible;visibility:visible;opacity:1;isolation:auto;mix-blend-mode:normal;color-interpolation:sRGB;color-interpolation-filters:linearRGB;solid-color:#000000;solid-opacity:1;fill:#f7ff7d;fill-opacity:1;fill-rule:evenodd;stroke:#000000;stroke-width:0.72000003;stroke-linecap:round;stroke-linejoin:miter;stroke-miterlimit:4;stroke-dasharray:none;stroke-dashoffset:0;stroke-opacity:1;color-rendering:auto;image-rendering:auto;shape-rendering:auto;text-rendering:auto;enable-background:accumulate"
           d="m 8.78082,-121.13744 c 0.34471,1.36915 0.66512,3.60435 0.73321,4.6643 -0.49421,3.88746 -1.33998,7.74843 -3.32367,10.57326 -2.40596,3.42618 -5.41293,5.37866 -11.11869,7.679247 -0.60011,0.241966 -1.22538,0.289326 -1.46855,0.679535 -0.16319,0.261865 0.37387,1.454696 0.69075,1.620824 0.62648,0.328443 1.07253,0.177853 1.77872,0.218405 2.75809,0.158378 5.05424,-0.146839 8.30722,-1.151769 2.54386,-0.78586 5.74014,-3.251012 7.23795,-5.452222 1.82616,-2.68377 2.69924,-6.37346 2.5117,-9.61419 -0.15399,-2.66107 -2.58676,-5.30143 -2.58676,-5.30143 -0.24357,-1.33177 -0.66717,-2.90679 -1.14995,-4.64892 -0.58055,0.0153 -1.40915,0.37101 -1.61193,0.73296 z"
           inkscape:connector-curvature="0"
           id="path256" />
        <path
           style="color:#000000;font-style:normal;font-variant:normal;font-weight:normal;font-stretch:normal;font-size:medium;line-height:normal;font-family:sans-serif;text-indent:0;text-align:start;text-decoration:none;text-decoration-line:none;text-decoration-style:solid;text-decoration-color:#000000;letter-spacing:normal;word-spacing:normal;text-transform:none;direction:ltr;block-progression:tb;writing-mode:lr-tb;baseline-shift:baseline;text-anchor:start;white-space:normal;clip-rule:nonzero;display:inline;overflow:visible;visibility:visible;opacity:1;isolation:auto;mix-blend-mode:normal;color-interpolation:sRGB;color-interpolation-filters:linearRGB;solid-color:#000000;solid-opacity:1;fill:#737828;fill-opacity:1;fill-rule:evenodd;stroke:none;stroke-width:0.72000003;stroke-linecap:round;stroke-linejoin:miter;stroke-miterlimit:4;stroke-dasharray:none;stroke-dashoffset:0;stroke-opacity:1;color-rendering:auto;image-rendering:auto;shape-rendering:auto;text-rendering:auto;enable-background:accumulate"
           d="m 11.17023,-113.86439 c -0.011,1.77939 -0.15804,3.37671 -0.70318,5.01283 -0.47684,1.43111 -0.94867,2.44937 -1.96984,4.0718 -1.36954,2.17594 -2.93041,3.68885 -5.19121,5.042 -1.55728,0.93208 -2.86824,1.715367 -5.59247,2.278309 -0.52698,0.108898 -1.00078,0.418847 -0.4677,0.345229 2.76772,-0.382229 4.71945,-1.233835 6.39997,-2.314868 2.23928,-1.44048 3.93705,-2.7933 5.38929,-5.10065 1.02607,-1.63022 1.47452,-2.54995 1.94328,-4.06882 0.56259,-1.82288 0.63573,-3.73693 0.46838,-5.5182 -0.0877,-0.93395 -0.2737,-0.2032 -0.27652,0.25237 z"
           inkscape:connector-curvature="0"
           id="path258" />
      </g>
    </g>
    <g
       id="resource-turtle"
       transform="matrix(-0.31026726,-0.95064938,0.95064938,-0.31026726,207.83719,33.87016)">
      <circle
         cx="0.060593002"
         cy="-110.10999"
         r="19"
         style="opacity:1;fill:#ffffff;fill-opacity:1;stroke:#000000;stroke-width:0.89999998;stroke-linecap:round;stroke-linejoin:round;stroke-miterlimit:4;stroke-dasharray:none;stroke-dashoffset:0;stroke-opacity:1"
         id="circle261" />
      <g
         id="g263">
        <path
           style="fill:#acf398;fill-opacity:1;fill-rule:evenodd;stroke:#000000;stroke-width:0.89999998;stroke-linecap:round;stroke-linejoin:miter;stroke-miterlimit:4;stroke-dasharray:none;stroke-opacity:1"
           d="m -13.200987,-100.29637 c 0.383554,0.976603 3.233916,-2.12106 6.131249,-1.42702 1.332863,0.31928 0.882122,-3.09205 -0.399356,-3.57815 -2.371651,-0.89961 -6.659154,2.64419 -5.731893,5.00517 z"
           inkscape:connector-curvature="0"
           id="path265" />
        <path
           style="fill:#acf398;fill-opacity:1;fill-rule:evenodd;stroke:#000000;stroke-width:0.89999998;stroke-linecap:round;stroke-linejoin:miter;stroke-miterlimit:4;stroke-dasharray:none;stroke-opacity:1"
           d="m 0.519205,-98.947277 c -1.160888,-0.35295 2.907731,-2.472353 3.949394,-1.850123 1.642844,0.981343 2.297204,4.963396 0.372373,6.157721 -0.745218,0.462395 -0.785725,-3.232509 -4.321767,-4.307598 z"
           inkscape:connector-curvature="0"
           id="path267" />
        <path
           style="fill:#acf398;fill-opacity:1;fill-rule:evenodd;stroke:#000000;stroke-width:0.89999998;stroke-linecap:round;stroke-linejoin:miter;stroke-miterlimit:4;stroke-dasharray:none;stroke-opacity:1"
           d="m 7.618715,-114.43269 c 1.934345,-0.44611 4.329746,-0.0993 5.914203,1.00302 2.013049,1.40054 2.917028,5.29708 1.897177,7.52728 -0.282844,0.61852 -3.514643,-5.32749 -6.150465,-4.42389 -1.839455,0.63059 -2.536626,0.15372 -3.169919,-1.68481 -0.27477,-0.79769 0.686895,-2.232 1.509004,-2.4216 z"
           inkscape:connector-curvature="0"
           id="path269" />
        <path
           style="fill:#acf398;fill-opacity:1;fill-rule:evenodd;stroke:#000000;stroke-width:0.89999998;stroke-linecap:round;stroke-linejoin:miter;stroke-miterlimit:4;stroke-dasharray:none;stroke-opacity:1"
           d="m -13.605402,-118.51893 c 1.434388,-2.65109 5.159923,-3.50053 7.13722,-3.29637 1.742717,0.17994 3.474416,1.88524 3.953288,3.57051 0.312727,1.10056 -0.218032,2.84568 -1.315095,3.17046 -1.558665,0.46144 -1.358953,-1.39147 -2.644475,-2.38636 -2.809563,-2.17437 -7.671044,-0.06 -7.130938,-1.05824 z"
           inkscape:connector-curvature="0"
           id="path271" />
        <path
           style="fill:#acf398;fill-opacity:1;fill-rule:evenodd;stroke:#000000;stroke-width:0.89999998;stroke-linecap:round;stroke-linejoin:miter;stroke-miterlimit:4;stroke-dasharray:none;stroke-opacity:1"
           d="m 1.574508,-116.64822 c -0.973346,-1.40454 -0.400278,-3.52894 -0.15625,-5.22027 0.277861,-1.92582 2.436935,-3.39132 3.77573,-3.50612 0.998071,-0.0856 1.511263,0.0552 2.026651,0.91421 0.545706,0.90951 1.17564,3.12771 0.125,4.74448 -0.918312,1.41314 -1.826689,3.21256 -3.442704,3.69086 -0.965518,0.28577 -1.75489,0.20445 -2.328427,-0.62316 z"
           inkscape:connector-curvature="0"
           id="path273" />
        <path
           style="fill:#acf398;fill-opacity:1;fill-rule:evenodd;stroke:#000000;stroke-width:0.89999998;stroke-linecap:round;stroke-linejoin:miter;stroke-miterlimit:4;stroke-dasharray:none;stroke-opacity:1"
           d="m -4.37156,-100.05265 c -1.568711,0.833903 -1.519982,4.156989 -0.84283,4.365801 0.803045,0.247633 2.774585,-2.210096 2.390927,-3.815868 -0.20218,-0.846213 -0.779871,-0.958313 -1.548097,-0.549933 z"
           inkscape:connector-curvature="0"
           id="path275" />
        <path
           style="fill:#acf398;fill-opacity:1;fill-rule:evenodd;stroke:#000000;stroke-width:0.89999998;stroke-linecap:round;stroke-linejoin:miter;stroke-miterlimit:4;stroke-dasharray:none;stroke-opacity:1"
           d="m -7.212243,-116.3836 c 1.293667,-1.65845 3.629584,-2.72772 5.073491,-2.91682 3.87448,-0.50741 7.329249,0.88026 10.076271,3.65928 1.485686,1.503 2.189594,3.9511 1.909189,6.04576 -0.610927,4.56371 -3.547497,9.21538 -7.477655,11.614241 -1.864758,1.138194 -4.454815,1.340084 -6.523059,0.636396 -2.202234,-0.749276 -4.339874,-2.571424 -5.09117,-4.772977 -1.613498,-4.72808 -1.039758,-10.32676 2.032933,-14.26588 z"
           inkscape:connector-curvature="0"
           id="path277" />
        <path
           style="color:#000000;clip-rule:nonzero;display:inline;overflow:visible;visibility:visible;opacity:1;isolation:auto;mix-blend-mode:normal;color-interpolation:sRGB;color-interpolation-filters:linearRGB;solid-color:#000000;solid-opacity:1;fill:none;fill-opacity:1;fill-rule:evenodd;stroke:#000000;stroke-width:0.63;stroke-linecap:butt;stroke-linejoin:miter;stroke-miterlimit:4;stroke-dasharray:none;stroke-dashoffset:0;stroke-opacity:1;color-rendering:auto;image-rendering:auto;shape-rendering:auto;text-rendering:auto;enable-background:accumulate"
           d="m -2.061438,-117.34644 -0.59283,-1.87446 m 9.785218,5.41 1.414213,-0.83969 m -3.270369,-3.0494 -0.883883,1.45841 m -3.005204,-2.91681 -0.322303,1.63785 m -4.980998,18.116938 -0.637024,1.851254 m 3.244481,-1.320924 0.145526,1.908392 m -5.139468,-3.85294 -1.276269,1.089694 m 0.0491,-3.679294 -1.793656,0.57452 m 1.06066,-3.30874 -1.531171,0.15311 m 1.679379,-3.00521 -1.861517,-0.2134 m 2.347653,-2.30567 -1.656171,-0.60309 m 2.761025,-2.09275 -1.312881,-0.89415 m 3.166356,-0.9571 -1.315562,-1.55438 m 7.32865,17.857125 0.826745,1.744559 m 1.382964,-3.026194 1.087008,1.317787 m 0.636565,-3.615877 1.440561,1.09413 m 0.238817,-3.48062 1.396368,0.61558 m -0.582567,-3.29357 1.567783,0.29327 m -1.419575,-3.1217 1.723572,-0.18483 m -10.817309,9.66873 0.486136,2.607453 m -4.02167,-3.756503 -1.59099,1.28163 m 5.833631,-13.21406 -0.309359,-2.38648 m 4.507806,3.7565 1.856155,-1.59099 m -10.69499,9.8553 -2.740039,-0.13258 m 3.447145,-3.88908 -3.18198,-1.23745 m 4.861359,-3.22617 -2.607456,-1.45841 m 6.452349,12.1534 2.209709,1.45841 m -0.04419,-5.03814 3.049398,1.19324 m -1.635185,-5.34749 2.872622,0.70711 m -9.766913,-0.83968 -0.486137,-2.78425 2.298097,-1.10485 4.021672,1.41421 0.839688,2.65165 -2.298097,1.19325 z m 4.507806,1.28162 0.928077,3.04939 -2.607455,1.28164 m -4.198448,-1.32583 -0.839689,-2.51907 2.298097,-1.76776 m -2.474873,7.95495 -0.574524,-2.34229 1.546796,-1.19324 4.154252,1.19324 0.530329,2.34229 -2.165513,1.19324 z m 3.310975,-14.48201 c -9.036509,1.02413 -9.686118,18.911215 0.316406,18.4082 7.293571,-1.28851 13.245425,-14.43065 4.082031,-17.65234 -1.373439,-0.61154 -2.89993,-0.86992 -4.398437,-0.75586 z"
           inkscape:connector-curvature="0"
           id="path279" />
        <ellipse
           cx="-83.675232"
           cy="-91.031174"
           rx="0.39348701"
           ry="0.53721499"
           style="fill:#000000;fill-opacity:1;stroke:none"
           transform="matrix(0.71262218,0.70154802,-0.70154802,0.71262218,0,0)"
           id="ellipse281" />
        <ellipse
           cx="0.87644202"
           cy="-122.84991"
           rx="0.39348701"
           ry="0.53721499"
           style="fill:#000000;fill-opacity:1;stroke:none"
           transform="matrix(0.99895236,0.04576232,-0.04576232,0.99895236,0,0)"
           id="ellipse283" />
      </g>
    </g>
  </g>
  <g
     inkscape:groupmode="layer"
     id="extras_layer"
     inkscape:label="Extras"
     style="display:inline"
     sodipodi:insensitive="true">
    <g
       id="extra-ship"
       transform="matrix(0.4444171,-0.89581998,0.89581998,0.4444171,266.30938,417.60566)">
      <path
         style="color:#000000;fill:url(#gradientShip);fill-opacity:1;fill-rule:evenodd;stroke:#000000;stroke-width:0.75;stroke-linecap:butt;stroke-linejoin:round;stroke-miterlimit:4;stroke-dasharray:none;stroke-dashoffset:0;stroke-opacity:1;marker:none;enable-background:accumulate"
         d="m 243.2364,-52.722824 c -3.10208,-2.937202 -8.72518,-3.346714 -12.49116,-3.032742 -2.95307,0.246202 -6.62512,1.070872 -6.62512,1.070872 l -0.0121,3.725952 c 0,0 2.43298,0.582421 6.39007,0.932887 3.66202,0.324334 9.61676,-0.283241 12.73834,-2.696969 z"
         inkscape:connector-curvature="0"
         id="path287" />
      <path
         style="color:#000000;opacity:1;isolation:auto;mix-blend-mode:normal;color-interpolation:sRGB;color-interpolation-filters:linearRGB;solid-color:#000000;solid-opacity:1;fill:#000000;fill-opacity:1;fill-rule:evenodd;stroke:none;stroke-width:0.75;stroke-linecap:round;stroke-linejoin:round;stroke-miterlimit:4;stroke-dasharray:none;stroke-dashoffset:0;stroke-opacity:1;marker:none;color-rendering:auto;image-rendering:auto;shape-rendering:auto;text-rendering:auto;enable-background:accumulate"
         d="m 243.05273,-53.089844 c -0.50461,-0.01007 -0.51271,0.749303 -0.008,0.75 l 2.80546,-0.143551 c 0.50461,0.01007 0.51856,-0.385922 0.0138,-0.386619 z"
         inkscape:connector-curvature="0"
         id="path289" />
      <circle
         cx="37.651787"
         cy="-233.087830"
         r="0.695206"
         style="color:#000000;opacity:1;isolation:auto;mix-blend-mode:normal;color-interpolation:sRGB;color-interpolation-filters:linearRGB;solid-color:#000000;solid-opacity:1;fill:#a66e00;fill-opacity:1;fill-rule:nonzero;stroke:#000000;stroke-width:0.5;stroke-linecap:butt;stroke-linejoin:miter;stroke-miterlimit:4;stroke-dasharray:none;stroke-dashoffset:0;stroke-opacity:1;color-rendering:auto;image-rendering:auto;shape-rendering:auto;text-rendering:auto;enable-background:accumulate"
         transform="matrix(0.37654483,0.9263984,-0.9263984,0.37654483,0,0)"
         id="circle291" />
      <circle
         cx="39.995537"
         cy="-238.712830"
         r="0.695206"
         style="color:#000000;opacity:1;isolation:auto;mix-blend-mode:normal;color-interpolation:sRGB;color-interpolation-filters:linearRGB;solid-color:#000000;solid-opacity:1;fill:#a66e00;fill-opacity:1;fill-rule:nonzero;stroke:#000000;stroke-width:0.5;stroke-linecap:butt;stroke-linejoin:miter;stroke-miterlimit:4;stroke-dasharray:none;stroke-dashoffset:0;stroke-opacity:1;color-rendering:auto;image-rendering:auto;shape-rendering:auto;text-rendering:auto;enable-background:accumulate"
         transform="matrix(0.37654483,0.9263984,-0.9263984,0.37654483,0,0)"
         id="circle293" />
      <path
         style="color:#000000;fill:#feffff;fill-opacity:1;fill-rule:evenodd;stroke:#000000;stroke-width:0.5;stroke-linecap:butt;stroke-linejoin:round;stroke-miterlimit:4;stroke-dasharray:none;stroke-dashoffset:0;stroke-opacity:1;marker:none;enable-background:accumulate"
         d="m 230.8139,-58.168744 -0.0696,11.095953 c 0,0 1.11273,-0.901569 1.17305,-2.014949 0.0592,-1.093696 -0.80015,-1.762231 -0.80015,-1.762231 0,0 1.00218,-0.841738 0.9922,-1.921676 -0.0106,-1.140901 -0.9468,-1.722391 -0.9468,-1.722391 0,0 0.80027,-0.5343 0.83406,-1.646805 0.0349,-1.150244 -1.18274,-2.027894 -1.18274,-2.027894 z"
         inkscape:connector-curvature="0"
         id="path295" />
      <path
         style="color:#000000;fill:#feffff;fill-opacity:1;fill-rule:evenodd;stroke:#000000;stroke-width:0.5;stroke-linecap:butt;stroke-linejoin:round;stroke-miterlimit:4;stroke-dasharray:none;stroke-dashoffset:0;stroke-opacity:1;marker:none;enable-background:accumulate"
         d="m 236.95087,-57.97366 -0.0645,10.282469 c 0,0 1.03677,-0.785137 1.09267,-1.816887 0.0549,-1.013517 -0.74706,-1.683399 -0.74706,-1.683399 0,0 0.85887,-0.76153 0.84962,-1.762298 -0.01,-1.057255 -0.80754,-1.614603 -0.80754,-1.614603 0,0 0.84013,-0.540128 0.87144,-1.571079 0.0324,-1.065902 -1.19455,-1.834218 -1.19455,-1.834218 z"
         inkscape:connector-curvature="0"
         id="path297" />
      <path
         style="fill:#000000;stroke:none"
         d="m 239.16963,-53.312319 -0.0111,0.999645 1.00145,0.01039 0.009,-1.000718 z"
         inkscape:connector-curvature="0"
         id="path299" />
      <path
         style="fill:#6a4600;stroke:none"
         d="m 233.00825,-53.641515 -0.0131,1.52646 1.52369,0.01423 0.0142,-1.523703 z"
         inkscape:connector-curvature="0"
         id="path301" />
      <path
         style="fill:none;stroke:#000000;stroke-width:0.6;stroke-linecap:butt"
         d="m 227.26126,-55.055042 -0.0734,4.514141"
         inkscape:connector-curvature="0"
         id="path303" />
      <path
         style="fill:#000000;stroke:none"
         d="m 223.83649,-54.026834 -0.0111,0.999636 1.00072,0.0086 0.009,-0.998911 z"
         inkscape:connector-curvature="0"
         id="path305" />
      <path
         style="fill:#000000;stroke:none"
         d="m 223.85032,-52.581947 -0.0111,0.999637 1.00072,0.0086 0.009,-0.998912 z"
         inkscape:connector-curvature="0"
         id="path307" />
      <path
         style="fill:none;stroke:#000000;stroke-width:0.5;stroke-linecap:butt;stroke-linejoin:round;stroke-miterlimit:4"
         d="m 227.2539,-51.578825 1.14997,0.173504 -0.0116,1.05042"
         inkscape:connector-curvature="0"
         id="path309" />
      <path
         style="fill:none;stroke:#000000;stroke-width:0.5;stroke-linecap:butt;stroke-linejoin:round;stroke-miterlimit:4"
         d="m 227.25705,-54.143799 1.1481,-0.163064 0.0224,-1.189753"
         inkscape:connector-curvature="0"
         id="path311" />
    </g>
  </g>
  <g
     inkscape:groupmode="layer"
     id="suit_rank_glow_layer"
     inkscape:label="Suit Rank Glow"
     style="display:inline"
     sodipodi:insensitive="true">
    <g
       style="opacity:0.75;filter:url(#blurSuitRankGlow)"
       id="g314">
      <path
         style="fill:#ffffff;fill-opacity:1;stroke:none"
         d="m 25.651888,21.229764 c -0.59548,0.0193 -1.29762,0.13183 -2.02125,0.35875 -2.41293,0.84879 -3.90505,3.64994 -3.9025,5.87125 -0.16472,6.86829 6.59266,13.21158 11.69,17.01 0.003,0.0146 0.006,0.0291 0.009,0.0438 0.008,-0.006 0.0181,-0.0114 0.0262,-0.0175 0.008,0.006 0.0181,0.0114 0.0262,0.0175 0.003,-0.0147 0.006,-0.0291 0.009,-0.0438 5.09734,-3.79842 11.85472,-10.14171 11.69,-17.01 0.003,-2.22131 -1.48957,-5.02246 -3.9025,-5.87125 -0.72363,-0.22692 -1.42577,-0.33949 -2.02125,-0.35875 -2.54992,-0.0825 -5.0297,1.40516 -5.80125,3.00125 -0.77155,-1.59609 -3.25133,-3.08374 -5.80125,-3.00125 z"
         inkscape:connector-curvature="0"
         id="path316" />
      <path
         style="fill:#ffffff;fill-opacity:1;stroke:none"
         d="m 221.7648,316.27029 c 0.59548,-0.0193 1.29762,-0.13183 2.02125,-0.35875 2.41293,-0.84879 3.90505,-3.64994 3.9025,-5.87125 0.16472,-6.86829 -6.59266,-13.21158 -11.69,-17.01 -0.003,-0.0146 -0.006,-0.0291 -0.009,-0.0438 -0.008,0.006 -0.0181,0.0114 -0.0262,0.0175 -0.008,-0.006 -0.0181,-0.0114 -0.0262,-0.0175 -0.003,0.0147 -0.006,0.0291 -0.009,0.0438 -5.09734,3.79842 -11.85472,10.14171 -11.69,17.01 -0.003,2.22131 1.48957,5.02246 3.9025,5.87125 0.72363,0.22692 1.42577,0.33949 2.02125,0.35875 2.54992,0.0825 5.0297,-1.40516 5.80125,-3.00125 0.77155,1.59609 3.25133,3.08374 5.80125,3.00125 z"
         inkscape:connector-curvature="0"
         id="path318" />
      <path
         style="fill:#ffffff;fill-opacity:1;stroke:none"
         d="m 23.013333,79.675025 1.24,0 5.2,-28.8 4,0 5.2,28.8 2.4,0 0,3.2 -8,0 0,-3.2 2.4,0 -1.16,-6.4 -5.68,0 -1.16,6.4 2.4,0 0,3.2 -8,0 c 0.0267,-0.58667 0.04,-1.12 0.04,-1.6 0,-0.4 0,-0.76 0,-1.08 0,-0.32 -0.0133,-0.49333 -0.04,-0.52 l 1.16,0 m 6.2,-9.6 c -10e-6,0.0267 0.22666,0.04 0.68,0.04 0.47999,1e-5 0.99999,1e-5 1.56,0 0.66666,1e-5 1.41332,-0.0133 2.24,-0.04 l -2.24,-12.4 -1.12,6.16 c -0.13334,0.77335 -0.26667,1.53335 -0.4,2.28 -0.13334,0.74668 -0.25334,1.41334 -0.36,2 -0.10667,0.56001 -0.20001,1.02668 -0.28,1.4 -0.0533,0.37334 -0.08,0.56001 -0.08,0.56"
         inkscape:connector-curvature="0"
         id="path320" />
      <path
         style="fill:#ffffff;fill-opacity:1;stroke:none"
         d="m 224.40334,257.82503 -1.24,0 -5.2,28.8 -4,0 -5.2,-28.8 -2.4,0 0,-3.2 8,0 0,3.2 -2.4,0 1.16,6.4 5.68,0 1.16,-6.4 -2.4,0 0,-3.2 8,0 c -0.0267,0.58667 -0.04,1.12 -0.04,1.6 0,0.4 0,0.76 0,1.08 0,0.32 0.0133,0.49333 0.04,0.52 l -1.16,0 m -6.2,9.6 c 1e-5,-0.0267 -0.22666,-0.04 -0.68,-0.04 -0.47999,-10e-6 -0.99999,-10e-6 -1.56,0 -0.66666,-10e-6 -1.41332,0.0133 -2.24,0.04 l 2.24,12.4 1.12,-6.16 c 0.13334,-0.77335 0.26667,-1.53335 0.4,-2.28 0.13334,-0.74668 0.25334,-1.41334 0.36,-2 0.10667,-0.56001 0.20001,-1.02668 0.28,-1.4 0.0533,-0.37334 0.08,-0.56001 0.08,-0.56"
         inkscape:connector-curvature="0"
         id="path322" />
    </g>
  </g>
  <g
     inkscape:groupmode="layer"
     id="suit_rank_layer"
     inkscape:label="Suit Rank"
     style="display:inline"
     sodipodi:insensitive="true">
    <path
       style="fill:#de0000;fill-opacity:1;stroke:none"
       d="m 25.651888,21.229764 c -0.59548,0.0193 -1.29762,0.13183 -2.02125,0.35875 -2.41293,0.84879 -3.90505,3.64994 -3.9025,5.87125 -0.16472,6.86829 6.59266,13.21158 11.69,17.01 0.003,0.0146 0.006,0.0291 0.009,0.0438 0.008,-0.006 0.0181,-0.0114 0.0262,-0.0175 0.008,0.006 0.0181,0.0114 0.0262,0.0175 0.003,-0.0147 0.006,-0.0291 0.009,-0.0438 5.09734,-3.79842 11.85472,-10.14171 11.69,-17.01 0.003,-2.22131 -1.48957,-5.02246 -3.9025,-5.87125 -0.72363,-0.22692 -1.42577,-0.33949 -2.02125,-0.35875 -2.54992,-0.0825 -5.0297,1.40516 -5.80125,3.00125 -0.77155,-1.59609 -3.25133,-3.08374 -5.80125,-3.00125 z"
       inkscape:connector-curvature="0"
       id="path325" />
    <path
       style="fill:#de0000;fill-opacity:1;stroke:none"
       d="m 221.7648,316.27029 c 0.59548,-0.0193 1.29762,-0.13183 2.02125,-0.35875 2.41293,-0.84879 3.90505,-3.64994 3.9025,-5.87125 0.16472,-6.86829 -6.59266,-13.21158 -11.69,-17.01 -0.003,-0.0146 -0.006,-0.0291 -0.009,-0.0438 -0.008,0.006 -0.0181,0.0114 -0.0262,0.0175 -0.008,-0.006 -0.0181,-0.0114 -0.0262,-0.0175 -0.003,0.0147 -0.006,0.0291 -0.009,0.0438 -5.09734,3.79842 -11.85472,10.14171 -11.69,17.01 -0.003,2.22131 1.48957,5.02246 3.9025,5.87125 0.72363,0.22692 1.42577,0.33949 2.02125,0.35875 2.54992,0.0825 5.0297,-1.40516 5.80125,-3.00125 0.77155,1.59609 3.25133,3.08374 5.80125,3.00125 z"
       inkscape:connector-curvature="0"
       id="path327" />
    <path
       style="fill:#de0000;fill-opacity:1;stroke:none"
       d="m 23.013333,79.675025 1.24,0 5.2,-28.8 4,0 5.2,28.8 2.4,0 0,3.2 -8,0 0,-3.2 2.4,0 -1.16,-6.4 -5.68,0 -1.16,6.4 2.4,0 0,3.2 -8,0 c 0.0267,-0.58667 0.04,-1.12 0.04,-1.6 0,-0.4 0,-0.76 0,-1.08 0,-0.32 -0.0133,-0.49333 -0.04,-0.52 l 1.16,0 m 6.2,-9.6 c -10e-6,0.0267 0.22666,0.04 0.68,0.04 0.47999,1e-5 0.99999,1e-5 1.56,0 0.66666,1e-5 1.41332,-0.0133 2.24,-0.04 l -2.24,-12.4 -1.12,6.16 c -0.13334,0.77335 -0.26667,1.53335 -0.4,2.28 -0.13334,0.74668 -0.25334,1.41334 -0.36,2 -0.10667,0.56001 -0.20001,1.02668 -0.28,1.4 -0.0533,0.37334 -0.08,0.56001 -0.08,0.56"
       inkscape:connector-curvature="0"
       id="path329" />
    <path
       style="fill:#de0000;fill-opacity:1;stroke:none"
       d="m 224.40334,257.82503 -1.24,0 -5.2,28.8 -4,0 -5.2,-28.8 -2.4,0 0,-3.2 8,0 0,3.2 -2.4,0 1.16,6.4 5.68,0 1.16,-6.4 -2.4,0 0,-3.2 8,0 c -0.0267,0.58667 -0.04,1.12 -0.04,1.6 0,0.4 0,0.76 0,1.08 0,0.32 0.0133,0.49333 0.04,0.52 l -1.16,0 m -6.2,9.6 c 1e-5,-0.0267 -0.22666,-0.04 -0.68,-0.04 -0.47999,-10e-6 -0.99999,-10e-6 -1.56,0 -0.66666,-10e-6 -1.41332,0.0133 -2.24,0.04 l 2.24,12.4 1.12,-6.16 c 0.13334,-0.77335 0.26667,-1.53335 0.4,-2.28 0.13334,-0.74668 0.25334,-1.41334 0.36,-2 0.10667,-0.56001 0.20001,-1.02668 0.28,-1.4 0.0533,-0.37334 0.08,-0.56001 0.08,-0.56"
       inkscape:connector-curvature="0"
       id="path331" />
  </g>
  <g
     inkscape:groupmode="layer"
     id="guides_layer"
     inkscape:label="Guides"
     style="display:none"
     sodipodi:insensitive="true">
    <path
       style="fill:none;stroke:#000000;stroke-width:0.9"
       d="m 11.250000,11.25 0,-45"
       inkscape:connector-curvature="0"
       id="path334" />
    <path
       style="fill:none;stroke:#000000;stroke-width:0.9"
       d="m 11.250000,371.25 0,-45"
       inkscape:connector-curvature="0"
       id="path336" />
    <path
       style="fill:none;stroke:#000000;stroke-width:0.9"
       d="m 84.375000,11.25 0,-45"
       inkscape:connector-curvature="0"
       id="path338" />
    <path
       style="fill:none;stroke:#000000;stroke-width:0.9"
       d="m 84.375000,371.25 0,-45"
       inkscape:connector-curvature="0"
       id="path340" />
    <path
       style="fill:none;stroke:#000000;stroke-width:0.9"
       d="m 123.750000,11.25 0,-45"
       inkscape:connector-curvature="0"
       id="path342" />
    <path
       style="fill:none;stroke:#000000;stroke-width:0.9"
       d="m 123.750000,371.25 0,-45"
       inkscape:connector-curvature="0"
       id="path344" />
    <path
       style="fill:none;stroke:#000000;stroke-width:0.9"
       d="m 163.125000,11.25 0,-45"
       inkscape:connector-curvature="0"
       id="path346" />
    <path
       style="fill:none;stroke:#000000;stroke-width:0.9"
       d="m 163.125000,371.25 0,-45"
       inkscape:connector-curvature="0"
       id="path348" />
    <path
       style="fill:none;stroke:#000000;stroke-width:0.9"
       d="m 236.250000,11.25 0,-45"
       inkscape:connector-curvature="0"
       id="path350" />
    <path
       style="fill:none;stroke:#000000;stroke-width:0.9"
       d="m 236.250000,371.25 0,-45"
       inkscape:connector-curvature="0"
       id="path352" />
    <path
       style="fill:none;stroke:#000000;stroke-width:0.9"
       d="m -33.75,11.250000 45,0"
       inkscape:connector-curvature="0"
       id="path354" />
    <path
       style="fill:none;stroke:#000000;stroke-width:0.9"
       d="m 236.25,11.250000 45,0"
       inkscape:connector-curvature="0"
       id="path356" />
    <path
       style="fill:none;stroke:#000000;stroke-width:0.9"
       d="m -33.75,118.125000 45,0"
       inkscape:connector-curvature="0"
       id="path358" />
    <path
       style="fill:none;stroke:#000000;stroke-width:0.9"
       d="m 236.25,118.125000 45,0"
       inkscape:connector-curvature="0"
       id="path360" />
    <path
       style="fill:none;stroke:#000000;stroke-width:0.9"
       d="m -33.75,168.750000 45,0"
       inkscape:connector-curvature="0"
       id="path362" />
    <path
       style="fill:none;stroke:#000000;stroke-width:0.9"
       d="m 236.25,168.750000 45,0"
       inkscape:connector-curvature="0"
       id="path364" />
    <path
       style="fill:none;stroke:#000000;stroke-width:0.9"
       d="m -33.75,219.375000 45,0"
       inkscape:connector-curvature="0"
       id="path366" />
    <path
       style="fill:none;stroke:#000000;stroke-width:0.9"
       d="m 236.25,219.375000 45,0"
       inkscape:connector-curvature="0"
       id="path368" />
    <path
       style="fill:none;stroke:#000000;stroke-width:0.9"
       d="m -33.75,326.250000 45,0"
       inkscape:connector-curvature="0"
       id="path370" />
    <path
       style="fill:none;stroke:#000000;stroke-width:0.9"
       d="m 236.25,326.250000 45,0"
       inkscape:connector-curvature="0"
       id="path372" />
    <g
       id="guide-short0-4">
      <rect
         x="0.000000"
         y="-22.500000"
         width="84.375000"
         height="22.500000"
         style="fill:#ffd291;stroke:#000000;stroke-width:0.9"
         id="rect375" />
      <rect
         x="0.000000"
         y="-22.500000"
         width="78.750000"
         height="22.500000"
         style="fill:#b4e982;stroke:#000000;stroke-width:0.9"
         id="rect377" />
      <rect
         x="0.000000"
         y="-22.500000"
         width="61.875000"
         height="22.500000"
         style="fill:#5adc4f;stroke:#000000;stroke-width:0.9"
         id="rect379" />
      <rect
         x="84.375000"
         y="-22.500000"
         width="163.125000"
         height="22.500000"
         style="fill:#b9deff;stroke:#000000;stroke-width:0.9"
         id="rect381" />
      <rect
         x="123.750000"
         y="-22.500000"
         width="123.750000"
         height="22.500000"
         style="fill:#9bceff;stroke:#000000;stroke-width:0.9"
         id="rect383" />
      <rect
         x="180.000000"
         y="-22.500000"
         width="67.500000"
         height="22.500000"
         style="fill:#73baff;stroke:#000000;stroke-width:0.9"
         id="rect385" />
    </g>
    <g
       id="guide-long1-3">
      <rect
         x="247.500000"
         y="118.125000"
         width="22.500000"
         height="219.375000"
         style="fill:#ffd291;stroke:#000000;stroke-width:0.9"
         id="rect388" />
      <rect
         x="247.500000"
         y="123.750000"
         width="22.500000"
         height="213.750000"
         style="fill:#b4e982;stroke:#000000;stroke-width:0.9"
         id="rect390" />
      <rect
         x="247.500000"
         y="225.000000"
         width="22.500000"
         height="112.500000"
         style="fill:#5adc4f;stroke:#000000;stroke-width:0.9"
         id="rect392" />
      <rect
         x="247.500000"
         y="151.875000"
         width="22.500000"
         height="61.875000"
         style="fill:#5adc4f;stroke:#000000;stroke-width:0.9"
         id="rect394" />
      <rect
         x="247.500000"
         y="0.000000"
         width="22.500000"
         height="118.125000"
         style="fill:#b9deff;stroke:#000000;stroke-width:0.9"
         id="rect396" />
      <rect
         x="247.500000"
         y="0.000000"
         width="22.500000"
         height="84.375000"
         style="fill:#9bceff;stroke:#000000;stroke-width:0.9"
         id="rect398" />
      <rect
         x="247.500000"
         y="0.000000"
         width="22.500000"
         height="50.625000"
         style="fill:#73baff;stroke:#000000;stroke-width:0.9"
         id="rect400" />
    </g>
    <g
       id="guide-short2-4"
       transform="matrix(-1,0,0,1,247.5,360)">
      <rect
         x="0.000000"
         y="-22.500000"
         width="84.375000"
         height="22.500000"
         style="fill:#ffd291;stroke:#000000;stroke-width:0.9"
         id="rect403" />
      <rect
         x="0.000000"
         y="-22.500000"
         width="78.750000"
         height="22.500000"
         style="fill:#b4e982;stroke:#000000;stroke-width:0.9"
         id="rect405" />
      <rect
         x="0.000000"
         y="-22.500000"
         width="61.875000"
         height="22.500000"
         style="fill:#5adc4f;stroke:#000000;stroke-width:0.9"
         id="rect407" />
      <rect
         x="84.375000"
         y="-22.500000"
         width="163.125000"
         height="22.500000"
         style="fill:#b9deff;stroke:#000000;stroke-width:0.9"
         id="rect409" />
      <rect
         x="123.750000"
         y="-22.500000"
         width="123.750000"
         height="22.500000"
         style="fill:#9bceff;stroke:#000000;stroke-width:0.9"
         id="rect411" />
      <rect
         x="180.000000"
         y="-22.500000"
         width="67.500000"
         height="22.500000"
         style="fill:#73baff;stroke:#000000;stroke-width:0.9"
         id="rect413" />
    </g>
    <g
       id="guide-long3-3"
       transform="matrix(1,0,0,-1,-270,337.5)">
      <rect
         x="247.500000"
         y="118.125000"
         width="22.500000"
         height="219.375000"
         style="fill:#ffd291;stroke:#000000;stroke-width:0.9"
         id="rect416" />
      <rect
         x="247.500000"
         y="123.750000"
         width="22.500000"
         height="213.750000"
         style="fill:#b4e982;stroke:#000000;stroke-width:0.9"
         id="rect418" />
      <rect
         x="247.500000"
         y="225.000000"
         width="22.500000"
         height="112.500000"
         style="fill:#5adc4f;stroke:#000000;stroke-width:0.9"
         id="rect420" />
      <rect
         x="247.500000"
         y="151.875000"
         width="22.500000"
         height="61.875000"
         style="fill:#5adc4f;stroke:#000000;stroke-width:0.9"
         id="rect422" />
      <rect
         x="247.500000"
         y="0.000000"
         width="22.500000"
         height="118.125000"
         style="fill:#b9deff;stroke:#000000;stroke-width:0.9"
         id="rect424" />
      <rect
         x="247.500000"
         y="0.000000"
         width="22.500000"
         height="84.375000"
         style="fill:#9bceff;stroke:#000000;stroke-width:0.9"
         id="rect426" />
      <rect
         x="247.500000"
         y="0.000000"
         width="22.500000"
         height="50.625000"
         style="fill:#73baff;stroke:#000000;stroke-width:0.9"
         id="rect428" />
    </g>
  </g>
  <g
     inkscape:groupmode="layer"
     id="cut_line_layer"
     inkscape:label="Cut Line"
     style="display:none"
     sodipodi:insensitive="true">
    <rect
       style="fill:none;stroke:#000000;stroke-width:0.5;stroke-linecap:butt;stroke-linejoin:bevel;stroke-miterlimit:4;stroke-dasharray:none;stroke-opacity:1"
       width="225"
       height="315"
       x="11.25"
       y="11.25"
       ry="17.361111"
       id="rect431" />
  </g>
  <g
     inkscape:groupmode="layer"
     id="page_border_layer"
     inkscape:label="Page Border"
     style="display:none"
     sodipodi:insensitive="true">
    <rect
       style="fill:none;stroke:#000000;stroke-width:0.5;stroke-linecap:butt;stroke-linejoin:bevel;stroke-miterlimit:4;stroke-dasharray:none;stroke-opacity:1"
       width="247.5"
       height="337.5"
       x="0"
       y="0"
       id="rect434" />
  </g>
</svg>
