<?xml version="1.0" encoding="UTF-8" standalone="no"?>
<svg
   xmlns:dc="http://purl.org/dc/elements/1.1/"
   xmlns:cc="http://creativecommons.org/ns#"
   xmlns:rdf="http://www.w3.org/1999/02/22-rdf-syntax-ns#"
   xmlns:svg="http://www.w3.org/2000/svg"
   xmlns="http://www.w3.org/2000/svg"
   xmlns:xlink="http://www.w3.org/1999/xlink"
   xmlns:sodipodi="http://sodipodi.sourceforge.net/DTD/sodipodi-0.dtd"
   xmlns:inkscape="http://www.inkscape.org/namespaces/inkscape"
   version="1.1"
   height="337.5"
   width="247.5"
   id="svg2"
   inkscape:version="0.91 r13725"
   sodipodi:docname="spades-queen.svg">
  <metadata
     id="metadata4">
    <rdf:RDF>
      <cc:Work
         rdf:about="">
        <dc:format>image/svg+xml</dc:format>
        <dc:type
           rdf:resource="http://purl.org/dc/dcmitype/StillImage" />
        <dc:title />
        <dc:creator>
          <cc:Agent>
            <dc:title>Gary Kacmarcik</dc:title>
          </cc:Agent>
        </dc:creator>
      </cc:Work>
    </rdf:RDF>
  </metadata>
  <defs
     id="defs6">
    <filter
       inkscape:label="textureGrassBig"
       style="color-interpolation-filters:sRGB"
       id="textureGrassBig">
      <feTurbulence
         numOctaves="2"
         seed="312"
         type="turbulence"
         baseFrequency="0.070000"
         result="result1"
         id="feTurbulence9" />
      <feColorMatrix
         result="result0"
         in="SourceGraphic"
         type="luminanceToAlpha"
         id="feColorMatrix11" />
      <feColorMatrix
         result="result2"
         values="1 0 0 0 0 0 1 0 0 0 0 0 1 0 0 0 0 0 0.4 0 "
         id="feColorMatrix13" />
      <feComposite
         in="result2"
         operator="over"
         in2="result1"
         id="feComposite15" />
      <feColorMatrix
         result="result91"
         values="1 0 0 0 0 0 1 0 0 0 0 0 1 0 0 0 0 0 10 -4 "
         id="feColorMatrix17" />
      <feComposite
         operator="out"
         in="SourceGraphic"
         in2="result91"
         id="feComposite19" />
      <feGaussianBlur
         stdDeviation="2.500000"
         id="feGaussianBlur21" />
      <feColorMatrix
         values="1 0 0 0 0 0 1 0 0 0 0 0 1 0 0 0 0 0 1 0 "
         id="feColorMatrix23" />
    </filter>
    <filter
       inkscape:label="textureGrassSmall"
       style="color-interpolation-filters:sRGB"
       id="textureGrassSmall">
      <feTurbulence
         numOctaves="4"
         seed="312"
         type="turbulence"
         baseFrequency="0.500000"
         result="result1"
         id="feTurbulence26" />
      <feColorMatrix
         result="result0"
         in="SourceGraphic"
         type="luminanceToAlpha"
         id="feColorMatrix28" />
      <feColorMatrix
         result="result2"
         values="1 0 0 0 0 0 1 0 0 0 0 0 1 0 0 0 0 0 0.4 0 "
         id="feColorMatrix30" />
      <feComposite
         in="result2"
         operator="over"
         in2="result1"
         id="feComposite32" />
      <feColorMatrix
         result="result91"
         values="1 0 0 0 0 0 1 0 0 0 0 0 1 0 0 0 0 0 10 -4 "
         id="feColorMatrix34" />
      <feComposite
         operator="out"
         in="SourceGraphic"
         in2="result91"
         id="feComposite36" />
      <feGaussianBlur
         stdDeviation="1.000000"
         id="feGaussianBlur38" />
      <feColorMatrix
         values="1 0 0 0 0 0 1 0 0 0 0 0 1 0 0 0 0 0 1 0 "
         id="feColorMatrix40" />
    </filter>
    <filter
       inkscape:label="textureLand"
       style="color-interpolation-filters:sRGB"
       id="textureLand">
      <feTurbulence
         numOctaves="4"
         seed="312"
         type="turbulence"
         baseFrequency="0.500000"
         result="result1"
         id="feTurbulence43" />
      <feColorMatrix
         result="result0"
         in="SourceGraphic"
         type="luminanceToAlpha"
         id="feColorMatrix45" />
      <feColorMatrix
         result="result2"
         values="1 0 0 0 0 0 1 0 0 0 0 0 1 0 0 0 0 0 0.4 0 "
         id="feColorMatrix47" />
      <feComposite
         in="result2"
         operator="over"
         in2="result1"
         id="feComposite49" />
      <feColorMatrix
         result="result91"
         values="1 0 0 0 0 0 1 0 0 0 0 0 1 0 0 0 0 0 10 -4 "
         id="feColorMatrix51" />
      <feComposite
         operator="out"
         in="SourceGraphic"
         in2="result91"
         id="feComposite53" />
      <feGaussianBlur
         stdDeviation="0.800000"
         id="feGaussianBlur55" />
      <feColorMatrix
         values="1 0 0 0 0 0 1 0 0 0 0 0 1 0 0 0 0 0 1 0 "
         id="feColorMatrix57" />
    </filter>
    <filter
       inkscape:label="textureForestBig"
       style="color-interpolation-filters:sRGB"
       id="textureForestBig">
      <feTurbulence
         numOctaves="2"
         seed="312"
         type="turbulence"
         baseFrequency="0.300000"
         result="result1"
         id="feTurbulence60" />
      <feColorMatrix
         result="result0"
         in="SourceGraphic"
         type="luminanceToAlpha"
         id="feColorMatrix62" />
      <feColorMatrix
         result="result2"
         values="1 0 0 0 0 0 1 0 0 0 0 0 1 0 0 0 0 0 0.4 0 "
         id="feColorMatrix64" />
      <feComposite
         in="result2"
         operator="over"
         in2="result1"
         id="feComposite66" />
      <feColorMatrix
         result="result91"
         values="1 0 0 0 0 0 1 0 0 0 0 0 1 0 0 0 0 0 10 -4 "
         id="feColorMatrix68" />
      <feComposite
         operator="out"
         in="SourceGraphic"
         in2="result91"
         id="feComposite70" />
      <feGaussianBlur
         stdDeviation="2.000000"
         id="feGaussianBlur72" />
      <feColorMatrix
         values="1 0 0 0 0 0 1 0 0 0 0 0 1 0 0 0 0 0 1 0 "
         id="feColorMatrix74" />
    </filter>
    <filter
       inkscape:label="textureForestSmall"
       style="color-interpolation-filters:sRGB"
       id="textureForestSmall">
      <feTurbulence
         numOctaves="4"
         seed="312"
         type="turbulence"
         baseFrequency="0.350000"
         result="result1"
         id="feTurbulence77" />
      <feColorMatrix
         result="result0"
         in="SourceGraphic"
         type="luminanceToAlpha"
         id="feColorMatrix79" />
      <feColorMatrix
         result="result2"
         values="1 0 0 0 0 0 1 0 0 0 0 0 1 0 0 0 0 0 0.4 0 "
         id="feColorMatrix81" />
      <feComposite
         in="result2"
         operator="over"
         in2="result1"
         id="feComposite83" />
      <feColorMatrix
         result="result91"
         values="1 0 0 0 0 0 1 0 0 0 0 0 1 0 0 0 0 0 10 -4 "
         id="feColorMatrix85" />
      <feComposite
         operator="out"
         in="SourceGraphic"
         in2="result91"
         id="feComposite87" />
      <feGaussianBlur
         stdDeviation="1.000000"
         id="feGaussianBlur89" />
      <feColorMatrix
         values="1 0 0 0 0 0 1 0 0 0 0 0 1 0 0 0 0 0 1 0 "
         id="feColorMatrix91" />
    </filter>
    <filter
       inkscape:label="roughenShoreline"
       style="color-interpolation-filters:sRGB"
       id="roughenShoreline">
      <feTurbulence
         numOctaves="4"
         seed="312"
         type="turbulence"
         baseFrequency="0.050000"
         result="turb"
         id="feTurbulence94" />
      <feDisplacementMap
         scale="6.600000"
         yChannelSelector="G"
         xChannelSelector="R"
         in="SourceGraphic"
         in2="turb"
         id="feDisplacementMap96" />
    </filter>
    <filter
       inkscape:label="roughenForest"
       style="color-interpolation-filters:sRGB"
       id="roughenForest">
      <feTurbulence
         numOctaves="4"
         seed="312"
         type="fractalNoise"
         baseFrequency="0.150000 0.150000"
         result="turb"
         id="feTurbulence99" />
      <feDisplacementMap
         scale="6.600000"
         yChannelSelector="G"
         xChannelSelector="R"
         in="SourceGraphic"
         in2="turb"
         id="feDisplacementMap101" />
    </filter>
    <filter
       inkscape:collect="always"
       inkscape:label="blurSuitRankGlow"
       style="color-interpolation-filters:sRGB"
       id="blurSuitRankGlow"
       x="-0.029025"
       y="-0.020458"
       width="1.058049"
       height="1.040917">
      <feGaussianBlur
         inkscape:collect="always"
         stdDeviation="2.515067"
         id="feGaussianBlur104" />
    </filter>
    <filter
       inkscape:collect="always"
       inkscape:label="blurWaterDeep"
       style="color-interpolation-filters:sRGB"
       id="blurWaterDeep"
       x="-0.056691"
       y="-0.041620"
       width="1.113381"
       height="1.083239">
      <feGaussianBlur
         inkscape:collect="always"
         stdDeviation="6.919136"
         id="feGaussianBlur107" />
    </filter>
    <filter
       inkscape:collect="always"
       inkscape:label="blurWaterShallow"
       style="color-interpolation-filters:sRGB"
       id="blurWaterShallow"
       x="-0.055818"
       y="-0.042103"
       width="1.111637"
       height="1.084205">
      <feGaussianBlur
         inkscape:collect="always"
         stdDeviation="6.561501"
         id="feGaussianBlur110" />
    </filter>
    <filter
       inkscape:collect="always"
       inkscape:label="blurWaterHilight"
       style="color-interpolation-filters:sRGB"
       id="blurWaterHilight"
       x="-0.071178"
       y="-0.051856"
       width="1.142356"
       height="1.103712">
      <feGaussianBlur
         inkscape:collect="always"
         stdDeviation="6.857532"
         id="feGaussianBlur113" />
    </filter>
    <filter
       inkscape:collect="always"
       inkscape:label="blurGrass"
       style="color-interpolation-filters:sRGB"
       id="blurGrass"
       x="-0.032100"
       y="-0.019164"
       width="1.064201"
       height="1.038328">
      <feGaussianBlur
         inkscape:collect="always"
         stdDeviation="2.386213"
         id="feGaussianBlur116" />
    </filter>
    <filter
       inkscape:collect="always"
       inkscape:label="blurForestShadow"
       style="color-interpolation-filters:sRGB"
       id="blurForestShadow"
       x="-0.033576"
       y="-0.018674"
       width="1.067152"
       height="1.037348">
      <feGaussianBlur
         inkscape:collect="always"
         stdDeviation="2.199785"
         id="feGaussianBlur119" />
    </filter>
    <linearGradient
       id="gradientStopsFish"
       inkscape:collect="always">
      <stop
         offset="0.000000"
         style="stop-color:#ff5555;stop-opacity:1.000000"
         id="stop128" />
      <stop
         offset="1.000000"
         style="stop-color:#ffffff;stop-opacity:1.000000"
         id="stop130" />
    </linearGradient>
    <linearGradient
       id="gradientStopsCoconut"
       inkscape:collect="always">
      <stop
         offset="0.000000"
         style="stop-color:#ffffff;stop-opacity:1.000000"
         id="stop133" />
      <stop
         offset="1.000000"
         style="stop-color:#c8c8c8;stop-opacity:0.000000"
         id="stop135" />
    </linearGradient>
    <linearGradient
       id="gradientStopsFlower"
       inkscape:collect="always">
      <stop
         offset="0.000000"
         style="stop-color:#b16dff;stop-opacity:1.000000"
         id="stop138" />
      <stop
         offset="1.000000"
         style="stop-color:#e7d2ff;stop-opacity:1.000000"
         id="stop140" />
    </linearGradient>
    <linearGradient
       id="gradientStopsJellyfish"
       inkscape:collect="always">
      <stop
         offset="0.000000"
         style="stop-color:#4f97ff;stop-opacity:1.000000"
         id="stop143" />
      <stop
         offset="1.000000"
         style="stop-color:#cfe3ff;stop-opacity:1.000000"
         id="stop145" />
    </linearGradient>
    <linearGradient
       id="gradientStopsShip"
       inkscape:collect="always">
      <stop
         offset="0.000000"
         style="stop-color:#b67800;stop-opacity:1.000000"
         id="stop148" />
      <stop
         offset="1.000000"
         style="stop-color:#d28b00;stop-opacity:1.000000"
         id="stop150" />
    </linearGradient>
    <linearGradient
       id="gradientFish"
       xlink:href="#gradientStopsFish"
       x1="178.789090"
       y1="-114.782830"
       x2="180.407300"
       y2="-103.782830"
       gradientTransform="translate(-178.76256,1.0606602)"
       gradientUnits="userSpaceOnUse"
       inkscape:collect="always" />
    <linearGradient
       id="gradientJellyfishTentacle1a"
       xlink:href="#gradientStopsJellyfish"
       x1="118.024030"
       y1="-110.827530"
       x2="121.753140"
       y2="-96.140030"
       gradientTransform="translate(-120,0)"
       gradientUnits="userSpaceOnUse"
       inkscape:collect="always" />
    <linearGradient
       id="gradientJellyfishTentacle1b"
       xlink:href="#gradientStopsJellyfish"
       x1="118.024030"
       y1="-110.827530"
       x2="121.753140"
       y2="-96.140030"
       gradientTransform="translate(-120,0)"
       gradientUnits="userSpaceOnUse"
       inkscape:collect="always" />
    <linearGradient
       id="gradientJellyfishTentacle2"
       xlink:href="#gradientStopsJellyfish"
       x1="118.218180"
       y1="-115.782610"
       x2="121.698270"
       y2="-97.813858"
       gradientTransform="translate(-120,0)"
       gradientUnits="userSpaceOnUse"
       inkscape:collect="always" />
    <linearGradient
       id="gradientJellyfishTentacle3"
       xlink:href="#gradientStopsJellyfish"
       x1="123.335370"
       y1="-114.610190"
       x2="116.678600"
       y2="-98.453941"
       gradientTransform="translate(-120,0)"
       gradientUnits="userSpaceOnUse"
       inkscape:collect="always" />
    <linearGradient
       id="gradientShip"
       xlink:href="#gradientStopsShip"
       x1="196.432910"
       y1="221.715270"
       x2="203.663250"
       y2="204.277770"
       gradientTransform="matrix(0.37654483,0.9263984,-0.9263984,0.37654483,355.66788,-318.43897)"
       gradientUnits="userSpaceOnUse"
       inkscape:collect="always" />
    <radialGradient
       id="gradientCoconut"
       xlink:href="#gradientStopsCoconut"
       cx="1.944096"
       cy="-60.612652"
       fx="1.944096"
       fy="-60.612652"
       r="6.723294"
       gradientUnits="userSpaceOnUse"
       gradientTransform="matrix(1.691364,-0.31394812,0.29762395,1.603419,17.826033,-7.042221)"
       inkscape:collect="always" />
    <radialGradient
       id="gradientFlower"
       xlink:href="#gradientStopsFlower"
       cx="60.884877"
       cy="-69.652750"
       fx="60.884877"
       fy="-69.652750"
       r="15.835310"
       gradientUnits="userSpaceOnUse"
       gradientTransform="matrix(0.8413905,0,0,0.87120012,-50.722984,-48.679159)"
       inkscape:collect="always" />
    <radialGradient
       id="gradientJellyfish"
       xlink:href="#gradientStopsJellyfish"
       cx="120.453410"
       cy="-112.943900"
       fx="120.453410"
       fy="-112.943900"
       r="10.580511"
       gradientUnits="userSpaceOnUse"
       gradientTransform="matrix(1.1662998,0.0435575,-0.04526952,1.2121402,-145.14628,17.080499)"
       inkscape:collect="always" />
  </defs>
  <sodipodi:namedview
     id="base"
     pagecolor="#ffffff"
     bordercolor="#666666"
     borderopacity="1.0"
     inkscape:pageopacity="0.0"
     inkscape:pageshadow="2"
     inkscape:zoom="2"
     inkscape:cx="42.37643"
     inkscape:cy="205.04449"
     inkscape:document-units="in"
     showgrid="true"
     units="in"
     inkscape:window-width="1392"
     inkscape:window-height="836"
     inkscape:window-x="39"
     inkscape:window-y="6"
     inkscape:window-maximized="0"
     inkscape:snap-grids="true"
     inkscape:snap-to-guides="true"
     inkscape:snap-nodes="true"
     inkscape:object-nodes="true"
     inkscape:snap-smooth-nodes="true"
     inkscape:snap-intersection-paths="true"
     inkscape:object-paths="true"
     inkscape:snap-bbox="true"
     inkscape:bbox-nodes="true"
     inkscape:snap-others="true"
     inkscape:bbox-paths="false"
     inkscape:snap-global="false"
     inkscape:current-layer="labels_guide_layer">
    <inkscape:grid
       type="xygrid"
       id="grid3051"
       empspacing="2"
       visible="true"
       enabled="true"
       snapvisiblegridlinesonly="true"
       spacingx="0.0625in"
       spacingy="0.0625in"
       dotted="false"
       units="in" />
  </sodipodi:namedview>
  <g
     inkscape:groupmode="layer"
     id="water_layer"
     inkscape:label="Water"
     style="display:inline"
     sodipodi:insensitive="true">
    <rect
       id="water"
       style="fill:#b9deff;fill-opacity:1;stroke:none"
       x="0"
       y="0"
       width="247.5"
       height="337.5" />
  </g>
  <g
     inkscape:groupmode="layer"
     id="water_shallow_layer"
     inkscape:label="Water Shallow"
     style="display:inline"
     sodipodi:insensitive="true">
    <path
       style="fill:#9bd1ff;fill-opacity:0.70;fill-rule:evenodd;stroke:none;filter:url(#blurWaterShallow)"
       d="m -11.25,-11.25 0,95.625 22.5,0 c 0,0 7.527219,0.451001 11.25,0 7.795155,-0.944355 19.322119,1.377377 22.875,-5.625 2.426259,-4.781918 -6.926809,-9.573059 -6.125,-14.875 0.60627,-4.008949 5.394711,-6.07472 7.75,-9.375 3.433,-4.810391 4.624526,-11.446639 9.25,-15.125 4.640739,-3.6905 10.948913,-5.819276 16.875,-5.625 6.836263,0.224115 13.101976,4.286183 19,7.75 4.371081,2.567067 9.01191,5.31683 11.875,9.5 3.84809,5.62233 5.65121,12.703389 6.125,19.5 0.45826,6.573706 -5.86958,13.453397 -3.25,19.5 2.68746,6.20328 13.68505,5.289519 16.875,11.25 2.6542,4.95942 0.68728,11.29214 0,16.875 -0.94458,7.6729 -1.81603,15.77264 -5.625,22.5 -3.9194,6.9224 -16.23383,8.94593 -16.875,16.875 -0.62074,7.6764 6.97564,14.6579 13.5,18.75 7.56158,4.74264 19.58987,10.42432 26.375,4.625 7.3494,-6.28161 -0.15801,-19.33795 -0.5,-29 -0.24796,-7.00565 -1.96063,-14.03995 -1.125,-21 0.91295,-7.60401 3.0819,-15.21023 6.625,-22 2.82684,-5.41718 7.19342,-9.919535 11.375,-14.375 3.45257,-3.678705 6.53978,-8.31752 11.25,-10.125 5.25161,-2.015234 11.3683,-1.147573 16.875,0 6.22918,1.298135 11.13761,7.713507 17.5,7.625 5.98276,-0.08323 10.41005,-6.322964 16.25,-7.625 5.4902,-1.224057 16.875,0 16.875,0 l 22.5,0 0,-95.625 z"
       inkscape:connector-curvature="0"
       id="path166" />
  </g>
  <g
     inkscape:groupmode="layer"
     id="water_deep_layer"
     inkscape:label="Water Deep"
     style="display:inline"
     sodipodi:insensitive="true">
    <path
       style="fill:#87c8ff;fill-opacity:0.60;fill-rule:evenodd;stroke:none;filter:url(#blurWaterDeep)"
       d="m -11.25,-11.25 0,61.875 22.5,0 c 0,0 11.646891,-6.963976 16.875,-11.25 4.101266,-3.362234 6.942343,-8.156605 11.25,-11.25 4.343933,-3.119445 13.159875,-3.940449 18.375,-5.125 12.068716,-2.741258 20.787917,-2.482235 33.125,-1.5 8.311718,0.66175 16.86662,0.909326 24.75,3.625 9.06901,3.1241 16.58309,9.649713 25,14.25 7.88258,4.308252 15.23513,10.040549 23.875,12.5 8.31719,2.367598 17.22779,1.791091 25.875,1.875 6.30019,0.06114 12.603,-0.401501 18.875,-1 5.15032,-0.491465 10.21348,-1.769997 15.375,-2.125 3.86587,-0.26589 11.625,0 11.625,0 l 22.5,0 0,-61.875 z"
       inkscape:connector-curvature="0"
       id="path169" />
  </g>
  <g
     inkscape:groupmode="layer"
     id="water_hilight_layer"
     inkscape:label="Water Hilight"
     style="display:inline"
     sodipodi:insensitive="true">
    <use
       xlink:href="#shoreline"
       height="100%"
       width="100%"
       x="0"
       y="0"
       style="display:inline;fill:#ffffff;fill-opacity:1;stroke:#ffffff;stroke-opacity:1;filter:url(#blurWaterHilight)"
       id="use172" />
  </g>
  <g
     inkscape:groupmode="layer"
     id="land_layer"
     inkscape:label="Land"
     style="display:inline"
     sodipodi:insensitive="true">
    <use
       xlink:href="#shoreline"
       height="100%"
       width="100%"
       x="0"
       y="0"
       style="display:inline;fill:#ffddab;fill-opacity:1;stroke:none;stroke-width:1;stroke-miterlimit:4;stroke-dasharray:none;stroke-opacity:1"
       id="use175" />
  </g>
  <g
     inkscape:groupmode="layer"
     id="land_texture_layer"
     inkscape:label="Land Texture"
     style="display:inline"
     sodipodi:insensitive="true">
    <use
       xlink:href="#shoreline"
       height="100%"
       width="100%"
       x="0"
       y="0"
       style="display:inline;fill:#ffca7d;fill-opacity:1;stroke:none;stroke-width:1;stroke-miterlimit:4;stroke-dasharray:none;stroke-opacity:1;filter:url(#textureLand)"
       id="use178" />
  </g>
  <g
     inkscape:groupmode="layer"
     id="shoreline_layer"
     inkscape:label="Shoreline"
     style="display:inline"
     sodipodi:insensitive="true">
    <use
       xlink:href="#shoreline"
       height="100%"
       width="100%"
       x="0"
       y="0"
       style="display:inline;fill:none;fill-opacity:1;stroke:#5f4c14;stroke-width:1;stroke-miterlimit:4;stroke-dasharray:none;stroke-opacity:1"
       id="use181" />
  </g>
  <g
     inkscape:groupmode="layer"
     id="shoreline_master_layer"
     inkscape:label="Shoreline Master"
     style="display:none"
     sodipodi:insensitive="true">
    <path
       id="shoreline"
       style="color:#000000;clip-rule:nonzero;display:inline;overflow:visible;visibility:visible;opacity:1;isolation:auto;mix-blend-mode:normal;color-interpolation:sRGB;color-interpolation-filters:linearRGB;solid-color:#000000;solid-opacity:1;fill-opacity:1;fill-rule:evenodd;filter:url(#roughenShoreline);color-rendering:auto;image-rendering:auto;shape-rendering:auto;text-rendering:auto;enable-background:accumulate"
       d="m 87.75,64.375 -15,3 c 0,0 -6,-9.375 -12.5,-2.875 -4.205873,14.257007 14.340339,13.031313 19.25,18.625 1.375,-4.625 7.875,-7.625 8.25,-18.75 z m 92.83203,45.74609 c -0.45211,0.0171 -4.67117,-0.87489 -5.1582,-0.66406 -7.05126,3.05242 -8.40624,9.98844 -8.19727,16.73047 0.28269,9.12093 -10.6049,5.14829 -5.74218,16.28516 2.90134,6.64479 4.63889,18.19253 10.70312,22.36914 3.6321,2.50153 3.48635,19.30276 -0.85572,29.70601 -4.40418,10.55207 -2.49755,23.35769 -5.4099,27.25102 -7.00189,9.36036 -30.92221,1.23491 -43.57526,3.59162 C 104.46513,228.72098 86.307795,220.58601 80.375,213.875 77.977491,211.163 83.380376,197.12147 71.633823,188.54666 65.214426,183.8606 60.05362,166.19507 61.92188,161.68359 65.525805,152.98082 62.270252,146.14516 76.471341,135.97252 89.827792,126.40491 94.723468,116.24189 95.625,112.5 96.59954,108.45508 91.155619,97.84507 84.375,101.25 72.07955,107.42424 82.591256,97.44747 67.310546,90.125 63.422316,88.26177 56.212079,110.09251 52.730469,102.68359 49.442179,95.68607 30.45495,104.54505 22.5,112.5 l -5.625,5.625 c -5.38426,-1.75 -11.46153,-2.375 -16.875,0 l -22.5,0 0,241.875 292.5,0 0,-241.875 -22.5,0 -22.5,0 c -11.25,0 -8.14051,-0.66206 -13.77344,-1.5918 -6.23223,-1.02867 10.33157,10.05789 4.56446,12.19922 -6.25604,2.32287 -12.0942,-4.02162 -17.98633,-1.68164 -7.32489,2.90898 -10.44092,-17.18599 -17.22266,-16.92969 z"
       inkscape:connector-curvature="0" />
  </g>
  <g
     inkscape:groupmode="layer"
     id="grass_layer"
     inkscape:label="Grass"
     style="display:inline"
     sodipodi:insensitive="true">
    <use
       xlink:href="#grass"
       height="100%"
       width="100%"
       x="0"
       y="0"
       style="display:inline;fill:#b4e982;fill-opacity:1;stroke:none;stroke-width:1;stroke-miterlimit:4;stroke-dasharray:none;stroke-opacity:1"
       id="use186" />
  </g>
  <g
     inkscape:groupmode="layer"
     id="grass_texture1_layer"
     inkscape:label="Grass Texture Big"
     style="display:inline"
     sodipodi:insensitive="true">
    <use
       xlink:href="#grass"
       height="100%"
       width="100%"
       x="0"
       y="0"
       style="display:inline;fill:#a7e46a;fill-opacity:1;stroke:none;stroke-width:1;stroke-miterlimit:4;stroke-dasharray:none;stroke-opacity:1;filter:url(#textureGrassBig)"
       id="use189" />
  </g>
  <g
     inkscape:groupmode="layer"
     id="grass_texture2_layer"
     inkscape:label="Grass Texture Small"
     style="display:inline"
     sodipodi:insensitive="true">
    <use
       xlink:href="#grass"
       height="100%"
       width="100%"
       x="0"
       y="0"
       style="display:inline;fill:#8cdd3d;fill-opacity:1;stroke:none;stroke-width:1;stroke-miterlimit:4;stroke-dasharray:none;stroke-opacity:1;filter:url(#textureGrassSmall)"
       id="use192" />
  </g>
  <g
     inkscape:groupmode="layer"
     id="grass_master_layer"
     inkscape:label="Grass Master"
     style="display:none"
     sodipodi:insensitive="true">
    <path
       id="grass"
       style="color:#000000;clip-rule:nonzero;display:inline;overflow:visible;visibility:visible;opacity:1;isolation:auto;mix-blend-mode:normal;color-interpolation:sRGB;color-interpolation-filters:linearRGB;solid-color:#000000;solid-opacity:1;fill-opacity:1;fill-rule:evenodd;filter:url(#blurGrass);color-rendering:auto;image-rendering:auto;shape-rendering:auto;text-rendering:auto;enable-background:accumulate"
       d="m 67,66 -2.5,3 4.5,6.5 4.5,3 6.5,1 5.5,-6 -12,-3 z m 0.5,35.25 -5.625,6.75 -11.25,-1.125 -12.375,2.625 -10.125,3 -4.625,12.25 -12.25,-1 -22.5,0 0,225 270,0 0,-225 -22.5,0 -17.25,1 4,5.125 -9.25,5.125 -20.875,-4 -9.25,-9.25 -9.25,-2 -3.5,11.625 -3.125,11.375 9.25,25.5 8.625,17.375 -4,22.5 -4.75,12.875 -13.75,9.625 -32.625,3 -23.625,-3 -22.5,-5.625 -11.25,-16.875 -9.75,-22.375 -7.125,-21.5 5.5,-15 L 71,134 l 13.375,-15.875 0,-11.25 L 76.25,107 Z"
       inkscape:connector-curvature="0" />
  </g>
  <g
     inkscape:groupmode="layer"
     id="forest_shadow_layer"
     inkscape:label="Forest Shadow"
     style="display:inline"
     sodipodi:insensitive="true">
    <g
       style="filter:url(#blurForestShadow)"
       id="g197">
      <use
         xlink:href="#forest"
         height="100%"
         width="100%"
         x="0"
         y="0"
         style="display:inline;opacity:0.75;fill:#258c1b;fill-opacity:1;filter:url(#roughenForest)"
         id="use199" />
    </g>
  </g>
  <g
     inkscape:groupmode="layer"
     id="forest_fill_layer"
     inkscape:label="Forest Fill"
     style="display:inline"
     sodipodi:insensitive="true">
    <use
       xlink:href="#forest"
       height="100%"
       width="100%"
       x="0"
       y="0"
       style="fill:#83d700;fill-opacity:1;stroke:none;stroke-width:1.5;stroke-miterlimit:4;stroke-dasharray:none;stroke-opacity:1;filter:url(#roughenForest)"
       id="use202" />
  </g>
  <g
     inkscape:groupmode="layer"
     id="forest_texture_big_layer"
     inkscape:label="Forest Texture Big"
     style="display:inline"
     sodipodi:insensitive="true">
    <g
       style="filter:url(#textureForestBig)"
       id="g205">
      <use
         xlink:href="#forest"
         height="100%"
         width="100%"
         x="0"
         y="0"
         style="fill:#548c00;fill-opacity:1;stroke:none;stroke-width:1.5;stroke-miterlimit:4;stroke-dasharray:none;stroke-opacity:1;filter:url(#roughenForest)"
         id="use207" />
    </g>
  </g>
  <g
     inkscape:groupmode="layer"
     id="forest_texture_small_layer"
     inkscape:label="Forest Texture Small"
     style="display:inline"
     sodipodi:insensitive="true">
    <g
       style="filter:url(#textureForestSmall)"
       id="g210">
      <use
         xlink:href="#forest"
         height="100%"
         width="100%"
         x="0"
         y="0"
         style="fill:#78c125;fill-opacity:1;stroke:none;stroke-width:1;stroke-miterlimit:4;stroke-dasharray:none;stroke-opacity:1;filter:url(#roughenForest)"
         id="use212" />
    </g>
  </g>
  <g
     inkscape:groupmode="layer"
     id="forest_outline_layer"
     inkscape:label="Forest Outline"
     style="display:inline"
     sodipodi:insensitive="true">
    <use
       xlink:href="#forest"
       height="100%"
       width="100%"
       x="0"
       y="0"
       style="fill:none;fill-opacity:1;stroke:#006800;stroke-width:1.5;stroke-miterlimit:4;stroke-dasharray:none;stroke-opacity:1;filter:url(#roughenForest)"
       id="use215" />
  </g>
  <g
     inkscape:groupmode="layer"
     id="forest_master_layer"
     inkscape:label="Forest Master"
     style="display:none"
     sodipodi:insensitive="true">
    <path
       id="forest"
       style="color:#000000;clip-rule:nonzero;display:inline;overflow:visible;visibility:visible;opacity:1;isolation:auto;mix-blend-mode:normal;color-interpolation:sRGB;color-interpolation-filters:linearRGB;solid-color:#000000;solid-opacity:1;fill-opacity:1;fill-rule:nonzero;color-rendering:auto;image-rendering:auto;shape-rendering:auto;text-rendering:auto;enable-background:accumulate"
       d="m 73,71 c -2.485281,0 -4.5,1.678932 -4.5,3.75 0,2.071068 2.014719,3.75 4.5,3.75 1.148613,-8.64e-4 2.253352,-0.367713 3.087891,-1.025391 C 76.843027,78.128066 77.896798,78.499112 79,78.5 c 2.209139,0 4,-1.455075 4,-3.25 C 83,73.455075 81.209139,72 79,72 78.169213,72.0015 77.359606,72.213092 76.683594,72.605469 75.843691,71.601448 74.468685,71.002161 73,71 Z m -14.5,37.5 c -2.440273,0.003 -4.73644,1.19316 -6.197266,3.21094 C 50.834214,109.99066 48.72122,109.00351 46.5,109 c -1.312672,0.003 -2.603016,0.35078 -3.75,1.00977 -0.08328,-0.005 -0.166621,-0.008 -0.25,-0.01 -4.280207,0 -7.75,3.58172 -7.75,8 0.0032,0.33452 0.02664,0.66851 0.07031,1 -0.375162,0.95286 -0.568802,1.97145 -0.570312,3 0.0032,3.12125 1.76462,5.95558 4.511719,7.25977 -0.0051,0.08 -0.009,0.1601 -0.01172,0.24023 0.0022,0.23678 0.01458,0.47334 0.03711,0.70898 -2.804367,0.65868 -5.024754,2.86629 -5.767578,5.73438 C 32.209246,135.65265 31.357827,135.50283 30.5,135.5 c -3.536722,0.005 -6.621641,2.48063 -7.498047,6.01758 -4.078008,0.27108 -7.25142,3.76414 -7.251953,7.98242 0.0035,0.86651 0.143331,1.72667 0.414062,2.54688 C 14.745234,150.73209 12.906669,150.00334 11,150 c -0.680105,8.4e-4 -1.3571443,0.0941 -2.0136719,0.27734 C 8.3386404,150.09653 7.6709481,150.0033 7,150 6.3198949,150.00084 5.6428557,150.0941 4.9863281,150.27734 4.3386404,150.09653 3.6709481,150.0033 3,150 2.1497055,150.003 1.3057468,150.1512 0.50195312,150.4375 -0.30308054,150.15076 -1.1483939,150.00294 -2,150 c -4.2802068,0 -7.75,3.58172 -7.75,8 5.388e-4,0.0247 0.00119,0.0495 0.00195,0.0742 -0.65544,1.1979 -1.000535,2.55004 -1.00195,3.9258 0.0044,3.32943 2.005893,6.30802 5.0253906,7.47852 -0.013958,0.1735 -0.022426,0.34741 -0.025391,0.52148 9.876e-4,2.948 1.5725325,5.65655 4.0898438,7.04883 -1.3397306,1.47863 -2.0865368,3.4266 -2.0898438,5.45117 0.00251,0.65885 0.083853,1.31486 0.2421875,1.95312 -1.1254135,1.42559 -1.7406654,3.20789 -1.7421875,5.04688 0.00203,1.85134 0.6260276,3.64465 1.765625,5.07422 -3.864603,0.51084 -6.7610336,3.90394 -6.7656246,7.92578 8.53e-4,0.97476 0.174274,1.94116 0.5117184,2.85156 0.1822007,4.27573 3.59216,7.6461 7.7382812,7.64844 0.3319682,-0.003 0.6633802,-0.0289 0.9921875,-0.0762 0.33397452,0.048 0.67062746,0.0734 1.0078125,0.0762 1.2190698,-2.5e-4 2.4208884,-0.29736 3.5078125,-0.86719 C 4.5900269,212.70018 5.7862122,212.99722 7,213 c 0.7023688,0 1.4014778,-0.0986 2.078125,-0.29297 1.446974,1.46727 3.393536,2.29049 5.421875,2.29297 4.280207,0 7.75,-3.58172 7.75,-8 -0.0018,-3.83689 -2.642265,-7.13217 -6.292969,-7.85352 C 16.148576,198.44802 16.247137,197.7259 16.25,197 16.2487,196.9394 16.2468,196.87888 16.2441,196.81836 16.575755,195.918 16.747124,194.96323 16.75,194 c -0.0027,-0.20672 -0.01309,-0.41325 -0.03125,-0.61914 0.423147,0.0763 0.851706,0.11615 1.28125,0.11914 2.37821,-0.003 4.623206,-1.13389 6.089844,-3.06641 0.301859,0.0406 0.60577,0.0627 0.910156,0.0664 3.766519,-0.004 6.985214,-2.80199 7.628906,-6.63281 0.452308,0.0862 0.91115,0.13063 1.371094,0.13281 3.922952,-0.003 7.224942,-3.03172 7.689453,-7.05273 0.895498,0.3627 1.848585,0.55014 2.810547,0.55273 4.280207,0 7.75,-3.58172 7.75,-8 -0.0037,-1.12848 -0.238679,-2.24339 -0.689453,-3.27148 0.123829,-0.56735 0.187355,-1.14695 0.189453,-1.72852 -0.0033,-2.73616 -1.361093,-5.28078 -3.599609,-6.74609 2.240787,-1.4668 3.59888,-4.01497 3.599609,-6.75391 -1.65e-4,-2.63418 -1.256541,-5.09945 -3.359375,-6.5918 0.367183,0.058 0.73793,0.0887 1.109375,0.0918 2.13353,-0.004 4.17122,-0.91514 5.632812,-2.51953 0.122229,0.01 0.24466,0.016 0.367188,0.0195 4.280207,0 7.75,-3.58172 7.75,-8 -0.0031,-1.4083 -0.3662,-2.79081 -1.052734,-4.00781 3.80612,-0.10442 6.975016,-3.04732 7.476562,-6.94336 0.701521,-1.22664 1.07304,-2.62439 1.076172,-4.04883 -0.005,-3.93019 -2.774848,-7.27455 -6.535156,-7.89062 C 62.749075,109.45023 60.67529,108.50335 58.5,108.5 Z m -5.800781,13.28516 c 0.480897,0.56461 1.036493,1.05642 1.65039,1.46093 0.150192,0.97332 0.473325,1.90961 0.953125,2.76172 -0.583453,0.0159 -1.163301,0.0998 -1.728515,0.25 -0.506073,-1.17014 -1.277052,-2.19766 -2.248047,-2.99609 0.517039,-0.42947 0.978497,-0.92572 1.373047,-1.47656 z M 201.5,144 c -4.28021,0 -7.75,3.58172 -7.75,8 0.002,0.23678 0.0146,0.47334 0.0371,0.70898 -3.52679,0.82503 -6.03207,4.05815 -6.03711,7.79102 0.002,3.5581 2.28124,6.68688 5.5918,7.67773 0.19625,1.3663 0.73186,2.65688 1.55468,3.7461 -2.54762,1.38117 -4.14415,4.10573 -4.14647,7.07617 0,4.41828 3.46979,8 7.75,8 0.85651,-0.003 1.70658,-0.15309 2.51562,-0.44336 0.25535,0.98345 0.69022,1.90754 1.28126,2.72266 -2.21103,1.4733 -3.54669,4.00414 -3.54688,6.7207 0,4.41828 3.46979,8 7.75,8 2.44605,-0.004 4.74693,-1.19884 6.20703,-3.22461 0.37656,0.30748 0.77999,0.57817 1.20508,0.80859 0.7297,3.729 3.90246,6.41176 7.58789,6.41602 2.49082,-0.003 4.8286,-1.24094 6.2832,-3.32812 0.10201,1.24236 0.48391,2.44291 1.11524,3.50585 1.22588,2.92364 4.01537,4.81783 7.10156,4.82227 0.94323,-3.1e-4 1.87848,-0.17836 2.75977,-0.52539 0.87515,0.34462 1.80357,0.52263 2.74023,0.52539 0.99713,-0.002 1.98459,-0.20193 2.9082,-0.58984 0.36143,0.0565 0.72627,0.0865 1.0918,0.0898 4.28021,0 7.75,-3.58172 7.75,-8 -0.001,-0.96992 -0.17328,-1.93152 -0.50781,-2.83789 0.003,-0.054 0.006,-0.10802 0.008,-0.16207 -0.002,-0.76117 -0.10918,-1.51815 -0.31836,-2.24805 0.20954,-0.73115 0.31674,-1.48947 0.31836,-2.25195 -0.004,-2.1669 -0.85839,-4.23965 -2.36914,-5.74414 1.51358,-1.50732 2.36872,-3.58489 2.36914,-5.75586 -0.003,-1.94366 -0.69206,-3.81959 -1.9375,-5.27734 0.44975,-0.84276 0.68534,-1.77574 0.6875,-2.72266 0,-3.31371 -2.79822,-6 -6.25,-6 -0.17542,0.001 -0.35071,0.01 -0.52539,0.0254 0.014,-0.1748 0.0225,-0.35003 0.0254,-0.5254 -6.3e-4,-0.17986 -0.007,-0.35965 -0.0195,-0.53906 0.25572,0.0262 0.51255,0.0392 0.76953,0.0391 4.28021,0 7.75,-3.58172 7.75,-8 -0.002,-0.50091 -0.0499,-1.0005 -0.14258,-1.49219 0.0936,-0.49682 0.14137,-1.00168 0.14258,-1.50781 0,-4.41828 -3.46979,-8 -7.75,-8 -1.68801,0.002 -3.32911,0.57369 -4.67383,1.62695 -0.43772,-0.0815 -0.88143,-0.12402 -1.32621,-0.12699 -0.42542,0.001 -0.85003,0.0383 -1.26953,0.11133 -0.40663,-0.0708 -0.8181,-0.10807 -1.23047,-0.11133 -1.33389,0.003 -2.64438,0.36181 -3.80469,1.04102 -0.57319,0.2332 -1.11739,0.53611 -1.62109,0.90234 C 230.11407,153.38222 228.1022,152.50035 226,152.5 c -0.42673,8.6e-4 -0.85265,0.0381 -1.27344,0.11133 -1.15552,-3.0805 -4.02643,-5.11109 -7.22656,-5.11133 -2.33988,0.002 -4.55359,1.09528 -6.02344,2.97461 -0.81847,-0.5959 -1.74109,-1.02239 -2.71679,-1.25586 C 207.63387,146.08426 204.73855,144.00293 201.5,144 Z m -163.519531,1.55664 c 0.08797,0.0336 0.17653,0.0655 0.265625,0.0957 -0.171209,0.19669 -0.332866,0.40202 -0.484375,0.61524 0.08359,-0.23334 0.156582,-0.47058 0.21875,-0.71094 z m -1.242188,2.67578 C 36.418436,149.11793 36.25312,150.05494 36.25,151 c 6.38e-4,0.17986 0.0072,0.35965 0.01953,0.53906 -0.255724,-0.0262 -0.512552,-0.0392 -0.769531,-0.0391 -2.091837,0.003 -4.093746,0.87837 -5.550781,2.42773 0.480048,-0.74858 0.83461,-1.57523 1.048828,-2.44531 2.28453,-0.15493 4.385795,-1.34462 5.740234,-3.25 z m -7.6875,6.83985 c -0.550452,0.85291 -0.937016,1.80705 -1.138672,2.81054 -0.227911,-0.46154 -0.498714,-0.89915 -0.808593,-1.30664 0.721715,-0.39239 1.378892,-0.89994 1.947265,-1.5039 z m 182.355469,8.49804 c -1.02807,1.35486 -1.60548,3.01584 -1.64648,4.73633 -0.52072,0.35415 -0.99814,0.77189 -1.42188,1.24414 0.27047,-0.82156 0.40966,-1.68308 0.41211,-2.55078 -6.1e-4,-0.72693 -0.0972,-1.45039 -0.28711,-2.15039 1.05652,-0.21087 2.05892,-0.64656 2.94336,-1.2793 z m -180.603516,2.28125 c 1.348468,1.06595 2.998825,1.64512 4.697266,1.64844 0.426725,-8.6e-4 0.852652,-0.0381 1.273438,-0.11133 0.05209,0.12908 0.107445,0.25673 0.166015,0.38281 -0.05545,0.25806 -0.09847,0.51879 -0.128906,0.78125 C 35.915049,168.19003 34.961962,168.00259 34,168 c -0.940487,6.7e-4 -1.873002,0.17804 -2.751953,0.52344 L 31.25,168.5 c -0.0033,-0.90254 -0.154518,-1.79799 -0.447266,-2.64844 z m 199.376956,1.38477 c -0.38949,0.7503 -0.66048,1.55997 -0.80274,2.39844 -0.45417,-0.0872 -0.91499,-0.1323 -1.37695,-0.13477 -0.9957,0.002 -1.98177,0.20116 -2.9043,0.58789 0.10258,-0.52266 0.15427,-1.05461 0.1543,-1.58789 l -0.002,-0.0371 c 0.24994,0.0249 0.5009,0.0373 0.752,0.0371 1.4816,-1.5e-4 2.93212,-0.43869 4.17969,-1.26367 z m -23.51758,5.21289 c -0.27047,0.82156 -0.40966,1.68308 -0.41211,2.55078 0.003,0.60112 0.072,1.19995 0.20508,1.78516 -0.15849,0.0476 -0.31547,0.10031 -0.4707,0.1582 -0.2684,-1.04202 -0.7381,-2.01728 -1.38086,-2.86719 0.76983,-0.41915 1.46576,-0.96916 2.05859,-1.62695 z m 20.95703,13.03125 c 0.12678,0.01 0.25377,0.0163 0.38086,0.0195 0.1303,-10e-4 0.26055,-0.006 0.39062,-0.0137 0.0245,0.12435 0.0518,0.24808 0.082,0.37109 -0.27695,-0.14314 -0.56197,-0.26902 -0.85352,-0.37695 z M 0,224 c -1.4134303,0.002 -2.7993581,0.40342 -4.0078125,1.16016 -2.8818547,0.59294 -5.1909611,2.81734 -5.9628906,5.74414 -1.1490619,1.43332 -1.7782469,3.23524 -1.7792969,5.0957 0.0035,2.17862 0.867528,4.26155 2.3925781,5.76758 -1.8285631,1.51827 -2.8922111,3.81003 -2.8925781,6.23242 0.0038,4.33617 3.3534324,7.87986 7.5527344,7.99023 C -5.384122,257.2078 -5.7472788,258.59104 -5.75,260 c 0.00276,2.29778 0.9625247,4.4834 2.6347656,6 -1.3672959,1.48373 -2.1313383,3.4522 -2.1347656,5.5 0.00222,2.29846 0.9620304,4.4849 2.6347656,6.00195 C -4.2869813,279.0181 -5.2466982,281.2029 -5.25,283.5 c 0.00159,2.12137 0.8193476,4.15523 2.2734375,5.6543 -3.6401421,0.72926 -6.2698403,4.01802 -6.2734375,7.8457 0.00218,0.93998 0.1648231,1.87221 0.4804688,2.75391 -0.314771,0.87924 -0.4774009,1.80874 -0.4804688,2.74609 0.0045,3.69924 2.4653997,6.91286 5.9511719,7.77148 0.018813,0.0151 0.037694,0.03 0.056641,0.0449 -0.00329,0.0612 -0.00589,0.12238 -0.00781,0.18362 0.00151,1.82691 0.6087329,3.59825 1.7207031,5.01953 C -3.5484656,317.0207 -4.7465427,319.43138 -4.75,322 c 0.00293,0.81814 0.1274268,1.63098 0.3691406,2.41016 -2.1059896,1.4897 -3.366141,3.95448 -3.3691406,6.58984 -3.4e-6,4.41434 3.4638418,7.99444 7.74023437,8 1.31469883,0.97371 2.89167453,1.49823 4.50976563,1.5 2.0263254,-3.9e-4 3.9719098,-0.81999 5.4199219,-2.2832 1.4123311,2.35045 3.9006401,3.78109 6.5800781,3.7832 1.722708,-6.1e-4 3.396115,-0.59369 4.755859,-1.68555 1.356574,1.08932 3.025449,1.68226 4.744141,1.68555 2.065555,-0.002 4.044694,-0.85599 5.498047,-2.37109 C 32.952353,341.145 34.93309,341.99861 37,342 c 0.850295,-0.003 1.694253,-0.1512 2.498047,-0.4375 0.805034,0.28674 1.650347,0.43456 2.501953,0.4375 1.613005,-0.004 3.184739,-0.52657 4.496094,-1.49609 1.313525,0.97112 2.888232,1.4942 4.503906,1.49609 3.71559,-0.002 6.907122,-2.72548 7.607422,-6.49219 0.0827,-0.0873 0.163446,-0.17649 0.242187,-0.26758 0.591295,3.88954 3.836285,6.75677 7.650391,6.75977 1.629268,-0.003 3.21615,-0.53616 4.535156,-1.52344 0.154686,0.0126 0.309704,0.0204 0.464844,0.0234 1.704451,-10e-4 3.360899,-0.5829 4.712891,-1.6543 1.359003,2.55896 3.960048,4.15102 6.787109,4.1543 2.376192,-0.004 4.619383,-1.13256 6.085938,-3.0625 0.683804,-0.51653 1.28092,-1.14531 1.767578,-1.86133 1.202081,2.97892 4.020305,4.92064 7.146484,4.92383 0.718769,-6.5e-4 1.433957,-0.1045 2.125,-0.30859 0.70924,0.3541 1.46664,0.59449 2.24609,0.71289 1.33624,1.03258 2.95973,1.59224 4.62891,1.5957 3.4951,-0.004 6.55512,-2.42244 7.4707,-5.9043 1.14906,-1.43332 1.77825,-3.23524 1.7793,-5.0957 -7.2e-4,-0.46031 -0.0399,-0.9197 -0.11719,-1.37305 0.40708,-0.98895 0.61698,-2.05242 0.61719,-3.12695 -0.004,-1.38936 -0.35767,-2.7538 -1.02734,-3.95898 0.015,-0.17997 0.0241,-0.36041 0.0273,-0.54102 -0.004,-2.20832 -0.89146,-4.31685 -2.45312,-5.82617 -1.3557,-2.56967 -3.9623,-4.17033 -6.79688,-4.17383 -1.70109,0.006 -3.35309,0.58918 -4.70117,1.66016 0.29534,-0.85392 0.44791,-1.75345 0.45117,-2.66016 -0.003,-0.78517 -0.11705,-1.56567 -0.33984,-2.31641 1.79597,-1.51816 2.83813,-3.78739 2.83984,-6.18359 0,-4.41828 -3.46979,-8 -7.75,-8 -2.968389,0.004 -5.673924,1.75738 -6.966797,4.51562 -1.60411,0.1 -3.138447,0.7122 -4.390625,1.75196 0.06835,-0.41891 0.104275,-0.84278 0.107422,-1.26758 -0.0032,-1.09453 -0.223848,-2.17674 -0.648438,-3.17969 2.819893,-1.27116 4.644165,-4.144 4.648438,-7.32031 -0.0033,-0.55965 -0.06357,-1.11739 -0.179688,-1.66406 2.837159,-1.26365 4.676025,-4.14628 4.679688,-7.33594 0,-4.41828 -3.469793,-8 -7.75,-8 -2.694662,0.004 -5.193728,1.45316 -6.599609,3.82617 -0.58308,-0.70997 -1.28171,-1.30945 -2.064453,-1.77148 0.27154,-0.82269 0.411394,-1.68556 0.414062,-2.55469 0,-4.41828 -3.469793,-8 -7.75,-8 -4.280207,0 -7.75,3.58172 -7.75,8 0.0014,2.33956 0.994835,4.56125 2.71875,6.08008 -1.209057,0.16748 -2.362738,0.62721 -3.367188,1.3418 C 60.99107,281.31807 59.755126,281.00171 58.5,281 c -1.786354,10e-4 -3.51745,0.63944 -4.900391,1.80664 C 52.916656,282.60561 52.210174,282.50243 51.5,282.5 c -4.280207,0 -7.75,3.58172 -7.75,8 0,4.41828 3.469793,8 7.75,8 1.786354,-10e-4 3.51745,-0.63944 4.900391,-1.80664 0.682953,0.20103 1.389435,0.30421 2.099609,0.30664 0.967097,4e-5 1.925657,-0.18677 2.826172,-0.55078 -0.04773,0.34815 -0.07318,0.69917 -0.07617,1.05078 l 0,0.0117 c -0.08327,-0.005 -0.166611,-0.009 -0.25,-0.0117 -3.91709,0.003 -7.216035,3.02306 -7.6875,7.03711 -1.836419,0.17042 -3.553815,1.01111 -4.84375,2.37109 C 46.998474,305.069 44.810031,304.00271 42.5,304 c -2.97237,0.004 -5.680451,1.76323 -6.970703,4.52734 C 35.353218,308.512 35.176683,308.50288 35,308.5 c -2.193668,0.004 -4.283093,0.96671 -5.75,2.65039 -0.736482,-0.8464 -1.639381,-1.5209 -2.648438,-1.97851 0.747647,-1.25494 1.145065,-2.69862 1.148438,-4.17188 0,-4.41828 -3.469793,-8 -7.75,-8 -0.794344,0.003 -1.58351,0.13218 -2.339844,0.38281 -0.100942,-0.74358 -0.302792,-1.4688 -0.599609,-2.15429 0.123829,-0.56735 0.187355,-1.14695 0.189453,-1.72852 -4.32e-4,-0.53799 -0.05344,-1.07456 -0.158203,-1.60156 C 18.27687,292.61683 19.625691,292.99701 21,293 c 1.734533,-4.4e-4 3.418783,-0.60152 4.783203,-1.70703 0.562997,0.13487 1.138843,0.20432 1.716797,0.20703 4.280207,0 7.75,-3.58172 7.75,-8 l 0,-0.01 c 2.464738,-1.40673 3.996167,-4.08299 4,-6.99023 -0.002,-1.47591 -0.39945,-2.92249 -1.148438,-4.17969 2.819819,-1.27113 4.644076,-4.14386 4.648438,-7.32008 -0.0013,-0.97345 -0.174727,-1.93848 -0.511719,-2.84766 3.270115,-1.0183 5.508836,-4.12649 5.511719,-7.65234 -0.0024,-1.75156 -0.561612,-3.4539 -1.591797,-4.8457 0.02546,-0.16921 0.04565,-0.33922 0.06055,-0.50977 0.738976,0.23532 1.507911,0.35513 2.28125,0.35547 4.280207,0 7.75,-3.58172 7.75,-8 -0.0021,-4.06951 -2.963395,-7.48893 -6.880859,-7.94531 C 48.340919,230.24846 45.363905,228.00445 42,228 c -4.280207,0 -7.75,3.58172 -7.75,8 6.49e-4,1.80166 0.590427,3.55035 1.673828,4.96289 -1.573661,0.57197 -2.926504,1.65287 -3.857422,3.08203 C 30.74129,243.04352 29.142262,242.50254 27.5,242.5 c -0.578678,0.003 -1.155188,0.0733 -1.71875,0.20898 0.30666,-0.86827 0.465256,-1.78482 0.46875,-2.70898 0,-4.41828 -3.469793,-8 -7.75,-8 -0.257788,0.003 -0.51527,0.0193 -0.771484,0.0488 C 17.496906,227.81622 14.106877,224.50501 10,224.5 c -0.1831088,-1.8e-4 -0.3661664,0.006 -0.5488281,0.0195 -0.148283,0.0145 -0.2961309,0.0334 -0.4433594,0.0566 C 8.673838,224.52818 8.337185,224.50273 8,224.5 7.6680318,224.503 7.3366198,224.5289 7.0078125,224.5762 6.673838,224.52818 6.337185,224.50273 6,224.5 5.7592788,224.502 5.5187837,224.5158 5.2792969,224.541 4.3928553,224.18623 3.4507379,224.00284 2.5,224 2.0745801,224.001 1.6499685,224.0383 1.2304688,224.11133 0.8238352,224.04049 0.41237245,224.00326 0,224 Z m 236,3 c -4.28021,0 -7.75,3.58172 -7.75,8 0.003,2.10679 0.81066,4.12738 2.24805,5.62305 -0.94934,-0.41118 -1.96853,-0.62298 -2.99805,-0.62305 -1.96453,0.002 -3.85499,0.77415 -5.28906,2.16016 -1.35074,-1.07308 -3.0065,-1.65658 -4.71094,-1.66016 -3.86663,0.005 -7.13839,2.95055 -7.66797,6.9043 -1.4485,-2.1305 -3.81054,-3.40041 -6.33203,-3.4043 -4.12843,0.006 -7.52788,3.35095 -7.73047,7.60742 -1.60258,1.51302 -2.51662,3.65074 -2.51953,5.89258 0.002,2.04887 0.76533,4.01889 2.13281,5.50391 -2.80351,0.0439 -5.3654,1.64756 -6.69922,4.19336 C 188.13106,267.06819 187.56649,267.00204 187,267 c -4.28021,0 -7.75,3.58172 -7.75,8 0,4.41828 3.46979,8 7.75,8 0.34314,-0.003 0.68569,-0.03 1.02539,-0.0801 -0.17992,0.67787 -0.27251,1.37726 -0.27539,2.0801 0,4.41828 3.46979,8 7.75,8 0.10684,-0.002 0.21363,-0.006 0.32031,-0.0117 0.0686,0.57251 0.19691,1.13568 0.38281,1.67969 -1.56309,1.5107 -2.45102,3.62166 -2.45312,5.83201 0.002,3.45995 2.15925,6.52622 5.3457,7.59961 -2.37827,1.43173 -3.84217,4.05842 -3.8457,6.90039 0.004,2.47348 1.11555,4.8061 3.01172,6.31836 -0.25942,0.17328 -0.50856,0.36242 -0.7461,0.56641 -1.45544,-1.52459 -3.44205,-2.38353 -5.51562,-2.38477 -0.0977,10e-4 -0.19538,0.005 -0.29297,0.01 -0.069,-0.004 -0.13798,-0.008 -0.20703,-0.01 -1.34235,0.004 -2.66079,0.36701 -3.82617,1.05469 -0.83944,-0.77542 -1.83255,-1.35263 -2.91016,-1.69141 1.58305,-1.51214 2.48405,-3.63687 2.48633,-5.86328 0,-4.41828 -3.46979,-8 -7.75,-8 -2.68238,0.004 -5.17208,1.43938 -6.58203,3.79492 -3.3502,0.96452 -5.66761,4.11482 -5.66797,7.70508 0.003,0.36935 0.03,0.73808 0.082,1.10352 -2.53577,0.40096 -4.71502,2.07123 -5.82031,4.46093 -0.45991,-1.89264 -1.57407,-3.54652 -3.13281,-4.65039 2.39213,-1.42755 3.86703,-4.06181 3.87112,-6.91406 -0.004,-0.86169 -0.14217,-1.71711 -0.41016,-2.5332 0.2195,0.0208 0.43975,0.0318 0.66016,0.0332 4.28021,0 7.75,-3.58172 7.75,-8 0,-4.41828 -3.46979,-8 -7.75,-8 -0.97499,0.004 -1.94045,0.19843 -2.8457,0.57227 0.3928,-0.97355 0.59525,-2.01766 0.5957,-3.07227 -0.005,-3.9262 -2.76967,-7.26828 -6.52539,-7.88867 -1.15526,-3.07981 -4.02519,-5.11025 -7.22461,-5.11133 -1.41042,0.003 -2.79343,0.40229 -4,1.15625 -1.42634,-2.27714 -3.87306,-3.65342 -6.5,-3.65625 -1.89929,0.003 -3.73139,0.72583 -5.14844,2.03125 -4.01351,0.34786 -7.09995,3.81119 -7.10156,7.96875 0.002,2.39417 1.04245,4.66162 2.83594,6.17969 -0.22183,0.75219 -0.33503,1.53403 -0.33594,2.32031 0,4.41828 3.46979,8 7.75,8 0.6102,-0.003 1.21793,-0.0803 1.81055,-0.23047 -2.21907,1.47186 -3.56058,4.00771 -3.56055,6.73047 0.004,3.0288 1.66373,5.79586 4.28906,7.14844 -3.64845,0.72291 -6.28673,4.01667 -6.28906,7.85156 0.003,0.84716 0.13732,1.68837 0.39648,2.49219 -0.26075,0.80879 -0.39459,1.65541 -0.39648,2.50781 0.002,0.76117 0.10918,1.51815 0.31836,2.24805 -0.20954,0.73115 -0.31674,1.48947 -0.31836,2.25195 0.002,0.0475 0.004,0.0951 0.006,0.14258 -1.28806,1.46792 -2.00283,3.37686 -2.006,5.35742 0,4.41828 3.46979,8 7.75,8 3.08052,-0.002 5.8677,-1.88622 7.09961,-4.80078 2.21362,-0.6448 4.03542,-2.27125 4.97266,-4.43945 0.97017,3.401 3.99314,5.73718 7.42773,5.74023 1.07399,-0.004 2.1355,-0.23785 3.11719,-0.6875 0.36971,-0.0793 0.7333,-0.18633 1.08789,-0.32031 0.69076,-0.0197 1.37587,-0.13463 2.03711,-0.3418 0.73176,0.23096 1.49261,0.34877 2.25781,0.34961 1.2176,-2.8e-4 2.418,-0.2967 3.50391,-0.86523 1.45381,1.51245 3.43203,2.36377 5.49609,2.36523 1.58346,-0.003 3.12801,-0.50682 4.42578,-1.44336 1.46015,1.56114 3.47202,2.44301 5.57422,2.44336 3.32637,-0.003 6.28005,-2.19643 7.33984,-5.45117 1.12547,0.62357 2.38281,0.95032 3.66016,0.95117 2.12074,-0.004 4.14734,-0.90448 5.60742,-2.49219 1.44175,2.18199 3.83391,3.4888 6.39258,3.49219 2.53257,-10e-4 4.90484,-1.27951 6.35352,-3.42383 1.20208,2.97892 4.0203,4.92064 7.14648,4.92383 2.59722,-0.002 5.02078,-1.34693 6.45508,-3.58203 0.34611,0.0516 0.69522,0.079 1.04492,0.082 1.55818,-0.003 3.07943,-0.48991 4.36523,-1.39844 1.20804,2.96491 4.01881,4.89467 7.13477,4.89844 0.48652,-0.002 0.97173,-0.0521 1.44922,-0.14844 0.96394,0.42704 2.00182,0.64764 3.05078,0.64844 4.28021,0 7.75,-3.58172 7.75,-8 -0.003,-0.84716 -0.13732,-1.68837 -0.39648,-2.49219 0.26075,-0.80879 0.39459,-1.65541 0.39648,-2.50781 -0.002,-1.30735 -0.31465,-2.59424 -0.91016,-3.74805 0.59611,-1.15498 0.90863,-2.44328 0.91016,-3.75195 -9.8e-4,-2.67809 -1.30007,-5.17803 -3.46094,-6.66016 0.11684,-0.11481 0.23018,-0.23335 0.33985,-0.35546 1.66321,-1.51558 2.61745,-3.69427 2.62109,-5.98438 -0.002,-3.45995 -2.15925,-6.52622 -5.3457,-7.59961 1.37976,-0.83189 2.4767,-2.08368 3.14062,-3.58398 2.29942,-1.45234 3.70255,-4.03374 3.70508,-6.81641 -5.4e-4,-1.8196 -0.60197,-3.58464 -1.70508,-5.00391 1.10148,-1.41717 1.70282,-3.17918 1.70508,-4.99609 -0.003,-1.62302 -0.48367,-3.20678 -1.37891,-4.54102 0.24985,-0.79422 0.37771,-1.62393 0.37891,-2.45898 -0.003,-2.0205 -0.74569,-3.96516 -2.08008,-5.44336 0.70419,-1.22853 1.07711,-2.62917 1.08008,-4.05664 -0.004,-1.95651 -0.70221,-3.84372 -1.96289,-5.30469 0.30316,-0.86431 0.45975,-1.77609 0.46289,-2.69531 -0.004,-1.66907 -0.51329,-3.29511 -1.45703,-4.65039 0.62763,-1.17967 0.9568,-2.50374 0.95703,-3.84961 -0.003,-0.51226 -0.0531,-1.02307 -0.15039,-1.52539 4.03499,-0.32322 7.14968,-3.79694 7.15039,-7.97461 -4.5e-4,-0.19226 -0.008,-0.38444 -0.0215,-0.57617 0.0108,-0.14106 0.0179,-0.28238 0.0215,-0.42383 0,-4.41434 -3.46384,-7.99444 -7.74023,-8 -1.3147,-0.97372 -2.89168,-1.49824 -4.50977,-1.5 -0.49916,0.003 -0.99692,0.0549 -1.48633,0.15625 C 240.5153,227.05305 240.0083,227.00072 239.5,227 c -0.58877,0.003 -1.17524,0.0762 -1.74805,0.2168 C 237.17787,227.07592 236.59007,227.00318 236,227 Z M 3.2207031,239.95898 c 0.03377,0.0126 0.067625,0.025 0.1015625,0.0371 -0.077913,0.19561 -0.1482812,0.39434 -0.2109375,0.59571 -0.2377178,-0.0356 -0.4769083,-0.0597 -0.7167969,-0.0723 l 0.00195,-0.002 c 0.1100058,-0.17095 0.2135981,-0.34621 0.3105468,-0.52539 0.1715328,-0.005 0.3428512,-0.0163 0.5136719,-0.0332 z m 16.9980469,7.83204 c -0.30666,0.86827 -0.465256,1.78482 -0.46875,2.70898 8.75e-4,0.43518 0.03615,0.86957 0.105469,1.29883 C 18.809166,251.27617 17.662371,251.00316 16.5,251 c -0.628308,0.002 -1.253994,0.0838 -1.863281,0.24219 1.235973,-0.80597 2.225899,-1.95637 2.855469,-3.31836 0.333974,0.048 0.670627,0.0734 1.007812,0.0762 0.578678,-0.003 1.155188,-0.0733 1.71875,-0.20898 z m -7.884766,4.46289 c -0.0658,0.0458 -0.130909,0.0927 -0.195312,0.14062 -0.01289,-0.0255 -0.02591,-0.0509 -0.03906,-0.0762 0.07845,-0.0202 0.156581,-0.0417 0.234375,-0.0645 z m 198.833986,0.84179 c 0.55107,0.81298 1.24385,1.51304 2.04297,2.06446 -1.34288,1.29599 -2.19574,3.04254 -2.40625,4.92773 -0.20343,0.22798 -0.39386,0.46796 -0.57031,0.71875 -0.57236,-0.38591 -1.19167,-0.69196 -1.8418,-0.91016 0.19477,-0.65041 0.30832,-1.32381 0.33789,-2.0039 1.32814,-1.25773 2.19008,-2.95399 2.4375,-4.79688 z m 17.70703,2.77344 c 0.075,0.1048 0.15252,0.2077 0.23242,0.30859 C 228.57908,256.0608 228.04034,256.00124 227.5,256 c -0.1466,9.1e-4 -0.29314,0.006 -0.43945,0.0156 -0.011,-0.0131 -0.0221,-0.0261 -0.0332,-0.0391 0.15728,0.0128 0.31491,0.0206 0.47265,0.0235 0.46119,-0.001 0.92135,-0.0451 1.375,-0.13086 z m -196.353516,0.71484 c 0.06764,0.25855 0.147824,0.51343 0.240235,0.76368 -3.110691,0.97272 -5.302898,3.84575 -5.490235,7.19531 -0.741306,0.071 -1.468834,0.2519 -2.160156,0.53711 -0.73561,-0.56364 -1.562205,-0.98818 -2.441406,-1.25391 C 23.692004,262.43816 24.24684,260.74348 24.25,259 c -8.75e-4,-0.43518 -0.03615,-0.86957 -0.105469,-1.29883 1.046303,0.52266 2.193098,0.79567 3.355469,0.79883 1.841171,-0.003 3.621278,-0.6819 5.021484,-1.91602 z m -15.992187,21.77735 c 0.02789,0.0177 0.05588,0.0353 0.08398,0.0527 -0.04131,0.0302 -0.08232,0.0608 -0.123047,0.0918 0.01346,-0.048 0.02648,-0.0962 0.03906,-0.14453 z m 216.695313,1.10351 c 0.16962,0.10181 0.34292,0.19693 0.51953,0.28516 -0.40694,0.19776 -0.79643,0.43172 -1.16406,0.69922 0.23818,-0.31118 0.45362,-0.64022 0.64453,-0.98438 z m -2.30078,2.59375 c -0.0647,0.0814 -0.12789,0.16409 -0.18945,0.24805 0.002,-0.0377 0.004,-0.0755 0.006,-0.11328 0.0618,-0.044 0.12304,-0.0889 0.1836,-0.13477 z m -1.66797,4.65039 c -0.004,0.097 -0.006,0.19398 -0.006,0.29102 0.004,0.62069 0.0782,1.23878 0.2207,1.8418 -0.36092,-0.37338 -0.75672,-0.709 -1.18164,-1.00196 0.35605,-0.34468 0.67975,-0.72332 0.9668,-1.13086 z m -87.73438,3.92188 c 0.97419,0.84162 2.13387,1.42314 3.37696,1.69336 -0.74832,1.25607 -1.14576,2.7012 -1.14844,4.17578 0.001,1.5639 0.44686,3.09308 1.28125,4.39844 l -0.004,0.0156 C 143.62526,299.67931 141.84291,299.00071 140,299 c -0.6102,0.003 -1.21793,0.0803 -1.81055,0.23047 2.21907,-1.47186 3.56058,-4.00771 3.56055,-6.73047 -0.005,-0.63016 -0.0813,-1.25756 -0.22852,-1.86914 z m 75.34571,6.97656 c 0.61289,1.49752 1.65322,2.76676 2.98242,3.63867 -0.43111,0.28251 -0.83411,0.60832 -1.20313,0.97266 -0.26997,-1.70165 -1.06533,-3.26771 -2.26757,-4.46484 0.16427,-0.0433 0.32712,-0.0922 0.48828,-0.14649 z m 13.17969,1.88672 c 0.0514,0.1159 0.10542,0.23052 0.1621,0.34375 -0.46366,0.66617 -0.82531,1.40198 -1.07226,2.18164 -0.30854,-0.28186 -0.63836,-0.53788 -0.98633,-0.76562 0.72196,-0.47447 1.3628,-1.06911 1.89649,-1.75977 z m -13.63282,10.09961 c 0.49252,2.49106 2.10278,4.59216 4.33789,5.66016 -0.8104,0.38759 -1.5498,0.91686 -2.18554,1.56445 -0.4511,-2.16107 -1.74839,-4.03313 -3.58399,-5.17188 0.57965,-0.60155 1.0629,-1.29445 1.43164,-2.05273 z m -69.65039,1.30469 c 0.0929,1.93654 0.86405,3.77234 2.16992,5.16601 -0.30966,-0.0409 -0.62142,-0.0624 -0.93359,-0.0645 -1.36598,0.003 -2.70683,0.37933 -3.88672,1.08984 -0.71353,-0.94193 -1.62254,-1.70677 -2.66016,-2.23828 2.24897,-0.44326 4.19296,-1.89035 5.31055,-3.95312 z m 87.98438,1.38476 c 0.16104,0.0385 0.32323,0.0718 0.48633,0.0996 0.59908,1.11645 1.44824,2.06874 2.47656,2.77735 -0.42349,0.40698 -0.8015,0.86163 -1.12696,1.35546 -0.11675,0.008 -0.23331,0.0181 -0.3496,0.0313 -0.087,-1.53939 -0.60317,-3.02002 -1.48633,-4.26368 z m -161.007816,2.91602 c 0.54196,0.77233 1.213331,1.43841 1.982422,1.9668 -0.339863,0.32353 -0.651,0.67781 -0.929687,1.05859 -0.428453,-0.34814 -0.891303,-0.64864 -1.38086,-0.89649 0.201919,-0.6911 0.312296,-1.40724 0.328125,-2.1289 z m -14.68164,3.34961 c 0.01349,0.03 0.02717,0.06 0.04102,0.0898 -0.05806,0.01 -0.116002,0.0201 -0.173828,0.0312 0.04472,-0.0398 0.08899,-0.0802 0.132813,-0.12109 z m -3.464844,1.76953 c -0.141525,0.11802 -0.278979,0.24114 -0.412109,0.36914 -0.06853,-0.0881 -0.138856,-0.17473 -0.210938,-0.25977 0.209037,-0.0277 0.416892,-0.0642 0.623047,-0.10937 z"
       inkscape:connector-curvature="0" />
  </g>
  <g
     inkscape:groupmode="layer"
     id="routes_layer"
     inkscape:label="Routes"
     style="display:inline"
     sodipodi:insensitive="true">
    <path
       style="display:inline;fill:none;stroke:#000000;stroke-width:2;stroke-linecap:round;stroke-miterlimit:4;stroke-dasharray:0.1, 5;stroke-dashoffset:0;stroke-opacity:1"
       d="m 93.31533,228.96089 c 11.58231,12.56935 35.33795,23.6788 64.15711,18.57106 C 183.02828,243.00258 204.25,219.375 230.625,219.375 l 16.875,0 M 123.75,0 l 0,11.25 c 0,3.75 0.68115,27.900438 11.76777,48.194544 7.4045,13.553967 10.38591,67.519666 1.60723,91.805456 -3.84764,10.64431 -17.99184,42.9094 -49.375,73.87499 -2.744679,2.70816 33.69615,-16.1056 -1.250002,-7.12499 -27.754218,7.1324 -46.619139,1.375 -69.624998,1.375 l -16.875,0 m 85.19033,7.83589 c -20.36688,16.27518 1.62671,34.93199 18.78996,48.48263 C 122.32431,290.1764 123.75,320.625 123.75,326.25 l 0,11.25"
       inkscape:connector-curvature="0"
       id="path220" />
  </g>
  <g
     inkscape:groupmode="layer"
     id="labels_layer"
     inkscape:label="Labels"
     style="display:inline"
     sodipodi:insensitive="true">
    <text
       xml:space="preserve"
       id="text223"><textPath
         xlink:href="#port_able"
         id="textPath225"><tspan
   style="-inkscape-font-specification:'CCTreasureTroveAged Mod, Normal';font-family:'CCTreasureTroveAged Mod';font-weight:normal;font-style:normal;font-stretch:normal;font-variant:normal;font-size:8.75px;text-anchor:start;text-align:start;writing-mode:lr;line-height:125%"
   id="tspan227">Port Able</tspan></textPath></text>
  </g>
  <g
     inkscape:groupmode="layer"
     id="labels_guide_layer"
     inkscape:label="Labels Guide"
     style="display:none">
    <path
       id="port_able"
       style="color:#000000;fill:none;stroke:#000000;stroke-width:1;stroke-opacity:1"
       d="m 158.52863,200.33781 c -10,10 -31.875,9.875 -45.125,8.625"
       inkscape:connector-curvature="0"
       sodipodi:nodetypes="cc" />
  </g>
  <g
     inkscape:groupmode="layer"
     id="resources_layer"
     inkscape:label="Resources"
     style="display:inline"
     sodipodi:insensitive="true">
    <g
       id="resource-fish"
       transform="matrix(-0.75920715,-0.65084906,0.65084906,-0.75920715,162.61833,134.5271)">
      <circle
         cx="0.060593002"
         cy="-110.10999"
         r="19"
         style="opacity:1;fill:#ffffff;fill-opacity:1;stroke:#000000;stroke-width:0.89999998;stroke-linecap:round;stroke-linejoin:round;stroke-miterlimit:4;stroke-dasharray:none;stroke-dashoffset:0;stroke-opacity:1"
         id="circle233" />
      <g
         id="g235">
        <path
           style="color:#000000;clip-rule:nonzero;display:inline;overflow:visible;visibility:visible;opacity:1;isolation:auto;mix-blend-mode:normal;color-interpolation:sRGB;color-interpolation-filters:linearRGB;solid-color:#000000;solid-opacity:1;fill:url(#gradientFish);fill-opacity:1;fill-rule:evenodd;stroke:none;stroke-width:0.89999998;stroke-linecap:round;stroke-linejoin:miter;stroke-miterlimit:4;stroke-dasharray:none;stroke-dashoffset:0;stroke-opacity:1;color-rendering:auto;image-rendering:auto;shape-rendering:auto;text-rendering:auto;enable-background:accumulate"
           d="m 6.75164,-116.27687 c 2.99065,0.60485 4.49367,1.24794 5.89266,2.66121 2.45016,2.47513 3.25045,6.5505 3.25045,6.5505 l -3.54035,0.49898 2.97008,0.83162 c -1.40188,1.23555 -2.8637,2.14124 -4.39572,2.68497 -2.28163,0.80975 -5.89735,1.19916 -8.27072,0.72096 -2.52003,-0.50774 -4.93787,-1.71891 -6.65678,-2.93199 -1.70292,-1.2018 -2.32599,-2.77049 -4.34245,-2.71421 -2.02435,0.0566 -3.06024,1.36024 -6.2744,2.54392 0.98841,-2.25668 1.48644,-4.44986 1.47742,-4.77248 -0.0131,-0.47021 -0.60937,-2.94625 -1.71029,-5.74037 4.56815,1.9526 4.13574,3.93892 6.7876,4.01568 1.65013,0.0477 2.8784,-2.27892 4.84548,-3.01143 0,0 0.0925,-0.76339 -0.85797,-2.09399 2.125,-1.125 5.3749,-2.84347 9.18238,-2.11673 0.63846,0.67205 1.20575,1.59646 1.64258,2.87336 z"
           inkscape:connector-curvature="0"
           id="path237" />
        <path
           style="color:#000000;font-style:normal;font-variant:normal;font-weight:normal;font-stretch:normal;font-size:medium;line-height:normal;font-family:sans-serif;text-indent:0;text-align:start;text-decoration:none;text-decoration-line:none;text-decoration-style:solid;text-decoration-color:#000000;letter-spacing:normal;word-spacing:normal;text-transform:none;direction:ltr;block-progression:tb;writing-mode:lr-tb;baseline-shift:baseline;text-anchor:start;white-space:normal;clip-rule:nonzero;display:inline;overflow:visible;visibility:visible;opacity:1;isolation:auto;mix-blend-mode:normal;color-interpolation:sRGB;color-interpolation-filters:linearRGB;solid-color:#000000;solid-opacity:1;fill:#000000;fill-opacity:1;fill-rule:evenodd;stroke:none;stroke-width:0.89999998;stroke-linecap:round;stroke-linejoin:miter;stroke-miterlimit:4;stroke-dasharray:none;stroke-dashoffset:0;stroke-opacity:1;color-rendering:auto;image-rendering:auto;shape-rendering:auto;text-rendering:auto;enable-background:accumulate"
           d="m 3.75195,-119.76758 c -0.55834,-0.0162 -1.08956,0.007 -1.41992,0.0332 -3.44102,0.26924 -4.79186,1.37793 -7.48633,2.26368 0.80029,0.66264 1.38172,1.65445 1.58985,2.40625 -0.74252,0.46927 -1.56885,1.06749 -2.34375,1.66992 -0.78694,0.61179 -1.52805,1.08797 -2.13868,1.07031 -1.213,-0.0351 -1.55439,-0.52183 -2.3789,-1.23633 -1.98577,-1.72081 -3.07464,-2.29632 -5.23438,-3.2207 0.86297,2.18173 2.04317,4.50407 2.07227,6.58984 0.0263,1.88626 -1.13742,3.87948 -1.86328,5.54883 1.62081,-0.53562 3.22001,-1.34059 4.6289,-2.08398 0.89906,-0.47438 1.57632,-0.77317 2.49415,-0.79883 0.89038,-0.0249 1.40182,0.27656 1.98242,0.77734 0.25085,0.21637 0.51534,0.48279 0.79687,0.75586 -0.25647,0.40556 -0.79615,0.53695 -1.76562,1.10352 1.95514,0.58994 2.59141,1.85091 4.15625,2.49414 0.55665,-0.25793 1.08128,-0.52946 1.29882,-1.08594 1.28379,0.64871 2.70563,1.21308 4.19922,1.53906 0.0372,0.49232 -0.0779,0.96218 -0.52343,1.75 1.8525,-0.13727 3.11482,-0.49129 3.85351,-1.48437 1.90282,-0.0616 3.90491,-0.41501 5.41016,-0.94922 1.59542,-0.56623 3.08878,-1.52586 4.54297,-2.77148 0.22554,-0.1932 0.55832,-0.5479 0.15234,-0.66602 l -1.22851,-0.35742 1.51367,-0.22656 c 0.18187,-0.0272 0.35546,-0.2168 0.27734,-0.50586 -0.0502,-0.18564 -0.78361,-4.16347 -3.37305,-6.7793 -1.42433,-1.43886 -3.05654,-2.12894 -5.92382,-2.72852 -0.4724,-1.08092 -0.97717,-2.12518 -1.70508,-2.90429 -0.44021,-0.13092 -1.02565,-0.18691 -1.58399,-0.20313 z m -0.1289,0.86719 c 0.40991,0.0169 0.81105,0.0568 1.19922,0.10547 0.77961,0.94104 1.28338,2.04784 1.60937,2.96875 2.1946,0.39918 4.6041,1.23544 5.89453,2.52734 2.08816,2.09053 2.83239,5.19206 2.98633,5.86133 l -3.01953,0.42578 c -0.44473,0.0627 -0.45389,0.76792 -0.0586,0.87891 l 1.98242,0.55664 c -1.12071,0.87174 -2.24918,1.67981 -3.4375,2.10156 -0.33815,0.12001 -0.71912,0.22666 -1.11524,0.32617 -2.33138,-1.12461 -3.38072,-3.76269 -3.66601,-5.20312 -0.15295,-0.77226 -0.48459,-1.00055 -0.26758,0.46094 0.277,1.86552 1.35587,3.78888 2.74609,4.99218 -1.94553,0.34633 -4.16617,0.4437 -5.72851,0.12891 -2.43884,-0.49138 -4.81456,-1.67957 -6.48633,-2.85938 -0.79723,-0.56263 -1.35875,-1.23084 -2.01953,-1.80078 -0.66079,-0.56995 -1.57913,-0.96766 -2.54883,-0.93164 -0.96571,0.0359 -2.00556,0.34944 -2.93359,0.83789 -0.68049,0.35816 -1.62451,0.79789 -2.58789,1.22461 0.58514,-1.36212 1.15509,-2.85368 1.14062,-3.91797 -0.0229,-1.68436 -0.84568,-3.32406 -1.36523,-4.77929 1.43808,0.75542 2.36518,1.48293 3.00781,2.08984 0.79559,0.75138 1.70527,1.34121 2.9414,1.36523 0.8676,0.0169 1.85414,-0.60951 2.64454,-1.26171 1.07222,-0.88474 2.37395,-1.75346 3.82031,-2.3125 0.84286,-0.32579 2.17657,-0.81342 1.5664,-0.90821 -0.63083,-0.098 -1.90673,0.29013 -2.74804,0.65625 -0.21144,-0.67843 -0.52851,-1.28134 -0.85547,-1.77148 1.86816,-0.59893 2.90957,-1.50638 6.04687,-1.72852 0.42336,-0.0441 0.84204,-0.0501 1.25196,-0.0332 z"
           inkscape:connector-curvature="0"
           id="path239" />
        <path
           style="color:#000000;clip-rule:nonzero;display:inline;overflow:visible;visibility:visible;opacity:1;isolation:auto;mix-blend-mode:normal;color-interpolation:sRGB;color-interpolation-filters:linearRGB;solid-color:#000000;solid-opacity:1;fill:#000000;fill-opacity:1;fill-rule:evenodd;stroke:none;stroke-width:0.89999998;stroke-linecap:round;stroke-linejoin:miter;stroke-miterlimit:4;stroke-dasharray:none;stroke-dashoffset:0;stroke-opacity:1;color-rendering:auto;image-rendering:auto;shape-rendering:auto;text-rendering:auto;enable-background:accumulate"
           d="m 4.14858,-108.59983 c -0.47489,-0.30307 -1.53655,-0.90869 -2.26472,-0.88862 -0.0804,0.002 -0.2543,0.14712 -0.15844,0.31108 0.47438,0.81135 0.88194,1.78963 0.81744,2.88053 -0.01,0.15682 0.0463,0.31282 0.28149,0.29908 0.85805,-0.0503 1.22499,-0.14313 1.82534,-0.42991 0.33162,-0.1584 0.28985,0.0295 -0.17284,0.32399 -0.42638,0.27143 -1.15747,0.57467 -1.60626,0.62419 -0.57111,0.063 -0.86938,-0.30115 -0.85559,-0.49509 0.0664,-0.93438 -0.40775,-2.23989 -0.84996,-3.00389 -0.64912,-1.12144 0.5114,-1.14367 1.04743,-1.03991 0.57353,0.11103 1.54086,0.51965 2.36735,1.37318 0.31578,0.3261 0.0887,0.37724 -0.43124,0.0454 z"
           inkscape:connector-curvature="0"
           id="path241" />
        <ellipse
           cx="35.346939"
           cy="-105.81317"
           rx="0.85538602"
           ry="1.092993"
           style="opacity:1;fill:#000000;fill-opacity:1;fill-rule:nonzero;stroke:none;stroke-width:0.89999998;stroke-linecap:butt;stroke-linejoin:round;stroke-miterlimit:4;stroke-dasharray:none;stroke-dashoffset:0;stroke-opacity:1"
           transform="matrix(0.97605309,-0.21753245,0.21753245,0.97605309,0,0)"
           id="ellipse243" />
      </g>
    </g>
  </g>
  <g
     inkscape:groupmode="layer"
     id="extras_layer"
     inkscape:label="Extras"
     style="display:inline"
     sodipodi:insensitive="true">
    <g
       id="extra-ship"
       transform="matrix(0.4444171,-0.89581998,0.89581998,0.4444171,266.30938,417.60566)">
      <path
         style="color:#000000;fill:url(#gradientShip);fill-opacity:1;fill-rule:evenodd;stroke:#000000;stroke-width:0.75;stroke-linecap:butt;stroke-linejoin:round;stroke-miterlimit:4;stroke-dasharray:none;stroke-dashoffset:0;stroke-opacity:1;marker:none;enable-background:accumulate"
         d="m 243.2364,-52.722824 c -3.10208,-2.937202 -8.72518,-3.346714 -12.49116,-3.032742 -2.95307,0.246202 -6.62512,1.070872 -6.62512,1.070872 l -0.0121,3.725952 c 0,0 2.43298,0.582421 6.39007,0.932887 3.66202,0.324334 9.61676,-0.283241 12.73834,-2.696969 z"
         inkscape:connector-curvature="0"
         id="path247" />
      <path
         style="color:#000000;opacity:1;isolation:auto;mix-blend-mode:normal;color-interpolation:sRGB;color-interpolation-filters:linearRGB;solid-color:#000000;solid-opacity:1;fill:#000000;fill-opacity:1;fill-rule:evenodd;stroke:none;stroke-width:0.75;stroke-linecap:round;stroke-linejoin:round;stroke-miterlimit:4;stroke-dasharray:none;stroke-dashoffset:0;stroke-opacity:1;marker:none;color-rendering:auto;image-rendering:auto;shape-rendering:auto;text-rendering:auto;enable-background:accumulate"
         d="m 243.05273,-53.089844 c -0.50461,-0.01007 -0.51271,0.749303 -0.008,0.75 l 2.80546,-0.143551 c 0.50461,0.01007 0.51856,-0.385922 0.0138,-0.386619 z"
         inkscape:connector-curvature="0"
         id="path249" />
      <circle
         cx="37.651787"
         cy="-233.087830"
         r="0.695206"
         style="color:#000000;opacity:1;isolation:auto;mix-blend-mode:normal;color-interpolation:sRGB;color-interpolation-filters:linearRGB;solid-color:#000000;solid-opacity:1;fill:#a66e00;fill-opacity:1;fill-rule:nonzero;stroke:#000000;stroke-width:0.5;stroke-linecap:butt;stroke-linejoin:miter;stroke-miterlimit:4;stroke-dasharray:none;stroke-dashoffset:0;stroke-opacity:1;color-rendering:auto;image-rendering:auto;shape-rendering:auto;text-rendering:auto;enable-background:accumulate"
         transform="matrix(0.37654483,0.9263984,-0.9263984,0.37654483,0,0)"
         id="circle251" />
      <circle
         cx="39.995537"
         cy="-238.712830"
         r="0.695206"
         style="color:#000000;opacity:1;isolation:auto;mix-blend-mode:normal;color-interpolation:sRGB;color-interpolation-filters:linearRGB;solid-color:#000000;solid-opacity:1;fill:#a66e00;fill-opacity:1;fill-rule:nonzero;stroke:#000000;stroke-width:0.5;stroke-linecap:butt;stroke-linejoin:miter;stroke-miterlimit:4;stroke-dasharray:none;stroke-dashoffset:0;stroke-opacity:1;color-rendering:auto;image-rendering:auto;shape-rendering:auto;text-rendering:auto;enable-background:accumulate"
         transform="matrix(0.37654483,0.9263984,-0.9263984,0.37654483,0,0)"
         id="circle253" />
      <path
         style="color:#000000;fill:#feffff;fill-opacity:1;fill-rule:evenodd;stroke:#000000;stroke-width:0.5;stroke-linecap:butt;stroke-linejoin:round;stroke-miterlimit:4;stroke-dasharray:none;stroke-dashoffset:0;stroke-opacity:1;marker:none;enable-background:accumulate"
         d="m 230.8139,-58.168744 -0.0696,11.095953 c 0,0 1.11273,-0.901569 1.17305,-2.014949 0.0592,-1.093696 -0.80015,-1.762231 -0.80015,-1.762231 0,0 1.00218,-0.841738 0.9922,-1.921676 -0.0106,-1.140901 -0.9468,-1.722391 -0.9468,-1.722391 0,0 0.80027,-0.5343 0.83406,-1.646805 0.0349,-1.150244 -1.18274,-2.027894 -1.18274,-2.027894 z"
         inkscape:connector-curvature="0"
         id="path255" />
      <path
         style="color:#000000;fill:#feffff;fill-opacity:1;fill-rule:evenodd;stroke:#000000;stroke-width:0.5;stroke-linecap:butt;stroke-linejoin:round;stroke-miterlimit:4;stroke-dasharray:none;stroke-dashoffset:0;stroke-opacity:1;marker:none;enable-background:accumulate"
         d="m 236.95087,-57.97366 -0.0645,10.282469 c 0,0 1.03677,-0.785137 1.09267,-1.816887 0.0549,-1.013517 -0.74706,-1.683399 -0.74706,-1.683399 0,0 0.85887,-0.76153 0.84962,-1.762298 -0.01,-1.057255 -0.80754,-1.614603 -0.80754,-1.614603 0,0 0.84013,-0.540128 0.87144,-1.571079 0.0324,-1.065902 -1.19455,-1.834218 -1.19455,-1.834218 z"
         inkscape:connector-curvature="0"
         id="path257" />
      <path
         style="fill:#000000;stroke:none"
         d="m 239.16963,-53.312319 -0.0111,0.999645 1.00145,0.01039 0.009,-1.000718 z"
         inkscape:connector-curvature="0"
         id="path259" />
      <path
         style="fill:#6a4600;stroke:none"
         d="m 233.00825,-53.641515 -0.0131,1.52646 1.52369,0.01423 0.0142,-1.523703 z"
         inkscape:connector-curvature="0"
         id="path261" />
      <path
         style="fill:none;stroke:#000000;stroke-width:0.6;stroke-linecap:butt"
         d="m 227.26126,-55.055042 -0.0734,4.514141"
         inkscape:connector-curvature="0"
         id="path263" />
      <path
         style="fill:#000000;stroke:none"
         d="m 223.83649,-54.026834 -0.0111,0.999636 1.00072,0.0086 0.009,-0.998911 z"
         inkscape:connector-curvature="0"
         id="path265" />
      <path
         style="fill:#000000;stroke:none"
         d="m 223.85032,-52.581947 -0.0111,0.999637 1.00072,0.0086 0.009,-0.998912 z"
         inkscape:connector-curvature="0"
         id="path267" />
      <path
         style="fill:none;stroke:#000000;stroke-width:0.5;stroke-linecap:butt;stroke-linejoin:round;stroke-miterlimit:4"
         d="m 227.2539,-51.578825 1.14997,0.173504 -0.0116,1.05042"
         inkscape:connector-curvature="0"
         id="path269" />
      <path
         style="fill:none;stroke:#000000;stroke-width:0.5;stroke-linecap:butt;stroke-linejoin:round;stroke-miterlimit:4"
         d="m 227.25705,-54.143799 1.1481,-0.163064 0.0224,-1.189753"
         inkscape:connector-curvature="0"
         id="path271" />
    </g>
  </g>
  <g
     inkscape:groupmode="layer"
     id="suit_rank_glow_layer"
     inkscape:label="Suit Rank Glow"
     style="display:inline"
     sodipodi:insensitive="true">
    <g
       style="opacity:0.75;filter:url(#blurSuitRankGlow)"
       id="g274">
      <path
         style="fill:#ffffff;fill-opacity:1;stroke:none"
         d="m 31.453338,20.865025 c -5.068589,2.178218 -11.123659,8.116004 -11.112499,14.56 0.007,3.899493 2.33855,5.215546 4.47125,5.74875 1.25548,0.313886 3.11121,0.211218 4.40125,-0.53375 -0.0977,1.04834 -0.18907,3.221456 -0.21,4.235 1.633329,0 3.266669,0 4.899999,0 -0.0209,-1.013544 -0.11229,-3.18666 -0.21,-4.235 1.29004,0.744968 3.14577,0.847636 4.40125,0.53375 2.1327,-0.533204 4.4645,-1.849257 4.47125,-5.74875 0.0111,-6.443996 -6.04391,-12.381782 -11.1125,-14.56 z"
         inkscape:connector-curvature="0"
         id="path276" />
      <path
         style="fill:#ffffff;fill-opacity:1;stroke:none"
         d="m 215.96335,316.63503 c 5.06859,-2.17822 11.12366,-8.11601 11.1125,-14.56 -0.007,-3.8995 -2.33855,-5.21555 -4.47125,-5.74875 -1.25548,-0.31389 -3.11121,-0.21122 -4.40125,0.53375 0.0977,-1.04834 0.18907,-3.22146 0.21,-4.235 -1.63333,0 -3.26667,0 -4.9,0 0.0209,1.01354 0.11229,3.18666 0.21,4.235 -1.29004,-0.74497 -3.14577,-0.84764 -4.40125,-0.53375 -2.1327,0.5332 -4.4645,1.84925 -4.47125,5.74875 -0.0111,6.44399 6.04391,12.38178 11.1125,14.56 z"
         inkscape:connector-curvature="0"
         id="path278" />
      <path
         style="fill:#ffffff;fill-opacity:1;stroke:none"
         d="m 21.053333,70.875025 c 0.24,0 0.49333,0.013 0.76,0.04 0.26666,0 0.54666,0.013 0.84,0.04 l 0,-10.48 c 0,-1.3066 0.21333,-2.5466 0.64,-3.72 0.42666,-1.1733 1.01333,-2.1866 1.76,-3.04 0.77333,-0.88 1.69333,-1.5733 2.76,-2.08 1.09332,-0.5066 2.30666,-0.76 3.64,-0.76 1.30665,0 2.47999,0.2534 3.52,0.76 1.03998,0.5067 1.93332,1.2 2.68,2.08 0.74665,0.88 1.33331,1.9067 1.76,3.08 0.42665,1.1467 0.70665,2.3734 0.84,3.68 l 0,12.8 c -2e-5,1.0133 -0.13335,1.9867 -0.4,2.92 -0.24002,0.9067 -0.58669,1.7467 -1.04,2.52 0.55998,0.32 1.14665,0.5733 1.76,0.76 0.63998,0.16 1.33331,0.2267 2.08,0.2 l 0,3.2 c -1.01335,0 -2.01335,-0.1733 -3,-0.52 -0.96002,-0.3467 -1.90668,-0.7867 -2.84,-1.32 -0.72002,0.5867 -1.53335,1.04 -2.44,1.36 -0.88001,0.32 -1.85335,0.48 -2.92,0.48 -1.25334,0 -2.40001,-0.2133 -3.44,-0.64 -1.01334,-0.4533 -1.90667,-1.0667 -2.68,-1.84 -0.74667,-0.8 -1.36,-1.72 -1.84,-2.76 -0.45334,-1.0667 -0.72,-2.2133 -0.8,-3.44 -0.88,-0.08 -1.69333,-0.12 -2.44,-0.12 0,-0.2133 0,-0.4933 0,-0.84 0,-0.3733 0,-0.7333 0,-1.08 0,-0.3466 0,-0.64 0,-0.88 0,-0.2666 0,-0.4 0,-0.4 l 0.8,0 m 16,-10.4 c -2e-5,-0.88 -0.13335,-1.7066 -0.4,-2.48 -0.24002,-0.7733 -0.60002,-1.4533 -1.08,-2.04 -0.48001,-0.5866 -1.06668,-1.04 -1.76,-1.36 -0.69335,-0.3466 -1.48001,-0.52 -2.36,-0.52 -0.88001,0 -1.66668,0.1734 -2.36,0.52 -0.69334,0.32 -1.28001,0.7734 -1.76,1.36 -0.48001,0.5867 -0.85334,1.2667 -1.12,2.04 -0.24001,0.7734 -0.36001,1.6 -0.36,2.48 l 0,10.92 c 1.11999,0.2134 2.25333,0.5334 3.4,0.96 1.14666,0.4267 2.22666,0.9734 3.24,1.64 0.69332,0.48 1.34665,0.9733 1.96,1.48 0.61332,0.48 1.19998,0.9467 1.76,1.4 0.55998,-1.04 0.83998,-2.24 0.84,-3.6 l 0,-12.8 m -5.6,19.2 c 0.93332,0 1.77332,-0.1867 2.52,-0.56 l -2.6,-1.96 c -0.82668,-0.6133 -1.70668,-1.1067 -2.64,-1.48 -0.90667,-0.4 -1.82667,-0.7067 -2.76,-0.92 0.23999,1.4133 0.82666,2.5867 1.76,3.52 0.95999,0.9333 2.19999,1.4 3.72,1.4"
         inkscape:connector-curvature="0"
         id="path280" />
      <path
         style="fill:#ffffff;fill-opacity:1;stroke:none"
         d="m 226.36334,266.62502 c -0.24,0 -0.49333,-0.013 -0.76,-0.04 -0.26666,0 -0.54666,-0.013 -0.84,-0.04 l 0,10.48 c 0,1.3066 -0.21333,2.5466 -0.64,3.72 -0.42666,1.1733 -1.01333,2.1866 -1.76,3.04001 -0.77333,0.88 -1.69333,1.5733 -2.76,2.07999 -1.09332,0.5066 -2.30666,0.76 -3.64,0.76 -1.30664,0 -2.47998,-0.2534 -3.52,-0.76 -1.03998,-0.5067 -1.93332,-1.19999 -2.68,-2.07999 -0.74665,-0.88 -1.33331,-1.9067 -1.76,-3.08 -0.42665,-1.1467 -0.70665,-2.3734 -0.84,-3.68 l 0,-12.8 c 2e-5,-1.01331 0.13335,-1.9867 0.4,-2.92001 0.24002,-0.9067 0.58669,-1.74669 1.04,-2.51999 -0.55998,-0.32 -1.14665,-0.57331 -1.76,-0.76 -0.63998,-0.16001 -1.33331,-0.2267 -2.08,-0.2 l 0,-3.2 c 1.01335,0 2.01335,0.1733 3,0.52 0.96002,0.3467 1.90668,0.7867 2.84,1.32 0.72002,-0.5867 1.53335,-1.04 2.44,-1.36 0.88001,-0.32 1.85335,-0.48 2.92,-0.48 1.25334,0 2.40001,0.2133 3.44,0.64 1.01334,0.4533 1.90667,1.06669 2.68,1.84 0.74667,0.8 1.36,1.72 1.84,2.76 0.45334,1.0667 0.72,2.2133 0.8,3.44 0.88,0.08 1.69333,0.12 2.44,0.12 0,0.2133 0,0.4933 0,0.84 0,0.37329 0,0.7333 0,1.08 0,0.3466 0,0.63999 0,0.88 0,0.26659 0,0.39999 0,0.39999 l -0.8,0 m -16,10.4 c 2e-5,0.88 0.13335,1.7066 0.4,2.48 0.24002,0.7733 0.60002,1.4533 1.08,2.04 0.48001,0.5866 1.06668,1.04001 1.76,1.36001 0.69335,0.3466 1.48001,0.51999 2.36,0.51999 0.88001,0 1.66669,-0.1734 2.36001,-0.51999 0.69334,-0.32 1.28001,-0.7734 1.75999,-1.36001 0.48001,-0.5867 0.85334,-1.2667 1.12001,-2.04 0.24001,-0.7734 0.36,-1.6 0.36,-2.48 l 0,-10.92 c -1.11999,-0.2134 -2.25333,-0.5334 -3.4,-0.96 -1.14666,-0.4267 -2.22667,-0.9734 -3.24001,-1.64 -0.69332,-0.48 -1.34665,-0.9733 -1.96,-1.48 -0.61331,-0.48 -1.19998,-0.9467 -1.75999,-1.4 -0.55998,1.04001 -0.83998,2.24 -0.84001,3.60001 l 0,12.8 m 5.6,-19.2 c -0.93332,0 -1.77332,0.1867 -2.52,0.56 l 2.6,1.96 c 0.82668,0.61329 1.70668,1.10669 2.64,1.48 0.90667,0.4 1.82667,0.7067 2.76,0.92 -0.23999,-1.4133 -0.82666,-2.5867 -1.76,-3.52 -0.95999,-0.9333 -2.19999,-1.4 -3.72,-1.4"
         inkscape:connector-curvature="0"
         id="path282" />
    </g>
  </g>
  <g
     inkscape:groupmode="layer"
     id="suit_rank_layer"
     inkscape:label="Suit Rank"
     style="display:inline"
     sodipodi:insensitive="true">
    <path
       style="fill:#000000;fill-opacity:1;stroke:none"
       d="m 31.453338,20.865025 c -5.068589,2.178218 -11.123659,8.116004 -11.112499,14.56 0.007,3.899493 2.33855,5.215546 4.47125,5.74875 1.25548,0.313886 3.11121,0.211218 4.40125,-0.53375 -0.0977,1.04834 -0.18907,3.221456 -0.21,4.235 1.633329,0 3.266669,0 4.899999,0 -0.0209,-1.013544 -0.11229,-3.18666 -0.21,-4.235 1.29004,0.744968 3.14577,0.847636 4.40125,0.53375 2.1327,-0.533204 4.4645,-1.849257 4.47125,-5.74875 0.0111,-6.443996 -6.04391,-12.381782 -11.1125,-14.56 z"
       inkscape:connector-curvature="0"
       id="path285" />
    <path
       style="fill:#000000;fill-opacity:1;stroke:none"
       d="m 215.96335,316.63503 c 5.06859,-2.17822 11.12366,-8.11601 11.1125,-14.56 -0.007,-3.8995 -2.33855,-5.21555 -4.47125,-5.74875 -1.25548,-0.31389 -3.11121,-0.21122 -4.40125,0.53375 0.0977,-1.04834 0.18907,-3.22146 0.21,-4.235 -1.63333,0 -3.26667,0 -4.9,0 0.0209,1.01354 0.11229,3.18666 0.21,4.235 -1.29004,-0.74497 -3.14577,-0.84764 -4.40125,-0.53375 -2.1327,0.5332 -4.4645,1.84925 -4.47125,5.74875 -0.0111,6.44399 6.04391,12.38178 11.1125,14.56 z"
       inkscape:connector-curvature="0"
       id="path287" />
    <path
       style="fill:#000000;fill-opacity:1;stroke:none"
       d="m 21.053333,70.875025 c 0.24,0 0.49333,0.013 0.76,0.04 0.26666,0 0.54666,0.013 0.84,0.04 l 0,-10.48 c 0,-1.3066 0.21333,-2.5466 0.64,-3.72 0.42666,-1.1733 1.01333,-2.1866 1.76,-3.04 0.77333,-0.88 1.69333,-1.5733 2.76,-2.08 1.09332,-0.5066 2.30666,-0.76 3.64,-0.76 1.30665,0 2.47999,0.2534 3.52,0.76 1.03998,0.5067 1.93332,1.2 2.68,2.08 0.74665,0.88 1.33331,1.9067 1.76,3.08 0.42665,1.1467 0.70665,2.3734 0.84,3.68 l 0,12.8 c -2e-5,1.0133 -0.13335,1.9867 -0.4,2.92 -0.24002,0.9067 -0.58669,1.7467 -1.04,2.52 0.55998,0.32 1.14665,0.5733 1.76,0.76 0.63998,0.16 1.33331,0.2267 2.08,0.2 l 0,3.2 c -1.01335,0 -2.01335,-0.1733 -3,-0.52 -0.96002,-0.3467 -1.90668,-0.7867 -2.84,-1.32 -0.72002,0.5867 -1.53335,1.04 -2.44,1.36 -0.88001,0.32 -1.85335,0.48 -2.92,0.48 -1.25334,0 -2.40001,-0.2133 -3.44,-0.64 -1.01334,-0.4533 -1.90667,-1.0667 -2.68,-1.84 -0.74667,-0.8 -1.36,-1.72 -1.84,-2.76 -0.45334,-1.0667 -0.72,-2.2133 -0.8,-3.44 -0.88,-0.08 -1.69333,-0.12 -2.44,-0.12 0,-0.2133 0,-0.4933 0,-0.84 0,-0.3733 0,-0.7333 0,-1.08 0,-0.3466 0,-0.64 0,-0.88 0,-0.2666 0,-0.4 0,-0.4 l 0.8,0 m 16,-10.4 c -2e-5,-0.88 -0.13335,-1.7066 -0.4,-2.48 -0.24002,-0.7733 -0.60002,-1.4533 -1.08,-2.04 -0.48001,-0.5866 -1.06668,-1.04 -1.76,-1.36 -0.69335,-0.3466 -1.48001,-0.52 -2.36,-0.52 -0.88001,0 -1.66668,0.1734 -2.36,0.52 -0.69334,0.32 -1.28001,0.7734 -1.76,1.36 -0.48001,0.5867 -0.85334,1.2667 -1.12,2.04 -0.24001,0.7734 -0.36001,1.6 -0.36,2.48 l 0,10.92 c 1.11999,0.2134 2.25333,0.5334 3.4,0.96 1.14666,0.4267 2.22666,0.9734 3.24,1.64 0.69332,0.48 1.34665,0.9733 1.96,1.48 0.61332,0.48 1.19998,0.9467 1.76,1.4 0.55998,-1.04 0.83998,-2.24 0.84,-3.6 l 0,-12.8 m -5.6,19.2 c 0.93332,0 1.77332,-0.1867 2.52,-0.56 l -2.6,-1.96 c -0.82668,-0.6133 -1.70668,-1.1067 -2.64,-1.48 -0.90667,-0.4 -1.82667,-0.7067 -2.76,-0.92 0.23999,1.4133 0.82666,2.5867 1.76,3.52 0.95999,0.9333 2.19999,1.4 3.72,1.4"
       inkscape:connector-curvature="0"
       id="path289" />
    <path
       style="fill:#000000;fill-opacity:1;stroke:none"
       d="m 226.36334,266.62502 c -0.24,0 -0.49333,-0.013 -0.76,-0.04 -0.26666,0 -0.54666,-0.013 -0.84,-0.04 l 0,10.48 c 0,1.3066 -0.21333,2.5466 -0.64,3.72 -0.42666,1.1733 -1.01333,2.1866 -1.76,3.04001 -0.77333,0.88 -1.69333,1.5733 -2.76,2.07999 -1.09332,0.5066 -2.30666,0.76 -3.64,0.76 -1.30664,0 -2.47998,-0.2534 -3.52,-0.76 -1.03998,-0.5067 -1.93332,-1.19999 -2.68,-2.07999 -0.74665,-0.88 -1.33331,-1.9067 -1.76,-3.08 -0.42665,-1.1467 -0.70665,-2.3734 -0.84,-3.68 l 0,-12.8 c 2e-5,-1.01331 0.13335,-1.9867 0.4,-2.92001 0.24002,-0.9067 0.58669,-1.74669 1.04,-2.51999 -0.55998,-0.32 -1.14665,-0.57331 -1.76,-0.76 -0.63998,-0.16001 -1.33331,-0.2267 -2.08,-0.2 l 0,-3.2 c 1.01335,0 2.01335,0.1733 3,0.52 0.96002,0.3467 1.90668,0.7867 2.84,1.32 0.72002,-0.5867 1.53335,-1.04 2.44,-1.36 0.88001,-0.32 1.85335,-0.48 2.92,-0.48 1.25334,0 2.40001,0.2133 3.44,0.64 1.01334,0.4533 1.90667,1.06669 2.68,1.84 0.74667,0.8 1.36,1.72 1.84,2.76 0.45334,1.0667 0.72,2.2133 0.8,3.44 0.88,0.08 1.69333,0.12 2.44,0.12 0,0.2133 0,0.4933 0,0.84 0,0.37329 0,0.7333 0,1.08 0,0.3466 0,0.63999 0,0.88 0,0.26659 0,0.39999 0,0.39999 l -0.8,0 m -16,10.4 c 2e-5,0.88 0.13335,1.7066 0.4,2.48 0.24002,0.7733 0.60002,1.4533 1.08,2.04 0.48001,0.5866 1.06668,1.04001 1.76,1.36001 0.69335,0.3466 1.48001,0.51999 2.36,0.51999 0.88001,0 1.66669,-0.1734 2.36001,-0.51999 0.69334,-0.32 1.28001,-0.7734 1.75999,-1.36001 0.48001,-0.5867 0.85334,-1.2667 1.12001,-2.04 0.24001,-0.7734 0.36,-1.6 0.36,-2.48 l 0,-10.92 c -1.11999,-0.2134 -2.25333,-0.5334 -3.4,-0.96 -1.14666,-0.4267 -2.22667,-0.9734 -3.24001,-1.64 -0.69332,-0.48 -1.34665,-0.9733 -1.96,-1.48 -0.61331,-0.48 -1.19998,-0.9467 -1.75999,-1.4 -0.55998,1.04001 -0.83998,2.24 -0.84001,3.60001 l 0,12.8 m 5.6,-19.2 c -0.93332,0 -1.77332,0.1867 -2.52,0.56 l 2.6,1.96 c 0.82668,0.61329 1.70668,1.10669 2.64,1.48 0.90667,0.4 1.82667,0.7067 2.76,0.92 -0.23999,-1.4133 -0.82666,-2.5867 -1.76,-3.52 -0.95999,-0.9333 -2.19999,-1.4 -3.72,-1.4"
       inkscape:connector-curvature="0"
       id="path291" />
  </g>
  <g
     inkscape:groupmode="layer"
     id="guides_layer"
     inkscape:label="Guides"
     style="display:none"
     sodipodi:insensitive="true">
    <path
       style="fill:none;stroke:#000000;stroke-width:0.9"
       d="m 11.250000,11.25 0,-45"
       inkscape:connector-curvature="0"
       id="path294" />
    <path
       style="fill:none;stroke:#000000;stroke-width:0.9"
       d="m 11.250000,371.25 0,-45"
       inkscape:connector-curvature="0"
       id="path296" />
    <path
       style="fill:none;stroke:#000000;stroke-width:0.9"
       d="m 84.375000,11.25 0,-45"
       inkscape:connector-curvature="0"
       id="path298" />
    <path
       style="fill:none;stroke:#000000;stroke-width:0.9"
       d="m 84.375000,371.25 0,-45"
       inkscape:connector-curvature="0"
       id="path300" />
    <path
       style="fill:none;stroke:#000000;stroke-width:0.9"
       d="m 123.750000,11.25 0,-45"
       inkscape:connector-curvature="0"
       id="path302" />
    <path
       style="fill:none;stroke:#000000;stroke-width:0.9"
       d="m 123.750000,371.25 0,-45"
       inkscape:connector-curvature="0"
       id="path304" />
    <path
       style="fill:none;stroke:#000000;stroke-width:0.9"
       d="m 163.125000,11.25 0,-45"
       inkscape:connector-curvature="0"
       id="path306" />
    <path
       style="fill:none;stroke:#000000;stroke-width:0.9"
       d="m 163.125000,371.25 0,-45"
       inkscape:connector-curvature="0"
       id="path308" />
    <path
       style="fill:none;stroke:#000000;stroke-width:0.9"
       d="m 236.250000,11.25 0,-45"
       inkscape:connector-curvature="0"
       id="path310" />
    <path
       style="fill:none;stroke:#000000;stroke-width:0.9"
       d="m 236.250000,371.25 0,-45"
       inkscape:connector-curvature="0"
       id="path312" />
    <path
       style="fill:none;stroke:#000000;stroke-width:0.9"
       d="m -33.75,11.250000 45,0"
       inkscape:connector-curvature="0"
       id="path314" />
    <path
       style="fill:none;stroke:#000000;stroke-width:0.9"
       d="m 236.25,11.250000 45,0"
       inkscape:connector-curvature="0"
       id="path316" />
    <path
       style="fill:none;stroke:#000000;stroke-width:0.9"
       d="m -33.75,118.125000 45,0"
       inkscape:connector-curvature="0"
       id="path318" />
    <path
       style="fill:none;stroke:#000000;stroke-width:0.9"
       d="m 236.25,118.125000 45,0"
       inkscape:connector-curvature="0"
       id="path320" />
    <path
       style="fill:none;stroke:#000000;stroke-width:0.9"
       d="m -33.75,168.750000 45,0"
       inkscape:connector-curvature="0"
       id="path322" />
    <path
       style="fill:none;stroke:#000000;stroke-width:0.9"
       d="m 236.25,168.750000 45,0"
       inkscape:connector-curvature="0"
       id="path324" />
    <path
       style="fill:none;stroke:#000000;stroke-width:0.9"
       d="m -33.75,219.375000 45,0"
       inkscape:connector-curvature="0"
       id="path326" />
    <path
       style="fill:none;stroke:#000000;stroke-width:0.9"
       d="m 236.25,219.375000 45,0"
       inkscape:connector-curvature="0"
       id="path328" />
    <path
       style="fill:none;stroke:#000000;stroke-width:0.9"
       d="m -33.75,326.250000 45,0"
       inkscape:connector-curvature="0"
       id="path330" />
    <path
       style="fill:none;stroke:#000000;stroke-width:0.9"
       d="m 236.25,326.250000 45,0"
       inkscape:connector-curvature="0"
       id="path332" />
    <g
       id="guide-short0-0">
      <rect
         x="0.000000"
         y="-22.500000"
         width="247.500000"
         height="22.500000"
         style="fill:#73baff;stroke:#000000;stroke-width:0.9"
         id="rect335" />
    </g>
    <g
       id="guide-long1-3">
      <rect
         x="247.500000"
         y="118.125000"
         width="22.500000"
         height="219.375000"
         style="fill:#ffd291;stroke:#000000;stroke-width:0.9"
         id="rect338" />
      <rect
         x="247.500000"
         y="123.750000"
         width="22.500000"
         height="213.750000"
         style="fill:#b4e982;stroke:#000000;stroke-width:0.9"
         id="rect340" />
      <rect
         x="247.500000"
         y="225.000000"
         width="22.500000"
         height="112.500000"
         style="fill:#5adc4f;stroke:#000000;stroke-width:0.9"
         id="rect342" />
      <rect
         x="247.500000"
         y="151.875000"
         width="22.500000"
         height="61.875000"
         style="fill:#5adc4f;stroke:#000000;stroke-width:0.9"
         id="rect344" />
      <rect
         x="247.500000"
         y="0.000000"
         width="22.500000"
         height="118.125000"
         style="fill:#b9deff;stroke:#000000;stroke-width:0.9"
         id="rect346" />
      <rect
         x="247.500000"
         y="0.000000"
         width="22.500000"
         height="84.375000"
         style="fill:#9bceff;stroke:#000000;stroke-width:0.9"
         id="rect348" />
      <rect
         x="247.500000"
         y="0.000000"
         width="22.500000"
         height="50.625000"
         style="fill:#73baff;stroke:#000000;stroke-width:0.9"
         id="rect350" />
    </g>
    <g
       id="guide-short2-7"
       transform="matrix(-1,0,0,1,247.5,360)">
      <rect
         x="0.000000"
         y="-22.500000"
         width="247.500000"
         height="22.500000"
         style="fill:#b4e982;stroke:#000000;stroke-width:0.9"
         id="rect353" />
      <rect
         x="0.000000"
         y="-22.500000"
         width="118.125000"
         height="22.500000"
         style="fill:#5adc4f;stroke:#000000;stroke-width:0.9"
         id="rect355" />
      <rect
         x="129.375000"
         y="-22.500000"
         width="118.125000"
         height="22.500000"
         style="fill:#5adc4f;stroke:#000000;stroke-width:0.9"
         id="rect357" />
    </g>
    <g
       id="guide-long3-6"
       transform="matrix(1,0,0,-1,-270,337.5)">
      <rect
         x="247.500000"
         y="0.000000"
         width="22.500000"
         height="219.375000"
         style="fill:#ffd291;stroke:#000000;stroke-width:0.9"
         id="rect360" />
      <rect
         x="247.500000"
         y="0.000000"
         width="22.500000"
         height="213.750000"
         style="fill:#b4e982;stroke:#000000;stroke-width:0.9"
         id="rect362" />
      <rect
         x="247.500000"
         y="0.000000"
         width="22.500000"
         height="112.500000"
         style="fill:#5adc4f;stroke:#000000;stroke-width:0.9"
         id="rect364" />
      <rect
         x="247.500000"
         y="123.750000"
         width="22.500000"
         height="61.875000"
         style="fill:#5adc4f;stroke:#000000;stroke-width:0.9"
         id="rect366" />
      <rect
         x="247.500000"
         y="219.375000"
         width="22.500000"
         height="118.125000"
         style="fill:#b9deff;stroke:#000000;stroke-width:0.9"
         id="rect368" />
      <rect
         x="247.500000"
         y="253.125000"
         width="22.500000"
         height="84.375000"
         style="fill:#9bceff;stroke:#000000;stroke-width:0.9"
         id="rect370" />
      <rect
         x="247.500000"
         y="286.875000"
         width="22.500000"
         height="50.625000"
         style="fill:#73baff;stroke:#000000;stroke-width:0.9"
         id="rect372" />
    </g>
  </g>
  <g
     inkscape:groupmode="layer"
     id="cut_line_layer"
     inkscape:label="Cut Line"
     style="display:none"
     sodipodi:insensitive="true">
    <rect
       style="fill:none;stroke:#000000;stroke-width:0.5;stroke-linecap:butt;stroke-linejoin:bevel;stroke-miterlimit:4;stroke-dasharray:none;stroke-opacity:1"
       width="225"
       height="315"
       x="11.25"
       y="11.25"
       ry="17.361111"
       id="rect375" />
  </g>
  <g
     inkscape:groupmode="layer"
     id="page_border_layer"
     inkscape:label="Page Border"
     style="display:none"
     sodipodi:insensitive="true">
    <rect
       style="fill:none;stroke:#000000;stroke-width:0.5;stroke-linecap:butt;stroke-linejoin:bevel;stroke-miterlimit:4;stroke-dasharray:none;stroke-opacity:1"
       width="247.5"
       height="337.5"
       x="0"
       y="0"
       id="rect378" />
  </g>
</svg>
