<?xml version="1.0" encoding="UTF-8" standalone="no"?>
<svg version="1.1" height="246.6" width="246.6" inkscape:version="0.91 r13725" xmlns:rdf="http://www.w3.org/1999/02/22-rdf-syntax-ns#" xmlns="http://www.w3.org/2000/svg" xmlns:cc="http://creativecommons.org/ns#" xmlns:xlink="http://www.w3.org/1999/xlink" xmlns:dc="http://purl.org/dc/elements/1.1/" xmlns:sodipodi="http://sodipodi.sourceforge.net/DTD/sodipodi-0.dtd" xmlns:svg="http://www.w3.org/2000/svg" xmlns:inkscape="http://www.inkscape.org/namespaces/inkscape">
<metadata>
  <rdf:RDF>
    <cc:Work rdf:about="">
      <dc:format>image/svg+xml</dc:format>
      <dc:type rdf:resource="http://purl.org/dc/dcmitype/StillImage"/>
      <dc:title/>
      <dc:creator>
        <cc:Agent><dc:title>Gary Kacmarcik</dc:title></cc:Agent>
      </dc:creator>
    </cc:Work>
  </rdf:RDF>
</metadata>

<defs>
  <filter inkscape:collect="always" inkscape:label="blurWaterDeep" style="color-interpolation-filters:sRGB" id="blurWaterDeep" x="-0.056691" y="-0.041620" width="1.113381" height="1.083239">
    <feGaussianBlur inkscape:collect="always" stdDeviation="6.919136" />
  </filter>
  <filter inkscape:collect="always" inkscape:label="blurWaterShallow" style="color-interpolation-filters:sRGB" id="blurWaterShallow" x="-0.055818" y="-0.042103" width="1.111637" height="1.084205">
    <feGaussianBlur inkscape:collect="always" stdDeviation="6.561501" />
  </filter>
  <filter inkscape:collect="always" inkscape:label="blurWaterHilight" style="color-interpolation-filters:sRGB" id="blurWaterHilight" x="-0.250000" y="-0.250000" width="1.500000" height="1.500000">
    <feGaussianBlur inkscape:collect="always" stdDeviation="6.857532" />
  </filter>
  <filter inkscape:collect="always" inkscape:label="blurGrass" style="color-interpolation-filters:sRGB" id="blurGrass" x="-0.100000" y="-0.100000" width="1.200000" height="1.200000">
    <feGaussianBlur inkscape:collect="always" stdDeviation="0.800000" />
  </filter>
  <filter inkscape:collect="always" inkscape:label="blurForestShadow" style="color-interpolation-filters:sRGB" id="blurForestShadow" x="-0.100000" y="-0.100000" width="1.200000" height="1.200000">
    <feGaussianBlur inkscape:collect="always" stdDeviation="0.800000" />
  </filter>
  <filter inkscape:collect="always" inkscape:label="blurFlowerInner" style="color-interpolation-filters:sRGB" id="blurFlowerInner" x="-0.420000" y="-0.420000" width="1.840000" height="1.840000">
    <feGaussianBlur inkscape:collect="always" stdDeviation="1.605540" />
  </filter>
  <filter inkscape:collect="always" inkscape:label="blurFlowerMiddle" style="color-interpolation-filters:sRGB" id="blurFlowerMiddle" x="-0.240000" y="-0.240000" width="1.480000" height="1.480000">
    <feGaussianBlur inkscape:collect="always" stdDeviation="1.933705" />
  </filter>
  <linearGradient id="gradientStopsFish" inkscape:collect="always">
    <stop offset="0.000000" style="stop-color:#ff5555;stop-opacity:1.000000" />
    <stop offset="1.000000" style="stop-color:#ffffff;stop-opacity:1.000000" />
  </linearGradient>
  <linearGradient id="gradientStopsCoconut" inkscape:collect="always">
    <stop offset="0.000000" style="stop-color:#ffffff;stop-opacity:1.000000" />
    <stop offset="1.000000" style="stop-color:#c8c8c8;stop-opacity:0.000000" />
  </linearGradient>
  <linearGradient id="gradientStopsFlower" inkscape:collect="always">
    <stop offset="0.000000" style="stop-color:#b16dff;stop-opacity:1.000000" />
    <stop offset="1.000000" style="stop-color:#e7d2ff;stop-opacity:1.000000" />
  </linearGradient>
  <linearGradient id="gradientFish" xlink:href="#gradientStopsFish" x1="178.789090" y1="-114.782830" x2="180.407300" y2="-103.782830" gradientTransform="translate(-178.76256,1.0606602)" gradientUnits="userSpaceOnUse" inkscape:collect="always" />
  <radialGradient id="gradientCoconut" xlink:href="#gradientStopsCoconut" cx="1.944096" cy="-60.612652" fx="1.944096" fy="-60.612652" r="6.723294" gradientUnits="userSpaceOnUse" gradientTransform="matrix(1.691364,-0.31394812,0.29762395,1.603419,17.826033,-7.042221)" inkscape:collect="always" />
  <radialGradient id="gradientFlower" xlink:href="#gradientStopsFlower" cx="60.884877" cy="-69.652750" fx="60.884877" fy="-69.652750" r="15.835310" gradientUnits="userSpaceOnUse" gradientTransform="matrix(0.8413905,0,0,0.87120012,-50.722984,-48.679159)" inkscape:collect="always" />
</defs>

<sodipodi:namedview
    id="base"
    pagecolor="#ffffff"
    bordercolor="#666666"
    borderopacity="1.0"
    inkscape:pageopacity="0.0"
    inkscape:pageshadow="2"
    inkscape:zoom="2"
    inkscape:cx="115.37643"
    inkscape:cy="285.04449"
    inkscape:document-units="in"
    showgrid="true"
    units="in"
    inkscape:window-width="1392"
    inkscape:window-height="836"
    inkscape:window-x="39"
    inkscape:window-y="6"
    inkscape:window-maximized="0"
    inkscape:snap-grids="true"
    inkscape:snap-to-guides="true"
    inkscape:snap-nodes="true"
    inkscape:object-nodes="true"
    inkscape:snap-smooth-nodes="true"
    inkscape:snap-intersection-paths="true"
    inkscape:object-paths="true"
    inkscape:snap-bbox="true"
    inkscape:bbox-nodes="true"
    inkscape:snap-others="true"
    inkscape:bbox-paths="false"
    inkscape:snap-global="true" >
  <inkscape:grid
    type="xygrid"
    id="grid3051"
    empspacing="2"
    visible="true"
    enabled="true"
    snapvisiblegridlinesonly="true"
    spacingx="0.0625in"
    spacingy="0.0625in"
    dotted="false"
    units="in" />
</sodipodi:namedview>
<g inkscape:groupmode="layer" id="water_layer" inkscape:label="Water" style="display:inline" sodipodi:insensitive="true" >
  <rect id="water" x="0" y="0" width="246.6" height="246.6" style="fill:#b9deff;fill-opacity:1;stroke:none" />
</g>
<g inkscape:groupmode="layer" id="water_medium_layer" inkscape:label="Water Shallow" style="display:inline" sodipodi:insensitive="true" >
  <path style="fill:#9bd1ff;fill-opacity:0.70;fill-rule:evenodd;stroke:none;filter:url(#blurWaterShallow)" d="m 132.80002,255.55008 0,-20 c 0,0 0.0517,-11.00226 1.55027,-16.2242 2.28449,-7.96085 7.92736,-14.57782 11.11168,-22.22335 5.26073,-12.63096 10.91398,-25.38913 13.13198,-38.89087 1.47373,-8.97113 1.57528,-18.32027 0,-27.27413 -0.96995,-5.51317 -5.2057,-10.21205 -5.73166,-15.78513 -0.90867,-9.62834 -2.70433,-22.333207 4.62549,-28.642281 7.90403,-6.803327 21.30752,2.701344 31.28448,-0.334971 12.08399,-3.677553 24.99097,-10.065054 31.69353,-20.771261 2.62342,-4.190472 2.33842,-9.786431 1.89404,-14.710345 -0.54737,-6.065052 -0.69714,-13.716273 -5.53944,-17.409043 -6.33498,-4.83109 -16.01952,-2.253204 -23.88126,-0.963107 -10.4455,1.714087 -21.2356,4.939829 -29.65682,11.353066 -6.20179,4.723018 -6.32565,16.855588 -13.86639,18.832039 C 141.15355,64.67209 134.53929,52.960748 126.0546,51.977579 112.66583,50.426146 98.986654,54.985031 86.368042,59.721781 76.598137,63.389189 66.529614,67.914997 59.285337,75.426414 53.471732,81.4544 52.925184,91.242172 47.47717,97.602499 42.548608,103.35639 36.297435,108.34892 29.294423,111.23956 c -5.6765,2.34309 -18.244412,2.56048 -18.244412,2.56048 l -20.000001,0 0,-102.75 19.99999,-19.9999902 224.49999,0 20.00003,20.0000312 0,224.499989 -20,20.00003 z" inkscape:connector-curvature="0" />
</g>
<g inkscape:groupmode="layer" id="water_deep_layer" inkscape:label="Water Deep" style="display:inline" sodipodi:insensitive="true" >
  <path style="fill:#87c8ff;fill-opacity:0.60;fill-rule:evenodd;stroke:none;filter:url(#blurWaterDeep)" d="m 181.05002,255.55008 0,-20 c 0,0 -2.35509,-11.33851 -1.7532,-17.00502 1.21575,-11.44577 9.22255,-21.42028 10.67774,-32.83808 2.52057,-19.77707 -10.66705,-41.04389 -3.63718,-59.70044 4.34928,-11.54254 14.80867,-17.68973 22.49371,-27.337866 6.66778,-8.371025 14.42595,-15.274351 16.79751,-25.710303 3.36198,-14.794255 4.93891,-37.583352 -1.37474,-45.561467 -5.55836,-7.023712 -17.35801,-5.876573 -26.30624,-5.480193 -18.43876,0.816783 -34.56009,15.161996 -52.99598,16.041284 -15.26524,0.728066 -29.69071,-8.141826 -44.94654,-9.045866 -12.604557,-0.746929 -25.531274,-0.915098 -36.686738,5 -8.593717,4.556752 -11.776644,14.669234 -19.327813,20.800776 -5.451765,4.426827 -12.044016,7.57959 -18.791697,9.5257 -4.550997,1.312561 -14.148841,1.311415 -14.148841,1.311415 l -20.000001,0 0,-54.5 19.99999,-19.9999902 224.49999,0 20.00003,20.0000312 0,224.499989 -20.00003,20.00004 z" inkscape:connector-curvature="0" />
</g>
<g inkscape:groupmode="layer" id="water_hilight_layer" inkscape:label="Water Hilight" style="display:inline" sodipodi:insensitive="true" >
  <use xlink:href="#shoreline" height="100%" width="100%" x="0" y="0" style="display:inline;fill:#ffffff;fill-opacity:1;stroke:#ffffff;stroke-opacity:1;filter:url(#blurWaterHilight)" />
</g>
<g inkscape:groupmode="layer" id="shoreline_layer" inkscape:label="Shoreline" style="display:inline" sodipodi:insensitive="true" >
  <use xlink:href="#shoreline" height="100%" width="100%" x="0" y="0" style="display:inline;fill:#ffddab;fill-opacity:1;stroke:#5f4c14;stroke-width:1;stroke-miterlimit:4;stroke-dasharray:none;stroke-opacity:1" />
</g>
<g inkscape:groupmode="layer" id="shoreline_master_layer" inkscape:label="Shoreline Master" style="display:none" sodipodi:insensitive="true" >
  <path id="shoreline" style="color:#000000;clip-rule:nonzero;display:inline;overflow:visible;visibility:visible;opacity:1;isolation:auto;mix-blend-mode:normal;color-interpolation:sRGB;color-interpolation-filters:linearRGB;solid-color:#000000;solid-opacity:1;fill-opacity:1;fill-rule:evenodd;color-rendering:auto;image-rendering:auto;shape-rendering:auto;text-rendering:auto;enable-background:accumulate" d="m 172.88025,53.037256 c -1.46332,2.99728 1.36975,13.287458 7.5746,14.91575 0,0 8.65069,0.790295 12.50516,-0.591261 3.21782,-3.177316 14.83091,-0.672545 19.46043,-7.378795 3.34428,-2.616723 4.06526,-4.377036 0.70033,-12.861316 3.09975,-4.43367 3.5155,-6.818063 2.37647,-7.918467 -2.91088,-2.812161 -15.97428,2.758815 -20.32749,3.928657 -6.48965,2.716355 -6.42272,-2.255859 -22.2895,9.905432 z m -47.12559,18.245476 c -2.8261,0.025 -5.53337,1.249372 -7.07421,3.335938 -5.28556,7.157567 -32.432171,2.161812 -32.743761,20.635945 -0.0911,5.399405 -17.15183,10.574725 -26.35429,13.700025 -13.0278,4.42445 -18.344611,25.04624 -22.474571,31.33904 -5.517441,8.4069 -16.970652,14.88128 -26.057827,14.88128 l -20.000001,0 0,80.375 20.000005,20.00006 80.375,0 0,-20 c -0.178571,-15.71429 7.302396,-20.71073 7.302396,-20.71073 5.118459,-12.01342 -6.911004,-14.32776 2.715679,-30.22629 10.74977,-17.75331 18.61614,-1.38135 22.23884,-10.14453 4.42401,-10.70153 15.10106,-9.29649 15.15792,-15.03683 0.0258,-2.60924 -1.56661,-4.85272 -6.08007,-6.93359 -6.57452,-3.03109 -6.11495,-13.21149 -5.65001,-22.96646 0.78425,-16.45458 5.78503,-29.22379 7.83826,-37.389483 3.81246,-15.162221 -2.97593,-20.91437 -9.19336,-20.859375 z" inkscape:connector-curvature="0" />
</g>
<g inkscape:groupmode="layer" id="grass_layer" inkscape:label="Grass" style="display:inline" sodipodi:insensitive="true" >
  <use xlink:href="#grass" height="100%" width="100%" x="0" y="0" style="display:inline;fill:#b4e982;fill-opacity:1;stroke:none;stroke-width:1;stroke-miterlimit:4;stroke-dasharray:none;stroke-opacity:1" />
</g>
<g inkscape:groupmode="layer" id="grass_master_layer" inkscape:label="Grass Master" style="display:none" sodipodi:insensitive="true" >
  <path id="grass" style="color:#000000;clip-rule:nonzero;display:inline;overflow:visible;visibility:visible;opacity:1;isolation:auto;mix-blend-mode:normal;color-interpolation:sRGB;color-interpolation-filters:linearRGB;solid-color:#000000;solid-opacity:1;fill-opacity:1;fill-rule:evenodd;filter:url(#blurGrass);color-rendering:auto;image-rendering:auto;shape-rendering:auto;text-rendering:auto;enable-background:accumulate" d="m 123.93594,156.93335 c 2.41107,-6.64798 -3.32055,-16.81065 -3.113,-18.20592 l 2.53264,-17.02595 c 1.1035,-7.41838 4.84494,-16.44123 3.92857,-23.885043 -0.94458,-7.6729 7.85031,-19.083808 0.22154,-17.831753 -9.10529,1.494384 -21.54296,6.213564 -27.25558,9.828684 -9.238527,5.84643 -7.668088,7.381094 -15.096538,15.402902 -5.69736,6.15245 -16.978207,5.84533 -21.46403,11.23837 -5.362195,6.44665 -12.732917,15.59588 -17.635857,22.39835 -3.10089,4.30226 -10.933719,10.65974 -14.065569,14.81055 -5.64659,7.48375 -20.938115,11.13642 -20.938115,11.13642 l -19.999991,6e-5 -10e-6,70.74994 20.000005,20.00006 70.75,0 1.5e-5,-19.99994 c 0,0 0.802219,-11.50432 2.842834,-16.80722 1.549273,-4.02607 4.634937,-7.27703 6.952405,-10.91555 4.029104,-6.32585 2.071834,-14.52124 4.941962,-21.45034 2.02949,-4.89961 7.202729,-10.69637 12.346819,-11.98605 10.16789,-2.5492 10.07334,-3.73032 15.0519,-17.45757 z m 55.95967,-94.566809 c 0.58343,0.42279 1.24665,0.726513 1.9755,0.860992 5.65499,0.721799 14.91576,1.947752 17.89589,-2.004323 2.98011,-3.952068 7.09339,-8.81928 5.54309,-10.873923 -1.5503,-2.054648 -7.41385,-4.262722 -12.08312,-3.355606 -4.66928,0.907124 -13.02166,4.351053 -15.15032,7.173968 -1.72953,2.293613 -0.70936,6.366861 1.81896,8.198892 z" inkscape:connector-curvature="0" />
</g>
<g inkscape:groupmode="layer" id="forest_shadow_layer" inkscape:label="Forest Shadow" style="display:inline" sodipodi:insensitive="true" >
  <g style="filter:url(#blurForestShadow)" >
    <use xlink:href="#forest" height="100%" width="100%" x="0" y="0" style="display:inline;opacity:0.75;fill:#258c1b;fill-opacity:1" />
  </g>
</g>
<g inkscape:groupmode="layer" id="forest_fill_layer" inkscape:label="Forest Fill" style="display:inline" sodipodi:insensitive="true" >
  <use xlink:href="#forest" height="100%" width="100%" x="0" y="0" style="fill:#7ebd47;fill-opacity:1;fill-rule:nonzero;stroke:#496e28;stroke-width:0.5;stroke-linecap:round;stroke-linejoin:round;stroke-miterlimit:4;stroke-dasharray:none;stroke-dashoffset:0;stroke-opacity:1" />
</g>
<g inkscape:groupmode="layer" id="forest_master_layer" inkscape:label="Forest Master" style="display:none" sodipodi:insensitive="true" >
  <path id="forest" style="color:#000000;clip-rule:nonzero;display:inline;overflow:visible;visibility:visible;opacity:1;isolation:auto;mix-blend-mode:normal;color-interpolation:sRGB;color-interpolation-filters:linearRGB;solid-color:#000000;solid-opacity:1;fill-opacity:1;fill-rule:nonzero;color-rendering:auto;image-rendering:auto;shape-rendering:auto;text-rendering:auto;enable-background:accumulate" d="M 189.76953 50.851562 C 188.62801 50.749419 187.1693 51.210531 185.85547 52.191406 C 185.3189 52.593246 184.84041 53.059139 184.45117 53.558594 C 183.4289 53.118201 182.51714 53.126423 181.90234 53.582031 C 180.57469 54.57323 180.97185 57.351107 182.78906 59.785156 C 184.60626 62.219206 187.15476 63.387683 188.48242 62.396484 C 189.56838 61.581984 189.51941 59.530716 188.36133 57.394531 C 188.68333 57.220898 188.9958 57.02089 189.29492 56.798828 C 189.49827 56.646897 189.6948 56.486014 189.88086 56.316406 C 189.93396 56.395926 189.99035 56.473393 190.04688 56.550781 C 190.93313 57.737203 192.13462 58.536556 193.17188 58.626953 C 194.3854 59.988129 196.52462 60.136609 198.08984 58.96875 C 199.74942 57.729747 200.15835 55.468863 199.00195 53.919922 C 197.84554 52.37098 195.56192 52.120372 193.90234 53.359375 C 193.83384 53.410425 193.76837 53.464578 193.70312 53.519531 C 193.0574 52.718144 192.26272 52.107399 191.48438 51.816406 C 191.45347 51.759976 191.41962 51.70651 191.38281 51.654297 C 191.0266 51.177168 190.45444 50.912849 189.76953 50.851562 z M 113.51172 99.835938 C 110.7503 99.835938 108.51172 103.75345 108.51172 108.58594 C 108.51272 109.04196 108.53487 109.49712 108.57617 109.94727 C 108.30723 109.87327 108.03471 109.83603 107.76172 109.83594 C 105.13837 109.83594 103.01172 113.1938 103.01172 117.33594 C 103.01272 117.54396 103.01975 117.75181 103.03125 117.95898 C 102.69466 117.87928 102.35357 117.83816 102.01172 117.83594 C 98.698009 117.83594 96.011719 121.41766 96.011719 125.83594 C 96.011719 130.25422 98.698009 133.83594 102.01172 133.83594 C 102.70099 133.83394 103.38482 133.67318 104.0332 133.36133 C 102.75034 134.87653 102.01466 137.05086 102.01172 139.33594 C 102.01472 140.19966 102.12186 141.05711 102.33008 141.875 C 100.3901 142.76181 98.994287 144.64442 98.617188 146.88281 C 98.333658 146.85381 98.047929 146.83814 97.761719 146.83594 C 97.340879 146.83685 96.921092 146.86698 96.507812 146.92578 C 97.156572 145.89059 97.508749 144.6312 97.511719 143.33594 C 97.511719 140.02223 95.273139 137.33594 92.511719 137.33594 C 89.750299 137.33594 87.511719 140.02223 87.511719 143.33594 C 87.512549 143.71886 87.544269 144.10081 87.605469 144.47656 C 87.257269 144.38456 86.886259 144.33689 86.511719 144.33594 C 84.854869 144.33594 83.511719 145.23137 83.511719 146.33594 C 83.512249 146.34704 83.512222 146.35804 83.513672 146.36914 C 80.405412 146.71431 78.013899 150.17724 78.011719 154.33594 C 78.011719 158.75422 80.698009 162.33594 84.011719 162.33594 C 84.805319 162.33294 85.590666 162.12096 86.322266 161.71094 C 87.392866 163.02443 89.370519 163.83425 91.511719 163.83594 C 92.636469 163.83517 93.738266 163.61048 94.691406 163.1875 C 95.426266 163.54575 96.234413 163.75992 97.064453 163.81641 C 97.435373 167.8213 99.985239 170.8309 103.01172 170.83594 C 106.32543 170.83594 109.01172 167.25422 109.01172 162.83594 C 109.00972 158.48597 106.40042 154.93579 103.13867 154.84375 C 103.20457 154.77975 103.26841 154.71467 103.33008 154.64844 C 103.799 154.77039 104.27941 154.83331 104.76172 154.83594 C 105.22787 154.83394 105.69234 154.77564 106.14648 154.66211 C 107.09648 156.30534 108.96973 157.33483 111.01172 157.33594 C 114.04929 157.33594 116.51172 155.09736 116.51172 152.33594 C 116.51172 149.57452 114.04929 147.33594 111.01172 147.33594 C 110.99672 147.33655 110.9818 147.33644 110.9668 147.33789 C 110.9343 147.02373 110.88149 146.71241 110.80859 146.40625 C 112.77684 145.02351 114.00969 142.30225 114.01172 139.33594 C 114.00872 137.39935 113.4795 135.52982 112.52148 134.07422 C 115.16518 133.15804 117.01025 129.97731 117.01172 126.33594 C 117.00972 124.38542 116.46746 122.58307 115.57031 121.17578 C 115.70179 120.611 115.76891 120.02396 115.76953 119.43359 C 115.76896 118.5049 115.60384 117.58902 115.28711 116.75781 C 117.17044 115.50308 118.51172 112.32218 118.51172 108.58594 C 118.51172 103.75345 116.27314 99.835938 113.51172 99.835938 z M 94.257812 104.98242 C 93.048113 104.98342 91.908222 105.39464 91.173828 106.09375 C 91.024497 106.06195 90.873724 106.04497 90.722656 106.04297 C 88.964523 106.04197 87.538863 108.02104 87.539062 110.46289 C 87.539637 112.90398 88.965071 114.8821 90.722656 114.88086 C 92.432105 114.87786 93.834415 112.99952 93.898438 110.62695 C 94.017916 110.63495 94.137839 110.63877 94.257812 110.63867 C 96.405368 110.6385 98.146251 109.37241 98.146484 107.81055 C 98.146251 106.24869 96.405368 104.98259 94.257812 104.98242 z M 72.796875 118.12305 C 69.483165 118.12305 66.796875 121.70477 66.796875 126.12305 C 66.797875 127.1623 66.951507 128.19123 67.248047 129.15234 C 67.121427 129.13774 70.289187 128.91258 71.341797 128.83008 C 67.710407 129.32382 60.796875 133.01203 60.796875 137.12305 C 60.796875 137.90029 61.047704 138.64959 61.402344 139.35938 C 60.541359 139.8941 59.798153 140.87549 59.275391 142.16797 C 58.390021 142.76959 58.017031 143.73541 57.306641 143.73438 C 53.992931 143.73438 45.296875 151.20477 45.296875 155.62305 C 45.296875 160.04133 47.983165 163.62305 51.296875 163.62305 C 52.755715 163.61805 54.163149 162.90397 55.255859 161.61523 C 55.352559 161.62023 55.449705 161.62305 55.546875 161.62305 C 57.201115 161.62305 58.543175 160.84192 58.546875 159.87695 C 60.512935 159.37548 61.796205 158.1894 61.796875 156.87305 C 61.796705 155.73405 61.893376 154.79711 62.066406 153.95898 C 62.343071 154.05248 62.624297 154.10022 62.90625 154.10156 C 65.347262 154.10204 67.326227 150.69854 67.326172 146.5 C 67.324072 146.31806 67.318294 146.1363 67.308594 145.95508 C 67.975675 146.42661 68.706528 146.6729 69.447266 146.67578 C 72.180782 146.67535 74.396558 143.43038 74.396484 139.42773 C 74.394084 138.37384 74.234816 137.3334 73.929688 136.37891 C 74.12056 135.94342 74.219305 135.47884 74.220703 135.00977 L 74.21875 134.98438 C 74.57276 134.75627 74.796565 134.40865 74.796875 133.87305 C 74.795875 133.80135 74.794016 133.72973 74.791016 133.6582 C 76.623256 132.79713 78.029413 130.80653 78.564453 128.31641 C 79.910863 127.64341 80.796485 125.97903 80.796875 124.12305 C 80.796875 121.63777 79.229875 119.62305 77.296875 119.62305 C 77.005625 119.62405 76.715614 119.67215 76.433594 119.76562 C 75.389024 118.70173 74.111335 118.12465 72.796875 118.12305 z M 100.62891 128.14453 C 100.68041 128.22603 100.73318 128.3061 100.78711 128.38477 C 100.61425 128.44557 100.4435 128.51657 100.27539 128.59766 C 100.39781 128.4531 100.51575 128.30193 100.62891 128.14453 z M 85.716797 150.34961 C 85.999037 150.91404 86.416539 151.43608 86.949219 151.89062 C 86.874919 151.98493 86.803938 152.0813 86.736328 152.17969 C 86.425758 152.14339 86.111635 152.12445 85.796875 152.12305 C 85.266235 152.12405 84.738182 152.17565 84.226562 152.27539 C 84.270863 151.89404 84.294375 151.50892 84.296875 151.12305 C 84.296565 150.94907 84.291903 150.77514 84.283203 150.60156 C 84.773503 150.56756 85.255677 150.48279 85.716797 150.34961 z M 51.011719 169.25391 C 49.600789 169.25479 48.235267 169.60602 47.154297 170.24609 C 46.467647 170.0588 45.738083 169.96215 45.001953 169.96094 C 42.484463 169.96294 40.235496 171.07223 39.367188 172.74023 C 38.408298 172.31162 37.297079 172.08342 36.162109 172.08203 C 32.843159 172.08228 30.152694 173.98143 30.152344 176.32422 C 30.152844 176.70099 30.224444 177.07603 30.365234 177.43945 C 30.061034 177.40455 29.753483 177.38637 29.445312 177.38477 C 26.126352 177.38502 23.435897 179.28416 23.435547 181.62695 C 23.437547 181.94122 23.489547 182.25435 23.589844 182.56055 C 22.970324 182.4116 22.320486 182.33506 21.666016 182.33398 C 20.376246 182.33598 19.121751 182.63145 18.087891 183.17578 C 18.115091 182.89686 18.129459 182.61564 18.130859 182.33398 C 18.130599 178.82035 18.475176 177.04413 16.035156 177.04297 C 14.483806 177.04597 11.847962 177.75934 11.050781 179.67578 L -8.9492188 179.67578 L -8.9492188 235.55078 L 11.050781 255.55078 L 66.925781 255.55078 L 66.925781 235.55078 C 66.924781 231.98841 71.594478 231.0119 70.861328 229.15039 C 72.686468 228.38792 74.342403 223.43064 74.345703 221.93359 C 74.344703 221.56896 74.277103 221.20595 74.144531 220.85352 C 74.328901 220.86602 74.513999 220.87255 74.699219 220.87305 C 78.020019 220.87356 80.712108 218.973 80.710938 216.62891 C 80.707937 214.73239 78.923001 213.06743 76.337891 212.55078 C 76.423291 212.26433 76.466517 211.97241 76.466797 211.67969 C 76.466327 211.42353 76.432988 211.16793 76.367188 210.91602 C 79.276988 210.58382 81.416119 208.81114 81.417969 206.73047 C 81.415969 206.38734 81.354969 206.04565 81.236328 205.71289 C 82.259638 204.93105 82.829201 203.90624 82.832031 202.8418 C 82.830031 202.49398 82.767931 202.14763 82.646484 201.81055 C 84.896604 201.15612 86.365588 199.6085 86.367188 197.89062 C 86.366838 195.54783 83.676372 193.64869 80.357422 193.64844 C 80.260322 193.64878 80.163326 193.6503 80.066406 193.6543 C 81.370996 192.8507 82.12126 191.68901 82.125 190.4668 C 82.12469 188.12347 79.433001 186.2241 76.113281 186.22461 C 75.353411 186.22497 74.600531 186.32703 73.894531 186.52539 C 73.634631 185.52422 72.87352 184.62237 71.75 183.98438 C 71.19284 181.99964 68.727708 180.5688 65.861328 180.56641 C 63.988718 180.56841 62.224524 181.18673 61.089844 182.23828 C 60.578094 181.76264 59.9299 181.36863 59.1875 181.08203 C 59.62201 180.48494 59.849584 179.82359 59.851562 179.15234 C 59.847563 177.51797 58.514538 176.03043 56.423828 175.32812 C 56.814628 174.7567 57.018854 174.13063 57.021484 173.49609 C 57.021134 171.1533 54.330679 169.25416 51.011719 169.25391 z M 37.6875 180.42578 C 37.94584 180.86349 38.306306 181.26752 38.753906 181.62109 C 37.774786 181.16515 36.628058 180.9214 35.455078 180.91992 C 35.426478 180.92041 35.397741 180.92037 35.369141 180.92188 C 35.336441 180.78376 35.294051 180.64688 35.242188 180.51172 C 35.546388 180.54662 35.853939 180.56481 36.162109 180.56641 C 36.677009 180.56585 37.18967 180.51861 37.6875 180.42578 z M 48.404297 180.95312 C 48.946347 181.77214 49.84477 182.44754 50.96875 182.88086 C 50.82976 183.07217 50.711594 183.27066 50.615234 183.47461 C 49.970304 182.64473 48.95073 181.99092 47.71875 181.61719 C 47.97716 181.41201 48.206757 181.18963 48.404297 180.95312 z M 39.9375 182.34375 C 40.23263 182.48136 40.544381 182.60031 40.869141 182.69922 C 40.767611 182.78052 40.670535 182.86461 40.578125 182.95117 C 40.390655 182.73562 40.17629 182.53234 39.9375 182.34375 z M 27.523438 185.64453 C 27.553937 185.65253 27.584534 185.66037 27.615234 185.66797 C 27.593534 185.68807 27.571881 185.70822 27.550781 185.72852 C 27.541781 185.70042 27.532948 185.67243 27.523438 185.64453 z M 51.054688 186.85352 C 51.453848 187.36385 51.997704 187.81064 52.652344 188.16602 C 52.093074 188.47102 51.614381 188.84325 51.238281 189.26562 C 51.089991 188.74878 50.806504 188.256 50.402344 187.8125 C 50.675924 187.51343 50.895096 187.19123 51.054688 186.85352 z M 61.085938 187.38086 C 61.351396 187.62882 61.654644 187.85544 61.990234 188.05664 C 61.439434 188.12564 60.904984 188.24855 60.402344 188.42188 C 60.266634 188.33337 60.125206 188.24926 59.978516 188.16992 C 60.395046 187.94226 60.767377 187.677 61.085938 187.38086 z M 40.232422 187.72852 C 40.256622 187.75862 40.281441 187.78866 40.306641 187.81836 C 40.023111 188.1278 39.797919 188.46199 39.636719 188.8125 C 39.340519 188.7639 39.039528 188.73124 38.736328 188.71484 C 39.311258 188.44887 39.817292 188.11527 40.232422 187.72852 z M 75.048828 194.63867 C 75.399988 194.68437 75.756211 194.70788 76.113281 194.70898 C 76.210381 194.70864 76.307377 194.70712 76.404297 194.70312 C 76.041917 194.92571 75.718646 195.17817 75.441406 195.45508 C 75.291066 195.40638 75.137942 195.36208 74.982422 195.32227 C 75.026822 195.11931 75.050334 194.91434 75.052734 194.70898 C 75.051734 194.68558 75.050828 194.66207 75.048828 194.63867 z M 53.097656 195.10547 C 53.301406 195.19637 53.512729 195.27856 53.730469 195.35156 C 53.666269 195.44506 53.607014 195.54017 53.552734 195.63672 C 53.419624 195.45203 53.267526 195.27447 53.097656 195.10547 z M 69.867188 202.94922 C 70.179846 203.07999 70.508669 203.19047 70.849609 203.2793 C 70.878209 203.4741 70.925809 203.66726 70.992188 203.85742 C 69.968238 204.63976 69.398624 205.66535 69.396484 206.73047 C 69.398484 206.89308 69.414559 207.05546 69.443359 207.2168 C 68.965939 207.1304 68.475272 207.0858 67.982422 207.08398 C 67.246632 207.08394 66.517088 207.17928 65.830078 207.36523 C 65.561838 206.86126 65.160154 206.39795 64.646484 206 C 67.110494 205.83867 69.182592 204.62781 69.867188 202.94922 z M 33.365234 203.44727 C 34.295044 203.92151 35.397699 204.19802 36.542969 204.24414 C 36.526469 204.36555 36.517325 204.48739 36.515625 204.60938 C 36.516625 204.73002 36.525626 204.85057 36.541016 204.9707 C 35.568886 205.009 34.624483 205.21343 33.789062 205.56641 C 33.297573 205.07011 32.780194 204.6811 32.246094 204.40625 C 32.649014 204.10412 33.022877 203.78377 33.365234 203.44727 z M 25.607422 207.15234 C 24.313172 209.18829 23.390196 212.00318 22.978516 215.16992 C 21.963846 212.93823 20.506666 211.16885 18.785156 210.07812 C 19.157876 209.19255 19.463926 208.24294 19.697266 207.24805 C 20.578496 207.37355 21.47558 207.43702 22.375 207.4375 C 23.46509 207.4345 24.550522 207.3385 25.607422 207.15234 z M 42.673828 210.2832 C 42.841638 210.41535 43.021026 210.53996 43.210938 210.65625 C 42.957608 210.67755 42.706444 210.71011 42.458984 210.75391 C 42.543484 210.60009 42.615238 210.44292 42.673828 210.2832 z M 68.152344 215.59766 C 68.369724 215.66016 68.592119 215.71365 68.818359 215.75781 C 68.732959 216.04426 68.689733 216.33619 68.689453 216.62891 C 68.690453 216.99354 68.758053 217.35655 68.890625 217.70898 C 68.815225 217.70498 68.739643 217.70317 68.664062 217.70117 C 68.679963 217.57974 68.688453 217.45788 68.689453 217.33594 C 68.686453 216.73623 68.503414 216.14378 68.152344 215.59766 z M 49.255859 216.83789 C 49.305159 217.51213 49.58173 218.16832 50.0625 218.75195 C 48.36546 218.76485 46.833644 219.243 46.121094 219.98242 C 45.935694 219.61677 45.737404 219.27112 45.527344 218.94727 C 47.129734 218.63806 48.479389 217.87451 49.255859 216.83789 z " inkscape:connector-curvature="0" />
</g>
<g inkscape:groupmode="layer" id="routes_layer" inkscape:label="Routes" style="display:inline" sodipodi:insensitive="true" >
  <path style="display:inline;fill:none;stroke:#000000;stroke-width:2;stroke-linecap:round;stroke-miterlimit:4;stroke-dasharray:0.1, 5;stroke-dashoffset:0;stroke-opacity:1" d="m 123.29998,-8.95003 0,20.000001 C 123.87866,35.187747 105.81582,50.717038 82.790122,65.12178 53.05823,83.721877 35.990011,86.135891 11.050011,85.88335 l -20.000001,0 m 169.66668,169.66673 0,-20 c -0.75762,-33.58757 -0.4449,-57.1404 15.34279,-78.13856 C 189.6281,139.36479 210.86817,124.40244 235.55,123.3 l 20,0 M 125.29496,28.171779 c 45.30982,16.060914 29.50633,94.622201 61.27322,116.981701" inkscape:connector-curvature="0" />
</g>
<g inkscape:groupmode="layer" id="labels_layer" inkscape:label="Labels" style="display:inline" sodipodi:insensitive="true" >
  <text xml:space="preserve" style="font-style:normal;font-variant:normal;font-weight:normal;font-stretch:normal;font-size:10px;line-height:125%;font-family:CCTreasureTrove;-inkscape-font-specification:'CCTreasureTrove, Normal';text-align:start;letter-spacing:0px;word-spacing:0px;writing-mode:lr-tb;text-anchor:start;display:inline;fill:#5d481b;fill-opacity:1;stroke:none;stroke-width:1px;stroke-linecap:butt;stroke-linejoin:miter;stroke-opacity:1"><textPath xlink:href="#label-path"
>Dagger Point</textPath></text>
</g>
<g inkscape:groupmode="layer" id="labels_guide_layer" inkscape:label="Labels Guide" style="display:none" sodipodi:insensitive="true" >
  <path id="label-path" style="color:#000000;fill:none;stroke:#000000;stroke-width:1;stroke-opacity:1" d="M 113.70725,61.096493 C 82.083071,69.000421 39.552148,102.76542 26.204867,128.59164" inkscape:connector-curvature="0" />
</g>
<g inkscape:groupmode="layer" id="resources_layer" inkscape:label="Resources" style="display:inline" sodipodi:insensitive="true" >
  <g id="resource-pirate" transform="matrix(-0.76786817,-0.6406079,0.6406079,-0.76786817,57.328951,378.3963)" >
    <path style="display:inline;opacity:1;fill:#000000;fill-opacity:1;stroke:none;stroke-width:0.72000003;stroke-linejoin:miter;stroke-miterlimit:4;stroke-dasharray:none;stroke-dashoffset:0;stroke-opacity:1" transform="scale(-1,-1)" d="m -107.60416,-273.69223 -7.8991,-1.94695 -6.08951,-5.39484 -2.88489,-7.60683 0.98062,-8.07619 4.6215,-6.69539 7.20363,-3.78076 8.13551,0 7.203628,3.78076 4.621495,6.69539 0.980627,8.07619 -2.88489,7.60683 -6.089513,5.39484 z" inkscape:connector-curvature="0" />
    <g transform="translate(6.943425,5.6840535)" >
      <g transform="translate(0,-10)" >
        <path style="color:#000000;clip-rule:nonzero;display:inline;overflow:visible;visibility:visible;opacity:1;isolation:auto;mix-blend-mode:normal;color-interpolation:sRGB;color-interpolation-filters:linearRGB;solid-color:#000000;solid-opacity:1;fill:#ffffff;fill-opacity:1;fill-rule:nonzero;stroke:none;stroke-width:0.49999997;stroke-linecap:butt;stroke-linejoin:miter;stroke-miterlimit:4;stroke-dasharray:none;stroke-dashoffset:0;stroke-opacity:1;color-rendering:auto;image-rendering:auto;shape-rendering:auto;text-rendering:auto;enable-background:accumulate" d="m 91.84844,289.85155 c 4.41124,3.03993 11.33218,5.63427 19.39618,8.47116 0.51356,0.18067 1.26729,0.0129 1.26729,0.0129 1.03108,0.0262 1.76032,0.59243 1.42127,1.81302 -0.15625,0.5625 -0.60065,0.1875 -1.10065,0.75 -0.59594,0.67043 -0.31337,0.98447 -0.78702,1.45924 -0.37301,0.37389 -0.95237,0.38325 -1.41542,-0.0762 -0.43122,-0.4279 -0.24851,-1.07751 -0.79513,-1.34257 -5.2397,-2.54083 -12.94978,-6.27419 -18.97954,-8.64117 -0.75546,-0.29655 -1.95134,0.5095 -2.69668,0.18835 -0.65522,-0.28232 -1.04679,-1.02773 -0.89579,-1.72503 0.11053,-0.51043 1.25,-0.94464 1.25,-0.94464 l 0.16316,0.45958 c -0.38049,-1.27579 -0.54342,-1.55226 0.0416,-2.29926 0.47038,-0.60064 1.71455,-0.2507 2.18742,0.26834 0.3856,0.42325 0.37162,1.21233 0.94334,1.60632 z" inkscape:connector-curvature="0" />
        <path style="color:#000000;font-style:normal;font-variant:normal;font-weight:normal;font-stretch:normal;font-size:medium;line-height:normal;font-family:sans-serif;text-indent:0;text-align:start;text-decoration:none;text-decoration-line:none;text-decoration-style:solid;text-decoration-color:#000000;letter-spacing:normal;word-spacing:normal;text-transform:none;direction:ltr;block-progression:tb;writing-mode:lr-tb;baseline-shift:baseline;text-anchor:start;white-space:normal;clip-rule:nonzero;display:inline;overflow:visible;visibility:visible;opacity:1;isolation:auto;mix-blend-mode:normal;color-interpolation:sRGB;color-interpolation-filters:linearRGB;solid-color:#000000;solid-opacity:1;fill:#000000;fill-opacity:1;fill-rule:nonzero;stroke:none;stroke-width:0.49999997;stroke-linecap:butt;stroke-linejoin:miter;stroke-miterlimit:4;stroke-dasharray:none;stroke-dashoffset:0;stroke-opacity:1;color-rendering:auto;image-rendering:auto;shape-rendering:auto;text-rendering:auto;enable-background:accumulate" d="m 89.94141,287.44531 c -0.54653,-0.13973 -1.02793,0.0475 -1.41993,0.37696 -0.39461,0.33166 -0.45344,0.73455 -0.43554,1.11718 0.009,0.1953 0.0749,0.48278 0.14843,0.71094 0.0247,0.0765 -0.13751,0.0543 -0.37499,0.19141 -0.31892,0.18405 -0.69539,0.49169 -0.78516,0.90624 -0.17772,0.8207 0.18277,1.73389 0.98633,1.96876 0.90806,0.26541 1.87242,-0.46589 2.70312,-0.18553 6.12153,2.06605 13.77428,5.90495 18.93945,8.59375 0.44579,0.23206 0.47891,0.99792 0.75,1.33398 0.47609,0.59019 1.43418,0.58737 1.82423,0.0606 0.41555,-0.56124 0.35263,-0.97015 0.71093,-1.40039 0.19962,-0.2397 0.27907,-0.36717 0.48047,-0.41602 0.10069,-0.0244 0.3919,-0.085 0.64844,-0.32813 0.37646,-0.35676 0.31231,-1.20126 -0.13264,-1.71679 -0.40032,-0.46384 -1.02404,-0.57439 -1.4961,-0.57426 -0.43431,1.2e-4 -0.8621,0.10335 -1.16011,0.002 -8.09046,-2.75143 -14.91003,-5.38426 -19.27539,-8.39258 -0.22086,-0.1522 -0.39434,-0.43852 -0.51171,-0.72461 -0.2365,-0.57649 -0.55594,-1.25663 -1.59983,-1.52351 z m 1.2188,1.80664 c 0.16982,0.38884 0.34852,0.54692 0.5469,0.80468 4.45711,3.07156 11.38831,5.66408 19.45508,8.50195 0.6315,0.22216 1.0547,0.10621 1.35742,0.0683 0.71089,-0.0889 1.08312,0.23005 1.22662,0.42788 0.35341,0.48722 0.19231,1.06561 -0.21479,1.15626 -0.18569,0.0413 -0.61103,0.17616 -0.88477,0.52148 -0.33647,0.42445 -0.37657,1.24201 -0.78515,1.55078 -0.31976,0.24165 -0.75772,0.27891 -1.05469,-0.17966 -0.32208,-0.49734 -0.27651,-1.10107 -0.88672,-1.42774 -5.13397,-2.7485 -12.86209,-6.41107 -18.97265,-8.61133 -0.88412,-0.31835 -1.92323,0.3249 -2.69727,0.23828 -0.58607,-0.0656 -0.8665,-0.91439 -0.74219,-1.48829 0.0208,-0.0959 0.18739,-0.36795 0.46875,-0.52344 0.30948,-0.17102 0.40248,-0.17047 0.44922,-0.0664 0.0857,0.19085 0.13229,0.44867 0.15637,0.72069 0.0197,0.22228 0.17958,-0.0361 0.20117,-0.10743 0.0917,-0.30287 -1.1e-4,-0.84555 -0.0587,-0.98826 -0.35066,-0.85435 -0.24288,-1.31016 0.12868,-1.7077 0.29779,-0.31861 0.72973,-0.39498 1.09186,-0.27481 0.69853,0.2318 0.95425,0.78805 1.21486,1.38476 z" inkscape:connector-curvature="0" />
      </g>
      <g transform="translate(0,-10)" >
        <path style="color:#000000;clip-rule:nonzero;display:inline;overflow:visible;visibility:visible;opacity:1;isolation:auto;mix-blend-mode:normal;color-interpolation:sRGB;color-interpolation-filters:linearRGB;solid-color:#000000;solid-opacity:1;fill:#ffffff;fill-opacity:1;fill-rule:nonzero;stroke:none;stroke-width:0.49999997;stroke-linecap:butt;stroke-linejoin:miter;stroke-miterlimit:4;stroke-dasharray:none;stroke-dashoffset:0;stroke-opacity:1;color-rendering:auto;image-rendering:auto;shape-rendering:auto;text-rendering:auto;enable-background:accumulate" d="m 109.41706,289.80736 c -4.41124,3.03993 -11.33218,5.63427 -19.39618,8.47116 -0.51356,0.18067 -1.26729,0.0129 -1.26729,0.0129 -1.03108,0.0262 -1.76032,0.59243 -1.42127,1.81302 0.15625,0.5625 0.60065,0.1875 1.10065,0.75 0.59594,0.67043 0.31337,0.98447 0.78702,1.45924 0.37301,0.37389 0.95237,0.38325 1.41542,-0.0762 0.43122,-0.4279 0.24851,-1.07751 0.79513,-1.34257 5.2397,-2.54083 12.94978,-6.27419 18.97954,-8.64117 0.75546,-0.29655 1.95134,0.5095 2.69668,0.18835 0.65522,-0.28232 1.04679,-1.02773 0.89579,-1.72503 -0.11053,-0.51043 -1.25,-0.94464 -1.25,-0.94464 l -0.16316,0.45958 c 0.38049,-1.27579 0.54342,-1.55226 -0.0416,-2.29926 -0.47038,-0.60064 -1.71455,-0.2507 -2.18742,0.26834 -0.3856,0.42325 -0.37162,1.21233 -0.94334,1.60632 z" inkscape:connector-curvature="0" />
        <path style="color:#000000;font-style:normal;font-variant:normal;font-weight:normal;font-stretch:normal;font-size:medium;line-height:normal;font-family:sans-serif;text-indent:0;text-align:start;text-decoration:none;text-decoration-line:none;text-decoration-style:solid;text-decoration-color:#000000;letter-spacing:normal;word-spacing:normal;text-transform:none;direction:ltr;block-progression:tb;writing-mode:lr-tb;baseline-shift:baseline;text-anchor:start;white-space:normal;clip-rule:nonzero;display:inline;overflow:visible;visibility:visible;opacity:1;isolation:auto;mix-blend-mode:normal;color-interpolation:sRGB;color-interpolation-filters:linearRGB;solid-color:#000000;solid-opacity:1;fill:#000000;fill-opacity:1;fill-rule:nonzero;stroke:none;stroke-width:0.49999997;stroke-linecap:butt;stroke-linejoin:miter;stroke-miterlimit:4;stroke-dasharray:none;stroke-dashoffset:0;stroke-opacity:1;color-rendering:auto;image-rendering:auto;shape-rendering:auto;text-rendering:auto;enable-background:accumulate" d="m 111.38756,287.33529 c -0.48664,0.0425 -1.11759,0.35128 -1.31171,0.78554 -0.25532,0.57121 -0.35791,1.10841 -0.80095,1.43578 -4.2638,3.15061 -11.02151,5.86741 -19.11914,8.59765 -0.37569,0.12667 -0.793,0.007 -1.18941,0 -0.55986,-0.009 -1.2909,0.0173 -1.62304,0.38477 -0.33215,0.36747 -0.49179,0.82955 -0.3072,1.49398 0.0492,0.17698 0.19508,0.41555 0.31501,0.50406 0.11993,0.0885 0.24305,0.11618 0.34375,0.14063 0.20139,0.0489 0.34354,0.0657 0.55078,0.29883 0.27206,0.30606 0.32523,0.48899 0.38672,0.70508 0.0615,0.21608 0.13631,0.48917 0.41016,0.76367 0.46295,0.46404 1.23127,0.45987 1.76953,-0.0742 0.27305,-0.27093 0.34319,-0.599 0.41601,-0.83594 0.0728,-0.23693 0.11923,-0.36621 0.31055,-0.45898 5.23957,-2.54077 12.92679,-6.14139 18.94079,-8.50219 0.26425,-0.10373 0.73389,-0.14378 1.22132,-0.0193 0.48743,0.1245 1.01877,0.28217 1.50586,0.0723 0.76885,-0.33126 1.21875,-1.18712 1.04101,-2.00781 -0.0898,-0.41456 -0.51237,-0.7471 -0.8313,-0.93114 -0.23626,-0.13633 -0.30692,-0.13408 -0.29326,-0.2428 0.0341,-0.27151 0.0324,-0.44202 0.0416,-0.63783 0.018,-0.38263 -0.0918,-0.65157 -0.42093,-1.02881 -0.39713,-0.45513 -0.89964,-0.48317 -1.35615,-0.44329 z m 0.96351,0.70764 c 0.31461,0.3192 0.35498,0.60714 0.37427,0.86802 0.0265,0.35796 0.0566,0.77981 -0.21212,1.56266 -0.0629,0.1834 -0.13514,0.41283 0.0458,0.26781 0.21765,-0.17449 0.32969,-0.52131 0.40328,-0.67267 0.0499,-0.10264 0.1234,-0.0467 0.3034,0.0364 0.32381,0.14909 0.5206,0.38204 0.54136,0.65469 0.0446,0.5855 -0.25812,1.17489 -0.79972,1.40825 -0.25824,0.11127 -0.69789,0.0264 -1.18359,-0.0976 -0.48573,-0.12404 -1.03674,-0.15395 -1.52796,0.0389 -6.04551,2.3732 -13.73417,5.97497 -18.974,8.51586 -0.35529,0.17229 -0.49003,0.5006 -0.57031,0.76171 -0.0803,0.26112 -0.13479,0.47195 -0.29297,0.62891 -0.38783,0.38482 -0.77943,0.36186 -1.0625,0.0781 -0.1998,-0.20028 -0.21858,-0.32159 -0.2832,-0.54883 -0.0646,-0.22722 -0.16831,-0.53603 -0.49219,-0.90039 -0.29276,-0.32936 -0.5411,-0.43101 -0.7644,-0.44761 -0.16657,-0.0124 -0.31978,-0.24306 -0.3377,-0.29665 -0.18307,-0.54743 -0.0422,-0.79871 0.17376,-1.01614 0.27893,-0.28078 0.87349,-0.22843 1.22527,-0.2358 0.44842,-0.009 0.77278,0.20066 1.40429,-0.0215 8.06676,-2.83789 14.84782,-5.48941 19.23633,-8.6582 0.53983,-0.38979 0.52785,-0.93704 0.79316,-1.50218 0.22245,-0.47382 0.76204,-0.67588 1.09941,-0.72147 0.2658,-0.0359 0.66161,0.0555 0.90033,0.29773 z" inkscape:connector-curvature="0" />
      </g>
      <g >
        <path style="color:#000000;clip-rule:nonzero;display:inline;overflow:visible;visibility:visible;opacity:1;isolation:auto;mix-blend-mode:normal;color-interpolation:sRGB;color-interpolation-filters:linearRGB;solid-color:#000000;solid-opacity:1;fill:#ffffff;fill-opacity:1;fill-rule:nonzero;stroke:none;stroke-width:0.49999997;stroke-linecap:butt;stroke-linejoin:miter;stroke-miterlimit:4;stroke-dasharray:none;stroke-dashoffset:0;stroke-opacity:1;color-rendering:auto;image-rendering:auto;shape-rendering:auto;text-rendering:auto;enable-background:accumulate" d="m 95.61696,289.40928 c -0.28542,-0.70119 -0.64431,-0.0511 -1.28032,-1.5943 -0.1555,-0.3773 0.0533,-1.26257 -0.20606,-1.97221 -1.08563,-2.97045 -0.70376,-4.38729 -0.13829,-5.43857 0.90077,-1.67462 2.37389,-2.68893 4.18898,-3.25565 1.68855,-0.52721 3.7114,-0.48187 5.36931,0.13497 1.87949,0.69928 2.96812,1.82798 3.83709,3.63528 0.56796,1.18125 0.75027,1.95911 0.46372,3.37367 -0.0839,0.41394 -0.6938,1.7573 -0.89959,2.67781 -0.13567,0.60688 0.13543,0.88631 0.028,1.10465 -0.68013,1.38226 -0.85951,0.68912 -1.42722,1.53162 -0.82001,1.21692 -0.9135,2.26072 -0.9135,2.26072 -2.62487,0.21736 -5.43031,0.27039 -8.01047,-0.13519 -0.21074,-2.67946 -0.3887,-0.7924 -1.01165,-2.3228 z" inkscape:connector-curvature="0" />
        <path style="color:#000000;font-style:normal;font-variant:normal;font-weight:normal;font-stretch:normal;font-size:medium;line-height:normal;font-family:sans-serif;text-indent:0;text-align:start;text-decoration:none;text-decoration-line:none;text-decoration-style:solid;text-decoration-color:#000000;letter-spacing:normal;word-spacing:normal;text-transform:none;direction:ltr;block-progression:tb;writing-mode:lr-tb;baseline-shift:baseline;text-anchor:start;white-space:normal;clip-rule:nonzero;display:inline;overflow:visible;visibility:visible;opacity:1;isolation:auto;mix-blend-mode:normal;color-interpolation:sRGB;color-interpolation-filters:linearRGB;solid-color:#000000;solid-opacity:1;fill:#000000;fill-opacity:1;fill-rule:nonzero;stroke:none;stroke-width:0.49999997;stroke-linecap:butt;stroke-linejoin:miter;stroke-miterlimit:4;stroke-dasharray:none;stroke-dashoffset:0;stroke-opacity:1;color-rendering:auto;image-rendering:auto;shape-rendering:auto;text-rendering:auto;enable-background:accumulate" d="m 101.77982,284.55725 c 0.004,0.96632 0.45036,2.0941 1.39212,2.05041 0.94176,-0.0437 1.37747,-1.03396 1.36409,-2.0552 -0.0134,-1.02124 -0.49476,-1.92637 -1.40364,-1.94387 -0.90889,-0.0175 -1.3563,0.98234 -1.35257,1.94866 z" inkscape:connector-curvature="0" />
        <path style="color:#000000;font-style:normal;font-variant:normal;font-weight:normal;font-stretch:normal;font-size:medium;line-height:normal;font-family:sans-serif;text-indent:0;text-align:start;text-decoration:none;text-decoration-line:none;text-decoration-style:solid;text-decoration-color:#000000;letter-spacing:normal;word-spacing:normal;text-transform:none;direction:ltr;block-progression:tb;writing-mode:lr-tb;baseline-shift:baseline;text-anchor:start;white-space:normal;clip-rule:nonzero;display:inline;overflow:visible;visibility:visible;opacity:1;isolation:auto;mix-blend-mode:normal;color-interpolation:sRGB;color-interpolation-filters:linearRGB;solid-color:#000000;solid-opacity:1;fill:#000000;fill-opacity:1;fill-rule:nonzero;stroke:none;stroke-width:0.49999997;stroke-linecap:butt;stroke-linejoin:miter;stroke-miterlimit:4;stroke-dasharray:none;stroke-dashoffset:0;stroke-opacity:1;color-rendering:auto;image-rendering:auto;shape-rendering:auto;text-rendering:auto;enable-background:accumulate" d="m 100.03721,289.11908 c -0.42377,-0.36462 -0.23973,-1.10247 0.38785,-2.14089 0.0843,-0.13938 0.41827,-0.11168 0.51275,0.021 0.6035,0.84762 0.67744,2.01011 0.33563,2.12543 -0.234,0.079 -0.36489,-0.0838 -0.58623,-0.37016 -0.23681,0.29673 -0.365,0.60983 -0.65,0.36461 z" inkscape:connector-curvature="0" />
        <path style="color:#000000;font-style:normal;font-variant:normal;font-weight:normal;font-stretch:normal;font-size:medium;line-height:normal;font-family:sans-serif;text-indent:0;text-align:start;text-decoration:none;text-decoration-line:none;text-decoration-style:solid;text-decoration-color:#000000;letter-spacing:normal;word-spacing:normal;text-transform:none;direction:ltr;block-progression:tb;writing-mode:lr-tb;baseline-shift:baseline;text-anchor:start;white-space:normal;clip-rule:nonzero;display:inline;overflow:visible;visibility:visible;opacity:1;isolation:auto;mix-blend-mode:normal;color-interpolation:sRGB;color-interpolation-filters:linearRGB;solid-color:#000000;solid-opacity:1;fill:#000000;fill-opacity:1;fill-rule:nonzero;stroke:none;stroke-width:0.49999997;stroke-linecap:butt;stroke-linejoin:miter;stroke-miterlimit:4;stroke-dasharray:none;stroke-dashoffset:0;stroke-opacity:1;color-rendering:auto;image-rendering:auto;shape-rendering:auto;text-rendering:auto;enable-background:accumulate" d="m 96.79629,284.49096 c 0.004,0.96632 0.38407,2.09409 1.34792,2.0725 0.96385,-0.0216 1.44376,-1.01186 1.43038,-2.0331 -0.0134,-1.02124 -0.45057,-1.90429 -1.33735,-1.94387 -0.88677,-0.0396 -1.44468,0.93815 -1.44095,1.90447 z" inkscape:connector-curvature="0" />
        <path style="color:#000000;font-style:normal;font-variant:normal;font-weight:normal;font-stretch:normal;font-size:medium;line-height:normal;font-family:sans-serif;text-indent:0;text-align:start;text-decoration:none;text-decoration-line:none;text-decoration-style:solid;text-decoration-color:#000000;letter-spacing:normal;word-spacing:normal;text-transform:none;direction:ltr;block-progression:tb;writing-mode:lr-tb;baseline-shift:baseline;text-anchor:start;white-space:normal;clip-rule:nonzero;display:inline;overflow:visible;visibility:visible;opacity:1;isolation:auto;mix-blend-mode:normal;color-interpolation:sRGB;color-interpolation-filters:linearRGB;solid-color:#000000;solid-opacity:1;fill:#000000;fill-opacity:1;fill-rule:nonzero;stroke:none;stroke-width:0.49999997;stroke-linecap:butt;stroke-linejoin:miter;stroke-miterlimit:4;stroke-dasharray:none;stroke-dashoffset:0;stroke-opacity:1;color-rendering:auto;image-rendering:auto;shape-rendering:auto;text-rendering:auto;enable-background:accumulate" d="m 100.65625,276.60942 c -0.85308,-0.0126 -2.0994,0.19349 -2.75586,0.39844 -1.86941,0.58365 -2.83514,1.247 -3.88476,2.72657 -0.44,0.76902 -1.06058,1.73123 -0.99181,3.39023 0.058,1.39821 1.39651,3.32249 1.12006,4.24558 -0.10938,0.36524 -0.0785,0.6196 0.30526,1.01848 1.20238,1.37095 1.90562,2.41351 1.91019,3.23239 -0.008,0.23436 0.045,0.42743 0.24414,0.44141 2.80929,0.37265 5.12783,0.29481 7.9453,0.08 0.21185,-0.008 0.29297,-0.1875 0.29297,-0.39063 0.19662,-1.54374 0.9314,-2.00835 1.9863,-3.07614 0.28784,-0.27357 0.62427,-0.65332 0.29883,-1.33789 -0.23102,-0.48596 0.92245,-2.47356 1.06055,-3.55859 0.14911,-1.17151 -0.15793,-2.26393 -0.5293,-3.10157 -0.88762,-1.84613 -1.94831,-2.7592 -3.86523,-3.52929 -0.93109,-0.37405 -2.26053,-0.52603 -3.13664,-0.53899 z m -0.043,0.46285 c 1.09915,0.0507 2.08553,0.14066 3.01172,0.51567 1.72448,0.69823 2.70048,1.44439 3.55078,3.21288 0.36939,0.76826 0.69557,1.73619 0.54493,2.99415 -0.2428,1.03053 -1.05425,2.50934 -1.02149,3.02539 0,0 -0.0861,-0.15602 -0.21289,-0.41601 -0.18281,-0.37493 -0.21233,-0.57486 -0.27149,-1.11328 -0.0268,-0.24371 -0.29862,-0.32626 -0.29296,-0.22657 0.0416,0.73466 0.10464,1.0742 0.24804,1.5918 0.10978,0.39625 0.43528,0.73247 0.46485,1.14258 0.009,0.12977 -0.0461,0.34222 -0.13868,0.43359 -1.26028,1.19619 -2.08802,2.47382 -2.17578,3.43356 -2.51398,0.3381 -4.97436,0.2315 -7.47461,-0.0937 -0.14518,-1.85044 -1.10626,-2.38298 -2.14453,-3.76949 -0.18886,-0.25326 0.28842,-0.85838 0.40236,-1.26172 0.1228,-0.43469 0.32716,-0.88898 0.22258,-1.5508 -0.0245,-0.15513 -0.22882,0.13848 -0.28125,0.41603 -0.11651,0.61664 -0.28224,0.85172 -0.51435,1.37048 -0.0721,-1.12896 -0.74529,-2.04641 -0.91036,-3.0504 -0.28321,-1.72251 0.14892,-2.51897 0.80286,-3.6236 0.72882,-1.23113 1.99799,-2.15947 3.63348,-2.63984 0.72356,-0.21252 1.87504,-0.42215 2.55679,-0.39072 z" inkscape:connector-curvature="0" />
        <path style="color:#000000;font-style:normal;font-variant:normal;font-weight:normal;font-stretch:normal;font-size:medium;line-height:normal;font-family:sans-serif;text-indent:0;text-align:start;text-decoration:none;text-decoration-line:none;text-decoration-style:solid;text-decoration-color:#000000;letter-spacing:normal;word-spacing:normal;text-transform:none;direction:ltr;block-progression:tb;writing-mode:lr-tb;baseline-shift:baseline;text-anchor:start;white-space:normal;clip-rule:nonzero;display:inline;overflow:visible;visibility:visible;opacity:1;isolation:auto;mix-blend-mode:normal;color-interpolation:sRGB;color-interpolation-filters:linearRGB;solid-color:#000000;solid-opacity:1;fill:#000000;fill-opacity:1;fill-rule:nonzero;stroke:none;stroke-width:0.49999997;stroke-linecap:butt;stroke-linejoin:miter;stroke-miterlimit:4;stroke-dasharray:none;stroke-dashoffset:0;stroke-opacity:1;color-rendering:auto;image-rendering:auto;shape-rendering:auto;text-rendering:auto;enable-background:accumulate" d="m 97.6294,290.74837 c 0.0146,1.13412 -0.0956,1.27773 -0.0956,1.27773 l 0.61964,-0.048 c 0,0 -0.0652,-0.2374 -0.0975,-1.11199 -0.005,-0.1474 -0.42845,-0.26523 -0.42655,-0.11774 z" inkscape:connector-curvature="0" />
        <path style="color:#000000;font-style:normal;font-variant:normal;font-weight:normal;font-stretch:normal;font-size:medium;line-height:normal;font-family:sans-serif;text-indent:0;text-align:start;text-decoration:none;text-decoration-line:none;text-decoration-style:solid;text-decoration-color:#000000;letter-spacing:normal;word-spacing:normal;text-transform:none;direction:ltr;block-progression:tb;writing-mode:lr-tb;baseline-shift:baseline;text-anchor:start;white-space:normal;clip-rule:nonzero;display:inline;overflow:visible;visibility:visible;opacity:1;isolation:auto;mix-blend-mode:normal;color-interpolation:sRGB;color-interpolation-filters:linearRGB;solid-color:#000000;solid-opacity:1;fill:#000000;fill-opacity:1;fill-rule:nonzero;stroke:none;stroke-width:0.49999997;stroke-linecap:butt;stroke-linejoin:miter;stroke-miterlimit:4;stroke-dasharray:none;stroke-dashoffset:0;stroke-opacity:1;color-rendering:auto;image-rendering:auto;shape-rendering:auto;text-rendering:auto;enable-background:accumulate" d="m 99.05443,290.95071 c 0.0466,0.86236 -0.0404,1.24458 -0.0404,1.24458 l 0.53125,-0.0811 c 0,0 -0.054,-0.23486 -0.0422,-1.1341 0.002,-0.1427 -0.40962,-0.22457 -0.4376,-0.0846 z" inkscape:connector-curvature="0" />
        <path style="color:#000000;font-style:normal;font-variant:normal;font-weight:normal;font-stretch:normal;font-size:medium;line-height:normal;font-family:sans-serif;text-indent:0;text-align:start;text-decoration:none;text-decoration-line:none;text-decoration-style:solid;text-decoration-color:#000000;letter-spacing:normal;word-spacing:normal;text-transform:none;direction:ltr;block-progression:tb;writing-mode:lr-tb;baseline-shift:baseline;text-anchor:start;white-space:normal;clip-rule:nonzero;display:inline;overflow:visible;visibility:visible;opacity:1;isolation:auto;mix-blend-mode:normal;color-interpolation:sRGB;color-interpolation-filters:linearRGB;solid-color:#000000;solid-opacity:1;fill:#000000;fill-opacity:1;fill-rule:nonzero;stroke:none;stroke-width:0.49999997;stroke-linecap:butt;stroke-linejoin:miter;stroke-miterlimit:4;stroke-dasharray:none;stroke-dashoffset:0;stroke-opacity:1;color-rendering:auto;image-rendering:auto;shape-rendering:auto;text-rendering:auto;enable-background:accumulate" d="m 100.4009,290.99111 c 0.0202,0.9611 -0.0846,1.25563 -0.0846,1.25563 l 0.60859,-0.11428 c 0,0 -0.11429,-0.11132 -0.0532,-1.12305 0.0103,-0.17158 -0.47427,-0.19016 -0.47066,-0.0183 z" inkscape:connector-curvature="0" />
        <path style="color:#000000;font-style:normal;font-variant:normal;font-weight:normal;font-stretch:normal;font-size:medium;line-height:normal;font-family:sans-serif;text-indent:0;text-align:start;text-decoration:none;text-decoration-line:none;text-decoration-style:solid;text-decoration-color:#000000;letter-spacing:normal;word-spacing:normal;text-transform:none;direction:ltr;block-progression:tb;writing-mode:lr-tb;baseline-shift:baseline;text-anchor:start;white-space:normal;clip-rule:nonzero;display:inline;overflow:visible;visibility:visible;opacity:1;isolation:auto;mix-blend-mode:normal;color-interpolation:sRGB;color-interpolation-filters:linearRGB;solid-color:#000000;solid-opacity:1;fill:#000000;fill-opacity:1;fill-rule:nonzero;stroke:none;stroke-width:0.49999997;stroke-linecap:butt;stroke-linejoin:miter;stroke-miterlimit:4;stroke-dasharray:none;stroke-dashoffset:0;stroke-opacity:1;color-rendering:auto;image-rendering:auto;shape-rendering:auto;text-rendering:auto;enable-background:accumulate" d="m 101.7947,291.02458 c 0.0146,1.13412 -0.0957,1.1562 -0.0957,1.1562 l 0.61964,-0.048 c 0,0 -0.0653,-0.24845 -0.0974,-1.12304 -0.005,-0.1474 -0.42845,-0.13265 -0.42655,0.0148 z" inkscape:connector-curvature="0" />
        <path style="color:#000000;font-style:normal;font-variant:normal;font-weight:normal;font-stretch:normal;font-size:medium;line-height:normal;font-family:sans-serif;text-indent:0;text-align:start;text-decoration:none;text-decoration-line:none;text-decoration-style:solid;text-decoration-color:#000000;letter-spacing:normal;word-spacing:normal;text-transform:none;direction:ltr;block-progression:tb;writing-mode:lr-tb;baseline-shift:baseline;text-anchor:start;white-space:normal;clip-rule:nonzero;display:inline;overflow:visible;visibility:visible;opacity:1;isolation:auto;mix-blend-mode:normal;color-interpolation:sRGB;color-interpolation-filters:linearRGB;solid-color:#000000;solid-opacity:1;fill:#000000;fill-opacity:1;fill-rule:nonzero;stroke:none;stroke-width:0.49999997;stroke-linecap:butt;stroke-linejoin:miter;stroke-miterlimit:4;stroke-dasharray:none;stroke-dashoffset:0;stroke-opacity:1;color-rendering:auto;image-rendering:auto;shape-rendering:auto;text-rendering:auto;enable-background:accumulate" d="m 103.054,291.017 c 0.0466,0.86236 -0.0625,1.112 -0.0625,1.112 l 0.53125,-0.0811 c 0,0 -0.054,-0.16857 -0.0422,-1.06781 0.002,-0.1427 -0.43425,-0.1056 -0.42655,0.0369 z" inkscape:connector-curvature="0" />
      </g>
    </g>
  </g>
</g>
<g inkscape:groupmode="layer" id="edge_guides_layer" inkscape:label="Edges" style="display:none" sodipodi:insensitive="true" >
  <g id="guide0-0" transform="" >
    <rect x="0" y="-22.5" width="246.6" height="22.5" style="fill:#73baff;stroke:#000000;stroke-width:0.9" />
    <path style="display:inline;fill:none;stroke:#000000;stroke-width:2;stroke-linecap:round;stroke-miterlimit:4;stroke-dasharray:0.1, 5;stroke-dashoffset:0;stroke-opacity:1" d="m 123.75,0 0,-22.5" inkscape:connector-curvature="0" />
  </g>
  <g id="guide1-0" transform="matrix(0,1,-1,0,246.6,0)" >
    <rect x="0" y="-22.5" width="246.6" height="22.5" style="fill:#73baff;stroke:#000000;stroke-width:0.9" />
    <path style="display:inline;fill:none;stroke:#000000;stroke-width:2;stroke-linecap:round;stroke-miterlimit:4;stroke-dasharray:0.1, 5;stroke-dashoffset:0;stroke-opacity:1" d="m 123.75,0 0,-22.5" inkscape:connector-curvature="0" />
  </g>
  <g id="guide2-1" transform="matrix(-1,0,0,-1,246.6,246.6)" >
    <rect x="156.475" y="-22.5" width="90.125" height="22.5" style="fill:#ffd291;stroke:#000000;stroke-width:0.9" />
    <rect x="164.1" y="-22.5" width="82.5" height="22.5" style="fill:#b4e982;stroke:#000000;stroke-width:0.9" />
    <rect x="178.975" y="-22.5" width="67.625" height="22.5" style="fill:#5adc4f;stroke:#000000;stroke-width:0.9" />
    <rect x="0" y="-22.5" width="156.475" height="22.5" style="fill:#b9deff;stroke:#000000;stroke-width:0.9" />
    <rect x="0" y="-22.5" width="114.5" height="22.5" style="fill:#9bceff;stroke:#000000;stroke-width:0.9" />
    <rect x="0" y="-22.5" width="66.25" height="22.5" style="fill:#73baff;stroke:#000000;stroke-width:0.9" />
    <path style="display:inline;fill:none;stroke:#000000;stroke-width:2;stroke-linecap:round;stroke-miterlimit:4;stroke-dasharray:0.1, 5;stroke-dashoffset:0;stroke-opacity:1" d="m 86.25,0 0,-22.5" inkscape:connector-curvature="0" />
  </g>
  <g id="guide3-4" transform="matrix(0,-1,1,0,0,246.6)" >
    <rect x="0" y="-22.5" width="90.125" height="22.5" style="fill:#ffd291;stroke:#000000;stroke-width:0.9" />
    <rect x="0" y="-22.5" width="82.5" height="22.5" style="fill:#b4e982;stroke:#000000;stroke-width:0.9" />
    <rect x="0" y="-22.5" width="67.625" height="22.5" style="fill:#5adc4f;stroke:#000000;stroke-width:0.9" />
    <rect x="90.125" y="-22.5" width="156.475" height="22.5" style="fill:#b9deff;stroke:#000000;stroke-width:0.9" />
    <rect x="132.1" y="-22.5" width="114.5" height="22.5" style="fill:#9bceff;stroke:#000000;stroke-width:0.9" />
    <rect x="180.35" y="-22.5" width="66.25" height="22.5" style="fill:#73baff;stroke:#000000;stroke-width:0.9" />
    <path style="display:inline;fill:none;stroke:#000000;stroke-width:2;stroke-linecap:round;stroke-miterlimit:4;stroke-dasharray:0.1, 5;stroke-dashoffset:0;stroke-opacity:1" d="m 161.25,0 0,-22.5" inkscape:connector-curvature="0" />
  </g>
</g>
<g inkscape:groupmode="layer" id="id_layer" inkscape:label="Card ID" style="display:inline" sodipodi:insensitive="true" >
  <text xml:space="preserve" x="19.7" y="27.3" style="font-style:normal;font-variant:normal;font-weight:normal;font-stretch:normal;font-size:9px;line-height:125%;font-family:CCTreasureTrove;-inkscape-font-specification:'CCTreasureTrove, Normal';text-align:start;letter-spacing:0px;word-spacing:0px;writing-mode:lr-tb;text-anchor:start;display:inline;fill:#606060;fill-opacity:1;stroke:none;stroke-width:1px;stroke-linecap:butt;stroke-linejoin:miter;stroke-opacity:1" 
>0014b</text></g>
<g inkscape:groupmode="layer" id="cut_layer" inkscape:label="Cut Line" style="display:none" sodipodi:insensitive="true" >
  <rect id="cut-line" x="11.25" y="11.25" width="224.5" height="224.5" style="fill:none;stroke:#000000;stroke-width:0.5;stroke-linecap:butt;stroke-linejoin:bevel;stroke-miterlimit:4;stroke-dasharray:none;stroke-opacity:1" ry="11.338962" />
</g>
<g inkscape:groupmode="layer" id="page_border_layer" inkscape:label="Page Border" style="display:none" sodipodi:insensitive="true" >
  <rect x="0" y="0" width="246.6" height="246.6" style="fill:none;stroke:#000000;stroke-width:0.5;stroke-linecap:butt;stroke-linejoin:bevel;stroke-miterlimit:4;stroke-dasharray:none;stroke-opacity:1" />
</g>

</svg>
