<?xml version="1.0" encoding="UTF-8" standalone="no"?>
<svg version="1.1" height="246.6" width="246.6" inkscape:version="0.91 r13725" xmlns:rdf="http://www.w3.org/1999/02/22-rdf-syntax-ns#" xmlns="http://www.w3.org/2000/svg" xmlns:cc="http://creativecommons.org/ns#" xmlns:xlink="http://www.w3.org/1999/xlink" xmlns:dc="http://purl.org/dc/elements/1.1/" xmlns:sodipodi="http://sodipodi.sourceforge.net/DTD/sodipodi-0.dtd" xmlns:svg="http://www.w3.org/2000/svg" xmlns:inkscape="http://www.inkscape.org/namespaces/inkscape">
<metadata>
  <rdf:RDF>
    <cc:Work rdf:about="">
      <dc:format>image/svg+xml</dc:format>
      <dc:type rdf:resource="http://purl.org/dc/dcmitype/StillImage"/>
      <dc:title/>
      <dc:creator>
        <cc:Agent><dc:title>Gary Kacmarcik</dc:title></cc:Agent>
      </dc:creator>
    </cc:Work>
  </rdf:RDF>
</metadata>

<defs>
  <filter inkscape:collect="always" inkscape:label="blurWaterDeep" style="color-interpolation-filters:sRGB" id="blurWaterDeep" x="-0.056691" y="-0.041620" width="1.113381" height="1.083239">
    <feGaussianBlur inkscape:collect="always" stdDeviation="6.919136" />
  </filter>
  <filter inkscape:collect="always" inkscape:label="blurWaterShallow" style="color-interpolation-filters:sRGB" id="blurWaterShallow" x="-0.055818" y="-0.042103" width="1.111637" height="1.084205">
    <feGaussianBlur inkscape:collect="always" stdDeviation="6.561501" />
  </filter>
  <filter inkscape:collect="always" inkscape:label="blurWaterHilight" style="color-interpolation-filters:sRGB" id="blurWaterHilight" x="-0.250000" y="-0.250000" width="1.500000" height="1.500000">
    <feGaussianBlur inkscape:collect="always" stdDeviation="6.857532" />
  </filter>
  <filter inkscape:collect="always" inkscape:label="blurGrass" style="color-interpolation-filters:sRGB" id="blurGrass" x="-0.100000" y="-0.100000" width="1.200000" height="1.200000">
    <feGaussianBlur inkscape:collect="always" stdDeviation="0.800000" />
  </filter>
  <filter inkscape:collect="always" inkscape:label="blurForestShadow" style="color-interpolation-filters:sRGB" id="blurForestShadow" x="-0.100000" y="-0.100000" width="1.200000" height="1.200000">
    <feGaussianBlur inkscape:collect="always" stdDeviation="0.800000" />
  </filter>
  <filter inkscape:collect="always" inkscape:label="blurFlowerInner" style="color-interpolation-filters:sRGB" id="blurFlowerInner" x="-0.420000" y="-0.420000" width="1.840000" height="1.840000">
    <feGaussianBlur inkscape:collect="always" stdDeviation="1.605540" />
  </filter>
  <filter inkscape:collect="always" inkscape:label="blurFlowerMiddle" style="color-interpolation-filters:sRGB" id="blurFlowerMiddle" x="-0.240000" y="-0.240000" width="1.480000" height="1.480000">
    <feGaussianBlur inkscape:collect="always" stdDeviation="1.933705" />
  </filter>
  <linearGradient id="gradientStopsFish" inkscape:collect="always">
    <stop offset="0.000000" style="stop-color:#ff5555;stop-opacity:1.000000" />
    <stop offset="1.000000" style="stop-color:#ffffff;stop-opacity:1.000000" />
  </linearGradient>
  <linearGradient id="gradientStopsCoconut" inkscape:collect="always">
    <stop offset="0.000000" style="stop-color:#ffffff;stop-opacity:1.000000" />
    <stop offset="1.000000" style="stop-color:#c8c8c8;stop-opacity:0.000000" />
  </linearGradient>
  <linearGradient id="gradientStopsFlower" inkscape:collect="always">
    <stop offset="0.000000" style="stop-color:#b16dff;stop-opacity:1.000000" />
    <stop offset="1.000000" style="stop-color:#e7d2ff;stop-opacity:1.000000" />
  </linearGradient>
  <linearGradient id="gradientFish" xlink:href="#gradientStopsFish" x1="178.789090" y1="-114.782830" x2="180.407300" y2="-103.782830" gradientTransform="translate(-178.76256,1.0606602)" gradientUnits="userSpaceOnUse" inkscape:collect="always" />
  <radialGradient id="gradientCoconut" xlink:href="#gradientStopsCoconut" cx="1.944096" cy="-60.612652" fx="1.944096" fy="-60.612652" r="6.723294" gradientUnits="userSpaceOnUse" gradientTransform="matrix(1.691364,-0.31394812,0.29762395,1.603419,17.826033,-7.042221)" inkscape:collect="always" />
  <radialGradient id="gradientFlower" xlink:href="#gradientStopsFlower" cx="60.884877" cy="-69.652750" fx="60.884877" fy="-69.652750" r="15.835310" gradientUnits="userSpaceOnUse" gradientTransform="matrix(0.8413905,0,0,0.87120012,-50.722984,-48.679159)" inkscape:collect="always" />
</defs>

<sodipodi:namedview
    id="base"
    pagecolor="#ffffff"
    bordercolor="#666666"
    borderopacity="1.0"
    inkscape:pageopacity="0.0"
    inkscape:pageshadow="2"
    inkscape:zoom="2"
    inkscape:cx="115.37643"
    inkscape:cy="285.04449"
    inkscape:document-units="in"
    showgrid="true"
    units="in"
    inkscape:window-width="1392"
    inkscape:window-height="836"
    inkscape:window-x="39"
    inkscape:window-y="6"
    inkscape:window-maximized="0"
    inkscape:snap-grids="true"
    inkscape:snap-to-guides="true"
    inkscape:snap-nodes="true"
    inkscape:object-nodes="true"
    inkscape:snap-smooth-nodes="true"
    inkscape:snap-intersection-paths="true"
    inkscape:object-paths="true"
    inkscape:snap-bbox="true"
    inkscape:bbox-nodes="true"
    inkscape:snap-others="true"
    inkscape:bbox-paths="false"
    inkscape:snap-global="true" >
  <inkscape:grid
    type="xygrid"
    id="grid3051"
    empspacing="2"
    visible="true"
    enabled="true"
    snapvisiblegridlinesonly="true"
    spacingx="0.0625in"
    spacingy="0.0625in"
    dotted="false"
    units="in" />
</sodipodi:namedview>
<g inkscape:groupmode="layer" id="water_layer" inkscape:label="Water" style="display:inline" sodipodi:insensitive="true" >
  <rect id="water" x="0" y="0" width="246.6" height="246.6" style="fill:#b9deff;fill-opacity:1;stroke:none" />
</g>
<g inkscape:groupmode="layer" id="water_medium_layer" inkscape:label="Water Shallow" style="display:inline" sodipodi:insensitive="true" >
  <path style="fill:#9bd1ff;fill-opacity:0.70;fill-rule:evenodd;stroke:none;filter:url(#blurWaterShallow)" d="M 11.050781,-8.9492188 -8.9492188,11.050781 -8.95,57.92496 l 20.000001,0 28.85039,10.383634 22.224609,3.535156 27.464844,-0.457031 25.568356,1.972656 1.51368,-14.648437 -2.87193,-47.660957 0,-20.000001 z M 255.55,132.8 l -20,0 -63.82344,1.16875 -28.28515,0.50391 -4.04102,43.9414 -5.05078,40.91211 -1.54961,16.22385 0,20 102.75078,7.6e-4 20,-20 z" inkscape:connector-curvature="0" />
</g>
<g inkscape:groupmode="layer" id="water_deep_layer" inkscape:label="Water Deep" style="display:inline" sodipodi:insensitive="true" >
  <path style="fill:#87c8ff;fill-opacity:0.60;fill-rule:evenodd;stroke:none;filter:url(#blurWaterDeep)" d="m 65.54995,-8.95002 -54.499169,8.01e-4 -19.9999998,20 L -8.95,35.79996 l 20.000001,0 24.951952,2.010587 24.101563,-8.898438 5.446434,-17.862128 z m 141.48911,186.43049 -20.45117,14.61328 -4.25586,31.27344 -1.28125,12.18359 0,20 54.5,0 20,-20 -7.8e-4,-54.50078 -20,0 z" inkscape:connector-curvature="0" />
</g>
<g inkscape:groupmode="layer" id="water_hilight_layer" inkscape:label="Water Hilight" style="display:inline" sodipodi:insensitive="true" >
  <use xlink:href="#shoreline" height="100%" width="100%" x="0" y="0" style="display:inline;fill:#ffffff;fill-opacity:1;stroke:#ffffff;stroke-opacity:1;filter:url(#blurWaterHilight)" />
</g>
<g inkscape:groupmode="layer" id="shoreline_layer" inkscape:label="Shoreline" style="display:inline" sodipodi:insensitive="true" >
  <use xlink:href="#shoreline" height="100%" width="100%" x="0" y="0" style="display:inline;fill:#ffddab;fill-opacity:1;stroke:#5f4c14;stroke-width:1;stroke-miterlimit:4;stroke-dasharray:none;stroke-opacity:1" />
</g>
<g inkscape:groupmode="layer" id="shoreline_master_layer" inkscape:label="Shoreline Master" style="display:none" sodipodi:insensitive="true" >
  <path id="shoreline" style="color:#000000;clip-rule:nonzero;display:inline;overflow:visible;visibility:visible;opacity:1;isolation:auto;mix-blend-mode:normal;color-interpolation:sRGB;color-interpolation-filters:linearRGB;solid-color:#000000;solid-opacity:1;fill-opacity:1;fill-rule:evenodd;color-rendering:auto;image-rendering:auto;shape-rendering:auto;text-rendering:auto;enable-background:accumulate" d="m 155.17495,-8.95002 0,20.000001 -0.94057,21.020331 5.03069,18.558036 17.27706,12.051897 15.65374,21.084821 17.82143,9.937223 25.5327,-2.277289 20,0 0,-80.375 -19.99999,-20.00002 z m -84.755948,87.165586 -14.73405,-9.25267 -23.611291,10.597216 -21.02366,0.864848 -20.000001,0 7.812e-4,155.12582 19.9999998,20 80.375,0 0,-20 -1.130859,-19.76953 -1.100167,-12.12946 5.772016,-16.49678 L 109.1855,172.22751 89.082046,148.28504 75.13607,110.11969 Z" inkscape:connector-curvature="0" />
</g>
<g inkscape:groupmode="layer" id="grass_layer" inkscape:label="Grass" style="display:inline" sodipodi:insensitive="true" >
  <use xlink:href="#grass" height="100%" width="100%" x="0" y="0" style="display:inline;fill:#b4e982;fill-opacity:1;stroke:none;stroke-width:1;stroke-miterlimit:4;stroke-dasharray:none;stroke-opacity:1" />
</g>
<g inkscape:groupmode="layer" id="grass_master_layer" inkscape:label="Grass Master" style="display:none" sodipodi:insensitive="true" >
  <path id="grass" style="color:#000000;clip-rule:nonzero;display:inline;overflow:visible;visibility:visible;opacity:1;isolation:auto;mix-blend-mode:normal;color-interpolation:sRGB;color-interpolation-filters:linearRGB;solid-color:#000000;solid-opacity:1;fill-opacity:1;fill-rule:evenodd;filter:url(#blurGrass);color-rendering:auto;image-rendering:auto;shape-rendering:auto;text-rendering:auto;enable-background:accumulate" d="m 164.79995,-8.95002 0,20.000001 0.53599,14.7508 1.78627,16.070313 9.9986,8.392857 10.17942,18.92913 13.57031,11.786271 11.60853,2.856586 6.96429,3.75 L 235.55,81.8 l 20,0 0,-70.75 -20.00005,-20.00002 z M 76.646834,133.10087 53.055839,122.70403 34.33122,110.82205 11.050001,99.29996 l -20.000001,0 7.812e-4,136.25082 19.9999998,20 70.749224,-7.6e-4 0,-20 -1.442583,-13.95041 4.285156,-16.07031 -0.714844,-16.25 -4.794931,-34.35191 z" inkscape:connector-curvature="0" />
</g>
<g inkscape:groupmode="layer" id="forest_shadow_layer" inkscape:label="Forest Shadow" style="display:inline" sodipodi:insensitive="true" >
  <g style="filter:url(#blurForestShadow)" >
    <use xlink:href="#forest" height="100%" width="100%" x="0" y="0" style="display:inline;opacity:0.75;fill:#258c1b;fill-opacity:1" />
  </g>
</g>
<g inkscape:groupmode="layer" id="forest_fill_layer" inkscape:label="Forest Fill" style="display:inline" sodipodi:insensitive="true" >
  <use xlink:href="#forest" height="100%" width="100%" x="0" y="0" style="fill:#7ebd47;fill-opacity:1;fill-rule:nonzero;stroke:#496e28;stroke-width:0.5;stroke-linecap:round;stroke-linejoin:round;stroke-miterlimit:4;stroke-dasharray:none;stroke-dashoffset:0;stroke-opacity:1" />
</g>
<g inkscape:groupmode="layer" id="forest_master_layer" inkscape:label="Forest Master" style="display:none" sodipodi:insensitive="true" >
  <path id="forest" style="color:#000000;clip-rule:nonzero;display:inline;overflow:visible;visibility:visible;opacity:1;isolation:auto;mix-blend-mode:normal;color-interpolation:sRGB;color-interpolation-filters:linearRGB;solid-color:#000000;solid-opacity:1;fill-opacity:1;fill-rule:nonzero;color-rendering:auto;image-rendering:auto;shape-rendering:auto;text-rendering:auto;enable-background:accumulate" d="m 179.67495,-8.95002 0,20.000001 1.65708,11.463691 -0.89258,10 7.5,1.072544 2.14258,14.107143 -3.57059,5.891742 7.67857,8.751673 12.49944,1.428293 12.14258,6.248605 L 235.55,66.925 l 20,0 0,-55.875 -19.99999,-20.00002 z M -8.95,235.54996 l 19.999945,20.00006 55.87506,0 0,-20 3.273412,-14.98594 -2.13788,-22.12183 -10.505076,0.61795 -7.463826,-3.62744 -9.912226,-4.13337 -7.214367,6.96011 -2.607062,14.53527 -7.76231,-7.11442 -11.545669,-1.88039 -20.000001,0 z m 20.000001,-42 14.872895,-5.80778 1.25994,-15.52274 -7.857142,-1.78572 -8.275693,-4.63376 -20.000001,0 0,27.75 z m 0,-38 12.893212,-11.19979 4.209518,-14.21758 -17.10195,-12.07612 -19.9999998,0 L -8.95,155.54996 Z" inkscape:connector-curvature="0" />
</g>
<g inkscape:groupmode="layer" id="routes_layer" inkscape:label="Routes" style="display:inline" sodipodi:insensitive="true" >
  <path style="display:inline;fill:none;stroke:#000000;stroke-width:2;stroke-linecap:round;stroke-miterlimit:4;stroke-dasharray:0.1, 5;stroke-dashoffset:0;stroke-opacity:1" d="m 255.55,160.71667 -20,0 c -41.92133,-0.50508 -43.40275,15.38815 -83.1355,3.57428 m -95.964489,2.0203 c -6.943737,-14.84788 -26.20711,-4.07939 -45.40001,-5.59463 l -20,0 m 169.666689,94.83346 0,-20 C 160.21161,193.62875 147.86156,156.70265 138.32053,116.71736 128.77951,76.732071 88.91374,51.456083 85.88328,11.049981 l 0,-20.000001" inkscape:connector-curvature="0" />
</g>
<g inkscape:groupmode="layer" id="labels_layer" inkscape:label="Labels" style="display:inline" sodipodi:insensitive="true" >
  <text xml:space="preserve" style="font-style:normal;font-variant:normal;font-weight:normal;font-stretch:normal;font-size:10px;line-height:125%;font-family:CCTreasureTrove;-inkscape-font-specification:'CCTreasureTrove, Normal';text-align:start;letter-spacing:0px;word-spacing:0px;writing-mode:lr-tb;text-anchor:start;display:inline;fill:#5d481b;fill-opacity:1;stroke:none;stroke-width:1px;stroke-linecap:butt;stroke-linejoin:miter;stroke-opacity:1"><textPath xlink:href="#label-path"
>Sir Pass</textPath></text>
</g>
<g inkscape:groupmode="layer" id="labels_guide_layer" inkscape:label="Labels Guide" style="display:none" sodipodi:insensitive="true" >
  <path id="label-path" style="color:#000000;fill:none;stroke:#000000;stroke-width:1;stroke-opacity:1" d="M 131.47248,131.47631 C 121.47249,97.190601 105.30413,74.243862 79.686781,51.119175" inkscape:connector-curvature="0" />
</g>
<g inkscape:groupmode="layer" id="resources_layer" inkscape:label="Resources" style="display:inline" sodipodi:insensitive="true" >
  <g id="resource-flower" transform="matrix(-0.26185024,-0.96510852,0.96510852,-0.26185024,160.9003,144.68039)" >
    <path style="color:#000000;clip-rule:nonzero;display:inline;overflow:visible;visibility:visible;opacity:1;isolation:auto;mix-blend-mode:normal;color-interpolation:sRGB;color-interpolation-filters:linearRGB;solid-color:#000000;solid-opacity:1;fill:#ffffff;fill-opacity:1;fill-rule:evenodd;stroke:none;stroke-width:0.89999998;stroke-linecap:round;stroke-linejoin:miter;stroke-miterlimit:4;stroke-dasharray:none;stroke-dashoffset:0;stroke-opacity:1;color-rendering:auto;image-rendering:auto;shape-rendering:auto;text-rendering:auto;enable-background:accumulate" d="m 0.979805,-123.15615 c -1.34145,-0.0198 -3.490295,1.29985 -4.377698,2.97606 -1.515072,-0.52803 -3.118559,-1.35518 -4.387882,-0.66716 -1.336347,0.80617 -3.05964,1.39841 -3.940732,2.52252 -1.019998,1.30134 -0.730979,3.22834 -1.040234,4.88073 -0.323141,1.72658 0.916341,3.62646 2.178426,4.57303 -0.480389,0.70795 -0.991103,1.55651 -1.064241,1.95596 -0.229528,2.03687 -0.85872,3.65897 -0.172551,5.07299 0.650332,1.34017 2.541535,1.62667 4.009752,2.563613 1.703034,0.722622 3.282592,0.820732 5.14182,0.411702 0.446214,0.818061 0.820032,1.55183 1.868672,1.900477 1.652946,0.549562 2.259608,1.57126 3.487169,1.377119 0.904439,-0.143038 1.706298,-0.852325 2.89228,-1.267016 0.956141,-0.334325 1.792353,-1.310625 2.17414,-2.142916 0.601179,-1.310569 0.607842,-2.718729 0.332147,-4.333519 1.085534,0.10069 1.96385,-0.10288 2.218318,-0.26619 1.401585,-1.12214 2.183535,-1.13125 2.967873,-2.1232 0.706103,-0.89301 0.33785,-2.30208 0.524226,-3.63507 0.190729,-1.36412 -0.373016,-3.11292 -1.13861,-3.85099 -0.916057,-1.14581 -2.133316,-1.66052 -3.360406,-2.25547 0.223107,-1.52457 0.238457,-2.83813 -0.583837,-3.68128 -1.009456,-1.03504 -1.391167,-2.66625 -2.553752,-3.32447 -1.410255,-0.79846 -2.9835,-0.29231 -4.911945,-0.66063 -0.08552,-0.0163 -0.173505,-0.025 -0.262935,-0.0263 z" inkscape:connector-curvature="0" />
    <path style="color:#000000;clip-rule:nonzero;display:inline;overflow:visible;visibility:visible;opacity:1;isolation:auto;mix-blend-mode:normal;color-interpolation:sRGB;color-interpolation-filters:linearRGB;solid-color:#000000;solid-opacity:1;fill:url(#gradientFlower);fill-opacity:1;fill-rule:evenodd;stroke:none;stroke-width:0.89999998;stroke-linecap:round;stroke-linejoin:miter;stroke-miterlimit:4;stroke-dasharray:none;stroke-dashoffset:0;stroke-opacity:1;color-rendering:auto;image-rendering:auto;shape-rendering:auto;text-rendering:auto;enable-background:accumulate" d="m 0.979805,-123.15615 c -1.34145,-0.0198 -3.490295,1.29985 -4.377698,2.97606 -1.515072,-0.52803 -3.118559,-1.35518 -4.387882,-0.66716 -1.336347,0.80617 -3.05964,1.39841 -3.940732,2.52252 -1.019998,1.30134 -0.730979,3.22834 -1.040234,4.88073 -0.323141,1.72658 0.916341,3.62646 2.178426,4.57303 -0.480389,0.70795 -0.991103,1.55651 -1.064241,1.95596 -0.229528,2.03687 -0.85872,3.65897 -0.172551,5.07299 0.650332,1.34017 2.541535,1.62667 4.009752,2.563613 1.703034,0.722622 3.282592,0.820732 5.14182,0.411702 0.446214,0.818061 0.820032,1.55183 1.868672,1.900477 1.652946,0.549562 2.259608,1.57126 3.487169,1.377119 0.904439,-0.143038 1.706298,-0.852325 2.89228,-1.267016 0.956141,-0.334325 1.792353,-1.310625 2.17414,-2.142916 0.601179,-1.310569 0.607842,-2.718729 0.332147,-4.333519 1.085534,0.10069 1.96385,-0.10288 2.218318,-0.26619 1.401585,-1.12214 2.183535,-1.13125 2.967873,-2.1232 0.706103,-0.89301 0.33785,-2.30208 0.524226,-3.63507 0.190729,-1.36412 -0.373016,-3.11292 -1.13861,-3.85099 -0.916057,-1.14581 -2.133316,-1.66052 -3.360406,-2.25547 0.223107,-1.52457 0.238457,-2.83813 -0.583837,-3.68128 -1.009456,-1.03504 -1.391167,-2.66625 -2.553752,-3.32447 -1.410255,-0.79846 -2.9835,-0.29231 -4.911945,-0.66063 -0.08552,-0.0163 -0.173505,-0.025 -0.262935,-0.0263 z" inkscape:connector-curvature="0" />
    <circle cx="60.884876" cy="-69.652748" r="9.668525" style="color:#000000;clip-rule:nonzero;display:inline;overflow:visible;visibility:visible;opacity:1;isolation:auto;mix-blend-mode:normal;color-interpolation:sRGB;color-interpolation-filters:linearRGB;solid-color:#000000;solid-opacity:1;fill:#c18bff;fill-opacity:1;fill-rule:nonzero;stroke:none;stroke-width:0.89999998;stroke-linecap:butt;stroke-linejoin:round;stroke-miterlimit:4;stroke-dasharray:none;stroke-dashoffset:0;stroke-opacity:1;filter:url(#blurFlowerMiddle);color-rendering:auto;image-rendering:auto;shape-rendering:auto;text-rendering:auto;enable-background:accumulate" transform="matrix(0.8413905,0,0,0.8413905,-50.722984,-50.755482)" />
    <circle cx="60.884876" cy="-69.652748" r="4.587256" style="color:#000000;clip-rule:nonzero;display:inline;overflow:visible;visibility:visible;opacity:1;isolation:auto;mix-blend-mode:normal;color-interpolation:sRGB;color-interpolation-filters:linearRGB;solid-color:#000000;solid-opacity:1;fill:#4d0b97;fill-opacity:0.73248411;fill-rule:nonzero;stroke:none;stroke-width:0.89999998;stroke-linecap:butt;stroke-linejoin:round;stroke-miterlimit:4;stroke-dasharray:none;stroke-dashoffset:0;stroke-opacity:1;filter:url(#blurFlowerInner);color-rendering:auto;image-rendering:auto;shape-rendering:auto;text-rendering:auto;enable-background:accumulate" transform="matrix(0.8413905,0,0,0.8413905,-50.722984,-50.755482)" />
    <path style="color:#000000;clip-rule:nonzero;display:inline;overflow:visible;visibility:visible;opacity:1;isolation:auto;mix-blend-mode:normal;color-interpolation:sRGB;color-interpolation-filters:linearRGB;solid-color:#000000;solid-opacity:1;fill:#000000;fill-opacity:1;fill-rule:evenodd;stroke:none;stroke-width:0.89999998;stroke-linecap:round;stroke-linejoin:miter;stroke-miterlimit:4;stroke-dasharray:none;stroke-dashoffset:0;stroke-opacity:1;color-rendering:auto;image-rendering:auto;shape-rendering:auto;text-rendering:auto;enable-background:accumulate" d="m 0.639633,-123.613 c -0.245268,-0.007 -0.493489,0.0184 -0.741147,0.0723 -0.495315,0.10775 -0.988873,0.32636 -1.452713,0.61626 -0.897328,0.56081 -1.698239,1.40222 -2.2333,2.34669 -0.538041,-0.29613 -1.168361,-0.58916 -1.843828,-0.75923 -0.402544,-0.10135 -0.817029,-0.16411 -1.217716,-0.14954 -0.400686,0.0146 -0.786664,0.10703 -1.132262,0.31552 -1.283405,0.77424 -3.212955,1.5351 -4.096848,2.84955 -1.036325,1.54115 -0.856398,3.22859 -1.064886,4.82978 -0.121933,0.93647 0.116053,1.93977 0.548877,2.83148 0.383935,0.79099 0.927795,1.48307 1.55953,1.96215 -0.523828,0.48763 -0.918389,1.06735 -0.994221,1.7403 -0.111704,0.99127 -0.114545,1.61006 -0.218564,2.47815 -0.10402,0.86809 -0.307253,2.00443 0.08052,2.80354 0.383523,0.79035 1.112241,1.24077 1.875051,1.60883 0.762811,0.368068 1.743867,0.669437 2.430502,1.107614 1.218636,0.777675 2.913786,1.040634 4.971105,0.514366 0.380578,0.842488 0.837563,1.454964 1.755089,1.760018 0.77292,0.256976 1.299533,0.623573 1.830681,0.935061 0.531149,0.311488 1.321397,0.65032 2.04596,0.535729 1.061295,-0.167845 1.585995,-0.765822 2.695079,-1.153626 0.61183,-0.213931 1.413184,-0.872559 1.889842,-1.446139 0.476655,-0.57358 0.870431,-1.194818 1.082961,-1.658131 0.556087,-1.212262 0.51771,-2.127442 0.179125,-3.446082 0.715918,0.0871 1.419103,0.0384 1.947359,-0.38454 0.67438,-0.53993 1.161498,-1.0671 1.640053,-1.33933 0.478556,-0.27223 0.932552,-0.56407 1.362327,-1.10761 0.433047,-0.54768 0.51727,-1.24584 0.537371,-1.90299 0.02011,-0.65714 -0.02179,-1.32636 0.06411,-1.94078 0.107665,-0.77002 -0.0067,-1.365 -0.266216,-2.1725 -0.259325,-0.8075 -0.625806,-1.53158 -1.09118,-1.98023 -0.663846,-0.63998 -1.599943,-1.39472 -3.03032,-1.93914 0.11665,-0.50066 0.147215,-1.05012 0.09038,-1.59404 -0.08427,-0.80653 -0.342696,-1.59653 -0.862754,-2.12977 -0.452036,-0.4635 -0.790788,-1.10063 -1.165128,-1.73208 -0.374341,-0.63145 -0.949406,-1.37528 -1.631838,-1.76166 -0.804443,-0.45546 -1.651134,-0.45909 -2.476515,-0.44699 -0.82538,0.0121 -1.487089,0.14634 -2.343404,-0.13804 -0.235484,-0.0782 -0.477801,-0.11783 -0.723065,-0.1249 z m -0.02629,0.75923 c 0.180353,0.004 0.347555,0.0466 0.511079,0.0838 1.006924,0.22923 1.7795,0.18938 2.591548,0.17748 0.812049,-0.0119 1.487806,0.005 2.093616,0.34839 0.480153,0.27185 0.994251,0.88183 1.354113,1.48886 0.359862,0.60703 0.716169,1.30186 1.27359,1.87341 0.334308,0.34279 0.580376,0.99176 0.652406,1.68114 0.07203,0.68938 -0.02687,1.41322 -0.248144,1.87012 -0.450738,0.93069 -1.413978,1.86673 -2.379558,2.48966 -1.071525,0.69128 -2.210789,1.32545 -2.704939,1.55789 -0.727729,0.34231 -0.911947,0.74706 -0.437129,0.57517 0.432747,-0.15667 2.273938,-0.86367 3.500316,-1.65485 0.988448,-0.63768 2.112424,-1.45155 2.685219,-2.60633 1.29991,0.49828 2.125357,1.16513 2.750952,1.76823 0.300222,0.28943 0.662715,0.9411 0.895622,1.66635 0.232906,0.72524 0.31971,1.24151 0.236641,1.83561 -0.100468,0.71856 -0.05054,1.4191 -0.06902,2.02295 -0.01848,0.60386 -0.10327,1.11067 -0.376324,1.456 -0.354559,0.44841 -0.683098,0.65751 -1.142122,0.91863 -0.459024,0.26112 -1.011451,0.82613 -1.738654,1.40834 -0.339654,0.27194 -1.05202,0.3145 -1.842185,0.15612 -0.790168,-0.15837 -1.680674,-0.36802 -2.228371,-0.63433 -0.501305,-0.24375 -1.107321,-0.71188 -1.718935,-1.22593 -0.606651,-0.50988 -0.946266,-0.80483 -1.105968,-1.0008 -0.449169,-0.55116 -0.736865,-0.57408 -0.419052,-0.0362 0.128591,0.21765 0.29565,0.55252 0.874258,1.15363 0.578608,0.60111 1.39831,1.334 2.091973,1.67128 0.52965,0.25753 1.278195,0.55106 2.055819,0.7395 0.418548,1.4671 0.497282,2.0902 -0.0493,3.28175 -0.169259,0.368978 -0.542533,0.967084 -0.976146,1.488867 -0.433612,0.521783 -1.213575,1.09568 -1.557886,1.216072 -1.262881,0.441579 -1.81603,1.002528 -2.563612,1.120758 -0.502998,0.07955 -1.051079,-0.15352 -1.543097,-0.442058 -0.492018,-0.288541 -1.09527,-0.708208 -1.975296,-1.000794 -0.906713,-0.30146 -1.303684,-1.017149 -1.521734,-1.990087 -0.240751,-1.074238 -0.284382,-2.018958 -0.03944,-3.252168 0.09422,-0.47435 0.345844,-1.11328 0.616253,-1.75509 0.254524,-0.60411 0.521586,-1.0267 0.657337,-1.20621 0.534373,-0.70663 0.573544,-1.02158 -0.08052,-0.47 -0.09001,0.0759 -0.437166,0.46228 -0.800308,1.04845 -0.388969,0.62787 -0.745556,1.33952 -0.913697,1.96215 -0.320374,1.18635 -0.455037,2.59874 -0.177481,3.837203 0.0049,0.02169 0.01287,0.04249 0.01807,0.06409 -1.86503,0.462081 -3.499403,0.191906 -4.474817,-0.430556 -0.781583,-0.498767 -1.637015,-0.807967 -2.349978,-1.151977 -0.712961,-0.34402 -1.256569,-0.70734 -1.523376,-1.25716 -0.298393,-0.61491 -0.108087,-1.57682 -0.0115,-2.38285 0.09658,-0.80602 0.102383,-1.43749 0.220207,-2.48308 0.06347,-0.56325 0.566474,-1.18992 1.271946,-1.691 0.705472,-0.50107 1.601251,-0.92224 2.259594,-1.04681 0.666145,-0.12605 1.427995,-0.20972 2.239874,-0.1709 0.817343,0.0391 1.389205,0.17406 1.855332,0.30895 0.501887,0.14523 0.706651,0.0181 0.14297,-0.28759 -0.221782,-0.12027 -0.830365,-0.31483 -1.664704,-0.4815 -0.749787,-0.14977 -1.792536,-0.20692 -2.634275,-0.0477 -0.79482,0.1504 -1.828356,0.53709 -2.627702,1.10268 -0.560501,-0.3756 -1.107978,-1.03998 -1.479008,-1.80438 -0.38132,-0.78561 -0.575888,-1.66668 -0.479855,-2.40421 0.225627,-1.73283 0.09276,-3.26127 0.910411,-4.45839 0.799409,-1.17041 2.502142,-1.83231 3.891431,-2.67042 0.418566,-0.25251 1.071917,-0.25586 1.774808,-0.0789 0.70289,0.17697 1.431889,0.52017 1.958862,0.8381 1.177378,0.71033 2.360406,1.81514 2.923503,3.13714 0.225658,0.52978 0.487956,1.31163 0.65898,2.04267 0.180567,0.77183 0.278756,1.12761 0.323738,1.41985 0.0769,0.49959 0.331408,0.76305 0.310592,0.258 -0.0056,-0.13448 -0.02619,-0.62272 -0.11832,-1.39848 -0.09213,-0.77577 -0.372004,-1.76712 -0.649121,-2.54061 -0.498667,-1.39187 -1.517796,-2.50983 -2.729588,-3.34584 0.467794,-0.83001 1.199084,-1.60007 1.983511,-2.09033 0.605002,-0.37812 1.225532,-0.58251 1.766584,-0.57188 z" inkscape:connector-curvature="0" />
    <path style="color:#000000;clip-rule:nonzero;display:inline;overflow:visible;visibility:visible;opacity:1;isolation:auto;mix-blend-mode:normal;color-interpolation:sRGB;color-interpolation-filters:linearRGB;solid-color:#000000;solid-opacity:1;fill:#000000;fill-opacity:1;fill-rule:evenodd;stroke:none;stroke-width:0.89999998;stroke-linecap:round;stroke-linejoin:miter;stroke-miterlimit:4;stroke-dasharray:none;stroke-dashoffset:0;stroke-opacity:1;color-rendering:auto;image-rendering:auto;shape-rendering:auto;text-rendering:auto;enable-background:accumulate" d="m 3.794424,-118.09467 c -0.03481,-0.0139 -0.387473,0.76522 -0.773437,1.66992 -0.381703,0.89472 -0.809184,1.94165 -0.982422,2.44336 -0.176438,0.5371 -0.390469,1.30435 -0.589844,2.01172 0.06031,-0.55635 0.109986,-1.12538 0.103516,-1.63477 -0.01279,-1.74744 -0.425929,-3.66291 -0.498047,-3.65039 -0.07275,0.0126 0.183985,1.9486 0.04883,3.63477 -0.07238,0.83501 -0.290636,1.86782 -0.482422,2.63281 -0.354416,-0.68951 -0.858631,-1.64701 -1.449218,-2.51562 -0.780652,-1.11593 -2.309126,-2.07981 -2.347657,-2.02539 -0.04001,0.0565 1.375504,1.16904 1.964844,2.26171 0.304172,0.53913 0.568646,1.10365 0.796875,1.62696 0.372061,0.28889 0.708358,0.56132 0.951172,0.78515 0.450547,0.41534 0.755162,0.86352 0.892578,1.28907 0.0687,0.21277 0.09588,0.4226 0.05859,0.62695 -0.03729,0.20435 -0.155086,0.4041 -0.339844,0.52344 -0.305542,0.19735 -0.71844,0.21836 -1.103516,0.0371 -0.310556,-0.14618 -0.627467,-0.43694 -0.960937,-0.82031 -0.641237,0.0208 -1.474062,0.0584 -2.1875,0.17187 -2.104283,0.29168 -3.519408,1.38936 -3.480469,1.44531 0.03898,0.056 1.530217,-0.86817 3.527344,-0.99804 0.376674,-0.0166 0.788074,-0.008 1.193359,0.01 -0.712154,0.25439 -1.4348,0.51707 -1.767578,0.68164 -2.162568,0.91869 -4.094659,3.07329 -4.046875,3.11914 0.04862,0.0466 2.113703,-1.96681 4.210938,-2.69922 0.365679,-0.10109 1.271937,-0.3498 2.08789,-0.56055 0.07395,-0.0191 0.123337,-0.0305 0.195313,-0.0488 -0.378323,0.25584 -0.792906,0.55853 -1.210938,0.95703 -1.238441,1.16919 -1.630753,2.5038 -1.566406,2.52735 0.06436,0.0236 0.614646,-1.21112 1.859375,-2.1875 0.923232,-0.7175 1.866097,-1.08815 2.203125,-1.16602 0.06017,0.43796 0.121551,1.11761 0.138672,1.69531 -0.0046,1.38515 -0.382684,3.57189 -0.314453,3.58594 0.06715,0.0138 0.587741,-2.14147 0.734375,-3.5625 0.01539,-0.11398 0.0209,-0.24938 0.0332,-0.375 0.06524,0.42004 0.130264,0.87141 0.193359,1.16406 0.346841,2.21188 0.996326,4.22625 1.080079,4.20313 0.08403,-0.0232 -0.38924,-2.07493 -0.556641,-4.26367 -0.0036,-0.21423 -0.0095,-0.56189 -0.01563,-0.86524 0.02034,0.0576 0.04072,0.12785 0.06055,0.18164 0.513637,1.61427 1.790647,3.18206 1.855469,3.13477 0.06636,-0.0484 -1.03386,-1.73019 -1.345704,-3.26758 -0.08436,-0.53103 -0.190887,-1.23418 -0.248046,-1.73242 0.450157,0.021 1.107513,0.0847 1.695312,0.19336 1.164725,0.23043 2.402663,0.98994 2.443359,0.93164 0.03983,-0.0571 -1.105126,-0.96654 -2.326171,-1.36719 -0.325602,-0.11217 -0.655915,-0.18972 -0.984376,-0.27539 0.516501,-0.0598 1.137006,-0.1208 1.621094,-0.15625 2.216152,-0.0729 5.151435,0.70788 5.171875,0.63867 0.02015,-0.0682 -2.871752,-1.01257 -5.171875,-1.08984 -0.536234,-0.0394 -1.221307,-0.0518 -1.767578,-0.0645 0.410869,-0.0906 0.883277,-0.18959 1.404297,-0.30469 1.68587,-0.34236 3.617698,-1.23793 3.589844,-1.30469 -0.02823,-0.0677 -2.017753,0.6758 -3.660157,0.85938 -0.68941,0.0665 -1.333269,0.1164 -1.789062,0.13672 0.05402,-0.18849 0.172573,-0.51714 0.359375,-0.97461 0.257407,-0.63039 0.571071,-1.34083 0.787109,-1.74024 0.257372,-0.46166 0.719406,-1.0516 1.111328,-1.53515 0.390428,-0.48171 0.706164,-0.85041 0.679688,-0.87696 -0.02646,-0.0265 -0.396678,0.28997 -0.845703,0.72461 -0.444283,0.43005 -0.980416,0.99029 -1.320313,1.44141 -0.200435,0.26077 -0.436266,0.65875 -0.669922,1.07031 0.144547,-0.74342 0.306939,-1.55708 0.427735,-2.12304 0.09342,-0.49024 0.445698,-1.55421 0.759765,-2.48047 0.315275,-0.92983 0.597322,-1.73608 0.5625,-1.75 z" inkscape:connector-curvature="0" />
    <path style="color:#000000;clip-rule:nonzero;display:inline;overflow:visible;visibility:visible;opacity:1;isolation:auto;mix-blend-mode:normal;color-interpolation:sRGB;color-interpolation-filters:linearRGB;solid-color:#000000;solid-opacity:1;fill:#000000;fill-opacity:1;fill-rule:evenodd;stroke:none;stroke-width:0.89999998;stroke-linecap:round;stroke-linejoin:miter;stroke-miterlimit:4;stroke-dasharray:none;stroke-dashoffset:0;stroke-opacity:1;color-rendering:auto;image-rendering:auto;shape-rendering:auto;text-rendering:auto;enable-background:accumulate" d="m -0.916513,-109.19819 c -0.08002,-0.092 -0.155364,-0.1568 -0.238281,-0.26367 -0.1926,-0.24822 -0.664725,-0.74012 -1.285156,-1.32226 -0.09208,-0.0408 -0.153678,-0.0727 -0.248047,-0.11328 -1.388077,-0.6083 -3.187994,-0.65792 -3.19336,-0.58985 -0.0055,0.0696 1.769599,0.29863 2.992188,0.99219 0.943426,0.53918 1.739463,1.0834 1.972656,1.29687 z" inkscape:connector-curvature="0" />
    <path style="color:#000000;clip-rule:nonzero;display:inline;overflow:visible;visibility:visible;opacity:1;isolation:auto;mix-blend-mode:normal;color-interpolation:sRGB;color-interpolation-filters:linearRGB;solid-color:#000000;solid-opacity:1;fill:#000000;fill-opacity:1;fill-rule:evenodd;stroke:none;stroke-width:0.89999998;stroke-linecap:round;stroke-linejoin:miter;stroke-miterlimit:4;stroke-dasharray:none;stroke-dashoffset:0;stroke-opacity:1;color-rendering:auto;image-rendering:auto;shape-rendering:auto;text-rendering:auto;enable-background:accumulate" d="m -7.806877,-115.72644 c 1.94457,0.58391 6.643912,3.73434 8.129359,5.1037 0.836444,0.77108 1.096168,1.65836 0.65443,1.94368 -0.441738,0.28531 -1.060198,0.0838 -1.882086,-0.97545 -0.735118,-0.94742 -4.303093,-4.33376 -7.586861,-5.69825 -0.596704,-0.24795 -0.206304,-0.64136 0.685158,-0.37368 z" inkscape:connector-curvature="0" />
    <circle cx="-16.488615" cy="-113.608350" r="0.578456" style="color:#000000;clip-rule:nonzero;display:inline;overflow:visible;visibility:visible;opacity:1;isolation:auto;mix-blend-mode:normal;color-interpolation:sRGB;color-interpolation-filters:linearRGB;solid-color:#000000;solid-opacity:1;fill:#000000;fill-opacity:1;fill-rule:evenodd;stroke:none;stroke-width:0.89999998;stroke-linecap:round;stroke-linejoin:miter;stroke-miterlimit:4;stroke-dasharray:none;stroke-dashoffset:0;stroke-opacity:1;color-rendering:auto;image-rendering:auto;shape-rendering:auto;text-rendering:auto;enable-background:accumulate" transform="matrix(0.99754986,0.06995909,-0.06995909,0.99754986,0,0)" />
    <circle cx="-15.173941" cy="-112.977310" r="0.578456" style="color:#000000;clip-rule:nonzero;display:inline;overflow:visible;visibility:visible;opacity:1;isolation:auto;mix-blend-mode:normal;color-interpolation:sRGB;color-interpolation-filters:linearRGB;solid-color:#000000;solid-opacity:1;fill:#000000;fill-opacity:1;fill-rule:evenodd;stroke:none;stroke-width:0.89999998;stroke-linecap:round;stroke-linejoin:miter;stroke-miterlimit:4;stroke-dasharray:none;stroke-dashoffset:0;stroke-opacity:1;color-rendering:auto;image-rendering:auto;shape-rendering:auto;text-rendering:auto;enable-background:accumulate" transform="matrix(0.99754986,0.06995909,-0.06995909,0.99754986,0,0)" />
    <circle cx="-14.332552" cy="-115.291140" r="0.578456" style="color:#000000;clip-rule:nonzero;display:inline;overflow:visible;visibility:visible;opacity:1;isolation:auto;mix-blend-mode:normal;color-interpolation:sRGB;color-interpolation-filters:linearRGB;solid-color:#000000;solid-opacity:1;fill:#000000;fill-opacity:1;fill-rule:evenodd;stroke:none;stroke-width:0.89999998;stroke-linecap:round;stroke-linejoin:miter;stroke-miterlimit:4;stroke-dasharray:none;stroke-dashoffset:0;stroke-opacity:1;color-rendering:auto;image-rendering:auto;shape-rendering:auto;text-rendering:auto;enable-background:accumulate" transform="matrix(0.99754986,0.06995909,-0.06995909,0.99754986,0,0)" />
    <circle cx="-15.857573" cy="-115.738120" r="0.578456" style="color:#000000;clip-rule:nonzero;display:inline;overflow:visible;visibility:visible;opacity:1;isolation:auto;mix-blend-mode:normal;color-interpolation:sRGB;color-interpolation-filters:linearRGB;solid-color:#000000;solid-opacity:1;fill:#000000;fill-opacity:1;fill-rule:evenodd;stroke:none;stroke-width:0.89999998;stroke-linecap:round;stroke-linejoin:miter;stroke-miterlimit:4;stroke-dasharray:none;stroke-dashoffset:0;stroke-opacity:1;color-rendering:auto;image-rendering:auto;shape-rendering:auto;text-rendering:auto;enable-background:accumulate" transform="matrix(0.99754986,0.06995909,-0.06995909,0.99754986,0,0)" />
    <circle cx="-17.356298" cy="-115.738120" r="0.578456" style="color:#000000;clip-rule:nonzero;display:inline;overflow:visible;visibility:visible;opacity:1;isolation:auto;mix-blend-mode:normal;color-interpolation:sRGB;color-interpolation-filters:linearRGB;solid-color:#000000;solid-opacity:1;fill:#000000;fill-opacity:1;fill-rule:evenodd;stroke:none;stroke-width:0.89999998;stroke-linecap:round;stroke-linejoin:miter;stroke-miterlimit:4;stroke-dasharray:none;stroke-dashoffset:0;stroke-opacity:1;color-rendering:auto;image-rendering:auto;shape-rendering:auto;text-rendering:auto;enable-background:accumulate" transform="matrix(0.99754986,0.06995909,-0.06995909,0.99754986,0,0)" />
    <circle cx="-17.803286" cy="-114.397160" r="0.578456" style="color:#000000;clip-rule:nonzero;display:inline;overflow:visible;visibility:visible;opacity:1;isolation:auto;mix-blend-mode:normal;color-interpolation:sRGB;color-interpolation-filters:linearRGB;solid-color:#000000;solid-opacity:1;fill:#000000;fill-opacity:1;fill-rule:evenodd;stroke:none;stroke-width:0.89999998;stroke-linecap:round;stroke-linejoin:miter;stroke-miterlimit:4;stroke-dasharray:none;stroke-dashoffset:0;stroke-opacity:1;color-rendering:auto;image-rendering:auto;shape-rendering:auto;text-rendering:auto;enable-background:accumulate" transform="matrix(0.99754986,0.06995909,-0.06995909,0.99754986,0,0)" />
  </g>
  <g id="resource-pirate" transform="rotate(-34.91741,-71.339264,160.02715)" >
    <path style="display:inline;opacity:1;fill:#000000;fill-opacity:1;stroke:none;stroke-width:0.72000003;stroke-linejoin:miter;stroke-miterlimit:4;stroke-dasharray:none;stroke-dashoffset:0;stroke-opacity:1" transform="scale(-1,-1)" d="m -107.60416,-273.69223 -7.8991,-1.94695 -6.08951,-5.39484 -2.88489,-7.60683 0.98062,-8.07619 4.6215,-6.69539 7.20363,-3.78076 8.13551,0 7.203628,3.78076 4.621495,6.69539 0.980627,8.07619 -2.88489,7.60683 -6.089513,5.39484 z" inkscape:connector-curvature="0" />
    <g transform="translate(6.943425,5.6840535)" >
      <g transform="translate(0,-10)" >
        <path style="color:#000000;clip-rule:nonzero;display:inline;overflow:visible;visibility:visible;opacity:1;isolation:auto;mix-blend-mode:normal;color-interpolation:sRGB;color-interpolation-filters:linearRGB;solid-color:#000000;solid-opacity:1;fill:#ffffff;fill-opacity:1;fill-rule:nonzero;stroke:none;stroke-width:0.49999997;stroke-linecap:butt;stroke-linejoin:miter;stroke-miterlimit:4;stroke-dasharray:none;stroke-dashoffset:0;stroke-opacity:1;color-rendering:auto;image-rendering:auto;shape-rendering:auto;text-rendering:auto;enable-background:accumulate" d="m 91.84844,289.85155 c 4.41124,3.03993 11.33218,5.63427 19.39618,8.47116 0.51356,0.18067 1.26729,0.0129 1.26729,0.0129 1.03108,0.0262 1.76032,0.59243 1.42127,1.81302 -0.15625,0.5625 -0.60065,0.1875 -1.10065,0.75 -0.59594,0.67043 -0.31337,0.98447 -0.78702,1.45924 -0.37301,0.37389 -0.95237,0.38325 -1.41542,-0.0762 -0.43122,-0.4279 -0.24851,-1.07751 -0.79513,-1.34257 -5.2397,-2.54083 -12.94978,-6.27419 -18.97954,-8.64117 -0.75546,-0.29655 -1.95134,0.5095 -2.69668,0.18835 -0.65522,-0.28232 -1.04679,-1.02773 -0.89579,-1.72503 0.11053,-0.51043 1.25,-0.94464 1.25,-0.94464 l 0.16316,0.45958 c -0.38049,-1.27579 -0.54342,-1.55226 0.0416,-2.29926 0.47038,-0.60064 1.71455,-0.2507 2.18742,0.26834 0.3856,0.42325 0.37162,1.21233 0.94334,1.60632 z" inkscape:connector-curvature="0" />
        <path style="color:#000000;font-style:normal;font-variant:normal;font-weight:normal;font-stretch:normal;font-size:medium;line-height:normal;font-family:sans-serif;text-indent:0;text-align:start;text-decoration:none;text-decoration-line:none;text-decoration-style:solid;text-decoration-color:#000000;letter-spacing:normal;word-spacing:normal;text-transform:none;direction:ltr;block-progression:tb;writing-mode:lr-tb;baseline-shift:baseline;text-anchor:start;white-space:normal;clip-rule:nonzero;display:inline;overflow:visible;visibility:visible;opacity:1;isolation:auto;mix-blend-mode:normal;color-interpolation:sRGB;color-interpolation-filters:linearRGB;solid-color:#000000;solid-opacity:1;fill:#000000;fill-opacity:1;fill-rule:nonzero;stroke:none;stroke-width:0.49999997;stroke-linecap:butt;stroke-linejoin:miter;stroke-miterlimit:4;stroke-dasharray:none;stroke-dashoffset:0;stroke-opacity:1;color-rendering:auto;image-rendering:auto;shape-rendering:auto;text-rendering:auto;enable-background:accumulate" d="m 89.94141,287.44531 c -0.54653,-0.13973 -1.02793,0.0475 -1.41993,0.37696 -0.39461,0.33166 -0.45344,0.73455 -0.43554,1.11718 0.009,0.1953 0.0749,0.48278 0.14843,0.71094 0.0247,0.0765 -0.13751,0.0543 -0.37499,0.19141 -0.31892,0.18405 -0.69539,0.49169 -0.78516,0.90624 -0.17772,0.8207 0.18277,1.73389 0.98633,1.96876 0.90806,0.26541 1.87242,-0.46589 2.70312,-0.18553 6.12153,2.06605 13.77428,5.90495 18.93945,8.59375 0.44579,0.23206 0.47891,0.99792 0.75,1.33398 0.47609,0.59019 1.43418,0.58737 1.82423,0.0606 0.41555,-0.56124 0.35263,-0.97015 0.71093,-1.40039 0.19962,-0.2397 0.27907,-0.36717 0.48047,-0.41602 0.10069,-0.0244 0.3919,-0.085 0.64844,-0.32813 0.37646,-0.35676 0.31231,-1.20126 -0.13264,-1.71679 -0.40032,-0.46384 -1.02404,-0.57439 -1.4961,-0.57426 -0.43431,1.2e-4 -0.8621,0.10335 -1.16011,0.002 -8.09046,-2.75143 -14.91003,-5.38426 -19.27539,-8.39258 -0.22086,-0.1522 -0.39434,-0.43852 -0.51171,-0.72461 -0.2365,-0.57649 -0.55594,-1.25663 -1.59983,-1.52351 z m 1.2188,1.80664 c 0.16982,0.38884 0.34852,0.54692 0.5469,0.80468 4.45711,3.07156 11.38831,5.66408 19.45508,8.50195 0.6315,0.22216 1.0547,0.10621 1.35742,0.0683 0.71089,-0.0889 1.08312,0.23005 1.22662,0.42788 0.35341,0.48722 0.19231,1.06561 -0.21479,1.15626 -0.18569,0.0413 -0.61103,0.17616 -0.88477,0.52148 -0.33647,0.42445 -0.37657,1.24201 -0.78515,1.55078 -0.31976,0.24165 -0.75772,0.27891 -1.05469,-0.17966 -0.32208,-0.49734 -0.27651,-1.10107 -0.88672,-1.42774 -5.13397,-2.7485 -12.86209,-6.41107 -18.97265,-8.61133 -0.88412,-0.31835 -1.92323,0.3249 -2.69727,0.23828 -0.58607,-0.0656 -0.8665,-0.91439 -0.74219,-1.48829 0.0208,-0.0959 0.18739,-0.36795 0.46875,-0.52344 0.30948,-0.17102 0.40248,-0.17047 0.44922,-0.0664 0.0857,0.19085 0.13229,0.44867 0.15637,0.72069 0.0197,0.22228 0.17958,-0.0361 0.20117,-0.10743 0.0917,-0.30287 -1.1e-4,-0.84555 -0.0587,-0.98826 -0.35066,-0.85435 -0.24288,-1.31016 0.12868,-1.7077 0.29779,-0.31861 0.72973,-0.39498 1.09186,-0.27481 0.69853,0.2318 0.95425,0.78805 1.21486,1.38476 z" inkscape:connector-curvature="0" />
      </g>
      <g transform="translate(0,-10)" >
        <path style="color:#000000;clip-rule:nonzero;display:inline;overflow:visible;visibility:visible;opacity:1;isolation:auto;mix-blend-mode:normal;color-interpolation:sRGB;color-interpolation-filters:linearRGB;solid-color:#000000;solid-opacity:1;fill:#ffffff;fill-opacity:1;fill-rule:nonzero;stroke:none;stroke-width:0.49999997;stroke-linecap:butt;stroke-linejoin:miter;stroke-miterlimit:4;stroke-dasharray:none;stroke-dashoffset:0;stroke-opacity:1;color-rendering:auto;image-rendering:auto;shape-rendering:auto;text-rendering:auto;enable-background:accumulate" d="m 109.41706,289.80736 c -4.41124,3.03993 -11.33218,5.63427 -19.39618,8.47116 -0.51356,0.18067 -1.26729,0.0129 -1.26729,0.0129 -1.03108,0.0262 -1.76032,0.59243 -1.42127,1.81302 0.15625,0.5625 0.60065,0.1875 1.10065,0.75 0.59594,0.67043 0.31337,0.98447 0.78702,1.45924 0.37301,0.37389 0.95237,0.38325 1.41542,-0.0762 0.43122,-0.4279 0.24851,-1.07751 0.79513,-1.34257 5.2397,-2.54083 12.94978,-6.27419 18.97954,-8.64117 0.75546,-0.29655 1.95134,0.5095 2.69668,0.18835 0.65522,-0.28232 1.04679,-1.02773 0.89579,-1.72503 -0.11053,-0.51043 -1.25,-0.94464 -1.25,-0.94464 l -0.16316,0.45958 c 0.38049,-1.27579 0.54342,-1.55226 -0.0416,-2.29926 -0.47038,-0.60064 -1.71455,-0.2507 -2.18742,0.26834 -0.3856,0.42325 -0.37162,1.21233 -0.94334,1.60632 z" inkscape:connector-curvature="0" />
        <path style="color:#000000;font-style:normal;font-variant:normal;font-weight:normal;font-stretch:normal;font-size:medium;line-height:normal;font-family:sans-serif;text-indent:0;text-align:start;text-decoration:none;text-decoration-line:none;text-decoration-style:solid;text-decoration-color:#000000;letter-spacing:normal;word-spacing:normal;text-transform:none;direction:ltr;block-progression:tb;writing-mode:lr-tb;baseline-shift:baseline;text-anchor:start;white-space:normal;clip-rule:nonzero;display:inline;overflow:visible;visibility:visible;opacity:1;isolation:auto;mix-blend-mode:normal;color-interpolation:sRGB;color-interpolation-filters:linearRGB;solid-color:#000000;solid-opacity:1;fill:#000000;fill-opacity:1;fill-rule:nonzero;stroke:none;stroke-width:0.49999997;stroke-linecap:butt;stroke-linejoin:miter;stroke-miterlimit:4;stroke-dasharray:none;stroke-dashoffset:0;stroke-opacity:1;color-rendering:auto;image-rendering:auto;shape-rendering:auto;text-rendering:auto;enable-background:accumulate" d="m 111.38756,287.33529 c -0.48664,0.0425 -1.11759,0.35128 -1.31171,0.78554 -0.25532,0.57121 -0.35791,1.10841 -0.80095,1.43578 -4.2638,3.15061 -11.02151,5.86741 -19.11914,8.59765 -0.37569,0.12667 -0.793,0.007 -1.18941,0 -0.55986,-0.009 -1.2909,0.0173 -1.62304,0.38477 -0.33215,0.36747 -0.49179,0.82955 -0.3072,1.49398 0.0492,0.17698 0.19508,0.41555 0.31501,0.50406 0.11993,0.0885 0.24305,0.11618 0.34375,0.14063 0.20139,0.0489 0.34354,0.0657 0.55078,0.29883 0.27206,0.30606 0.32523,0.48899 0.38672,0.70508 0.0615,0.21608 0.13631,0.48917 0.41016,0.76367 0.46295,0.46404 1.23127,0.45987 1.76953,-0.0742 0.27305,-0.27093 0.34319,-0.599 0.41601,-0.83594 0.0728,-0.23693 0.11923,-0.36621 0.31055,-0.45898 5.23957,-2.54077 12.92679,-6.14139 18.94079,-8.50219 0.26425,-0.10373 0.73389,-0.14378 1.22132,-0.0193 0.48743,0.1245 1.01877,0.28217 1.50586,0.0723 0.76885,-0.33126 1.21875,-1.18712 1.04101,-2.00781 -0.0898,-0.41456 -0.51237,-0.7471 -0.8313,-0.93114 -0.23626,-0.13633 -0.30692,-0.13408 -0.29326,-0.2428 0.0341,-0.27151 0.0324,-0.44202 0.0416,-0.63783 0.018,-0.38263 -0.0918,-0.65157 -0.42093,-1.02881 -0.39713,-0.45513 -0.89964,-0.48317 -1.35615,-0.44329 z m 0.96351,0.70764 c 0.31461,0.3192 0.35498,0.60714 0.37427,0.86802 0.0265,0.35796 0.0566,0.77981 -0.21212,1.56266 -0.0629,0.1834 -0.13514,0.41283 0.0458,0.26781 0.21765,-0.17449 0.32969,-0.52131 0.40328,-0.67267 0.0499,-0.10264 0.1234,-0.0467 0.3034,0.0364 0.32381,0.14909 0.5206,0.38204 0.54136,0.65469 0.0446,0.5855 -0.25812,1.17489 -0.79972,1.40825 -0.25824,0.11127 -0.69789,0.0264 -1.18359,-0.0976 -0.48573,-0.12404 -1.03674,-0.15395 -1.52796,0.0389 -6.04551,2.3732 -13.73417,5.97497 -18.974,8.51586 -0.35529,0.17229 -0.49003,0.5006 -0.57031,0.76171 -0.0803,0.26112 -0.13479,0.47195 -0.29297,0.62891 -0.38783,0.38482 -0.77943,0.36186 -1.0625,0.0781 -0.1998,-0.20028 -0.21858,-0.32159 -0.2832,-0.54883 -0.0646,-0.22722 -0.16831,-0.53603 -0.49219,-0.90039 -0.29276,-0.32936 -0.5411,-0.43101 -0.7644,-0.44761 -0.16657,-0.0124 -0.31978,-0.24306 -0.3377,-0.29665 -0.18307,-0.54743 -0.0422,-0.79871 0.17376,-1.01614 0.27893,-0.28078 0.87349,-0.22843 1.22527,-0.2358 0.44842,-0.009 0.77278,0.20066 1.40429,-0.0215 8.06676,-2.83789 14.84782,-5.48941 19.23633,-8.6582 0.53983,-0.38979 0.52785,-0.93704 0.79316,-1.50218 0.22245,-0.47382 0.76204,-0.67588 1.09941,-0.72147 0.2658,-0.0359 0.66161,0.0555 0.90033,0.29773 z" inkscape:connector-curvature="0" />
      </g>
      <g >
        <path style="color:#000000;clip-rule:nonzero;display:inline;overflow:visible;visibility:visible;opacity:1;isolation:auto;mix-blend-mode:normal;color-interpolation:sRGB;color-interpolation-filters:linearRGB;solid-color:#000000;solid-opacity:1;fill:#ffffff;fill-opacity:1;fill-rule:nonzero;stroke:none;stroke-width:0.49999997;stroke-linecap:butt;stroke-linejoin:miter;stroke-miterlimit:4;stroke-dasharray:none;stroke-dashoffset:0;stroke-opacity:1;color-rendering:auto;image-rendering:auto;shape-rendering:auto;text-rendering:auto;enable-background:accumulate" d="m 95.61696,289.40928 c -0.28542,-0.70119 -0.64431,-0.0511 -1.28032,-1.5943 -0.1555,-0.3773 0.0533,-1.26257 -0.20606,-1.97221 -1.08563,-2.97045 -0.70376,-4.38729 -0.13829,-5.43857 0.90077,-1.67462 2.37389,-2.68893 4.18898,-3.25565 1.68855,-0.52721 3.7114,-0.48187 5.36931,0.13497 1.87949,0.69928 2.96812,1.82798 3.83709,3.63528 0.56796,1.18125 0.75027,1.95911 0.46372,3.37367 -0.0839,0.41394 -0.6938,1.7573 -0.89959,2.67781 -0.13567,0.60688 0.13543,0.88631 0.028,1.10465 -0.68013,1.38226 -0.85951,0.68912 -1.42722,1.53162 -0.82001,1.21692 -0.9135,2.26072 -0.9135,2.26072 -2.62487,0.21736 -5.43031,0.27039 -8.01047,-0.13519 -0.21074,-2.67946 -0.3887,-0.7924 -1.01165,-2.3228 z" inkscape:connector-curvature="0" />
        <path style="color:#000000;font-style:normal;font-variant:normal;font-weight:normal;font-stretch:normal;font-size:medium;line-height:normal;font-family:sans-serif;text-indent:0;text-align:start;text-decoration:none;text-decoration-line:none;text-decoration-style:solid;text-decoration-color:#000000;letter-spacing:normal;word-spacing:normal;text-transform:none;direction:ltr;block-progression:tb;writing-mode:lr-tb;baseline-shift:baseline;text-anchor:start;white-space:normal;clip-rule:nonzero;display:inline;overflow:visible;visibility:visible;opacity:1;isolation:auto;mix-blend-mode:normal;color-interpolation:sRGB;color-interpolation-filters:linearRGB;solid-color:#000000;solid-opacity:1;fill:#000000;fill-opacity:1;fill-rule:nonzero;stroke:none;stroke-width:0.49999997;stroke-linecap:butt;stroke-linejoin:miter;stroke-miterlimit:4;stroke-dasharray:none;stroke-dashoffset:0;stroke-opacity:1;color-rendering:auto;image-rendering:auto;shape-rendering:auto;text-rendering:auto;enable-background:accumulate" d="m 101.77982,284.55725 c 0.004,0.96632 0.45036,2.0941 1.39212,2.05041 0.94176,-0.0437 1.37747,-1.03396 1.36409,-2.0552 -0.0134,-1.02124 -0.49476,-1.92637 -1.40364,-1.94387 -0.90889,-0.0175 -1.3563,0.98234 -1.35257,1.94866 z" inkscape:connector-curvature="0" />
        <path style="color:#000000;font-style:normal;font-variant:normal;font-weight:normal;font-stretch:normal;font-size:medium;line-height:normal;font-family:sans-serif;text-indent:0;text-align:start;text-decoration:none;text-decoration-line:none;text-decoration-style:solid;text-decoration-color:#000000;letter-spacing:normal;word-spacing:normal;text-transform:none;direction:ltr;block-progression:tb;writing-mode:lr-tb;baseline-shift:baseline;text-anchor:start;white-space:normal;clip-rule:nonzero;display:inline;overflow:visible;visibility:visible;opacity:1;isolation:auto;mix-blend-mode:normal;color-interpolation:sRGB;color-interpolation-filters:linearRGB;solid-color:#000000;solid-opacity:1;fill:#000000;fill-opacity:1;fill-rule:nonzero;stroke:none;stroke-width:0.49999997;stroke-linecap:butt;stroke-linejoin:miter;stroke-miterlimit:4;stroke-dasharray:none;stroke-dashoffset:0;stroke-opacity:1;color-rendering:auto;image-rendering:auto;shape-rendering:auto;text-rendering:auto;enable-background:accumulate" d="m 100.03721,289.11908 c -0.42377,-0.36462 -0.23973,-1.10247 0.38785,-2.14089 0.0843,-0.13938 0.41827,-0.11168 0.51275,0.021 0.6035,0.84762 0.67744,2.01011 0.33563,2.12543 -0.234,0.079 -0.36489,-0.0838 -0.58623,-0.37016 -0.23681,0.29673 -0.365,0.60983 -0.65,0.36461 z" inkscape:connector-curvature="0" />
        <path style="color:#000000;font-style:normal;font-variant:normal;font-weight:normal;font-stretch:normal;font-size:medium;line-height:normal;font-family:sans-serif;text-indent:0;text-align:start;text-decoration:none;text-decoration-line:none;text-decoration-style:solid;text-decoration-color:#000000;letter-spacing:normal;word-spacing:normal;text-transform:none;direction:ltr;block-progression:tb;writing-mode:lr-tb;baseline-shift:baseline;text-anchor:start;white-space:normal;clip-rule:nonzero;display:inline;overflow:visible;visibility:visible;opacity:1;isolation:auto;mix-blend-mode:normal;color-interpolation:sRGB;color-interpolation-filters:linearRGB;solid-color:#000000;solid-opacity:1;fill:#000000;fill-opacity:1;fill-rule:nonzero;stroke:none;stroke-width:0.49999997;stroke-linecap:butt;stroke-linejoin:miter;stroke-miterlimit:4;stroke-dasharray:none;stroke-dashoffset:0;stroke-opacity:1;color-rendering:auto;image-rendering:auto;shape-rendering:auto;text-rendering:auto;enable-background:accumulate" d="m 96.79629,284.49096 c 0.004,0.96632 0.38407,2.09409 1.34792,2.0725 0.96385,-0.0216 1.44376,-1.01186 1.43038,-2.0331 -0.0134,-1.02124 -0.45057,-1.90429 -1.33735,-1.94387 -0.88677,-0.0396 -1.44468,0.93815 -1.44095,1.90447 z" inkscape:connector-curvature="0" />
        <path style="color:#000000;font-style:normal;font-variant:normal;font-weight:normal;font-stretch:normal;font-size:medium;line-height:normal;font-family:sans-serif;text-indent:0;text-align:start;text-decoration:none;text-decoration-line:none;text-decoration-style:solid;text-decoration-color:#000000;letter-spacing:normal;word-spacing:normal;text-transform:none;direction:ltr;block-progression:tb;writing-mode:lr-tb;baseline-shift:baseline;text-anchor:start;white-space:normal;clip-rule:nonzero;display:inline;overflow:visible;visibility:visible;opacity:1;isolation:auto;mix-blend-mode:normal;color-interpolation:sRGB;color-interpolation-filters:linearRGB;solid-color:#000000;solid-opacity:1;fill:#000000;fill-opacity:1;fill-rule:nonzero;stroke:none;stroke-width:0.49999997;stroke-linecap:butt;stroke-linejoin:miter;stroke-miterlimit:4;stroke-dasharray:none;stroke-dashoffset:0;stroke-opacity:1;color-rendering:auto;image-rendering:auto;shape-rendering:auto;text-rendering:auto;enable-background:accumulate" d="m 100.65625,276.60942 c -0.85308,-0.0126 -2.0994,0.19349 -2.75586,0.39844 -1.86941,0.58365 -2.83514,1.247 -3.88476,2.72657 -0.44,0.76902 -1.06058,1.73123 -0.99181,3.39023 0.058,1.39821 1.39651,3.32249 1.12006,4.24558 -0.10938,0.36524 -0.0785,0.6196 0.30526,1.01848 1.20238,1.37095 1.90562,2.41351 1.91019,3.23239 -0.008,0.23436 0.045,0.42743 0.24414,0.44141 2.80929,0.37265 5.12783,0.29481 7.9453,0.08 0.21185,-0.008 0.29297,-0.1875 0.29297,-0.39063 0.19662,-1.54374 0.9314,-2.00835 1.9863,-3.07614 0.28784,-0.27357 0.62427,-0.65332 0.29883,-1.33789 -0.23102,-0.48596 0.92245,-2.47356 1.06055,-3.55859 0.14911,-1.17151 -0.15793,-2.26393 -0.5293,-3.10157 -0.88762,-1.84613 -1.94831,-2.7592 -3.86523,-3.52929 -0.93109,-0.37405 -2.26053,-0.52603 -3.13664,-0.53899 z m -0.043,0.46285 c 1.09915,0.0507 2.08553,0.14066 3.01172,0.51567 1.72448,0.69823 2.70048,1.44439 3.55078,3.21288 0.36939,0.76826 0.69557,1.73619 0.54493,2.99415 -0.2428,1.03053 -1.05425,2.50934 -1.02149,3.02539 0,0 -0.0861,-0.15602 -0.21289,-0.41601 -0.18281,-0.37493 -0.21233,-0.57486 -0.27149,-1.11328 -0.0268,-0.24371 -0.29862,-0.32626 -0.29296,-0.22657 0.0416,0.73466 0.10464,1.0742 0.24804,1.5918 0.10978,0.39625 0.43528,0.73247 0.46485,1.14258 0.009,0.12977 -0.0461,0.34222 -0.13868,0.43359 -1.26028,1.19619 -2.08802,2.47382 -2.17578,3.43356 -2.51398,0.3381 -4.97436,0.2315 -7.47461,-0.0937 -0.14518,-1.85044 -1.10626,-2.38298 -2.14453,-3.76949 -0.18886,-0.25326 0.28842,-0.85838 0.40236,-1.26172 0.1228,-0.43469 0.32716,-0.88898 0.22258,-1.5508 -0.0245,-0.15513 -0.22882,0.13848 -0.28125,0.41603 -0.11651,0.61664 -0.28224,0.85172 -0.51435,1.37048 -0.0721,-1.12896 -0.74529,-2.04641 -0.91036,-3.0504 -0.28321,-1.72251 0.14892,-2.51897 0.80286,-3.6236 0.72882,-1.23113 1.99799,-2.15947 3.63348,-2.63984 0.72356,-0.21252 1.87504,-0.42215 2.55679,-0.39072 z" inkscape:connector-curvature="0" />
        <path style="color:#000000;font-style:normal;font-variant:normal;font-weight:normal;font-stretch:normal;font-size:medium;line-height:normal;font-family:sans-serif;text-indent:0;text-align:start;text-decoration:none;text-decoration-line:none;text-decoration-style:solid;text-decoration-color:#000000;letter-spacing:normal;word-spacing:normal;text-transform:none;direction:ltr;block-progression:tb;writing-mode:lr-tb;baseline-shift:baseline;text-anchor:start;white-space:normal;clip-rule:nonzero;display:inline;overflow:visible;visibility:visible;opacity:1;isolation:auto;mix-blend-mode:normal;color-interpolation:sRGB;color-interpolation-filters:linearRGB;solid-color:#000000;solid-opacity:1;fill:#000000;fill-opacity:1;fill-rule:nonzero;stroke:none;stroke-width:0.49999997;stroke-linecap:butt;stroke-linejoin:miter;stroke-miterlimit:4;stroke-dasharray:none;stroke-dashoffset:0;stroke-opacity:1;color-rendering:auto;image-rendering:auto;shape-rendering:auto;text-rendering:auto;enable-background:accumulate" d="m 97.6294,290.74837 c 0.0146,1.13412 -0.0956,1.27773 -0.0956,1.27773 l 0.61964,-0.048 c 0,0 -0.0652,-0.2374 -0.0975,-1.11199 -0.005,-0.1474 -0.42845,-0.26523 -0.42655,-0.11774 z" inkscape:connector-curvature="0" />
        <path style="color:#000000;font-style:normal;font-variant:normal;font-weight:normal;font-stretch:normal;font-size:medium;line-height:normal;font-family:sans-serif;text-indent:0;text-align:start;text-decoration:none;text-decoration-line:none;text-decoration-style:solid;text-decoration-color:#000000;letter-spacing:normal;word-spacing:normal;text-transform:none;direction:ltr;block-progression:tb;writing-mode:lr-tb;baseline-shift:baseline;text-anchor:start;white-space:normal;clip-rule:nonzero;display:inline;overflow:visible;visibility:visible;opacity:1;isolation:auto;mix-blend-mode:normal;color-interpolation:sRGB;color-interpolation-filters:linearRGB;solid-color:#000000;solid-opacity:1;fill:#000000;fill-opacity:1;fill-rule:nonzero;stroke:none;stroke-width:0.49999997;stroke-linecap:butt;stroke-linejoin:miter;stroke-miterlimit:4;stroke-dasharray:none;stroke-dashoffset:0;stroke-opacity:1;color-rendering:auto;image-rendering:auto;shape-rendering:auto;text-rendering:auto;enable-background:accumulate" d="m 99.05443,290.95071 c 0.0466,0.86236 -0.0404,1.24458 -0.0404,1.24458 l 0.53125,-0.0811 c 0,0 -0.054,-0.23486 -0.0422,-1.1341 0.002,-0.1427 -0.40962,-0.22457 -0.4376,-0.0846 z" inkscape:connector-curvature="0" />
        <path style="color:#000000;font-style:normal;font-variant:normal;font-weight:normal;font-stretch:normal;font-size:medium;line-height:normal;font-family:sans-serif;text-indent:0;text-align:start;text-decoration:none;text-decoration-line:none;text-decoration-style:solid;text-decoration-color:#000000;letter-spacing:normal;word-spacing:normal;text-transform:none;direction:ltr;block-progression:tb;writing-mode:lr-tb;baseline-shift:baseline;text-anchor:start;white-space:normal;clip-rule:nonzero;display:inline;overflow:visible;visibility:visible;opacity:1;isolation:auto;mix-blend-mode:normal;color-interpolation:sRGB;color-interpolation-filters:linearRGB;solid-color:#000000;solid-opacity:1;fill:#000000;fill-opacity:1;fill-rule:nonzero;stroke:none;stroke-width:0.49999997;stroke-linecap:butt;stroke-linejoin:miter;stroke-miterlimit:4;stroke-dasharray:none;stroke-dashoffset:0;stroke-opacity:1;color-rendering:auto;image-rendering:auto;shape-rendering:auto;text-rendering:auto;enable-background:accumulate" d="m 100.4009,290.99111 c 0.0202,0.9611 -0.0846,1.25563 -0.0846,1.25563 l 0.60859,-0.11428 c 0,0 -0.11429,-0.11132 -0.0532,-1.12305 0.0103,-0.17158 -0.47427,-0.19016 -0.47066,-0.0183 z" inkscape:connector-curvature="0" />
        <path style="color:#000000;font-style:normal;font-variant:normal;font-weight:normal;font-stretch:normal;font-size:medium;line-height:normal;font-family:sans-serif;text-indent:0;text-align:start;text-decoration:none;text-decoration-line:none;text-decoration-style:solid;text-decoration-color:#000000;letter-spacing:normal;word-spacing:normal;text-transform:none;direction:ltr;block-progression:tb;writing-mode:lr-tb;baseline-shift:baseline;text-anchor:start;white-space:normal;clip-rule:nonzero;display:inline;overflow:visible;visibility:visible;opacity:1;isolation:auto;mix-blend-mode:normal;color-interpolation:sRGB;color-interpolation-filters:linearRGB;solid-color:#000000;solid-opacity:1;fill:#000000;fill-opacity:1;fill-rule:nonzero;stroke:none;stroke-width:0.49999997;stroke-linecap:butt;stroke-linejoin:miter;stroke-miterlimit:4;stroke-dasharray:none;stroke-dashoffset:0;stroke-opacity:1;color-rendering:auto;image-rendering:auto;shape-rendering:auto;text-rendering:auto;enable-background:accumulate" d="m 101.7947,291.02458 c 0.0146,1.13412 -0.0957,1.1562 -0.0957,1.1562 l 0.61964,-0.048 c 0,0 -0.0653,-0.24845 -0.0974,-1.12304 -0.005,-0.1474 -0.42845,-0.13265 -0.42655,0.0148 z" inkscape:connector-curvature="0" />
        <path style="color:#000000;font-style:normal;font-variant:normal;font-weight:normal;font-stretch:normal;font-size:medium;line-height:normal;font-family:sans-serif;text-indent:0;text-align:start;text-decoration:none;text-decoration-line:none;text-decoration-style:solid;text-decoration-color:#000000;letter-spacing:normal;word-spacing:normal;text-transform:none;direction:ltr;block-progression:tb;writing-mode:lr-tb;baseline-shift:baseline;text-anchor:start;white-space:normal;clip-rule:nonzero;display:inline;overflow:visible;visibility:visible;opacity:1;isolation:auto;mix-blend-mode:normal;color-interpolation:sRGB;color-interpolation-filters:linearRGB;solid-color:#000000;solid-opacity:1;fill:#000000;fill-opacity:1;fill-rule:nonzero;stroke:none;stroke-width:0.49999997;stroke-linecap:butt;stroke-linejoin:miter;stroke-miterlimit:4;stroke-dasharray:none;stroke-dashoffset:0;stroke-opacity:1;color-rendering:auto;image-rendering:auto;shape-rendering:auto;text-rendering:auto;enable-background:accumulate" d="m 103.054,291.017 c 0.0466,0.86236 -0.0625,1.112 -0.0625,1.112 l 0.53125,-0.0811 c 0,0 -0.054,-0.16857 -0.0422,-1.06781 0.002,-0.1427 -0.43425,-0.1056 -0.42655,0.0369 z" inkscape:connector-curvature="0" />
      </g>
    </g>
  </g>
</g>
<g inkscape:groupmode="layer" id="edge_guides_layer" inkscape:label="Edges" style="display:none" sodipodi:insensitive="true" >
  <g id="guide0-1" transform="" >
    <rect x="156.475" y="-22.5" width="90.125" height="22.5" style="fill:#ffd291;stroke:#000000;stroke-width:0.9" />
    <rect x="164.1" y="-22.5" width="82.5" height="22.5" style="fill:#b4e982;stroke:#000000;stroke-width:0.9" />
    <rect x="178.975" y="-22.5" width="67.625" height="22.5" style="fill:#5adc4f;stroke:#000000;stroke-width:0.9" />
    <rect x="0" y="-22.5" width="156.475" height="22.5" style="fill:#b9deff;stroke:#000000;stroke-width:0.9" />
    <rect x="0" y="-22.5" width="114.5" height="22.5" style="fill:#9bceff;stroke:#000000;stroke-width:0.9" />
    <rect x="0" y="-22.5" width="66.25" height="22.5" style="fill:#73baff;stroke:#000000;stroke-width:0.9" />
    <path style="display:inline;fill:none;stroke:#000000;stroke-width:2;stroke-linecap:round;stroke-miterlimit:4;stroke-dasharray:0.1, 5;stroke-dashoffset:0;stroke-opacity:1" d="m 86.25,0 0,-22.5" inkscape:connector-curvature="0" />
  </g>
  <g id="guide1-4" transform="matrix(0,1,-1,0,246.6,0)" >
    <rect x="0" y="-22.5" width="90.125" height="22.5" style="fill:#ffd291;stroke:#000000;stroke-width:0.9" />
    <rect x="0" y="-22.5" width="82.5" height="22.5" style="fill:#b4e982;stroke:#000000;stroke-width:0.9" />
    <rect x="0" y="-22.5" width="67.625" height="22.5" style="fill:#5adc4f;stroke:#000000;stroke-width:0.9" />
    <rect x="90.125" y="-22.5" width="156.475" height="22.5" style="fill:#b9deff;stroke:#000000;stroke-width:0.9" />
    <rect x="132.1" y="-22.5" width="114.5" height="22.5" style="fill:#9bceff;stroke:#000000;stroke-width:0.9" />
    <rect x="180.35" y="-22.5" width="66.25" height="22.5" style="fill:#73baff;stroke:#000000;stroke-width:0.9" />
    <path style="display:inline;fill:none;stroke:#000000;stroke-width:2;stroke-linecap:round;stroke-miterlimit:4;stroke-dasharray:0.1, 5;stroke-dashoffset:0;stroke-opacity:1" d="m 161.25,0 0,-22.5" inkscape:connector-curvature="0" />
  </g>
  <g id="guide2-1" transform="matrix(-1,0,0,-1,246.6,246.6)" >
    <rect x="156.475" y="-22.5" width="90.125" height="22.5" style="fill:#ffd291;stroke:#000000;stroke-width:0.9" />
    <rect x="164.1" y="-22.5" width="82.5" height="22.5" style="fill:#b4e982;stroke:#000000;stroke-width:0.9" />
    <rect x="178.975" y="-22.5" width="67.625" height="22.5" style="fill:#5adc4f;stroke:#000000;stroke-width:0.9" />
    <rect x="0" y="-22.5" width="156.475" height="22.5" style="fill:#b9deff;stroke:#000000;stroke-width:0.9" />
    <rect x="0" y="-22.5" width="114.5" height="22.5" style="fill:#9bceff;stroke:#000000;stroke-width:0.9" />
    <rect x="0" y="-22.5" width="66.25" height="22.5" style="fill:#73baff;stroke:#000000;stroke-width:0.9" />
    <path style="display:inline;fill:none;stroke:#000000;stroke-width:2;stroke-linecap:round;stroke-miterlimit:4;stroke-dasharray:0.1, 5;stroke-dashoffset:0;stroke-opacity:1" d="m 86.25,0 0,-22.5" inkscape:connector-curvature="0" />
  </g>
  <g id="guide3-6" transform="matrix(0,-1,1,0,0,246.6)" >
    <rect x="0" y="-22.5" width="164.875" height="22.5" style="fill:#ffd291;stroke:#000000;stroke-width:0.9" />
    <rect x="0" y="-22.5" width="148" height="22.5" style="fill:#b4e982;stroke:#000000;stroke-width:0.9" />
    <rect x="0" y="-22.5" width="43.5" height="22.5" style="fill:#5adc4f;stroke:#000000;stroke-width:0.9" />
    <rect x="54.75" y="-22.5" width="39.5" height="22.5" style="fill:#5adc4f;stroke:#000000;stroke-width:0.9" />
    <rect x="105.5" y="-22.5" width="49.5" height="22.5" style="fill:#5adc4f;stroke:#000000;stroke-width:0.9" />
    <rect x="164.875" y="-22.5" width="81.725" height="22.5" style="fill:#b9deff;stroke:#000000;stroke-width:0.9" />
    <rect x="187.975" y="-22.5" width="58.625" height="22.5" style="fill:#9bceff;stroke:#000000;stroke-width:0.9" />
    <rect x="210.1" y="-22.5" width="36.5" height="22.5" style="fill:#73baff;stroke:#000000;stroke-width:0.9" />
    <path style="display:inline;fill:none;stroke:#000000;stroke-width:2;stroke-linecap:round;stroke-miterlimit:4;stroke-dasharray:0.1, 5;stroke-dashoffset:0;stroke-opacity:1" d="m 86.25,0 0,-22.5" inkscape:connector-curvature="0" />
  </g>
</g>
<g inkscape:groupmode="layer" id="id_layer" inkscape:label="Card ID" style="display:none" sodipodi:insensitive="true" >
  <text xml:space="preserve" x="19.7" y="27.3" style="font-style:normal;font-variant:normal;font-weight:normal;font-stretch:normal;font-size:9px;line-height:125%;font-family:CCTreasureTrove;-inkscape-font-specification:'CCTreasureTrove, Normal';text-align:start;letter-spacing:0px;word-spacing:0px;writing-mode:lr-tb;text-anchor:start;display:inline;fill:#606060;fill-opacity:1;stroke:none;stroke-width:1px;stroke-linecap:butt;stroke-linejoin:miter;stroke-opacity:1" 
>1416c</text></g>
<g inkscape:groupmode="layer" id="cut_layer" inkscape:label="Cut Line" style="display:none" sodipodi:insensitive="true" >
  <rect id="cut-line" x="11.25" y="11.25" width="224.5" height="224.5" style="fill:none;stroke:#000000;stroke-width:0.5;stroke-linecap:butt;stroke-linejoin:bevel;stroke-miterlimit:4;stroke-dasharray:none;stroke-opacity:1" ry="11.338962" />
</g>
<g inkscape:groupmode="layer" id="page_border_layer" inkscape:label="Page Border" style="display:none" sodipodi:insensitive="true" >
  <rect x="0" y="0" width="246.6" height="246.6" style="fill:none;stroke:#000000;stroke-width:0.5;stroke-linecap:butt;stroke-linejoin:bevel;stroke-miterlimit:4;stroke-dasharray:none;stroke-opacity:1" />
</g>

</svg>
