<?xml version="1.0" encoding="UTF-8" standalone="no"?>
<svg version="1.1" height="246.6" width="246.6" inkscape:version="0.91 r13725" xmlns:rdf="http://www.w3.org/1999/02/22-rdf-syntax-ns#" xmlns="http://www.w3.org/2000/svg" xmlns:cc="http://creativecommons.org/ns#" xmlns:xlink="http://www.w3.org/1999/xlink" xmlns:dc="http://purl.org/dc/elements/1.1/" xmlns:sodipodi="http://sodipodi.sourceforge.net/DTD/sodipodi-0.dtd" xmlns:svg="http://www.w3.org/2000/svg" xmlns:inkscape="http://www.inkscape.org/namespaces/inkscape">
<metadata>
  <rdf:RDF>
    <cc:Work rdf:about="">
      <dc:format>image/svg+xml</dc:format>
      <dc:type rdf:resource="http://purl.org/dc/dcmitype/StillImage"/>
      <dc:title/>
      <dc:creator>
        <cc:Agent><dc:title>Gary Kacmarcik</dc:title></cc:Agent>
      </dc:creator>
    </cc:Work>
  </rdf:RDF>
</metadata>

<defs>
  <filter inkscape:collect="always" inkscape:label="blurWaterDeep" style="color-interpolation-filters:sRGB" id="blurWaterDeep" x="-0.056691" y="-0.041620" width="1.113381" height="1.083239">
    <feGaussianBlur inkscape:collect="always" stdDeviation="6.919136" />
  </filter>
  <filter inkscape:collect="always" inkscape:label="blurWaterShallow" style="color-interpolation-filters:sRGB" id="blurWaterShallow" x="-0.055818" y="-0.042103" width="1.111637" height="1.084205">
    <feGaussianBlur inkscape:collect="always" stdDeviation="6.561501" />
  </filter>
  <filter inkscape:collect="always" inkscape:label="blurWaterHilight" style="color-interpolation-filters:sRGB" id="blurWaterHilight" x="-0.250000" y="-0.250000" width="1.500000" height="1.500000">
    <feGaussianBlur inkscape:collect="always" stdDeviation="6.857532" />
  </filter>
  <filter inkscape:collect="always" inkscape:label="blurGrass" style="color-interpolation-filters:sRGB" id="blurGrass" x="-0.100000" y="-0.100000" width="1.200000" height="1.200000">
    <feGaussianBlur inkscape:collect="always" stdDeviation="0.800000" />
  </filter>
  <filter inkscape:collect="always" inkscape:label="blurForestShadow" style="color-interpolation-filters:sRGB" id="blurForestShadow" x="-0.100000" y="-0.100000" width="1.200000" height="1.200000">
    <feGaussianBlur inkscape:collect="always" stdDeviation="0.800000" />
  </filter>
  <filter inkscape:collect="always" inkscape:label="blurFlowerInner" style="color-interpolation-filters:sRGB" id="blurFlowerInner" x="-0.420000" y="-0.420000" width="1.840000" height="1.840000">
    <feGaussianBlur inkscape:collect="always" stdDeviation="1.605540" />
  </filter>
  <filter inkscape:collect="always" inkscape:label="blurFlowerMiddle" style="color-interpolation-filters:sRGB" id="blurFlowerMiddle" x="-0.240000" y="-0.240000" width="1.480000" height="1.480000">
    <feGaussianBlur inkscape:collect="always" stdDeviation="1.933705" />
  </filter>
  <linearGradient id="gradientStopsFish" inkscape:collect="always">
    <stop offset="0.000000" style="stop-color:#ff5555;stop-opacity:1.000000" />
    <stop offset="1.000000" style="stop-color:#ffffff;stop-opacity:1.000000" />
  </linearGradient>
  <linearGradient id="gradientStopsCoconut" inkscape:collect="always">
    <stop offset="0.000000" style="stop-color:#ffffff;stop-opacity:1.000000" />
    <stop offset="1.000000" style="stop-color:#c8c8c8;stop-opacity:0.000000" />
  </linearGradient>
  <linearGradient id="gradientStopsFlower" inkscape:collect="always">
    <stop offset="0.000000" style="stop-color:#b16dff;stop-opacity:1.000000" />
    <stop offset="1.000000" style="stop-color:#e7d2ff;stop-opacity:1.000000" />
  </linearGradient>
  <linearGradient id="gradientFish" xlink:href="#gradientStopsFish" x1="178.789090" y1="-114.782830" x2="180.407300" y2="-103.782830" gradientTransform="translate(-178.76256,1.0606602)" gradientUnits="userSpaceOnUse" inkscape:collect="always" />
  <radialGradient id="gradientCoconut" xlink:href="#gradientStopsCoconut" cx="1.944096" cy="-60.612652" fx="1.944096" fy="-60.612652" r="6.723294" gradientUnits="userSpaceOnUse" gradientTransform="matrix(1.691364,-0.31394812,0.29762395,1.603419,17.826033,-7.042221)" inkscape:collect="always" />
  <radialGradient id="gradientFlower" xlink:href="#gradientStopsFlower" cx="60.884877" cy="-69.652750" fx="60.884877" fy="-69.652750" r="15.835310" gradientUnits="userSpaceOnUse" gradientTransform="matrix(0.8413905,0,0,0.87120012,-50.722984,-48.679159)" inkscape:collect="always" />
</defs>

<sodipodi:namedview
    id="base"
    pagecolor="#ffffff"
    bordercolor="#666666"
    borderopacity="1.0"
    inkscape:pageopacity="0.0"
    inkscape:pageshadow="2"
    inkscape:zoom="2"
    inkscape:cx="115.37643"
    inkscape:cy="285.04449"
    inkscape:document-units="in"
    showgrid="true"
    units="in"
    inkscape:window-width="1392"
    inkscape:window-height="836"
    inkscape:window-x="39"
    inkscape:window-y="6"
    inkscape:window-maximized="0"
    inkscape:snap-grids="true"
    inkscape:snap-to-guides="true"
    inkscape:snap-nodes="true"
    inkscape:object-nodes="true"
    inkscape:snap-smooth-nodes="true"
    inkscape:snap-intersection-paths="true"
    inkscape:object-paths="true"
    inkscape:snap-bbox="true"
    inkscape:bbox-nodes="true"
    inkscape:snap-others="true"
    inkscape:bbox-paths="false"
    inkscape:snap-global="true" >
  <inkscape:grid
    type="xygrid"
    id="grid3051"
    empspacing="2"
    visible="true"
    enabled="true"
    snapvisiblegridlinesonly="true"
    spacingx="0.0625in"
    spacingy="0.0625in"
    dotted="false"
    units="in" />
</sodipodi:namedview>
<g inkscape:groupmode="layer" id="water_layer" inkscape:label="Water" style="display:inline" sodipodi:insensitive="true" >
  <rect id="water" x="0" y="0" width="246.6" height="246.6" style="fill:#b9deff;fill-opacity:1;stroke:none" />
</g>
<g inkscape:groupmode="layer" id="water_medium_layer" inkscape:label="Water Shallow" style="display:inline" sodipodi:insensitive="true" >
  <path style="fill:#9bd1ff;fill-opacity:0.70;fill-rule:evenodd;stroke:none;filter:url(#blurWaterShallow)" d="M 11.050781,-8.9492188 -8.9492188,11.050781 -8.95,113.79996 l 20.000001,0 13.69846,-1.54958 10.35378,-29.547406 19.384764,-33.540781 32.948355,-4.446162 19.44754,11.788271 4.73974,-26.33022 2.17731,-19.124101 0,-20.000001 z M 211.88023,136.74549 l -22.4764,22.98216 -18.70433,7.14187 -29.02625,-2.84897 32.57738,32.57713 14.42435,38.95234 0,20 46.8758,7.6e-4 20,-20 L 255.55,132.8 l -20,0 z" inkscape:connector-curvature="0" />
</g>
<g inkscape:groupmode="layer" id="water_deep_layer" inkscape:label="Water Deep" style="display:inline" sodipodi:insensitive="true" >
  <path style="fill:#87c8ff;fill-opacity:0.60;fill-rule:evenodd;stroke:none;filter:url(#blurWaterDeep)" d="M 11.050781,-8.9492188 -8.9492188,11.050781 -8.95,65.54996 l 20.000001,0 14.091237,-6.526111 8.951218,-24.051137 22.476723,-11.616829 8.980771,-12.305902 0,-20.000001 z M 209.10195,179.67713 l -12.16,9.13438 11.78031,27.10461 2.07772,19.6339 0,20 24.7508,7.6e-4 20,-20 0,-54.28906 L 235.55,181.05 Z" inkscape:connector-curvature="0" />
</g>
<g inkscape:groupmode="layer" id="water_hilight_layer" inkscape:label="Water Hilight" style="display:inline" sodipodi:insensitive="true" >
  <use xlink:href="#shoreline" height="100%" width="100%" x="0" y="0" style="display:inline;fill:#ffffff;fill-opacity:1;stroke:#ffffff;stroke-opacity:1;filter:url(#blurWaterHilight)" />
</g>
<g inkscape:groupmode="layer" id="shoreline_layer" inkscape:label="Shoreline" style="display:inline" sodipodi:insensitive="true" >
  <use xlink:href="#shoreline" height="100%" width="100%" x="0" y="0" style="display:inline;fill:#ffddab;fill-opacity:1;stroke:#5f4c14;stroke-width:1;stroke-miterlimit:4;stroke-dasharray:none;stroke-opacity:1" />
</g>
<g inkscape:groupmode="layer" id="shoreline_master_layer" inkscape:label="Shoreline Master" style="display:none" sodipodi:insensitive="true" >
  <path id="shoreline" style="color:#000000;clip-rule:nonzero;display:inline;overflow:visible;visibility:visible;opacity:1;isolation:auto;mix-blend-mode:normal;color-interpolation:sRGB;color-interpolation-filters:linearRGB;solid-color:#000000;solid-opacity:1;fill-opacity:1;fill-rule:evenodd;color-rendering:auto;image-rendering:auto;shape-rendering:auto;text-rendering:auto;enable-background:accumulate" d="m 155.17495,-8.95002 0,20.000001 -0.94057,19.020331 -3.1836,17.84375 2.23493,11.11262 -11.95715,27.39323 12.91643,32.866588 10.84787,9.76091 13.95062,3.01833 13.0342,-10.83729 6.65571,-13.01821 3.4005,-10.479897 5.02627,0.400516 L 235.55,91.425 l 20,0 0,-80.37506 -19.99999,-19.99996 z m -56.256309,104.531245 -19.43036,-23.6906 -12.792885,-5.80031 -5.314713,10.318471 -12.362042,7.780859 -0.926618,16.152185 1.025861,11.69489 -5.182752,19.77408 c 0,0 -12.854094,18.16535 -19.826698,20.23087 -4.588422,1.35925 -9.473266,2.63624 -13.057653,3.13411 -6.6032724,0.91719 -19.9999998,0 -19.9999998,0 l 0,80.375 19.9999998,20 155.124199,-7.6e-4 0,-20 -15.77598,-27.84999 -33.43249,-16.07599 -19.929582,-11.89384 -5.705493,-22.06632 -7.048899,-10.86491 14.072934,-4.67294 8.75585,-12.78798 z" inkscape:connector-curvature="0" />
</g>
<g inkscape:groupmode="layer" id="grass_layer" inkscape:label="Grass" style="display:inline" sodipodi:insensitive="true" >
  <use xlink:href="#grass" height="100%" width="100%" x="0" y="0" style="display:inline;fill:#b4e982;fill-opacity:1;stroke:none;stroke-width:1;stroke-miterlimit:4;stroke-dasharray:none;stroke-opacity:1" />
</g>
<g inkscape:groupmode="layer" id="grass_master_layer" inkscape:label="Grass Master" style="display:none" sodipodi:insensitive="true" >
  <path id="grass" style="color:#000000;clip-rule:nonzero;display:inline;overflow:visible;visibility:visible;opacity:1;isolation:auto;mix-blend-mode:normal;color-interpolation:sRGB;color-interpolation-filters:linearRGB;solid-color:#000000;solid-opacity:1;fill-opacity:1;fill-rule:evenodd;filter:url(#blurGrass);color-rendering:auto;image-rendering:auto;shape-rendering:auto;text-rendering:auto;enable-background:accumulate" d="m 164.79995,-8.95002 0,20.000001 0.53599,12.7508 -4.28516,16.070313 0.71289,16.25 -9.09271,19.452153 -0.7166,18.540396 10.4001,20.706737 15.41335,8.93108 11.73235,-7.91641 8.18812,-20.917892 21.75508,-9.33122 L 235.55,81.8 l 20,0 0,-70.75006 -19.99999,-19.99996 z M 81.950135,144.46509 98.589202,133.08644 101.18053,119.8389 92.941802,95.308917 79.190231,78.487056 72.278648,74.655593 56.077653,82.740347 52.25828,97.298319 54.418262,115.31051 41.691623,142.40201 26.25,159.81445 l -15.199219,4.98633 -19.9999998,0 0,70.75 19.9999998,20 136.249199,-7.6e-4 0,-20 -6.08086,-18.74863 -22.4839,-15.3127 L 92.008956,179.43031 85.951333,158.968 Z" inkscape:connector-curvature="0" />
</g>
<g inkscape:groupmode="layer" id="forest_shadow_layer" inkscape:label="Forest Shadow" style="display:inline" sodipodi:insensitive="true" >
  <g style="filter:url(#blurForestShadow)" >
    <use xlink:href="#forest" height="100%" width="100%" x="0" y="0" style="display:inline;opacity:0.75;fill:#258c1b;fill-opacity:1" />
  </g>
</g>
<g inkscape:groupmode="layer" id="forest_fill_layer" inkscape:label="Forest Fill" style="display:inline" sodipodi:insensitive="true" >
  <use xlink:href="#forest" height="100%" width="100%" x="0" y="0" style="fill:#7ebd47;fill-opacity:1;fill-rule:nonzero;stroke:#496e28;stroke-width:0.5;stroke-linecap:round;stroke-linejoin:round;stroke-miterlimit:4;stroke-dasharray:none;stroke-dashoffset:0;stroke-opacity:1" />
</g>
<g inkscape:groupmode="layer" id="forest_master_layer" inkscape:label="Forest Master" style="display:none" sodipodi:insensitive="true" >
  <path id="forest" style="color:#000000;clip-rule:nonzero;display:inline;overflow:visible;visibility:visible;opacity:1;isolation:auto;mix-blend-mode:normal;color-interpolation:sRGB;color-interpolation-filters:linearRGB;solid-color:#000000;solid-opacity:1;fill-opacity:1;fill-rule:nonzero;color-rendering:auto;image-rendering:auto;shape-rendering:auto;text-rendering:auto;enable-background:accumulate" d="m 179.67578,-8.9492188 0,19.9999998 1.65625,11.462891 -9.47888,10 9.91317,7.516456 -9.76215,6.00968 2.16795,12.007614 -11.95818,13.835542 -5.1396,11.652146 9.26012,4.819467 -4.46215,7.957878 6.92116,-0.836459 7.94738,15.364804 4.84227,-8.68181 5.15868,1.09327 -7.08979,-11.665418 6.61856,-1.254825 -2.73371,-16.033775 12.45248,-10.103921 8.20011,11.35646 14.64258,-5.537109 -5.55102,-13.717972 12.66223,8.066445 9.60676,2.562855 20,0 0,-55.875 -19.99999,-20.00002 z M 70.205078,78.914062 l -4.796875,3.283204 -4.294922,-1.515625 0,5.304687 -4.292969,-0.505859 0.50586,4.798828 4.292969,0 1.009765,3.283203 4.041016,-2.779297 6.566406,0 -0.505859,-4.292969 2.273437,-3.535156 -5.050781,-0.251953 z m 22.476563,19.445313 -1.009766,7.576175 -2.273437,2.27343 2.52539,4.29297 -3.535156,0.50586 2.777344,6.3125 -2.525391,2.27344 2.525391,6.3125 -5.302735,0.50586 0,6.31445 -4.798828,-0.50586 0,2.77735 -1.009765,2.02148 4.798828,0 4.796875,1.51367 -0.251953,-3.53515 6.818359,-0.25196 -1.009766,-5.80859 5.556639,-6.06055 -4.546873,-3.78906 2.525391,-6.06055 -2.273438,-3.2832 2.273438,-6.06055 -4.292969,-2.27343 z m -37.628907,19.193355 0,6.06055 1.515625,3.53711 -4.041015,0 0,6.06055 5.304687,-3.28321 4.544922,1.26172 0,-4.54492 5.808594,-0.50586 0,-5.30273 -5.302735,1.26367 -0.757812,-3.53711 -3.789062,1.26367 z m 11.365235,22.72852 0,5.55664 -4.798828,-0.25391 1.515625,2.7793 0.251953,5.8086 4.798828,-1.01172 3.283203,4.29296 2.019531,-5.05078 4.079919,10.88874 3.654014,0.76455 -0.668776,-6.0976 4.237814,-2.70555 -5.494377,-1.83842 -3.535156,-4.79883 3.283203,-5.55664 -2.778523,-5.30192 -5.051555,5.55583 z m -22.613281,18.66211 -8.761719,4.24805 -7.900391,13.4082 -16.091797,3.07617 -19.9999998,0 0,55.875 19.9999998,20 31.75,0 0,-20 -0.375,-21.41797 -4.001953,-5.83984 6.105469,-12.6543 7.462891,-9.68945 10.052734,-5.91602 1.603516,-7.60937 -5.25586,-5.16211 -7.970703,-1.51563 z m 48.876953,24.26953 -1.791103,-12.51024 -5.294738,-6.28013 -3.68594,7.5606 5.571105,7.34538 -3.891121,7.41955 -3.029297,-3.28321 -4.294922,9.0918 -4.292969,-1.26172 -0.251953,3.0293 -4.544922,0.50586 -2.52539,4.79687 4.292968,3.03125 2.019532,-1.00976 1.767578,5.05078 5.55664,-1.00977 3.029297,1.51367 0.253906,-8.08007 7.576172,0.75781 -0.253906,-4.29297 5.556641,-0.75781 -2.273438,-5.30274 z m -31.001953,31.8457 -7.21875,3.33594 -1.410157,17.15625 0,20 27.75,0 0,-20 -6.287109,-13.19336 z m 41.601562,0.45508 -6.498047,2.19727 -5.732422,17.83984 0,20 37.749199,-7.6e-4 0,-20 z" inkscape:connector-curvature="0" />
</g>
<g inkscape:groupmode="layer" id="routes_layer" inkscape:label="Routes" style="display:inline" sodipodi:insensitive="true" >
  <path style="display:inline;fill:none;stroke:#000000;stroke-width:2;stroke-linecap:round;stroke-miterlimit:4;stroke-dasharray:0.1, 5;stroke-dashoffset:0;stroke-opacity:1" d="m 76.306953,28.650201 c 24.773657,3.677395 50.136187,34.009792 49.690367,86.594369 -0.65131,76.8229 71.72994,44.15031 109.55268,45.4721 l 20,0 M 85.88328,-8.95002 l 0,20.000001 C 83.862975,37.566482 56.310132,29.008364 44.580719,50.901324 32.631789,73.204013 35.293673,85.378276 11.050011,85.88335 l -20.000001,0 m 94.833301,169.66667 0,-20 c 1.367644,-31.41219 -54.04962,-21.95845 -26.138336,-45.01934 10.713686,-8.85187 24.332902,-16.81934 12.28558,-25.85528 -16.070744,-12.05364 -34.15895,-8.40442 -25.816533,-20.35331 7.977312,-11.42596 60.573348,-11.07111 28.126381,-38.9239" inkscape:connector-curvature="0" />
</g>
<g inkscape:groupmode="layer" id="labels_layer" inkscape:label="Labels" style="display:inline" sodipodi:insensitive="true" >
  <text xml:space="preserve" style="font-style:normal;font-variant:normal;font-weight:normal;font-stretch:normal;font-size:10px;line-height:125%;font-family:CCTreasureTrove;-inkscape-font-specification:'CCTreasureTrove, Normal';text-align:start;letter-spacing:0px;word-spacing:0px;writing-mode:lr-tb;text-anchor:start;display:inline;fill:#5d481b;fill-opacity:1;stroke:none;stroke-width:1px;stroke-linecap:butt;stroke-linejoin:miter;stroke-opacity:1"><textPath xlink:href="#label-path"
>Bye Pass</textPath></text>
</g>
<g inkscape:groupmode="layer" id="labels_guide_layer" inkscape:label="Labels Guide" style="display:none" sodipodi:insensitive="true" >
  <path id="label-path" style="color:#000000;fill:none;stroke:#000000;stroke-width:1;stroke-opacity:1" d="M 130.24468,154.02055 C 113.40077,134.65997 128.26076,78.440449 108.32331,59.882617" inkscape:connector-curvature="0" />
</g>
<g inkscape:groupmode="layer" id="resources_layer" inkscape:label="Resources" style="display:inline" sodipodi:insensitive="true" >
  <g id="resource-banana" transform="matrix(0.94578284,0.32479966,-0.32479966,0.94578284,35.253671,204.42194)" >
    <path style="color:#000000;clip-rule:nonzero;display:inline;overflow:visible;visibility:visible;opacity:1;isolation:auto;mix-blend-mode:normal;color-interpolation:sRGB;color-interpolation-filters:linearRGB;solid-color:#000000;solid-opacity:1;fill:#f6ff7d;fill-opacity:1;fill-rule:evenodd;stroke:#000000;stroke-width:0.89999998;stroke-linecap:round;stroke-linejoin:miter;stroke-miterlimit:4;stroke-dasharray:none;stroke-dashoffset:0;stroke-opacity:1;color-rendering:auto;image-rendering:auto;shape-rendering:auto;text-rendering:auto;enable-background:accumulate" d="m 6.86373,-121.02142 c -0.0162,1.67579 0.0613,3.31817 -0.2121,4.71569 -1.71528,2.99538 -4.19007,5.95351 -7.46659,7.74634 -4.28888,2.34678 -7.01389,2.86781 -11.88451,2.04623 -0.63804,-0.10762 -0.91664,-0.4723 -1.38982,-0.031 -0.50866,0.47443 -0.41626,1.00712 -0.0714,1.61117 0.35071,0.61429 0.52944,0.41897 1.09534,0.84336 1.98511,1.48869 3.74434,2.06677 6.44298,2.04779 2.77975,-0.0196 6.56154,-0.29036 8.90025,-1.56286 2.85139,-1.55146 4.93737,-3.4518 6.15239,-6.46199 0.85208,-2.11101 -0.0744,-4.05058 0.10539,-6.31996 0.12609,-1.59136 0.14328,-2.6534 0.0968,-4.5494 -0.63016,-0.20606 -1.24784,-0.12786 -1.76873,-0.0854 z" inkscape:connector-curvature="0" />
    <path style="color:#000000;clip-rule:nonzero;display:inline;overflow:visible;visibility:visible;opacity:1;isolation:auto;mix-blend-mode:normal;color-interpolation:sRGB;color-interpolation-filters:linearRGB;solid-color:#000000;solid-opacity:1;fill:#f6ff7d;fill-opacity:1;fill-rule:evenodd;stroke:#000000;stroke-width:0.89999998;stroke-linecap:round;stroke-linejoin:miter;stroke-miterlimit:4;stroke-dasharray:none;stroke-dashoffset:0;stroke-opacity:1;color-rendering:auto;image-rendering:auto;shape-rendering:auto;text-rendering:auto;enable-background:accumulate" d="m 7.87879,-120.99354 c 0.0285,1.61295 0.38658,3.34631 0.31301,4.75879 -1.00555,3.30202 -3.33857,6.81255 -5.886,9.14173 -3.35597,3.06847 -7.87513,4.2358 -12.26178,5.43386 -0.6242,0.17048 -1.27338,-0.11771 -1.42138,0.51219 -0.15176,0.64587 0.0489,1.217046 0.31467,1.704455 0.33862,0.621027 0.89583,0.442404 1.59118,0.572223 2.67893,0.500153 5.58439,0.941055 8.23815,0.321149 2.59268,-0.605634 5.07646,-1.926877 7.10245,-3.654337 2.47014,-2.10616 4.44803,-4.97661 5.01611,-8.17267 0.39839,-2.24136 -0.605,-3.85067 -0.89708,-6.10835 -0.2048,-1.58315 0.19285,-2.72685 -0.1333,-4.91236 -0.55377,0.056 -1.33048,0.14727 -1.97603,0.40332 z" inkscape:connector-curvature="0" />
    <path style="color:#000000;clip-rule:nonzero;display:inline;overflow:visible;visibility:visible;opacity:1;isolation:auto;mix-blend-mode:normal;color-interpolation:sRGB;color-interpolation-filters:linearRGB;solid-color:#000000;solid-opacity:1;fill:#f6ff7d;fill-opacity:1;fill-rule:evenodd;stroke:#000000;stroke-width:0.89999998;stroke-linecap:round;stroke-linejoin:miter;stroke-miterlimit:4;stroke-dasharray:none;stroke-dashoffset:0;stroke-opacity:1;color-rendering:auto;image-rendering:auto;shape-rendering:auto;text-rendering:auto;enable-background:accumulate" d="m 8.78082,-121.13744 c 0.34471,1.36915 0.66512,3.60435 0.73321,4.6643 -0.49421,3.88746 -1.33998,7.74843 -3.32367,10.57326 -2.40596,3.42618 -5.41293,5.37866 -11.11869,7.679247 -0.60011,0.241966 -1.22538,0.289326 -1.46855,0.679535 -0.16319,0.261865 0.37387,1.454696 0.69075,1.620824 0.62648,0.328443 1.07253,0.177853 1.77872,0.218405 2.75809,0.158378 5.05424,-0.146839 8.30722,-1.151769 2.54386,-0.78586 5.74014,-3.251012 7.23795,-5.452222 1.82616,-2.68377 2.69924,-6.37346 2.5117,-9.61419 -0.15399,-2.66107 -2.58676,-5.30143 -2.58676,-5.30143 -0.24357,-1.33177 -0.66717,-2.90679 -1.14995,-4.64892 -0.58055,0.0153 -1.40915,0.37101 -1.61193,0.73296 z" inkscape:connector-curvature="0" />
    <path style="color:#000000;clip-rule:nonzero;display:inline;overflow:visible;visibility:visible;opacity:1;isolation:auto;mix-blend-mode:normal;color-interpolation:sRGB;color-interpolation-filters:linearRGB;solid-color:#000000;solid-opacity:1;fill:#f7ff7d;fill-opacity:1;fill-rule:evenodd;stroke:#000000;stroke-width:0.72000003;stroke-linecap:round;stroke-linejoin:miter;stroke-miterlimit:4;stroke-dasharray:none;stroke-dashoffset:0;stroke-opacity:1;color-rendering:auto;image-rendering:auto;shape-rendering:auto;text-rendering:auto;enable-background:accumulate" d="m 6.86373,-121.02142 c -0.0162,1.67579 0.0613,3.31817 -0.2121,4.71569 -1.71528,2.99538 -4.19007,5.95351 -7.46659,7.74634 -4.28888,2.34678 -7.01389,2.86781 -11.88451,2.04623 -0.63804,-0.10762 -0.91664,-0.4723 -1.38982,-0.031 -0.50866,0.47443 -0.41626,1.00712 -0.0714,1.61117 0.35071,0.61429 0.52944,0.41897 1.09534,0.84336 1.98511,1.48869 3.74434,2.06677 6.44298,2.04779 2.77975,-0.0196 6.56154,-0.29036 8.90025,-1.56286 2.85139,-1.55146 4.93737,-3.4518 6.15239,-6.46199 0.85208,-2.11101 -0.0744,-4.05058 0.10539,-6.31996 0.12609,-1.59136 0.14328,-2.6534 0.0968,-4.5494 -0.63016,-0.20606 -1.24784,-0.12786 -1.76873,-0.0854 z" inkscape:connector-curvature="0" />
    <path style="color:#000000;font-style:normal;font-variant:normal;font-weight:normal;font-stretch:normal;font-size:medium;line-height:normal;font-family:sans-serif;text-indent:0;text-align:start;text-decoration:none;text-decoration-line:none;text-decoration-style:solid;text-decoration-color:#000000;letter-spacing:normal;word-spacing:normal;text-transform:none;direction:ltr;block-progression:tb;writing-mode:lr-tb;baseline-shift:baseline;text-anchor:start;white-space:normal;clip-rule:nonzero;display:inline;overflow:visible;visibility:visible;opacity:1;isolation:auto;mix-blend-mode:normal;color-interpolation:sRGB;color-interpolation-filters:linearRGB;solid-color:#000000;solid-opacity:1;fill:#737828;fill-opacity:1;fill-rule:evenodd;stroke:none;stroke-width:0.72000003;stroke-linecap:round;stroke-linejoin:miter;stroke-miterlimit:4;stroke-dasharray:none;stroke-dashoffset:0;stroke-opacity:1;color-rendering:auto;image-rendering:auto;shape-rendering:auto;text-rendering:auto;enable-background:accumulate" d="m 2.51814,-107.7686 c -2.07228,1.54391 -3.74795,2.09142 -6.33636,2.57335 -1.72347,0.32089 -3.84937,0.49004 -6.70834,0.0497 -0.53792,-0.0828 -0.32892,0.17921 0.20456,0.28719 2.7148,0.54957 5.27205,0.1766 6.8941,-0.0851 2.63047,-0.42445 3.77137,-0.81223 6.04492,-2.32391 0.12768,-0.58475 -0.15949,-0.11588 -0.0988,-0.5012 z" inkscape:connector-curvature="0" />
    <path style="color:#000000;clip-rule:nonzero;display:inline;overflow:visible;visibility:visible;opacity:1;isolation:auto;mix-blend-mode:normal;color-interpolation:sRGB;color-interpolation-filters:linearRGB;solid-color:#000000;solid-opacity:1;fill:#f7ff7d;fill-opacity:1;fill-rule:evenodd;stroke:#000000;stroke-width:0.72000003;stroke-linecap:round;stroke-linejoin:miter;stroke-miterlimit:4;stroke-dasharray:none;stroke-dashoffset:0;stroke-opacity:1;color-rendering:auto;image-rendering:auto;shape-rendering:auto;text-rendering:auto;enable-background:accumulate" d="m 7.87879,-120.99354 c 0.0285,1.61295 0.38658,3.34631 0.31301,4.75879 -1.00555,3.30202 -3.33857,6.81255 -5.886,9.14173 -3.35597,3.06847 -7.87513,4.2358 -12.26178,5.43386 -0.6242,0.17048 -1.27338,-0.11771 -1.42138,0.51219 -0.15176,0.64587 0.0489,1.217046 0.31467,1.704455 0.33862,0.621027 0.89583,0.442404 1.59118,0.572223 2.67893,0.500153 5.58439,0.941055 8.23815,0.321149 2.59268,-0.605634 5.07646,-1.926877 7.10245,-3.654337 2.47014,-2.10616 4.44803,-4.97661 5.01611,-8.17267 0.39839,-2.24136 -0.605,-3.85067 -0.89708,-6.10835 -0.2048,-1.58315 0.19285,-2.72685 -0.1333,-4.91236 -0.55377,0.056 -1.33048,0.14727 -1.97603,0.40332 z" inkscape:connector-curvature="0" />
    <path style="color:#000000;font-style:normal;font-variant:normal;font-weight:normal;font-stretch:normal;font-size:medium;line-height:normal;font-family:sans-serif;text-indent:0;text-align:start;text-decoration:none;text-decoration-line:none;text-decoration-style:solid;text-decoration-color:#000000;letter-spacing:normal;word-spacing:normal;text-transform:none;direction:ltr;block-progression:tb;writing-mode:lr-tb;baseline-shift:baseline;text-anchor:start;white-space:normal;clip-rule:nonzero;display:inline;overflow:visible;visibility:visible;opacity:1;isolation:auto;mix-blend-mode:normal;color-interpolation:sRGB;color-interpolation-filters:linearRGB;solid-color:#000000;solid-opacity:1;fill:#737828;fill-opacity:1;fill-rule:evenodd;stroke:none;stroke-width:0.72000003;stroke-linecap:round;stroke-linejoin:miter;stroke-miterlimit:4;stroke-dasharray:none;stroke-dashoffset:0;stroke-opacity:1;color-rendering:auto;image-rendering:auto;shape-rendering:auto;text-rendering:auto;enable-background:accumulate" d="m 4.80468,-106.35032 c -1.8366,1.79924 -3.59964,2.90171 -6.00807,3.97021 -1.77027,0.7854 -3.77092,1.22784 -6.52266,1.38661 -0.55888,0.0322 -0.28397,0.22297 0.27546,0.20184 2.71946,-0.10273 4.80476,-0.55229 6.63126,-1.36264 2.43383,-1.07977 4.50278,-2.38649 6.25386,-4.13127 0.79789,-0.79502 1.95252,-2.23179 2.69967,-3.4881 0.21909,-0.3684 0.3354,-1.28542 0.2234,-1.22755 -1.02526,2.0653 -2.6769,3.7927 -3.55292,4.6509 z" inkscape:connector-curvature="0" />
    <path style="color:#000000;clip-rule:nonzero;display:inline;overflow:visible;visibility:visible;opacity:1;isolation:auto;mix-blend-mode:normal;color-interpolation:sRGB;color-interpolation-filters:linearRGB;solid-color:#000000;solid-opacity:1;fill:#f7ff7d;fill-opacity:1;fill-rule:evenodd;stroke:#000000;stroke-width:0.72000003;stroke-linecap:round;stroke-linejoin:miter;stroke-miterlimit:4;stroke-dasharray:none;stroke-dashoffset:0;stroke-opacity:1;color-rendering:auto;image-rendering:auto;shape-rendering:auto;text-rendering:auto;enable-background:accumulate" d="m 8.78082,-121.13744 c 0.34471,1.36915 0.66512,3.60435 0.73321,4.6643 -0.49421,3.88746 -1.33998,7.74843 -3.32367,10.57326 -2.40596,3.42618 -5.41293,5.37866 -11.11869,7.679247 -0.60011,0.241966 -1.22538,0.289326 -1.46855,0.679535 -0.16319,0.261865 0.37387,1.454696 0.69075,1.620824 0.62648,0.328443 1.07253,0.177853 1.77872,0.218405 2.75809,0.158378 5.05424,-0.146839 8.30722,-1.151769 2.54386,-0.78586 5.74014,-3.251012 7.23795,-5.452222 1.82616,-2.68377 2.69924,-6.37346 2.5117,-9.61419 -0.15399,-2.66107 -2.58676,-5.30143 -2.58676,-5.30143 -0.24357,-1.33177 -0.66717,-2.90679 -1.14995,-4.64892 -0.58055,0.0153 -1.40915,0.37101 -1.61193,0.73296 z" inkscape:connector-curvature="0" />
    <path style="color:#000000;font-style:normal;font-variant:normal;font-weight:normal;font-stretch:normal;font-size:medium;line-height:normal;font-family:sans-serif;text-indent:0;text-align:start;text-decoration:none;text-decoration-line:none;text-decoration-style:solid;text-decoration-color:#000000;letter-spacing:normal;word-spacing:normal;text-transform:none;direction:ltr;block-progression:tb;writing-mode:lr-tb;baseline-shift:baseline;text-anchor:start;white-space:normal;clip-rule:nonzero;display:inline;overflow:visible;visibility:visible;opacity:1;isolation:auto;mix-blend-mode:normal;color-interpolation:sRGB;color-interpolation-filters:linearRGB;solid-color:#000000;solid-opacity:1;fill:#737828;fill-opacity:1;fill-rule:evenodd;stroke:none;stroke-width:0.72000003;stroke-linecap:round;stroke-linejoin:miter;stroke-miterlimit:4;stroke-dasharray:none;stroke-dashoffset:0;stroke-opacity:1;color-rendering:auto;image-rendering:auto;shape-rendering:auto;text-rendering:auto;enable-background:accumulate" d="m 11.17023,-113.86439 c -0.011,1.77939 -0.15804,3.37671 -0.70318,5.01283 -0.47684,1.43111 -0.94867,2.44937 -1.96984,4.0718 -1.36954,2.17594 -2.93041,3.68885 -5.19121,5.042 -1.55728,0.93208 -2.86824,1.715367 -5.59247,2.278309 -0.52698,0.108898 -1.00078,0.418847 -0.4677,0.345229 2.76772,-0.382229 4.71945,-1.233835 6.39997,-2.314868 2.23928,-1.44048 3.93705,-2.7933 5.38929,-5.10065 1.02607,-1.63022 1.47452,-2.54995 1.94328,-4.06882 0.56259,-1.82288 0.63573,-3.73693 0.46838,-5.5182 -0.0877,-0.93395 -0.2737,-0.2032 -0.27652,0.25237 z" inkscape:connector-curvature="0" />
  </g>
</g>
<g inkscape:groupmode="layer" id="edge_guides_layer" inkscape:label="Edges" style="display:none" sodipodi:insensitive="true" >
  <g id="guide0-1" transform="" >
    <rect x="156.475" y="-22.5" width="90.125" height="22.5" style="fill:#ffd291;stroke:#000000;stroke-width:0.9" />
    <rect x="164.1" y="-22.5" width="82.5" height="22.5" style="fill:#b4e982;stroke:#000000;stroke-width:0.9" />
    <rect x="178.975" y="-22.5" width="67.625" height="22.5" style="fill:#5adc4f;stroke:#000000;stroke-width:0.9" />
    <rect x="0" y="-22.5" width="156.475" height="22.5" style="fill:#b9deff;stroke:#000000;stroke-width:0.9" />
    <rect x="0" y="-22.5" width="114.5" height="22.5" style="fill:#9bceff;stroke:#000000;stroke-width:0.9" />
    <rect x="0" y="-22.5" width="66.25" height="22.5" style="fill:#73baff;stroke:#000000;stroke-width:0.9" />
    <path style="display:inline;fill:none;stroke:#000000;stroke-width:2;stroke-linecap:round;stroke-miterlimit:4;stroke-dasharray:0.1, 5;stroke-dashoffset:0;stroke-opacity:1" d="m 86.25,0 0,-22.5" inkscape:connector-curvature="0" />
  </g>
  <g id="guide1-4" transform="matrix(0,1,-1,0,246.6,0)" >
    <rect x="0" y="-22.5" width="90.125" height="22.5" style="fill:#ffd291;stroke:#000000;stroke-width:0.9" />
    <rect x="0" y="-22.5" width="82.5" height="22.5" style="fill:#b4e982;stroke:#000000;stroke-width:0.9" />
    <rect x="0" y="-22.5" width="67.625" height="22.5" style="fill:#5adc4f;stroke:#000000;stroke-width:0.9" />
    <rect x="90.125" y="-22.5" width="156.475" height="22.5" style="fill:#b9deff;stroke:#000000;stroke-width:0.9" />
    <rect x="132.1" y="-22.5" width="114.5" height="22.5" style="fill:#9bceff;stroke:#000000;stroke-width:0.9" />
    <rect x="180.35" y="-22.5" width="66.25" height="22.5" style="fill:#73baff;stroke:#000000;stroke-width:0.9" />
    <path style="display:inline;fill:none;stroke:#000000;stroke-width:2;stroke-linecap:round;stroke-miterlimit:4;stroke-dasharray:0.1, 5;stroke-dashoffset:0;stroke-opacity:1" d="m 161.25,0 0,-22.5" inkscape:connector-curvature="0" />
  </g>
  <g id="guide2-3" transform="matrix(-1,0,0,-1,246.6,246.6)" >
    <rect x="81.725" y="-22.5" width="164.875" height="22.5" style="fill:#ffd291;stroke:#000000;stroke-width:0.9" />
    <rect x="98.6" y="-22.5" width="148" height="22.5" style="fill:#b4e982;stroke:#000000;stroke-width:0.9" />
    <rect x="203.1" y="-22.5" width="43.5" height="22.5" style="fill:#5adc4f;stroke:#000000;stroke-width:0.9" />
    <rect x="152.35" y="-22.5" width="39.5" height="22.5" style="fill:#5adc4f;stroke:#000000;stroke-width:0.9" />
    <rect x="91.6" y="-22.5" width="49.5" height="22.5" style="fill:#5adc4f;stroke:#000000;stroke-width:0.9" />
    <rect x="0" y="-22.5" width="81.725" height="22.5" style="fill:#b9deff;stroke:#000000;stroke-width:0.9" />
    <rect x="0" y="-22.5" width="58.625" height="22.5" style="fill:#9bceff;stroke:#000000;stroke-width:0.9" />
    <rect x="0" y="-22.5" width="36.5" height="22.5" style="fill:#73baff;stroke:#000000;stroke-width:0.9" />
    <path style="display:inline;fill:none;stroke:#000000;stroke-width:2;stroke-linecap:round;stroke-miterlimit:4;stroke-dasharray:0.1, 5;stroke-dashoffset:0;stroke-opacity:1" d="m 161.25,0 0,-22.5" inkscape:connector-curvature="0" />
  </g>
  <g id="guide3-4" transform="matrix(0,-1,1,0,0,246.6)" >
    <rect x="0" y="-22.5" width="90.125" height="22.5" style="fill:#ffd291;stroke:#000000;stroke-width:0.9" />
    <rect x="0" y="-22.5" width="82.5" height="22.5" style="fill:#b4e982;stroke:#000000;stroke-width:0.9" />
    <rect x="0" y="-22.5" width="67.625" height="22.5" style="fill:#5adc4f;stroke:#000000;stroke-width:0.9" />
    <rect x="90.125" y="-22.5" width="156.475" height="22.5" style="fill:#b9deff;stroke:#000000;stroke-width:0.9" />
    <rect x="132.1" y="-22.5" width="114.5" height="22.5" style="fill:#9bceff;stroke:#000000;stroke-width:0.9" />
    <rect x="180.35" y="-22.5" width="66.25" height="22.5" style="fill:#73baff;stroke:#000000;stroke-width:0.9" />
    <path style="display:inline;fill:none;stroke:#000000;stroke-width:2;stroke-linecap:round;stroke-miterlimit:4;stroke-dasharray:0.1, 5;stroke-dashoffset:0;stroke-opacity:1" d="m 161.25,0 0,-22.5" inkscape:connector-curvature="0" />
  </g>
</g>
<g inkscape:groupmode="layer" id="id_layer" inkscape:label="Card ID" style="display:inline" sodipodi:insensitive="true" >
  <text xml:space="preserve" x="19.7" y="27.3" style="font-style:normal;font-variant:normal;font-weight:normal;font-stretch:normal;font-size:9px;line-height:125%;font-family:CCTreasureTrove;-inkscape-font-specification:'CCTreasureTrove, Normal';text-align:start;letter-spacing:0px;word-spacing:0px;writing-mode:lr-tb;text-anchor:start;display:inline;fill:#606060;fill-opacity:1;stroke:none;stroke-width:1px;stroke-linecap:butt;stroke-linejoin:miter;stroke-opacity:1" 
>1434c</text></g>
<g inkscape:groupmode="layer" id="cut_layer" inkscape:label="Cut Line" style="display:inline" sodipodi:insensitive="true" >
  <rect x="11.25" y="11.25" width="224.5" height="224.5" style="fill:none;stroke:#000000;stroke-width:0.5;stroke-linecap:butt;stroke-linejoin:bevel;stroke-miterlimit:4;stroke-dasharray:none;stroke-opacity:1" ry="11.338962" />
</g>
<g inkscape:groupmode="layer" id="page_border_layer" inkscape:label="Page Border" style="display:none" sodipodi:insensitive="true" >
  <rect x="0" y="0" width="246.6" height="246.6" style="fill:none;stroke:#000000;stroke-width:0.5;stroke-linecap:butt;stroke-linejoin:bevel;stroke-miterlimit:4;stroke-dasharray:none;stroke-opacity:1" />
</g>

</svg>
