<?xml version="1.0" encoding="UTF-8" standalone="no"?>
<svg version="1.1" height="246.6" width="246.6" inkscape:version="0.91 r13725" xmlns:rdf="http://www.w3.org/1999/02/22-rdf-syntax-ns#" xmlns="http://www.w3.org/2000/svg" xmlns:cc="http://creativecommons.org/ns#" xmlns:xlink="http://www.w3.org/1999/xlink" xmlns:dc="http://purl.org/dc/elements/1.1/" xmlns:sodipodi="http://sodipodi.sourceforge.net/DTD/sodipodi-0.dtd" xmlns:svg="http://www.w3.org/2000/svg" xmlns:inkscape="http://www.inkscape.org/namespaces/inkscape">
<metadata>
  <rdf:RDF>
    <cc:Work rdf:about="">
      <dc:format>image/svg+xml</dc:format>
      <dc:type rdf:resource="http://purl.org/dc/dcmitype/StillImage"/>
      <dc:title/>
      <dc:creator>
        <cc:Agent><dc:title>Gary Kacmarcik</dc:title></cc:Agent>
      </dc:creator>
    </cc:Work>
  </rdf:RDF>
</metadata>

<defs>
  <filter inkscape:collect="always" inkscape:label="blurWaterDeep" style="color-interpolation-filters:sRGB" id="blurWaterDeep" x="-0.056691" y="-0.041620" width="1.113381" height="1.083239">
    <feGaussianBlur inkscape:collect="always" stdDeviation="6.919136" />
  </filter>
  <filter inkscape:collect="always" inkscape:label="blurWaterShallow" style="color-interpolation-filters:sRGB" id="blurWaterShallow" x="-0.055818" y="-0.042103" width="1.111637" height="1.084205">
    <feGaussianBlur inkscape:collect="always" stdDeviation="6.561501" />
  </filter>
  <filter inkscape:collect="always" inkscape:label="blurWaterHilight" style="color-interpolation-filters:sRGB" id="blurWaterHilight" x="-0.250000" y="-0.250000" width="1.500000" height="1.500000">
    <feGaussianBlur inkscape:collect="always" stdDeviation="6.857532" />
  </filter>
  <filter inkscape:collect="always" inkscape:label="blurGrass" style="color-interpolation-filters:sRGB" id="blurGrass" x="-0.100000" y="-0.100000" width="1.200000" height="1.200000">
    <feGaussianBlur inkscape:collect="always" stdDeviation="0.800000" />
  </filter>
  <filter inkscape:collect="always" inkscape:label="blurForestShadow" style="color-interpolation-filters:sRGB" id="blurForestShadow" x="-0.100000" y="-0.100000" width="1.200000" height="1.200000">
    <feGaussianBlur inkscape:collect="always" stdDeviation="0.800000" />
  </filter>
  <filter inkscape:collect="always" inkscape:label="blurFlowerInner" style="color-interpolation-filters:sRGB" id="blurFlowerInner" x="-0.420000" y="-0.420000" width="1.840000" height="1.840000">
    <feGaussianBlur inkscape:collect="always" stdDeviation="1.605540" />
  </filter>
  <filter inkscape:collect="always" inkscape:label="blurFlowerMiddle" style="color-interpolation-filters:sRGB" id="blurFlowerMiddle" x="-0.240000" y="-0.240000" width="1.480000" height="1.480000">
    <feGaussianBlur inkscape:collect="always" stdDeviation="1.933705" />
  </filter>
  <linearGradient id="gradientStopsFish" inkscape:collect="always">
    <stop offset="0.000000" style="stop-color:#ff5555;stop-opacity:1.000000" />
    <stop offset="1.000000" style="stop-color:#ffffff;stop-opacity:1.000000" />
  </linearGradient>
  <linearGradient id="gradientStopsCoconut" inkscape:collect="always">
    <stop offset="0.000000" style="stop-color:#ffffff;stop-opacity:1.000000" />
    <stop offset="1.000000" style="stop-color:#c8c8c8;stop-opacity:0.000000" />
  </linearGradient>
  <linearGradient id="gradientStopsFlower" inkscape:collect="always">
    <stop offset="0.000000" style="stop-color:#b16dff;stop-opacity:1.000000" />
    <stop offset="1.000000" style="stop-color:#e7d2ff;stop-opacity:1.000000" />
  </linearGradient>
  <linearGradient id="gradientFish" xlink:href="#gradientStopsFish" x1="178.789090" y1="-114.782830" x2="180.407300" y2="-103.782830" gradientTransform="translate(-178.76256,1.0606602)" gradientUnits="userSpaceOnUse" inkscape:collect="always" />
  <radialGradient id="gradientCoconut" xlink:href="#gradientStopsCoconut" cx="1.944096" cy="-60.612652" fx="1.944096" fy="-60.612652" r="6.723294" gradientUnits="userSpaceOnUse" gradientTransform="matrix(1.691364,-0.31394812,0.29762395,1.603419,17.826033,-7.042221)" inkscape:collect="always" />
  <radialGradient id="gradientFlower" xlink:href="#gradientStopsFlower" cx="60.884877" cy="-69.652750" fx="60.884877" fy="-69.652750" r="15.835310" gradientUnits="userSpaceOnUse" gradientTransform="matrix(0.8413905,0,0,0.87120012,-50.722984,-48.679159)" inkscape:collect="always" />
</defs>

<sodipodi:namedview
    id="base"
    pagecolor="#ffffff"
    bordercolor="#666666"
    borderopacity="1.0"
    inkscape:pageopacity="0.0"
    inkscape:pageshadow="2"
    inkscape:zoom="2"
    inkscape:cx="115.37643"
    inkscape:cy="285.04449"
    inkscape:document-units="in"
    showgrid="true"
    units="in"
    inkscape:window-width="1392"
    inkscape:window-height="836"
    inkscape:window-x="39"
    inkscape:window-y="6"
    inkscape:window-maximized="0"
    inkscape:snap-grids="true"
    inkscape:snap-to-guides="true"
    inkscape:snap-nodes="true"
    inkscape:object-nodes="true"
    inkscape:snap-smooth-nodes="true"
    inkscape:snap-intersection-paths="true"
    inkscape:object-paths="true"
    inkscape:snap-bbox="true"
    inkscape:bbox-nodes="true"
    inkscape:snap-others="true"
    inkscape:bbox-paths="false"
    inkscape:snap-global="true" >
  <inkscape:grid
    type="xygrid"
    id="grid3051"
    empspacing="2"
    visible="true"
    enabled="true"
    snapvisiblegridlinesonly="true"
    spacingx="0.0625in"
    spacingy="0.0625in"
    dotted="false"
    units="in" />
</sodipodi:namedview>
<g inkscape:groupmode="layer" id="water_layer" inkscape:label="Water" style="display:inline" sodipodi:insensitive="true" >
  <rect id="water" x="0" y="0" width="246.6" height="246.6" style="fill:#b9deff;fill-opacity:1;stroke:none" />
</g>
<g inkscape:groupmode="layer" id="water_medium_layer" inkscape:label="Water Shallow" style="display:inline" sodipodi:insensitive="true" >
  <path style="fill:#9bd1ff;fill-opacity:0.70;fill-rule:evenodd;stroke:none;filter:url(#blurWaterShallow)" d="m 102.53048,46.084722 -28.597931,5.098031 -16.85893,-1.057424 -25.075243,10.33086 -20.948375,-2.531229 -20.000001,0 10e-6,-46.87492 19.99999,-19.9999902 102.74995,-6.98e-5 0,20.000001 z" inkscape:connector-curvature="0" />
</g>
<g inkscape:groupmode="layer" id="water_deep_layer" inkscape:label="Water Deep" style="display:inline" sodipodi:insensitive="true" >
  <path style="fill:#87c8ff;fill-opacity:0.60;fill-rule:evenodd;stroke:none;filter:url(#blurWaterDeep)" d="m 60.104076,28.912129 -26.628215,7.888515 -22.42586,-1.000684 -20.000001,0 10e-6,-24.74994 19.99999,-19.9999902 54.49995,-4.98e-5 0,20.000001 z" inkscape:connector-curvature="0" />
</g>
<g inkscape:groupmode="layer" id="water_hilight_layer" inkscape:label="Water Hilight" style="display:inline" sodipodi:insensitive="true" >
  <use xlink:href="#shoreline" height="100%" width="100%" x="0" y="0" style="display:inline;fill:#ffffff;fill-opacity:1;stroke:#ffffff;stroke-opacity:1;filter:url(#blurWaterHilight)" />
</g>
<g inkscape:groupmode="layer" id="shoreline_layer" inkscape:label="Shoreline" style="display:inline" sodipodi:insensitive="true" >
  <use xlink:href="#shoreline" height="100%" width="100%" x="0" y="0" style="display:inline;fill:#ffddab;fill-opacity:1;stroke:#5f4c14;stroke-width:1;stroke-miterlimit:4;stroke-dasharray:none;stroke-opacity:1" />
</g>
<g inkscape:groupmode="layer" id="shoreline_master_layer" inkscape:label="Shoreline Master" style="display:none" sodipodi:insensitive="true" >
  <path id="shoreline" style="color:#000000;clip-rule:nonzero;display:inline;overflow:visible;visibility:visible;opacity:1;isolation:auto;mix-blend-mode:normal;color-interpolation:sRGB;color-interpolation-filters:linearRGB;solid-color:#000000;solid-opacity:1;fill-opacity:1;fill-rule:evenodd;color-rendering:auto;image-rendering:auto;shape-rendering:auto;text-rendering:auto;enable-background:accumulate" d="m 234.36159,255.55002 21.2132,-20 -0.0245,-224.50002 -20.00031,-20.00002 -80.375,0 0,20.000001 -6.98024,16.49165 -17.3352,27.865633 -44.495294,14.285905 -39.397753,10.851707 -15.893698,2.431434 -20.022764,-2.55135 -20.000001,0 10e-6,155.12512 20.00001,20 z" inkscape:connector-curvature="0" />
</g>
<g inkscape:groupmode="layer" id="grass_layer" inkscape:label="Grass" style="display:inline" sodipodi:insensitive="true" >
  <use xlink:href="#grass" height="100%" width="100%" x="0" y="0" style="display:inline;fill:#b4e982;fill-opacity:1;stroke:none;stroke-width:1;stroke-miterlimit:4;stroke-dasharray:none;stroke-opacity:1" />
</g>
<g inkscape:groupmode="layer" id="grass_master_layer" inkscape:label="Grass Master" style="display:none" sodipodi:insensitive="true" >
  <path id="grass" style="color:#000000;clip-rule:nonzero;display:inline;overflow:visible;visibility:visible;opacity:1;isolation:auto;mix-blend-mode:normal;color-interpolation:sRGB;color-interpolation-filters:linearRGB;solid-color:#000000;solid-opacity:1;fill-opacity:1;fill-rule:evenodd;filter:url(#blurGrass);color-rendering:auto;image-rendering:auto;shape-rendering:auto;text-rendering:auto;enable-background:accumulate" d="m 234.83813,255.55008 20.70813,-20 0.004,-224.50008 -20,-20.00002 -70.75006,0 0,20.000001 2.83272,13.304159 3.26535,15.708661 -10.55665,17.949289 -23.57939,14.194666 -45.21882,7.045692 -50.793881,17.794964 -29.699278,2.252548 -20.000001,0 10e-6,136.25006 20.00001,20.00006 z" inkscape:connector-curvature="0" />
</g>
<g inkscape:groupmode="layer" id="forest_shadow_layer" inkscape:label="Forest Shadow" style="display:inline" sodipodi:insensitive="true" >
  <g style="filter:url(#blurForestShadow)" >
    <use xlink:href="#forest" height="100%" width="100%" x="0" y="0" style="display:inline;opacity:0.75;fill:#258c1b;fill-opacity:1" />
  </g>
</g>
<g inkscape:groupmode="layer" id="forest_fill_layer" inkscape:label="Forest Fill" style="display:inline" sodipodi:insensitive="true" >
  <use xlink:href="#forest" height="100%" width="100%" x="0" y="0" style="fill:#7ebd47;fill-opacity:1;fill-rule:nonzero;stroke:#496e28;stroke-width:0.5;stroke-linecap:round;stroke-linejoin:round;stroke-miterlimit:4;stroke-dasharray:none;stroke-dashoffset:0;stroke-opacity:1" />
</g>
<g inkscape:groupmode="layer" id="forest_master_layer" inkscape:label="Forest Master" style="display:none" sodipodi:insensitive="true" >
  <path id="forest" style="color:#000000;clip-rule:nonzero;display:inline;overflow:visible;visibility:visible;opacity:1;isolation:auto;mix-blend-mode:normal;color-interpolation:sRGB;color-interpolation-filters:linearRGB;solid-color:#000000;solid-opacity:1;fill-opacity:1;fill-rule:nonzero;color-rendering:auto;image-rendering:auto;shape-rendering:auto;text-rendering:auto;enable-background:accumulate" d="M 179.67578 -8.9492188 L 179.67578 11.050781 C 179.29697 15.077513 181.85547 13.681641 181.85547 13.681641 C 182.14456 13.680641 182.43314 13.654016 182.71875 13.603516 C 183.47117 15.287946 184.83398 16.519616 186.45312 16.978516 C 186.22544 17.684656 186.10781 18.430071 186.10547 19.181641 C 186.10634 19.963691 186.23206 20.739133 186.47656 21.470703 C 185.59185 22.645873 185.10584 24.138521 185.10547 25.681641 C 185.10547 29.271491 187.67983 32.181641 190.85547 32.181641 C 192.06124 32.178641 193.23574 31.747809 194.21289 30.949219 C 194.14249 31.355219 194.1065 31.767911 194.10547 32.181641 C 194.10599 33.897981 194.70699 35.544429 195.77734 36.761719 C 195.01942 37.889159 194.60795 39.265581 194.60547 40.681641 C 194.60611 41.248871 194.67247 41.813558 194.80273 42.361328 C 192.84557 43.457498 195.39462 47.985294 198.04492 50.328125 C 202.33807 52.90782 212.10952 52.029297 215.28516 52.029297 C 215.73131 52.026997 216.17569 51.966077 216.60938 51.847656 C 217.23994 53.315727 218.33596 54.461943 219.67969 55.058594 C 218.03162 56.254144 217.03509 58.31565 217.03516 60.529297 C 217.03516 64.119148 219.60952 67.029297 222.78516 67.029297 C 223.60274 67.026597 224.41042 66.826853 225.1543 66.443359 C 225.34384 66.873947 225.57507 67.279424 225.84375 67.652344 C 223.82698 68.721498 222.53792 71.011227 222.53516 73.529297 C 222.53616 75.932294 223.71055 78.138402 225.58789 79.265625 C 225.22611 80.129693 225.03738 81.073334 225.03516 82.029297 C 225.03616 84.152078 225.95429 86.140489 227.49414 87.355469 C 226.14176 88.205859 225.14969 89.636579 224.74219 91.324219 C 223.6754 90.174779 222.25891 89.532247 220.78516 89.529297 C 217.60952 89.529297 215.03516 92.439447 215.03516 96.029297 C 215.03616 98.428987 216.20686 100.63279 218.08008 101.76172 C 218.05168 102.01635 218.03666 102.27266 218.03516 102.5293 C 218.03716 105.4023 219.70699 107.93319 222.14258 108.75391 C 222.54192 111.11034 224.0571 113.02647 226.08398 113.73828 C 226.05348 114.00058 226.03716 114.26475 226.03516 114.5293 C 227.96732 114.32935 234.14268 117.33594 235.55078 117.33594 L 255.55078 117.33594 L 255.55078 11.050781 L 235.55078 -8.9492188 L 179.67578 -8.9492188 z M 216.12891 17.519531 C 216.87257 18.395661 217.81845 19.018819 218.85938 19.318359 C 217.39962 20.542469 216.53781 22.474697 216.53516 24.529297 C 216.53563 24.701397 216.54219 24.873402 216.55469 25.044922 C 216.46499 25.036922 216.3751 25.032097 216.28516 25.029297 C 216.23046 25.030297 216.17575 25.032156 216.12109 25.035156 C 216.22762 24.542126 216.28266 24.036767 216.28516 23.529297 C 216.28316 21.918917 215.75179 20.366848 214.79492 19.173828 C 215.32086 18.713748 215.77222 18.154011 216.12891 17.519531 z M 196.54297 24.775391 C 196.98869 25.279361 197.50469 25.697019 198.07031 26.011719 C 197.5083 26.219329 196.97798 26.523692 196.49805 26.914062 C 196.56845 26.508063 196.60444 26.095381 196.60547 25.681641 C 196.60347 25.378281 196.58247 25.075461 196.54297 24.775391 z M 226.95898 28.306641 C 227.01798 28.383741 227.07853 28.459303 227.14062 28.533203 C 226.11254 29.741733 225.53731 31.352617 225.53516 33.029297 C 225.53816 33.577277 225.60246 34.122614 225.72656 34.652344 C 224.9631 34.244534 224.12956 34.031817 223.28516 34.029297 C 222.65979 34.032297 222.03901 34.150166 221.44727 34.378906 C 221.83227 33.491896 222.03333 32.517337 222.03516 31.529297 C 222.03469 31.357197 222.02813 31.185182 222.01562 31.013672 C 222.10532 31.021672 222.19522 31.026497 222.28516 31.029297 C 224.14043 31.027297 225.88083 30.013421 226.95898 28.306641 z M 228.76758 37.695312 C 228.82958 37.822772 228.89539 37.947843 228.96484 38.070312 C 228.68184 38.850693 228.53591 39.685887 228.53516 40.529297 C 228.53716 40.701457 228.54519 40.873462 228.55859 41.044922 C 228.46759 41.036922 228.3764 41.031997 228.28516 41.029297 C 228.19396 41.030097 228.10279 41.033063 228.01172 41.039062 C 228.02542 40.869552 228.03326 40.699497 228.03516 40.529297 C 228.03316 39.808377 227.92473 39.092879 227.71484 38.412109 C 228.08739 38.216379 228.44033 37.976073 228.76758 37.695312 z M 221.5332 46.966797 C 221.78237 47.006207 222.03357 47.027087 222.28516 47.029297 C 222.37636 47.028494 222.46752 47.025231 222.55859 47.019531 C 222.54489 47.189041 222.53706 47.359094 222.53516 47.529297 C 222.5359 47.583347 222.53706 47.637391 222.53906 47.691406 C 222.20126 47.607096 221.85742 47.557412 221.51172 47.542969 C 221.52552 47.37216 221.53346 47.200802 221.53516 47.029297 C 221.53458 47.008457 221.53428 46.987627 221.5332 46.966797 z M 229.91992 53.755859 C 229.99112 53.850679 230.06474 53.943161 230.14062 54.033203 C 229.4058 54.900996 228.89808 55.982013 228.67383 57.15625 C 228.63203 57.16679 228.59043 57.177863 228.54883 57.189453 C 228.06425 56.578537 227.48172 56.076863 226.83203 55.710938 C 226.96446 55.162835 227.03276 54.597469 227.03516 54.029297 C 227.03445 53.975247 227.03325 53.921204 227.03125 53.867188 C 227.44269 53.973072 227.86319 54.027435 228.28516 54.029297 C 228.83889 54.027597 229.38949 53.935517 229.91992 53.755859 z M 185.69727 59.878906 C 183.80399 59.878626 182.03191 60.931933 180.95898 62.695312 C 180.38988 62.486883 179.79549 62.380136 179.19727 62.378906 C 178.78327 62.380906 178.37072 62.434506 177.9668 62.537109 C 176.87841 61.166359 175.32667 60.381966 173.69727 60.378906 C 170.52163 60.378906 167.94727 63.289056 167.94727 66.878906 C 167.94827 67.065426 167.95726 67.2518 167.97266 67.4375 C 167.46663 67.5101 166.97139 67.658576 166.5 67.878906 C 165.6079 65.458586 163.51674 63.881166 161.19727 63.878906 C 158.02163 63.878906 155.44727 66.789056 155.44727 70.378906 C 155.45027 71.519286 155.71809 72.63879 156.22461 73.625 C 155.78505 74.48535 155.52581 75.448163 155.4668 76.439453 C 154.9226 76.518253 154.39116 76.684614 153.88867 76.933594 C 152.80251 75.623734 151.28547 74.880056 149.69727 74.878906 C 146.52163 74.878906 143.94727 77.789056 143.94727 81.378906 C 143.94727 84.968756 146.52163 87.878906 149.69727 87.878906 C 149.87338 87.877906 150.04935 87.867056 150.22461 87.847656 C 150.49345 88.811936 150.95757 89.692029 151.58008 90.417969 C 149.93908 91.614749 148.94759 93.671306 148.94727 95.878906 C 148.94927 98.689996 150.54993 101.18095 152.91406 102.05273 C 151.97166 103.24217 151.44954 104.78214 151.44727 106.37891 C 151.44727 109.96876 154.02163 112.87891 157.19727 112.87891 C 160.37291 112.87891 162.94727 109.96876 162.94727 106.37891 C 162.94527 105.86006 162.88817 105.34335 162.77734 104.83984 C 162.85044 104.83084 162.92336 104.82059 162.99609 104.80859 C 164.08218 106.127 165.6036 106.87678 167.19727 106.87891 C 169.86749 106.87591 172.18445 104.79507 172.79102 101.85547 C 172.92615 101.86867 173.06165 101.87661 173.19727 101.87891 C 175.83012 101.87491 178.12404 99.849431 178.76562 96.962891 C 179.65239 97.560161 180.66504 97.876566 181.69727 97.878906 C 184.87291 97.878906 187.44727 94.968756 187.44727 91.378906 L 187.44727 91.365234 C 187.53047 91.372234 187.61386 91.376406 187.69727 91.378906 C 190.87291 91.378906 193.44727 88.468756 193.44727 84.878906 C 193.44427 82.859536 192.6116 80.956326 191.19336 79.728516 C 193.18094 78.645826 194.44523 76.372996 194.44727 73.878906 C 194.44427 71.409026 193.20302 69.154547 191.24414 68.060547 C 191.37657 67.512447 191.44487 66.947076 191.44727 66.378906 C 191.44727 62.789056 188.87291 59.878906 185.69727 59.878906 z M 182.95117 73.791016 C 182.94917 73.820316 182.94827 73.849606 182.94727 73.878906 C 182.94814 73.926406 182.94917 73.974006 182.95117 74.021484 C 182.90667 73.988884 182.86167 73.956981 182.81641 73.925781 C 182.86191 73.881681 182.90691 73.836782 182.95117 73.791016 z M 174.33594 75.144531 C 174.55056 75.320771 174.7757 75.479994 175.00977 75.621094 C 174.83588 75.900564 174.68176 76.195093 174.54883 76.501953 C 174.45213 76.229973 174.33922 75.965697 174.21094 75.710938 C 174.26004 75.524348 174.30184 75.335351 174.33594 75.144531 z M 101.00781 80.451172 C 99.260123 80.452355 97.435065 81.215908 96.058594 82.693359 C 94.557398 84.30762 93.882128 86.48493 94.265625 88.476562 C 92.439498 88.460782 90.603986 89.283931 89.267578 90.716797 C 87.32187 92.805744 86.808644 95.774594 88.003906 98.033203 C 87.968926 98.048453 87.935187 98.064298 87.900391 98.080078 C 87.625688 97.53745 87.262628 97.050668 86.824219 96.640625 C 84.500703 94.475916 80.632606 94.851935 78.185547 97.478516 C 77.590987 98.119628 77.117895 98.85858 76.792969 99.654297 C 75.145984 99.153545 73.272323 99.439297 71.669922 100.43555 C 71.474914 100.1608 71.25569 99.907928 71.011719 99.677734 C 68.688203 97.513026 64.820106 97.887096 62.373047 100.51367 C 61.322701 101.64401 60.661988 103.06848 60.509766 104.53125 C 59.830839 104.89904 59.208952 105.3796 58.673828 105.95117 C 57.790121 106.90264 57.179658 108.06702 56.919922 109.29297 C 56.201158 109.39956 55.490606 109.63106 54.822266 109.97852 C 52.439241 108.38942 49.038578 108.96156 46.835938 111.32227 C 44.575111 113.75042 44.296126 117.29652 46.1875 119.54688 C 45.425238 121.80697 45.937938 124.15498 47.517578 125.62695 C 49.398606 127.37531 52.363989 127.50195 54.78125 125.9375 C 55.033548 126.37222 55.34384 126.76475 55.707031 127.10547 C 58.030547 129.27017 61.898644 128.89611 64.345703 126.26953 C 66.792762 123.64295 66.891875 119.75846 64.568359 117.59375 C 64.079046 117.14062 63.505468 116.78717 62.871094 116.54883 C 62.930854 116.35456 62.981925 116.15788 63.023438 115.96094 C 64.538633 115.74158 65.986993 114.96899 67.087891 113.79102 C 68.138237 112.66068 68.79895 111.23621 68.951172 109.77344 C 69.073414 109.70884 69.193666 109.64031 69.3125 109.56836 C 69.507508 109.84311 69.728685 110.09793 69.972656 110.32812 C 72.296172 112.49282 76.164268 112.11681 78.611328 109.49023 C 79.205891 108.84911 79.678979 108.11017 80.003906 107.31445 C 81.397653 107.73667 82.96138 107.59738 84.392578 106.92578 C 84.667282 107.46841 85.030342 107.95323 85.46875 108.36328 C 87.234402 110.00415 89.969553 110.22656 92.320312 108.91992 C 92.584082 109.4027 92.921223 109.83698 93.318359 110.20898 C 95.641867 112.37369 99.508018 111.99963 101.95508 109.37305 C 103.21507 108.01769 103.9043 106.25152 103.84961 104.51758 C 105.71376 105.27671 107.95575 104.95688 109.7793 103.67188 C 112.01145 105.67561 115.61625 105.41037 118.06055 103.0625 C 118.12465 104.5265 118.71834 105.8536 119.73047 106.79883 C 121.8694 108.78883 125.35453 108.64916 127.83398 106.47461 C 128.6778 106.08899 129.45118 105.53103 130.09766 104.83984 C 132.54472 102.21326 132.64381 98.328764 130.32031 96.164062 C 128.18137 94.174054 124.69625 94.313733 122.2168 96.488281 C 121.49559 96.820034 120.82548 97.276918 120.24219 97.837891 C 120.23319 97.610336 120.21028 97.386038 120.17578 97.164062 C 121.38149 96.81649 122.50046 96.121117 123.38672 95.169922 C 125.83378 92.543342 125.93484 88.660795 123.61133 86.496094 C 121.89988 84.902852 119.26675 84.63923 116.95312 85.830078 C 116.81083 85.653917 116.65816 85.487435 116.49414 85.332031 C 114.17062 83.167322 110.30253 83.541389 107.85547 86.167969 C 107.7155 86.321139 107.58184 86.480599 107.45508 86.644531 C 107.08301 86.607721 106.7051 86.605685 106.32422 86.640625 C 106.55629 84.790812 105.95917 83.034879 104.69727 81.857422 C 103.68073 80.910362 102.36713 80.450251 101.00781 80.451172 z M 160.58984 89.279297 C 160.77488 90.237847 161.14949 91.136613 161.68555 91.908203 C 160.97187 91.979903 160.27633 92.20187 159.63477 92.5625 C 159.405 92.11977 159.12963 91.709354 158.81445 91.339844 C 159.53495 90.811494 160.1416 90.107407 160.58984 89.279297 z M 100.08594 92.746094 C 99.895458 94.283659 100.2772 95.767314 101.15625 96.90625 C 100.76649 97.809777 100.57994 98.766735 100.60938 99.703125 C 99.302321 99.169543 97.787875 99.159917 96.347656 99.675781 C 96.833234 99.359051 97.281902 98.982904 97.681641 98.556641 C 99.182837 96.94238 99.856153 94.765069 99.472656 92.773438 C 99.675925 92.774738 99.881052 92.765494 100.08594 92.746094 z M -8.9492188 117.80078 L -8.9492188 155.55078 L 11.050781 155.55078 L 17.923828 155.30664 L 22.658203 149.89648 L 33.744141 150.99219 L 27.560547 145.26172 L 33.929688 141.28516 L 28.5625 136.89258 L 30.136719 131.23438 L 33.203125 134.17578 L 35.470703 130.66016 L 35.263672 123.9668 L 33.324219 126.29688 L 28.34375 126.4707 L 27.513672 120.42188 L 22.089844 125.98828 L 19.396484 118.91992 L 11.050781 117.80078 L -8.9492188 117.80078 z M 235.55078 129.26367 C 231.44904 129.26667 225.30536 130.34788 224.26953 131.69336 C 222.29347 132.78018 221.0382 135.04514 221.03516 137.5293 C 221.03716 138.95173 221.45127 140.33424 222.21484 141.46484 C 221.26053 141.88363 220.42244 142.58284 219.78711 143.49023 C 219.52048 143.67561 219.26769 143.8853 219.03125 144.11719 C 219.03325 144.08789 219.03416 144.0586 219.03516 144.0293 C 219.03516 140.43945 216.4608 137.5293 213.28516 137.5293 C 211.55924 137.5303 209.92512 138.40827 208.83398 139.91992 C 206.55596 140.84887 205.037 143.29172 205.03516 146.0293 C 205.03574 146.0501 205.03601 146.071 205.03711 146.0918 C 202.17752 146.51587 200.03839 149.26903 200.03516 152.5293 C 200.03816 155.55534 201.88734 158.17903 204.49609 158.85742 C 202.13488 159.73129 200.53726 162.2207 200.53516 165.0293 C 200.53716 167.23638 201.53038 169.29133 203.17188 170.48633 C 200.97776 171.46651 199.53593 173.86233 199.53516 176.5293 C 199.53608 180.10807 202.09591 183.01275 205.26172 183.02734 C 204.86581 183.60192 204.55813 184.24764 204.35156 184.9375 C 203.27373 183.71675 201.8109 183.0303 200.28516 183.0293 C 199.89926 183.0313 199.5145 183.077 199.13672 183.16602 C 198.27612 180.67338 196.15218 179.03159 193.78516 179.0293 C 190.60952 179.0293 188.03516 181.93945 188.03516 185.5293 C 188.03488 186.33569 188.16734 187.13511 188.42578 187.88672 C 186.986 188.44416 185.80043 189.62411 185.12891 191.16797 C 183.59098 191.52611 182.24952 192.57966 181.41602 194.08398 C 181.2772 193.98068 181.13449 193.88424 180.98828 193.79492 C 181.01728 193.54098 181.03286 193.28533 181.03516 193.0293 C 181.03516 189.43945 178.4608 186.5293 175.28516 186.5293 C 172.10952 186.5293 169.53516 189.43945 169.53516 193.0293 C 169.53716 193.25644 169.54937 193.48331 169.57227 193.70898 C 168.48323 192.32511 166.92365 191.53219 165.28516 191.5293 C 162.10952 191.5293 159.53516 194.43945 159.53516 198.0293 C 159.53816 200.16704 160.47059 202.16649 162.0293 203.37695 C 161.38168 204.4543 161.03533 205.72675 161.03516 207.0293 C 161.03716 207.54209 161.09296 208.0528 161.20117 208.55078 C 159.54283 209.74208 158.53742 211.80815 158.53516 214.0293 C 158.53616 216.86183 160.16011 219.36732 162.54883 220.22266 C 162.54183 220.32474 162.53766 220.42698 162.53516 220.5293 C 162.53516 224.11915 165.10952 227.0293 168.28516 227.0293 C 169.10051 227.0273 169.90609 226.8285 170.64844 226.44727 C 171.16658 227.61183 171.98249 228.57337 172.99023 229.20703 C 172.1893 229.41627 171.43739 229.8172 170.78516 230.38281 C 169.78223 229.50815 168.55186 229.03235 167.28516 229.0293 C 166.48854 229.0313 165.70106 229.22131 164.97266 229.58594 C 163.88776 228.27644 162.37226 227.53218 160.78516 227.5293 C 160.72006 227.5303 160.6549 227.53311 160.58984 227.53711 C 159.69966 225.11291 157.60706 223.53201 155.28516 223.5293 C 153.91571 223.5323 152.59216 224.08778 151.55273 225.0957 C 151.32807 225.0604 151.10177 225.04026 150.875 225.03516 C 150.26258 222.10417 147.9493 220.03253 145.28516 220.0293 C 142.89915 220.0323 140.76274 221.70097 139.91602 224.22266 C 137.34598 224.93492 129.40021 230.72912 129.26367 235.55078 L 129.26367 255.55078 L 235.55078 255.55078 L 255.57422 235.55078 L 255.55078 129.26367 L 235.55078 129.26367 z M 180.08594 134.85938 C 176.9103 134.85938 174.33594 137.76952 174.33594 141.35938 C 174.33894 143.1431 174.98984 144.84716 176.13672 146.07227 C 174.04952 146.68881 172.44321 148.57415 171.97656 150.95508 C 171.22675 150.56483 170.4114 150.36165 169.58594 150.35938 C 166.4103 150.35938 163.83594 153.26952 163.83594 156.85938 C 163.83594 160.44923 166.4103 163.35938 169.58594 163.35938 C 170.19951 163.35737 170.80877 163.24355 171.39062 163.02344 C 171.35653 163.30046 171.33824 163.57968 171.33594 163.85938 C 171.33594 167.44923 173.9103 170.35938 177.08594 170.35938 C 177.54891 170.35737 178.00992 170.29138 178.45898 170.16406 C 179.00665 173.18568 181.35744 175.35614 184.08594 175.35938 C 187.26158 175.35938 189.83594 172.44922 189.83594 168.85938 C 189.83394 167.96489 189.66811 167.08055 189.34961 166.26172 C 190.60836 165.02977 191.33292 163.2415 191.33594 161.35938 C 191.33394 159.749 190.80257 158.19692 189.8457 157.00391 C 190.49061 155.92826 190.83554 154.6588 190.83594 153.35938 C 190.83594 149.76952 188.26158 146.85938 185.08594 146.85938 C 183.92828 146.86237 182.79826 147.25951 181.84375 148 C 181.74495 147.87776 181.64195 147.75984 181.53516 147.64648 C 184.06717 146.90102 185.83471 144.31712 185.83594 141.35938 C 185.83594 137.76952 183.26158 134.85938 180.08594 134.85938 z M 111.07617 135.06641 C 108.021 135.07141 105.50245 137.77571 105.3418 141.22461 C 102.70691 141.8793 100.82893 144.51674 100.82617 147.56641 C 100.82817 148.4465 100.98836 149.31695 101.29688 150.125 C 101.05796 150.0884 100.81725 150.06881 100.57617 150.06641 C 97.400533 150.06641 94.826172 152.97656 94.826172 156.56641 C 94.827172 156.96225 94.860881 157.35711 94.925781 157.74609 C 93.870621 156.66706 92.499012 156.0686 91.076172 156.06641 C 87.900532 156.06641 85.326172 158.97656 85.326172 162.56641 C 85.328172 164.08224 85.79855 165.54965 86.65625 166.71484 C 86.11519 167.72596 85.828212 168.8847 85.826172 170.06641 C 85.828172 170.56709 85.881175 171.06584 85.984375 171.55273 C 85.552885 172.48247 85.327042 173.5165 85.326172 174.56641 C 85.326172 178.15626 87.900532 181.06641 91.076172 181.06641 C 92.004302 181.06541 92.918354 180.80974 93.740234 180.32227 C 94.830074 181.74451 96.411642 182.56308 98.076172 182.56641 C 101.25181 182.56641 103.82617 179.65626 103.82617 176.06641 C 103.82583 175.93415 103.82215 175.80191 103.81445 175.66992 C 104.72872 178.03422 106.79357 179.56332 109.07617 179.56641 C 112.25181 179.56641 114.82617 176.65626 114.82617 173.06641 C 114.82417 172.63926 114.78487 172.21336 114.70898 171.79492 C 116.68154 171.13126 118.18991 169.32644 118.66406 167.0625 C 121.80398 167.0082 124.32465 164.11629 124.32617 160.56641 C 124.32317 159.21981 123.95082 157.90741 123.25977 156.81055 C 125.1446 155.68618 126.32469 153.47555 126.32617 151.06641 C 126.32417 150.20347 126.17008 149.34963 125.87305 148.55469 C 125.94065 148.55969 126.00841 148.56371 126.07617 148.56641 C 129.25181 148.56641 131.82617 145.65626 131.82617 142.06641 C 131.82617 138.47656 129.25181 135.56641 126.07617 135.56641 C 123.96963 135.56663 122.0318 136.86899 121.02539 138.96094 C 120.4007 138.70302 119.7412 138.56951 119.07617 138.56641 C 118.16536 138.56683 117.26767 138.81184 116.45703 139.28125 C 115.615 136.74658 113.47128 135.06739 111.07617 135.06641 z M 217.03906 148.94141 C 217.03706 148.97071 217.03616 149 217.03516 149.0293 C 217.03501 149.61674 217.10536 150.20149 217.24414 150.76758 C 216.75763 150.92295 216.29137 151.15017 215.85742 151.44336 C 215.52663 151.14996 215.16837 150.89845 214.78906 150.69336 L 214.79102 150.69141 C 214.95021 150.51521 215.10019 150.3287 215.24023 150.13281 C 215.89905 149.86291 216.50868 149.45914 217.03906 148.94141 z M 224.37305 155.27344 C 224.35865 155.28774 224.34438 155.30201 224.33008 155.31641 L 224.32617 155.29102 C 224.34187 155.28502 224.35745 155.27934 224.37305 155.27344 z M 180.82031 157.72461 C 180.66376 157.99004 180.52472 158.26813 180.4043 158.55664 C 180.2695 158.44969 180.1307 158.34934 179.98828 158.25586 C 180.27819 158.10518 180.55648 157.92748 180.82031 157.72461 z M 96.726562 161.38672 C 96.919053 161.58578 97.123301 161.7698 97.337891 161.9375 C 97.377791 162.69419 97.534431 163.43715 97.800781 164.13281 C 97.381271 164.19661 96.969266 164.31252 96.572266 164.47852 C 96.740756 163.85902 96.826342 163.21453 96.826172 162.56641 C 96.825172 162.17057 96.791462 161.7757 96.726562 161.38672 z M 222.74023 161.74219 C 222.76723 161.84652 222.79653 161.95006 222.82812 162.05273 C 222.67315 162.06653 222.51872 162.08733 222.36523 162.11523 C 222.49495 161.99708 222.62007 161.87262 222.74023 161.74219 z M -8.9492188 165.80078 L -8.9492188 193.55078 L 11.050781 193.55078 L 17.705078 192.14258 L 23.041016 195.39258 L 27.662109 193.64648 L 28.136719 186.9707 L 25.691406 183.16992 L 27.814453 182.83203 L 27.589844 178.55664 L 30.367188 181.92773 L 31.808594 179.96875 L 35.253906 185.51172 L 32.5 189.92383 L 38.398438 188.73242 L 39.914062 193.59961 L 55.335938 195.5293 L 53.394531 200.7207 L 45.279297 205 L 43.429688 207.77344 L 38.126953 204.39453 L 38.195312 208.99609 L 31.382812 204.17773 L 25.386719 206.71289 L 18.566406 199.84375 L 11.050781 203.80078 L -8.9492188 203.80078 L -8.9492188 235.55078 L 11.050781 255.55078 L 117.33594 255.55078 L 117.33594 235.55078 L 106.96289 208.04883 L 87.675781 205.86914 L 81.478516 194.22852 L 72.490234 178.85742 L 52.65625 171.59961 L 11.050781 165.80078 L -8.9492188 165.80078 z M 107.33594 165.91992 C 107.35244 166.2284 107.38824 166.53518 107.44336 166.83789 C 106.12836 167.27972 104.99644 168.23846 104.25195 169.54102 C 104.17535 169.01061 104.04087 168.49299 103.85156 168 C 105.19349 167.7922 106.42745 167.05555 107.33594 165.91992 z M 220.5293 174.23438 C 220.69385 174.33542 220.86267 174.42734 221.03516 174.50977 L 221.03516 174.5293 C 221.03916 175.24982 221.14833 175.96464 221.35938 176.64453 C 221.29237 176.67763 221.22598 176.71213 221.16016 176.74805 C 220.89055 175.93037 220.47806 175.18244 219.94727 174.54883 C 220.14633 174.45643 220.34065 174.3514 220.5293 174.23438 z M 210.6875 174.32031 C 210.94992 174.4713 211.22219 174.59929 211.50195 174.70312 C 211.30355 174.95382 211.12268 175.22156 210.96094 175.50391 C 210.90294 175.10054 210.81136 174.70425 210.6875 174.32031 z M 225.05078 188.86328 C 225.12068 190.44178 225.697 191.93739 226.67188 193.07031 C 226.54733 193.35095 226.44093 193.64142 226.35352 193.93945 C 225.87869 193.40455 225.32477 192.96764 224.7168 192.64844 C 224.92622 191.96694 225.03381 191.25074 225.03516 190.5293 C 225.03116 189.98385 224.96596 189.44117 224.8418 188.91406 C 224.9117 188.89856 224.9814 188.88168 225.05078 188.86328 z M 190.0293 202.44727 C 190.19109 202.60629 190.36063 202.75496 190.53711 202.89258 C 190.20855 203.72216 190.03755 204.62037 190.03516 205.5293 C 190.0356 207.20967 190.6117 208.82454 191.64258 210.03516 C 190.93885 210.05546 190.24439 210.22158 189.59375 210.52539 C 189.88498 209.73438 190.03499 208.88608 190.03516 208.0293 C 190.03419 206.36078 189.46565 204.75658 188.44727 203.54883 C 189.02395 203.28102 189.55827 202.90898 190.0293 202.44727 z M 213.81641 203.78516 C 214.73197 205.5723 216.34432 206.76126 218.16016 206.98828 C 217.76131 207.35576 217.40788 207.78209 217.10938 208.25586 C 216.02441 206.8513 214.45809 206.0411 212.80859 206.03125 C 213.27085 205.36399 213.61322 204.60097 213.81641 203.78516 z M 225.04297 204.22461 C 225.03797 204.3261 225.03616 204.42767 225.03516 204.5293 C 225.03716 205.40155 225.19473 206.26438 225.49805 207.06641 C 224.62346 206.23134 223.54826 205.71039 222.41016 205.57031 C 222.60717 205.38659 222.79312 205.18823 222.9668 204.97656 C 223.69494 204.87786 224.39967 204.62264 225.04297 204.22461 z M 201.52734 205.71289 C 201.59274 205.73439 201.65854 205.75454 201.72461 205.77344 C 201.65651 205.79744 201.58876 205.82281 201.52148 205.84961 L 201.52734 205.71289 z M 208.125 208.52148 C 208.1705 208.52448 208.2161 208.52634 208.26172 208.52734 C 208.23662 208.56604 208.2119 208.60514 208.1875 208.64453 C 208.1671 208.60323 208.1462 208.56223 208.125 208.52148 z M 217.46094 216.30273 C 218.55097 217.71495 220.1272 218.52657 221.78516 218.5293 C 222.29654 218.52891 222.80558 218.4514 223.29883 218.29883 C 222.79942 219.28194 222.53615 220.39562 222.53516 221.5293 C 222.53816 221.62967 222.54213 221.72995 222.54883 221.83008 C 221.70174 221.30493 220.75128 221.02953 219.78516 221.0293 C 219.23971 221.0303 218.69716 221.1191 218.17383 221.29297 C 217.73613 219.944 216.91536 218.79699 215.83984 218.03125 C 216.47474 217.58009 217.02546 216.99289 217.46094 216.30273 z M 174.125 216.66797 C 174.1567 216.87317 174.1971 217.07652 174.24609 217.27734 C 173.96424 217.36484 173.68868 217.47648 173.42188 217.61133 C 173.35118 217.45557 173.27495 217.3031 173.19336 217.1543 C 173.51611 217.0239 173.8279 216.86114 174.125 216.66797 z M 190.89844 224.66016 C 191.26778 224.80589 191.64931 224.90864 192.03711 224.9668 C 192.03635 224.9876 192.03626 225.0085 192.03516 225.0293 C 192.03716 226.12992 192.28662 227.21191 192.75977 228.17383 C 192.16303 227.85082 191.52145 227.64664 190.86328 227.57031 C 190.97485 227.06625 191.03256 226.54889 191.03516 226.0293 C 191.03216 225.56873 190.98676 225.10978 190.89844 224.66016 z M 208.11914 227.31445 C 208.91613 228.56867 210.0821 229.46115 211.4082 229.83203 C 211.17259 230.14177 210.96333 230.47593 210.7832 230.83008 C 210.04896 229.3679 208.84209 228.28423 207.41602 227.80664 C 207.66054 227.66187 207.89552 227.49738 208.11914 227.31445 z M 202.83594 228.13672 C 202.94227 228.18132 203.04973 228.22232 203.1582 228.25977 C 203.03069 228.33197 202.90561 228.40949 202.7832 228.49219 C 202.7489 228.47029 202.7144 228.44883 202.67969 228.42773 C 202.73399 228.33223 202.78611 228.23525 202.83594 228.13672 z M 178.44141 229.29102 C 178.24303 229.54742 178.06278 229.82104 177.90234 230.10938 C 177.78642 230.13137 177.67114 230.1575 177.55664 230.1875 C 177.40396 230.0676 177.24621 229.95614 177.08398 229.85352 C 177.55559 229.73133 178.01167 229.54233 178.44141 229.29102 z " inkscape:connector-curvature="0" />
</g>
<g inkscape:groupmode="layer" id="routes_layer" inkscape:label="Routes" style="display:inline" sodipodi:insensitive="true" >
  <path style="display:inline;fill:none;stroke:#000000;stroke-width:2;stroke-linecap:round;stroke-miterlimit:4;stroke-dasharray:0.1, 5;stroke-dashoffset:0;stroke-opacity:1" d="M 49.557097,44.89192 C 72.550167,47.083584 87.337235,23.670729 85.88328,11.049981 l 0,-20.000001 m 67.89438,135.85752 c 9.54103,39.98529 -30.98277,66.72119 -30.47769,108.64252 l 0,20 m 132.25005,-132.24996 -20,0 c -41.92133,-0.50508 -60.07028,11.3885 -99.80303,-0.42537 -39.73276,-11.81387 -84.290886,40.87239 -124.696989,37.84193 l -20,0" inkscape:connector-curvature="0" />
</g>
<g inkscape:groupmode="layer" id="labels_layer" inkscape:label="Labels" style="display:inline" sodipodi:insensitive="true" >
  <text xml:space="preserve" style="font-style:normal;font-variant:normal;font-weight:normal;font-stretch:normal;font-size:10px;line-height:125%;font-family:CCTreasureTrove;-inkscape-font-specification:'CCTreasureTrove, Normal';text-align:start;letter-spacing:0px;word-spacing:0px;writing-mode:lr-tb;text-anchor:start;display:inline;fill:#5d481b;fill-opacity:1;stroke:none;stroke-width:1px;stroke-linecap:butt;stroke-linejoin:miter;stroke-opacity:1"><textPath xlink:href="#label-path"
>Shipwreck Landing</textPath></text>
</g>
<g inkscape:groupmode="layer" id="labels_guide_layer" inkscape:label="Labels Guide" style="display:none" sodipodi:insensitive="true" >
  <path id="label-path" style="color:#000000;fill:none;stroke:#000000;stroke-width:1;stroke-opacity:1" d="M 135.86408,19.317839 C 122.50186,42.83798 63.326915,67.111374 28.831996,68.669937" inkscape:connector-curvature="0" />
</g>
<g inkscape:groupmode="layer" id="resources_layer" inkscape:label="Resources" style="display:inline" sodipodi:insensitive="true" >
  <g id="resource-fish" transform="matrix(-0.99105593,0.13344721,-0.13344721,-0.99105593,28.973619,-63.061501)" >
    <path style="color:#000000;clip-rule:nonzero;display:inline;overflow:visible;visibility:visible;opacity:1;isolation:auto;mix-blend-mode:normal;color-interpolation:sRGB;color-interpolation-filters:linearRGB;solid-color:#000000;solid-opacity:1;fill:url(#gradientFish);fill-opacity:1;fill-rule:evenodd;stroke:none;stroke-width:0.89999998;stroke-linecap:round;stroke-linejoin:miter;stroke-miterlimit:4;stroke-dasharray:none;stroke-dashoffset:0;stroke-opacity:1;color-rendering:auto;image-rendering:auto;shape-rendering:auto;text-rendering:auto;enable-background:accumulate" d="m 6.75164,-116.27687 c 2.99065,0.60485 4.49367,1.24794 5.89266,2.66121 2.45016,2.47513 3.25045,6.5505 3.25045,6.5505 l -3.54035,0.49898 2.97008,0.83162 c -1.40188,1.23555 -2.8637,2.14124 -4.39572,2.68497 -2.28163,0.80975 -5.89735,1.19916 -8.27072,0.72096 -2.52003,-0.50774 -4.93787,-1.71891 -6.65678,-2.93199 -1.70292,-1.2018 -2.32599,-2.77049 -4.34245,-2.71421 -2.02435,0.0566 -3.06024,1.36024 -6.2744,2.54392 0.98841,-2.25668 1.48644,-4.44986 1.47742,-4.77248 -0.0131,-0.47021 -0.60937,-2.94625 -1.71029,-5.74037 4.56815,1.9526 4.13574,3.93892 6.7876,4.01568 1.65013,0.0477 2.8784,-2.27892 4.84548,-3.01143 0,0 0.0925,-0.76339 -0.85797,-2.09399 2.125,-1.125 5.3749,-2.84347 9.18238,-2.11673 0.63846,0.67205 1.20575,1.59646 1.64258,2.87336 z" inkscape:connector-curvature="0" />
    <path style="color:#000000;font-style:normal;font-variant:normal;font-weight:normal;font-stretch:normal;font-size:medium;line-height:normal;font-family:sans-serif;text-indent:0;text-align:start;text-decoration:none;text-decoration-line:none;text-decoration-style:solid;text-decoration-color:#000000;letter-spacing:normal;word-spacing:normal;text-transform:none;direction:ltr;block-progression:tb;writing-mode:lr-tb;baseline-shift:baseline;text-anchor:start;white-space:normal;clip-rule:nonzero;display:inline;overflow:visible;visibility:visible;opacity:1;isolation:auto;mix-blend-mode:normal;color-interpolation:sRGB;color-interpolation-filters:linearRGB;solid-color:#000000;solid-opacity:1;fill:#000000;fill-opacity:1;fill-rule:evenodd;stroke:none;stroke-width:0.89999998;stroke-linecap:round;stroke-linejoin:miter;stroke-miterlimit:4;stroke-dasharray:none;stroke-dashoffset:0;stroke-opacity:1;color-rendering:auto;image-rendering:auto;shape-rendering:auto;text-rendering:auto;enable-background:accumulate" d="m 3.75195,-119.76758 c -0.55834,-0.0162 -1.08956,0.007 -1.41992,0.0332 -3.44102,0.26924 -4.79186,1.37793 -7.48633,2.26368 0.80029,0.66264 1.38172,1.65445 1.58985,2.40625 -0.74252,0.46927 -1.56885,1.06749 -2.34375,1.66992 -0.78694,0.61179 -1.52805,1.08797 -2.13868,1.07031 -1.213,-0.0351 -1.55439,-0.52183 -2.3789,-1.23633 -1.98577,-1.72081 -3.07464,-2.29632 -5.23438,-3.2207 0.86297,2.18173 2.04317,4.50407 2.07227,6.58984 0.0263,1.88626 -1.13742,3.87948 -1.86328,5.54883 1.62081,-0.53562 3.22001,-1.34059 4.6289,-2.08398 0.89906,-0.47438 1.57632,-0.77317 2.49415,-0.79883 0.89038,-0.0249 1.40182,0.27656 1.98242,0.77734 0.25085,0.21637 0.51534,0.48279 0.79687,0.75586 -0.25647,0.40556 -0.79615,0.53695 -1.76562,1.10352 1.95514,0.58994 2.59141,1.85091 4.15625,2.49414 0.55665,-0.25793 1.08128,-0.52946 1.29882,-1.08594 1.28379,0.64871 2.70563,1.21308 4.19922,1.53906 0.0372,0.49232 -0.0779,0.96218 -0.52343,1.75 1.8525,-0.13727 3.11482,-0.49129 3.85351,-1.48437 1.90282,-0.0616 3.90491,-0.41501 5.41016,-0.94922 1.59542,-0.56623 3.08878,-1.52586 4.54297,-2.77148 0.22554,-0.1932 0.55832,-0.5479 0.15234,-0.66602 l -1.22851,-0.35742 1.51367,-0.22656 c 0.18187,-0.0272 0.35546,-0.2168 0.27734,-0.50586 -0.0502,-0.18564 -0.78361,-4.16347 -3.37305,-6.7793 -1.42433,-1.43886 -3.05654,-2.12894 -5.92382,-2.72852 -0.4724,-1.08092 -0.97717,-2.12518 -1.70508,-2.90429 -0.44021,-0.13092 -1.02565,-0.18691 -1.58399,-0.20313 z m -0.1289,0.86719 c 0.40991,0.0169 0.81105,0.0568 1.19922,0.10547 0.77961,0.94104 1.28338,2.04784 1.60937,2.96875 2.1946,0.39918 4.6041,1.23544 5.89453,2.52734 2.08816,2.09053 2.83239,5.19206 2.98633,5.86133 l -3.01953,0.42578 c -0.44473,0.0627 -0.45389,0.76792 -0.0586,0.87891 l 1.98242,0.55664 c -1.12071,0.87174 -2.24918,1.67981 -3.4375,2.10156 -0.33815,0.12001 -0.71912,0.22666 -1.11524,0.32617 -2.33138,-1.12461 -3.38072,-3.76269 -3.66601,-5.20312 -0.15295,-0.77226 -0.48459,-1.00055 -0.26758,0.46094 0.277,1.86552 1.35587,3.78888 2.74609,4.99218 -1.94553,0.34633 -4.16617,0.4437 -5.72851,0.12891 -2.43884,-0.49138 -4.81456,-1.67957 -6.48633,-2.85938 -0.79723,-0.56263 -1.35875,-1.23084 -2.01953,-1.80078 -0.66079,-0.56995 -1.57913,-0.96766 -2.54883,-0.93164 -0.96571,0.0359 -2.00556,0.34944 -2.93359,0.83789 -0.68049,0.35816 -1.62451,0.79789 -2.58789,1.22461 0.58514,-1.36212 1.15509,-2.85368 1.14062,-3.91797 -0.0229,-1.68436 -0.84568,-3.32406 -1.36523,-4.77929 1.43808,0.75542 2.36518,1.48293 3.00781,2.08984 0.79559,0.75138 1.70527,1.34121 2.9414,1.36523 0.8676,0.0169 1.85414,-0.60951 2.64454,-1.26171 1.07222,-0.88474 2.37395,-1.75346 3.82031,-2.3125 0.84286,-0.32579 2.17657,-0.81342 1.5664,-0.90821 -0.63083,-0.098 -1.90673,0.29013 -2.74804,0.65625 -0.21144,-0.67843 -0.52851,-1.28134 -0.85547,-1.77148 1.86816,-0.59893 2.90957,-1.50638 6.04687,-1.72852 0.42336,-0.0441 0.84204,-0.0501 1.25196,-0.0332 z" inkscape:connector-curvature="0" />
    <path style="color:#000000;clip-rule:nonzero;display:inline;overflow:visible;visibility:visible;opacity:1;isolation:auto;mix-blend-mode:normal;color-interpolation:sRGB;color-interpolation-filters:linearRGB;solid-color:#000000;solid-opacity:1;fill:#000000;fill-opacity:1;fill-rule:evenodd;stroke:none;stroke-width:0.89999998;stroke-linecap:round;stroke-linejoin:miter;stroke-miterlimit:4;stroke-dasharray:none;stroke-dashoffset:0;stroke-opacity:1;color-rendering:auto;image-rendering:auto;shape-rendering:auto;text-rendering:auto;enable-background:accumulate" d="m 4.14858,-108.59983 c -0.47489,-0.30307 -1.53655,-0.90869 -2.26472,-0.88862 -0.0804,0.002 -0.2543,0.14712 -0.15844,0.31108 0.47438,0.81135 0.88194,1.78963 0.81744,2.88053 -0.01,0.15682 0.0463,0.31282 0.28149,0.29908 0.85805,-0.0503 1.22499,-0.14313 1.82534,-0.42991 0.33162,-0.1584 0.28985,0.0295 -0.17284,0.32399 -0.42638,0.27143 -1.15747,0.57467 -1.60626,0.62419 -0.57111,0.063 -0.86938,-0.30115 -0.85559,-0.49509 0.0664,-0.93438 -0.40775,-2.23989 -0.84996,-3.00389 -0.64912,-1.12144 0.5114,-1.14367 1.04743,-1.03991 0.57353,0.11103 1.54086,0.51965 2.36735,1.37318 0.31578,0.3261 0.0887,0.37724 -0.43124,0.0454 z" inkscape:connector-curvature="0" />
    <ellipse cx="35.346939" cy="-105.813170" rx="0.855386" ry="1.092993" style="opacity:1;fill:#000000;fill-opacity:1;fill-rule:nonzero;stroke:none;stroke-width:0.89999998;stroke-linecap:butt;stroke-linejoin:round;stroke-miterlimit:4;stroke-dasharray:none;stroke-dashoffset:0;stroke-opacity:1" transform="matrix(0.97605309,-0.21753245,0.21753245,0.97605309,0,0)" />
  </g>
</g>
<g inkscape:groupmode="layer" id="edge_guides_layer" inkscape:label="Edges" style="display:none" sodipodi:insensitive="true" >
  <g id="guide0-1" transform="" >
    <rect x="156.475" y="-22.5" width="90.125" height="22.5" style="fill:#ffd291;stroke:#000000;stroke-width:0.9" />
    <rect x="164.1" y="-22.5" width="82.5" height="22.5" style="fill:#b4e982;stroke:#000000;stroke-width:0.9" />
    <rect x="178.975" y="-22.5" width="67.625" height="22.5" style="fill:#5adc4f;stroke:#000000;stroke-width:0.9" />
    <rect x="0" y="-22.5" width="156.475" height="22.5" style="fill:#b9deff;stroke:#000000;stroke-width:0.9" />
    <rect x="0" y="-22.5" width="114.5" height="22.5" style="fill:#9bceff;stroke:#000000;stroke-width:0.9" />
    <rect x="0" y="-22.5" width="66.25" height="22.5" style="fill:#73baff;stroke:#000000;stroke-width:0.9" />
    <path style="display:inline;fill:none;stroke:#000000;stroke-width:2;stroke-linecap:round;stroke-miterlimit:4;stroke-dasharray:0.1, 5;stroke-dashoffset:0;stroke-opacity:1" d="m 86.25,0 0,-22.5" inkscape:connector-curvature="0" />
  </g>
  <g id="guide1-7" transform="matrix(0,1,-1,0,246.6,0)" >
    <rect x="0" y="-22.5" width="246.6" height="22.5" style="fill:#b4e982;stroke:#000000;stroke-width:0.9" />
    <rect x="0" y="-22.5" width="118.036" height="22.5" style="fill:#5adc4f;stroke:#000000;stroke-width:0.9" />
    <rect x="128.564" y="-22.5" width="118.036" height="22.5" style="fill:#5adc4f;stroke:#000000;stroke-width:0.9" />
    <path style="display:inline;fill:none;stroke:#000000;stroke-width:2;stroke-linecap:round;stroke-miterlimit:4;stroke-dasharray:0.1, 5;stroke-dashoffset:0;stroke-opacity:1" d="m 123.75,0 0,-22.5" inkscape:connector-curvature="0" />
  </g>
  <g id="guide2-7" transform="matrix(-1,0,0,-1,246.6,246.6)" >
    <rect x="0" y="-22.5" width="246.6" height="22.5" style="fill:#b4e982;stroke:#000000;stroke-width:0.9" />
    <rect x="0" y="-22.5" width="118.036" height="22.5" style="fill:#5adc4f;stroke:#000000;stroke-width:0.9" />
    <rect x="128.564" y="-22.5" width="118.036" height="22.5" style="fill:#5adc4f;stroke:#000000;stroke-width:0.9" />
    <path style="display:inline;fill:none;stroke:#000000;stroke-width:2;stroke-linecap:round;stroke-miterlimit:4;stroke-dasharray:0.1, 5;stroke-dashoffset:0;stroke-opacity:1" d="m 123.75,0 0,-22.5" inkscape:connector-curvature="0" />
  </g>
  <g id="guide3-6" transform="matrix(0,-1,1,0,0,246.6)" >
    <rect x="0" y="-22.5" width="164.875" height="22.5" style="fill:#ffd291;stroke:#000000;stroke-width:0.9" />
    <rect x="0" y="-22.5" width="148" height="22.5" style="fill:#b4e982;stroke:#000000;stroke-width:0.9" />
    <rect x="0" y="-22.5" width="43.5" height="22.5" style="fill:#5adc4f;stroke:#000000;stroke-width:0.9" />
    <rect x="54.75" y="-22.5" width="39.5" height="22.5" style="fill:#5adc4f;stroke:#000000;stroke-width:0.9" />
    <rect x="105.5" y="-22.5" width="49.5" height="22.5" style="fill:#5adc4f;stroke:#000000;stroke-width:0.9" />
    <rect x="164.875" y="-22.5" width="81.725" height="22.5" style="fill:#b9deff;stroke:#000000;stroke-width:0.9" />
    <rect x="187.975" y="-22.5" width="58.625" height="22.5" style="fill:#9bceff;stroke:#000000;stroke-width:0.9" />
    <rect x="210.1" y="-22.5" width="36.5" height="22.5" style="fill:#73baff;stroke:#000000;stroke-width:0.9" />
    <path style="display:inline;fill:none;stroke:#000000;stroke-width:2;stroke-linecap:round;stroke-miterlimit:4;stroke-dasharray:0.1, 5;stroke-dashoffset:0;stroke-opacity:1" d="m 86.25,0 0,-22.5" inkscape:connector-curvature="0" />
  </g>
</g>
<g inkscape:groupmode="layer" id="id_layer" inkscape:label="Card ID" style="display:inline" sodipodi:insensitive="true" >
  <text xml:space="preserve" x="19.7" y="27.3" style="font-style:normal;font-variant:normal;font-weight:normal;font-stretch:normal;font-size:9px;line-height:125%;font-family:CCTreasureTrove;-inkscape-font-specification:'CCTreasureTrove, Normal';text-align:start;letter-spacing:0px;word-spacing:0px;writing-mode:lr-tb;text-anchor:start;display:inline;fill:#606060;fill-opacity:1;stroke:none;stroke-width:1px;stroke-linecap:butt;stroke-linejoin:miter;stroke-opacity:1" 
>1776c</text></g>
<g inkscape:groupmode="layer" id="cut_layer" inkscape:label="Cut Line" style="display:none" sodipodi:insensitive="true" >
  <rect x="11.25" y="11.25" width="224.5" height="224.5" style="fill:none;stroke:#000000;stroke-width:0.5;stroke-linecap:butt;stroke-linejoin:bevel;stroke-miterlimit:4;stroke-dasharray:none;stroke-opacity:1" ry="11.338962" />
</g>
<g inkscape:groupmode="layer" id="page_border_layer" inkscape:label="Page Border" style="display:none" sodipodi:insensitive="true" >
  <rect x="0" y="0" width="246.6" height="246.6" style="fill:none;stroke:#000000;stroke-width:0.5;stroke-linecap:butt;stroke-linejoin:bevel;stroke-miterlimit:4;stroke-dasharray:none;stroke-opacity:1" />
</g>

</svg>
