<?xml version="1.0" encoding="UTF-8" standalone="no"?>
<svg version="1.1" height="246.6" width="246.6" inkscape:version="0.91 r13725" xmlns:rdf="http://www.w3.org/1999/02/22-rdf-syntax-ns#" xmlns="http://www.w3.org/2000/svg" xmlns:cc="http://creativecommons.org/ns#" xmlns:xlink="http://www.w3.org/1999/xlink" xmlns:dc="http://purl.org/dc/elements/1.1/" xmlns:sodipodi="http://sodipodi.sourceforge.net/DTD/sodipodi-0.dtd" xmlns:svg="http://www.w3.org/2000/svg" xmlns:inkscape="http://www.inkscape.org/namespaces/inkscape">
<metadata>
  <rdf:RDF>
    <cc:Work rdf:about="">
      <dc:format>image/svg+xml</dc:format>
      <dc:type rdf:resource="http://purl.org/dc/dcmitype/StillImage"/>
      <dc:title/>
      <dc:creator>
        <cc:Agent><dc:title>Gary Kacmarcik</dc:title></cc:Agent>
      </dc:creator>
    </cc:Work>
  </rdf:RDF>
</metadata>

<defs>
  <filter inkscape:collect="always" inkscape:label="blurWaterDeep" style="color-interpolation-filters:sRGB" id="blurWaterDeep" x="-0.056691" y="-0.041620" width="1.113381" height="1.083239">
    <feGaussianBlur inkscape:collect="always" stdDeviation="6.919136" />
  </filter>
  <filter inkscape:collect="always" inkscape:label="blurWaterShallow" style="color-interpolation-filters:sRGB" id="blurWaterShallow" x="-0.055818" y="-0.042103" width="1.111637" height="1.084205">
    <feGaussianBlur inkscape:collect="always" stdDeviation="6.561501" />
  </filter>
  <filter inkscape:collect="always" inkscape:label="blurWaterHilight" style="color-interpolation-filters:sRGB" id="blurWaterHilight" x="-0.250000" y="-0.250000" width="1.500000" height="1.500000">
    <feGaussianBlur inkscape:collect="always" stdDeviation="6.857532" />
  </filter>
  <filter inkscape:collect="always" inkscape:label="blurGrass" style="color-interpolation-filters:sRGB" id="blurGrass" x="-0.100000" y="-0.100000" width="1.200000" height="1.200000">
    <feGaussianBlur inkscape:collect="always" stdDeviation="0.800000" />
  </filter>
  <filter inkscape:collect="always" inkscape:label="blurForestShadow" style="color-interpolation-filters:sRGB" id="blurForestShadow" x="-0.100000" y="-0.100000" width="1.200000" height="1.200000">
    <feGaussianBlur inkscape:collect="always" stdDeviation="0.800000" />
  </filter>
  <filter inkscape:collect="always" inkscape:label="blurFlowerInner" style="color-interpolation-filters:sRGB" id="blurFlowerInner" x="-0.420000" y="-0.420000" width="1.840000" height="1.840000">
    <feGaussianBlur inkscape:collect="always" stdDeviation="1.605540" />
  </filter>
  <filter inkscape:collect="always" inkscape:label="blurFlowerMiddle" style="color-interpolation-filters:sRGB" id="blurFlowerMiddle" x="-0.240000" y="-0.240000" width="1.480000" height="1.480000">
    <feGaussianBlur inkscape:collect="always" stdDeviation="1.933705" />
  </filter>
  <linearGradient id="gradientStopsFish" inkscape:collect="always">
    <stop offset="0.000000" style="stop-color:#ff5555;stop-opacity:1.000000" />
    <stop offset="1.000000" style="stop-color:#ffffff;stop-opacity:1.000000" />
  </linearGradient>
  <linearGradient id="gradientStopsCoconut" inkscape:collect="always">
    <stop offset="0.000000" style="stop-color:#ffffff;stop-opacity:1.000000" />
    <stop offset="1.000000" style="stop-color:#c8c8c8;stop-opacity:0.000000" />
  </linearGradient>
  <linearGradient id="gradientStopsFlower" inkscape:collect="always">
    <stop offset="0.000000" style="stop-color:#b16dff;stop-opacity:1.000000" />
    <stop offset="1.000000" style="stop-color:#e7d2ff;stop-opacity:1.000000" />
  </linearGradient>
  <linearGradient id="gradientFish" xlink:href="#gradientStopsFish" x1="178.789090" y1="-114.782830" x2="180.407300" y2="-103.782830" gradientTransform="translate(-178.76256,1.0606602)" gradientUnits="userSpaceOnUse" inkscape:collect="always" />
  <radialGradient id="gradientCoconut" xlink:href="#gradientStopsCoconut" cx="1.944096" cy="-60.612652" fx="1.944096" fy="-60.612652" r="6.723294" gradientUnits="userSpaceOnUse" gradientTransform="matrix(1.691364,-0.31394812,0.29762395,1.603419,17.826033,-7.042221)" inkscape:collect="always" />
  <radialGradient id="gradientFlower" xlink:href="#gradientStopsFlower" cx="60.884877" cy="-69.652750" fx="60.884877" fy="-69.652750" r="15.835310" gradientUnits="userSpaceOnUse" gradientTransform="matrix(0.8413905,0,0,0.87120012,-50.722984,-48.679159)" inkscape:collect="always" />
</defs>

<sodipodi:namedview
    id="base"
    pagecolor="#ffffff"
    bordercolor="#666666"
    borderopacity="1.0"
    inkscape:pageopacity="0.0"
    inkscape:pageshadow="2"
    inkscape:zoom="2"
    inkscape:cx="115.37643"
    inkscape:cy="285.04449"
    inkscape:document-units="in"
    showgrid="true"
    units="in"
    inkscape:window-width="1392"
    inkscape:window-height="836"
    inkscape:window-x="39"
    inkscape:window-y="6"
    inkscape:window-maximized="0"
    inkscape:snap-grids="true"
    inkscape:snap-to-guides="true"
    inkscape:snap-nodes="true"
    inkscape:object-nodes="true"
    inkscape:snap-smooth-nodes="true"
    inkscape:snap-intersection-paths="true"
    inkscape:object-paths="true"
    inkscape:snap-bbox="true"
    inkscape:bbox-nodes="true"
    inkscape:snap-others="true"
    inkscape:bbox-paths="false"
    inkscape:snap-global="true" >
  <inkscape:grid
    type="xygrid"
    id="grid3051"
    empspacing="2"
    visible="true"
    enabled="true"
    snapvisiblegridlinesonly="true"
    spacingx="0.0625in"
    spacingy="0.0625in"
    dotted="false"
    units="in" />
</sodipodi:namedview>
<g inkscape:groupmode="layer" id="water_layer" inkscape:label="Water" style="display:inline" sodipodi:insensitive="true" >
  <rect id="water" x="0" y="0" width="246.6" height="246.6" style="fill:#b9deff;fill-opacity:1;stroke:none" />
</g>
<g inkscape:groupmode="layer" id="water_medium_layer" inkscape:label="Water Shallow" style="display:inline" sodipodi:insensitive="true" >
  <path style="fill:#9bd1ff;fill-opacity:0.70;fill-rule:evenodd;stroke:none;filter:url(#blurWaterShallow)" d="m 102.53048,46.084722 -28.597931,5.098031 -16.85893,-1.057424 -25.075243,10.33086 -20.948375,-2.531229 -20.000001,0 10e-6,-46.87492 19.99999,-19.9999902 102.74995,-6.98e-5 0,20.000001 z" inkscape:connector-curvature="0" />
</g>
<g inkscape:groupmode="layer" id="water_deep_layer" inkscape:label="Water Deep" style="display:inline" sodipodi:insensitive="true" >
  <path style="fill:#87c8ff;fill-opacity:0.60;fill-rule:evenodd;stroke:none;filter:url(#blurWaterDeep)" d="m 60.104076,28.912129 -26.628215,7.888515 -22.42586,-1.000684 -20.000001,0 10e-6,-24.74994 19.99999,-19.9999902 54.49995,-4.98e-5 0,20.000001 z" inkscape:connector-curvature="0" />
</g>
<g inkscape:groupmode="layer" id="water_hilight_layer" inkscape:label="Water Hilight" style="display:inline" sodipodi:insensitive="true" >
  <use xlink:href="#shoreline" height="100%" width="100%" x="0" y="0" style="display:inline;fill:#ffffff;fill-opacity:1;stroke:#ffffff;stroke-opacity:1;filter:url(#blurWaterHilight)" />
</g>
<g inkscape:groupmode="layer" id="shoreline_layer" inkscape:label="Shoreline" style="display:inline" sodipodi:insensitive="true" >
  <use xlink:href="#shoreline" height="100%" width="100%" x="0" y="0" style="display:inline;fill:#ffddab;fill-opacity:1;stroke:#5f4c14;stroke-width:1;stroke-miterlimit:4;stroke-dasharray:none;stroke-opacity:1" />
</g>
<g inkscape:groupmode="layer" id="shoreline_master_layer" inkscape:label="Shoreline Master" style="display:none" sodipodi:insensitive="true" >
  <path id="shoreline" style="color:#000000;clip-rule:nonzero;display:inline;overflow:visible;visibility:visible;opacity:1;isolation:auto;mix-blend-mode:normal;color-interpolation:sRGB;color-interpolation-filters:linearRGB;solid-color:#000000;solid-opacity:1;fill-opacity:1;fill-rule:evenodd;color-rendering:auto;image-rendering:auto;shape-rendering:auto;text-rendering:auto;enable-background:accumulate" d="m 234.36159,255.55002 21.2132,-20 -0.0245,-224.50002 -20.00031,-20.00002 -80.375,0 0,20.000001 -6.98024,16.49165 -17.3352,27.865633 -44.495294,14.285905 -39.397753,10.851707 -15.893698,2.431434 -20.022764,-2.55135 -20.000001,0 10e-6,155.12512 20.00001,20 z" inkscape:connector-curvature="0" />
</g>
<g inkscape:groupmode="layer" id="grass_layer" inkscape:label="Grass" style="display:inline" sodipodi:insensitive="true" >
  <use xlink:href="#grass" height="100%" width="100%" x="0" y="0" style="display:inline;fill:#b4e982;fill-opacity:1;stroke:none;stroke-width:1;stroke-miterlimit:4;stroke-dasharray:none;stroke-opacity:1" />
</g>
<g inkscape:groupmode="layer" id="grass_master_layer" inkscape:label="Grass Master" style="display:none" sodipodi:insensitive="true" >
  <path id="grass" style="color:#000000;clip-rule:nonzero;display:inline;overflow:visible;visibility:visible;opacity:1;isolation:auto;mix-blend-mode:normal;color-interpolation:sRGB;color-interpolation-filters:linearRGB;solid-color:#000000;solid-opacity:1;fill-opacity:1;fill-rule:evenodd;filter:url(#blurGrass);color-rendering:auto;image-rendering:auto;shape-rendering:auto;text-rendering:auto;enable-background:accumulate" d="m 234.83813,255.55008 20.70813,-20 0.004,-224.50008 -20,-20.00002 -70.75006,0 0,20.000001 2.83272,13.304159 3.26535,15.708661 -10.55665,17.949289 -23.57939,14.194666 -45.21882,7.045692 -50.793881,17.794964 -29.699278,2.252548 -20.000001,0 10e-6,136.25006 20.00001,20.00006 z" inkscape:connector-curvature="0" />
</g>
<g inkscape:groupmode="layer" id="forest_shadow_layer" inkscape:label="Forest Shadow" style="display:inline" sodipodi:insensitive="true" >
  <g style="filter:url(#blurForestShadow)" >
    <use xlink:href="#forest" height="100%" width="100%" x="0" y="0" style="display:inline;opacity:0.75;fill:#258c1b;fill-opacity:1" />
  </g>
</g>
<g inkscape:groupmode="layer" id="forest_fill_layer" inkscape:label="Forest Fill" style="display:inline" sodipodi:insensitive="true" >
  <use xlink:href="#forest" height="100%" width="100%" x="0" y="0" style="fill:#7ebd47;fill-opacity:1;fill-rule:nonzero;stroke:#496e28;stroke-width:0.5;stroke-linecap:round;stroke-linejoin:round;stroke-miterlimit:4;stroke-dasharray:none;stroke-dashoffset:0;stroke-opacity:1" />
</g>
<g inkscape:groupmode="layer" id="forest_master_layer" inkscape:label="Forest Master" style="display:none" sodipodi:insensitive="true" >
  <path id="forest" style="color:#000000;clip-rule:nonzero;display:inline;overflow:visible;visibility:visible;opacity:1;isolation:auto;mix-blend-mode:normal;color-interpolation:sRGB;color-interpolation-filters:linearRGB;solid-color:#000000;solid-opacity:1;fill-opacity:1;fill-rule:nonzero;color-rendering:auto;image-rendering:auto;shape-rendering:auto;text-rendering:auto;enable-background:accumulate" d="M 179.67578,-8.9492188 V 11.050781 c -0.37881,4.026732 2.17969,2.63086 2.17969,2.63086 0.28909,-0.001 0.57767,-0.02763 0.86328,-0.07813 0.75242,1.68443 2.11523,2.9161 3.73437,3.375 -0.22768,0.70614 -0.34531,1.451555 -0.34765,2.203125 8.7e-4,0.78205 0.12659,1.557492 0.37109,2.289062 -0.88471,1.17517 -1.37072,2.667818 -1.37109,4.210938 0,3.58985 2.57436,6.5 5.75,6.5 1.20577,-0.003 2.38027,-0.433832 3.35742,-1.232422 -0.0704,0.406 -0.10639,0.818692 -0.10742,1.232422 5.2e-4,1.71634 0.60152,3.362788 1.67187,4.580078 -0.75792,1.12744 -1.16939,2.503862 -1.17187,3.919922 6.4e-4,0.56723 0.067,1.131917 0.19726,1.679687 -1.95716,1.09617 0.59189,5.623966 3.24219,7.966797 4.29315,2.579695 14.0646,1.701172 17.24024,1.701172 0.44615,-0.0023 0.89053,-0.06322 1.32422,-0.181641 0.63056,1.468071 1.72658,2.614287 3.07031,3.210938 -1.64807,1.19555 -2.6446,3.257056 -2.64453,5.470703 0,3.589851 2.57436,6.5 5.75,6.5 0.81758,-0.0027 1.62526,-0.202444 2.36914,-0.585938 0.18954,0.430588 0.42077,0.836065 0.68945,1.208985 -2.01677,1.069154 -3.30583,3.358883 -3.30859,5.876953 0.001,2.402997 1.17539,4.609105 3.05273,5.736328 -0.36178,0.864068 -0.55051,1.807709 -0.55273,2.763672 0.001,2.122781 0.91913,4.111192 2.45898,5.326172 -1.35238,0.85039 -2.34445,2.28111 -2.75195,3.96875 -1.06679,-1.14944 -2.48328,-1.791972 -3.95703,-1.794922 -3.17564,0 -5.75,2.91015 -5.75,6.5 0.001,2.39969 1.1717,4.603493 3.04492,5.732423 -0.0284,0.25463 -0.0434,0.51094 -0.0449,0.76758 0.002,2.873 1.67183,5.40389 4.10742,6.22461 0.39934,2.35643 1.91452,4.27256 3.9414,4.98437 -0.0305,0.2623 -0.0468,0.52647 -0.0488,0.79102 1.93216,-0.19995 8.10752,2.80664 9.51562,2.80664 h 20 V 11.050781 l -20,-19.9999998 z m 36.45313,26.4687498 c 0.74366,0.87613 1.68954,1.499288 2.73047,1.798828 -1.45976,1.22411 -2.32157,3.156338 -2.32422,5.210938 4.7e-4,0.1721 0.007,0.344105 0.0195,0.515625 -0.0897,-0.008 -0.17959,-0.01282 -0.26953,-0.01563 -0.0547,0.001 -0.10941,0.0029 -0.16407,0.0059 0.10653,-0.49303 0.16157,-0.998389 0.16407,-1.505859 -0.002,-1.61038 -0.53337,-3.162449 -1.49024,-4.355469 0.52594,-0.46008 0.9773,-1.019817 1.33399,-1.654297 z m -19.58594,7.25586 c 0.44572,0.50397 0.96172,0.921628 1.52734,1.236328 -0.56201,0.20761 -1.09233,0.511973 -1.57226,0.902343 0.0704,-0.405999 0.10639,-0.818681 0.10742,-1.232421 -0.002,-0.30336 -0.023,-0.60618 -0.0625,-0.90625 z m 30.41601,3.53125 c 0.059,0.0771 0.11955,0.152662 0.18164,0.226562 -1.02808,1.20853 -1.60331,2.819414 -1.60546,4.496094 0.003,0.54798 0.0673,1.093317 0.1914,1.623047 -0.76346,-0.40781 -1.597,-0.620527 -2.4414,-0.623047 -0.62537,0.003 -1.24615,0.120869 -1.83789,0.349609 0.385,-0.88701 0.58606,-1.861569 0.58789,-2.849609 -4.7e-4,-0.1721 -0.007,-0.344115 -0.0195,-0.515625 0.0897,0.008 0.1796,0.01282 0.26954,0.01563 1.85527,-0.002 3.59567,-1.015876 4.67382,-2.722656 z m 1.8086,9.388671 c 0.062,0.12746 0.12781,0.252531 0.19726,0.375 -0.283,0.780381 -0.42893,1.615575 -0.42968,2.458985 0.002,0.17216 0.01,0.344165 0.0234,0.515625 -0.091,-0.008 -0.18219,-0.01293 -0.27343,-0.01563 -0.0912,8e-4 -0.18237,0.0038 -0.27344,0.0098 0.0137,-0.16951 0.0215,-0.339565 0.0234,-0.509765 -0.002,-0.72092 -0.11043,-1.436418 -0.32032,-2.117188 0.37255,-0.19573 0.72549,-0.436036 1.05274,-0.716797 z m -7.23438,9.271485 c 0.24917,0.03941 0.50037,0.06029 0.75196,0.0625 0.0912,-8.03e-4 0.18236,-0.0041 0.27343,-0.0098 -0.0137,0.16951 -0.0215,0.339563 -0.0234,0.509766 7.4e-4,0.05405 0.002,0.108094 0.004,0.162109 -0.3378,-0.08431 -0.68164,-0.133994 -1.02734,-0.148437 0.0138,-0.170809 0.0217,-0.342167 0.0234,-0.513672 -5.8e-4,-0.02084 -8.8e-4,-0.04167 -0.002,-0.0625 z m 8.38672,6.789062 c 0.0712,0.09482 0.14482,0.187302 0.2207,0.277344 -0.73482,0.867793 -1.24254,1.94881 -1.46679,3.123047 -0.0418,0.01054 -0.0834,0.02161 -0.125,0.0332 -0.48458,-0.610916 -1.06711,-1.11259 -1.7168,-1.478515 0.13243,-0.548103 0.20073,-1.113469 0.20313,-1.681641 -7.1e-4,-0.05405 -0.002,-0.108093 -0.004,-0.162109 0.41144,0.105884 0.83194,0.160247 1.25391,0.162109 0.55373,-0.0017 1.10433,-0.09378 1.63476,-0.273438 z m -44.22265,6.123047 c -1.89328,-2.8e-4 -3.66536,1.053027 -4.73829,2.816406 -0.5691,-0.208429 -1.16349,-0.315176 -1.76171,-0.316406 -0.414,0.002 -0.82655,0.0556 -1.23047,0.158203 -1.08839,-1.37075 -2.64013,-2.155143 -4.26953,-2.158203 -3.17564,0 -5.75,2.91015 -5.75,6.5 0.001,0.18652 0.01,0.372894 0.0254,0.558594 -0.50603,0.0726 -1.00127,0.221076 -1.47266,0.441406 -0.8921,-2.42032 -2.98326,-3.99774 -5.30273,-4 -3.17564,0 -5.75,2.91015 -5.75,6.5 0.003,1.14038 0.27082,2.259884 0.77734,3.246094 -0.43956,0.86035 -0.6988,1.823163 -0.75781,2.814453 -0.5442,0.0788 -1.07564,0.245161 -1.57813,0.494141 -1.08616,-1.30986 -2.6032,-2.053538 -4.1914,-2.054688 -3.17564,0 -5.75,2.91015 -5.75,6.5 0,3.58985 2.57436,6.5 5.75,6.5 0.17611,-0.001 0.35208,-0.01185 0.52734,-0.03125 0.26884,0.96428 0.73296,1.844373 1.35547,2.570313 -1.641,1.19678 -2.63249,3.253337 -2.63281,5.460937 0.002,2.81109 1.36591,2.46099 3.73004,3.33277 -0.9424,1.189444 -1.46452,2.729414 -1.46679,4.326184 0,3.58985 2.57436,6.5 5.75,6.5 3.17564,0 5.75,-2.91015 5.75,-6.5 -0.47551,-2.17614 -0.0591,-1.03556 -0.16993,-1.53907 0.0731,-0.009 0.14602,-0.0192 0.21875,-0.0312 1.08609,1.31841 2.84426,4.90924 4.43793,4.91137 2.67022,-0.003 4.98718,-2.08384 5.59375,-5.02344 0.13513,0.0132 0.27063,0.0211 0.40625,0.0234 2.63285,-0.004 4.92677,-2.029479 5.56835,-4.916019 0.88677,0.59727 1.89942,0.913675 2.93165,0.916015 3.17564,0 5.75,-2.91015 5.75,-6.5 v -0.01367 c 0.0832,0.007 0.16659,0.01117 0.25,0.01367 3.17564,0 5.75,-2.91015 5.75,-6.5 -0.003,-2.01937 -0.83567,-3.92258 -2.25391,-5.15039 1.98758,-1.08269 3.25187,-3.35552 3.25391,-5.84961 -0.003,-2.46988 -1.24425,-4.724359 -3.20313,-5.818359 0.13243,-0.5481 0.20073,-1.113471 0.20313,-1.681641 0,-3.58985 -2.57436,-6.5 -5.75,-6.5 z m -2.7461,13.91211 c -0.002,0.0293 -0.003,0.05859 -0.004,0.08789 8.7e-4,0.0475 0.002,0.0951 0.004,0.142578 -0.0445,-0.0326 -0.0895,-0.0645 -0.13476,-0.0957 0.0455,-0.0441 0.0905,-0.089 0.13476,-0.134765 z m -8.61523,1.353515 c 0.21462,0.17624 0.43976,0.335463 0.67383,0.476563 -0.17389,0.27947 -0.32801,0.573999 -0.46094,0.880859 -0.0967,-0.27198 -0.20961,-0.536256 -0.33789,-0.791015 0.0491,-0.18659 0.0909,-0.375587 0.125,-0.566407 z m -73.32813,5.306641 c -1.747687,0.0012 -3.572745,0.764736 -4.949216,2.242187 -1.501196,1.614261 -2.176466,3.791571 -1.792969,5.783203 -1.826127,-0.01578 -3.661639,0.807369 -4.998047,2.240235 -1.945708,2.088947 -2.458934,5.057797 -1.263672,7.316406 -0.03498,0.01525 -0.06872,0.03109 -0.103515,0.04687 -0.274703,-0.542628 -0.637763,-1.02941 -1.076172,-1.439453 -2.323516,-2.164709 -6.191613,-1.78869 -8.638672,0.837891 -0.59456,0.641112 -1.067652,1.380064 -1.392578,2.175781 -1.646985,-0.500752 -3.520646,-0.215 -5.123047,0.781253 -0.195008,-0.27475 -0.414232,-0.527622 -0.658203,-0.757816 -2.323516,-2.164708 -6.191613,-1.790638 -8.638672,0.835936 -1.050346,1.13034 -1.711059,2.55481 -1.863281,4.01758 -0.678927,0.36779 -1.300814,0.84835 -1.835938,1.41992 -0.883707,0.95147 -1.49417,2.11585 -1.753906,3.3418 -0.718764,0.10659 -1.429316,0.33809 -2.097656,0.68555 -2.383025,-1.5891 -5.783688,-1.01696 -7.986328,1.34375 -2.260827,2.42815 -2.539812,5.97425 -0.648438,8.22461 -0.762262,2.26009 -0.249562,4.6081 1.330078,6.08007 1.881028,1.74836 4.846411,1.875 7.263672,0.31055 0.252298,0.43472 0.56259,0.82725 0.925781,1.16797 2.323516,2.1647 6.191613,1.79064 8.638672,-0.83594 2.447059,-2.62658 2.546172,-6.51107 0.222656,-8.67578 -0.489313,-0.45313 -1.062891,-0.80658 -1.697265,-1.04492 0.05976,-0.19427 0.110831,-0.39095 0.152344,-0.58789 1.515195,-0.21936 2.963555,-0.99195 4.064453,-2.16992 1.050346,-1.13034 1.711059,-2.55481 1.863281,-4.01758 0.122242,-0.0646 0.242494,-0.13313 0.361328,-0.20508 0.195008,0.27475 0.416185,0.52957 0.660156,0.75976 2.323516,2.1647 6.191612,1.78869 8.638672,-0.83789 0.594563,-0.64112 1.067651,-1.38006 1.392578,-2.17578 1.393747,0.42222 2.957474,0.28293 4.388672,-0.38867 0.274704,0.54263 0.637764,1.02745 1.076172,1.4375 1.765652,1.64087 4.500803,1.86328 6.851562,0.55664 0.26377,0.48278 0.600911,0.91706 0.998047,1.28906 2.323508,2.16471 6.189659,1.79065 8.636721,-0.83593 1.25999,-1.35536 1.94922,-3.12153 1.89453,-4.85547 1.86415,0.75913 4.10614,0.4393 5.92969,-0.8457 2.23215,2.00373 5.83695,1.73849 8.28125,-0.60938 0.0641,1.464 0.65779,2.7911 1.66992,3.73633 2.13893,1.99 5.62406,1.85033 8.10351,-0.32422 0.84382,-0.38562 1.6172,-0.94358 2.26368,-1.63477 2.44706,-2.62658 2.54615,-6.511076 0.22265,-8.675778 -2.13894,-1.990008 -5.62406,-1.850329 -8.10351,0.324219 -0.72121,0.331753 -1.39132,0.788637 -1.97461,1.34961 -0.009,-0.227555 -0.0319,-0.451853 -0.0664,-0.673829 1.20571,-0.347572 2.32468,-1.042945 3.21094,-1.99414 2.44706,-2.62658 2.54812,-6.509127 0.22461,-8.673828 -1.71145,-1.593242 -4.34458,-1.856864 -6.65821,-0.666016 -0.14229,-0.176161 -0.29496,-0.342643 -0.45898,-0.498047 -2.32352,-2.164709 -6.19161,-1.790642 -8.63867,0.835938 -0.13997,0.15317 -0.27363,0.31263 -0.40039,0.476562 -0.37207,-0.03681 -0.74998,-0.03885 -1.13086,-0.0039 0.23207,-1.849813 -0.36505,-3.605746 -1.62695,-4.783203 -1.01654,-0.94706 -2.33014,-1.407171 -3.68946,-1.40625 z m 59.58203,8.828125 c 0.18504,0.95855 0.55965,1.857316 1.09571,2.628906 -0.71368,0.0717 -1.40922,0.293667 -2.05078,0.654297 -0.22977,-0.44273 -0.50514,-0.853146 -0.82032,-1.222656 0.7205,-0.52835 1.32715,-1.232437 1.77539,-2.060547 z m -60.5039,3.466797 c -0.190482,1.537565 0.19126,3.02122 1.07031,4.160156 -0.38976,0.903527 -0.57631,1.860485 -0.54687,2.796875 -1.307059,-0.533582 -2.821505,-0.543208 -4.261724,-0.02734 0.485578,-0.31673 0.934246,-0.692877 1.333985,-1.11914 1.501196,-1.614261 2.174512,-3.791572 1.791015,-5.783203 0.203269,0.0013 0.408396,-0.0079 0.613284,-0.02734 z M -8.9492188,117.80078 v 37.75 H 11.050781 l 6.873047,-0.24414 4.734375,-5.41016 11.085938,1.09571 -6.183594,-5.73047 6.369141,-3.97656 -5.367188,-4.39258 1.574219,-5.6582 3.066406,2.9414 2.267578,-3.51562 -0.207031,-6.69336 -1.939453,2.33008 -4.980469,0.17382 -0.830078,-6.04882 -5.423828,5.5664 -2.69336,-7.06836 -8.345703,-1.11914 z M 235.55078,129.26367 c -4.10174,0.003 -10.24542,1.08421 -11.28125,2.42969 -1.97606,1.08682 -3.23133,3.35178 -3.23437,5.83594 0.002,1.42243 0.41611,2.80494 1.17968,3.93554 -0.95431,0.41879 -1.7924,1.118 -2.42773,2.02539 -0.26663,0.18538 -0.51942,0.39507 -0.75586,0.62696 0.002,-0.0293 0.003,-0.0586 0.004,-0.0879 0,-3.58985 -2.57436,-6.5 -5.75,-6.5 -1.72592,0.001 -3.36004,0.87897 -4.45118,2.39062 -2.27802,0.92895 -3.79698,3.3718 -3.79882,6.10938 5.8e-4,0.0208 8.5e-4,0.0417 0.002,0.0625 -2.85959,0.42407 -4.99872,3.17723 -5.00195,6.4375 0.003,3.02604 1.85218,5.64973 4.46093,6.32812 -2.36121,0.87387 -3.95883,3.36328 -3.96093,6.17188 0.002,2.20708 0.99522,4.26203 2.63672,5.45703 -2.19412,0.98018 -3.63595,3.376 -3.63672,6.04297 9.2e-4,3.57877 2.56075,6.48345 5.72656,6.49804 -0.39591,0.57458 -0.70359,1.2203 -0.91016,1.91016 -1.07783,-1.22075 -2.54066,-1.9072 -4.0664,-1.9082 -0.3859,0.002 -0.77066,0.0477 -1.14844,0.13672 -0.8606,-2.49264 -2.98454,-4.13443 -5.35156,-4.13672 -3.17564,0 -5.75,2.91015 -5.75,6.5 -2.8e-4,0.80639 0.13218,1.60581 0.39062,2.35742 -1.43978,0.55744 -2.62535,1.73739 -3.29687,3.28125 -1.53793,0.35814 -2.87939,1.41169 -3.71289,2.91601 -0.13882,-0.1033 -0.28153,-0.19974 -0.42774,-0.28906 0.029,-0.25394 0.0446,-0.50959 0.0469,-0.76562 0,-3.58985 -2.57436,-6.5 -5.75,-6.5 -3.17564,0 -5.75,2.91015 -5.75,6.5 0.002,0.22714 0.0142,0.45401 0.0371,0.67968 -1.08904,-1.38387 -2.64862,-2.17679 -4.28711,-2.17968 -3.17564,0 -5.75,2.91015 -5.75,6.5 0.003,2.13774 0.93543,4.13719 2.49414,5.34765 -0.64762,1.07735 -0.99397,2.3498 -0.99414,3.65235 0.002,0.51279 0.0578,1.0235 0.16601,1.52148 -1.65834,1.1913 -2.66375,3.25737 -2.66601,5.47852 0.001,2.83253 1.62495,5.33802 4.01367,6.19336 -0.007,0.10208 -0.0112,0.20432 -0.0137,0.30664 0,3.58985 2.57436,6.5 5.75,6.5 0.81535,-0.002 1.62093,-0.2008 2.36328,-0.58203 0.51814,1.16456 1.33405,2.1261 2.34179,2.75976 -0.80093,0.20924 -1.55284,0.61017 -2.20507,1.17578 -1.00293,-0.87466 -2.2333,-1.35046 -3.5,-1.35351 -0.79662,0.002 -1.5841,0.19201 -2.3125,0.55664 -1.0849,-1.3095 -2.6004,-2.05376 -4.1875,-2.05664 -0.0651,0.001 -0.13026,0.004 -0.19532,0.008 -0.89018,-2.4242 -2.98278,-4.0051 -5.30468,-4.00781 -1.36945,0.003 -2.693,0.55848 -3.73243,1.5664 -0.22466,-0.0353 -0.45096,-0.0554 -0.67773,-0.0605 -0.61242,-2.93099 -2.9257,-5.00263 -5.58984,-5.00586 -2.38601,0.003 -4.52242,1.67167 -5.36914,4.19336 -2.57004,0.71226 -10.51581,6.50646 -10.65235,11.32812 v 20 h 106.28711 l 20.02344,-20 -0.0234,-106.28711 z m -55.46484,5.59571 c -3.17564,0 -5.75,2.91014 -5.75,6.5 0.003,1.78372 0.6539,3.48778 1.80078,4.71289 -2.0872,0.61654 -3.69351,2.50188 -4.16016,4.88281 -0.74981,-0.39025 -1.56516,-0.59343 -2.39062,-0.5957 -3.17564,0 -5.75,2.91014 -5.75,6.5 0,3.58985 2.57436,6.5 5.75,6.5 0.61357,-0.002 1.22283,-0.11583 1.80468,-0.33594 -0.0341,0.27702 -0.0524,0.55624 -0.0547,0.83594 0,3.58985 2.57436,6.5 5.75,6.5 0.46297,-0.002 0.92398,-0.068 1.37304,-0.19532 0.54767,3.02162 2.89846,5.19208 5.62696,5.19532 3.17564,0 5.75,-2.91016 5.75,-6.5 -0.002,-0.89449 -0.16783,-1.77883 -0.48633,-2.59766 1.25875,-1.23195 1.98331,-3.02022 1.98633,-4.90234 -0.002,-1.61038 -0.53337,-3.16246 -1.49024,-4.35547 0.64491,-1.07565 0.98984,-2.34511 0.99024,-3.64453 0,-3.58986 -2.57436,-6.5 -5.75,-6.5 -1.15766,0.003 -2.28768,0.40013 -3.24219,1.14062 -0.0988,-0.12224 -0.2018,-0.24016 -0.30859,-0.35352 2.53201,-0.74546 4.29955,-3.32936 4.30078,-6.2871 0,-3.58986 -2.57436,-6.5 -5.75,-6.5 z m -69.00977,0.20703 c -3.05517,0.005 -5.57372,2.7093 -5.73437,6.1582 -2.63489,0.65469 -4.51287,3.29213 -4.51563,6.3418 0.002,0.88009 0.16219,1.75054 0.47071,2.55859 -0.23892,-0.0366 -0.47963,-0.0562 -0.72071,-0.0586 -3.175637,0 -5.749998,2.91015 -5.749998,6.5 0.001,0.39584 0.03471,0.7907 0.09961,1.17968 -1.05516,-1.07903 -2.426769,-1.67749 -3.849609,-1.67968 -3.17564,0 -5.75,2.91015 -5.75,6.5 0.002,1.51583 0.472378,2.98324 1.330078,4.14843 -0.54106,1.01112 -0.828038,2.16986 -0.830078,3.35157 0.002,0.50068 0.055,0.99943 0.158203,1.48632 -0.43149,0.92974 -0.657333,1.96377 -0.658203,3.01368 0,3.58985 2.57436,6.5 5.75,6.5 0.92813,-10e-4 1.842182,-0.25667 2.664062,-0.74414 1.08984,1.42224 2.671408,2.24081 4.335938,2.24414 3.175638,0 5.749998,-2.91015 5.749998,-6.5 -3.4e-4,-0.13226 -0.004,-0.2645 -0.0117,-0.39649 0.91427,2.3643 2.97912,3.8934 5.26172,3.89649 3.17564,0 5.75,-2.91015 5.75,-6.5 -0.002,-0.42715 -0.0413,-0.85305 -0.11719,-1.27149 1.97256,-0.66366 3.48093,-2.46848 3.95508,-4.73242 3.13992,-0.0543 5.66059,-2.94621 5.66211,-6.49609 -0.003,-1.3466 -0.37535,-2.659 -1.0664,-3.75586 1.88483,-1.12437 3.06492,-3.335 3.0664,-5.74414 -0.002,-0.86294 -0.15609,-1.71678 -0.45312,-2.51172 0.0676,0.005 0.13536,0.009 0.20312,0.0117 3.17564,0 5.75,-2.91015 5.75,-6.5 0,-3.58985 -2.57436,-6.5 -5.75,-6.5 -2.10654,2.2e-4 -4.04437,1.30258 -5.05078,3.39453 -0.62469,-0.25792 -1.28419,-0.39143 -1.94922,-0.39453 -0.91081,4.2e-4 -1.8085,0.24543 -2.61914,0.71484 -0.84203,-2.53467 -2.98575,-4.21386 -5.38086,-4.21484 z m 105.96289,13.875 c -0.002,0.0293 -0.003,0.0586 -0.004,0.0879 -1.5e-4,0.58744 0.0702,1.17219 0.20898,1.73828 -0.48651,0.15537 -0.95277,0.38259 -1.38672,0.67578 -0.33079,-0.2934 -0.68905,-0.54491 -1.06836,-0.75 l 0.002,-0.002 c 0.15919,-0.1762 0.30917,-0.36271 0.44921,-0.5586 0.65882,-0.2699 1.26845,-0.67367 1.79883,-1.1914 z m 7.33399,6.33203 c -0.0144,0.0143 -0.0287,0.0286 -0.043,0.043 l -0.004,-0.0254 c 0.0157,-0.006 0.0313,-0.0117 0.0469,-0.0176 z m -43.55274,2.45117 c -0.15655,0.26543 -0.29559,0.54352 -0.41601,0.83203 -0.1348,-0.10695 -0.2736,-0.2073 -0.41602,-0.30078 0.28991,-0.15068 0.5682,-0.32838 0.83203,-0.53125 z m -84.093748,3.66211 c 0.192491,0.19906 0.396739,0.38308 0.611329,0.55078 0.0399,0.75669 0.19654,1.49965 0.46289,2.19531 -0.41951,0.0638 -0.831515,0.17971 -1.228515,0.34571 0.16849,-0.6195 0.254076,-1.26399 0.253906,-1.91211 -0.001,-0.39584 -0.03471,-0.79071 -0.09961,-1.17969 z m 126.013668,0.35547 c 0.027,0.10433 0.0563,0.20787 0.0879,0.31054 -0.15497,0.0138 -0.3094,0.0346 -0.46289,0.0625 0.12972,-0.11815 0.25484,-0.24261 0.375,-0.37304 z m -231.6894488,4.05859 v 27.75 H 11.050781 l 6.654297,-1.4082 5.335938,3.25 4.621093,-1.7461 0.47461,-6.67578 -2.445313,-3.80078 2.123047,-0.33789 -0.224609,-4.27539 2.777344,3.37109 1.441406,-1.95898 3.445312,5.54297 -2.753906,4.41211 5.898438,-1.19141 1.515624,4.86719 15.421876,1.92969 -1.941407,5.1914 -8.115234,4.2793 -1.849609,2.77344 -5.302735,-3.37891 0.06836,4.60156 -6.8125,-4.81836 -5.996093,2.53516 -6.820313,-6.86914 -7.515625,3.95703 H -8.9492188 v 31.75 l 19.9999998,20 H 117.33594 v -20 l -10.37305,-27.50195 -19.287109,-2.17969 -6.197265,-11.64062 -8.988282,-15.3711 -19.833984,-7.25781 -41.605469,-5.79883 z m 116.2851588,0.11914 c 0.0165,0.30848 0.0523,0.61526 0.10742,0.91797 -1.315,0.44183 -2.44692,1.40057 -3.19141,2.70313 -0.0766,-0.53041 -0.21108,-1.04803 -0.40039,-1.54102 1.34193,-0.2078 2.57589,-0.94445 3.48438,-2.08008 z m 113.19336,8.31446 c 0.16455,0.10104 0.33337,0.19296 0.50586,0.27539 v 0.0195 c 0.004,0.72052 0.11317,1.43534 0.32422,2.11523 -0.067,0.0331 -0.1334,0.0676 -0.19922,0.10352 -0.26961,-0.81768 -0.6821,-1.56561 -1.21289,-2.19922 0.19906,-0.0924 0.39338,-0.19743 0.58203,-0.31445 z m -9.8418,0.0859 c 0.26242,0.15099 0.53469,0.27898 0.81445,0.38281 -0.1984,0.2507 -0.37927,0.51844 -0.54101,0.80079 -0.058,-0.40337 -0.14958,-0.79966 -0.27344,-1.1836 z m 14.36328,14.54297 c 0.0699,1.5785 0.64622,3.07411 1.6211,4.20703 -0.12455,0.28064 -0.23095,0.57111 -0.31836,0.86914 -0.47483,-0.5349 -1.02875,-0.97181 -1.63672,-1.29101 0.20942,-0.6815 0.31701,-1.3977 0.31836,-2.11914 -0.004,-0.54545 -0.0692,-1.08813 -0.19336,-1.61524 0.0699,-0.0155 0.1396,-0.0324 0.20898,-0.0508 z m -35.02148,13.58399 c 0.16179,0.15902 0.33133,0.30769 0.50781,0.44531 -0.32856,0.82958 -0.49956,1.72779 -0.50195,2.63672 4.4e-4,1.68037 0.57654,3.29524 1.60742,4.50586 -0.70373,0.0203 -1.39819,0.18642 -2.04883,0.49023 0.29123,-0.79101 0.44124,-1.63931 0.44141,-2.49609 -9.7e-4,-1.66852 -0.56951,-3.27272 -1.58789,-4.48047 0.57668,-0.26781 1.111,-0.63985 1.58203,-1.10156 z m 23.78711,1.33789 c 0.91556,1.78714 2.52791,2.9761 4.34375,3.20312 -0.39885,0.36748 -0.75228,0.79381 -1.05078,1.26758 -1.08497,-1.40456 -2.65129,-2.21476 -4.30079,-2.22461 0.46226,-0.66726 0.80463,-1.43028 1.00782,-2.24609 z m 11.22656,0.43945 c -0.005,0.10149 -0.007,0.20306 -0.008,0.30469 0.002,0.87225 0.15957,1.73508 0.46289,2.53711 -0.87459,-0.83507 -1.94979,-1.35602 -3.08789,-1.4961 0.19701,-0.18372 0.38296,-0.38208 0.55664,-0.59375 0.72814,-0.0987 1.43287,-0.35392 2.07617,-0.75195 z m -23.51563,1.48828 c 0.0654,0.0215 0.1312,0.0417 0.19727,0.0606 -0.0681,0.024 -0.13585,0.0494 -0.20313,0.0762 z m 6.59766,2.80859 c 0.0455,0.003 0.0911,0.005 0.13672,0.006 -0.0251,0.0387 -0.0498,0.0778 -0.0742,0.11719 -0.0204,-0.0413 -0.0413,-0.0823 -0.0625,-0.12305 z m 9.33594,7.78125 c 1.09003,1.41222 2.66626,2.22384 4.32422,2.22657 0.51138,-3.9e-4 1.02042,-0.0779 1.51367,-0.23047 -0.49941,0.98311 -0.76268,2.09679 -0.76367,3.23047 0.003,0.10037 0.007,0.20065 0.0137,0.30078 -0.84709,-0.52515 -1.79755,-0.80055 -2.76367,-0.80078 -0.54545,0.001 -1.088,0.0898 -1.61133,0.26367 -0.4377,-1.34897 -1.25847,-2.49598 -2.33399,-3.26172 0.6349,-0.45116 1.18562,-1.03836 1.6211,-1.72852 z m -43.33594,0.36524 c 0.0317,0.2052 0.0721,0.40855 0.12109,0.60937 -0.28185,0.0875 -0.55741,0.19914 -0.82421,0.33399 -0.0707,-0.15576 -0.14693,-0.30823 -0.22852,-0.45703 0.32275,-0.1304 0.63454,-0.29316 0.93164,-0.48633 z m 16.77344,7.99219 c 0.36934,0.14573 0.75087,0.24848 1.13867,0.30664 -7.6e-4,0.0208 -8.5e-4,0.0417 -0.002,0.0625 0.002,1.10062 0.25146,2.18261 0.72461,3.14453 -0.59674,-0.32301 -1.23832,-0.52719 -1.89649,-0.60352 0.11157,-0.50406 0.16928,-1.02142 0.17188,-1.54101 -0.003,-0.46057 -0.0484,-0.91952 -0.13672,-1.36914 z m 17.2207,2.65429 c 0.79699,1.25422 1.96296,2.1467 3.28906,2.51758 -0.23561,0.30974 -0.44487,0.6439 -0.625,0.99805 -0.73424,-1.46218 -1.94111,-2.54585 -3.36718,-3.02344 0.24452,-0.14477 0.4795,-0.30926 0.70312,-0.49219 z m -5.2832,0.82227 c 0.10633,0.0446 0.21379,0.0856 0.32226,0.12305 -0.12751,0.0722 -0.25259,0.14972 -0.375,0.23242 -0.0343,-0.0219 -0.0688,-0.0434 -0.10351,-0.0645 0.0543,-0.0955 0.10642,-0.19248 0.15625,-0.29101 z m -24.39453,1.1543 c -0.19838,0.2564 -0.37863,0.53002 -0.53907,0.81836 -0.11592,0.022 -0.2312,0.0481 -0.3457,0.0781 -0.15268,-0.1199 -0.31043,-0.23136 -0.47266,-0.33398 0.47161,-0.12219 0.92769,-0.31119 1.35743,-0.5625 z" inkscape:connector-curvature="0" />
</g>
<g inkscape:groupmode="layer" id="routes_layer" inkscape:label="Routes" style="display:inline" sodipodi:insensitive="true" >
  <path style="display:inline;fill:none;stroke:#000000;stroke-width:2;stroke-linecap:round;stroke-miterlimit:4;stroke-dasharray:0.1, 5;stroke-dashoffset:0;stroke-opacity:1" d="M 49.557097,44.89192 C 72.550167,47.083584 87.337235,23.670729 85.88328,11.049981 l 0,-20.000001 m 67.89438,135.85752 c 9.54103,39.98529 -30.98277,66.72119 -30.47769,108.64252 l 0,20 m 132.25005,-132.24996 -20,0 c -41.92133,-0.50508 -60.07028,11.3885 -99.80303,-0.42537 -39.73276,-11.81387 -84.290886,40.87239 -124.696989,37.84193 l -20,0" inkscape:connector-curvature="0" />
</g>
<g inkscape:groupmode="layer" id="labels_layer" inkscape:label="Labels" style="display:inline" sodipodi:insensitive="true" >
  <text xml:space="preserve" style="font-style:normal;font-variant:normal;font-weight:normal;font-stretch:normal;font-size:10px;line-height:125%;font-family:CCTreasureTrove;-inkscape-font-specification:'CCTreasureTrove, Normal';text-align:start;letter-spacing:0px;word-spacing:0px;writing-mode:lr-tb;text-anchor:start;display:inline;fill:#5d481b;fill-opacity:1;stroke:none;stroke-width:1px;stroke-linecap:butt;stroke-linejoin:miter;stroke-opacity:1"><textPath xlink:href="#label-path"
>Shipwreck Landing</textPath></text>
</g>
<g inkscape:groupmode="layer" id="labels_guide_layer" inkscape:label="Labels Guide" style="display:none" sodipodi:insensitive="true" >
  <path id="label-path" style="color:#000000;fill:none;stroke:#000000;stroke-width:1;stroke-opacity:1" d="M 135.86408,19.317839 C 122.50186,42.83798 63.326915,67.111374 28.831996,68.669937" inkscape:connector-curvature="0" />
</g>
<g inkscape:groupmode="layer" id="resources_layer" inkscape:label="Resources" style="display:inline" sodipodi:insensitive="true" >
  <g id="resource-fish" transform="matrix(-0.99105593,0.13344721,-0.13344721,-0.99105593,28.973619,-63.061501)" >
    <path style="color:#000000;clip-rule:nonzero;display:inline;overflow:visible;visibility:visible;opacity:1;isolation:auto;mix-blend-mode:normal;color-interpolation:sRGB;color-interpolation-filters:linearRGB;solid-color:#000000;solid-opacity:1;fill:url(#gradientFish);fill-opacity:1;fill-rule:evenodd;stroke:none;stroke-width:0.89999998;stroke-linecap:round;stroke-linejoin:miter;stroke-miterlimit:4;stroke-dasharray:none;stroke-dashoffset:0;stroke-opacity:1;color-rendering:auto;image-rendering:auto;shape-rendering:auto;text-rendering:auto;enable-background:accumulate" d="m 6.75164,-116.27687 c 2.99065,0.60485 4.49367,1.24794 5.89266,2.66121 2.45016,2.47513 3.25045,6.5505 3.25045,6.5505 l -3.54035,0.49898 2.97008,0.83162 c -1.40188,1.23555 -2.8637,2.14124 -4.39572,2.68497 -2.28163,0.80975 -5.89735,1.19916 -8.27072,0.72096 -2.52003,-0.50774 -4.93787,-1.71891 -6.65678,-2.93199 -1.70292,-1.2018 -2.32599,-2.77049 -4.34245,-2.71421 -2.02435,0.0566 -3.06024,1.36024 -6.2744,2.54392 0.98841,-2.25668 1.48644,-4.44986 1.47742,-4.77248 -0.0131,-0.47021 -0.60937,-2.94625 -1.71029,-5.74037 4.56815,1.9526 4.13574,3.93892 6.7876,4.01568 1.65013,0.0477 2.8784,-2.27892 4.84548,-3.01143 0,0 0.0925,-0.76339 -0.85797,-2.09399 2.125,-1.125 5.3749,-2.84347 9.18238,-2.11673 0.63846,0.67205 1.20575,1.59646 1.64258,2.87336 z" inkscape:connector-curvature="0" />
    <path style="color:#000000;font-style:normal;font-variant:normal;font-weight:normal;font-stretch:normal;font-size:medium;line-height:normal;font-family:sans-serif;text-indent:0;text-align:start;text-decoration:none;text-decoration-line:none;text-decoration-style:solid;text-decoration-color:#000000;letter-spacing:normal;word-spacing:normal;text-transform:none;direction:ltr;block-progression:tb;writing-mode:lr-tb;baseline-shift:baseline;text-anchor:start;white-space:normal;clip-rule:nonzero;display:inline;overflow:visible;visibility:visible;opacity:1;isolation:auto;mix-blend-mode:normal;color-interpolation:sRGB;color-interpolation-filters:linearRGB;solid-color:#000000;solid-opacity:1;fill:#000000;fill-opacity:1;fill-rule:evenodd;stroke:none;stroke-width:0.89999998;stroke-linecap:round;stroke-linejoin:miter;stroke-miterlimit:4;stroke-dasharray:none;stroke-dashoffset:0;stroke-opacity:1;color-rendering:auto;image-rendering:auto;shape-rendering:auto;text-rendering:auto;enable-background:accumulate" d="m 3.75195,-119.76758 c -0.55834,-0.0162 -1.08956,0.007 -1.41992,0.0332 -3.44102,0.26924 -4.79186,1.37793 -7.48633,2.26368 0.80029,0.66264 1.38172,1.65445 1.58985,2.40625 -0.74252,0.46927 -1.56885,1.06749 -2.34375,1.66992 -0.78694,0.61179 -1.52805,1.08797 -2.13868,1.07031 -1.213,-0.0351 -1.55439,-0.52183 -2.3789,-1.23633 -1.98577,-1.72081 -3.07464,-2.29632 -5.23438,-3.2207 0.86297,2.18173 2.04317,4.50407 2.07227,6.58984 0.0263,1.88626 -1.13742,3.87948 -1.86328,5.54883 1.62081,-0.53562 3.22001,-1.34059 4.6289,-2.08398 0.89906,-0.47438 1.57632,-0.77317 2.49415,-0.79883 0.89038,-0.0249 1.40182,0.27656 1.98242,0.77734 0.25085,0.21637 0.51534,0.48279 0.79687,0.75586 -0.25647,0.40556 -0.79615,0.53695 -1.76562,1.10352 1.95514,0.58994 2.59141,1.85091 4.15625,2.49414 0.55665,-0.25793 1.08128,-0.52946 1.29882,-1.08594 1.28379,0.64871 2.70563,1.21308 4.19922,1.53906 0.0372,0.49232 -0.0779,0.96218 -0.52343,1.75 1.8525,-0.13727 3.11482,-0.49129 3.85351,-1.48437 1.90282,-0.0616 3.90491,-0.41501 5.41016,-0.94922 1.59542,-0.56623 3.08878,-1.52586 4.54297,-2.77148 0.22554,-0.1932 0.55832,-0.5479 0.15234,-0.66602 l -1.22851,-0.35742 1.51367,-0.22656 c 0.18187,-0.0272 0.35546,-0.2168 0.27734,-0.50586 -0.0502,-0.18564 -0.78361,-4.16347 -3.37305,-6.7793 -1.42433,-1.43886 -3.05654,-2.12894 -5.92382,-2.72852 -0.4724,-1.08092 -0.97717,-2.12518 -1.70508,-2.90429 -0.44021,-0.13092 -1.02565,-0.18691 -1.58399,-0.20313 z m -0.1289,0.86719 c 0.40991,0.0169 0.81105,0.0568 1.19922,0.10547 0.77961,0.94104 1.28338,2.04784 1.60937,2.96875 2.1946,0.39918 4.6041,1.23544 5.89453,2.52734 2.08816,2.09053 2.83239,5.19206 2.98633,5.86133 l -3.01953,0.42578 c -0.44473,0.0627 -0.45389,0.76792 -0.0586,0.87891 l 1.98242,0.55664 c -1.12071,0.87174 -2.24918,1.67981 -3.4375,2.10156 -0.33815,0.12001 -0.71912,0.22666 -1.11524,0.32617 -2.33138,-1.12461 -3.38072,-3.76269 -3.66601,-5.20312 -0.15295,-0.77226 -0.48459,-1.00055 -0.26758,0.46094 0.277,1.86552 1.35587,3.78888 2.74609,4.99218 -1.94553,0.34633 -4.16617,0.4437 -5.72851,0.12891 -2.43884,-0.49138 -4.81456,-1.67957 -6.48633,-2.85938 -0.79723,-0.56263 -1.35875,-1.23084 -2.01953,-1.80078 -0.66079,-0.56995 -1.57913,-0.96766 -2.54883,-0.93164 -0.96571,0.0359 -2.00556,0.34944 -2.93359,0.83789 -0.68049,0.35816 -1.62451,0.79789 -2.58789,1.22461 0.58514,-1.36212 1.15509,-2.85368 1.14062,-3.91797 -0.0229,-1.68436 -0.84568,-3.32406 -1.36523,-4.77929 1.43808,0.75542 2.36518,1.48293 3.00781,2.08984 0.79559,0.75138 1.70527,1.34121 2.9414,1.36523 0.8676,0.0169 1.85414,-0.60951 2.64454,-1.26171 1.07222,-0.88474 2.37395,-1.75346 3.82031,-2.3125 0.84286,-0.32579 2.17657,-0.81342 1.5664,-0.90821 -0.63083,-0.098 -1.90673,0.29013 -2.74804,0.65625 -0.21144,-0.67843 -0.52851,-1.28134 -0.85547,-1.77148 1.86816,-0.59893 2.90957,-1.50638 6.04687,-1.72852 0.42336,-0.0441 0.84204,-0.0501 1.25196,-0.0332 z" inkscape:connector-curvature="0" />
    <path style="color:#000000;clip-rule:nonzero;display:inline;overflow:visible;visibility:visible;opacity:1;isolation:auto;mix-blend-mode:normal;color-interpolation:sRGB;color-interpolation-filters:linearRGB;solid-color:#000000;solid-opacity:1;fill:#000000;fill-opacity:1;fill-rule:evenodd;stroke:none;stroke-width:0.89999998;stroke-linecap:round;stroke-linejoin:miter;stroke-miterlimit:4;stroke-dasharray:none;stroke-dashoffset:0;stroke-opacity:1;color-rendering:auto;image-rendering:auto;shape-rendering:auto;text-rendering:auto;enable-background:accumulate" d="m 4.14858,-108.59983 c -0.47489,-0.30307 -1.53655,-0.90869 -2.26472,-0.88862 -0.0804,0.002 -0.2543,0.14712 -0.15844,0.31108 0.47438,0.81135 0.88194,1.78963 0.81744,2.88053 -0.01,0.15682 0.0463,0.31282 0.28149,0.29908 0.85805,-0.0503 1.22499,-0.14313 1.82534,-0.42991 0.33162,-0.1584 0.28985,0.0295 -0.17284,0.32399 -0.42638,0.27143 -1.15747,0.57467 -1.60626,0.62419 -0.57111,0.063 -0.86938,-0.30115 -0.85559,-0.49509 0.0664,-0.93438 -0.40775,-2.23989 -0.84996,-3.00389 -0.64912,-1.12144 0.5114,-1.14367 1.04743,-1.03991 0.57353,0.11103 1.54086,0.51965 2.36735,1.37318 0.31578,0.3261 0.0887,0.37724 -0.43124,0.0454 z" inkscape:connector-curvature="0" />
    <ellipse cx="35.346939" cy="-105.813170" rx="0.855386" ry="1.092993" style="opacity:1;fill:#000000;fill-opacity:1;fill-rule:nonzero;stroke:none;stroke-width:0.89999998;stroke-linecap:butt;stroke-linejoin:round;stroke-miterlimit:4;stroke-dasharray:none;stroke-dashoffset:0;stroke-opacity:1" transform="matrix(0.97605309,-0.21753245,0.21753245,0.97605309,0,0)" />
  </g>
  <g id="resource-pirate" transform="rotate(169.65858,138.45262,213.77024)" >
    <path style="display:inline;opacity:1;fill:#000000;fill-opacity:1;stroke:none;stroke-width:0.72000003;stroke-linejoin:miter;stroke-miterlimit:4;stroke-dasharray:none;stroke-dashoffset:0;stroke-opacity:1" transform="scale(-1,-1)" d="m -107.60416,-273.69223 -7.8991,-1.94695 -6.08951,-5.39484 -2.88489,-7.60683 0.98062,-8.07619 4.6215,-6.69539 7.20363,-3.78076 8.13551,0 7.203628,3.78076 4.621495,6.69539 0.980627,8.07619 -2.88489,7.60683 -6.089513,5.39484 z" inkscape:connector-curvature="0" />
    <g transform="translate(6.943425,5.6840535)" >
      <g transform="translate(0,-10)" >
        <path style="color:#000000;clip-rule:nonzero;display:inline;overflow:visible;visibility:visible;opacity:1;isolation:auto;mix-blend-mode:normal;color-interpolation:sRGB;color-interpolation-filters:linearRGB;solid-color:#000000;solid-opacity:1;fill:#ffffff;fill-opacity:1;fill-rule:nonzero;stroke:none;stroke-width:0.49999997;stroke-linecap:butt;stroke-linejoin:miter;stroke-miterlimit:4;stroke-dasharray:none;stroke-dashoffset:0;stroke-opacity:1;color-rendering:auto;image-rendering:auto;shape-rendering:auto;text-rendering:auto;enable-background:accumulate" d="m 91.84844,289.85155 c 4.41124,3.03993 11.33218,5.63427 19.39618,8.47116 0.51356,0.18067 1.26729,0.0129 1.26729,0.0129 1.03108,0.0262 1.76032,0.59243 1.42127,1.81302 -0.15625,0.5625 -0.60065,0.1875 -1.10065,0.75 -0.59594,0.67043 -0.31337,0.98447 -0.78702,1.45924 -0.37301,0.37389 -0.95237,0.38325 -1.41542,-0.0762 -0.43122,-0.4279 -0.24851,-1.07751 -0.79513,-1.34257 -5.2397,-2.54083 -12.94978,-6.27419 -18.97954,-8.64117 -0.75546,-0.29655 -1.95134,0.5095 -2.69668,0.18835 -0.65522,-0.28232 -1.04679,-1.02773 -0.89579,-1.72503 0.11053,-0.51043 1.25,-0.94464 1.25,-0.94464 l 0.16316,0.45958 c -0.38049,-1.27579 -0.54342,-1.55226 0.0416,-2.29926 0.47038,-0.60064 1.71455,-0.2507 2.18742,0.26834 0.3856,0.42325 0.37162,1.21233 0.94334,1.60632 z" inkscape:connector-curvature="0" />
        <path style="color:#000000;font-style:normal;font-variant:normal;font-weight:normal;font-stretch:normal;font-size:medium;line-height:normal;font-family:sans-serif;text-indent:0;text-align:start;text-decoration:none;text-decoration-line:none;text-decoration-style:solid;text-decoration-color:#000000;letter-spacing:normal;word-spacing:normal;text-transform:none;direction:ltr;block-progression:tb;writing-mode:lr-tb;baseline-shift:baseline;text-anchor:start;white-space:normal;clip-rule:nonzero;display:inline;overflow:visible;visibility:visible;opacity:1;isolation:auto;mix-blend-mode:normal;color-interpolation:sRGB;color-interpolation-filters:linearRGB;solid-color:#000000;solid-opacity:1;fill:#000000;fill-opacity:1;fill-rule:nonzero;stroke:none;stroke-width:0.49999997;stroke-linecap:butt;stroke-linejoin:miter;stroke-miterlimit:4;stroke-dasharray:none;stroke-dashoffset:0;stroke-opacity:1;color-rendering:auto;image-rendering:auto;shape-rendering:auto;text-rendering:auto;enable-background:accumulate" d="m 89.94141,287.44531 c -0.54653,-0.13973 -1.02793,0.0475 -1.41993,0.37696 -0.39461,0.33166 -0.45344,0.73455 -0.43554,1.11718 0.009,0.1953 0.0749,0.48278 0.14843,0.71094 0.0247,0.0765 -0.13751,0.0543 -0.37499,0.19141 -0.31892,0.18405 -0.69539,0.49169 -0.78516,0.90624 -0.17772,0.8207 0.18277,1.73389 0.98633,1.96876 0.90806,0.26541 1.87242,-0.46589 2.70312,-0.18553 6.12153,2.06605 13.77428,5.90495 18.93945,8.59375 0.44579,0.23206 0.47891,0.99792 0.75,1.33398 0.47609,0.59019 1.43418,0.58737 1.82423,0.0606 0.41555,-0.56124 0.35263,-0.97015 0.71093,-1.40039 0.19962,-0.2397 0.27907,-0.36717 0.48047,-0.41602 0.10069,-0.0244 0.3919,-0.085 0.64844,-0.32813 0.37646,-0.35676 0.31231,-1.20126 -0.13264,-1.71679 -0.40032,-0.46384 -1.02404,-0.57439 -1.4961,-0.57426 -0.43431,1.2e-4 -0.8621,0.10335 -1.16011,0.002 -8.09046,-2.75143 -14.91003,-5.38426 -19.27539,-8.39258 -0.22086,-0.1522 -0.39434,-0.43852 -0.51171,-0.72461 -0.2365,-0.57649 -0.55594,-1.25663 -1.59983,-1.52351 z m 1.2188,1.80664 c 0.16982,0.38884 0.34852,0.54692 0.5469,0.80468 4.45711,3.07156 11.38831,5.66408 19.45508,8.50195 0.6315,0.22216 1.0547,0.10621 1.35742,0.0683 0.71089,-0.0889 1.08312,0.23005 1.22662,0.42788 0.35341,0.48722 0.19231,1.06561 -0.21479,1.15626 -0.18569,0.0413 -0.61103,0.17616 -0.88477,0.52148 -0.33647,0.42445 -0.37657,1.24201 -0.78515,1.55078 -0.31976,0.24165 -0.75772,0.27891 -1.05469,-0.17966 -0.32208,-0.49734 -0.27651,-1.10107 -0.88672,-1.42774 -5.13397,-2.7485 -12.86209,-6.41107 -18.97265,-8.61133 -0.88412,-0.31835 -1.92323,0.3249 -2.69727,0.23828 -0.58607,-0.0656 -0.8665,-0.91439 -0.74219,-1.48829 0.0208,-0.0959 0.18739,-0.36795 0.46875,-0.52344 0.30948,-0.17102 0.40248,-0.17047 0.44922,-0.0664 0.0857,0.19085 0.13229,0.44867 0.15637,0.72069 0.0197,0.22228 0.17958,-0.0361 0.20117,-0.10743 0.0917,-0.30287 -1.1e-4,-0.84555 -0.0587,-0.98826 -0.35066,-0.85435 -0.24288,-1.31016 0.12868,-1.7077 0.29779,-0.31861 0.72973,-0.39498 1.09186,-0.27481 0.69853,0.2318 0.95425,0.78805 1.21486,1.38476 z" inkscape:connector-curvature="0" />
      </g>
      <g transform="translate(0,-10)" >
        <path style="color:#000000;clip-rule:nonzero;display:inline;overflow:visible;visibility:visible;opacity:1;isolation:auto;mix-blend-mode:normal;color-interpolation:sRGB;color-interpolation-filters:linearRGB;solid-color:#000000;solid-opacity:1;fill:#ffffff;fill-opacity:1;fill-rule:nonzero;stroke:none;stroke-width:0.49999997;stroke-linecap:butt;stroke-linejoin:miter;stroke-miterlimit:4;stroke-dasharray:none;stroke-dashoffset:0;stroke-opacity:1;color-rendering:auto;image-rendering:auto;shape-rendering:auto;text-rendering:auto;enable-background:accumulate" d="m 109.41706,289.80736 c -4.41124,3.03993 -11.33218,5.63427 -19.39618,8.47116 -0.51356,0.18067 -1.26729,0.0129 -1.26729,0.0129 -1.03108,0.0262 -1.76032,0.59243 -1.42127,1.81302 0.15625,0.5625 0.60065,0.1875 1.10065,0.75 0.59594,0.67043 0.31337,0.98447 0.78702,1.45924 0.37301,0.37389 0.95237,0.38325 1.41542,-0.0762 0.43122,-0.4279 0.24851,-1.07751 0.79513,-1.34257 5.2397,-2.54083 12.94978,-6.27419 18.97954,-8.64117 0.75546,-0.29655 1.95134,0.5095 2.69668,0.18835 0.65522,-0.28232 1.04679,-1.02773 0.89579,-1.72503 -0.11053,-0.51043 -1.25,-0.94464 -1.25,-0.94464 l -0.16316,0.45958 c 0.38049,-1.27579 0.54342,-1.55226 -0.0416,-2.29926 -0.47038,-0.60064 -1.71455,-0.2507 -2.18742,0.26834 -0.3856,0.42325 -0.37162,1.21233 -0.94334,1.60632 z" inkscape:connector-curvature="0" />
        <path style="color:#000000;font-style:normal;font-variant:normal;font-weight:normal;font-stretch:normal;font-size:medium;line-height:normal;font-family:sans-serif;text-indent:0;text-align:start;text-decoration:none;text-decoration-line:none;text-decoration-style:solid;text-decoration-color:#000000;letter-spacing:normal;word-spacing:normal;text-transform:none;direction:ltr;block-progression:tb;writing-mode:lr-tb;baseline-shift:baseline;text-anchor:start;white-space:normal;clip-rule:nonzero;display:inline;overflow:visible;visibility:visible;opacity:1;isolation:auto;mix-blend-mode:normal;color-interpolation:sRGB;color-interpolation-filters:linearRGB;solid-color:#000000;solid-opacity:1;fill:#000000;fill-opacity:1;fill-rule:nonzero;stroke:none;stroke-width:0.49999997;stroke-linecap:butt;stroke-linejoin:miter;stroke-miterlimit:4;stroke-dasharray:none;stroke-dashoffset:0;stroke-opacity:1;color-rendering:auto;image-rendering:auto;shape-rendering:auto;text-rendering:auto;enable-background:accumulate" d="m 111.38756,287.33529 c -0.48664,0.0425 -1.11759,0.35128 -1.31171,0.78554 -0.25532,0.57121 -0.35791,1.10841 -0.80095,1.43578 -4.2638,3.15061 -11.02151,5.86741 -19.11914,8.59765 -0.37569,0.12667 -0.793,0.007 -1.18941,0 -0.55986,-0.009 -1.2909,0.0173 -1.62304,0.38477 -0.33215,0.36747 -0.49179,0.82955 -0.3072,1.49398 0.0492,0.17698 0.19508,0.41555 0.31501,0.50406 0.11993,0.0885 0.24305,0.11618 0.34375,0.14063 0.20139,0.0489 0.34354,0.0657 0.55078,0.29883 0.27206,0.30606 0.32523,0.48899 0.38672,0.70508 0.0615,0.21608 0.13631,0.48917 0.41016,0.76367 0.46295,0.46404 1.23127,0.45987 1.76953,-0.0742 0.27305,-0.27093 0.34319,-0.599 0.41601,-0.83594 0.0728,-0.23693 0.11923,-0.36621 0.31055,-0.45898 5.23957,-2.54077 12.92679,-6.14139 18.94079,-8.50219 0.26425,-0.10373 0.73389,-0.14378 1.22132,-0.0193 0.48743,0.1245 1.01877,0.28217 1.50586,0.0723 0.76885,-0.33126 1.21875,-1.18712 1.04101,-2.00781 -0.0898,-0.41456 -0.51237,-0.7471 -0.8313,-0.93114 -0.23626,-0.13633 -0.30692,-0.13408 -0.29326,-0.2428 0.0341,-0.27151 0.0324,-0.44202 0.0416,-0.63783 0.018,-0.38263 -0.0918,-0.65157 -0.42093,-1.02881 -0.39713,-0.45513 -0.89964,-0.48317 -1.35615,-0.44329 z m 0.96351,0.70764 c 0.31461,0.3192 0.35498,0.60714 0.37427,0.86802 0.0265,0.35796 0.0566,0.77981 -0.21212,1.56266 -0.0629,0.1834 -0.13514,0.41283 0.0458,0.26781 0.21765,-0.17449 0.32969,-0.52131 0.40328,-0.67267 0.0499,-0.10264 0.1234,-0.0467 0.3034,0.0364 0.32381,0.14909 0.5206,0.38204 0.54136,0.65469 0.0446,0.5855 -0.25812,1.17489 -0.79972,1.40825 -0.25824,0.11127 -0.69789,0.0264 -1.18359,-0.0976 -0.48573,-0.12404 -1.03674,-0.15395 -1.52796,0.0389 -6.04551,2.3732 -13.73417,5.97497 -18.974,8.51586 -0.35529,0.17229 -0.49003,0.5006 -0.57031,0.76171 -0.0803,0.26112 -0.13479,0.47195 -0.29297,0.62891 -0.38783,0.38482 -0.77943,0.36186 -1.0625,0.0781 -0.1998,-0.20028 -0.21858,-0.32159 -0.2832,-0.54883 -0.0646,-0.22722 -0.16831,-0.53603 -0.49219,-0.90039 -0.29276,-0.32936 -0.5411,-0.43101 -0.7644,-0.44761 -0.16657,-0.0124 -0.31978,-0.24306 -0.3377,-0.29665 -0.18307,-0.54743 -0.0422,-0.79871 0.17376,-1.01614 0.27893,-0.28078 0.87349,-0.22843 1.22527,-0.2358 0.44842,-0.009 0.77278,0.20066 1.40429,-0.0215 8.06676,-2.83789 14.84782,-5.48941 19.23633,-8.6582 0.53983,-0.38979 0.52785,-0.93704 0.79316,-1.50218 0.22245,-0.47382 0.76204,-0.67588 1.09941,-0.72147 0.2658,-0.0359 0.66161,0.0555 0.90033,0.29773 z" inkscape:connector-curvature="0" />
      </g>
      <g >
        <path style="color:#000000;clip-rule:nonzero;display:inline;overflow:visible;visibility:visible;opacity:1;isolation:auto;mix-blend-mode:normal;color-interpolation:sRGB;color-interpolation-filters:linearRGB;solid-color:#000000;solid-opacity:1;fill:#ffffff;fill-opacity:1;fill-rule:nonzero;stroke:none;stroke-width:0.49999997;stroke-linecap:butt;stroke-linejoin:miter;stroke-miterlimit:4;stroke-dasharray:none;stroke-dashoffset:0;stroke-opacity:1;color-rendering:auto;image-rendering:auto;shape-rendering:auto;text-rendering:auto;enable-background:accumulate" d="m 95.61696,289.40928 c -0.28542,-0.70119 -0.64431,-0.0511 -1.28032,-1.5943 -0.1555,-0.3773 0.0533,-1.26257 -0.20606,-1.97221 -1.08563,-2.97045 -0.70376,-4.38729 -0.13829,-5.43857 0.90077,-1.67462 2.37389,-2.68893 4.18898,-3.25565 1.68855,-0.52721 3.7114,-0.48187 5.36931,0.13497 1.87949,0.69928 2.96812,1.82798 3.83709,3.63528 0.56796,1.18125 0.75027,1.95911 0.46372,3.37367 -0.0839,0.41394 -0.6938,1.7573 -0.89959,2.67781 -0.13567,0.60688 0.13543,0.88631 0.028,1.10465 -0.68013,1.38226 -0.85951,0.68912 -1.42722,1.53162 -0.82001,1.21692 -0.9135,2.26072 -0.9135,2.26072 -2.62487,0.21736 -5.43031,0.27039 -8.01047,-0.13519 -0.21074,-2.67946 -0.3887,-0.7924 -1.01165,-2.3228 z" inkscape:connector-curvature="0" />
        <path style="color:#000000;font-style:normal;font-variant:normal;font-weight:normal;font-stretch:normal;font-size:medium;line-height:normal;font-family:sans-serif;text-indent:0;text-align:start;text-decoration:none;text-decoration-line:none;text-decoration-style:solid;text-decoration-color:#000000;letter-spacing:normal;word-spacing:normal;text-transform:none;direction:ltr;block-progression:tb;writing-mode:lr-tb;baseline-shift:baseline;text-anchor:start;white-space:normal;clip-rule:nonzero;display:inline;overflow:visible;visibility:visible;opacity:1;isolation:auto;mix-blend-mode:normal;color-interpolation:sRGB;color-interpolation-filters:linearRGB;solid-color:#000000;solid-opacity:1;fill:#000000;fill-opacity:1;fill-rule:nonzero;stroke:none;stroke-width:0.49999997;stroke-linecap:butt;stroke-linejoin:miter;stroke-miterlimit:4;stroke-dasharray:none;stroke-dashoffset:0;stroke-opacity:1;color-rendering:auto;image-rendering:auto;shape-rendering:auto;text-rendering:auto;enable-background:accumulate" d="m 101.77982,284.55725 c 0.004,0.96632 0.45036,2.0941 1.39212,2.05041 0.94176,-0.0437 1.37747,-1.03396 1.36409,-2.0552 -0.0134,-1.02124 -0.49476,-1.92637 -1.40364,-1.94387 -0.90889,-0.0175 -1.3563,0.98234 -1.35257,1.94866 z" inkscape:connector-curvature="0" />
        <path style="color:#000000;font-style:normal;font-variant:normal;font-weight:normal;font-stretch:normal;font-size:medium;line-height:normal;font-family:sans-serif;text-indent:0;text-align:start;text-decoration:none;text-decoration-line:none;text-decoration-style:solid;text-decoration-color:#000000;letter-spacing:normal;word-spacing:normal;text-transform:none;direction:ltr;block-progression:tb;writing-mode:lr-tb;baseline-shift:baseline;text-anchor:start;white-space:normal;clip-rule:nonzero;display:inline;overflow:visible;visibility:visible;opacity:1;isolation:auto;mix-blend-mode:normal;color-interpolation:sRGB;color-interpolation-filters:linearRGB;solid-color:#000000;solid-opacity:1;fill:#000000;fill-opacity:1;fill-rule:nonzero;stroke:none;stroke-width:0.49999997;stroke-linecap:butt;stroke-linejoin:miter;stroke-miterlimit:4;stroke-dasharray:none;stroke-dashoffset:0;stroke-opacity:1;color-rendering:auto;image-rendering:auto;shape-rendering:auto;text-rendering:auto;enable-background:accumulate" d="m 100.03721,289.11908 c -0.42377,-0.36462 -0.23973,-1.10247 0.38785,-2.14089 0.0843,-0.13938 0.41827,-0.11168 0.51275,0.021 0.6035,0.84762 0.67744,2.01011 0.33563,2.12543 -0.234,0.079 -0.36489,-0.0838 -0.58623,-0.37016 -0.23681,0.29673 -0.365,0.60983 -0.65,0.36461 z" inkscape:connector-curvature="0" />
        <path style="color:#000000;font-style:normal;font-variant:normal;font-weight:normal;font-stretch:normal;font-size:medium;line-height:normal;font-family:sans-serif;text-indent:0;text-align:start;text-decoration:none;text-decoration-line:none;text-decoration-style:solid;text-decoration-color:#000000;letter-spacing:normal;word-spacing:normal;text-transform:none;direction:ltr;block-progression:tb;writing-mode:lr-tb;baseline-shift:baseline;text-anchor:start;white-space:normal;clip-rule:nonzero;display:inline;overflow:visible;visibility:visible;opacity:1;isolation:auto;mix-blend-mode:normal;color-interpolation:sRGB;color-interpolation-filters:linearRGB;solid-color:#000000;solid-opacity:1;fill:#000000;fill-opacity:1;fill-rule:nonzero;stroke:none;stroke-width:0.49999997;stroke-linecap:butt;stroke-linejoin:miter;stroke-miterlimit:4;stroke-dasharray:none;stroke-dashoffset:0;stroke-opacity:1;color-rendering:auto;image-rendering:auto;shape-rendering:auto;text-rendering:auto;enable-background:accumulate" d="m 96.79629,284.49096 c 0.004,0.96632 0.38407,2.09409 1.34792,2.0725 0.96385,-0.0216 1.44376,-1.01186 1.43038,-2.0331 -0.0134,-1.02124 -0.45057,-1.90429 -1.33735,-1.94387 -0.88677,-0.0396 -1.44468,0.93815 -1.44095,1.90447 z" inkscape:connector-curvature="0" />
        <path style="color:#000000;font-style:normal;font-variant:normal;font-weight:normal;font-stretch:normal;font-size:medium;line-height:normal;font-family:sans-serif;text-indent:0;text-align:start;text-decoration:none;text-decoration-line:none;text-decoration-style:solid;text-decoration-color:#000000;letter-spacing:normal;word-spacing:normal;text-transform:none;direction:ltr;block-progression:tb;writing-mode:lr-tb;baseline-shift:baseline;text-anchor:start;white-space:normal;clip-rule:nonzero;display:inline;overflow:visible;visibility:visible;opacity:1;isolation:auto;mix-blend-mode:normal;color-interpolation:sRGB;color-interpolation-filters:linearRGB;solid-color:#000000;solid-opacity:1;fill:#000000;fill-opacity:1;fill-rule:nonzero;stroke:none;stroke-width:0.49999997;stroke-linecap:butt;stroke-linejoin:miter;stroke-miterlimit:4;stroke-dasharray:none;stroke-dashoffset:0;stroke-opacity:1;color-rendering:auto;image-rendering:auto;shape-rendering:auto;text-rendering:auto;enable-background:accumulate" d="m 100.65625,276.60942 c -0.85308,-0.0126 -2.0994,0.19349 -2.75586,0.39844 -1.86941,0.58365 -2.83514,1.247 -3.88476,2.72657 -0.44,0.76902 -1.06058,1.73123 -0.99181,3.39023 0.058,1.39821 1.39651,3.32249 1.12006,4.24558 -0.10938,0.36524 -0.0785,0.6196 0.30526,1.01848 1.20238,1.37095 1.90562,2.41351 1.91019,3.23239 -0.008,0.23436 0.045,0.42743 0.24414,0.44141 2.80929,0.37265 5.12783,0.29481 7.9453,0.08 0.21185,-0.008 0.29297,-0.1875 0.29297,-0.39063 0.19662,-1.54374 0.9314,-2.00835 1.9863,-3.07614 0.28784,-0.27357 0.62427,-0.65332 0.29883,-1.33789 -0.23102,-0.48596 0.92245,-2.47356 1.06055,-3.55859 0.14911,-1.17151 -0.15793,-2.26393 -0.5293,-3.10157 -0.88762,-1.84613 -1.94831,-2.7592 -3.86523,-3.52929 -0.93109,-0.37405 -2.26053,-0.52603 -3.13664,-0.53899 z m -0.043,0.46285 c 1.09915,0.0507 2.08553,0.14066 3.01172,0.51567 1.72448,0.69823 2.70048,1.44439 3.55078,3.21288 0.36939,0.76826 0.69557,1.73619 0.54493,2.99415 -0.2428,1.03053 -1.05425,2.50934 -1.02149,3.02539 0,0 -0.0861,-0.15602 -0.21289,-0.41601 -0.18281,-0.37493 -0.21233,-0.57486 -0.27149,-1.11328 -0.0268,-0.24371 -0.29862,-0.32626 -0.29296,-0.22657 0.0416,0.73466 0.10464,1.0742 0.24804,1.5918 0.10978,0.39625 0.43528,0.73247 0.46485,1.14258 0.009,0.12977 -0.0461,0.34222 -0.13868,0.43359 -1.26028,1.19619 -2.08802,2.47382 -2.17578,3.43356 -2.51398,0.3381 -4.97436,0.2315 -7.47461,-0.0937 -0.14518,-1.85044 -1.10626,-2.38298 -2.14453,-3.76949 -0.18886,-0.25326 0.28842,-0.85838 0.40236,-1.26172 0.1228,-0.43469 0.32716,-0.88898 0.22258,-1.5508 -0.0245,-0.15513 -0.22882,0.13848 -0.28125,0.41603 -0.11651,0.61664 -0.28224,0.85172 -0.51435,1.37048 -0.0721,-1.12896 -0.74529,-2.04641 -0.91036,-3.0504 -0.28321,-1.72251 0.14892,-2.51897 0.80286,-3.6236 0.72882,-1.23113 1.99799,-2.15947 3.63348,-2.63984 0.72356,-0.21252 1.87504,-0.42215 2.55679,-0.39072 z" inkscape:connector-curvature="0" />
        <path style="color:#000000;font-style:normal;font-variant:normal;font-weight:normal;font-stretch:normal;font-size:medium;line-height:normal;font-family:sans-serif;text-indent:0;text-align:start;text-decoration:none;text-decoration-line:none;text-decoration-style:solid;text-decoration-color:#000000;letter-spacing:normal;word-spacing:normal;text-transform:none;direction:ltr;block-progression:tb;writing-mode:lr-tb;baseline-shift:baseline;text-anchor:start;white-space:normal;clip-rule:nonzero;display:inline;overflow:visible;visibility:visible;opacity:1;isolation:auto;mix-blend-mode:normal;color-interpolation:sRGB;color-interpolation-filters:linearRGB;solid-color:#000000;solid-opacity:1;fill:#000000;fill-opacity:1;fill-rule:nonzero;stroke:none;stroke-width:0.49999997;stroke-linecap:butt;stroke-linejoin:miter;stroke-miterlimit:4;stroke-dasharray:none;stroke-dashoffset:0;stroke-opacity:1;color-rendering:auto;image-rendering:auto;shape-rendering:auto;text-rendering:auto;enable-background:accumulate" d="m 97.6294,290.74837 c 0.0146,1.13412 -0.0956,1.27773 -0.0956,1.27773 l 0.61964,-0.048 c 0,0 -0.0652,-0.2374 -0.0975,-1.11199 -0.005,-0.1474 -0.42845,-0.26523 -0.42655,-0.11774 z" inkscape:connector-curvature="0" />
        <path style="color:#000000;font-style:normal;font-variant:normal;font-weight:normal;font-stretch:normal;font-size:medium;line-height:normal;font-family:sans-serif;text-indent:0;text-align:start;text-decoration:none;text-decoration-line:none;text-decoration-style:solid;text-decoration-color:#000000;letter-spacing:normal;word-spacing:normal;text-transform:none;direction:ltr;block-progression:tb;writing-mode:lr-tb;baseline-shift:baseline;text-anchor:start;white-space:normal;clip-rule:nonzero;display:inline;overflow:visible;visibility:visible;opacity:1;isolation:auto;mix-blend-mode:normal;color-interpolation:sRGB;color-interpolation-filters:linearRGB;solid-color:#000000;solid-opacity:1;fill:#000000;fill-opacity:1;fill-rule:nonzero;stroke:none;stroke-width:0.49999997;stroke-linecap:butt;stroke-linejoin:miter;stroke-miterlimit:4;stroke-dasharray:none;stroke-dashoffset:0;stroke-opacity:1;color-rendering:auto;image-rendering:auto;shape-rendering:auto;text-rendering:auto;enable-background:accumulate" d="m 99.05443,290.95071 c 0.0466,0.86236 -0.0404,1.24458 -0.0404,1.24458 l 0.53125,-0.0811 c 0,0 -0.054,-0.23486 -0.0422,-1.1341 0.002,-0.1427 -0.40962,-0.22457 -0.4376,-0.0846 z" inkscape:connector-curvature="0" />
        <path style="color:#000000;font-style:normal;font-variant:normal;font-weight:normal;font-stretch:normal;font-size:medium;line-height:normal;font-family:sans-serif;text-indent:0;text-align:start;text-decoration:none;text-decoration-line:none;text-decoration-style:solid;text-decoration-color:#000000;letter-spacing:normal;word-spacing:normal;text-transform:none;direction:ltr;block-progression:tb;writing-mode:lr-tb;baseline-shift:baseline;text-anchor:start;white-space:normal;clip-rule:nonzero;display:inline;overflow:visible;visibility:visible;opacity:1;isolation:auto;mix-blend-mode:normal;color-interpolation:sRGB;color-interpolation-filters:linearRGB;solid-color:#000000;solid-opacity:1;fill:#000000;fill-opacity:1;fill-rule:nonzero;stroke:none;stroke-width:0.49999997;stroke-linecap:butt;stroke-linejoin:miter;stroke-miterlimit:4;stroke-dasharray:none;stroke-dashoffset:0;stroke-opacity:1;color-rendering:auto;image-rendering:auto;shape-rendering:auto;text-rendering:auto;enable-background:accumulate" d="m 100.4009,290.99111 c 0.0202,0.9611 -0.0846,1.25563 -0.0846,1.25563 l 0.60859,-0.11428 c 0,0 -0.11429,-0.11132 -0.0532,-1.12305 0.0103,-0.17158 -0.47427,-0.19016 -0.47066,-0.0183 z" inkscape:connector-curvature="0" />
        <path style="color:#000000;font-style:normal;font-variant:normal;font-weight:normal;font-stretch:normal;font-size:medium;line-height:normal;font-family:sans-serif;text-indent:0;text-align:start;text-decoration:none;text-decoration-line:none;text-decoration-style:solid;text-decoration-color:#000000;letter-spacing:normal;word-spacing:normal;text-transform:none;direction:ltr;block-progression:tb;writing-mode:lr-tb;baseline-shift:baseline;text-anchor:start;white-space:normal;clip-rule:nonzero;display:inline;overflow:visible;visibility:visible;opacity:1;isolation:auto;mix-blend-mode:normal;color-interpolation:sRGB;color-interpolation-filters:linearRGB;solid-color:#000000;solid-opacity:1;fill:#000000;fill-opacity:1;fill-rule:nonzero;stroke:none;stroke-width:0.49999997;stroke-linecap:butt;stroke-linejoin:miter;stroke-miterlimit:4;stroke-dasharray:none;stroke-dashoffset:0;stroke-opacity:1;color-rendering:auto;image-rendering:auto;shape-rendering:auto;text-rendering:auto;enable-background:accumulate" d="m 101.7947,291.02458 c 0.0146,1.13412 -0.0957,1.1562 -0.0957,1.1562 l 0.61964,-0.048 c 0,0 -0.0653,-0.24845 -0.0974,-1.12304 -0.005,-0.1474 -0.42845,-0.13265 -0.42655,0.0148 z" inkscape:connector-curvature="0" />
        <path style="color:#000000;font-style:normal;font-variant:normal;font-weight:normal;font-stretch:normal;font-size:medium;line-height:normal;font-family:sans-serif;text-indent:0;text-align:start;text-decoration:none;text-decoration-line:none;text-decoration-style:solid;text-decoration-color:#000000;letter-spacing:normal;word-spacing:normal;text-transform:none;direction:ltr;block-progression:tb;writing-mode:lr-tb;baseline-shift:baseline;text-anchor:start;white-space:normal;clip-rule:nonzero;display:inline;overflow:visible;visibility:visible;opacity:1;isolation:auto;mix-blend-mode:normal;color-interpolation:sRGB;color-interpolation-filters:linearRGB;solid-color:#000000;solid-opacity:1;fill:#000000;fill-opacity:1;fill-rule:nonzero;stroke:none;stroke-width:0.49999997;stroke-linecap:butt;stroke-linejoin:miter;stroke-miterlimit:4;stroke-dasharray:none;stroke-dashoffset:0;stroke-opacity:1;color-rendering:auto;image-rendering:auto;shape-rendering:auto;text-rendering:auto;enable-background:accumulate" d="m 103.054,291.017 c 0.0466,0.86236 -0.0625,1.112 -0.0625,1.112 l 0.53125,-0.0811 c 0,0 -0.054,-0.16857 -0.0422,-1.06781 0.002,-0.1427 -0.43425,-0.1056 -0.42655,0.0369 z" inkscape:connector-curvature="0" />
      </g>
    </g>
  </g>
</g>
<g inkscape:groupmode="layer" id="edge_guides_layer" inkscape:label="Edges" style="display:none" sodipodi:insensitive="true" >
  <g id="guide0-1" transform="" >
    <rect x="156.475" y="-22.5" width="90.125" height="22.5" style="fill:#ffd291;stroke:#000000;stroke-width:0.9" />
    <rect x="164.1" y="-22.5" width="82.5" height="22.5" style="fill:#b4e982;stroke:#000000;stroke-width:0.9" />
    <rect x="178.975" y="-22.5" width="67.625" height="22.5" style="fill:#5adc4f;stroke:#000000;stroke-width:0.9" />
    <rect x="0" y="-22.5" width="156.475" height="22.5" style="fill:#b9deff;stroke:#000000;stroke-width:0.9" />
    <rect x="0" y="-22.5" width="114.5" height="22.5" style="fill:#9bceff;stroke:#000000;stroke-width:0.9" />
    <rect x="0" y="-22.5" width="66.25" height="22.5" style="fill:#73baff;stroke:#000000;stroke-width:0.9" />
    <path style="display:inline;fill:none;stroke:#000000;stroke-width:2;stroke-linecap:round;stroke-miterlimit:4;stroke-dasharray:0.1, 5;stroke-dashoffset:0;stroke-opacity:1" d="m 86.25,0 0,-22.5" inkscape:connector-curvature="0" />
  </g>
  <g id="guide1-7" transform="matrix(0,1,-1,0,246.6,0)" >
    <rect x="0" y="-22.5" width="246.6" height="22.5" style="fill:#b4e982;stroke:#000000;stroke-width:0.9" />
    <rect x="0" y="-22.5" width="118.036" height="22.5" style="fill:#5adc4f;stroke:#000000;stroke-width:0.9" />
    <rect x="128.564" y="-22.5" width="118.036" height="22.5" style="fill:#5adc4f;stroke:#000000;stroke-width:0.9" />
    <path style="display:inline;fill:none;stroke:#000000;stroke-width:2;stroke-linecap:round;stroke-miterlimit:4;stroke-dasharray:0.1, 5;stroke-dashoffset:0;stroke-opacity:1" d="m 123.75,0 0,-22.5" inkscape:connector-curvature="0" />
  </g>
  <g id="guide2-7" transform="matrix(-1,0,0,-1,246.6,246.6)" >
    <rect x="0" y="-22.5" width="246.6" height="22.5" style="fill:#b4e982;stroke:#000000;stroke-width:0.9" />
    <rect x="0" y="-22.5" width="118.036" height="22.5" style="fill:#5adc4f;stroke:#000000;stroke-width:0.9" />
    <rect x="128.564" y="-22.5" width="118.036" height="22.5" style="fill:#5adc4f;stroke:#000000;stroke-width:0.9" />
    <path style="display:inline;fill:none;stroke:#000000;stroke-width:2;stroke-linecap:round;stroke-miterlimit:4;stroke-dasharray:0.1, 5;stroke-dashoffset:0;stroke-opacity:1" d="m 123.75,0 0,-22.5" inkscape:connector-curvature="0" />
  </g>
  <g id="guide3-6" transform="matrix(0,-1,1,0,0,246.6)" >
    <rect x="0" y="-22.5" width="164.875" height="22.5" style="fill:#ffd291;stroke:#000000;stroke-width:0.9" />
    <rect x="0" y="-22.5" width="148" height="22.5" style="fill:#b4e982;stroke:#000000;stroke-width:0.9" />
    <rect x="0" y="-22.5" width="43.5" height="22.5" style="fill:#5adc4f;stroke:#000000;stroke-width:0.9" />
    <rect x="54.75" y="-22.5" width="39.5" height="22.5" style="fill:#5adc4f;stroke:#000000;stroke-width:0.9" />
    <rect x="105.5" y="-22.5" width="49.5" height="22.5" style="fill:#5adc4f;stroke:#000000;stroke-width:0.9" />
    <rect x="164.875" y="-22.5" width="81.725" height="22.5" style="fill:#b9deff;stroke:#000000;stroke-width:0.9" />
    <rect x="187.975" y="-22.5" width="58.625" height="22.5" style="fill:#9bceff;stroke:#000000;stroke-width:0.9" />
    <rect x="210.1" y="-22.5" width="36.5" height="22.5" style="fill:#73baff;stroke:#000000;stroke-width:0.9" />
    <path style="display:inline;fill:none;stroke:#000000;stroke-width:2;stroke-linecap:round;stroke-miterlimit:4;stroke-dasharray:0.1, 5;stroke-dashoffset:0;stroke-opacity:1" d="m 86.25,0 0,-22.5" inkscape:connector-curvature="0" />
  </g>
</g>
<g inkscape:groupmode="layer" id="id_layer" inkscape:label="Card ID" style="display:none" sodipodi:insensitive="true" >
  <text xml:space="preserve" x="19.7" y="27.3" style="font-style:normal;font-variant:normal;font-weight:normal;font-stretch:normal;font-size:9px;line-height:125%;font-family:CCTreasureTrove;-inkscape-font-specification:'CCTreasureTrove, Normal';text-align:start;letter-spacing:0px;word-spacing:0px;writing-mode:lr-tb;text-anchor:start;display:inline;fill:#606060;fill-opacity:1;stroke:none;stroke-width:1px;stroke-linecap:butt;stroke-linejoin:miter;stroke-opacity:1" 
>1776c</text></g>
<g inkscape:groupmode="layer" id="cut_layer" inkscape:label="Cut Line" style="display:none" sodipodi:insensitive="true" >
  <rect id="cut-line" x="11.25" y="11.25" width="224.5" height="224.5" style="fill:none;stroke:#000000;stroke-width:0.5;stroke-linecap:butt;stroke-linejoin:bevel;stroke-miterlimit:4;stroke-dasharray:none;stroke-opacity:1" ry="11.338962" />
</g>
<g inkscape:groupmode="layer" id="page_border_layer" inkscape:label="Page Border" style="display:none" sodipodi:insensitive="true" >
  <rect x="0" y="0" width="246.6" height="246.6" style="fill:none;stroke:#000000;stroke-width:0.5;stroke-linecap:butt;stroke-linejoin:bevel;stroke-miterlimit:4;stroke-dasharray:none;stroke-opacity:1" />
</g>

</svg>
