<?xml version="1.0" encoding="UTF-8" standalone="no"?>
<!-- Created with Inkscape (http://www.inkscape.org/) -->

<svg
   width="1in"
   height="1in"
   viewBox="0 0 25.4 25.4"
   version="1.1"
   id="svg1"
   xml:space="preserve"
   inkscape:version="1.3.2 (091e20e, 2023-11-25)"
   sodipodi:docname="banana.svg"
   inkscape:export-filename="banana.png"
   inkscape:export-xdpi="300"
   inkscape:export-ydpi="300"
   xmlns:inkscape="http://www.inkscape.org/namespaces/inkscape"
   xmlns:sodipodi="http://sodipodi.sourceforge.net/DTD/sodipodi-0.dtd"
   xmlns:xlink="http://www.w3.org/1999/xlink"
   xmlns="http://www.w3.org/2000/svg"
   xmlns:svg="http://www.w3.org/2000/svg"><sodipodi:namedview
     id="namedview1"
     pagecolor="#ffffff"
     bordercolor="#666666"
     borderopacity="1.0"
     inkscape:showpageshadow="2"
     inkscape:pageopacity="0.0"
     inkscape:pagecheckerboard="0"
     inkscape:deskcolor="#d1d1d1"
     inkscape:document-units="mm"
     inkscape:zoom="4.9050723"
     inkscape:cx="17.023195"
     inkscape:cy="53.821837"
     inkscape:window-width="1424"
     inkscape:window-height="702"
     inkscape:window-x="0"
     inkscape:window-y="38"
     inkscape:window-maximized="0"
     inkscape:current-layer="layer7" /><defs
     id="defs1" /><g
     inkscape:groupmode="layer"
     id="layer6"
     inkscape:label="Template"
     style="display:none"><image
       width="25.4"
       height="25.4"
       preserveAspectRatio="none"
       xlink:href="medium-circle-chit.png"
       id="image1"
       x="1.9073487e-07"
       y="1.9073487e-07"
       style="display:inline" /></g><g
     inkscape:groupmode="layer"
     id="layer7"
     inkscape:label="Art"><g
       id="resource-banana"
       style="display:inline"
       transform="matrix(0.41148002,0,0,0.41148002,12.750206,58.120484)"><path
         style="color:#000000;clip-rule:nonzero;display:inline;overflow:visible;visibility:visible;opacity:1;isolation:auto;mix-blend-mode:normal;color-interpolation:sRGB;color-interpolation-filters:linearRGB;solid-color:#000000;solid-opacity:1;fill:#f6ff7d;fill-opacity:1;fill-rule:evenodd;stroke:#000000;stroke-width:0.9;stroke-linecap:round;stroke-linejoin:miter;stroke-miterlimit:4;stroke-dasharray:none;stroke-dashoffset:0;stroke-opacity:1;color-rendering:auto;image-rendering:auto;shape-rendering:auto;text-rendering:auto;enable-background:accumulate"
         d="m 8.78082,-121.13744 c 0.34471,1.36915 0.66512,3.60435 0.73321,4.6643 -0.49421,3.88746 -1.33998,7.74843 -3.32367,10.57326 -2.40596,3.42618 -5.41293,5.37866 -11.11869,7.679247 -0.60011,0.241966 -1.22538,0.289326 -1.46855,0.679535 -0.16319,0.261865 0.37387,1.454696 0.69075,1.620824 0.62648,0.328443 1.07253,0.177853 1.77872,0.218405 2.75809,0.158378 5.05424,-0.146839 8.30722,-1.151769 2.54386,-0.78586 5.74014,-3.251012 7.23795,-5.452222 1.82616,-2.68377 2.69924,-6.37346 2.5117,-9.61419 -0.15399,-2.66107 -2.58676,-5.30143 -2.58676,-5.30143 -0.24357,-1.33177 -0.66717,-2.90679 -1.14995,-4.64892 -0.58055,0.0153 -1.40915,0.37101 -1.61193,0.73296 z"
         id="path9845"
         inkscape:connector-curvature="0"
         sodipodi:nodetypes="ccssssssssccc" /><path
         inkscape:connector-curvature="0"
         id="path9843"
         d="m 7.87879,-120.99354 c 0.0285,1.61295 0.38658,3.34631 0.31301,4.75879 -1.00555,3.30202 -3.33857,6.81255 -5.886,9.14173 -3.35597,3.06847 -7.87513,4.2358 -12.26178,5.43386 -0.6242,0.17048 -1.27338,-0.11771 -1.42138,0.51219 -0.15176,0.64587 0.0489,1.217046 0.31467,1.704455 0.33862,0.621027 0.89583,0.442404 1.59118,0.572223 2.67893,0.500153 5.58439,0.941055 8.23815,0.321149 2.59268,-0.605634 5.07646,-1.926877 7.10245,-3.654337 2.47014,-2.10616 4.44803,-4.97661 5.01611,-8.17267 0.39839,-2.24136 -0.605,-3.85067 -0.89708,-6.10835 -0.2048,-1.58315 0.19285,-2.72685 -0.1333,-4.91236 -0.55377,0.056 -1.33048,0.14727 -1.97603,0.40332 z"
         style="color:#000000;clip-rule:nonzero;display:inline;overflow:visible;visibility:visible;opacity:1;isolation:auto;mix-blend-mode:normal;color-interpolation:sRGB;color-interpolation-filters:linearRGB;solid-color:#000000;solid-opacity:1;fill:#f7ff7d;fill-opacity:1;fill-rule:evenodd;stroke:#000000;stroke-width:0.9;stroke-linecap:round;stroke-linejoin:miter;stroke-miterlimit:4;stroke-dasharray:none;stroke-dashoffset:0;stroke-opacity:1;color-rendering:auto;image-rendering:auto;shape-rendering:auto;text-rendering:auto;enable-background:accumulate"
         sodipodi:nodetypes="ccssssssssscc" /><path
         sodipodi:nodetypes="ccssssssssscc"
         inkscape:connector-curvature="0"
         id="path5902"
         d="m 6.86373,-121.02142 c -0.0162,1.67579 0.0613,3.31817 -0.2121,4.71569 -1.71528,2.99538 -4.19007,5.95351 -7.46659,7.74634 -4.28888,2.34678 -7.01389,2.86781 -11.88451,2.04623 -0.63804,-0.10762 -0.91664,-0.4723 -1.38982,-0.031 -0.50866,0.47443 -0.41626,1.00712 -0.0714,1.61117 0.35071,0.61429 0.52944,0.41897 1.09534,0.84336 1.98511,1.48869 3.74434,2.06677 6.44298,2.04779 2.77975,-0.0196 6.56154,-0.29036 8.90025,-1.56286 2.85139,-1.55146 4.93737,-3.4518 6.15239,-6.46199 0.85208,-2.11101 -0.0744,-4.05058 0.10539,-6.31996 0.12609,-1.59136 0.14328,-2.6534 0.0968,-4.5494 -0.63016,-0.20606 -1.24784,-0.12786 -1.76873,-0.0854 z"
         style="color:#000000;clip-rule:nonzero;display:inline;overflow:visible;visibility:visible;opacity:1;isolation:auto;mix-blend-mode:normal;color-interpolation:sRGB;color-interpolation-filters:linearRGB;solid-color:#000000;solid-opacity:1;fill:#f7ff7d;fill-opacity:1;fill-rule:evenodd;stroke:#000000;stroke-width:0.9;stroke-linecap:round;stroke-linejoin:bevel;stroke-miterlimit:4;stroke-dasharray:none;stroke-dashoffset:0;stroke-opacity:1;color-rendering:auto;image-rendering:auto;shape-rendering:auto;text-rendering:auto;enable-background:accumulate" /><path
         sodipodi:nodetypes="cssssccc"
         inkscape:connector-curvature="0"
         id="path9830"
         d="m 2.51814,-107.7686 c -2.07228,1.54391 -3.74795,2.09142 -6.33636,2.57335 -1.72347,0.32089 -3.84937,0.49004 -6.70834,0.0497 -0.53792,-0.0828 -0.32892,0.17921 0.20456,0.28719 2.7148,0.54957 5.27205,0.1766 6.8941,-0.0851 2.63047,-0.42445 3.77137,-0.81223 6.04492,-2.32391 0.12768,-0.58475 -0.15949,-0.11588 -0.0988,-0.5012 z"
         style="color:#000000;font-style:normal;font-variant:normal;font-weight:normal;font-stretch:normal;font-size:medium;line-height:normal;font-family:sans-serif;text-indent:0;text-align:start;text-decoration:none;text-decoration-line:none;text-decoration-style:solid;text-decoration-color:#000000;letter-spacing:normal;word-spacing:normal;text-transform:none;writing-mode:lr-tb;direction:ltr;baseline-shift:baseline;text-anchor:start;white-space:normal;clip-rule:nonzero;display:inline;overflow:visible;visibility:visible;opacity:1;isolation:auto;mix-blend-mode:normal;color-interpolation:sRGB;color-interpolation-filters:linearRGB;solid-color:#000000;solid-opacity:1;fill:#737828;fill-opacity:1;fill-rule:evenodd;stroke:none;stroke-width:0.72;stroke-linecap:round;stroke-linejoin:miter;stroke-miterlimit:4;stroke-dasharray:none;stroke-dashoffset:0;stroke-opacity:1;color-rendering:auto;image-rendering:auto;shape-rendering:auto;text-rendering:auto;enable-background:accumulate" /><path
         sodipodi:nodetypes="ccssssssssscc"
         style="color:#000000;clip-rule:nonzero;display:inline;overflow:visible;visibility:visible;opacity:1;isolation:auto;mix-blend-mode:normal;color-interpolation:sRGB;color-interpolation-filters:linearRGB;solid-color:#000000;solid-opacity:1;fill:#f7ff7d;fill-opacity:1;fill-rule:evenodd;stroke:#000000;stroke-width:0.72;stroke-linecap:round;stroke-linejoin:miter;stroke-miterlimit:4;stroke-dasharray:none;stroke-dashoffset:0;stroke-opacity:1;color-rendering:auto;image-rendering:auto;shape-rendering:auto;text-rendering:auto;enable-background:accumulate"
         d="m 7.87879,-120.99354 c 0.0285,1.61295 0.38658,3.34631 0.31301,4.75879 -1.00555,3.30202 -3.33857,6.81255 -5.886,9.14173 -3.35597,3.06847 -7.87513,4.2358 -12.26178,5.43386 -0.6242,0.17048 -1.27338,-0.11771 -1.42138,0.51219 -0.15176,0.64587 0.0489,1.217046 0.31467,1.704455 0.33862,0.621027 0.89583,0.442404 1.59118,0.572223 2.67893,0.500153 5.58439,0.941055 8.23815,0.321149 2.59268,-0.605634 5.07646,-1.926877 7.10245,-3.654337 2.47014,-2.10616 4.44803,-4.97661 5.01611,-8.17267 0.39839,-2.24136 -0.605,-3.85067 -0.89708,-6.10835 -0.2048,-1.58315 0.19285,-2.72685 -0.1333,-4.91236 -0.55377,0.056 -1.33048,0.14727 -1.97603,0.40332 z"
         id="path5900"
         inkscape:connector-curvature="0" /><path
         sodipodi:nodetypes="ssssssscs"
         inkscape:connector-curvature="0"
         id="path9828"
         d="m 4.80468,-106.35032 c -1.8366,1.79924 -3.59964,2.90171 -6.00807,3.97021 -1.77027,0.7854 -3.77092,1.22784 -6.52266,1.38661 -0.55888,0.0322 -0.28397,0.22297 0.27546,0.20184 2.71946,-0.10273 4.80476,-0.55229 6.63126,-1.36264 2.43383,-1.07977 4.50278,-2.38649 6.25386,-4.13127 0.79789,-0.79502 1.95252,-2.23179 2.69967,-3.4881 0.21909,-0.3684 0.3354,-1.28542 0.2234,-1.22755 -1.02526,2.0653 -2.6769,3.7927 -3.55292,4.6509 z"
         style="color:#000000;font-style:normal;font-variant:normal;font-weight:normal;font-stretch:normal;font-size:medium;line-height:normal;font-family:sans-serif;text-indent:0;text-align:start;text-decoration:none;text-decoration-line:none;text-decoration-style:solid;text-decoration-color:#000000;letter-spacing:normal;word-spacing:normal;text-transform:none;writing-mode:lr-tb;direction:ltr;baseline-shift:baseline;text-anchor:start;white-space:normal;clip-rule:nonzero;display:inline;overflow:visible;visibility:visible;opacity:1;isolation:auto;mix-blend-mode:normal;color-interpolation:sRGB;color-interpolation-filters:linearRGB;solid-color:#000000;solid-opacity:1;fill:#737828;fill-opacity:1;fill-rule:evenodd;stroke:none;stroke-width:0.72;stroke-linecap:round;stroke-linejoin:miter;stroke-miterlimit:4;stroke-dasharray:none;stroke-dashoffset:0;stroke-opacity:1;color-rendering:auto;image-rendering:auto;shape-rendering:auto;text-rendering:auto;enable-background:accumulate" /><path
         sodipodi:nodetypes="ccssssssssccc"
         inkscape:connector-curvature="0"
         id="path5898"
         d="m 8.78082,-121.13744 c 0.34471,1.36915 0.66512,3.60435 0.73321,4.6643 -0.49421,3.88746 -1.33998,7.74843 -3.32367,10.57326 -2.40596,3.42618 -5.41293,5.37866 -11.11869,7.679247 -0.60011,0.241966 -1.22538,0.289326 -1.46855,0.679535 -0.16319,0.261865 0.37387,1.454696 0.69075,1.620824 0.62648,0.328443 1.07253,0.177853 1.77872,0.218405 2.75809,0.158378 5.05424,-0.146839 8.30722,-1.151769 2.54386,-0.78586 5.74014,-3.251012 7.23795,-5.452222 1.82616,-2.68377 2.69924,-6.37346 2.5117,-9.61419 -0.15399,-2.66107 -2.58676,-5.30143 -2.58676,-5.30143 -0.24357,-1.33177 -0.66717,-2.90679 -1.14995,-4.64892 -0.58055,0.0153 -1.40915,0.37101 -1.61193,0.73296 z"
         style="color:#000000;clip-rule:nonzero;display:inline;overflow:visible;visibility:visible;opacity:1;isolation:auto;mix-blend-mode:normal;color-interpolation:sRGB;color-interpolation-filters:linearRGB;solid-color:#000000;solid-opacity:1;fill:#f6ff7d;fill-opacity:1;fill-rule:evenodd;stroke:#000000;stroke-width:0.72;stroke-linecap:round;stroke-linejoin:miter;stroke-miterlimit:4;stroke-dasharray:none;stroke-dashoffset:0;stroke-opacity:1;color-rendering:auto;image-rendering:auto;shape-rendering:auto;text-rendering:auto;enable-background:accumulate" /><path
         sodipodi:nodetypes="sssssssssss"
         inkscape:connector-curvature="0"
         id="path9826"
         d="m 11.17023,-113.86439 c -0.011,1.77939 -0.15804,3.37671 -0.70318,5.01283 -0.47684,1.43111 -0.94867,2.44937 -1.96984,4.0718 -1.36954,2.17594 -2.93041,3.68885 -5.19121,5.042 -1.55728,0.93208 -2.86824,1.715367 -5.59247,2.278309 -0.52698,0.108898 -1.00078,0.418847 -0.4677,0.345229 2.76772,-0.382229 4.71945,-1.233835 6.39997,-2.314868 2.23928,-1.44048 3.93705,-2.7933 5.38929,-5.10065 1.02607,-1.63022 1.47452,-2.54995 1.94328,-4.06882 0.56259,-1.82288 0.63573,-3.73693 0.46838,-5.5182 -0.0877,-0.93395 -0.2737,-0.2032 -0.27652,0.25237 z"
         style="color:#000000;font-style:normal;font-variant:normal;font-weight:normal;font-stretch:normal;font-size:medium;line-height:normal;font-family:sans-serif;text-indent:0;text-align:start;text-decoration:none;text-decoration-line:none;text-decoration-style:solid;text-decoration-color:#000000;letter-spacing:normal;word-spacing:normal;text-transform:none;writing-mode:lr-tb;direction:ltr;baseline-shift:baseline;text-anchor:start;white-space:normal;clip-rule:nonzero;display:inline;overflow:visible;visibility:visible;opacity:1;isolation:auto;mix-blend-mode:normal;color-interpolation:sRGB;color-interpolation-filters:linearRGB;solid-color:#000000;solid-opacity:1;fill:#737828;fill-opacity:1;fill-rule:evenodd;stroke:none;stroke-width:0.72;stroke-linecap:round;stroke-linejoin:miter;stroke-miterlimit:4;stroke-dasharray:none;stroke-dashoffset:0;stroke-opacity:1;color-rendering:auto;image-rendering:auto;shape-rendering:auto;text-rendering:auto;enable-background:accumulate" /></g></g><g
     inkscape:label="Cut / Safe"
     inkscape:groupmode="layer"
     id="layer1"
     style="display:none"><circle
       fill="none"
       stroke="#00adee"
       stroke-width="0.132292"
       stroke-dasharray="5"
       cx="12.7"
       cy="12.7"
       r="6.3499842"
       id="circle274"
       style="stroke-dasharray:1.32292;stroke-dashoffset:0"
       inkscape:label="safe" /><circle
       fill="#ffffff"
       stroke="#ec1c24"
       stroke-width="0.132292"
       cx="12.7"
       cy="12.7"
       r="9.5249758"
       id="circle103"
       style="fill:none"
       inkscape:label="cut" /></g></svg>
