<?xml version="1.0" encoding="UTF-8" standalone="no"?>
<svg version="1.1" height="337.5" width="247.5" xmlns:rdf="http://www.w3.org/1999/02/22-rdf-syntax-ns#" xmlns="http://www.w3.org/2000/svg" xmlns:cc="http://creativecommons.org/ns#" xmlns:xlink="http://www.w3.org/1999/xlink" xmlns:dc="http://purl.org/dc/elements/1.1/" xmlns:sodipodi="http://sodipodi.sourceforge.net/DTD/sodipodi-0.dtd" xmlns:svg="http://www.w3.org/2000/svg" xmlns:inkscape="http://www.inkscape.org/namespaces/inkscape">
<metadata>
  <rdf:RDF>
    <cc:Work rdf:about="">
      <dc:format>image/svg+xml</dc:format>
      <dc:type rdf:resource="http://purl.org/dc/dcmitype/StillImage"/>
      <dc:title/>
      <dc:creator>
        <cc:Agent><dc:title>Gary Kacmarcik</dc:title></cc:Agent>
      </dc:creator>
    </cc:Work>
  </rdf:RDF>
</metadata>

<defs>
  <filter inkscape:label="textureGrassBig" style="color-interpolation-filters:sRGB" id="textureGrassBig">
    <feTurbulence numOctaves="2" seed="504" type="turbulence" baseFrequency="0.070000" result="result1" />
    <feColorMatrix result="result0" in="SourceGraphic" type="luminanceToAlpha" />
    <feColorMatrix result="result2" values="1 0 0 0 0 0 1 0 0 0 0 0 1 0 0 0 0 0 0.4 0 " />
    <feComposite in="result2" operator="over" in2="result1" />
    <feColorMatrix result="result91" values="1 0 0 0 0 0 1 0 0 0 0 0 1 0 0 0 0 0 10 -4 " />
    <feComposite operator="out" in="SourceGraphic" in2="result91" />
    <feGaussianBlur stdDeviation="2.500000" />
    <feColorMatrix values="1 0 0 0 0 0 1 0 0 0 0 0 1 0 0 0 0 0 1 0 " />
  </filter>
  <filter inkscape:label="textureGrassSmall" style="color-interpolation-filters:sRGB" id="textureGrassSmall">
    <feTurbulence numOctaves="4" seed="504" type="turbulence" baseFrequency="0.500000" result="result1" />
    <feColorMatrix result="result0" in="SourceGraphic" type="luminanceToAlpha" />
    <feColorMatrix result="result2" values="1 0 0 0 0 0 1 0 0 0 0 0 1 0 0 0 0 0 0.4 0 " />
    <feComposite in="result2" operator="over" in2="result1" />
    <feColorMatrix result="result91" values="1 0 0 0 0 0 1 0 0 0 0 0 1 0 0 0 0 0 10 -4 " />
    <feComposite operator="out" in="SourceGraphic" in2="result91" />
    <feGaussianBlur stdDeviation="1.000000" />
    <feColorMatrix values="1 0 0 0 0 0 1 0 0 0 0 0 1 0 0 0 0 0 1 0 " />
  </filter>
  <filter inkscape:label="textureLand" style="color-interpolation-filters:sRGB" id="textureLand">
    <feTurbulence numOctaves="4" seed="504" type="turbulence" baseFrequency="0.500000" result="result1" />
    <feColorMatrix result="result0" in="SourceGraphic" type="luminanceToAlpha" />
    <feColorMatrix result="result2" values="1 0 0 0 0 0 1 0 0 0 0 0 1 0 0 0 0 0 0.4 0 " />
    <feComposite in="result2" operator="over" in2="result1" />
    <feColorMatrix result="result91" values="1 0 0 0 0 0 1 0 0 0 0 0 1 0 0 0 0 0 10 -4 " />
    <feComposite operator="out" in="SourceGraphic" in2="result91" />
    <feGaussianBlur stdDeviation="0.800000" />
    <feColorMatrix values="1 0 0 0 0 0 1 0 0 0 0 0 1 0 0 0 0 0 1 0 " />
  </filter>
  <filter inkscape:label="textureForestBig" style="color-interpolation-filters:sRGB" id="textureForestBig">
    <feTurbulence numOctaves="2" seed="504" type="turbulence" baseFrequency="0.300000" result="result1" />
    <feColorMatrix result="result0" in="SourceGraphic" type="luminanceToAlpha" />
    <feColorMatrix result="result2" values="1 0 0 0 0 0 1 0 0 0 0 0 1 0 0 0 0 0 0.4 0 " />
    <feComposite in="result2" operator="over" in2="result1" />
    <feColorMatrix result="result91" values="1 0 0 0 0 0 1 0 0 0 0 0 1 0 0 0 0 0 10 -4 " />
    <feComposite operator="out" in="SourceGraphic" in2="result91" />
    <feGaussianBlur stdDeviation="2.000000" />
    <feColorMatrix values="1 0 0 0 0 0 1 0 0 0 0 0 1 0 0 0 0 0 1 0 " />
  </filter>
  <filter inkscape:label="textureForestSmall" style="color-interpolation-filters:sRGB" id="textureForestSmall">
    <feTurbulence numOctaves="4" seed="504" type="turbulence" baseFrequency="0.350000" result="result1" />
    <feColorMatrix result="result0" in="SourceGraphic" type="luminanceToAlpha" />
    <feColorMatrix result="result2" values="1 0 0 0 0 0 1 0 0 0 0 0 1 0 0 0 0 0 0.4 0 " />
    <feComposite in="result2" operator="over" in2="result1" />
    <feColorMatrix result="result91" values="1 0 0 0 0 0 1 0 0 0 0 0 1 0 0 0 0 0 10 -4 " />
    <feComposite operator="out" in="SourceGraphic" in2="result91" />
    <feGaussianBlur stdDeviation="1.000000" />
    <feColorMatrix values="1 0 0 0 0 0 1 0 0 0 0 0 1 0 0 0 0 0 1 0 " />
  </filter>
  <filter inkscape:label="roughenShoreline" style="color-interpolation-filters:sRGB" id="roughenShoreline">
    <feTurbulence numOctaves="4" seed="504" type="turbulence" baseFrequency="0.050000" result="turb" />
    <feDisplacementMap scale="6.600000" yChannelSelector="G" xChannelSelector="R" in="SourceGraphic" in2="turb" />
  </filter>
  <filter inkscape:label="roughenForest" style="color-interpolation-filters:sRGB" id="roughenForest">
    <feTurbulence numOctaves="4" seed="504" type="fractalNoise" baseFrequency="0.150000 0.150000" result="turb" />
    <feDisplacementMap scale="6.600000" yChannelSelector="G" xChannelSelector="R" in="SourceGraphic" in2="turb" />
  </filter>
  <filter inkscape:collect="always" inkscape:label="blurSuitRankGlow" style="color-interpolation-filters:sRGB" id="blurSuitRankGlow" x="-0.029025" y="-0.020458" width="1.058049" height="1.040917">
    <feGaussianBlur inkscape:collect="always" stdDeviation="2.515067" />
  </filter>
  <filter inkscape:collect="always" inkscape:label="blurWaterDeep" style="color-interpolation-filters:sRGB" id="blurWaterDeep" x="-0.056691" y="-0.041620" width="1.113381" height="1.083239">
    <feGaussianBlur inkscape:collect="always" stdDeviation="6.919136" />
  </filter>
  <filter inkscape:collect="always" inkscape:label="blurWaterShallow" style="color-interpolation-filters:sRGB" id="blurWaterShallow" x="-0.055818" y="-0.042103" width="1.111637" height="1.084205">
    <feGaussianBlur inkscape:collect="always" stdDeviation="6.561501" />
  </filter>
  <filter inkscape:collect="always" inkscape:label="blurWaterHilight" style="color-interpolation-filters:sRGB" id="blurWaterHilight" x="-0.071178" y="-0.051856" width="1.142356" height="1.103712">
    <feGaussianBlur inkscape:collect="always" stdDeviation="6.857532" />
  </filter>
  <filter inkscape:collect="always" inkscape:label="blurGrass" style="color-interpolation-filters:sRGB" id="blurGrass" x="-0.032100" y="-0.019164" width="1.064201" height="1.038328">
    <feGaussianBlur inkscape:collect="always" stdDeviation="2.386213" />
  </filter>
  <filter inkscape:collect="always" inkscape:label="blurForestShadow" style="color-interpolation-filters:sRGB" id="blurForestShadow" x="-0.033576" y="-0.018674" width="1.067152" height="1.037348">
    <feGaussianBlur inkscape:collect="always" stdDeviation="2.199785" />
  </filter>
  <filter inkscape:collect="always" inkscape:label="blurFlowerInner" style="color-interpolation-filters:sRGB" id="blurFlowerInner" x="-0.420000" y="-0.420000" width="1.840000" height="1.840000">
    <feGaussianBlur inkscape:collect="always" stdDeviation="1.605540" />
  </filter>
  <filter inkscape:collect="always" inkscape:label="blurFlowerMiddle" style="color-interpolation-filters:sRGB" id="blurFlowerMiddle" x="-0.240000" y="-0.240000" width="1.480000" height="1.480000">
    <feGaussianBlur inkscape:collect="always" stdDeviation="1.933705" />
  </filter>
  <linearGradient id="gradientStopsFish" inkscape:collect="always">
    <stop offset="0.000000" style="stop-color:#ff5555;stop-opacity:1.000000" />
    <stop offset="1.000000" style="stop-color:#ffffff;stop-opacity:1.000000" />
  </linearGradient>
  <linearGradient id="gradientStopsCoconut" inkscape:collect="always">
    <stop offset="0.000000" style="stop-color:#ffffff;stop-opacity:1.000000" />
    <stop offset="1.000000" style="stop-color:#c8c8c8;stop-opacity:0.000000" />
  </linearGradient>
  <linearGradient id="gradientStopsFlower" inkscape:collect="always">
    <stop offset="0.000000" style="stop-color:#b16dff;stop-opacity:1.000000" />
    <stop offset="1.000000" style="stop-color:#e7d2ff;stop-opacity:1.000000" />
  </linearGradient>
  <linearGradient id="gradientStopsJellyfish" inkscape:collect="always">
    <stop offset="0.000000" style="stop-color:#4f97ff;stop-opacity:1.000000" />
    <stop offset="1.000000" style="stop-color:#cfe3ff;stop-opacity:1.000000" />
  </linearGradient>
  <linearGradient id="gradientStopsShip" inkscape:collect="always">
    <stop offset="0.000000" style="stop-color:#b67800;stop-opacity:1.000000" />
    <stop offset="1.000000" style="stop-color:#d28b00;stop-opacity:1.000000" />
  </linearGradient>
  <linearGradient id="gradientFish" xlink:href="#gradientStopsFish" x1="178.789090" y1="-114.782830" x2="180.407300" y2="-103.782830" gradientTransform="translate(-178.76256,1.0606602)" gradientUnits="userSpaceOnUse" inkscape:collect="always" />
  <linearGradient id="gradientJellyfishTentacle1a" xlink:href="#gradientStopsJellyfish" x1="118.024030" y1="-110.827530" x2="121.753140" y2="-96.140030" gradientTransform="translate(-120,0)" gradientUnits="userSpaceOnUse" inkscape:collect="always" />
  <linearGradient id="gradientJellyfishTentacle1b" xlink:href="#gradientStopsJellyfish" x1="118.024030" y1="-110.827530" x2="121.753140" y2="-96.140030" gradientTransform="translate(-120,0)" gradientUnits="userSpaceOnUse" inkscape:collect="always" />
  <linearGradient id="gradientJellyfishTentacle2" xlink:href="#gradientStopsJellyfish" x1="118.218180" y1="-115.782610" x2="121.698270" y2="-97.813858" gradientTransform="translate(-120,0)" gradientUnits="userSpaceOnUse" inkscape:collect="always" />
  <linearGradient id="gradientJellyfishTentacle3" xlink:href="#gradientStopsJellyfish" x1="123.335370" y1="-114.610190" x2="116.678600" y2="-98.453941" gradientTransform="translate(-120,0)" gradientUnits="userSpaceOnUse" inkscape:collect="always" />
  <linearGradient id="gradientShip" xlink:href="#gradientStopsShip" x1="196.432910" y1="221.715270" x2="203.663250" y2="204.277770" gradientTransform="matrix(0.37654483,0.9263984,-0.9263984,0.37654483,355.66788,-318.43897)" gradientUnits="userSpaceOnUse" inkscape:collect="always" />
  <radialGradient id="gradientCoconut" xlink:href="#gradientStopsCoconut" cx="1.944096" cy="-60.612652" fx="1.944096" fy="-60.612652" r="6.723294" gradientUnits="userSpaceOnUse" gradientTransform="matrix(1.691364,-0.31394812,0.29762395,1.603419,17.826033,-7.042221)" inkscape:collect="always" />
  <radialGradient id="gradientFlower" xlink:href="#gradientStopsFlower" cx="60.884877" cy="-69.652750" fx="60.884877" fy="-69.652750" r="15.835310" gradientUnits="userSpaceOnUse" gradientTransform="matrix(0.8413905,0,0,0.87120012,-50.722984,-48.679159)" inkscape:collect="always" />
  <radialGradient id="gradientJellyfish" xlink:href="#gradientStopsJellyfish" cx="120.453410" cy="-112.943900" fx="120.453410" fy="-112.943900" r="10.580511" gradientUnits="userSpaceOnUse" gradientTransform="matrix(1.1662998,0.0435575,-0.04526952,1.2121402,-145.14628,17.080499)" inkscape:collect="always" />
</defs>

<sodipodi:namedview
    id="base"
    pagecolor="#ffffff"
    bordercolor="#666666"
    borderopacity="1.0"
    inkscape:pageopacity="0.0"
    inkscape:pageshadow="2"
    inkscape:zoom="2"
    inkscape:cx="115.37643"
    inkscape:cy="285.04449"
    inkscape:document-units="in"
    showgrid="true"
    units="in"
    inkscape:window-width="1392"
    inkscape:window-height="836"
    inkscape:window-x="39"
    inkscape:window-y="6"
    inkscape:window-maximized="0"
    inkscape:snap-grids="true"
    inkscape:snap-to-guides="true"
    inkscape:snap-nodes="true"
    inkscape:object-nodes="true"
    inkscape:snap-smooth-nodes="true"
    inkscape:snap-intersection-paths="true"
    inkscape:object-paths="true"
    inkscape:snap-bbox="true"
    inkscape:bbox-nodes="true"
    inkscape:snap-others="true"
    inkscape:bbox-paths="false"
    inkscape:snap-global="true" >
  <inkscape:grid
    type="xygrid"
    id="grid3051"
    empspacing="2"
    visible="true"
    enabled="true"
    snapvisiblegridlinesonly="true"
    spacingx="0.0625in"
    spacingy="0.0625in"
    dotted="false"
    units="in" />
</sodipodi:namedview>
<g inkscape:groupmode="layer" id="water_layer" inkscape:label="Water" style="display:inline" sodipodi:insensitive="true" >
  <rect id="water" style="fill:#b9deff;fill-opacity:1;stroke:none" x="0" y="0" width="247.5" height="337.5" />
</g>
<g inkscape:groupmode="layer" id="water_shallow_layer" inkscape:label="Water Shallow" style="display:inline" sodipodi:insensitive="true" >
  <path style="fill:#9bd1ff;fill-opacity:0.70;fill-rule:evenodd;stroke:none;filter:url(#blurWaterShallow)" d="m 258.75,-11.25 -270,0 0,95.625 22.5,0 L 30,80.5 l 20,-4 26.5,16 13,10.5 33.5,4.5 26.5,21 12,21 12,17.5 23.375,7.375 39.375,-5.625 22.5,0 z" inkscape:connector-curvature="0" />
</g>
<g inkscape:groupmode="layer" id="water_deep_layer" inkscape:label="Water Deep" style="display:inline" sodipodi:insensitive="true" >
  <path style="fill:#87c8ff;fill-opacity:0.60;fill-rule:evenodd;stroke:none;filter:url(#blurWaterDeep)" d="m 258.75,-11.25 -270,0 0,61.875 22.5,0 15.25,-5.125 25.5,-9 31.5,-4 39,5 33.5,0.5 27,24 13,28.5 40.25,10.75 22.5,0 z" inkscape:connector-curvature="0" />
</g>
<g inkscape:groupmode="layer" id="water_hilight_layer" inkscape:label="Water Hilight" style="display:inline" sodipodi:insensitive="true" >
  <use xlink:href="#shoreline" height="100%" width="100%" x="0" y="0" style="display:inline;fill:#ffffff;fill-opacity:1;stroke:#ffffff;stroke-opacity:1;filter:url(#blurWaterHilight)" />
</g>
<g inkscape:groupmode="layer" id="land_layer" inkscape:label="Land" style="display:inline" sodipodi:insensitive="true" >
  <use xlink:href="#shoreline" height="100%" width="100%" x="0" y="0" style="display:inline;fill:#ffddab;fill-opacity:1;stroke:none;stroke-width:1;stroke-miterlimit:4;stroke-dasharray:none;stroke-opacity:1" />
</g>
<g inkscape:groupmode="layer" id="land_texture_layer" inkscape:label="Land Texture" style="display:inline" sodipodi:insensitive="true" >
  <use xlink:href="#shoreline" height="100%" width="100%" x="0" y="0" style="display:inline;fill:#ffca7d;fill-opacity:1;stroke:none;stroke-width:1;stroke-miterlimit:4;stroke-dasharray:none;stroke-opacity:1;filter:url(#textureLand)" />
</g>
<g inkscape:groupmode="layer" id="shoreline_layer" inkscape:label="Shoreline" style="display:inline" sodipodi:insensitive="true" >
  <use xlink:href="#shoreline" height="100%" width="100%" x="0" y="0" style="display:inline;fill:none;fill-opacity:1;stroke:#5f4c14;stroke-width:1;stroke-miterlimit:4;stroke-dasharray:none;stroke-opacity:1" />
</g>
<g inkscape:groupmode="layer" id="shoreline_master_layer" inkscape:label="Shoreline Master" style="display:none" sodipodi:insensitive="true" >
  <path id="shoreline" style="color:#000000;clip-rule:nonzero;display:inline;overflow:visible;visibility:visible;opacity:1;isolation:auto;mix-blend-mode:normal;color-interpolation:sRGB;color-interpolation-filters:linearRGB;solid-color:#000000;solid-opacity:1;fill-opacity:1;fill-rule:evenodd;filter:url(#roughenShoreline);color-rendering:auto;image-rendering:auto;shape-rendering:auto;text-rendering:auto;enable-background:accumulate" d="M 38.125,205.75 C 32.35789,203.60867 22.5,158.41281 22.5,140.625 c 0,-5.625 -5.625,-22.5 -11.25,-22.5 l -11.25,0 -22.5,0 0,241.875 292.5,0 0,-140.625 -22.5,0 c -5.41347,-2.375 -11.49074,-1.75 -16.875,0 0,0 -2.125,-5.625 -11.125,-5.625 -16.53343,-1.85247 -21.01062,37.26194 -30.42773,38.04883 -6.78062,-3.40493 -24.66986,-5.81836 -30.94532,-11.02344 -5.92506,-4.91444 -15.21317,15.31945 -27.91992,17.18359 -17.73786,2.60223 -49.67261,1.74147 -50.32422,-5.46875 C 72.5,232.75 51.541016,227.89258 38.125,205.75 Z" inkscape:connector-curvature="0" />
</g>
<g inkscape:groupmode="layer" id="grass_layer" inkscape:label="Grass" style="display:inline" sodipodi:insensitive="true" >
  <use xlink:href="#grass" height="100%" width="100%" x="0" y="0" style="display:inline;fill:#b4e982;fill-opacity:1;stroke:none;stroke-width:1;stroke-miterlimit:4;stroke-dasharray:none;stroke-opacity:1" />
</g>
<g inkscape:groupmode="layer" id="grass_texture1_layer" inkscape:label="Grass Texture Big" style="display:inline" sodipodi:insensitive="true" >
  <use xlink:href="#grass" height="100%" width="100%" x="0" y="0" style="display:inline;fill:#a7e46a;fill-opacity:1;stroke:none;stroke-width:1;stroke-miterlimit:4;stroke-dasharray:none;stroke-opacity:1;filter:url(#textureGrassBig)" />
</g>
<g inkscape:groupmode="layer" id="grass_texture2_layer" inkscape:label="Grass Texture Small" style="display:inline" sodipodi:insensitive="true" >
  <use xlink:href="#grass" height="100%" width="100%" x="0" y="0" style="display:inline;fill:#8cdd3d;fill-opacity:1;stroke:none;stroke-width:1;stroke-miterlimit:4;stroke-dasharray:none;stroke-opacity:1;filter:url(#textureGrassSmall)" />
</g>
<g inkscape:groupmode="layer" id="grass_master_layer" inkscape:label="Grass Master" style="display:none" sodipodi:insensitive="true" >
  <path id="grass" style="color:#000000;clip-rule:nonzero;display:inline;overflow:visible;visibility:visible;opacity:1;isolation:auto;mix-blend-mode:normal;color-interpolation:sRGB;color-interpolation-filters:linearRGB;solid-color:#000000;solid-opacity:1;fill-opacity:1;fill-rule:evenodd;filter:url(#blurGrass);color-rendering:auto;image-rendering:auto;shape-rendering:auto;text-rendering:auto;enable-background:accumulate" d="m -11.25,123.75 0,225 270,0 0,-112.5 -22.5,0 -16.75,6.25 -15.5,14 -17,5.5 -24.5,-2.5 -12.75,2.375 L 134.5,270.5 119,267 98,266.5 79,264 63.5,250 61,239 48.5,229 38,217 28,199 l -4.5,-11 0,-17.5 -5.5,-17 -2.5,-10.5 0,-10.5 -4.25,-8.75 z" inkscape:connector-curvature="0" />
</g>
<g inkscape:groupmode="layer" id="forest_shadow_layer" inkscape:label="Forest Shadow" style="display:inline" sodipodi:insensitive="true" >
  <g style="filter:url(#blurForestShadow)" >
    <use xlink:href="#forest" height="100%" width="100%" x="0" y="0" style="display:inline;opacity:0.75;fill:#258c1b;fill-opacity:1;filter:url(#roughenForest)" />
  </g>
</g>
<g inkscape:groupmode="layer" id="forest_fill_layer" inkscape:label="Forest Fill" style="display:inline" sodipodi:insensitive="true" >
  <use xlink:href="#forest" height="100%" width="100%" x="0" y="0" style="fill:#83d700;fill-opacity:1;stroke:none;stroke-width:1.5;stroke-miterlimit:4;stroke-dasharray:none;stroke-opacity:1;filter:url(#roughenForest)" />
</g>
<g inkscape:groupmode="layer" id="forest_texture_big_layer" inkscape:label="Forest Texture Big" style="display:inline" sodipodi:insensitive="true" >
  <g style="filter:url(#textureForestBig)" >
    <use xlink:href="#forest" height="100%" width="100%" x="0" y="0" style="fill:#548c00;fill-opacity:1;stroke:none;stroke-width:1.5;stroke-miterlimit:4;stroke-dasharray:none;stroke-opacity:1;filter:url(#roughenForest)" />
  </g>
</g>
<g inkscape:groupmode="layer" id="forest_texture_small_layer" inkscape:label="Forest Texture Small" style="display:inline" sodipodi:insensitive="true" >
  <g style="filter:url(#textureForestSmall)" >
    <use xlink:href="#forest" height="100%" width="100%" x="0" y="0" style="fill:#78c125;fill-opacity:1;stroke:none;stroke-width:1;stroke-miterlimit:4;stroke-dasharray:none;stroke-opacity:1;filter:url(#roughenForest)" />
  </g>
</g>
<g inkscape:groupmode="layer" id="forest_outline_layer" inkscape:label="Forest Outline" style="display:inline" sodipodi:insensitive="true" >
  <use xlink:href="#forest" height="100%" width="100%" x="0" y="0" style="fill:none;fill-opacity:1;stroke:#006800;stroke-width:1.5;stroke-miterlimit:4;stroke-dasharray:none;stroke-opacity:1;filter:url(#roughenForest)" />
</g>
<g inkscape:groupmode="layer" id="forest_master_layer" inkscape:label="Forest Master" style="display:none" sodipodi:insensitive="true" >
  <path id="forest" style="color:#000000;clip-rule:nonzero;display:inline;overflow:visible;visibility:visible;opacity:1;isolation:auto;mix-blend-mode:normal;color-interpolation:sRGB;color-interpolation-filters:linearRGB;solid-color:#000000;solid-opacity:1;fill-opacity:1;fill-rule:nonzero;color-rendering:auto;image-rendering:auto;shape-rendering:auto;text-rendering:auto;enable-background:accumulate" d="m -17.5,149 3.5,66 28.5,-1.5 0.292969,-0.26953 A 8.75,7.25 0 0 0 15.25,213.25 8.75,7.25 0 0 0 24,206 8.75,7.25 0 0 0 23.464844,203.51758 8.75,7.25 0 0 0 24.722656,200.22461 8.75,7.25 0 0 0 27.75,194.75 8.75,7.25 0 0 0 27.521484,193.13867 8.75,7.25 0 0 0 28.25,190.25 a 8.75,7.25 0 0 0 -0.0332,-0.59766 8.75,7.25 0 0 1 0.0332,-0.006 l 0,-1.39648 -0.117188,-1.75586 A 8.5,12 0 0 1 28,186.5 8.5,12 0 0 1 19.5,174.5 8.5,12 0 0 1 19.710938,171.89062 7.25,9.5 0 0 1 13.5,162.5 7.25,9.5 0 0 1 16.365234,154.94531 L 12.5,152 l -30,-3 z m 36.804688,46.25586 a 4.9497471,5.126524 0 0 1 0.140624,1.17578 4.9497471,5.126524 0 0 1 -2.724609,4.57813 4.9497471,5.126524 0 0 0 0.603516,-2.45704 4.9497471,5.126524 0 0 0 -1.113281,-3.23437 4.9497471,5.126524 0 0 0 1.466796,0.23047 4.9497471,5.126524 0 0 0 1.626954,-0.29297 z M 11.5,227 l -26,1.5 -4,123 136,0.5 -1,-25 -2.5,-8.5 -1.38281,-2.76367 A 8.75,7.25 0 0 0 114.75,311 8.75,7.25 0 0 0 113.30469,307.01562 8.75,7.25 0 0 0 115.75,302 8.75,7.25 0 0 0 110.63086,295.41016 8.75,7.25 0 0 0 111.25,292.75 8.75,7.25 0 0 0 103.82617,285.59375 8.75,7.25 0 0 0 95.25,279.75 8.75,7.25 0 0 0 86.796875,285.14062 8.75,5.25 0 0 0 83.5,284.75 8.75,5.25 0 0 0 74.75,290 8.75,5.25 0 0 0 77.199219,293.64258 8.75,5.25 0 0 0 71.75,298.5 8.75,5.25 0 0 0 72.054688,299.86523 5.75,5 0 0 1 70.75,300 5.75,5 0 0 1 70.433594,299.98633 4.5,8.25 0 0 1 67.5,302 4.5,8.25 0 0 1 64.667969,300.15234 6.25,11.25 0 0 1 62.992188,302.83398 8.75,5.25 0 0 0 59,302.25 a 8.75,5.25 0 0 0 -5.376953,1.10938 8,4.75 0 0 1 -6.042969,-3.98438 9.5,6 0 0 1 -7.558594,-5.48828 4.9497471,5.126524 0 0 0 -1.253906,0.34375 4.9497471,5.126524 0 0 1 -0.08789,-0.0762 4.9497471,5.126524 0 0 0 0.917968,-2.97071 4.9497471,5.126524 0 0 0 -0.107422,-1.03515 4.9497471,5.126524 0 0 0 0.496094,0.0996 4.9497471,5.126524 0 0 0 -0.03516,0.58203 4.9497471,5.126524 0 0 0 0.226562,1.52734 9.5,6 0 0 1 3.462891,-3.57226 A 6,10.25 0 0 1 42,281.75 a 6,10.25 0 0 1 0,-0.0137 8.75,5.25 0 0 0 0.5,0.0137 8.75,5.25 0 0 0 8.75,-5.25 8.75,5.25 0 0 0 -4.566406,-4.61133 8.75,5.25 0 0 0 5.529297,-4.42773 A 8.75,5.25 0 0 0 60,262.25 a 8.75,5.25 0 0 0 -2.154297,-3.44141 16.875,11.25 0 0 1 2.513672,0.29493 8.75,7.25 0 0 0 -2.40625,-2.51368 A 8.75,7.25 0 0 0 58.25,254.75 8.75,7.25 0 0 0 49.5,247.5 a 8.75,7.25 0 0 0 -2.802734,0.39062 8.75,7.25 0 0 0 -6.892578,-3.12695 l -0.339844,-0.84765 A 8.75,7.25 0 0 0 40.5,240.5 8.75,7.25 0 0 0 33.052734,233.33984 L 30.5,231 l -6,-4 -13,0 z m 5.470703,14.50977 a 4.9497471,5.126524 0 0 1 1.230469,0.16796 4.9497471,5.126524 0 0 0 -1.519531,0.71875 4.9497471,5.126524 0 0 0 -1.601563,-0.49414 4.9497471,5.126524 0 0 1 1.890625,-0.39257 z m 7.416016,5.29296 a 4.9497471,5.126524 0 0 1 2.820312,2.85743 4.9497471,5.126524 0 0 0 -0.33789,-0.0176 4.9497471,5.126524 0 0 0 -2.386719,0.64258 4.9497471,5.126524 0 0 0 -1.052734,-0.61524 4.9497471,5.126524 0 0 0 0.957031,-2.86719 z m -7.589844,4.72266 a 4.9497471,5.126524 0 0 0 0.464844,0.22461 4.9497471,5.126524 0 0 1 -0.291016,0.0137 4.9497471,5.126524 0 0 1 -0.587891,-0.0391 4.9497471,5.126524 0 0 0 0.414063,-0.19922 z M 235,258 a 8.75,7.25 0 0 0 -8.34961,5.08594 A 8.75,7.25 0 0 0 220.5,270 a 8.75,7.25 0 0 0 0.11719,1.16797 l -6.78125,2.59765 a 8.75,7.25 0 0 0 -0.39453,-0.25 A 8.75,7.25 0 0 0 208.5,272.25 a 8.75,7.25 0 0 0 -8.75,7.25 8.75,7.25 0 0 0 0.0684,0.83984 8.75,7.25 0 0 0 -0.83594,1.08594 8.75,7.25 0 0 1 -0.002,0.002 8.75,7.25 0 0 0 -0.70117,0.72657 A 8.75,7.25 0 0 0 196.5,282 8.75,7.25 0 0 0 188.55664,286.22852 8.75,7.25 0 0 0 181.5,283.25 8.75,7.25 0 0 0 173.83789,287 l -0.33789,0 -0.52734,-0.0371 A 8.75,7.25 0 0 0 164.5,281.5 8.75,7.25 0 0 0 158.37109,283.57812 8.75,7.25 0 0 0 152.25,281.5 a 8.75,7.25 0 0 0 -8.75,7.25 8.75,7.25 0 0 0 0.5,2.39258 8.75,7.25 0 0 0 -2,4.60742 8.75,7.25 0 0 0 0.23438,1.63086 8.75,7.25 0 0 0 -5.98438,6.86914 8.75,7.25 0 0 0 0.15625,1.3418 A 8.75,7.25 0 0 0 129,312.75 a 8.75,7.25 0 0 0 1.28125,3.76562 L 130,325.5 l 2,22.5 131,2 -2.5,-91 -21.08203,0 A 8.75,7.25 0 0 0 235,258 Z m -216.615234,0.33984 a 4.9497471,5.126524 0 0 0 1.445312,0.86719 4.9497471,5.126524 0 0 0 -0.384766,-0.0195 4.9497471,5.126524 0 0 0 -0.960937,0.10156 4.9497471,5.126524 0 0 1 -0.09961,-0.94922 z m 11.736328,0.28711 a 4.9497471,5.126524 0 0 1 0.607422,1.95313 4.9497471,5.126524 0 0 0 -0.521485,-0.16797 4.9497471,5.126524 0 0 0 -0.607422,-1.37109 4.9497471,5.126524 0 0 0 0.521485,-0.41407 z m 3.296875,4.45899 a 4.9497471,5.126524 0 0 1 2.783203,1.02344 A 8.75,5.25 0 0 0 34.75,267 a 8.75,5.25 0 0 0 0.378906,1.51562 4.9497471,5.126524 0 0 0 -0.894531,0.77149 4.9497471,5.126524 0 0 0 -1.353516,-0.19922 4.9497471,5.126524 0 0 0 -0.515625,0.0332 4.9497471,5.126524 0 0 0 1.576172,-3.74609 4.9497471,5.126524 0 0 0 -0.523437,-2.28906 z m 193.316411,10.04101 a 4.9497471,5.126524 0 0 0 1.625,2.85743 4.9497471,5.126524 0 0 0 -0.80665,0.9082 4.9497471,5.126524 0 0 0 -1.52343,-1.24024 4.9497471,5.126524 0 0 1 0.24414,-0.35742 4.9497471,5.126524 0 0 1 0,-0.0195 4.9497471,5.126524 0 0 1 0.46094,-2.14844 z m 9.33203,1.11328 a 4.9497471,5.126524 0 0 1 0.10742,1.03516 4.9497471,5.126524 0 0 1 -0.37305,1.93359 4.9497471,5.126524 0 0 0 -1.0039,-1.23046 4.9497471,5.126524 0 0 0 1.26953,-1.73829 z m -216.257816,3.81836 a 4.9497471,5.126524 0 0 0 4.939453,4.81836 4.9497471,5.126524 0 0 0 1.642578,-0.29687 4.9497471,5.126524 0 0 0 -0.175781,0.83203 4.9497471,5.126524 0 0 1 -2.173828,0.52539 4.9497471,5.126524 0 0 1 -4.949219,-5.12695 4.9497471,5.126524 0 0 1 0.03711,-0.59375 4.9497471,5.126524 0 0 0 0.679688,-0.15821 z m 9.871094,0.0664 a 4.9497471,5.126524 0 0 0 1.410156,0.86133 4.9497471,5.126524 0 0 0 -1.621094,0.29687 4.9497471,5.126524 0 0 0 0.210938,-1.1582 z m 6.080078,7.73633 a 4.9497471,5.126524 0 0 0 0.06445,0.34961 4.9497471,5.126524 0 0 0 -0.185547,-0.0488 4.9497471,5.126524 0 0 0 0.121094,-0.30078 z m -5.708985,3.25586 a 4.9497471,5.126524 0 0 0 0.06641,0.0117 4.9497471,5.126524 0 0 0 -0.07422,0.18945 4.9497471,5.126524 0 0 0 0.0078,-0.20117 z m 137.533199,2.95117 a 4.9497471,5.126524 0 0 1 0.33008,0.0176 4.9497471,5.126524 0 0 0 -2.67187,1.07226 4.9497471,5.126524 0 0 0 -0.24219,-0.32617 4.9497471,5.126524 0 0 1 2.58398,-0.76367 z m -16.85546,0.8418 a 4.9497471,5.126524 0 0 0 -0.45313,1.84179 4.9497471,5.126524 0 0 0 -1.77539,2.29883 4.9497471,5.126524 0 0 1 2.22852,-4.14062 z m 37.71484,5.875 a 4.9497471,5.126524 0 0 1 2.57226,0.7539 4.9497471,5.126524 0 0 0 -1.86328,0.64844 4.9497471,5.126524 0 0 0 -2.47656,-0.69531 4.9497471,5.126524 0 0 0 -0.70703,0.0586 4.9497471,5.126524 0 0 0 -0.0215,-0.0586 4.9497471,5.126524 0 0 1 2.49609,-0.70703 z m -99.347657,1.41406 a 4.9497471,5.126524 0 0 1 1.970703,0.43359 4.9497471,5.126524 0 0 0 -4.068359,4.5293 4.9497471,5.126524 0 0 0 -2.292969,0.76953 4.9497471,5.126524 0 0 0 -0.537109,-0.20508 4.9497471,5.126524 0 0 1 -0.02148,-0.40039 4.9497471,5.126524 0 0 1 0.488282,-2.20312 8.75,5.25 0 0 0 4.125,-2.90821 4.9497471,5.126524 0 0 1 0.335937,-0.0156 z m 4.242188,0 a 4.9497471,5.126524 0 0 1 2.349609,0.61523 4.9497471,5.126524 0 0 0 -0.71875,0.83008 4.9497471,5.126524 0 0 0 -3.044922,-1.0918 4.9497471,5.126524 0 0 0 -0.416016,0.0215 4.9497471,5.126524 0 0 1 1.830079,-0.375 z m -77.632813,1.43164 a 4.9497471,5.126524 0 0 0 1.625,1.05469 4.9497471,5.126524 0 0 0 0.945313,2.82617 4.9497471,5.126524 0 0 0 -0.244141,1.58203 4.9497471,5.126524 0 0 0 0.0059,0.19141 4.9497471,5.126524 0 0 1 -2.480468,-4.4336 4.9497471,5.126524 0 0 1 0.148437,-1.2207 z m 139.558592,1.93359 a 4.9497471,5.126524 0 0 0 1.03321,2.49219 4.9497471,5.126524 0 0 0 -0.084,0.0664 4.9497471,5.126524 0 0 0 -1.79101,-2.22852 4.9497471,5.126524 0 0 0 0.84179,-0.33008 z m -113.800779,0.45313 a 4.9497471,5.126524 0 0 0 0.652343,0.67383 4.9497471,5.126524 0 0 0 -0.02734,0.3164 4.9497471,5.126524 0 0 0 -0.939453,-0.94922 4.9497471,5.126524 0 0 0 0.314453,-0.041 z m 124.703129,4.0957 a 4.9497471,5.126524 0 0 0 2.2871,0.88867 4.9497471,5.126524 0 0 0 -0.1621,1.27539 4.9497471,5.126524 0 0 0 0.0351,0.54102 4.9497471,5.126524 0 0 0 -2.50976,-0.71875 4.9497471,5.126524 0 0 0 -1.77539,0.3418 4.9497471,5.126524 0 0 0 0.008,-0.16407 4.9497471,5.126524 0 0 0 -0.10547,-1.02734 4.9497471,5.126524 0 0 0 0.42773,-0.33008 4.9497471,5.126524 0 0 0 1.79493,-0.80664 z m -70.214848,0.54102 a 4.9497471,5.126524 0 0 0 0.691406,0.47656 4.9497471,5.126524 0 0 1 -1.417969,0.93164 4.9497471,5.126524 0 0 1 -0.15039,0.4082 4.9497471,5.126524 0 0 0 -1.271485,0.28321 4.9497471,5.126524 0 0 0 -0.310546,-0.21875 4.9497471,5.126524 0 0 0 2.458984,-1.88086 z m -20.644531,0.38476 a 4.9497471,5.126524 0 0 1 0.796875,0.0762 4.9497471,5.126524 0 0 0 -1.097657,2.58399 4.9497471,5.126524 0 0 0 -1.36914,-1.05078 4.9497471,5.126524 0 0 0 -0.683594,-0.99024 4.9497471,5.126524 0 0 1 2.353516,-0.61914 z m 118.441409,1.41406 a 4.9497471,5.126524 0 0 1 3.09179,1.12891 4.9497471,5.126524 0 0 0 -3.35546,2.2832 4.9497471,5.126524 0 0 0 -2.5879,-1.52734 4.9497471,5.126524 0 0 0 -0.13281,-0.8457 4.9497471,5.126524 0 0 1 2.98438,-1.03907 z M 24.662109,311.9121 a 4.9497471,5.126524 0 0 0 0.654297,1.33203 4.9497471,5.126524 0 0 1 -0.568359,0.0371 4.9497471,5.126524 0 0 1 -3.304688,-1.31836 4.9497471,5.126524 0 0 0 1.53711,0.25781 4.9497471,5.126524 0 0 0 1.68164,-0.30859 z m 129.900391,0.39844 a 4.9497471,5.126524 0 0 0 0.0488,0.11328 4.9497471,5.126524 0 0 1 -0.28125,0.0566 4.9497471,5.126524 0 0 0 0.23242,-0.16992 z M 40.654297,313.9043 a 4.9497471,5.126524 0 0 0 4.599609,3.26562 4.9497471,5.126524 0 0 0 1.763672,-0.33789 4.9497471,5.126524 0 0 1 -2.470703,0.69141 4.9497471,5.126524 0 0 1 -1.15625,-0.14844 4.9497471,5.126524 0 0 1 -2.732422,0.85547 4.9497471,5.126524 0 0 1 -1.890625,-0.39063 4.9497471,5.126524 0 0 0 1.886719,-3.93554 z m 130.083983,0.78906 a 4.9497471,5.126524 0 0 0 0.39649,0.21484 4.9497471,5.126524 0 0 0 -0.36915,0.28907 4.9497471,5.126524 0 0 0 -0.0273,-0.50391 z m -94.421874,1.23437 a 4.9497471,5.126524 0 0 0 2.173828,1.37305 4.9497471,5.126524 0 0 0 -0.002,0.0469 4.9497471,5.126524 0 0 0 0.05078,0.68945 4.9497471,5.126524 0 0 1 -3.232421,1.25391 4.9497471,5.126524 0 0 1 -0.78711,-0.0723 4.9497471,5.126524 0 0 0 1.796875,-3.29102 z m 135.541014,0.96485 a 4.9497471,5.126524 0 0 1 -1.22265,2.00195 4.9497471,5.126524 0 0 0 -0.375,-1.19922 4.9497471,5.126524 0 0 0 1.59765,-0.80273 z M 88.564453,319.4082 a 4.9497471,5.126524 0 0 0 0.759766,0.33203 4.9497471,5.126524 0 0 0 2.291015,1.20313 4.9497471,5.126524 0 0 0 -0.04492,0.64648 4.9497471,5.126524 0 0 0 0.166016,1.31055 4.9497471,5.126524 0 0 1 -3.171875,-3.49219 z m 50.900387,0.27149 a 4.9497471,5.126524 0 0 0 0.90625,0.69336 4.9497471,5.126524 0 0 0 -0.36328,1.92383 4.9497471,5.126524 0 0 0 2.92578,4.67578 4.9497471,5.126524 0 0 1 -3.98632,-5.0293 4.9497471,5.126524 0 0 1 0.51757,-2.26367 z m 61.4043,0.83398 a 4.9497471,5.126524 0 0 0 2.27344,3.64649 4.9497471,5.126524 0 0 1 -3.58789,-2.80078 4.9497471,5.126524 0 0 0 1.31445,-0.84571 z m -42.24414,2.27539 a 4.9497471,5.126524 0 0 0 1.88867,0.39258 4.9497471,5.126524 0 0 0 1.54297,-0.26367 4.9497471,5.126524 0 0 1 -3.31055,1.32422 4.9497471,5.126524 0 0 1 -2.09179,-0.48633 4.9497471,5.126524 0 0 0 1.9707,-0.9668 z m 25.8418,0.16406 a 4.9497471,5.126524 0 0 0 3.62304,1.64258 4.9497471,5.126524 0 0 0 1.06446,-0.12304 4.9497471,5.126524 0 0 0 3.41601,1.53125 4.9497471,5.126524 0 0 1 -3.41992,1.41992 4.9497471,5.126524 0 0 1 -4.4375,-2.86133 4.9497471,5.126524 0 0 1 -0.51172,0.0332 4.9497471,5.126524 0 0 1 -1.15429,-0.15039 4.9497471,5.126524 0 0 0 1.41992,-1.49219 z m -7.9375,0.52149 a 4.9497471,5.126524 0 0 0 0.56836,0.59766 4.9497471,5.126524 0 0 1 -0.76563,-0.47071 4.9497471,5.126524 0 0 0 0.19727,-0.12695 z" inkscape:connector-curvature="0" />
</g>
<g inkscape:groupmode="layer" id="routes_layer" inkscape:label="Routes" style="display:inline" sodipodi:insensitive="true" >
  <path style="display:inline;fill:none;stroke:#000000;stroke-width:2;stroke-linecap:round;stroke-miterlimit:4;stroke-dasharray:0.1, 5;stroke-dashoffset:0;stroke-opacity:1" d="m 123.75,0 0,11.25 c 0,3.75 -1.5581,10.054758 -1.76777,13.194544 -0.7305,10.939415 2.13756,45.048609 10.67462,56.373475 12.06752,16.008203 35.57818,29.467101 53.80762,33.189341 13.1184,2.67862 38.15467,4.11764 50.16053,4.11764 l 10.875,0 M 123.75,337.5 l 0,-11.25 c 0,-5.625 2.65022,-23.05325 -3.5,-33.75 C 108.90508,272.76839 94.952477,268.0696 78.625,260.125 64.070899,253.04329 55.375,249 48.375,237.75 42.695861,228.62281 33.75,219.375 16.875,219.375 l -16.875,0" inkscape:connector-curvature="0" />
</g>
<g inkscape:groupmode="layer" id="labels_layer" inkscape:label="Labels" style="display:inline" sodipodi:insensitive="true" >
  <text xml:space="preserve"><textPath xlink:href="#almond_bay"><tspan
  style="-inkscape-font-specification:'CCTreasureTroveAged Mod, Normal';font-family:'CCTreasureTroveAged Mod';font-weight:normal;font-style:normal;font-stretch:normal;font-variant:normal;font-size:8.75px;text-anchor:start;text-align:start;writing-mode:lr;line-height:125%"
  >Almond Bay</tspan></textPath></text>
</g>
<g inkscape:groupmode="layer" id="labels_guide_layer" inkscape:label="Labels Guide" style="display:none" sodipodi:insensitive="true" >
  <path id="almond_bay" style="color:#000000;fill:none;stroke:#000000;stroke-width:1;stroke-opacity:1" d="m 125.02864,240.58781 c -23.5,-2.75 -44.124997,-15.625 -55.624998,-33.625" inkscape:connector-curvature="0" />
</g>
<g inkscape:groupmode="layer" id="resources_layer" inkscape:label="Resources" style="display:inline" sodipodi:insensitive="true" >
  <g id="resource-pineapple" transform="matrix(-0.82917329,-0.55899164,0.55899164,-0.82917329,125.17593,190.63157)" >
    <path style="color:#000000;clip-rule:nonzero;display:inline;overflow:visible;visibility:visible;opacity:1;isolation:auto;mix-blend-mode:normal;color-interpolation:sRGB;color-interpolation-filters:linearRGB;solid-color:#000000;solid-opacity:1;fill:#12d412;fill-opacity:1;fill-rule:evenodd;stroke:#000000;stroke-width:0.89999998;stroke-linecap:round;stroke-linejoin:miter;stroke-miterlimit:4;stroke-dasharray:none;stroke-dashoffset:0;stroke-opacity:1;color-rendering:auto;image-rendering:auto;shape-rendering:auto;text-rendering:auto;enable-background:accumulate" d="m 1.60156,-126.85938 c -0.36816,0.89627 -0.65117,2.26266 -0.81445,3.75586 -0.46343,-1.48903 -1.12834,-2.68315 -1.97656,-3.57617 0.0257,1.23409 0.13016,2.79792 0.26757,4.52344 -0.36941,-0.60113 -0.76709,-1.13198 -1.18945,-1.51953 0.0312,0.52933 0.0693,1.12994 0.125,1.77148 -1.05341,-1.32608 -2.2808,-2.02215 -3.52734,-2.57617 1.20446,1.90706 2.6487,4.21985 3.17578,6.1582 -1.54731,-1.36782 -3.35936,-2.13235 -4.65625,-2.24609 1.88521,1.70135 3.06165,2.62635 4.32031,4.38867 -1.8453,-0.67649 -3.75342,-0.73974 -4.96094,-0.48047 1.98868,0.79386 3.7013,1.85704 5.11719,3.23047 -1.40418,-0.25598 -2.50175,0.17732 -3.66797,0.73242 2.27558,0.24417 3.64128,0.76417 4.93164,1.13868 l 1.01172,-0.96485 c -0.61366,-0.3661 -1.16396,-0.6055 -1.67578,-0.76367 l 1.75195,-1.48242 c -0.46155,-0.38582 -0.96259,-0.68989 -1.47656,-0.95508 l 0.86133,-0.58984 c 0.0651,0.17694 0.12114,0.34941 0.19336,0.52929 l 1.96289,-1.05468 c -0.21445,-0.64444 -0.50995,-1.44777 -0.83984,-2.27735 l 0.69531,-0.27148 c -0.0546,0.29808 -0.10862,0.59614 -0.15235,0.91797 l 0.67969,0.0156 c -0.0948,0.35621 -0.16965,0.72 -0.21093,1.09375 l 0.7207,0.33398 c -0.32118,0.46889 -0.60879,0.93943 -0.81055,1.39844 l 1.16211,0.83789 c -0.22862,0.2522 -0.4414,0.52066 -0.63086,0.80664 l 0.66406,1.41797 c -0.099,0.10935 -0.20151,0.21248 -0.29101,0.3457 L 2.37695,-111 c 1.36745,-0.74524 2.98116,-1.47776 4.98828,-1.81445 -1.40868,-0.55163 -2.65818,-0.8038 -3.6582,-0.46289 1.39038,-1.6397 3.52907,-2.78693 5.02149,-3.85743 -1.45556,-0.27322 -3.21935,0.17176 -4.70118,1.15235 1.14954,-2.04356 3.05591,-4.14017 4.22266,-5.47461 -1.2538,0.14729 -2.71382,1.01308 -3.99219,2.16211 0.57839,-1.83619 1.35069,-3.66217 1.81836,-4.9043 -0.85298,0.63603 -1.63122,1.34347 -2.30078,2.11133 0.10164,-1.29098 0.15025,-2.60136 0.13477,-3.70117 -0.53955,0.80089 -1.04461,1.6363 -1.48828,2.58593 -0.11478,-1.3294 -0.36407,-2.64913 -0.82032,-3.65625 z m -3.08594,8.20313 c 0.13752,0.59339 0.30603,1.2074 0.52149,1.8457 -0.36577,-0.4988 -0.76332,-0.95863 -1.19531,-1.35937 l 0.67382,-0.48633 z" inkscape:connector-curvature="0" />
    <path style="color:#000000;clip-rule:nonzero;display:inline;overflow:visible;visibility:visible;opacity:1;isolation:auto;mix-blend-mode:normal;color-interpolation:sRGB;color-interpolation-filters:linearRGB;solid-color:#000000;solid-opacity:1;fill:#ff8f2c;fill-opacity:1;fill-rule:evenodd;stroke:#000000;stroke-width:1.03194177;stroke-linecap:round;stroke-linejoin:miter;stroke-miterlimit:4;stroke-dasharray:none;stroke-dashoffset:0;stroke-opacity:1;color-rendering:auto;image-rendering:auto;shape-rendering:auto;text-rendering:auto;enable-background:accumulate" d="m -4.0409905,-110.15662 c -1.9630663,1.6771 -3.0986308,4.69414 -3.3488922,6.67014 -0.478559,3.778564 0.608356,7.258163 2.6043246,8.901699 2.1779383,1.793377 7.602474,1.882838 9.655624,0.163772 1.9490737,-1.631925 3.0591362,-5.225017 3.0175857,-7.890311 -0.04067,-2.62564 -0.8282349,-6.17264 -2.68931,-7.74821 -2.3583189,-1.99653 -7.0124747,-1.99957 -9.2393321,-0.0971 z" inkscape:connector-curvature="0" />
    <path style="color:#000000;font-style:normal;font-variant:normal;font-weight:normal;font-stretch:normal;font-size:medium;line-height:normal;font-family:sans-serif;text-indent:0;text-align:start;text-decoration:none;text-decoration-line:none;text-decoration-style:solid;text-decoration-color:#000000;letter-spacing:normal;word-spacing:normal;text-transform:none;direction:ltr;block-progression:tb;writing-mode:lr-tb;baseline-shift:baseline;text-anchor:start;white-space:normal;clip-rule:nonzero;display:inline;overflow:visible;visibility:visible;opacity:1;isolation:auto;mix-blend-mode:normal;color-interpolation:sRGB;color-interpolation-filters:linearRGB;solid-color:#000000;solid-opacity:1;fill:#000000;fill-opacity:1;fill-rule:evenodd;stroke:none;stroke-width:0.82555348;stroke-linecap:round;stroke-linejoin:miter;stroke-miterlimit:4;stroke-dasharray:none;stroke-dashoffset:0;stroke-opacity:1;color-rendering:auto;image-rendering:auto;shape-rendering:auto;text-rendering:auto;enable-background:accumulate" d="m 1.03711,-111.63672 a 0.36003601,0.36003601 0 0 0 -0.29688,0.15625 c -0.17914,0.25293 -0.53563,0.59609 -0.95312,0.96875 l -0.51172,-0.39453 -0.55664,0.4082 c -0.19403,-0.21038 -0.36415,-0.41014 -0.47461,-0.58593 a 0.36003601,0.36003601 0 0 0 -0.29883,-0.17188 0.36003601,0.36003601 0 0 0 -0.31054,0.55664 c 0.22989,0.3659 0.58342,0.75431 0.99414,1.1543 -0.33864,0.27226 -0.70227,0.55684 -1.07227,0.84375 l -0.48437,-0.35938 -0.49024,0.37305 c -0.34337,-0.43352 -0.57815,-0.83255 -0.65039,-1.16406 a 0.36003601,0.36003601 0 0 0 -0.36328,-0.28907 0.36003601,0.36003601 0 0 0 -0.33984,0.44141 c 0.1412,0.64805 0.56858,1.27356 1.1621,1.91016 -0.34542,0.26544 -0.68941,0.53081 -1.02148,0.79297 l -0.36719,-0.41993 -0.55859,0.47461 c -0.0923,-0.17283 -0.15548,-0.33548 -0.1875,-0.48242 a 0.36003601,0.36003601 0 0 0 -0.36328,-0.28906 0.36003601,0.36003601 0 0 0 -0.33985,0.44141 c 0.0923,0.42342 0.31578,0.83813 0.62305,1.2539 -0.0324,0.0278 -0.0717,0.0583 -0.10351,0.0859 -0.51144,0.44363 -0.94159,0.85306 -1.26172,1.24414 a 0.36003601,0.36003601 0 0 0 -0.27539,0.38477 c -0.0252,0.0403 -0.0599,0.0811 -0.082,0.12109 a 0.36062818,0.36062818 0 0 0 0.30665,0.53516 c 0.22155,0.46234 0.56751,0.91351 1,1.36523 -0.57868,0.57258 -1.0788,1.15121 -1.42969,1.73828 a 0.36003601,0.36003601 0 0 0 -0.01,0.38477 0.36003601,0.36003601 0 0 0 -0.004,0.398437 c 0.36315,0.577974 0.95687,1.142417 1.64453,1.697266 -0.20539,0.26185 -0.38844,0.51947 -0.53906,0.771484 a 0.36003601,0.36003601 0 1 0 0.61718,0.369141 c 0.13245,-0.221602 0.30088,-0.455361 0.49414,-0.697266 0.54569,0.404892 1.12714,0.803998 1.72461,1.199219 -0.21854,0.231558 -0.41764,0.461408 -0.60351,0.689453 l -0.56641,-0.347656 -0.61719,0.636719 0.61328,0.49414 c -0.0286,0.0452 -0.0669,0.09172 -0.0937,0.136719 a 0.36092156,0.36092156 0 1 0 0.61915,0.371094 c 0.29011,-0.485385 0.73511,-1.0145 1.26953,-1.566406 0.65267,0.428899 1.27104,0.841745 1.8457,1.240234 -0.24665,0.235474 -0.49168,0.470252 -0.66406,0.683594 l -0.57227,-0.320313 -0.53516,0.636719 0.66407,0.533203 0.12695,-0.08984 a 0.36062794,0.36062794 0 0 0 0.64453,0.0293 c 0.12775,-0.230941 0.49685,-0.617037 0.94727,-1.046875 0.001,7.92e-4 0.003,0.0012 0.004,0.002 0.71996,0.530936 1.26746,1.032307 1.47852,1.384766 a 0.36003601,0.36003601 0 0 0 0.56836,0.08984 0.36067455,0.36067455 0 0 0 0.26172,-0.125 c 0.26781,-0.308029 0.9828,-0.823649 1.77734,-1.378907 0.15104,0.184683 0.29364,0.368251 0.41016,0.548829 a 0.36027136,0.36027136 0 1 0 0.60547,-0.390625 c -0.12384,-0.191921 -0.27213,-0.381984 -0.42383,-0.572266 0.18057,-0.125015 0.34008,-0.237 0.52148,-0.363281 0.43315,-0.301528 0.84967,-0.60745 1.24219,-0.91211 a 0.36027058,0.36027058 0 0 0 0.58398,-0.419921 c -0.007,-0.01111 -0.0181,-0.02209 -0.0254,-0.0332 0.4603,-0.397739 0.8375,-0.77751 1.0293,-1.195312 a 0.36003601,0.36003601 0 0 0 -0.35547,-0.513672 0.36003601,0.36003601 0 0 0 -0.29883,0.214844 c -0.0424,0.09231 -0.14445,0.219791 -0.24804,0.345703 l -0.31836,-0.353516 -0.64453,0.462891 c -0.31004,-0.33632 -0.64985,-0.67428 -1.0293,-1.013672 0.56742,-0.460313 1.11551,-0.915948 1.61133,-1.355469 0.40259,0.410701 0.74643,0.810527 0.99218,1.191407 a 0.36003601,0.36003601 0 1 0 0.60352,-0.388672 c -0.27918,-0.432677 -0.64916,-0.866632 -1.07031,-1.302733 0.66119,-0.62058 1.22854,-1.20957 1.53711,-1.74024 a 0.36003601,0.36003601 0 0 0 -0.1211,-0.49218 0.36091907,0.36091907 0 0 0 -0.0488,-0.2168 c -0.2679,-0.44737 -0.80304,-0.93017 -1.44532,-1.45899 0.53255,-0.59317 0.93343,-1.1645 1.09961,-1.73242 a 0.36003601,0.36003601 0 0 0 -0.10937,-0.3789 0.36035275,0.36035275 0 0 0 -0.0215,-0.0801 c -0.26818,-0.64968 -0.89465,-1.16803 -1.63672,-1.67383 0.21146,-0.35161 0.37865,-0.69854 0.44141,-1.04297 a 0.36003601,0.36003601 0 0 0 -0.36523,-0.42969 0.36003601,0.36003601 0 0 0 -0.3418,0.30078 c -0.019,0.1042 -0.0737,0.22936 -0.125,0.35157 L 5,-109.35938 l -0.33594,0.38086 c -0.3496,-0.22254 -0.68554,-0.45668 -1.02734,-0.6875 0.25432,-0.38291 0.44488,-0.76901 0.51758,-1.16796 a 0.36003601,0.36003601 0 0 0 -0.36719,-0.42774 0.36003601,0.36003601 0 0 0 -0.3418,0.29883 c -0.0324,0.17765 -0.11477,0.3739 -0.22265,0.57812 l -0.34571,-0.29296 -0.27929,0.26171 c -0.37858,-0.30704 -0.72391,-0.61885 -0.96875,-0.9414 a 0.36003601,0.36003601 0 0 0 -0.3125,-0.14649 0.36003601,0.36003601 0 0 0 -0.2793,-0.13281 z m 0.10351,0.80469 c 0.39268,0.48991 0.89226,0.93446 1.44727,1.3418 -0.20652,0.23916 -0.43477,0.48302 -0.70312,0.73437 -0.005,0.004 -0.011,0.009 -0.0156,0.0137 l -0.49023,-0.36523 -0.58203,0.4414 c -0.37276,-0.29471 -0.7126,-0.57581 -1.03126,-0.85156 0.56113,-0.46976 1.04422,-0.91403 1.375,-1.31445 z m 2.04688,1.7539 c 0.3945,0.26479 0.79437,0.5219 1.18359,0.76954 0.16465,0.10475 0.31565,0.20673 0.47266,0.31054 -0.21498,0.27706 -0.46846,0.56709 -0.75977,0.8711 l -0.55078,-0.35352 -0.52539,0.49219 c -0.37678,-0.27482 -0.74857,-0.55328 -1.11719,-0.83008 0.15671,-0.13668 0.34146,-0.27642 0.48633,-0.41211 0.3036,-0.28437 0.56803,-0.56611 0.81055,-0.84766 z m -4.00391,0.0312 c 0.46984,0.41322 0.98328,0.83511 1.54883,1.26563 -0.3571,0.28857 -0.72802,0.58207 -1.12109,0.87891 l -0.60156,-0.44727 -0.58008,0.44336 c -0.27206,-0.22605 -0.57269,-0.45919 -0.81055,-0.67773 -0.0513,-0.0472 -0.0912,-0.0918 -0.14062,-0.13868 0.59415,-0.45319 1.16953,-0.89702 1.70507,-1.32422 z m 6.26368,1.46485 c 0.69288,0.4958 1.2331,0.96299 1.38867,1.33984 a 0.36035275,0.36035275 0 0 0 0.0566,0.0937 c -0.0901,0.24186 -0.25163,0.51962 -0.48047,0.82617 l -0.47852,-0.42773 -0.51953,0.53711 c -0.4091,-0.30954 -0.82877,-0.6242 -1.27734,-0.95117 0.0728,-0.0707 0.16619,-0.14678 0.23633,-0.2168 0.41608,-0.41538 0.76985,-0.81193 1.07422,-1.20117 z m -4.12891,0.24805 c 0.46615,0.34603 0.94251,0.69375 1.41992,1.04101 0.0941,0.0684 0.16802,0.12528 0.26172,0.19336 -0.33305,0.30354 -0.64972,0.60218 -1.01953,0.91797 l -0.51367,-0.38281 -0.66407,0.50586 c -0.42066,-0.31003 -0.82855,-0.61491 -1.22461,-0.91797 0.61517,-0.45725 1.19278,-0.90973 1.74024,-1.35742 z m -4.41406,0.0566 c 0.0781,0.0745 0.14675,0.14753 0.22851,0.22265 0.37788,0.34719 0.82245,0.70379 1.26758,1.06055 -0.4096,0.30082 -0.82289,0.60389 -1.23437,0.9082 l -0.60547,-0.44922 -0.55078,0.41993 c -0.003,-0.003 -0.008,-0.007 -0.0117,-0.01 -0.30479,-0.27666 -0.56446,-0.54252 -0.79883,-0.80274 0.53523,-0.43761 1.1053,-0.88911 1.70508,-1.34961 z m 6.68359,1.61523 c 0.66294,0.48295 1.32981,0.96739 1.88477,1.40039 -0.11846,0.11868 -0.22802,0.23394 -0.35743,0.35547 -0.2211,0.20766 -0.50044,0.43238 -0.74804,0.64844 l -0.52539,-0.43946 -0.54297,0.48438 c -0.44806,-0.33539 -0.89521,-0.6686 -1.35156,-1.00195 0.58817,-0.4931 1.12611,-0.97399 1.64062,-1.44727 z m -4.60937,0.13477 c 0.53777,0.41518 1.09616,0.83317 1.67187,1.25586 0.0422,0.031 0.0846,0.0627 0.12695,0.0937 -0.18859,0.15528 -0.36316,0.3045 -0.55468,0.46093 -0.19646,0.16046 -0.39386,0.32159 -0.5918,0.48242 l -0.58594,-0.43554 -0.63281,0.48047 c -0.44455,-0.33277 -0.85791,-0.6586 -1.25977,-0.98047 0.60122,-0.45489 1.21755,-0.90928 1.82618,-1.35742 z m -4.33985,0.0605 c 0.26285,0.288 0.54811,0.57827 0.875,0.875 0.14457,0.13122 0.32905,0.26949 0.48438,0.40234 -0.37432,0.28975 -0.75336,0.57789 -1.10157,0.87109 l -0.51171,-0.38086 -0.53711,0.40625 c -0.24657,-0.31717 -0.41654,-0.61325 -0.51758,-0.88671 0.27348,-0.33887 0.69634,-0.76093 1.21289,-1.20899 0.0289,-0.0251 0.0662,-0.0528 0.0957,-0.0781 z m 11.39649,1.66601 c 0.63839,0.53281 1.15217,1.01738 1.32422,1.30469 a 0.36091907,0.36091907 0 0 0 0.084,0.0957 c -0.18692,0.28682 -0.49693,0.63583 -0.86719,1.01367 l -0.51953,-0.38672 -0.48437,0.36914 c -0.35948,-0.31436 -0.7548,-0.62716 -1.15235,-0.9414 0.4123,-0.34893 0.83276,-0.70016 1.18946,-1.03516 0.15219,-0.14294 0.28583,-0.28052 0.42578,-0.41992 z m -4.66016,0.0625 c 0.64717,0.47507 1.275,0.9489 1.89453,1.42383 -0.3715,0.30366 -0.76304,0.61582 -1.15625,0.92773 l -0.58203,-0.41796 -0.5918,0.47656 c -0.44064,-0.32082 -0.88283,-0.64202 -1.32031,-0.96094 0.35485,-0.2902 0.70763,-0.58088 1.06055,-0.86914 0.23941,-0.19555 0.46009,-0.38588 0.69531,-0.58008 z m -4.80078,0.0234 c 0.58747,0.47539 1.20635,0.95811 1.86914,1.44727 -0.43248,0.35397 -0.83656,0.70377 -1.25,1.05468 l -0.53906,-0.39843 -0.55664,0.42187 c -0.4473,-0.35128 -0.88489,-0.70085 -1.25196,-1.03711 -0.0144,-0.0132 -0.0249,-0.0259 -0.0391,-0.0391 0.53219,-0.47863 1.14169,-0.96363 1.76758,-1.44921 z m 7.28125,1.85547 c 0.61773,0.48741 1.20335,0.97062 1.70898,1.43945 -0.34816,0.30754 -0.73305,0.627981 -1.125,0.951176 l -0.55859,-0.412109 -0.51172,0.388671 c -0.40181,-0.322023 -0.83133,-0.644418 -1.26172,-0.966798 0.59892,-0.4727 1.18841,-0.94101 1.74805,-1.40039 z m -4.81055,0.0391 c 0.0376,0.0275 0.0717,0.0545 0.10938,0.082 0.58854,0.4293 1.18385,0.86344 1.76953,1.29688 -0.40437,0.31831 -0.80968,0.635545 -1.20899,0.955074 l -0.63281,-0.476563 -0.63281,0.527344 c -0.11296,-0.08111 -0.22769,-0.163276 -0.33984,-0.244141 -0.29414,-0.212082 -0.56341,-0.417694 -0.84766,-0.626954 0.57271,-0.49843 1.16152,-1.00178 1.7832,-1.51367 z m -4.76172,0.0508 c 0.0268,0.0249 0.049,0.0493 0.0762,0.0742 0.51279,0.46975 1.10928,0.94565 1.74023,1.42578 -0.41822,0.377746 -0.80582,0.74804 -1.16406,1.115236 l -0.5918,-0.509765 -0.51758,0.517578 c -0.37847,-0.34657 -0.70368,-0.684862 -0.89844,-0.994139 a 0.36003601,0.36003601 0 0 0 0.0195,-0.0332 c 0.30764,-0.51472 0.77832,-1.05021 1.33593,-1.5957 z m 7.23438,1.779298 c 0.63619,0.478638 1.25442,0.954187 1.81445,1.419922 -0.24789,0.197819 -0.4908,0.394563 -0.74023,0.591796 -0.16688,0.13195 -0.30112,0.246039 -0.4668,0.376954 l -0.55664,-0.414063 -0.58984,0.447266 c -0.42085,-0.32225 -0.83669,-0.64473 -1.2754,-0.962891 0.59438,-0.487185 1.19893,-0.972602 1.81446,-1.458984 z m -4.81641,0.166015 c 0.32824,0.242664 0.64657,0.483537 0.98633,0.728516 0.27636,0.199268 0.55353,0.402438 0.83203,0.603515 -0.38583,0.323617 -0.77208,0.647765 -1.125,0.96875 l -0.62109,-0.382812 -0.58985,0.554688 0.0469,0.04297 c -0.42608,-0.290306 -0.8279,-0.580268 -1.21485,-0.86914 0.47536,-0.521203 1.04574,-1.072279 1.68555,-1.646485 z m 7.19141,1.726563 c 0.57709,0.507351 1.06947,0.997566 1.45508,1.464844 -0.35458,0.275877 -0.73471,0.557532 -1.13868,0.839843 l -0.50976,-0.378906 -0.5586,0.423828 c -0.3154,-0.309533 -0.6608,-0.616385 -1.02343,-0.921875 0.32356,-0.25658 0.58943,-0.481278 0.92187,-0.74414 0.28691,-0.226859 0.56812,-0.455484 0.85352,-0.683594 z m -4.76172,0.04883 c 0.63435,0.462568 1.24709,0.924562 1.83008,1.386719 -0.39291,0.315757 -0.82422,0.651451 -1.17188,0.945312 l -0.47656,-0.351562 -0.57227,0.433593 c -0.43322,-0.292759 -0.88289,-0.590013 -1.34375,-0.892578 0.51442,-0.49231 1.12034,-1.005979 1.73438,-1.521484 z m 2.4043,1.847656 c 0.52162,0.434206 0.99463,0.864368 1.40039,1.28711 -0.40875,0.280779 -0.80403,0.561346 -1.12891,0.818359 l -0.39453,-0.292969 -0.52539,0.402344 c -0.28119,-0.277995 -0.62832,-0.558185 -1.01563,-0.847656 0.0722,-0.06341 0.1177,-0.11492 0.19336,-0.179688 0.41809,-0.357886 0.97292,-0.788622 1.47071,-1.1875 z" inkscape:connector-curvature="0" />
    <path style="color:#000000;clip-rule:nonzero;display:inline;overflow:visible;visibility:visible;opacity:1;isolation:auto;mix-blend-mode:normal;color-interpolation:sRGB;color-interpolation-filters:linearRGB;solid-color:#000000;solid-opacity:1;fill:#12d412;fill-opacity:1;fill-rule:evenodd;stroke:#000000;stroke-width:0.72000003;stroke-linecap:round;stroke-linejoin:miter;stroke-miterlimit:4;stroke-dasharray:none;stroke-dashoffset:0;stroke-opacity:1;color-rendering:auto;image-rendering:auto;shape-rendering:auto;text-rendering:auto;enable-background:accumulate" d="m 0.64643,-120.06351 c -0.0812,-2.56953 0.34432,-5.30788 0.95562,-6.79606 0.8867,1.95729 1.00521,5.10326 0.83485,7.18336 z" inkscape:connector-curvature="0" />
    <path style="color:#000000;clip-rule:nonzero;display:inline;overflow:visible;visibility:visible;opacity:1;isolation:auto;mix-blend-mode:normal;color-interpolation:sRGB;color-interpolation-filters:linearRGB;solid-color:#000000;solid-opacity:1;fill:#12d412;fill-opacity:1;fill-rule:evenodd;stroke:#000000;stroke-width:0.72000003;stroke-linecap:round;stroke-linejoin:miter;stroke-miterlimit:4;stroke-dasharray:none;stroke-dashoffset:0;stroke-opacity:1;color-rendering:auto;image-rendering:auto;shape-rendering:auto;text-rendering:auto;enable-background:accumulate" d="m -0.62032,-118.66347 c -0.31979,-3.33222 -0.52685,-6.00009 -0.56885,-8.01606 1.45054,1.52715 2.38355,3.90681 2.64474,7.2039 z" inkscape:connector-curvature="0" />
    <path style="color:#000000;clip-rule:nonzero;display:inline;overflow:visible;visibility:visible;opacity:1;isolation:auto;mix-blend-mode:normal;color-interpolation:sRGB;color-interpolation-filters:linearRGB;solid-color:#000000;solid-opacity:1;fill:#12d412;fill-opacity:1;fill-rule:evenodd;stroke:#000000;stroke-width:0.72000003;stroke-linecap:round;stroke-linejoin:miter;stroke-miterlimit:4;stroke-dasharray:none;stroke-dashoffset:0;stroke-opacity:1;color-rendering:auto;image-rendering:auto;shape-rendering:auto;text-rendering:auto;enable-background:accumulate" d="m 1.07716,-118.47139 c 0.46442,-3.41859 1.56797,-5.4385 2.83362,-7.31722 0.0314,2.22982 -0.19958,5.32375 -0.60516,7.37104 z" inkscape:connector-curvature="0" />
    <path style="color:#000000;clip-rule:nonzero;display:inline;overflow:visible;visibility:visible;opacity:1;isolation:auto;mix-blend-mode:normal;color-interpolation:sRGB;color-interpolation-filters:linearRGB;solid-color:#000000;solid-opacity:1;fill:#12d412;fill-opacity:1;fill-rule:evenodd;stroke:#000000;stroke-width:0.72000003;stroke-linecap:round;stroke-linejoin:miter;stroke-miterlimit:4;stroke-dasharray:none;stroke-dashoffset:0;stroke-opacity:1;color-rendering:auto;image-rendering:auto;shape-rendering:auto;text-rendering:auto;enable-background:accumulate" d="m 1.54692,-117.36127 c 0.30617,-2.77196 2.15206,-5.06448 4.52995,-6.83756 -0.71841,1.90809 -2.2078,5.18583 -2.50085,7.77869 z" inkscape:connector-curvature="0" />
    <path style="color:#000000;clip-rule:nonzero;display:inline;overflow:visible;visibility:visible;opacity:1;isolation:auto;mix-blend-mode:normal;color-interpolation:sRGB;color-interpolation-filters:linearRGB;solid-color:#000000;solid-opacity:1;fill:#12d412;fill-opacity:1;fill-rule:evenodd;stroke:#000000;stroke-width:0.72000003;stroke-linecap:round;stroke-linejoin:miter;stroke-miterlimit:4;stroke-dasharray:none;stroke-dashoffset:0;stroke-opacity:1;color-rendering:auto;image-rendering:auto;shape-rendering:auto;text-rendering:auto;enable-background:accumulate" d="m -2.26912,-118.08898 c -0.46958,-1.98272 -1.99182,-4.40872 -3.24407,-6.39144 1.87837,0.83483 3.72254,1.9594 4.97479,5.14219 z" inkscape:connector-curvature="0" />
    <path style="color:#000000;clip-rule:nonzero;display:inline;overflow:visible;visibility:visible;opacity:1;isolation:auto;mix-blend-mode:normal;color-interpolation:sRGB;color-interpolation-filters:linearRGB;solid-color:#000000;solid-opacity:1;fill:#12d412;fill-opacity:1;fill-rule:evenodd;stroke:#000000;stroke-width:0.72000003;stroke-linecap:round;stroke-linejoin:miter;stroke-miterlimit:4;stroke-dasharray:none;stroke-dashoffset:0;stroke-opacity:1;color-rendering:auto;image-rendering:auto;shape-rendering:auto;text-rendering:auto;enable-background:accumulate" d="m -0.58879,-115.78461 c -1.28535,-3.20161 -1.40773,-5.94783 -1.52227,-7.89072 1.58324,1.45278 2.82732,4.8561 3.4863,6.83641 z" inkscape:connector-curvature="0" />
    <path style="color:#000000;clip-rule:nonzero;display:inline;overflow:visible;visibility:visible;opacity:1;isolation:auto;mix-blend-mode:normal;color-interpolation:sRGB;color-interpolation-filters:linearRGB;solid-color:#000000;solid-opacity:1;fill:#12d412;fill-opacity:1;fill-rule:evenodd;stroke:#000000;stroke-width:0.72000003;stroke-linecap:round;stroke-linejoin:miter;stroke-miterlimit:4;stroke-dasharray:none;stroke-dashoffset:0;stroke-opacity:1;color-rendering:auto;image-rendering:auto;shape-rendering:auto;text-rendering:auto;enable-background:accumulate" d="m 1.45703,-115.62806 c 1.12243,-2.55359 4.35364,-5.54186 6.79281,-5.8284 -1.48854,1.70248 -4.20019,4.64565 -4.97832,7.1363 z" inkscape:connector-curvature="0" />
    <path style="color:#000000;clip-rule:nonzero;display:inline;overflow:visible;visibility:visible;opacity:1;isolation:auto;mix-blend-mode:normal;color-interpolation:sRGB;color-interpolation-filters:linearRGB;solid-color:#000000;solid-opacity:1;fill:#12d412;fill-opacity:1;fill-rule:evenodd;stroke:#000000;stroke-width:0.72000003;stroke-linecap:round;stroke-linejoin:miter;stroke-miterlimit:4;stroke-dasharray:none;stroke-dashoffset:0;stroke-opacity:1;color-rendering:auto;image-rendering:auto;shape-rendering:auto;text-rendering:auto;enable-background:accumulate" d="m -2.13911,-115.38567 c -1.47899,-2.31252 -2.70665,-3.24343 -4.85589,-5.18305 1.81549,0.15922 4.65169,1.56987 6.33783,4.16856 z" inkscape:connector-curvature="0" />
    <path style="color:#000000;clip-rule:nonzero;display:inline;overflow:visible;visibility:visible;opacity:1;isolation:auto;mix-blend-mode:normal;color-interpolation:sRGB;color-interpolation-filters:linearRGB;solid-color:#000000;solid-opacity:1;fill:#12d412;fill-opacity:1;fill-rule:evenodd;stroke:#000000;stroke-width:0.72000003;stroke-linecap:round;stroke-linejoin:miter;stroke-miterlimit:4;stroke-dasharray:none;stroke-dashoffset:0;stroke-opacity:1;color-rendering:auto;image-rendering:auto;shape-rendering:auto;text-rendering:auto;enable-background:accumulate" d="m -2.15205,-113.08913 c -1.47816,-1.54904 -3.32619,-2.71073 -5.48263,-3.57155 1.78184,-0.38259 5.09255,-0.0951 7.46932,1.89162 z" inkscape:connector-curvature="0" />
    <path style="color:#000000;clip-rule:nonzero;display:inline;overflow:visible;visibility:visible;opacity:1;isolation:auto;mix-blend-mode:normal;color-interpolation:sRGB;color-interpolation-filters:linearRGB;solid-color:#000000;solid-opacity:1;fill:#12d412;fill-opacity:1;fill-rule:evenodd;stroke:#000000;stroke-width:0.72000003;stroke-linecap:round;stroke-linejoin:miter;stroke-miterlimit:4;stroke-dasharray:none;stroke-dashoffset:0;stroke-opacity:1;color-rendering:auto;image-rendering:auto;shape-rendering:auto;text-rendering:auto;enable-background:accumulate" d="m -1.25471,-111.55927 c -1.29036,-0.37451 -2.65484,-0.89451 -4.93042,-1.13868 1.72604,-0.82157 3.28253,-1.41307 5.94285,0.17404 z" inkscape:connector-curvature="0" />
    <path style="color:#000000;clip-rule:nonzero;display:inline;overflow:visible;visibility:visible;opacity:1;isolation:auto;mix-blend-mode:normal;color-interpolation:sRGB;color-interpolation-filters:linearRGB;solid-color:#000000;solid-opacity:1;fill:#12d412;fill-opacity:1;fill-rule:evenodd;stroke:#000000;stroke-width:0.72000003;stroke-linecap:round;stroke-linejoin:miter;stroke-miterlimit:4;stroke-dasharray:none;stroke-dashoffset:0;stroke-opacity:1;color-rendering:auto;image-rendering:auto;shape-rendering:auto;text-rendering:auto;enable-background:accumulate" d="m -0.21576,-113.44531 c 0.44663,-3.42096 1.43248,-6.32458 2.12252,-7.14808 0.66929,2.04189 0.43855,5.06572 0.0437,7.1151 z" inkscape:connector-curvature="0" />
    <path style="color:#000000;clip-rule:nonzero;display:inline;overflow:visible;visibility:visible;opacity:1;isolation:auto;mix-blend-mode:normal;color-interpolation:sRGB;color-interpolation-filters:linearRGB;solid-color:#000000;solid-opacity:1;fill:#12d412;fill-opacity:1;fill-rule:evenodd;stroke:#000000;stroke-width:0.72000003;stroke-linecap:round;stroke-linejoin:miter;stroke-miterlimit:4;stroke-dasharray:none;stroke-dashoffset:0;stroke-opacity:1;color-rendering:auto;image-rendering:auto;shape-rendering:auto;text-rendering:auto;enable-background:accumulate" d="m 1.98846,-113.98401 c 1.54054,-2.32539 4.50873,-3.56961 6.74009,-3.15076 -1.8329,1.31471 -4.6593,2.73286 -5.84986,5.05479 z" inkscape:connector-curvature="0" />
    <path style="color:#000000;clip-rule:nonzero;display:inline;overflow:visible;visibility:visible;opacity:1;isolation:auto;mix-blend-mode:normal;color-interpolation:sRGB;color-interpolation-filters:linearRGB;solid-color:#000000;solid-opacity:1;fill:#12d412;fill-opacity:1;fill-rule:evenodd;stroke:#000000;stroke-width:0.72000003;stroke-linecap:round;stroke-linejoin:miter;stroke-miterlimit:4;stroke-dasharray:none;stroke-dashoffset:0;stroke-opacity:1;color-rendering:auto;image-rendering:auto;shape-rendering:auto;text-rendering:auto;enable-background:accumulate" d="m 2.36204,-112.22159 c 1.07858,-1.60538 2.86172,-1.43156 5.00318,-0.59299 -2.00712,0.3367 -3.62152,1.06843 -4.98897,1.81368 z" inkscape:connector-curvature="0" />
    <path style="color:#000000;clip-rule:nonzero;display:inline;overflow:visible;visibility:visible;opacity:1;isolation:auto;mix-blend-mode:normal;color-interpolation:sRGB;color-interpolation-filters:linearRGB;solid-color:#000000;solid-opacity:1;fill:#12d412;fill-opacity:1;fill-rule:evenodd;stroke:#000000;stroke-width:0.72000003;stroke-linecap:round;stroke-linejoin:miter;stroke-miterlimit:4;stroke-dasharray:none;stroke-dashoffset:0;stroke-opacity:1;color-rendering:auto;image-rendering:auto;shape-rendering:auto;text-rendering:auto;enable-background:accumulate" d="m -0.36653,-112.00637 c -0.81455,-2.43836 -1.19204,-5.18375 -1.03309,-6.78472 1.41067,1.62087 2.42622,4.60077 2.85943,6.64238 z" inkscape:connector-curvature="0" />
    <path style="color:#000000;clip-rule:nonzero;display:inline;overflow:visible;visibility:visible;opacity:1;isolation:auto;mix-blend-mode:normal;color-interpolation:sRGB;color-interpolation-filters:linearRGB;solid-color:#000000;solid-opacity:1;fill:#12d412;fill-opacity:1;fill-rule:evenodd;stroke:#000000;stroke-width:0.72000003;stroke-linecap:round;stroke-linejoin:miter;stroke-miterlimit:4;stroke-dasharray:none;stroke-dashoffset:0;stroke-opacity:1;color-rendering:auto;image-rendering:auto;shape-rendering:auto;text-rendering:auto;enable-background:accumulate" d="m -1.55785,-111.09741 c -0.91477,-0.0254 -1.58445,0.15709 -3.16904,0.24009 1.00913,-0.76453 2.08892,-0.98689 2.90044,-0.95066 z" inkscape:connector-curvature="0" />
    <path style="color:#000000;clip-rule:nonzero;display:inline;overflow:visible;visibility:visible;opacity:1;isolation:auto;mix-blend-mode:normal;color-interpolation:sRGB;color-interpolation-filters:linearRGB;solid-color:#000000;solid-opacity:1;fill:#12d412;fill-opacity:1;fill-rule:evenodd;stroke:#000000;stroke-width:0.72000003;stroke-linecap:round;stroke-linejoin:miter;stroke-miterlimit:4;stroke-dasharray:none;stroke-dashoffset:0;stroke-opacity:1;color-rendering:auto;image-rendering:auto;shape-rendering:auto;text-rendering:auto;enable-background:accumulate" d="m -1.12103,-110.78686 c -0.12779,-0.83135 -0.79097,-2.42139 -1.55531,-3.81193 2.34974,1.10735 2.85124,2.25905 3.19507,3.73178 z" inkscape:connector-curvature="0" />
    <path style="color:#000000;clip-rule:nonzero;display:inline;overflow:visible;visibility:visible;opacity:1;isolation:auto;mix-blend-mode:normal;color-interpolation:sRGB;color-interpolation-filters:linearRGB;solid-color:#000000;solid-opacity:1;fill:#12d412;fill-opacity:1;fill-rule:evenodd;stroke:#000000;stroke-width:0.72000003;stroke-linecap:round;stroke-linejoin:miter;stroke-miterlimit:4;stroke-dasharray:none;stroke-dashoffset:0;stroke-opacity:1;color-rendering:auto;image-rendering:auto;shape-rendering:auto;text-rendering:auto;enable-background:accumulate" d="m 0.62355,-110.85028 c 0.0292,-2.06436 1.66728,-4.19837 2.35732,-5.02187 -0.16556,2.04188 -0.80066,3.8787 -0.5694,5.14542 z" inkscape:connector-curvature="0" />
    <path style="color:#000000;clip-rule:nonzero;display:inline;overflow:visible;visibility:visible;opacity:1;isolation:auto;mix-blend-mode:normal;color-interpolation:sRGB;color-interpolation-filters:linearRGB;solid-color:#000000;solid-opacity:1;fill:#12d412;fill-opacity:1;fill-rule:evenodd;stroke:#000000;stroke-width:0.72000003;stroke-linecap:round;stroke-linejoin:miter;stroke-miterlimit:4;stroke-dasharray:none;stroke-dashoffset:0;stroke-opacity:1;color-rendering:auto;image-rendering:auto;shape-rendering:auto;text-rendering:auto;enable-background:accumulate" d="m -0.15742,-110.87985 c -0.74621,0.3881 -1.85444,1.26869 -2.92572,2.43924 0.18308,-1.25273 0.11641,-1.91316 1.40066,-2.71191 z" inkscape:connector-curvature="0" />
    <path style="color:#000000;clip-rule:nonzero;display:inline;overflow:visible;visibility:visible;opacity:1;isolation:auto;mix-blend-mode:normal;color-interpolation:sRGB;color-interpolation-filters:linearRGB;solid-color:#000000;solid-opacity:1;fill:#12d412;fill-opacity:1;fill-rule:evenodd;stroke:#000000;stroke-width:0.72000003;stroke-linecap:round;stroke-linejoin:miter;stroke-miterlimit:4;stroke-dasharray:none;stroke-dashoffset:0;stroke-opacity:1;color-rendering:auto;image-rendering:auto;shape-rendering:auto;text-rendering:auto;enable-background:accumulate" d="m 2.91023,-110.94983 c 0.91477,-0.0254 1.54755,0.15709 2.87388,-0.20264 -1.2305,-0.43249 -2.05203,-0.24901 -2.86354,-0.21278 z" inkscape:connector-curvature="0" />
    <path style="color:#000000;clip-rule:nonzero;display:inline;overflow:visible;visibility:visible;opacity:1;isolation:auto;mix-blend-mode:normal;color-interpolation:sRGB;color-interpolation-filters:linearRGB;solid-color:#000000;solid-opacity:1;fill:#12d412;fill-opacity:1;fill-rule:evenodd;stroke:#000000;stroke-width:0.72000003;stroke-linecap:round;stroke-linejoin:miter;stroke-miterlimit:4;stroke-dasharray:none;stroke-dashoffset:0;stroke-opacity:1;color-rendering:auto;image-rendering:auto;shape-rendering:auto;text-rendering:auto;enable-background:accumulate" d="m 1.17826,-110.84295 c 0.7462,0.3881 2.44475,2.44931 3.51602,3.17712 0.18587,-1.25272 -0.37467,-2.57726 -1.65892,-3.376 z" inkscape:connector-curvature="0" />
    <path style="color:#000000;clip-rule:nonzero;display:inline;overflow:visible;visibility:visible;opacity:1;isolation:auto;mix-blend-mode:normal;color-interpolation:sRGB;color-interpolation-filters:linearRGB;solid-color:#000000;solid-opacity:1;fill:#12d412;fill-opacity:1;fill-rule:evenodd;stroke:#000000;stroke-width:0.72000003;stroke-linecap:round;stroke-linejoin:miter;stroke-miterlimit:4;stroke-dasharray:none;stroke-dashoffset:0;stroke-opacity:1;color-rendering:auto;image-rendering:auto;shape-rendering:auto;text-rendering:auto;enable-background:accumulate" d="m 1.20768,-110.69537 c -0.15589,0.53567 -0.63692,1.56384 -1.56062,2.32855 -0.14897,-0.88378 -0.40011,-1.80248 -0.001,-2.45365 z" inkscape:connector-curvature="0" />
  </g>
</g>
<g inkscape:groupmode="layer" id="extras_layer" inkscape:label="Extras" style="display:inline" sodipodi:insensitive="true" >
  <g id="extra-ship" transform="matrix(0.4444171,-0.89581998,0.89581998,0.4444171,266.30938,417.60566)" >
    <path style="color:#000000;fill:url(#gradientShip);fill-opacity:1;fill-rule:evenodd;stroke:#000000;stroke-width:0.75;stroke-linecap:butt;stroke-linejoin:round;stroke-miterlimit:4;stroke-dasharray:none;stroke-dashoffset:0;stroke-opacity:1;marker:none;enable-background:accumulate" d="m 243.2364,-52.722824 c -3.10208,-2.937202 -8.72518,-3.346714 -12.49116,-3.032742 -2.95307,0.246202 -6.62512,1.070872 -6.62512,1.070872 l -0.0121,3.725952 c 0,0 2.43298,0.582421 6.39007,0.932887 3.66202,0.324334 9.61676,-0.283241 12.73834,-2.696969 z" inkscape:connector-curvature="0" />
    <path style="color:#000000;opacity:1;isolation:auto;mix-blend-mode:normal;color-interpolation:sRGB;color-interpolation-filters:linearRGB;solid-color:#000000;solid-opacity:1;fill:#000000;fill-opacity:1;fill-rule:evenodd;stroke:none;stroke-width:0.75;stroke-linecap:round;stroke-linejoin:round;stroke-miterlimit:4;stroke-dasharray:none;stroke-dashoffset:0;stroke-opacity:1;marker:none;color-rendering:auto;image-rendering:auto;shape-rendering:auto;text-rendering:auto;enable-background:accumulate" d="m 243.05273,-53.089844 c -0.50461,-0.01007 -0.51271,0.749303 -0.008,0.75 l 2.80546,-0.143551 c 0.50461,0.01007 0.51856,-0.385922 0.0138,-0.386619 z" inkscape:connector-curvature="0" />
    <circle cx="37.651787" cy="-233.087830" r="0.695206" style="color:#000000;opacity:1;isolation:auto;mix-blend-mode:normal;color-interpolation:sRGB;color-interpolation-filters:linearRGB;solid-color:#000000;solid-opacity:1;fill:#a66e00;fill-opacity:1;fill-rule:nonzero;stroke:#000000;stroke-width:0.5;stroke-linecap:butt;stroke-linejoin:miter;stroke-miterlimit:4;stroke-dasharray:none;stroke-dashoffset:0;stroke-opacity:1;color-rendering:auto;image-rendering:auto;shape-rendering:auto;text-rendering:auto;enable-background:accumulate" transform="matrix(0.37654483,0.9263984,-0.9263984,0.37654483,0,0)" />
    <circle cx="39.995537" cy="-238.712830" r="0.695206" style="color:#000000;opacity:1;isolation:auto;mix-blend-mode:normal;color-interpolation:sRGB;color-interpolation-filters:linearRGB;solid-color:#000000;solid-opacity:1;fill:#a66e00;fill-opacity:1;fill-rule:nonzero;stroke:#000000;stroke-width:0.5;stroke-linecap:butt;stroke-linejoin:miter;stroke-miterlimit:4;stroke-dasharray:none;stroke-dashoffset:0;stroke-opacity:1;color-rendering:auto;image-rendering:auto;shape-rendering:auto;text-rendering:auto;enable-background:accumulate" transform="matrix(0.37654483,0.9263984,-0.9263984,0.37654483,0,0)" />
    <path style="color:#000000;fill:#feffff;fill-opacity:1;fill-rule:evenodd;stroke:#000000;stroke-width:0.5;stroke-linecap:butt;stroke-linejoin:round;stroke-miterlimit:4;stroke-dasharray:none;stroke-dashoffset:0;stroke-opacity:1;marker:none;enable-background:accumulate" d="m 230.8139,-58.168744 -0.0696,11.095953 c 0,0 1.11273,-0.901569 1.17305,-2.014949 0.0592,-1.093696 -0.80015,-1.762231 -0.80015,-1.762231 0,0 1.00218,-0.841738 0.9922,-1.921676 -0.0106,-1.140901 -0.9468,-1.722391 -0.9468,-1.722391 0,0 0.80027,-0.5343 0.83406,-1.646805 0.0349,-1.150244 -1.18274,-2.027894 -1.18274,-2.027894 z" inkscape:connector-curvature="0" />
    <path style="color:#000000;fill:#feffff;fill-opacity:1;fill-rule:evenodd;stroke:#000000;stroke-width:0.5;stroke-linecap:butt;stroke-linejoin:round;stroke-miterlimit:4;stroke-dasharray:none;stroke-dashoffset:0;stroke-opacity:1;marker:none;enable-background:accumulate" d="m 236.95087,-57.97366 -0.0645,10.282469 c 0,0 1.03677,-0.785137 1.09267,-1.816887 0.0549,-1.013517 -0.74706,-1.683399 -0.74706,-1.683399 0,0 0.85887,-0.76153 0.84962,-1.762298 -0.01,-1.057255 -0.80754,-1.614603 -0.80754,-1.614603 0,0 0.84013,-0.540128 0.87144,-1.571079 0.0324,-1.065902 -1.19455,-1.834218 -1.19455,-1.834218 z" inkscape:connector-curvature="0" />
    <path style="fill:#000000;stroke:none" d="m 239.16963,-53.312319 -0.0111,0.999645 1.00145,0.01039 0.009,-1.000718 z" inkscape:connector-curvature="0" />
    <path style="fill:#6a4600;stroke:none" d="m 233.00825,-53.641515 -0.0131,1.52646 1.52369,0.01423 0.0142,-1.523703 z" inkscape:connector-curvature="0" />
    <path style="fill:none;stroke:#000000;stroke-width:0.6;stroke-linecap:butt" d="m 227.26126,-55.055042 -0.0734,4.514141" inkscape:connector-curvature="0" />
    <path style="fill:#000000;stroke:none" d="m 223.83649,-54.026834 -0.0111,0.999636 1.00072,0.0086 0.009,-0.998911 z" inkscape:connector-curvature="0" />
    <path style="fill:#000000;stroke:none" d="m 223.85032,-52.581947 -0.0111,0.999637 1.00072,0.0086 0.009,-0.998912 z" inkscape:connector-curvature="0" />
    <path style="fill:none;stroke:#000000;stroke-width:0.5;stroke-linecap:butt;stroke-linejoin:round;stroke-miterlimit:4" d="m 227.2539,-51.578825 1.14997,0.173504 -0.0116,1.05042" inkscape:connector-curvature="0" />
    <path style="fill:none;stroke:#000000;stroke-width:0.5;stroke-linecap:butt;stroke-linejoin:round;stroke-miterlimit:4" d="m 227.25705,-54.143799 1.1481,-0.163064 0.0224,-1.189753" inkscape:connector-curvature="0" />
  </g>
</g>
<g inkscape:groupmode="layer" id="suit_rank_glow_layer" inkscape:label="Suit Rank Glow" style="display:inline" sodipodi:insensitive="true" >
  <g style="opacity:0.75;filter:url(#blurSuitRankGlow)" >
    <path style="fill:#ffffff;fill-opacity:1;stroke:none" d="m 31.453338,21.223775 c -3.28572,0 -5.95,2.65553 -5.95,5.94125 0,0.85821 0.18762,1.67115 0.51625,2.40625 -0.26383,-0.0358 -0.53136,-0.0525 -0.805,-0.0525 -3.28572,0 -5.95,2.65553 -5.95,5.94125 0,3.28571 2.66428,5.95 5.95,5.95 1.44726,0 2.87049,-0.3694 3.77125,-1.1725 -0.12772,1.47874 -0.1736,2.78641 -0.21875,4.27875 1.79083,0 3.58167,0 5.3725,0 -0.0452,-1.49234 -0.091,-2.80001 -0.21875,-4.27875 0.90076,0.8031 2.32399,1.1725 3.77125,1.1725 3.28572,0 5.95,-2.66429 5.95,-5.95 0,-3.28572 -2.66428,-5.94125 -5.95,-5.94125 -0.27364,0 -0.54117,0.0167 -0.805,0.0525 0.32863,-0.7351 0.51625,-1.54804 0.51625,-2.40625 0,-3.28572 -2.66428,-5.94125 -5.95,-5.94125 z" inkscape:connector-curvature="0" />
    <path style="fill:#ffffff;fill-opacity:1;stroke:none" d="m 215.96335,316.27628 c 3.28572,0 5.95,-2.65553 5.95,-5.94125 0,-0.85821 -0.18762,-1.67114 -0.51625,-2.40625 0.26383,0.0358 0.53136,0.0525 0.805,0.0525 3.28572,0 5.95,-2.65553 5.95,-5.94125 0,-3.2857 -2.66428,-5.95 -5.95,-5.95 -1.44726,0 -2.87049,0.3694 -3.77125,1.1725 0.12772,-1.47874 0.1736,-2.78641 0.21875,-4.27875 -1.79083,0 -3.58167,0 -5.3725,0 0.0452,1.49234 0.091,2.80001 0.21875,4.27875 -0.90076,-0.8031 -2.32399,-1.1725 -3.77125,-1.1725 -3.28572,0 -5.95,2.66429 -5.95,5.95 0,3.28572 2.66428,5.94125 5.95,5.94125 0.27364,0 0.54117,-0.0167 0.805,-0.0525 -0.32863,0.73511 -0.51625,1.54804 -0.51625,2.40625 0,3.28572 2.66428,5.94125 5.95,5.94125 z" inkscape:connector-curvature="0" />
    <path style="fill:#ffffff;fill-opacity:1;stroke:none" d="m 27.85334,74.875025 -6,0 0,-3.2 12,-20.8 3.19999,0 0,20.8 3.999996,0 0,3.2 -3.999996,-0.04 0,4.84 2.400006,0 0,3.2 -7.999996,0 0,-3.2 2.4,0 0,-4.8 -6,0 m 6,-3.2 c -2e-5,0 -2e-5,-0.36 0,-1.08 -2e-5,-0.72 -2e-5,-1.6133 0,-2.68 -2e-5,-1.0933 -2e-5,-2.2533 0,-3.48 -2e-5,-1.2533 -2e-5,-2.4133 0,-3.48 -2e-5,-1.0933 -2e-5,-1.9866 0,-2.68 -2e-5,-0.72 -2e-5,-1.08 0,-1.08 -0.42668,0.72 -0.86668,1.48 -1.32001,2.28 -0.40001,0.6934 -0.84001,1.4667 -1.31999,2.32 -0.48002,0.8534 -0.98668,1.7334 -1.52,2.64 -1.22668,2.1334 -2.62668,4.5467 -4.2,7.24 l 4.15999,0 c 0.50666,0 1.01333,0 1.52,0 0.50666,0 0.94666,0 1.32001,0 0.39998,0 0.71998,0 0.96,0 0.26665,0 0.39998,0 0.4,0" inkscape:connector-curvature="0" />
    <path style="fill:#ffffff;fill-opacity:1;stroke:none" d="m 219.56334,262.62502 6,0 0,3.2 -12,20.8 -3.2,0 0,-20.8 -4,0 0,-3.2 4,0.04 0,-4.83999 -2.40001,0 0,-3.2 8,0 0,3.2 -2.40001,0 0,4.8 6,0 m -6,3.2 c 3e-5,0 3e-5,0.36 0,1.07999 3e-5,0.72001 3e-5,1.61329 0,2.68 3e-5,1.0933 3e-5,2.25331 0,3.48001 3e-5,1.2533 3e-5,2.4133 0,3.48 3e-5,1.0933 3e-5,1.9866 0,2.68 3e-5,0.72 3e-5,1.08 0,1.08 0.42669,-0.72001 0.86669,-1.48 1.32002,-2.28 0.40001,-0.6934 0.84001,-1.4667 1.31998,-2.32 0.48002,-0.8534 0.98669,-1.7334 1.52001,-2.64 1.22667,-2.1334 2.62668,-4.5467 4.19999,-7.24 l -4.15999,0 c -0.50666,0 -1.01332,0 -1.51999,0 -0.50666,0 -0.94667,0 -1.32002,0 -0.39998,0 -0.71997,0 -0.96,0 -0.26665,0 -0.39998,0 -0.4,0" inkscape:connector-curvature="0" />
  </g>
</g>
<g inkscape:groupmode="layer" id="suit_rank_layer" inkscape:label="Suit Rank" style="display:inline" sodipodi:insensitive="true" >
  <path style="fill:#000000;fill-opacity:1;stroke:none" d="m 31.453338,21.223775 c -3.28572,0 -5.95,2.65553 -5.95,5.94125 0,0.85821 0.18762,1.67115 0.51625,2.40625 -0.26383,-0.0358 -0.53136,-0.0525 -0.805,-0.0525 -3.28572,0 -5.95,2.65553 -5.95,5.94125 0,3.28571 2.66428,5.95 5.95,5.95 1.44726,0 2.87049,-0.3694 3.77125,-1.1725 -0.12772,1.47874 -0.1736,2.78641 -0.21875,4.27875 1.79083,0 3.58167,0 5.3725,0 -0.0452,-1.49234 -0.091,-2.80001 -0.21875,-4.27875 0.90076,0.8031 2.32399,1.1725 3.77125,1.1725 3.28572,0 5.95,-2.66429 5.95,-5.95 0,-3.28572 -2.66428,-5.94125 -5.95,-5.94125 -0.27364,0 -0.54117,0.0167 -0.805,0.0525 0.32863,-0.7351 0.51625,-1.54804 0.51625,-2.40625 0,-3.28572 -2.66428,-5.94125 -5.95,-5.94125 z" inkscape:connector-curvature="0" />
  <path style="fill:#000000;fill-opacity:1;stroke:none" d="m 215.96335,316.27628 c 3.28572,0 5.95,-2.65553 5.95,-5.94125 0,-0.85821 -0.18762,-1.67114 -0.51625,-2.40625 0.26383,0.0358 0.53136,0.0525 0.805,0.0525 3.28572,0 5.95,-2.65553 5.95,-5.94125 0,-3.2857 -2.66428,-5.95 -5.95,-5.95 -1.44726,0 -2.87049,0.3694 -3.77125,1.1725 0.12772,-1.47874 0.1736,-2.78641 0.21875,-4.27875 -1.79083,0 -3.58167,0 -5.3725,0 0.0452,1.49234 0.091,2.80001 0.21875,4.27875 -0.90076,-0.8031 -2.32399,-1.1725 -3.77125,-1.1725 -3.28572,0 -5.95,2.66429 -5.95,5.95 0,3.28572 2.66428,5.94125 5.95,5.94125 0.27364,0 0.54117,-0.0167 0.805,-0.0525 -0.32863,0.73511 -0.51625,1.54804 -0.51625,2.40625 0,3.28572 2.66428,5.94125 5.95,5.94125 z" inkscape:connector-curvature="0" />
  <path style="fill:#000000;fill-opacity:1;stroke:none" d="m 27.85334,74.875025 -6,0 0,-3.2 12,-20.8 3.19999,0 0,20.8 3.999996,0 0,3.2 -3.999996,-0.04 0,4.84 2.400006,0 0,3.2 -7.999996,0 0,-3.2 2.4,0 0,-4.8 -6,0 m 6,-3.2 c -2e-5,0 -2e-5,-0.36 0,-1.08 -2e-5,-0.72 -2e-5,-1.6133 0,-2.68 -2e-5,-1.0933 -2e-5,-2.2533 0,-3.48 -2e-5,-1.2533 -2e-5,-2.4133 0,-3.48 -2e-5,-1.0933 -2e-5,-1.9866 0,-2.68 -2e-5,-0.72 -2e-5,-1.08 0,-1.08 -0.42668,0.72 -0.86668,1.48 -1.32001,2.28 -0.40001,0.6934 -0.84001,1.4667 -1.31999,2.32 -0.48002,0.8534 -0.98668,1.7334 -1.52,2.64 -1.22668,2.1334 -2.62668,4.5467 -4.2,7.24 l 4.15999,0 c 0.50666,0 1.01333,0 1.52,0 0.50666,0 0.94666,0 1.32001,0 0.39998,0 0.71998,0 0.96,0 0.26665,0 0.39998,0 0.4,0" inkscape:connector-curvature="0" />
  <path style="fill:#000000;fill-opacity:1;stroke:none" d="m 219.56334,262.62502 6,0 0,3.2 -12,20.8 -3.2,0 0,-20.8 -4,0 0,-3.2 4,0.04 0,-4.83999 -2.40001,0 0,-3.2 8,0 0,3.2 -2.40001,0 0,4.8 6,0 m -6,3.2 c 3e-5,0 3e-5,0.36 0,1.07999 3e-5,0.72001 3e-5,1.61329 0,2.68 3e-5,1.0933 3e-5,2.25331 0,3.48001 3e-5,1.2533 3e-5,2.4133 0,3.48 3e-5,1.0933 3e-5,1.9866 0,2.68 3e-5,0.72 3e-5,1.08 0,1.08 0.42669,-0.72001 0.86669,-1.48 1.32002,-2.28 0.40001,-0.6934 0.84001,-1.4667 1.31998,-2.32 0.48002,-0.8534 0.98669,-1.7334 1.52001,-2.64 1.22667,-2.1334 2.62668,-4.5467 4.19999,-7.24 l -4.15999,0 c -0.50666,0 -1.01332,0 -1.51999,0 -0.50666,0 -0.94667,0 -1.32002,0 -0.39998,0 -0.71997,0 -0.96,0 -0.26665,0 -0.39998,0 -0.4,0" inkscape:connector-curvature="0" />
</g>
<g inkscape:groupmode="layer" id="guides_layer" inkscape:label="Guides" style="display:none" sodipodi:insensitive="true" >
  <path style="fill:none;stroke:#000000;stroke-width:0.9" d="m 11.250000,11.25 0,-45" inkscape:connector-curvature="0" />
  <path style="fill:none;stroke:#000000;stroke-width:0.9" d="m 11.250000,371.25 0,-45" inkscape:connector-curvature="0" />
  <path style="fill:none;stroke:#000000;stroke-width:0.9" d="m 84.375000,11.25 0,-45" inkscape:connector-curvature="0" />
  <path style="fill:none;stroke:#000000;stroke-width:0.9" d="m 84.375000,371.25 0,-45" inkscape:connector-curvature="0" />
  <path style="fill:none;stroke:#000000;stroke-width:0.9" d="m 123.750000,11.25 0,-45" inkscape:connector-curvature="0" />
  <path style="fill:none;stroke:#000000;stroke-width:0.9" d="m 123.750000,371.25 0,-45" inkscape:connector-curvature="0" />
  <path style="fill:none;stroke:#000000;stroke-width:0.9" d="m 163.125000,11.25 0,-45" inkscape:connector-curvature="0" />
  <path style="fill:none;stroke:#000000;stroke-width:0.9" d="m 163.125000,371.25 0,-45" inkscape:connector-curvature="0" />
  <path style="fill:none;stroke:#000000;stroke-width:0.9" d="m 236.250000,11.25 0,-45" inkscape:connector-curvature="0" />
  <path style="fill:none;stroke:#000000;stroke-width:0.9" d="m 236.250000,371.25 0,-45" inkscape:connector-curvature="0" />
  <path style="fill:none;stroke:#000000;stroke-width:0.9" d="m -33.75,11.250000 45,0" inkscape:connector-curvature="0" />
  <path style="fill:none;stroke:#000000;stroke-width:0.9" d="m 236.25,11.250000 45,0" inkscape:connector-curvature="0" />
  <path style="fill:none;stroke:#000000;stroke-width:0.9" d="m -33.75,118.125000 45,0" inkscape:connector-curvature="0" />
  <path style="fill:none;stroke:#000000;stroke-width:0.9" d="m 236.25,118.125000 45,0" inkscape:connector-curvature="0" />
  <path style="fill:none;stroke:#000000;stroke-width:0.9" d="m -33.75,168.750000 45,0" inkscape:connector-curvature="0" />
  <path style="fill:none;stroke:#000000;stroke-width:0.9" d="m 236.25,168.750000 45,0" inkscape:connector-curvature="0" />
  <path style="fill:none;stroke:#000000;stroke-width:0.9" d="m -33.75,219.375000 45,0" inkscape:connector-curvature="0" />
  <path style="fill:none;stroke:#000000;stroke-width:0.9" d="m 236.25,219.375000 45,0" inkscape:connector-curvature="0" />
  <path style="fill:none;stroke:#000000;stroke-width:0.9" d="m -33.75,326.250000 45,0" inkscape:connector-curvature="0" />
  <path style="fill:none;stroke:#000000;stroke-width:0.9" d="m 236.25,326.250000 45,0" inkscape:connector-curvature="0" />
  <g id="guide-short0-0" >
    <rect x="0.000000" y="-22.500000" width="247.500000" height="22.500000" style="fill:#73baff;stroke:#000000;stroke-width:0.9" />
  </g>
  <g id="guide-long1-1" >
    <rect x="247.500000" y="219.375000" width="22.500000" height="118.125000" style="fill:#ffd291;stroke:#000000;stroke-width:0.9" />
    <rect x="247.500000" y="236.250000" width="22.500000" height="101.250000" style="fill:#b4e982;stroke:#000000;stroke-width:0.9" />
    <rect x="247.500000" y="258.750000" width="22.500000" height="78.750000" style="fill:#5adc4f;stroke:#000000;stroke-width:0.9" />
    <rect x="247.500000" y="0.000000" width="22.500000" height="219.375000" style="fill:#b9deff;stroke:#000000;stroke-width:0.9" />
    <rect x="247.500000" y="0.000000" width="22.500000" height="168.750000" style="fill:#9bceff;stroke:#000000;stroke-width:0.9" />
    <rect x="247.500000" y="0.000000" width="22.500000" height="101.250000" style="fill:#73baff;stroke:#000000;stroke-width:0.9" />
  </g>
  <g id="guide-short2-7" transform="matrix(-1,0,0,1,247.5,360)" >
    <rect x="0.000000" y="-22.500000" width="247.500000" height="22.500000" style="fill:#b4e982;stroke:#000000;stroke-width:0.9" />
    <rect x="0.000000" y="-22.500000" width="118.125000" height="22.500000" style="fill:#5adc4f;stroke:#000000;stroke-width:0.9" />
    <rect x="129.375000" y="-22.500000" width="118.125000" height="22.500000" style="fill:#5adc4f;stroke:#000000;stroke-width:0.9" />
  </g>
  <g id="guide-long3-6" transform="matrix(1,0,0,-1,-270,337.5)" >
    <rect x="247.500000" y="0.000000" width="22.500000" height="219.375000" style="fill:#ffd291;stroke:#000000;stroke-width:0.9" />
    <rect x="247.500000" y="0.000000" width="22.500000" height="213.750000" style="fill:#b4e982;stroke:#000000;stroke-width:0.9" />
    <rect x="247.500000" y="0.000000" width="22.500000" height="112.500000" style="fill:#5adc4f;stroke:#000000;stroke-width:0.9" />
    <rect x="247.500000" y="123.750000" width="22.500000" height="61.875000" style="fill:#5adc4f;stroke:#000000;stroke-width:0.9" />
    <rect x="247.500000" y="219.375000" width="22.500000" height="118.125000" style="fill:#b9deff;stroke:#000000;stroke-width:0.9" />
    <rect x="247.500000" y="253.125000" width="22.500000" height="84.375000" style="fill:#9bceff;stroke:#000000;stroke-width:0.9" />
    <rect x="247.500000" y="286.875000" width="22.500000" height="50.625000" style="fill:#73baff;stroke:#000000;stroke-width:0.9" />
  </g>
</g>
<g inkscape:groupmode="layer" id="cut_line_layer" inkscape:label="Cut Line" style="display:none" sodipodi:insensitive="true" >
  <rect style="fill:none;stroke:#000000;stroke-width:0.5;stroke-linecap:butt;stroke-linejoin:bevel;stroke-miterlimit:4;stroke-dasharray:none;stroke-opacity:1" width="225" height="315" x="11.25" y="11.25" ry="17.361111" />
</g>
<g inkscape:groupmode="layer" id="page_border_layer" inkscape:label="Page Border" style="display:none" sodipodi:insensitive="true" >
  <rect style="fill:none;stroke:#000000;stroke-width:0.5;stroke-linecap:butt;stroke-linejoin:bevel;stroke-miterlimit:4;stroke-dasharray:none;stroke-opacity:1" width="247.5" height="337.5" x="0" y="0" />
</g>

</svg>
