<?xml version="1.0" encoding="UTF-8" standalone="no"?>
<svg version="1.1" height="337.5" width="247.5" xmlns:rdf="http://www.w3.org/1999/02/22-rdf-syntax-ns#" xmlns="http://www.w3.org/2000/svg" xmlns:cc="http://creativecommons.org/ns#" xmlns:xlink="http://www.w3.org/1999/xlink" xmlns:dc="http://purl.org/dc/elements/1.1/" xmlns:sodipodi="http://sodipodi.sourceforge.net/DTD/sodipodi-0.dtd" xmlns:svg="http://www.w3.org/2000/svg" xmlns:inkscape="http://www.inkscape.org/namespaces/inkscape">
<metadata>
  <rdf:RDF>
    <cc:Work rdf:about="">
      <dc:format>image/svg+xml</dc:format>
      <dc:type rdf:resource="http://purl.org/dc/dcmitype/StillImage"/>
      <dc:title/>
      <dc:creator>
        <cc:Agent><dc:title>Gary Kacmarcik</dc:title></cc:Agent>
      </dc:creator>
    </cc:Work>
  </rdf:RDF>
</metadata>

<defs>
  <filter inkscape:label="textureGrassBig" style="color-interpolation-filters:sRGB" id="textureGrassBig">
    <feTurbulence numOctaves="2" seed="505" type="turbulence" baseFrequency="0.070000" result="result1" />
    <feColorMatrix result="result0" in="SourceGraphic" type="luminanceToAlpha" />
    <feColorMatrix result="result2" values="1 0 0 0 0 0 1 0 0 0 0 0 1 0 0 0 0 0 0.4 0 " />
    <feComposite in="result2" operator="over" in2="result1" />
    <feColorMatrix result="result91" values="1 0 0 0 0 0 1 0 0 0 0 0 1 0 0 0 0 0 10 -4 " />
    <feComposite operator="out" in="SourceGraphic" in2="result91" />
    <feGaussianBlur stdDeviation="2.500000" />
    <feColorMatrix values="1 0 0 0 0 0 1 0 0 0 0 0 1 0 0 0 0 0 1 0 " />
  </filter>
  <filter inkscape:label="textureGrassSmall" style="color-interpolation-filters:sRGB" id="textureGrassSmall">
    <feTurbulence numOctaves="4" seed="505" type="turbulence" baseFrequency="0.500000" result="result1" />
    <feColorMatrix result="result0" in="SourceGraphic" type="luminanceToAlpha" />
    <feColorMatrix result="result2" values="1 0 0 0 0 0 1 0 0 0 0 0 1 0 0 0 0 0 0.4 0 " />
    <feComposite in="result2" operator="over" in2="result1" />
    <feColorMatrix result="result91" values="1 0 0 0 0 0 1 0 0 0 0 0 1 0 0 0 0 0 10 -4 " />
    <feComposite operator="out" in="SourceGraphic" in2="result91" />
    <feGaussianBlur stdDeviation="1.000000" />
    <feColorMatrix values="1 0 0 0 0 0 1 0 0 0 0 0 1 0 0 0 0 0 1 0 " />
  </filter>
  <filter inkscape:label="textureLand" style="color-interpolation-filters:sRGB" id="textureLand">
    <feTurbulence numOctaves="4" seed="505" type="turbulence" baseFrequency="0.500000" result="result1" />
    <feColorMatrix result="result0" in="SourceGraphic" type="luminanceToAlpha" />
    <feColorMatrix result="result2" values="1 0 0 0 0 0 1 0 0 0 0 0 1 0 0 0 0 0 0.4 0 " />
    <feComposite in="result2" operator="over" in2="result1" />
    <feColorMatrix result="result91" values="1 0 0 0 0 0 1 0 0 0 0 0 1 0 0 0 0 0 10 -4 " />
    <feComposite operator="out" in="SourceGraphic" in2="result91" />
    <feGaussianBlur stdDeviation="0.800000" />
    <feColorMatrix values="1 0 0 0 0 0 1 0 0 0 0 0 1 0 0 0 0 0 1 0 " />
  </filter>
  <filter inkscape:label="textureForestBig" style="color-interpolation-filters:sRGB" id="textureForestBig">
    <feTurbulence numOctaves="2" seed="505" type="turbulence" baseFrequency="0.300000" result="result1" />
    <feColorMatrix result="result0" in="SourceGraphic" type="luminanceToAlpha" />
    <feColorMatrix result="result2" values="1 0 0 0 0 0 1 0 0 0 0 0 1 0 0 0 0 0 0.4 0 " />
    <feComposite in="result2" operator="over" in2="result1" />
    <feColorMatrix result="result91" values="1 0 0 0 0 0 1 0 0 0 0 0 1 0 0 0 0 0 10 -4 " />
    <feComposite operator="out" in="SourceGraphic" in2="result91" />
    <feGaussianBlur stdDeviation="2.000000" />
    <feColorMatrix values="1 0 0 0 0 0 1 0 0 0 0 0 1 0 0 0 0 0 1 0 " />
  </filter>
  <filter inkscape:label="textureForestSmall" style="color-interpolation-filters:sRGB" id="textureForestSmall">
    <feTurbulence numOctaves="4" seed="505" type="turbulence" baseFrequency="0.350000" result="result1" />
    <feColorMatrix result="result0" in="SourceGraphic" type="luminanceToAlpha" />
    <feColorMatrix result="result2" values="1 0 0 0 0 0 1 0 0 0 0 0 1 0 0 0 0 0 0.4 0 " />
    <feComposite in="result2" operator="over" in2="result1" />
    <feColorMatrix result="result91" values="1 0 0 0 0 0 1 0 0 0 0 0 1 0 0 0 0 0 10 -4 " />
    <feComposite operator="out" in="SourceGraphic" in2="result91" />
    <feGaussianBlur stdDeviation="1.000000" />
    <feColorMatrix values="1 0 0 0 0 0 1 0 0 0 0 0 1 0 0 0 0 0 1 0 " />
  </filter>
  <filter inkscape:label="roughenShoreline" style="color-interpolation-filters:sRGB" id="roughenShoreline">
    <feTurbulence numOctaves="4" seed="505" type="turbulence" baseFrequency="0.050000" result="turb" />
    <feDisplacementMap scale="6.600000" yChannelSelector="G" xChannelSelector="R" in="SourceGraphic" in2="turb" />
  </filter>
  <filter inkscape:label="roughenForest" style="color-interpolation-filters:sRGB" id="roughenForest">
    <feTurbulence numOctaves="4" seed="505" type="fractalNoise" baseFrequency="0.150000 0.150000" result="turb" />
    <feDisplacementMap scale="6.600000" yChannelSelector="G" xChannelSelector="R" in="SourceGraphic" in2="turb" />
  </filter>
  <filter inkscape:collect="always" inkscape:label="blurSuitRankGlow" style="color-interpolation-filters:sRGB" id="blurSuitRankGlow" x="-0.029025" y="-0.020458" width="1.058049" height="1.040917">
    <feGaussianBlur inkscape:collect="always" stdDeviation="2.515067" />
  </filter>
  <filter inkscape:collect="always" inkscape:label="blurWaterDeep" style="color-interpolation-filters:sRGB" id="blurWaterDeep" x="-0.056691" y="-0.041620" width="1.113381" height="1.083239">
    <feGaussianBlur inkscape:collect="always" stdDeviation="6.919136" />
  </filter>
  <filter inkscape:collect="always" inkscape:label="blurWaterShallow" style="color-interpolation-filters:sRGB" id="blurWaterShallow" x="-0.055818" y="-0.042103" width="1.111637" height="1.084205">
    <feGaussianBlur inkscape:collect="always" stdDeviation="6.561501" />
  </filter>
  <filter inkscape:collect="always" inkscape:label="blurWaterHilight" style="color-interpolation-filters:sRGB" id="blurWaterHilight" x="-0.071178" y="-0.051856" width="1.142356" height="1.103712">
    <feGaussianBlur inkscape:collect="always" stdDeviation="6.857532" />
  </filter>
  <filter inkscape:collect="always" inkscape:label="blurGrass" style="color-interpolation-filters:sRGB" id="blurGrass" x="-0.032100" y="-0.019164" width="1.064201" height="1.038328">
    <feGaussianBlur inkscape:collect="always" stdDeviation="2.386213" />
  </filter>
  <filter inkscape:collect="always" inkscape:label="blurForestShadow" style="color-interpolation-filters:sRGB" id="blurForestShadow" x="-0.033576" y="-0.018674" width="1.067152" height="1.037348">
    <feGaussianBlur inkscape:collect="always" stdDeviation="2.199785" />
  </filter>
  <filter inkscape:collect="always" inkscape:label="blurFlowerInner" style="color-interpolation-filters:sRGB" id="blurFlowerInner" x="-0.420000" y="-0.420000" width="1.840000" height="1.840000">
    <feGaussianBlur inkscape:collect="always" stdDeviation="1.605540" />
  </filter>
  <filter inkscape:collect="always" inkscape:label="blurFlowerMiddle" style="color-interpolation-filters:sRGB" id="blurFlowerMiddle" x="-0.240000" y="-0.240000" width="1.480000" height="1.480000">
    <feGaussianBlur inkscape:collect="always" stdDeviation="1.933705" />
  </filter>
  <linearGradient id="gradientStopsFish" inkscape:collect="always">
    <stop offset="0.000000" style="stop-color:#ff5555;stop-opacity:1.000000" />
    <stop offset="1.000000" style="stop-color:#ffffff;stop-opacity:1.000000" />
  </linearGradient>
  <linearGradient id="gradientStopsCoconut" inkscape:collect="always">
    <stop offset="0.000000" style="stop-color:#ffffff;stop-opacity:1.000000" />
    <stop offset="1.000000" style="stop-color:#c8c8c8;stop-opacity:0.000000" />
  </linearGradient>
  <linearGradient id="gradientStopsFlower" inkscape:collect="always">
    <stop offset="0.000000" style="stop-color:#b16dff;stop-opacity:1.000000" />
    <stop offset="1.000000" style="stop-color:#e7d2ff;stop-opacity:1.000000" />
  </linearGradient>
  <linearGradient id="gradientStopsJellyfish" inkscape:collect="always">
    <stop offset="0.000000" style="stop-color:#4f97ff;stop-opacity:1.000000" />
    <stop offset="1.000000" style="stop-color:#cfe3ff;stop-opacity:1.000000" />
  </linearGradient>
  <linearGradient id="gradientStopsShip" inkscape:collect="always">
    <stop offset="0.000000" style="stop-color:#b67800;stop-opacity:1.000000" />
    <stop offset="1.000000" style="stop-color:#d28b00;stop-opacity:1.000000" />
  </linearGradient>
  <linearGradient id="gradientFish" xlink:href="#gradientStopsFish" x1="178.789090" y1="-114.782830" x2="180.407300" y2="-103.782830" gradientTransform="translate(-178.76256,1.0606602)" gradientUnits="userSpaceOnUse" inkscape:collect="always" />
  <linearGradient id="gradientJellyfishTentacle1a" xlink:href="#gradientStopsJellyfish" x1="118.024030" y1="-110.827530" x2="121.753140" y2="-96.140030" gradientTransform="translate(-120,0)" gradientUnits="userSpaceOnUse" inkscape:collect="always" />
  <linearGradient id="gradientJellyfishTentacle1b" xlink:href="#gradientStopsJellyfish" x1="118.024030" y1="-110.827530" x2="121.753140" y2="-96.140030" gradientTransform="translate(-120,0)" gradientUnits="userSpaceOnUse" inkscape:collect="always" />
  <linearGradient id="gradientJellyfishTentacle2" xlink:href="#gradientStopsJellyfish" x1="118.218180" y1="-115.782610" x2="121.698270" y2="-97.813858" gradientTransform="translate(-120,0)" gradientUnits="userSpaceOnUse" inkscape:collect="always" />
  <linearGradient id="gradientJellyfishTentacle3" xlink:href="#gradientStopsJellyfish" x1="123.335370" y1="-114.610190" x2="116.678600" y2="-98.453941" gradientTransform="translate(-120,0)" gradientUnits="userSpaceOnUse" inkscape:collect="always" />
  <linearGradient id="gradientShip" xlink:href="#gradientStopsShip" x1="196.432910" y1="221.715270" x2="203.663250" y2="204.277770" gradientTransform="matrix(0.37654483,0.9263984,-0.9263984,0.37654483,355.66788,-318.43897)" gradientUnits="userSpaceOnUse" inkscape:collect="always" />
  <radialGradient id="gradientCoconut" xlink:href="#gradientStopsCoconut" cx="1.944096" cy="-60.612652" fx="1.944096" fy="-60.612652" r="6.723294" gradientUnits="userSpaceOnUse" gradientTransform="matrix(1.691364,-0.31394812,0.29762395,1.603419,17.826033,-7.042221)" inkscape:collect="always" />
  <radialGradient id="gradientFlower" xlink:href="#gradientStopsFlower" cx="60.884877" cy="-69.652750" fx="60.884877" fy="-69.652750" r="15.835310" gradientUnits="userSpaceOnUse" gradientTransform="matrix(0.8413905,0,0,0.87120012,-50.722984,-48.679159)" inkscape:collect="always" />
  <radialGradient id="gradientJellyfish" xlink:href="#gradientStopsJellyfish" cx="120.453410" cy="-112.943900" fx="120.453410" fy="-112.943900" r="10.580511" gradientUnits="userSpaceOnUse" gradientTransform="matrix(1.1662998,0.0435575,-0.04526952,1.2121402,-145.14628,17.080499)" inkscape:collect="always" />
</defs>

<sodipodi:namedview
    id="base"
    pagecolor="#ffffff"
    bordercolor="#666666"
    borderopacity="1.0"
    inkscape:pageopacity="0.0"
    inkscape:pageshadow="2"
    inkscape:zoom="2"
    inkscape:cx="115.37643"
    inkscape:cy="285.04449"
    inkscape:document-units="in"
    showgrid="true"
    units="in"
    inkscape:window-width="1392"
    inkscape:window-height="836"
    inkscape:window-x="39"
    inkscape:window-y="6"
    inkscape:window-maximized="0"
    inkscape:snap-grids="true"
    inkscape:snap-to-guides="true"
    inkscape:snap-nodes="true"
    inkscape:object-nodes="true"
    inkscape:snap-smooth-nodes="true"
    inkscape:snap-intersection-paths="true"
    inkscape:object-paths="true"
    inkscape:snap-bbox="true"
    inkscape:bbox-nodes="true"
    inkscape:snap-others="true"
    inkscape:bbox-paths="false"
    inkscape:snap-global="true" >
  <inkscape:grid
    type="xygrid"
    id="grid3051"
    empspacing="2"
    visible="true"
    enabled="true"
    snapvisiblegridlinesonly="true"
    spacingx="0.0625in"
    spacingy="0.0625in"
    dotted="false"
    units="in" />
</sodipodi:namedview>
<g inkscape:groupmode="layer" id="water_layer" inkscape:label="Water" style="display:inline" sodipodi:insensitive="true" >
  <rect id="water" style="fill:#b9deff;fill-opacity:1;stroke:none" x="0" y="0" width="247.5" height="337.5" />
</g>
<g inkscape:groupmode="layer" id="water_shallow_layer" inkscape:label="Water Shallow" style="display:inline" sodipodi:insensitive="true" >
  <path style="fill:#9bd1ff;fill-opacity:0.70;fill-rule:evenodd;stroke:none;filter:url(#blurWaterShallow)" d="m -11.25,-11.25 0,360 73.125,0 0,-22.5 0,-22.5 -11.25,-22.5 0,-16.875 11.25,-33.75 L 67.5,213.75 61.875,180 56.25,163.125 90,135 95.625,112.5 112.5,84.375 l 0,-28.125 11.25,-22.5 0,-22.5 0,-22.5 z" inkscape:connector-curvature="0" />
</g>
<g inkscape:groupmode="layer" id="water_deep_layer" inkscape:label="Water Deep" style="display:inline" sodipodi:insensitive="true" >
  <path style="fill:#87c8ff;fill-opacity:0.60;fill-rule:evenodd;stroke:none;filter:url(#blurWaterDeep)" d="m -11.25,-11.25 0,360 45,0 0,-22.5 L 28.125,315 22.5,281.25 l 5.625,-45 11.25,-28.125 -11.25,-22.5 5.625,-33.75 5.625,-45 L 56.25,84.375 61.875,45 67.5,33.75 l 0,-22.5 0,-22.5 z" inkscape:connector-curvature="0" />
</g>
<g inkscape:groupmode="layer" id="water_hilight_layer" inkscape:label="Water Hilight" style="display:inline" sodipodi:insensitive="true" >
  <use xlink:href="#shoreline" height="100%" width="100%" x="0" y="0" style="display:inline;fill:#ffffff;fill-opacity:1;stroke:#ffffff;stroke-opacity:1;filter:url(#blurWaterHilight)" />
</g>
<g inkscape:groupmode="layer" id="land_layer" inkscape:label="Land" style="display:inline" sodipodi:insensitive="true" >
  <use xlink:href="#shoreline" height="100%" width="100%" x="0" y="0" style="display:inline;fill:#ffddab;fill-opacity:1;stroke:none;stroke-width:1;stroke-miterlimit:4;stroke-dasharray:none;stroke-opacity:1" />
</g>
<g inkscape:groupmode="layer" id="land_texture_layer" inkscape:label="Land Texture" style="display:inline" sodipodi:insensitive="true" >
  <use xlink:href="#shoreline" height="100%" width="100%" x="0" y="0" style="display:inline;fill:#ffca7d;fill-opacity:1;stroke:none;stroke-width:1;stroke-miterlimit:4;stroke-dasharray:none;stroke-opacity:1;filter:url(#textureLand)" />
</g>
<g inkscape:groupmode="layer" id="shoreline_layer" inkscape:label="Shoreline" style="display:inline" sodipodi:insensitive="true" >
  <use xlink:href="#shoreline" height="100%" width="100%" x="0" y="0" style="display:inline;fill:none;fill-opacity:1;stroke:#5f4c14;stroke-width:1;stroke-miterlimit:4;stroke-dasharray:none;stroke-opacity:1" />
</g>
<g inkscape:groupmode="layer" id="shoreline_master_layer" inkscape:label="Shoreline Master" style="display:none" sodipodi:insensitive="true" >
  <path id="shoreline" style="color:#000000;clip-rule:nonzero;display:inline;overflow:visible;visibility:visible;opacity:1;isolation:auto;mix-blend-mode:normal;color-interpolation:sRGB;color-interpolation-filters:linearRGB;solid-color:#000000;solid-opacity:1;fill-opacity:1;fill-rule:evenodd;filter:url(#roughenShoreline);color-rendering:auto;image-rendering:auto;shape-rendering:auto;text-rendering:auto;enable-background:accumulate" d="M 161.125,11.25 163.38672,24.775391 157.5,56.25 c -0.5957,3.185062 -4.53894,14.904464 -6.06234,17.796216 -3.07598,4.878268 -6.67175,9.783295 -7.41354,15.664996 -1.40681,9.093931 0.10652,18.290698 1.56309,27.277428 0.66931,3.77527 1.66504,7.4913 2.2864,11.27218 0.39166,7.3476 -2.13518,14.76866 -6.79744,20.44426 -3.91978,5.98233 -5.00321,13.24937 -5.57061,20.23731 -0.43369,6.64696 2.09555,12.95244 3.3244,19.3775 0.89768,6.71995 -0.42965,13.50259 -2.34558,19.93206 -0.85369,4.66554 -0.61061,9.64152 -2.79493,13.97657 -4.33248,5.81018 -10.16397,10.25894 -14.75813,15.8402 -4.62166,4.91548 -9.93193,9.18121 -15.75155,12.59544 -4.906837,3.51791 -7.873693,9.05812 -9.727946,14.68001 -2.88921,7.73113 -3.546216,16.03757 -4.098087,24.20275 -1.676511,15.74787 -5.405296,31.25579 -6.009987,47.1191 0.303839,3.95022 4.372857,6.82965 8.191406,6.47265 l 160.107424,-0.0117 c 1.41166,-81.54623 1.25503,-163.10763 1.39514,-244.662865 L 253.125,-5.625 l -90,0 z" inkscape:connector-curvature="0" />
</g>
<g inkscape:groupmode="layer" id="grass_layer" inkscape:label="Grass" style="display:inline" sodipodi:insensitive="true" >
  <use xlink:href="#grass" height="100%" width="100%" x="0" y="0" style="display:inline;fill:#b4e982;fill-opacity:1;stroke:none;stroke-width:1;stroke-miterlimit:4;stroke-dasharray:none;stroke-opacity:1" />
</g>
<g inkscape:groupmode="layer" id="grass_texture1_layer" inkscape:label="Grass Texture Big" style="display:inline" sodipodi:insensitive="true" >
  <use xlink:href="#grass" height="100%" width="100%" x="0" y="0" style="display:inline;fill:#a7e46a;fill-opacity:1;stroke:none;stroke-width:1;stroke-miterlimit:4;stroke-dasharray:none;stroke-opacity:1;filter:url(#textureGrassBig)" />
</g>
<g inkscape:groupmode="layer" id="grass_texture2_layer" inkscape:label="Grass Texture Small" style="display:inline" sodipodi:insensitive="true" >
  <use xlink:href="#grass" height="100%" width="100%" x="0" y="0" style="display:inline;fill:#8cdd3d;fill-opacity:1;stroke:none;stroke-width:1;stroke-miterlimit:4;stroke-dasharray:none;stroke-opacity:1;filter:url(#textureGrassSmall)" />
</g>
<g inkscape:groupmode="layer" id="grass_master_layer" inkscape:label="Grass Master" style="display:none" sodipodi:insensitive="true" >
  <path id="grass" style="color:#000000;clip-rule:nonzero;display:inline;overflow:visible;visibility:visible;opacity:1;isolation:auto;mix-blend-mode:normal;color-interpolation:sRGB;color-interpolation-filters:linearRGB;solid-color:#000000;solid-opacity:1;fill-opacity:1;fill-rule:evenodd;filter:url(#blurGrass);color-rendering:auto;image-rendering:auto;shape-rendering:auto;text-rendering:auto;enable-background:accumulate" d="m 168.75,-11.25 0,22.5 c 0,0 0.25041,7.50837 0,11.25 -0.33408,4.991784 -1.40303,9.907794 -2,14.875 -0.75495,6.281685 -0.6895,12.685322 -2,18.875 -1.63214,7.708852 -4.95302,14.962482 -7.25,22.5 -2.11051,6.925616 -5.09461,13.691779 -6,20.875 -0.53691,4.25978 0.42738,8.58183 0.375,12.875 -0.11404,9.34602 0.345,18.83719 -1.5,28 -1.29297,6.42127 -4.86398,12.19101 -6.625,18.5 -1.40604,5.03724 -3.24124,10.1465 -3.125,15.375 0.17183,7.72891 4.60488,14.83678 5.625,22.5 1.11633,8.386 0.33333,16.91667 0.5,25.375 0.11082,5.62391 -8.39152,14.43624 -14.75,20.625 -7.12776,6.93751 -16.07625,9.20138 -23.875,15.375 -4.9723,3.93615 -9.291735,9.26026 -11.375,15.25 -1.91705,5.51185 -0.542657,11.66444 -0.5,17.5 0.04939,6.75612 -0.173208,13.57551 0.875,20.25 0.804525,5.12283 4.125,15 4.125,15 l 0,22.5 157.5,0 0,-360 z" inkscape:connector-curvature="0" />
</g>
<g inkscape:groupmode="layer" id="forest_shadow_layer" inkscape:label="Forest Shadow" style="display:inline" sodipodi:insensitive="true" >
  <g style="filter:url(#blurForestShadow)" >
    <use xlink:href="#forest" height="100%" width="100%" x="0" y="0" style="display:inline;opacity:0.75;fill:#258c1b;fill-opacity:1;filter:url(#roughenForest)" />
  </g>
</g>
<g inkscape:groupmode="layer" id="forest_fill_layer" inkscape:label="Forest Fill" style="display:inline" sodipodi:insensitive="true" >
  <use xlink:href="#forest" height="100%" width="100%" x="0" y="0" style="fill:#83d700;fill-opacity:1;stroke:none;stroke-width:1.5;stroke-miterlimit:4;stroke-dasharray:none;stroke-opacity:1;filter:url(#roughenForest)" />
</g>
<g inkscape:groupmode="layer" id="forest_texture_big_layer" inkscape:label="Forest Texture Big" style="display:inline" sodipodi:insensitive="true" >
  <g style="filter:url(#textureForestBig)" >
    <use xlink:href="#forest" height="100%" width="100%" x="0" y="0" style="fill:#548c00;fill-opacity:1;stroke:none;stroke-width:1.5;stroke-miterlimit:4;stroke-dasharray:none;stroke-opacity:1;filter:url(#roughenForest)" />
  </g>
</g>
<g inkscape:groupmode="layer" id="forest_texture_small_layer" inkscape:label="Forest Texture Small" style="display:inline" sodipodi:insensitive="true" >
  <g style="filter:url(#textureForestSmall)" >
    <use xlink:href="#forest" height="100%" width="100%" x="0" y="0" style="fill:#78c125;fill-opacity:1;stroke:none;stroke-width:1;stroke-miterlimit:4;stroke-dasharray:none;stroke-opacity:1;filter:url(#roughenForest)" />
  </g>
</g>
<g inkscape:groupmode="layer" id="forest_outline_layer" inkscape:label="Forest Outline" style="display:inline" sodipodi:insensitive="true" >
  <use xlink:href="#forest" height="100%" width="100%" x="0" y="0" style="fill:none;fill-opacity:1;stroke:#006800;stroke-width:1.5;stroke-miterlimit:4;stroke-dasharray:none;stroke-opacity:1;filter:url(#roughenForest)" />
</g>
<g inkscape:groupmode="layer" id="forest_master_layer" inkscape:label="Forest Master" style="display:none" sodipodi:insensitive="true" >
  <path id="forest" style="color:#000000;clip-rule:nonzero;display:inline;overflow:visible;visibility:visible;opacity:1;isolation:auto;mix-blend-mode:normal;color-interpolation:sRGB;color-interpolation-filters:linearRGB;solid-color:#000000;solid-opacity:1;fill-opacity:1;fill-rule:nonzero;color-rendering:auto;image-rendering:auto;shape-rendering:auto;text-rendering:auto;enable-background:accumulate" d="m 213.5,-8 c -2.76962,0.00249 -5.32726,1.3397567 -6.70898,3.5078125 C 205.42655,-5.4660803 203.73907,-5.9971561 202,-6 c -1.82893,0.00253 -3.59795,0.5892019 -4.99414,1.65625 C 195.98618,-4.7733812 194.87516,-4.9973184 193.75,-5 189.46979,-5 186,-1.8659932 186,2 c 8.8e-4,1.1270967 0.30306,2.2373365 0.88086,3.2363281 C 186.46505,6.1093208 186.2504,7.0496473 186.25,8 c 0.002,1.1430376 0.31376,2.268256 0.9082,3.277344 -0.26805,0.716117 -0.4059,1.466723 -0.4082,2.222656 0,3.865993 3.46979,7 7.75,7 0.48439,-8.34e-4 0.96762,-0.04268 1.44336,-0.125 0.52082,1.041667 1.31611,1.952299 2.31641,2.652344 -0.33381,0.789659 -0.50652,1.627398 -0.50977,2.472656 0.002,2.03312 0.98316,3.964883 2.6875,5.292969 -0.77257,1.11077 -1.18404,2.395264 -1.1875,3.707031 0.002,3.561793 2.96416,6.554577 6.88281,6.953125 -1.52152,1.319337 -2.38197,3.141807 -2.38281,5.046875 0.004,2.47795 1.45725,4.769557 3.82227,6.025391 C 204.65858,53.599145 202.753,56.157662 202.75,59 c 0,3.865993 3.46979,7 7.75,7 0.11206,-0.0017 0.22407,-0.0056 0.33594,-0.01172 0.47209,2.979973 3.00067,5.353617 6.27929,5.894531 -0.24132,0.684618 -0.3645,1.398712 -0.36523,2.117189 0.004,1.442051 0.50018,2.847911 1.42188,4.025391 -1.84598,1.327888 -2.92153,3.34311 -2.92188,5.474609 0.003,0.554346 0.0792,1.106391 0.22656,1.644531 C 211.85894,85.799618 209.25419,88.66745 209.25,92 c 0.004,2.731233 1.76608,5.211025 4.51367,6.351562 0.12015,2.140318 1.31916,4.112988 3.25391,5.353518 -0.17487,0.58532 -0.26482,1.18867 -0.26758,1.79492 0,3.86599 3.46979,7 7.75,7 0.77582,-0.003 1.54679,-0.11074 2.28711,-0.32031 0.16659,1.52134 0.88001,2.9516 2.03125,4.07226 -0.65163,0.63788 -1.16624,1.37966 -1.51758,2.1875 -1.45165,-1.84118 -3.79827,-2.93593 -6.30078,-2.93945 -2.47241,0.003 -4.795,1.07079 -6.25195,2.875 -1.14729,-0.57334 -2.43687,-0.8744 -3.74805,-0.875 -4.28021,0 -7.75,3.13401 -7.75,7 0.004,1.94124 0.90015,3.79384 2.47461,5.11523 -0.31048,0.76396 -0.47109,1.57097 -0.47461,2.38477 0,3.86599 3.46979,7 7.75,7 0.0834,-0.001 0.16672,-0.004 0.25,-0.008 l 0,0.008 c 0,3.86599 3.46979,7 7.75,7 0.48446,-0.001 0.96769,-0.044 1.44336,-0.12695 0.0883,0.17738 0.18473,0.35136 0.28906,0.52148 -0.96081,1.19319 -1.47964,2.63007 -1.48242,4.10547 0.004,3.51812 2.89846,6.48692 6.76172,6.93555 1.47038,1.62145 3.66779,2.56248 5.98828,2.56445 1.27402,-0.002 2.52781,-0.2879 3.65039,-0.83203 0.75963,0.2192 1.55216,0.3312 2.34961,0.33203 0.028,-5.3e-4 0.056,-0.001 0.084,-0.002 1.44631,1.28097 3.3904,1.99958 5.41602,2.00195 4.28021,0 7.75,-3.13401 7.75,-7 -0.001,-0.42127 -0.0442,-0.8416 -0.12891,-1.25586 0.0839,-0.4104 0.12707,-0.82675 0.12889,-1.24409 -0.004,-2.40575 -1.37472,-4.64126 -3.63086,-5.91992 3.07488,-0.99728 5.1271,-3.62915 5.13086,-6.58008 -0.002,-0.33676 -0.0318,-0.67292 -0.0879,-1.00586 0.0554,-0.32907 0.0848,-0.66129 0.0879,-0.99414 -0.001,-0.42127 -0.0442,-0.8416 -0.12891,-1.25586 0.0839,-0.41041 0.12709,-0.82678 0.12891,-1.24414 -0.002,-0.33676 -0.0318,-0.67292 -0.0879,-1.00586 0.0554,-0.32907 0.0848,-0.66129 0.0879,-0.99414 -0.003,-2.23176 -1.18419,-4.32842 -3.17969,-5.64453 0.44634,-0.89807 0.67794,-1.87107 0.67969,-2.85547 -0.004,-1.71228 -0.70196,-3.36398 -1.96289,-4.64258 0.30304,-0.75597 0.45963,-1.55343 0.46289,-2.35742 -0.002,-0.67553 -0.11279,-1.34721 -0.32812,-1.99414 0.21657,-0.65069 0.32711,-1.3264 0.32812,-2.00586 -8.7e-4,-1.83098 -0.79598,-3.58877 -2.21484,-4.89648 0.13988,-0.52523 0.21197,-1.06332 0.21484,-1.60352 -0.003,-1.42891 -0.49056,-2.82271 -1.39648,-3.99414 0.90845,-1.17471 1.39589,-2.57295 1.39648,-4.00586 -0.003,-0.2553 -0.0223,-0.510238 -0.0566,-0.763672 1.31896,-1.289916 2.05303,-2.980448 2.05664,-4.736328 -0.002,-0.57715 -0.0837,-1.151824 -0.24219,-1.710938 0.80836,-1.129053 1.23961,-2.444498 1.24219,-3.789062 -0.004,-1.733125 -0.71916,-3.40338 -2.00781,-4.6875 -0.0743,-2.428431 -1.5373,-4.648423 -3.86524,-5.865234 3.91232,-0.402439 6.86868,-3.390717 6.87305,-6.947266 -0.003,-1.201461 -0.34914,-2.381907 -1.00391,-3.427734 0.001,-0.02408 0.003,-0.04817 0.004,-0.07227 -0.003,-0.93934 -0.21449,-1.868599 -0.62305,-2.732422 -0.21923,-1.098593 -0.72616,-2.1339 -1.47851,-3.019531 1.03553,-1.218894 1.59831,-2.711652 1.60156,-4.248047 -0.001,-1.079032 -0.27865,-2.143196 -0.81055,-3.109375 C 251.29294,52.739467 251.74904,51.38544 251.75,50 251.747,48.228828 251.00107,46.524477 249.66211,45.230469 250.68872,44.014788 251.24642,42.528946 251.25,41 251.249,39.920968 250.97135,38.856804 250.43945,37.890625 251.29294,36.739467 251.74904,35.38544 251.75,34 251.746,32.093364 250.88131,30.270664 249.35547,28.953125 251.18469,27.625042 252.24908,25.619803 252.25,23.5 252.247,21.354374 251.15379,19.328701 249.28516,18.003906 251.15617,16.677417 252.24918,14.648369 252.25,12.5 252.247,10.383528 251.18478,8.3817503 249.35938,7.0546875 250.88594,5.7346713 251.74948,3.9088263 251.75,2 c 0,-3.8659932 -3.46979,-7 -7.75,-7 -0.44785,2.256e-4 -0.89484,0.035514 -1.33594,0.1054688 C 241.42094,-5.613716 239.97626,-5.9972474 238.5,-6 c -1.94999,0.00215 -3.82742,0.6681794 -5.25781,1.8652344 C 231.78496,-5.932786 229.46703,-6.9967417 227,-7 c -2.59168,0.00123 -5.01114,1.1724803 -6.44727,3.1210938 C 219.30133,-6.3840084 216.54275,-7.9959233 213.5,-8 Z m 17.19531,29.585938 c 0.0671,0.06037 0.13552,0.119627 0.20508,0.177734 -0.11349,0.03216 -0.22615,0.06667 -0.33789,0.103516 0.0465,-0.09286 0.0908,-0.186638 0.13281,-0.28125 z m -10.12304,3.890624 c 0.92915,0.344161 1.92349,0.521937 2.92773,0.523438 0.83307,-0.0033 1.66009,-0.127995 2.44922,-0.369141 -0.0792,0.153805 -0.15215,0.310158 -0.21875,0.46875 -0.6416,1.039732 -0.97905,2.210068 -0.98047,3.400391 0.003,0.127106 0.0105,0.254106 0.0215,0.380859 -1.24996,-1.052145 -2.84983,-1.701707 -4.55078,-1.847656 0.0173,-0.177333 0.027,-0.355197 0.0293,-0.533203 -0.003,-0.292707 -0.0266,-0.584948 -0.0703,-0.875 0.16707,-0.371938 0.29842,-0.756167 0.39258,-1.148438 z m 4.21289,14.636719 c 0.12952,1.32252 0.67279,2.584498 1.5664,3.638672 -0.78853,0.928153 -1.30693,2.020012 -1.50781,3.175781 -0.23067,-0.119007 -0.46796,-0.227222 -0.71094,-0.324218 0.72755,-1.087342 1.11375,-2.333029 1.11719,-3.603516 -0.003,-0.947307 -0.21905,-1.884189 -0.63477,-2.753906 0.0574,-0.04353 0.114,-0.0878 0.16993,-0.132813 z m 0.74804,18.552735 c -0.1839,0.597303 -0.27913,1.214026 -0.2832,1.833984 0.003,0.439384 0.0523,0.877515 0.14648,1.308594 -0.47563,-0.837209 -1.13326,-1.579207 -1.93359,-2.181641 0.73973,-0.224347 1.4377,-0.548312 2.07031,-0.960937 z m 0.68555,31.191406 c 0.13983,0.357703 0.31162,0.704549 0.51367,1.037109 -0.33364,0.417363 -0.61529,0.866695 -0.83984,1.339844 -0.36618,-0.224785 -0.75301,-0.420814 -1.15625,-0.585937 -0.0262,-0.436044 -0.0974,-0.868921 -0.21289,-1.292969 0.58443,-0.106562 1.1533,-0.273683 1.69531,-0.498047 z m -0.83398,38.406248 c 0.38085,1.87147 1.58879,3.52226 3.3457,4.57227 -0.61148,0.61711 -1.09687,1.32734 -1.43359,2.09765 C 225.84462,133.09564 223.49995,132.00331 221,132 c -0.0834,0.003 -0.16674,0.007 -0.25,0.0117 l 0,-0.0117 c -3.9e-4,-0.86726 -0.1792,-1.72691 -0.52734,-2.53516 0.2583,0.0235 0.51774,0.0352 0.77734,0.0352 1.56633,-0.002 3.09508,-0.43347 4.38477,-1.23633 z m 14.5332,1.87305 0.0117,0.008 c -0.29623,0.60238 -0.49678,1.23953 -0.59571,1.89258 -0.18184,-0.13196 -0.37018,-0.25644 -0.56445,-0.37305 0.45579,-0.46108 0.84197,-0.97466 1.14844,-1.52734 z M 235.5,176 c -3.48389,1.8e-4 -6.53945,2.10009 -7.46875,5.13281 -3.64415,0.6353 -6.27809,3.51495 -6.28125,6.86719 0.002,2.52427 1.50899,4.85193 3.94336,6.0918 -0.39457,-0.0584 -0.79355,-0.0891 -1.19336,-0.0918 -4.28021,0 -7.75,3.13401 -7.75,7 0.003,1.8807 0.84319,3.68131 2.33203,4.99609 -0.79862,0.70901 -1.41764,1.56591 -1.81445,2.51172 -4.18582,0.11343 -7.51479,3.20975 -7.51758,6.99219 0.003,2.39639 1.36358,4.62471 3.60547,5.90625 -0.0668,0.36153 -0.10207,0.72723 -0.10547,1.09375 0.003,2.4861 1.46648,4.78404 3.84375,6.03711 0.20355,0.61087 0.4986,1.19374 0.87695,1.73242 -2.59011,1.19666 -4.22005,3.60273 -4.2207,6.23047 0.001,2.05039 0.99794,3.99714 2.72656,5.32617 -0.82836,0.53915 -1.53061,1.22082 -2.0664,2.00586 -1.32081,-2.35065 -3.99167,-3.83177 -6.91016,-3.83203 -3.81801,0.004 -7.06359,2.5199 -7.64844,5.92773 -3.06035,1.00513 -5.09863,3.63101 -5.10156,6.57227 0.003,0.27431 0.0239,0.54822 0.0625,0.82031 -0.74845,-0.21185 -1.52816,-0.31985 -2.3125,-0.32031 -4.28021,0 -7.75,3.13401 -7.75,7 0,3.86599 3.46979,7 7.75,7 0.51381,-0.002 1.0261,-0.0507 1.5293,-0.14453 l 0.004,0.0176 c -3.15298,0.95619 -5.27893,3.62286 -5.2832,6.62695 0.003,3.12366 2.2975,5.86734 5.62305,6.72461 0.0316,0.1508 0.0688,0.30062 0.11133,0.44922 -1.73156,1.32768 -2.73113,3.27462 -2.73448,5.32615 0,3.86599 3.46979,7 7.75,7 0.51584,-0.003 1.03011,-0.0516 1.53516,-0.14648 0.46942,0.63955 1.05206,1.20503 1.72461,1.67382 -0.33381,0.78966 -0.50653,1.6274 -0.50977,2.47266 0.004,3.25789 2.49492,6.0829 6.00977,6.81445 -0.004,0.0618 -0.008,0.12366 -0.01,0.18555 0.002,1.31359 0.4125,2.60025 1.18555,3.71289 -1.70182,1.32711 -2.68168,3.25635 -2.68532,5.28711 0.003,3.00481 2.12947,5.67249 5.2832,6.62891 -0.18754,0.60928 -0.28281,1.2387 -0.2832,1.87109 0.003,0.94299 0.21692,1.87572 0.62891,2.74219 -0.41428,0.87131 -0.62824,1.80955 -0.62891,2.75781 0.003,0.94299 0.21692,1.87572 0.62891,2.74219 -0.41428,0.87131 -0.62824,1.80955 -0.62891,2.75781 0.001,0.64948 0.10239,1.29565 0.30078,1.91992 -0.52368,0.95804 -0.7976,2.01164 -0.80078,3.08008 0,3.86599 3.46979,7 7.75,7 4.28021,0 7.75,-3.13401 7.75,-7 -0.001,-0.64948 -0.10239,-1.29565 -0.30078,-1.91992 0.43477,-0.79947 0.69661,-1.66655 0.77148,-2.55469 0.88636,0.31086 1.82848,0.47174 2.7793,0.47461 4.28021,0 7.75,-3.13401 7.75,-7 -0.001,-1.59871 -0.60861,-3.14882 -1.7207,-4.39258 3.12078,-0.97322 5.21631,-3.62537 5.2207,-6.60742 -0.003,-1.63911 -0.64197,-3.22541 -1.80664,-4.48242 2.35636,-1.25795 3.8033,-3.54529 3.80664,-6.01758 -8e-4,-2.29671 -1.2489,-4.44696 -3.33984,-5.75391 2.08842,-1.30538 3.3362,-3.45214 3.33984,-5.74609 -8.6e-4,-1.33063 -0.42159,-2.63348 -1.21289,-3.75586 0.78894,-1.11902 1.20957,-2.4175 1.21289,-3.74414 -0.003,-2.14563 -1.09621,-4.1713 -2.96484,-5.49609 1.87101,-1.32649 2.96402,-3.35554 2.96484,-5.50391 -0.002,-1.29958 -0.40428,-2.57302 -1.16211,-3.67773 0.43527,-0.88903 0.66076,-1.85019 0.66211,-2.82227 -0.002,-2.03312 -0.98316,-3.96488 -2.6875,-5.29297 0.77257,-1.11077 1.18404,-2.39526 1.1875,-3.70703 -0.003,-2.12876 -1.07827,-4.14062 -2.92188,-5.4668 0.9234,-1.17966 1.42007,-2.58848 1.42188,-4.0332 -0.003,-0.76438 -0.14511,-1.52312 -0.41992,-2.24609 0.27574,-0.72545 0.41761,-1.4869 0.41992,-2.25391 -0.002,-1.13326 -0.308,-2.24921 -0.89258,-3.25195 0.17215,-0.29793 0.32032,-0.60667 0.44336,-0.92383 2.71254,-1.15332 4.4453,-3.6163 4.44922,-6.32422 -0.003,-1.03905 -0.26167,-2.0645 -0.75781,-3.00195 0.49552,-0.93626 0.75437,-1.96032 0.75781,-2.99805 -0.004,-2.6439 -1.65731,-5.06007 -4.27344,-6.24609 2.61891,-1.18728 4.27249,-3.6072 4.27344,-6.25391 -0.003,-0.94299 -0.21692,-1.87572 -0.62891,-2.74219 0.41428,-0.87131 0.62824,-1.80955 0.62891,-2.75781 -0.002,-1.53773 -0.56513,-3.03199 -1.60156,-4.25195 1.03553,-1.2189 1.59832,-2.71165 1.60156,-4.24805 -0.003,-1.87696 -0.84038,-3.67422 -2.32422,-4.98828 l 0.002,-0.002 c 1.17696,-1.26224 1.82234,-2.85947 1.82222,-4.50972 -0.002,-1.04698 -0.26461,-2.08016 -0.76758,-3.02344 0.17219,0.013 0.34481,0.0208 0.51758,0.0234 0.32078,-0.003 0.64106,-0.0238 0.95898,-0.0625 0.9613,0.37082 1.99572,0.56215 3.04102,0.5625 4.28021,0 7.75,-3.13401 7.75,-7 0,-3.86599 -3.46979,-7 -7.75,-7 -0.32078,0.003 -0.64106,0.0238 -0.95898,0.0625 C 245.07972,176.19168 244.0453,176.00035 243,176 c -1.12302,0.003 -2.23195,0.22609 -3.25,0.6543 -1.01805,-0.42821 -2.12698,-0.65146 -3.25,-0.6543 -0.18965,2.3e-4 -0.37924,0.007 -0.56836,0.0195 C 235.78799,176.0094 235.64405,176.0029 235.5,176 Z m -7.2168,41.09961 c 0.23347,2.41903 1.83822,4.55599 4.24024,5.64648 -0.38421,0.17713 -0.75137,0.38293 -1.09766,0.61524 -0.67483,-1.20968 -1.72374,-2.21652 -3.01953,-2.89844 -0.34503,-1.02308 -0.94502,-1.96115 -1.75391,-2.74219 0.5681,-0.1501 1.11528,-0.35849 1.63086,-0.62109 z m 0.60547,15.16016 c -0.0681,0.1368 -0.13125,0.27554 -0.18945,0.41601 -0.1834,0.0802 -0.36322,0.16681 -0.53906,0.25977 -0.0423,-0.069 -0.086,-0.13739 -0.13086,-0.20508 0.29743,-0.13994 0.58449,-0.29717 0.85937,-0.4707 z m -18.57226,26.56835 c 0.55256,0.1127 1.11713,0.17033 1.68359,0.17188 0.32605,-0.003 0.65157,-0.0245 0.97461,-0.0645 0.3441,0.67265 0.80425,1.29168 1.36328,1.83398 -0.68141,0.80812 -1.15993,1.7405 -1.40234,2.73242 -1.30351,0.0122 -2.58255,0.32124 -3.71875,0.89844 -0.10844,-1.14442 -0.52699,-2.24715 -1.21875,-3.21094 0.96172,-0.61744 1.75466,-1.42508 2.31836,-2.36133 z M 145,259 c -4.28021,0 -7.75,3.13401 -7.75,7 0.004,1.23209 0.36766,2.44144 1.05469,3.50586 -4.14826,0.0967 -7.47611,3.12751 -7.54883,6.875 -1.149,-0.57654 -2.44146,-0.87966 -3.75586,-0.88086 -4.28021,0 -7.75,3.13401 -7.75,7 0.003,2.00261 0.95599,3.90806 2.61719,5.23438 -1.04517,1.22186 -1.61374,2.72156 -1.61719,4.26562 0,3.86599 3.46979,7 7.75,7 1.74469,-2.3e-4 3.43825,-0.53218 4.80664,-1.50977 0.24967,-0.01 0.49865,-0.0308 0.74609,-0.0625 0.95205,3.00179 3.99018,5.07104 7.44727,5.07227 0.25055,-0.002 0.50085,-0.0151 0.75,-0.0391 0.13095,0.31103 0.28629,0.61322 0.46484,0.90429 1.10396,2.77752 4.0179,4.63137 7.28516,4.63481 4.28021,0 7.75,-3.13401 7.75,-7 -0.002,-0.81915 -0.16343,-1.63161 -0.47656,-2.40039 0.95742,-1.19221 1.47412,-2.6268 1.47656,-4.09961 -7.2e-4,-1.56168 -0.57959,-3.07829 -1.64453,-4.30859 2.54679,-1.20896 4.1425,-3.59274 4.14453,-6.19141 -0.002,-2.58657 -1.58288,-4.96137 -4.11133,-6.17578 C 156.00418,274.46082 152.77744,272.00054 149,272 l -0.0254,0 c 2.3384,-1.26177 3.77176,-3.53971 3.77539,-6 0,-3.86599 -3.46979,-7 -7.75,-7 z m 83.23438,5.62695 c 0.0666,0.0564 0.13434,0.11177 0.20312,0.16602 -0.0674,0.10266 -0.13187,0.20686 -0.19336,0.3125 0.002,-0.0351 0.004,-0.0703 0.006,-0.10547 -0.002,-0.12445 -0.007,-0.24885 -0.0156,-0.37305 z m -81.55469,23.40821 c 0.0692,0.0927 0.14082,0.18385 0.21484,0.27343 -0.23605,0.11228 -0.46552,0.23549 -0.6875,0.36914 0.17051,-0.20618 0.3283,-0.4207 0.47266,-0.64257 z m 81.99414,2.17773 c -0.22751,0.38571 -0.41452,0.78982 -0.5586,1.20703 -0.47325,-0.15315 -0.96188,-0.26436 -1.45898,-0.33203 0.29487,-0.1999 0.57357,-0.41856 0.83398,-0.6543 0.40029,-0.0456 0.79603,-0.11942 1.1836,-0.2207 z M 217.75,296.98828 c 0.0306,0.002 0.0612,0.003 0.0918,0.004 -0.0129,0.0695 -0.0246,0.13916 -0.0352,0.20898 -0.0221,-0.005 -0.0442,-0.0105 -0.0664,-0.0156 0.004,-0.0618 0.008,-0.12366 0.01,-0.18555 l 0,-0.0117 z M 181.5,299.5 c -2.54868,5e-5 -4.93442,1.13194 -6.38086,3.02734 -0.20589,-0.0166 -0.41244,-0.0257 -0.61914,-0.0273 -4.28021,0 -7.75,3.13401 -7.75,7 0.003,2.0074 0.95931,3.91717 2.62695,5.24414 -0.41332,0.87083 -0.62661,1.80838 -0.62695,2.75586 0.003,1.48797 0.53144,2.93629 1.50781,4.13477 0.007,0.29159 0.0333,0.58252 0.0801,0.87109 -0.0554,0.32907 -0.0848,0.66129 -0.0879,0.99414 0.003,0.24347 0.0198,0.48664 0.0508,0.72852 -0.0327,0.25612 -0.0496,0.51367 -0.0508,0.77148 0.003,1.03905 0.26167,2.0645 0.75781,3.00195 -0.49552,0.93626 -0.75437,1.96032 -0.75781,2.99805 4e-5,0.86649 0.17819,1.72545 0.52539,2.5332 -0.0142,0.1553 -0.0227,0.31099 -0.0254,0.4668 0,3.86599 3.46979,7 7.75,7 1.72889,-0.001 3.40774,-0.52424 4.76953,-1.48633 0.76538,1.7944 2.31432,3.22539 4.2832,3.95703 1.44913,1.29784 3.40653,2.02704 5.44728,2.0293 4.28021,0 7.75,-3.13401 7.75,-7 -0.003,-0.50137 -0.0661,-1.00099 -0.1875,-1.49023 0.12296,-0.49562 0.18583,-1.00186 0.1875,-1.50977 -0.003,-0.53418 -0.0739,-1.06629 -0.21094,-1.58594 0.46611,-0.91391 0.7086,-1.90784 0.71094,-2.91406 -0.002,-0.67553 -0.11279,-1.34721 -0.32812,-1.99414 0.21657,-0.65069 0.32711,-1.3264 0.32812,-2.00586 -0.002,-0.67553 -0.11279,-1.34721 -0.32812,-1.99414 0.21657,-0.65069 0.32711,-1.3264 0.32812,-2.00586 0,-3.86599 -3.46979,-7 -7.75,-7 -0.26036,0.002 -0.52046,0.0155 -0.7793,0.041 0.0175,-0.17993 0.0273,-0.36041 0.0293,-0.54102 -0.002,-2.60198 -1.60235,-4.98809 -4.1543,-6.19531 0.42995,-0.88413 0.65272,-1.83904 0.6543,-2.80469 0,-3.86599 -3.46979,-7 -7.75,-7 z m -63,4.5 c -4.28021,0 -7.75,3.13401 -7.75,7 0.004,1.48644 0.53105,2.93324 1.50586,4.13086 0.0795,3.78946 3.48363,6.83348 7.67969,6.86719 -0.12168,0.49313 -0.18389,0.99672 -0.18555,1.50195 0.002,1.30041 0.40516,2.5746 1.16406,3.67969 -1.07468,1.23115 -1.66067,2.75253 -1.66406,4.32031 0.003,0.29271 0.0266,0.58495 0.0703,0.875 -0.37516,0.83375 -0.5688,1.72502 -0.57031,2.625 0,3.86599 3.46979,7 7.75,7 1.74057,-5.4e-4 3.43026,-0.53029 4.79688,-1.50391 1.38177,2.16492 3.93649,3.50034 6.70313,3.50391 0.22566,-0.002 0.45113,-0.0119 0.67578,-0.0312 1.10648,0.79596 2.43305,1.30322 3.83594,1.4668 1.45285,1.31976 3.42776,2.06262 5.48828,2.0644 2.26825,-4.3e-4 4.42244,-0.89836 5.89453,-2.45703 2.38378,-1.25146 3.85193,-3.5526 3.85547,-6.04297 -0.003,-1.20146 -0.34914,-2.3819 -1.00391,-3.42773 10e-4,-0.0241 0.003,-0.0482 0.004,-0.0723 -0.001,-1.55091 -0.57296,-3.05748 -1.625,-4.2832 0.0809,-0.40153 0.12269,-0.80868 0.125,-1.2168 -4e-5,-0.86649 -0.17819,-1.72545 -0.52539,-2.5332 0.0142,-0.1553 0.0227,-0.31099 0.0254,-0.4668 -0.002,-0.0977 -0.006,-0.1954 -0.0117,-0.29297 0.005,-0.0689 0.009,-0.13797 0.0117,-0.20703 -3.1e-4,-1.33598 -0.42388,-2.64398 -1.2207,-3.76953 2.59011,-1.19666 4.22005,-3.60273 4.2207,-6.23047 0,-3.86599 -3.46979,-7 -7.75,-7 -1.9526,0.002 -3.83245,0.66942 -5.26367,1.86914 -1.14441,-0.56957 -2.42968,-0.86855 -3.73633,-0.86914 -2.80144,0.002 -5.38368,1.36917 -6.75391,3.57617 10e-4,-0.0254 0.003,-0.0508 0.004,-0.0762 0,-3.86599 -3.46979,-7 -7.75,-7 -0.51584,0.003 -1.03011,0.0516 -1.53516,0.14648 C 123.53174,305.18351 121.10326,304.00155 118.5,304 Z m 110.38281,4.61914 c 0.20022,0.30268 0.42547,0.59126 0.67383,0.86328 -2.35636,1.25795 -3.8033,3.54529 -3.80664,6.01758 0.001,1.59871 0.60861,3.14882 1.7207,4.39258 -0.13612,0.0415 -0.27094,0.0865 -0.40429,0.13476 -0.57806,-2.41092 -2.51838,-4.36905 -5.10743,-5.15429 0.14162,-0.46063 0.23063,-0.93315 0.26563,-1.41016 3.09382,-0.26289 5.71465,-2.16951 6.6582,-4.84375 z" inkscape:connector-curvature="0" />
</g>
<g inkscape:groupmode="layer" id="routes_layer" inkscape:label="Routes" style="display:inline" sodipodi:insensitive="true" >
  <path style="display:inline;fill:none;stroke:#000000;stroke-width:2;stroke-linecap:round;stroke-miterlimit:4;stroke-dasharray:0.1, 5;stroke-dashoffset:0;stroke-opacity:1" d="m 84.375,0 0,11.25 c 0,3.75 -0.07053,10.544715 -1.76777,13.194544 C 74.143631,37.658404 71.092945,45.407692 70.5,60.875 69.298194,92.224766 64.813518,120.71287 45,146.25 c -7.359609,9.48561 -21.619142,22.5 -33.625,22.5 L 0,168.75 m 163.125,168.75 0,-11.25 c 0,-5.625 -0.63954,-24.6717 0.51971,-31.68148 3.53993,-21.40538 5.34178,-45.81043 1.43401,-63.54824 -4.19154,-19.0259 -9.68855,-28.48667 -10.02031,-43.24959 -0.61244,-27.25299 36.13756,-47.37758 59.09393,-29.06769 4.25328,3.3924 16.47266,10.047 22.09766,10.047 l 11.25,0" inkscape:connector-curvature="0" />
</g>
<g inkscape:groupmode="layer" id="labels_layer" inkscape:label="Labels" style="display:inline" sodipodi:insensitive="true" >
  <text xml:space="preserve"><textPath xlink:href="#hapless_bay"><tspan
  style="-inkscape-font-specification:'CCTreasureTroveAged Mod, Normal';font-family:'CCTreasureTroveAged Mod';font-weight:normal;font-style:normal;font-stretch:normal;font-variant:normal;font-size:8.75px;text-anchor:start;text-align:start;writing-mode:lr;line-height:125%"
  >Hapless Bay</tspan></textPath></text>
</g>
<g inkscape:groupmode="layer" id="labels_guide_layer" inkscape:label="Labels Guide" style="display:none" sodipodi:insensitive="true" >
  <path id="hapless_bay" style="color:#000000;fill:none;stroke:#000000;stroke-width:1;stroke-opacity:1" d="m 127.04631,193.83781 c 1,32.75 -42.124998,44.375 -41.624998,62.375" inkscape:connector-curvature="0" />
</g>
<g inkscape:groupmode="layer" id="resources_layer" inkscape:label="Resources" style="display:inline" sodipodi:insensitive="true" >
  <g id="resource-flower" transform="matrix(-0.6058069,0.62739941,-0.62739941,-0.6058069,115.6592,112.06673)" >
    <path style="color:#000000;clip-rule:nonzero;display:inline;overflow:visible;visibility:visible;opacity:1;isolation:auto;mix-blend-mode:normal;color-interpolation:sRGB;color-interpolation-filters:linearRGB;solid-color:#000000;solid-opacity:1;fill:#ffffff;fill-opacity:1;fill-rule:evenodd;stroke:none;stroke-width:0.89999998;stroke-linecap:round;stroke-linejoin:miter;stroke-miterlimit:4;stroke-dasharray:none;stroke-dashoffset:0;stroke-opacity:1;color-rendering:auto;image-rendering:auto;shape-rendering:auto;text-rendering:auto;enable-background:accumulate" d="m 0.979805,-123.15615 c -1.34145,-0.0198 -3.490295,1.29985 -4.377698,2.97606 -1.515072,-0.52803 -3.118559,-1.35518 -4.387882,-0.66716 -1.336347,0.80617 -3.05964,1.39841 -3.940732,2.52252 -1.019998,1.30134 -0.730979,3.22834 -1.040234,4.88073 -0.323141,1.72658 0.916341,3.62646 2.178426,4.57303 -0.480389,0.70795 -0.991103,1.55651 -1.064241,1.95596 -0.229528,2.03687 -0.85872,3.65897 -0.172551,5.07299 0.650332,1.34017 2.541535,1.62667 4.009752,2.563613 1.703034,0.722622 3.282592,0.820732 5.14182,0.411702 0.446214,0.818061 0.820032,1.55183 1.868672,1.900477 1.652946,0.549562 2.259608,1.57126 3.487169,1.377119 0.904439,-0.143038 1.706298,-0.852325 2.89228,-1.267016 0.956141,-0.334325 1.792353,-1.310625 2.17414,-2.142916 0.601179,-1.310569 0.607842,-2.718729 0.332147,-4.333519 1.085534,0.10069 1.96385,-0.10288 2.218318,-0.26619 1.401585,-1.12214 2.183535,-1.13125 2.967873,-2.1232 0.706103,-0.89301 0.33785,-2.30208 0.524226,-3.63507 0.190729,-1.36412 -0.373016,-3.11292 -1.13861,-3.85099 -0.916057,-1.14581 -2.133316,-1.66052 -3.360406,-2.25547 0.223107,-1.52457 0.238457,-2.83813 -0.583837,-3.68128 -1.009456,-1.03504 -1.391167,-2.66625 -2.553752,-3.32447 -1.410255,-0.79846 -2.9835,-0.29231 -4.911945,-0.66063 -0.08552,-0.0163 -0.173505,-0.025 -0.262935,-0.0263 z" inkscape:connector-curvature="0" />
    <path style="color:#000000;clip-rule:nonzero;display:inline;overflow:visible;visibility:visible;opacity:1;isolation:auto;mix-blend-mode:normal;color-interpolation:sRGB;color-interpolation-filters:linearRGB;solid-color:#000000;solid-opacity:1;fill:url(#gradientFlower);fill-opacity:1;fill-rule:evenodd;stroke:none;stroke-width:0.89999998;stroke-linecap:round;stroke-linejoin:miter;stroke-miterlimit:4;stroke-dasharray:none;stroke-dashoffset:0;stroke-opacity:1;color-rendering:auto;image-rendering:auto;shape-rendering:auto;text-rendering:auto;enable-background:accumulate" d="m 0.979805,-123.15615 c -1.34145,-0.0198 -3.490295,1.29985 -4.377698,2.97606 -1.515072,-0.52803 -3.118559,-1.35518 -4.387882,-0.66716 -1.336347,0.80617 -3.05964,1.39841 -3.940732,2.52252 -1.019998,1.30134 -0.730979,3.22834 -1.040234,4.88073 -0.323141,1.72658 0.916341,3.62646 2.178426,4.57303 -0.480389,0.70795 -0.991103,1.55651 -1.064241,1.95596 -0.229528,2.03687 -0.85872,3.65897 -0.172551,5.07299 0.650332,1.34017 2.541535,1.62667 4.009752,2.563613 1.703034,0.722622 3.282592,0.820732 5.14182,0.411702 0.446214,0.818061 0.820032,1.55183 1.868672,1.900477 1.652946,0.549562 2.259608,1.57126 3.487169,1.377119 0.904439,-0.143038 1.706298,-0.852325 2.89228,-1.267016 0.956141,-0.334325 1.792353,-1.310625 2.17414,-2.142916 0.601179,-1.310569 0.607842,-2.718729 0.332147,-4.333519 1.085534,0.10069 1.96385,-0.10288 2.218318,-0.26619 1.401585,-1.12214 2.183535,-1.13125 2.967873,-2.1232 0.706103,-0.89301 0.33785,-2.30208 0.524226,-3.63507 0.190729,-1.36412 -0.373016,-3.11292 -1.13861,-3.85099 -0.916057,-1.14581 -2.133316,-1.66052 -3.360406,-2.25547 0.223107,-1.52457 0.238457,-2.83813 -0.583837,-3.68128 -1.009456,-1.03504 -1.391167,-2.66625 -2.553752,-3.32447 -1.410255,-0.79846 -2.9835,-0.29231 -4.911945,-0.66063 -0.08552,-0.0163 -0.173505,-0.025 -0.262935,-0.0263 z" inkscape:connector-curvature="0" />
    <circle cx="60.884876" cy="-69.652748" r="9.668525" style="color:#000000;clip-rule:nonzero;display:inline;overflow:visible;visibility:visible;opacity:1;isolation:auto;mix-blend-mode:normal;color-interpolation:sRGB;color-interpolation-filters:linearRGB;solid-color:#000000;solid-opacity:1;fill:#c18bff;fill-opacity:1;fill-rule:nonzero;stroke:none;stroke-width:0.89999998;stroke-linecap:butt;stroke-linejoin:round;stroke-miterlimit:4;stroke-dasharray:none;stroke-dashoffset:0;stroke-opacity:1;filter:url(#blurFlowerMiddle);color-rendering:auto;image-rendering:auto;shape-rendering:auto;text-rendering:auto;enable-background:accumulate" transform="matrix(0.8413905,0,0,0.8413905,-50.722984,-50.755482)" />
    <circle cx="60.884876" cy="-69.652748" r="4.587256" style="color:#000000;clip-rule:nonzero;display:inline;overflow:visible;visibility:visible;opacity:1;isolation:auto;mix-blend-mode:normal;color-interpolation:sRGB;color-interpolation-filters:linearRGB;solid-color:#000000;solid-opacity:1;fill:#4d0b97;fill-opacity:0.73248411;fill-rule:nonzero;stroke:none;stroke-width:0.89999998;stroke-linecap:butt;stroke-linejoin:round;stroke-miterlimit:4;stroke-dasharray:none;stroke-dashoffset:0;stroke-opacity:1;filter:url(#blurFlowerInner);color-rendering:auto;image-rendering:auto;shape-rendering:auto;text-rendering:auto;enable-background:accumulate" transform="matrix(0.8413905,0,0,0.8413905,-50.722984,-50.755482)" />
    <path style="color:#000000;clip-rule:nonzero;display:inline;overflow:visible;visibility:visible;opacity:1;isolation:auto;mix-blend-mode:normal;color-interpolation:sRGB;color-interpolation-filters:linearRGB;solid-color:#000000;solid-opacity:1;fill:#000000;fill-opacity:1;fill-rule:evenodd;stroke:none;stroke-width:0.89999998;stroke-linecap:round;stroke-linejoin:miter;stroke-miterlimit:4;stroke-dasharray:none;stroke-dashoffset:0;stroke-opacity:1;color-rendering:auto;image-rendering:auto;shape-rendering:auto;text-rendering:auto;enable-background:accumulate" d="m 0.639633,-123.613 c -0.245268,-0.007 -0.493489,0.0184 -0.741147,0.0723 -0.495315,0.10775 -0.988873,0.32636 -1.452713,0.61626 -0.897328,0.56081 -1.698239,1.40222 -2.2333,2.34669 -0.538041,-0.29613 -1.168361,-0.58916 -1.843828,-0.75923 -0.402544,-0.10135 -0.817029,-0.16411 -1.217716,-0.14954 -0.400686,0.0146 -0.786664,0.10703 -1.132262,0.31552 -1.283405,0.77424 -3.212955,1.5351 -4.096848,2.84955 -1.036325,1.54115 -0.856398,3.22859 -1.064886,4.82978 -0.121933,0.93647 0.116053,1.93977 0.548877,2.83148 0.383935,0.79099 0.927795,1.48307 1.55953,1.96215 -0.523828,0.48763 -0.918389,1.06735 -0.994221,1.7403 -0.111704,0.99127 -0.114545,1.61006 -0.218564,2.47815 -0.10402,0.86809 -0.307253,2.00443 0.08052,2.80354 0.383523,0.79035 1.112241,1.24077 1.875051,1.60883 0.762811,0.368068 1.743867,0.669437 2.430502,1.107614 1.218636,0.777675 2.913786,1.040634 4.971105,0.514366 0.380578,0.842488 0.837563,1.454964 1.755089,1.760018 0.77292,0.256976 1.299533,0.623573 1.830681,0.935061 0.531149,0.311488 1.321397,0.65032 2.04596,0.535729 1.061295,-0.167845 1.585995,-0.765822 2.695079,-1.153626 0.61183,-0.213931 1.413184,-0.872559 1.889842,-1.446139 0.476655,-0.57358 0.870431,-1.194818 1.082961,-1.658131 0.556087,-1.212262 0.51771,-2.127442 0.179125,-3.446082 0.715918,0.0871 1.419103,0.0384 1.947359,-0.38454 0.67438,-0.53993 1.161498,-1.0671 1.640053,-1.33933 0.478556,-0.27223 0.932552,-0.56407 1.362327,-1.10761 0.433047,-0.54768 0.51727,-1.24584 0.537371,-1.90299 0.02011,-0.65714 -0.02179,-1.32636 0.06411,-1.94078 0.107665,-0.77002 -0.0067,-1.365 -0.266216,-2.1725 -0.259325,-0.8075 -0.625806,-1.53158 -1.09118,-1.98023 -0.663846,-0.63998 -1.599943,-1.39472 -3.03032,-1.93914 0.11665,-0.50066 0.147215,-1.05012 0.09038,-1.59404 -0.08427,-0.80653 -0.342696,-1.59653 -0.862754,-2.12977 -0.452036,-0.4635 -0.790788,-1.10063 -1.165128,-1.73208 -0.374341,-0.63145 -0.949406,-1.37528 -1.631838,-1.76166 -0.804443,-0.45546 -1.651134,-0.45909 -2.476515,-0.44699 -0.82538,0.0121 -1.487089,0.14634 -2.343404,-0.13804 -0.235484,-0.0782 -0.477801,-0.11783 -0.723065,-0.1249 z m -0.02629,0.75923 c 0.180353,0.004 0.347555,0.0466 0.511079,0.0838 1.006924,0.22923 1.7795,0.18938 2.591548,0.17748 0.812049,-0.0119 1.487806,0.005 2.093616,0.34839 0.480153,0.27185 0.994251,0.88183 1.354113,1.48886 0.359862,0.60703 0.716169,1.30186 1.27359,1.87341 0.334308,0.34279 0.580376,0.99176 0.652406,1.68114 0.07203,0.68938 -0.02687,1.41322 -0.248144,1.87012 -0.450738,0.93069 -1.413978,1.86673 -2.379558,2.48966 -1.071525,0.69128 -2.210789,1.32545 -2.704939,1.55789 -0.727729,0.34231 -0.911947,0.74706 -0.437129,0.57517 0.432747,-0.15667 2.273938,-0.86367 3.500316,-1.65485 0.988448,-0.63768 2.112424,-1.45155 2.685219,-2.60633 1.29991,0.49828 2.125357,1.16513 2.750952,1.76823 0.300222,0.28943 0.662715,0.9411 0.895622,1.66635 0.232906,0.72524 0.31971,1.24151 0.236641,1.83561 -0.100468,0.71856 -0.05054,1.4191 -0.06902,2.02295 -0.01848,0.60386 -0.10327,1.11067 -0.376324,1.456 -0.354559,0.44841 -0.683098,0.65751 -1.142122,0.91863 -0.459024,0.26112 -1.011451,0.82613 -1.738654,1.40834 -0.339654,0.27194 -1.05202,0.3145 -1.842185,0.15612 -0.790168,-0.15837 -1.680674,-0.36802 -2.228371,-0.63433 -0.501305,-0.24375 -1.107321,-0.71188 -1.718935,-1.22593 -0.606651,-0.50988 -0.946266,-0.80483 -1.105968,-1.0008 -0.449169,-0.55116 -0.736865,-0.57408 -0.419052,-0.0362 0.128591,0.21765 0.29565,0.55252 0.874258,1.15363 0.578608,0.60111 1.39831,1.334 2.091973,1.67128 0.52965,0.25753 1.278195,0.55106 2.055819,0.7395 0.418548,1.4671 0.497282,2.0902 -0.0493,3.28175 -0.169259,0.368978 -0.542533,0.967084 -0.976146,1.488867 -0.433612,0.521783 -1.213575,1.09568 -1.557886,1.216072 -1.262881,0.441579 -1.81603,1.002528 -2.563612,1.120758 -0.502998,0.07955 -1.051079,-0.15352 -1.543097,-0.442058 -0.492018,-0.288541 -1.09527,-0.708208 -1.975296,-1.000794 -0.906713,-0.30146 -1.303684,-1.017149 -1.521734,-1.990087 -0.240751,-1.074238 -0.284382,-2.018958 -0.03944,-3.252168 0.09422,-0.47435 0.345844,-1.11328 0.616253,-1.75509 0.254524,-0.60411 0.521586,-1.0267 0.657337,-1.20621 0.534373,-0.70663 0.573544,-1.02158 -0.08052,-0.47 -0.09001,0.0759 -0.437166,0.46228 -0.800308,1.04845 -0.388969,0.62787 -0.745556,1.33952 -0.913697,1.96215 -0.320374,1.18635 -0.455037,2.59874 -0.177481,3.837203 0.0049,0.02169 0.01287,0.04249 0.01807,0.06409 -1.86503,0.462081 -3.499403,0.191906 -4.474817,-0.430556 -0.781583,-0.498767 -1.637015,-0.807967 -2.349978,-1.151977 -0.712961,-0.34402 -1.256569,-0.70734 -1.523376,-1.25716 -0.298393,-0.61491 -0.108087,-1.57682 -0.0115,-2.38285 0.09658,-0.80602 0.102383,-1.43749 0.220207,-2.48308 0.06347,-0.56325 0.566474,-1.18992 1.271946,-1.691 0.705472,-0.50107 1.601251,-0.92224 2.259594,-1.04681 0.666145,-0.12605 1.427995,-0.20972 2.239874,-0.1709 0.817343,0.0391 1.389205,0.17406 1.855332,0.30895 0.501887,0.14523 0.706651,0.0181 0.14297,-0.28759 -0.221782,-0.12027 -0.830365,-0.31483 -1.664704,-0.4815 -0.749787,-0.14977 -1.792536,-0.20692 -2.634275,-0.0477 -0.79482,0.1504 -1.828356,0.53709 -2.627702,1.10268 -0.560501,-0.3756 -1.107978,-1.03998 -1.479008,-1.80438 -0.38132,-0.78561 -0.575888,-1.66668 -0.479855,-2.40421 0.225627,-1.73283 0.09276,-3.26127 0.910411,-4.45839 0.799409,-1.17041 2.502142,-1.83231 3.891431,-2.67042 0.418566,-0.25251 1.071917,-0.25586 1.774808,-0.0789 0.70289,0.17697 1.431889,0.52017 1.958862,0.8381 1.177378,0.71033 2.360406,1.81514 2.923503,3.13714 0.225658,0.52978 0.487956,1.31163 0.65898,2.04267 0.180567,0.77183 0.278756,1.12761 0.323738,1.41985 0.0769,0.49959 0.331408,0.76305 0.310592,0.258 -0.0056,-0.13448 -0.02619,-0.62272 -0.11832,-1.39848 -0.09213,-0.77577 -0.372004,-1.76712 -0.649121,-2.54061 -0.498667,-1.39187 -1.517796,-2.50983 -2.729588,-3.34584 0.467794,-0.83001 1.199084,-1.60007 1.983511,-2.09033 0.605002,-0.37812 1.225532,-0.58251 1.766584,-0.57188 z" inkscape:connector-curvature="0" />
    <path style="color:#000000;clip-rule:nonzero;display:inline;overflow:visible;visibility:visible;opacity:1;isolation:auto;mix-blend-mode:normal;color-interpolation:sRGB;color-interpolation-filters:linearRGB;solid-color:#000000;solid-opacity:1;fill:#000000;fill-opacity:1;fill-rule:evenodd;stroke:none;stroke-width:0.89999998;stroke-linecap:round;stroke-linejoin:miter;stroke-miterlimit:4;stroke-dasharray:none;stroke-dashoffset:0;stroke-opacity:1;color-rendering:auto;image-rendering:auto;shape-rendering:auto;text-rendering:auto;enable-background:accumulate" d="m 3.794424,-118.09467 c -0.03481,-0.0139 -0.387473,0.76522 -0.773437,1.66992 -0.381703,0.89472 -0.809184,1.94165 -0.982422,2.44336 -0.176438,0.5371 -0.390469,1.30435 -0.589844,2.01172 0.06031,-0.55635 0.109986,-1.12538 0.103516,-1.63477 -0.01279,-1.74744 -0.425929,-3.66291 -0.498047,-3.65039 -0.07275,0.0126 0.183985,1.9486 0.04883,3.63477 -0.07238,0.83501 -0.290636,1.86782 -0.482422,2.63281 -0.354416,-0.68951 -0.858631,-1.64701 -1.449218,-2.51562 -0.780652,-1.11593 -2.309126,-2.07981 -2.347657,-2.02539 -0.04001,0.0565 1.375504,1.16904 1.964844,2.26171 0.304172,0.53913 0.568646,1.10365 0.796875,1.62696 0.372061,0.28889 0.708358,0.56132 0.951172,0.78515 0.450547,0.41534 0.755162,0.86352 0.892578,1.28907 0.0687,0.21277 0.09588,0.4226 0.05859,0.62695 -0.03729,0.20435 -0.155086,0.4041 -0.339844,0.52344 -0.305542,0.19735 -0.71844,0.21836 -1.103516,0.0371 -0.310556,-0.14618 -0.627467,-0.43694 -0.960937,-0.82031 -0.641237,0.0208 -1.474062,0.0584 -2.1875,0.17187 -2.104283,0.29168 -3.519408,1.38936 -3.480469,1.44531 0.03898,0.056 1.530217,-0.86817 3.527344,-0.99804 0.376674,-0.0166 0.788074,-0.008 1.193359,0.01 -0.712154,0.25439 -1.4348,0.51707 -1.767578,0.68164 -2.162568,0.91869 -4.094659,3.07329 -4.046875,3.11914 0.04862,0.0466 2.113703,-1.96681 4.210938,-2.69922 0.365679,-0.10109 1.271937,-0.3498 2.08789,-0.56055 0.07395,-0.0191 0.123337,-0.0305 0.195313,-0.0488 -0.378323,0.25584 -0.792906,0.55853 -1.210938,0.95703 -1.238441,1.16919 -1.630753,2.5038 -1.566406,2.52735 0.06436,0.0236 0.614646,-1.21112 1.859375,-2.1875 0.923232,-0.7175 1.866097,-1.08815 2.203125,-1.16602 0.06017,0.43796 0.121551,1.11761 0.138672,1.69531 -0.0046,1.38515 -0.382684,3.57189 -0.314453,3.58594 0.06715,0.0138 0.587741,-2.14147 0.734375,-3.5625 0.01539,-0.11398 0.0209,-0.24938 0.0332,-0.375 0.06524,0.42004 0.130264,0.87141 0.193359,1.16406 0.346841,2.21188 0.996326,4.22625 1.080079,4.20313 0.08403,-0.0232 -0.38924,-2.07493 -0.556641,-4.26367 -0.0036,-0.21423 -0.0095,-0.56189 -0.01563,-0.86524 0.02034,0.0576 0.04072,0.12785 0.06055,0.18164 0.513637,1.61427 1.790647,3.18206 1.855469,3.13477 0.06636,-0.0484 -1.03386,-1.73019 -1.345704,-3.26758 -0.08436,-0.53103 -0.190887,-1.23418 -0.248046,-1.73242 0.450157,0.021 1.107513,0.0847 1.695312,0.19336 1.164725,0.23043 2.402663,0.98994 2.443359,0.93164 0.03983,-0.0571 -1.105126,-0.96654 -2.326171,-1.36719 -0.325602,-0.11217 -0.655915,-0.18972 -0.984376,-0.27539 0.516501,-0.0598 1.137006,-0.1208 1.621094,-0.15625 2.216152,-0.0729 5.151435,0.70788 5.171875,0.63867 0.02015,-0.0682 -2.871752,-1.01257 -5.171875,-1.08984 -0.536234,-0.0394 -1.221307,-0.0518 -1.767578,-0.0645 0.410869,-0.0906 0.883277,-0.18959 1.404297,-0.30469 1.68587,-0.34236 3.617698,-1.23793 3.589844,-1.30469 -0.02823,-0.0677 -2.017753,0.6758 -3.660157,0.85938 -0.68941,0.0665 -1.333269,0.1164 -1.789062,0.13672 0.05402,-0.18849 0.172573,-0.51714 0.359375,-0.97461 0.257407,-0.63039 0.571071,-1.34083 0.787109,-1.74024 0.257372,-0.46166 0.719406,-1.0516 1.111328,-1.53515 0.390428,-0.48171 0.706164,-0.85041 0.679688,-0.87696 -0.02646,-0.0265 -0.396678,0.28997 -0.845703,0.72461 -0.444283,0.43005 -0.980416,0.99029 -1.320313,1.44141 -0.200435,0.26077 -0.436266,0.65875 -0.669922,1.07031 0.144547,-0.74342 0.306939,-1.55708 0.427735,-2.12304 0.09342,-0.49024 0.445698,-1.55421 0.759765,-2.48047 0.315275,-0.92983 0.597322,-1.73608 0.5625,-1.75 z" inkscape:connector-curvature="0" />
    <path style="color:#000000;clip-rule:nonzero;display:inline;overflow:visible;visibility:visible;opacity:1;isolation:auto;mix-blend-mode:normal;color-interpolation:sRGB;color-interpolation-filters:linearRGB;solid-color:#000000;solid-opacity:1;fill:#000000;fill-opacity:1;fill-rule:evenodd;stroke:none;stroke-width:0.89999998;stroke-linecap:round;stroke-linejoin:miter;stroke-miterlimit:4;stroke-dasharray:none;stroke-dashoffset:0;stroke-opacity:1;color-rendering:auto;image-rendering:auto;shape-rendering:auto;text-rendering:auto;enable-background:accumulate" d="m -0.916513,-109.19819 c -0.08002,-0.092 -0.155364,-0.1568 -0.238281,-0.26367 -0.1926,-0.24822 -0.664725,-0.74012 -1.285156,-1.32226 -0.09208,-0.0408 -0.153678,-0.0727 -0.248047,-0.11328 -1.388077,-0.6083 -3.187994,-0.65792 -3.19336,-0.58985 -0.0055,0.0696 1.769599,0.29863 2.992188,0.99219 0.943426,0.53918 1.739463,1.0834 1.972656,1.29687 z" inkscape:connector-curvature="0" />
    <path style="color:#000000;clip-rule:nonzero;display:inline;overflow:visible;visibility:visible;opacity:1;isolation:auto;mix-blend-mode:normal;color-interpolation:sRGB;color-interpolation-filters:linearRGB;solid-color:#000000;solid-opacity:1;fill:#000000;fill-opacity:1;fill-rule:evenodd;stroke:none;stroke-width:0.89999998;stroke-linecap:round;stroke-linejoin:miter;stroke-miterlimit:4;stroke-dasharray:none;stroke-dashoffset:0;stroke-opacity:1;color-rendering:auto;image-rendering:auto;shape-rendering:auto;text-rendering:auto;enable-background:accumulate" d="m -7.806877,-115.72644 c 1.94457,0.58391 6.643912,3.73434 8.129359,5.1037 0.836444,0.77108 1.096168,1.65836 0.65443,1.94368 -0.441738,0.28531 -1.060198,0.0838 -1.882086,-0.97545 -0.735118,-0.94742 -4.303093,-4.33376 -7.586861,-5.69825 -0.596704,-0.24795 -0.206304,-0.64136 0.685158,-0.37368 z" inkscape:connector-curvature="0" />
    <circle cx="-16.488615" cy="-113.608350" r="0.578456" style="color:#000000;clip-rule:nonzero;display:inline;overflow:visible;visibility:visible;opacity:1;isolation:auto;mix-blend-mode:normal;color-interpolation:sRGB;color-interpolation-filters:linearRGB;solid-color:#000000;solid-opacity:1;fill:#000000;fill-opacity:1;fill-rule:evenodd;stroke:none;stroke-width:0.89999998;stroke-linecap:round;stroke-linejoin:miter;stroke-miterlimit:4;stroke-dasharray:none;stroke-dashoffset:0;stroke-opacity:1;color-rendering:auto;image-rendering:auto;shape-rendering:auto;text-rendering:auto;enable-background:accumulate" transform="matrix(0.99754986,0.06995909,-0.06995909,0.99754986,0,0)" />
    <circle cx="-15.173941" cy="-112.977310" r="0.578456" style="color:#000000;clip-rule:nonzero;display:inline;overflow:visible;visibility:visible;opacity:1;isolation:auto;mix-blend-mode:normal;color-interpolation:sRGB;color-interpolation-filters:linearRGB;solid-color:#000000;solid-opacity:1;fill:#000000;fill-opacity:1;fill-rule:evenodd;stroke:none;stroke-width:0.89999998;stroke-linecap:round;stroke-linejoin:miter;stroke-miterlimit:4;stroke-dasharray:none;stroke-dashoffset:0;stroke-opacity:1;color-rendering:auto;image-rendering:auto;shape-rendering:auto;text-rendering:auto;enable-background:accumulate" transform="matrix(0.99754986,0.06995909,-0.06995909,0.99754986,0,0)" />
    <circle cx="-14.332552" cy="-115.291140" r="0.578456" style="color:#000000;clip-rule:nonzero;display:inline;overflow:visible;visibility:visible;opacity:1;isolation:auto;mix-blend-mode:normal;color-interpolation:sRGB;color-interpolation-filters:linearRGB;solid-color:#000000;solid-opacity:1;fill:#000000;fill-opacity:1;fill-rule:evenodd;stroke:none;stroke-width:0.89999998;stroke-linecap:round;stroke-linejoin:miter;stroke-miterlimit:4;stroke-dasharray:none;stroke-dashoffset:0;stroke-opacity:1;color-rendering:auto;image-rendering:auto;shape-rendering:auto;text-rendering:auto;enable-background:accumulate" transform="matrix(0.99754986,0.06995909,-0.06995909,0.99754986,0,0)" />
    <circle cx="-15.857573" cy="-115.738120" r="0.578456" style="color:#000000;clip-rule:nonzero;display:inline;overflow:visible;visibility:visible;opacity:1;isolation:auto;mix-blend-mode:normal;color-interpolation:sRGB;color-interpolation-filters:linearRGB;solid-color:#000000;solid-opacity:1;fill:#000000;fill-opacity:1;fill-rule:evenodd;stroke:none;stroke-width:0.89999998;stroke-linecap:round;stroke-linejoin:miter;stroke-miterlimit:4;stroke-dasharray:none;stroke-dashoffset:0;stroke-opacity:1;color-rendering:auto;image-rendering:auto;shape-rendering:auto;text-rendering:auto;enable-background:accumulate" transform="matrix(0.99754986,0.06995909,-0.06995909,0.99754986,0,0)" />
    <circle cx="-17.356298" cy="-115.738120" r="0.578456" style="color:#000000;clip-rule:nonzero;display:inline;overflow:visible;visibility:visible;opacity:1;isolation:auto;mix-blend-mode:normal;color-interpolation:sRGB;color-interpolation-filters:linearRGB;solid-color:#000000;solid-opacity:1;fill:#000000;fill-opacity:1;fill-rule:evenodd;stroke:none;stroke-width:0.89999998;stroke-linecap:round;stroke-linejoin:miter;stroke-miterlimit:4;stroke-dasharray:none;stroke-dashoffset:0;stroke-opacity:1;color-rendering:auto;image-rendering:auto;shape-rendering:auto;text-rendering:auto;enable-background:accumulate" transform="matrix(0.99754986,0.06995909,-0.06995909,0.99754986,0,0)" />
    <circle cx="-17.803286" cy="-114.397160" r="0.578456" style="color:#000000;clip-rule:nonzero;display:inline;overflow:visible;visibility:visible;opacity:1;isolation:auto;mix-blend-mode:normal;color-interpolation:sRGB;color-interpolation-filters:linearRGB;solid-color:#000000;solid-opacity:1;fill:#000000;fill-opacity:1;fill-rule:evenodd;stroke:none;stroke-width:0.89999998;stroke-linecap:round;stroke-linejoin:miter;stroke-miterlimit:4;stroke-dasharray:none;stroke-dashoffset:0;stroke-opacity:1;color-rendering:auto;image-rendering:auto;shape-rendering:auto;text-rendering:auto;enable-background:accumulate" transform="matrix(0.99754986,0.06995909,-0.06995909,0.99754986,0,0)" />
  </g>
</g>
<g inkscape:groupmode="layer" id="extras_layer" inkscape:label="Extras" style="display:inline" sodipodi:insensitive="true" >
  <g id="extra-ship" transform="matrix(0.4444171,-0.89581998,0.89581998,0.4444171,266.30938,417.60566)" >
    <path style="color:#000000;fill:url(#gradientShip);fill-opacity:1;fill-rule:evenodd;stroke:#000000;stroke-width:0.75;stroke-linecap:butt;stroke-linejoin:round;stroke-miterlimit:4;stroke-dasharray:none;stroke-dashoffset:0;stroke-opacity:1;marker:none;enable-background:accumulate" d="m 243.2364,-52.722824 c -3.10208,-2.937202 -8.72518,-3.346714 -12.49116,-3.032742 -2.95307,0.246202 -6.62512,1.070872 -6.62512,1.070872 l -0.0121,3.725952 c 0,0 2.43298,0.582421 6.39007,0.932887 3.66202,0.324334 9.61676,-0.283241 12.73834,-2.696969 z" inkscape:connector-curvature="0" />
    <path style="color:#000000;opacity:1;isolation:auto;mix-blend-mode:normal;color-interpolation:sRGB;color-interpolation-filters:linearRGB;solid-color:#000000;solid-opacity:1;fill:#000000;fill-opacity:1;fill-rule:evenodd;stroke:none;stroke-width:0.75;stroke-linecap:round;stroke-linejoin:round;stroke-miterlimit:4;stroke-dasharray:none;stroke-dashoffset:0;stroke-opacity:1;marker:none;color-rendering:auto;image-rendering:auto;shape-rendering:auto;text-rendering:auto;enable-background:accumulate" d="m 243.05273,-53.089844 c -0.50461,-0.01007 -0.51271,0.749303 -0.008,0.75 l 2.80546,-0.143551 c 0.50461,0.01007 0.51856,-0.385922 0.0138,-0.386619 z" inkscape:connector-curvature="0" />
    <circle cx="37.651787" cy="-233.087830" r="0.695206" style="color:#000000;opacity:1;isolation:auto;mix-blend-mode:normal;color-interpolation:sRGB;color-interpolation-filters:linearRGB;solid-color:#000000;solid-opacity:1;fill:#a66e00;fill-opacity:1;fill-rule:nonzero;stroke:#000000;stroke-width:0.5;stroke-linecap:butt;stroke-linejoin:miter;stroke-miterlimit:4;stroke-dasharray:none;stroke-dashoffset:0;stroke-opacity:1;color-rendering:auto;image-rendering:auto;shape-rendering:auto;text-rendering:auto;enable-background:accumulate" transform="matrix(0.37654483,0.9263984,-0.9263984,0.37654483,0,0)" />
    <circle cx="39.995537" cy="-238.712830" r="0.695206" style="color:#000000;opacity:1;isolation:auto;mix-blend-mode:normal;color-interpolation:sRGB;color-interpolation-filters:linearRGB;solid-color:#000000;solid-opacity:1;fill:#a66e00;fill-opacity:1;fill-rule:nonzero;stroke:#000000;stroke-width:0.5;stroke-linecap:butt;stroke-linejoin:miter;stroke-miterlimit:4;stroke-dasharray:none;stroke-dashoffset:0;stroke-opacity:1;color-rendering:auto;image-rendering:auto;shape-rendering:auto;text-rendering:auto;enable-background:accumulate" transform="matrix(0.37654483,0.9263984,-0.9263984,0.37654483,0,0)" />
    <path style="color:#000000;fill:#feffff;fill-opacity:1;fill-rule:evenodd;stroke:#000000;stroke-width:0.5;stroke-linecap:butt;stroke-linejoin:round;stroke-miterlimit:4;stroke-dasharray:none;stroke-dashoffset:0;stroke-opacity:1;marker:none;enable-background:accumulate" d="m 230.8139,-58.168744 -0.0696,11.095953 c 0,0 1.11273,-0.901569 1.17305,-2.014949 0.0592,-1.093696 -0.80015,-1.762231 -0.80015,-1.762231 0,0 1.00218,-0.841738 0.9922,-1.921676 -0.0106,-1.140901 -0.9468,-1.722391 -0.9468,-1.722391 0,0 0.80027,-0.5343 0.83406,-1.646805 0.0349,-1.150244 -1.18274,-2.027894 -1.18274,-2.027894 z" inkscape:connector-curvature="0" />
    <path style="color:#000000;fill:#feffff;fill-opacity:1;fill-rule:evenodd;stroke:#000000;stroke-width:0.5;stroke-linecap:butt;stroke-linejoin:round;stroke-miterlimit:4;stroke-dasharray:none;stroke-dashoffset:0;stroke-opacity:1;marker:none;enable-background:accumulate" d="m 236.95087,-57.97366 -0.0645,10.282469 c 0,0 1.03677,-0.785137 1.09267,-1.816887 0.0549,-1.013517 -0.74706,-1.683399 -0.74706,-1.683399 0,0 0.85887,-0.76153 0.84962,-1.762298 -0.01,-1.057255 -0.80754,-1.614603 -0.80754,-1.614603 0,0 0.84013,-0.540128 0.87144,-1.571079 0.0324,-1.065902 -1.19455,-1.834218 -1.19455,-1.834218 z" inkscape:connector-curvature="0" />
    <path style="fill:#000000;stroke:none" d="m 239.16963,-53.312319 -0.0111,0.999645 1.00145,0.01039 0.009,-1.000718 z" inkscape:connector-curvature="0" />
    <path style="fill:#6a4600;stroke:none" d="m 233.00825,-53.641515 -0.0131,1.52646 1.52369,0.01423 0.0142,-1.523703 z" inkscape:connector-curvature="0" />
    <path style="fill:none;stroke:#000000;stroke-width:0.6;stroke-linecap:butt" d="m 227.26126,-55.055042 -0.0734,4.514141" inkscape:connector-curvature="0" />
    <path style="fill:#000000;stroke:none" d="m 223.83649,-54.026834 -0.0111,0.999636 1.00072,0.0086 0.009,-0.998911 z" inkscape:connector-curvature="0" />
    <path style="fill:#000000;stroke:none" d="m 223.85032,-52.581947 -0.0111,0.999637 1.00072,0.0086 0.009,-0.998912 z" inkscape:connector-curvature="0" />
    <path style="fill:none;stroke:#000000;stroke-width:0.5;stroke-linecap:butt;stroke-linejoin:round;stroke-miterlimit:4" d="m 227.2539,-51.578825 1.14997,0.173504 -0.0116,1.05042" inkscape:connector-curvature="0" />
    <path style="fill:none;stroke:#000000;stroke-width:0.5;stroke-linecap:butt;stroke-linejoin:round;stroke-miterlimit:4" d="m 227.25705,-54.143799 1.1481,-0.163064 0.0224,-1.189753" inkscape:connector-curvature="0" />
  </g>
</g>
<g inkscape:groupmode="layer" id="suit_rank_glow_layer" inkscape:label="Suit Rank Glow" style="display:inline" sodipodi:insensitive="true" >
  <g style="opacity:0.75;filter:url(#blurSuitRankGlow)" >
    <path style="fill:#ffffff;fill-opacity:1;stroke:none" d="m 31.453338,21.223775 c -3.28572,0 -5.95,2.65553 -5.95,5.94125 0,0.85821 0.18762,1.67115 0.51625,2.40625 -0.26383,-0.0358 -0.53136,-0.0525 -0.805,-0.0525 -3.28572,0 -5.95,2.65553 -5.95,5.94125 0,3.28571 2.66428,5.95 5.95,5.95 1.44726,0 2.87049,-0.3694 3.77125,-1.1725 -0.12772,1.47874 -0.1736,2.78641 -0.21875,4.27875 1.79083,0 3.58167,0 5.3725,0 -0.0452,-1.49234 -0.091,-2.80001 -0.21875,-4.27875 0.90076,0.8031 2.32399,1.1725 3.77125,1.1725 3.28572,0 5.95,-2.66429 5.95,-5.95 0,-3.28572 -2.66428,-5.94125 -5.95,-5.94125 -0.27364,0 -0.54117,0.0167 -0.805,0.0525 0.32863,-0.7351 0.51625,-1.54804 0.51625,-2.40625 0,-3.28572 -2.66428,-5.94125 -5.95,-5.94125 z" inkscape:connector-curvature="0" />
    <path style="fill:#ffffff;fill-opacity:1;stroke:none" d="m 215.96335,316.27628 c 3.28572,0 5.95,-2.65553 5.95,-5.94125 0,-0.85821 -0.18762,-1.67114 -0.51625,-2.40625 0.26383,0.0358 0.53136,0.0525 0.805,0.0525 3.28572,0 5.95,-2.65553 5.95,-5.94125 0,-3.2857 -2.66428,-5.95 -5.95,-5.95 -1.44726,0 -2.87049,0.3694 -3.77125,1.1725 0.12772,-1.47874 0.1736,-2.78641 0.21875,-4.27875 -1.79083,0 -3.58167,0 -5.3725,0 0.0452,1.49234 0.091,2.80001 0.21875,4.27875 -0.90076,-0.8031 -2.32399,-1.1725 -3.77125,-1.1725 -3.28572,0 -5.95,2.66429 -5.95,5.95 0,3.28572 2.66428,5.94125 5.95,5.94125 0.27364,0 0.54117,-0.0167 0.805,-0.0525 -0.32863,0.73511 -0.51625,1.54804 -0.51625,2.40625 0,3.28572 2.66428,5.94125 5.95,5.94125 z" inkscape:connector-curvature="0" />
    <path style="fill:#ffffff;fill-opacity:1;stroke:none" d="m 38.913333,50.775025 0,3.2 -11.4,0 -1.12,6.4 c 0.69333,-0.3733 1.41333,-0.6666 2.16,-0.88 0.74666,-0.2133 1.53332,-0.32 2.36,-0.32 1.43999,0 2.78665,0.3067 4.04,0.92 1.27998,0.6134 2.38665,1.4534 3.32,2.52 0.93331,1.0667 1.66665,2.32 2.2,3.76 0.55998,1.44 0.83998,2.9734 0.84,4.6 -2e-5,1.6267 -0.28002,3.1733 -0.84,4.64 -0.53335,1.44 -1.26669,2.7067 -2.2,3.8 -0.93335,1.0933 -2.04002,1.96 -3.32,2.6 -1.25335,0.64 -2.60001,0.96 -4.04,0.96 -1.01334,0 -2.00001,-0.16 -2.96,-0.48 -0.93334,-0.32 -1.80001,-0.76 -2.6,-1.32 -0.8,-0.5867 -1.52,-1.28 -2.16,-2.08 -0.64,-0.8 -1.17333,-1.68 -1.6,-2.64 l 2.92,-1.36 c 0.61333,1.3867 1.47999,2.52 2.6,3.4 1.14666,0.8533 2.41332,1.28 3.8,1.28 0.98666,0 1.91999,-0.2267 2.8,-0.68 0.87999,-0.48 1.63999,-1.12 2.28,-1.92 0.66665,-0.8 1.18665,-1.7333 1.56,-2.8 0.37332,-1.0667 0.55998,-2.2 0.56,-3.4 -2e-5,-1.2 -0.18668,-2.32 -0.56,-3.36 -0.37335,-1.04 -0.89335,-1.9466 -1.56,-2.72 -0.64001,-0.7733 -1.40001,-1.3866 -2.28,-1.84 -0.88001,-0.4533 -1.81334,-0.68 -2.8,-0.68 -1.17334,0 -2.25334,0.3067 -3.24,0.92 -0.98667,0.6134 -1.81334,1.4267 -2.48,2.44 l -2.84,-1.48 2.56,-13.48 14,0" inkscape:connector-curvature="0" />
    <path style="fill:#ffffff;fill-opacity:1;stroke:none" d="m 208.50335,286.72501 0,-3.2 11.4,0 1.12,-6.4 c -0.69333,0.3733 -1.41333,0.6666 -2.16,0.88 -0.74666,0.2133 -1.53332,0.32 -2.36,0.32 -1.43999,0 -2.78665,-0.3067 -4.04,-0.92 -1.27998,-0.6134 -2.38665,-1.45339 -3.32,-2.52 -0.93331,-1.0667 -1.66665,-2.32 -2.2,-3.76 -0.55998,-1.44 -0.83998,-2.9734 -0.84,-4.59999 2e-5,-1.6267 0.28002,-3.1733 0.84,-4.64 0.53335,-1.44 1.26669,-2.7067 2.2,-3.8 0.93335,-1.0933 2.04002,-1.95999 3.32,-2.59999 1.25335,-0.64 2.60001,-0.96 4.04,-0.96 1.01334,0 2.00001,0.16 2.96,0.48 0.93334,0.32 1.80001,0.75999 2.59999,1.32 0.8,0.5867 1.52,1.27998 2.16001,2.07999 0.63999,0.8 1.17333,1.68 1.59999,2.63999 l -2.92,1.36001 c -0.61333,-1.3867 -1.47999,-2.52001 -2.6,-3.4 -1.14666,-0.8533 -2.41332,-1.28 -3.8,-1.28 -0.98666,0 -1.91999,0.22669 -2.8,0.68 -0.87999,0.47999 -1.63999,1.12 -2.28,1.91999 -0.66665,0.80001 -1.18665,1.73331 -1.56,2.80001 -0.37332,1.0667 -0.55998,2.19999 -0.56,3.4 2e-5,1.19999 0.18668,2.31999 0.56,3.36 0.37335,1.04 0.89335,1.9466 1.56,2.72 0.64001,0.7733 1.40001,1.38659 2.28,1.84 0.88001,0.4533 1.81334,0.68 2.8,0.68 1.17334,0 2.25334,-0.3067 3.24,-0.92 0.98667,-0.6134 1.81334,-1.4267 2.48,-2.44 l 2.84,1.48 -2.56,13.48 -14,0" inkscape:connector-curvature="0" />
  </g>
</g>
<g inkscape:groupmode="layer" id="suit_rank_layer" inkscape:label="Suit Rank" style="display:inline" sodipodi:insensitive="true" >
  <path style="fill:#000000;fill-opacity:1;stroke:none" d="m 31.453338,21.223775 c -3.28572,0 -5.95,2.65553 -5.95,5.94125 0,0.85821 0.18762,1.67115 0.51625,2.40625 -0.26383,-0.0358 -0.53136,-0.0525 -0.805,-0.0525 -3.28572,0 -5.95,2.65553 -5.95,5.94125 0,3.28571 2.66428,5.95 5.95,5.95 1.44726,0 2.87049,-0.3694 3.77125,-1.1725 -0.12772,1.47874 -0.1736,2.78641 -0.21875,4.27875 1.79083,0 3.58167,0 5.3725,0 -0.0452,-1.49234 -0.091,-2.80001 -0.21875,-4.27875 0.90076,0.8031 2.32399,1.1725 3.77125,1.1725 3.28572,0 5.95,-2.66429 5.95,-5.95 0,-3.28572 -2.66428,-5.94125 -5.95,-5.94125 -0.27364,0 -0.54117,0.0167 -0.805,0.0525 0.32863,-0.7351 0.51625,-1.54804 0.51625,-2.40625 0,-3.28572 -2.66428,-5.94125 -5.95,-5.94125 z" inkscape:connector-curvature="0" />
  <path style="fill:#000000;fill-opacity:1;stroke:none" d="m 215.96335,316.27628 c 3.28572,0 5.95,-2.65553 5.95,-5.94125 0,-0.85821 -0.18762,-1.67114 -0.51625,-2.40625 0.26383,0.0358 0.53136,0.0525 0.805,0.0525 3.28572,0 5.95,-2.65553 5.95,-5.94125 0,-3.2857 -2.66428,-5.95 -5.95,-5.95 -1.44726,0 -2.87049,0.3694 -3.77125,1.1725 0.12772,-1.47874 0.1736,-2.78641 0.21875,-4.27875 -1.79083,0 -3.58167,0 -5.3725,0 0.0452,1.49234 0.091,2.80001 0.21875,4.27875 -0.90076,-0.8031 -2.32399,-1.1725 -3.77125,-1.1725 -3.28572,0 -5.95,2.66429 -5.95,5.95 0,3.28572 2.66428,5.94125 5.95,5.94125 0.27364,0 0.54117,-0.0167 0.805,-0.0525 -0.32863,0.73511 -0.51625,1.54804 -0.51625,2.40625 0,3.28572 2.66428,5.94125 5.95,5.94125 z" inkscape:connector-curvature="0" />
  <path style="fill:#000000;fill-opacity:1;stroke:none" d="m 38.913333,50.775025 0,3.2 -11.4,0 -1.12,6.4 c 0.69333,-0.3733 1.41333,-0.6666 2.16,-0.88 0.74666,-0.2133 1.53332,-0.32 2.36,-0.32 1.43999,0 2.78665,0.3067 4.04,0.92 1.27998,0.6134 2.38665,1.4534 3.32,2.52 0.93331,1.0667 1.66665,2.32 2.2,3.76 0.55998,1.44 0.83998,2.9734 0.84,4.6 -2e-5,1.6267 -0.28002,3.1733 -0.84,4.64 -0.53335,1.44 -1.26669,2.7067 -2.2,3.8 -0.93335,1.0933 -2.04002,1.96 -3.32,2.6 -1.25335,0.64 -2.60001,0.96 -4.04,0.96 -1.01334,0 -2.00001,-0.16 -2.96,-0.48 -0.93334,-0.32 -1.80001,-0.76 -2.6,-1.32 -0.8,-0.5867 -1.52,-1.28 -2.16,-2.08 -0.64,-0.8 -1.17333,-1.68 -1.6,-2.64 l 2.92,-1.36 c 0.61333,1.3867 1.47999,2.52 2.6,3.4 1.14666,0.8533 2.41332,1.28 3.8,1.28 0.98666,0 1.91999,-0.2267 2.8,-0.68 0.87999,-0.48 1.63999,-1.12 2.28,-1.92 0.66665,-0.8 1.18665,-1.7333 1.56,-2.8 0.37332,-1.0667 0.55998,-2.2 0.56,-3.4 -2e-5,-1.2 -0.18668,-2.32 -0.56,-3.36 -0.37335,-1.04 -0.89335,-1.9466 -1.56,-2.72 -0.64001,-0.7733 -1.40001,-1.3866 -2.28,-1.84 -0.88001,-0.4533 -1.81334,-0.68 -2.8,-0.68 -1.17334,0 -2.25334,0.3067 -3.24,0.92 -0.98667,0.6134 -1.81334,1.4267 -2.48,2.44 l -2.84,-1.48 2.56,-13.48 14,0" inkscape:connector-curvature="0" />
  <path style="fill:#000000;fill-opacity:1;stroke:none" d="m 208.50335,286.72501 0,-3.2 11.4,0 1.12,-6.4 c -0.69333,0.3733 -1.41333,0.6666 -2.16,0.88 -0.74666,0.2133 -1.53332,0.32 -2.36,0.32 -1.43999,0 -2.78665,-0.3067 -4.04,-0.92 -1.27998,-0.6134 -2.38665,-1.45339 -3.32,-2.52 -0.93331,-1.0667 -1.66665,-2.32 -2.2,-3.76 -0.55998,-1.44 -0.83998,-2.9734 -0.84,-4.59999 2e-5,-1.6267 0.28002,-3.1733 0.84,-4.64 0.53335,-1.44 1.26669,-2.7067 2.2,-3.8 0.93335,-1.0933 2.04002,-1.95999 3.32,-2.59999 1.25335,-0.64 2.60001,-0.96 4.04,-0.96 1.01334,0 2.00001,0.16 2.96,0.48 0.93334,0.32 1.80001,0.75999 2.59999,1.32 0.8,0.5867 1.52,1.27998 2.16001,2.07999 0.63999,0.8 1.17333,1.68 1.59999,2.63999 l -2.92,1.36001 c -0.61333,-1.3867 -1.47999,-2.52001 -2.6,-3.4 -1.14666,-0.8533 -2.41332,-1.28 -3.8,-1.28 -0.98666,0 -1.91999,0.22669 -2.8,0.68 -0.87999,0.47999 -1.63999,1.12 -2.28,1.91999 -0.66665,0.80001 -1.18665,1.73331 -1.56,2.80001 -0.37332,1.0667 -0.55998,2.19999 -0.56,3.4 2e-5,1.19999 0.18668,2.31999 0.56,3.36 0.37335,1.04 0.89335,1.9466 1.56,2.72 0.64001,0.7733 1.40001,1.38659 2.28,1.84 0.88001,0.4533 1.81334,0.68 2.8,0.68 1.17334,0 2.25334,-0.3067 3.24,-0.92 0.98667,-0.6134 1.81334,-1.4267 2.48,-2.44 l 2.84,1.48 -2.56,13.48 -14,0" inkscape:connector-curvature="0" />
</g>
<g inkscape:groupmode="layer" id="guides_layer" inkscape:label="Guides" style="display:none" sodipodi:insensitive="true" >
  <path style="fill:none;stroke:#000000;stroke-width:0.9" d="m 11.250000,11.25 0,-45" inkscape:connector-curvature="0" />
  <path style="fill:none;stroke:#000000;stroke-width:0.9" d="m 11.250000,371.25 0,-45" inkscape:connector-curvature="0" />
  <path style="fill:none;stroke:#000000;stroke-width:0.9" d="m 84.375000,11.25 0,-45" inkscape:connector-curvature="0" />
  <path style="fill:none;stroke:#000000;stroke-width:0.9" d="m 84.375000,371.25 0,-45" inkscape:connector-curvature="0" />
  <path style="fill:none;stroke:#000000;stroke-width:0.9" d="m 123.750000,11.25 0,-45" inkscape:connector-curvature="0" />
  <path style="fill:none;stroke:#000000;stroke-width:0.9" d="m 123.750000,371.25 0,-45" inkscape:connector-curvature="0" />
  <path style="fill:none;stroke:#000000;stroke-width:0.9" d="m 163.125000,11.25 0,-45" inkscape:connector-curvature="0" />
  <path style="fill:none;stroke:#000000;stroke-width:0.9" d="m 163.125000,371.25 0,-45" inkscape:connector-curvature="0" />
  <path style="fill:none;stroke:#000000;stroke-width:0.9" d="m 236.250000,11.25 0,-45" inkscape:connector-curvature="0" />
  <path style="fill:none;stroke:#000000;stroke-width:0.9" d="m 236.250000,371.25 0,-45" inkscape:connector-curvature="0" />
  <path style="fill:none;stroke:#000000;stroke-width:0.9" d="m -33.75,11.250000 45,0" inkscape:connector-curvature="0" />
  <path style="fill:none;stroke:#000000;stroke-width:0.9" d="m 236.25,11.250000 45,0" inkscape:connector-curvature="0" />
  <path style="fill:none;stroke:#000000;stroke-width:0.9" d="m -33.75,118.125000 45,0" inkscape:connector-curvature="0" />
  <path style="fill:none;stroke:#000000;stroke-width:0.9" d="m 236.25,118.125000 45,0" inkscape:connector-curvature="0" />
  <path style="fill:none;stroke:#000000;stroke-width:0.9" d="m -33.75,168.750000 45,0" inkscape:connector-curvature="0" />
  <path style="fill:none;stroke:#000000;stroke-width:0.9" d="m 236.25,168.750000 45,0" inkscape:connector-curvature="0" />
  <path style="fill:none;stroke:#000000;stroke-width:0.9" d="m -33.75,219.375000 45,0" inkscape:connector-curvature="0" />
  <path style="fill:none;stroke:#000000;stroke-width:0.9" d="m 236.25,219.375000 45,0" inkscape:connector-curvature="0" />
  <path style="fill:none;stroke:#000000;stroke-width:0.9" d="m -33.75,326.250000 45,0" inkscape:connector-curvature="0" />
  <path style="fill:none;stroke:#000000;stroke-width:0.9" d="m 236.25,326.250000 45,0" inkscape:connector-curvature="0" />
  <g id="guide-short0-1" >
    <rect x="163.125000" y="-22.500000" width="84.375000" height="22.500000" style="fill:#ffd291;stroke:#000000;stroke-width:0.9" />
    <rect x="168.750000" y="-22.500000" width="78.750000" height="22.500000" style="fill:#b4e982;stroke:#000000;stroke-width:0.9" />
    <rect x="185.625000" y="-22.500000" width="61.875000" height="22.500000" style="fill:#5adc4f;stroke:#000000;stroke-width:0.9" />
    <rect x="0.000000" y="-22.500000" width="163.125000" height="22.500000" style="fill:#b9deff;stroke:#000000;stroke-width:0.9" />
    <rect x="0.000000" y="-22.500000" width="123.750000" height="22.500000" style="fill:#9bceff;stroke:#000000;stroke-width:0.9" />
    <rect x="0.000000" y="-22.500000" width="67.500000" height="22.500000" style="fill:#73baff;stroke:#000000;stroke-width:0.9" />
  </g>
  <g id="guide-long1-7" >
    <rect x="247.500000" y="0.000000" width="22.500000" height="337.500000" style="fill:#b4e982;stroke:#000000;stroke-width:0.9" />
    <rect x="247.500000" y="0.000000" width="22.500000" height="163.125000" style="fill:#5adc4f;stroke:#000000;stroke-width:0.9" />
    <rect x="247.500000" y="174.375000" width="22.500000" height="163.125000" style="fill:#5adc4f;stroke:#000000;stroke-width:0.9" />
  </g>
  <g id="guide-short2-6" transform="matrix(-1,0,0,1,247.5,360)" >
    <rect x="0.000000" y="-22.500000" width="163.125000" height="22.500000" style="fill:#ffd291;stroke:#000000;stroke-width:0.9" />
    <rect x="0.000000" y="-22.500000" width="146.250000" height="22.500000" style="fill:#b4e982;stroke:#000000;stroke-width:0.9" />
    <rect x="0.000000" y="-22.500000" width="33.750000" height="22.500000" style="fill:#5adc4f;stroke:#000000;stroke-width:0.9" />
    <rect x="45.000000" y="-22.500000" width="33.750000" height="22.500000" style="fill:#5adc4f;stroke:#000000;stroke-width:0.9" />
    <rect x="90.000000" y="-22.500000" width="39.375000" height="22.500000" style="fill:#5adc4f;stroke:#000000;stroke-width:0.9" />
    <rect x="163.125000" y="-22.500000" width="84.375000" height="22.500000" style="fill:#b9deff;stroke:#000000;stroke-width:0.9" />
    <rect x="185.625000" y="-22.500000" width="61.875000" height="22.500000" style="fill:#9bceff;stroke:#000000;stroke-width:0.9" />
    <rect x="213.750000" y="-22.500000" width="33.750000" height="22.500000" style="fill:#73baff;stroke:#000000;stroke-width:0.9" />
  </g>
  <g id="guide-long3-0" transform="matrix(1,0,0,-1,-270,337.5)" >
    <rect x="247.500000" y="0.000000" width="22.500000" height="337.500000" style="fill:#73baff;stroke:#000000;stroke-width:0.9" />
  </g>
</g>
<g inkscape:groupmode="layer" id="cut_line_layer" inkscape:label="Cut Line" style="display:none" sodipodi:insensitive="true" >
  <rect style="fill:none;stroke:#000000;stroke-width:0.5;stroke-linecap:butt;stroke-linejoin:bevel;stroke-miterlimit:4;stroke-dasharray:none;stroke-opacity:1" width="225" height="315" x="11.25" y="11.25" ry="17.361111" />
</g>
<g inkscape:groupmode="layer" id="page_border_layer" inkscape:label="Page Border" style="display:none" sodipodi:insensitive="true" >
  <rect style="fill:none;stroke:#000000;stroke-width:0.5;stroke-linecap:butt;stroke-linejoin:bevel;stroke-miterlimit:4;stroke-dasharray:none;stroke-opacity:1" width="247.5" height="337.5" x="0" y="0" />
</g>

</svg>
