<?xml version="1.0" encoding="UTF-8" standalone="no"?>
<svg version="1.1" height="337.5" width="247.5" xmlns:rdf="http://www.w3.org/1999/02/22-rdf-syntax-ns#" xmlns="http://www.w3.org/2000/svg" xmlns:cc="http://creativecommons.org/ns#" xmlns:xlink="http://www.w3.org/1999/xlink" xmlns:dc="http://purl.org/dc/elements/1.1/" xmlns:sodipodi="http://sodipodi.sourceforge.net/DTD/sodipodi-0.dtd" xmlns:svg="http://www.w3.org/2000/svg" xmlns:inkscape="http://www.inkscape.org/namespaces/inkscape">
<metadata>
  <rdf:RDF>
    <cc:Work rdf:about="">
      <dc:format>image/svg+xml</dc:format>
      <dc:type rdf:resource="http://purl.org/dc/dcmitype/StillImage"/>
      <dc:title/>
      <dc:creator>
        <cc:Agent><dc:title>Gary Kacmarcik</dc:title></cc:Agent>
      </dc:creator>
    </cc:Work>
  </rdf:RDF>
</metadata>

<defs>
  <filter inkscape:label="textureGrassBig" style="color-interpolation-filters:sRGB" id="textureGrassBig">
    <feTurbulence numOctaves="2" seed="613" type="turbulence" baseFrequency="0.070000" result="result1" />
    <feColorMatrix result="result0" in="SourceGraphic" type="luminanceToAlpha" />
    <feColorMatrix result="result2" values="1 0 0 0 0 0 1 0 0 0 0 0 1 0 0 0 0 0 0.4 0 " />
    <feComposite in="result2" operator="over" in2="result1" />
    <feColorMatrix result="result91" values="1 0 0 0 0 0 1 0 0 0 0 0 1 0 0 0 0 0 10 -4 " />
    <feComposite operator="out" in="SourceGraphic" in2="result91" />
    <feGaussianBlur stdDeviation="2.500000" />
    <feColorMatrix values="1 0 0 0 0 0 1 0 0 0 0 0 1 0 0 0 0 0 1 0 " />
  </filter>
  <filter inkscape:label="textureGrassSmall" style="color-interpolation-filters:sRGB" id="textureGrassSmall">
    <feTurbulence numOctaves="4" seed="613" type="turbulence" baseFrequency="0.500000" result="result1" />
    <feColorMatrix result="result0" in="SourceGraphic" type="luminanceToAlpha" />
    <feColorMatrix result="result2" values="1 0 0 0 0 0 1 0 0 0 0 0 1 0 0 0 0 0 0.4 0 " />
    <feComposite in="result2" operator="over" in2="result1" />
    <feColorMatrix result="result91" values="1 0 0 0 0 0 1 0 0 0 0 0 1 0 0 0 0 0 10 -4 " />
    <feComposite operator="out" in="SourceGraphic" in2="result91" />
    <feGaussianBlur stdDeviation="1.000000" />
    <feColorMatrix values="1 0 0 0 0 0 1 0 0 0 0 0 1 0 0 0 0 0 1 0 " />
  </filter>
  <filter inkscape:label="textureLand" style="color-interpolation-filters:sRGB" id="textureLand">
    <feTurbulence numOctaves="4" seed="613" type="turbulence" baseFrequency="0.500000" result="result1" />
    <feColorMatrix result="result0" in="SourceGraphic" type="luminanceToAlpha" />
    <feColorMatrix result="result2" values="1 0 0 0 0 0 1 0 0 0 0 0 1 0 0 0 0 0 0.4 0 " />
    <feComposite in="result2" operator="over" in2="result1" />
    <feColorMatrix result="result91" values="1 0 0 0 0 0 1 0 0 0 0 0 1 0 0 0 0 0 10 -4 " />
    <feComposite operator="out" in="SourceGraphic" in2="result91" />
    <feGaussianBlur stdDeviation="0.800000" />
    <feColorMatrix values="1 0 0 0 0 0 1 0 0 0 0 0 1 0 0 0 0 0 1 0 " />
  </filter>
  <filter inkscape:label="textureForestBig" style="color-interpolation-filters:sRGB" id="textureForestBig">
    <feTurbulence numOctaves="2" seed="613" type="turbulence" baseFrequency="0.300000" result="result1" />
    <feColorMatrix result="result0" in="SourceGraphic" type="luminanceToAlpha" />
    <feColorMatrix result="result2" values="1 0 0 0 0 0 1 0 0 0 0 0 1 0 0 0 0 0 0.4 0 " />
    <feComposite in="result2" operator="over" in2="result1" />
    <feColorMatrix result="result91" values="1 0 0 0 0 0 1 0 0 0 0 0 1 0 0 0 0 0 10 -4 " />
    <feComposite operator="out" in="SourceGraphic" in2="result91" />
    <feGaussianBlur stdDeviation="2.000000" />
    <feColorMatrix values="1 0 0 0 0 0 1 0 0 0 0 0 1 0 0 0 0 0 1 0 " />
  </filter>
  <filter inkscape:label="textureForestSmall" style="color-interpolation-filters:sRGB" id="textureForestSmall">
    <feTurbulence numOctaves="4" seed="613" type="turbulence" baseFrequency="0.350000" result="result1" />
    <feColorMatrix result="result0" in="SourceGraphic" type="luminanceToAlpha" />
    <feColorMatrix result="result2" values="1 0 0 0 0 0 1 0 0 0 0 0 1 0 0 0 0 0 0.4 0 " />
    <feComposite in="result2" operator="over" in2="result1" />
    <feColorMatrix result="result91" values="1 0 0 0 0 0 1 0 0 0 0 0 1 0 0 0 0 0 10 -4 " />
    <feComposite operator="out" in="SourceGraphic" in2="result91" />
    <feGaussianBlur stdDeviation="1.000000" />
    <feColorMatrix values="1 0 0 0 0 0 1 0 0 0 0 0 1 0 0 0 0 0 1 0 " />
  </filter>
  <filter inkscape:label="roughenShoreline" style="color-interpolation-filters:sRGB" id="roughenShoreline">
    <feTurbulence numOctaves="4" seed="613" type="turbulence" baseFrequency="0.050000" result="turb" />
    <feDisplacementMap scale="6.600000" yChannelSelector="G" xChannelSelector="R" in="SourceGraphic" in2="turb" />
  </filter>
  <filter inkscape:label="roughenForest" style="color-interpolation-filters:sRGB" id="roughenForest">
    <feTurbulence numOctaves="4" seed="613" type="fractalNoise" baseFrequency="0.150000 0.150000" result="turb" />
    <feDisplacementMap scale="6.600000" yChannelSelector="G" xChannelSelector="R" in="SourceGraphic" in2="turb" />
  </filter>
  <filter inkscape:collect="always" inkscape:label="blurSuitRankGlow" style="color-interpolation-filters:sRGB" id="blurSuitRankGlow" x="-0.029025" y="-0.020458" width="1.058049" height="1.040917">
    <feGaussianBlur inkscape:collect="always" stdDeviation="2.515067" />
  </filter>
  <filter inkscape:collect="always" inkscape:label="blurWaterDeep" style="color-interpolation-filters:sRGB" id="blurWaterDeep" x="-0.056691" y="-0.041620" width="1.113381" height="1.083239">
    <feGaussianBlur inkscape:collect="always" stdDeviation="6.919136" />
  </filter>
  <filter inkscape:collect="always" inkscape:label="blurWaterShallow" style="color-interpolation-filters:sRGB" id="blurWaterShallow" x="-0.055818" y="-0.042103" width="1.111637" height="1.084205">
    <feGaussianBlur inkscape:collect="always" stdDeviation="6.561501" />
  </filter>
  <filter inkscape:collect="always" inkscape:label="blurWaterHilight" style="color-interpolation-filters:sRGB" id="blurWaterHilight" x="-0.071178" y="-0.051856" width="1.142356" height="1.103712">
    <feGaussianBlur inkscape:collect="always" stdDeviation="6.857532" />
  </filter>
  <filter inkscape:collect="always" inkscape:label="blurGrass" style="color-interpolation-filters:sRGB" id="blurGrass" x="-0.032100" y="-0.019164" width="1.064201" height="1.038328">
    <feGaussianBlur inkscape:collect="always" stdDeviation="2.386213" />
  </filter>
  <filter inkscape:collect="always" inkscape:label="blurForestShadow" style="color-interpolation-filters:sRGB" id="blurForestShadow" x="-0.033576" y="-0.018674" width="1.067152" height="1.037348">
    <feGaussianBlur inkscape:collect="always" stdDeviation="2.199785" />
  </filter>
  <filter inkscape:collect="always" inkscape:label="blurFlowerInner" style="color-interpolation-filters:sRGB" id="blurFlowerInner" x="-0.420000" y="-0.420000" width="1.840000" height="1.840000">
    <feGaussianBlur inkscape:collect="always" stdDeviation="1.605540" />
  </filter>
  <filter inkscape:collect="always" inkscape:label="blurFlowerMiddle" style="color-interpolation-filters:sRGB" id="blurFlowerMiddle" x="-0.240000" y="-0.240000" width="1.480000" height="1.480000">
    <feGaussianBlur inkscape:collect="always" stdDeviation="1.933705" />
  </filter>
  <linearGradient id="gradientStopsFish" inkscape:collect="always">
    <stop offset="0.000000" style="stop-color:#ff5555;stop-opacity:1.000000" />
    <stop offset="1.000000" style="stop-color:#ffffff;stop-opacity:1.000000" />
  </linearGradient>
  <linearGradient id="gradientStopsCoconut" inkscape:collect="always">
    <stop offset="0.000000" style="stop-color:#ffffff;stop-opacity:1.000000" />
    <stop offset="1.000000" style="stop-color:#c8c8c8;stop-opacity:0.000000" />
  </linearGradient>
  <linearGradient id="gradientStopsFlower" inkscape:collect="always">
    <stop offset="0.000000" style="stop-color:#b16dff;stop-opacity:1.000000" />
    <stop offset="1.000000" style="stop-color:#e7d2ff;stop-opacity:1.000000" />
  </linearGradient>
  <linearGradient id="gradientStopsJellyfish" inkscape:collect="always">
    <stop offset="0.000000" style="stop-color:#4f97ff;stop-opacity:1.000000" />
    <stop offset="1.000000" style="stop-color:#cfe3ff;stop-opacity:1.000000" />
  </linearGradient>
  <linearGradient id="gradientStopsShip" inkscape:collect="always">
    <stop offset="0.000000" style="stop-color:#b67800;stop-opacity:1.000000" />
    <stop offset="1.000000" style="stop-color:#d28b00;stop-opacity:1.000000" />
  </linearGradient>
  <linearGradient id="gradientFish" xlink:href="#gradientStopsFish" x1="178.789090" y1="-114.782830" x2="180.407300" y2="-103.782830" gradientTransform="translate(-178.76256,1.0606602)" gradientUnits="userSpaceOnUse" inkscape:collect="always" />
  <linearGradient id="gradientJellyfishTentacle1a" xlink:href="#gradientStopsJellyfish" x1="118.024030" y1="-110.827530" x2="121.753140" y2="-96.140030" gradientTransform="translate(-120,0)" gradientUnits="userSpaceOnUse" inkscape:collect="always" />
  <linearGradient id="gradientJellyfishTentacle1b" xlink:href="#gradientStopsJellyfish" x1="118.024030" y1="-110.827530" x2="121.753140" y2="-96.140030" gradientTransform="translate(-120,0)" gradientUnits="userSpaceOnUse" inkscape:collect="always" />
  <linearGradient id="gradientJellyfishTentacle2" xlink:href="#gradientStopsJellyfish" x1="118.218180" y1="-115.782610" x2="121.698270" y2="-97.813858" gradientTransform="translate(-120,0)" gradientUnits="userSpaceOnUse" inkscape:collect="always" />
  <linearGradient id="gradientJellyfishTentacle3" xlink:href="#gradientStopsJellyfish" x1="123.335370" y1="-114.610190" x2="116.678600" y2="-98.453941" gradientTransform="translate(-120,0)" gradientUnits="userSpaceOnUse" inkscape:collect="always" />
  <linearGradient id="gradientShip" xlink:href="#gradientStopsShip" x1="196.432910" y1="221.715270" x2="203.663250" y2="204.277770" gradientTransform="matrix(0.37654483,0.9263984,-0.9263984,0.37654483,355.66788,-318.43897)" gradientUnits="userSpaceOnUse" inkscape:collect="always" />
  <radialGradient id="gradientCoconut" xlink:href="#gradientStopsCoconut" cx="1.944096" cy="-60.612652" fx="1.944096" fy="-60.612652" r="6.723294" gradientUnits="userSpaceOnUse" gradientTransform="matrix(1.691364,-0.31394812,0.29762395,1.603419,17.826033,-7.042221)" inkscape:collect="always" />
  <radialGradient id="gradientFlower" xlink:href="#gradientStopsFlower" cx="60.884877" cy="-69.652750" fx="60.884877" fy="-69.652750" r="15.835310" gradientUnits="userSpaceOnUse" gradientTransform="matrix(0.8413905,0,0,0.87120012,-50.722984,-48.679159)" inkscape:collect="always" />
  <radialGradient id="gradientJellyfish" xlink:href="#gradientStopsJellyfish" cx="120.453410" cy="-112.943900" fx="120.453410" fy="-112.943900" r="10.580511" gradientUnits="userSpaceOnUse" gradientTransform="matrix(1.1662998,0.0435575,-0.04526952,1.2121402,-145.14628,17.080499)" inkscape:collect="always" />
</defs>

<sodipodi:namedview
    id="base"
    pagecolor="#ffffff"
    bordercolor="#666666"
    borderopacity="1.0"
    inkscape:pageopacity="0.0"
    inkscape:pageshadow="2"
    inkscape:zoom="2"
    inkscape:cx="115.37643"
    inkscape:cy="285.04449"
    inkscape:document-units="in"
    showgrid="true"
    units="in"
    inkscape:window-width="1392"
    inkscape:window-height="836"
    inkscape:window-x="39"
    inkscape:window-y="6"
    inkscape:window-maximized="0"
    inkscape:snap-grids="true"
    inkscape:snap-to-guides="true"
    inkscape:snap-nodes="true"
    inkscape:object-nodes="true"
    inkscape:snap-smooth-nodes="true"
    inkscape:snap-intersection-paths="true"
    inkscape:object-paths="true"
    inkscape:snap-bbox="true"
    inkscape:bbox-nodes="true"
    inkscape:snap-others="true"
    inkscape:bbox-paths="false"
    inkscape:snap-global="true" >
  <inkscape:grid
    type="xygrid"
    id="grid3051"
    empspacing="2"
    visible="true"
    enabled="true"
    snapvisiblegridlinesonly="true"
    spacingx="0.0625in"
    spacingy="0.0625in"
    dotted="false"
    units="in" />
</sodipodi:namedview>
<g inkscape:groupmode="layer" id="water_layer" inkscape:label="Water" style="display:inline" sodipodi:insensitive="true" >
  <rect id="water" style="fill:#b9deff;fill-opacity:1;stroke:none" x="0" y="0" width="247.5" height="337.5" />
</g>
<g inkscape:groupmode="layer" id="water_shallow_layer" inkscape:label="Water Shallow" style="display:inline" sodipodi:insensitive="true" >
  <path style="fill:#9bd1ff;fill-opacity:0.70;fill-rule:evenodd;stroke:none;filter:url(#blurWaterShallow)" d="m -11.25,-11.25 0,95.625 22.5,0 c 0,0 7.278226,4.28219 11.25,5.625 10.326988,3.491435 22.203293,10.64125 32.125,6.125 8.429432,-3.836985 8.071709,-16.884303 14,-24 5.730679,-6.878505 11.877426,-14.681179 20.375,-17.5 7.452696,-2.472213 16.38042,-1.686503 23.5,1.625 8.20242,3.815157 13.74953,12.045829 18.875,19.5 4.14023,6.021301 7.24501,12.848082 9.25,19.875 3.14379,11.01807 -5.90075,28.57833 4.125,34.125 4.11001,2.27383 9.40232,-2.70523 12.75,-6 3.3734,-3.32008 4.19199,-8.48768 6.25,-12.75 2.86873,-5.94137 2.6969,-14.735966 8.5,-17.875 5.43697,-2.940986 13.36851,-1.125619 18.375,2.5 5.40329,3.912975 6.04065,11.90358 8.75,18 2.75577,6.20088 6.09847,12.26328 7.625,18.875 1.87929,8.13959 3.48265,16.82793 1.75,25 -1.60438,7.5671 -5.80198,14.66052 -10.875,20.5 -4.93022,5.6751 -17.74816,5.7492 -18.25,13.25 -0.33052,4.94011 9.30924,5.51311 10.75,10.25 1.67678,5.51285 -3.80583,11.11306 -3.75,16.875 0.0565,5.83083 2.21927,11.48911 4.125,17 1.87082,5.40993 5.59544,10.10886 7.125,15.625 1.97212,7.11217 2.73778,14.6233 2.5,22 -0.21276,6.60044 -1.338,13.26006 -3.5,19.5 -1.65377,4.77309 -5.41845,8.62052 -7.125,13.375 -2.341,6.52205 -4.125,20.375 -4.125,20.375 l 0,22.5 73.125,0 0,-360 z" inkscape:connector-curvature="0" />
</g>
<g inkscape:groupmode="layer" id="water_deep_layer" inkscape:label="Water Deep" style="display:inline" sodipodi:insensitive="true" >
  <path style="fill:#87c8ff;fill-opacity:0.60;fill-rule:evenodd;stroke:none;filter:url(#blurWaterDeep)" d="m -11.25,-11.25 0,61.875 22.5,0 c 0,0 11.481148,-0.473363 16.75,-2.5 C 34.115599,45.772666 38.717091,40.554859 44.375,37.25 50.875582,33.452925 57.360701,29.388671 64.5,27 72.685338,24.261344 81.374327,22.812669 90,22.5 c 13.05962,-0.473393 27.00123,-1.177575 39,4 7.43189,3.206926 13.35753,9.523435 18.375,15.875 4.53997,5.747109 3.0253,17.701409 10.125,19.5 8.78292,2.225007 13.63841,-13.362535 22.5,-15.25 7.45047,-1.586905 16.12783,-0.17411 22.5,4 8.74854,5.730755 13.21472,16.529659 17.375,26.125 4.12083,9.504366 5.86315,19.96788 7.125,30.25 1.57349,12.82155 1.38851,25.86285 0.5,38.75 -0.84063,12.19268 -4.14995,24.10317 -5.5,36.25 -0.6506,5.85371 1.20689,12.27216 -1.25,17.625 -2.78992,6.07842 -13.23153,7.51488 -14.25,14.125 -1.3907,9.026 9.88999,15.57687 12.75,24.25 2.82542,8.56823 4.75948,17.75028 4.125,26.75 -0.72861,10.33486 -7.38288,19.51647 -9,29.75 -1.65221,10.45565 -0.625,31.75 -0.625,31.75 l 0,22.5 45,0 0,-360 z" inkscape:connector-curvature="0" />
</g>
<g inkscape:groupmode="layer" id="water_hilight_layer" inkscape:label="Water Hilight" style="display:inline" sodipodi:insensitive="true" >
  <use xlink:href="#shoreline" height="100%" width="100%" x="0" y="0" style="display:inline;fill:#ffffff;fill-opacity:1;stroke:#ffffff;stroke-opacity:1;filter:url(#blurWaterHilight)" />
</g>
<g inkscape:groupmode="layer" id="land_layer" inkscape:label="Land" style="display:inline" sodipodi:insensitive="true" >
  <use xlink:href="#shoreline" height="100%" width="100%" x="0" y="0" style="display:inline;fill:#ffddab;fill-opacity:1;stroke:none;stroke-width:1;stroke-miterlimit:4;stroke-dasharray:none;stroke-opacity:1" />
</g>
<g inkscape:groupmode="layer" id="land_texture_layer" inkscape:label="Land Texture" style="display:inline" sodipodi:insensitive="true" >
  <use xlink:href="#shoreline" height="100%" width="100%" x="0" y="0" style="display:inline;fill:#ffca7d;fill-opacity:1;stroke:none;stroke-width:1;stroke-miterlimit:4;stroke-dasharray:none;stroke-opacity:1;filter:url(#textureLand)" />
</g>
<g inkscape:groupmode="layer" id="shoreline_layer" inkscape:label="Shoreline" style="display:inline" sodipodi:insensitive="true" >
  <use xlink:href="#shoreline" height="100%" width="100%" x="0" y="0" style="display:inline;fill:none;fill-opacity:1;stroke:#5f4c14;stroke-width:1;stroke-miterlimit:4;stroke-dasharray:none;stroke-opacity:1" />
</g>
<g inkscape:groupmode="layer" id="shoreline_master_layer" inkscape:label="Shoreline Master" style="display:none" sodipodi:insensitive="true" >
  <path id="shoreline" style="color:#000000;clip-rule:nonzero;display:inline;overflow:visible;visibility:visible;opacity:1;isolation:auto;mix-blend-mode:normal;color-interpolation:sRGB;color-interpolation-filters:linearRGB;solid-color:#000000;solid-opacity:1;fill-opacity:1;fill-rule:evenodd;filter:url(#roughenShoreline);color-rendering:auto;image-rendering:auto;shape-rendering:auto;text-rendering:auto;enable-background:accumulate" d="m 89.544922,103.38867 c -4.667861,3.53113 -12.607636,9.28304 -18.257813,11.31055 -5.643068,0.53165 -15.186199,2.85365 -21.285152,6.25658 -7.355232,-4.25303 -17.215819,-2.45677 -24.571452,-2.34504 -8.157735,0.18096 -16.3212482,0.21477 -24.47525682,-0.123 L -13.943359,118.22461 c -3.953501,1.64119 -6.247527,5.90388 -6.455727,10.04752 -3.023004,17.10493 -2.553279,34.53922 -2.823378,51.83488 -0.210134,54.97075 -0.145654,109.94514 0.720511,164.91057 0.577791,7.02002 6.319405,13.01558 13.1149598,14.48837 5.6044451,1.40969 11.4170808,0.55541 17.1201743,0.75796 L 163.125,360 c 0,-5.625 -1.26562,-22.76502 0,-33.75 l 4.06445,-21.24809 3.52734,-28.67968 -3.97265,-22.17969 L 156.5,242 l 8.37695,-23.79688 c -1.02554,-1.60906 -3.77463,-1.23305 -4.46093,0.5 l -16.35547,20.03907 c -4.62584,3.70166 -6.57596,9.9118 -11.72071,13.06445 -4.75637,3.17213 -9.47506,6.40428 -14.33593,9.41602 -4.37743,1.4869 -8.85911,2.63414 -13.28907,3.94922 -3.66208,-1.08258 -6.274364,-4.05968 -8.853486,-6.6982 -2.274817,-2.49336 -4.155386,-5.50377 -7.152921,-7.20859 -2.482536,-1.06548 -5.518661,-0.87786 -7.604917,-2.79829 -1.667,-2.21017 -0.754019,-5.09144 -1.123234,-7.62158 -0.311268,-4.09966 -0.953888,-8.24395 -0.296688,-12.34327 1.192348,-2.77442 3.974957,-4.38095 6.658203,-5.45312 2.549359,-1.52072 4.895653,-7.73408 4.734375,-10.53125 0.403363,-5.82177 1.826746,-8.5992 6.814782,-11.78716 5.352506,-3.89876 12.026996,-5.95439 16.534926,-10.98857 3.94027,-4.2319 7.71033,-9.05722 8.82974,-14.87018 0.79647,-4.94715 -1.00628,-9.91046 -3.62959,-14.04242 -2.76656,-5.05775 -5.52943,-10.23492 -6.73734,-15.92226 -1.06443,-3.76035 -3.33444,-7.03042 -5.86901,-9.94759 -1.78146,-2.27009 -2.70443,-5.21397 -2.3146,-8.09341 0.18907,-4.48299 1.71222,-9.06329 0.3125,-13.49294 -1.68675,-4.65397 -2.47933,-8.55908 -7.257814,-9.04493 l -7.705078,-1.19335 z m 80.773438,48.27539 7.69141,5.81641 c 12.55713,-6.00797 8.39951,-16.36385 4.19921,-20.21289 -1.46047,-8.48125 -7.44374,-6.85384 -6.16601,4.873 -15.94811,3.18087 -11.0956,5.72043 -5.72461,9.52348 z" inkscape:connector-curvature="0" />
</g>
<g inkscape:groupmode="layer" id="grass_layer" inkscape:label="Grass" style="display:inline" sodipodi:insensitive="true" >
  <use xlink:href="#grass" height="100%" width="100%" x="0" y="0" style="display:inline;fill:#b4e982;fill-opacity:1;stroke:none;stroke-width:1;stroke-miterlimit:4;stroke-dasharray:none;stroke-opacity:1" />
</g>
<g inkscape:groupmode="layer" id="grass_texture1_layer" inkscape:label="Grass Texture Big" style="display:inline" sodipodi:insensitive="true" >
  <use xlink:href="#grass" height="100%" width="100%" x="0" y="0" style="display:inline;fill:#a7e46a;fill-opacity:1;stroke:none;stroke-width:1;stroke-miterlimit:4;stroke-dasharray:none;stroke-opacity:1;filter:url(#textureGrassBig)" />
</g>
<g inkscape:groupmode="layer" id="grass_texture2_layer" inkscape:label="Grass Texture Small" style="display:inline" sodipodi:insensitive="true" >
  <use xlink:href="#grass" height="100%" width="100%" x="0" y="0" style="display:inline;fill:#8cdd3d;fill-opacity:1;stroke:none;stroke-width:1;stroke-miterlimit:4;stroke-dasharray:none;stroke-opacity:1;filter:url(#textureGrassSmall)" />
</g>
<g inkscape:groupmode="layer" id="grass_master_layer" inkscape:label="Grass Master" style="display:none" sodipodi:insensitive="true" >
  <path id="grass" style="color:#000000;clip-rule:nonzero;display:inline;overflow:visible;visibility:visible;opacity:1;isolation:auto;mix-blend-mode:normal;color-interpolation:sRGB;color-interpolation-filters:linearRGB;solid-color:#000000;solid-opacity:1;fill-opacity:1;fill-rule:evenodd;filter:url(#blurGrass);color-rendering:auto;image-rendering:auto;shape-rendering:auto;text-rendering:auto;enable-background:accumulate" d="m 93,111.125 c -7.58022,0.24006 -13.250518,7.52517 -20.375,10.125 -5.961926,2.1756 -12.169759,4.04632 -18.5,4.5 -6.972313,0.4997 -13.885911,-2.1244 -20.875,-2 -3.823886,0.0681 -7.550548,1.51747 -11.375,1.5 -3.576749,-0.0163 -10.625,-1.5 -10.625,-1.5 l -22.5,0 0,225 157.5,0 0,-22.5 c 0,0 6.83795,-8.77669 8.875,-13.875 1.46443,-3.66518 1.03306,-7.87038 2.25,-11.625 1.64381,-5.07164 5.3779,-9.34821 6.75,-14.5 1.01165,-3.79841 0.83318,-7.82272 1,-11.75 0.19451,-4.5792 1.30388,-9.35604 0,-13.75 -1.78196,-6.00506 -9.13393,-9.58636 -10.25,-15.75 -0.68446,-3.78001 5.77594,-9.24372 2.5,-11.25 -3.18011,-1.9476 -6.08616,4.3936 -8.625,7.125 -3.47903,3.74289 -5.11123,9.04357 -8.875,12.5 -7.80024,7.16328 -17.1999,13.1884 -27.375,16.125 -5.4068,1.56044 -11.30746,1.31906 -16.875,0.5 -5.866133,-0.86298 -13.202296,-0.97016 -16.875,-5.625 -5.05187,-6.40281 -2.119069,-16.21918 -2.125,-24.375 -0.0043,-5.85472 -1.039254,-12.22459 1.5,-17.5 1.942976,-4.03662 7.049922,-5.67522 9.75,-9.25 2.437507,-3.22714 3.099455,-7.59128 5.625,-10.75 3.618179,-4.52529 9.07936,-7.22816 13.25,-11.25 3.29063,-3.17322 7.65146,-5.84222 9.25,-10.125 2.25913,-6.05262 1.01571,-13.09483 -0.5,-19.375 -2.21238,-9.16673 -9.81082,-16.39099 -12.25,-25.5 -1.85904,-6.94251 2.57538,-15.66807 -1.625,-21.5 -1.822612,-2.53057 -5.507958,-3.72371 -8.625,-3.625 z" inkscape:connector-curvature="0" />
</g>
<g inkscape:groupmode="layer" id="forest_shadow_layer" inkscape:label="Forest Shadow" style="display:inline" sodipodi:insensitive="true" >
  <g style="filter:url(#blurForestShadow)" >
    <use xlink:href="#forest" height="100%" width="100%" x="0" y="0" style="display:inline;opacity:0.75;fill:#258c1b;fill-opacity:1;filter:url(#roughenForest)" />
  </g>
</g>
<g inkscape:groupmode="layer" id="forest_fill_layer" inkscape:label="Forest Fill" style="display:inline" sodipodi:insensitive="true" >
  <use xlink:href="#forest" height="100%" width="100%" x="0" y="0" style="fill:#83d700;fill-opacity:1;stroke:none;stroke-width:1.5;stroke-miterlimit:4;stroke-dasharray:none;stroke-opacity:1;filter:url(#roughenForest)" />
</g>
<g inkscape:groupmode="layer" id="forest_texture_big_layer" inkscape:label="Forest Texture Big" style="display:inline" sodipodi:insensitive="true" >
  <g style="filter:url(#textureForestBig)" >
    <use xlink:href="#forest" height="100%" width="100%" x="0" y="0" style="fill:#548c00;fill-opacity:1;stroke:none;stroke-width:1.5;stroke-miterlimit:4;stroke-dasharray:none;stroke-opacity:1;filter:url(#roughenForest)" />
  </g>
</g>
<g inkscape:groupmode="layer" id="forest_texture_small_layer" inkscape:label="Forest Texture Small" style="display:inline" sodipodi:insensitive="true" >
  <g style="filter:url(#textureForestSmall)" >
    <use xlink:href="#forest" height="100%" width="100%" x="0" y="0" style="fill:#78c125;fill-opacity:1;stroke:none;stroke-width:1;stroke-miterlimit:4;stroke-dasharray:none;stroke-opacity:1;filter:url(#roughenForest)" />
  </g>
</g>
<g inkscape:groupmode="layer" id="forest_outline_layer" inkscape:label="Forest Outline" style="display:inline" sodipodi:insensitive="true" >
  <use xlink:href="#forest" height="100%" width="100%" x="0" y="0" style="fill:none;fill-opacity:1;stroke:#006800;stroke-width:1.5;stroke-miterlimit:4;stroke-dasharray:none;stroke-opacity:1;filter:url(#roughenForest)" />
</g>
<g inkscape:groupmode="layer" id="forest_master_layer" inkscape:label="Forest Master" style="display:none" sodipodi:insensitive="true" >
  <path id="forest" style="color:#000000;clip-rule:nonzero;display:inline;overflow:visible;visibility:visible;opacity:1;isolation:auto;mix-blend-mode:normal;color-interpolation:sRGB;color-interpolation-filters:linearRGB;solid-color:#000000;solid-opacity:1;fill-opacity:1;fill-rule:nonzero;color-rendering:auto;image-rendering:auto;shape-rendering:auto;text-rendering:auto;enable-background:accumulate" d="m 95.5,147.25 c -3.45178,0 -6.25,2.57436 -6.25,5.75 0.0027,0.44553 0.0617,0.88927 0.175781,1.32227 -0.306217,-0.0452 -0.615666,-0.0693 -0.925781,-0.0723 -3.45178,0 -6.25,2.57436 -6.25,5.75 0.0028,1.98818 1.121782,3.83396 2.958984,4.88086 -2.887777,0.56088 -4.955466,2.90383 -4.958984,5.61914 0.0027,1.97241 1.104132,3.80588 2.917969,4.85742 -1.224854,1.08357 -1.917342,2.57926 -1.917969,4.14258 0,3.17564 2.79822,5.75 6.25,5.75 0.668099,-0.002 1.331467,-0.10324 1.964844,-0.29883 1.179192,1.14698 2.819119,1.79744 4.535156,1.79883 1.853877,-5.5e-4 3.611818,-0.75825 4.798828,-2.06836 1.157363,1.60288 3.109532,2.56687 5.201172,2.56836 3.45178,0 6.25,-2.57436 6.25,-5.75 -8.1e-4,-1.27944 -0.46543,-2.52209 -1.32031,-3.53125 1.4668,-1.09113 2.31949,-2.73336 2.32031,-4.46875 -1.5e-4,-2.10502 -1.25057,-4.04171 -3.25977,-5.04883 0.81514,-0.9945 1.25723,-2.20561 1.25977,-3.45117 0,-3.17564 -2.79822,-5.75 -6.25,-5.75 -0.60269,0.001 -1.20199,0.083 -1.7793,0.24219 -0.0929,-0.96428 -0.44898,-1.89137 -1.03515,-2.69531 1.00603,-1.04847 1.56222,-2.39833 1.56445,-3.79688 0,-3.17564 -2.79822,-5.75 -6.25,-5.75 z m -98.5,4.5 c -3.4517797,0 -6.25,2.57436 -6.25,5.75 0,3.17564 2.7982203,5.75 6.25,5.75 0.2488405,-0.002 0.4973298,-0.0177 0.7441406,-0.0469 0.2506905,0.0297 0.5031072,0.0453 0.7558594,0.0469 0.2600105,-0.002 0.5196296,-0.019 0.77734375,-0.0508 C -1.0688278,163.92454 -1.2483624,164.70784 -1.25,165.5 c 4.106e-4,0.89748 0.2291693,1.78242 0.66796875,2.58398 C -3.0777811,168.8952 -4.7474422,171.06482 -4.75,173.5 c 9.827e-4,0.68567 0.1352584,1.36564 0.3964844,2.00781 -0.2592421,0.63725 -0.3934855,1.31178 -0.3964844,1.99219 0.0028,2.39993 1.625476,4.54584 4.0703125,5.38281 0.19272975,0.39125 0.43250704,0.7614 0.71484375,1.10352 C -1.1065014,185.05858 -1.7471693,186.49903 -1.75,188 c 0.00213,0.58187 0.1002577,1.16007 0.2910156,1.71484 -1.7420253,1.06493 -2.7895743,2.86094 -2.7910156,4.78516 0.00264,0.82266 0.1971186,1.63522 0.5703125,2.38281 C -4.113415,196.79552 -4.5560177,196.751 -5,196.75 c -3.4517797,0 -6.25,2.57436 -6.25,5.75 9.06e-4,1.67884 0.799289,3.27346 2.1855469,4.36523 0.6832389,2.57172 3.18682,4.38188 6.0644531,4.38477 0.5923577,-7.9e-4 1.1815859,-0.079 1.75,-0.23242 0.56841405,0.15338 1.15764231,0.23163 1.75,0.23242 0.5923577,-7.9e-4 1.1815859,-0.079 1.75,-0.23242 0.5684141,0.15338 1.1576423,0.23163 1.75,0.23242 0.5923577,-7.9e-4 1.1815859,-0.079 1.75,-0.23242 0.5684141,0.15338 1.1576423,0.23163 1.75,0.23242 0.2778006,-0.003 0.5551083,-0.0221 0.8300781,-0.0586 C 9.164235,211.55687 10.076088,211.74765 11,211.75 c 0.24884,-0.002 0.49733,-0.0176 0.744141,-0.0469 0.250691,0.0297 0.503107,0.0453 0.755859,0.0469 1.031422,-6.9e-4 2.046628,-0.23621 2.955078,-0.68555 0.504546,0.12089 1.023552,0.18323 1.544922,0.18555 3.45178,0 6.25,-2.57436 6.25,-5.75 -0.0023,-0.79228 -0.182454,-1.57559 -0.529297,-2.30078 0.25836,0.0319 0.518634,0.0488 0.779297,0.0508 3.45178,0 6.25,-2.57436 6.25,-5.75 -0.0016,-1.73698 -0.856602,-3.3802 -2.326172,-4.4707 0.856535,-1.00793 1.323214,-2.24989 1.326172,-3.5293 0,-3.17564 -2.79822,-5.75 -6.25,-5.75 -2.610873,0.003 -4.94432,1.49963 -5.851562,3.75195 -0.179667,-0.94619 -0.614114,-1.8359 -1.263672,-2.58789 0.10013,-0.26452 0.179116,-0.53542 0.236328,-0.81054 0.452298,0.0958 0.914785,0.14491 1.378906,0.14648 3.45178,0 6.25,-2.57436 6.25,-5.75 -5.1e-4,-1.28187 -0.466596,-2.52683 -1.324219,-3.53711 0.656157,-0.19576 1.272562,-0.4901 1.824219,-0.87109 1.080734,0.7494 2.396669,1.15584 3.75,1.1582 3.45178,0 6.25,-2.57436 6.25,-5.75 -0.0027,-1.97241 -1.104132,-3.80588 -2.917969,-4.85742 C 31.747862,163.61554 32.2489,162.32843 32.25,161 c 0,-3.17564 -2.79822,-5.75 -6.25,-5.75 -1.635409,7e-4 -3.205373,0.5911 -4.373047,1.64453 C 21.052864,154.19859 18.486079,152.25284 15.5,152.25 c -1.148696,0.002 -2.27455,0.29538 -3.253906,0.84766 C 11.269002,152.54665 10.146041,152.2534 9,152.25 8.3208301,152.2524 7.6466263,152.35663 7.0039062,152.55859 6.3587039,152.35586 5.6817927,152.25162 5,152.25 c -0.9768784,4e-5 -1.9401442,0.21076 -2.8125,0.61523 -1.0693576,-0.72238 -2.36083034,-1.11297 -3.6875,-1.11523 -0.2488401,0.002 -0.4973294,0.0176 -0.7441406,0.0469 C -2.4948316,151.76721 -2.7472483,151.75155 -3,151.75 Z m 22.873047,10.35547 c 0.124669,0.58475 0.34738,1.14811 0.660156,1.66992 -0.17726,-0.0154 -0.355157,-0.0239 -0.533203,-0.0254 -2.229485,0.002 -4.288799,1.09712 -5.404297,2.87305 -0.512509,-0.58131 -1.143453,-1.06496 -1.857422,-1.42383 -0.01236,-0.21995 -0.03845,-0.43906 -0.07813,-0.65625 0.699742,-0.17994 1.360021,-0.47076 1.951172,-0.85938 0.294128,0.0416 0.591108,0.0638 0.888672,0.0664 1.635409,-7e-4 3.205373,-0.5911 4.373047,-1.64453 z m 71.878906,2.79883 c 0.977876,0.55064 2.101545,0.84322 3.248047,0.8457 0.602689,-0.001 1.201993,-0.083 1.779297,-0.24219 0.183789,1.91539 1.396085,3.6195 3.230473,4.54102 -0.330497,0.40364 -0.601715,0.84559 -0.806645,1.31445 C 98.850913,168.455 96.180732,166.25395 93,166.25 c -0.668099,0.002 -1.331467,0.10324 -1.964844,0.29883 -0.369623,-0.35774 -0.787774,-0.6702 -1.24414,-0.92969 0.692945,-0.13435 1.356031,-0.37607 1.960937,-0.71484 z m 7.044922,9.23242 c 0.126131,1.05444 0.566863,2.05623 1.273435,2.89453 -0.316911,0.23568 -0.608009,0.4993 -0.869138,0.78711 -0.487921,-0.67338 -1.124853,-1.24442 -1.869141,-1.67578 0.63721,-0.56561 1.136516,-1.24933 1.464844,-2.00586 z m -82.447266,16.36914 c 0.264208,1.36402 1.054875,2.59441 2.226563,3.46484 -0.856535,1.00793 -1.323214,2.24989 -1.326172,3.5293 0.0023,0.79228 0.182454,1.57559 0.529297,2.30078 -0.25836,-0.0319 -0.518634,-0.0488 -0.779297,-0.0508 -0.557611,3.2e-4 -1.112668,0.0693 -1.650391,0.20508 0.585595,-0.89179 0.896812,-1.9132 0.900391,-2.95508 -7.34e-4,-1.51417 -0.65063,-2.96696 -1.808594,-4.04297 0.861727,-0.64636 1.52044,-1.49251 1.908203,-2.45117 z M 4.5,226.25 c -1.2947827,0.003 -2.5566799,0.37538 -3.61132812,1.06641 C 0.59454411,227.27484 0.29756468,227.25264 0,227.25 c -0.92457108,0.002 -1.8371226,0.19287 -2.671875,0.55859 -0.2743242,-0.0364 -0.5509766,-0.056 -0.828125,-0.0586 -0.1003331,0.001 -0.2006226,0.004 -0.3007812,0.01 -0.066344,-0.004 -0.1327589,-0.008 -0.1992188,-0.01 -3.4517797,0 -6.25,2.57436 -6.25,5.75 0,3.17564 2.7982203,5.75 6.25,5.75 0.1003331,-0.001 0.2006226,-0.004 0.3007812,-0.01 0.066344,0.004 0.1327589,0.008 0.1992188,0.01 0.086639,-0.001 0.1732467,-0.004 0.2597656,-0.008 0.091298,1.98259 1.2872991,3.78176 3.16406253,4.75976 C -2.035004,245.02071 -3.247231,246.92976 -3.25,249 c 6.27e-5,1.90332 1.0238725,3.68329 2.734375,4.75391 -1.708018,1.06906 -2.7315015,2.84553 -2.734375,4.74609 0,3.17564 2.79822031,5.75 6.25,5.75 0.1871997,-0.001 0.3742373,-0.0105 0.5605469,-0.0273 -0.014084,0.037 -0.027756,0.0741 -0.041016,0.11132 C 3.182755,264.28039 2.841768,264.2523 2.5,264.25 c -3.45177969,0 -6.25,2.57436 -6.25,5.75 0.00272,1.97241 1.104132,3.80588 2.91796875,4.85742 -0.86159665,0.96989 -1.35537235,2.1721 -1.40624995,3.42383 -1.2803534,1.08685 -2.0095383,2.61602 -2.0117188,4.21875 7.292e-4,1.68399 0.8038245,3.28304 2.1972656,4.375 -0.4557793,0.81162 -0.6948012,1.71147 -0.6972656,2.625 0.00177,0.87423 0.2201976,1.73658 0.6386719,2.52148 C -4.0499695,293.04522 -5.246746,294.94353 -5.25,297 c -3.25e-5,1.89957 1.0196797,3.67657 2.7246094,4.74805 C -4.7866261,302.66699 -6.2466648,304.72574 -6.25,307 c 0.00267,0.59225 0.1047897,1.18057 0.3027344,1.74414 -0.1992447,0.56731 -0.3013766,1.15967 -0.3027344,1.75586 0.00264,2.38952 1.6113437,4.5285 4.0410156,5.37305 -0.026077,0.20814 -0.03977,0.41744 -0.041016,0.62695 0.00241,1.01997 0.2996871,2.02099 0.8613281,2.90039 -2.8412116,0.59567 -4.857951,2.91868 -4.8613281,5.59961 0.00258,1.3764 0.5417445,2.70629 1.5195312,3.74805 -0.9787378,1.04278 -1.5179629,2.37421 -1.5195312,3.75195 0.00215,2.0471 1.187146,3.93877 3.1113281,4.9668 1.0341143,2.0032 3.22819591,3.28073 5.6386719,3.2832 1.9685653,-0.003 3.8205207,-0.8592 4.9980469,-2.31055 1.1783496,1.45237 3.0320121,2.30863 5.0019531,2.31055 2.127063,-0.003 4.106565,-1.00063 5.253906,-2.64844 0.06019,3.13451 2.838489,5.64697 6.246094,5.64844 2.008576,-0.002 3.893601,-0.89241 5.066406,-2.39258 0.286131,-0.22508 0.549572,-0.47349 0.78711,-0.74219 2.085039,-0.98438 3.396282,-2.95916 3.396484,-5.11523 -0.0016,-0.8676 -0.216625,-1.72361 -0.628906,-2.50391 0.411033,-0.77792 0.626005,-1.63113 0.628906,-2.49609 -0.0027,-0.59225 -0.104789,-1.18057 -0.302734,-1.74414 0.199245,-0.56731 0.301376,-1.15967 0.302734,-1.75586 -0.0031,-1.79238 -0.914532,-3.4809 -2.464844,-4.56641 -0.72233,-1.04823 -1.793929,-1.85329 -3.054687,-2.29492 0.310025,-0.43506 0.554443,-0.90681 0.726562,-1.40234 1.042234,0.66004 2.277676,1.01351 3.542969,1.01367 3.45178,0 6.25,-2.57436 6.25,-5.75 -0.0028,-0.98874 -0.282603,-1.96011 -0.8125,-2.82031 0.284565,-0.0394 0.565834,-0.0968 0.841797,-0.17188 0.24451,2.53799 2.27537,4.62529 4.990234,5.12891 -0.01067,0.12087 -0.01719,0.24203 -0.01953,0.36328 0.0027,2.37961 1.598385,4.51183 4.013672,5.36328 -0.660983,0.93318 -1.013137,2.02289 -1.013672,3.13672 6.31e-4,1.11703 0.354903,2.20971 1.019531,3.14453 -0.0105,0.11828 -0.01701,0.23682 -0.01953,0.35547 4.69e-4,0.53244 0.08132,1.06224 0.240234,1.57422 -0.80252,0.98979 -1.23738,2.19096 -1.240234,3.42578 0.0011,0.35059 0.03706,0.70035 0.107422,1.04492 C 45.960286,335.31194 45.752839,336.1504 45.75,337 c 0,3.17564 2.79822,5.75 6.25,5.75 2.452662,-0.003 4.676945,-1.32484 5.6875,-3.38086 0.992544,0.57357 2.140398,0.87881 3.3125,0.88086 0.532668,-0.001 1.063008,-0.0647 1.578125,-0.18945 1.171758,1.08084 2.762591,1.68864 4.421875,1.68945 0.08794,-9e-4 0.175851,-0.003 0.263672,-0.008 1.185364,1.27221 2.914975,2.00542 4.736328,2.00781 3.45178,0 6.25,-2.57436 6.25,-5.75 -0.0022,-0.97343 -0.273074,-1.93041 -0.787109,-2.78125 0.189859,-0.55621 0.286668,-1.13576 0.287109,-1.71875 -0.0024,-1.18196 -0.4007,-2.33453 -1.140625,-3.30078 0.09244,-0.3941 0.139578,-0.79605 0.140625,-1.19922 -0.0025,-0.77943 -0.177308,-1.55025 -0.513672,-2.26562 0.0063,-0.078 0.01085,-0.15618 0.01367,-0.23438 -0.0027,-1.61912 -0.747273,-3.16216 -2.050781,-4.25 1.303508,-1.08784 2.048079,-2.63088 2.050781,-4.25 -0.0041,-3.0834 -2.651155,-5.61495 -6,-5.73828 -0.319153,-0.69278 -0.782998,-1.32119 -1.365234,-1.84961 0.238666,-0.61372 0.362171,-1.2603 0.365234,-1.91211 -0.0027,-0.80174 -0.187684,-1.59409 -0.542969,-2.32617 0.67886,-0.94077 1.0416,-2.04462 1.042969,-3.17383 0,-3.17564 -2.79822,-5.75 -6.25,-5.75 -1.347443,0.002 -2.658009,0.4051 -3.736328,1.14844 -0.467383,-0.66909 -1.080564,-1.24171 -1.800781,-1.68164 0.189646,-0.55559 0.286454,-1.13446 0.287109,-1.7168 0,-3.17564 -2.79822,-5.75 -6.25,-5.75 -1.253957,0.002 -2.47822,0.35125 -3.513672,1.00195 0.500682,-0.84413 0.763249,-1.79032 0.763672,-2.75195 0,-3.17564 -2.79822,-5.75 -6.25,-5.75 -0.168866,8.7e-4 -0.337624,0.008 -0.505859,0.0215 -0.625585,-1.06441 -1.600225,-1.92013 -2.785157,-2.44531 0.354613,-0.73222 0.538895,-1.52456 0.541016,-2.32617 0,-3.17564 -2.79822,-5.75 -6.25,-5.75 -0.819989,0.002 -1.631631,0.15154 -2.388672,0.44141 0.0912,-0.39161 0.137674,-0.79091 0.138672,-1.19141 0,-3.17564 -2.79822,-5.75 -6.25,-5.75 -2.889173,0.004 -5.399051,1.82875 -6.070312,4.41406 -0.805941,-1.30677 -2.135832,-2.27141 -3.705079,-2.6875 0.01563,-0.15846 0.0241,-0.31745 0.02539,-0.47656 -0.0015,-2.47308 -1.721599,-4.66829 -4.271484,-5.45117 1.76962,-0.88598 2.966503,-2.50243 3.214843,-4.3418 3.160734,-0.32459 5.552505,-2.7811 5.556641,-5.70703 3.3e-5,-1.89957 -1.019679,-3.67657 -2.724609,-4.74805 2.261235,-0.91894 3.721274,-2.97769 3.724609,-5.25195 -0.0013,-0.49998 -0.07357,-0.99767 -0.214844,-1.48047 1.981864,-1.0129 3.21211,-2.93376 3.214844,-5.01953 0,-3.17564 -2.79822,-5.75 -6.25,-5.75 -1.071178,0.002 -2.123728,0.2579 -3.056641,0.74219 C 13.762078,227.58064 11.936356,226.75254 10,226.75 c -0.1440084,-2e-5 -0.2879745,0.005 -0.4316406,0.0137 C 8.7614934,226.4269 7.8860176,226.2518 7,226.25 c -0.4160418,0.002 -0.8308599,0.0416 -1.2382812,0.11914 C 5.3466254,226.29017 4.9238762,226.25025 4.5,226.25 Z m 23.388672,49.55859 C 27.797474,276.2002 27.750998,276.5995 27.75,277 c 7.67e-4,1.30931 0.487213,2.57917 1.378906,3.59961 C 28.446743,280.37015 27.726325,280.25184 27,280.25 c -3.45178,0 -6.25,2.57436 -6.25,5.75 0.0029,0.33814 0.03817,0.67538 0.105469,1.00781 C 20.254606,286.83646 19.629068,286.74954 19,286.75 c -1.019589,0.001 -2.023377,0.23186 -2.923828,0.67188 -0.691399,-1.26651 -1.866859,-2.25348 -3.300781,-2.77149 1.714731,-0.78207 2.945454,-2.24382 3.339843,-3.9668 0.285148,0.0398 0.572945,0.0613 0.861328,0.0645 1.038207,0.65241 2.266156,1.00159 3.523438,1.00191 3.394755,-0.003 6.166082,-2.4987 6.242188,-5.62109 0.39243,-0.0728 0.776355,-0.18001 1.146484,-0.32032 z M 133,280.75 c -3.45178,0 -6.25,2.57436 -6.25,5.75 2.2e-4,0.1238 0.005,0.24756 0.0137,0.37109 -0.41567,-0.0797 -0.83909,-0.12032 -1.2637,-0.12109 -3.44433,-10e-6 -6.23947,2.56365 -6.25,5.73242 -0.56841,-0.15338 -1.15764,-0.23163 -1.75,-0.23242 -3.45178,0 -6.25,2.57436 -6.25,5.75 0.003,0.80029 0.18698,1.59125 0.54102,2.32227 -2.16312,0.95715 -3.53932,2.96944 -3.54102,5.17773 0.002,0.28716 0.0276,0.57376 0.0762,0.85742 -0.42909,0.28569 -0.81696,0.62041 -1.15429,0.9961 -1.06661,-0.71532 -2.35199,-1.10162 -3.67191,-1.10352 -1.51691,0.003 -2.98095,0.51301 -4.119141,1.43555 C 98.625807,307.39861 97.816933,307.25064 97,307.25 c -3.45178,0 -6.25,2.57436 -6.25,5.75 0.0017,0.77211 0.172417,1.53599 0.501953,2.24609 -0.330656,0.71252 -0.501391,1.47917 -0.501953,2.25391 0.0027,1.39787 0.558904,2.74695 1.564453,3.79492 -0.692871,0.94742 -1.063431,2.06318 -1.064453,3.20508 8.19e-4,0.33863 0.03415,0.67654 0.09961,1.00977 -0.06422,0.32681 -0.09755,0.65813 -0.09961,0.99023 0.0016,0.8676 0.216625,1.72361 0.628906,2.50391 -0.411033,0.77792 -0.626005,1.63113 -0.628906,2.49609 0.0023,0.26477 0.0245,0.52907 0.06641,0.79102 -0.694367,0.94832 -1.065649,2.06556 -1.066406,3.20898 0,3.17564 2.79822,5.75 6.25,5.75 3.169881,-0.002 5.83595,-2.18732 6.20312,-5.08398 1.15914,1.01449 2.69702,1.58141 4.29688,1.58398 1.10103,-0.003 2.18175,-0.27282 3.13281,-0.7832 0.88078,2.21845 3.14652,3.71578 5.71289,3.77539 1.16304,1.5672 3.09166,2.50556 5.1543,2.50781 0.8739,-0.002 1.73754,-0.17341 2.53516,-0.50195 3.43721,-0.0178 6.21373,-2.58576 6.21484,-5.74805 -9e-5,-1.50342 -0.64021,-2.94701 -1.7832,-4.02148 0.82964,-0.99924 1.28038,-2.22112 1.2832,-3.47852 -0.002,-0.78363 -0.17818,-1.5586 -0.51758,-2.27734 1.28361,-1.08683 2.01507,-2.61774 2.01758,-4.22266 -0.003,-1.56155 -0.69594,-3.05486 -1.91992,-4.13672 1.8165,-1.05222 2.91896,-2.88844 2.91992,-4.86328 -0.002,-1.33646 -0.50922,-2.63067 -1.43555,-3.66016 2.37592,-0.87139 3.93494,-2.98671 3.93555,-5.33984 -0.001,-0.11143 -0.006,-0.2228 -0.0137,-0.33398 2.14835,-0.96247 3.51217,-2.96765 3.51367,-5.16602 -0.002,-3.14073 -2.74279,-5.69898 -6.15625,-5.74609 0.10194,-0.41143 0.15434,-0.83193 0.15625,-1.25391 -2.1e-4,-0.1238 -0.005,-0.24756 -0.0137,-0.37109 0.41566,0.0797 0.83907,0.12032 1.26367,0.12109 3.45178,0 6.25,-2.57436 6.25,-5.75 0,-3.17564 -2.79822,-5.75 -6.25,-5.75 z m -125.2988281,4.0918 0.023437,0.008 -0.035156,0.0137 0.011719,-0.0215 z m 38.8125001,7.40625 c -0.314479,0.53305 -0.535308,1.10852 -0.654297,1.70507 -0.369017,0.0932 -0.727947,0.21746 -1.072266,0.3711 -0.513006,-0.44717 -1.104729,-0.81105 -1.75,-1.07617 1.241072,-0.008 2.451335,-0.35649 3.476563,-1 z m -15.775391,1.46679 c 1.079969,1.17131 2.624422,1.89642 4.289063,2.01368 -0.407143,0.67866 -0.660926,1.42606 -0.746094,2.19726 -0.883879,-1.28111 -2.282358,-2.18886 -3.890625,-2.52539 0.206854,-0.54269 0.324044,-1.11087 0.347656,-1.68555 z M 123.75,298.01758 c 0.53844,0.14418 1.09552,0.22104 1.65625,0.22851 -0.10194,0.41143 -0.15434,0.83193 -0.15625,1.25391 0.001,0.11143 0.006,0.2228 0.0137,0.33398 -0.12321,0.0562 -0.24437,0.11613 -0.36328,0.17969 -0.40195,-0.29612 -0.84213,-0.54541 -1.31055,-0.74219 0.10325,-0.41129 0.15696,-0.83179 0.16016,-1.2539 z m -100.914062,1.01953 c 0.09062,0.0227 0.181792,0.0436 0.273437,0.0625 -0.202682,0.5322 -0.319164,1.08894 -0.345703,1.65234 -0.172144,0.18518 -0.331319,0.38023 -0.476563,0.58399 -0.115946,-0.25948 -0.252378,-0.5108 -0.408203,-0.75196 0.404347,-0.4668 0.727225,-0.98867 0.957032,-1.54687 z m 20.376953,4.63867 c 0.527047,0.45944 1.137082,0.83089 1.802734,1.09766 -0.171451,-0.0143 -0.343472,-0.0222 -0.515625,-0.0234 -0.602689,0.001 -1.201993,0.083 -1.779297,0.24219 -0.03317,-0.35673 -0.10248,-0.70982 -0.207031,-1.05469 0.238592,-0.0742 0.472091,-0.1616 0.699219,-0.26172 z M 49.5,304.94141 c 0.498959,0.61242 1.125792,1.12703 1.84375,1.51367 -0.619723,0.15739 -1.209342,0.4018 -1.748047,0.72461 -0.659962,-0.85846 -1.56315,-1.53399 -2.611328,-1.95313 0.171451,0.0143 0.343473,0.0221 0.515625,0.0234 0.680481,-0.002 1.356039,-0.10625 2,-0.30859 z m 7.554688,1.79492 c -0.08516,0.24493 -0.152372,0.49484 -0.201172,0.74805 -0.221377,-0.16079 -0.454332,-0.30762 -0.697266,-0.43946 0.307628,-0.0815 0.607991,-0.18471 0.898438,-0.30859 z m -37.744141,1.89844 C 18.943376,309.37765 18.752293,310.18393 18.75,311 c 0.0029,0.43683 0.05992,0.87193 0.169922,1.29688 -0.05798,0.0369 -0.115282,0.0746 -0.171875,0.11328 -0.658067,-0.45533 -1.407445,-0.78655 -2.205078,-0.97461 0.134493,-0.46858 0.204055,-0.95092 0.207031,-1.43555 -0.0034,-0.25298 -0.02492,-0.50549 -0.06445,-0.75586 0.912884,-0.0242 1.808902,-0.23224 2.624997,-0.60937 z m 99.308593,1.17968 c 0.68625,0.2586 1.41704,0.40277 2.1582,0.42578 -0.21391,0.2291 -0.40787,0.47334 -0.58007,0.73047 -0.55205,-0.14493 -1.12318,-0.2192 -1.69727,-0.2207 -0.0866,0.001 -0.17325,0.004 -0.25977,0.008 -0.0101,-0.20602 -0.0323,-0.4114 -0.0664,-0.61523 0.15379,-0.10308 0.30238,-0.21257 0.44531,-0.32813 z m -60.333984,5.24024 c 0.230187,2.1685 1.772847,4.03103 3.984375,4.81054 -1.723505,0.32108 -3.22025,1.29528 -4.123047,2.6836 -0.688809,-1.33859 -1.912464,-2.38104 -3.416015,-2.91016 0.52464,-0.74015 0.856804,-1.58159 0.970703,-2.45898 1.06185,-0.47006 1.957623,-1.20672 2.583984,-2.125 z m 54.453124,3.66015 c 0.35584,0.78244 0.89543,1.48277 1.58008,2.05078 -0.10596,-0.008 -0.21211,-0.0129 -0.31836,-0.0156 -0.50711,0.002 -1.01213,0.06 -1.50391,0.17383 -0.1003,-0.0244 -0.20124,-0.0466 -0.30273,-0.0664 0.32987,-0.67526 0.5149,-1.40277 0.54492,-2.14259 z m -97.566405,6.14454 c 0.09976,0.06 0.201365,0.11726 0.304687,0.17187 0.02443,0.074 0.05048,0.14762 0.07813,0.2207 -0.01823,-7.4e-4 -0.03646,-0.001 -0.05469,-0.002 -0.13617,-1.9e-4 -0.27231,0.004 -0.408203,0.0117 0.03187,-0.1332 0.05858,-0.2674 0.08008,-0.40234 z" inkscape:connector-curvature="0" />
</g>
<g inkscape:groupmode="layer" id="routes_layer" inkscape:label="Routes" style="display:inline" sodipodi:insensitive="true" >
  <path style="display:inline;fill:none;stroke:#000000;stroke-width:2;stroke-linecap:round;stroke-miterlimit:4;stroke-dasharray:0.1, 5;stroke-dashoffset:0;stroke-opacity:1" d="m 123.75,0 0,11.25 c 0,3.75 -1.5581,10.054758 -1.76777,13.194544 -0.7305,10.939415 11.79225,49.478554 19.76777,64.430456 12.39627,23.2396 10.35047,49.81995 2.30149,84.64174 -8.04898,34.8218 -26.10113,54.88503 -49.217574,78.09037 C 147.60103,231.0178 158.61101,197.99695 174.875,185.25 c 22.13628,-17.34938 43.74414,-16.5 55.75,-16.5 l 16.875,0 M 84.375,337.5 l 0,-11.25 c 0,-27.62069 -11.931748,-26.1558 -11.330212,-43.23528 0.874694,-24.8353 17.465936,-26.14359 13.665008,-32.16411 C 69.932649,234.37213 37.39832,219.45071 16.875,219.375 l -16.875,0" inkscape:connector-curvature="0" />
</g>
<g inkscape:groupmode="layer" id="labels_layer" inkscape:label="Labels" style="display:inline" sodipodi:insensitive="true" >
  <text xml:space="preserve"><textPath xlink:href="#back_port"><tspan
  style="-inkscape-font-specification:'CCTreasureTroveAged Mod, Normal';font-family:'CCTreasureTroveAged Mod';font-weight:normal;font-style:normal;font-stretch:normal;font-variant:normal;font-size:8.75px;text-anchor:start;text-align:start;writing-mode:lr;line-height:125%"
  >Back Port</tspan></textPath></text>
</g>
<g inkscape:groupmode="layer" id="labels_guide_layer" inkscape:label="Labels Guide" style="display:none" sodipodi:insensitive="true" >
  <path id="back_port" style="color:#000000;fill:none;stroke:#000000;stroke-width:1;stroke-opacity:1" d="m 98.52863,230.58781 c 3.5,-19.5 29.375,-28.625 37.625,-51.125" inkscape:connector-curvature="0" />
</g>
<g inkscape:groupmode="layer" id="resources_layer" inkscape:label="Resources" style="display:inline" sodipodi:insensitive="true" >
  <g id="resource-squid" transform="matrix(-0.6540871,-0.75641923,0.75641923,-0.6540871,179.42357,181.05974)" >
    <circle cx="0.060593" cy="-110.109990" r="19.000000" style="opacity:1;fill:#ffffff;fill-opacity:1;stroke:#000000;stroke-width:0.89999998;stroke-linecap:round;stroke-linejoin:round;stroke-miterlimit:4;stroke-dasharray:none;stroke-dashoffset:0;stroke-opacity:1" />
    <g >
      <path style="color:#000000;clip-rule:nonzero;display:inline;overflow:visible;visibility:visible;opacity:1;isolation:auto;mix-blend-mode:normal;color-interpolation:sRGB;color-interpolation-filters:linearRGB;solid-color:#000000;solid-opacity:1;fill:#ffffff;fill-opacity:1;fill-rule:evenodd;stroke:none;stroke-width:0.89999998;stroke-linecap:round;stroke-linejoin:miter;stroke-miterlimit:4;stroke-dasharray:none;stroke-dashoffset:0;stroke-opacity:1;color-rendering:auto;image-rendering:auto;shape-rendering:auto;text-rendering:auto;enable-background:accumulate" d="m 3.751377,-125.43036 -1.988737,1.32582 -2.342292,2.2981 -1.988737,2.43068 -1.104855,2.2981 -0.707107,1.90035 0,1.14905 1.679379,0 -0.397747,1.98873 -0.574525,2.47488 -0.08839,2.34229 -0.08839,1.72357 0.839689,0.70711 1.767767,0.39775 1.856155,0.0442 1.414214,-0.17678 1.414213,-0.57453 0.309359,-0.83968 0.30936,-2.3423 -0.30936,-2.69584 -0.176776,-2.65165 1.723573,0.53033 0.04419,-2.20971 -0.220971,-3.7565 -0.397748,-3.27037 z" inkscape:connector-curvature="0" />
      <path style="fill:#000000;fill-opacity:1;fill-rule:evenodd;stroke:none;stroke-width:0.89999998;stroke-linecap:round;stroke-linejoin:miter;stroke-miterlimit:4;stroke-dasharray:none;stroke-opacity:1" d="m -11.427734,-116.71094 c -0.926654,0.068 -1.828354,0.58 -2.47461,0.98633 l 0.564453,0.62305 c 0.129027,-0.0692 1.250128,-0.8819 2,-0.93164 0.346707,-0.0382 0.804167,0.0783 1.076172,0.39453 0.868797,0.83085 0.783149,2.35847 0.419922,4.20312 -0.329865,1.37596 -0.389964,2.87205 -0.115234,4.36719 0.175945,1.03446 0.565056,2.09121 1.236328,2.96484 0.238071,-0.17566 0.474836,-0.35332 0.707031,-0.53906 0.01663,-0.0136 0.035924,-0.0238 0.052734,-0.0371 -0.6103851,-0.73211 -0.9647481,-1.69528 -1.1601561,-2.53906 -0.328551,-1.46718 -0.279657,-2.86872 -0.0332,-4.05078 0.451937,-2.07874 0.307063,-3.74395 -0.642578,-4.80469 -0.4323489,-0.47732 -1.0683939,-0.67465 -1.6308589,-0.63672 z" inkscape:connector-curvature="0" />
      <path style="fill:#000000;fill-opacity:1;fill-rule:evenodd;stroke:none;stroke-width:0.89999998;stroke-linecap:round;stroke-linejoin:miter;stroke-miterlimit:4;stroke-dasharray:none;stroke-opacity:1" d="m -3.796875,-104.89258 c -0.9058673,0.74517 -1.9188533,1.2608 -2.7324219,1.16406 -0.2030019,0.0833 -0.4030106,0.17309 -0.5839843,0.29102 -0.166691,0.11469 -0.3464295,0.21948 -0.5195313,0.33008 1.7036649,0.94245 3.731315,0.084 4.8828125,-1.03906 -0.3560506,-0.22586 -0.7057338,-0.47583 -1.046875,-0.7461 z" inkscape:connector-curvature="0" />
      <path style="fill:#000000;fill-opacity:1;fill-rule:evenodd;stroke:none;stroke-width:0.89999998;stroke-linecap:round;stroke-linejoin:miter;stroke-miterlimit:4;stroke-dasharray:none;stroke-opacity:1" d="m 4.1640625,-105.46289 c -0.327423,-0.0235 -0.6594367,-0.0232 -0.9921875,0.002 0.078825,0.37091 0.1521001,0.74306 0.2207031,1.11524 1.064043,-0.1503 2.1844576,0.0295 3.203125,0.45898 0.5236021,0.21983 1.046713,0.50703 1.5820313,0.79883 0.1250671,-0.19964 0.2209286,-0.4272 0.3164062,-0.65625 -0.4965073,-0.32152 -0.99925,-0.64667 -1.5488281,-0.92969 -0.8521322,-0.43734 -1.7989811,-0.71849 -2.78125,-0.78906 z" inkscape:connector-curvature="0" />
      <path style="fill:#000000;fill-opacity:1;fill-rule:evenodd;stroke:none;stroke-width:0.89999998;stroke-linecap:round;stroke-linejoin:miter;stroke-miterlimit:4;stroke-dasharray:none;stroke-opacity:1" d="m 9.625,-103.05469 c -0.082921,0.19334 -0.1803086,0.37972 -0.2832031,0.56446 1.0688811,0.48073 2.1976941,0.84215 3.3593751,1.0332 0.499799,0.10355 1.072452,0.1837 1.636719,0.125 0.45283,-0.10452 0.877972,-0.29289 1.207031,-0.60938 -0.854133,0.55171 -1.887915,0.33226 -2.777344,0.11524 -1.10459,-0.26639 -2.156407,-0.6956 -3.142578,-1.22852 z" inkscape:connector-curvature="0" />
      <path style="fill:#000000;fill-opacity:1;fill-rule:evenodd;stroke:none;stroke-width:0.89999998;stroke-linecap:round;stroke-linejoin:miter;stroke-miterlimit:4;stroke-dasharray:none;stroke-opacity:1" d="m 10.445312,-116.39648 c -0.400021,0.0106 -0.806202,0.0811 -1.207031,0.23632 -0.999585,0.47508 -1.487003,1.70748 -1.054687,2.81641 0.73612,1.87741 1.421348,4.07068 1.230468,6.24023 -0.185513,1.89331 -0.460829,3.94627 -1.800781,5.00196 -0.0014,0.001 -0.0025,0.003 -0.0039,0.004 0.320059,0.10607 0.638919,0.21521 0.96875,0.33985 1.230198,-1.44937 1.504195,-3.41815 1.582031,-5.29297 0.119976,-2.35443 -0.620703,-4.61346 -1.384765,-6.52539 -0.32491,-0.80541 0.06377,-1.75045 0.714844,-1.97071 1.477232,-0.63585 3.318013,0.63156 3.894531,1.04493 0.06075,-0.3217 0.119158,-0.65295 0.167968,-0.99219 -0.763734,-0.42041 -1.907357,-0.9341 -3.107422,-0.90234 z" inkscape:connector-curvature="0" />
      <path style="fill:#000000;fill-opacity:1;fill-rule:evenodd;stroke:none;stroke-width:0.89999998;stroke-linecap:round;stroke-linejoin:miter;stroke-miterlimit:4;stroke-dasharray:none;stroke-opacity:1" d="m 2.6855469,-104.19922 -1.3144531,0.16406 c 0.1478645,1.11047 0.8672943,2.90093 2.7285156,3.58399 1.0655975,0.34295 2.2839122,0.21217 3.3339844,-0.36719 -0.2485489,-0.0678 -0.4969496,-0.13368 -0.75,-0.21289 -0.00137,0 -0.00254,-0.002 -0.00391,-0.002 0,0 -0.00195,0 -0.00195,0 -0.3131724,-0.0869 -0.6261833,-0.19311 -0.9375,-0.31055 -0.4385291,0.0409 -0.8692013,-0.007 -1.2519532,-0.16992 -1.067961,-0.37978 -1.6828409,-1.60142 -1.8027343,-2.68555 z" inkscape:connector-curvature="0" />
      <path style="fill:#000000;fill-opacity:1;fill-rule:evenodd;stroke:none;stroke-width:0.89999998;stroke-linecap:round;stroke-linejoin:miter;stroke-miterlimit:4;stroke-dasharray:none;stroke-opacity:1" d="m -0.46875,-103.85156 c -0.37846744,0.0176 -0.7557959,0.0342 -1.1347656,0.0508 -0.026644,1.35579 -0.083772,2.68828 -0.4941406,3.89453 -0.018811,0.05778 -0.047295,0.112792 -0.068359,0.169922 0.0012,0.469321 0.048794,0.930808 0.1503906,1.380859 0.2763156,-0.394741 0.5250997,-0.814331 0.7148438,-1.271484 0.55095568,-1.351977 0.7212245,-2.820157 0.8320312,-4.224607 z" inkscape:connector-curvature="0" />
      <path style="fill:#000000;fill-opacity:1;fill-rule:evenodd;stroke:none;stroke-width:0.89999998;stroke-linecap:round;stroke-linejoin:miter;stroke-miterlimit:4;stroke-dasharray:none;stroke-opacity:1" d="m -3.1230469,-98.044922 c -0.150339,0.197077 -0.3095867,0.389682 -0.4746093,0.578125 -0.714018,0.796578 -1.6209216,1.450225 -2.6289063,1.658203 -0.2940814,0.05997 -0.6139042,0.05055 -0.90625,-0.02344 -0.4427004,-0.04353 -0.8708449,-0.242919 -1.1113281,-0.654297 0.2442222,0.763823 1.2067903,1.184368 2.09375,1.060547 1.1279747,-0.158128 2.18429,-0.790581 3.0175781,-1.617188 0.093062,-0.09152 0.1811077,-0.189952 0.2714844,-0.285156 -0.1018651,-0.234524 -0.1860307,-0.474028 -0.2617188,-0.716797 z" inkscape:connector-curvature="0" />
      <path style="fill:#000000;fill-opacity:1;fill-rule:evenodd;stroke:none;stroke-width:0.89999998;stroke-linecap:round;stroke-linejoin:miter;stroke-miterlimit:4;stroke-dasharray:none;stroke-opacity:1" d="m 4.025391,-125.87891 c -0.146221,-0.0305 -0.303081,0.0119 -0.398438,0.0742 -2.862666,1.87054 -4.880211,3.59029 -6.738281,6.62891 -0.99964,1.72264 -1.777144,3.35668 -1.810547,5.28516 0.006,0.2998 0.273432,0.52657 0.570313,0.48437 0.492456,-0.0709 0.875763,-0.10517 1.1875,-0.1289 -0.218167,0.7447 -0.421021,1.51009 -0.605469,2.3496 -0.397611,1.80973 -0.653445,4.36221 -0.396485,5.81446 0.19055,1.07692 1.186538,1.26127 1.898438,1.47656 0.7119,0.21529 1.794338,0.36669 2.455078,0.27539 1.69421,-0.23411 3.402492,-0.48676 3.824219,-1.49023 0.761046,-1.81087 0.168822,-5.57059 0.01758,-7.99219 0.372935,0.0863 0.744619,0.19639 1.097656,0.36523 0.33685,0.16216 0.647892,-0.0794 0.638672,-0.45312 0,0 -0.123941,-4.19409 -0.244141,-5.86719 -0.19297,-2.68575 -0.356893,-3.69695 -1.158203,-6.45703 -0.0561,-0.23143 -0.19167,-0.33476 -0.33789,-0.36523 z m -0.402344,0.98243 c 0.58883,2.15877 0.873399,3.54998 1.042969,5.91015 0.10223,1.42282 0.178435,4.57706 0.197265,5.32227 -0.75389,-0.22738 -1.480374,-0.38819 -2.083984,-0.44727 0.003,-0.93743 0.01185,-2.67282 0.09375,-4.53515 0.0553,-1.25832 -0.308848,-0.55533 -0.486328,0.38671 -0.38009,2.01743 -0.460938,3.48013 -0.460938,4.40821 -4e-4,0.25604 0.192656,0.47102 0.447266,0.49804 0.246719,0.026 0.520253,0.0702 0.785156,0.10547 0.293188,2.53888 0.74607,5.39541 0.132813,7.61133 -0.202142,0.73041 -3.4124,1.1779 -5.269532,0.78516 -0.518246,-0.1096 -1.363176,-0.31092 -1.404296,-1.08594 -0.0867,-1.63376 0.06432,-3.31607 0.320312,-4.73438 0.389151,-2.15602 1.088748,-4.27614 1.673828,-5.69726 l 0.941406,-2.46289 c 0.56898,-1.4466 0.362088,-1.65162 -0.632812,0.10156 -0.761329,1.50777 -1.310471,2.82853 -1.765625,4.1875 -0.192605,0.0238 -0.6893,0.0859 -1.246094,0.1543 0.0825,-0.52387 0.194473,-1.14129 0.470703,-1.9043 0.35929,-0.99241 0.811648,-1.98486 1.080078,-2.42383 1.64411,-2.6887 3.560553,-4.51162 6.164063,-6.17968 z" inkscape:connector-curvature="0" />
      <path style="fill:#000000;fill-opacity:1;fill-rule:evenodd;stroke:none;stroke-width:0.89999998;stroke-linecap:round;stroke-linejoin:miter;stroke-miterlimit:4;stroke-dasharray:none;stroke-opacity:1" d="m -2.5373427,-104.18887 c 0.3421635,0.16215 0.6859607,0.32221 1.0313325,0.48012 -0.9340133,2.13702 -1.3535777,4.738056 -0.2199471,6.841436 0,0 -1e-7,10e-7 -1e-7,10e-7 0.4977108,0.912316 0.5028499,2.106189 -0.1345524,2.837592 -4e-7,0 -4e-7,0 -4e-7,0 -0.5079821,0.590086 -1.4642213,0.666608 -1.9748687,0.199639 0.5287582,0.326069 1.2462055,0.121597 1.5702851,-0.288591 0.041842,-0.04156 0.079462,-0.08658 0.111943,-0.134807 0.4857643,-0.603214 0.3594186,-1.599406 -0.074296,-2.305366 -10e-8,0 -10e-8,0 -10e-8,0 -1.4089532,-2.272798 -1.2397643,-5.211664 -0.3098958,-7.630024 z" inkscape:connector-curvature="0" />
      <path style="fill:#000000;fill-opacity:1;fill-rule:evenodd;stroke:none;stroke-width:0.89999998;stroke-linecap:round;stroke-linejoin:miter;stroke-miterlimit:4;stroke-dasharray:none;stroke-opacity:1" d="m 2.3835041,-104.06671 c 0.3174615,-0.24063 0.6405059,-0.47527 0.9692112,-0.70375 0.6369547,1.29737 2.1141119,2.13063 3.6421499,2.7018 1.3112305,0.45566 2.9095093,0.83787 3.7952238,2.02156 0,0 0,0 0,0 0.5932,0.800014 0.736953,1.955226 0.161314,2.691399 -0.466912,0.602328 -1.3710736,0.816403 -1.952572,0.446967 0.6368576,0.257218 1.383809,-0.137615 1.639232,-0.653144 -2e-6,3e-6 0.0051,-0.0078 0.0051,-0.0078 0.434378,-0.572556 0.19779,-1.510827 -0.294284,-2.118239 0,0 0,-10e-7 0,-10e-7 -0.7344896,-0.948692 -2.2010381,-1.119902 -3.6049445,-1.560132 -1.6380276,-0.45356 -3.3202746,-1.28178 -4.3604604,-2.81866 z" inkscape:connector-curvature="0" />
      <path style="fill:#000000;fill-opacity:1;fill-rule:evenodd;stroke:none;stroke-width:0.89999998;stroke-linecap:round;stroke-linejoin:miter;stroke-miterlimit:4;stroke-dasharray:none;stroke-opacity:1" d="m -3.2239027,-105.35575 -0.4962606,1.35092 c -1.0480932,-0.46063 -2.4787863,-0.29871 -3.5206168,0.38222 0,0 -3e-7,0 -3e-7,0 -1.3656955,0.93961 -2.9325976,1.77851 -4.6273276,1.94569 0,0 -1e-6,0 -1e-6,0 -0.765571,0.0695 -1.508698,-0.0986 -2.185433,-0.35854 -0.608035,-0.2156 -1.286316,-0.55176 -1.572326,-1.1699 0.158398,0.10812 0.317934,0.17056 0.477991,0.20184 0.313188,0.27579 0.779492,0.42426 1.22658,0.5645 0.660228,0.18101 1.343102,0.27459 1.967694,0.15219 0,0 10e-7,0 10e-7,0 1.508118,-0.2724 2.8419377,-1.18921 4.0822788,-2.18158 0,0 5e-7,0 5e-7,0 1.2448518,-1.01542 3.0322554,-1.4126 4.64742,-0.88734 z" inkscape:connector-curvature="0" />
      <path style="fill:#000000;fill-opacity:1;fill-rule:evenodd;stroke:none;stroke-width:0.89999998;stroke-linecap:round;stroke-linejoin:miter;stroke-miterlimit:4;stroke-dasharray:none;stroke-opacity:1" d="m 1.6621094,-103.86719 c -0.4185714,0.0443 -0.83767516,0.0868 -1.2558594,0.12696 0.25950609,1.60191 0.8206852,3.24717 1.9023438,4.556636 0.342343,0.41542 0.5590507,0.954197 0.4804687,1.44336 -0.025283,0.246453 -0.1119591,0.496485 -0.2246094,0.751953 0.1634384,0.135566 0.3491558,0.240365 0.546875,0.314453 0.1631599,-0.298951 0.302037,-0.612493 0.3789063,-0.960938 0.1468187,-0.721817 -0.060504,-1.49206 -0.5,-2.099609 -0.8380808,-1.188455 -1.181556,-2.668875 -1.328125,-4.132815 z" inkscape:connector-curvature="0" />
      <path style="fill:#000000;fill-opacity:1;fill-rule:evenodd;stroke:none;stroke-width:0.89999998;stroke-linecap:round;stroke-linejoin:miter;stroke-miterlimit:4;stroke-dasharray:none;stroke-opacity:1" d="m 2.0175781,-95.949219 c -0.1436635,0.248282 -0.2873481,0.51336 -0.3984375,0.822266 -0.027528,0.140925 -0.048361,0.286201 -0.056641,0.433594 -2.467e-4,0.681216 0.4247003,1.144359 0.9003906,1.335937 -0.4098373,-0.294911 -0.6597598,-0.801902 -0.5390625,-1.265625 0.1089883,-0.402944 0.3428298,-0.741718 0.578125,-1.082031 -0.1691941,-0.0673 -0.3310469,-0.147961 -0.484375,-0.244141 z" inkscape:connector-curvature="0" />
      <path style="fill:#000000;fill-opacity:1;fill-rule:evenodd;stroke:none;stroke-width:0.89999998;stroke-linecap:round;stroke-linejoin:miter;stroke-miterlimit:4;stroke-dasharray:none;stroke-opacity:1" d="m -0.60141829,-103.73449 c 0.41989804,0.0218 0.83993975,0.0419 1.26010131,0.06 -0.0659788,1.5874 0.0745189,3.19567 0.54825348,4.721421 0,0 3e-7,0 3e-7,0 0.2210797,0.697025 0.4978677,1.375404 0.9689598,1.905354 0,0 5e-7,0 5e-7,0 0.3845928,0.434985 0.9522601,0.744799 1.5524436,0.724004 1.1452221,-0.0092 1.9169042,-1.552437 1.4518695,-2.768928 0.3599911,0.495931 0.5141682,1.195943 0.3843301,1.874168 -0.2819051,0.74386 -0.8986219,1.34968 -1.7797763,1.509444 -0.8169383,0.06458 -1.5929088,-0.260511 -2.1406711,-0.80816 -0.6154334,-0.618165 -1.00944317,-1.374126 -1.28897248,-2.114375 1.1e-7,0 -2.1e-7,-10e-7 -2.1e-7,-10e-7 -0.63428047,-1.632007 -0.9178233,-3.376937 -0.9565385,-5.102977 z" inkscape:connector-curvature="0" />
      <path style="fill:#000000;fill-opacity:1;fill-rule:evenodd;stroke:none;stroke-width:0.89999998;stroke-linecap:round;stroke-linejoin:miter;stroke-miterlimit:4;stroke-dasharray:none;stroke-opacity:1" d="m -3.3945312,-104.69922 c -0.3552481,1.42085 -1.0184522,2.85835 -2.2050782,3.54883 -0.032141,0.0187 -0.080618,0.0419 -0.1152344,0.0625 0.031118,0.13229 0.066803,0.26506 0.078125,0.39648 0.014507,0.1684 0.00634,0.33743 -0.00195,0.50586 0.1820691,-0.0904 0.3573596,-0.19054 0.5039063,-0.29687 1.372379,-0.86601 2.2647831,-2.35534 2.7050781,-3.9082 -0.321271,-0.10556 -0.6428638,-0.2091 -0.9648437,-0.3086 z" inkscape:connector-curvature="0" />
      <path style="fill:#000000;fill-opacity:1;fill-rule:evenodd;stroke:none;stroke-width:0.89999998;stroke-linecap:round;stroke-linejoin:miter;stroke-miterlimit:4;stroke-dasharray:none;stroke-opacity:1" d="m -6.8574219,-102.06641 c -0.092115,-0.0108 -0.1890786,-0.0102 -0.2910156,0.01 -0.418133,0.0808 -0.80098,0.41965 -0.8750005,0.85742 -0.06307,0.373 0.0048,0.78465 0.3886724,1.06445 0.3364651,0.245274 0.7423581,0.290742 1.1484375,0.22852 -0.00622,-0.17417 -0.017944,-0.33714 -0.03125,-0.48047 -0.00651,-0.0701 -0.03744,-0.18008 -0.0625,-0.28125 -0.1991158,0.0605 -0.3975277,0.0949 -0.5761719,0.041 -0.152411,-0.046 -0.2709456,-0.30962 -0.1972656,-0.49219 0.026637,-0.066 0.0676,-0.12052 0.1113281,-0.16797 0.014137,-0.015 0.029411,-0.0282 0.044922,-0.041 0.032512,-0.0274 0.068145,-0.0477 0.1054687,-0.0645 0.020292,-0.009 0.039261,-0.0199 0.060547,-0.0254 0.053423,-0.0142 0.1092213,-0.0193 0.1660156,-0.01 0.074812,0.0126 0.1488622,0.0453 0.2207032,0.10546 0.198543,0.16628 0.3222775,0.70139 0.3359374,0.88672 0.040162,0.545023 0.1414044,1.206348 -0.2597656,2.146488 0.546965,-0.610901 0.7818213,-1.516606 0.7070313,-2.384768 -0.031496,-0.36561 -0.1332691,-0.73326 -0.3613281,-1.0332 -0.043291,-0.0569 -0.096805,-0.11122 -0.1582032,-0.16016 -0.063737,-0.0508 -0.1366607,-0.0942 -0.2167968,-0.1289 -0.079938,-0.0346 -0.1666628,-0.0594 -0.2597657,-0.0703 z" inkscape:connector-curvature="0" />
      <ellipse cx="0.282143" cy="-107.896100" rx="0.508233" ry="0.861786" style="fill:#000000;fill-opacity:1;fill-rule:evenodd;stroke:none;stroke-width:0.89999998;stroke-linecap:round;stroke-linejoin:miter;stroke-miterlimit:4;stroke-dasharray:none;stroke-opacity:1" />
      <ellipse cx="-1.629467" cy="-107.984500" rx="0.508233" ry="0.861786" style="fill:#000000;fill-opacity:1;fill-rule:evenodd;stroke:none;stroke-width:0.89999998;stroke-linecap:round;stroke-linejoin:miter;stroke-miterlimit:4;stroke-dasharray:none;stroke-opacity:1" />
      <path style="color:#000000;clip-rule:nonzero;display:inline;overflow:visible;visibility:visible;opacity:1;isolation:auto;mix-blend-mode:normal;color-interpolation:sRGB;color-interpolation-filters:linearRGB;solid-color:#000000;solid-opacity:1;fill:#ffffff;fill-opacity:1;fill-rule:evenodd;stroke:#000000;stroke-width:0.72000003;stroke-linecap:round;stroke-linejoin:miter;stroke-miterlimit:4;stroke-dasharray:none;stroke-dashoffset:0;stroke-opacity:1;color-rendering:auto;image-rendering:auto;shape-rendering:auto;text-rendering:auto;enable-background:accumulate" d="m 16.079505,-112.80178 c 0,0 -0.534036,-1.98412 -1.352253,-2.375 -1.083027,-0.51738 -2.029029,0.0701 -1.654029,0.82009 0.375,0.75 2.381282,1.33616 3.006282,1.55491 z" inkscape:connector-curvature="0" />
      <path style="color:#000000;clip-rule:nonzero;display:inline;overflow:visible;visibility:visible;opacity:1;isolation:auto;mix-blend-mode:normal;color-interpolation:sRGB;color-interpolation-filters:linearRGB;solid-color:#000000;solid-opacity:1;fill:#ffffff;fill-opacity:1;fill-rule:evenodd;stroke:#000000;stroke-width:0.72000003;stroke-linecap:round;stroke-linejoin:miter;stroke-miterlimit:4;stroke-dasharray:none;stroke-dashoffset:0;stroke-opacity:1;color-rendering:auto;image-rendering:auto;shape-rendering:auto;text-rendering:auto;enable-background:accumulate" d="m -15.544194,-112.67678 c 0,0 -0.104921,-1.79881 0.731694,-2.49777 0.96875,-0.80936 1.875,-0.15625 1.59375,0.53125 -0.28125,0.6875 -1.825444,1.62277 -2.325444,1.96652 z" inkscape:connector-curvature="0" />
    </g>
  </g>
</g>
<g inkscape:groupmode="layer" id="extras_layer" inkscape:label="Extras" style="display:inline" sodipodi:insensitive="true" >
  <g id="extra-ship" transform="matrix(0.4444171,-0.89581998,0.89581998,0.4444171,266.30938,417.60566)" >
    <path style="color:#000000;fill:url(#gradientShip);fill-opacity:1;fill-rule:evenodd;stroke:#000000;stroke-width:0.75;stroke-linecap:butt;stroke-linejoin:round;stroke-miterlimit:4;stroke-dasharray:none;stroke-dashoffset:0;stroke-opacity:1;marker:none;enable-background:accumulate" d="m 243.2364,-52.722824 c -3.10208,-2.937202 -8.72518,-3.346714 -12.49116,-3.032742 -2.95307,0.246202 -6.62512,1.070872 -6.62512,1.070872 l -0.0121,3.725952 c 0,0 2.43298,0.582421 6.39007,0.932887 3.66202,0.324334 9.61676,-0.283241 12.73834,-2.696969 z" inkscape:connector-curvature="0" />
    <path style="color:#000000;opacity:1;isolation:auto;mix-blend-mode:normal;color-interpolation:sRGB;color-interpolation-filters:linearRGB;solid-color:#000000;solid-opacity:1;fill:#000000;fill-opacity:1;fill-rule:evenodd;stroke:none;stroke-width:0.75;stroke-linecap:round;stroke-linejoin:round;stroke-miterlimit:4;stroke-dasharray:none;stroke-dashoffset:0;stroke-opacity:1;marker:none;color-rendering:auto;image-rendering:auto;shape-rendering:auto;text-rendering:auto;enable-background:accumulate" d="m 243.05273,-53.089844 c -0.50461,-0.01007 -0.51271,0.749303 -0.008,0.75 l 2.80546,-0.143551 c 0.50461,0.01007 0.51856,-0.385922 0.0138,-0.386619 z" inkscape:connector-curvature="0" />
    <circle cx="37.651787" cy="-233.087830" r="0.695206" style="color:#000000;opacity:1;isolation:auto;mix-blend-mode:normal;color-interpolation:sRGB;color-interpolation-filters:linearRGB;solid-color:#000000;solid-opacity:1;fill:#a66e00;fill-opacity:1;fill-rule:nonzero;stroke:#000000;stroke-width:0.5;stroke-linecap:butt;stroke-linejoin:miter;stroke-miterlimit:4;stroke-dasharray:none;stroke-dashoffset:0;stroke-opacity:1;color-rendering:auto;image-rendering:auto;shape-rendering:auto;text-rendering:auto;enable-background:accumulate" transform="matrix(0.37654483,0.9263984,-0.9263984,0.37654483,0,0)" />
    <circle cx="39.995537" cy="-238.712830" r="0.695206" style="color:#000000;opacity:1;isolation:auto;mix-blend-mode:normal;color-interpolation:sRGB;color-interpolation-filters:linearRGB;solid-color:#000000;solid-opacity:1;fill:#a66e00;fill-opacity:1;fill-rule:nonzero;stroke:#000000;stroke-width:0.5;stroke-linecap:butt;stroke-linejoin:miter;stroke-miterlimit:4;stroke-dasharray:none;stroke-dashoffset:0;stroke-opacity:1;color-rendering:auto;image-rendering:auto;shape-rendering:auto;text-rendering:auto;enable-background:accumulate" transform="matrix(0.37654483,0.9263984,-0.9263984,0.37654483,0,0)" />
    <path style="color:#000000;fill:#feffff;fill-opacity:1;fill-rule:evenodd;stroke:#000000;stroke-width:0.5;stroke-linecap:butt;stroke-linejoin:round;stroke-miterlimit:4;stroke-dasharray:none;stroke-dashoffset:0;stroke-opacity:1;marker:none;enable-background:accumulate" d="m 230.8139,-58.168744 -0.0696,11.095953 c 0,0 1.11273,-0.901569 1.17305,-2.014949 0.0592,-1.093696 -0.80015,-1.762231 -0.80015,-1.762231 0,0 1.00218,-0.841738 0.9922,-1.921676 -0.0106,-1.140901 -0.9468,-1.722391 -0.9468,-1.722391 0,0 0.80027,-0.5343 0.83406,-1.646805 0.0349,-1.150244 -1.18274,-2.027894 -1.18274,-2.027894 z" inkscape:connector-curvature="0" />
    <path style="color:#000000;fill:#feffff;fill-opacity:1;fill-rule:evenodd;stroke:#000000;stroke-width:0.5;stroke-linecap:butt;stroke-linejoin:round;stroke-miterlimit:4;stroke-dasharray:none;stroke-dashoffset:0;stroke-opacity:1;marker:none;enable-background:accumulate" d="m 236.95087,-57.97366 -0.0645,10.282469 c 0,0 1.03677,-0.785137 1.09267,-1.816887 0.0549,-1.013517 -0.74706,-1.683399 -0.74706,-1.683399 0,0 0.85887,-0.76153 0.84962,-1.762298 -0.01,-1.057255 -0.80754,-1.614603 -0.80754,-1.614603 0,0 0.84013,-0.540128 0.87144,-1.571079 0.0324,-1.065902 -1.19455,-1.834218 -1.19455,-1.834218 z" inkscape:connector-curvature="0" />
    <path style="fill:#000000;stroke:none" d="m 239.16963,-53.312319 -0.0111,0.999645 1.00145,0.01039 0.009,-1.000718 z" inkscape:connector-curvature="0" />
    <path style="fill:#6a4600;stroke:none" d="m 233.00825,-53.641515 -0.0131,1.52646 1.52369,0.01423 0.0142,-1.523703 z" inkscape:connector-curvature="0" />
    <path style="fill:none;stroke:#000000;stroke-width:0.6;stroke-linecap:butt" d="m 227.26126,-55.055042 -0.0734,4.514141" inkscape:connector-curvature="0" />
    <path style="fill:#000000;stroke:none" d="m 223.83649,-54.026834 -0.0111,0.999636 1.00072,0.0086 0.009,-0.998911 z" inkscape:connector-curvature="0" />
    <path style="fill:#000000;stroke:none" d="m 223.85032,-52.581947 -0.0111,0.999637 1.00072,0.0086 0.009,-0.998912 z" inkscape:connector-curvature="0" />
    <path style="fill:none;stroke:#000000;stroke-width:0.5;stroke-linecap:butt;stroke-linejoin:round;stroke-miterlimit:4" d="m 227.2539,-51.578825 1.14997,0.173504 -0.0116,1.05042" inkscape:connector-curvature="0" />
    <path style="fill:none;stroke:#000000;stroke-width:0.5;stroke-linecap:butt;stroke-linejoin:round;stroke-miterlimit:4" d="m 227.25705,-54.143799 1.1481,-0.163064 0.0224,-1.189753" inkscape:connector-curvature="0" />
  </g>
</g>
<g inkscape:groupmode="layer" id="suit_rank_glow_layer" inkscape:label="Suit Rank Glow" style="display:inline" sodipodi:insensitive="true" >
  <g style="opacity:0.75;filter:url(#blurSuitRankGlow)" >
    <path style="fill:#ffffff;fill-opacity:1;stroke:none" d="m 31.453338,20.628773 c -3.90158,4.19568 -7.07982,7.84109 -10.6575,12.24125 3.57768,4.40016 6.75592,8.045575 10.6575,12.241254 3.90158,-4.195679 7.07982,-7.841094 10.6575,-12.241254 -3.57768,-4.40016 -6.75592,-8.04557 -10.6575,-12.241251 z" inkscape:connector-curvature="0" />
    <path style="fill:#ffffff;fill-opacity:1;stroke:none" d="m 215.96335,316.87128 c 3.90158,-4.19568 7.07982,-7.84109 10.6575,-12.24125 -3.57768,-4.40016 -6.75592,-8.04557 -10.6575,-12.24125 -3.90158,4.19568 -7.07982,7.84109 -10.6575,12.24125 3.57768,4.40016 6.75592,8.04557 10.6575,12.24125 z" inkscape:connector-curvature="0" />
    <path style="fill:#ffffff;fill-opacity:1;stroke:none" d="m 21.873333,50.875025 c -10e-6,0 0.10666,0 0.32,0 0.23999,0 0.54666,0 0.91999,0 0.37334,0 0.8,0 1.28001,0 0.47999,0 0.97332,0 1.48,0 l 4,0 0,3.2 -2.4,0 0,12.04 7.84,-12.04 -2.24,0 0,-3.2 8,0 0,3.2 -2.08,0 -6.6,10.12 6.39999,15.48 2.28001,0 0,3.2 -8,0 0,-3.2 2.27999,0 -5.07999,-12.2 -2.8,4.32 0,7.88 2.4,0 0,3.2 -8,0 0,-3.2 2.4,0 0,-25.6 -2.4,0 0,-1.6 c -10e-6,-0.4 -0.0133,-0.76 -0.04,-1.08 -10e-6,-0.3466 0.0133,-0.52 0.04,-0.52" inkscape:connector-curvature="0" />
    <path style="fill:#ffffff;fill-opacity:1;stroke:none" d="m 225.54334,286.62502 c 1e-5,0 -0.10666,0 -0.32,0 -0.23999,0 -0.54666,0 -0.91999,0 -0.37334,0 -0.8,0 -1.28001,0 -0.47999,0 -0.97332,0 -1.48,0 l -4,0 0,-3.2 2.4,0 0,-12.04 -7.84,12.04 2.24,0 0,3.2 -8,0 0,-3.2 2.08,0 6.6,-10.12 -6.39999,-15.48 -2.28001,0 0,-3.2 8,0 0,3.2 -2.27999,0 5.07999,12.2 2.8,-4.32 0,-7.88 -2.4,0 0,-3.2 8,0 0,3.2 -2.4,0 0,25.6 2.4,0 0,1.60001 c 1e-5,0.39999 0.0133,0.76 0.04,1.07999 1e-5,0.34661 -0.0133,0.52 -0.04,0.52" inkscape:connector-curvature="0" />
  </g>
</g>
<g inkscape:groupmode="layer" id="suit_rank_layer" inkscape:label="Suit Rank" style="display:inline" sodipodi:insensitive="true" >
  <path style="fill:#de0000;fill-opacity:1;stroke:none" d="m 31.453338,20.628773 c -3.90158,4.19568 -7.07982,7.84109 -10.6575,12.24125 3.57768,4.40016 6.75592,8.045575 10.6575,12.241254 3.90158,-4.195679 7.07982,-7.841094 10.6575,-12.241254 -3.57768,-4.40016 -6.75592,-8.04557 -10.6575,-12.241251 z" inkscape:connector-curvature="0" />
  <path style="fill:#de0000;fill-opacity:1;stroke:none" d="m 215.96335,316.87128 c 3.90158,-4.19568 7.07982,-7.84109 10.6575,-12.24125 -3.57768,-4.40016 -6.75592,-8.04557 -10.6575,-12.24125 -3.90158,4.19568 -7.07982,7.84109 -10.6575,12.24125 3.57768,4.40016 6.75592,8.04557 10.6575,12.24125 z" inkscape:connector-curvature="0" />
  <path style="fill:#de0000;fill-opacity:1;stroke:none" d="m 21.873333,50.875025 c -10e-6,0 0.10666,0 0.32,0 0.23999,0 0.54666,0 0.91999,0 0.37334,0 0.8,0 1.28001,0 0.47999,0 0.97332,0 1.48,0 l 4,0 0,3.2 -2.4,0 0,12.04 7.84,-12.04 -2.24,0 0,-3.2 8,0 0,3.2 -2.08,0 -6.6,10.12 6.39999,15.48 2.28001,0 0,3.2 -8,0 0,-3.2 2.27999,0 -5.07999,-12.2 -2.8,4.32 0,7.88 2.4,0 0,3.2 -8,0 0,-3.2 2.4,0 0,-25.6 -2.4,0 0,-1.6 c -10e-6,-0.4 -0.0133,-0.76 -0.04,-1.08 -10e-6,-0.3466 0.0133,-0.52 0.04,-0.52" inkscape:connector-curvature="0" />
  <path style="fill:#de0000;fill-opacity:1;stroke:none" d="m 225.54334,286.62502 c 1e-5,0 -0.10666,0 -0.32,0 -0.23999,0 -0.54666,0 -0.91999,0 -0.37334,0 -0.8,0 -1.28001,0 -0.47999,0 -0.97332,0 -1.48,0 l -4,0 0,-3.2 2.4,0 0,-12.04 -7.84,12.04 2.24,0 0,3.2 -8,0 0,-3.2 2.08,0 6.6,-10.12 -6.39999,-15.48 -2.28001,0 0,-3.2 8,0 0,3.2 -2.27999,0 5.07999,12.2 2.8,-4.32 0,-7.88 -2.4,0 0,-3.2 8,0 0,3.2 -2.4,0 0,25.6 2.4,0 0,1.60001 c 1e-5,0.39999 0.0133,0.76 0.04,1.07999 1e-5,0.34661 -0.0133,0.52 -0.04,0.52" inkscape:connector-curvature="0" />
</g>
<g inkscape:groupmode="layer" id="guides_layer" inkscape:label="Guides" style="display:none" sodipodi:insensitive="true" >
  <path style="fill:none;stroke:#000000;stroke-width:0.9" d="m 11.250000,11.25 0,-45" inkscape:connector-curvature="0" />
  <path style="fill:none;stroke:#000000;stroke-width:0.9" d="m 11.250000,371.25 0,-45" inkscape:connector-curvature="0" />
  <path style="fill:none;stroke:#000000;stroke-width:0.9" d="m 84.375000,11.25 0,-45" inkscape:connector-curvature="0" />
  <path style="fill:none;stroke:#000000;stroke-width:0.9" d="m 84.375000,371.25 0,-45" inkscape:connector-curvature="0" />
  <path style="fill:none;stroke:#000000;stroke-width:0.9" d="m 123.750000,11.25 0,-45" inkscape:connector-curvature="0" />
  <path style="fill:none;stroke:#000000;stroke-width:0.9" d="m 123.750000,371.25 0,-45" inkscape:connector-curvature="0" />
  <path style="fill:none;stroke:#000000;stroke-width:0.9" d="m 163.125000,11.25 0,-45" inkscape:connector-curvature="0" />
  <path style="fill:none;stroke:#000000;stroke-width:0.9" d="m 163.125000,371.25 0,-45" inkscape:connector-curvature="0" />
  <path style="fill:none;stroke:#000000;stroke-width:0.9" d="m 236.250000,11.25 0,-45" inkscape:connector-curvature="0" />
  <path style="fill:none;stroke:#000000;stroke-width:0.9" d="m 236.250000,371.25 0,-45" inkscape:connector-curvature="0" />
  <path style="fill:none;stroke:#000000;stroke-width:0.9" d="m -33.75,11.250000 45,0" inkscape:connector-curvature="0" />
  <path style="fill:none;stroke:#000000;stroke-width:0.9" d="m 236.25,11.250000 45,0" inkscape:connector-curvature="0" />
  <path style="fill:none;stroke:#000000;stroke-width:0.9" d="m -33.75,118.125000 45,0" inkscape:connector-curvature="0" />
  <path style="fill:none;stroke:#000000;stroke-width:0.9" d="m 236.25,118.125000 45,0" inkscape:connector-curvature="0" />
  <path style="fill:none;stroke:#000000;stroke-width:0.9" d="m -33.75,168.750000 45,0" inkscape:connector-curvature="0" />
  <path style="fill:none;stroke:#000000;stroke-width:0.9" d="m 236.25,168.750000 45,0" inkscape:connector-curvature="0" />
  <path style="fill:none;stroke:#000000;stroke-width:0.9" d="m -33.75,219.375000 45,0" inkscape:connector-curvature="0" />
  <path style="fill:none;stroke:#000000;stroke-width:0.9" d="m 236.25,219.375000 45,0" inkscape:connector-curvature="0" />
  <path style="fill:none;stroke:#000000;stroke-width:0.9" d="m -33.75,326.250000 45,0" inkscape:connector-curvature="0" />
  <path style="fill:none;stroke:#000000;stroke-width:0.9" d="m 236.25,326.250000 45,0" inkscape:connector-curvature="0" />
  <g id="guide-short0-0" >
    <rect x="0.000000" y="-22.500000" width="247.500000" height="22.500000" style="fill:#73baff;stroke:#000000;stroke-width:0.9" />
  </g>
  <g id="guide-long1-0" >
    <rect x="247.500000" y="0.000000" width="22.500000" height="337.500000" style="fill:#73baff;stroke:#000000;stroke-width:0.9" />
  </g>
  <g id="guide-short2-3" transform="matrix(-1,0,0,1,247.5,360)" >
    <rect x="84.375000" y="-22.500000" width="163.125000" height="22.500000" style="fill:#ffd291;stroke:#000000;stroke-width:0.9" />
    <rect x="101.250000" y="-22.500000" width="146.250000" height="22.500000" style="fill:#b4e982;stroke:#000000;stroke-width:0.9" />
    <rect x="213.750000" y="-22.500000" width="33.750000" height="22.500000" style="fill:#5adc4f;stroke:#000000;stroke-width:0.9" />
    <rect x="168.750000" y="-22.500000" width="33.750000" height="22.500000" style="fill:#5adc4f;stroke:#000000;stroke-width:0.9" />
    <rect x="118.125000" y="-22.500000" width="39.375000" height="22.500000" style="fill:#5adc4f;stroke:#000000;stroke-width:0.9" />
    <rect x="0.000000" y="-22.500000" width="84.375000" height="22.500000" style="fill:#b9deff;stroke:#000000;stroke-width:0.9" />
    <rect x="0.000000" y="-22.500000" width="61.875000" height="22.500000" style="fill:#9bceff;stroke:#000000;stroke-width:0.9" />
    <rect x="0.000000" y="-22.500000" width="33.750000" height="22.500000" style="fill:#73baff;stroke:#000000;stroke-width:0.9" />
  </g>
  <g id="guide-long3-6" transform="matrix(1,0,0,-1,-270,337.5)" >
    <rect x="247.500000" y="0.000000" width="22.500000" height="219.375000" style="fill:#ffd291;stroke:#000000;stroke-width:0.9" />
    <rect x="247.500000" y="0.000000" width="22.500000" height="213.750000" style="fill:#b4e982;stroke:#000000;stroke-width:0.9" />
    <rect x="247.500000" y="0.000000" width="22.500000" height="112.500000" style="fill:#5adc4f;stroke:#000000;stroke-width:0.9" />
    <rect x="247.500000" y="123.750000" width="22.500000" height="61.875000" style="fill:#5adc4f;stroke:#000000;stroke-width:0.9" />
    <rect x="247.500000" y="219.375000" width="22.500000" height="118.125000" style="fill:#b9deff;stroke:#000000;stroke-width:0.9" />
    <rect x="247.500000" y="253.125000" width="22.500000" height="84.375000" style="fill:#9bceff;stroke:#000000;stroke-width:0.9" />
    <rect x="247.500000" y="286.875000" width="22.500000" height="50.625000" style="fill:#73baff;stroke:#000000;stroke-width:0.9" />
  </g>
</g>
<g inkscape:groupmode="layer" id="cut_line_layer" inkscape:label="Cut Line" style="display:none" sodipodi:insensitive="true" >
  <rect style="fill:none;stroke:#000000;stroke-width:0.5;stroke-linecap:butt;stroke-linejoin:bevel;stroke-miterlimit:4;stroke-dasharray:none;stroke-opacity:1" width="225" height="315" x="11.25" y="11.25" ry="17.361111" />
</g>
<g inkscape:groupmode="layer" id="page_border_layer" inkscape:label="Page Border" style="display:none" sodipodi:insensitive="true" >
  <rect style="fill:none;stroke:#000000;stroke-width:0.5;stroke-linecap:butt;stroke-linejoin:bevel;stroke-miterlimit:4;stroke-dasharray:none;stroke-opacity:1" width="247.5" height="337.5" x="0" y="0" />
</g>

</svg>
