<?xml version="1.0" encoding="UTF-8" standalone="no"?>
<svg version="1.1" height="337.5" width="247.5" xmlns:rdf="http://www.w3.org/1999/02/22-rdf-syntax-ns#" xmlns="http://www.w3.org/2000/svg" xmlns:cc="http://creativecommons.org/ns#" xmlns:xlink="http://www.w3.org/1999/xlink" xmlns:dc="http://purl.org/dc/elements/1.1/" xmlns:sodipodi="http://sodipodi.sourceforge.net/DTD/sodipodi-0.dtd" xmlns:svg="http://www.w3.org/2000/svg" xmlns:inkscape="http://www.inkscape.org/namespaces/inkscape">
<metadata>
  <rdf:RDF>
    <cc:Work rdf:about="">
      <dc:format>image/svg+xml</dc:format>
      <dc:type rdf:resource="http://purl.org/dc/dcmitype/StillImage"/>
      <dc:title/>
      <dc:creator>
        <cc:Agent><dc:title>Gary Kacmarcik</dc:title></cc:Agent>
      </dc:creator>
    </cc:Work>
  </rdf:RDF>
</metadata>

<defs>
  <filter inkscape:label="textureGrassBig" style="color-interpolation-filters:sRGB" id="textureGrassBig">
    <feTurbulence numOctaves="2" seed="713" type="turbulence" baseFrequency="0.070000" result="result1" />
    <feColorMatrix result="result0" in="SourceGraphic" type="luminanceToAlpha" />
    <feColorMatrix result="result2" values="1 0 0 0 0 0 1 0 0 0 0 0 1 0 0 0 0 0 0.4 0 " />
    <feComposite in="result2" operator="over" in2="result1" />
    <feColorMatrix result="result91" values="1 0 0 0 0 0 1 0 0 0 0 0 1 0 0 0 0 0 10 -4 " />
    <feComposite operator="out" in="SourceGraphic" in2="result91" />
    <feGaussianBlur stdDeviation="2.500000" />
    <feColorMatrix values="1 0 0 0 0 0 1 0 0 0 0 0 1 0 0 0 0 0 1 0 " />
  </filter>
  <filter inkscape:label="textureGrassSmall" style="color-interpolation-filters:sRGB" id="textureGrassSmall">
    <feTurbulence numOctaves="4" seed="713" type="turbulence" baseFrequency="0.500000" result="result1" />
    <feColorMatrix result="result0" in="SourceGraphic" type="luminanceToAlpha" />
    <feColorMatrix result="result2" values="1 0 0 0 0 0 1 0 0 0 0 0 1 0 0 0 0 0 0.4 0 " />
    <feComposite in="result2" operator="over" in2="result1" />
    <feColorMatrix result="result91" values="1 0 0 0 0 0 1 0 0 0 0 0 1 0 0 0 0 0 10 -4 " />
    <feComposite operator="out" in="SourceGraphic" in2="result91" />
    <feGaussianBlur stdDeviation="1.000000" />
    <feColorMatrix values="1 0 0 0 0 0 1 0 0 0 0 0 1 0 0 0 0 0 1 0 " />
  </filter>
  <filter inkscape:label="textureLand" style="color-interpolation-filters:sRGB" id="textureLand">
    <feTurbulence numOctaves="4" seed="713" type="turbulence" baseFrequency="0.500000" result="result1" />
    <feColorMatrix result="result0" in="SourceGraphic" type="luminanceToAlpha" />
    <feColorMatrix result="result2" values="1 0 0 0 0 0 1 0 0 0 0 0 1 0 0 0 0 0 0.4 0 " />
    <feComposite in="result2" operator="over" in2="result1" />
    <feColorMatrix result="result91" values="1 0 0 0 0 0 1 0 0 0 0 0 1 0 0 0 0 0 10 -4 " />
    <feComposite operator="out" in="SourceGraphic" in2="result91" />
    <feGaussianBlur stdDeviation="0.800000" />
    <feColorMatrix values="1 0 0 0 0 0 1 0 0 0 0 0 1 0 0 0 0 0 1 0 " />
  </filter>
  <filter inkscape:label="textureForestBig" style="color-interpolation-filters:sRGB" id="textureForestBig">
    <feTurbulence numOctaves="2" seed="713" type="turbulence" baseFrequency="0.300000" result="result1" />
    <feColorMatrix result="result0" in="SourceGraphic" type="luminanceToAlpha" />
    <feColorMatrix result="result2" values="1 0 0 0 0 0 1 0 0 0 0 0 1 0 0 0 0 0 0.4 0 " />
    <feComposite in="result2" operator="over" in2="result1" />
    <feColorMatrix result="result91" values="1 0 0 0 0 0 1 0 0 0 0 0 1 0 0 0 0 0 10 -4 " />
    <feComposite operator="out" in="SourceGraphic" in2="result91" />
    <feGaussianBlur stdDeviation="2.000000" />
    <feColorMatrix values="1 0 0 0 0 0 1 0 0 0 0 0 1 0 0 0 0 0 1 0 " />
  </filter>
  <filter inkscape:label="textureForestSmall" style="color-interpolation-filters:sRGB" id="textureForestSmall">
    <feTurbulence numOctaves="4" seed="713" type="turbulence" baseFrequency="0.350000" result="result1" />
    <feColorMatrix result="result0" in="SourceGraphic" type="luminanceToAlpha" />
    <feColorMatrix result="result2" values="1 0 0 0 0 0 1 0 0 0 0 0 1 0 0 0 0 0 0.4 0 " />
    <feComposite in="result2" operator="over" in2="result1" />
    <feColorMatrix result="result91" values="1 0 0 0 0 0 1 0 0 0 0 0 1 0 0 0 0 0 10 -4 " />
    <feComposite operator="out" in="SourceGraphic" in2="result91" />
    <feGaussianBlur stdDeviation="1.000000" />
    <feColorMatrix values="1 0 0 0 0 0 1 0 0 0 0 0 1 0 0 0 0 0 1 0 " />
  </filter>
  <filter inkscape:label="roughenShoreline" style="color-interpolation-filters:sRGB" id="roughenShoreline">
    <feTurbulence numOctaves="4" seed="713" type="turbulence" baseFrequency="0.050000" result="turb" />
    <feDisplacementMap scale="6.600000" yChannelSelector="G" xChannelSelector="R" in="SourceGraphic" in2="turb" />
  </filter>
  <filter inkscape:label="roughenForest" style="color-interpolation-filters:sRGB" id="roughenForest">
    <feTurbulence numOctaves="4" seed="713" type="fractalNoise" baseFrequency="0.150000 0.150000" result="turb" />
    <feDisplacementMap scale="6.600000" yChannelSelector="G" xChannelSelector="R" in="SourceGraphic" in2="turb" />
  </filter>
  <filter inkscape:collect="always" inkscape:label="blurSuitRankGlow" style="color-interpolation-filters:sRGB" id="blurSuitRankGlow" x="-0.029025" y="-0.020458" width="1.058049" height="1.040917">
    <feGaussianBlur inkscape:collect="always" stdDeviation="2.515067" />
  </filter>
  <filter inkscape:collect="always" inkscape:label="blurWaterDeep" style="color-interpolation-filters:sRGB" id="blurWaterDeep" x="-0.056691" y="-0.041620" width="1.113381" height="1.083239">
    <feGaussianBlur inkscape:collect="always" stdDeviation="6.919136" />
  </filter>
  <filter inkscape:collect="always" inkscape:label="blurWaterShallow" style="color-interpolation-filters:sRGB" id="blurWaterShallow" x="-0.055818" y="-0.042103" width="1.111637" height="1.084205">
    <feGaussianBlur inkscape:collect="always" stdDeviation="6.561501" />
  </filter>
  <filter inkscape:collect="always" inkscape:label="blurWaterHilight" style="color-interpolation-filters:sRGB" id="blurWaterHilight" x="-0.071178" y="-0.051856" width="1.142356" height="1.103712">
    <feGaussianBlur inkscape:collect="always" stdDeviation="6.857532" />
  </filter>
  <filter inkscape:collect="always" inkscape:label="blurGrass" style="color-interpolation-filters:sRGB" id="blurGrass" x="-0.032100" y="-0.019164" width="1.064201" height="1.038328">
    <feGaussianBlur inkscape:collect="always" stdDeviation="2.386213" />
  </filter>
  <filter inkscape:collect="always" inkscape:label="blurForestShadow" style="color-interpolation-filters:sRGB" id="blurForestShadow" x="-0.033576" y="-0.018674" width="1.067152" height="1.037348">
    <feGaussianBlur inkscape:collect="always" stdDeviation="2.199785" />
  </filter>
  <filter inkscape:collect="always" inkscape:label="blurFlowerInner" style="color-interpolation-filters:sRGB" id="blurFlowerInner" x="-0.420000" y="-0.420000" width="1.840000" height="1.840000">
    <feGaussianBlur inkscape:collect="always" stdDeviation="1.605540" />
  </filter>
  <filter inkscape:collect="always" inkscape:label="blurFlowerMiddle" style="color-interpolation-filters:sRGB" id="blurFlowerMiddle" x="-0.240000" y="-0.240000" width="1.480000" height="1.480000">
    <feGaussianBlur inkscape:collect="always" stdDeviation="1.933705" />
  </filter>
  <linearGradient id="gradientStopsFish" inkscape:collect="always">
    <stop offset="0.000000" style="stop-color:#ff5555;stop-opacity:1.000000" />
    <stop offset="1.000000" style="stop-color:#ffffff;stop-opacity:1.000000" />
  </linearGradient>
  <linearGradient id="gradientStopsCoconut" inkscape:collect="always">
    <stop offset="0.000000" style="stop-color:#ffffff;stop-opacity:1.000000" />
    <stop offset="1.000000" style="stop-color:#c8c8c8;stop-opacity:0.000000" />
  </linearGradient>
  <linearGradient id="gradientStopsFlower" inkscape:collect="always">
    <stop offset="0.000000" style="stop-color:#b16dff;stop-opacity:1.000000" />
    <stop offset="1.000000" style="stop-color:#e7d2ff;stop-opacity:1.000000" />
  </linearGradient>
  <linearGradient id="gradientStopsJellyfish" inkscape:collect="always">
    <stop offset="0.000000" style="stop-color:#4f97ff;stop-opacity:1.000000" />
    <stop offset="1.000000" style="stop-color:#cfe3ff;stop-opacity:1.000000" />
  </linearGradient>
  <linearGradient id="gradientStopsShip" inkscape:collect="always">
    <stop offset="0.000000" style="stop-color:#b67800;stop-opacity:1.000000" />
    <stop offset="1.000000" style="stop-color:#d28b00;stop-opacity:1.000000" />
  </linearGradient>
  <linearGradient id="gradientFish" xlink:href="#gradientStopsFish" x1="178.789090" y1="-114.782830" x2="180.407300" y2="-103.782830" gradientTransform="translate(-178.76256,1.0606602)" gradientUnits="userSpaceOnUse" inkscape:collect="always" />
  <linearGradient id="gradientJellyfishTentacle1a" xlink:href="#gradientStopsJellyfish" x1="118.024030" y1="-110.827530" x2="121.753140" y2="-96.140030" gradientTransform="translate(-120,0)" gradientUnits="userSpaceOnUse" inkscape:collect="always" />
  <linearGradient id="gradientJellyfishTentacle1b" xlink:href="#gradientStopsJellyfish" x1="118.024030" y1="-110.827530" x2="121.753140" y2="-96.140030" gradientTransform="translate(-120,0)" gradientUnits="userSpaceOnUse" inkscape:collect="always" />
  <linearGradient id="gradientJellyfishTentacle2" xlink:href="#gradientStopsJellyfish" x1="118.218180" y1="-115.782610" x2="121.698270" y2="-97.813858" gradientTransform="translate(-120,0)" gradientUnits="userSpaceOnUse" inkscape:collect="always" />
  <linearGradient id="gradientJellyfishTentacle3" xlink:href="#gradientStopsJellyfish" x1="123.335370" y1="-114.610190" x2="116.678600" y2="-98.453941" gradientTransform="translate(-120,0)" gradientUnits="userSpaceOnUse" inkscape:collect="always" />
  <linearGradient id="gradientShip" xlink:href="#gradientStopsShip" x1="196.432910" y1="221.715270" x2="203.663250" y2="204.277770" gradientTransform="matrix(0.37654483,0.9263984,-0.9263984,0.37654483,355.66788,-318.43897)" gradientUnits="userSpaceOnUse" inkscape:collect="always" />
  <radialGradient id="gradientCoconut" xlink:href="#gradientStopsCoconut" cx="1.944096" cy="-60.612652" fx="1.944096" fy="-60.612652" r="6.723294" gradientUnits="userSpaceOnUse" gradientTransform="matrix(1.691364,-0.31394812,0.29762395,1.603419,17.826033,-7.042221)" inkscape:collect="always" />
  <radialGradient id="gradientFlower" xlink:href="#gradientStopsFlower" cx="60.884877" cy="-69.652750" fx="60.884877" fy="-69.652750" r="15.835310" gradientUnits="userSpaceOnUse" gradientTransform="matrix(0.8413905,0,0,0.87120012,-50.722984,-48.679159)" inkscape:collect="always" />
  <radialGradient id="gradientJellyfish" xlink:href="#gradientStopsJellyfish" cx="120.453410" cy="-112.943900" fx="120.453410" fy="-112.943900" r="10.580511" gradientUnits="userSpaceOnUse" gradientTransform="matrix(1.1662998,0.0435575,-0.04526952,1.2121402,-145.14628,17.080499)" inkscape:collect="always" />
</defs>

<sodipodi:namedview
    id="base"
    pagecolor="#ffffff"
    bordercolor="#666666"
    borderopacity="1.0"
    inkscape:pageopacity="0.0"
    inkscape:pageshadow="2"
    inkscape:zoom="2"
    inkscape:cx="115.37643"
    inkscape:cy="285.04449"
    inkscape:document-units="in"
    showgrid="true"
    units="in"
    inkscape:window-width="1392"
    inkscape:window-height="836"
    inkscape:window-x="39"
    inkscape:window-y="6"
    inkscape:window-maximized="0"
    inkscape:snap-grids="true"
    inkscape:snap-to-guides="true"
    inkscape:snap-nodes="true"
    inkscape:object-nodes="true"
    inkscape:snap-smooth-nodes="true"
    inkscape:snap-intersection-paths="true"
    inkscape:object-paths="true"
    inkscape:snap-bbox="true"
    inkscape:bbox-nodes="true"
    inkscape:snap-others="true"
    inkscape:bbox-paths="false"
    inkscape:snap-global="true" >
  <inkscape:grid
    type="xygrid"
    id="grid3051"
    empspacing="2"
    visible="true"
    enabled="true"
    snapvisiblegridlinesonly="true"
    spacingx="0.0625in"
    spacingy="0.0625in"
    dotted="false"
    units="in" />
</sodipodi:namedview>
<g inkscape:groupmode="layer" id="water_layer" inkscape:label="Water" style="display:inline" sodipodi:insensitive="true" >
  <rect id="water" style="fill:#b9deff;fill-opacity:1;stroke:none" x="0" y="0" width="247.5" height="337.5" />
</g>
<g inkscape:groupmode="layer" id="water_shallow_layer" inkscape:label="Water Shallow" style="display:inline" sodipodi:insensitive="true" >
  <path style="fill:#9bd1ff;fill-opacity:0.70;fill-rule:evenodd;stroke:none;filter:url(#blurWaterShallow)" d="m -11.25,-11.25 0,360 73.125,0 0,-22.5 c 0,0 -0.104628,-10.83864 -0.375,-16.25 -0.325319,-6.51108 -0.189211,-13.11393 -1.5,-19.5 -1.663779,-8.1058 -4.770133,-15.88159 -8,-23.5 -2.85128,-6.72542 -9.306873,-12.22809 -10,-19.5 -0.395357,-4.14787 0.998569,-8.66774 3.5,-12 2.609174,-3.47579 7.675487,-4.20062 11,-7 5.685791,-4.78767 10.898725,-10.30084 15,-16.5 5.061172,-7.65006 7.836324,-16.5907 11.5,-25 3.671529,-8.42733 8.330122,-16.56738 10.5,-25.5 2.290296,-9.42833 0.854907,-19.43796 2.5,-29 2.803331,-16.29425 5.70585,-32.926822 12.5,-48 4.53989,-10.071989 10.11941,-20.301301 18.5,-27.5 7.40875,-6.363912 16.73771,-12.205849 26.5,-12.5 6.27984,-0.18922 11.40581,5.472547 17.5,7 7.31974,1.834626 15.89636,-1.151908 22.5,2.5 6.33231,3.501859 7.90552,12.410571 13.5,17 5.35954,4.396692 12.14283,6.735589 18.5,9.5 3.49306,1.518955 10.75,3.875 10.75,3.875 l 22.5,0 0,-95.625 z" inkscape:connector-curvature="0" />
</g>
<g inkscape:groupmode="layer" id="water_deep_layer" inkscape:label="Water Deep" style="display:inline" sodipodi:insensitive="true" >
  <path style="fill:#87c8ff;fill-opacity:0.60;fill-rule:evenodd;stroke:none;filter:url(#blurWaterDeep)" d="m -11.25,-11.25 0,360 45,0 0,-22.5 c 0,0 3.341035,-19.16734 2.5,-28.75 C 35.095933,284.35069 28.088043,272.28366 26,259.25 24.111993,247.46497 22.053864,235.27557 24,223.5 25.706983,213.17149 31.874668,204.09991 35.75,194.375 39.877432,184.01746 46.504027,174.29881 48,163.25 49.270561,153.86601 46.29664,144.38042 45,135 43.50679,124.1975 38.114386,113.56682 39.5,102.75 41.161025,89.783174 47.293689,77.074067 55.625,67 61.62914,59.739905 70.961497,56.050745 78.75,50.75 89.392831,43.506641 99.026035,34.228664 111,29.5 c 12.85709,-5.077422 27.05712,-6.611096 40.875,-7 10.3121,-0.290234 20.78671,0.824852 30.75,3.5 8.2537,2.216121 16.13111,5.921693 23.5,10.25 6.81921,4.005439 11.38157,11.846444 18.875,14.375 3.55316,1.198966 11.25,0 11.25,0 l 22.5,0 0,-61.875 z" inkscape:connector-curvature="0" />
</g>
<g inkscape:groupmode="layer" id="water_hilight_layer" inkscape:label="Water Hilight" style="display:inline" sodipodi:insensitive="true" >
  <use xlink:href="#shoreline" height="100%" width="100%" x="0" y="0" style="display:inline;fill:#ffffff;fill-opacity:1;stroke:#ffffff;stroke-opacity:1;filter:url(#blurWaterHilight)" />
</g>
<g inkscape:groupmode="layer" id="land_layer" inkscape:label="Land" style="display:inline" sodipodi:insensitive="true" >
  <use xlink:href="#shoreline" height="100%" width="100%" x="0" y="0" style="display:inline;fill:#ffddab;fill-opacity:1;stroke:none;stroke-width:1;stroke-miterlimit:4;stroke-dasharray:none;stroke-opacity:1" />
</g>
<g inkscape:groupmode="layer" id="land_texture_layer" inkscape:label="Land Texture" style="display:inline" sodipodi:insensitive="true" >
  <use xlink:href="#shoreline" height="100%" width="100%" x="0" y="0" style="display:inline;fill:#ffca7d;fill-opacity:1;stroke:none;stroke-width:1;stroke-miterlimit:4;stroke-dasharray:none;stroke-opacity:1;filter:url(#textureLand)" />
</g>
<g inkscape:groupmode="layer" id="shoreline_layer" inkscape:label="Shoreline" style="display:inline" sodipodi:insensitive="true" >
  <use xlink:href="#shoreline" height="100%" width="100%" x="0" y="0" style="display:inline;fill:none;fill-opacity:1;stroke:#5f4c14;stroke-width:1;stroke-miterlimit:4;stroke-dasharray:none;stroke-opacity:1" />
</g>
<g inkscape:groupmode="layer" id="shoreline_master_layer" inkscape:label="Shoreline Master" style="display:none" sodipodi:insensitive="true" >
  <path id="shoreline" style="color:#000000;clip-rule:nonzero;display:inline;overflow:visible;visibility:visible;opacity:1;isolation:auto;mix-blend-mode:normal;color-interpolation:sRGB;color-interpolation-filters:linearRGB;solid-color:#000000;solid-opacity:1;fill-opacity:1;fill-rule:evenodd;filter:url(#roughenShoreline);color-rendering:auto;image-rendering:auto;shape-rendering:auto;text-rendering:auto;enable-background:accumulate" d="m 170.34375,80.724609 c -8.04158,2.461963 -14.72747,9.558969 -15.94706,17.981272 -0.79311,10.461039 1.33271,20.943029 0.0613,31.388949 -0.90552,11.43228 -3.1274,22.69919 -4.75686,34.03798 -0.68197,2.09419 0.95519,3.89661 1.75113,5.68817 1.69779,3.35535 1.5581,7.33335 0.47329,10.85222 -1.01525,4.98705 -1.65263,10.07026 -1.56621,15.16664 -0.39986,2.80487 -1.61146,5.50277 -3.53711,7.5918 -3.77817,1.71305 -8.06106,3.02554 -10.68676,6.45791 -4.81462,5.36343 -9.25655,11.38055 -11.15044,18.44205 -1.92412,5.79504 -3.93917,11.87437 -8.33468,16.31684 -4.73232,4.22948 -10.28963,7.85378 -16.60351,9.08984 -5.177341,-1.31436 -10.633726,-2.82799 -15.967704,-1.482 -3.041287,0.81261 -6.149577,2.47031 -9.368238,1.58942 -1.491408,-0.37453 -3.561884,-0.35209 -4.333985,1.24024 -0.899773,2.17961 0.52124,4.33467 1.197872,6.35563 2.023887,5.28968 5.145387,10.0468 7.964335,14.92611 2.606469,5.2397 2.50775,11.24893 2.540099,16.95844 -0.06673,7.72995 -0.21518,15.49666 0.864195,23.17282 0.813841,6.49655 1.447039,13.01484 1.798094,19.55355 0.377268,6.46253 0.557902,12.93544 0.608061,19.40845 -0.736983,2.50744 1.773867,5.17752 4.319392,4.71014 37.526519,1.4886 75.073529,2.48617 112.627299,2.91103 20.76732,0.16104 41.56295,-0.0559 62.27206,-1.75399 1.28257,0.13247 2.55642,-0.50078 3.20101,-1.61863 3.21288,-3.77681 4.04433,-8.9101 4.18371,-13.71614 1.72634,-25.5363 2.47799,-51.12523 3.13576,-76.70741 0.95483,-42.74721 0.75014,-85.55832 -2.10841,-128.23435 -0.55102,-6.08813 -1.19326,-12.16742 -1.81246,-18.24886 -2.02971,-4.01636 -6.81509,-6.02718 -11.16523,-5.52996 -12.22292,-0.0447 -24.44584,-0.0894 -36.66876,-0.1341 -3.88411,-1.44596 -7.76822,-2.89193 -11.65234,-4.33789 -2.5048,0.34651 -5.01646,0.8796 -7.55859,0.69727 -3.7835,-3.14934 -5.42783,-8.17766 -9.41016,-11.13282 -4.02519,-1.73303 -8.77121,-1.44999 -12.45703,-4.023433 -3.02432,-2.736232 -4.39602,-6.819314 -4.82031,-10.779297 -0.78615,-3.188608 -3.2755,-5.992624 -6.49024,-6.84375 -0.20052,0.002 -0.40104,0.0039 -0.60156,0.0059 z" inkscape:connector-curvature="0" />
</g>
<g inkscape:groupmode="layer" id="grass_layer" inkscape:label="Grass" style="display:inline" sodipodi:insensitive="true" >
  <use xlink:href="#grass" height="100%" width="100%" x="0" y="0" style="display:inline;fill:#b4e982;fill-opacity:1;stroke:none;stroke-width:1;stroke-miterlimit:4;stroke-dasharray:none;stroke-opacity:1" />
</g>
<g inkscape:groupmode="layer" id="grass_texture1_layer" inkscape:label="Grass Texture Big" style="display:inline" sodipodi:insensitive="true" >
  <use xlink:href="#grass" height="100%" width="100%" x="0" y="0" style="display:inline;fill:#a7e46a;fill-opacity:1;stroke:none;stroke-width:1;stroke-miterlimit:4;stroke-dasharray:none;stroke-opacity:1;filter:url(#textureGrassBig)" />
</g>
<g inkscape:groupmode="layer" id="grass_texture2_layer" inkscape:label="Grass Texture Small" style="display:inline" sodipodi:insensitive="true" >
  <use xlink:href="#grass" height="100%" width="100%" x="0" y="0" style="display:inline;fill:#8cdd3d;fill-opacity:1;stroke:none;stroke-width:1;stroke-miterlimit:4;stroke-dasharray:none;stroke-opacity:1;filter:url(#textureGrassSmall)" />
</g>
<g inkscape:groupmode="layer" id="grass_master_layer" inkscape:label="Grass Master" style="display:none" sodipodi:insensitive="true" >
  <path id="grass" style="color:#000000;clip-rule:nonzero;display:inline;overflow:visible;visibility:visible;opacity:1;isolation:auto;mix-blend-mode:normal;color-interpolation:sRGB;color-interpolation-filters:linearRGB;solid-color:#000000;solid-opacity:1;fill-opacity:1;fill-rule:evenodd;filter:url(#blurGrass);color-rendering:auto;image-rendering:auto;shape-rendering:auto;text-rendering:auto;enable-background:accumulate" d="m 168.75,90 c -4.5668,0.01473 -8.05544,5.461366 -9.625,9.75 -2.22629,6.08307 1.40859,12.89799 1.5,19.375 0.096,6.79916 -0.43439,13.59872 -1,20.375 -0.50254,6.02073 -1.59058,11.98202 -2.125,18 -0.49476,5.57135 -0.99755,11.15673 -1,16.75 -0.002,5.67646 1.58555,11.35382 1,17 -0.45877,4.42369 -1.06293,9.15476 -3.5,12.875 -4.45013,6.79321 -14.42901,8.53752 -19,15.25 -2.52949,3.71455 -2.59594,8.60595 -4,12.875 -2.30137,6.99731 -2.38901,15.34061 -7.25,20.875 -2.76679,3.15008 -7.14661,4.76459 -11.25,5.625 -6.4922,1.3613 -13.242009,-1.07189 -19.875,-1 -4.636724,0.0503 -11.125153,-2.73364 -13.875,1 -2.283573,3.10055 1.301467,7.63387 2.625,11.25 2.171262,5.93227 6.869642,10.80664 8.625,16.875 1.278833,4.42099 -0.02654,9.32835 1.25,13.75 1.323192,4.58324 4.781859,8.29973 6.5,12.75 1.601805,4.14894 3.5,12.875 3.5,12.875 l 0,22.5 157.5,0 0,-225 -22.5,0 c 0,0 -8.64464,-0.204 -12.875,-1 -5.22036,-0.98228 -10.37693,-2.51071 -15.25,-4.625 -6.49065,-2.81611 -12.33267,-6.94407 -18.375,-10.625 -3.29683,-2.0084 -6.74272,-3.82945 -9.75,-6.25 C 175.8687,97.924735 174.05327,89.982893 168.75,90 Z" inkscape:connector-curvature="0" />
</g>
<g inkscape:groupmode="layer" id="forest_shadow_layer" inkscape:label="Forest Shadow" style="display:inline" sodipodi:insensitive="true" >
  <g style="filter:url(#blurForestShadow)" >
    <use xlink:href="#forest" height="100%" width="100%" x="0" y="0" style="display:inline;opacity:0.75;fill:#258c1b;fill-opacity:1;filter:url(#roughenForest)" />
  </g>
</g>
<g inkscape:groupmode="layer" id="forest_fill_layer" inkscape:label="Forest Fill" style="display:inline" sodipodi:insensitive="true" >
  <use xlink:href="#forest" height="100%" width="100%" x="0" y="0" style="fill:#83d700;fill-opacity:1;stroke:none;stroke-width:1.5;stroke-miterlimit:4;stroke-dasharray:none;stroke-opacity:1;filter:url(#roughenForest)" />
</g>
<g inkscape:groupmode="layer" id="forest_texture_big_layer" inkscape:label="Forest Texture Big" style="display:inline" sodipodi:insensitive="true" >
  <g style="filter:url(#textureForestBig)" >
    <use xlink:href="#forest" height="100%" width="100%" x="0" y="0" style="fill:#548c00;fill-opacity:1;stroke:none;stroke-width:1.5;stroke-miterlimit:4;stroke-dasharray:none;stroke-opacity:1;filter:url(#roughenForest)" />
  </g>
</g>
<g inkscape:groupmode="layer" id="forest_texture_small_layer" inkscape:label="Forest Texture Small" style="display:inline" sodipodi:insensitive="true" >
  <g style="filter:url(#textureForestSmall)" >
    <use xlink:href="#forest" height="100%" width="100%" x="0" y="0" style="fill:#78c125;fill-opacity:1;stroke:none;stroke-width:1;stroke-miterlimit:4;stroke-dasharray:none;stroke-opacity:1;filter:url(#roughenForest)" />
  </g>
</g>
<g inkscape:groupmode="layer" id="forest_outline_layer" inkscape:label="Forest Outline" style="display:inline" sodipodi:insensitive="true" >
  <use xlink:href="#forest" height="100%" width="100%" x="0" y="0" style="fill:none;fill-opacity:1;stroke:#006800;stroke-width:1.5;stroke-miterlimit:4;stroke-dasharray:none;stroke-opacity:1;filter:url(#roughenForest)" />
</g>
<g inkscape:groupmode="layer" id="forest_master_layer" inkscape:label="Forest Master" style="display:none" sodipodi:insensitive="true" >
  <path id="forest" style="color:#000000;clip-rule:nonzero;display:inline;overflow:visible;visibility:visible;opacity:1;isolation:auto;mix-blend-mode:normal;color-interpolation:sRGB;color-interpolation-filters:linearRGB;solid-color:#000000;solid-opacity:1;fill-opacity:1;fill-rule:nonzero;color-rendering:auto;image-rendering:auto;shape-rendering:auto;text-rendering:auto;enable-background:accumulate" d="m 227.5,150.75 c -3.58985,0 -6.5,3.24594 -6.5,7.25 0,4.00406 2.91015,7.25 6.5,7.25 0.23832,-0.003 0.47631,-0.0206 0.71289,-0.0527 -0.13851,0.58855 -0.21003,1.19422 -0.21289,1.8027 0.002,0.3209 0.0239,0.64126 0.0644,0.95898 -1.23318,-1.71189 -3.09556,-2.70809 -5.0644,-2.70898 -3.58985,0 -6.5,3.24594 -6.5,7.25 0.003,2.04783 0.78168,3.99889 2.14453,5.37109 -0.33828,0.78594 -0.54669,1.6335 -0.61523,2.50196 -0.082,0.0598 -0.16272,0.12167 -0.24219,0.18554 -1.05798,-1.0363 -2.38905,-1.66139 -3.79297,-1.78125 -0.10783,-3.91431 -2.9831,-7.02566 -6.49414,-7.02734 -3.58985,0 -6.5,3.24594 -6.5,7.25 0.003,1.99018 0.73985,3.89136 2.03711,5.25781 -1.59856,1.37142 -2.53585,3.49277 -2.53711,5.74219 0.004,3.0449 1.71365,5.76245 4.2793,6.80273 0.74012,1.11681 1.75224,1.97302 2.91601,2.4668 -0.1273,0.56596 -0.19288,1.14698 -0.19531,1.73047 0,4.00406 2.91015,7.25 6.5,7.25 1.05527,-0.002 2.09431,-0.28994 3.02734,-0.83984 1.19478,2.08073 3.25737,3.33948 5.47266,3.33984 2.63757,-0.002 5.01268,-1.7812 6.01172,-4.50391 -0.005,0.0845 -0.009,0.1692 -0.0117,0.25391 0,4.00406 2.91015,7.25 6.5,7.25 0.55782,-0.001 1.11316,-0.0827 1.65234,-0.24219 0.88635,0.48544 1.86021,0.73926 2.84764,0.74219 0.41644,-0.002 0.83176,-0.0482 1.24023,-0.13867 0.41488,0.0918 0.8368,0.13827 1.25977,0.13867 1.48139,-6.7e-4 2.91813,-0.56571 4.07227,-1.60156 3.13179,-0.58425 5.42675,-3.60677 5.42773,-7.14844 -0.002,-2.73501 -1.38459,-5.23572 -3.57422,-6.4668 0.0468,-0.34198 0.0716,-0.68727 0.0742,-1.0332 -0.002,-0.73364 -0.10432,-1.46264 -0.30273,-2.16211 0.84259,-1.25125 1.2996,-2.773 1.30273,-4.33789 -3.7e-4,-0.42568 -0.0344,-0.8505 -0.10156,-1.26953 0.0652,-0.40619 0.0992,-0.81784 0.10156,-1.23047 -1.1e-4,-1.63616 -0.49641,-3.22417 -1.4082,-4.50586 0.90955,-1.27854 1.40572,-2.862 1.4082,-4.49414 -0.003,-2.51782 -1.17731,-4.85351 -3.10156,-6.16992 1.3375,-1.37109 2.09958,-3.30389 2.10156,-5.33008 -9.5e-4,-0.11335 -0.004,-0.22666 -0.01,-0.33984 3.1684,-0.54461 5.50768,-3.58446 5.51,-7.16016 -0.003,-2.55527 -1.21174,-4.9201 -3.18164,-6.22461 -1.09735,-2.46471 -3.35115,-4.02398 -5.81836,-4.02539 -1.31961,0.003 -2.60714,0.45403 -3.69141,1.29297 -0.58748,-0.19217 -1.19637,-0.2908 -1.80859,-0.29297 -0.24751,0.003 -0.49465,0.0221 -0.74023,0.0566 -0.25205,-0.0354 -0.50574,-0.0543 -0.75977,-0.0566 -1.74313,0.002 -3.41234,0.78566 -4.63281,2.17383 -1.20852,-1.98271 -3.21768,-3.17081 -5.36719,-3.17383 z m 1.33398,35.64258 c 0.28687,0.4221 0.61435,0.80787 0.97657,1.15039 C 229.22243,187.35059 228.61288,187.25196 228,187.25 l -0.0371,0.002 c 0.003,-0.0416 0.006,-0.0833 0.008,-0.125 0.30562,-0.21751 0.59438,-0.46316 0.86328,-0.73437 z m -11.62109,5.54883 c 0.3159,0.30965 0.658,0.58438 1.02149,0.82031 -0.39776,0.61374 -0.70684,1.2932 -0.91602,2.01367 -0.32313,-0.21398 -0.66229,-0.3963 -1.01367,-0.54492 0.1273,-0.56596 0.19288,-1.14698 0.19531,-1.73047 -5.6e-4,-0.0234 -0.001,-0.0469 -0.002,-0.0703 0.24745,-0.14544 0.48623,-0.30853 0.71484,-0.48828 z m 12.14453,9.64062 c 0.11728,0.22966 0.24573,0.452 0.38477,0.66602 -0.30413,0.46671 -0.55722,0.97224 -0.75391,1.50586 0.005,-0.0845 0.009,-0.1692 0.0117,-0.25391 -0.001,-0.61167 -0.0724,-1.22068 -0.21094,-1.8125 0.19076,-0.0258 0.3804,-0.061 0.56836,-0.10547 z M 235.5,226.25 c -3.58985,0 -6.5,3.24594 -6.5,7.25 8.6e-4,1.4109 0.3708,2.79085 1.06445,3.9707 0.009,0.0581 0.0189,0.11602 0.0293,0.17383 -0.67381,-0.25863 -1.38116,-0.39192 -2.09375,-0.39453 -3.35828,0.002 -6.16205,2.85777 -6.46875,6.58789 -1.09799,0.18358 -2.13552,0.67781 -3.01367,1.43555 -0.62142,-1.70198 -1.79911,-3.07723 -3.29492,-3.84766 -0.82153,-3.06895 -3.35116,-5.173 -6.22266,-5.17578 -3.58985,0 -6.5,3.24594 -6.5,7.25 0.003,2.82511 1.47738,5.39086 3.77734,6.57422 0.0798,0.29431 0.1764,0.58265 0.28907,0.86328 -1.00239,0.25257 -1.9368,0.76663 -2.72657,1.5 -0.65674,-3.31903 -3.29255,-5.68362 -6.33984,-5.6875 -3.58985,0 -6.5,3.24594 -6.5,7.25 0,4.00406 2.91015,7.25 6.5,7.25 1.12725,-0.003 2.23445,-0.33268 3.21289,-0.95703 -0.78696,1.22739 -1.21096,2.69807 -1.21289,4.20703 0,4.00406 2.91015,7.25 6.5,7.25 0.41377,-0.002 0.82645,-0.0475 1.23242,-0.13672 -0.15151,0.61477 -0.22966,1.24915 -0.23242,1.88672 0.003,2.06108 0.79177,4.02346 2.16992,5.39648 -0.83886,-0.42404 -1.74893,-0.6444 -2.66992,-0.64648 -3.58985,0 -6.5,3.24594 -6.5,7.25 0.003,1.53336 0.44222,3.02611 1.25391,4.26367 -0.0845,-0.006 -0.1692,-0.011 -0.25391,-0.0137 -3.58985,0 -6.5,3.24594 -6.5,7.25 7.8e-4,2.37373 1.04332,4.59669 2.79102,5.95117 0.1946,0.40202 0.42282,0.78261 0.68164,1.13672 -0.2455,0.14631 -0.48231,0.31006 -0.70899,0.49023 -1.22821,-1.48166 -2.95449,-2.32534 -4.76367,-2.32812 -3.58985,0 -6.5,3.24594 -6.5,7.25 0.002,0.74052 0.10644,1.47627 0.30859,2.18164 -2.58203,1.03132 -4.30587,3.75932 -4.30859,6.81836 0.001,0.0358 0.002,0.0716 0.004,0.10742 -0.0872,0.0305 -0.17381,0.0631 -0.25977,0.0977 -0.71818,-0.29807 -1.47795,-0.45215 -2.24423,-0.45512 -0.23037,10e-4 -0.46051,0.0163 -0.68945,0.0449 -0.70516,-3.2505 -3.31221,-5.54125 -6.31055,-5.54492 -3.58985,0 -6.5,3.24594 -6.5,7.25 0.001,2.6783 1.32576,5.13781 3.44531,6.39648 -0.29061,0.82995 -0.44157,1.71253 -0.44531,2.60352 5.3e-4,0.67934 0.0867,1.35522 0.25586,2.00781 -0.16791,0.64757 -0.25402,1.31809 -0.25586,1.99219 3.7e-4,0.42568 0.0344,0.8505 0.10156,1.26953 -0.0652,0.40619 -0.0992,0.81784 -0.10156,1.23047 0,4.00406 2.91015,7.25 6.5,7.25 1.92012,-4.3e-4 3.74183,-0.94774 4.97656,-2.58789 0.26084,-0.0423 0.51913,-0.10236 0.77344,-0.17969 0.7942,3.11616 3.34551,5.26644 6.25,5.26758 0.9922,-0.001 1.97097,-0.25576 2.86133,-0.74414 0.61111,0.4572 1.28739,0.79534 2,1 1.07444,0.81034 2.34166,1.24363 3.63867,1.24414 3.58985,0 6.5,-3.24594 6.5,-7.25 -0.003,-1.25606 -0.2984,-2.48971 -0.85742,-3.58008 0.87734,-1.26587 1.35461,-2.81991 1.35742,-4.41992 -0.003,-1.74398 -0.56954,-3.4283 -1.5957,-4.74414 -0.30683,-1.9544 -1.31838,-3.68315 -2.79883,-4.7832 0.86943,-1.23465 1.35606,-2.75073 1.38672,-4.32032 0.33315,0.0617 0.67011,0.0944 1.00781,0.0977 1.09297,-0.002 2.16777,-0.31198 3.125,-0.90039 1.19512,1.21932 2.75532,1.89703 4.375,1.90039 0.53964,-0.002 1.07698,-0.0786 1.59961,-0.22852 0.87208,2.12042 2.60568,3.64323 4.6582,4.0918 -0.49611,1.04321 -0.75626,2.2058 -0.75781,3.38668 0.002,0.33665 0.0247,0.67275 0.0684,1.00586 -0.0432,0.32924 -0.0661,0.6614 -0.0684,0.99414 0.003,1.02123 0.19929,2.03024 0.57617,2.96094 -0.0477,0.34387 -0.0732,0.69112 -0.0762,1.03906 0.003,0.76329 0.11342,1.52133 0.32812,2.24609 -0.21543,0.72725 -0.32617,1.48799 -0.32812,2.25391 0,4.00406 2.91015,7.25 6.5,7.25 1.89649,-0.002 3.6978,-0.92678 4.93164,-2.5332 0.18893,0.0203 0.37856,0.0314 0.56836,0.0332 1.57785,-0.003 3.10092,-0.64559 4.28516,-1.80859 1.13328,2.34383 3.32736,3.80605 5.71484,3.80859 1.56908,-0.003 3.08416,-0.63932 4.26562,-1.79102 1.22706,1.45967 2.94042,2.28878 4.73438,2.29102 3.58985,0 6.5,-3.24594 6.5,-7.25 -0.002,-0.34192 -0.0253,-0.68326 -0.0703,-1.02148 0.69703,-1.18135 1.06907,-2.5643 1.07031,-3.97852 0,-4.00406 -2.91015,-7.25 -6.5,-7.25 -0.0163,6e-4 -0.0325,10e-4 -0.0488,0.002 0.92351,-0.79017 1.63986,-1.84242 2.07422,-3.04687 1.26239,-1.36566 1.97479,-3.24359 1.97458,-5.20513 -5e-5,-1.1314 -0.2375,-2.24709 -0.69336,-3.25781 0.45374,-1.006 0.69113,-2.11606 0.69336,-3.24219 -0.003,-3.10595 -1.78004,-5.86451 -4.41797,-6.85938 1.52878,-1.37605 2.41759,-3.44947 2.41797,-5.64062 -9.5e-4,-0.11335 -0.004,-0.22666 -0.01,-0.33984 3.1684,-0.54461 5.50768,-3.58446 5.51,-7.16016 -0.002,-1.84421 -0.63414,-3.61823 -1.76758,-4.96094 0.17579,-0.66201 0.26589,-1.34863 0.26758,-2.03906 -0.003,-1.95846 -0.71563,-3.83239 -1.97656,-5.19531 0.63556,-1.14267 0.97368,-2.45999 0.97656,-3.80469 -0.003,-1.98415 -0.7351,-3.8802 -2.02539,-5.24609 1.29205,-1.36776 2.02423,-3.26704 2.02539,-5.25391 -0.002,-0.9601 -0.1756,-1.91012 -0.50977,-2.79492 -0.0822,-2.2094 -1.06383,-4.25618 -2.66601,-5.5586 0.11485,-0.53952 0.17383,-1.09196 0.17578,-1.64648 -2.7e-4,-1.14553 -0.24391,-2.27468 -0.71094,-3.29492 0.78592,-1.22711 1.20922,-2.69703 1.21094,-4.20508 -0.002,-0.24407 -0.015,-0.48787 -0.0391,-0.73047 0.0252,-0.25556 0.0383,-0.51243 0.0391,-0.76953 -0.002,-0.84643 -0.13683,-1.68593 -0.39844,-2.48047 2.87909,-0.81641 4.89559,-3.70608 4.89844,-7.01953 0,-4.00406 -2.91015,-7.25 -6.5,-7.25 -0.24751,0.003 -0.49465,0.0221 -0.74023,0.0566 -0.25205,-0.0354 -0.50574,-0.0543 -0.75977,-0.0566 -0.92413,0.003 -1.837,0.22636 -2.67773,0.6543 -0.43487,-0.10171 -0.87794,-0.15341 -1.32227,-0.1543 -0.59227,4e-4 -1.1817,0.0911 -1.75195,0.26953 -1.17966,-1.1395 -2.6875,-1.7676 -4.24805,-1.76953 z m -4.31641,24.56055 c -0.12045,0.55316 -0.18207,1.12021 -0.18359,1.68945 0.003,0.10296 0.007,0.20585 0.0137,0.30859 -0.57603,-0.50518 -1.22449,-0.89809 -1.91797,-1.16211 0.73377,-0.14314 1.44001,-0.4259 2.08789,-0.83593 z m -14.70117,2.91601 c 0.59732,1.63669 1.70999,2.97371 3.12891,3.75977 -0.52613,-0.15366 -1.06747,-0.23305 -1.61133,-0.23633 -0.77641,9.7e-4 -1.54639,0.15708 -2.27344,0.46094 -0.40678,-0.26076 -0.83767,-0.47162 -1.28515,-0.62891 -0.0806,-0.69707 -0.25168,-1.37737 -0.50782,-2.01953 0.92693,-0.23221 1.79696,-0.68822 2.54883,-1.33594 z m 4.02344,17.45703 c 0.0892,3.92965 2.96988,7.06413 6.49414,7.06641 0.0137,-6.2e-4 0.0273,-10e-4 0.041,-0.002 -0.0253,0.2497 -0.039,0.50071 -0.041,0.752 0.002,1.34362 0.33878,2.66017 0.97266,3.80273 -0.014,0.0441 -0.0277,0.0884 -0.041,0.13282 -0.46958,-0.12085 -0.94975,-0.18309 -1.43166,-0.18555 -0.74456,0.003 -1.48316,0.14802 -2.18359,0.42969 0.11977,-0.54998 0.18138,-1.11372 0.18359,-1.67969 -2.9e-4,-3.17891 -1.85719,-5.98682 -4.58008,-6.92578 0.0506,-0.35536 0.0773,-0.71443 0.0801,-1.07422 -0.001,-0.68216 -0.0886,-1.36072 -0.25977,-2.01562 0.26058,-0.0824 0.51629,-0.18283 0.76563,-0.30079 z m -9.67578,8.91993 c 0.2438,0.12457 0.49428,0.2322 0.75,0.32226 -0.0225,0.1614 -0.0401,0.3236 -0.0527,0.48633 -0.21335,-0.28921 -0.44646,-0.55955 -0.69726,-0.80859 z m 27.69922,10.59765 c 0.0538,0.0229 0.10781,0.0451 0.16211,0.0664 -0.13794,0.0914 -0.2728,0.18847 -0.4043,0.29101 -0.0194,-0.021 -0.0389,-0.0418 -0.0586,-0.0625 0.10295,-0.0948 0.20326,-0.19319 0.30078,-0.29492 z m -27.21485,11.65821 c 1.22625,1.81753 3.14619,2.88777 5.18555,2.89062 1.50437,-0.002 2.96154,-0.58598 4.12305,-1.65234 -0.0817,0.46188 -0.12295,0.93155 -0.12305,1.40234 0.002,3.97968 2.87939,7.21381 6.44727,7.24609 -0.045,0.0785 -0.0886,0.15793 -0.13086,0.23829 -1.16292,1.34789 -1.81374,3.14498 -1.81641,5.01562 0.001,0.0905 0.004,0.18105 0.008,0.27148 -1.09466,0.0934 -2.15027,0.49456 -3.06836,1.16602 -0.0662,-0.0148 -0.13263,-0.0285 -0.19922,-0.041 0.49812,-1.04597 0.75892,-2.21213 0.75958,-3.3965 0,-4.00406 -2.91015,-7.25 -6.5,-7.25 -0.53964,0.002 -1.07698,0.0786 -1.59961,0.22852 -1.01133,-2.45043 -3.1588,-4.07195 -5.57422,-4.20899 0.9524,-0.40994 1.80484,-1.06432 2.48828,-1.91015 z M 140,303.75 c -3.19584,0.005 -5.91448,2.59997 -6.41211,6.12109 -1.15596,-1.04662 -2.59902,-1.61888 -4.08789,-1.62109 -1.38745,0.002 -2.7378,0.50001 -3.85352,1.41992 -0.89397,-2.93794 -3.3649,-4.91578 -6.14648,-4.91992 -3.58985,0 -6.5,3.24594 -6.5,7.25 0,4.00406 2.91015,7.25 6.5,7.25 0.0769,-0.002 0.15371,-0.005 0.23047,-0.01 -1.99842,1.29726 -3.22854,3.68098 -3.23047,6.26 0.001,0.10033 0.005,0.20061 0.01,0.30078 -0.004,0.0663 -0.007,0.13277 -0.01,0.19922 5.3e-4,0.67934 0.0867,1.35522 0.25586,2.00781 -0.16791,0.64757 -0.25402,1.31809 -0.25586,1.99219 0.003,0.76329 0.11342,1.52133 0.32812,2.24609 -0.21543,0.72725 -0.32617,1.48799 -0.32812,2.25391 0.002,0.96076 0.17538,1.91147 0.50977,2.79688 -0.004,0.0677 -0.008,0.13536 -0.01,0.20312 0,4.00406 2.91015,7.25 6.5,7.25 0.45585,-0.003 0.91018,-0.0591 1.35547,-0.16797 1.16534,1.07728 2.6312,1.66718 4.14476,1.66797 2.39798,-10e-4 4.6006,-1.47482 5.73047,-3.83398 1.22868,1.4855 2.95752,2.33151 4.76953,2.33398 0.47929,-0.003 0.9568,-0.0653 1.42383,-0.18555 0.95559,2.81849 3.3746,4.68387 6.07617,4.68555 2.19128,-0.002 4.23405,-1.23585 5.43359,-3.28125 2.18716,-1.23381 3.56612,-3.73497 3.56641,-6.46875 -3.7e-4,-0.42568 -0.0344,-0.8505 -0.10156,-1.26953 0.0652,-0.40619 0.0992,-0.81784 0.10156,-1.23047 -0.002,-0.96076 -0.17538,-1.91147 -0.50977,-2.79688 0.004,-0.0677 0.007,-0.13537 0.01,-0.20312 -3.7e-4,-0.42568 -0.0344,-0.8505 -0.10156,-1.26953 0.0652,-0.40619 0.0992,-0.81784 0.10156,-1.23047 -0.002,-0.24407 -0.015,-0.48787 -0.0391,-0.73047 0.0252,-0.25556 0.0383,-0.51243 0.0391,-0.76953 1.1e-4,-1.14319 -0.24216,-2.27021 -0.70703,-3.28906 -0.51651,-2.24782 -1.96648,-4.08406 -3.90039,-4.93946 0.0693,-0.41948 0.10522,-0.84495 0.10742,-1.27148 -0.004,-3.31398 -2.02233,-6.20303 -4.90234,-7.01758 0.26314,-0.79489 0.39932,-1.63508 0.40234,-2.48242 0,-4.00406 -2.91015,-7.25 -6.5,-7.25 z m -4.08789,12.87891 c 0.73041,0.65807 1.57997,1.13182 2.49023,1.38867 -0.13444,0.40766 -0.23575,0.82797 -0.30273,1.25586 -1.09847,0.0732 -2.1623,0.45625 -3.0918,1.11328 -0.11847,-0.15819 -0.24293,-0.31067 -0.37304,-0.45703 0.66748,-0.96319 1.10677,-2.09835 1.27734,-3.30078 z m -12.55859,1.20117 c 0.045,0.15152 0.0945,0.30134 0.14843,0.44922 -0.16692,-0.017 -0.33436,-0.0268 -0.50195,-0.0293 -0.0808,0.003 -0.16154,0.007 -0.24219,0.0137 0.20552,-0.13229 0.40438,-0.27704 0.59571,-0.43359 z m 10.6621,13.90625 c 0.25058,0.27116 0.52033,0.51936 0.80665,0.74219 -0.41537,0.47867 -0.76962,1.0189 -1.05274,1.60546 -0.19548,-0.2373 -0.40493,-0.45979 -0.62695,-0.66601 0.35735,-0.51431 0.651,-1.07994 0.87304,-1.68164 z" inkscape:connector-curvature="0" />
</g>
<g inkscape:groupmode="layer" id="routes_layer" inkscape:label="Routes" style="display:inline" sodipodi:insensitive="true" >
  <path style="display:inline;fill:none;stroke:#000000;stroke-width:2;stroke-linecap:round;stroke-miterlimit:4;stroke-dasharray:0.1, 5;stroke-dashoffset:0;stroke-opacity:1" d="m 115.45521,246.51472 c 30.39604,17.73853 37.53406,-3.64359 41.33499,-9.66411 7.74394,-12.26611 26.73951,-24.9476 43.80724,-23.16485 7.99046,0.83462 18.3603,5.68924 35.65256,5.68924 l 11.25,0 M 112.6127,246.17944 C 74.6137,227.64126 75.260236,208.7416 58.089469,189.88352 46.808002,177.49346 29.38195,168.75 11.25,168.75 L 0,168.75 M 123.75,0 l 0,11.25 c 0,3.75 -1.3745,31.640077 -1.97487,38.997845 -3.32207,40.712951 -23.51882,66.280915 -27.18566,95.635675 -1.767608,14.15052 1.176606,73.49659 22.28553,96.86648 m 46.25,94.75 0,-11.25 c 0,-20.12069 -19.24903,-31.58494 -34.16979,-30.23528 -22.29691,2.01687 -29.332633,-23.6835 -12.35776,-44.82896" inkscape:connector-curvature="0" />
</g>
<g inkscape:groupmode="layer" id="labels_layer" inkscape:label="Labels" style="display:inline" sodipodi:insensitive="true" >
  <text xml:space="preserve"><textPath xlink:href="#port_lee"><tspan
  style="-inkscape-font-specification:'CCTreasureTroveAged Mod, Normal';font-family:'CCTreasureTroveAged Mod';font-weight:normal;font-style:normal;font-stretch:normal;font-variant:normal;font-size:8.75px;text-anchor:start;text-align:start;writing-mode:lr;line-height:125%"
  >Port Lee</tspan></textPath></text>
</g>
<g inkscape:groupmode="layer" id="labels_guide_layer" inkscape:label="Labels Guide" style="display:none" sodipodi:insensitive="true" >
  <path id="port_lee" style="color:#000000;fill:none;stroke:#000000;stroke-width:1;stroke-opacity:1" d="m 134.52863,174.58781 c -1.75,20.75 -9.625,28.375 -18.125,39.375" inkscape:connector-curvature="0" />
</g>
<g inkscape:groupmode="layer" id="resources_layer" inkscape:label="Resources" style="display:inline" sodipodi:insensitive="true" >
  <g id="resource-flower" transform="matrix(-0.77654565,0.630061,-0.630061,-0.77654565,45.986801,162.38419)" >
    <circle cx="0.060593" cy="-110.109990" r="19.000000" style="opacity:1;fill:#ffffff;fill-opacity:1;stroke:#000000;stroke-width:0.89999998;stroke-linecap:round;stroke-linejoin:round;stroke-miterlimit:4;stroke-dasharray:none;stroke-dashoffset:0;stroke-opacity:1" />
    <g >
      <path style="color:#000000;clip-rule:nonzero;display:inline;overflow:visible;visibility:visible;opacity:1;isolation:auto;mix-blend-mode:normal;color-interpolation:sRGB;color-interpolation-filters:linearRGB;solid-color:#000000;solid-opacity:1;fill:#ffffff;fill-opacity:1;fill-rule:evenodd;stroke:none;stroke-width:0.89999998;stroke-linecap:round;stroke-linejoin:miter;stroke-miterlimit:4;stroke-dasharray:none;stroke-dashoffset:0;stroke-opacity:1;color-rendering:auto;image-rendering:auto;shape-rendering:auto;text-rendering:auto;enable-background:accumulate" d="m 0.979805,-123.15615 c -1.34145,-0.0198 -3.490295,1.29985 -4.377698,2.97606 -1.515072,-0.52803 -3.118559,-1.35518 -4.387882,-0.66716 -1.336347,0.80617 -3.05964,1.39841 -3.940732,2.52252 -1.019998,1.30134 -0.730979,3.22834 -1.040234,4.88073 -0.323141,1.72658 0.916341,3.62646 2.178426,4.57303 -0.480389,0.70795 -0.991103,1.55651 -1.064241,1.95596 -0.229528,2.03687 -0.85872,3.65897 -0.172551,5.07299 0.650332,1.34017 2.541535,1.62667 4.009752,2.563613 1.703034,0.722622 3.282592,0.820732 5.14182,0.411702 0.446214,0.818061 0.820032,1.55183 1.868672,1.900477 1.652946,0.549562 2.259608,1.57126 3.487169,1.377119 0.904439,-0.143038 1.706298,-0.852325 2.89228,-1.267016 0.956141,-0.334325 1.792353,-1.310625 2.17414,-2.142916 0.601179,-1.310569 0.607842,-2.718729 0.332147,-4.333519 1.085534,0.10069 1.96385,-0.10288 2.218318,-0.26619 1.401585,-1.12214 2.183535,-1.13125 2.967873,-2.1232 0.706103,-0.89301 0.33785,-2.30208 0.524226,-3.63507 0.190729,-1.36412 -0.373016,-3.11292 -1.13861,-3.85099 -0.916057,-1.14581 -2.133316,-1.66052 -3.360406,-2.25547 0.223107,-1.52457 0.238457,-2.83813 -0.583837,-3.68128 -1.009456,-1.03504 -1.391167,-2.66625 -2.553752,-3.32447 -1.410255,-0.79846 -2.9835,-0.29231 -4.911945,-0.66063 -0.08552,-0.0163 -0.173505,-0.025 -0.262935,-0.0263 z" inkscape:connector-curvature="0" />
      <path style="color:#000000;clip-rule:nonzero;display:inline;overflow:visible;visibility:visible;opacity:1;isolation:auto;mix-blend-mode:normal;color-interpolation:sRGB;color-interpolation-filters:linearRGB;solid-color:#000000;solid-opacity:1;fill:url(#gradientFlower);fill-opacity:1;fill-rule:evenodd;stroke:none;stroke-width:0.89999998;stroke-linecap:round;stroke-linejoin:miter;stroke-miterlimit:4;stroke-dasharray:none;stroke-dashoffset:0;stroke-opacity:1;color-rendering:auto;image-rendering:auto;shape-rendering:auto;text-rendering:auto;enable-background:accumulate" d="m 0.979805,-123.15615 c -1.34145,-0.0198 -3.490295,1.29985 -4.377698,2.97606 -1.515072,-0.52803 -3.118559,-1.35518 -4.387882,-0.66716 -1.336347,0.80617 -3.05964,1.39841 -3.940732,2.52252 -1.019998,1.30134 -0.730979,3.22834 -1.040234,4.88073 -0.323141,1.72658 0.916341,3.62646 2.178426,4.57303 -0.480389,0.70795 -0.991103,1.55651 -1.064241,1.95596 -0.229528,2.03687 -0.85872,3.65897 -0.172551,5.07299 0.650332,1.34017 2.541535,1.62667 4.009752,2.563613 1.703034,0.722622 3.282592,0.820732 5.14182,0.411702 0.446214,0.818061 0.820032,1.55183 1.868672,1.900477 1.652946,0.549562 2.259608,1.57126 3.487169,1.377119 0.904439,-0.143038 1.706298,-0.852325 2.89228,-1.267016 0.956141,-0.334325 1.792353,-1.310625 2.17414,-2.142916 0.601179,-1.310569 0.607842,-2.718729 0.332147,-4.333519 1.085534,0.10069 1.96385,-0.10288 2.218318,-0.26619 1.401585,-1.12214 2.183535,-1.13125 2.967873,-2.1232 0.706103,-0.89301 0.33785,-2.30208 0.524226,-3.63507 0.190729,-1.36412 -0.373016,-3.11292 -1.13861,-3.85099 -0.916057,-1.14581 -2.133316,-1.66052 -3.360406,-2.25547 0.223107,-1.52457 0.238457,-2.83813 -0.583837,-3.68128 -1.009456,-1.03504 -1.391167,-2.66625 -2.553752,-3.32447 -1.410255,-0.79846 -2.9835,-0.29231 -4.911945,-0.66063 -0.08552,-0.0163 -0.173505,-0.025 -0.262935,-0.0263 z" inkscape:connector-curvature="0" />
      <circle cx="60.884876" cy="-69.652748" r="9.668525" style="color:#000000;clip-rule:nonzero;display:inline;overflow:visible;visibility:visible;opacity:1;isolation:auto;mix-blend-mode:normal;color-interpolation:sRGB;color-interpolation-filters:linearRGB;solid-color:#000000;solid-opacity:1;fill:#c18bff;fill-opacity:1;fill-rule:nonzero;stroke:none;stroke-width:0.89999998;stroke-linecap:butt;stroke-linejoin:round;stroke-miterlimit:4;stroke-dasharray:none;stroke-dashoffset:0;stroke-opacity:1;filter:url(#blurFlowerMiddle);color-rendering:auto;image-rendering:auto;shape-rendering:auto;text-rendering:auto;enable-background:accumulate" transform="matrix(0.8413905,0,0,0.8413905,-50.722984,-50.755482)" />
      <circle cx="60.884876" cy="-69.652748" r="4.587256" style="color:#000000;clip-rule:nonzero;display:inline;overflow:visible;visibility:visible;opacity:1;isolation:auto;mix-blend-mode:normal;color-interpolation:sRGB;color-interpolation-filters:linearRGB;solid-color:#000000;solid-opacity:1;fill:#4d0b97;fill-opacity:0.73248411;fill-rule:nonzero;stroke:none;stroke-width:0.89999998;stroke-linecap:butt;stroke-linejoin:round;stroke-miterlimit:4;stroke-dasharray:none;stroke-dashoffset:0;stroke-opacity:1;filter:url(#blurFlowerInner);color-rendering:auto;image-rendering:auto;shape-rendering:auto;text-rendering:auto;enable-background:accumulate" transform="matrix(0.8413905,0,0,0.8413905,-50.722984,-50.755482)" />
      <path style="color:#000000;clip-rule:nonzero;display:inline;overflow:visible;visibility:visible;opacity:1;isolation:auto;mix-blend-mode:normal;color-interpolation:sRGB;color-interpolation-filters:linearRGB;solid-color:#000000;solid-opacity:1;fill:#000000;fill-opacity:1;fill-rule:evenodd;stroke:none;stroke-width:0.89999998;stroke-linecap:round;stroke-linejoin:miter;stroke-miterlimit:4;stroke-dasharray:none;stroke-dashoffset:0;stroke-opacity:1;color-rendering:auto;image-rendering:auto;shape-rendering:auto;text-rendering:auto;enable-background:accumulate" d="m 0.639633,-123.613 c -0.245268,-0.007 -0.493489,0.0184 -0.741147,0.0723 -0.495315,0.10775 -0.988873,0.32636 -1.452713,0.61626 -0.897328,0.56081 -1.698239,1.40222 -2.2333,2.34669 -0.538041,-0.29613 -1.168361,-0.58916 -1.843828,-0.75923 -0.402544,-0.10135 -0.817029,-0.16411 -1.217716,-0.14954 -0.400686,0.0146 -0.786664,0.10703 -1.132262,0.31552 -1.283405,0.77424 -3.212955,1.5351 -4.096848,2.84955 -1.036325,1.54115 -0.856398,3.22859 -1.064886,4.82978 -0.121933,0.93647 0.116053,1.93977 0.548877,2.83148 0.383935,0.79099 0.927795,1.48307 1.55953,1.96215 -0.523828,0.48763 -0.918389,1.06735 -0.994221,1.7403 -0.111704,0.99127 -0.114545,1.61006 -0.218564,2.47815 -0.10402,0.86809 -0.307253,2.00443 0.08052,2.80354 0.383523,0.79035 1.112241,1.24077 1.875051,1.60883 0.762811,0.368068 1.743867,0.669437 2.430502,1.107614 1.218636,0.777675 2.913786,1.040634 4.971105,0.514366 0.380578,0.842488 0.837563,1.454964 1.755089,1.760018 0.77292,0.256976 1.299533,0.623573 1.830681,0.935061 0.531149,0.311488 1.321397,0.65032 2.04596,0.535729 1.061295,-0.167845 1.585995,-0.765822 2.695079,-1.153626 0.61183,-0.213931 1.413184,-0.872559 1.889842,-1.446139 0.476655,-0.57358 0.870431,-1.194818 1.082961,-1.658131 0.556087,-1.212262 0.51771,-2.127442 0.179125,-3.446082 0.715918,0.0871 1.419103,0.0384 1.947359,-0.38454 0.67438,-0.53993 1.161498,-1.0671 1.640053,-1.33933 0.478556,-0.27223 0.932552,-0.56407 1.362327,-1.10761 0.433047,-0.54768 0.51727,-1.24584 0.537371,-1.90299 0.02011,-0.65714 -0.02179,-1.32636 0.06411,-1.94078 0.107665,-0.77002 -0.0067,-1.365 -0.266216,-2.1725 -0.259325,-0.8075 -0.625806,-1.53158 -1.09118,-1.98023 -0.663846,-0.63998 -1.599943,-1.39472 -3.03032,-1.93914 0.11665,-0.50066 0.147215,-1.05012 0.09038,-1.59404 -0.08427,-0.80653 -0.342696,-1.59653 -0.862754,-2.12977 -0.452036,-0.4635 -0.790788,-1.10063 -1.165128,-1.73208 -0.374341,-0.63145 -0.949406,-1.37528 -1.631838,-1.76166 -0.804443,-0.45546 -1.651134,-0.45909 -2.476515,-0.44699 -0.82538,0.0121 -1.487089,0.14634 -2.343404,-0.13804 -0.235484,-0.0782 -0.477801,-0.11783 -0.723065,-0.1249 z m -0.02629,0.75923 c 0.180353,0.004 0.347555,0.0466 0.511079,0.0838 1.006924,0.22923 1.7795,0.18938 2.591548,0.17748 0.812049,-0.0119 1.487806,0.005 2.093616,0.34839 0.480153,0.27185 0.994251,0.88183 1.354113,1.48886 0.359862,0.60703 0.716169,1.30186 1.27359,1.87341 0.334308,0.34279 0.580376,0.99176 0.652406,1.68114 0.07203,0.68938 -0.02687,1.41322 -0.248144,1.87012 -0.450738,0.93069 -1.413978,1.86673 -2.379558,2.48966 -1.071525,0.69128 -2.210789,1.32545 -2.704939,1.55789 -0.727729,0.34231 -0.911947,0.74706 -0.437129,0.57517 0.432747,-0.15667 2.273938,-0.86367 3.500316,-1.65485 0.988448,-0.63768 2.112424,-1.45155 2.685219,-2.60633 1.29991,0.49828 2.125357,1.16513 2.750952,1.76823 0.300222,0.28943 0.662715,0.9411 0.895622,1.66635 0.232906,0.72524 0.31971,1.24151 0.236641,1.83561 -0.100468,0.71856 -0.05054,1.4191 -0.06902,2.02295 -0.01848,0.60386 -0.10327,1.11067 -0.376324,1.456 -0.354559,0.44841 -0.683098,0.65751 -1.142122,0.91863 -0.459024,0.26112 -1.011451,0.82613 -1.738654,1.40834 -0.339654,0.27194 -1.05202,0.3145 -1.842185,0.15612 -0.790168,-0.15837 -1.680674,-0.36802 -2.228371,-0.63433 -0.501305,-0.24375 -1.107321,-0.71188 -1.718935,-1.22593 -0.606651,-0.50988 -0.946266,-0.80483 -1.105968,-1.0008 -0.449169,-0.55116 -0.736865,-0.57408 -0.419052,-0.0362 0.128591,0.21765 0.29565,0.55252 0.874258,1.15363 0.578608,0.60111 1.39831,1.334 2.091973,1.67128 0.52965,0.25753 1.278195,0.55106 2.055819,0.7395 0.418548,1.4671 0.497282,2.0902 -0.0493,3.28175 -0.169259,0.368978 -0.542533,0.967084 -0.976146,1.488867 -0.433612,0.521783 -1.213575,1.09568 -1.557886,1.216072 -1.262881,0.441579 -1.81603,1.002528 -2.563612,1.120758 -0.502998,0.07955 -1.051079,-0.15352 -1.543097,-0.442058 -0.492018,-0.288541 -1.09527,-0.708208 -1.975296,-1.000794 -0.906713,-0.30146 -1.303684,-1.017149 -1.521734,-1.990087 -0.240751,-1.074238 -0.284382,-2.018958 -0.03944,-3.252168 0.09422,-0.47435 0.345844,-1.11328 0.616253,-1.75509 0.254524,-0.60411 0.521586,-1.0267 0.657337,-1.20621 0.534373,-0.70663 0.573544,-1.02158 -0.08052,-0.47 -0.09001,0.0759 -0.437166,0.46228 -0.800308,1.04845 -0.388969,0.62787 -0.745556,1.33952 -0.913697,1.96215 -0.320374,1.18635 -0.455037,2.59874 -0.177481,3.837203 0.0049,0.02169 0.01287,0.04249 0.01807,0.06409 -1.86503,0.462081 -3.499403,0.191906 -4.474817,-0.430556 -0.781583,-0.498767 -1.637015,-0.807967 -2.349978,-1.151977 -0.712961,-0.34402 -1.256569,-0.70734 -1.523376,-1.25716 -0.298393,-0.61491 -0.108087,-1.57682 -0.0115,-2.38285 0.09658,-0.80602 0.102383,-1.43749 0.220207,-2.48308 0.06347,-0.56325 0.566474,-1.18992 1.271946,-1.691 0.705472,-0.50107 1.601251,-0.92224 2.259594,-1.04681 0.666145,-0.12605 1.427995,-0.20972 2.239874,-0.1709 0.817343,0.0391 1.389205,0.17406 1.855332,0.30895 0.501887,0.14523 0.706651,0.0181 0.14297,-0.28759 -0.221782,-0.12027 -0.830365,-0.31483 -1.664704,-0.4815 -0.749787,-0.14977 -1.792536,-0.20692 -2.634275,-0.0477 -0.79482,0.1504 -1.828356,0.53709 -2.627702,1.10268 -0.560501,-0.3756 -1.107978,-1.03998 -1.479008,-1.80438 -0.38132,-0.78561 -0.575888,-1.66668 -0.479855,-2.40421 0.225627,-1.73283 0.09276,-3.26127 0.910411,-4.45839 0.799409,-1.17041 2.502142,-1.83231 3.891431,-2.67042 0.418566,-0.25251 1.071917,-0.25586 1.774808,-0.0789 0.70289,0.17697 1.431889,0.52017 1.958862,0.8381 1.177378,0.71033 2.360406,1.81514 2.923503,3.13714 0.225658,0.52978 0.487956,1.31163 0.65898,2.04267 0.180567,0.77183 0.278756,1.12761 0.323738,1.41985 0.0769,0.49959 0.331408,0.76305 0.310592,0.258 -0.0056,-0.13448 -0.02619,-0.62272 -0.11832,-1.39848 -0.09213,-0.77577 -0.372004,-1.76712 -0.649121,-2.54061 -0.498667,-1.39187 -1.517796,-2.50983 -2.729588,-3.34584 0.467794,-0.83001 1.199084,-1.60007 1.983511,-2.09033 0.605002,-0.37812 1.225532,-0.58251 1.766584,-0.57188 z" inkscape:connector-curvature="0" />
      <path style="color:#000000;clip-rule:nonzero;display:inline;overflow:visible;visibility:visible;opacity:1;isolation:auto;mix-blend-mode:normal;color-interpolation:sRGB;color-interpolation-filters:linearRGB;solid-color:#000000;solid-opacity:1;fill:#000000;fill-opacity:1;fill-rule:evenodd;stroke:none;stroke-width:0.89999998;stroke-linecap:round;stroke-linejoin:miter;stroke-miterlimit:4;stroke-dasharray:none;stroke-dashoffset:0;stroke-opacity:1;color-rendering:auto;image-rendering:auto;shape-rendering:auto;text-rendering:auto;enable-background:accumulate" d="m 3.794424,-118.09467 c -0.03481,-0.0139 -0.387473,0.76522 -0.773437,1.66992 -0.381703,0.89472 -0.809184,1.94165 -0.982422,2.44336 -0.176438,0.5371 -0.390469,1.30435 -0.589844,2.01172 0.06031,-0.55635 0.109986,-1.12538 0.103516,-1.63477 -0.01279,-1.74744 -0.425929,-3.66291 -0.498047,-3.65039 -0.07275,0.0126 0.183985,1.9486 0.04883,3.63477 -0.07238,0.83501 -0.290636,1.86782 -0.482422,2.63281 -0.354416,-0.68951 -0.858631,-1.64701 -1.449218,-2.51562 -0.780652,-1.11593 -2.309126,-2.07981 -2.347657,-2.02539 -0.04001,0.0565 1.375504,1.16904 1.964844,2.26171 0.304172,0.53913 0.568646,1.10365 0.796875,1.62696 0.372061,0.28889 0.708358,0.56132 0.951172,0.78515 0.450547,0.41534 0.755162,0.86352 0.892578,1.28907 0.0687,0.21277 0.09588,0.4226 0.05859,0.62695 -0.03729,0.20435 -0.155086,0.4041 -0.339844,0.52344 -0.305542,0.19735 -0.71844,0.21836 -1.103516,0.0371 -0.310556,-0.14618 -0.627467,-0.43694 -0.960937,-0.82031 -0.641237,0.0208 -1.474062,0.0584 -2.1875,0.17187 -2.104283,0.29168 -3.519408,1.38936 -3.480469,1.44531 0.03898,0.056 1.530217,-0.86817 3.527344,-0.99804 0.376674,-0.0166 0.788074,-0.008 1.193359,0.01 -0.712154,0.25439 -1.4348,0.51707 -1.767578,0.68164 -2.162568,0.91869 -4.094659,3.07329 -4.046875,3.11914 0.04862,0.0466 2.113703,-1.96681 4.210938,-2.69922 0.365679,-0.10109 1.271937,-0.3498 2.08789,-0.56055 0.07395,-0.0191 0.123337,-0.0305 0.195313,-0.0488 -0.378323,0.25584 -0.792906,0.55853 -1.210938,0.95703 -1.238441,1.16919 -1.630753,2.5038 -1.566406,2.52735 0.06436,0.0236 0.614646,-1.21112 1.859375,-2.1875 0.923232,-0.7175 1.866097,-1.08815 2.203125,-1.16602 0.06017,0.43796 0.121551,1.11761 0.138672,1.69531 -0.0046,1.38515 -0.382684,3.57189 -0.314453,3.58594 0.06715,0.0138 0.587741,-2.14147 0.734375,-3.5625 0.01539,-0.11398 0.0209,-0.24938 0.0332,-0.375 0.06524,0.42004 0.130264,0.87141 0.193359,1.16406 0.346841,2.21188 0.996326,4.22625 1.080079,4.20313 0.08403,-0.0232 -0.38924,-2.07493 -0.556641,-4.26367 -0.0036,-0.21423 -0.0095,-0.56189 -0.01563,-0.86524 0.02034,0.0576 0.04072,0.12785 0.06055,0.18164 0.513637,1.61427 1.790647,3.18206 1.855469,3.13477 0.06636,-0.0484 -1.03386,-1.73019 -1.345704,-3.26758 -0.08436,-0.53103 -0.190887,-1.23418 -0.248046,-1.73242 0.450157,0.021 1.107513,0.0847 1.695312,0.19336 1.164725,0.23043 2.402663,0.98994 2.443359,0.93164 0.03983,-0.0571 -1.105126,-0.96654 -2.326171,-1.36719 -0.325602,-0.11217 -0.655915,-0.18972 -0.984376,-0.27539 0.516501,-0.0598 1.137006,-0.1208 1.621094,-0.15625 2.216152,-0.0729 5.151435,0.70788 5.171875,0.63867 0.02015,-0.0682 -2.871752,-1.01257 -5.171875,-1.08984 -0.536234,-0.0394 -1.221307,-0.0518 -1.767578,-0.0645 0.410869,-0.0906 0.883277,-0.18959 1.404297,-0.30469 1.68587,-0.34236 3.617698,-1.23793 3.589844,-1.30469 -0.02823,-0.0677 -2.017753,0.6758 -3.660157,0.85938 -0.68941,0.0665 -1.333269,0.1164 -1.789062,0.13672 0.05402,-0.18849 0.172573,-0.51714 0.359375,-0.97461 0.257407,-0.63039 0.571071,-1.34083 0.787109,-1.74024 0.257372,-0.46166 0.719406,-1.0516 1.111328,-1.53515 0.390428,-0.48171 0.706164,-0.85041 0.679688,-0.87696 -0.02646,-0.0265 -0.396678,0.28997 -0.845703,0.72461 -0.444283,0.43005 -0.980416,0.99029 -1.320313,1.44141 -0.200435,0.26077 -0.436266,0.65875 -0.669922,1.07031 0.144547,-0.74342 0.306939,-1.55708 0.427735,-2.12304 0.09342,-0.49024 0.445698,-1.55421 0.759765,-2.48047 0.315275,-0.92983 0.597322,-1.73608 0.5625,-1.75 z" inkscape:connector-curvature="0" />
      <path style="color:#000000;clip-rule:nonzero;display:inline;overflow:visible;visibility:visible;opacity:1;isolation:auto;mix-blend-mode:normal;color-interpolation:sRGB;color-interpolation-filters:linearRGB;solid-color:#000000;solid-opacity:1;fill:#000000;fill-opacity:1;fill-rule:evenodd;stroke:none;stroke-width:0.89999998;stroke-linecap:round;stroke-linejoin:miter;stroke-miterlimit:4;stroke-dasharray:none;stroke-dashoffset:0;stroke-opacity:1;color-rendering:auto;image-rendering:auto;shape-rendering:auto;text-rendering:auto;enable-background:accumulate" d="m -0.916513,-109.19819 c -0.08002,-0.092 -0.155364,-0.1568 -0.238281,-0.26367 -0.1926,-0.24822 -0.664725,-0.74012 -1.285156,-1.32226 -0.09208,-0.0408 -0.153678,-0.0727 -0.248047,-0.11328 -1.388077,-0.6083 -3.187994,-0.65792 -3.19336,-0.58985 -0.0055,0.0696 1.769599,0.29863 2.992188,0.99219 0.943426,0.53918 1.739463,1.0834 1.972656,1.29687 z" inkscape:connector-curvature="0" />
      <path style="color:#000000;clip-rule:nonzero;display:inline;overflow:visible;visibility:visible;opacity:1;isolation:auto;mix-blend-mode:normal;color-interpolation:sRGB;color-interpolation-filters:linearRGB;solid-color:#000000;solid-opacity:1;fill:#000000;fill-opacity:1;fill-rule:evenodd;stroke:none;stroke-width:0.89999998;stroke-linecap:round;stroke-linejoin:miter;stroke-miterlimit:4;stroke-dasharray:none;stroke-dashoffset:0;stroke-opacity:1;color-rendering:auto;image-rendering:auto;shape-rendering:auto;text-rendering:auto;enable-background:accumulate" d="m -7.806877,-115.72644 c 1.94457,0.58391 6.643912,3.73434 8.129359,5.1037 0.836444,0.77108 1.096168,1.65836 0.65443,1.94368 -0.441738,0.28531 -1.060198,0.0838 -1.882086,-0.97545 -0.735118,-0.94742 -4.303093,-4.33376 -7.586861,-5.69825 -0.596704,-0.24795 -0.206304,-0.64136 0.685158,-0.37368 z" inkscape:connector-curvature="0" />
      <circle cx="-16.488615" cy="-113.608350" r="0.578456" style="color:#000000;clip-rule:nonzero;display:inline;overflow:visible;visibility:visible;opacity:1;isolation:auto;mix-blend-mode:normal;color-interpolation:sRGB;color-interpolation-filters:linearRGB;solid-color:#000000;solid-opacity:1;fill:#000000;fill-opacity:1;fill-rule:evenodd;stroke:none;stroke-width:0.89999998;stroke-linecap:round;stroke-linejoin:miter;stroke-miterlimit:4;stroke-dasharray:none;stroke-dashoffset:0;stroke-opacity:1;color-rendering:auto;image-rendering:auto;shape-rendering:auto;text-rendering:auto;enable-background:accumulate" transform="matrix(0.99754986,0.06995909,-0.06995909,0.99754986,0,0)" />
      <circle cx="-15.173941" cy="-112.977310" r="0.578456" style="color:#000000;clip-rule:nonzero;display:inline;overflow:visible;visibility:visible;opacity:1;isolation:auto;mix-blend-mode:normal;color-interpolation:sRGB;color-interpolation-filters:linearRGB;solid-color:#000000;solid-opacity:1;fill:#000000;fill-opacity:1;fill-rule:evenodd;stroke:none;stroke-width:0.89999998;stroke-linecap:round;stroke-linejoin:miter;stroke-miterlimit:4;stroke-dasharray:none;stroke-dashoffset:0;stroke-opacity:1;color-rendering:auto;image-rendering:auto;shape-rendering:auto;text-rendering:auto;enable-background:accumulate" transform="matrix(0.99754986,0.06995909,-0.06995909,0.99754986,0,0)" />
      <circle cx="-14.332552" cy="-115.291140" r="0.578456" style="color:#000000;clip-rule:nonzero;display:inline;overflow:visible;visibility:visible;opacity:1;isolation:auto;mix-blend-mode:normal;color-interpolation:sRGB;color-interpolation-filters:linearRGB;solid-color:#000000;solid-opacity:1;fill:#000000;fill-opacity:1;fill-rule:evenodd;stroke:none;stroke-width:0.89999998;stroke-linecap:round;stroke-linejoin:miter;stroke-miterlimit:4;stroke-dasharray:none;stroke-dashoffset:0;stroke-opacity:1;color-rendering:auto;image-rendering:auto;shape-rendering:auto;text-rendering:auto;enable-background:accumulate" transform="matrix(0.99754986,0.06995909,-0.06995909,0.99754986,0,0)" />
      <circle cx="-15.857573" cy="-115.738120" r="0.578456" style="color:#000000;clip-rule:nonzero;display:inline;overflow:visible;visibility:visible;opacity:1;isolation:auto;mix-blend-mode:normal;color-interpolation:sRGB;color-interpolation-filters:linearRGB;solid-color:#000000;solid-opacity:1;fill:#000000;fill-opacity:1;fill-rule:evenodd;stroke:none;stroke-width:0.89999998;stroke-linecap:round;stroke-linejoin:miter;stroke-miterlimit:4;stroke-dasharray:none;stroke-dashoffset:0;stroke-opacity:1;color-rendering:auto;image-rendering:auto;shape-rendering:auto;text-rendering:auto;enable-background:accumulate" transform="matrix(0.99754986,0.06995909,-0.06995909,0.99754986,0,0)" />
      <circle cx="-17.356298" cy="-115.738120" r="0.578456" style="color:#000000;clip-rule:nonzero;display:inline;overflow:visible;visibility:visible;opacity:1;isolation:auto;mix-blend-mode:normal;color-interpolation:sRGB;color-interpolation-filters:linearRGB;solid-color:#000000;solid-opacity:1;fill:#000000;fill-opacity:1;fill-rule:evenodd;stroke:none;stroke-width:0.89999998;stroke-linecap:round;stroke-linejoin:miter;stroke-miterlimit:4;stroke-dasharray:none;stroke-dashoffset:0;stroke-opacity:1;color-rendering:auto;image-rendering:auto;shape-rendering:auto;text-rendering:auto;enable-background:accumulate" transform="matrix(0.99754986,0.06995909,-0.06995909,0.99754986,0,0)" />
      <circle cx="-17.803286" cy="-114.397160" r="0.578456" style="color:#000000;clip-rule:nonzero;display:inline;overflow:visible;visibility:visible;opacity:1;isolation:auto;mix-blend-mode:normal;color-interpolation:sRGB;color-interpolation-filters:linearRGB;solid-color:#000000;solid-opacity:1;fill:#000000;fill-opacity:1;fill-rule:evenodd;stroke:none;stroke-width:0.89999998;stroke-linecap:round;stroke-linejoin:miter;stroke-miterlimit:4;stroke-dasharray:none;stroke-dashoffset:0;stroke-opacity:1;color-rendering:auto;image-rendering:auto;shape-rendering:auto;text-rendering:auto;enable-background:accumulate" transform="matrix(0.99754986,0.06995909,-0.06995909,0.99754986,0,0)" />
    </g>
  </g>
</g>
<g inkscape:groupmode="layer" id="extras_layer" inkscape:label="Extras" style="display:inline" sodipodi:insensitive="true" >
  <g id="extra-ship" transform="matrix(0.4444171,-0.89581998,0.89581998,0.4444171,266.30938,417.60566)" >
    <path style="color:#000000;fill:url(#gradientShip);fill-opacity:1;fill-rule:evenodd;stroke:#000000;stroke-width:0.75;stroke-linecap:butt;stroke-linejoin:round;stroke-miterlimit:4;stroke-dasharray:none;stroke-dashoffset:0;stroke-opacity:1;marker:none;enable-background:accumulate" d="m 243.2364,-52.722824 c -3.10208,-2.937202 -8.72518,-3.346714 -12.49116,-3.032742 -2.95307,0.246202 -6.62512,1.070872 -6.62512,1.070872 l -0.0121,3.725952 c 0,0 2.43298,0.582421 6.39007,0.932887 3.66202,0.324334 9.61676,-0.283241 12.73834,-2.696969 z" inkscape:connector-curvature="0" />
    <path style="color:#000000;opacity:1;isolation:auto;mix-blend-mode:normal;color-interpolation:sRGB;color-interpolation-filters:linearRGB;solid-color:#000000;solid-opacity:1;fill:#000000;fill-opacity:1;fill-rule:evenodd;stroke:none;stroke-width:0.75;stroke-linecap:round;stroke-linejoin:round;stroke-miterlimit:4;stroke-dasharray:none;stroke-dashoffset:0;stroke-opacity:1;marker:none;color-rendering:auto;image-rendering:auto;shape-rendering:auto;text-rendering:auto;enable-background:accumulate" d="m 243.05273,-53.089844 c -0.50461,-0.01007 -0.51271,0.749303 -0.008,0.75 l 2.80546,-0.143551 c 0.50461,0.01007 0.51856,-0.385922 0.0138,-0.386619 z" inkscape:connector-curvature="0" />
    <circle cx="37.651787" cy="-233.087830" r="0.695206" style="color:#000000;opacity:1;isolation:auto;mix-blend-mode:normal;color-interpolation:sRGB;color-interpolation-filters:linearRGB;solid-color:#000000;solid-opacity:1;fill:#a66e00;fill-opacity:1;fill-rule:nonzero;stroke:#000000;stroke-width:0.5;stroke-linecap:butt;stroke-linejoin:miter;stroke-miterlimit:4;stroke-dasharray:none;stroke-dashoffset:0;stroke-opacity:1;color-rendering:auto;image-rendering:auto;shape-rendering:auto;text-rendering:auto;enable-background:accumulate" transform="matrix(0.37654483,0.9263984,-0.9263984,0.37654483,0,0)" />
    <circle cx="39.995537" cy="-238.712830" r="0.695206" style="color:#000000;opacity:1;isolation:auto;mix-blend-mode:normal;color-interpolation:sRGB;color-interpolation-filters:linearRGB;solid-color:#000000;solid-opacity:1;fill:#a66e00;fill-opacity:1;fill-rule:nonzero;stroke:#000000;stroke-width:0.5;stroke-linecap:butt;stroke-linejoin:miter;stroke-miterlimit:4;stroke-dasharray:none;stroke-dashoffset:0;stroke-opacity:1;color-rendering:auto;image-rendering:auto;shape-rendering:auto;text-rendering:auto;enable-background:accumulate" transform="matrix(0.37654483,0.9263984,-0.9263984,0.37654483,0,0)" />
    <path style="color:#000000;fill:#feffff;fill-opacity:1;fill-rule:evenodd;stroke:#000000;stroke-width:0.5;stroke-linecap:butt;stroke-linejoin:round;stroke-miterlimit:4;stroke-dasharray:none;stroke-dashoffset:0;stroke-opacity:1;marker:none;enable-background:accumulate" d="m 230.8139,-58.168744 -0.0696,11.095953 c 0,0 1.11273,-0.901569 1.17305,-2.014949 0.0592,-1.093696 -0.80015,-1.762231 -0.80015,-1.762231 0,0 1.00218,-0.841738 0.9922,-1.921676 -0.0106,-1.140901 -0.9468,-1.722391 -0.9468,-1.722391 0,0 0.80027,-0.5343 0.83406,-1.646805 0.0349,-1.150244 -1.18274,-2.027894 -1.18274,-2.027894 z" inkscape:connector-curvature="0" />
    <path style="color:#000000;fill:#feffff;fill-opacity:1;fill-rule:evenodd;stroke:#000000;stroke-width:0.5;stroke-linecap:butt;stroke-linejoin:round;stroke-miterlimit:4;stroke-dasharray:none;stroke-dashoffset:0;stroke-opacity:1;marker:none;enable-background:accumulate" d="m 236.95087,-57.97366 -0.0645,10.282469 c 0,0 1.03677,-0.785137 1.09267,-1.816887 0.0549,-1.013517 -0.74706,-1.683399 -0.74706,-1.683399 0,0 0.85887,-0.76153 0.84962,-1.762298 -0.01,-1.057255 -0.80754,-1.614603 -0.80754,-1.614603 0,0 0.84013,-0.540128 0.87144,-1.571079 0.0324,-1.065902 -1.19455,-1.834218 -1.19455,-1.834218 z" inkscape:connector-curvature="0" />
    <path style="fill:#000000;stroke:none" d="m 239.16963,-53.312319 -0.0111,0.999645 1.00145,0.01039 0.009,-1.000718 z" inkscape:connector-curvature="0" />
    <path style="fill:#6a4600;stroke:none" d="m 233.00825,-53.641515 -0.0131,1.52646 1.52369,0.01423 0.0142,-1.523703 z" inkscape:connector-curvature="0" />
    <path style="fill:none;stroke:#000000;stroke-width:0.6;stroke-linecap:butt" d="m 227.26126,-55.055042 -0.0734,4.514141" inkscape:connector-curvature="0" />
    <path style="fill:#000000;stroke:none" d="m 223.83649,-54.026834 -0.0111,0.999636 1.00072,0.0086 0.009,-0.998911 z" inkscape:connector-curvature="0" />
    <path style="fill:#000000;stroke:none" d="m 223.85032,-52.581947 -0.0111,0.999637 1.00072,0.0086 0.009,-0.998912 z" inkscape:connector-curvature="0" />
    <path style="fill:none;stroke:#000000;stroke-width:0.5;stroke-linecap:butt;stroke-linejoin:round;stroke-miterlimit:4" d="m 227.2539,-51.578825 1.14997,0.173504 -0.0116,1.05042" inkscape:connector-curvature="0" />
    <path style="fill:none;stroke:#000000;stroke-width:0.5;stroke-linecap:butt;stroke-linejoin:round;stroke-miterlimit:4" d="m 227.25705,-54.143799 1.1481,-0.163064 0.0224,-1.189753" inkscape:connector-curvature="0" />
  </g>
</g>
<g inkscape:groupmode="layer" id="suit_rank_glow_layer" inkscape:label="Suit Rank Glow" style="display:inline" sodipodi:insensitive="true" >
  <g style="opacity:0.75;filter:url(#blurSuitRankGlow)" >
    <path style="fill:#ffffff;fill-opacity:1;stroke:none" d="m 25.651888,21.229764 c -0.59548,0.0193 -1.29762,0.13183 -2.02125,0.35875 -2.41293,0.84879 -3.90505,3.64994 -3.9025,5.87125 -0.16472,6.86829 6.59266,13.21158 11.69,17.01 0.003,0.0146 0.006,0.0291 0.009,0.0438 0.008,-0.006 0.0181,-0.0114 0.0262,-0.0175 0.008,0.006 0.0181,0.0114 0.0262,0.0175 0.003,-0.0147 0.006,-0.0291 0.009,-0.0438 5.09734,-3.79842 11.85472,-10.14171 11.69,-17.01 0.003,-2.22131 -1.48957,-5.02246 -3.9025,-5.87125 -0.72363,-0.22692 -1.42577,-0.33949 -2.02125,-0.35875 -2.54992,-0.0825 -5.0297,1.40516 -5.80125,3.00125 -0.77155,-1.59609 -3.25133,-3.08374 -5.80125,-3.00125 z" inkscape:connector-curvature="0" />
    <path style="fill:#ffffff;fill-opacity:1;stroke:none" d="m 221.7648,316.27029 c 0.59548,-0.0193 1.29762,-0.13183 2.02125,-0.35875 2.41293,-0.84879 3.90505,-3.64994 3.9025,-5.87125 0.16472,-6.86829 -6.59266,-13.21158 -11.69,-17.01 -0.003,-0.0146 -0.006,-0.0291 -0.009,-0.0438 -0.008,0.006 -0.0181,0.0114 -0.0262,0.0175 -0.008,-0.006 -0.0181,-0.0114 -0.0262,-0.0175 -0.003,0.0147 -0.006,0.0291 -0.009,0.0438 -5.09734,3.79842 -11.85472,10.14171 -11.69,17.01 -0.003,2.22131 1.48957,5.02246 3.9025,5.87125 0.72363,0.22692 1.42577,0.33949 2.02125,0.35875 2.54992,0.0825 5.0297,-1.40516 5.80125,-3.00125 0.77155,1.59609 3.25133,3.08374 5.80125,3.00125 z" inkscape:connector-curvature="0" />
    <path style="fill:#ffffff;fill-opacity:1;stroke:none" d="m 21.873333,50.875025 c -10e-6,0 0.10666,0 0.32,0 0.23999,0 0.54666,0 0.91999,0 0.37334,0 0.8,0 1.28001,0 0.47999,0 0.97332,0 1.48,0 l 4,0 0,3.2 -2.4,0 0,12.04 7.84,-12.04 -2.24,0 0,-3.2 8,0 0,3.2 -2.08,0 -6.6,10.12 6.39999,15.48 2.28001,0 0,3.2 -8,0 0,-3.2 2.27999,0 -5.07999,-12.2 -2.8,4.32 0,7.88 2.4,0 0,3.2 -8,0 0,-3.2 2.4,0 0,-25.6 -2.4,0 0,-1.6 c -10e-6,-0.4 -0.0133,-0.76 -0.04,-1.08 -10e-6,-0.3466 0.0133,-0.52 0.04,-0.52" inkscape:connector-curvature="0" />
    <path style="fill:#ffffff;fill-opacity:1;stroke:none" d="m 225.54334,286.62502 c 1e-5,0 -0.10666,0 -0.32,0 -0.23999,0 -0.54666,0 -0.91999,0 -0.37334,0 -0.8,0 -1.28001,0 -0.47999,0 -0.97332,0 -1.48,0 l -4,0 0,-3.2 2.4,0 0,-12.04 -7.84,12.04 2.24,0 0,3.2 -8,0 0,-3.2 2.08,0 6.6,-10.12 -6.39999,-15.48 -2.28001,0 0,-3.2 8,0 0,3.2 -2.27999,0 5.07999,12.2 2.8,-4.32 0,-7.88 -2.4,0 0,-3.2 8,0 0,3.2 -2.4,0 0,25.6 2.4,0 0,1.60001 c 1e-5,0.39999 0.0133,0.76 0.04,1.07999 1e-5,0.34661 -0.0133,0.52 -0.04,0.52" inkscape:connector-curvature="0" />
  </g>
</g>
<g inkscape:groupmode="layer" id="suit_rank_layer" inkscape:label="Suit Rank" style="display:inline" sodipodi:insensitive="true" >
  <path style="fill:#de0000;fill-opacity:1;stroke:none" d="m 25.651888,21.229764 c -0.59548,0.0193 -1.29762,0.13183 -2.02125,0.35875 -2.41293,0.84879 -3.90505,3.64994 -3.9025,5.87125 -0.16472,6.86829 6.59266,13.21158 11.69,17.01 0.003,0.0146 0.006,0.0291 0.009,0.0438 0.008,-0.006 0.0181,-0.0114 0.0262,-0.0175 0.008,0.006 0.0181,0.0114 0.0262,0.0175 0.003,-0.0147 0.006,-0.0291 0.009,-0.0438 5.09734,-3.79842 11.85472,-10.14171 11.69,-17.01 0.003,-2.22131 -1.48957,-5.02246 -3.9025,-5.87125 -0.72363,-0.22692 -1.42577,-0.33949 -2.02125,-0.35875 -2.54992,-0.0825 -5.0297,1.40516 -5.80125,3.00125 -0.77155,-1.59609 -3.25133,-3.08374 -5.80125,-3.00125 z" inkscape:connector-curvature="0" />
  <path style="fill:#de0000;fill-opacity:1;stroke:none" d="m 221.7648,316.27029 c 0.59548,-0.0193 1.29762,-0.13183 2.02125,-0.35875 2.41293,-0.84879 3.90505,-3.64994 3.9025,-5.87125 0.16472,-6.86829 -6.59266,-13.21158 -11.69,-17.01 -0.003,-0.0146 -0.006,-0.0291 -0.009,-0.0438 -0.008,0.006 -0.0181,0.0114 -0.0262,0.0175 -0.008,-0.006 -0.0181,-0.0114 -0.0262,-0.0175 -0.003,0.0147 -0.006,0.0291 -0.009,0.0438 -5.09734,3.79842 -11.85472,10.14171 -11.69,17.01 -0.003,2.22131 1.48957,5.02246 3.9025,5.87125 0.72363,0.22692 1.42577,0.33949 2.02125,0.35875 2.54992,0.0825 5.0297,-1.40516 5.80125,-3.00125 0.77155,1.59609 3.25133,3.08374 5.80125,3.00125 z" inkscape:connector-curvature="0" />
  <path style="fill:#de0000;fill-opacity:1;stroke:none" d="m 21.873333,50.875025 c -10e-6,0 0.10666,0 0.32,0 0.23999,0 0.54666,0 0.91999,0 0.37334,0 0.8,0 1.28001,0 0.47999,0 0.97332,0 1.48,0 l 4,0 0,3.2 -2.4,0 0,12.04 7.84,-12.04 -2.24,0 0,-3.2 8,0 0,3.2 -2.08,0 -6.6,10.12 6.39999,15.48 2.28001,0 0,3.2 -8,0 0,-3.2 2.27999,0 -5.07999,-12.2 -2.8,4.32 0,7.88 2.4,0 0,3.2 -8,0 0,-3.2 2.4,0 0,-25.6 -2.4,0 0,-1.6 c -10e-6,-0.4 -0.0133,-0.76 -0.04,-1.08 -10e-6,-0.3466 0.0133,-0.52 0.04,-0.52" inkscape:connector-curvature="0" />
  <path style="fill:#de0000;fill-opacity:1;stroke:none" d="m 225.54334,286.62502 c 1e-5,0 -0.10666,0 -0.32,0 -0.23999,0 -0.54666,0 -0.91999,0 -0.37334,0 -0.8,0 -1.28001,0 -0.47999,0 -0.97332,0 -1.48,0 l -4,0 0,-3.2 2.4,0 0,-12.04 -7.84,12.04 2.24,0 0,3.2 -8,0 0,-3.2 2.08,0 6.6,-10.12 -6.39999,-15.48 -2.28001,0 0,-3.2 8,0 0,3.2 -2.27999,0 5.07999,12.2 2.8,-4.32 0,-7.88 -2.4,0 0,-3.2 8,0 0,3.2 -2.4,0 0,25.6 2.4,0 0,1.60001 c 1e-5,0.39999 0.0133,0.76 0.04,1.07999 1e-5,0.34661 -0.0133,0.52 -0.04,0.52" inkscape:connector-curvature="0" />
</g>
<g inkscape:groupmode="layer" id="guides_layer" inkscape:label="Guides" style="display:none" sodipodi:insensitive="true" >
  <path style="fill:none;stroke:#000000;stroke-width:0.9" d="m 11.250000,11.25 0,-45" inkscape:connector-curvature="0" />
  <path style="fill:none;stroke:#000000;stroke-width:0.9" d="m 11.250000,371.25 0,-45" inkscape:connector-curvature="0" />
  <path style="fill:none;stroke:#000000;stroke-width:0.9" d="m 84.375000,11.25 0,-45" inkscape:connector-curvature="0" />
  <path style="fill:none;stroke:#000000;stroke-width:0.9" d="m 84.375000,371.25 0,-45" inkscape:connector-curvature="0" />
  <path style="fill:none;stroke:#000000;stroke-width:0.9" d="m 123.750000,11.25 0,-45" inkscape:connector-curvature="0" />
  <path style="fill:none;stroke:#000000;stroke-width:0.9" d="m 123.750000,371.25 0,-45" inkscape:connector-curvature="0" />
  <path style="fill:none;stroke:#000000;stroke-width:0.9" d="m 163.125000,11.25 0,-45" inkscape:connector-curvature="0" />
  <path style="fill:none;stroke:#000000;stroke-width:0.9" d="m 163.125000,371.25 0,-45" inkscape:connector-curvature="0" />
  <path style="fill:none;stroke:#000000;stroke-width:0.9" d="m 236.250000,11.25 0,-45" inkscape:connector-curvature="0" />
  <path style="fill:none;stroke:#000000;stroke-width:0.9" d="m 236.250000,371.25 0,-45" inkscape:connector-curvature="0" />
  <path style="fill:none;stroke:#000000;stroke-width:0.9" d="m -33.75,11.250000 45,0" inkscape:connector-curvature="0" />
  <path style="fill:none;stroke:#000000;stroke-width:0.9" d="m 236.25,11.250000 45,0" inkscape:connector-curvature="0" />
  <path style="fill:none;stroke:#000000;stroke-width:0.9" d="m -33.75,118.125000 45,0" inkscape:connector-curvature="0" />
  <path style="fill:none;stroke:#000000;stroke-width:0.9" d="m 236.25,118.125000 45,0" inkscape:connector-curvature="0" />
  <path style="fill:none;stroke:#000000;stroke-width:0.9" d="m -33.75,168.750000 45,0" inkscape:connector-curvature="0" />
  <path style="fill:none;stroke:#000000;stroke-width:0.9" d="m 236.25,168.750000 45,0" inkscape:connector-curvature="0" />
  <path style="fill:none;stroke:#000000;stroke-width:0.9" d="m -33.75,219.375000 45,0" inkscape:connector-curvature="0" />
  <path style="fill:none;stroke:#000000;stroke-width:0.9" d="m 236.25,219.375000 45,0" inkscape:connector-curvature="0" />
  <path style="fill:none;stroke:#000000;stroke-width:0.9" d="m -33.75,326.250000 45,0" inkscape:connector-curvature="0" />
  <path style="fill:none;stroke:#000000;stroke-width:0.9" d="m 236.25,326.250000 45,0" inkscape:connector-curvature="0" />
  <g id="guide-short0-0" >
    <rect x="0.000000" y="-22.500000" width="247.500000" height="22.500000" style="fill:#73baff;stroke:#000000;stroke-width:0.9" />
  </g>
  <g id="guide-long1-3" >
    <rect x="247.500000" y="118.125000" width="22.500000" height="219.375000" style="fill:#ffd291;stroke:#000000;stroke-width:0.9" />
    <rect x="247.500000" y="123.750000" width="22.500000" height="213.750000" style="fill:#b4e982;stroke:#000000;stroke-width:0.9" />
    <rect x="247.500000" y="225.000000" width="22.500000" height="112.500000" style="fill:#5adc4f;stroke:#000000;stroke-width:0.9" />
    <rect x="247.500000" y="151.875000" width="22.500000" height="61.875000" style="fill:#5adc4f;stroke:#000000;stroke-width:0.9" />
    <rect x="247.500000" y="0.000000" width="22.500000" height="118.125000" style="fill:#b9deff;stroke:#000000;stroke-width:0.9" />
    <rect x="247.500000" y="0.000000" width="22.500000" height="84.375000" style="fill:#9bceff;stroke:#000000;stroke-width:0.9" />
    <rect x="247.500000" y="0.000000" width="22.500000" height="50.625000" style="fill:#73baff;stroke:#000000;stroke-width:0.9" />
  </g>
  <g id="guide-short2-6" transform="matrix(-1,0,0,1,247.5,360)" >
    <rect x="0.000000" y="-22.500000" width="163.125000" height="22.500000" style="fill:#ffd291;stroke:#000000;stroke-width:0.9" />
    <rect x="0.000000" y="-22.500000" width="146.250000" height="22.500000" style="fill:#b4e982;stroke:#000000;stroke-width:0.9" />
    <rect x="0.000000" y="-22.500000" width="33.750000" height="22.500000" style="fill:#5adc4f;stroke:#000000;stroke-width:0.9" />
    <rect x="45.000000" y="-22.500000" width="33.750000" height="22.500000" style="fill:#5adc4f;stroke:#000000;stroke-width:0.9" />
    <rect x="90.000000" y="-22.500000" width="39.375000" height="22.500000" style="fill:#5adc4f;stroke:#000000;stroke-width:0.9" />
    <rect x="163.125000" y="-22.500000" width="84.375000" height="22.500000" style="fill:#b9deff;stroke:#000000;stroke-width:0.9" />
    <rect x="185.625000" y="-22.500000" width="61.875000" height="22.500000" style="fill:#9bceff;stroke:#000000;stroke-width:0.9" />
    <rect x="213.750000" y="-22.500000" width="33.750000" height="22.500000" style="fill:#73baff;stroke:#000000;stroke-width:0.9" />
  </g>
  <g id="guide-long3-0" transform="matrix(1,0,0,-1,-270,337.5)" >
    <rect x="247.500000" y="0.000000" width="22.500000" height="337.500000" style="fill:#73baff;stroke:#000000;stroke-width:0.9" />
  </g>
</g>
<g inkscape:groupmode="layer" id="cut_line_layer" inkscape:label="Cut Line" style="display:none" sodipodi:insensitive="true" >
  <rect style="fill:none;stroke:#000000;stroke-width:0.5;stroke-linecap:butt;stroke-linejoin:bevel;stroke-miterlimit:4;stroke-dasharray:none;stroke-opacity:1" width="225" height="315" x="11.25" y="11.25" ry="17.361111" />
</g>
<g inkscape:groupmode="layer" id="page_border_layer" inkscape:label="Page Border" style="display:none" sodipodi:insensitive="true" >
  <rect style="fill:none;stroke:#000000;stroke-width:0.5;stroke-linecap:butt;stroke-linejoin:bevel;stroke-miterlimit:4;stroke-dasharray:none;stroke-opacity:1" width="247.5" height="337.5" x="0" y="0" />
</g>

</svg>
