<?xml version="1.0" encoding="UTF-8" standalone="no"?>
<svg version="1.1" height="337.5" width="247.5" xmlns:rdf="http://www.w3.org/1999/02/22-rdf-syntax-ns#" xmlns="http://www.w3.org/2000/svg" xmlns:cc="http://creativecommons.org/ns#" xmlns:xlink="http://www.w3.org/1999/xlink" xmlns:dc="http://purl.org/dc/elements/1.1/" xmlns:sodipodi="http://sodipodi.sourceforge.net/DTD/sodipodi-0.dtd" xmlns:svg="http://www.w3.org/2000/svg" xmlns:inkscape="http://www.inkscape.org/namespaces/inkscape">
<metadata>
  <rdf:RDF>
    <cc:Work rdf:about="">
      <dc:format>image/svg+xml</dc:format>
      <dc:type rdf:resource="http://purl.org/dc/dcmitype/StillImage"/>
      <dc:title/>
      <dc:creator>
        <cc:Agent><dc:title>Gary Kacmarcik</dc:title></cc:Agent>
      </dc:creator>
    </cc:Work>
  </rdf:RDF>
</metadata>

<defs>
  <filter inkscape:label="textureGrassBig" style="color-interpolation-filters:sRGB" id="textureGrassBig">
    <feTurbulence numOctaves="2" seed="807" type="turbulence" baseFrequency="0.070000" result="result1" />
    <feColorMatrix result="result0" in="SourceGraphic" type="luminanceToAlpha" />
    <feColorMatrix result="result2" values="1 0 0 0 0 0 1 0 0 0 0 0 1 0 0 0 0 0 0.4 0 " />
    <feComposite in="result2" operator="over" in2="result1" />
    <feColorMatrix result="result91" values="1 0 0 0 0 0 1 0 0 0 0 0 1 0 0 0 0 0 10 -4 " />
    <feComposite operator="out" in="SourceGraphic" in2="result91" />
    <feGaussianBlur stdDeviation="2.500000" />
    <feColorMatrix values="1 0 0 0 0 0 1 0 0 0 0 0 1 0 0 0 0 0 1 0 " />
  </filter>
  <filter inkscape:label="textureGrassSmall" style="color-interpolation-filters:sRGB" id="textureGrassSmall">
    <feTurbulence numOctaves="4" seed="807" type="turbulence" baseFrequency="0.500000" result="result1" />
    <feColorMatrix result="result0" in="SourceGraphic" type="luminanceToAlpha" />
    <feColorMatrix result="result2" values="1 0 0 0 0 0 1 0 0 0 0 0 1 0 0 0 0 0 0.4 0 " />
    <feComposite in="result2" operator="over" in2="result1" />
    <feColorMatrix result="result91" values="1 0 0 0 0 0 1 0 0 0 0 0 1 0 0 0 0 0 10 -4 " />
    <feComposite operator="out" in="SourceGraphic" in2="result91" />
    <feGaussianBlur stdDeviation="1.000000" />
    <feColorMatrix values="1 0 0 0 0 0 1 0 0 0 0 0 1 0 0 0 0 0 1 0 " />
  </filter>
  <filter inkscape:label="textureLand" style="color-interpolation-filters:sRGB" id="textureLand">
    <feTurbulence numOctaves="4" seed="807" type="turbulence" baseFrequency="0.500000" result="result1" />
    <feColorMatrix result="result0" in="SourceGraphic" type="luminanceToAlpha" />
    <feColorMatrix result="result2" values="1 0 0 0 0 0 1 0 0 0 0 0 1 0 0 0 0 0 0.4 0 " />
    <feComposite in="result2" operator="over" in2="result1" />
    <feColorMatrix result="result91" values="1 0 0 0 0 0 1 0 0 0 0 0 1 0 0 0 0 0 10 -4 " />
    <feComposite operator="out" in="SourceGraphic" in2="result91" />
    <feGaussianBlur stdDeviation="0.800000" />
    <feColorMatrix values="1 0 0 0 0 0 1 0 0 0 0 0 1 0 0 0 0 0 1 0 " />
  </filter>
  <filter inkscape:label="textureForestBig" style="color-interpolation-filters:sRGB" id="textureForestBig">
    <feTurbulence numOctaves="2" seed="807" type="turbulence" baseFrequency="0.300000" result="result1" />
    <feColorMatrix result="result0" in="SourceGraphic" type="luminanceToAlpha" />
    <feColorMatrix result="result2" values="1 0 0 0 0 0 1 0 0 0 0 0 1 0 0 0 0 0 0.4 0 " />
    <feComposite in="result2" operator="over" in2="result1" />
    <feColorMatrix result="result91" values="1 0 0 0 0 0 1 0 0 0 0 0 1 0 0 0 0 0 10 -4 " />
    <feComposite operator="out" in="SourceGraphic" in2="result91" />
    <feGaussianBlur stdDeviation="2.000000" />
    <feColorMatrix values="1 0 0 0 0 0 1 0 0 0 0 0 1 0 0 0 0 0 1 0 " />
  </filter>
  <filter inkscape:label="textureForestSmall" style="color-interpolation-filters:sRGB" id="textureForestSmall">
    <feTurbulence numOctaves="4" seed="807" type="turbulence" baseFrequency="0.350000" result="result1" />
    <feColorMatrix result="result0" in="SourceGraphic" type="luminanceToAlpha" />
    <feColorMatrix result="result2" values="1 0 0 0 0 0 1 0 0 0 0 0 1 0 0 0 0 0 0.4 0 " />
    <feComposite in="result2" operator="over" in2="result1" />
    <feColorMatrix result="result91" values="1 0 0 0 0 0 1 0 0 0 0 0 1 0 0 0 0 0 10 -4 " />
    <feComposite operator="out" in="SourceGraphic" in2="result91" />
    <feGaussianBlur stdDeviation="1.000000" />
    <feColorMatrix values="1 0 0 0 0 0 1 0 0 0 0 0 1 0 0 0 0 0 1 0 " />
  </filter>
  <filter inkscape:label="roughenShoreline" style="color-interpolation-filters:sRGB" id="roughenShoreline">
    <feTurbulence numOctaves="4" seed="807" type="turbulence" baseFrequency="0.050000" result="turb" />
    <feDisplacementMap scale="6.600000" yChannelSelector="G" xChannelSelector="R" in="SourceGraphic" in2="turb" />
  </filter>
  <filter inkscape:label="roughenForest" style="color-interpolation-filters:sRGB" id="roughenForest">
    <feTurbulence numOctaves="4" seed="807" type="fractalNoise" baseFrequency="0.150000 0.150000" result="turb" />
    <feDisplacementMap scale="6.600000" yChannelSelector="G" xChannelSelector="R" in="SourceGraphic" in2="turb" />
  </filter>
  <filter inkscape:collect="always" inkscape:label="blurSuitRankGlow" style="color-interpolation-filters:sRGB" id="blurSuitRankGlow" x="-0.029025" y="-0.020458" width="1.058049" height="1.040917">
    <feGaussianBlur inkscape:collect="always" stdDeviation="2.515067" />
  </filter>
  <filter inkscape:collect="always" inkscape:label="blurWaterDeep" style="color-interpolation-filters:sRGB" id="blurWaterDeep" x="-0.056691" y="-0.041620" width="1.113381" height="1.083239">
    <feGaussianBlur inkscape:collect="always" stdDeviation="6.919136" />
  </filter>
  <filter inkscape:collect="always" inkscape:label="blurWaterShallow" style="color-interpolation-filters:sRGB" id="blurWaterShallow" x="-0.055818" y="-0.042103" width="1.111637" height="1.084205">
    <feGaussianBlur inkscape:collect="always" stdDeviation="6.561501" />
  </filter>
  <filter inkscape:collect="always" inkscape:label="blurWaterHilight" style="color-interpolation-filters:sRGB" id="blurWaterHilight" x="-0.071178" y="-0.051856" width="1.142356" height="1.103712">
    <feGaussianBlur inkscape:collect="always" stdDeviation="6.857532" />
  </filter>
  <filter inkscape:collect="always" inkscape:label="blurGrass" style="color-interpolation-filters:sRGB" id="blurGrass" x="-0.032100" y="-0.019164" width="1.064201" height="1.038328">
    <feGaussianBlur inkscape:collect="always" stdDeviation="2.386213" />
  </filter>
  <filter inkscape:collect="always" inkscape:label="blurForestShadow" style="color-interpolation-filters:sRGB" id="blurForestShadow" x="-0.033576" y="-0.018674" width="1.067152" height="1.037348">
    <feGaussianBlur inkscape:collect="always" stdDeviation="2.199785" />
  </filter>
  <filter inkscape:collect="always" inkscape:label="blurFlowerInner" style="color-interpolation-filters:sRGB" id="blurFlowerInner" x="-0.420000" y="-0.420000" width="1.840000" height="1.840000">
    <feGaussianBlur inkscape:collect="always" stdDeviation="1.605540" />
  </filter>
  <filter inkscape:collect="always" inkscape:label="blurFlowerMiddle" style="color-interpolation-filters:sRGB" id="blurFlowerMiddle" x="-0.240000" y="-0.240000" width="1.480000" height="1.480000">
    <feGaussianBlur inkscape:collect="always" stdDeviation="1.933705" />
  </filter>
  <linearGradient id="gradientStopsFish" inkscape:collect="always">
    <stop offset="0.000000" style="stop-color:#ff5555;stop-opacity:1.000000" />
    <stop offset="1.000000" style="stop-color:#ffffff;stop-opacity:1.000000" />
  </linearGradient>
  <linearGradient id="gradientStopsCoconut" inkscape:collect="always">
    <stop offset="0.000000" style="stop-color:#ffffff;stop-opacity:1.000000" />
    <stop offset="1.000000" style="stop-color:#c8c8c8;stop-opacity:0.000000" />
  </linearGradient>
  <linearGradient id="gradientStopsFlower" inkscape:collect="always">
    <stop offset="0.000000" style="stop-color:#b16dff;stop-opacity:1.000000" />
    <stop offset="1.000000" style="stop-color:#e7d2ff;stop-opacity:1.000000" />
  </linearGradient>
  <linearGradient id="gradientStopsJellyfish" inkscape:collect="always">
    <stop offset="0.000000" style="stop-color:#4f97ff;stop-opacity:1.000000" />
    <stop offset="1.000000" style="stop-color:#cfe3ff;stop-opacity:1.000000" />
  </linearGradient>
  <linearGradient id="gradientStopsShip" inkscape:collect="always">
    <stop offset="0.000000" style="stop-color:#b67800;stop-opacity:1.000000" />
    <stop offset="1.000000" style="stop-color:#d28b00;stop-opacity:1.000000" />
  </linearGradient>
  <linearGradient id="gradientFish" xlink:href="#gradientStopsFish" x1="178.789090" y1="-114.782830" x2="180.407300" y2="-103.782830" gradientTransform="translate(-178.76256,1.0606602)" gradientUnits="userSpaceOnUse" inkscape:collect="always" />
  <linearGradient id="gradientJellyfishTentacle1a" xlink:href="#gradientStopsJellyfish" x1="118.024030" y1="-110.827530" x2="121.753140" y2="-96.140030" gradientTransform="translate(-120,0)" gradientUnits="userSpaceOnUse" inkscape:collect="always" />
  <linearGradient id="gradientJellyfishTentacle1b" xlink:href="#gradientStopsJellyfish" x1="118.024030" y1="-110.827530" x2="121.753140" y2="-96.140030" gradientTransform="translate(-120,0)" gradientUnits="userSpaceOnUse" inkscape:collect="always" />
  <linearGradient id="gradientJellyfishTentacle2" xlink:href="#gradientStopsJellyfish" x1="118.218180" y1="-115.782610" x2="121.698270" y2="-97.813858" gradientTransform="translate(-120,0)" gradientUnits="userSpaceOnUse" inkscape:collect="always" />
  <linearGradient id="gradientJellyfishTentacle3" xlink:href="#gradientStopsJellyfish" x1="123.335370" y1="-114.610190" x2="116.678600" y2="-98.453941" gradientTransform="translate(-120,0)" gradientUnits="userSpaceOnUse" inkscape:collect="always" />
  <linearGradient id="gradientShip" xlink:href="#gradientStopsShip" x1="196.432910" y1="221.715270" x2="203.663250" y2="204.277770" gradientTransform="matrix(0.37654483,0.9263984,-0.9263984,0.37654483,355.66788,-318.43897)" gradientUnits="userSpaceOnUse" inkscape:collect="always" />
  <radialGradient id="gradientCoconut" xlink:href="#gradientStopsCoconut" cx="1.944096" cy="-60.612652" fx="1.944096" fy="-60.612652" r="6.723294" gradientUnits="userSpaceOnUse" gradientTransform="matrix(1.691364,-0.31394812,0.29762395,1.603419,17.826033,-7.042221)" inkscape:collect="always" />
  <radialGradient id="gradientFlower" xlink:href="#gradientStopsFlower" cx="60.884877" cy="-69.652750" fx="60.884877" fy="-69.652750" r="15.835310" gradientUnits="userSpaceOnUse" gradientTransform="matrix(0.8413905,0,0,0.87120012,-50.722984,-48.679159)" inkscape:collect="always" />
  <radialGradient id="gradientJellyfish" xlink:href="#gradientStopsJellyfish" cx="120.453410" cy="-112.943900" fx="120.453410" fy="-112.943900" r="10.580511" gradientUnits="userSpaceOnUse" gradientTransform="matrix(1.1662998,0.0435575,-0.04526952,1.2121402,-145.14628,17.080499)" inkscape:collect="always" />
</defs>

<sodipodi:namedview
    id="base"
    pagecolor="#ffffff"
    bordercolor="#666666"
    borderopacity="1.0"
    inkscape:pageopacity="0.0"
    inkscape:pageshadow="2"
    inkscape:zoom="2"
    inkscape:cx="115.37643"
    inkscape:cy="285.04449"
    inkscape:document-units="in"
    showgrid="true"
    units="in"
    inkscape:window-width="1392"
    inkscape:window-height="836"
    inkscape:window-x="39"
    inkscape:window-y="6"
    inkscape:window-maximized="0"
    inkscape:snap-grids="true"
    inkscape:snap-to-guides="true"
    inkscape:snap-nodes="true"
    inkscape:object-nodes="true"
    inkscape:snap-smooth-nodes="true"
    inkscape:snap-intersection-paths="true"
    inkscape:object-paths="true"
    inkscape:snap-bbox="true"
    inkscape:bbox-nodes="true"
    inkscape:snap-others="true"
    inkscape:bbox-paths="false"
    inkscape:snap-global="true" >
  <inkscape:grid
    type="xygrid"
    id="grid3051"
    empspacing="2"
    visible="true"
    enabled="true"
    snapvisiblegridlinesonly="true"
    spacingx="0.0625in"
    spacingy="0.0625in"
    dotted="false"
    units="in" />
</sodipodi:namedview>
<g inkscape:groupmode="layer" id="water_layer" inkscape:label="Water" style="display:inline" sodipodi:insensitive="true" >
  <rect id="water" style="fill:#b9deff;fill-opacity:1;stroke:none" x="0" y="0" width="247.5" height="337.5" />
</g>
<g inkscape:groupmode="layer" id="water_shallow_layer" inkscape:label="Water Shallow" style="display:inline" sodipodi:insensitive="true" >
  <path style="fill:#9bd1ff;fill-opacity:0.70;fill-rule:evenodd;stroke:none;filter:url(#blurWaterShallow)" d="m 123.75,-11.25 0,22.5 c 0,0 2.10861,20.060107 0,29.75 -1.91888,8.818 -6.78916,16.780247 -11.25,24.625 -4.88483,8.590381 -10.65254,16.69794 -16.875,24.375 -8.40742,10.37279 -20.090684,18.01728 -27.5,29.125 -5.899611,8.84444 -7.354985,20.11593 -13,29.125 -4.01958,6.41498 -8.061065,13.60356 -14.625,17.375 -5.280224,3.0339 -11.932728,2.60224 -18,3.125 -3.736158,0.32191 -11.25,0 -11.25,0 l -22.5,0 0,180 73.125,0 0,-22.5 -7.75,-17 c -3.478295,-7.62981 -10.412116,-14.15671 -11.25,-22.5 -0.655467,-6.52686 1.143401,-13.7869 5.125,-19 6.506382,-8.51879 15.756123,-15.21113 24.25,-21.75 7.774288,-5.98491 17.424104,-11.56577 20.875,-20.75 3.584611,-9.54009 -2.667347,-20.32313 -2.125,-30.5 0.468451,-8.79024 3.685951,-17.24751 4.625,-26 0.94299,-8.78918 -1.373427,-17.98497 1,-26.5 1.892895,-6.79105 4.82761,-13.99455 10.25,-18.5 9.12091,-7.57853 22.92097,-6.41709 33.75,-11.25 10.37806,-4.63165 19.16132,-12.44017 29.625,-16.875 8.35245,-3.540024 17.27228,-5.643963 26.125,-7.625 7.57398,-1.694885 15.26239,-3.018983 23,-3.625 5.60783,-0.43921 16.875,0 16.875,0 l 22.5,0 0,-95.625 z" inkscape:connector-curvature="0" />
</g>
<g inkscape:groupmode="layer" id="water_deep_layer" inkscape:label="Water Deep" style="display:inline" sodipodi:insensitive="true" >
  <path style="fill:#87c8ff;fill-opacity:0.60;fill-rule:evenodd;stroke:none;filter:url(#blurWaterDeep)" d="m 180,-11.25 0,22.5 c 0,0 0.25623,3.76759 0,5.625 -0.94638,6.860353 -2.53989,13.799826 -5.625,20 -3.86834,7.774235 -19.12698,12.750076 -15.75,20.75 2.3837,5.646893 12.32412,3.816329 18.25,2.25 8.03254,-2.123161 12.18408,-12.057027 20,-14.875 5.96617,-2.151059 12.71215,-1.827773 19,-1 7.08058,0.932133 20.375,6.625 20.375,6.625 l 22.5,0 0,-61.875 z m -146.25,225 c -4.271555,2.87687 -5.627771,8.71412 -9.25,12.375 -3.909581,3.9513 -13.25,10.125 -13.25,10.125 l -22.5,0 0,112.5 45,0 0,-22.5 c 0,0 0.04271,-14.59135 -1.625,-21.625 -1.944028,-8.19904 -7.989745,-15.10884 -9.625,-23.375 -1.455482,-7.35742 -1.659852,-15.18598 0,-22.5 1.66632,-7.34252 4.891698,-14.62294 9.75,-20.375 4.803838,-5.68757 15.141564,-6.11017 18.25,-12.875 2.201951,-4.79207 2.823638,-12.73029 -1.5,-15.75 -4.308498,-3.00914 -10.891121,1.06432 -15.25,4 z" inkscape:connector-curvature="0" />
</g>
<g inkscape:groupmode="layer" id="water_hilight_layer" inkscape:label="Water Hilight" style="display:inline" sodipodi:insensitive="true" >
  <use xlink:href="#shoreline" height="100%" width="100%" x="0" y="0" style="display:inline;fill:#ffffff;fill-opacity:1;stroke:#ffffff;stroke-opacity:1;filter:url(#blurWaterHilight)" />
</g>
<g inkscape:groupmode="layer" id="land_layer" inkscape:label="Land" style="display:inline" sodipodi:insensitive="true" >
  <use xlink:href="#shoreline" height="100%" width="100%" x="0" y="0" style="display:inline;fill:#ffddab;fill-opacity:1;stroke:none;stroke-width:1;stroke-miterlimit:4;stroke-dasharray:none;stroke-opacity:1" />
</g>
<g inkscape:groupmode="layer" id="land_texture_layer" inkscape:label="Land Texture" style="display:inline" sodipodi:insensitive="true" >
  <use xlink:href="#shoreline" height="100%" width="100%" x="0" y="0" style="display:inline;fill:#ffca7d;fill-opacity:1;stroke:none;stroke-width:1;stroke-miterlimit:4;stroke-dasharray:none;stroke-opacity:1;filter:url(#textureLand)" />
</g>
<g inkscape:groupmode="layer" id="shoreline_layer" inkscape:label="Shoreline" style="display:inline" sodipodi:insensitive="true" >
  <use xlink:href="#shoreline" height="100%" width="100%" x="0" y="0" style="display:inline;fill:none;fill-opacity:1;stroke:#5f4c14;stroke-width:1;stroke-miterlimit:4;stroke-dasharray:none;stroke-opacity:1" />
</g>
<g inkscape:groupmode="layer" id="shoreline_master_layer" inkscape:label="Shoreline Master" style="display:none" sodipodi:insensitive="true" >
  <path id="shoreline" style="color:#000000;clip-rule:nonzero;display:inline;overflow:visible;visibility:visible;opacity:1;isolation:auto;mix-blend-mode:normal;color-interpolation:sRGB;color-interpolation-filters:linearRGB;solid-color:#000000;solid-opacity:1;fill-opacity:1;fill-rule:evenodd;filter:url(#roughenShoreline);color-rendering:auto;image-rendering:auto;shape-rendering:auto;text-rendering:auto;enable-background:accumulate" d="m 30.9375,-26.71875 c -25.3125,0 -50.625,1.40625 -53.4375,4.21875 -5.625,5.625 -5.625,135 0,140.625 3.97748,3.97748 11.54248,0.21713 22.5,0 4.88806,-0.0969 13.986182,0.6603 16.875,0 8.75,-2 6.622569,-7.68457 17.5,-14 6.203532,-3.60177 11.579999,4.83297 14.636719,-15.91211 1.15979,-7.871183 1.90118,-13.242607 9,-17.499999 8.57537,-5.142925 8.265653,-14.265112 11.75,-19.5 C 73.045479,46.279365 73.0321,35.053559 77.125,31.875 c 8.701,-6.75722 6.11962,-13.183312 7.25,-15 4.54846,-7.3100271 0,-11.25 0,-16.875 0,-7.5 5.3033,-17.196699 0,-22.5 -2.8125,-2.8125 -28.125,-4.21875 -53.4375,-4.21875 z M 261.80859,116.63867 C 254.9637,116.53959 247.5,118.125 247.5,118.125 l -22.5,0 c -11.25,0 -15.64051,-0.16206 -21.27344,-1.0918 -6.23223,-1.02867 -9.53562,2.81766 -15.30273,4.95899 -6.25604,2.32287 -4.37709,3.77703 -17.05078,11.60351 -11.68479,7.2158 -8.13555,7.05249 -13.90821,10.42578 -6.63396,3.8766 -25.74412,5.73063 -25.53515,12.47266 -6.13579,9.78388 -8.85365,25.52444 -3.24414,34.26953 5.9721,9.48071 0.67716,6.0447 -1.76563,15.45703 -2.00377,7.72073 13.55895,25.61344 12.69336,35.19141 -0.65161,7.21022 -12.49144,26.99189 -21.67773,30.30664 -10.94027,3.94765 -22.73191,5.67255 -39.593753,9.09375 -13.483861,2.73582 -12.885705,6.9209 -9.109375,15.10547 6.863404,14.87529 15.344698,23.61883 14.642578,30.70703 -1.01122,10.20864 0.5,8.07486 0.5,10.875 0,5.625 5.625,11.25 0,22.5 0,0 174.375,11.25 185.625,0 7.95495,-7.95495 11.25,-236.25 0,-241.875 -2.09631,-1.04816 -5.08009,-1.44129 -8.19141,-1.48633 z" inkscape:connector-curvature="0" />
</g>
<g inkscape:groupmode="layer" id="grass_layer" inkscape:label="Grass" style="display:inline" sodipodi:insensitive="true" >
  <use xlink:href="#grass" height="100%" width="100%" x="0" y="0" style="display:inline;fill:#b4e982;fill-opacity:1;stroke:none;stroke-width:1;stroke-miterlimit:4;stroke-dasharray:none;stroke-opacity:1" />
</g>
<g inkscape:groupmode="layer" id="grass_texture1_layer" inkscape:label="Grass Texture Big" style="display:inline" sodipodi:insensitive="true" >
  <use xlink:href="#grass" height="100%" width="100%" x="0" y="0" style="display:inline;fill:#a7e46a;fill-opacity:1;stroke:none;stroke-width:1;stroke-miterlimit:4;stroke-dasharray:none;stroke-opacity:1;filter:url(#textureGrassBig)" />
</g>
<g inkscape:groupmode="layer" id="grass_texture2_layer" inkscape:label="Grass Texture Small" style="display:inline" sodipodi:insensitive="true" >
  <use xlink:href="#grass" height="100%" width="100%" x="0" y="0" style="display:inline;fill:#8cdd3d;fill-opacity:1;stroke:none;stroke-width:1;stroke-miterlimit:4;stroke-dasharray:none;stroke-opacity:1;filter:url(#textureGrassSmall)" />
</g>
<g inkscape:groupmode="layer" id="grass_master_layer" inkscape:label="Grass Master" style="display:none" sodipodi:insensitive="true" >
  <path id="grass" style="color:#000000;clip-rule:nonzero;display:inline;overflow:visible;visibility:visible;opacity:1;isolation:auto;mix-blend-mode:normal;color-interpolation:sRGB;color-interpolation-filters:linearRGB;solid-color:#000000;solid-opacity:1;fill-opacity:1;fill-rule:evenodd;filter:url(#blurGrass);color-rendering:auto;image-rendering:auto;shape-rendering:auto;text-rendering:auto;enable-background:accumulate" d="m -11.25,-11.25 0,112.5 22.5,0 c 0,0 11.285489,2.75009 16.75,1.5 5.300997,-1.21269 10.553286,-4.168892 14,-8.375 5.128744,-6.258728 3.159443,-16.48603 8.125,-22.875 2.616815,-3.366944 8.169731,-3.6385 10.625,-7.125 2.8453,-4.040347 1.873637,-9.754084 3.625,-14.375 2.377662,-6.273388 6.131723,-11.93488 9.25,-17.875 1.689459,-3.218312 4.244619,-6.098424 5.125,-9.625 0.908282,-3.638341 0,-11.25 0,-11.25 l 0,-22.5 z m 236.25,135 c -5.96106,0.10418 -11.99901,-0.38388 -17.875,0.625 -5.46792,0.93882 -10.73191,2.91958 -15.875,5 -7.77337,3.14439 -15.47588,6.67023 -22.5,11.25 -3.17292,2.06877 -5.40349,5.47571 -8.75,7.25 -4.21725,2.23595 -10.64182,2.56945 -14.75,5 -6.84645,4.05061 -9.33077,9.02558 -12.375,16.375 -2.87013,6.9291 -2.72315,15.20063 -1,22.5 0.96327,4.08047 2.59508,6.591 3.125,10.75 0.40387,3.16969 -2.38752,6.20327 -2,9.375 1.09611,8.97121 10.67359,15.41729 11.875,24.375 1.01461,7.56489 -0.68456,15.75133 -4.25,22.5 -3.71601,7.03367 -10.10811,12.69283 -16.875,16.875 -5.04374,3.1172 -11.19253,3.93214 -16.875,5.625 -7.060914,2.10351 -15.643518,0.9956 -21.375,5.625 -2.580315,2.08416 -4.879309,5.57987 -4.5,8.875 0.815071,7.08068 9.934564,10.3548 13.75,16.375 2.774514,4.37778 6.5,14.125 6.5,14.125 l 0,22.5 157.5,0 0,-225 -22.5,0 c 0,0 -7.50057,-0.0655 -11.25,0 z" inkscape:connector-curvature="0" />
</g>
<g inkscape:groupmode="layer" id="forest_shadow_layer" inkscape:label="Forest Shadow" style="display:inline" sodipodi:insensitive="true" >
  <g style="filter:url(#blurForestShadow)" >
    <use xlink:href="#forest" height="100%" width="100%" x="0" y="0" style="display:inline;opacity:0.75;fill:#258c1b;fill-opacity:1;filter:url(#roughenForest)" />
  </g>
</g>
<g inkscape:groupmode="layer" id="forest_fill_layer" inkscape:label="Forest Fill" style="display:inline" sodipodi:insensitive="true" >
  <use xlink:href="#forest" height="100%" width="100%" x="0" y="0" style="fill:#83d700;fill-opacity:1;stroke:none;stroke-width:1.5;stroke-miterlimit:4;stroke-dasharray:none;stroke-opacity:1;filter:url(#roughenForest)" />
</g>
<g inkscape:groupmode="layer" id="forest_texture_big_layer" inkscape:label="Forest Texture Big" style="display:inline" sodipodi:insensitive="true" >
  <g style="filter:url(#textureForestBig)" >
    <use xlink:href="#forest" height="100%" width="100%" x="0" y="0" style="fill:#548c00;fill-opacity:1;stroke:none;stroke-width:1.5;stroke-miterlimit:4;stroke-dasharray:none;stroke-opacity:1;filter:url(#roughenForest)" />
  </g>
</g>
<g inkscape:groupmode="layer" id="forest_texture_small_layer" inkscape:label="Forest Texture Small" style="display:inline" sodipodi:insensitive="true" >
  <g style="filter:url(#textureForestSmall)" >
    <use xlink:href="#forest" height="100%" width="100%" x="0" y="0" style="fill:#78c125;fill-opacity:1;stroke:none;stroke-width:1;stroke-miterlimit:4;stroke-dasharray:none;stroke-opacity:1;filter:url(#roughenForest)" />
  </g>
</g>
<g inkscape:groupmode="layer" id="forest_outline_layer" inkscape:label="Forest Outline" style="display:inline" sodipodi:insensitive="true" >
  <use xlink:href="#forest" height="100%" width="100%" x="0" y="0" style="fill:none;fill-opacity:1;stroke:#006800;stroke-width:1.5;stroke-miterlimit:4;stroke-dasharray:none;stroke-opacity:1;filter:url(#roughenForest)" />
</g>
<g inkscape:groupmode="layer" id="forest_master_layer" inkscape:label="Forest Master" style="display:none" sodipodi:insensitive="true" >
  <path id="forest" style="color:#000000;clip-rule:nonzero;display:inline;overflow:visible;visibility:visible;opacity:1;isolation:auto;mix-blend-mode:normal;color-interpolation:sRGB;color-interpolation-filters:linearRGB;solid-color:#000000;solid-opacity:1;fill-opacity:1;fill-rule:nonzero;color-rendering:auto;image-rendering:auto;shape-rendering:auto;text-rendering:auto;enable-background:accumulate" d="m 34.5,-7 c -2.229535,0.0027 -4.28886,1.2403798 -5.404297,3.2480469 C 27.925961,-5.4729588 26.026499,-6.4973144 24,-6.5 21.078118,-6.49688 18.548241,-4.3887863 17.908203,-1.4238281 17.607654,-1.4721651 17.304113,-1.4976234 17,-1.5 16.226441,-1.5003425 15.459542,-1.3513336 14.738281,-1.0605469 13.754306,-3.4482511 11.497842,-4.9973618 9,-5 7.6009884,-4.9991509 6.2427023,-4.5101679 5.1425781,-3.6113281 4.1889704,-4.1911674 3.1046319,-4.4978014 2,-4.5 -0.72078561,-4.4987784 -3.1282235,-2.6671352 -3.953125,0.02929688 -6.253423,1.0502022 -7.7470423,3.3989646 -7.75,6 -7.74805,7.7556552 -7.063303,9.4358284 -5.8515625,10.658203 -6.4366862,11.666884 -6.7472317,12.821978 -6.75,14 c 0,3.589851 2.7982203,6.5 6.25,6.5 1.14256188,-0.0026 2.2625723,-0.330925 3.2382812,-0.949219 0.1037764,0.04263 0.2086317,0.08235 0.3144532,0.119141 0.014149,0.02615 0.028473,0.05219 0.042969,0.07813 -0.046732,0.08358 -0.091665,0.168239 -0.1347656,0.253906 -1.717951,0.01392 -3.35464027,0.76269 -4.5253906,2.070313 C -2.9489585,23.304881 -3.7471647,25.104587 -3.75,27 c 8.964e-4,1.503122 0.5026783,2.959463 1.4199219,4.121094 C -2.9290021,32.138284 -3.2472587,33.307252 -3.25,34.5 c 1.874e-4,1.680205 0.6259705,3.295061 1.7460938,4.505859 C -2.6213321,40.213735 -3.2469045,41.823849 -3.25,43.5 c 8.557e-4,2.34976 1.2210567,4.516102 3.19140625,5.666016 C -1.7415753,50.378279 -2.7469993,52.370886 -2.75,54.5 c 0.00308,2.670544 1.5764398,5.067387 3.9667969,6.042969 -0.30163931,0.767152 -0.45942141,1.58722 -0.46484378,2.416015 C -0.22676232,62.334756 -1.3518976,62.002959 -2.5,62 c -3.4517797,0 -6.25,2.910149 -6.25,6.5 0.0013,2.414803 1.2896955,4.629824 3.3457031,5.751953 C -4.2888603,76.25962 -2.229535,77.497299 0,77.5 0.50714101,77.497945 1.0121563,77.431702 1.5039062,77.302734 1.9931202,77.43105 2.4954741,77.497287 3,77.5 3.6798664,77.497259 4.3547481,77.379172 4.9980469,77.150391 5.6425868,77.379608 6.3188221,77.497702 7,77.5 8.046779,77.498051 9.0763219,77.2227 9.9941406,76.699219 10.91544,77.224681 11.949252,77.500096 13,77.5 c 1.094155,-0.003 2.16837,-0.304769 3.115234,-0.875 1.168092,1.199637 2.743123,1.873147 4.384766,1.875 0.340278,-4.94e-4 0.679948,-0.02989 1.015625,-0.08789 0.24867,0.342448 0.529336,0.658443 0.837891,0.94336 -0.06694,0.377582 -0.101581,0.760589 -0.103516,1.14453 0,3.589851 2.79822,6.5 6.25,6.5 3.45178,0 6.25,-2.910149 6.25,-6.5 C 34.7473,79.797713 34.635157,79.100525 34.417969,78.435547 36.183082,77.236443 37.247941,75.192648 37.25,73 37.249813,71.319795 36.624029,69.704939 35.503906,68.494141 36.625883,69.466188 38.039719,69.998967 39.5,70 c 3.45178,0 6.25,-2.910149 6.25,-6.5 -4.52e-4,-1.454815 -0.470173,-2.867416 -1.333984,-4.011719 C 46.736508,58.476754 48.247511,56.116725 48.25,53.5 48.249647,53.126143 48.21828,52.753015 48.15625,52.384766 49.445729,52.129467 50.625188,51.458419 51.527344,50.466797 52.308093,50.817653 53.149482,50.99909 54,51 57.45178,51 60.25,48.089851 60.25,44.5 60.2482,40.940818 57.494328,38.045059 54.072266,38.003906 54.187682,37.511524 54.247332,37.006794 54.25,36.5 54.247674,35.822624 54.143553,35.149789 53.941406,34.505859 54.144716,33.858191 54.248852,33.181307 54.25,32.5 c -0.0016,-2.632002 -1.529188,-5.003231 -3.869141,-6.005859 0.0397,0.0023 0.07941,0.0043 0.119141,0.0059 0.619131,-0.0018 1.234575,-0.09917 1.826172,-0.289062 0.44213,0.999265 1.120867,1.865495 1.972656,2.517578 -0.03098,0.255926 -0.04729,0.513543 -0.04883,0.771484 0,3.589851 2.79822,6.5 6.25,6.5 3.45178,0 6.25,-2.910149 6.25,-6.5 -0.0028,-2.064956 -0.948881,-4.005676 -2.548828,-5.228516 C 64.232153,24.015558 64.248457,23.757941 64.25,23.5 64.248871,21.833308 63.632179,20.230748 62.527344,19.023438 63.000334,18.091452 63.248343,17.053836 63.25,16 63.24885,14.55762 62.786426,13.156608 61.935547,12.017578 62.142015,11.366507 62.248145,10.685564 62.25,10 62.249992,9.8468615 62.244781,9.6937712 62.234375,9.5410156 62.20808,9.190729 62.154519,8.8432363 62.074219,8.5019531 62.188832,8.0101256 62.247826,7.5060605 62.25,7 62.249326,5.9983397 62.026069,5.0103932 61.597656,4.1132812 61.496196,3.62775 61.34154,3.1559186 61.136719,2.7070312 61.210567,2.3092383 61.248492,1.9051361 61.25,1.5 61.25,-2.0898509 58.45178,-5 55,-5 54.826559,-4.9990372 54.653232,-4.99057 54.480469,-4.974609 54.320685,-4.9894827 54.16041,-4.9979525 54,-5 53.320134,-4.99726 52.645252,-4.8791715 52.001953,-4.6503906 51.357413,-4.8796077 50.681178,-4.9977015 50,-5 c -1.927712,0.00333 -3.746084,0.9316161 -4.927734,2.515625 -0.522606,0.039423 -1.038372,0.1470385 -1.535157,0.3203125 C 42.811622,-5.0130289 40.333829,-6.9978283 37.5,-7 36.992859,-6.99794 36.487844,-6.931703 35.996094,-6.8027344 35.50688,-6.9310503 35.004526,-6.9972875 34.5,-7 Z m 8.998047,22.488281 c 0.514902,0.445033 1.095214,0.801134 1.71875,1.054688 C 44.587977,17.577655 44.252855,18.775971 44.25,20 c 0.0016,2.632002 1.529188,5.003231 3.869141,6.005859 C 48.079446,26.003512 48.039731,26.001559 48,26 47.032614,26.000469 46.078538,26.234475 45.212891,26.683594 45.2368,26.456566 45.249187,26.228384 45.25,26 45.249106,23.837184 44.21387,21.816497 42.488281,20.609375 42.988046,19.655403 43.249931,18.586374 43.25,17.5 c -0.0012,-0.557826 -0.07144,-1.113171 -0.208984,-1.652344 0.157546,-0.112463 0.31005,-0.23238 0.457031,-0.359375 z m -29.013672,2.878907 c 0.44734,0.627564 0.999793,1.166124 1.630859,1.589843 C 15.233832,21.105461 14.752591,22.530597 14.75,24 c 10e-4,0.100326 0.0043,0.200613 0.0098,0.300781 -0.05733,0.04198 -0.113981,0.08495 -0.169922,0.128907 C 14.693979,23.96076 14.747682,23.481258 14.75,23 c -0.0029,-1.141116 -0.294546,-2.261338 -0.845703,-3.248047 0.244447,-0.436575 0.43912,-0.901301 0.580078,-1.384765 z m 16.644531,1.34375 c 0.450179,1.295741 1.284594,2.409206 2.382813,3.179687 C 33.011954,23.844597 32.750069,24.913626 32.75,26 c 0.0022,0.905937 0.186492,1.801389 0.541016,2.628906 -2.534084,0.52264 -4.497824,2.612897 -4.941407,5.259766 C 27.251592,32.991549 25.896333,32.502666 24.5,32.5 24.342919,32.500356 24.185906,32.5069 24.029297,32.51953 24.501018,31.588535 24.748337,30.552345 24.75,29.5 24.749,29.399675 24.7457,29.299388 24.7402,29.199219 26.31749,27.973957 27.24746,26.047436 27.25,24 c -0.0023,-0.537037 -0.06853,-1.071711 -0.197266,-1.591797 1.651439,-0.294502 3.120022,-1.266285 4.076172,-2.697265 z M 41.787109,31.816406 C 41.7632,32.043434 41.750813,32.271616 41.75,32.5 c 0.0023,0.677376 0.106447,1.350211 0.308594,1.994141 C 41.855284,35.141809 41.751148,35.818693 41.75,36.5 c 0.0027,1.571748 0.552956,3.089235 1.548828,4.271484 -0.917071,0.700399 -1.632905,1.647866 -2.070312,2.740235 C 41.152419,43.506363 41.076234,43.502456 41,43.5 c -0.779288,1.29e-4 -1.551679,0.151826 -2.277344,0.447266 -0.09833,-1.184264 -0.507027,-2.317813 -1.18164,-3.277344 C 39.519318,39.524071 40.746942,37.354995 40.75,35 40.7478,34.094063 40.563508,33.198611 40.208984,32.371094 40.756468,32.26026 41.287223,32.073708 41.787109,31.816406 Z M 20.232422,43.738281 c 0.191674,0.187607 0.394552,0.362435 0.607422,0.523438 -0.317555,0.709091 -0.509434,1.471972 -0.566406,2.251953 -0.367576,-0.597737 -0.826776,-1.128851 -1.359376,-1.572266 0.491646,-0.3346 0.935469,-0.739629 1.31836,-1.203125 z M 7.9863281,49.972656 C 8.1571188,49.989097 8.3284878,49.99822 8.5,50 8.583388,49.9985 8.6667379,49.9952 8.75,49.9902 L 8.75,50 c 0.00123,0.07882 0.00383,0.157608 0.00781,0.236328 -0.1036391,0.100589 -0.2039576,0.204816 -0.3007813,0.3125 -0.146019,-0.201393 -0.3031858,-0.393775 -0.4707006,-0.576172 z m 27.8789059,4.744141 c 0.185923,1.019455 0.603819,1.977805 1.21875,2.794922 -0.75867,0.331322 -1.446965,0.815187 -2.02539,1.423828 -0.148573,-0.624734 -0.385533,-1.223057 -0.703125,-1.775391 0.674014,-0.6856 1.190152,-1.520903 1.509765,-2.443359 z m -2.423828,10.347656 c 0.261681,1.105115 0.797784,2.119401 1.554688,2.941406 -1.030455,-0.88855 -2.30799,-1.409559 -3.644532,-1.486328 0.78422,-0.332748 1.495227,-0.827794 2.089844,-1.455078 z m -6.914062,1.402344 c 0.672677,0.299003 1.390606,0.472866 2.121094,0.513672 -0.603007,0.256106 -1.163813,0.608669 -1.66211,1.044922 C 26.824597,68.01036 26.662365,68.00189 26.5,68 c -0.340278,4.95e-4 -0.679948,0.02989 -1.015625,0.08789 -0.116114,-0.160137 -0.239293,-0.3146 -0.369141,-0.462891 0.52193,-0.31325 0.997556,-0.703355 1.41211,-1.158203 z M 209.5,137.25 c -3.72792,0 -6.75,3.24594 -6.75,7.25 0,4.00406 3.02208,7.25 6.75,7.25 0.24681,-0.003 0.49327,-0.0206 0.73828,-0.0527 0.1521,0.40793 0.33841,0.80017 0.55664,1.17187 -2.61045,0.51248 -4.69913,2.62026 -5.33789,5.38672 -0.78251,-0.3316 -1.61583,-0.50318 -2.45703,-0.50589 -0.31116,0.002 -0.6218,0.0278 -0.92969,0.0762 1.38702,-1.37067 2.17731,-3.30179 2.17969,-5.32617 0,-4.00406 -3.02208,-7.25 -6.75,-7.25 -3.72792,0 -6.75,3.24594 -6.75,7.25 0.002,0.59888 0.0726,1.19522 0.21094,1.77539 -0.15333,-0.0141 -0.30707,-0.0226 -0.46094,-0.0254 -2.5508,0.003 -4.88193,1.55095 -6.02539,4 -1.80497,0.01 -3.53115,0.79537 -4.79297,2.18164 -1.09471,-0.76867 -2.37376,-1.17919 -3.68164,-1.18166 -3.72792,0 -6.75,3.24594 -6.75,7.25 0.003,1.60349 0.50113,3.16062 1.41602,4.42773 -2.38524,1.18513 -3.9132,3.7495 -3.91602,6.57227 0.003,0.54525 0.0633,1.0884 0.17969,1.61914 -1.14448,-0.88629 -2.51876,-1.36511 -3.92969,-1.36914 -3.72792,0 -6.75,3.24594 -6.75,7.25 0.003,0.50106 0.0538,1.00048 0.15234,1.49023 -0.0999,0.49614 -0.15091,1.00217 -0.15234,1.50977 0.003,3.25783 2.02941,6.11322 4.95312,6.98047 1.2776,1.74569 3.22955,2.76629 5.29688,2.76953 2.95537,9e-5 5.56714,-2.06479 6.44531,-5.0957 1.06682,0.71354 2.29793,1.09302 3.55469,1.0957 0.6475,-0.001 1.29147,-0.10253 1.91211,-0.30078 -0.10583,0.50916 -0.16018,1.02909 -0.16211,1.55078 0.003,0.86897 0.15096,1.73032 0.4375,2.54297 -0.92831,1.27204 -1.43427,2.84079 -1.4375,4.45703 0,4.00406 3.02208,7.25 6.75,7.25 3.32963,-0.004 6.15906,-2.61549 6.66406,-6.15039 0.43955,0.0977 0.88708,0.14809 1.33594,0.15039 2.45599,-4.2e-4 4.71795,-1.4336 5.90625,-3.74219 0.66212,3.34472 3.41009,5.7378 6.59375,5.74219 2.344,-0.004 4.51847,-1.31296 5.74414,-3.45898 -0.32472,0.86067 -0.49248,1.78033 -0.49414,2.70898 0,4.00406 3.02208,7.25 6.75,7.25 1.80008,-0.002 3.52486,-0.77612 4.79102,-2.15039 1.2802,1.67533 3.1911,2.64761 5.20898,2.65039 1.97423,-9.6e-4 3.8491,-0.93019 5.13086,-2.54297 0.893,2.57273 3.23912,4.28879 5.86914,4.29297 0.67987,-0.003 1.35475,-0.12083 1.99805,-0.34961 0.64454,0.22922 1.32077,0.34731 2.00195,0.34961 0.67987,-0.003 1.35475,-0.12083 1.99805,-0.34961 0.64454,0.22922 1.32077,0.34731 2.00195,0.34961 2.36145,-0.003 4.51944,-1.39066 5.57812,-3.58594 1.37595,-1.23215 2.16865,-3.0257 2.17188,-4.91406 -0.003,-2.27442 -1.14891,-4.38176 -3.02148,-5.55664 -0.53818,-0.85376 -1.26216,-1.56369 -2.11329,-2.07227 1.04899,-1.19467 1.63189,-2.75325 1.63477,-4.37109 -0.003,-2.68243 -1.59039,-5.08734 -3.99609,-6.05469 3.1345,-0.39612 5.49258,-3.16145 5.49609,-6.44531 -0.003,-1.34316 -0.4051,-2.65253 -1.15234,-3.74805 0.74798,-1.09661 1.15058,-2.40745 1.15234,-3.75195 -8.3e-4,-1.43379 -0.45747,-2.82706 -1.29883,-3.96289 -0.19139,-0.62721 -0.47325,-1.22057 -0.83594,-1.75977 2.73294,-0.76037 4.63397,-3.33513 4.63477,-6.27734 -8.3e-4,-1.43379 -0.45747,-2.82706 -1.29883,-3.96289 C 251.62915,154.8383 249.22209,153.00319 246.5,153 c -0.85946,0.003 -1.7092,0.18934 -2.49609,0.54883 C 243.2146,153.18825 242.3621,153.00139 241.5,153 c -0.77356,-3.4e-4 -1.54046,0.14866 -2.26172,0.43945 C 238.52437,153.15161 237.76568,153.00266 237,153 c -0.10032,8.2e-4 -0.20061,0.004 -0.30078,0.01 -0.0663,-0.004 -0.13277,-0.008 -0.19922,-0.01 -0.64508,9e-4 -1.28613,0.10566 -1.90039,0.31055 -0.82351,-0.36961 -1.70709,-0.56014 -2.59961,-0.56055 -1.44022,0.003 -2.84185,0.50039 -4,1.41992 -1.15815,-0.91953 -2.55978,-1.41708 -4,-1.41992 -0.0853,0.002 -0.17064,0.005 -0.25586,0.01 -0.21148,-0.55237 -0.48569,-1.07456 -0.81641,-1.55469 0.21278,-0.71283 0.32149,-1.45675 0.32227,-2.20531 0,-4.00406 -3.02208,-7.25 -6.75,-7.25 -0.24681,0.003 -0.49327,0.0206 -0.73828,0.0527 -1.02572,-2.74867 -3.5047,-4.55106 -6.26172,-4.5527 z m 20.79492,29.75586 0.0352,0.01 -0.006,0.0352 c -0.01,-0.015 -0.0195,-0.03 -0.0293,-0.0449 z m -38.58594,1.62305 c 0.0228,0.057 0.0462,0.11361 0.0703,0.16992 -0.4941,0.0575 -0.98078,0.17344 -1.45118,0.3457 0.0695,-0.1293 0.13531,-0.26087 0.19727,-0.39453 0.39708,-0.003 0.79314,-0.0434 1.18359,-0.12109 z m 20.23633,3.52539 c 0.0188,0.0125 0.0377,0.0248 0.0566,0.0371 -0.49169,1.02309 -0.74945,2.15724 -0.75195,3.30859 7.6e-4,1.36897 0.36236,2.70974 1.04297,3.86719 -0.56797,0.26687 -1.09901,0.61651 -1.57813,1.03906 -0.17793,-0.23126 -0.36905,-0.45043 -0.57226,-0.65625 0.0694,-0.41255 0.10533,-0.83078 0.10742,-1.25 -0.002,-0.97294 -0.18701,-1.93541 -0.54297,-2.83008 1.05696,-0.90476 1.83671,-2.12949 2.23828,-3.51562 z m -25.27343,0.20117 c -0.0265,0.0453 -0.0525,0.0908 -0.0781,0.13672 -0.007,-0.0339 -0.0141,-0.0678 -0.0215,-0.10157 0.0333,-0.0115 0.0665,-0.0232 0.0996,-0.0352 z m 12.25781,0.81836 c -0.0535,0.0505 -0.10623,0.10197 -0.15821,0.15429 -0.0172,-0.0425 -0.0348,-0.0848 -0.0527,-0.12695 0.0704,-0.008 0.14076,-0.017 0.21094,-0.0273 z m 34.14648,0.2539 c 0.25562,0.17514 0.52327,0.3305 0.80078,0.46485 -0.14608,0.0569 -0.29006,0.11942 -0.43164,0.1875 -0.1123,-0.22426 -0.23551,-0.44201 -0.36914,-0.65235 z m -47.16992,4.08008 c 0.20827,1.05392 0.63262,2.04474 1.24219,2.90039 -0.78861,-0.54348 -1.67393,-0.90465 -2.59961,-1.06054 0.54252,-0.53001 1.00101,-1.15144 1.35742,-1.83985 z m 35.93555,3.94336 c 0.56608,0.93084 1.32389,1.70937 2.21484,2.27539 -0.84634,1.23967 -1.30392,2.7362 -1.30664,4.27344 0.002,1.57285 0.48082,3.10223 1.36328,4.35742 -0.36769,-0.0688 -0.74006,-0.10473 -1.11328,-0.10742 -0.59101,6.9e-4 -1.17937,0.0847 -1.75,0.25 -0.001,-0.93353 -0.17038,-1.85801 -0.49805,-2.72266 0.64984,-1.13654 0.99519,-2.44359 0.99805,-3.77734 -7.6e-4,-1.36897 -0.36236,-2.70974 -1.04297,-3.86719 0.3978,-0.18746 0.77782,-0.41574 1.13477,-0.68164 z m -52.27149,1.93555 c 0.21165,0.16531 0.43208,0.31726 0.66016,0.45508 -0.0644,0.16557 -0.12301,0.33365 -0.17578,0.5039 -0.11837,-0.0756 -0.23887,-0.1472 -0.36133,-0.21484 -0.0289,-0.25018 -0.07,-0.49856 -0.12305,-0.74414 z m 70.47071,1.5625 c 0.69872,0.9468 1.63461,1.67524 2.70507,2.10547 -0.45819,0.0574 -0.90886,0.16749 -1.34375,0.32812 -0.29496,-0.89495 -0.77421,-1.71215 -1.40429,-2.39453 0.0144,-0.013 0.0287,-0.026 0.043,-0.0391 z m -39.33204,5.15234 c 0.40678,0.43917 0.86428,0.82054 1.36133,1.13477 -1.47885,0.61315 -2.7096,1.76578 -3.47656,3.25586 -0.15231,-0.76924 -0.42013,-1.50675 -0.79297,-2.1836 1.13585,-0.44283 2.1402,-1.20503 2.9082,-2.20703 z m 31.17188,4.67969 c 0.81602,0.60716 1.76061,1.00107 2.75391,1.14844 -0.74362,0.96088 -1.209,2.12197 -1.3418,3.34765 -0.52267,0.40137 -0.98196,0.88505 -1.36133,1.4336 -0.59237,-0.8693 -1.35766,-1.58589 -2.24023,-2.09766 -0.14457,-1.25961 -0.59446,-2.4564 -1.30469,-3.4707 0.36769,0.0688 0.74006,0.10473 1.11328,0.10742 0.81343,-8.9e-4 1.62002,-0.15969 2.38086,-0.46875 z m -20.67774,4.04102 c 0.22876,0.13836 0.46484,0.26227 0.70704,0.37109 -0.44681,0.44682 -0.83512,0.95667 -1.1543,1.51562 0.22739,-0.60444 0.37783,-1.23907 0.44726,-1.88671 z M 221,224.75 c -3.72792,0 -6.75,3.24594 -6.75,7.25 7.1e-4,2.40539 1.11211,4.65379 2.9668,6.00195 -0.0609,0.0819 -0.12018,0.1653 -0.17774,0.25 l -0.0391,-0.002 c -3.72792,0 -6.75,3.24594 -6.75,7.25 0.001,2.42964 1.13582,4.69699 3.02148,6.03906 -0.0117,0.15338 -0.0189,0.30712 -0.0214,0.46099 0.002,2.57105 1.27251,4.94839 3.33789,6.24805 -0.22255,0.7268 -0.3366,1.48685 -0.33789,2.25195 0.002,0.35314 0.0282,0.70564 0.0781,1.05469 -1.27773,-1.76816 -3.2442,-2.8033 -5.3281,-2.80469 -3.2909,0.004 -6.09966,2.55584 -6.64844,6.04102 -3.45802,0.35846 -6.09797,3.47756 -6.10156,7.20898 0,4.00406 3.02208,7.25 6.75,7.25 0.0756,-10e-4 0.15109,-0.004 0.22656,-0.008 0.1728,0.30801 0.36669,0.60179 0.58008,0.8789 -0.68744,1.15931 -1.05389,2.50463 -1.05664,3.8791 0.003,2.81606 1.52363,5.37561 3.90039,6.56445 -0.26235,0.78123 -0.39779,1.60506 -0.40039,2.43555 10e-4,0.12771 0.006,0.25536 0.0137,0.38281 -0.41641,-0.0868 -0.83952,-0.13129 -1.2637,-0.13281 -3.72792,0 -6.75,3.24594 -6.75,7.25 10e-4,2.36328 1.07489,4.57757 2.87695,5.93359 -0.5737,1.08771 -0.8758,2.31628 -0.87695,3.56641 0.003,3.5192 2.35853,6.52787 5.58594,7.13477 0.47703,3.22478 2.90224,5.70915 5.92383,6.06835 -0.006,0.0989 -0.009,0.19785 -0.01,0.29688 0.002,0.41584 0.0427,0.8305 0.12109,1.23828 -0.0797,0.41547 -0.12021,0.83806 -0.12086,1.26172 0.002,0.67738 0.10644,1.35021 0.30859,1.99414 -0.20331,0.64767 -0.30744,1.32455 -0.30859,2.00586 0.002,0.95145 0.20455,1.89088 0.59375,2.75195 -0.38866,0.85988 -0.59134,1.79791 -0.59375,2.74805 10e-4,1.72909 0.66463,3.38646 1.84375,4.60547 0.86455,2.62614 3.23722,4.39152 5.90625,4.39453 3.08008,-0.005 5.69781,-2.34206 6.16797,-5.50781 0.99694,0.6563 2.15215,1.0057 3.33203,1.00781 0.88255,-0.003 1.75454,-0.1997 2.55859,-0.57812 1.02089,0.70205 2.21752,1.07693 3.44141,1.07812 2.14882,-0.003 4.14555,-1.15354 5.28711,-3.04688 0.23658,0.0297 0.47459,0.0454 0.71289,0.0469 3.45178,0 6.25,-2.91015 6.25,-6.5 -0.002,-0.63479 -0.0935,-1.26584 -0.27148,-1.87305 0.50591,-0.95826 0.77125,-2.03375 0.77148,-3.12695 -0.002,-0.63479 -0.0935,-1.26584 -0.27148,-1.87305 0.50591,-0.95826 0.77125,-2.03375 0.77148,-3.12695 -0.002,-1.31062 -0.38569,-2.58988 -1.09961,-3.66992 1.02712,-1.18964 1.59662,-2.73124 1.59961,-4.33008 -0.003,-1.32853 -0.3966,-2.62433 -1.12891,-3.71289 1.64629,-1.21705 2.62556,-3.18649 2.62891,-5.28711 -0.002,-0.67738 -0.10644,-1.35021 -0.30859,-1.99414 0.20331,-0.64767 0.30744,-1.32455 0.30859,-2.00586 -0.003,-1.54947 -0.53733,-3.047 -1.50781,-4.22266 -0.0776,-2.33155 -1.35077,-4.441 -3.33594,-5.52734 2.05465,-1.12235 3.34214,-3.33634 3.34375,-5.75 -0.003,-1.80171 -0.72542,-3.5212 -1.99414,-4.74805 1.26968,-1.22778 1.99193,-2.94888 1.99414,-4.75195 -4.7e-4,-1.04605 -0.24368,-2.07652 -0.70898,-3.00391 0.46412,-0.92504 0.7073,-1.95269 0.70898,-2.99609 -0.002,-0.85711 -0.16626,-1.70541 -0.48438,-2.49609 0.3191,-0.79311 0.48373,-1.64417 0.48438,-2.50391 -0.002,-1.95429 -0.84875,-3.80408 -2.30664,-5.03711 0.84415,-1.13479 1.30357,-2.52815 1.30664,-3.96289 -6e-4,-1.45233 -0.46886,-2.86261 -1.33008,-4.00586 0.85885,-1.14009 1.32697,-2.54583 1.33008,-3.99414 -0.002,-2.10412 -0.98289,-4.07716 -2.63281,-5.29492 -0.0149,-0.0765 -0.0312,-0.15266 -0.0488,-0.22852 0.14357,0.013 0.28752,0.0208 0.43161,0.0234 3.45178,0 6.25,-2.91015 6.25,-6.5 -6.7e-4,-1.00166 -0.22393,-1.98961 -0.65234,-2.88672 C 252.47155,229.13135 249.9348,227.00413 247,227 c -0.43609,0.002 -0.87075,0.052 -1.29688,0.14844 -0.84296,-0.42401 -1.76675,-0.64561 -2.70312,-0.64844 -0.50714,0.002 -1.01216,0.0683 -1.50391,0.19727 -0.48921,-0.12832 -0.99157,-0.19456 -1.49609,-0.19727 -0.41539,0.002 -0.82955,0.0472 -1.23633,0.13477 -0.41573,-0.0894 -0.83914,-0.1346 -1.26367,-0.13477 -0.10032,8.2e-4 -0.20061,0.004 -0.30078,0.01 -0.0663,-0.004 -0.13277,-0.008 -0.19922,-0.01 -0.88096,0.002 -1.75156,0.1977 -2.55469,0.57422 -1.27571,-1.47979 -3.06765,-2.32197 -4.94531,-2.32422 -1.5487,0.001 -3.04995,0.57414 -4.25195,1.62305 -1.20096,-1.048 -2.70069,-1.621 -4.24805,-1.62305 z m 11.55078,13.7168 c -1.45468,1.23336 -2.29941,3.0813 -2.30078,5.0332 0.003,0.28958 0.0244,0.57863 0.0644,0.86523 -0.48949,0.0954 -0.96765,0.24873 -1.42578,0.45704 0.23745,-0.74777 0.3595,-1.5322 0.36133,-2.32227 -5.8e-4,-1.16344 -0.26185,-2.30965 -0.76172,-3.3418 0.33462,0.0578 0.67281,0.0885 1.01172,0.0918 1.06008,-1.4e-4 2.10522,-0.26845 3.05078,-0.7832 z m -3.09375,19.93945 c 0.66051,0.22661 1.34958,0.34255 2.04297,0.34375 0.39887,-5.9e-4 0.79692,-0.0392 1.18945,-0.11523 0.17196,0.21668 0.35724,0.42154 0.55469,0.61328 -1.26968,1.22778 -1.99193,2.94888 -1.99414,4.75195 0.003,0.34368 0.0326,0.68655 0.0879,1.02539 -0.37068,-1.0917 -0.98025,-2.0717 -1.77734,-2.85742 0.12313,-0.54622 0.1867,-1.10597 0.18945,-1.66797 -0.002,-0.70955 -0.10045,-1.41499 -0.29298,-2.09375 z m -11.78515,6.53906 c 0.23239,0.31804 0.48914,0.61465 0.76757,0.88672 -0.12313,0.54622 -0.1867,1.10597 -0.18945,1.66797 0.002,0.0867 0.005,0.17325 0.01,0.25977 -0.24718,0.0102 -0.49365,0.035 -0.73829,0.0742 0.14871,-0.59834 0.22543,-1.21468 0.22829,-1.83397 -0.002,-0.35314 -0.0282,-0.70564 -0.0781,-1.05469 z m 13.9746,1.29883 c 0.17694,0.5036 0.41311,0.9825 0.70313,1.42578 -0.26,0.30293 -0.49214,0.63054 -0.69336,0.97852 0.0596,-0.37954 0.0909,-0.76356 0.0937,-1.14844 -4.9e-4,-0.42105 -0.0351,-0.84126 -0.10352,-1.25586 z m -0.84375,4.94336 c -0.0339,0.26942 -0.0515,0.54079 -0.0527,0.8125 6e-4,1.45233 0.46886,2.86261 1.33008,4.00586 -0.85885,1.14009 -1.32697,2.54583 -1.33008,3.99414 0.002,1.55293 0.53939,3.05364 1.51367,4.23047 -0.0349,0.036 -0.0694,0.0725 -0.10351,0.10937 -0.81433,-1.0378 -1.88353,-1.80925 -3.08594,-2.22656 0.11467,-0.52899 0.17363,-1.07015 0.17578,-1.61328 -0.001,-2.35499 -1.06766,-4.56253 -2.85938,-5.91992 1.84778,-0.4182 3.44797,-1.64863 4.41211,-3.39258 z M 178.5,277.25 c -3.72792,0 -6.75,3.24594 -6.75,7.25 0.002,0.25458 0.0175,0.50884 0.0449,0.76172 -3.64336,0.11896 -6.54069,3.32324 -6.5449,7.23828 0.003,2.31065 1.03209,4.48116 2.76953,5.84375 -0.0101,0.13519 -0.0166,0.27066 -0.0195,0.40625 0.003,2.24738 0.97622,4.36619 2.63477,5.73633 -1.20667,1.34766 -1.88193,3.14393 -1.88477,5.01367 0.002,0.97294 0.18701,1.93541 0.54297,2.83008 -1.60702,1.37567 -2.54306,3.46271 -2.54297,5.66992 0.003,2.24318 0.97336,4.35834 2.62695,5.72852 -0.0435,0.21946 -0.0761,0.44111 -0.0976,0.66406 -0.34771,0.82179 -0.52795,1.70959 -0.52935,2.60742 0.003,0.24621 0.0191,0.49205 0.0488,0.73633 -0.0307,0.25334 -0.047,0.50834 -0.0488,0.76367 3.2e-4,0.59498 0.0792,1.1871 0.23438,1.75977 -0.15351,0.56637 -0.23235,1.15179 -0.23438,1.74023 10e-4,1.26776 0.35912,2.50744 1.0293,3.56641 0.0575,0.67794 0.21697,1.34228 0.47265,1.96875 0.0186,3.57532 2.81019,6.46378 6.24805,6.46484 0.50714,-0.002 1.01216,-0.0683 1.50391,-0.19727 0.48921,0.12832 0.99157,0.19456 1.49609,0.19727 2.50777,-6.2e-4 4.77235,-1.56007 5.75195,-3.96094 0.97904,2.39951 3.2417,3.95869 5.74805,3.96094 0.30998,-10e-4 0.61943,-0.0269 0.92578,-0.0762 1.13299,1.01546 2.57855,1.5747 4.07422,1.57617 3.45178,0 6.25,-2.91015 6.25,-6.5 -0.001,-0.0977 -0.005,-0.1954 -0.01,-0.29297 0.004,-0.0689 0.008,-0.13797 0.01,-0.20703 -0.002,-0.92042 -0.19286,-1.82981 -0.55859,-2.66797 0.0366,-0.27575 0.0562,-0.55367 0.0586,-0.83203 -0.002,-0.8879 -0.17873,-1.76598 -0.51953,-2.58008 0.0109,-0.13972 0.0174,-0.27976 0.0195,-0.41992 -3.2e-4,-0.59498 -0.0792,-1.1871 -0.23438,-1.75977 0.15351,-0.56637 0.23235,-1.15179 0.23438,-1.74023 -0.002,-0.8879 -0.17873,-1.76598 -0.51953,-2.58008 0.0109,-0.13972 0.0174,-0.27976 0.0195,-0.41992 -0.001,-0.3389 -0.0281,-0.67717 -0.0801,-1.01172 0.0509,-0.32682 0.0776,-0.65721 0.0801,-0.98828 0,-3.58985 -2.79822,-6.5 -6.25,-6.5 -2.86768,0.004 -5.36471,2.03737 -6.05664,4.93164 -1.17355,-1.23532 -2.7736,-1.9309 -4.44336,-1.93164 -0.97204,0.004 -1.9297,0.24443 -2.79688,0.70117 0.7538,-0.79003 1.32501,-1.75856 1.66797,-2.82812 0.68623,0.24744 1.40505,0.37472 2.12891,0.37695 2.05845,-0.003 4.00304,-1.01503 5.28125,-2.74805 0.5606,0.16172 1.13829,0.24509 1.71875,0.24805 3.72792,0 6.75,-3.24594 6.75,-7.25 0,-4.00406 -3.02208,-7.25 -6.75,-7.25 -0.80577,10e-4 -1.60484,0.15727 -2.35938,0.46094 -0.22165,-1.30173 -0.77079,-2.51348 -1.58789,-3.50391 2.53701,-1.1132 4.19556,-3.76348 4.19727,-6.70703 0,-4.00406 -3.02208,-7.25 -6.75,-7.25 -0.086,0.003 -0.17196,0.007 -0.25781,0.0137 -0.11866,-3.90824 -3.10155,-7.01125 -6.74219,-7.0137 z m -36.5,11 c -3.72792,0 -6.75,3.24594 -6.75,7.25 0.002,0.68562 0.0936,1.36754 0.27344,2.02539 -0.93793,-0.50758 -1.97319,-0.77308 -3.02344,-0.77539 -3.72792,0 -6.75,3.24594 -6.75,7.25 0.003,1.76004 0.60221,3.45876 1.68555,4.7793 -3.49542,0.31505 -6.18366,3.45317 -6.18555,7.2207 0.002,1.2255 0.29408,2.43034 0.84766,3.50195 -2.329,1.00849 -3.84665,3.37432 -3.84766,5.99805 0.001,0.17408 0.009,0.34805 0.0234,0.52148 -0.0134,0.15915 -0.0213,0.31877 -0.0234,0.47852 0.002,0.50475 0.0615,1.00749 0.17578,1.49805 -0.11461,0.49183 -0.17361,0.99589 -0.17578,1.50195 0.002,0.41584 0.0427,0.8305 0.12109,1.23828 -0.0798,0.41546 -0.12036,0.83805 -0.12109,1.26172 3.2e-4,0.59498 0.0792,1.1871 0.23438,1.75977 -0.15351,0.56637 -0.23235,1.15179 -0.23438,1.74023 0,3.58985 2.79822,6.5 6.25,6.5 0.34158,-2.8e-4 0.68257,-0.0297 1.01953,-0.0879 0.32409,0.0561 0.65193,0.0854 0.98047,0.0879 2.11081,-0.002 4.07802,-1.11199 5.23047,-2.95117 0.72297,0.29578 1.49263,0.44879 2.26953,0.45117 1.79306,-0.002 3.49881,-0.80537 4.68359,-2.20508 0.87275,0.46118 1.83747,0.70269 2.81641,0.70508 -1.1202,1.2087 -1.74731,2.82126 -1.75,4.5 0,3.58985 2.79822,6.5 6.25,6.5 1.73184,-0.003 3.38474,-0.75366 4.56445,-2.07227 0.46622,-0.41583 0.87096,-0.90086 1.20117,-1.43945 0.078,0.005 0.15619,0.009 0.23438,0.0117 3.45178,0 6.25,-2.91015 6.25,-6.5 -0.002,-1.57429 -0.55417,-3.09416 -1.55273,-4.27734 -0.0362,-0.33184 -0.0969,-0.66029 -0.18165,-0.98243 0.15351,-0.56637 0.23235,-1.15179 0.23438,-1.74023 -0.002,-0.41584 -0.0427,-0.8305 -0.12109,-1.23828 0.0798,-0.41546 0.12036,-0.83805 0.12109,-1.26172 -0.001,-0.17408 -0.009,-0.34805 -0.0234,-0.52148 0.0135,-0.15915 0.0213,-0.31877 0.0234,-0.47852 -0.001,-0.17408 -0.009,-0.34805 -0.0234,-0.52148 0.0135,-0.15915 0.0213,-0.31877 0.0234,-0.47852 -0.003,-3.08412 -2.08912,-5.74162 -4.99414,-6.36133 1.27492,-1.35959 1.99261,-3.209 1.99414,-5.13867 -0.003,-3.77867 -2.70784,-6.92112 -6.21484,-7.2207 0.13993,-0.58126 0.21209,-1.17893 0.21484,-1.7793 -0.003,-2.03203 -0.80049,-3.96928 -2.19727,-5.33984 1.98647,-1.32073 3.19586,-3.65085 3.19727,-6.16016 0,-4.00406 -3.02208,-7.25 -6.75,-7.25 z m 36.76172,3.49023 c 0.0138,0.4436 0.0654,0.88491 0.1543,1.31836 -0.061,-0.0519 -0.12289,-0.10271 -0.18555,-0.15234 0.01,-0.13519 0.0165,-0.27066 0.0195,-0.40625 -4e-5,-0.25313 -0.0124,-0.50608 -0.0371,-0.75781 0.0163,-6e-4 0.0325,-10e-4 0.0488,-0.002 z m 42.24805,11.2461 c 0.22049,0.82278 0.57492,1.59711 1.04687,2.28711 -1.10753,0.70717 -2.00349,1.74002 -2.58203,2.97656 -0.55361,0.004 -1.10462,0.0817 -1.64063,0.23047 0.27244,-0.79439 0.41324,-1.6339 0.41602,-2.48047 -0.003,-0.76675 -0.11883,-1.52816 -0.34375,-2.25586 0.0312,0.002 0.0625,0.004 0.0937,0.006 1.04476,-9.5e-4 2.07506,-0.26236 3.00977,-0.76367 z m -85.83399,7.66015 c 1.11252,2.04896 3.08783,3.38383 5.28906,3.57422 -0.13993,0.58126 -0.21209,1.17893 -0.21484,1.7793 8.9e-4,1.16428 0.26284,2.3112 0.76367,3.34375 -0.0517,0.0175 -0.10309,0.0358 -0.15429,0.0547 -0.049,-0.0372 -0.0984,-0.0737 -0.14844,-0.10938 -0.33975,-3.69378 -3.22202,-6.51536 -6.67774,-6.53711 -0.26067,-0.55278 -0.58624,-1.0674 -0.96875,-1.53125 0.72808,-0.0674 1.44113,-0.26132 2.11133,-0.57422 z m 102.08594,4.18164 c 0.004,0.0743 0.009,0.14854 0.0156,0.22266 -0.58529,0.0708 -1.15802,0.22727 -1.70117,0.46484 -0.008,-0.0359 -0.0153,-0.0717 -0.0234,-0.10742 0.59357,-0.1067 1.16918,-0.30208 1.70899,-0.58008 z" inkscape:connector-curvature="0" />
</g>
<g inkscape:groupmode="layer" id="routes_layer" inkscape:label="Routes" style="display:inline" sodipodi:insensitive="true" >
  <path style="display:inline;fill:none;stroke:#000000;stroke-width:2;stroke-linecap:round;stroke-miterlimit:4;stroke-dasharray:0.1, 5;stroke-dashoffset:0;stroke-opacity:1" d="m 163.125,0 0,11.25 c 1.70274,19.453672 -10.03354,51.47277 -25.28185,59.068019 -24.60413,12.255423 -47.781586,36.142401 -57.093152,65.806981 -4.674468,14.89182 -6.524726,47.93002 -20.16789,64.66421 -16,19.625 -31.70125,18.58579 -43.707109,18.58579 l -16.875001,0 M 163.125,337.5 l 0,-11.25 c 0,-20.12069 -6.56825,-35.1558 -7.16979,-42.23528 -2.10396,-24.76147 16.03406,-22.64359 19.83499,-28.66411 7.74394,-12.26611 5.73951,-33.4476 17.80724,-39.66485 7.14183,-3.67944 19.7353,3.68924 37.02756,3.68924 l 16.875,0" inkscape:connector-curvature="0" />
</g>
<g inkscape:groupmode="layer" id="labels_layer" inkscape:label="Labels" style="display:inline" sodipodi:insensitive="true" >
  <text xml:space="preserve"><textPath xlink:href="#kidneystone_pass"><tspan
  style="-inkscape-font-specification:'CCTreasureTroveAged Mod, Normal';font-family:'CCTreasureTroveAged Mod';font-weight:normal;font-style:normal;font-stretch:normal;font-variant:normal;font-size:8.75px;text-anchor:start;text-align:start;writing-mode:lr;line-height:125%"
  >Kidneystone Pass</tspan></textPath></text>
</g>
<g inkscape:groupmode="layer" id="labels_guide_layer" inkscape:label="Labels Guide" style="display:none" sodipodi:insensitive="true" >
  <path id="kidneystone_pass" style="color:#000000;fill:none;stroke:#000000;stroke-width:1;stroke-opacity:1" d="M 73.577761,147.38665 C 76.775899,112.71866 106.84392,82.056466 125.32952,71.192646" inkscape:connector-curvature="0" />
</g>
<g inkscape:groupmode="layer" id="resources_layer" inkscape:label="Resources" style="display:inline" sodipodi:insensitive="true" >
  <g id="resource-fish" transform="matrix(0.74847307,-0.66316519,0.66316519,0.74847307,134.38041,309.10547)" >
    <path style="color:#000000;clip-rule:nonzero;display:inline;overflow:visible;visibility:visible;opacity:1;isolation:auto;mix-blend-mode:normal;color-interpolation:sRGB;color-interpolation-filters:linearRGB;solid-color:#000000;solid-opacity:1;fill:url(#gradientFish);fill-opacity:1;fill-rule:evenodd;stroke:none;stroke-width:0.89999998;stroke-linecap:round;stroke-linejoin:miter;stroke-miterlimit:4;stroke-dasharray:none;stroke-dashoffset:0;stroke-opacity:1;color-rendering:auto;image-rendering:auto;shape-rendering:auto;text-rendering:auto;enable-background:accumulate" d="m 6.75164,-116.27687 c 2.99065,0.60485 4.49367,1.24794 5.89266,2.66121 2.45016,2.47513 3.25045,6.5505 3.25045,6.5505 l -3.54035,0.49898 2.97008,0.83162 c -1.40188,1.23555 -2.8637,2.14124 -4.39572,2.68497 -2.28163,0.80975 -5.89735,1.19916 -8.27072,0.72096 -2.52003,-0.50774 -4.93787,-1.71891 -6.65678,-2.93199 -1.70292,-1.2018 -2.32599,-2.77049 -4.34245,-2.71421 -2.02435,0.0566 -3.06024,1.36024 -6.2744,2.54392 0.98841,-2.25668 1.48644,-4.44986 1.47742,-4.77248 -0.0131,-0.47021 -0.60937,-2.94625 -1.71029,-5.74037 4.56815,1.9526 4.13574,3.93892 6.7876,4.01568 1.65013,0.0477 2.8784,-2.27892 4.84548,-3.01143 0,0 0.0925,-0.76339 -0.85797,-2.09399 2.125,-1.125 5.3749,-2.84347 9.18238,-2.11673 0.63846,0.67205 1.20575,1.59646 1.64258,2.87336 z" inkscape:connector-curvature="0" />
    <path style="color:#000000;font-style:normal;font-variant:normal;font-weight:normal;font-stretch:normal;font-size:medium;line-height:normal;font-family:sans-serif;text-indent:0;text-align:start;text-decoration:none;text-decoration-line:none;text-decoration-style:solid;text-decoration-color:#000000;letter-spacing:normal;word-spacing:normal;text-transform:none;direction:ltr;block-progression:tb;writing-mode:lr-tb;baseline-shift:baseline;text-anchor:start;white-space:normal;clip-rule:nonzero;display:inline;overflow:visible;visibility:visible;opacity:1;isolation:auto;mix-blend-mode:normal;color-interpolation:sRGB;color-interpolation-filters:linearRGB;solid-color:#000000;solid-opacity:1;fill:#000000;fill-opacity:1;fill-rule:evenodd;stroke:none;stroke-width:0.89999998;stroke-linecap:round;stroke-linejoin:miter;stroke-miterlimit:4;stroke-dasharray:none;stroke-dashoffset:0;stroke-opacity:1;color-rendering:auto;image-rendering:auto;shape-rendering:auto;text-rendering:auto;enable-background:accumulate" d="m 3.75195,-119.76758 c -0.55834,-0.0162 -1.08956,0.007 -1.41992,0.0332 -3.44102,0.26924 -4.79186,1.37793 -7.48633,2.26368 0.80029,0.66264 1.38172,1.65445 1.58985,2.40625 -0.74252,0.46927 -1.56885,1.06749 -2.34375,1.66992 -0.78694,0.61179 -1.52805,1.08797 -2.13868,1.07031 -1.213,-0.0351 -1.55439,-0.52183 -2.3789,-1.23633 -1.98577,-1.72081 -3.07464,-2.29632 -5.23438,-3.2207 0.86297,2.18173 2.04317,4.50407 2.07227,6.58984 0.0263,1.88626 -1.13742,3.87948 -1.86328,5.54883 1.62081,-0.53562 3.22001,-1.34059 4.6289,-2.08398 0.89906,-0.47438 1.57632,-0.77317 2.49415,-0.79883 0.89038,-0.0249 1.40182,0.27656 1.98242,0.77734 0.25085,0.21637 0.51534,0.48279 0.79687,0.75586 -0.25647,0.40556 -0.79615,0.53695 -1.76562,1.10352 1.95514,0.58994 2.59141,1.85091 4.15625,2.49414 0.55665,-0.25793 1.08128,-0.52946 1.29882,-1.08594 1.28379,0.64871 2.70563,1.21308 4.19922,1.53906 0.0372,0.49232 -0.0779,0.96218 -0.52343,1.75 1.8525,-0.13727 3.11482,-0.49129 3.85351,-1.48437 1.90282,-0.0616 3.90491,-0.41501 5.41016,-0.94922 1.59542,-0.56623 3.08878,-1.52586 4.54297,-2.77148 0.22554,-0.1932 0.55832,-0.5479 0.15234,-0.66602 l -1.22851,-0.35742 1.51367,-0.22656 c 0.18187,-0.0272 0.35546,-0.2168 0.27734,-0.50586 -0.0502,-0.18564 -0.78361,-4.16347 -3.37305,-6.7793 -1.42433,-1.43886 -3.05654,-2.12894 -5.92382,-2.72852 -0.4724,-1.08092 -0.97717,-2.12518 -1.70508,-2.90429 -0.44021,-0.13092 -1.02565,-0.18691 -1.58399,-0.20313 z m -0.1289,0.86719 c 0.40991,0.0169 0.81105,0.0568 1.19922,0.10547 0.77961,0.94104 1.28338,2.04784 1.60937,2.96875 2.1946,0.39918 4.6041,1.23544 5.89453,2.52734 2.08816,2.09053 2.83239,5.19206 2.98633,5.86133 l -3.01953,0.42578 c -0.44473,0.0627 -0.45389,0.76792 -0.0586,0.87891 l 1.98242,0.55664 c -1.12071,0.87174 -2.24918,1.67981 -3.4375,2.10156 -0.33815,0.12001 -0.71912,0.22666 -1.11524,0.32617 -2.33138,-1.12461 -3.38072,-3.76269 -3.66601,-5.20312 -0.15295,-0.77226 -0.48459,-1.00055 -0.26758,0.46094 0.277,1.86552 1.35587,3.78888 2.74609,4.99218 -1.94553,0.34633 -4.16617,0.4437 -5.72851,0.12891 -2.43884,-0.49138 -4.81456,-1.67957 -6.48633,-2.85938 -0.79723,-0.56263 -1.35875,-1.23084 -2.01953,-1.80078 -0.66079,-0.56995 -1.57913,-0.96766 -2.54883,-0.93164 -0.96571,0.0359 -2.00556,0.34944 -2.93359,0.83789 -0.68049,0.35816 -1.62451,0.79789 -2.58789,1.22461 0.58514,-1.36212 1.15509,-2.85368 1.14062,-3.91797 -0.0229,-1.68436 -0.84568,-3.32406 -1.36523,-4.77929 1.43808,0.75542 2.36518,1.48293 3.00781,2.08984 0.79559,0.75138 1.70527,1.34121 2.9414,1.36523 0.8676,0.0169 1.85414,-0.60951 2.64454,-1.26171 1.07222,-0.88474 2.37395,-1.75346 3.82031,-2.3125 0.84286,-0.32579 2.17657,-0.81342 1.5664,-0.90821 -0.63083,-0.098 -1.90673,0.29013 -2.74804,0.65625 -0.21144,-0.67843 -0.52851,-1.28134 -0.85547,-1.77148 1.86816,-0.59893 2.90957,-1.50638 6.04687,-1.72852 0.42336,-0.0441 0.84204,-0.0501 1.25196,-0.0332 z" inkscape:connector-curvature="0" />
    <path style="color:#000000;clip-rule:nonzero;display:inline;overflow:visible;visibility:visible;opacity:1;isolation:auto;mix-blend-mode:normal;color-interpolation:sRGB;color-interpolation-filters:linearRGB;solid-color:#000000;solid-opacity:1;fill:#000000;fill-opacity:1;fill-rule:evenodd;stroke:none;stroke-width:0.89999998;stroke-linecap:round;stroke-linejoin:miter;stroke-miterlimit:4;stroke-dasharray:none;stroke-dashoffset:0;stroke-opacity:1;color-rendering:auto;image-rendering:auto;shape-rendering:auto;text-rendering:auto;enable-background:accumulate" d="m 4.14858,-108.59983 c -0.47489,-0.30307 -1.53655,-0.90869 -2.26472,-0.88862 -0.0804,0.002 -0.2543,0.14712 -0.15844,0.31108 0.47438,0.81135 0.88194,1.78963 0.81744,2.88053 -0.01,0.15682 0.0463,0.31282 0.28149,0.29908 0.85805,-0.0503 1.22499,-0.14313 1.82534,-0.42991 0.33162,-0.1584 0.28985,0.0295 -0.17284,0.32399 -0.42638,0.27143 -1.15747,0.57467 -1.60626,0.62419 -0.57111,0.063 -0.86938,-0.30115 -0.85559,-0.49509 0.0664,-0.93438 -0.40775,-2.23989 -0.84996,-3.00389 -0.64912,-1.12144 0.5114,-1.14367 1.04743,-1.03991 0.57353,0.11103 1.54086,0.51965 2.36735,1.37318 0.31578,0.3261 0.0887,0.37724 -0.43124,0.0454 z" inkscape:connector-curvature="0" />
    <ellipse cx="35.346939" cy="-105.813170" rx="0.855386" ry="1.092993" style="opacity:1;fill:#000000;fill-opacity:1;fill-rule:nonzero;stroke:none;stroke-width:0.89999998;stroke-linecap:butt;stroke-linejoin:round;stroke-miterlimit:4;stroke-dasharray:none;stroke-dashoffset:0;stroke-opacity:1" transform="matrix(0.97605309,-0.21753245,0.21753245,0.97605309,0,0)" />
  </g>
</g>
<g inkscape:groupmode="layer" id="extras_layer" inkscape:label="Extras" style="display:inline" sodipodi:insensitive="true" >
  <g id="extra-ship" transform="matrix(0.4444171,-0.89581998,0.89581998,0.4444171,266.30938,417.60566)" >
    <path style="color:#000000;fill:url(#gradientShip);fill-opacity:1;fill-rule:evenodd;stroke:#000000;stroke-width:0.75;stroke-linecap:butt;stroke-linejoin:round;stroke-miterlimit:4;stroke-dasharray:none;stroke-dashoffset:0;stroke-opacity:1;marker:none;enable-background:accumulate" d="m 243.2364,-52.722824 c -3.10208,-2.937202 -8.72518,-3.346714 -12.49116,-3.032742 -2.95307,0.246202 -6.62512,1.070872 -6.62512,1.070872 l -0.0121,3.725952 c 0,0 2.43298,0.582421 6.39007,0.932887 3.66202,0.324334 9.61676,-0.283241 12.73834,-2.696969 z" inkscape:connector-curvature="0" />
    <path style="color:#000000;opacity:1;isolation:auto;mix-blend-mode:normal;color-interpolation:sRGB;color-interpolation-filters:linearRGB;solid-color:#000000;solid-opacity:1;fill:#000000;fill-opacity:1;fill-rule:evenodd;stroke:none;stroke-width:0.75;stroke-linecap:round;stroke-linejoin:round;stroke-miterlimit:4;stroke-dasharray:none;stroke-dashoffset:0;stroke-opacity:1;marker:none;color-rendering:auto;image-rendering:auto;shape-rendering:auto;text-rendering:auto;enable-background:accumulate" d="m 243.05273,-53.089844 c -0.50461,-0.01007 -0.51271,0.749303 -0.008,0.75 l 2.80546,-0.143551 c 0.50461,0.01007 0.51856,-0.385922 0.0138,-0.386619 z" inkscape:connector-curvature="0" />
    <circle cx="37.651787" cy="-233.087830" r="0.695206" style="color:#000000;opacity:1;isolation:auto;mix-blend-mode:normal;color-interpolation:sRGB;color-interpolation-filters:linearRGB;solid-color:#000000;solid-opacity:1;fill:#a66e00;fill-opacity:1;fill-rule:nonzero;stroke:#000000;stroke-width:0.5;stroke-linecap:butt;stroke-linejoin:miter;stroke-miterlimit:4;stroke-dasharray:none;stroke-dashoffset:0;stroke-opacity:1;color-rendering:auto;image-rendering:auto;shape-rendering:auto;text-rendering:auto;enable-background:accumulate" transform="matrix(0.37654483,0.9263984,-0.9263984,0.37654483,0,0)" />
    <circle cx="39.995537" cy="-238.712830" r="0.695206" style="color:#000000;opacity:1;isolation:auto;mix-blend-mode:normal;color-interpolation:sRGB;color-interpolation-filters:linearRGB;solid-color:#000000;solid-opacity:1;fill:#a66e00;fill-opacity:1;fill-rule:nonzero;stroke:#000000;stroke-width:0.5;stroke-linecap:butt;stroke-linejoin:miter;stroke-miterlimit:4;stroke-dasharray:none;stroke-dashoffset:0;stroke-opacity:1;color-rendering:auto;image-rendering:auto;shape-rendering:auto;text-rendering:auto;enable-background:accumulate" transform="matrix(0.37654483,0.9263984,-0.9263984,0.37654483,0,0)" />
    <path style="color:#000000;fill:#feffff;fill-opacity:1;fill-rule:evenodd;stroke:#000000;stroke-width:0.5;stroke-linecap:butt;stroke-linejoin:round;stroke-miterlimit:4;stroke-dasharray:none;stroke-dashoffset:0;stroke-opacity:1;marker:none;enable-background:accumulate" d="m 230.8139,-58.168744 -0.0696,11.095953 c 0,0 1.11273,-0.901569 1.17305,-2.014949 0.0592,-1.093696 -0.80015,-1.762231 -0.80015,-1.762231 0,0 1.00218,-0.841738 0.9922,-1.921676 -0.0106,-1.140901 -0.9468,-1.722391 -0.9468,-1.722391 0,0 0.80027,-0.5343 0.83406,-1.646805 0.0349,-1.150244 -1.18274,-2.027894 -1.18274,-2.027894 z" inkscape:connector-curvature="0" />
    <path style="color:#000000;fill:#feffff;fill-opacity:1;fill-rule:evenodd;stroke:#000000;stroke-width:0.5;stroke-linecap:butt;stroke-linejoin:round;stroke-miterlimit:4;stroke-dasharray:none;stroke-dashoffset:0;stroke-opacity:1;marker:none;enable-background:accumulate" d="m 236.95087,-57.97366 -0.0645,10.282469 c 0,0 1.03677,-0.785137 1.09267,-1.816887 0.0549,-1.013517 -0.74706,-1.683399 -0.74706,-1.683399 0,0 0.85887,-0.76153 0.84962,-1.762298 -0.01,-1.057255 -0.80754,-1.614603 -0.80754,-1.614603 0,0 0.84013,-0.540128 0.87144,-1.571079 0.0324,-1.065902 -1.19455,-1.834218 -1.19455,-1.834218 z" inkscape:connector-curvature="0" />
    <path style="fill:#000000;stroke:none" d="m 239.16963,-53.312319 -0.0111,0.999645 1.00145,0.01039 0.009,-1.000718 z" inkscape:connector-curvature="0" />
    <path style="fill:#6a4600;stroke:none" d="m 233.00825,-53.641515 -0.0131,1.52646 1.52369,0.01423 0.0142,-1.523703 z" inkscape:connector-curvature="0" />
    <path style="fill:none;stroke:#000000;stroke-width:0.6;stroke-linecap:butt" d="m 227.26126,-55.055042 -0.0734,4.514141" inkscape:connector-curvature="0" />
    <path style="fill:#000000;stroke:none" d="m 223.83649,-54.026834 -0.0111,0.999636 1.00072,0.0086 0.009,-0.998911 z" inkscape:connector-curvature="0" />
    <path style="fill:#000000;stroke:none" d="m 223.85032,-52.581947 -0.0111,0.999637 1.00072,0.0086 0.009,-0.998912 z" inkscape:connector-curvature="0" />
    <path style="fill:none;stroke:#000000;stroke-width:0.5;stroke-linecap:butt;stroke-linejoin:round;stroke-miterlimit:4" d="m 227.2539,-51.578825 1.14997,0.173504 -0.0116,1.05042" inkscape:connector-curvature="0" />
    <path style="fill:none;stroke:#000000;stroke-width:0.5;stroke-linecap:butt;stroke-linejoin:round;stroke-miterlimit:4" d="m 227.25705,-54.143799 1.1481,-0.163064 0.0224,-1.189753" inkscape:connector-curvature="0" />
  </g>
</g>
<g inkscape:groupmode="layer" id="suit_rank_glow_layer" inkscape:label="Suit Rank Glow" style="display:inline" sodipodi:insensitive="true" >
  <g style="opacity:0.75;filter:url(#blurSuitRankGlow)" >
    <path style="fill:#ffffff;fill-opacity:1;stroke:none" d="m 31.453338,20.865025 c -5.068589,2.178218 -11.123659,8.116004 -11.112499,14.56 0.007,3.899493 2.33855,5.215546 4.47125,5.74875 1.25548,0.313886 3.11121,0.211218 4.40125,-0.53375 -0.0977,1.04834 -0.18907,3.221456 -0.21,4.235 1.633329,0 3.266669,0 4.899999,0 -0.0209,-1.013544 -0.11229,-3.18666 -0.21,-4.235 1.29004,0.744968 3.14577,0.847636 4.40125,0.53375 2.1327,-0.533204 4.4645,-1.849257 4.47125,-5.74875 0.0111,-6.443996 -6.04391,-12.381782 -11.1125,-14.56 z" inkscape:connector-curvature="0" />
    <path style="fill:#ffffff;fill-opacity:1;stroke:none" d="m 215.96335,316.63503 c 5.06859,-2.17822 11.12366,-8.11601 11.1125,-14.56 -0.007,-3.8995 -2.33855,-5.21555 -4.47125,-5.74875 -1.25548,-0.31389 -3.11121,-0.21122 -4.40125,0.53375 0.0977,-1.04834 0.18907,-3.22146 0.21,-4.235 -1.63333,0 -3.26667,0 -4.9,0 0.0209,1.01354 0.11229,3.18666 0.21,4.235 -1.29004,-0.74497 -3.14577,-0.84764 -4.40125,-0.53375 -2.1327,0.5332 -4.4645,1.84925 -4.47125,5.74875 -0.0111,6.44399 6.04391,12.38178 11.1125,14.56 z" inkscape:connector-curvature="0" />
    <path style="fill:#ffffff;fill-opacity:1;stroke:none" d="m 21.893333,58.075025 c -10e-6,0 -10e-6,-0.093 0,-0.28 -10e-6,-0.2133 -10e-6,-0.4933 0,-0.84 -10e-6,-0.3466 -10e-6,-0.7333 0,-1.16 -10e-6,-0.4266 -10e-6,-0.8666 0,-1.32 l 0,-3.6 17.19999,0 1.92001,3.92 c -0.85336,1.5467 -1.68002,3.0534 -2.48,4.52 -0.69336,1.28 -1.38669,2.6134 -2.08001,4 -0.69334,1.3867 -1.25334,2.6267 -1.67999,3.72 -0.80002,2.0534 -1.45335,3.92 -1.96001,5.6 -0.50667,1.68 -0.90667,3.1867 -1.19999,4.52 -0.29335,1.3067 -0.52002,2.44 -0.68001,3.4 -0.13334,0.96 -0.21334,1.7333 -0.24,2.32 l -3.19999,0 c -10e-6,-0.6667 0.08,-1.5333 0.24,-2.6 0.15999,-1.0933 0.38665,-2.3067 0.68,-3.64 0.31999,-1.3333 0.69332,-2.7467 1.12,-4.24 0.45332,-1.52 0.95998,-3.0533 1.52,-4.6 0.15998,-0.4266 0.37332,-0.9466 0.63999,-1.56 0.26666,-0.64 0.55999,-1.32 0.88,-2.04 0.34666,-0.72 0.69333,-1.4666 1.04001,-2.24 0.37331,-0.8 0.74665,-1.5733 1.12,-2.32 0.85331,-1.76 1.77331,-3.6133 2.76,-5.56 l -6.2,0 -6.20001,0 0,4 -3.19999,0" inkscape:connector-curvature="0" />
    <path style="fill:#ffffff;fill-opacity:1;stroke:none" d="m 225.52334,279.42502 c 1e-5,0 1e-5,0.093 0,0.28 1e-5,0.2133 1e-5,0.4933 0,0.84 1e-5,0.3466 1e-5,0.7333 0,1.16001 1e-5,0.4266 1e-5,0.8666 0,1.32 l 0,3.6 -17.19999,0 -1.92001,-3.92 c 0.85336,-1.5467 1.68002,-3.0534 2.48,-4.52001 0.69336,-1.27999 1.38669,-2.61339 2.08001,-4 0.69334,-1.38669 1.25334,-2.62669 1.67999,-3.71999 0.80002,-2.0534 1.45335,-3.92001 1.96001,-5.6 0.50667,-1.68001 0.90667,-3.1867 1.19999,-4.52 0.29335,-1.30671 0.52002,-2.44 0.68001,-3.40001 0.13334,-0.96 0.21334,-1.7333 0.24,-2.31999 l 3.19999,0 c 1e-5,0.6667 -0.08,1.53329 -0.24,2.6 -0.15999,1.0933 -0.38665,2.3067 -0.68,3.63999 -0.31999,1.3333 -0.69332,2.7467 -1.12,4.24 -0.45332,1.52001 -0.95998,3.0533 -1.52,4.6 -0.15998,0.4266 -0.37332,0.9466 -0.63999,1.56001 -0.26666,0.64 -0.55999,1.31999 -0.88,2.03999 -0.34666,0.72001 -0.69333,1.4666 -1.04001,2.24 -0.37331,0.80001 -0.74665,1.57331 -1.12,2.32 -0.85331,1.76 -1.77331,3.6133 -2.76,5.56 l 6.2,0 6.20001,0 0,-4 3.19999,0" inkscape:connector-curvature="0" />
  </g>
</g>
<g inkscape:groupmode="layer" id="suit_rank_layer" inkscape:label="Suit Rank" style="display:inline" sodipodi:insensitive="true" >
  <path style="fill:#000000;fill-opacity:1;stroke:none" d="m 31.453338,20.865025 c -5.068589,2.178218 -11.123659,8.116004 -11.112499,14.56 0.007,3.899493 2.33855,5.215546 4.47125,5.74875 1.25548,0.313886 3.11121,0.211218 4.40125,-0.53375 -0.0977,1.04834 -0.18907,3.221456 -0.21,4.235 1.633329,0 3.266669,0 4.899999,0 -0.0209,-1.013544 -0.11229,-3.18666 -0.21,-4.235 1.29004,0.744968 3.14577,0.847636 4.40125,0.53375 2.1327,-0.533204 4.4645,-1.849257 4.47125,-5.74875 0.0111,-6.443996 -6.04391,-12.381782 -11.1125,-14.56 z" inkscape:connector-curvature="0" />
  <path style="fill:#000000;fill-opacity:1;stroke:none" d="m 215.96335,316.63503 c 5.06859,-2.17822 11.12366,-8.11601 11.1125,-14.56 -0.007,-3.8995 -2.33855,-5.21555 -4.47125,-5.74875 -1.25548,-0.31389 -3.11121,-0.21122 -4.40125,0.53375 0.0977,-1.04834 0.18907,-3.22146 0.21,-4.235 -1.63333,0 -3.26667,0 -4.9,0 0.0209,1.01354 0.11229,3.18666 0.21,4.235 -1.29004,-0.74497 -3.14577,-0.84764 -4.40125,-0.53375 -2.1327,0.5332 -4.4645,1.84925 -4.47125,5.74875 -0.0111,6.44399 6.04391,12.38178 11.1125,14.56 z" inkscape:connector-curvature="0" />
  <path style="fill:#000000;fill-opacity:1;stroke:none" d="m 21.893333,58.075025 c -10e-6,0 -10e-6,-0.093 0,-0.28 -10e-6,-0.2133 -10e-6,-0.4933 0,-0.84 -10e-6,-0.3466 -10e-6,-0.7333 0,-1.16 -10e-6,-0.4266 -10e-6,-0.8666 0,-1.32 l 0,-3.6 17.19999,0 1.92001,3.92 c -0.85336,1.5467 -1.68002,3.0534 -2.48,4.52 -0.69336,1.28 -1.38669,2.6134 -2.08001,4 -0.69334,1.3867 -1.25334,2.6267 -1.67999,3.72 -0.80002,2.0534 -1.45335,3.92 -1.96001,5.6 -0.50667,1.68 -0.90667,3.1867 -1.19999,4.52 -0.29335,1.3067 -0.52002,2.44 -0.68001,3.4 -0.13334,0.96 -0.21334,1.7333 -0.24,2.32 l -3.19999,0 c -10e-6,-0.6667 0.08,-1.5333 0.24,-2.6 0.15999,-1.0933 0.38665,-2.3067 0.68,-3.64 0.31999,-1.3333 0.69332,-2.7467 1.12,-4.24 0.45332,-1.52 0.95998,-3.0533 1.52,-4.6 0.15998,-0.4266 0.37332,-0.9466 0.63999,-1.56 0.26666,-0.64 0.55999,-1.32 0.88,-2.04 0.34666,-0.72 0.69333,-1.4666 1.04001,-2.24 0.37331,-0.8 0.74665,-1.5733 1.12,-2.32 0.85331,-1.76 1.77331,-3.6133 2.76,-5.56 l -6.2,0 -6.20001,0 0,4 -3.19999,0" inkscape:connector-curvature="0" />
  <path style="fill:#000000;fill-opacity:1;stroke:none" d="m 225.52334,279.42502 c 1e-5,0 1e-5,0.093 0,0.28 1e-5,0.2133 1e-5,0.4933 0,0.84 1e-5,0.3466 1e-5,0.7333 0,1.16001 1e-5,0.4266 1e-5,0.8666 0,1.32 l 0,3.6 -17.19999,0 -1.92001,-3.92 c 0.85336,-1.5467 1.68002,-3.0534 2.48,-4.52001 0.69336,-1.27999 1.38669,-2.61339 2.08001,-4 0.69334,-1.38669 1.25334,-2.62669 1.67999,-3.71999 0.80002,-2.0534 1.45335,-3.92001 1.96001,-5.6 0.50667,-1.68001 0.90667,-3.1867 1.19999,-4.52 0.29335,-1.30671 0.52002,-2.44 0.68001,-3.40001 0.13334,-0.96 0.21334,-1.7333 0.24,-2.31999 l 3.19999,0 c 1e-5,0.6667 -0.08,1.53329 -0.24,2.6 -0.15999,1.0933 -0.38665,2.3067 -0.68,3.63999 -0.31999,1.3333 -0.69332,2.7467 -1.12,4.24 -0.45332,1.52001 -0.95998,3.0533 -1.52,4.6 -0.15998,0.4266 -0.37332,0.9466 -0.63999,1.56001 -0.26666,0.64 -0.55999,1.31999 -0.88,2.03999 -0.34666,0.72001 -0.69333,1.4666 -1.04001,2.24 -0.37331,0.80001 -0.74665,1.57331 -1.12,2.32 -0.85331,1.76 -1.77331,3.6133 -2.76,5.56 l 6.2,0 6.20001,0 0,-4 3.19999,0" inkscape:connector-curvature="0" />
</g>
<g inkscape:groupmode="layer" id="guides_layer" inkscape:label="Guides" style="display:none" sodipodi:insensitive="true" >
  <path style="fill:none;stroke:#000000;stroke-width:0.9" d="m 11.250000,11.25 0,-45" inkscape:connector-curvature="0" />
  <path style="fill:none;stroke:#000000;stroke-width:0.9" d="m 11.250000,371.25 0,-45" inkscape:connector-curvature="0" />
  <path style="fill:none;stroke:#000000;stroke-width:0.9" d="m 84.375000,11.25 0,-45" inkscape:connector-curvature="0" />
  <path style="fill:none;stroke:#000000;stroke-width:0.9" d="m 84.375000,371.25 0,-45" inkscape:connector-curvature="0" />
  <path style="fill:none;stroke:#000000;stroke-width:0.9" d="m 123.750000,11.25 0,-45" inkscape:connector-curvature="0" />
  <path style="fill:none;stroke:#000000;stroke-width:0.9" d="m 123.750000,371.25 0,-45" inkscape:connector-curvature="0" />
  <path style="fill:none;stroke:#000000;stroke-width:0.9" d="m 163.125000,11.25 0,-45" inkscape:connector-curvature="0" />
  <path style="fill:none;stroke:#000000;stroke-width:0.9" d="m 163.125000,371.25 0,-45" inkscape:connector-curvature="0" />
  <path style="fill:none;stroke:#000000;stroke-width:0.9" d="m 236.250000,11.25 0,-45" inkscape:connector-curvature="0" />
  <path style="fill:none;stroke:#000000;stroke-width:0.9" d="m 236.250000,371.25 0,-45" inkscape:connector-curvature="0" />
  <path style="fill:none;stroke:#000000;stroke-width:0.9" d="m -33.75,11.250000 45,0" inkscape:connector-curvature="0" />
  <path style="fill:none;stroke:#000000;stroke-width:0.9" d="m 236.25,11.250000 45,0" inkscape:connector-curvature="0" />
  <path style="fill:none;stroke:#000000;stroke-width:0.9" d="m -33.75,118.125000 45,0" inkscape:connector-curvature="0" />
  <path style="fill:none;stroke:#000000;stroke-width:0.9" d="m 236.25,118.125000 45,0" inkscape:connector-curvature="0" />
  <path style="fill:none;stroke:#000000;stroke-width:0.9" d="m -33.75,168.750000 45,0" inkscape:connector-curvature="0" />
  <path style="fill:none;stroke:#000000;stroke-width:0.9" d="m 236.25,168.750000 45,0" inkscape:connector-curvature="0" />
  <path style="fill:none;stroke:#000000;stroke-width:0.9" d="m -33.75,219.375000 45,0" inkscape:connector-curvature="0" />
  <path style="fill:none;stroke:#000000;stroke-width:0.9" d="m 236.25,219.375000 45,0" inkscape:connector-curvature="0" />
  <path style="fill:none;stroke:#000000;stroke-width:0.9" d="m -33.75,326.250000 45,0" inkscape:connector-curvature="0" />
  <path style="fill:none;stroke:#000000;stroke-width:0.9" d="m 236.25,326.250000 45,0" inkscape:connector-curvature="0" />
  <g id="guide-short0-4" >
    <rect x="0.000000" y="-22.500000" width="84.375000" height="22.500000" style="fill:#ffd291;stroke:#000000;stroke-width:0.9" />
    <rect x="0.000000" y="-22.500000" width="78.750000" height="22.500000" style="fill:#b4e982;stroke:#000000;stroke-width:0.9" />
    <rect x="0.000000" y="-22.500000" width="61.875000" height="22.500000" style="fill:#5adc4f;stroke:#000000;stroke-width:0.9" />
    <rect x="84.375000" y="-22.500000" width="163.125000" height="22.500000" style="fill:#b9deff;stroke:#000000;stroke-width:0.9" />
    <rect x="123.750000" y="-22.500000" width="123.750000" height="22.500000" style="fill:#9bceff;stroke:#000000;stroke-width:0.9" />
    <rect x="180.000000" y="-22.500000" width="67.500000" height="22.500000" style="fill:#73baff;stroke:#000000;stroke-width:0.9" />
  </g>
  <g id="guide-long1-3" >
    <rect x="247.500000" y="118.125000" width="22.500000" height="219.375000" style="fill:#ffd291;stroke:#000000;stroke-width:0.9" />
    <rect x="247.500000" y="123.750000" width="22.500000" height="213.750000" style="fill:#b4e982;stroke:#000000;stroke-width:0.9" />
    <rect x="247.500000" y="225.000000" width="22.500000" height="112.500000" style="fill:#5adc4f;stroke:#000000;stroke-width:0.9" />
    <rect x="247.500000" y="151.875000" width="22.500000" height="61.875000" style="fill:#5adc4f;stroke:#000000;stroke-width:0.9" />
    <rect x="247.500000" y="0.000000" width="22.500000" height="118.125000" style="fill:#b9deff;stroke:#000000;stroke-width:0.9" />
    <rect x="247.500000" y="0.000000" width="22.500000" height="84.375000" style="fill:#9bceff;stroke:#000000;stroke-width:0.9" />
    <rect x="247.500000" y="0.000000" width="22.500000" height="50.625000" style="fill:#73baff;stroke:#000000;stroke-width:0.9" />
  </g>
  <g id="guide-short2-6" transform="matrix(-1,0,0,1,247.5,360)" >
    <rect x="0.000000" y="-22.500000" width="163.125000" height="22.500000" style="fill:#ffd291;stroke:#000000;stroke-width:0.9" />
    <rect x="0.000000" y="-22.500000" width="146.250000" height="22.500000" style="fill:#b4e982;stroke:#000000;stroke-width:0.9" />
    <rect x="0.000000" y="-22.500000" width="33.750000" height="22.500000" style="fill:#5adc4f;stroke:#000000;stroke-width:0.9" />
    <rect x="45.000000" y="-22.500000" width="33.750000" height="22.500000" style="fill:#5adc4f;stroke:#000000;stroke-width:0.9" />
    <rect x="90.000000" y="-22.500000" width="39.375000" height="22.500000" style="fill:#5adc4f;stroke:#000000;stroke-width:0.9" />
    <rect x="163.125000" y="-22.500000" width="84.375000" height="22.500000" style="fill:#b9deff;stroke:#000000;stroke-width:0.9" />
    <rect x="185.625000" y="-22.500000" width="61.875000" height="22.500000" style="fill:#9bceff;stroke:#000000;stroke-width:0.9" />
    <rect x="213.750000" y="-22.500000" width="33.750000" height="22.500000" style="fill:#73baff;stroke:#000000;stroke-width:0.9" />
  </g>
  <g id="guide-long3-1" transform="matrix(1,0,0,-1,-270,337.5)" >
    <rect x="247.500000" y="219.375000" width="22.500000" height="118.125000" style="fill:#ffd291;stroke:#000000;stroke-width:0.9" />
    <rect x="247.500000" y="236.250000" width="22.500000" height="101.250000" style="fill:#b4e982;stroke:#000000;stroke-width:0.9" />
    <rect x="247.500000" y="258.750000" width="22.500000" height="78.750000" style="fill:#5adc4f;stroke:#000000;stroke-width:0.9" />
    <rect x="247.500000" y="0.000000" width="22.500000" height="219.375000" style="fill:#b9deff;stroke:#000000;stroke-width:0.9" />
    <rect x="247.500000" y="0.000000" width="22.500000" height="168.750000" style="fill:#9bceff;stroke:#000000;stroke-width:0.9" />
    <rect x="247.500000" y="0.000000" width="22.500000" height="101.250000" style="fill:#73baff;stroke:#000000;stroke-width:0.9" />
  </g>
</g>
<g inkscape:groupmode="layer" id="cut_line_layer" inkscape:label="Cut Line" style="display:none" sodipodi:insensitive="true" >
  <rect style="fill:none;stroke:#000000;stroke-width:0.5;stroke-linecap:butt;stroke-linejoin:bevel;stroke-miterlimit:4;stroke-dasharray:none;stroke-opacity:1" width="225" height="315" x="11.25" y="11.25" ry="17.361111" />
</g>
<g inkscape:groupmode="layer" id="page_border_layer" inkscape:label="Page Border" style="display:none" sodipodi:insensitive="true" >
  <rect style="fill:none;stroke:#000000;stroke-width:0.5;stroke-linecap:butt;stroke-linejoin:bevel;stroke-miterlimit:4;stroke-dasharray:none;stroke-opacity:1" width="247.5" height="337.5" x="0" y="0" />
</g>

</svg>
