<?xml version="1.0" encoding="UTF-8" standalone="no"?>
<svg version="1.1" height="337.5" width="247.5" xmlns:rdf="http://www.w3.org/1999/02/22-rdf-syntax-ns#" xmlns="http://www.w3.org/2000/svg" xmlns:cc="http://creativecommons.org/ns#" xmlns:xlink="http://www.w3.org/1999/xlink" xmlns:dc="http://purl.org/dc/elements/1.1/" xmlns:sodipodi="http://sodipodi.sourceforge.net/DTD/sodipodi-0.dtd" xmlns:svg="http://www.w3.org/2000/svg" xmlns:inkscape="http://www.inkscape.org/namespaces/inkscape">
<metadata>
  <rdf:RDF>
    <cc:Work rdf:about="">
      <dc:format>image/svg+xml</dc:format>
      <dc:type rdf:resource="http://purl.org/dc/dcmitype/StillImage"/>
      <dc:title/>
      <dc:creator>
        <cc:Agent><dc:title>Gary Kacmarcik</dc:title></cc:Agent>
      </dc:creator>
    </cc:Work>
  </rdf:RDF>
</metadata>

<defs>
  <filter inkscape:label="textureGrassBig" style="color-interpolation-filters:sRGB" id="textureGrassBig">
    <feTurbulence numOctaves="2" seed="813" type="turbulence" baseFrequency="0.070000" result="result1" />
    <feColorMatrix result="result0" in="SourceGraphic" type="luminanceToAlpha" />
    <feColorMatrix result="result2" values="1 0 0 0 0 0 1 0 0 0 0 0 1 0 0 0 0 0 0.4 0 " />
    <feComposite in="result2" operator="over" in2="result1" />
    <feColorMatrix result="result91" values="1 0 0 0 0 0 1 0 0 0 0 0 1 0 0 0 0 0 10 -4 " />
    <feComposite operator="out" in="SourceGraphic" in2="result91" />
    <feGaussianBlur stdDeviation="2.500000" />
    <feColorMatrix values="1 0 0 0 0 0 1 0 0 0 0 0 1 0 0 0 0 0 1 0 " />
  </filter>
  <filter inkscape:label="textureGrassSmall" style="color-interpolation-filters:sRGB" id="textureGrassSmall">
    <feTurbulence numOctaves="4" seed="813" type="turbulence" baseFrequency="0.500000" result="result1" />
    <feColorMatrix result="result0" in="SourceGraphic" type="luminanceToAlpha" />
    <feColorMatrix result="result2" values="1 0 0 0 0 0 1 0 0 0 0 0 1 0 0 0 0 0 0.4 0 " />
    <feComposite in="result2" operator="over" in2="result1" />
    <feColorMatrix result="result91" values="1 0 0 0 0 0 1 0 0 0 0 0 1 0 0 0 0 0 10 -4 " />
    <feComposite operator="out" in="SourceGraphic" in2="result91" />
    <feGaussianBlur stdDeviation="1.000000" />
    <feColorMatrix values="1 0 0 0 0 0 1 0 0 0 0 0 1 0 0 0 0 0 1 0 " />
  </filter>
  <filter inkscape:label="textureLand" style="color-interpolation-filters:sRGB" id="textureLand">
    <feTurbulence numOctaves="4" seed="813" type="turbulence" baseFrequency="0.500000" result="result1" />
    <feColorMatrix result="result0" in="SourceGraphic" type="luminanceToAlpha" />
    <feColorMatrix result="result2" values="1 0 0 0 0 0 1 0 0 0 0 0 1 0 0 0 0 0 0.4 0 " />
    <feComposite in="result2" operator="over" in2="result1" />
    <feColorMatrix result="result91" values="1 0 0 0 0 0 1 0 0 0 0 0 1 0 0 0 0 0 10 -4 " />
    <feComposite operator="out" in="SourceGraphic" in2="result91" />
    <feGaussianBlur stdDeviation="0.800000" />
    <feColorMatrix values="1 0 0 0 0 0 1 0 0 0 0 0 1 0 0 0 0 0 1 0 " />
  </filter>
  <filter inkscape:label="textureForestBig" style="color-interpolation-filters:sRGB" id="textureForestBig">
    <feTurbulence numOctaves="2" seed="813" type="turbulence" baseFrequency="0.300000" result="result1" />
    <feColorMatrix result="result0" in="SourceGraphic" type="luminanceToAlpha" />
    <feColorMatrix result="result2" values="1 0 0 0 0 0 1 0 0 0 0 0 1 0 0 0 0 0 0.4 0 " />
    <feComposite in="result2" operator="over" in2="result1" />
    <feColorMatrix result="result91" values="1 0 0 0 0 0 1 0 0 0 0 0 1 0 0 0 0 0 10 -4 " />
    <feComposite operator="out" in="SourceGraphic" in2="result91" />
    <feGaussianBlur stdDeviation="2.000000" />
    <feColorMatrix values="1 0 0 0 0 0 1 0 0 0 0 0 1 0 0 0 0 0 1 0 " />
  </filter>
  <filter inkscape:label="textureForestSmall" style="color-interpolation-filters:sRGB" id="textureForestSmall">
    <feTurbulence numOctaves="4" seed="813" type="turbulence" baseFrequency="0.350000" result="result1" />
    <feColorMatrix result="result0" in="SourceGraphic" type="luminanceToAlpha" />
    <feColorMatrix result="result2" values="1 0 0 0 0 0 1 0 0 0 0 0 1 0 0 0 0 0 0.4 0 " />
    <feComposite in="result2" operator="over" in2="result1" />
    <feColorMatrix result="result91" values="1 0 0 0 0 0 1 0 0 0 0 0 1 0 0 0 0 0 10 -4 " />
    <feComposite operator="out" in="SourceGraphic" in2="result91" />
    <feGaussianBlur stdDeviation="1.000000" />
    <feColorMatrix values="1 0 0 0 0 0 1 0 0 0 0 0 1 0 0 0 0 0 1 0 " />
  </filter>
  <filter inkscape:label="roughenShoreline" style="color-interpolation-filters:sRGB" id="roughenShoreline">
    <feTurbulence numOctaves="4" seed="813" type="turbulence" baseFrequency="0.050000" result="turb" />
    <feDisplacementMap scale="6.600000" yChannelSelector="G" xChannelSelector="R" in="SourceGraphic" in2="turb" />
  </filter>
  <filter inkscape:label="roughenForest" style="color-interpolation-filters:sRGB" id="roughenForest">
    <feTurbulence numOctaves="4" seed="813" type="fractalNoise" baseFrequency="0.150000 0.150000" result="turb" />
    <feDisplacementMap scale="6.600000" yChannelSelector="G" xChannelSelector="R" in="SourceGraphic" in2="turb" />
  </filter>
  <filter inkscape:collect="always" inkscape:label="blurSuitRankGlow" style="color-interpolation-filters:sRGB" id="blurSuitRankGlow" x="-0.029025" y="-0.020458" width="1.058049" height="1.040917">
    <feGaussianBlur inkscape:collect="always" stdDeviation="2.515067" />
  </filter>
  <filter inkscape:collect="always" inkscape:label="blurWaterDeep" style="color-interpolation-filters:sRGB" id="blurWaterDeep" x="-0.056691" y="-0.041620" width="1.113381" height="1.083239">
    <feGaussianBlur inkscape:collect="always" stdDeviation="6.919136" />
  </filter>
  <filter inkscape:collect="always" inkscape:label="blurWaterShallow" style="color-interpolation-filters:sRGB" id="blurWaterShallow" x="-0.055818" y="-0.042103" width="1.111637" height="1.084205">
    <feGaussianBlur inkscape:collect="always" stdDeviation="6.561501" />
  </filter>
  <filter inkscape:collect="always" inkscape:label="blurWaterHilight" style="color-interpolation-filters:sRGB" id="blurWaterHilight" x="-0.071178" y="-0.051856" width="1.142356" height="1.103712">
    <feGaussianBlur inkscape:collect="always" stdDeviation="6.857532" />
  </filter>
  <filter inkscape:collect="always" inkscape:label="blurGrass" style="color-interpolation-filters:sRGB" id="blurGrass" x="-0.032100" y="-0.019164" width="1.064201" height="1.038328">
    <feGaussianBlur inkscape:collect="always" stdDeviation="2.386213" />
  </filter>
  <filter inkscape:collect="always" inkscape:label="blurForestShadow" style="color-interpolation-filters:sRGB" id="blurForestShadow" x="-0.033576" y="-0.018674" width="1.067152" height="1.037348">
    <feGaussianBlur inkscape:collect="always" stdDeviation="2.199785" />
  </filter>
  <filter inkscape:collect="always" inkscape:label="blurFlowerInner" style="color-interpolation-filters:sRGB" id="blurFlowerInner" x="-0.420000" y="-0.420000" width="1.840000" height="1.840000">
    <feGaussianBlur inkscape:collect="always" stdDeviation="1.605540" />
  </filter>
  <filter inkscape:collect="always" inkscape:label="blurFlowerMiddle" style="color-interpolation-filters:sRGB" id="blurFlowerMiddle" x="-0.240000" y="-0.240000" width="1.480000" height="1.480000">
    <feGaussianBlur inkscape:collect="always" stdDeviation="1.933705" />
  </filter>
  <linearGradient id="gradientStopsFish" inkscape:collect="always">
    <stop offset="0.000000" style="stop-color:#ff5555;stop-opacity:1.000000" />
    <stop offset="1.000000" style="stop-color:#ffffff;stop-opacity:1.000000" />
  </linearGradient>
  <linearGradient id="gradientStopsCoconut" inkscape:collect="always">
    <stop offset="0.000000" style="stop-color:#ffffff;stop-opacity:1.000000" />
    <stop offset="1.000000" style="stop-color:#c8c8c8;stop-opacity:0.000000" />
  </linearGradient>
  <linearGradient id="gradientStopsFlower" inkscape:collect="always">
    <stop offset="0.000000" style="stop-color:#b16dff;stop-opacity:1.000000" />
    <stop offset="1.000000" style="stop-color:#e7d2ff;stop-opacity:1.000000" />
  </linearGradient>
  <linearGradient id="gradientStopsJellyfish" inkscape:collect="always">
    <stop offset="0.000000" style="stop-color:#4f97ff;stop-opacity:1.000000" />
    <stop offset="1.000000" style="stop-color:#cfe3ff;stop-opacity:1.000000" />
  </linearGradient>
  <linearGradient id="gradientStopsShip" inkscape:collect="always">
    <stop offset="0.000000" style="stop-color:#b67800;stop-opacity:1.000000" />
    <stop offset="1.000000" style="stop-color:#d28b00;stop-opacity:1.000000" />
  </linearGradient>
  <linearGradient id="gradientFish" xlink:href="#gradientStopsFish" x1="178.789090" y1="-114.782830" x2="180.407300" y2="-103.782830" gradientTransform="translate(-178.76256,1.0606602)" gradientUnits="userSpaceOnUse" inkscape:collect="always" />
  <linearGradient id="gradientJellyfishTentacle1a" xlink:href="#gradientStopsJellyfish" x1="118.024030" y1="-110.827530" x2="121.753140" y2="-96.140030" gradientTransform="translate(-120,0)" gradientUnits="userSpaceOnUse" inkscape:collect="always" />
  <linearGradient id="gradientJellyfishTentacle1b" xlink:href="#gradientStopsJellyfish" x1="118.024030" y1="-110.827530" x2="121.753140" y2="-96.140030" gradientTransform="translate(-120,0)" gradientUnits="userSpaceOnUse" inkscape:collect="always" />
  <linearGradient id="gradientJellyfishTentacle2" xlink:href="#gradientStopsJellyfish" x1="118.218180" y1="-115.782610" x2="121.698270" y2="-97.813858" gradientTransform="translate(-120,0)" gradientUnits="userSpaceOnUse" inkscape:collect="always" />
  <linearGradient id="gradientJellyfishTentacle3" xlink:href="#gradientStopsJellyfish" x1="123.335370" y1="-114.610190" x2="116.678600" y2="-98.453941" gradientTransform="translate(-120,0)" gradientUnits="userSpaceOnUse" inkscape:collect="always" />
  <linearGradient id="gradientShip" xlink:href="#gradientStopsShip" x1="196.432910" y1="221.715270" x2="203.663250" y2="204.277770" gradientTransform="matrix(0.37654483,0.9263984,-0.9263984,0.37654483,355.66788,-318.43897)" gradientUnits="userSpaceOnUse" inkscape:collect="always" />
  <radialGradient id="gradientCoconut" xlink:href="#gradientStopsCoconut" cx="1.944096" cy="-60.612652" fx="1.944096" fy="-60.612652" r="6.723294" gradientUnits="userSpaceOnUse" gradientTransform="matrix(1.691364,-0.31394812,0.29762395,1.603419,17.826033,-7.042221)" inkscape:collect="always" />
  <radialGradient id="gradientFlower" xlink:href="#gradientStopsFlower" cx="60.884877" cy="-69.652750" fx="60.884877" fy="-69.652750" r="15.835310" gradientUnits="userSpaceOnUse" gradientTransform="matrix(0.8413905,0,0,0.87120012,-50.722984,-48.679159)" inkscape:collect="always" />
  <radialGradient id="gradientJellyfish" xlink:href="#gradientStopsJellyfish" cx="120.453410" cy="-112.943900" fx="120.453410" fy="-112.943900" r="10.580511" gradientUnits="userSpaceOnUse" gradientTransform="matrix(1.1662998,0.0435575,-0.04526952,1.2121402,-145.14628,17.080499)" inkscape:collect="always" />
</defs>

<sodipodi:namedview
    id="base"
    pagecolor="#ffffff"
    bordercolor="#666666"
    borderopacity="1.0"
    inkscape:pageopacity="0.0"
    inkscape:pageshadow="2"
    inkscape:zoom="2"
    inkscape:cx="115.37643"
    inkscape:cy="285.04449"
    inkscape:document-units="in"
    showgrid="true"
    units="in"
    inkscape:window-width="1392"
    inkscape:window-height="836"
    inkscape:window-x="39"
    inkscape:window-y="6"
    inkscape:window-maximized="0"
    inkscape:snap-grids="true"
    inkscape:snap-to-guides="true"
    inkscape:snap-nodes="true"
    inkscape:object-nodes="true"
    inkscape:snap-smooth-nodes="true"
    inkscape:snap-intersection-paths="true"
    inkscape:object-paths="true"
    inkscape:snap-bbox="true"
    inkscape:bbox-nodes="true"
    inkscape:snap-others="true"
    inkscape:bbox-paths="false"
    inkscape:snap-global="true" >
  <inkscape:grid
    type="xygrid"
    id="grid3051"
    empspacing="2"
    visible="true"
    enabled="true"
    snapvisiblegridlinesonly="true"
    spacingx="0.0625in"
    spacingy="0.0625in"
    dotted="false"
    units="in" />
</sodipodi:namedview>
<g inkscape:groupmode="layer" id="water_layer" inkscape:label="Water" style="display:inline" sodipodi:insensitive="true" >
  <rect id="water" style="fill:#b9deff;fill-opacity:1;stroke:none" x="0" y="0" width="247.5" height="337.5" />
</g>
<g inkscape:groupmode="layer" id="water_shallow_layer" inkscape:label="Water Shallow" style="display:inline" sodipodi:insensitive="true" >
  <path style="fill:#9bd1ff;fill-opacity:0.70;fill-rule:evenodd;stroke:none;filter:url(#blurWaterShallow)" d="m -11.25,-11.25 0,180 22.5,0 c 0,0 11.341722,-3.49449 16.875,-5.625 4.840384,-1.86372 9.066571,-6.43667 14.25,-6.25 6.873069,0.24752 12.039772,6.66976 18.25,9.625 7.771049,3.69798 15.284695,11.67511 23.75,10.125 11.478784,-2.10192 22.0751,-13.02055 25.25,-24.25 1.44075,-5.09585 -1.70912,-10.60056 -4,-15.375 -2.20266,-4.5906 -6.265483,-8.0371 -9.125,-12.25 -2.006693,-2.95644 -5.625,-9.125 -5.625,-9.125 -3.604686,-5.8476 -11.047492,-10.89456 -9.125,-19.5 0,0 1.55156,-7.883008 2.625,-11.75 C 85.960939,78.661765 85.643244,71.521806 90,67.5 c 4.730073,-4.366422 13.19584,-1.37068 18.75,-4.625 6.20596,-3.636229 8.20954,-12.756925 14.75,-15.75 7.54578,-3.453132 17.19661,-4.147242 24.875,-1 6.65541,2.727938 9.26299,11.099317 14.75,15.75 5.15717,4.371121 10.97347,7.952256 16.875,11.25 6.00553,3.355859 12.18219,6.577553 18.75,8.625 4.84597,1.510683 9.94305,2.185853 15,2.625 3.73594,0.32443 7.5,0 11.25,0 3.75,0 11.25,0 11.25,0 l 22.5,0 0,-95.625 z" inkscape:connector-curvature="0" />
</g>
<g inkscape:groupmode="layer" id="water_deep_layer" inkscape:label="Water Deep" style="display:inline" sodipodi:insensitive="true" >
  <path style="fill:#87c8ff;fill-opacity:0.60;fill-rule:evenodd;stroke:none;filter:url(#blurWaterDeep)" d="m -11.25,-11.25 0,112.5 22.5,0 c 0,0 10.429303,4.61098 15.875,6.25 7.668857,2.30814 16.548736,8.97729 23.5,5 5.14641,-2.94461 5.625,-10.94573 5.625,-16.875 0,-5.929271 -6.271983,-10.981133 -5.625,-16.875 C 51.817977,67.882247 60.305423,58.857212 67.5,50.625 75.400557,41.584988 84.606149,32.892131 95.625,28.125 107.79329,22.860584 121.7751,23.439865 135,22.5 c 9.35141,-0.664585 18.91916,-1.772883 28.125,0 9.91499,1.909453 18.91394,7.113627 28.125,11.25 5.94951,2.671721 11.66667,5.833333 17.5,8.75 5.41667,2.708333 10.35599,6.733612 16.25,8.125 3.64968,0.861573 11.25,0 11.25,0 l 22.5,0 0,-61.875 z" inkscape:connector-curvature="0" />
</g>
<g inkscape:groupmode="layer" id="water_hilight_layer" inkscape:label="Water Hilight" style="display:inline" sodipodi:insensitive="true" >
  <use xlink:href="#shoreline" height="100%" width="100%" x="0" y="0" style="display:inline;fill:#ffffff;fill-opacity:1;stroke:#ffffff;stroke-opacity:1;filter:url(#blurWaterHilight)" />
</g>
<g inkscape:groupmode="layer" id="land_layer" inkscape:label="Land" style="display:inline" sodipodi:insensitive="true" >
  <use xlink:href="#shoreline" height="100%" width="100%" x="0" y="0" style="display:inline;fill:#ffddab;fill-opacity:1;stroke:none;stroke-width:1;stroke-miterlimit:4;stroke-dasharray:none;stroke-opacity:1" />
</g>
<g inkscape:groupmode="layer" id="land_texture_layer" inkscape:label="Land Texture" style="display:inline" sodipodi:insensitive="true" >
  <use xlink:href="#shoreline" height="100%" width="100%" x="0" y="0" style="display:inline;fill:#ffca7d;fill-opacity:1;stroke:none;stroke-width:1;stroke-miterlimit:4;stroke-dasharray:none;stroke-opacity:1;filter:url(#textureLand)" />
</g>
<g inkscape:groupmode="layer" id="shoreline_layer" inkscape:label="Shoreline" style="display:inline" sodipodi:insensitive="true" >
  <use xlink:href="#shoreline" height="100%" width="100%" x="0" y="0" style="display:inline;fill:none;fill-opacity:1;stroke:#5f4c14;stroke-width:1;stroke-miterlimit:4;stroke-dasharray:none;stroke-opacity:1" />
</g>
<g inkscape:groupmode="layer" id="shoreline_master_layer" inkscape:label="Shoreline Master" style="display:none" sodipodi:insensitive="true" >
  <path id="shoreline" style="color:#000000;clip-rule:nonzero;display:inline;overflow:visible;visibility:visible;opacity:1;isolation:auto;mix-blend-mode:normal;color-interpolation:sRGB;color-interpolation-filters:linearRGB;solid-color:#000000;solid-opacity:1;fill-opacity:1;fill-rule:evenodd;filter:url(#roughenShoreline);color-rendering:auto;image-rendering:auto;shape-rendering:auto;text-rendering:auto;enable-background:accumulate" d="M 149.58203,95.121094 C 142.15582,94.584878 123.95117,106.29297 131.5,103.75 c 7.28153,-2.45292 34.59962,18.23649 34.80859,24.97852 0.28269,9.12093 -10.6049,-1.85171 -5.74218,9.28516 2.90134,6.64479 5.27852,20.63885 9.20312,26.86914 5.9721,9.48071 0.67717,6.0447 -1.76562,15.45703 -2.00378,7.72073 -16.9391,3.61343 -17.80469,13.1914 -0.65161,7.21022 -16.06818,0.43906 -20.82422,8.96875 -4.79215,8.59445 -28.9793,10.72056 -27.50195,18.27539 0.72454,3.70508 -10.664696,20.11851 -17.445316,23.52344 -12.29545,6.17424 -18.285696,9.69552 -33.566406,2.37305 -3.88823,-1.86323 -6.901202,-15.30398 -10.382812,-22.7129 C 37.190226,216.96146 30.45495,205.79505 22.5,213.75 l -5.625,5.625 C 11.49074,217.625 5.41347,217 0,219.375 l -22.5,0 0,140.625 292.5,0 0,-241.875 -22.5,0 -22.5,0 c -11.25,0 -15.64051,-0.16206 -21.27344,-1.0918 -6.23223,-1.02867 -13.16843,-13.44211 -18.93554,-11.30078 -6.25604,2.32287 -12.0942,-4.02162 -17.98633,-1.68164 -7.32489,2.90898 -3.23549,-7.919731 -17.22266,-8.929686 z" inkscape:connector-curvature="0" />
</g>
<g inkscape:groupmode="layer" id="grass_layer" inkscape:label="Grass" style="display:inline" sodipodi:insensitive="true" >
  <use xlink:href="#grass" height="100%" width="100%" x="0" y="0" style="display:inline;fill:#b4e982;fill-opacity:1;stroke:none;stroke-width:1;stroke-miterlimit:4;stroke-dasharray:none;stroke-opacity:1" />
</g>
<g inkscape:groupmode="layer" id="grass_texture1_layer" inkscape:label="Grass Texture Big" style="display:inline" sodipodi:insensitive="true" >
  <use xlink:href="#grass" height="100%" width="100%" x="0" y="0" style="display:inline;fill:#a7e46a;fill-opacity:1;stroke:none;stroke-width:1;stroke-miterlimit:4;stroke-dasharray:none;stroke-opacity:1;filter:url(#textureGrassBig)" />
</g>
<g inkscape:groupmode="layer" id="grass_texture2_layer" inkscape:label="Grass Texture Small" style="display:inline" sodipodi:insensitive="true" >
  <use xlink:href="#grass" height="100%" width="100%" x="0" y="0" style="display:inline;fill:#8cdd3d;fill-opacity:1;stroke:none;stroke-width:1;stroke-miterlimit:4;stroke-dasharray:none;stroke-opacity:1;filter:url(#textureGrassSmall)" />
</g>
<g inkscape:groupmode="layer" id="grass_master_layer" inkscape:label="Grass Master" style="display:none" sodipodi:insensitive="true" >
  <path id="grass" style="color:#000000;clip-rule:nonzero;display:inline;overflow:visible;visibility:visible;opacity:1;isolation:auto;mix-blend-mode:normal;color-interpolation:sRGB;color-interpolation-filters:linearRGB;solid-color:#000000;solid-opacity:1;fill-opacity:1;fill-rule:evenodd;filter:url(#blurGrass);color-rendering:auto;image-rendering:auto;shape-rendering:auto;text-rendering:auto;enable-background:accumulate" d="m 147.875,99.75 c -1.68184,1.16944 -0.44519,4.30764 0.5,6.125 2.94899,5.67016 10.02701,7.94412 14.75,12.25 1.95953,1.78647 4.28468,3.33703 5.625,5.625 2.25364,3.84702 5.76871,8.96566 3.625,12.875 -1.10912,2.02263 -5.46388,0.007 -6.625,2 -2.27941,3.91296 2.49689,8.74958 3,13.25 0.62494,5.59018 0.68728,11.29214 0,16.875 -0.94458,7.6729 -0.80873,16.45276 -5.625,22.5 -1.66011,2.0844 -5.22612,1.75552 -7.125,3.625 -2.3509,2.31451 -1.91234,6.87246 -4.625,8.75 -4.35151,3.01185 -10.89193,-0.0991 -15.75,2 -3.66811,1.58492 -5.82036,5.57449 -9.25,7.625 -4.2503,2.54116 -9.98321,2.41036 -13.75,5.625 -3.78315,3.2286 -5.0188,8.59348 -7.75,12.75 -3.56159,5.42027 -6.25629,11.73651 -11.25,15.875 -5.081866,4.21155 -11.587814,6.68591 -18,8.25 -6.646583,1.62126 -14.070347,3.33776 -20.5,1 -5.652967,-2.05536 -9.542586,-7.51337 -13.25,-12.25 -2.873587,-3.67132 -3.303542,-9.11025 -6.75,-12.25 -2.85541,-2.6013 -6.775715,-4.94616 -10.625,-4.625 -5.251721,0.43817 -13.25,8.625 -13.25,8.625 l -22.5,0 0,112.5 270,0 0,-225 -22.5,0 c 0,0 -11.22557,1.75906 -16.875,1.625 -3.78785,-0.0899 -7.61789,-0.54626 -11.25,-1.625 -5.41479,-1.6082 -10.11572,-5.06436 -15.375,-7.125 -4.15905,-1.62956 -8.50613,-2.73121 -12.75,-4.125 -5.63324,-1.85009 -11.36741,-3.42894 -16.875,-5.625 -5.21176,-2.0781 -10.64339,-10.328126 -15.25,-7.125 z" inkscape:connector-curvature="0" />
</g>
<g inkscape:groupmode="layer" id="forest_shadow_layer" inkscape:label="Forest Shadow" style="display:inline" sodipodi:insensitive="true" >
  <g style="filter:url(#blurForestShadow)" >
    <use xlink:href="#forest" height="100%" width="100%" x="0" y="0" style="display:inline;opacity:0.75;fill:#258c1b;fill-opacity:1;filter:url(#roughenForest)" />
  </g>
</g>
<g inkscape:groupmode="layer" id="forest_fill_layer" inkscape:label="Forest Fill" style="display:inline" sodipodi:insensitive="true" >
  <use xlink:href="#forest" height="100%" width="100%" x="0" y="0" style="fill:#83d700;fill-opacity:1;stroke:none;stroke-width:1.5;stroke-miterlimit:4;stroke-dasharray:none;stroke-opacity:1;filter:url(#roughenForest)" />
</g>
<g inkscape:groupmode="layer" id="forest_texture_big_layer" inkscape:label="Forest Texture Big" style="display:inline" sodipodi:insensitive="true" >
  <g style="filter:url(#textureForestBig)" >
    <use xlink:href="#forest" height="100%" width="100%" x="0" y="0" style="fill:#548c00;fill-opacity:1;stroke:none;stroke-width:1.5;stroke-miterlimit:4;stroke-dasharray:none;stroke-opacity:1;filter:url(#roughenForest)" />
  </g>
</g>
<g inkscape:groupmode="layer" id="forest_texture_small_layer" inkscape:label="Forest Texture Small" style="display:inline" sodipodi:insensitive="true" >
  <g style="filter:url(#textureForestSmall)" >
    <use xlink:href="#forest" height="100%" width="100%" x="0" y="0" style="fill:#78c125;fill-opacity:1;stroke:none;stroke-width:1;stroke-miterlimit:4;stroke-dasharray:none;stroke-opacity:1;filter:url(#roughenForest)" />
  </g>
</g>
<g inkscape:groupmode="layer" id="forest_outline_layer" inkscape:label="Forest Outline" style="display:inline" sodipodi:insensitive="true" >
  <use xlink:href="#forest" height="100%" width="100%" x="0" y="0" style="fill:none;fill-opacity:1;stroke:#006800;stroke-width:1.5;stroke-miterlimit:4;stroke-dasharray:none;stroke-opacity:1;filter:url(#roughenForest)" />
</g>
<g inkscape:groupmode="layer" id="forest_master_layer" inkscape:label="Forest Master" style="display:none" sodipodi:insensitive="true" >
  <path id="forest" style="color:#000000;clip-rule:nonzero;display:inline;overflow:visible;visibility:visible;opacity:1;isolation:auto;mix-blend-mode:normal;color-interpolation:sRGB;color-interpolation-filters:linearRGB;solid-color:#000000;solid-opacity:1;fill-opacity:1;fill-rule:nonzero;color-rendering:auto;image-rendering:auto;shape-rendering:auto;text-rendering:auto;enable-background:accumulate" d="m 208,141.25 c -4.14214,0 -7.5,3.02208 -7.5,6.75 0.003,0.99824 0.25165,1.98349 0.72852,2.88477 -0.14831,0.52814 -0.22504,1.07049 -0.22852,1.61523 5.6e-4,0.1551 0.007,0.31014 0.0195,0.46484 -1.59914,1.27828 -2.51581,3.11023 -2.5195,5.03516 0.002,3.16976 2.45422,5.91131 5.89453,6.58984 -2.39856,1.18347 -3.891,3.44833 -3.89453,5.91016 0,3.72792 3.35786,6.75 7.5,6.75 0.79253,-0.002 1.57963,-0.11769 2.33203,-0.3418 0.6318,0.65866 1.39913,1.20117 2.25977,1.59766 -0.0578,0.32889 -0.0885,0.66118 -0.0918,0.99414 0.002,0.35067 0.0336,0.70069 0.0957,1.04688 -1.94137,1.26764 -3.092,3.29448 -3.0957,5.45312 0,3.72792 3.35786,6.75 7.5,6.75 0.41428,-4.5e-4 0.8278,-0.0318 1.23633,-0.0937 0.84179,2.99325 3.83296,5.09085 7.26367,5.09375 0.73961,-0.002 1.47478,-0.10295 2.18164,-0.29883 0.31127,1.26973 1.0234,2.43152 2.05078,3.34571 -1.72783,1.28052 -2.72989,3.18865 -2.73242,5.20307 0,3.72792 3.35786,6.75 7.5,6.75 0.49941,-0.002 0.99732,-0.0493 1.48633,-0.14062 0.49795,0.0929 1.00512,0.14005 1.51367,0.14062 0.9772,-0.002 1.94455,-0.17581 2.84766,-0.51172 0.38266,-0.0167 0.76333,-0.0598 1.13867,-0.1289 0.49795,0.0929 1.00512,0.14005 1.51367,0.14062 0.49941,-0.002 0.99732,-0.0493 1.48633,-0.14062 0.49795,0.0929 1.00512,0.14005 1.51367,0.14062 0.24011,-0.002 0.47996,-0.0144 0.71875,-0.0371 0.25952,0.0246 0.52029,0.037 0.78125,0.0371 3.63292,-0.003 6.74098,-2.34922 7.37695,-5.56836 1.04824,-1.18989 1.62006,-2.66313 1.62305,-4.18164 0,-3.72792 -3.35786,-6.75 -7.5,-6.75 -0.67584,-9e-5 -1.3486,0.082 -2,0.24414 -0.003,-0.78719 -0.15902,-1.56783 -0.46094,-2.30664 2.15619,-1.2403 3.46092,-3.38443 3.46094,-5.6875 -3.7e-4,-1.76492 -0.76879,-3.45952 -2.14062,-4.7207 2.25581,-1.21842 3.63734,-3.41153 3.64062,-5.7793 -0.002,-0.41953 -0.0468,-0.83801 -0.13477,-1.25 0.088,-0.41199 0.13311,-0.83047 0.13477,-1.25 -0.002,-1.80314 -0.80626,-3.53046 -2.23242,-4.79688 1.72784,-1.28053 2.72991,-3.18868 2.73242,-5.20312 -0.002,-0.76758 -0.15046,-1.52915 -0.4375,-2.25195 0.23542,-0.5997 0.37548,-1.22635 0.41602,-1.86133 0.6663,-1.02811 1.01871,-2.1965 1.02148,-3.38672 0,-3.72792 -3.35786,-6.75 -7.5,-6.75 -1.39444,0.002 -2.76068,0.35357 -3.94531,1.01562 -1.24071,0.0672 -2.44343,0.4108 -3.5,1 -1.51252,0.0812 -2.96224,0.57286 -4.15821,1.41016 -0.74668,0.25053 -1.44423,0.60656 -2.0664,1.05469 -1.20959,-2.41964 -3.88202,-3.97709 -6.83008,-3.98047 -0.6854,2.2e-4 -1.36753,0.085 -2.02734,0.25195 0.016,-0.16695 0.0251,-0.33439 0.0273,-0.50195 0,-3.72792 -3.35786,-6.75 -7.5,-6.75 -0.40242,8.8e-4 -0.80411,0.0309 -1.20117,0.0898 -1.38071,-1.92546 -3.75257,-3.08895 -6.29883,-3.0898 z m 9.52734,16.24805 c -0.016,0.16695 -0.0251,0.33439 -0.0273,0.50195 0.002,0.10685 0.006,0.21365 0.0137,0.32031 -0.33574,-0.044 -0.67442,-0.0675 -1.0137,-0.0703 -1.05768,0.003 -2.10269,0.20738 -3.06641,0.59961 0.042,-0.28166 0.0642,-0.56543 0.0664,-0.84961 -5.6e-4,-0.1551 -0.007,-0.31014 -0.0195,-0.46484 0.0131,-0.0104 0.0261,-0.0208 0.0391,-0.0312 0.645,0.16121 1.31107,0.24397 1.98047,0.24609 0.6854,-2.2e-4 1.36753,-0.085 2.02734,-0.25195 z m 11.97071,5.89453 c 0.37035,0.88354 0.94258,1.68732 1.67968,2.35937 -0.50853,0.46253 -0.94008,0.98881 -1.28125,1.5625 -1.41301,-1.31873 -3.3609,-2.06391 -5.39648,-2.06445 -0.17205,5.4e-4 -0.34402,0.006 -0.51562,0.0176 0.007,-0.0891 0.0124,-0.1783 0.0156,-0.26758 -0.002,-0.10685 -0.006,-0.21365 -0.0137,-0.32031 0.33573,0.044 0.6744,0.0675 1.01367,0.0703 1.62305,-0.003 3.20139,-0.47883 4.49805,-1.35742 z m 1.61523,11.7832 c 0.11632,0.11173 0.23684,0.21987 0.36133,0.32422 -1.57238,1.27738 -2.47127,3.09361 -2.47461,5 7.3e-4,1.07356 0.28596,2.13148 0.83203,3.08594 -0.3988,0.41808 -0.73923,0.87854 -1.01367,1.37109 -1.03113,-0.46187 -2.16659,-0.7038 -3.31836,-0.70703 -0.0625,0.001 -0.12503,0.003 -0.1875,0.006 1.3985,-1.26303 2.18491,-2.97276 2.1875,-4.75586 -0.002,-0.42552 -0.0482,-0.84993 -0.13867,-1.26758 1.60637,-0.59688 2.93256,-1.67731 3.75195,-3.05664 z M 243,225.75 c -1.59493,0.003 -3.1473,0.46336 -4.43164,1.31445 -1.0958,-0.53407 -2.3222,-0.81399 -3.56836,-0.81445 -1.62421,0.003 -3.20336,0.48099 -4.5,1.36133 -1.29664,-0.88034 -2.87579,-1.35806 -4.5,-1.36133 -4.14214,0 -7.5,3.02208 -7.5,6.75 0.002,3.43135 2.86415,6.3153 6.65234,6.70312 -0.0972,0.42685 -0.14819,0.86117 -0.15234,1.29688 0.002,0.39767 0.0433,0.7944 0.12305,1.18555 -0.83841,-0.28507 -1.72681,-0.43259 -2.62305,-0.43555 -1.63874,0.002 -3.23166,0.48702 -4.53516,1.38086 0.0226,-0.20968 0.0344,-0.42019 0.0352,-0.63086 0,-3.72792 -3.35786,-6.75 -7.5,-6.75 -4.14214,0 -7.5,3.02208 -7.5,6.75 0.004,2.08983 1.08264,4.06028 2.92188,5.33594 -2.1335,1.24407 -3.42156,3.37612 -3.42188,5.66406 0.003,0.77389 0.15341,1.54159 0.44531,2.26953 -1.18418,-0.66342 -2.55045,-1.01649 -3.94531,-1.01953 -4.14214,0 -7.5,3.02208 -7.5,6.75 0.003,3.42762 2.85909,6.30932 6.64258,6.70117 -0.094,0.42778 -0.14178,0.86276 -0.14258,1.29883 0.002,0.33818 0.0331,0.67573 0.0918,1.00977 -0.71082,1.05202 -1.08837,2.25898 -1.0918,3.49023 0.002,2.50179 1.54148,4.79734 4,5.96484 -0.97029,1.16434 -1.49644,2.57974 -1.5,4.03516 0.004,2.35096 1.36692,4.53068 3.59766,5.75391 -0.0326,-0.002 -0.0651,-0.003 -0.0977,-0.004 -4.14214,0 -7.5,3.02208 -7.5,6.75 3.7e-4,1.76492 0.76879,3.45952 2.14062,4.7207 -0.092,0.42144 -0.13908,0.84981 -0.14062,1.2793 0,3.72792 3.35786,6.75 7.5,6.75 0.10097,-0.002 0.20191,-0.005 0.30273,-0.01 -1.26763,0.92058 -2.1678,2.18755 -2.56445,3.60938 -0.40898,-0.0639 -0.82315,-0.0971 -1.23824,-0.0993 -0.41428,4.7e-4 -0.8278,0.0318 -1.23633,0.0937 -0.84183,-2.99319 -3.833,-5.09079 -7.26371,-5.09369 -4.14214,0 -7.5,3.02208 -7.5,6.75 0.003,0.98808 0.24706,1.96352 0.71484,2.85742 -2.49083,0.38957 -4.59597,1.88233 -5.59961,3.9707 -1.30168,-2.20067 -3.84516,-3.57641 -6.61523,-3.57812 -0.79681,0.003 -1.58798,0.12046 -2.34375,0.34766 0.55215,-0.95707 0.84148,-2.01927 0.84375,-3.09766 0,-3.72792 -3.35786,-6.75 -7.5,-6.75 -1.87986,0.003 -3.69012,0.64035 -5.07227,1.78711 -1.35205,-2.03601 -3.79226,-3.28392 -6.42773,-3.28711 -1.38962,10e-4 -2.75145,0.35039 -3.93359,1.00781 0.61173,-0.99761 0.9329,-2.11836 0.93359,-3.25781 0,-3.72792 -3.35786,-6.75 -7.5,-6.75 -4.14214,0 -7.5,3.02208 -7.5,6.75 0,3.72792 3.35786,6.75 7.5,6.75 0.0299,-10e-4 0.0599,-0.003 0.0898,-0.004 -2.22776,1.22498 -3.58747,3.40442 -3.5898,5.754 0.003,0.25926 0.0225,0.51815 0.0586,0.77539 -0.18578,-0.0147 -0.37211,-0.0232 -0.5586,-0.0254 -4.14214,0 -7.5,3.02208 -7.5,6.75 0.002,0.41953 0.0468,0.83801 0.13477,1.25 -0.088,0.41199 -0.13311,0.83047 -0.13477,1.25 0.002,0.41953 0.0468,0.83801 0.13477,1.25 -0.088,0.41199 -0.13311,0.83047 -0.13477,1.25 0.001,0.17734 0.0104,0.35456 0.0273,0.53125 -0.34599,0.78594 -0.52486,1.62338 -0.5273,2.46875 0.003,0.9338 0.22103,1.8569 0.64062,2.71094 -0.0927,0.42464 -0.13977,0.85631 -0.14062,1.28906 2.1e-4,1.532 0.57947,3.01836 1.64258,4.21484 1.19545,2.44916 3.88513,4.03187 6.85742,4.03516 2.22189,-3.7e-4 4.32923,-0.88737 5.75391,-2.42188 1.42293,1.53262 3.52694,2.41943 5.74609,2.42188 1.12712,-0.002 2.23931,-0.23202 3.25391,-0.67383 1.01222,0.44078 2.12162,0.67107 3.24609,0.67383 2.62735,-0.003 5.06129,-1.24349 6.41602,-3.26953 0.67712,0.17758 1.37869,0.26832 2.08398,0.26953 1.2044,-9e-4 2.39084,-0.26285 3.45898,-0.76367 1.37813,1.1317 3.17544,1.76051 5.04102,1.76367 0.18445,-3.9e-4 0.36882,-0.007 0.55273,-0.0195 0.14884,0.0105 0.298,0.017 0.44727,0.0195 3.07057,-0.003 5.82919,-1.68955 6.96289,-4.25781 1.37811,1.12875 3.17375,1.75538 5.03711,1.75781 1.59493,-0.003 3.1473,-0.46336 4.43164,-1.31445 1.0958,0.53407 2.3222,0.81399 3.56836,0.81445 1.02952,-0.003 2.0474,-0.1962 2.99023,-0.56836 0.33449,0.0432 0.67185,0.0661 1.00977,0.0684 1.44821,-5e-4 2.86528,-0.37834 4.08008,-1.08789 1.41422,1.33264 3.37235,2.08697 5.41992,2.08789 0.68062,-7e-5 1.35806,-0.0835 2.01367,-0.24805 0.64679,0.16234 1.31487,0.24576 1.98633,0.24805 2.51561,-0.002 4.86263,-1.13873 6.25,-3.02734 1.38737,1.88861 3.73439,3.02544 6.25,3.02734 0.68062,-7e-5 1.35806,-0.0835 2.01367,-0.24805 0.64679,0.16234 1.31487,0.24576 1.98633,0.24805 1.32447,-0.003 2.62439,-0.32189 3.76758,-0.92383 1.39863,1.23087 3.27626,1.92122 5.23242,1.92383 0.49941,-0.002 0.99732,-0.0493 1.48633,-0.14062 0.49795,0.0929 1.00512,0.14005 1.51367,0.14062 4.14214,0 7.5,-3.02208 7.5,-6.75 -0.002,-0.43156 -0.0508,-0.86192 -0.14453,-1.28516 1.37169,-1.25917 2.14142,-2.95145 2.14453,-4.71484 -0.001,-0.85009 -0.18076,-1.69233 -0.5293,-2.48242 0.0171,-0.17213 0.0269,-0.34478 0.0293,-0.51758 -0.002,-0.33818 -0.0331,-0.67573 -0.0918,-1.00977 0.0576,-0.3276 0.0883,-0.65857 0.0918,-0.99023 -0.002,-0.56617 -0.0836,-1.12984 -0.24219,-1.67773 1.12486,-1.21287 1.74138,-2.74242 1.74219,-4.32227 -0.001,-0.59513 -0.0899,-1.18751 -0.26367,-1.76172 0.17154,-0.56664 0.26018,-1.151 0.26367,-1.73828 -0.003,-2.5272 -1.57469,-4.84108 -4.07227,-5.99609 2.50036,-1.15629 4.07232,-3.4739 4.07227,-6.00391 -0.004,-2.30202 -1.31032,-4.44371 -3.4668,-5.68164 0.30541,-0.74218 0.46342,-1.52692 0.4668,-2.31836 -7.3e-4,-1.07356 -0.28596,-2.13148 -0.83203,-3.08594 1.17999,-1.22552 1.83032,-2.79242 1.83203,-4.41406 -0.002,-1.57072 -0.61257,-3.09165 -1.72656,-4.30078 1.72448,-1.28068 2.7242,-3.18702 2.72656,-5.19922 -0.002,-1.33484 -0.44389,-2.63916 -1.26953,-3.74805 0.82646,-1.11 1.26829,-2.41578 1.26953,-3.75195 -0.003,-1.23574 -0.3825,-2.44707 -1.09766,-3.50195 0.7144,-1.05375 1.09405,-2.26364 1.09766,-3.49805 -0.002,-1.33399 -0.44304,-2.63756 -1.26758,-3.74609 0.17436,-0.57153 0.26433,-1.16124 0.26758,-1.75391 -0.003,-2.42123 -1.44654,-4.65558 -3.7832,-5.85547 0.42358,0.0682 0.8529,0.10351 1.2832,0.10547 4.14214,0 7.5,-3.02208 7.5,-6.75 -0.002,-2.18733 -1.18251,-4.23797 -3.16602,-5.50195 1.98226,-1.26318 3.16211,-3.3121 3.16602,-5.49805 -0.004,-3.11579 -2.37662,-5.82443 -5.74219,-6.55469 -1.25175,-0.77781 -2.7367,-1.19469 -4.25781,-1.19531 -0.42745,-2e-4 -0.85413,0.0325 -1.27539,0.0977 l -0.002,0 c -0.40389,-0.0626 -0.81279,-0.0952 -1.22261,-0.0977 z m -214.5,16.5 c -1.401256,0.001 -2.774095,0.35581 -3.962891,1.02344 C 24.358442,243.25985 24.17929,243.25203 24,243.25 c -4.142136,0 -7.5,3.02208 -7.5,6.75 0.0023,1.3389 0.446885,2.64694 1.277344,3.75781 -3.524537,0.0967 -6.498277,2.38997 -7.144532,5.50977 -0.904115,0.0396 -1.792792,0.22623 -2.6230464,0.55078 C 7.6752726,259.77513 7.3379153,259.75229 7,259.75 5.8618133,259.752 4.7390569,259.98709 3.7167969,260.4375 3.1544789,260.31563 2.5783844,260.25271 2,260.25 1.94529,260.251 1.8905996,260.253 1.8359375,260.256 0.9360239,259.9233 -0.02718108,259.75149 -1,259.75 c -4.1421356,0 -7.5,3.02208 -7.5,6.75 0.00283,2.8973 2.0597397,5.46982 5.1113281,6.39258 C -5.0429717,274.17226 -5.9962531,276.03676 -6,278 c 0.00289,0.9338 0.2210295,1.8569 0.640625,2.71094 -0.09268,0.42464 -0.1397713,0.85631 -0.140625,1.28906 0.00245,0.33818 0.033135,0.67572 0.091797,1.00977 -0.057589,0.3276 -0.088271,0.65857 -0.091797,0.99023 0.00174,1.80474 0.8064311,3.5337 2.234375,4.80078 -0.8030317,1.09854 -1.2320571,2.38426 -1.234375,3.69922 0.00256,1.47684 0.5432077,2.91216 1.5390625,4.08594 C -3.6385825,297.62051 -3.997271,298.79905 -4,300 c 0.00239,2.74653 1.8535996,5.2179 4.68164062,6.25 C -2.1464004,307.2821 -3.9976118,309.75347 -4,312.5 c 7.675e-4,0.5944 0.088768,1.18611 0.2617188,1.75977 C -4.5595209,315.36723 -4.9985032,316.66855 -5,318 c 8.911e-4,0.59848 0.090216,1.1942 0.265625,1.77148 C -6.4822636,321.05184 -7.4977818,322.97171 -7.5,325 c 0.00121,0.59513 0.089873,1.18751 0.2636719,1.76172 -0.1715392,0.56664 -0.2601783,1.151 -0.2636719,1.73828 0.00302,2.40592 1.4287006,4.62852 3.7421875,5.83398 C -3.915324,334.87807 -3.9966834,335.43775 -4,336 c 0,3.72792 3.35786438,6.75 7.5,6.75 0.3340025,-0.003 0.6674271,-0.0256 0.9980469,-0.0684 0.3319109,0.0429 0.6666463,0.0658 1.0019531,0.0684 2.0481815,-0.003 4.0056959,-0.76062 5.417969,-2.0957 1.214413,0.71263 2.632286,1.09322 4.082031,1.0957 2.130019,-0.003 4.158113,-0.82114 5.578125,-2.25 1.058312,0.4909 2.231274,0.74799 3.421875,0.75 1.639661,-0.002 3.233351,-0.48791 4.537109,-1.38281 0.791395,0.25068 1.623916,0.38008 2.462891,0.38281 2.24204,-0.002 4.365729,-0.90577 5.789062,-2.46484 0.86392,0.30453 1.783124,0.46214 2.710938,0.46484 1.127114,-0.002 2.239308,-0.23202 3.253906,-0.67383 1.012223,0.44078 2.121618,0.67107 3.246094,0.67383 1.45307,-7.8e-4 2.874598,-0.38144 4.091797,-1.0957 1.420642,1.6374 3.599911,2.59484 5.908203,2.5957 0.717589,-10e-4 1.431244,-0.0954 2.119141,-0.2793 1.27506,0.8294 2.807632,1.27695 4.380859,1.2793 1.02446,-0.003 2.037474,-0.19401 2.976562,-0.5625 1.201629,0.69124 2.597328,1.05981 4.023438,1.0625 0.917532,-7.4e-4 1.827125,-0.153 2.683594,-0.44922 1.154693,0.61837 2.472762,0.9462 3.816406,0.94922 1.191567,-2.4e-4 2.36592,-0.256 3.425781,-0.74609 1.419886,1.4265 3.446238,2.24301 5.574219,2.24609 3.086519,-0.003 5.855902,-1.70731 6.978516,-4.29492 1.083779,0.52053 2.293035,0.7935 3.521484,0.79492 0.364909,-0.002 0.729158,-0.0282 1.089844,-0.0781 1.398081,1.31126 3.324585,2.05975 5.343746,2.07617 1.31581,2.15736 3.83194,3.49924 6.56641,3.50193 4.14214,0 7.5,-3.02208 7.5,-6.75 -0.002,-0.33818 -0.0331,-0.67573 -0.0918,-1.00977 0.0576,-0.3276 0.0883,-0.65857 0.0918,-0.99023 -0.004,-0.50376 -0.0697,-1.00558 -0.19727,-1.49609 0.12823,-0.49306 0.1944,-0.99753 0.19727,-1.50391 -0.003,-0.67506 -0.11793,-1.34593 -0.3418,-1.99023 0.22603,-0.65055 0.34127,-1.32816 0.3418,-2.00977 -0.002,-0.41953 -0.0468,-0.83801 -0.13477,-1.25 0.088,-0.41199 0.13311,-0.83047 0.13477,-1.25 0,-3.72792 -3.35786,-6.75 -7.5,-6.75 -0.20997,10e-4 -0.41979,0.0103 -0.62891,0.0273 -0.65507,-3.20086 -3.75475,-5.5252 -7.37109,-5.5273 -2.960348,0.002 -5.642206,1.57165 -6.845703,4.00586 -0.05141,-0.002 -0.102844,-0.004 -0.154297,-0.006 l -0.0098,0 c -0.08977,-2.16311 -1.326767,-4.15625 -3.326172,-5.35938 1.490191,-1.27337 2.334605,-3.04124 2.335972,-4.89062 -6.4e-4,-3.20507 -2.505474,-5.96781 -5.994141,-6.61133 0.323895,-0.76277 0.49132,-1.5721 0.494141,-2.38867 0,-3.72792 -3.357864,-6.75 -7.5,-6.75 -2.639758,0.003 -5.083166,1.25551 -6.433594,3.29688 -1.077471,-1.34144 -2.665044,-2.2798 -4.460937,-2.63672 2.398559,-1.18347 3.891002,-3.44833 3.894531,-5.91016 -0.0022,-2.42621 -1.451049,-4.66471 -3.794922,-5.86328 -0.744425,-2.31972 -2.808897,-4.10491 -5.414062,-4.68164 -0.504504,-1.92761 -1.924106,-3.55858 -3.882813,-4.46094 0.711578,-1.05301 1.089162,-2.26142 1.091797,-3.494 0,-3.72792 -3.357864,-6.75 -7.5,-6.75 -1.857204,0.003 -3.647196,0.62569 -5.023438,1.74805 C 47.684707,259.47556 44.424745,256.75126 40.5,256.75 c -4.142136,0 -7.5,3.02208 -7.5,6.75 0.0039,0.39848 0.04707,0.79587 0.128906,1.1875 -0.840117,-0.28636 -1.730563,-0.43454 -2.628906,-0.4375 -0.148576,10e-4 -0.297079,0.006 -0.445312,0.0156 0.291408,-0.72669 0.442033,-1.49302 0.445312,-2.2656 -0.0039,-2.36286 -1.380242,-4.5519 -3.628906,-5.77148 0.378543,-0.14022 0.743695,-0.3081 1.091797,-0.50196 0.178667,0.0136 0.357819,0.0214 0.537109,0.0234 4.142136,0 7.5,-3.02208 7.5,-6.75 0,-3.72792 -3.357864,-6.75 -7.5,-6.75 z m 186.53516,5.61914 c -0.0213,0.20257 -0.0323,0.40591 -0.0332,0.60938 -0.13696,-0.10944 -0.27833,-0.21433 -0.42383,-0.31446 0.15639,-0.0931 0.30884,-0.19151 0.45704,-0.29492 z m 1.52343,8.90039 c 0.0945,0.74833 0.32759,1.47715 0.68946,2.15625 -0.64307,-0.27871 -1.32705,-0.47338 -2.03125,-0.57812 0.53132,-0.46359 0.98348,-0.99539 1.34179,-1.57813 z m -10.5039,2.46094 c 0.83378,0.46491 1.76078,0.77811 2.72851,0.92187 -0.86447,0.75619 -1.51366,1.68878 -1.89258,2.71875 -0.17671,-0.0298 -0.35456,-0.054 -0.5332,-0.0723 0.094,-0.42777 0.14178,-0.86273 0.14258,-1.29879 -0.003,-0.77389 -0.15341,-1.54159 -0.44531,-2.26953 z m 14.69726,2.84375 c 0.44019,0.19094 0.90006,0.3427 1.37305,0.45312 -0.31791,0.20392 -0.61765,0.42986 -0.89648,0.67578 -0.12106,-0.38836 -0.28056,-0.76617 -0.47657,-1.1289 z m -201.539059,5.74414 c 0.93238,0.49388 1.972447,0.80037 3.048828,0.89844 -2.617136,0.92418 -4.440202,3.08803 -4.722657,5.60547 -0.344073,-0.0457 -0.691265,-0.0699 -1.039062,-0.0723 -0.180541,6.4e-4 -0.360997,0.007 -0.541016,0.0195 -0.312695,-0.71444 -0.758546,-1.37562 -1.318359,-1.95508 2.231936,-0.75885 3.929541,-2.42817 4.572266,-4.49609 z m 213.707029,3.65625 c 0.67555,0.17924 1.37579,0.27195 2.08008,0.27539 0.62677,-0.002 1.25078,-0.075 1.85742,-0.2168 0.0552,0.16154 0.11707,0.32116 0.18555,0.47852 -0.66434,-0.17154 -1.35183,-0.25962 -2.04297,-0.26172 -0.89769,0.003 -1.78745,0.15135 -2.62695,0.4375 0.19906,-0.22685 0.38173,-0.46497 0.54687,-0.71289 z m -186.283201,0.0879 c 0.72183,1.03994 1.744775,1.88328 2.958984,2.43945 -0.19201,0.27955 -0.361079,0.57134 -0.505859,0.87305 -1.583625,0.27458 -3.026727,1.00127 -4.115235,2.07227 0.01396,-0.1488 0.02243,-0.29797 0.02539,-0.44728 -0.0032,-0.70675 -0.129774,-1.40866 -0.375,-2.08008 0.929184,-0.78336 1.621497,-1.76671 2.011719,-2.85741 z m -13.640625,10.32227 c 0.04133,0.029 0.083,0.0577 0.125,0.0859 -0.04044,0.007 -0.0808,0.0153 -0.121094,0.0234 -9.72e-4,-0.0365 -0.0023,-0.0729 -0.0039,-0.10937 z m 195.681636,0.2207 c 0.36042,0.51536 0.79667,0.98446 1.29688,1.39453 -0.13422,0.11159 -0.26386,0.22755 -0.38867,0.34766 -1.21529,-0.71398 -2.63464,-1.09528 -4.08594,-1.09767 -0.37018,0.002 -0.73968,0.0289 -1.10547,0.0801 -0.0574,-0.0628 -0.11595,-0.12466 -0.17578,-0.18555 0.42294,0.0681 0.8516,0.10341 1.28125,0.10547 1.09892,-0.003 2.18374,-0.22276 3.17773,-0.64453 z m -210.207027,5.40625 c -0.566791,0.69121 -0.981769,1.47344 -1.222656,2.30469 -0.05258,-0.19181 -0.114486,-0.38144 -0.185547,-0.56836 0.197147,-0.50456 0.326964,-1.02841 0.386719,-1.56055 0.344604,-0.0372 0.685919,-0.096 1.021484,-0.17578 z m 39.015625,0.67578 c 0.101264,0.0608 0.204159,0.11945 0.308594,0.17578 0.761231,2.38104 2.910685,4.19537 5.599609,4.72656 -0.838638,0.41306 -1.581796,0.96662 -2.189453,1.63086 -1.017179,-1.35083 -2.543641,-2.32429 -4.296875,-2.74023 -0.03554,-0.20097 -0.08116,-0.4004 -0.136719,-0.59766 0.476552,-0.90068 0.725358,-1.88524 0.728516,-2.88282 -0.0019,-0.10425 -0.0064,-0.20844 -0.01367,-0.31249 z m 149.771482,2.55469 0.004,0.0176 c -0.0312,0.0446 -0.0618,0.0895 -0.0918,0.13476 -0.088,-0.0512 -0.17724,-0.10065 -0.26758,-0.14844 0.0326,0.002 0.0651,0.003 0.0977,0.004 0.086,-10e-4 0.17193,-0.004 0.25781,-0.008 z m -165.673826,0.99022 c 0.138464,0.009 0.27719,0.0152 0.416016,0.0176 0.04493,-9.7e-4 0.08986,-0.002 0.134766,-0.004 l -0.002,0.0156 c -0.202531,0.0102 -0.40452,0.0278 -0.605468,0.0527 0.0191,-0.0272 0.03798,-0.0546 0.05664,-0.082 z m -24.195312,1.88281 c 0.536025,1.46064 1.610299,2.7127 3.044922,3.54883 -1.38425,0.4555 -2.588697,1.26798 -3.462891,2.33594 -0.08521,-1.02882 -0.431308,-2.02637 -1.011719,-2.91602 0.736943,-0.87063 1.227601,-1.88948 1.429688,-2.96875 z m 213.529298,0.53907 c 0.94406,0.55218 2.01414,0.90598 3.13086,1.03515 0.081,0.71024 0.28667,1.40441 0.60937,2.05664 -0.24707,0.49823 -0.42611,1.02158 -0.5332,1.5586 -0.38977,0.0443 -0.77507,0.11617 -1.15234,0.21484 -0.7086,-1.60698 -2.07533,-2.90799 -3.81836,-3.63476 0.65278,-0.32871 1.24725,-0.74345 1.76367,-1.23047 z m -9.41406,1.95117 c -0.36755,0.24925 -0.70884,0.52842 -1.01953,0.83398 0.1019,-0.23886 0.18863,-0.48275 0.25976,-0.73047 0.25506,-0.0228 0.50864,-0.0573 0.75977,-0.10351 z m -2.48829,2.95508 c -0.33801,0.77746 -0.51285,1.6046 -0.51562,2.43945 0.002,0.0886 0.006,0.17716 0.0117,0.26562 -3.6857,0.21769 -6.64659,2.8181 -6.97852,6.12891 -0.50419,-0.0954 -1.01796,-0.14388 -1.53318,-0.14453 -0.10097,0.002 -0.20191,0.005 -0.30273,0.01 1.7713,-1.28073 2.802,-3.21509 2.80273,-5.26 -0.003,-0.45024 -0.0559,-0.89909 -0.1582,-1.33984 0.3829,0.0569 0.77013,0.0869 1.1582,0.0898 2.09786,-0.003 4.09823,-0.79749 5.51562,-2.18945 z m -145.582026,3.39257 c 1.097593,1.36793 2.72464,2.31629 4.560547,2.65821 -0.323895,0.76277 -0.49132,1.5721 -0.494141,2.38867 0.0017,2.25377 1.253176,4.35807 3.335938,5.60938 C 79.34576,314.38275 78.501358,316.15063 78.5,318 c 0.0019,0.64486 0.106492,1.28614 0.310547,1.9043 -0.657465,0.27739 -1.266687,0.63924 -1.808594,1.07422 C 75.627987,319.86771 73.846921,319.25223 72,319.25 c -0.513268,10e-4 -1.025066,0.0494 -1.527344,0.14453 C 71.142488,318.36465 71.496978,317.19335 71.5,316 c 0,-3.72792 -3.357864,-6.75 -7.5,-6.75 -4.142136,0 -7.5,3.02208 -7.5,6.75 0.0016,1.01991 0.260065,2.02623 0.755859,2.94336 -3.371781,0.72559 -5.751595,3.4365 -5.755859,6.55664 6.02e-4,0.14597 0.0065,0.29188 0.01758,0.4375 -0.452112,-0.44185 -0.967732,-0.82742 -1.533203,-1.14648 0.0075,-0.0969 0.01274,-0.19392 0.01562,-0.29102 -0.0041,-1.4757 -0.545362,-2.90954 -1.541016,-4.08203 C 50.368626,319.14718 51.496649,317.13746 51.5,315 51.499113,313.91897 51.209747,312.85394 50.65625,311.89453 52.150402,310.62143 52.9978,308.85178 53,307 c -0.0034,-0.71574 -0.13329,-1.42645 -0.384766,-2.10547 0.768337,0.23376 1.573717,0.35381 2.384766,0.35547 2.24517,-10e-4 4.371551,-0.90801 5.794922,-2.4707 1.392903,1.85516 3.717289,2.96797 6.205078,2.9707 2.639758,-0.003 5.083166,-1.25551 6.433594,-3.29688 z m -40.216797,3.3379 c 0.328437,0.35735 0.69692,0.68329 1.099609,0.97265 -0.10535,-0.007 -0.210842,-0.0111 -0.316406,-0.0137 -2.961057,0.002 -5.643871,1.57107 -6.847656,4.00586 -0.05076,-0.002 -0.101542,-0.004 -0.152344,-0.006 -0.502747,0.002 -1.003966,0.05 -1.496094,0.14258 0.160082,-0.37677 0.282316,-0.7657 0.365235,-1.16211 1.782095,-0.66456 3.21116,-1.92155 3.990234,-3.50977 0.21298,0.018 0.426717,0.0278 0.640625,0.0293 0.929374,-1.8e-4 1.850617,-0.15581 2.716797,-0.45898 z m 194.306643,2.31054 c -0.0122,0.13258 -0.02,0.26545 -0.0234,0.39844 0.002,1.24571 0.38765,2.46654 1.11328,3.52734 -0.68612,-0.1827 -1.39776,-0.27609 -2.11328,-0.27734 -0.32548,0.003 -0.65038,0.0253 -0.97266,0.0664 0.6361,-1.01165 0.97113,-2.15401 0.97266,-3.31641 -0.002,-0.0886 -0.006,-0.17716 -0.0117,-0.26562 0.34807,-0.0225 0.69396,-0.0669 1.03516,-0.13282 z m -80.58985,2.14063 -0.008,0.0117 -0.0156,0 0.0234,-0.0117 z m 70.53321,4.86328 c 0.50419,0.0954 1.01797,0.14388 1.5332,0.14453 0.32874,-0.003 0.65692,-0.0249 0.98242,-0.0664 -0.0435,0.0651 -0.0859,0.13087 -0.12695,0.19727 -1.23968,0.51427 -2.29991,1.32328 -3.06641,2.33984 -0.0457,-0.0376 -0.0919,-0.0747 -0.13867,-0.11132 0.45051,-0.7789 0.72783,-1.62943 0.81641,-2.50391 z m -197.470706,0.002 c -0.152104,0.35623 -0.270367,0.72344 -0.353516,1.09766 -0.584912,-0.41514 -1.23528,-0.74954 -1.929687,-0.99219 0.261466,0.0248 0.524198,0.0372 0.787109,0.0371 0.502747,-0.002 1.003966,-0.05 1.496094,-0.14257 z m 138.576176,3.35547 c 0.16356,0.2505 0.34493,0.49123 0.54296,0.7207 -0.36416,-0.12231 -0.73833,-0.21895 -1.11914,-0.28906 0.19993,-0.13515 0.39223,-0.27921 0.57618,-0.43164 z m -136.220708,4.32422 c 0.790109,0.56291 1.698158,0.97675 2.669922,1.2168 -0.01392,0.16505 -0.02108,0.33051 -0.02148,0.49604 8.49e-4,0.81483 0.165616,1.62278 0.486328,2.38477 C 24.997103,326.79544 24.499191,326.75029 24,326.75 c -2.130019,0.003 -4.158113,0.82114 -5.578125,2.25 -0.132169,-0.0615 -0.266343,-0.11949 -0.402344,-0.17383 0.290467,-0.46244 0.519264,-0.95412 0.681641,-1.46484 1.899185,-0.97324 3.232217,-2.64364 3.65039,-4.57422 z m 78.779298,4.43555 0.004,0.0254 c -0.003,0.0188 -0.007,0.0377 -0.01,0.0566 -0.0717,0.007 -0.14336,0.0147 -0.21484,0.0234 -0.0342,-0.0296 -0.0687,-0.0589 -0.10352,-0.0879 0.1082,-0.004 0.2163,-0.01 0.32422,-0.0176 z" inkscape:connector-curvature="0" />
</g>
<g inkscape:groupmode="layer" id="routes_layer" inkscape:label="Routes" style="display:inline" sodipodi:insensitive="true" >
  <path style="display:inline;fill:none;stroke:#000000;stroke-width:2;stroke-linecap:round;stroke-miterlimit:4;stroke-dasharray:0.1, 5;stroke-dashoffset:0;stroke-opacity:1" d="m 76.513692,117.92009 c 21.70762,32.11138 53.114438,45.53024 86.555208,55.28124 49.51355,14.43766 40.03001,46.17367 73.1811,46.17367 11.25,0 16.9977,0.80649 22.5,0 M 123.75,0 l 0,11.25 c 0,3.75 7.37844,33.658635 2.625,44.625 -6.50687,15.011588 -29.516419,16.238335 -37.41295,44.32322 -4.823098,17.15389 -28.103451,30.79653 -40.04416,24.96752 C 37.614884,119.64803 23.25586,118.125 11.25,118.125 l -11.25,0 m 192.22244,69.53195 c -10.06826,10.49648 -24.83686,21.26603 -41.40711,20.17894 -14.68661,-0.96352 -17.79703,17.97173 -33.17255,22.17421 -17.80826,4.8674 -9.97272,45.91987 -2.78749,57.55842 C 126.03022,305.66954 123.75,320.625 123.75,326.25 l 0,11.25" inkscape:connector-curvature="0" />
</g>
<g inkscape:groupmode="layer" id="labels_layer" inkscape:label="Labels" style="display:inline" sodipodi:insensitive="true" >
  <text xml:space="preserve"><textPath xlink:href="#port_royale"><tspan
  style="-inkscape-font-specification:'CCTreasureTroveAged Mod, Normal';font-family:'CCTreasureTroveAged Mod';font-weight:normal;font-style:normal;font-stretch:normal;font-variant:normal;font-size:8.75px;text-anchor:start;text-align:start;writing-mode:lr;line-height:125%"
  >Port Royale</tspan></textPath></text>
</g>
<g inkscape:groupmode="layer" id="labels_guide_layer" inkscape:label="Labels Guide" style="display:none" sodipodi:insensitive="true" >
  <path id="port_royale" style="color:#000000;fill:none;stroke:#000000;stroke-width:1;stroke-opacity:1" d="m 139.64061,181.54145 c -13.8388,4.02033 -39.6357,20.21665 -48.351816,35.40495" inkscape:connector-curvature="0" />
</g>
<g inkscape:groupmode="layer" id="resources_layer" inkscape:label="Resources" style="display:inline" sodipodi:insensitive="true" >
  <g id="resource-banana" transform="matrix(-0.796994,0.60398723,-0.60398723,-0.796994,98.823738,84.887633)" >
    <circle cx="0.060593" cy="-110.109990" r="19.000000" style="opacity:1;fill:#ffffff;fill-opacity:1;stroke:#000000;stroke-width:0.89999998;stroke-linecap:round;stroke-linejoin:round;stroke-miterlimit:4;stroke-dasharray:none;stroke-dashoffset:0;stroke-opacity:1" />
    <g >
      <path style="color:#000000;clip-rule:nonzero;display:inline;overflow:visible;visibility:visible;opacity:1;isolation:auto;mix-blend-mode:normal;color-interpolation:sRGB;color-interpolation-filters:linearRGB;solid-color:#000000;solid-opacity:1;fill:#f6ff7d;fill-opacity:1;fill-rule:evenodd;stroke:#000000;stroke-width:0.89999998;stroke-linecap:round;stroke-linejoin:miter;stroke-miterlimit:4;stroke-dasharray:none;stroke-dashoffset:0;stroke-opacity:1;color-rendering:auto;image-rendering:auto;shape-rendering:auto;text-rendering:auto;enable-background:accumulate" d="m 8.78082,-121.13744 c 0.34471,1.36915 0.66512,3.60435 0.73321,4.6643 -0.49421,3.88746 -1.33998,7.74843 -3.32367,10.57326 -2.40596,3.42618 -5.41293,5.37866 -11.11869,7.679247 -0.60011,0.241966 -1.22538,0.289326 -1.46855,0.679535 -0.16319,0.261865 0.37387,1.454696 0.69075,1.620824 0.62648,0.328443 1.07253,0.177853 1.77872,0.218405 2.75809,0.158378 5.05424,-0.146839 8.30722,-1.151769 2.54386,-0.78586 5.74014,-3.251012 7.23795,-5.452222 1.82616,-2.68377 2.69924,-6.37346 2.5117,-9.61419 -0.15399,-2.66107 -2.58676,-5.30143 -2.58676,-5.30143 -0.24357,-1.33177 -0.66717,-2.90679 -1.14995,-4.64892 -0.58055,0.0153 -1.40915,0.37101 -1.61193,0.73296 z" inkscape:connector-curvature="0" />
      <path style="color:#000000;clip-rule:nonzero;display:inline;overflow:visible;visibility:visible;opacity:1;isolation:auto;mix-blend-mode:normal;color-interpolation:sRGB;color-interpolation-filters:linearRGB;solid-color:#000000;solid-opacity:1;fill:#f6ff7d;fill-opacity:1;fill-rule:evenodd;stroke:#000000;stroke-width:0.89999998;stroke-linecap:round;stroke-linejoin:miter;stroke-miterlimit:4;stroke-dasharray:none;stroke-dashoffset:0;stroke-opacity:1;color-rendering:auto;image-rendering:auto;shape-rendering:auto;text-rendering:auto;enable-background:accumulate" d="m 7.87879,-120.99354 c 0.0285,1.61295 0.38658,3.34631 0.31301,4.75879 -1.00555,3.30202 -3.33857,6.81255 -5.886,9.14173 -3.35597,3.06847 -7.87513,4.2358 -12.26178,5.43386 -0.6242,0.17048 -1.27338,-0.11771 -1.42138,0.51219 -0.15176,0.64587 0.0489,1.217046 0.31467,1.704455 0.33862,0.621027 0.89583,0.442404 1.59118,0.572223 2.67893,0.500153 5.58439,0.941055 8.23815,0.321149 2.59268,-0.605634 5.07646,-1.926877 7.10245,-3.654337 2.47014,-2.10616 4.44803,-4.97661 5.01611,-8.17267 0.39839,-2.24136 -0.605,-3.85067 -0.89708,-6.10835 -0.2048,-1.58315 0.19285,-2.72685 -0.1333,-4.91236 -0.55377,0.056 -1.33048,0.14727 -1.97603,0.40332 z" inkscape:connector-curvature="0" />
      <path style="color:#000000;clip-rule:nonzero;display:inline;overflow:visible;visibility:visible;opacity:1;isolation:auto;mix-blend-mode:normal;color-interpolation:sRGB;color-interpolation-filters:linearRGB;solid-color:#000000;solid-opacity:1;fill:#f6ff7d;fill-opacity:1;fill-rule:evenodd;stroke:#000000;stroke-width:0.89999998;stroke-linecap:round;stroke-linejoin:miter;stroke-miterlimit:4;stroke-dasharray:none;stroke-dashoffset:0;stroke-opacity:1;color-rendering:auto;image-rendering:auto;shape-rendering:auto;text-rendering:auto;enable-background:accumulate" d="m 6.86373,-121.02142 c -0.0162,1.67579 0.0613,3.31817 -0.2121,4.71569 -1.71528,2.99538 -4.19007,5.95351 -7.46659,7.74634 -4.28888,2.34678 -7.01389,2.86781 -11.88451,2.04623 -0.63804,-0.10762 -0.91664,-0.4723 -1.38982,-0.031 -0.50866,0.47443 -0.41626,1.00712 -0.0714,1.61117 0.35071,0.61429 0.52944,0.41897 1.09534,0.84336 1.98511,1.48869 3.74434,2.06677 6.44298,2.04779 2.77975,-0.0196 6.56154,-0.29036 8.90025,-1.56286 2.85139,-1.55146 4.93737,-3.4518 6.15239,-6.46199 0.85208,-2.11101 -0.0744,-4.05058 0.10539,-6.31996 0.12609,-1.59136 0.14328,-2.6534 0.0968,-4.5494 -0.63016,-0.20606 -1.24784,-0.12786 -1.76873,-0.0854 z" inkscape:connector-curvature="0" />
      <path style="color:#000000;font-style:normal;font-variant:normal;font-weight:normal;font-stretch:normal;font-size:medium;line-height:normal;font-family:sans-serif;text-indent:0;text-align:start;text-decoration:none;text-decoration-line:none;text-decoration-style:solid;text-decoration-color:#000000;letter-spacing:normal;word-spacing:normal;text-transform:none;direction:ltr;block-progression:tb;writing-mode:lr-tb;baseline-shift:baseline;text-anchor:start;white-space:normal;clip-rule:nonzero;display:inline;overflow:visible;visibility:visible;opacity:1;isolation:auto;mix-blend-mode:normal;color-interpolation:sRGB;color-interpolation-filters:linearRGB;solid-color:#000000;solid-opacity:1;fill:#737828;fill-opacity:1;fill-rule:evenodd;stroke:none;stroke-width:0.72000003;stroke-linecap:round;stroke-linejoin:miter;stroke-miterlimit:4;stroke-dasharray:none;stroke-dashoffset:0;stroke-opacity:1;color-rendering:auto;image-rendering:auto;shape-rendering:auto;text-rendering:auto;enable-background:accumulate" d="m 2.51814,-107.7686 c -2.07228,1.54391 -3.74795,2.09142 -6.33636,2.57335 -1.72347,0.32089 -3.84937,0.49004 -6.70834,0.0497 -0.53792,-0.0828 -0.32892,0.17921 0.20456,0.28719 2.7148,0.54957 5.27205,0.1766 6.8941,-0.0851 2.63047,-0.42445 3.77137,-0.81223 6.04492,-2.32391 0.12768,-0.58475 -0.15949,-0.11588 -0.0988,-0.5012 z" inkscape:connector-curvature="0" />
      <path style="color:#000000;clip-rule:nonzero;display:inline;overflow:visible;visibility:visible;opacity:1;isolation:auto;mix-blend-mode:normal;color-interpolation:sRGB;color-interpolation-filters:linearRGB;solid-color:#000000;solid-opacity:1;fill:#f7ff7d;fill-opacity:1;fill-rule:evenodd;stroke:#000000;stroke-width:0.72000003;stroke-linecap:round;stroke-linejoin:miter;stroke-miterlimit:4;stroke-dasharray:none;stroke-dashoffset:0;stroke-opacity:1;color-rendering:auto;image-rendering:auto;shape-rendering:auto;text-rendering:auto;enable-background:accumulate" d="m 7.87879,-120.99354 c 0.0285,1.61295 0.38658,3.34631 0.31301,4.75879 -1.00555,3.30202 -3.33857,6.81255 -5.886,9.14173 -3.35597,3.06847 -7.87513,4.2358 -12.26178,5.43386 -0.6242,0.17048 -1.27338,-0.11771 -1.42138,0.51219 -0.15176,0.64587 0.0489,1.217046 0.31467,1.704455 0.33862,0.621027 0.89583,0.442404 1.59118,0.572223 2.67893,0.500153 5.58439,0.941055 8.23815,0.321149 2.59268,-0.605634 5.07646,-1.926877 7.10245,-3.654337 2.47014,-2.10616 4.44803,-4.97661 5.01611,-8.17267 0.39839,-2.24136 -0.605,-3.85067 -0.89708,-6.10835 -0.2048,-1.58315 0.19285,-2.72685 -0.1333,-4.91236 -0.55377,0.056 -1.33048,0.14727 -1.97603,0.40332 z" inkscape:connector-curvature="0" />
      <path style="color:#000000;font-style:normal;font-variant:normal;font-weight:normal;font-stretch:normal;font-size:medium;line-height:normal;font-family:sans-serif;text-indent:0;text-align:start;text-decoration:none;text-decoration-line:none;text-decoration-style:solid;text-decoration-color:#000000;letter-spacing:normal;word-spacing:normal;text-transform:none;direction:ltr;block-progression:tb;writing-mode:lr-tb;baseline-shift:baseline;text-anchor:start;white-space:normal;clip-rule:nonzero;display:inline;overflow:visible;visibility:visible;opacity:1;isolation:auto;mix-blend-mode:normal;color-interpolation:sRGB;color-interpolation-filters:linearRGB;solid-color:#000000;solid-opacity:1;fill:#737828;fill-opacity:1;fill-rule:evenodd;stroke:none;stroke-width:0.72000003;stroke-linecap:round;stroke-linejoin:miter;stroke-miterlimit:4;stroke-dasharray:none;stroke-dashoffset:0;stroke-opacity:1;color-rendering:auto;image-rendering:auto;shape-rendering:auto;text-rendering:auto;enable-background:accumulate" d="m 4.80468,-106.35032 c -1.8366,1.79924 -3.59964,2.90171 -6.00807,3.97021 -1.77027,0.7854 -3.77092,1.22784 -6.52266,1.38661 -0.55888,0.0322 -0.28397,0.22297 0.27546,0.20184 2.71946,-0.10273 4.80476,-0.55229 6.63126,-1.36264 2.43383,-1.07977 4.50278,-2.38649 6.25386,-4.13127 0.79789,-0.79502 1.95252,-2.23179 2.69967,-3.4881 0.21909,-0.3684 0.3354,-1.28542 0.2234,-1.22755 -1.02526,2.0653 -2.6769,3.7927 -3.55292,4.6509 z" inkscape:connector-curvature="0" />
      <path style="color:#000000;clip-rule:nonzero;display:inline;overflow:visible;visibility:visible;opacity:1;isolation:auto;mix-blend-mode:normal;color-interpolation:sRGB;color-interpolation-filters:linearRGB;solid-color:#000000;solid-opacity:1;fill:#f7ff7d;fill-opacity:1;fill-rule:evenodd;stroke:#000000;stroke-width:0.72000003;stroke-linecap:round;stroke-linejoin:miter;stroke-miterlimit:4;stroke-dasharray:none;stroke-dashoffset:0;stroke-opacity:1;color-rendering:auto;image-rendering:auto;shape-rendering:auto;text-rendering:auto;enable-background:accumulate" d="m 8.78082,-121.13744 c 0.34471,1.36915 0.66512,3.60435 0.73321,4.6643 -0.49421,3.88746 -1.33998,7.74843 -3.32367,10.57326 -2.40596,3.42618 -5.41293,5.37866 -11.11869,7.679247 -0.60011,0.241966 -1.22538,0.289326 -1.46855,0.679535 -0.16319,0.261865 0.37387,1.454696 0.69075,1.620824 0.62648,0.328443 1.07253,0.177853 1.77872,0.218405 2.75809,0.158378 5.05424,-0.146839 8.30722,-1.151769 2.54386,-0.78586 5.74014,-3.251012 7.23795,-5.452222 1.82616,-2.68377 2.69924,-6.37346 2.5117,-9.61419 -0.15399,-2.66107 -2.58676,-5.30143 -2.58676,-5.30143 -0.24357,-1.33177 -0.66717,-2.90679 -1.14995,-4.64892 -0.58055,0.0153 -1.40915,0.37101 -1.61193,0.73296 z" inkscape:connector-curvature="0" />
      <path style="color:#000000;font-style:normal;font-variant:normal;font-weight:normal;font-stretch:normal;font-size:medium;line-height:normal;font-family:sans-serif;text-indent:0;text-align:start;text-decoration:none;text-decoration-line:none;text-decoration-style:solid;text-decoration-color:#000000;letter-spacing:normal;word-spacing:normal;text-transform:none;direction:ltr;block-progression:tb;writing-mode:lr-tb;baseline-shift:baseline;text-anchor:start;white-space:normal;clip-rule:nonzero;display:inline;overflow:visible;visibility:visible;opacity:1;isolation:auto;mix-blend-mode:normal;color-interpolation:sRGB;color-interpolation-filters:linearRGB;solid-color:#000000;solid-opacity:1;fill:#737828;fill-opacity:1;fill-rule:evenodd;stroke:none;stroke-width:0.72000003;stroke-linecap:round;stroke-linejoin:miter;stroke-miterlimit:4;stroke-dasharray:none;stroke-dashoffset:0;stroke-opacity:1;color-rendering:auto;image-rendering:auto;shape-rendering:auto;text-rendering:auto;enable-background:accumulate" d="m 11.17023,-113.86439 c -0.011,1.77939 -0.15804,3.37671 -0.70318,5.01283 -0.47684,1.43111 -0.94867,2.44937 -1.96984,4.0718 -1.36954,2.17594 -2.93041,3.68885 -5.19121,5.042 -1.55728,0.93208 -2.86824,1.715367 -5.59247,2.278309 -0.52698,0.108898 -1.00078,0.418847 -0.4677,0.345229 2.76772,-0.382229 4.71945,-1.233835 6.39997,-2.314868 2.23928,-1.44048 3.93705,-2.7933 5.38929,-5.10065 1.02607,-1.63022 1.47452,-2.54995 1.94328,-4.06882 0.56259,-1.82288 0.63573,-3.73693 0.46838,-5.5182 -0.0877,-0.93395 -0.2737,-0.2032 -0.27652,0.25237 z" inkscape:connector-curvature="0" />
    </g>
  </g>
</g>
<g inkscape:groupmode="layer" id="extras_layer" inkscape:label="Extras" style="display:inline" sodipodi:insensitive="true" >
  <g id="extra-ship" transform="matrix(0.4444171,-0.89581998,0.89581998,0.4444171,266.30938,417.60566)" >
    <path style="color:#000000;fill:url(#gradientShip);fill-opacity:1;fill-rule:evenodd;stroke:#000000;stroke-width:0.75;stroke-linecap:butt;stroke-linejoin:round;stroke-miterlimit:4;stroke-dasharray:none;stroke-dashoffset:0;stroke-opacity:1;marker:none;enable-background:accumulate" d="m 243.2364,-52.722824 c -3.10208,-2.937202 -8.72518,-3.346714 -12.49116,-3.032742 -2.95307,0.246202 -6.62512,1.070872 -6.62512,1.070872 l -0.0121,3.725952 c 0,0 2.43298,0.582421 6.39007,0.932887 3.66202,0.324334 9.61676,-0.283241 12.73834,-2.696969 z" inkscape:connector-curvature="0" />
    <path style="color:#000000;opacity:1;isolation:auto;mix-blend-mode:normal;color-interpolation:sRGB;color-interpolation-filters:linearRGB;solid-color:#000000;solid-opacity:1;fill:#000000;fill-opacity:1;fill-rule:evenodd;stroke:none;stroke-width:0.75;stroke-linecap:round;stroke-linejoin:round;stroke-miterlimit:4;stroke-dasharray:none;stroke-dashoffset:0;stroke-opacity:1;marker:none;color-rendering:auto;image-rendering:auto;shape-rendering:auto;text-rendering:auto;enable-background:accumulate" d="m 243.05273,-53.089844 c -0.50461,-0.01007 -0.51271,0.749303 -0.008,0.75 l 2.80546,-0.143551 c 0.50461,0.01007 0.51856,-0.385922 0.0138,-0.386619 z" inkscape:connector-curvature="0" />
    <circle cx="37.651787" cy="-233.087830" r="0.695206" style="color:#000000;opacity:1;isolation:auto;mix-blend-mode:normal;color-interpolation:sRGB;color-interpolation-filters:linearRGB;solid-color:#000000;solid-opacity:1;fill:#a66e00;fill-opacity:1;fill-rule:nonzero;stroke:#000000;stroke-width:0.5;stroke-linecap:butt;stroke-linejoin:miter;stroke-miterlimit:4;stroke-dasharray:none;stroke-dashoffset:0;stroke-opacity:1;color-rendering:auto;image-rendering:auto;shape-rendering:auto;text-rendering:auto;enable-background:accumulate" transform="matrix(0.37654483,0.9263984,-0.9263984,0.37654483,0,0)" />
    <circle cx="39.995537" cy="-238.712830" r="0.695206" style="color:#000000;opacity:1;isolation:auto;mix-blend-mode:normal;color-interpolation:sRGB;color-interpolation-filters:linearRGB;solid-color:#000000;solid-opacity:1;fill:#a66e00;fill-opacity:1;fill-rule:nonzero;stroke:#000000;stroke-width:0.5;stroke-linecap:butt;stroke-linejoin:miter;stroke-miterlimit:4;stroke-dasharray:none;stroke-dashoffset:0;stroke-opacity:1;color-rendering:auto;image-rendering:auto;shape-rendering:auto;text-rendering:auto;enable-background:accumulate" transform="matrix(0.37654483,0.9263984,-0.9263984,0.37654483,0,0)" />
    <path style="color:#000000;fill:#feffff;fill-opacity:1;fill-rule:evenodd;stroke:#000000;stroke-width:0.5;stroke-linecap:butt;stroke-linejoin:round;stroke-miterlimit:4;stroke-dasharray:none;stroke-dashoffset:0;stroke-opacity:1;marker:none;enable-background:accumulate" d="m 230.8139,-58.168744 -0.0696,11.095953 c 0,0 1.11273,-0.901569 1.17305,-2.014949 0.0592,-1.093696 -0.80015,-1.762231 -0.80015,-1.762231 0,0 1.00218,-0.841738 0.9922,-1.921676 -0.0106,-1.140901 -0.9468,-1.722391 -0.9468,-1.722391 0,0 0.80027,-0.5343 0.83406,-1.646805 0.0349,-1.150244 -1.18274,-2.027894 -1.18274,-2.027894 z" inkscape:connector-curvature="0" />
    <path style="color:#000000;fill:#feffff;fill-opacity:1;fill-rule:evenodd;stroke:#000000;stroke-width:0.5;stroke-linecap:butt;stroke-linejoin:round;stroke-miterlimit:4;stroke-dasharray:none;stroke-dashoffset:0;stroke-opacity:1;marker:none;enable-background:accumulate" d="m 236.95087,-57.97366 -0.0645,10.282469 c 0,0 1.03677,-0.785137 1.09267,-1.816887 0.0549,-1.013517 -0.74706,-1.683399 -0.74706,-1.683399 0,0 0.85887,-0.76153 0.84962,-1.762298 -0.01,-1.057255 -0.80754,-1.614603 -0.80754,-1.614603 0,0 0.84013,-0.540128 0.87144,-1.571079 0.0324,-1.065902 -1.19455,-1.834218 -1.19455,-1.834218 z" inkscape:connector-curvature="0" />
    <path style="fill:#000000;stroke:none" d="m 239.16963,-53.312319 -0.0111,0.999645 1.00145,0.01039 0.009,-1.000718 z" inkscape:connector-curvature="0" />
    <path style="fill:#6a4600;stroke:none" d="m 233.00825,-53.641515 -0.0131,1.52646 1.52369,0.01423 0.0142,-1.523703 z" inkscape:connector-curvature="0" />
    <path style="fill:none;stroke:#000000;stroke-width:0.6;stroke-linecap:butt" d="m 227.26126,-55.055042 -0.0734,4.514141" inkscape:connector-curvature="0" />
    <path style="fill:#000000;stroke:none" d="m 223.83649,-54.026834 -0.0111,0.999636 1.00072,0.0086 0.009,-0.998911 z" inkscape:connector-curvature="0" />
    <path style="fill:#000000;stroke:none" d="m 223.85032,-52.581947 -0.0111,0.999637 1.00072,0.0086 0.009,-0.998912 z" inkscape:connector-curvature="0" />
    <path style="fill:none;stroke:#000000;stroke-width:0.5;stroke-linecap:butt;stroke-linejoin:round;stroke-miterlimit:4" d="m 227.2539,-51.578825 1.14997,0.173504 -0.0116,1.05042" inkscape:connector-curvature="0" />
    <path style="fill:none;stroke:#000000;stroke-width:0.5;stroke-linecap:butt;stroke-linejoin:round;stroke-miterlimit:4" d="m 227.25705,-54.143799 1.1481,-0.163064 0.0224,-1.189753" inkscape:connector-curvature="0" />
  </g>
</g>
<g inkscape:groupmode="layer" id="suit_rank_glow_layer" inkscape:label="Suit Rank Glow" style="display:inline" sodipodi:insensitive="true" >
  <g style="opacity:0.75;filter:url(#blurSuitRankGlow)" >
    <path style="fill:#ffffff;fill-opacity:1;stroke:none" d="m 31.453338,20.865025 c -5.068589,2.178218 -11.123659,8.116004 -11.112499,14.56 0.007,3.899493 2.33855,5.215546 4.47125,5.74875 1.25548,0.313886 3.11121,0.211218 4.40125,-0.53375 -0.0977,1.04834 -0.18907,3.221456 -0.21,4.235 1.633329,0 3.266669,0 4.899999,0 -0.0209,-1.013544 -0.11229,-3.18666 -0.21,-4.235 1.29004,0.744968 3.14577,0.847636 4.40125,0.53375 2.1327,-0.533204 4.4645,-1.849257 4.47125,-5.74875 0.0111,-6.443996 -6.04391,-12.381782 -11.1125,-14.56 z" inkscape:connector-curvature="0" />
    <path style="fill:#ffffff;fill-opacity:1;stroke:none" d="m 215.96335,316.63503 c 5.06859,-2.17822 11.12366,-8.11601 11.1125,-14.56 -0.007,-3.8995 -2.33855,-5.21555 -4.47125,-5.74875 -1.25548,-0.31389 -3.11121,-0.21122 -4.40125,0.53375 0.0977,-1.04834 0.18907,-3.22146 0.21,-4.235 -1.63333,0 -3.26667,0 -4.9,0 0.0209,1.01354 0.11229,3.18666 0.21,4.235 -1.29004,-0.74497 -3.14577,-0.84764 -4.40125,-0.53375 -2.1327,0.5332 -4.4645,1.84925 -4.47125,5.74875 -0.0111,6.44399 6.04391,12.38178 11.1125,14.56 z" inkscape:connector-curvature="0" />
    <path style="fill:#ffffff;fill-opacity:1;stroke:none" d="m 21.873333,50.875025 c -10e-6,0 0.10666,0 0.32,0 0.23999,0 0.54666,0 0.91999,0 0.37334,0 0.8,0 1.28001,0 0.47999,0 0.97332,0 1.48,0 l 4,0 0,3.2 -2.4,0 0,12.04 7.84,-12.04 -2.24,0 0,-3.2 8,0 0,3.2 -2.08,0 -6.6,10.12 6.39999,15.48 2.28001,0 0,3.2 -8,0 0,-3.2 2.27999,0 -5.07999,-12.2 -2.8,4.32 0,7.88 2.4,0 0,3.2 -8,0 0,-3.2 2.4,0 0,-25.6 -2.4,0 0,-1.6 c -10e-6,-0.4 -0.0133,-0.76 -0.04,-1.08 -10e-6,-0.3466 0.0133,-0.52 0.04,-0.52" inkscape:connector-curvature="0" />
    <path style="fill:#ffffff;fill-opacity:1;stroke:none" d="m 225.54334,286.62502 c 1e-5,0 -0.10666,0 -0.32,0 -0.23999,0 -0.54666,0 -0.91999,0 -0.37334,0 -0.8,0 -1.28001,0 -0.47999,0 -0.97332,0 -1.48,0 l -4,0 0,-3.2 2.4,0 0,-12.04 -7.84,12.04 2.24,0 0,3.2 -8,0 0,-3.2 2.08,0 6.6,-10.12 -6.39999,-15.48 -2.28001,0 0,-3.2 8,0 0,3.2 -2.27999,0 5.07999,12.2 2.8,-4.32 0,-7.88 -2.4,0 0,-3.2 8,0 0,3.2 -2.4,0 0,25.6 2.4,0 0,1.60001 c 1e-5,0.39999 0.0133,0.76 0.04,1.07999 1e-5,0.34661 -0.0133,0.52 -0.04,0.52" inkscape:connector-curvature="0" />
  </g>
</g>
<g inkscape:groupmode="layer" id="suit_rank_layer" inkscape:label="Suit Rank" style="display:inline" sodipodi:insensitive="true" >
  <path style="fill:#000000;fill-opacity:1;stroke:none" d="m 31.453338,20.865025 c -5.068589,2.178218 -11.123659,8.116004 -11.112499,14.56 0.007,3.899493 2.33855,5.215546 4.47125,5.74875 1.25548,0.313886 3.11121,0.211218 4.40125,-0.53375 -0.0977,1.04834 -0.18907,3.221456 -0.21,4.235 1.633329,0 3.266669,0 4.899999,0 -0.0209,-1.013544 -0.11229,-3.18666 -0.21,-4.235 1.29004,0.744968 3.14577,0.847636 4.40125,0.53375 2.1327,-0.533204 4.4645,-1.849257 4.47125,-5.74875 0.0111,-6.443996 -6.04391,-12.381782 -11.1125,-14.56 z" inkscape:connector-curvature="0" />
  <path style="fill:#000000;fill-opacity:1;stroke:none" d="m 215.96335,316.63503 c 5.06859,-2.17822 11.12366,-8.11601 11.1125,-14.56 -0.007,-3.8995 -2.33855,-5.21555 -4.47125,-5.74875 -1.25548,-0.31389 -3.11121,-0.21122 -4.40125,0.53375 0.0977,-1.04834 0.18907,-3.22146 0.21,-4.235 -1.63333,0 -3.26667,0 -4.9,0 0.0209,1.01354 0.11229,3.18666 0.21,4.235 -1.29004,-0.74497 -3.14577,-0.84764 -4.40125,-0.53375 -2.1327,0.5332 -4.4645,1.84925 -4.47125,5.74875 -0.0111,6.44399 6.04391,12.38178 11.1125,14.56 z" inkscape:connector-curvature="0" />
  <path style="fill:#000000;fill-opacity:1;stroke:none" d="m 21.873333,50.875025 c -10e-6,0 0.10666,0 0.32,0 0.23999,0 0.54666,0 0.91999,0 0.37334,0 0.8,0 1.28001,0 0.47999,0 0.97332,0 1.48,0 l 4,0 0,3.2 -2.4,0 0,12.04 7.84,-12.04 -2.24,0 0,-3.2 8,0 0,3.2 -2.08,0 -6.6,10.12 6.39999,15.48 2.28001,0 0,3.2 -8,0 0,-3.2 2.27999,0 -5.07999,-12.2 -2.8,4.32 0,7.88 2.4,0 0,3.2 -8,0 0,-3.2 2.4,0 0,-25.6 -2.4,0 0,-1.6 c -10e-6,-0.4 -0.0133,-0.76 -0.04,-1.08 -10e-6,-0.3466 0.0133,-0.52 0.04,-0.52" inkscape:connector-curvature="0" />
  <path style="fill:#000000;fill-opacity:1;stroke:none" d="m 225.54334,286.62502 c 1e-5,0 -0.10666,0 -0.32,0 -0.23999,0 -0.54666,0 -0.91999,0 -0.37334,0 -0.8,0 -1.28001,0 -0.47999,0 -0.97332,0 -1.48,0 l -4,0 0,-3.2 2.4,0 0,-12.04 -7.84,12.04 2.24,0 0,3.2 -8,0 0,-3.2 2.08,0 6.6,-10.12 -6.39999,-15.48 -2.28001,0 0,-3.2 8,0 0,3.2 -2.27999,0 5.07999,12.2 2.8,-4.32 0,-7.88 -2.4,0 0,-3.2 8,0 0,3.2 -2.4,0 0,25.6 2.4,0 0,1.60001 c 1e-5,0.39999 0.0133,0.76 0.04,1.07999 1e-5,0.34661 -0.0133,0.52 -0.04,0.52" inkscape:connector-curvature="0" />
</g>
<g inkscape:groupmode="layer" id="guides_layer" inkscape:label="Guides" style="display:none" sodipodi:insensitive="true" >
  <path style="fill:none;stroke:#000000;stroke-width:0.9" d="m 11.250000,11.25 0,-45" inkscape:connector-curvature="0" />
  <path style="fill:none;stroke:#000000;stroke-width:0.9" d="m 11.250000,371.25 0,-45" inkscape:connector-curvature="0" />
  <path style="fill:none;stroke:#000000;stroke-width:0.9" d="m 84.375000,11.25 0,-45" inkscape:connector-curvature="0" />
  <path style="fill:none;stroke:#000000;stroke-width:0.9" d="m 84.375000,371.25 0,-45" inkscape:connector-curvature="0" />
  <path style="fill:none;stroke:#000000;stroke-width:0.9" d="m 123.750000,11.25 0,-45" inkscape:connector-curvature="0" />
  <path style="fill:none;stroke:#000000;stroke-width:0.9" d="m 123.750000,371.25 0,-45" inkscape:connector-curvature="0" />
  <path style="fill:none;stroke:#000000;stroke-width:0.9" d="m 163.125000,11.25 0,-45" inkscape:connector-curvature="0" />
  <path style="fill:none;stroke:#000000;stroke-width:0.9" d="m 163.125000,371.25 0,-45" inkscape:connector-curvature="0" />
  <path style="fill:none;stroke:#000000;stroke-width:0.9" d="m 236.250000,11.25 0,-45" inkscape:connector-curvature="0" />
  <path style="fill:none;stroke:#000000;stroke-width:0.9" d="m 236.250000,371.25 0,-45" inkscape:connector-curvature="0" />
  <path style="fill:none;stroke:#000000;stroke-width:0.9" d="m -33.75,11.250000 45,0" inkscape:connector-curvature="0" />
  <path style="fill:none;stroke:#000000;stroke-width:0.9" d="m 236.25,11.250000 45,0" inkscape:connector-curvature="0" />
  <path style="fill:none;stroke:#000000;stroke-width:0.9" d="m -33.75,118.125000 45,0" inkscape:connector-curvature="0" />
  <path style="fill:none;stroke:#000000;stroke-width:0.9" d="m 236.25,118.125000 45,0" inkscape:connector-curvature="0" />
  <path style="fill:none;stroke:#000000;stroke-width:0.9" d="m -33.75,168.750000 45,0" inkscape:connector-curvature="0" />
  <path style="fill:none;stroke:#000000;stroke-width:0.9" d="m 236.25,168.750000 45,0" inkscape:connector-curvature="0" />
  <path style="fill:none;stroke:#000000;stroke-width:0.9" d="m -33.75,219.375000 45,0" inkscape:connector-curvature="0" />
  <path style="fill:none;stroke:#000000;stroke-width:0.9" d="m 236.25,219.375000 45,0" inkscape:connector-curvature="0" />
  <path style="fill:none;stroke:#000000;stroke-width:0.9" d="m -33.75,326.250000 45,0" inkscape:connector-curvature="0" />
  <path style="fill:none;stroke:#000000;stroke-width:0.9" d="m 236.25,326.250000 45,0" inkscape:connector-curvature="0" />
  <g id="guide-short0-0" >
    <rect x="0.000000" y="-22.500000" width="247.500000" height="22.500000" style="fill:#73baff;stroke:#000000;stroke-width:0.9" />
  </g>
  <g id="guide-long1-3" >
    <rect x="247.500000" y="118.125000" width="22.500000" height="219.375000" style="fill:#ffd291;stroke:#000000;stroke-width:0.9" />
    <rect x="247.500000" y="123.750000" width="22.500000" height="213.750000" style="fill:#b4e982;stroke:#000000;stroke-width:0.9" />
    <rect x="247.500000" y="225.000000" width="22.500000" height="112.500000" style="fill:#5adc4f;stroke:#000000;stroke-width:0.9" />
    <rect x="247.500000" y="151.875000" width="22.500000" height="61.875000" style="fill:#5adc4f;stroke:#000000;stroke-width:0.9" />
    <rect x="247.500000" y="0.000000" width="22.500000" height="118.125000" style="fill:#b9deff;stroke:#000000;stroke-width:0.9" />
    <rect x="247.500000" y="0.000000" width="22.500000" height="84.375000" style="fill:#9bceff;stroke:#000000;stroke-width:0.9" />
    <rect x="247.500000" y="0.000000" width="22.500000" height="50.625000" style="fill:#73baff;stroke:#000000;stroke-width:0.9" />
  </g>
  <g id="guide-short2-4" transform="matrix(-1,0,0,1,247.5,360)" >
    <rect x="0.000000" y="-22.500000" width="84.375000" height="22.500000" style="fill:#ffd291;stroke:#000000;stroke-width:0.9" />
    <rect x="0.000000" y="-22.500000" width="78.750000" height="22.500000" style="fill:#b4e982;stroke:#000000;stroke-width:0.9" />
    <rect x="0.000000" y="-22.500000" width="61.875000" height="22.500000" style="fill:#5adc4f;stroke:#000000;stroke-width:0.9" />
    <rect x="84.375000" y="-22.500000" width="163.125000" height="22.500000" style="fill:#b9deff;stroke:#000000;stroke-width:0.9" />
    <rect x="123.750000" y="-22.500000" width="123.750000" height="22.500000" style="fill:#9bceff;stroke:#000000;stroke-width:0.9" />
    <rect x="180.000000" y="-22.500000" width="67.500000" height="22.500000" style="fill:#73baff;stroke:#000000;stroke-width:0.9" />
  </g>
  <g id="guide-long3-0" transform="matrix(1,0,0,-1,-270,337.5)" >
    <rect x="247.500000" y="0.000000" width="22.500000" height="337.500000" style="fill:#73baff;stroke:#000000;stroke-width:0.9" />
  </g>
</g>
<g inkscape:groupmode="layer" id="cut_line_layer" inkscape:label="Cut Line" style="display:none" sodipodi:insensitive="true" >
  <rect style="fill:none;stroke:#000000;stroke-width:0.5;stroke-linecap:butt;stroke-linejoin:bevel;stroke-miterlimit:4;stroke-dasharray:none;stroke-opacity:1" width="225" height="315" x="11.25" y="11.25" ry="17.361111" />
</g>
<g inkscape:groupmode="layer" id="page_border_layer" inkscape:label="Page Border" style="display:none" sodipodi:insensitive="true" >
  <rect style="fill:none;stroke:#000000;stroke-width:0.5;stroke-linecap:butt;stroke-linejoin:bevel;stroke-miterlimit:4;stroke-dasharray:none;stroke-opacity:1" width="247.5" height="337.5" x="0" y="0" />
</g>

</svg>
