<?xml version="1.0" encoding="UTF-8" standalone="no"?>
<svg
   xmlns:dc="http://purl.org/dc/elements/1.1/"
   xmlns:cc="http://creativecommons.org/ns#"
   xmlns:rdf="http://www.w3.org/1999/02/22-rdf-syntax-ns#"
   xmlns:svg="http://www.w3.org/2000/svg"
   xmlns="http://www.w3.org/2000/svg"
   xmlns:xlink="http://www.w3.org/1999/xlink"
   xmlns:sodipodi="http://sodipodi.sourceforge.net/DTD/sodipodi-0.dtd"
   xmlns:inkscape="http://www.inkscape.org/namespaces/inkscape"
   version="1.1"
   height="337.5"
   width="247.5"
   id="svg2"
   inkscape:version="0.91 r13725"
   sodipodi:docname="hearts-2.svg">
  <metadata
     id="metadata4">
    <rdf:RDF>
      <cc:Work
         rdf:about="">
        <dc:format>image/svg+xml</dc:format>
        <dc:type
           rdf:resource="http://purl.org/dc/dcmitype/StillImage" />
        <dc:title />
        <dc:creator>
          <cc:Agent>
            <dc:title>Gary Kacmarcik</dc:title>
          </cc:Agent>
        </dc:creator>
      </cc:Work>
    </rdf:RDF>
  </metadata>
  <defs
     id="defs6">
    <filter
       inkscape:label="textureGrassBig"
       style="color-interpolation-filters:sRGB"
       id="textureGrassBig">
      <feTurbulence
         numOctaves="2"
         seed="0"
         type="turbulence"
         baseFrequency="0.070000"
         result="result1"
         id="feTurbulence9" />
      <feColorMatrix
         result="result0"
         in="SourceGraphic"
         type="luminanceToAlpha"
         id="feColorMatrix11" />
      <feColorMatrix
         result="result2"
         values="1 0 0 0 0 0 1 0 0 0 0 0 1 0 0 0 0 0 0.4 0 "
         id="feColorMatrix13" />
      <feComposite
         in="result2"
         operator="over"
         in2="result1"
         id="feComposite15" />
      <feColorMatrix
         result="result91"
         values="1 0 0 0 0 0 1 0 0 0 0 0 1 0 0 0 0 0 10 -4 "
         id="feColorMatrix17" />
      <feComposite
         operator="out"
         in="SourceGraphic"
         in2="result91"
         id="feComposite19" />
      <feGaussianBlur
         stdDeviation="2.500000"
         id="feGaussianBlur21" />
      <feColorMatrix
         values="1 0 0 0 0 0 1 0 0 0 0 0 1 0 0 0 0 0 1 0 "
         id="feColorMatrix23" />
    </filter>
    <filter
       inkscape:label="textureGrassSmall"
       style="color-interpolation-filters:sRGB"
       id="textureGrassSmall">
      <feTurbulence
         numOctaves="4"
         seed="0"
         type="turbulence"
         baseFrequency="0.500000"
         result="result1"
         id="feTurbulence26" />
      <feColorMatrix
         result="result0"
         in="SourceGraphic"
         type="luminanceToAlpha"
         id="feColorMatrix28" />
      <feColorMatrix
         result="result2"
         values="1 0 0 0 0 0 1 0 0 0 0 0 1 0 0 0 0 0 0.4 0 "
         id="feColorMatrix30" />
      <feComposite
         in="result2"
         operator="over"
         in2="result1"
         id="feComposite32" />
      <feColorMatrix
         result="result91"
         values="1 0 0 0 0 0 1 0 0 0 0 0 1 0 0 0 0 0 10 -4 "
         id="feColorMatrix34" />
      <feComposite
         operator="out"
         in="SourceGraphic"
         in2="result91"
         id="feComposite36" />
      <feGaussianBlur
         stdDeviation="1.000000"
         id="feGaussianBlur38" />
      <feColorMatrix
         values="1 0 0 0 0 0 1 0 0 0 0 0 1 0 0 0 0 0 1 0 "
         id="feColorMatrix40" />
    </filter>
    <filter
       inkscape:label="textureLand"
       style="color-interpolation-filters:sRGB"
       id="textureLand">
      <feTurbulence
         numOctaves="4"
         seed="0"
         type="turbulence"
         baseFrequency="0.500000"
         result="result1"
         id="feTurbulence43" />
      <feColorMatrix
         result="result0"
         in="SourceGraphic"
         type="luminanceToAlpha"
         id="feColorMatrix45" />
      <feColorMatrix
         result="result2"
         values="1 0 0 0 0 0 1 0 0 0 0 0 1 0 0 0 0 0 0.4 0 "
         id="feColorMatrix47" />
      <feComposite
         in="result2"
         operator="over"
         in2="result1"
         id="feComposite49" />
      <feColorMatrix
         result="result91"
         values="1 0 0 0 0 0 1 0 0 0 0 0 1 0 0 0 0 0 10 -4 "
         id="feColorMatrix51" />
      <feComposite
         operator="out"
         in="SourceGraphic"
         in2="result91"
         id="feComposite53" />
      <feGaussianBlur
         stdDeviation="0.800000"
         id="feGaussianBlur55" />
      <feColorMatrix
         values="1 0 0 0 0 0 1 0 0 0 0 0 1 0 0 0 0 0 1 0 "
         id="feColorMatrix57" />
    </filter>
    <filter
       inkscape:label="textureForestBig"
       style="color-interpolation-filters:sRGB"
       id="textureForestBig">
      <feTurbulence
         numOctaves="2"
         seed="4"
         type="turbulence"
         baseFrequency="0.300000"
         result="result1"
         id="feTurbulence60" />
      <feColorMatrix
         result="result0"
         in="SourceGraphic"
         type="luminanceToAlpha"
         id="feColorMatrix62" />
      <feColorMatrix
         result="result2"
         values="1 0 0 0 0 0 1 0 0 0 0 0 1 0 0 0 0 0 0.4 0 "
         id="feColorMatrix64" />
      <feComposite
         in="result2"
         operator="over"
         in2="result1"
         id="feComposite66" />
      <feColorMatrix
         result="result91"
         values="1 0 0 0 0 0 1 0 0 0 0 0 1 0 0 0 0 0 10 -4 "
         id="feColorMatrix68" />
      <feComposite
         operator="out"
         in="SourceGraphic"
         in2="result91"
         id="feComposite70" />
      <feGaussianBlur
         stdDeviation="2.000000"
         id="feGaussianBlur72" />
      <feColorMatrix
         values="1 0 0 0 0 0 1 0 0 0 0 0 1 0 0 0 0 0 1 0 "
         id="feColorMatrix74" />
    </filter>
    <filter
       inkscape:label="textureForestSmall"
       style="color-interpolation-filters:sRGB"
       id="textureForestSmall">
      <feTurbulence
         numOctaves="4"
         seed="4"
         type="turbulence"
         baseFrequency="0.350000"
         result="result1"
         id="feTurbulence77" />
      <feColorMatrix
         result="result0"
         in="SourceGraphic"
         type="luminanceToAlpha"
         id="feColorMatrix79" />
      <feColorMatrix
         result="result2"
         values="1 0 0 0 0 0 1 0 0 0 0 0 1 0 0 0 0 0 0.4 0 "
         id="feColorMatrix81" />
      <feComposite
         in="result2"
         operator="over"
         in2="result1"
         id="feComposite83" />
      <feColorMatrix
         result="result91"
         values="1 0 0 0 0 0 1 0 0 0 0 0 1 0 0 0 0 0 10 -4 "
         id="feColorMatrix85" />
      <feComposite
         operator="out"
         in="SourceGraphic"
         in2="result91"
         id="feComposite87" />
      <feGaussianBlur
         stdDeviation="1.000000"
         id="feGaussianBlur89" />
      <feColorMatrix
         values="1 0 0 0 0 0 1 0 0 0 0 0 1 0 0 0 0 0 1 0 "
         id="feColorMatrix91" />
    </filter>
    <filter
       inkscape:label="roughenShoreline"
       style="color-interpolation-filters:sRGB"
       id="roughenShoreline">
      <feTurbulence
         numOctaves="4"
         seed="0"
         type="turbulence"
         baseFrequency="0.050000"
         result="turb"
         id="feTurbulence94" />
      <feDisplacementMap
         scale="6.600000"
         yChannelSelector="G"
         xChannelSelector="R"
         in="SourceGraphic"
         in2="turb"
         id="feDisplacementMap96" />
    </filter>
    <filter
       inkscape:label="roughenForest"
       style="color-interpolation-filters:sRGB"
       id="roughenForest">
      <feTurbulence
         numOctaves="4"
         seed="4"
         type="fractalNoise"
         baseFrequency="0.150000 0.150000"
         result="turb"
         id="feTurbulence99" />
      <feDisplacementMap
         scale="6.600000"
         yChannelSelector="G"
         xChannelSelector="R"
         in="SourceGraphic"
         in2="turb"
         id="feDisplacementMap101" />
    </filter>
    <filter
       inkscape:collect="always"
       inkscape:label="blurSuitRankGlow"
       style="color-interpolation-filters:sRGB"
       id="blurSuitRankGlow"
       x="-0.029025"
       y="-0.020458"
       width="1.058049"
       height="1.040917">
      <feGaussianBlur
         inkscape:collect="always"
         stdDeviation="2.515067"
         id="feGaussianBlur104" />
    </filter>
    <filter
       inkscape:collect="always"
       inkscape:label="blurWaterDeep"
       style="color-interpolation-filters:sRGB"
       id="blurWaterDeep"
       x="-0.056691"
       y="-0.041620"
       width="1.113381"
       height="1.083239">
      <feGaussianBlur
         inkscape:collect="always"
         stdDeviation="6.919136"
         id="feGaussianBlur107" />
    </filter>
    <filter
       inkscape:collect="always"
       inkscape:label="blurWaterShallow"
       style="color-interpolation-filters:sRGB"
       id="blurWaterShallow"
       x="-0.055818"
       y="-0.042103"
       width="1.111637"
       height="1.084205">
      <feGaussianBlur
         inkscape:collect="always"
         stdDeviation="6.561501"
         id="feGaussianBlur110" />
    </filter>
    <filter
       inkscape:collect="always"
       inkscape:label="blurWaterHilight"
       style="color-interpolation-filters:sRGB"
       id="blurWaterHilight"
       x="-0.071178"
       y="-0.051856"
       width="1.142356"
       height="1.103712">
      <feGaussianBlur
         inkscape:collect="always"
         stdDeviation="6.857532"
         id="feGaussianBlur113" />
    </filter>
    <filter
       inkscape:collect="always"
       inkscape:label="blurGrass"
       style="color-interpolation-filters:sRGB"
       id="blurGrass"
       x="-0.032100"
       y="-0.019164"
       width="1.064201"
       height="1.038328">
      <feGaussianBlur
         inkscape:collect="always"
         stdDeviation="2.386213"
         id="feGaussianBlur116" />
    </filter>
    <filter
       inkscape:collect="always"
       inkscape:label="blurForestShadow"
       style="color-interpolation-filters:sRGB"
       id="blurForestShadow"
       x="-0.033576"
       y="-0.018674"
       width="1.067152"
       height="1.037348">
      <feGaussianBlur
         inkscape:collect="always"
         stdDeviation="2.199785"
         id="feGaussianBlur119" />
    </filter>
    <linearGradient
       id="gradientStopsFish"
       inkscape:collect="always">
      <stop
         offset="0.000000"
         style="stop-color:#ff5555;stop-opacity:1.000000"
         id="stop128" />
      <stop
         offset="1.000000"
         style="stop-color:#ffffff;stop-opacity:1.000000"
         id="stop130" />
    </linearGradient>
    <linearGradient
       id="gradientStopsCoconut"
       inkscape:collect="always">
      <stop
         offset="0.000000"
         style="stop-color:#ffffff;stop-opacity:1.000000"
         id="stop133" />
      <stop
         offset="1.000000"
         style="stop-color:#c8c8c8;stop-opacity:0.000000"
         id="stop135" />
    </linearGradient>
    <linearGradient
       id="gradientStopsFlower"
       inkscape:collect="always">
      <stop
         offset="0.000000"
         style="stop-color:#b16dff;stop-opacity:1.000000"
         id="stop138" />
      <stop
         offset="1.000000"
         style="stop-color:#e7d2ff;stop-opacity:1.000000"
         id="stop140" />
    </linearGradient>
    <linearGradient
       id="gradientStopsJellyfish"
       inkscape:collect="always">
      <stop
         offset="0.000000"
         style="stop-color:#4f97ff;stop-opacity:1.000000"
         id="stop143" />
      <stop
         offset="1.000000"
         style="stop-color:#cfe3ff;stop-opacity:1.000000"
         id="stop145" />
    </linearGradient>
    <linearGradient
       id="gradientStopsShip"
       inkscape:collect="always">
      <stop
         offset="0.000000"
         style="stop-color:#b67800;stop-opacity:1.000000"
         id="stop148" />
      <stop
         offset="1.000000"
         style="stop-color:#d28b00;stop-opacity:1.000000"
         id="stop150" />
    </linearGradient>
    <linearGradient
       id="gradientFish"
       xlink:href="#gradientStopsFish"
       x1="178.789090"
       y1="-114.782830"
       x2="180.407300"
       y2="-103.782830"
       gradientTransform="translate(-178.76256,1.0606602)"
       gradientUnits="userSpaceOnUse"
       inkscape:collect="always" />
    <linearGradient
       id="gradientJellyfishTentacle1a"
       xlink:href="#gradientStopsJellyfish"
       x1="118.024030"
       y1="-110.827530"
       x2="121.753140"
       y2="-96.140030"
       gradientTransform="translate(-120,0)"
       gradientUnits="userSpaceOnUse"
       inkscape:collect="always" />
    <linearGradient
       id="gradientJellyfishTentacle1b"
       xlink:href="#gradientStopsJellyfish"
       x1="118.024030"
       y1="-110.827530"
       x2="121.753140"
       y2="-96.140030"
       gradientTransform="translate(-120,0)"
       gradientUnits="userSpaceOnUse"
       inkscape:collect="always" />
    <linearGradient
       id="gradientJellyfishTentacle2"
       xlink:href="#gradientStopsJellyfish"
       x1="118.218180"
       y1="-115.782610"
       x2="121.698270"
       y2="-97.813858"
       gradientTransform="translate(-120,0)"
       gradientUnits="userSpaceOnUse"
       inkscape:collect="always" />
    <linearGradient
       id="gradientJellyfishTentacle3"
       xlink:href="#gradientStopsJellyfish"
       x1="123.335370"
       y1="-114.610190"
       x2="116.678600"
       y2="-98.453941"
       gradientTransform="translate(-120,0)"
       gradientUnits="userSpaceOnUse"
       inkscape:collect="always" />
    <linearGradient
       id="gradientShip"
       xlink:href="#gradientStopsShip"
       x1="196.432910"
       y1="221.715270"
       x2="203.663250"
       y2="204.277770"
       gradientTransform="matrix(0.37654483,0.9263984,-0.9263984,0.37654483,355.66788,-318.43897)"
       gradientUnits="userSpaceOnUse"
       inkscape:collect="always" />
    <radialGradient
       id="gradientCoconut"
       xlink:href="#gradientStopsCoconut"
       cx="1.944096"
       cy="-60.612652"
       fx="1.944096"
       fy="-60.612652"
       r="6.723294"
       gradientUnits="userSpaceOnUse"
       gradientTransform="matrix(1.691364,-0.31394812,0.29762395,1.603419,17.826033,-7.042221)"
       inkscape:collect="always" />
    <radialGradient
       id="gradientFlower"
       xlink:href="#gradientStopsFlower"
       cx="60.884877"
       cy="-69.652750"
       fx="60.884877"
       fy="-69.652750"
       r="15.835310"
       gradientUnits="userSpaceOnUse"
       gradientTransform="matrix(0.8413905,0,0,0.87120012,-50.722984,-48.679159)"
       inkscape:collect="always" />
    <radialGradient
       id="gradientJellyfish"
       xlink:href="#gradientStopsJellyfish"
       cx="120.453410"
       cy="-112.943900"
       fx="120.453410"
       fy="-112.943900"
       r="10.580511"
       gradientUnits="userSpaceOnUse"
       gradientTransform="matrix(1.1662998,0.0435575,-0.04526952,1.2121402,-145.14628,17.080499)"
       inkscape:collect="always" />
  </defs>
  <sodipodi:namedview
     id="base"
     pagecolor="#ffffff"
     bordercolor="#666666"
     borderopacity="1.0"
     inkscape:pageopacity="0.0"
     inkscape:pageshadow="2"
     inkscape:zoom="2"
     inkscape:cx="42.37643"
     inkscape:cy="165.04449"
     inkscape:document-units="in"
     showgrid="true"
     units="in"
     inkscape:window-width="1392"
     inkscape:window-height="836"
     inkscape:window-x="39"
     inkscape:window-y="6"
     inkscape:window-maximized="0"
     inkscape:snap-grids="true"
     inkscape:snap-to-guides="true"
     inkscape:snap-nodes="true"
     inkscape:object-nodes="true"
     inkscape:snap-smooth-nodes="true"
     inkscape:snap-intersection-paths="true"
     inkscape:object-paths="true"
     inkscape:snap-bbox="true"
     inkscape:bbox-nodes="true"
     inkscape:snap-others="true"
     inkscape:bbox-paths="false"
     inkscape:snap-global="false"
     inkscape:current-layer="resources_layer">
    <inkscape:grid
       type="xygrid"
       id="grid3051"
       empspacing="2"
       visible="true"
       enabled="true"
       snapvisiblegridlinesonly="true"
       spacingx="0.0625in"
       spacingy="0.0625in"
       dotted="false"
       units="in" />
  </sodipodi:namedview>
  <g
     inkscape:groupmode="layer"
     id="water_layer"
     inkscape:label="Water"
     style="display:inline"
     sodipodi:insensitive="true">
    <rect
       id="water"
       style="fill:#b9deff;fill-opacity:1;stroke:none"
       x="0"
       y="0"
       width="247.5"
       height="337.5" />
  </g>
  <g
     inkscape:groupmode="layer"
     id="water_shallow_layer"
     inkscape:label="Water Shallow"
     style="display:inline"
     sodipodi:insensitive="true">
    <path
       style="fill:#9bd1ff;fill-opacity:0.70;fill-rule:evenodd;stroke:none;filter:url(#blurWaterShallow)"
       d="m -11.25,-11.25 0,180 22.5,0 c 0,0 11.050004,-7.81888 16.875,-11.25 14.306822,-8.42719 28.230449,-18.52656 44.261039,-22.85355 11.237542,-3.03325 23.559285,-4.49757 34.874371,-1.76777 11.17619,2.6963 21.71835,9.144 29.86091,17.26041 5.76047,5.74197 8.38485,13.94503 12.27881,21.08578 3.96642,7.27364 5.76295,15.96744 11.28185,22.14645 7.21145,8.074 19.27778,10.41602 27.09619,17.90381 7.63533,7.31244 15.41685,15.60389 18.61092,25.68198 2.44415,7.71191 2.36506,16.63698 -0.3217,24.26776 -3.1127,8.8405 -11.85394,14.5359 -17.32412,22.14645 -3.84174,5.34494 -10.79676,9.90759 -10.86459,16.48959 -0.0659,6.39356 9.19311,9.9209 10.22119,16.2316 0.56034,3.43954 -2.47487,10.15749 -2.47487,10.15749 l 0,22.5 73.125,0 0,-360 z"
       inkscape:connector-curvature="0"
       id="path166" />
  </g>
  <g
     inkscape:groupmode="layer"
     id="water_deep_layer"
     inkscape:label="Water Deep"
     style="display:inline"
     sodipodi:insensitive="true">
    <path
       style="fill:#87c8ff;fill-opacity:0.60;fill-rule:evenodd;stroke:none;filter:url(#blurWaterDeep)"
       d="m -11.25,-11.25 0,112.5 22.5,0 c 0,0 24.985564,-9.070976 36.578427,-15.460786 10.61752,-5.852216 18.663957,-16.11561 29.860913,-20.764088 11.424677,-4.743017 24.15422,-7.109295 36.51472,-6.621951 15.51327,0.61165 31.57458,4.151465 45.03185,11.893398 12.94336,7.446278 23.42619,19.235546 31.66054,31.692387 8.2944,12.5477 13.17789,27.26998 16.875,41.84987 3.072,12.11474 1.3086,25.1048 4.24264,37.25368 2.17467,9.00461 7.20966,17.11089 9.80393,26.00368 2.40698,8.2508 4.15133,16.7157 5.3033,25.23287 1.51359,11.19084 3.03288,22.56045 2.08947,33.81371 -0.73343,8.74853 -2.96696,17.40361 -5.97856,25.65012 -2.57406,7.04843 -8.65684,12.71812 -10.22119,20.05698 C 212.00903,316.55062 213.75,326.25 213.75,326.25 l 0,22.5 45,0 0,-360 z"
       inkscape:connector-curvature="0"
       id="path169" />
  </g>
  <g
     inkscape:groupmode="layer"
     id="water_hilight_layer"
     inkscape:label="Water Hilight"
     style="display:inline"
     sodipodi:insensitive="true">
    <use
       xlink:href="#shoreline"
       height="100%"
       width="100%"
       x="0"
       y="0"
       style="display:inline;fill:#ffffff;fill-opacity:1;stroke:#ffffff;stroke-opacity:1;filter:url(#blurWaterHilight)"
       id="use172" />
  </g>
  <g
     inkscape:groupmode="layer"
     id="land_layer"
     inkscape:label="Land"
     style="display:inline"
     sodipodi:insensitive="true">
    <use
       xlink:href="#shoreline"
       height="100%"
       width="100%"
       x="0"
       y="0"
       style="display:inline;fill:#ffddab;fill-opacity:1;stroke:none;stroke-width:1;stroke-miterlimit:4;stroke-dasharray:none;stroke-opacity:1"
       id="use175" />
  </g>
  <g
     inkscape:groupmode="layer"
     id="land_texture_layer"
     inkscape:label="Land Texture"
     style="display:inline"
     sodipodi:insensitive="true">
    <use
       xlink:href="#shoreline"
       height="100%"
       width="100%"
       x="0"
       y="0"
       style="display:inline;fill:#ffca7d;fill-opacity:1;stroke:none;stroke-width:1;stroke-miterlimit:4;stroke-dasharray:none;stroke-opacity:1;filter:url(#textureLand)"
       id="use178" />
  </g>
  <g
     inkscape:groupmode="layer"
     id="shoreline_layer"
     inkscape:label="Shoreline"
     style="display:inline"
     sodipodi:insensitive="true">
    <use
       xlink:href="#shoreline"
       height="100%"
       width="100%"
       x="0"
       y="0"
       style="display:inline;fill:none;fill-opacity:1;stroke:#5f4c14;stroke-width:1;stroke-miterlimit:4;stroke-dasharray:none;stroke-opacity:1"
       id="use181" />
  </g>
  <g
     inkscape:groupmode="layer"
     id="shoreline_master_layer"
     inkscape:label="Shoreline Master"
     style="display:none"
     sodipodi:insensitive="true">
    <path
       id="shoreline"
       style="color:#000000;clip-rule:nonzero;display:inline;overflow:visible;visibility:visible;opacity:1;isolation:auto;mix-blend-mode:normal;color-interpolation:sRGB;color-interpolation-filters:linearRGB;solid-color:#000000;solid-opacity:1;fill-opacity:1;fill-rule:evenodd;filter:url(#roughenShoreline);color-rendering:auto;image-rendering:auto;shape-rendering:auto;text-rendering:auto;enable-background:accumulate"
       d="m 44.880783,201.31016 c -1.531915,1.87031 -2.167918,4.30646 -3.745864,6.14721 -0.64552,1.15803 -1.872199,1.92339 -3.204651,1.91849 -2.219389,0.37974 -4.480421,0.32263 -6.723237,0.30773 -6.341989,2.5295 -11.739933,7.16721 -18.472656,8.75586 -10.6821625,1.21857 -21.4398337,-0.42405 -32.134766,0.52539 -3.936721,1.23208 -6.3044,5.35739 -6.474127,9.32418 -2.915162,24.45085 -3.688728,49.13218 -2.87422,73.73349 0.603572,17.19889 2.175195,34.35817 4.579819,51.39722 0.157049,1.36425 0.238205,2.82195 1.203346,3.89533 2.61606,3.72941 7.208167,5.7286 11.693734,5.75535 33.19931,4.40295 66.760362,4.78564 100.198613,4.52107 23.257806,-0.32649 46.522756,-1.99328 69.506816,-5.63054 3.49965,-1.06155 5.50396,-4.62181 6.17723,-8.01505 1.17289,-5.31232 -0.30824,-10.68462 -0.71427,-15.99453 -0.67169,-5.86603 -1.37206,-11.79302 -3.31257,-17.40058 -2.30824,-3.64215 -7.12678,-4.94677 -8.89929,-9.01433 -1.55842,-3.4035 -2.0464,-7.14852 -2.87219,-10.76692 0.21431,-3.6961 2.37927,-6.84381 4.09079,-9.99768 3.32023,-4.81798 7.56503,-9.06321 9.92311,-14.49362 2.85202,-5.34976 5.76131,-10.94685 10.62472,-14.76683 2.32385,-1.97041 3.78461,-5.23615 2.85864,-8.25986 -0.83859,-4.09351 -4.12882,-7.17621 -7.66999,-9.10798 -2.70938,-1.6383 -5.41783,-3.66702 -6.69762,-6.66617 -3.14772,-5.37809 -7.28495,-10.28734 -12.46328,-13.80233 -3.31531,-1.89303 -7.59978,-1.50743 -10.74627,0.55681 -2.15863,1.16123 -4.41459,2.87202 -7.00994,2.4029 -2.97945,-0.6678 -4.9222,-3.22552 -7.1646,-5.08267 -2.75347,-2.54784 -5.7764,-4.78623 -8.88331,-6.8747 -3.46326,-2.88845 -5.96982,-7.06228 -10.30755,-8.79107 -4.45529,-1.99374 -8.945796,-4.49134 -13.949231,-4.57774 -3.996254,0.0527 -8.018666,1.90624 -11.981706,0.58992 -4.019598,-10.11003 -7.656479,-4.9904 -8.266025,-8.83402 -0.956396,-6.03073 -7.579154,-11.39896 -10.264205,-10.85895 -2.925731,0.58841 -4.423074,6.66165 -7.19347,10.43925 -2.770395,3.77759 -6.813842,5.25954 -8.83178,8.66537 z"
       inkscape:connector-curvature="0" />
  </g>
  <g
     inkscape:groupmode="layer"
     id="grass_layer"
     inkscape:label="Grass"
     style="display:inline"
     sodipodi:insensitive="true">
    <use
       xlink:href="#grass"
       height="100%"
       width="100%"
       x="0"
       y="0"
       style="display:inline;fill:#b4e982;fill-opacity:1;stroke:none;stroke-width:1;stroke-miterlimit:4;stroke-dasharray:none;stroke-opacity:1"
       id="use186" />
  </g>
  <g
     inkscape:groupmode="layer"
     id="grass_texture1_layer"
     inkscape:label="Grass Texture Big"
     style="display:inline"
     sodipodi:insensitive="true">
    <use
       xlink:href="#grass"
       height="100%"
       width="100%"
       x="0"
       y="0"
       style="display:inline;fill:#a7e46a;fill-opacity:1;stroke:none;stroke-width:1;stroke-miterlimit:4;stroke-dasharray:none;stroke-opacity:1;filter:url(#textureGrassBig)"
       id="use189" />
  </g>
  <g
     inkscape:groupmode="layer"
     id="grass_texture2_layer"
     inkscape:label="Grass Texture Small"
     style="display:inline"
     sodipodi:insensitive="true">
    <use
       xlink:href="#grass"
       height="100%"
       width="100%"
       x="0"
       y="0"
       style="display:inline;fill:#8cdd3d;fill-opacity:1;stroke:none;stroke-width:1;stroke-miterlimit:4;stroke-dasharray:none;stroke-opacity:1;filter:url(#textureGrassSmall)"
       id="use192" />
  </g>
  <g
     inkscape:groupmode="layer"
     id="grass_master_layer"
     inkscape:label="Grass Master"
     style="display:none"
     sodipodi:insensitive="true">
    <path
       id="grass"
       style="color:#000000;clip-rule:nonzero;display:inline;overflow:visible;visibility:visible;opacity:1;isolation:auto;mix-blend-mode:normal;color-interpolation:sRGB;color-interpolation-filters:linearRGB;solid-color:#000000;solid-opacity:1;fill-opacity:1;fill-rule:evenodd;filter:url(#blurGrass);color-rendering:auto;image-rendering:auto;shape-rendering:auto;text-rendering:auto;enable-background:accumulate"
       d="m 61.167893,205.65013 c -5.467364,1.36692 -10.477917,4.79127 -14.43198,8.80698 -3.716961,3.77491 -4.143374,10.13452 -8.06802,13.69302 -3.920526,3.55476 -9.301741,5.26674 -14.400126,6.68566 C 20.062792,236.00606 11.25,236.25 11.25,236.25 l -22.5,0 0,112.5 157.5,0 0,-22.5 c 0,0 1.71104,-6.02978 1.76777,-9.12868 0.11074,-6.04978 -2.965,-11.88721 -2.79658,-17.93566 0.13998,-5.02679 1.52736,-9.99396 3.15013,-14.75368 1.92843,-5.65623 6.82933,-10.26273 7.74632,-16.16789 0.65404,-4.21186 -0.32185,-8.65463 -1.76777,-12.66422 -2.57207,-7.13247 -5.94414,-14.73121 -11.9571,-19.34987 -3.88696,-2.98564 -9.79953,-1.85236 -14.07843,-4.24264 -4.9164,-2.7464 -7.90564,-8.15681 -12.63236,-11.21815 -6.48021,-4.19701 -13.88746,-6.80622 -21.11764,-9.51408 -4.926393,-1.84504 -9.927631,-3.64497 -15.107233,-4.56434 -6.012666,-1.06724 -12.364917,-2.54183 -18.289214,-1.06066 z"
       inkscape:connector-curvature="0" />
  </g>
  <g
     inkscape:groupmode="layer"
     id="forest_shadow_layer"
     inkscape:label="Forest Shadow"
     style="display:inline"
     sodipodi:insensitive="true">
    <g
       style="filter:url(#blurForestShadow)"
       id="g197">
      <use
         xlink:href="#forest"
         height="100%"
         width="100%"
         x="0"
         y="0"
         style="display:inline;opacity:0.75;fill:#258c1b;fill-opacity:1;filter:url(#roughenForest)"
         id="use199" />
    </g>
  </g>
  <g
     inkscape:groupmode="layer"
     id="forest_fill_layer"
     inkscape:label="Forest Fill"
     style="display:inline"
     sodipodi:insensitive="true">
    <use
       xlink:href="#forest"
       height="100%"
       width="100%"
       x="0"
       y="0"
       style="fill:#83d700;fill-opacity:1;stroke:none;stroke-width:1.5;stroke-miterlimit:4;stroke-dasharray:none;stroke-opacity:1;filter:url(#roughenForest)"
       id="use202" />
  </g>
  <g
     inkscape:groupmode="layer"
     id="forest_texture_big_layer"
     inkscape:label="Forest Texture Big"
     style="display:inline"
     sodipodi:insensitive="true">
    <g
       style="filter:url(#textureForestBig)"
       id="g205">
      <use
         xlink:href="#forest"
         height="100%"
         width="100%"
         x="0"
         y="0"
         style="fill:#548c00;fill-opacity:1;stroke:none;stroke-width:1.5;stroke-miterlimit:4;stroke-dasharray:none;stroke-opacity:1;filter:url(#roughenForest)"
         id="use207" />
    </g>
  </g>
  <g
     inkscape:groupmode="layer"
     id="forest_texture_small_layer"
     inkscape:label="Forest Texture Small"
     style="display:inline"
     sodipodi:insensitive="true">
    <g
       style="filter:url(#textureForestSmall)"
       id="g210">
      <use
         xlink:href="#forest"
         height="100%"
         width="100%"
         x="0"
         y="0"
         style="fill:#78c125;fill-opacity:1;stroke:none;stroke-width:1;stroke-miterlimit:4;stroke-dasharray:none;stroke-opacity:1;filter:url(#roughenForest)"
         id="use212" />
    </g>
  </g>
  <g
     inkscape:groupmode="layer"
     id="forest_outline_layer"
     inkscape:label="Forest Outline"
     style="display:inline"
     sodipodi:insensitive="true">
    <use
       xlink:href="#forest"
       height="100%"
       width="100%"
       x="0"
       y="0"
       style="fill:none;fill-opacity:1;stroke:#006800;stroke-width:1.5;stroke-miterlimit:4;stroke-dasharray:none;stroke-opacity:1;filter:url(#roughenForest)"
       id="use215" />
  </g>
  <g
     inkscape:groupmode="layer"
     id="forest_master_layer"
     inkscape:label="Forest Master"
     style="display:none"
     sodipodi:insensitive="true">
    <path
       id="forest"
       style="color:#000000;clip-rule:nonzero;display:inline;overflow:visible;visibility:visible;opacity:1;isolation:auto;mix-blend-mode:normal;color-interpolation:sRGB;color-interpolation-filters:linearRGB;solid-color:#000000;solid-opacity:1;fill-opacity:1;fill-rule:nonzero;color-rendering:auto;image-rendering:auto;shape-rendering:auto;text-rendering:auto;enable-background:accumulate"
       d="m 3.1816406,259.54102 c -1.1110396,0.002 -2.19320922,0.31864 -3.09374998,0.90429 -0.48755198,-0.13023 -0.99338264,-0.19666 -1.50195312,-0.19726 -2.9289103,2.8e-4 -5.3030163,2.13741 -5.3027344,4.77343 6.399e-4,2.27218 1.7809426,4.22897 4.2558594,4.67774 -0.4701759,0.72648 -0.7187957,1.55185 -0.7207031,2.39258 -2.131e-4,1.24769 0.5424313,2.44586 1.5117187,3.33789 -0.00339,0.0195 -0.00665,0.0391 -0.00977,0.0586 -0.9615244,0.88957 -1.5002546,2.08122 -1.5019531,3.32227 0.0011,0.9438 0.3130696,1.86613 0.8964844,2.65039 -0.5838248,0.78481 -0.8958165,1.70787 -0.8964844,2.65234 0.00224,1.68599 0.9926476,3.24584 2.60546872,4.10352 0.0363168,0.0744 0.0747408,0.14803 0.11523438,0.2207 -1.6773306,0.84169 -2.7180195,2.43372 -2.7207031,4.16211 0.00249,1.50514 0.7936904,2.92104 2.1347656,3.82031 -0.9153243,0.88193 -1.4254644,2.04318 -1.4277344,3.25 0.00147,1.18268 0.4907694,2.32274 1.3730469,3.19922 -1.0981051,0.90276 -1.7245476,2.17903 -1.7265625,3.51758 0.0016,0.54253 0.1059571,1.08084 0.3085938,1.5918 -0.2023931,0.51034 -0.3067492,1.04797 -0.3085938,1.58984 5.073e-4,0.12386 0.00637,0.24765 0.017578,0.37109 -0.010293,0.11241 -0.016156,0.22511 -0.017578,0.33789 0.00249,1.50514 0.7936873,2.92105 2.13476562,3.82032 -0.91532432,0.88193 -1.42546442,2.04318 -1.42773442,3.25 0.00117,1.42327 0.7080313,2.77181 1.92773442,3.67773 -1.00703672,0.89631 -1.57387992,2.1179 -1.57421872,3.39258 l 0.00195,0.0254 c -1.7394155,0.82531 -2.8286739,2.44905 -2.8300781,4.21875 0.00209,0.87317 0.2702873,1.7291 0.7753906,2.47461 -0.5051033,0.74551 -0.7732983,1.60144 -0.7753906,2.47461 -2.88e-4,2.63602 2.3738197,4.77316 5.30273435,4.77344 0.32306875,-8.8e-4 0.64537225,-0.0283 0.96289065,-0.082 0.9151135,1.57086 2.7226107,2.55547 4.6933593,2.55665 1.8011805,-0.002 3.4781829,-0.8264 4.4531243,-2.18946 0.281346,0.0434 0.566126,0.0663 0.851563,0.0684 1.206329,-0.001 2.376146,-0.37256 3.316406,-1.05273 0.365578,0.40211 0.801653,0.7478 1.291016,1.02343 -0.0055,0.0683 -0.0094,0.13665 -0.01172,0.20508 -2.88e-4,2.63602 2.37382,4.77316 5.302734,4.77344 1.312537,-0.002 2.577692,-0.44164 3.550782,-1.23438 0.455455,0.11377 0.925767,0.17223 1.398437,0.17383 2.929673,6.9e-4 5.30497,-2.13672 5.304688,-4.77343 -0.0016,-0.14024 -0.01008,-0.28036 -0.02539,-0.41993 0.477236,-0.73003 0.730026,-1.5612 0.732422,-2.4082 -0.0023,-0.54056 -0.106685,-1.07683 -0.308594,-1.58594 0.433081,-0.70499 0.660857,-1.49717 0.662109,-2.30273 -7.2e-4,-0.42026 -0.06311,-0.83859 -0.185546,-1.24414 0.12112,-0.40114 0.183496,-0.81479 0.185546,-1.23047 -0.0022,-0.54263 -0.107244,-1.08095 -0.310546,-1.5918 0.2033,-0.51085 0.308321,-1.04916 0.310546,-1.59179 -9.86e-4,-0.12584 -0.0075,-0.25159 -0.01953,-0.37696 0.244506,-0.55525 0.371045,-1.14687 0.373047,-1.74414 -0.0012,-1.94187 -1.309395,-3.68953 -3.308594,-4.41992 0.985286,-0.89259 1.539115,-2.09922 1.541016,-3.35742 -0.0015,-2.2358 -1.727331,-4.17102 -4.152344,-4.65625 0.627664,-0.53071 1.102276,-1.19102 1.382813,-1.92383 0.215054,0.025 0.431606,0.038 0.648437,0.0391 2.928915,-2.8e-4 5.303023,-2.13742 5.302735,-4.77344 2.82e-4,-2.63602 -2.373824,-4.77315 -5.302735,-4.77343 -2.057082,0.003 -3.926686,1.07633 -4.796875,2.7539 -0.124467,-0.13203 -0.256824,-0.25787 -0.396484,-0.37695 1.474537,-0.88397 2.361207,-2.37226 2.363281,-3.9668 -8.22e-4,-1.55807 -0.846565,-3.0177 -2.265625,-3.91015 -0.440667,-1.69909 -1.876334,-3.04639 -3.744141,-3.51367 l 0,-0.002 c -9.14e-4,-2.63526 -2.37467,-4.7712 -5.302734,-4.77148 -0.193236,0.002 -0.386233,0.0127 -0.578125,0.0332 0.603297,-0.79061 0.92795,-1.72646 0.931641,-2.68555 -0.0013,-1.25887 -0.555202,-2.4663 -1.541016,-3.35937 0.985286,-0.89259 1.539115,-2.09922 1.541016,-3.35742 -0.0015,-0.29565 -0.03356,-0.59054 -0.0957,-0.88086 0.06255,-0.29224 0.09459,-0.58911 0.0957,-0.88672 -9.2e-4,-1.89766 -1.250834,-3.61456 -3.183594,-4.37305 7.52e-4,-0.0156 0.0014,-0.0313 0.002,-0.0469 -0.0022,-0.3591 -0.04932,-0.71683 -0.140625,-1.06641 2.842932,-0.10307 5.088936,-2.20687 5.089844,-4.76758 2.82e-4,-2.63602 -2.373824,-4.77315 -5.302735,-4.77343 -0.728953,0.002 -1.449682,0.1387 -2.1171866,0.40234 -0.670519,-0.26483 -1.3947092,-0.40182 -2.1269531,-0.40234 -0.7963121,0.002 -1.5820245,0.16439 -2.2988282,0.47656 -0.7162099,-0.31191 -1.5012225,-0.47479 -2.296875,-0.47656 z m 12.9550784,39.72656 c 0.265677,0.79756 0.758555,1.5187 1.429687,2.0918 -1.474534,0.88397 -2.361204,2.37225 -2.363281,3.96679 0.0023,0.52251 0.09999,1.04113 0.289063,1.53516 -0.332424,0.11032 -0.651728,0.25034 -0.953126,0.41797 -0.506455,-0.83463 -1.278387,-1.51407 -2.216796,-1.95118 1.757647,-0.81305 2.867194,-2.43823 2.878906,-4.21679 0.45492,-0.54721 0.773962,-1.17597 0.935547,-1.84375 z m 107.960941,0.57812 c -2.92968,-6.9e-4 -5.30498,2.13673 -5.30469,4.77344 0.002,0.82179 0.24059,1.6291 0.69141,2.34375 -0.22914,-0.0285 -0.4601,-0.0435 -0.69141,-0.0449 -2.92892,2.8e-4 -5.30303,2.13741 -5.30274,4.77344 0.001,0.0743 0.005,0.14851 0.01,0.22265 -1.93582,0.75635 -3.18914,2.47372 -3.19141,4.37305 0.002,0.4928 0.0892,0.98233 0.25782,1.45117 -0.84853,0.86965 -1.31705,1.98716 -1.31836,3.14453 0.001,1.21092 0.51358,2.37619 1.43359,3.25977 -0.24199,0.37296 -0.42662,0.77375 -0.54883,1.1914 -0.6095,-2.09949 -2.71588,-3.56472 -5.12695,-3.5664 -0.045,10e-4 -0.0899,0.003 -0.13477,0.006 0.7714,-0.85032 1.19355,-1.91397 1.19532,-3.01172 -0.002,-1.52799 -0.81665,-2.96278 -2.19141,-3.85938 0.0352,-0.20107 0.0561,-0.40395 0.0625,-0.60742 2.63326,-0.31547 4.60092,-2.33573 4.60352,-4.72656 -7.9e-4,-0.59211 -0.12398,-1.17892 -0.36329,-1.73047 0.69226,-0.82549 1.06788,-1.83101 1.07032,-2.86523 2.9e-4,-2.63603 -2.37382,-4.77316 -5.30274,-4.77344 -2.92968,-6.9e-4 -5.304973,2.13673 -5.304685,4.77344 2.44e-4,0.59342 0.123444,1.1816 0.363281,1.73437 -0.660355,0.79039 -1.031625,1.74587 -1.0625,2.73438 -2.632438,0.31538 -4.599828,2.33452 -4.603515,4.72461 9.61e-4,0.0919 0.0049,0.18371 0.01172,0.27539 -2.472537,0.44921 -4.251382,2.40365 -4.253906,4.67382 0.0026,1.31786 0.610516,2.57611 1.679688,3.47657 -0.173765,0.47532 -0.263402,0.97227 -0.265625,1.47265 0.0015,0.87301 0.269019,1.72892 0.773437,2.47461 -0.0416,0.23387 -0.06379,0.4702 -0.06641,0.70703 6.66e-4,0.94447 0.312657,1.86753 0.896484,2.65235 -0.583825,0.78481 -0.895816,1.70787 -0.896484,2.65234 0.0023,0.67298 0.162716,1.33792 0.470703,1.95117 -0.980126,0.89258 -1.530237,2.09665 -1.53125,3.35157 -2.82e-4,2.63602 2.373824,4.77315 5.302734,4.77343 1.780085,-0.001 3.440864,-0.80574 4.421875,-2.14257 0.946803,0.69867 2.133053,1.08097 3.357423,1.08203 2.92892,-2.8e-4 5.30303,-2.13741 5.30274,-4.77344 -0.001,-0.0749 -0.005,-0.14982 -0.01,-0.22461 0.69356,-0.0831 1.362,-0.28885 1.9668,-0.60547 0.98899,0.86985 2.31638,1.35764 3.69922,1.35938 1.33298,-8.1e-4 2.61673,-0.45337 3.5957,-1.26758 0.0391,0.24805 0.0998,0.49295 0.18164,0.73242 -0.15986,0.4596 -0.24152,0.93833 -0.24219,1.41992 -2.9e-4,2.63671 2.37501,4.77413 5.30469,4.77344 2.92891,-2.8e-4 5.30302,-2.13742 5.30273,-4.77344 -0.002,-0.47701 -0.0838,-0.95103 -0.24218,-1.40625 0.16008,-0.46022 0.24173,-0.93962 0.24218,-1.42187 -0.002,-0.54263 -0.10724,-1.08094 -0.31054,-1.5918 0.20306,-0.51024 0.30807,-1.04787 0.31054,-1.58984 -0.002,-0.35642 -0.0487,-0.7115 -0.13867,-1.0586 0.0903,-0.34837 0.13683,-0.70478 0.13867,-1.0625 -0.002,-0.54263 -0.10724,-1.08094 -0.31054,-1.59179 0.2033,-0.51086 0.30832,-1.04917 0.31054,-1.5918 -0.002,-0.35576 -0.0488,-0.71018 -0.13867,-1.05664 0.0905,-0.34901 0.137,-0.70608 0.13867,-1.06446 -0.002,-1.77964 -1.10447,-3.41034 -2.85937,-4.23046 1.69735,-0.41458 3.05591,-1.55953 3.62695,-3.05664 0.21441,0.0249 0.43031,0.0379 0.64649,0.0391 2.92807,-2.8e-4 5.30182,-2.13623 5.30273,-4.77149 2.8e-4,-2.63602 -2.37382,-4.77315 -5.30273,-4.77343 -0.75204,0.002 -1.49504,0.14767 -2.17969,0.42773 -0.0326,-0.0369 -0.0658,-0.0734 -0.0996,-0.10937 1.21898,-0.90626 1.92509,-2.25476 1.92578,-3.67774 2.9e-4,-2.63602 -2.37382,-4.77316 -5.30273,-4.77344 z M 72.125,309.74609 c -2.250584,0.003 -4.254144,1.28364 -4.998047,3.19532 -0.101395,-0.007 -0.203,-0.0118 -0.304687,-0.0137 -2.399367,0.003 -4.497889,1.45476 -5.117188,3.54102 -1.209975,0.0358 -2.369914,0.44314 -3.287109,1.1543 -0.715062,-1.956 -2.743306,-3.27877 -5.03125,-3.28125 -2.928911,2.8e-4 -5.303017,2.13741 -5.302735,4.77343 2.05e-4,0.42426 0.06326,0.8466 0.1875,1.25586 -1.134236,0.83299 -1.835433,2.0509 -1.9375,3.36524 -0.243572,0.55476 -0.369443,1.14569 -0.371093,1.74219 -2.99e-4,0.42148 0.06144,0.84115 0.183593,1.24804 -0.120086,0.39995 -0.181802,0.81227 -0.183593,1.22656 3.4e-5,0.60681 0.128632,1.20804 0.378906,1.77149 -0.249461,0.56162 -0.378045,1.16079 -0.378906,1.76562 0.0012,0.3036 0.03453,0.6064 0.09961,0.9043 -0.298457,0.60589 -0.45344,1.26107 -0.455078,1.92383 7.21e-4,0.42026 0.06311,0.83859 0.185547,1.24414 -0.580804,0.78299 -0.891352,1.70309 -0.892578,2.64453 -2.88e-4,2.63671 2.37501,4.77413 5.304687,4.77344 2.77383,-0.003 5.076894,-1.92844 5.283203,-4.41797 0.997565,1.2196 2.57903,1.94075 4.261719,1.94336 2.057791,-0.002 3.928343,-1.07576 4.798828,-2.75391 0.400677,0.20549 0.829424,0.36307 1.275391,0.46875 -0.03954,0.22944 -0.06043,0.46118 -0.0625,0.69336 -2.88e-4,2.63602 2.37382,4.77316 5.302734,4.77344 0.537481,-0.002 1.071578,-0.0766 1.583985,-0.22266 0.516779,0.14727 1.05559,0.22236 1.597656,0.22266 2.928914,-2.8e-4 5.303022,-2.13742 5.302734,-4.77344 -2.35e-4,-1.08252 -0.409332,-2.13281 -1.160156,-2.97851 0.0655,-0.29982 0.09885,-0.6046 0.09961,-0.91016 -0.0016,-0.47692 -0.08254,-0.95093 -0.240234,-1.40625 0.159415,-0.46032 0.240413,-0.93971 0.240234,-1.42187 -9.46e-4,-0.94296 -0.312216,-1.86454 -0.894531,-2.64844 0.12272,-0.40421 0.185762,-0.82121 0.1875,-1.24024 -0.0017,-0.66997 -0.160066,-1.33211 -0.464844,-1.94336 0.305373,-0.61244 0.463769,-1.27598 0.464844,-1.94726 -0.002,-0.17235 -0.0144,-0.34448 -0.03711,-0.51563 0.02391,-0.18085 0.0363,-0.36279 0.03711,-0.54492 -0.002,-2.00871 -1.401093,-3.80134 -3.5,-4.48437 1.91105,-0.76567 3.14346,-2.47085 3.146484,-4.35352 2.88e-4,-2.63602 -2.37382,-4.77316 -5.302734,-4.77344 z m -65.5410156,3.54297 c 0.090119,0.0659 0.1826166,0.12906 0.2773437,0.18946 0.010932,0.047 0.022652,0.0939 0.035156,0.14062 -0.159312,-0.0572 -0.3216121,-0.10737 -0.4863282,-0.15039 0.059595,-0.0586 0.1175558,-0.1185 0.1738285,-0.17969 z m 14.3476566,1.54102 c -0.04599,0.2479 -0.07016,0.49868 -0.07227,0.75 0.0018,1.94274 1.311768,3.69064 3.3125,4.41992 -0.527352,0.47868 -0.936062,1.05247 -1.199219,1.68359 -0.498527,-0.7798 -1.231787,-1.41692 -2.115234,-1.83789 l 0.002,-0.0234 c -0.0046,-1.53455 -0.828745,-2.97352 -2.214844,-3.86719 0.854483,-0.19793 1.640594,-0.58461 2.28711,-1.125 z m 99.070309,4.13086 c 0.16513,0.17954 0.34464,0.34796 0.53711,0.5039 -0.27459,-0.0677 -0.55479,-0.11537 -0.83789,-0.14257 0.10654,-0.11611 0.20691,-0.23668 0.30078,-0.36133 z m -97.443356,8.04101 c 0.0083,0.0229 0.01674,0.0457 0.02539,0.0684 -0.04268,0.10681 -0.08112,0.21495 -0.115234,0.32422 -0.05112,-0.0439 -0.103218,-0.0869 -0.15625,-0.12891 0.08553,-0.0852 0.167613,-0.17314 0.246094,-0.26367 z m 80.015626,4.25782 c -0.0276,0.19369 -0.0419,0.38871 -0.043,0.58398 7.4e-4,0.0743 0.003,0.14851 0.008,0.22266 -0.2466,0.0282 -0.49069,0.0719 -0.73047,0.13086 -0.0251,-0.3017 -0.082,-0.60057 -0.16992,-0.89258 0.0618,0.004 0.12365,0.006 0.18555,0.008 0.25107,-0.002 0.5017,-0.0192 0.75,-0.0527 z"
       inkscape:connector-curvature="0" />
  </g>
  <g
     inkscape:groupmode="layer"
     id="routes_layer"
     inkscape:label="Routes"
     style="display:inline"
     sodipodi:insensitive="true">
    <path
       style="display:inline;fill:none;stroke:#000000;stroke-width:2;stroke-linecap:round;stroke-miterlimit:4;stroke-dasharray:0.1, 5;stroke-dashoffset:0;stroke-opacity:1"
       d="m 247.5,168.75 c -5.625,0 -9.08045,-0.33517 -11.25,0 -22.88541,3.53553 -72.95538,2.97442 -90,-3 C 105.29609,151.39499 106.33894,126.4593 71.77756,115.93576 58.359992,111.85027 28.54226,118.125 11.25,118.125 l -16.8749997,0 M 247.5,168.75 l -16.87501,0 c -12.00585,0 -36.55412,-7.57434 -42.95709,-34.96079 C 179.41498,98.490242 165.82631,88.813556 142.40685,73.568019 131.62932,66.55209 122.75173,35.883959 123.48223,24.944544 123.6919,21.804758 123.75,15 123.75,11.25 l 0,-11.25 m -39.375,337.5 0,-11.25 c 0,-20.12069 9.806367,-25.3812 11.419787,-33.73528 1.2349,-6.39415 -1.04508,-19.93765 -4.58499,-35.66411"
       inkscape:connector-curvature="0"
       id="path220" />
  </g>
  <g
     inkscape:groupmode="layer"
     id="labels_layer"
     inkscape:label="Labels"
     style="display:inline"
     sodipodi:insensitive="true">
    <text
       xml:space="preserve"
       id="text223"><textPath
         xlink:href="#data_point"
         id="textPath225"><tspan
   style="-inkscape-font-specification:'CCTreasureTroveAged, Normal';font-family:CCTreasureTroveAged;font-weight:normal;font-style:normal;font-stretch:normal;font-variant:normal;font-size:8.75px;text-anchor:start;text-align:start;writing-mode:lr;line-height:125%"
   id="tspan227">Data Point</tspan></textPath></text>
  </g>
  <g
     inkscape:groupmode="layer"
     id="labels_guide_layer"
     inkscape:label="Labels Guide"
     style="display:none"
     sodipodi:insensitive="true">
    <path
       id="data_point"
       style="color:#000000;fill:none;stroke:#000000;stroke-width:1;stroke-opacity:1"
       d="m 190.46514,248.06373 c -4.10051,-8.0533 -27.56865,-33.26282 -37.75494,-40.45521"
       inkscape:connector-curvature="0" />
  </g>
  <g
     inkscape:groupmode="layer"
     id="resources_layer"
     inkscape:label="Resources"
     style="display:inline">
    <g
       id="resource-coconut"
       transform="matrix(0.93035781,-0.3666529,0.3666529,0.93035781,131.95177,350.48904)">
      <path
         style="color:#000000;clip-rule:nonzero;display:inline;overflow:visible;visibility:visible;opacity:1;isolation:auto;mix-blend-mode:normal;color-interpolation:sRGB;color-interpolation-filters:linearRGB;solid-color:#000000;solid-opacity:1;fill:#bc8434;fill-opacity:1;fill-rule:evenodd;stroke:#000000;stroke-width:0.89999998;stroke-linecap:round;stroke-linejoin:miter;stroke-miterlimit:4;stroke-dasharray:none;stroke-dashoffset:0;stroke-opacity:1;color-rendering:auto;image-rendering:auto;shape-rendering:auto;text-rendering:auto;enable-background:accumulate"
         d="m -4.5080282,-122.99352 c -6.3850178,2.15964 -8.5771578,9.38405 -8.0814268,14.88876 0.55563,6.16983 5.2811628,10.95294 12.64199276,8.10608 3.04329704,-1.17702 6.04119804,-6.34196 6.22442604,-11.57628 0.09818,-2.80474 -0.29778,-5.51103 -1.639173,-7.82455 -1.102579,-1.90162 -3.478014,-3.784 -6.173654,-4.24214 -1.590991,0.97227 -2.972165,0.64813 -2.972165,0.64813 z"
         inkscape:connector-curvature="0"
         id="path233" />
      <ellipse
         cx="-120.42445"
         cy="-1.1047291"
         rx="0.540407"
         ry="0.75130099"
         style="color:#000000;clip-rule:nonzero;display:inline;overflow:visible;visibility:visible;opacity:1;isolation:auto;mix-blend-mode:normal;color-interpolation:sRGB;color-interpolation-filters:linearRGB;solid-color:#000000;solid-opacity:1;fill:#000000;fill-opacity:1;fill-rule:nonzero;stroke:none;stroke-width:0.89999998;stroke-linecap:butt;stroke-linejoin:round;stroke-miterlimit:4;stroke-dasharray:none;stroke-dashoffset:0;stroke-opacity:1;color-rendering:auto;image-rendering:auto;shape-rendering:auto;text-rendering:auto;enable-background:accumulate"
         transform="matrix(0.04286687,0.99908079,-0.99908079,0.04286687,0,0)"
         id="ellipse235" />
      <ellipse
         cx="-113.37407"
         cy="-41.165329"
         rx="0.53094602"
         ry="0.66291302"
         style="color:#000000;clip-rule:nonzero;display:inline;overflow:visible;visibility:visible;opacity:1;isolation:auto;mix-blend-mode:normal;color-interpolation:sRGB;color-interpolation-filters:linearRGB;solid-color:#000000;solid-opacity:1;fill:#000000;fill-opacity:1;fill-rule:nonzero;stroke:none;stroke-width:0.89999998;stroke-linecap:butt;stroke-linejoin:round;stroke-miterlimit:4;stroke-dasharray:none;stroke-dashoffset:0;stroke-opacity:1;color-rendering:auto;image-rendering:auto;shape-rendering:auto;text-rendering:auto;enable-background:accumulate"
         transform="matrix(0.35065914,0.93650316,-0.93650316,0.35065914,0,0)"
         id="ellipse237" />
      <ellipse
         cx="-115.40491"
         cy="28.144659"
         rx="0.75130099"
         ry="0.578731"
         style="color:#000000;clip-rule:nonzero;display:inline;overflow:visible;visibility:visible;opacity:1;isolation:auto;mix-blend-mode:normal;color-interpolation:sRGB;color-interpolation-filters:linearRGB;solid-color:#000000;solid-opacity:1;fill:#000000;fill-opacity:1;fill-rule:nonzero;stroke:none;stroke-width:0.89999998;stroke-linecap:butt;stroke-linejoin:round;stroke-miterlimit:4;stroke-dasharray:none;stroke-dashoffset:0;stroke-opacity:1;color-rendering:auto;image-rendering:auto;shape-rendering:auto;text-rendering:auto;enable-background:accumulate"
         transform="matrix(-0.21617976,0.97635358,-0.97635358,-0.21617976,0,0)"
         id="ellipse239" />
      <path
         style="color:#000000;clip-rule:nonzero;display:inline;overflow:visible;visibility:visible;opacity:1;isolation:auto;mix-blend-mode:normal;color-interpolation:sRGB;color-interpolation-filters:linearRGB;solid-color:#000000;solid-opacity:1;fill:#bc8434;fill-opacity:1;fill-rule:evenodd;stroke:#000000;stroke-width:0.89999998;stroke-linecap:round;stroke-linejoin:miter;stroke-miterlimit:4;stroke-dasharray:none;stroke-dashoffset:0;stroke-opacity:1;color-rendering:auto;image-rendering:auto;shape-rendering:auto;text-rendering:auto;enable-background:accumulate"
         d="m 12.470061,-104.40917 c -1.053625,2.46314 -2.7571896,5.66371 -5.3992166,6.959878 -1.8348159,0.900154 -4.8858287,1.355265 -7.29203855,0.574524 -1.47973495,-0.480128 -3.26695685,-2.153861 -3.88908725,-3.579732 -0.9764548,-2.23794 -1.1678327,-4.60408 -0.6812181,-6.72953 0.2499469,-1.09173 1.186875,-3.22454 1.8151019,-4.00521"
         inkscape:connector-curvature="0"
         id="path241" />
      <path
         style="color:#000000;clip-rule:nonzero;display:inline;overflow:visible;visibility:visible;opacity:1;isolation:auto;mix-blend-mode:normal;color-interpolation:sRGB;color-interpolation-filters:linearRGB;solid-color:#000000;solid-opacity:1;fill:#ffffff;fill-opacity:1;fill-rule:evenodd;stroke:#000000;stroke-width:0.89999998;stroke-linecap:round;stroke-linejoin:miter;stroke-miterlimit:4;stroke-dasharray:none;stroke-dashoffset:0;stroke-opacity:1;color-rendering:auto;image-rendering:auto;shape-rendering:auto;text-rendering:auto;enable-background:accumulate"
         d="m -4.1031709,-106.48916 c 0.1858925,1.26956 0.9057567,2.15876 1.8143573,3.06473 0.7258639,0.72377 1.43443306,1.23318 2.38813597,1.53034 0.21168639,0.36954 0.58409309,0.82966 0.71913043,1.00496 0.6211732,0.30789 1.2701423,0.41934 1.7697881,0.53351 1.2859005,0.29381 3.2051814,0.30928 4.487449,0 1.4766975,-0.35618 2.9730411,-1.01232 4.0560481,-2.07749 0.799348,-0.78619 1.474351,-1.85192 1.582847,-2.96784 0.19684,-2.02457 0.0097,-3.62122 -1.250374,-5.21803 -0.765762,-0.24844 -1.101356,-0.47744 -2.0001007,-0.72008 -0.7209049,-0.88161 -1.2999824,-1.55958 -2.1970327,-2.39292 -1.8286746,-0.73618 -4.3613695,-0.80559 -6.0281383,-0.27571 -1.72586214,0.54868 -3.34971,1.59922 -4.0200406,2.49515 -1.4298123,1.911 -1.5302056,3.6019 -1.3220696,5.02338 z"
         inkscape:connector-curvature="0"
         id="path243" />
      <path
         style="color:#000000;clip-rule:nonzero;display:inline;overflow:visible;visibility:visible;opacity:1;isolation:auto;mix-blend-mode:normal;color-interpolation:sRGB;color-interpolation-filters:linearRGB;solid-color:#000000;solid-opacity:1;fill:url(#gradientCoconut);fill-opacity:1;fill-rule:evenodd;stroke:#000000;stroke-width:0.72000003;stroke-linecap:round;stroke-linejoin:miter;stroke-miterlimit:4;stroke-dasharray:none;stroke-dashoffset:0;stroke-opacity:1;color-rendering:auto;image-rendering:auto;shape-rendering:auto;text-rendering:auto;enable-background:accumulate"
         d="m 2.5689019,-111.79765 c -1.95421257,0.27864 -3.6605132,1.67502 -3.9378089,3.55663 -0.3092039,2.09813 0.69763676,3.67395 3.1778133,4.47933 0.373786,0.49838 0.6109957,0.84189 0.7612596,1.05028 0.5701086,0.18629 1.6940872,0.30376 2.4051006,0.28378 1.4220267,-0.04 2.5622123,-0.49712 3.5524385,-1.12498 1.980452,-1.2557 2.103312,-3.22456 0.954264,-5.56685 -0.6629126,-0.17678 -1.1503302,-0.34475 -1.6846877,-0.51996 -0.4611538,-0.48593 -0.8524209,-0.92577 -1.6101047,-1.76382 -1.1960277,-0.5413 -2.2986558,-0.51727 -3.6182747,-0.39441 z"
         inkscape:connector-curvature="0"
         id="path245" />
    </g>
  </g>
  <g
     inkscape:groupmode="layer"
     id="extras_layer"
     inkscape:label="Extras"
     style="display:inline"
     sodipodi:insensitive="true">
    <g
       id="extra-ship"
       transform="matrix(0.4444171,-0.89581998,0.89581998,0.4444171,266.30938,417.60566)">
      <path
         style="color:#000000;fill:url(#gradientShip);fill-opacity:1;fill-rule:evenodd;stroke:#000000;stroke-width:0.75;stroke-linecap:butt;stroke-linejoin:round;stroke-miterlimit:4;stroke-dasharray:none;stroke-dashoffset:0;stroke-opacity:1;marker:none;enable-background:accumulate"
         d="m 243.2364,-52.722824 c -3.10208,-2.937202 -8.72518,-3.346714 -12.49116,-3.032742 -2.95307,0.246202 -6.62512,1.070872 -6.62512,1.070872 l -0.0121,3.725952 c 0,0 2.43298,0.582421 6.39007,0.932887 3.66202,0.324334 9.61676,-0.283241 12.73834,-2.696969 z"
         inkscape:connector-curvature="0"
         id="path249" />
      <path
         style="color:#000000;opacity:1;isolation:auto;mix-blend-mode:normal;color-interpolation:sRGB;color-interpolation-filters:linearRGB;solid-color:#000000;solid-opacity:1;fill:#000000;fill-opacity:1;fill-rule:evenodd;stroke:none;stroke-width:0.75;stroke-linecap:round;stroke-linejoin:round;stroke-miterlimit:4;stroke-dasharray:none;stroke-dashoffset:0;stroke-opacity:1;marker:none;color-rendering:auto;image-rendering:auto;shape-rendering:auto;text-rendering:auto;enable-background:accumulate"
         d="m 243.05273,-53.089844 c -0.50461,-0.01007 -0.51271,0.749303 -0.008,0.75 l 2.80546,-0.143551 c 0.50461,0.01007 0.51856,-0.385922 0.0138,-0.386619 z"
         inkscape:connector-curvature="0"
         id="path251" />
      <circle
         cx="37.651787"
         cy="-233.087830"
         r="0.695206"
         style="color:#000000;opacity:1;isolation:auto;mix-blend-mode:normal;color-interpolation:sRGB;color-interpolation-filters:linearRGB;solid-color:#000000;solid-opacity:1;fill:#a66e00;fill-opacity:1;fill-rule:nonzero;stroke:#000000;stroke-width:0.5;stroke-linecap:butt;stroke-linejoin:miter;stroke-miterlimit:4;stroke-dasharray:none;stroke-dashoffset:0;stroke-opacity:1;color-rendering:auto;image-rendering:auto;shape-rendering:auto;text-rendering:auto;enable-background:accumulate"
         transform="matrix(0.37654483,0.9263984,-0.9263984,0.37654483,0,0)"
         id="circle253" />
      <circle
         cx="39.995537"
         cy="-238.712830"
         r="0.695206"
         style="color:#000000;opacity:1;isolation:auto;mix-blend-mode:normal;color-interpolation:sRGB;color-interpolation-filters:linearRGB;solid-color:#000000;solid-opacity:1;fill:#a66e00;fill-opacity:1;fill-rule:nonzero;stroke:#000000;stroke-width:0.5;stroke-linecap:butt;stroke-linejoin:miter;stroke-miterlimit:4;stroke-dasharray:none;stroke-dashoffset:0;stroke-opacity:1;color-rendering:auto;image-rendering:auto;shape-rendering:auto;text-rendering:auto;enable-background:accumulate"
         transform="matrix(0.37654483,0.9263984,-0.9263984,0.37654483,0,0)"
         id="circle255" />
      <path
         style="color:#000000;fill:#feffff;fill-opacity:1;fill-rule:evenodd;stroke:#000000;stroke-width:0.5;stroke-linecap:butt;stroke-linejoin:round;stroke-miterlimit:4;stroke-dasharray:none;stroke-dashoffset:0;stroke-opacity:1;marker:none;enable-background:accumulate"
         d="m 230.8139,-58.168744 -0.0696,11.095953 c 0,0 1.11273,-0.901569 1.17305,-2.014949 0.0592,-1.093696 -0.80015,-1.762231 -0.80015,-1.762231 0,0 1.00218,-0.841738 0.9922,-1.921676 -0.0106,-1.140901 -0.9468,-1.722391 -0.9468,-1.722391 0,0 0.80027,-0.5343 0.83406,-1.646805 0.0349,-1.150244 -1.18274,-2.027894 -1.18274,-2.027894 z"
         inkscape:connector-curvature="0"
         id="path257" />
      <path
         style="color:#000000;fill:#feffff;fill-opacity:1;fill-rule:evenodd;stroke:#000000;stroke-width:0.5;stroke-linecap:butt;stroke-linejoin:round;stroke-miterlimit:4;stroke-dasharray:none;stroke-dashoffset:0;stroke-opacity:1;marker:none;enable-background:accumulate"
         d="m 236.95087,-57.97366 -0.0645,10.282469 c 0,0 1.03677,-0.785137 1.09267,-1.816887 0.0549,-1.013517 -0.74706,-1.683399 -0.74706,-1.683399 0,0 0.85887,-0.76153 0.84962,-1.762298 -0.01,-1.057255 -0.80754,-1.614603 -0.80754,-1.614603 0,0 0.84013,-0.540128 0.87144,-1.571079 0.0324,-1.065902 -1.19455,-1.834218 -1.19455,-1.834218 z"
         inkscape:connector-curvature="0"
         id="path259" />
      <path
         style="fill:#000000;stroke:none"
         d="m 239.16963,-53.312319 -0.0111,0.999645 1.00145,0.01039 0.009,-1.000718 z"
         inkscape:connector-curvature="0"
         id="path261" />
      <path
         style="fill:#6a4600;stroke:none"
         d="m 233.00825,-53.641515 -0.0131,1.52646 1.52369,0.01423 0.0142,-1.523703 z"
         inkscape:connector-curvature="0"
         id="path263" />
      <path
         style="fill:none;stroke:#000000;stroke-width:0.6;stroke-linecap:butt"
         d="m 227.26126,-55.055042 -0.0734,4.514141"
         inkscape:connector-curvature="0"
         id="path265" />
      <path
         style="fill:#000000;stroke:none"
         d="m 223.83649,-54.026834 -0.0111,0.999636 1.00072,0.0086 0.009,-0.998911 z"
         inkscape:connector-curvature="0"
         id="path267" />
      <path
         style="fill:#000000;stroke:none"
         d="m 223.85032,-52.581947 -0.0111,0.999637 1.00072,0.0086 0.009,-0.998912 z"
         inkscape:connector-curvature="0"
         id="path269" />
      <path
         style="fill:none;stroke:#000000;stroke-width:0.5;stroke-linecap:butt;stroke-linejoin:round;stroke-miterlimit:4"
         d="m 227.2539,-51.578825 1.14997,0.173504 -0.0116,1.05042"
         inkscape:connector-curvature="0"
         id="path271" />
      <path
         style="fill:none;stroke:#000000;stroke-width:0.5;stroke-linecap:butt;stroke-linejoin:round;stroke-miterlimit:4"
         d="m 227.25705,-54.143799 1.1481,-0.163064 0.0224,-1.189753"
         inkscape:connector-curvature="0"
         id="path273" />
    </g>
  </g>
  <g
     inkscape:groupmode="layer"
     id="suit_rank_glow_layer"
     inkscape:label="Suit Rank Glow"
     style="display:inline"
     sodipodi:insensitive="true">
    <g
       style="opacity:0.75;filter:url(#blurSuitRankGlow)"
       id="g276">
      <path
         style="fill:#ffffff;fill-opacity:1;stroke:none"
         d="m 25.651888,21.229764 c -0.59548,0.0193 -1.29762,0.13183 -2.02125,0.35875 -2.41293,0.84879 -3.90505,3.64994 -3.9025,5.87125 -0.16472,6.86829 6.59266,13.21158 11.69,17.01 0.003,0.0146 0.006,0.0291 0.009,0.0438 0.008,-0.006 0.0181,-0.0114 0.0262,-0.0175 0.008,0.006 0.0181,0.0114 0.0262,0.0175 0.003,-0.0147 0.006,-0.0291 0.009,-0.0438 5.09734,-3.79842 11.85472,-10.14171 11.69,-17.01 0.003,-2.22131 -1.48957,-5.02246 -3.9025,-5.87125 -0.72363,-0.22692 -1.42577,-0.33949 -2.02125,-0.35875 -2.54992,-0.0825 -5.0297,1.40516 -5.80125,3.00125 -0.77155,-1.59609 -3.25133,-3.08374 -5.80125,-3.00125 z"
         inkscape:connector-curvature="0"
         id="path278" />
      <path
         style="fill:#ffffff;fill-opacity:1;stroke:none"
         d="m 221.7648,316.27029 c 0.59548,-0.0193 1.29762,-0.13183 2.02125,-0.35875 2.41293,-0.84879 3.90505,-3.64994 3.9025,-5.87125 0.16472,-6.86829 -6.59266,-13.21158 -11.69,-17.01 -0.003,-0.0146 -0.006,-0.0291 -0.009,-0.0438 -0.008,0.006 -0.0181,0.0114 -0.0262,0.0175 -0.008,-0.006 -0.0181,-0.0114 -0.0262,-0.0175 -0.003,0.0147 -0.006,0.0291 -0.009,0.0438 -5.09734,3.79842 -11.85472,10.14171 -11.69,17.01 -0.003,2.22131 1.48957,5.02246 3.9025,5.87125 0.72363,0.22692 1.42577,0.33949 2.02125,0.35875 2.54992,0.0825 5.0297,-1.40516 5.80125,-3.00125 0.77155,1.59609 3.25133,3.08374 5.80125,3.00125 z"
         inkscape:connector-curvature="0"
         id="path280" />
      <path
         style="fill:#ffffff;fill-opacity:1;stroke:none"
         d="m 41.053328,82.975025 -19.19999,0 0,-3.2 c -10e-6,-2 0.39999,-3.84 1.19999,-5.52 0.8,-1.7066 1.84,-3.1466 3.12,-4.32 0.74666,-0.6666 1.37333,-1.2 1.88,-1.6 0.50666,-0.4266 0.98666,-0.7866 1.44001,-1.08 0.45332,-0.32 0.90665,-0.6133 1.36,-0.88 0.47998,-0.2933 1.05332,-0.6533 1.72,-1.08 0.82665,-0.5333 1.57331,-0.9866 2.23999,-1.36 0.66666,-0.3733 1.21332,-0.76 1.64001,-1.16 0.45331,-0.4266 0.79998,-0.9066 1.04,-1.44 0.23998,-0.56 0.35998,-1.28 0.36,-2.16 -2e-5,-0.88 -0.17336,-1.64 -0.52,-2.28 -0.32002,-0.6666 -0.77335,-1.2133 -1.36,-1.64 -0.58669,-0.4266 -1.26669,-0.7466 -2.04001,-0.96 -0.77334,-0.2133 -1.60001,-0.32 -2.47999,-0.32 -0.88002,0 -1.70668,0.1334 -2.48,0.4 -0.77335,0.24 -1.45335,0.5867 -2.04001,1.04 -0.58667,0.4534 -1.05333,1 -1.4,1.64 -0.32,0.64 -0.48,1.3467 -0.48,2.12 l 0,0.4 -3.19999,0.04 0,-0.44 c -10e-6,-1.2266 0.25333,-2.3466 0.76,-3.36 0.50666,-1.04 1.18666,-1.9333 2.03999,-2.68 0.88,-0.7466 1.89333,-1.32 3.04001,-1.72 1.17332,-0.4266 2.42665,-0.64 3.76,-0.64 1.30665,0 2.54665,0.2 3.71999,0.6 1.17332,0.3734 2.18665,0.92 3.04001,1.64 0.87998,0.72 1.57331,1.6 2.07999,2.64 0.50665,1.04 0.75998,2.2134 0.76,3.52 -2e-5,1.6 -0.34668,3.0267 -1.03999,4.28 -0.69336,1.2267 -1.65336,2.2134 -2.88,2.96 -0.93335,0.56 -1.76002,1.04 -2.48001,1.44 -0.69334,0.4 -1.37334,0.8134 -2.03999,1.24 -0.64002,0.4 -1.29335,0.8534 -1.96001,1.36 -0.64,0.5067 -1.36,1.1467 -2.15999,1.92 -0.34668,0.32 -0.72001,0.7334 -1.12,1.24 -0.37335,0.5067 -0.73334,1.08 -1.08001,1.72 -0.32,0.64 -0.58667,1.3333 -0.79999,2.08 -0.21334,0.7467 -0.32001,1.5333 -0.32001,2.36 l 12.68001,0 0,-4 1.6,0 1.59999,0 0,7.2"
         inkscape:connector-curvature="0"
         id="path282" />
      <path
         style="fill:#ffffff;fill-opacity:1;stroke:none"
         d="m 206.36335,254.52503 19.19999,0 0,3.2 c 1e-5,2 -0.39999,3.84 -1.19999,5.52 -0.8,1.7066 -1.84,3.1466 -3.12,4.32 -0.74666,0.6666 -1.37333,1.2 -1.88,1.6 -0.50666,0.4266 -0.98666,0.7866 -1.44001,1.08 -0.45332,0.32 -0.90665,0.6133 -1.36,0.88 -0.47998,0.2933 -1.05332,0.6533 -1.72,1.08 -0.82665,0.5333 -1.57331,0.9866 -2.23999,1.36 -0.66666,0.3733 -1.21332,0.76 -1.64001,1.16 -0.45331,0.4266 -0.79998,0.9066 -1.04,1.44 -0.23998,0.56 -0.35998,1.28 -0.36,2.16 2e-5,0.88 0.17336,1.64 0.52,2.28 0.32002,0.6666 0.77335,1.2133 1.36,1.64 0.58669,0.4266 1.26669,0.7466 2.04001,0.96 0.77334,0.2133 1.60001,0.32 2.47999,0.32 0.88002,0 1.70668,-0.1334 2.48,-0.4 0.77335,-0.24 1.45335,-0.5867 2.04001,-1.04 0.58667,-0.4534 1.05333,-1 1.4,-1.64 0.32,-0.64 0.48,-1.3467 0.48,-2.12 l 0,-0.4 3.19999,-0.04 0,0.44 c 1e-5,1.2266 -0.25333,2.3466 -0.76,3.36 -0.50666,1.04 -1.18666,1.9333 -2.03999,2.68 -0.88,0.7466 -1.89333,1.32 -3.04001,1.72 -1.17332,0.4266 -2.42665,0.64 -3.76,0.64 -1.30665,0 -2.54665,-0.2 -3.71999,-0.6 -1.17332,-0.3734 -2.18665,-0.92 -3.04001,-1.64 -0.87998,-0.72 -1.57331,-1.6 -2.07999,-2.64 -0.50665,-1.04 -0.75998,-2.2134 -0.76,-3.52 2e-5,-1.6 0.34668,-3.0267 1.03999,-4.28 0.69336,-1.2267 1.65336,-2.2134 2.88,-2.96 0.93335,-0.56 1.76002,-1.04 2.48001,-1.44 0.69334,-0.4 1.37334,-0.8134 2.03999,-1.24 0.64002,-0.4 1.29335,-0.8534 1.96001,-1.36 0.64,-0.5067 1.36,-1.1467 2.15999,-1.92 0.34668,-0.32 0.72001,-0.7334 1.12,-1.24 0.37335,-0.5067 0.73334,-1.08 1.08001,-1.72 0.32,-0.64 0.58667,-1.3333 0.79999,-2.08 0.21334,-0.7467 0.32001,-1.5333 0.32001,-2.36 l -12.68001,0 0,4 -1.6,0 -1.59999,0 0,-7.2"
         inkscape:connector-curvature="0"
         id="path284" />
    </g>
  </g>
  <g
     inkscape:groupmode="layer"
     id="suit_rank_layer"
     inkscape:label="Suit Rank"
     style="display:inline"
     sodipodi:insensitive="true">
    <path
       style="fill:#de0000;fill-opacity:1;stroke:none"
       d="m 25.651888,21.229764 c -0.59548,0.0193 -1.29762,0.13183 -2.02125,0.35875 -2.41293,0.84879 -3.90505,3.64994 -3.9025,5.87125 -0.16472,6.86829 6.59266,13.21158 11.69,17.01 0.003,0.0146 0.006,0.0291 0.009,0.0438 0.008,-0.006 0.0181,-0.0114 0.0262,-0.0175 0.008,0.006 0.0181,0.0114 0.0262,0.0175 0.003,-0.0147 0.006,-0.0291 0.009,-0.0438 5.09734,-3.79842 11.85472,-10.14171 11.69,-17.01 0.003,-2.22131 -1.48957,-5.02246 -3.9025,-5.87125 -0.72363,-0.22692 -1.42577,-0.33949 -2.02125,-0.35875 -2.54992,-0.0825 -5.0297,1.40516 -5.80125,3.00125 -0.77155,-1.59609 -3.25133,-3.08374 -5.80125,-3.00125 z"
       inkscape:connector-curvature="0"
       id="path287" />
    <path
       style="fill:#de0000;fill-opacity:1;stroke:none"
       d="m 221.7648,316.27029 c 0.59548,-0.0193 1.29762,-0.13183 2.02125,-0.35875 2.41293,-0.84879 3.90505,-3.64994 3.9025,-5.87125 0.16472,-6.86829 -6.59266,-13.21158 -11.69,-17.01 -0.003,-0.0146 -0.006,-0.0291 -0.009,-0.0438 -0.008,0.006 -0.0181,0.0114 -0.0262,0.0175 -0.008,-0.006 -0.0181,-0.0114 -0.0262,-0.0175 -0.003,0.0147 -0.006,0.0291 -0.009,0.0438 -5.09734,3.79842 -11.85472,10.14171 -11.69,17.01 -0.003,2.22131 1.48957,5.02246 3.9025,5.87125 0.72363,0.22692 1.42577,0.33949 2.02125,0.35875 2.54992,0.0825 5.0297,-1.40516 5.80125,-3.00125 0.77155,1.59609 3.25133,3.08374 5.80125,3.00125 z"
       inkscape:connector-curvature="0"
       id="path289" />
    <path
       style="fill:#de0000;fill-opacity:1;stroke:none"
       d="m 41.053328,82.975025 -19.19999,0 0,-3.2 c -10e-6,-2 0.39999,-3.84 1.19999,-5.52 0.8,-1.7066 1.84,-3.1466 3.12,-4.32 0.74666,-0.6666 1.37333,-1.2 1.88,-1.6 0.50666,-0.4266 0.98666,-0.7866 1.44001,-1.08 0.45332,-0.32 0.90665,-0.6133 1.36,-0.88 0.47998,-0.2933 1.05332,-0.6533 1.72,-1.08 0.82665,-0.5333 1.57331,-0.9866 2.23999,-1.36 0.66666,-0.3733 1.21332,-0.76 1.64001,-1.16 0.45331,-0.4266 0.79998,-0.9066 1.04,-1.44 0.23998,-0.56 0.35998,-1.28 0.36,-2.16 -2e-5,-0.88 -0.17336,-1.64 -0.52,-2.28 -0.32002,-0.6666 -0.77335,-1.2133 -1.36,-1.64 -0.58669,-0.4266 -1.26669,-0.7466 -2.04001,-0.96 -0.77334,-0.2133 -1.60001,-0.32 -2.47999,-0.32 -0.88002,0 -1.70668,0.1334 -2.48,0.4 -0.77335,0.24 -1.45335,0.5867 -2.04001,1.04 -0.58667,0.4534 -1.05333,1 -1.4,1.64 -0.32,0.64 -0.48,1.3467 -0.48,2.12 l 0,0.4 -3.19999,0.04 0,-0.44 c -10e-6,-1.2266 0.25333,-2.3466 0.76,-3.36 0.50666,-1.04 1.18666,-1.9333 2.03999,-2.68 0.88,-0.7466 1.89333,-1.32 3.04001,-1.72 1.17332,-0.4266 2.42665,-0.64 3.76,-0.64 1.30665,0 2.54665,0.2 3.71999,0.6 1.17332,0.3734 2.18665,0.92 3.04001,1.64 0.87998,0.72 1.57331,1.6 2.07999,2.64 0.50665,1.04 0.75998,2.2134 0.76,3.52 -2e-5,1.6 -0.34668,3.0267 -1.03999,4.28 -0.69336,1.2267 -1.65336,2.2134 -2.88,2.96 -0.93335,0.56 -1.76002,1.04 -2.48001,1.44 -0.69334,0.4 -1.37334,0.8134 -2.03999,1.24 -0.64002,0.4 -1.29335,0.8534 -1.96001,1.36 -0.64,0.5067 -1.36,1.1467 -2.15999,1.92 -0.34668,0.32 -0.72001,0.7334 -1.12,1.24 -0.37335,0.5067 -0.73334,1.08 -1.08001,1.72 -0.32,0.64 -0.58667,1.3333 -0.79999,2.08 -0.21334,0.7467 -0.32001,1.5333 -0.32001,2.36 l 12.68001,0 0,-4 1.6,0 1.59999,0 0,7.2"
       inkscape:connector-curvature="0"
       id="path291" />
    <path
       style="fill:#de0000;fill-opacity:1;stroke:none"
       d="m 206.36335,254.52503 19.19999,0 0,3.2 c 1e-5,2 -0.39999,3.84 -1.19999,5.52 -0.8,1.7066 -1.84,3.1466 -3.12,4.32 -0.74666,0.6666 -1.37333,1.2 -1.88,1.6 -0.50666,0.4266 -0.98666,0.7866 -1.44001,1.08 -0.45332,0.32 -0.90665,0.6133 -1.36,0.88 -0.47998,0.2933 -1.05332,0.6533 -1.72,1.08 -0.82665,0.5333 -1.57331,0.9866 -2.23999,1.36 -0.66666,0.3733 -1.21332,0.76 -1.64001,1.16 -0.45331,0.4266 -0.79998,0.9066 -1.04,1.44 -0.23998,0.56 -0.35998,1.28 -0.36,2.16 2e-5,0.88 0.17336,1.64 0.52,2.28 0.32002,0.6666 0.77335,1.2133 1.36,1.64 0.58669,0.4266 1.26669,0.7466 2.04001,0.96 0.77334,0.2133 1.60001,0.32 2.47999,0.32 0.88002,0 1.70668,-0.1334 2.48,-0.4 0.77335,-0.24 1.45335,-0.5867 2.04001,-1.04 0.58667,-0.4534 1.05333,-1 1.4,-1.64 0.32,-0.64 0.48,-1.3467 0.48,-2.12 l 0,-0.4 3.19999,-0.04 0,0.44 c 1e-5,1.2266 -0.25333,2.3466 -0.76,3.36 -0.50666,1.04 -1.18666,1.9333 -2.03999,2.68 -0.88,0.7466 -1.89333,1.32 -3.04001,1.72 -1.17332,0.4266 -2.42665,0.64 -3.76,0.64 -1.30665,0 -2.54665,-0.2 -3.71999,-0.6 -1.17332,-0.3734 -2.18665,-0.92 -3.04001,-1.64 -0.87998,-0.72 -1.57331,-1.6 -2.07999,-2.64 -0.50665,-1.04 -0.75998,-2.2134 -0.76,-3.52 2e-5,-1.6 0.34668,-3.0267 1.03999,-4.28 0.69336,-1.2267 1.65336,-2.2134 2.88,-2.96 0.93335,-0.56 1.76002,-1.04 2.48001,-1.44 0.69334,-0.4 1.37334,-0.8134 2.03999,-1.24 0.64002,-0.4 1.29335,-0.8534 1.96001,-1.36 0.64,-0.5067 1.36,-1.1467 2.15999,-1.92 0.34668,-0.32 0.72001,-0.7334 1.12,-1.24 0.37335,-0.5067 0.73334,-1.08 1.08001,-1.72 0.32,-0.64 0.58667,-1.3333 0.79999,-2.08 0.21334,-0.7467 0.32001,-1.5333 0.32001,-2.36 l -12.68001,0 0,4 -1.6,0 -1.59999,0 0,-7.2"
       inkscape:connector-curvature="0"
       id="path293" />
  </g>
  <g
     inkscape:groupmode="layer"
     id="guides_layer"
     inkscape:label="Guides"
     style="display:none"
     sodipodi:insensitive="true">
    <path
       style="fill:none;stroke:#000000;stroke-width:0.9"
       d="m 11.250000,11.25 0,-45"
       inkscape:connector-curvature="0"
       id="path296" />
    <path
       style="fill:none;stroke:#000000;stroke-width:0.9"
       d="m 11.250000,371.25 0,-45"
       inkscape:connector-curvature="0"
       id="path298" />
    <path
       style="fill:none;stroke:#000000;stroke-width:0.9"
       d="m 84.375000,11.25 0,-45"
       inkscape:connector-curvature="0"
       id="path300" />
    <path
       style="fill:none;stroke:#000000;stroke-width:0.9"
       d="m 84.375000,371.25 0,-45"
       inkscape:connector-curvature="0"
       id="path302" />
    <path
       style="fill:none;stroke:#000000;stroke-width:0.9"
       d="m 123.750000,11.25 0,-45"
       inkscape:connector-curvature="0"
       id="path304" />
    <path
       style="fill:none;stroke:#000000;stroke-width:0.9"
       d="m 123.750000,371.25 0,-45"
       inkscape:connector-curvature="0"
       id="path306" />
    <path
       style="fill:none;stroke:#000000;stroke-width:0.9"
       d="m 163.125000,11.25 0,-45"
       inkscape:connector-curvature="0"
       id="path308" />
    <path
       style="fill:none;stroke:#000000;stroke-width:0.9"
       d="m 163.125000,371.25 0,-45"
       inkscape:connector-curvature="0"
       id="path310" />
    <path
       style="fill:none;stroke:#000000;stroke-width:0.9"
       d="m 236.250000,11.25 0,-45"
       inkscape:connector-curvature="0"
       id="path312" />
    <path
       style="fill:none;stroke:#000000;stroke-width:0.9"
       d="m 236.250000,371.25 0,-45"
       inkscape:connector-curvature="0"
       id="path314" />
    <path
       style="fill:none;stroke:#000000;stroke-width:0.9"
       d="m -33.75,11.250000 45,0"
       inkscape:connector-curvature="0"
       id="path316" />
    <path
       style="fill:none;stroke:#000000;stroke-width:0.9"
       d="m 236.25,11.250000 45,0"
       inkscape:connector-curvature="0"
       id="path318" />
    <path
       style="fill:none;stroke:#000000;stroke-width:0.9"
       d="m -33.75,118.125000 45,0"
       inkscape:connector-curvature="0"
       id="path320" />
    <path
       style="fill:none;stroke:#000000;stroke-width:0.9"
       d="m 236.25,118.125000 45,0"
       inkscape:connector-curvature="0"
       id="path322" />
    <path
       style="fill:none;stroke:#000000;stroke-width:0.9"
       d="m -33.75,168.750000 45,0"
       inkscape:connector-curvature="0"
       id="path324" />
    <path
       style="fill:none;stroke:#000000;stroke-width:0.9"
       d="m 236.25,168.750000 45,0"
       inkscape:connector-curvature="0"
       id="path326" />
    <path
       style="fill:none;stroke:#000000;stroke-width:0.9"
       d="m -33.75,219.375000 45,0"
       inkscape:connector-curvature="0"
       id="path328" />
    <path
       style="fill:none;stroke:#000000;stroke-width:0.9"
       d="m 236.25,219.375000 45,0"
       inkscape:connector-curvature="0"
       id="path330" />
    <path
       style="fill:none;stroke:#000000;stroke-width:0.9"
       d="m -33.75,326.250000 45,0"
       inkscape:connector-curvature="0"
       id="path332" />
    <path
       style="fill:none;stroke:#000000;stroke-width:0.9"
       d="m 236.25,326.250000 45,0"
       inkscape:connector-curvature="0"
       id="path334" />
    <g
       id="guide-short0-0">
      <rect
         x="0.000000"
         y="-22.500000"
         width="247.500000"
         height="22.500000"
         style="fill:#73baff;stroke:#000000;stroke-width:0.9"
         id="rect337" />
    </g>
    <g
       id="guide-long1-0">
      <rect
         x="247.500000"
         y="0.000000"
         width="22.500000"
         height="337.500000"
         style="fill:#73baff;stroke:#000000;stroke-width:0.9"
         id="rect340" />
    </g>
    <g
       id="guide-short2-3"
       transform="matrix(-1,0,0,1,247.5,360)">
      <rect
         x="84.375000"
         y="-22.500000"
         width="163.125000"
         height="22.500000"
         style="fill:#ffd291;stroke:#000000;stroke-width:0.9"
         id="rect343" />
      <rect
         x="101.250000"
         y="-22.500000"
         width="146.250000"
         height="22.500000"
         style="fill:#b4e982;stroke:#000000;stroke-width:0.9"
         id="rect345" />
      <rect
         x="213.750000"
         y="-22.500000"
         width="33.750000"
         height="22.500000"
         style="fill:#5adc4f;stroke:#000000;stroke-width:0.9"
         id="rect347" />
      <rect
         x="168.750000"
         y="-22.500000"
         width="33.750000"
         height="22.500000"
         style="fill:#5adc4f;stroke:#000000;stroke-width:0.9"
         id="rect349" />
      <rect
         x="118.125000"
         y="-22.500000"
         width="39.375000"
         height="22.500000"
         style="fill:#5adc4f;stroke:#000000;stroke-width:0.9"
         id="rect351" />
      <rect
         x="0.000000"
         y="-22.500000"
         width="84.375000"
         height="22.500000"
         style="fill:#b9deff;stroke:#000000;stroke-width:0.9"
         id="rect353" />
      <rect
         x="0.000000"
         y="-22.500000"
         width="61.875000"
         height="22.500000"
         style="fill:#9bceff;stroke:#000000;stroke-width:0.9"
         id="rect355" />
      <rect
         x="0.000000"
         y="-22.500000"
         width="33.750000"
         height="22.500000"
         style="fill:#73baff;stroke:#000000;stroke-width:0.9"
         id="rect357" />
    </g>
    <g
       id="guide-long3-4"
       transform="matrix(1,0,0,-1,-270,337.5)">
      <rect
         x="247.500000"
         y="0.000000"
         width="22.500000"
         height="118.125000"
         style="fill:#ffd291;stroke:#000000;stroke-width:0.9"
         id="rect360" />
      <rect
         x="247.500000"
         y="0.000000"
         width="22.500000"
         height="101.250000"
         style="fill:#b4e982;stroke:#000000;stroke-width:0.9"
         id="rect362" />
      <rect
         x="247.500000"
         y="0.000000"
         width="22.500000"
         height="78.750000"
         style="fill:#5adc4f;stroke:#000000;stroke-width:0.9"
         id="rect364" />
      <rect
         x="247.500000"
         y="118.125000"
         width="22.500000"
         height="219.375000"
         style="fill:#b9deff;stroke:#000000;stroke-width:0.9"
         id="rect366" />
      <rect
         x="247.500000"
         y="168.750000"
         width="22.500000"
         height="168.750000"
         style="fill:#9bceff;stroke:#000000;stroke-width:0.9"
         id="rect368" />
      <rect
         x="247.500000"
         y="236.250000"
         width="22.500000"
         height="101.250000"
         style="fill:#73baff;stroke:#000000;stroke-width:0.9"
         id="rect370" />
    </g>
  </g>
  <g
     inkscape:groupmode="layer"
     id="cut_line_layer"
     inkscape:label="Cut Line"
     style="display:none"
     sodipodi:insensitive="true">
    <rect
       style="fill:none;stroke:#000000;stroke-width:0.5;stroke-linecap:butt;stroke-linejoin:bevel;stroke-miterlimit:4;stroke-dasharray:none;stroke-opacity:1"
       width="225"
       height="315"
       x="11.25"
       y="11.25"
       ry="17.361111"
       id="rect373" />
  </g>
  <g
     inkscape:groupmode="layer"
     id="page_border_layer"
     inkscape:label="Page Border"
     style="display:none"
     sodipodi:insensitive="true">
    <rect
       style="fill:none;stroke:#000000;stroke-width:0.5;stroke-linecap:butt;stroke-linejoin:bevel;stroke-miterlimit:4;stroke-dasharray:none;stroke-opacity:1"
       width="247.5"
       height="337.5"
       x="0"
       y="0"
       id="rect376" />
  </g>
</svg>
