<?xml version="1.0" encoding="UTF-8" standalone="no"?>
<svg version="1.1" height="337.5" width="247.5" xmlns:rdf="http://www.w3.org/1999/02/22-rdf-syntax-ns#" xmlns="http://www.w3.org/2000/svg" xmlns:cc="http://creativecommons.org/ns#" xmlns:xlink="http://www.w3.org/1999/xlink" xmlns:dc="http://purl.org/dc/elements/1.1/" xmlns:sodipodi="http://sodipodi.sourceforge.net/DTD/sodipodi-0.dtd" xmlns:svg="http://www.w3.org/2000/svg" xmlns:inkscape="http://www.inkscape.org/namespaces/inkscape">
<metadata>
  <rdf:RDF>
    <cc:Work rdf:about="">
      <dc:format>image/svg+xml</dc:format>
      <dc:type rdf:resource="http://purl.org/dc/dcmitype/StillImage"/>
      <dc:title/>
      <dc:creator>
        <cc:Agent><dc:title>Gary Kacmarcik</dc:title></cc:Agent>
      </dc:creator>
    </cc:Work>
  </rdf:RDF>
</metadata>

<defs>
  <filter inkscape:label="textureGrassBig" style="color-interpolation-filters:sRGB" id="textureGrassBig">
    <feTurbulence numOctaves="2" seed="0" type="turbulence" baseFrequency="0.070000" result="result1" />
    <feColorMatrix result="result0" in="SourceGraphic" type="luminanceToAlpha" />
    <feColorMatrix result="result2" values="1 0 0 0 0 0 1 0 0 0 0 0 1 0 0 0 0 0 0.4 0 " />
    <feComposite in="result2" operator="over" in2="result1" />
    <feColorMatrix result="result91" values="1 0 0 0 0 0 1 0 0 0 0 0 1 0 0 0 0 0 10 -4 " />
    <feComposite operator="out" in="SourceGraphic" in2="result91" />
    <feGaussianBlur stdDeviation="2.500000" />
    <feColorMatrix values="1 0 0 0 0 0 1 0 0 0 0 0 1 0 0 0 0 0 1 0 " />
  </filter>
  <filter inkscape:label="textureGrassSmall" style="color-interpolation-filters:sRGB" id="textureGrassSmall">
    <feTurbulence numOctaves="4" seed="0" type="turbulence" baseFrequency="0.500000" result="result1" />
    <feColorMatrix result="result0" in="SourceGraphic" type="luminanceToAlpha" />
    <feColorMatrix result="result2" values="1 0 0 0 0 0 1 0 0 0 0 0 1 0 0 0 0 0 0.4 0 " />
    <feComposite in="result2" operator="over" in2="result1" />
    <feColorMatrix result="result91" values="1 0 0 0 0 0 1 0 0 0 0 0 1 0 0 0 0 0 10 -4 " />
    <feComposite operator="out" in="SourceGraphic" in2="result91" />
    <feGaussianBlur stdDeviation="1.000000" />
    <feColorMatrix values="1 0 0 0 0 0 1 0 0 0 0 0 1 0 0 0 0 0 1 0 " />
  </filter>
  <filter inkscape:label="textureLand" style="color-interpolation-filters:sRGB" id="textureLand">
    <feTurbulence numOctaves="4" seed="0" type="turbulence" baseFrequency="0.500000" result="result1" />
    <feColorMatrix result="result0" in="SourceGraphic" type="luminanceToAlpha" />
    <feColorMatrix result="result2" values="1 0 0 0 0 0 1 0 0 0 0 0 1 0 0 0 0 0 0.4 0 " />
    <feComposite in="result2" operator="over" in2="result1" />
    <feColorMatrix result="result91" values="1 0 0 0 0 0 1 0 0 0 0 0 1 0 0 0 0 0 10 -4 " />
    <feComposite operator="out" in="SourceGraphic" in2="result91" />
    <feGaussianBlur stdDeviation="0.800000" />
    <feColorMatrix values="1 0 0 0 0 0 1 0 0 0 0 0 1 0 0 0 0 0 1 0 " />
  </filter>
  <filter inkscape:label="textureForestBig" style="color-interpolation-filters:sRGB" id="textureForestBig">
    <feTurbulence numOctaves="2" seed="4" type="turbulence" baseFrequency="0.300000" result="result1" />
    <feColorMatrix result="result0" in="SourceGraphic" type="luminanceToAlpha" />
    <feColorMatrix result="result2" values="1 0 0 0 0 0 1 0 0 0 0 0 1 0 0 0 0 0 0.4 0 " />
    <feComposite in="result2" operator="over" in2="result1" />
    <feColorMatrix result="result91" values="1 0 0 0 0 0 1 0 0 0 0 0 1 0 0 0 0 0 10 -4 " />
    <feComposite operator="out" in="SourceGraphic" in2="result91" />
    <feGaussianBlur stdDeviation="2.000000" />
    <feColorMatrix values="1 0 0 0 0 0 1 0 0 0 0 0 1 0 0 0 0 0 1 0 " />
  </filter>
  <filter inkscape:label="textureForestSmall" style="color-interpolation-filters:sRGB" id="textureForestSmall">
    <feTurbulence numOctaves="4" seed="4" type="turbulence" baseFrequency="0.350000" result="result1" />
    <feColorMatrix result="result0" in="SourceGraphic" type="luminanceToAlpha" />
    <feColorMatrix result="result2" values="1 0 0 0 0 0 1 0 0 0 0 0 1 0 0 0 0 0 0.4 0 " />
    <feComposite in="result2" operator="over" in2="result1" />
    <feColorMatrix result="result91" values="1 0 0 0 0 0 1 0 0 0 0 0 1 0 0 0 0 0 10 -4 " />
    <feComposite operator="out" in="SourceGraphic" in2="result91" />
    <feGaussianBlur stdDeviation="1.000000" />
    <feColorMatrix values="1 0 0 0 0 0 1 0 0 0 0 0 1 0 0 0 0 0 1 0 " />
  </filter>
  <filter inkscape:label="roughenShoreline" style="color-interpolation-filters:sRGB" id="roughenShoreline">
    <feTurbulence numOctaves="4" seed="0" type="turbulence" baseFrequency="0.050000" result="turb" />
    <feDisplacementMap scale="6.600000" yChannelSelector="G" xChannelSelector="R" in="SourceGraphic" in2="turb" />
  </filter>
  <filter inkscape:label="roughenForest" style="color-interpolation-filters:sRGB" id="roughenForest">
    <feTurbulence numOctaves="4" seed="4" type="fractalNoise" baseFrequency="0.150000 0.150000" result="turb" />
    <feDisplacementMap scale="6.600000" yChannelSelector="G" xChannelSelector="R" in="SourceGraphic" in2="turb" />
  </filter>
  <filter inkscape:collect="always" inkscape:label="blurSuitRankGlow" style="color-interpolation-filters:sRGB" id="blurSuitRankGlow" x="-0.029025" y="-0.020458" width="1.058049" height="1.040917">
    <feGaussianBlur inkscape:collect="always" stdDeviation="2.515067" />
  </filter>
  <filter inkscape:collect="always" inkscape:label="blurWaterDeep" style="color-interpolation-filters:sRGB" id="blurWaterDeep" x="-0.056691" y="-0.041620" width="1.113381" height="1.083239">
    <feGaussianBlur inkscape:collect="always" stdDeviation="6.919136" />
  </filter>
  <filter inkscape:collect="always" inkscape:label="blurWaterShallow" style="color-interpolation-filters:sRGB" id="blurWaterShallow" x="-0.055818" y="-0.042103" width="1.111637" height="1.084205">
    <feGaussianBlur inkscape:collect="always" stdDeviation="6.561501" />
  </filter>
  <filter inkscape:collect="always" inkscape:label="blurWaterHilight" style="color-interpolation-filters:sRGB" id="blurWaterHilight" x="-0.071178" y="-0.051856" width="1.142356" height="1.103712">
    <feGaussianBlur inkscape:collect="always" stdDeviation="6.857532" />
  </filter>
  <filter inkscape:collect="always" inkscape:label="blurGrass" style="color-interpolation-filters:sRGB" id="blurGrass" x="-0.032100" y="-0.019164" width="1.064201" height="1.038328">
    <feGaussianBlur inkscape:collect="always" stdDeviation="2.386213" />
  </filter>
  <filter inkscape:collect="always" inkscape:label="blurForestShadow" style="color-interpolation-filters:sRGB" id="blurForestShadow" x="-0.033576" y="-0.018674" width="1.067152" height="1.037348">
    <feGaussianBlur inkscape:collect="always" stdDeviation="2.199785" />
  </filter>
  <filter inkscape:collect="always" inkscape:label="blurFlowerInner" style="color-interpolation-filters:sRGB" id="blurFlowerInner" x="-0.420000" y="-0.420000" width="1.840000" height="1.840000">
    <feGaussianBlur inkscape:collect="always" stdDeviation="1.605540" />
  </filter>
  <filter inkscape:collect="always" inkscape:label="blurFlowerMiddle" style="color-interpolation-filters:sRGB" id="blurFlowerMiddle" x="-0.240000" y="-0.240000" width="1.480000" height="1.480000">
    <feGaussianBlur inkscape:collect="always" stdDeviation="1.933705" />
  </filter>
  <linearGradient id="gradientStopsFish" inkscape:collect="always">
    <stop offset="0.000000" style="stop-color:#ff5555;stop-opacity:1.000000" />
    <stop offset="1.000000" style="stop-color:#ffffff;stop-opacity:1.000000" />
  </linearGradient>
  <linearGradient id="gradientStopsCoconut" inkscape:collect="always">
    <stop offset="0.000000" style="stop-color:#ffffff;stop-opacity:1.000000" />
    <stop offset="1.000000" style="stop-color:#c8c8c8;stop-opacity:0.000000" />
  </linearGradient>
  <linearGradient id="gradientStopsFlower" inkscape:collect="always">
    <stop offset="0.000000" style="stop-color:#b16dff;stop-opacity:1.000000" />
    <stop offset="1.000000" style="stop-color:#e7d2ff;stop-opacity:1.000000" />
  </linearGradient>
  <linearGradient id="gradientStopsJellyfish" inkscape:collect="always">
    <stop offset="0.000000" style="stop-color:#4f97ff;stop-opacity:1.000000" />
    <stop offset="1.000000" style="stop-color:#cfe3ff;stop-opacity:1.000000" />
  </linearGradient>
  <linearGradient id="gradientStopsShip" inkscape:collect="always">
    <stop offset="0.000000" style="stop-color:#b67800;stop-opacity:1.000000" />
    <stop offset="1.000000" style="stop-color:#d28b00;stop-opacity:1.000000" />
  </linearGradient>
  <linearGradient id="gradientFish" xlink:href="#gradientStopsFish" x1="178.789090" y1="-114.782830" x2="180.407300" y2="-103.782830" gradientTransform="translate(-178.76256,1.0606602)" gradientUnits="userSpaceOnUse" inkscape:collect="always" />
  <linearGradient id="gradientJellyfishTentacle1a" xlink:href="#gradientStopsJellyfish" x1="118.024030" y1="-110.827530" x2="121.753140" y2="-96.140030" gradientTransform="translate(-120,0)" gradientUnits="userSpaceOnUse" inkscape:collect="always" />
  <linearGradient id="gradientJellyfishTentacle1b" xlink:href="#gradientStopsJellyfish" x1="118.024030" y1="-110.827530" x2="121.753140" y2="-96.140030" gradientTransform="translate(-120,0)" gradientUnits="userSpaceOnUse" inkscape:collect="always" />
  <linearGradient id="gradientJellyfishTentacle2" xlink:href="#gradientStopsJellyfish" x1="118.218180" y1="-115.782610" x2="121.698270" y2="-97.813858" gradientTransform="translate(-120,0)" gradientUnits="userSpaceOnUse" inkscape:collect="always" />
  <linearGradient id="gradientJellyfishTentacle3" xlink:href="#gradientStopsJellyfish" x1="123.335370" y1="-114.610190" x2="116.678600" y2="-98.453941" gradientTransform="translate(-120,0)" gradientUnits="userSpaceOnUse" inkscape:collect="always" />
  <linearGradient id="gradientShip" xlink:href="#gradientStopsShip" x1="196.432910" y1="221.715270" x2="203.663250" y2="204.277770" gradientTransform="matrix(0.37654483,0.9263984,-0.9263984,0.37654483,355.66788,-318.43897)" gradientUnits="userSpaceOnUse" inkscape:collect="always" />
  <radialGradient id="gradientCoconut" xlink:href="#gradientStopsCoconut" cx="1.944096" cy="-60.612652" fx="1.944096" fy="-60.612652" r="6.723294" gradientUnits="userSpaceOnUse" gradientTransform="matrix(1.691364,-0.31394812,0.29762395,1.603419,17.826033,-7.042221)" inkscape:collect="always" />
  <radialGradient id="gradientFlower" xlink:href="#gradientStopsFlower" cx="60.884877" cy="-69.652750" fx="60.884877" fy="-69.652750" r="15.835310" gradientUnits="userSpaceOnUse" gradientTransform="matrix(0.8413905,0,0,0.87120012,-50.722984,-48.679159)" inkscape:collect="always" />
  <radialGradient id="gradientJellyfish" xlink:href="#gradientStopsJellyfish" cx="120.453410" cy="-112.943900" fx="120.453410" fy="-112.943900" r="10.580511" gradientUnits="userSpaceOnUse" gradientTransform="matrix(1.1662998,0.0435575,-0.04526952,1.2121402,-145.14628,17.080499)" inkscape:collect="always" />
</defs>

<sodipodi:namedview
    id="base"
    pagecolor="#ffffff"
    bordercolor="#666666"
    borderopacity="1.0"
    inkscape:pageopacity="0.0"
    inkscape:pageshadow="2"
    inkscape:zoom="2"
    inkscape:cx="115.37643"
    inkscape:cy="285.04449"
    inkscape:document-units="in"
    showgrid="true"
    units="in"
    inkscape:window-width="1392"
    inkscape:window-height="836"
    inkscape:window-x="39"
    inkscape:window-y="6"
    inkscape:window-maximized="0"
    inkscape:snap-grids="true"
    inkscape:snap-to-guides="true"
    inkscape:snap-nodes="true"
    inkscape:object-nodes="true"
    inkscape:snap-smooth-nodes="true"
    inkscape:snap-intersection-paths="true"
    inkscape:object-paths="true"
    inkscape:snap-bbox="true"
    inkscape:bbox-nodes="true"
    inkscape:snap-others="true"
    inkscape:bbox-paths="false"
    inkscape:snap-global="true" >
  <inkscape:grid
    type="xygrid"
    id="grid3051"
    empspacing="2"
    visible="true"
    enabled="true"
    snapvisiblegridlinesonly="true"
    spacingx="0.0625in"
    spacingy="0.0625in"
    dotted="false"
    units="in" />
</sodipodi:namedview>
<g inkscape:groupmode="layer" id="water_layer" inkscape:label="Water" style="display:inline" sodipodi:insensitive="true" >
  <rect id="water" style="fill:#b9deff;fill-opacity:1;stroke:none" x="0" y="0" width="247.5" height="337.5" />
</g>
<g inkscape:groupmode="layer" id="water_shallow_layer" inkscape:label="Water Shallow" style="display:inline" sodipodi:insensitive="true" >
  <path style="fill:#9bd1ff;fill-opacity:0.70;fill-rule:evenodd;stroke:none;filter:url(#blurWaterShallow)" d="m 185.625,-11.25 0,22.5 c 0,0 -1.37271,15.126692 0,22.5 1.14433,6.146608 4.9891,11.500875 6.75,17.5 2.09666,7.142998 3.74612,14.468916 4.5,21.875 0.48946,4.808486 2.21617,10.204687 0,14.5 -2.10986,4.089268 -6.91163,6.466322 -11.25,8 -5.11661,1.808796 -13.94761,-3.914306 -16.25,1 -3.04772,6.50518 9.95845,10.75585 12.75,17.375 2.75768,6.53883 3.09004,13.9153 3.5,21 0.58322,10.07886 -0.4727,20.20668 -1.5,30.25 -0.57926,5.6631 -7.0124,13.24775 -2.625,16.875 5.14982,4.25757 12.37055,-5.22039 18.875,-6.75 6.86224,-1.61375 14.08349,-1.1375 21,-2.5 5.04843,-0.9945 14.875,-4.125 14.875,-4.125 l 22.5,0 0,-180 z m -196.875,264.375 0,95.625 73.125,0 0,-22.5 c 0,0 -7.520517,-5.72344 -11.25,-8.625 -4.776517,-3.71616 -10.579176,-6.43855 -14.25,-11.25 -5.050885,-6.62033 -6.771629,-15.22378 -9.75,-23 -2.66281,-6.95232 -3.492525,-14.69797 -7.25,-21.125 -2.055527,-3.51591 -8.125,-9.125 -8.125,-9.125 z" inkscape:connector-curvature="0" />
</g>
<g inkscape:groupmode="layer" id="water_deep_layer" inkscape:label="Water Deep" style="display:inline" sodipodi:insensitive="true" >
  <path style="fill:#87c8ff;fill-opacity:0.60;fill-rule:evenodd;stroke:none;filter:url(#blurWaterDeep)" d="m 213.75,-11.25 0,22.5 c 0,0 3.96725,11.182188 5.625,16.875 2.16144,7.422519 4.68042,14.8271 5.625,22.5 1.14547,9.304758 0.38961,18.758099 0,28.125 -0.25022,6.015596 0.08,12.190229 -1.5,18 -1.86826,6.86951 -11.77595,12.59417 -9.25,19.25 1.29872,3.42212 6.6363,5.35749 10.125,4.25 7.11849,-2.25978 0.625,-19 11.875,-19 l 22.5,0 0,-112.5 z m -225,298.125 0,61.875 45,0 0,-22.5 c 0,0 1.435063,-7.78545 0,-11.25 -2.029485,-4.89961 -7.887766,-7.14873 -11.25,-11.25 -4.286024,-5.22811 -11.25,-16.875 -11.25,-16.875 z" inkscape:connector-curvature="0" />
</g>
<g inkscape:groupmode="layer" id="water_hilight_layer" inkscape:label="Water Hilight" style="display:inline" sodipodi:insensitive="true" >
  <use xlink:href="#shoreline" height="100%" width="100%" x="0" y="0" style="display:inline;fill:#ffffff;fill-opacity:1;stroke:#ffffff;stroke-opacity:1;filter:url(#blurWaterHilight)" />
</g>
<g inkscape:groupmode="layer" id="land_layer" inkscape:label="Land" style="display:inline" sodipodi:insensitive="true" >
  <use xlink:href="#shoreline" height="100%" width="100%" x="0" y="0" style="display:inline;fill:#ffddab;fill-opacity:1;stroke:none;stroke-width:1;stroke-miterlimit:4;stroke-dasharray:none;stroke-opacity:1" />
</g>
<g inkscape:groupmode="layer" id="land_texture_layer" inkscape:label="Land Texture" style="display:inline" sodipodi:insensitive="true" >
  <use xlink:href="#shoreline" height="100%" width="100%" x="0" y="0" style="display:inline;fill:#ffca7d;fill-opacity:1;stroke:none;stroke-width:1;stroke-miterlimit:4;stroke-dasharray:none;stroke-opacity:1;filter:url(#textureLand)" />
</g>
<g inkscape:groupmode="layer" id="shoreline_layer" inkscape:label="Shoreline" style="display:inline" sodipodi:insensitive="true" >
  <use xlink:href="#shoreline" height="100%" width="100%" x="0" y="0" style="display:inline;fill:none;fill-opacity:1;stroke:#5f4c14;stroke-width:1;stroke-miterlimit:4;stroke-dasharray:none;stroke-opacity:1" />
</g>
<g inkscape:groupmode="layer" id="shoreline_master_layer" inkscape:label="Shoreline Master" style="display:none" sodipodi:insensitive="true" >
  <path id="shoreline" style="color:#000000;clip-rule:nonzero;display:inline;overflow:visible;visibility:visible;opacity:1;isolation:auto;mix-blend-mode:normal;color-interpolation:sRGB;color-interpolation-filters:linearRGB;solid-color:#000000;solid-opacity:1;fill-opacity:1;fill-rule:evenodd;filter:url(#roughenShoreline);color-rendering:auto;image-rendering:auto;shape-rendering:auto;text-rendering:auto;enable-background:accumulate" d="m 30.9375,-26.71875 c -25.3125,0 -50.625,1.40625 -53.4375,4.21875 -5.625,5.625 -5.625,236.25 0,241.875 3.97748,3.97748 11.54248,0.21713 22.5,0 4.88806,-0.0969 8.70504,1.51804 11.25,0 8.78623,-5.24091 12.153546,17.63584 30.759766,23.39648 0.30004,3.49144 0.01562,6.46552 -1.167969,8.54102 -6.81573,11.95178 0.614295,30.9209 11.390625,40.60547 C 64.417249,302.86834 85.07712,319.1618 84.375,326.25 c -1.01122,10.20864 0,8.44986 0,11.25 0,5.625 5.625,11.25 0,22.5 0,0 174.375,11.25 185.625,0 7.95495,-7.95495 11.25,-135 0,-140.625 -6.7082,-3.3541 -22.5,0 -22.5,0 l -11.25,0 c -17.96751,0 -21.46644,-6.82667 -30.70508,-12.24219 -8.68945,-5.09359 -24.09715,12.42014 -28.45898,8.08203 -8.6081,-8.56129 -18.91104,13.61419 -24.6871,15.26486 -5.77606,1.65067 -7.02523,-17.22347 -9.52579,-29.884 -2.3256,-11.77467 26.22307,-44.69332 14.62695,-54.3457 -11.59612,-9.65238 0.30984,-33.68347 -5.625,-39.375 0.60628,-2.93514 -31.99318,-18.210766 -33.75,-33.75 -1.75682,-15.539234 4.829,-31.34207 5.625,-33.75 1.64189,-4.966766 9.74734,-5.047284 19.0146,5.169773 9.26725,10.217058 19.69631,30.73169 25.9854,22.955227 6.9276,-8.565976 -7.46249,-37.109197 -5.625,-56.25 0.82272,-8.5701872 0,-5.625 0,-11.25 0,-7.5 5.3033,-17.196699 0,-22.5 -2.8125,-2.8125 -106.875,-4.21875 -132.1875,-4.21875 z" inkscape:connector-curvature="0" />
</g>
<g inkscape:groupmode="layer" id="grass_layer" inkscape:label="Grass" style="display:inline" sodipodi:insensitive="true" >
  <use xlink:href="#grass" height="100%" width="100%" x="0" y="0" style="display:inline;fill:#b4e982;fill-opacity:1;stroke:none;stroke-width:1;stroke-miterlimit:4;stroke-dasharray:none;stroke-opacity:1" />
</g>
<g inkscape:groupmode="layer" id="grass_texture1_layer" inkscape:label="Grass Texture Big" style="display:inline" sodipodi:insensitive="true" >
  <use xlink:href="#grass" height="100%" width="100%" x="0" y="0" style="display:inline;fill:#a7e46a;fill-opacity:1;stroke:none;stroke-width:1;stroke-miterlimit:4;stroke-dasharray:none;stroke-opacity:1;filter:url(#textureGrassBig)" />
</g>
<g inkscape:groupmode="layer" id="grass_texture2_layer" inkscape:label="Grass Texture Small" style="display:inline" sodipodi:insensitive="true" >
  <use xlink:href="#grass" height="100%" width="100%" x="0" y="0" style="display:inline;fill:#8cdd3d;fill-opacity:1;stroke:none;stroke-width:1;stroke-miterlimit:4;stroke-dasharray:none;stroke-opacity:1;filter:url(#textureGrassSmall)" />
</g>
<g inkscape:groupmode="layer" id="grass_master_layer" inkscape:label="Grass Master" style="display:none" sodipodi:insensitive="true" >
  <path id="grass" style="color:#000000;clip-rule:nonzero;display:inline;overflow:visible;visibility:visible;opacity:1;isolation:auto;mix-blend-mode:normal;color-interpolation:sRGB;color-interpolation-filters:linearRGB;solid-color:#000000;solid-opacity:1;fill-opacity:1;fill-rule:evenodd;filter:url(#blurGrass);color-rendering:auto;image-rendering:auto;shape-rendering:auto;text-rendering:auto;enable-background:accumulate" d="m -11.25,-11.25 0,225 22.5,0 c 0,0 8.138086,0.77119 11.75,2.5 4.167517,1.99475 7.439341,5.52715 10.75,8.75 4.48835,4.36931 10.28518,8.30226 12.25,14.25 1.454509,4.40297 -1.5573,9.27162 -1,13.875 1.073712,8.86903 4.173132,17.55068 8.25,25.5 4.841218,9.43969 11.031434,18.48192 18.875,25.625 5.140585,4.6815 12.396932,6.46832 17.875,10.75 4.178413,3.26586 11.25,11.25 11.25,11.25 l 0,22.5 157.5,5.625 0,-118.125 -22.5,0 c 0,0 -8.50272,-6.74658 -12.75,-10.125 -5.12829,-4.0792 -8.92175,-11.1121 -15.375,-12.25 -6.70859,-1.18292 -12.69219,5.1792 -19.375,6.5 -5.5305,1.09306 -11.75642,-1.2375 -16.875,1.125 -6.23347,2.87708 -7.72687,13.03649 -14.375,14.75 -5.01632,1.29292 -11.3205,-0.73163 -14.875,-4.5 -6.49757,-6.88852 -6.37758,-18.1588 -6.625,-27.625 -0.23916,-9.1499 1.74776,-18.44426 5,-27 3.40739,-8.9639 15.34396,-15.0468 14.875,-24.625 -0.18053,-3.68726 -5.39506,-5.39424 -6.625,-8.875 -1.45866,-4.12804 -0.20568,-8.75673 -0.5,-13.125 -0.34895,-5.17906 0.47268,-10.69865 -1.5,-15.5 -1.75587,-4.27366 -5.62465,-7.34714 -8.75,-10.75 -4.62438,-5.034996 -10.3704,-9.000694 -14.75,-14.25 -4.33093,-5.19097 -9.29094,-10.404667 -11.25,-16.875 -2.17338,-7.17819 -1.20137,-15.096844 0,-22.5 0.94976,-5.852709 1.04147,-13.113687 5.625,-16.875 4.12298,-3.383375 10.7631,-3.521402 15.875,-2 7.28152,2.167125 12.78518,8.696029 17.375,14.75 2.71459,3.580539 2.3586,9.164573 5.625,12.25 2.40743,2.274048 6.69091,5.726919 9.25,3.625 C 170.79735,58.640019 163.125,45 163.125,45 161.65193,36.809757 158.14025,33.662838 155.375,28.125 152.51823,22.403877 146.25,11.25 146.25,11.25 l 0,-22.5 z" inkscape:connector-curvature="0" />
</g>
<g inkscape:groupmode="layer" id="forest_shadow_layer" inkscape:label="Forest Shadow" style="display:inline" sodipodi:insensitive="true" >
  <g style="filter:url(#blurForestShadow)" >
    <use xlink:href="#forest" height="100%" width="100%" x="0" y="0" style="display:inline;opacity:0.75;fill:#258c1b;fill-opacity:1;filter:url(#roughenForest)" />
  </g>
</g>
<g inkscape:groupmode="layer" id="forest_fill_layer" inkscape:label="Forest Fill" style="display:inline" sodipodi:insensitive="true" >
  <use xlink:href="#forest" height="100%" width="100%" x="0" y="0" style="fill:#83d700;fill-opacity:1;stroke:none;stroke-width:1.5;stroke-miterlimit:4;stroke-dasharray:none;stroke-opacity:1;filter:url(#roughenForest)" />
</g>
<g inkscape:groupmode="layer" id="forest_texture_big_layer" inkscape:label="Forest Texture Big" style="display:inline" sodipodi:insensitive="true" >
  <g style="filter:url(#textureForestBig)" >
    <use xlink:href="#forest" height="100%" width="100%" x="0" y="0" style="fill:#548c00;fill-opacity:1;stroke:none;stroke-width:1.5;stroke-miterlimit:4;stroke-dasharray:none;stroke-opacity:1;filter:url(#roughenForest)" />
  </g>
</g>
<g inkscape:groupmode="layer" id="forest_texture_small_layer" inkscape:label="Forest Texture Small" style="display:inline" sodipodi:insensitive="true" >
  <g style="filter:url(#textureForestSmall)" >
    <use xlink:href="#forest" height="100%" width="100%" x="0" y="0" style="fill:#78c125;fill-opacity:1;stroke:none;stroke-width:1;stroke-miterlimit:4;stroke-dasharray:none;stroke-opacity:1;filter:url(#roughenForest)" />
  </g>
</g>
<g inkscape:groupmode="layer" id="forest_outline_layer" inkscape:label="Forest Outline" style="display:inline" sodipodi:insensitive="true" >
  <use xlink:href="#forest" height="100%" width="100%" x="0" y="0" style="fill:none;fill-opacity:1;stroke:#006800;stroke-width:1.5;stroke-miterlimit:4;stroke-dasharray:none;stroke-opacity:1;filter:url(#roughenForest)" />
</g>
<g inkscape:groupmode="layer" id="forest_master_layer" inkscape:label="Forest Master" style="display:none" sodipodi:insensitive="true" >
  <path id="forest" style="color:#000000;clip-rule:nonzero;display:inline;overflow:visible;visibility:visible;opacity:1;isolation:auto;mix-blend-mode:normal;color-interpolation:sRGB;color-interpolation-filters:linearRGB;solid-color:#000000;solid-opacity:1;fill-opacity:1;fill-rule:nonzero;color-rendering:auto;image-rendering:auto;shape-rendering:auto;text-rendering:auto;enable-background:accumulate" d="m 65,-8.5 c -2.272017,0.00247 -4.390406,1.1901204 -5.636719,3.1601562 C 58.144214,-6.4114187 56.598074,-6.9996993 55,-7 54.123498,-6.9979 53.255782,-6.8187796 52.445312,-6.4726562 48.945687,-6.1734081 46.25184,-3.1415569 46.25,0.5 46.250575,0.67860431 46.2577,0.85712036 46.27148,1.0351562 46.259357,1.1898144 46.252191,1.344848 46.25,1.5 46.2516,2.1761548 46.34764,2.8485035 46.535156,3.4960938 46.34692,4.1461921 46.250862,4.8212267 46.25,5.5 46.2528,5.7428316 46.26781,5.9853471 46.29492,6.2265625 46.26619,6.4833172 46.251193,6.7415251 46.25,7 46.2528,7.2428316 46.26781,7.4853471 46.29492,7.7265625 46.26619,7.9833172 46.251193,8.2415251 46.25,8.5 c 0.0019,0.9157381 0.177125,1.822183 0.515625,2.667969 -0.0077,0.110533 -0.01295,0.221241 -0.01563,0.332031 0.003,1.732087 0.625112,3.401518 1.746094,4.685547 -2.568051,0.608792 -4.55995,2.711267 -5.101563,5.384765 -0.144007,-0.02046 -0.288613,-0.03609 -0.433593,-0.04687 C 43.152313,20.867276 43.249706,20.185519 43.25,19.5 c 0,-3.865993 -3.022078,-7 -6.75,-7 -0.987338,0.0028 -1.962072,0.230109 -2.855469,0.666016 -0.02695,-0.03936 -0.0543,-0.07842 -0.08203,-0.117188 0.343139,-0.72559 0.562526,-1.507322 0.648438,-2.310547 C 34.566288,9.8723769 34.749629,8.941058 34.75,8 34.74753,6.3608015 34.190419,4.7744861 33.175781,3.5175781 33.034417,2.4810444 32.670672,1.4905896 32.111328,0.61914062 31.615088,-1.9307423 29.796301,-3.9849641 27.388672,-4.7148438 26.608286,-5.2873814 25.719535,-5.6814943 24.78125,-5.8710938 23.907817,-6.2833748 22.959652,-6.4977772 22,-6.5 19.78257,-6.4992046 17.706944,-5.3690363 16.447266,-3.4765625 16.298468,-3.4895032 16.149298,-3.49732 16,-3.5 13.201301,-3.4967111 10.694849,-1.7027253 9.6992188,1.0097656 9.6328625,1.0054931 9.566449,1.0022376 9.5,1 8.595564,1.0028226 7.7008984,1.1941096 6.8691406,1.5625 5.6746387,-0.63493286 3.4324436,-1.9959192 1,-2 -2.7279221,-2 -5.75,1.1340068 -5.75,5 -5.74732,5.7643558 -5.6239446,6.5230966 -5.3847656,7.2460938 -5.6247571,7.9715721 -5.7481462,8.7330213 -5.75,9.5 c 0.0034,2.987869 1.8351618,5.644127 4.5605469,6.613281 C -1.2277306,16.407225 -1.2479537,16.703395 -1.25,17 c 0.00182,0.457904 0.046955,0.914519 0.1347656,1.363281 C -3.8778039,19.308658 -5.7455508,21.983165 -5.75,25 c 0.00306,3.799014 2.9275391,6.902051 6.58984375,6.992188 C -0.79362584,33.31794 -1.7486183,35.34892 -1.75,37.5 c 0.00274,1.246487 0.3263915,2.469606 0.9375,3.542969 -0.2867417,0.785174 -0.4349352,1.617439 -0.4375,2.457031 0.00101,1.321285 0.36260364,2.615294 1.04296875,3.732422 0.13354989,0.327031 0.29090529,0.643047 0.47070313,0.945312 C -1.6165832,49.473706 -2.7475679,51.658713 -2.75,54 c 0.00209,1.055785 0.2344553,2.097402 0.6796875,3.046875 C -2.8387142,58.211183 -3.2499149,59.589114 -3.25,61 c 0.00137,1.790042 0.6639669,3.511524 1.8515625,4.810547 C -2.2732098,67.01913 -2.7473516,68.488833 -2.75,70 c 0.0025,1.170299 0.2878893,2.321274 0.8300781,3.347656 C -2.1376307,74.042833 -2.2490063,74.769081 -2.25,75.5 c 0.00209,1.055785 0.2344553,2.097402 0.6796875,3.046875 C -2.3387142,79.711183 -2.7499149,81.089114 -2.75,82.5 c 0.0017,2.093317 0.9066883,4.075986 2.46679688,5.404297 C -0.91337341,88.990018 -1.2475208,90.232776 -1.25,91.5 c 0.00293,0.776184 0.1303152,1.546459 0.37695312,2.279297 C -3.7600068,94.644023 -5.7481111,97.383738 -5.75,100.5 c 0.00144,0.59327 0.075603,1.18394 0.2207031,1.75781 C -5.6731367,102.82662 -5.7472884,103.41196 -5.75,104 c 0.00222,0.94147 0.1875612,1.87281 0.5449219,2.73828 C -4.8412604,110.29565 -1.949554,112.99614 1.5,113 c 1.8167861,-0.002 3.5559157,-0.76428 4.8242188,-2.11328 0.3136996,0.057 0.6308983,0.091 0.9492187,0.10156 C 8.5339291,112.27519 10.231165,112.99756 12,113 c 3.727922,0 6.75,-3.13401 6.75,-7 -0.001,-0.42261 -0.03893,-0.84425 -0.113281,-1.25977 0.07323,-0.4091 0.111139,-0.82415 0.113281,-1.24023 -0.002,-0.49393 -0.05434,-0.98625 -0.15625,-1.46875 0.767824,0.30706 1.583319,0.46592 2.40625,0.46875 3.727922,0 6.75,-3.134007 6.75,-7 -0.0029,-1.671973 -0.582806,-3.287646 -1.634766,-4.554688 0.345971,-0.772337 0.55314,-1.60366 0.611328,-2.453124 0.532263,-0.01735 1.060677,-0.09995 1.574219,-0.246094 C 29.537898,90.271231 31.688306,91.498983 34,91.5 37.681233,91.4972 40.681487,88.436164 40.744141,84.619141 41.773595,87.265145 44.248647,88.998376 47,89 50.727922,89 53.75,85.865993 53.75,82 53.7472,79.867806 52.807486,77.853178 51.197266,76.527344 52.509433,75.208749 53.250082,73.394829 53.25,71.5 53.24722,69.770739 52.627317,68.103747 51.509766,66.820312 51.666615,66.227122 51.747389,65.615081 51.75,65 51.74955,62.937443 50.871984,60.980072 49.351562,59.650391 48.394292,56.864429 45.851919,55.002992 43,55 42.178849,55.00083 41.364735,55.157034 40.597656,55.460938 40.697722,54.98085 40.748784,54.491173 40.75,54 40.747428,52.790293 40.442597,51.601924 39.865234,50.550781 42.50053,49.528335 44.247826,46.917898 44.25,44 c -0.0034,-2.643593 -1.442652,-5.059691 -3.720703,-6.246094 1.01394,-0.528052 1.883167,-1.31264 2.527344,-2.28125 0.417285,-0.03501 0.830524,-0.110204 1.234375,-0.224609 C 44.264342,35.497753 44.25065,35.748767 44.25,36 c 0,3.865993 3.022078,7 6.75,7 3.727922,0 6.75,-3.134007 6.75,-7 -0.0012,-3.0918 -1.958273,-5.816559 -4.814453,-6.703125 0.70954,-0.356403 1.353386,-0.838957 1.902344,-1.425781 0.925482,0.621425 1.983661,0.998293 3.082031,1.097656 C 57.809101,29.471124 57.752114,29.984653 57.75,30.5 c 0.0033,3.16816 2.058027,5.939069 5.009766,6.755859 C 62.892441,41.017658 65.870127,43.997069 69.5,44 71.800348,43.9972 73.940941,42.779649 75.179688,40.769531 76.303983,41.570576 77.635926,41.999576 79,42 c 3.727922,0 6.75,-3.134007 6.75,-7 0,-3.865993 -3.022078,-7 -6.75,-7 -0.735144,0.0035 -1.464805,0.131457 -2.160156,0.378906 C 77.108518,27.616593 77.247304,26.811631 77.25,26 77.247848,24.367935 76.695854,22.787947 75.689453,21.533203 77.005904,20.21456 77.749564,18.398055 77.75,16.5 77.747942,15.221293 77.408175,13.967598 76.767578,12.875 77.72669,11.633691 78.249535,10.090643 78.25,8.5 78.248409,7.8238452 78.152359,7.1514965 77.964844,6.5039062 78.15308,5.8538079 78.249138,5.1787733 78.25,4.5 78.247072,3.997942 78.192069,3.4976675 78.085938,3.0078125 78.193148,2.5128581 78.248158,2.0072843 78.25,1.5 78.246581,-1.2046208 76.741025,-3.6652156 74.382812,-4.8203125 73.161288,-5.9034525 71.607175,-6.4990574 70,-6.5 69.90815,-6.49869 69.816332,-6.49543 69.724609,-6.49023 68.464296,-7.7759334 66.767891,-8.4975542 65,-8.5 Z M 98,-8 c -3.664682,0.00338 -6.657321,3.0384969 -6.742188,6.8378906 C 90.601977,-0.06145305 90.253128,1.2061666 90.25,2.5 90.251,2.9226071 90.28893,3.3442509 90.363281,3.7597656 90.290052,4.168864 90.252141,4.5839187 90.25,5 90.249935,6.1068029 90.50295,7.1978474 90.988281,8.1835938 90.832419,8.775613 90.752305,9.3863171 90.75,10 c 0.0019,0.915738 0.177125,1.822183 0.515625,2.667969 C 91.257883,12.778502 91.252673,12.88921 91.25,13 c 0.0013,3.655994 2.715503,6.695169 6.230469,6.976562 C 96.680886,21.154466 96.25119,22.559506 96.25,24 c 0.0012,2.788972 1.598722,5.311114 4.06641,6.419922 0.44446,3.476902 3.30153,6.075989 6.68359,6.080078 3.72792,0 6.75,-3.134007 6.75,-7 -8.2e-4,-0.183841 -0.009,-0.367577 -0.0234,-0.550781 0.25665,0.03227 0.51487,0.04923 0.7734,0.05078 3.72792,0 6.75,-3.134007 6.75,-7 -6.5e-4,-0.385487 -0.032,-0.770258 -0.0937,-1.150391 0.44194,0.09662 0.89211,0.147008 1.34375,0.150391 l 0.0371,-0.002 c 0.85158,2.965318 3.47937,4.999112 6.4629,5.002 0.60855,-6.6e-5 1.2143,-0.08548 1.80078,-0.253906 1.23712,2.025137 3.38753,3.252889 5.69922,3.253906 3.72792,0 6.75,-3.134007 6.75,-7 0,-3.865993 -3.02208,-7 -6.75,-7 -0.60855,6.6e-5 -1.2143,0.08548 -1.80078,0.253906 -1.10002,-1.799281 -2.9303,-2.981126 -4.97266,-3.210937 -0.015,-0.269148 -0.045,-0.537173 -0.0898,-0.802735 0.0732,-0.4091 0.11111,-0.824154 0.11324,-1.240234 -0.002,-0.676155 -0.0976,-1.3485037 -0.28516,-1.9960938 C 129.65308,7.3538081 129.74914,6.6787735 129.75,6 129.74899,5.5773929 129.71107,5.1557492 129.63672,4.7402344 129.70995,4.331136 129.74786,3.9160813 129.75,3.5 129.7498,3.3344719 129.744,3.1690032 129.7324,3.0039062 129.60707,1.2176666 128.8263,-0.45081309 127.55076,-1.6582031 126.81422,-4.7909471 124.10936,-6.996609 121,-7 c -1.04336,0.00123 -2.07225,0.2532684 -3.00586,0.7363281 C 117.06407,-6.7449071 116.0394,-6.9968971 115,-7 c -3.01595,0.00232 -5.66445,2.0791849 -6.48828,5.0878906 C 108.17709,-1.9677034 107.83889,-1.9970833 107.5,-2 c -0.95331,0.00296 -1.89521,0.215307 -2.76367,0.6230469 C 104.54327,-5.0895273 101.58518,-7.9978651 98,-8 Z M 64.626953,18.78125 c 0.264515,0.796433 0.665473,1.536817 1.183594,2.185547 -0.204763,0.207841 -0.396557,0.428991 -0.574219,0.662109 -0.04889,-0.981279 -0.296449,-1.940891 -0.726562,-2.816406 0.03915,-0.01005 0.07822,-0.02047 0.117187,-0.03125 z m 43.591797,0.675781 c -0.009,0.02599 -0.0183,0.05203 -0.0273,0.07813 -0.0194,-0.02292 -0.0389,-0.04571 -0.0586,-0.06836 0.0286,-0.0031 0.0573,-0.0063 0.0859,-0.0098 z m -77.363281,3.876953 c 0.676791,1.067548 1.622406,1.922655 2.734375,2.472657 C 31.811741,27.117073 30.753907,29.237833 30.75,31.5 c 2.7e-5,1.819256 0.683027,3.567036 1.904297,4.873047 C 31.960488,36.128242 31.232866,36.002244 30.5,36 c -0.536573,0.0025 -1.070944,0.07135 -1.591797,0.205078 -0.50012,-0.44702 -1.060778,-0.815528 -1.664062,-1.09375 0.0022,-0.03709 0.0042,-0.0742 0.0059,-0.111328 -0.0035,-2.693209 -1.496579,-5.145508 -3.839844,-6.306641 1.57319,-1.159281 2.592642,-2.96145 2.800782,-4.951171 C 26.793461,23.910856 27.395202,23.99757 28,24 c 0.987338,-0.0028 1.962072,-0.230109 2.855469,-0.666016 z m -15.113281,5.476563 c 0.270672,0.186303 0.55396,0.352098 0.847656,0.496094 -0.388424,0.286155 -0.74654,0.614155 -1.06836,0.978515 0.124024,-0.481977 0.198012,-0.976321 0.220704,-1.474609 z m -1.759766,4.396484 C 13.830489,33.791746 13.752363,34.394434 13.75,35 c 0.0017,0.678218 0.09839,1.352583 0.287109,2.001953 -0.590146,-0.879986 -1.36728,-1.607672 -2.271484,-2.126953 0.841079,-0.393051 1.59554,-0.960724 2.216797,-1.667969 z m 0.978516,5.777344 c 0.702369,1.051147 1.668992,1.882673 2.794921,2.404297 -0.0022,0.03709 -0.0042,0.0742 -0.0059,0.111328 9.41e-4,0.04168 0.0022,0.08335 0.0039,0.125 -0.625853,0.120531 -1.232119,0.332264 -1.800781,0.628906 -0.22631,-0.254068 -0.470466,-0.490392 -0.730463,-0.707031 C 15.238645,41.365023 15.247767,41.182592 15.25,41 15.249,40.3171 15.15158,39.638031 14.960938,38.984375 Z M 14.314453,56.087891 C 14.273819,56.390145 14.252289,56.694832 14.25,57 c 0.002,1.782019 0.659299,3.496159 1.837891,4.792969 -0.393014,0.118759 -0.774795,0.274348 -1.140625,0.464843 -0.744198,-0.837119 -1.67407,-1.473347 -2.708985,-1.853515 0.892698,-1.141803 1.416136,-2.546065 1.496094,-4.013672 0.197931,-0.0912 0.391514,-0.19223 0.580078,-0.302734 z m 22.087891,4.451171 C 36.302278,61.01915 36.251216,61.508827 36.25,62 c 4.5e-4,2.062557 0.878016,4.019928 2.398438,5.349609 0.296405,0.860032 0.752236,1.651599 1.341796,2.330079 C 39.833385,70.272878 39.752611,70.884919 39.75,71.5 c 0.0028,2.132194 0.942514,4.146822 2.552734,5.472656 -1.281758,1.290681 -2.017822,3.055691 -2.046875,4.908203 C 39.768166,80.629515 38.942033,79.551065 37.876953,78.775391 38.121851,78.043558 38.247913,77.274645 38.25,76.5 38.245961,72.728479 35.361339,69.638307 31.726562,69.511719 31.740393,69.3415 31.748211,69.170812 31.75,69 31.748183,68.542096 31.703045,68.085481 31.615234,67.636719 34.377804,66.691342 36.245551,64.016835 36.25,61 c -8e-4,-0.134874 -0.0054,-0.269696 -0.01367,-0.404297 0.05557,-0.01814 0.110915,-0.03702 0.166014,-0.05664 z M 21.107422,74.712891 c 0.530942,0.388053 1.113117,0.694599 1.728516,0.910156 -1.249823,0.841205 -2.196136,2.087618 -2.691407,3.544922 -0.879467,-1.391733 -2.208235,-2.413063 -3.748047,-2.88086 -0.124029,-0.389828 -0.280883,-0.767585 -0.46875,-1.128906 C 16.597086,75.38346 17.296287,75.498786 18,75.5 c 1.081659,-3.83e-4 2.147389,-0.270332 3.107422,-0.787109 z M 75,82.5 c -3.727922,0 -6.75,3.134007 -6.75,7 0.0023,3.017196 1.868518,5.693387 4.630859,6.640625 C 72.794605,96.588242 72.750776,97.043534 72.75,97.5 c 0.0029,0.776184 0.130315,1.546459 0.376953,2.279297 -0.165236,0.224633 -0.317207,0.459443 -0.455078,0.703123 C 72.185403,97.048857 69.346482,94.503303 66,94.5 c -3.692103,0.0019 -6.697675,3.079681 -6.746094,6.9082 -2.695858,0.9865 -4.500109,3.62715 -4.503906,6.5918 0,3.86599 3.022078,7 6.75,7 1.604725,-0.003 3.155785,-0.5996 4.375,-1.68164 0.609485,3.29594 3.388857,5.67955 6.625,5.68164 0.535266,-0.003 1.068307,-0.0717 1.587891,-0.20508 1.274374,1.40563 3.051677,2.20347 4.912109,2.20508 3.727922,0 6.75,-3.13401 6.75,-7 -0.0023,-2.01258 -0.839876,-3.92675 -2.298828,-5.25391 C 84.604897,107.45489 85.247164,105.76031 85.25,104 85.2471,103.22381 85.119685,102.45354 84.873047,101.7207 85.76308,100.50689 86.246568,99.024878 86.25,97.5 86.247731,94.482804 84.381482,91.806613 81.619141,90.859375 81.705395,90.411758 81.749224,89.956466 81.75,89.5 c 0,-3.865993 -3.022078,-7 -6.75,-7 z M 14.375,96.814453 c 0.01051,0.05156 0.02157,0.102996 0.0332,0.154297 -0.0628,-0.02507 -0.125958,-0.04916 -0.189453,-0.07227 0.05242,-0.02664 0.104511,-0.05399 0.156253,-0.08203 z m 57.453125,8.205077 0.002,0.0234 -0.01758,0.002 0.01563,-0.0254 z M 0.5,122 c -3.7279221,0 -6.75,3.13401 -6.75,7 0.00194,0.91574 0.1771251,1.82218 0.515625,2.66797 -0.00774,0.11053 -0.012952,0.22124 -0.015625,0.33203 0.00127,1.35531 0.3819057,2.6811 1.0957031,3.81641 C -6.8646342,137.02799 -8.2481818,139.4073 -8.25,142 c 0.00203,0.33675 0.027483,0.67291 0.076172,1.00586 -0.04815,0.32908 -0.073605,0.6613 -0.076172,0.99414 0.00248,1.03906 0.2279878,2.06451 0.6601562,3.00195 C -8.0214684,147.9382 -8.2469613,148.96226 -8.25,150 c 0.00323,1.93615 0.7795957,3.78445 2.1445312,5.10547 C -6.8506369,156.25737 -7.2490004,157.6129 -7.25,159 c 0.00286,1.92503 0.7700489,3.76387 2.1210938,5.08398 -0.4068802,0.91436 -0.6187318,1.909 -0.6210938,2.91602 0.00279,2.1322 0.9425136,4.14683 2.5527344,5.47266 -1.3121667,1.31859 -2.0528152,3.13251 -2.0527344,5.02734 0.00136,0.0958 0.00462,0.19149 0.00977,0.28711 -0.0043,0.0709 -0.00756,0.14188 -0.00977,0.21289 0.00238,3.10958 1.9825701,5.84477 4.86132812,6.71484 0.97957268,0.717 2.12562958,1.15048 3.32031248,1.25586 C 3.7462358,186.3193 4.6187713,186.49912 5.5,186.5 5.7448139,186.498 5.9893158,186.4812 6.2324219,186.4512 6.4871786,186.4826 6.7434537,186.4989 7,186.5 c 0.2835771,-0.003 0.5666902,-0.0245 0.8476562,-0.0644 0.8382782,0.372 1.7405418,0.56401 2.6523438,0.56445 0.418202,-0.002 0.83536,-0.0434 1.246094,-0.125 0.413298,0.0821 0.833094,0.12396 1.253906,0.125 0.133639,-0.003 0.267162,-0.0102 0.400391,-0.0215 1.111534,2.45157 3.487322,4.01793 6.099609,4.02148 0.309218,-0.003 0.617888,-0.0276 0.923828,-0.0742 1.071376,0.69867 2.310578,1.0709 3.576172,1.07422 3.727922,0 6.75,-3.13401 6.75,-7 -0.0026,-2.25045 -1.048387,-4.36237 -2.810547,-5.67578 0.531745,-1.02125 0.810284,-2.1636 0.810547,-3.32422 0,-3.86599 -3.022078,-7 -6.75,-7 -1.361608,0.003 -2.690617,0.43225 -3.8125,1.23242 -0.257972,-0.62384 -0.602069,-1.20544 -1.021484,-1.72656 C 18.189162,167.24419 18.7501,165.64852 18.75,164 c -0.0016,-0.67615 -0.09764,-1.3485 -0.285156,-1.99609 0.188237,-0.6501 0.284294,-1.32514 0.285156,-2.00391 -0.0014,-0.59327 -0.0756,-1.18394 -0.220703,-1.75781 0.09399,-0.38186 0.15671,-0.77126 0.1875,-1.16407 0.731898,0.27617 1.504365,0.41891 2.283203,0.42188 3.727922,0 6.75,-3.13401 6.75,-7 -0.0012,-1.12349 -0.263121,-2.23018 -0.763672,-3.22656 2.303244,-1.17833 3.762124,-3.61005 3.763672,-6.27344 0,-3.86599 -3.022078,-7 -6.75,-7 -0.259262,0.003 -0.518155,0.021 -0.775391,0.0547 0.01553,-0.18448 0.02401,-0.36952 0.02539,-0.55469 0,-3.86599 -3.022078,-7 -6.75,-7 -0.294093,0.003 -0.587687,0.0258 -0.878906,0.0684 C 14.519448,124.09124 12.130485,122.50341 9.5,122.5 9.0817983,122.502 8.66464,122.5434 8.2539062,122.625 7.8406085,122.54289 7.4208122,122.50104 7,122.5 6.6618582,122.502 6.3243194,122.5298 5.9902344,122.584 5.6625937,122.5308 5.3316193,122.50273 5,122.5 4.4694603,122.503 3.9410737,122.5702 3.4257812,122.70117 2.51366,122.24259 1.5136567,122.00294 0.5,122 Z m 65.5,4.5 c -3.727922,0 -6.75,3.13401 -6.75,7 0.0025,1.28042 0.343698,2.53559 0.986328,3.62891 -3.18151,0.62879 -5.483946,3.51236 -5.486328,6.87109 0.0036,3.41755 2.386351,6.33282 5.636719,6.89648 -1.361575,1.32196 -2.134995,3.16927 -2.136719,5.10352 0,3.86599 3.022078,7 6.75,7 3.727922,0 6.75,-3.13401 6.75,-7 -5.49e-4,-2.30266 -1.093072,-4.45776 -2.921875,-5.76367 2.910138,-0.84909 4.920988,-3.60124 4.921875,-6.73633 -1.52e-4,-0.87498 -0.158486,-1.74217 -0.466797,-2.55664 3.398384,-0.4117 5.962222,-3.39515 5.966797,-6.94336 0,-3.86599 -3.022078,-7 -6.75,-7 -0.970638,0.003 -1.929281,0.22262 -2.810547,0.64453 C 68.592895,126.89959 67.310895,126.50189 66,126.5 Z M 4.6582031,137.88086 c 0.1770848,0.50865 0.4104119,0.99431 0.6953125,1.44726 -0.02577,0.1425 -0.047265,0.2858 -0.064453,0.42969 -0.1458218,-0.0442 -0.2930411,-0.0833 -0.4414063,-0.11719 -0.175799,-0.51194 -0.4084859,-1.00091 -0.6933593,-1.45703 0.17209,-0.0934 0.3402152,-0.19435 0.5039061,-0.30273 z M 99.5,143.5 c -3.727922,0 -6.75,3.13401 -6.75,7 0.0016,2.037 0.858662,3.97225 2.347656,5.30078 -0.22839,0.70912 -0.345762,1.4516 -0.347656,2.19922 0.0025,1.28042 0.343698,2.53559 0.986328,3.62891 -3.18151,0.62879 -5.483946,3.51236 -5.486328,6.87109 0.0036,2.16835 0.975896,4.21257 2.632812,5.53516 -1.560077,0.14824 -3.021853,0.85462 -4.134765,1.99804 C 87.485613,174.73301 85.779222,174.0023 84,174 c -3.727922,0 -6.75,3.13401 -6.75,7 0,3.86599 3.022078,7 6.75,7 1.780576,-0.001 3.488558,-0.73202 4.751953,-2.0332 0.08629,0.0884 0.174866,0.17436 0.265625,0.25781 -2.30537,1.1775 -3.766012,3.61039 -3.767578,6.27539 0,3.86599 3.022078,7 6.75,7 0.311175,-0.002 0.621812,-0.0273 0.929688,-0.0742 -0.11718,0.51598 -0.177463,1.0441 -0.179688,1.5742 0.0039,3.76924 2.885104,6.8585 6.517578,6.98828 0.247262,3.6671 3.187662,6.5111 6.732422,6.51172 3.72792,0 6.75,-3.13401 6.75,-7 -5.5e-4,-0.0241 -0.001,-0.0482 -0.002,-0.0723 1.20133,1.01462 2.70267,1.56979 4.252,1.5723 3.72792,0 6.75,-3.13401 6.75,-7 0,-3.86599 -3.02208,-7 -6.75,-7 -0.25926,0.003 -0.51815,0.021 -0.77539,0.0547 0.0155,-0.18448 0.024,-0.36952 0.0254,-0.55469 -0.002,-2.01258 -0.83988,-3.92675 -2.29883,-5.25391 l 0.006,-0.006 c 0.94286,0.49703 1.98515,0.75732 3.04282,0.7599 3.72792,0 6.75,-3.13401 6.75,-7 -0.003,-2.13219 -0.94251,-4.14682 -2.55273,-5.47266 1.31217,-1.31859 2.05281,-3.13251 2.05273,-5.02734 0,-3.86599 -3.02208,-7 -6.75,-7 -0.19107,0.001 -0.382,0.0111 -0.57227,0.0293 2.60362,-1.04076 4.32136,-3.63561 4.32227,-6.5293 -0.004,-2.97101 -1.81555,-5.61592 -4.51953,-6.59766 0.0102,-0.13389 0.0167,-0.26806 0.0195,-0.40234 0,-3.86599 -3.02208,-7 -6.75,-7 -1.4568,0.003 -2.8737,0.49382 -4.03906,1.40039 C 103.69398,144.58195 101.66332,143.50343 99.5,143.5 Z m -81.621094,0.43164 c 0.04271,0.0994 0.08764,0.19771 0.134766,0.29492 -0.162337,0.0845 -0.321321,0.17568 -0.476563,0.27344 0.122613,-0.18369 0.236676,-0.37336 0.341797,-0.56836 z M 5.5039062,154.625 c -0.075382,0.28369 -0.1334398,0.57202 -0.1738281,0.86328 -0.099455,-0.17664 -0.2063284,-0.34868 -0.3203125,-0.51562 0.1695781,-0.10827 0.3344529,-0.22427 0.4941406,-0.34766 z M 112.62109,165.93359 c 0.29126,0.042 0.58486,0.0641 0.87891,0.0664 0.19107,-0.001 0.382,-0.0111 0.57227,-0.0293 -2.0575,0.82532 -3.59627,2.64121 -4.1211,4.86328 -0.59209,-0.44728 -1.25044,-0.79162 -1.94922,-1.01953 2.0357,-0.48298 3.74121,-1.9159 4.61914,-3.88086 z m -8.92773,3.42383 c 0.26119,0.1271 0.52997,0.2367 0.80469,0.32813 -0.30593,0.07 -0.60679,0.16204 -0.90039,0.27539 0.0404,-0.19963 0.0723,-0.401 0.0957,-0.60352 z m -4.291016,5.68164 c -0.100066,0.48009 -0.151128,0.96977 -0.152344,1.46094 0.0021,0.32687 0.02622,0.65319 0.07227,0.97656 -0.438201,-0.77813 -1.017157,-1.46121 -1.705078,-2.01172 0.610944,-0.0572 1.211524,-0.20039 1.785152,-0.42578 z m 0.775386,4.98438 c 0.57276,1.01672 1.38359,1.86717 2.35743,2.47265 -0.0874,0.30996 -0.15392,0.62583 -0.19922,0.94532 C 101.58856,183.15229 100.79768,183.00284 100,183 l -0.03516,0.002 c 0.18806,-0.64949 0.28412,-1.32387 0.28516,-2.002 -0.002,-0.32687 -0.0262,-0.65319 -0.0723,-0.97656 z m 10.09766,21.42187 c -0.0155,0.18448 -0.024,0.36952 -0.0254,0.55469 5.5e-4,0.0241 0.001,0.0482 0.002,0.0723 -0.25137,-0.2109 -0.51703,-0.4028 -0.79492,-0.57422 0.0143,7.1e-4 0.0287,0.001 0.043,0.002 0.25926,-0.003 0.51815,-0.021 0.77539,-0.0547 z M 211,242 c -2.65875,0.003 -5.06825,1.62392 -6.1543,4.14062 -0.4429,-0.0935 -0.89372,-0.14059 -1.3457,-0.14062 -0.53527,0.003 -1.06831,0.0717 -1.58789,0.20508 C 200.63774,244.79945 198.86043,244.00161 197,244 c -3.72792,0 -6.75,3.13401 -6.75,7 0.002,1.05579 0.23446,2.09741 0.67969,3.04688 -0.30775,0.47115 -0.55896,0.97946 -0.74805,1.51367 -3.38302,0.4285 -5.9273,3.40507 -5.93164,6.93945 0.001,3.36725 2.3145,6.25631 5.50586,6.87695 -0.002,0.041 -0.004,0.082 -0.006,0.12305 0,3.86599 3.02208,7 6.75,7 0.81281,-10e-4 1.61871,-0.15478 2.37891,-0.45312 0.89523,1.08381 2.08851,1.85797 3.41992,2.21874 0.29835,2.807 2.19392,5.15317 4.80664,5.94922 0.10456,0.33376 0.23318,0.6589 0.38476,0.97266 -3.06293,0.72899 -5.23555,3.55355 -5.24009,6.8125 0.003,1.64449 0.56333,3.23555 1.58398,4.49414 -1.02314,1.26167 -1.58408,2.85734 -1.58398,4.50586 0.002,1.76099 0.64466,3.45635 1.79883,4.74805 -1.45846,1.32671 -2.29595,3.24005 -2.29883,5.25195 0,3.86599 3.02208,7 6.75,7 0.31118,-0.002 0.62181,-0.0273 0.92969,-0.0742 -0.11718,0.51599 -0.17747,1.04412 -0.17969,1.57422 0.003,2.97048 1.81437,5.61524 4.51758,6.59766 -0.01,0.13391 -0.0155,0.26808 -0.0176,0.40234 1.4e-4,0.85807 0.15241,1.7088 0.44922,2.50977 -0.29454,0.79483 -0.44676,1.63872 -0.4492,2.49021 0.002,1.03972 0.22772,2.06588 0.66016,3.00391 -0.10509,0.49128 -0.15878,0.99287 -0.16016,1.49609 0.003,2.14902 0.95793,4.17747 2.58984,5.50195 1.28058,1.5812 3.16901,2.4954 5.16016,2.49805 2.1113,-0.003 4.09944,-1.03108 5.37305,-2.77734 1.63133,-1.18682 2.67361,-3.06051 2.84765,-5.11914 0.97021,1.6774 2.57294,2.85731 4.41992,3.2539 1.27205,1.36885 3.02624,2.1423 4.85938,2.14258 0.90654,-0.003 1.80328,-0.19459 2.63672,-0.56445 0.28613,0.0406 0.57449,0.0621 0.86328,0.0645 3.72792,0 6.75,-3.13401 6.75,-7 l -0.002,-0.0293 c 1.27999,-1.31362 2.00076,-3.10319 2.002,-4.9707 -0.003,-1.22883 -0.31727,-2.43527 -0.91211,-3.49805 0.59548,-1.06392 0.91008,-2.2718 0.91211,-3.50195 -0.003,-1.6845 -0.59184,-3.31134 -1.6582,-4.58203 0.7543,-1.15693 1.15765,-2.52141 1.1582,-3.91797 -0.002,-2.01258 -0.83988,-3.92675 -2.29883,-5.25391 1.15373,-1.2912 1.79599,-2.98578 1.79883,-4.74609 -0.004,-2.40242 -1.19526,-4.635 -3.15625,-5.91406 1.0665,-1.27199 1.6546,-2.90035 1.65625,-4.58594 -0.003,-0.98614 -0.20645,-1.96055 -0.59766,-2.85938 0.0625,-0.3768 0.0952,-0.75829 0.0977,-1.14062 -0.001,-1.32128 -0.3626,-2.61529 -1.04297,-3.73242 0.0279,-0.25485 0.0422,-0.5111 0.043,-0.76758 -0.003,-1.69612 -0.60002,-3.33337 -1.67969,-4.60742 1.23511,-1.30664 1.92778,-3.06286 1.92969,-4.89258 -0.002,-0.32491 -0.0265,-0.64927 -0.0723,-0.9707 0.0229,-0.01 0.0457,-0.0194 0.0684,-0.0293 l 0.004,0 c 0.16882,-6e-4 0.33756,-0.008 0.50586,-0.0215 1.05288,0.66499 2.26126,1.01827 3.49404,1.0215 3.72792,0 6.75,-3.13401 6.75,-7 0,-3.86599 -3.02208,-7 -6.75,-7 -0.16882,6e-4 -0.33756,0.008 -0.50586,0.0215 C 250.44123,260.35649 249.23281,260.00321 248,260 c -0.85506,10e-4 -1.70211,0.17089 -2.49609,0.5 l -0.004,0 c -0.50244,0.003 -1.00293,0.065 -1.49219,0.18359 -0.49432,-0.1198 -1.00009,-0.18138 -1.50772,-0.18359 -0.53657,0.003 -1.07095,0.0713 -1.5918,0.20508 -1.22466,-1.09822 -2.78917,-1.70336 -4.4082,-1.70508 -0.90458,8e-5 -1.79991,0.18871 -2.63281,0.55469 -0.9598,-1.76202 -2.60796,-3.00705 -4.51953,-3.41407 -0.95995,-2.78071 -3.49961,-4.6374 -6.34766,-4.64062 -0.6325,0.001 -1.2617,0.0945 -1.86914,0.27734 0.0773,-0.4211 0.11722,-0.84868 0.11914,-1.27734 -8.2e-4,-3.5784 -2.60396,-6.58002 -6.03516,-6.95898 C 214.01938,242.54593 212.53292,242.00245 211,242 Z m -2.5,22.18945 c 0.15375,0.17643 0.31607,0.34462 0.48633,0.50391 -0.15439,0.58895 -0.23384,1.19632 -0.23633,1.80664 l 0.002,0.0352 c -0.45684,-0.47149 -0.97644,-0.8727 -1.54297,-1.19141 0.47565,-0.32664 0.90945,-0.7145 1.29102,-1.1543 z m 13.74414,2.45313 c 0.31801,0.53926 0.70499,1.03136 1.15039,1.46289 -0.37728,0.58374 -0.66764,1.22307 -0.86133,1.89648 L 222.5,270 c -0.41417,10e-4 -0.82737,0.0415 -1.23438,0.12109 0.61492,-1.05034 0.9524,-2.25004 0.97852,-3.47851 z M 129,268.5 c -3.72792,0 -6.75,3.13401 -6.75,7 0.003,2.69484 1.49835,5.14832 3.84375,6.30859 -0.22627,0.70685 -0.34231,1.44663 -0.34375,2.19141 0,3.86599 3.02208,7 6.75,7 3.72792,0 6.75,-3.13401 6.75,-7 -0.003,-0.23758 -0.017,-0.47487 -0.043,-0.71094 0.73876,0.52109 1.56993,0.88489 2.44531,1.07032 0.95995,2.78072 3.49963,4.63741 6.34769,4.64062 0.27963,-0.003 0.55881,-0.0237 0.83594,-0.0625 -0.0546,0.35139 -0.0834,0.70658 -0.0859,1.0625 0.003,0.77618 0.13031,1.54646 0.37695,2.2793 -1.38356,1.00593 -2.353,2.5134 -2.71679,4.22461 -1.53168,0.0224 -3.01045,0.58445 -4.19336,1.59375 -0.85586,-0.39236 -1.78104,-0.59588 -2.7168,-0.59766 -2.81753,0.004 -5.33647,1.82183 -6.31836,4.56055 -1.24976,0.15687 -2.43231,0.67305 -3.41406,1.49023 -1.12044,-1.16025 -2.59853,-1.8751 -4.17578,-2.01953 -0.66705,-3.2235 -3.41266,-5.52737 -6.5918,-5.53125 -3.72792,0 -6.75,3.13401 -6.75,7 0.001,0.0384 0.002,0.0768 0.004,0.11523 -0.53335,-0.24681 -1.09534,-0.42078 -1.67188,-0.51757 1.07326,-1.2733 1.66573,-2.90649 1.66788,-4.59766 0,-3.86599 -3.02208,-7 -6.75,-7 -3.72792,0 -6.75,3.13401 -6.75,7 0.0034,3.43017 2.40308,6.35248 5.66797,6.90234 -1.07329,1.27328 -1.66579,2.90647 -1.66797,4.59766 0,3.86599 3.02208,7 6.75,7 3.72792,0 6.75,-3.13401 6.75,-7 -0.001,-0.0384 -0.002,-0.0768 -0.004,-0.11523 0.68442,0.31786 1.41513,0.51522 2.16211,0.58398 0.0546,0.26302 0.12367,0.52257 0.20703,0.77734 -0.19792,0.6056 -0.31489,1.23647 -0.34765,1.875 -3.19669,0.61566 -5.51591,3.50714 -5.51749,6.87891 0.001,2.79616 1.6069,5.32334 4.08398,6.42773 -0.0545,0.35466 -0.0825,0.71314 -0.084,1.07227 -6e-5,1.1068 0.25295,2.19784 0.73828,3.18359 -0.15586,0.59202 -0.23598,1.20273 -0.23828,1.81641 0.002,1.30125 0.35369,2.57618 1.01562,3.68164 -0.008,0.10598 -0.0127,0.21213 -0.0156,0.31836 0.004,3.41293 2.37999,6.32571 5.625,6.89453 1.08221,0.71885 2.33983,1.10237 3.625,1.10547 3.50075,-0.002 6.41888,-2.77959 6.7207,-6.39648 1.21876,2.10487 3.4118,3.39372 5.7793,3.39648 0.21467,-0.002 0.42911,-0.0154 0.64258,-0.0391 1.19825,2.18462 3.43388,3.5354 5.85742,3.53906 1.08034,-10e-4 2.14466,-0.27096 3.10352,-0.78711 0.61577,0.18876 1.25437,0.28544 1.89648,0.28711 3.72792,0 6.75,-3.13401 6.75,-7 -0.003,-1.6845 -0.59184,-3.31134 -1.6582,-4.58203 0.7543,-1.15693 1.15765,-2.52141 1.1582,-3.91797 -0.004,-3.28682 -2.21226,-6.12821 -5.30859,-6.83008 1.7598,-1.31264 2.80462,-3.4219 2.80859,-5.66992 -0.003,-3.13778 -2.01948,-5.89001 -4.93359,-6.73438 1.41386,-1.00619 2.40546,-2.53269 2.77343,-4.26953 3.69132,-0.051 6.65842,-3.16771 6.66016,-6.99609 -0.003,-0.77618 -0.13031,-1.54646 -0.37695,-2.2793 1.79975,-1.30758 2.87307,-3.44184 2.87695,-5.7207 -0.002,-0.33675 -0.0275,-0.67291 -0.0762,-1.00586 1.01783,-1.25972 1.5758,-2.85066 1.57617,-4.49414 -6.4e-4,-2.82629 -1.64013,-5.37491 -4.15625,-6.46094 -0.66413,-3.22735 -3.41159,-5.53534 -6.59375,-5.53906 -1.511,0.001 -2.97796,0.52789 -4.16602,1.49609 -1.20464,-2.16056 -3.42739,-3.49257 -5.83398,-3.49609 -1.30405,3.8e-4 -2.58008,0.39248 -3.67383,1.12891 C 138.11266,270.57712 136.58154,270.00062 135,270 c -0.53657,0.003 -1.07095,0.0713 -1.5918,0.20508 C 132.18354,269.10686 130.61903,268.50172 129,268.5 Z m 87.73438,4.87891 c -0.37962,0.64749 -0.65535,1.35461 -0.81641,2.09375 -0.17193,-0.0699 -0.34656,-0.13245 -0.52344,-0.1875 -0.21606,-0.67065 -0.52885,-1.30349 -0.92773,-1.87696 0.34162,0.058 0.68704,0.0887 1.0332,0.0918 0.41417,-10e-4 0.82737,-0.0415 1.23438,-0.12109 z m 11.01757,8.00781 c -0.11142,0.27858 -0.20537,0.56433 -0.28125,0.85547 -0.0565,-0.10837 -0.11578,-0.21518 -0.17773,-0.32031 0.1617,-0.17015 0.31489,-0.34877 0.45898,-0.53516 z m -0.0957,6.96875 c 0.19926,0.58154 0.47181,1.13319 0.81055,1.64062 -0.79105,1.17411 -1.21575,2.57161 -1.2168,4.00391 0.003,1.64449 0.56333,3.23555 1.58398,4.49414 -1.02314,1.26167 -1.58408,2.85734 -1.58398,4.50586 0.003,0.49335 0.0558,0.98501 0.1582,1.4668 -1.03314,-0.63038 -2.20951,-0.96408 -3.4082,-0.9668 -1.53314,8.8e-4 -3.02032,0.54299 -4.2168,1.53711 0.30601,-0.80835 0.4643,-1.6687 0.4668,-2.53711 l 0,-0.0137 c 0.0832,0.006 0.16659,0.0107 0.25,0.0137 3.72792,0 6.75,-3.13401 6.75,-7 -0.002,-1.64516 -0.56292,-3.23699 -1.58398,-4.49609 0.86078,-0.70229 1.54384,-1.61126 1.99023,-2.64844 z m -12.16797,0.32617 c 0.23316,0.46985 0.51686,0.91081 0.8457,1.31445 -0.25228,0.20802 -0.48986,0.43451 -0.71093,0.67774 -0.11893,-0.64728 -0.32539,-1.27391 -0.61328,-1.86133 0.16099,-0.0375 0.3206,-0.0812 0.47851,-0.13086 z M 187.5,295.5 c -3.72792,0 -6.75,3.13401 -6.75,7 0.001,1.06663 0.23795,2.1188 0.69141,3.07617 -0.3117,-0.0481 -0.62628,-0.0736 -0.94141,-0.0762 -3.72792,0 -6.75,3.13401 -6.75,7 0.001,2.54475 1.33368,4.88848 3.48047,6.12109 -0.40572,-0.0793 -0.81761,-0.11984 -1.23047,-0.12109 -3.72792,0 -6.75,3.13401 -6.75,7 0.003,0.24283 0.0178,0.48534 0.0449,0.72656 -0.0287,0.25676 -0.0437,0.51496 -0.0449,0.77344 0.002,0.67615 0.0976,1.3485 0.28516,1.99609 -0.18824,0.6501 -0.2843,1.32514 -0.28516,2.00391 0.001,0.42261 0.0389,0.84425 0.11328,1.25977 -0.0732,0.4091 -0.11114,0.82415 -0.11328,1.24023 0.002,0.94293 0.18835,1.87565 0.54688,2.74219 -0.36052,0.87137 -0.54658,1.80962 -0.54688,2.75781 0,3.86599 3.02208,7 6.75,7 0.33814,-0.002 0.67568,-0.0298 1.00977,-0.084 0.32764,0.0532 0.65861,0.0813 0.99023,0.084 2.66557,-0.003 5.07997,-1.63195 6.16211,-4.1582 0.79489,0.38242 1.65397,0.60067 2.5293,0.64258 0.99481,2.71756 3.50561,4.51477 6.30859,4.51562 0.87362,-0.002 1.73858,-0.17968 2.54688,-0.52344 0.15074,0.0131 0.30187,0.0209 0.45312,0.0234 3.72792,0 6.75,-3.13401 6.75,-7 -0.003,-1.40468 -0.41328,-2.77596 -1.17773,-3.93555 0.11582,-0.51289 0.17544,-1.03769 0.17773,-1.56445 -0.002,-1.38182 -0.39807,-2.73215 -1.13867,-3.88086 -0.008,-0.0378 -0.0166,-0.0756 -0.0254,-0.11328 0.43407,-0.9383 0.66093,-1.96517 0.66407,-3.00586 0,-3.86599 -3.02208,-7 -6.75,-7 l -0.004,0 c 2.56715,-1.05958 4.25241,-3.63466 4.25391,-6.5 -0.004,-3.47163 -2.46101,-6.41571 -5.77344,-6.91797 0.82602,-1.18891 1.27143,-2.61667 1.27344,-4.08203 0,-3.86599 -3.02208,-7 -6.75,-7 z m 30.2168,12.46289 c -0.30601,0.80835 -0.4643,1.6687 -0.4668,2.53711 0.003,0.75123 0.12214,1.4971 0.35352,2.20898 -0.52451,-0.13601 -1.06287,-0.20617 -1.60352,-0.20898 -0.31118,0.002 -0.62181,0.0273 -0.92969,0.0742 0.11718,-0.51599 0.17747,-1.04412 0.17969,-1.57422 -0.002,-0.57175 -0.0715,-1.1411 -0.20703,-1.69531 0.9763,-0.23582 1.88969,-0.69419 2.67383,-1.3418 z m 21.30664,0.25586 c 0.16561,0.18817 0.341,0.36682 0.52539,0.53516 -0.12337,0.13824 -0.2413,0.28158 -0.35352,0.42968 -0.0355,-0.32539 -0.0929,-0.64779 -0.17187,-0.96484 z m -98.67969,3.2168 c -0.0118,0.011 -0.0235,0.0221 -0.0352,0.0332 l 0.01,-0.0293 0.0254,-0.004 z m -1.65234,2.5957 c -0.14507,0.39767 -0.2549,0.80822 -0.32813,1.22656 -0.14278,-0.19501 -0.29534,-0.38211 -0.45703,-0.56054 0.27746,-0.20127 0.53992,-0.42391 0.78516,-0.66602 z m 47.26367,2.57813 c 1.13891,2.38221 3.48095,3.8896 6.04492,3.89062 l 0.0234,0 c -1.57922,0.64718 -2.86521,1.88785 -3.60156,3.47461 -0.25833,-0.10267 -0.5225,-0.18876 -0.79102,-0.25781 -0.40815,-2.25396 -1.85506,-4.15764 -3.87305,-5.09571 0.86567,-0.49558 1.61577,-1.18233 2.19727,-2.01171 z m -59.69141,3.26171 c 0.005,0.0874 0.0114,0.17461 0.0195,0.26172 -0.0208,-0.003 -0.0417,-0.007 -0.0625,-0.01 0.005,-0.0813 0.009,-0.1627 0.0117,-0.24414 l 0.0312,-0.008 z m 103.21094,8.40625 c 0.0214,0.0812 0.0442,0.16189 0.0684,0.24219 -0.0463,-0.0699 -0.0939,-0.13892 -0.14258,-0.20703 0.0248,-0.0116 0.0495,-0.0233 0.0742,-0.0352 z m -97.04688,3.94727 c 0.30698,0.16374 0.62563,0.30282 0.95313,0.41601 -0.0471,0.24985 -0.081,0.50218 -0.10156,0.75586 -0.24348,-0.42048 -0.52891,-0.81326 -0.85157,-1.17187 z" inkscape:connector-curvature="0" />
</g>
<g inkscape:groupmode="layer" id="routes_layer" inkscape:label="Routes" style="display:inline" sodipodi:insensitive="true" >
  <path style="display:inline;fill:none;stroke:#000000;stroke-width:2;stroke-linecap:round;stroke-miterlimit:4;stroke-dasharray:0.1, 5;stroke-dashoffset:0;stroke-opacity:1" d="M 194.17451,152.51725 C 197.63016,125.86108 219.53498,118.125 236.25,118.125 l 11.25,0 M 84.374999,-5.1999996e-7 84.374999,11.249999 c 0,3.75 1.5581,10.05476 1.76777,13.19454 0.73051,10.93942 22.090561,22.62982 17.460271,34.76688 -12.734631,33.380399 20.90141,46.126921 12.69163,59.447851 -5.93837,9.63542 -37.85641,19.77004 -34.41967,38.46573 3.416275,18.58436 -25.627962,29.87383 -29.66789,8.66421 C 44.70711,126.41421 23.25586,118.125 11.25,118.125 l -11.25,0 m 68.853289,58.46205 c 10.753913,37.27719 38.371301,39.92317 31.795681,69.47066 -6.378455,28.66149 47.43885,4.95517 69.6711,22.77934 13.49164,10.8166 -7.19507,34.46383 -7.19507,57.41295 l 0,11.25" inkscape:connector-curvature="0" />
</g>
<g inkscape:groupmode="layer" id="labels_layer" inkscape:label="Labels" style="display:inline" sodipodi:insensitive="true" >
  <text xml:space="preserve"><textPath xlink:href="#oneear_cove"><tspan
  style="-inkscape-font-specification:'CCTreasureTroveAged, Normal';font-family:CCTreasureTroveAged;font-weight:normal;font-style:normal;font-stretch:normal;font-variant:normal;font-size:8.75px;text-anchor:start;text-align:start;writing-mode:lr;line-height:125%"
  >One-Ear Cove</tspan></textPath></text>
</g>
<g inkscape:groupmode="layer" id="labels_guide_layer" inkscape:label="Labels Guide" style="display:none" sodipodi:insensitive="true" >
  <path id="oneear_cove" style="color:#000000;fill:none;stroke:#000000;stroke-width:1;stroke-opacity:1" d="M 165.91016,103.62009 C 149.24695,87.8913 130.15876,76.474771 131.19132,47.233332" inkscape:connector-curvature="0" />
</g>
<g inkscape:groupmode="layer" id="resources_layer" inkscape:label="Resources" style="display:inline" sodipodi:insensitive="true" >
  <g id="resource-squid" transform="matrix(-0.99811589,-0.06135693,0.06135693,-0.99811589,201.05077,43.602976)" >
    <path style="color:#000000;clip-rule:nonzero;display:inline;overflow:visible;visibility:visible;opacity:1;isolation:auto;mix-blend-mode:normal;color-interpolation:sRGB;color-interpolation-filters:linearRGB;solid-color:#000000;solid-opacity:1;fill:#ffffff;fill-opacity:1;fill-rule:evenodd;stroke:none;stroke-width:0.89999998;stroke-linecap:round;stroke-linejoin:miter;stroke-miterlimit:4;stroke-dasharray:none;stroke-dashoffset:0;stroke-opacity:1;color-rendering:auto;image-rendering:auto;shape-rendering:auto;text-rendering:auto;enable-background:accumulate" d="m 3.751377,-125.43036 -1.988737,1.32582 -2.342292,2.2981 -1.988737,2.43068 -1.104855,2.2981 -0.707107,1.90035 0,1.14905 1.679379,0 -0.397747,1.98873 -0.574525,2.47488 -0.08839,2.34229 -0.08839,1.72357 0.839689,0.70711 1.767767,0.39775 1.856155,0.0442 1.414214,-0.17678 1.414213,-0.57453 0.309359,-0.83968 0.30936,-2.3423 -0.30936,-2.69584 -0.176776,-2.65165 1.723573,0.53033 0.04419,-2.20971 -0.220971,-3.7565 -0.397748,-3.27037 z" inkscape:connector-curvature="0" />
    <path style="fill:#000000;fill-opacity:1;fill-rule:evenodd;stroke:none;stroke-width:0.89999998;stroke-linecap:round;stroke-linejoin:miter;stroke-miterlimit:4;stroke-dasharray:none;stroke-opacity:1" d="m -11.427734,-116.71094 c -0.926654,0.068 -1.828354,0.58 -2.47461,0.98633 l 0.564453,0.62305 c 0.129027,-0.0692 1.250128,-0.8819 2,-0.93164 0.346707,-0.0382 0.804167,0.0783 1.076172,0.39453 0.868797,0.83085 0.783149,2.35847 0.419922,4.20312 -0.329865,1.37596 -0.389964,2.87205 -0.115234,4.36719 0.175945,1.03446 0.565056,2.09121 1.236328,2.96484 0.238071,-0.17566 0.474836,-0.35332 0.707031,-0.53906 0.01663,-0.0136 0.035924,-0.0238 0.052734,-0.0371 -0.6103851,-0.73211 -0.9647481,-1.69528 -1.1601561,-2.53906 -0.328551,-1.46718 -0.279657,-2.86872 -0.0332,-4.05078 0.451937,-2.07874 0.307063,-3.74395 -0.642578,-4.80469 -0.4323489,-0.47732 -1.0683939,-0.67465 -1.6308589,-0.63672 z" inkscape:connector-curvature="0" />
    <path style="fill:#000000;fill-opacity:1;fill-rule:evenodd;stroke:none;stroke-width:0.89999998;stroke-linecap:round;stroke-linejoin:miter;stroke-miterlimit:4;stroke-dasharray:none;stroke-opacity:1" d="m -3.796875,-104.89258 c -0.9058673,0.74517 -1.9188533,1.2608 -2.7324219,1.16406 -0.2030019,0.0833 -0.4030106,0.17309 -0.5839843,0.29102 -0.166691,0.11469 -0.3464295,0.21948 -0.5195313,0.33008 1.7036649,0.94245 3.731315,0.084 4.8828125,-1.03906 -0.3560506,-0.22586 -0.7057338,-0.47583 -1.046875,-0.7461 z" inkscape:connector-curvature="0" />
    <path style="fill:#000000;fill-opacity:1;fill-rule:evenodd;stroke:none;stroke-width:0.89999998;stroke-linecap:round;stroke-linejoin:miter;stroke-miterlimit:4;stroke-dasharray:none;stroke-opacity:1" d="m 4.1640625,-105.46289 c -0.327423,-0.0235 -0.6594367,-0.0232 -0.9921875,0.002 0.078825,0.37091 0.1521001,0.74306 0.2207031,1.11524 1.064043,-0.1503 2.1844576,0.0295 3.203125,0.45898 0.5236021,0.21983 1.046713,0.50703 1.5820313,0.79883 0.1250671,-0.19964 0.2209286,-0.4272 0.3164062,-0.65625 -0.4965073,-0.32152 -0.99925,-0.64667 -1.5488281,-0.92969 -0.8521322,-0.43734 -1.7989811,-0.71849 -2.78125,-0.78906 z" inkscape:connector-curvature="0" />
    <path style="fill:#000000;fill-opacity:1;fill-rule:evenodd;stroke:none;stroke-width:0.89999998;stroke-linecap:round;stroke-linejoin:miter;stroke-miterlimit:4;stroke-dasharray:none;stroke-opacity:1" d="m 9.625,-103.05469 c -0.082921,0.19334 -0.1803086,0.37972 -0.2832031,0.56446 1.0688811,0.48073 2.1976941,0.84215 3.3593751,1.0332 0.499799,0.10355 1.072452,0.1837 1.636719,0.125 0.45283,-0.10452 0.877972,-0.29289 1.207031,-0.60938 -0.854133,0.55171 -1.887915,0.33226 -2.777344,0.11524 -1.10459,-0.26639 -2.156407,-0.6956 -3.142578,-1.22852 z" inkscape:connector-curvature="0" />
    <path style="fill:#000000;fill-opacity:1;fill-rule:evenodd;stroke:none;stroke-width:0.89999998;stroke-linecap:round;stroke-linejoin:miter;stroke-miterlimit:4;stroke-dasharray:none;stroke-opacity:1" d="m 10.445312,-116.39648 c -0.400021,0.0106 -0.806202,0.0811 -1.207031,0.23632 -0.999585,0.47508 -1.487003,1.70748 -1.054687,2.81641 0.73612,1.87741 1.421348,4.07068 1.230468,6.24023 -0.185513,1.89331 -0.460829,3.94627 -1.800781,5.00196 -0.0014,0.001 -0.0025,0.003 -0.0039,0.004 0.320059,0.10607 0.638919,0.21521 0.96875,0.33985 1.230198,-1.44937 1.504195,-3.41815 1.582031,-5.29297 0.119976,-2.35443 -0.620703,-4.61346 -1.384765,-6.52539 -0.32491,-0.80541 0.06377,-1.75045 0.714844,-1.97071 1.477232,-0.63585 3.318013,0.63156 3.894531,1.04493 0.06075,-0.3217 0.119158,-0.65295 0.167968,-0.99219 -0.763734,-0.42041 -1.907357,-0.9341 -3.107422,-0.90234 z" inkscape:connector-curvature="0" />
    <path style="fill:#000000;fill-opacity:1;fill-rule:evenodd;stroke:none;stroke-width:0.89999998;stroke-linecap:round;stroke-linejoin:miter;stroke-miterlimit:4;stroke-dasharray:none;stroke-opacity:1" d="m 2.6855469,-104.19922 -1.3144531,0.16406 c 0.1478645,1.11047 0.8672943,2.90093 2.7285156,3.58399 1.0655975,0.34295 2.2839122,0.21217 3.3339844,-0.36719 -0.2485489,-0.0678 -0.4969496,-0.13368 -0.75,-0.21289 -0.00137,0 -0.00254,-0.002 -0.00391,-0.002 0,0 -0.00195,0 -0.00195,0 -0.3131724,-0.0869 -0.6261833,-0.19311 -0.9375,-0.31055 -0.4385291,0.0409 -0.8692013,-0.007 -1.2519532,-0.16992 -1.067961,-0.37978 -1.6828409,-1.60142 -1.8027343,-2.68555 z" inkscape:connector-curvature="0" />
    <path style="fill:#000000;fill-opacity:1;fill-rule:evenodd;stroke:none;stroke-width:0.89999998;stroke-linecap:round;stroke-linejoin:miter;stroke-miterlimit:4;stroke-dasharray:none;stroke-opacity:1" d="m -0.46875,-103.85156 c -0.37846744,0.0176 -0.7557959,0.0342 -1.1347656,0.0508 -0.026644,1.35579 -0.083772,2.68828 -0.4941406,3.89453 -0.018811,0.05778 -0.047295,0.112792 -0.068359,0.169922 0.0012,0.469321 0.048794,0.930808 0.1503906,1.380859 0.2763156,-0.394741 0.5250997,-0.814331 0.7148438,-1.271484 0.55095568,-1.351977 0.7212245,-2.820157 0.8320312,-4.224607 z" inkscape:connector-curvature="0" />
    <path style="fill:#000000;fill-opacity:1;fill-rule:evenodd;stroke:none;stroke-width:0.89999998;stroke-linecap:round;stroke-linejoin:miter;stroke-miterlimit:4;stroke-dasharray:none;stroke-opacity:1" d="m -3.1230469,-98.044922 c -0.150339,0.197077 -0.3095867,0.389682 -0.4746093,0.578125 -0.714018,0.796578 -1.6209216,1.450225 -2.6289063,1.658203 -0.2940814,0.05997 -0.6139042,0.05055 -0.90625,-0.02344 -0.4427004,-0.04353 -0.8708449,-0.242919 -1.1113281,-0.654297 0.2442222,0.763823 1.2067903,1.184368 2.09375,1.060547 1.1279747,-0.158128 2.18429,-0.790581 3.0175781,-1.617188 0.093062,-0.09152 0.1811077,-0.189952 0.2714844,-0.285156 -0.1018651,-0.234524 -0.1860307,-0.474028 -0.2617188,-0.716797 z" inkscape:connector-curvature="0" />
    <path style="fill:#000000;fill-opacity:1;fill-rule:evenodd;stroke:none;stroke-width:0.89999998;stroke-linecap:round;stroke-linejoin:miter;stroke-miterlimit:4;stroke-dasharray:none;stroke-opacity:1" d="m 4.025391,-125.87891 c -0.146221,-0.0305 -0.303081,0.0119 -0.398438,0.0742 -2.862666,1.87054 -4.880211,3.59029 -6.738281,6.62891 -0.99964,1.72264 -1.777144,3.35668 -1.810547,5.28516 0.006,0.2998 0.273432,0.52657 0.570313,0.48437 0.492456,-0.0709 0.875763,-0.10517 1.1875,-0.1289 -0.218167,0.7447 -0.421021,1.51009 -0.605469,2.3496 -0.397611,1.80973 -0.653445,4.36221 -0.396485,5.81446 0.19055,1.07692 1.186538,1.26127 1.898438,1.47656 0.7119,0.21529 1.794338,0.36669 2.455078,0.27539 1.69421,-0.23411 3.402492,-0.48676 3.824219,-1.49023 0.761046,-1.81087 0.168822,-5.57059 0.01758,-7.99219 0.372935,0.0863 0.744619,0.19639 1.097656,0.36523 0.33685,0.16216 0.647892,-0.0794 0.638672,-0.45312 0,0 -0.123941,-4.19409 -0.244141,-5.86719 -0.19297,-2.68575 -0.356893,-3.69695 -1.158203,-6.45703 -0.0561,-0.23143 -0.19167,-0.33476 -0.33789,-0.36523 z m -0.402344,0.98243 c 0.58883,2.15877 0.873399,3.54998 1.042969,5.91015 0.10223,1.42282 0.178435,4.57706 0.197265,5.32227 -0.75389,-0.22738 -1.480374,-0.38819 -2.083984,-0.44727 0.003,-0.93743 0.01185,-2.67282 0.09375,-4.53515 0.0553,-1.25832 -0.308848,-0.55533 -0.486328,0.38671 -0.38009,2.01743 -0.460938,3.48013 -0.460938,4.40821 -4e-4,0.25604 0.192656,0.47102 0.447266,0.49804 0.246719,0.026 0.520253,0.0702 0.785156,0.10547 0.293188,2.53888 0.74607,5.39541 0.132813,7.61133 -0.202142,0.73041 -3.4124,1.1779 -5.269532,0.78516 -0.518246,-0.1096 -1.363176,-0.31092 -1.404296,-1.08594 -0.0867,-1.63376 0.06432,-3.31607 0.320312,-4.73438 0.389151,-2.15602 1.088748,-4.27614 1.673828,-5.69726 l 0.941406,-2.46289 c 0.56898,-1.4466 0.362088,-1.65162 -0.632812,0.10156 -0.761329,1.50777 -1.310471,2.82853 -1.765625,4.1875 -0.192605,0.0238 -0.6893,0.0859 -1.246094,0.1543 0.0825,-0.52387 0.194473,-1.14129 0.470703,-1.9043 0.35929,-0.99241 0.811648,-1.98486 1.080078,-2.42383 1.64411,-2.6887 3.560553,-4.51162 6.164063,-6.17968 z" inkscape:connector-curvature="0" />
    <path style="fill:#000000;fill-opacity:1;fill-rule:evenodd;stroke:none;stroke-width:0.89999998;stroke-linecap:round;stroke-linejoin:miter;stroke-miterlimit:4;stroke-dasharray:none;stroke-opacity:1" d="m -2.5373427,-104.18887 c 0.3421635,0.16215 0.6859607,0.32221 1.0313325,0.48012 -0.9340133,2.13702 -1.3535777,4.738056 -0.2199471,6.841436 0,0 -1e-7,10e-7 -1e-7,10e-7 0.4977108,0.912316 0.5028499,2.106189 -0.1345524,2.837592 -4e-7,0 -4e-7,0 -4e-7,0 -0.5079821,0.590086 -1.4642213,0.666608 -1.9748687,0.199639 0.5287582,0.326069 1.2462055,0.121597 1.5702851,-0.288591 0.041842,-0.04156 0.079462,-0.08658 0.111943,-0.134807 0.4857643,-0.603214 0.3594186,-1.599406 -0.074296,-2.305366 -10e-8,0 -10e-8,0 -10e-8,0 -1.4089532,-2.272798 -1.2397643,-5.211664 -0.3098958,-7.630024 z" inkscape:connector-curvature="0" />
    <path style="fill:#000000;fill-opacity:1;fill-rule:evenodd;stroke:none;stroke-width:0.89999998;stroke-linecap:round;stroke-linejoin:miter;stroke-miterlimit:4;stroke-dasharray:none;stroke-opacity:1" d="m 2.3835041,-104.06671 c 0.3174615,-0.24063 0.6405059,-0.47527 0.9692112,-0.70375 0.6369547,1.29737 2.1141119,2.13063 3.6421499,2.7018 1.3112305,0.45566 2.9095093,0.83787 3.7952238,2.02156 0,0 0,0 0,0 0.5932,0.800014 0.736953,1.955226 0.161314,2.691399 -0.466912,0.602328 -1.3710736,0.816403 -1.952572,0.446967 0.6368576,0.257218 1.383809,-0.137615 1.639232,-0.653144 -2e-6,3e-6 0.0051,-0.0078 0.0051,-0.0078 0.434378,-0.572556 0.19779,-1.510827 -0.294284,-2.118239 0,0 0,-10e-7 0,-10e-7 -0.7344896,-0.948692 -2.2010381,-1.119902 -3.6049445,-1.560132 -1.6380276,-0.45356 -3.3202746,-1.28178 -4.3604604,-2.81866 z" inkscape:connector-curvature="0" />
    <path style="fill:#000000;fill-opacity:1;fill-rule:evenodd;stroke:none;stroke-width:0.89999998;stroke-linecap:round;stroke-linejoin:miter;stroke-miterlimit:4;stroke-dasharray:none;stroke-opacity:1" d="m -3.2239027,-105.35575 -0.4962606,1.35092 c -1.0480932,-0.46063 -2.4787863,-0.29871 -3.5206168,0.38222 0,0 -3e-7,0 -3e-7,0 -1.3656955,0.93961 -2.9325976,1.77851 -4.6273276,1.94569 0,0 -1e-6,0 -1e-6,0 -0.765571,0.0695 -1.508698,-0.0986 -2.185433,-0.35854 -0.608035,-0.2156 -1.286316,-0.55176 -1.572326,-1.1699 0.158398,0.10812 0.317934,0.17056 0.477991,0.20184 0.313188,0.27579 0.779492,0.42426 1.22658,0.5645 0.660228,0.18101 1.343102,0.27459 1.967694,0.15219 0,0 10e-7,0 10e-7,0 1.508118,-0.2724 2.8419377,-1.18921 4.0822788,-2.18158 0,0 5e-7,0 5e-7,0 1.2448518,-1.01542 3.0322554,-1.4126 4.64742,-0.88734 z" inkscape:connector-curvature="0" />
    <path style="fill:#000000;fill-opacity:1;fill-rule:evenodd;stroke:none;stroke-width:0.89999998;stroke-linecap:round;stroke-linejoin:miter;stroke-miterlimit:4;stroke-dasharray:none;stroke-opacity:1" d="m 1.6621094,-103.86719 c -0.4185714,0.0443 -0.83767516,0.0868 -1.2558594,0.12696 0.25950609,1.60191 0.8206852,3.24717 1.9023438,4.556636 0.342343,0.41542 0.5590507,0.954197 0.4804687,1.44336 -0.025283,0.246453 -0.1119591,0.496485 -0.2246094,0.751953 0.1634384,0.135566 0.3491558,0.240365 0.546875,0.314453 0.1631599,-0.298951 0.302037,-0.612493 0.3789063,-0.960938 0.1468187,-0.721817 -0.060504,-1.49206 -0.5,-2.099609 -0.8380808,-1.188455 -1.181556,-2.668875 -1.328125,-4.132815 z" inkscape:connector-curvature="0" />
    <path style="fill:#000000;fill-opacity:1;fill-rule:evenodd;stroke:none;stroke-width:0.89999998;stroke-linecap:round;stroke-linejoin:miter;stroke-miterlimit:4;stroke-dasharray:none;stroke-opacity:1" d="m 2.0175781,-95.949219 c -0.1436635,0.248282 -0.2873481,0.51336 -0.3984375,0.822266 -0.027528,0.140925 -0.048361,0.286201 -0.056641,0.433594 -2.467e-4,0.681216 0.4247003,1.144359 0.9003906,1.335937 -0.4098373,-0.294911 -0.6597598,-0.801902 -0.5390625,-1.265625 0.1089883,-0.402944 0.3428298,-0.741718 0.578125,-1.082031 -0.1691941,-0.0673 -0.3310469,-0.147961 -0.484375,-0.244141 z" inkscape:connector-curvature="0" />
    <path style="fill:#000000;fill-opacity:1;fill-rule:evenodd;stroke:none;stroke-width:0.89999998;stroke-linecap:round;stroke-linejoin:miter;stroke-miterlimit:4;stroke-dasharray:none;stroke-opacity:1" d="m -0.60141829,-103.73449 c 0.41989804,0.0218 0.83993975,0.0419 1.26010131,0.06 -0.0659788,1.5874 0.0745189,3.19567 0.54825348,4.721421 0,0 3e-7,0 3e-7,0 0.2210797,0.697025 0.4978677,1.375404 0.9689598,1.905354 0,0 5e-7,0 5e-7,0 0.3845928,0.434985 0.9522601,0.744799 1.5524436,0.724004 1.1452221,-0.0092 1.9169042,-1.552437 1.4518695,-2.768928 0.3599911,0.495931 0.5141682,1.195943 0.3843301,1.874168 -0.2819051,0.74386 -0.8986219,1.34968 -1.7797763,1.509444 -0.8169383,0.06458 -1.5929088,-0.260511 -2.1406711,-0.80816 -0.6154334,-0.618165 -1.00944317,-1.374126 -1.28897248,-2.114375 1.1e-7,0 -2.1e-7,-10e-7 -2.1e-7,-10e-7 -0.63428047,-1.632007 -0.9178233,-3.376937 -0.9565385,-5.102977 z" inkscape:connector-curvature="0" />
    <path style="fill:#000000;fill-opacity:1;fill-rule:evenodd;stroke:none;stroke-width:0.89999998;stroke-linecap:round;stroke-linejoin:miter;stroke-miterlimit:4;stroke-dasharray:none;stroke-opacity:1" d="m -3.3945312,-104.69922 c -0.3552481,1.42085 -1.0184522,2.85835 -2.2050782,3.54883 -0.032141,0.0187 -0.080618,0.0419 -0.1152344,0.0625 0.031118,0.13229 0.066803,0.26506 0.078125,0.39648 0.014507,0.1684 0.00634,0.33743 -0.00195,0.50586 0.1820691,-0.0904 0.3573596,-0.19054 0.5039063,-0.29687 1.372379,-0.86601 2.2647831,-2.35534 2.7050781,-3.9082 -0.321271,-0.10556 -0.6428638,-0.2091 -0.9648437,-0.3086 z" inkscape:connector-curvature="0" />
    <path style="fill:#000000;fill-opacity:1;fill-rule:evenodd;stroke:none;stroke-width:0.89999998;stroke-linecap:round;stroke-linejoin:miter;stroke-miterlimit:4;stroke-dasharray:none;stroke-opacity:1" d="m -6.8574219,-102.06641 c -0.092115,-0.0108 -0.1890786,-0.0102 -0.2910156,0.01 -0.418133,0.0808 -0.80098,0.41965 -0.8750005,0.85742 -0.06307,0.373 0.0048,0.78465 0.3886724,1.06445 0.3364651,0.245274 0.7423581,0.290742 1.1484375,0.22852 -0.00622,-0.17417 -0.017944,-0.33714 -0.03125,-0.48047 -0.00651,-0.0701 -0.03744,-0.18008 -0.0625,-0.28125 -0.1991158,0.0605 -0.3975277,0.0949 -0.5761719,0.041 -0.152411,-0.046 -0.2709456,-0.30962 -0.1972656,-0.49219 0.026637,-0.066 0.0676,-0.12052 0.1113281,-0.16797 0.014137,-0.015 0.029411,-0.0282 0.044922,-0.041 0.032512,-0.0274 0.068145,-0.0477 0.1054687,-0.0645 0.020292,-0.009 0.039261,-0.0199 0.060547,-0.0254 0.053423,-0.0142 0.1092213,-0.0193 0.1660156,-0.01 0.074812,0.0126 0.1488622,0.0453 0.2207032,0.10546 0.198543,0.16628 0.3222775,0.70139 0.3359374,0.88672 0.040162,0.545023 0.1414044,1.206348 -0.2597656,2.146488 0.546965,-0.610901 0.7818213,-1.516606 0.7070313,-2.384768 -0.031496,-0.36561 -0.1332691,-0.73326 -0.3613281,-1.0332 -0.043291,-0.0569 -0.096805,-0.11122 -0.1582032,-0.16016 -0.063737,-0.0508 -0.1366607,-0.0942 -0.2167968,-0.1289 -0.079938,-0.0346 -0.1666628,-0.0594 -0.2597657,-0.0703 z" inkscape:connector-curvature="0" />
    <ellipse cx="0.282143" cy="-107.896100" rx="0.508233" ry="0.861786" style="fill:#000000;fill-opacity:1;fill-rule:evenodd;stroke:none;stroke-width:0.89999998;stroke-linecap:round;stroke-linejoin:miter;stroke-miterlimit:4;stroke-dasharray:none;stroke-opacity:1" />
    <ellipse cx="-1.629467" cy="-107.984500" rx="0.508233" ry="0.861786" style="fill:#000000;fill-opacity:1;fill-rule:evenodd;stroke:none;stroke-width:0.89999998;stroke-linecap:round;stroke-linejoin:miter;stroke-miterlimit:4;stroke-dasharray:none;stroke-opacity:1" />
    <path style="color:#000000;clip-rule:nonzero;display:inline;overflow:visible;visibility:visible;opacity:1;isolation:auto;mix-blend-mode:normal;color-interpolation:sRGB;color-interpolation-filters:linearRGB;solid-color:#000000;solid-opacity:1;fill:#ffffff;fill-opacity:1;fill-rule:evenodd;stroke:#000000;stroke-width:0.72000003;stroke-linecap:round;stroke-linejoin:miter;stroke-miterlimit:4;stroke-dasharray:none;stroke-dashoffset:0;stroke-opacity:1;color-rendering:auto;image-rendering:auto;shape-rendering:auto;text-rendering:auto;enable-background:accumulate" d="m 16.079505,-112.80178 c 0,0 -0.534036,-1.98412 -1.352253,-2.375 -1.083027,-0.51738 -2.029029,0.0701 -1.654029,0.82009 0.375,0.75 2.381282,1.33616 3.006282,1.55491 z" inkscape:connector-curvature="0" />
    <path style="color:#000000;clip-rule:nonzero;display:inline;overflow:visible;visibility:visible;opacity:1;isolation:auto;mix-blend-mode:normal;color-interpolation:sRGB;color-interpolation-filters:linearRGB;solid-color:#000000;solid-opacity:1;fill:#ffffff;fill-opacity:1;fill-rule:evenodd;stroke:#000000;stroke-width:0.72000003;stroke-linecap:round;stroke-linejoin:miter;stroke-miterlimit:4;stroke-dasharray:none;stroke-dashoffset:0;stroke-opacity:1;color-rendering:auto;image-rendering:auto;shape-rendering:auto;text-rendering:auto;enable-background:accumulate" d="m -15.544194,-112.67678 c 0,0 -0.104921,-1.79881 0.731694,-2.49777 0.96875,-0.80936 1.875,-0.15625 1.59375,0.53125 -0.28125,0.6875 -1.825444,1.62277 -2.325444,1.96652 z" inkscape:connector-curvature="0" />
  </g>
</g>
<g inkscape:groupmode="layer" id="extras_layer" inkscape:label="Extras" style="display:inline" sodipodi:insensitive="true" >
  <g id="extra-ship" transform="matrix(0.4444171,-0.89581998,0.89581998,0.4444171,266.30938,417.60566)" >
    <path style="color:#000000;fill:url(#gradientShip);fill-opacity:1;fill-rule:evenodd;stroke:#000000;stroke-width:0.75;stroke-linecap:butt;stroke-linejoin:round;stroke-miterlimit:4;stroke-dasharray:none;stroke-dashoffset:0;stroke-opacity:1;marker:none;enable-background:accumulate" d="m 243.2364,-52.722824 c -3.10208,-2.937202 -8.72518,-3.346714 -12.49116,-3.032742 -2.95307,0.246202 -6.62512,1.070872 -6.62512,1.070872 l -0.0121,3.725952 c 0,0 2.43298,0.582421 6.39007,0.932887 3.66202,0.324334 9.61676,-0.283241 12.73834,-2.696969 z" inkscape:connector-curvature="0" />
    <path style="color:#000000;opacity:1;isolation:auto;mix-blend-mode:normal;color-interpolation:sRGB;color-interpolation-filters:linearRGB;solid-color:#000000;solid-opacity:1;fill:#000000;fill-opacity:1;fill-rule:evenodd;stroke:none;stroke-width:0.75;stroke-linecap:round;stroke-linejoin:round;stroke-miterlimit:4;stroke-dasharray:none;stroke-dashoffset:0;stroke-opacity:1;marker:none;color-rendering:auto;image-rendering:auto;shape-rendering:auto;text-rendering:auto;enable-background:accumulate" d="m 243.05273,-53.089844 c -0.50461,-0.01007 -0.51271,0.749303 -0.008,0.75 l 2.80546,-0.143551 c 0.50461,0.01007 0.51856,-0.385922 0.0138,-0.386619 z" inkscape:connector-curvature="0" />
    <circle cx="37.651787" cy="-233.087830" r="0.695206" style="color:#000000;opacity:1;isolation:auto;mix-blend-mode:normal;color-interpolation:sRGB;color-interpolation-filters:linearRGB;solid-color:#000000;solid-opacity:1;fill:#a66e00;fill-opacity:1;fill-rule:nonzero;stroke:#000000;stroke-width:0.5;stroke-linecap:butt;stroke-linejoin:miter;stroke-miterlimit:4;stroke-dasharray:none;stroke-dashoffset:0;stroke-opacity:1;color-rendering:auto;image-rendering:auto;shape-rendering:auto;text-rendering:auto;enable-background:accumulate" transform="matrix(0.37654483,0.9263984,-0.9263984,0.37654483,0,0)" />
    <circle cx="39.995537" cy="-238.712830" r="0.695206" style="color:#000000;opacity:1;isolation:auto;mix-blend-mode:normal;color-interpolation:sRGB;color-interpolation-filters:linearRGB;solid-color:#000000;solid-opacity:1;fill:#a66e00;fill-opacity:1;fill-rule:nonzero;stroke:#000000;stroke-width:0.5;stroke-linecap:butt;stroke-linejoin:miter;stroke-miterlimit:4;stroke-dasharray:none;stroke-dashoffset:0;stroke-opacity:1;color-rendering:auto;image-rendering:auto;shape-rendering:auto;text-rendering:auto;enable-background:accumulate" transform="matrix(0.37654483,0.9263984,-0.9263984,0.37654483,0,0)" />
    <path style="color:#000000;fill:#feffff;fill-opacity:1;fill-rule:evenodd;stroke:#000000;stroke-width:0.5;stroke-linecap:butt;stroke-linejoin:round;stroke-miterlimit:4;stroke-dasharray:none;stroke-dashoffset:0;stroke-opacity:1;marker:none;enable-background:accumulate" d="m 230.8139,-58.168744 -0.0696,11.095953 c 0,0 1.11273,-0.901569 1.17305,-2.014949 0.0592,-1.093696 -0.80015,-1.762231 -0.80015,-1.762231 0,0 1.00218,-0.841738 0.9922,-1.921676 -0.0106,-1.140901 -0.9468,-1.722391 -0.9468,-1.722391 0,0 0.80027,-0.5343 0.83406,-1.646805 0.0349,-1.150244 -1.18274,-2.027894 -1.18274,-2.027894 z" inkscape:connector-curvature="0" />
    <path style="color:#000000;fill:#feffff;fill-opacity:1;fill-rule:evenodd;stroke:#000000;stroke-width:0.5;stroke-linecap:butt;stroke-linejoin:round;stroke-miterlimit:4;stroke-dasharray:none;stroke-dashoffset:0;stroke-opacity:1;marker:none;enable-background:accumulate" d="m 236.95087,-57.97366 -0.0645,10.282469 c 0,0 1.03677,-0.785137 1.09267,-1.816887 0.0549,-1.013517 -0.74706,-1.683399 -0.74706,-1.683399 0,0 0.85887,-0.76153 0.84962,-1.762298 -0.01,-1.057255 -0.80754,-1.614603 -0.80754,-1.614603 0,0 0.84013,-0.540128 0.87144,-1.571079 0.0324,-1.065902 -1.19455,-1.834218 -1.19455,-1.834218 z" inkscape:connector-curvature="0" />
    <path style="fill:#000000;stroke:none" d="m 239.16963,-53.312319 -0.0111,0.999645 1.00145,0.01039 0.009,-1.000718 z" inkscape:connector-curvature="0" />
    <path style="fill:#6a4600;stroke:none" d="m 233.00825,-53.641515 -0.0131,1.52646 1.52369,0.01423 0.0142,-1.523703 z" inkscape:connector-curvature="0" />
    <path style="fill:none;stroke:#000000;stroke-width:0.6;stroke-linecap:butt" d="m 227.26126,-55.055042 -0.0734,4.514141" inkscape:connector-curvature="0" />
    <path style="fill:#000000;stroke:none" d="m 223.83649,-54.026834 -0.0111,0.999636 1.00072,0.0086 0.009,-0.998911 z" inkscape:connector-curvature="0" />
    <path style="fill:#000000;stroke:none" d="m 223.85032,-52.581947 -0.0111,0.999637 1.00072,0.0086 0.009,-0.998912 z" inkscape:connector-curvature="0" />
    <path style="fill:none;stroke:#000000;stroke-width:0.5;stroke-linecap:butt;stroke-linejoin:round;stroke-miterlimit:4" d="m 227.2539,-51.578825 1.14997,0.173504 -0.0116,1.05042" inkscape:connector-curvature="0" />
    <path style="fill:none;stroke:#000000;stroke-width:0.5;stroke-linecap:butt;stroke-linejoin:round;stroke-miterlimit:4" d="m 227.25705,-54.143799 1.1481,-0.163064 0.0224,-1.189753" inkscape:connector-curvature="0" />
  </g>
</g>
<g inkscape:groupmode="layer" id="suit_rank_glow_layer" inkscape:label="Suit Rank Glow" style="display:inline" sodipodi:insensitive="true" >
  <g style="opacity:0.75;filter:url(#blurSuitRankGlow)" >
    <path style="fill:#ffffff;fill-opacity:1;stroke:none" d="m 31.453338,20.865025 c -5.068589,2.178218 -11.123659,8.116004 -11.112499,14.56 0.007,3.899493 2.33855,5.215546 4.47125,5.74875 1.25548,0.313886 3.11121,0.211218 4.40125,-0.53375 -0.0977,1.04834 -0.18907,3.221456 -0.21,4.235 1.633329,0 3.266669,0 4.899999,0 -0.0209,-1.013544 -0.11229,-3.18666 -0.21,-4.235 1.29004,0.744968 3.14577,0.847636 4.40125,0.53375 2.1327,-0.533204 4.4645,-1.849257 4.47125,-5.74875 0.0111,-6.443996 -6.04391,-12.381782 -11.1125,-14.56 z" inkscape:connector-curvature="0" />
    <path style="fill:#ffffff;fill-opacity:1;stroke:none" d="m 215.96335,316.63503 c 5.06859,-2.17822 11.12366,-8.11601 11.1125,-14.56 -0.007,-3.8995 -2.33855,-5.21555 -4.47125,-5.74875 -1.25548,-0.31389 -3.11121,-0.21122 -4.40125,0.53375 0.0977,-1.04834 0.18907,-3.22146 0.21,-4.235 -1.63333,0 -3.26667,0 -4.9,0 0.0209,1.01354 0.11229,3.18666 0.21,4.235 -1.29004,-0.74497 -3.14577,-0.84764 -4.40125,-0.53375 -2.1327,0.5332 -4.4645,1.84925 -4.47125,5.74875 -0.0111,6.44399 6.04391,12.38178 11.1125,14.56 z" inkscape:connector-curvature="0" />
    <path style="fill:#ffffff;fill-opacity:1;stroke:none" d="m 22.253338,61.595025 c -10e-6,-1.5733 0.25333,-3.0266 0.76,-4.36 0.53333,-1.36 1.25332,-2.5333 2.15999,-3.52 0.66667,-0.8533 1.45333,-1.5333 2.36,-2.04 0.90666,-0.5333 2.08,-0.8 3.52,-0.8 1.27999,0 2.39999,0.24 3.36,0.72 0.95999,0.48 1.79999,1.1334 2.52,1.96 0.71999,0.8 1.30665,1.7467 1.76001,2.84 0.47998,1.0667 0.86664,2.2 1.16,3.4 0.29331,1.1734 0.49331,2.3734 0.6,3.6 0.13331,1.2267 0.19997,2.3867 0.19999,3.48 -2e-5,2.2134 -0.18668,4.2934 -0.55999,6.24 -0.37336,1.9467 -0.96002,3.64 -1.76,5.08 -0.77336,1.44 -1.76002,2.5867 -2.96,3.44 -1.20002,0.8267 -2.64002,1.24 -4.32001,1.24 -1.86667,0 -3.44,-0.5067 -4.71999,-1.52 -1.28001,-1.04 -2.30668,-2.44 -3.08,-4.2 l 2.76,-1.64 c 0.53332,1.28 1.21332,2.2933 2.03999,3.04 0.82666,0.7467 1.82666,1.12 3,1.12 0.98666,0 1.85333,-0.2667 2.6,-0.8 0.74666,-0.56 1.37332,-1.32 1.88,-2.28 0.53332,-0.96 0.94666,-2.0933 1.24,-3.4 0.31999,-1.3333 0.51999,-2.76 0.60001,-4.28 -0.82669,1.04 -1.78669,1.8667 -2.88,2.48 -1.09335,0.5867 -2.24002,0.88 -3.44001,0.88 -1.17334,0 -2.29334,-0.28 -3.35999,-0.84 -1.04001,-0.56 -1.97334,-1.32 -2.80001,-2.28 -0.8,-0.96 -1.44,-2.08 -1.91999,-3.36 -0.48001,-1.3066 -0.72001,-2.7066 -0.72,-4.2 m 3.2,0 c -10e-6,1.04 0.14666,2.0134 0.43999,2.92 0.32,0.9067 0.73333,1.7067 1.24001,2.4 0.53332,0.6667 1.13332,1.2 1.79999,1.6 0.69333,0.3734 1.39999,0.56 2.12,0.56 0.71999,0 1.41333,-0.1866 2.08001,-0.56 0.66665,-0.4 1.25331,-0.9333 1.75999,-1.6 0.53332,-0.6933 0.95999,-1.4933 1.28,-2.4 0.31999,-0.9066 0.47999,-1.88 0.48,-2.92 -1e-5,-0.7466 -0.12001,-1.56 -0.36,-2.44 -0.24001,-0.88 -0.60001,-1.6933 -1.07999,-2.44 -0.45335,-0.7466 -1.04002,-1.3733 -1.76,-1.88 -0.69335,-0.5066 -1.49335,-0.76 -2.40001,-0.76 -0.77334,0.053 -1.50667,0.2934 -2.19999,0.72 -0.66668,0.4267 -1.25335,0.9867 -1.76,1.68 -0.50668,0.6667 -0.90668,1.44 -1.20001,2.32 -0.29333,0.88 -0.44,1.8134 -0.43999,2.8" inkscape:connector-curvature="0" />
    <path style="fill:#ffffff;fill-opacity:1;stroke:none" d="m 225.16333,275.90503 c 1e-5,1.5733 -0.25333,3.0266 -0.76,4.36 -0.53333,1.36 -1.25332,2.5333 -2.15999,3.52 -0.66667,0.8533 -1.45333,1.5333 -2.36,2.04 -0.90666,0.5333 -2.08,0.8 -3.52,0.8 -1.27999,0 -2.39999,-0.24 -3.36,-0.72 -0.95999,-0.48 -1.79999,-1.1334 -2.52,-1.96 -0.71999,-0.8 -1.30665,-1.7467 -1.76001,-2.84 -0.47998,-1.0667 -0.86664,-2.2 -1.16,-3.4 -0.29331,-1.1734 -0.49331,-2.3734 -0.6,-3.6 -0.13331,-1.2267 -0.19997,-2.3867 -0.19999,-3.48 2e-5,-2.2134 0.18668,-4.2934 0.55999,-6.24 0.37336,-1.9467 0.96002,-3.64 1.76,-5.08 0.77336,-1.44 1.76002,-2.5867 2.96,-3.44 1.20002,-0.8267 2.64002,-1.24 4.32001,-1.24 1.86667,0 3.44,0.5067 4.71999,1.52 1.28001,1.04 2.30668,2.44 3.08,4.2 l -2.76,1.64 c -0.53332,-1.28 -1.21332,-2.2933 -2.03999,-3.04 -0.82666,-0.7467 -1.82666,-1.12 -3,-1.12 -0.98666,0 -1.85333,0.2667 -2.6,0.8 -0.74666,0.56 -1.37332,1.32 -1.88,2.28 -0.53332,0.96 -0.94666,2.0933 -1.24,3.4 -0.31999,1.3333 -0.51999,2.76 -0.60001,4.28 0.82669,-1.04 1.78669,-1.8667 2.88,-2.48 1.09335,-0.5867 2.24002,-0.88 3.44001,-0.88 1.17334,0 2.29334,0.28 3.35999,0.84 1.04001,0.56 1.97334,1.32 2.80001,2.28 0.8,0.96 1.44,2.08 1.91999,3.36 0.48001,1.3066 0.72001,2.7066 0.72,4.2 m -3.2,0 c 10e-6,-1.04 -0.14666,-2.0134 -0.43999,-2.92 -0.32,-0.9067 -0.73333,-1.7067 -1.24001,-2.4 -0.53332,-0.6667 -1.13332,-1.2 -1.79999,-1.6 -0.69333,-0.3734 -1.39999,-0.56 -2.12,-0.56 -0.71999,0 -1.41333,0.1866 -2.08001,0.56 -0.66665,0.4 -1.25331,0.9333 -1.75999,1.6 -0.53332,0.6933 -0.95999,1.4933 -1.28,2.4 -0.31999,0.9066 -0.47999,1.88 -0.48,2.92 1e-5,0.7466 0.12001,1.56 0.36,2.44 0.24001,0.88 0.60001,1.6933 1.07999,2.44 0.45335,0.7466 1.04002,1.3733 1.76,1.88 0.69335,0.5066 1.49335,0.76 2.40001,0.76 0.77334,-0.053 1.50667,-0.2934 2.19999,-0.72 0.66668,-0.4267 1.25335,-0.9867 1.76,-1.68 0.50668,-0.6667 0.90668,-1.44 1.20001,-2.32 0.29333,-0.88 0.44,-1.8134 0.43999,-2.8" inkscape:connector-curvature="0" />
  </g>
</g>
<g inkscape:groupmode="layer" id="suit_rank_layer" inkscape:label="Suit Rank" style="display:inline" sodipodi:insensitive="true" >
  <path style="fill:#000000;fill-opacity:1;stroke:none" d="m 31.453338,20.865025 c -5.068589,2.178218 -11.123659,8.116004 -11.112499,14.56 0.007,3.899493 2.33855,5.215546 4.47125,5.74875 1.25548,0.313886 3.11121,0.211218 4.40125,-0.53375 -0.0977,1.04834 -0.18907,3.221456 -0.21,4.235 1.633329,0 3.266669,0 4.899999,0 -0.0209,-1.013544 -0.11229,-3.18666 -0.21,-4.235 1.29004,0.744968 3.14577,0.847636 4.40125,0.53375 2.1327,-0.533204 4.4645,-1.849257 4.47125,-5.74875 0.0111,-6.443996 -6.04391,-12.381782 -11.1125,-14.56 z" inkscape:connector-curvature="0" />
  <path style="fill:#000000;fill-opacity:1;stroke:none" d="m 215.96335,316.63503 c 5.06859,-2.17822 11.12366,-8.11601 11.1125,-14.56 -0.007,-3.8995 -2.33855,-5.21555 -4.47125,-5.74875 -1.25548,-0.31389 -3.11121,-0.21122 -4.40125,0.53375 0.0977,-1.04834 0.18907,-3.22146 0.21,-4.235 -1.63333,0 -3.26667,0 -4.9,0 0.0209,1.01354 0.11229,3.18666 0.21,4.235 -1.29004,-0.74497 -3.14577,-0.84764 -4.40125,-0.53375 -2.1327,0.5332 -4.4645,1.84925 -4.47125,5.74875 -0.0111,6.44399 6.04391,12.38178 11.1125,14.56 z" inkscape:connector-curvature="0" />
  <path style="fill:#000000;fill-opacity:1;stroke:none" d="m 22.253338,61.595025 c -10e-6,-1.5733 0.25333,-3.0266 0.76,-4.36 0.53333,-1.36 1.25332,-2.5333 2.15999,-3.52 0.66667,-0.8533 1.45333,-1.5333 2.36,-2.04 0.90666,-0.5333 2.08,-0.8 3.52,-0.8 1.27999,0 2.39999,0.24 3.36,0.72 0.95999,0.48 1.79999,1.1334 2.52,1.96 0.71999,0.8 1.30665,1.7467 1.76001,2.84 0.47998,1.0667 0.86664,2.2 1.16,3.4 0.29331,1.1734 0.49331,2.3734 0.6,3.6 0.13331,1.2267 0.19997,2.3867 0.19999,3.48 -2e-5,2.2134 -0.18668,4.2934 -0.55999,6.24 -0.37336,1.9467 -0.96002,3.64 -1.76,5.08 -0.77336,1.44 -1.76002,2.5867 -2.96,3.44 -1.20002,0.8267 -2.64002,1.24 -4.32001,1.24 -1.86667,0 -3.44,-0.5067 -4.71999,-1.52 -1.28001,-1.04 -2.30668,-2.44 -3.08,-4.2 l 2.76,-1.64 c 0.53332,1.28 1.21332,2.2933 2.03999,3.04 0.82666,0.7467 1.82666,1.12 3,1.12 0.98666,0 1.85333,-0.2667 2.6,-0.8 0.74666,-0.56 1.37332,-1.32 1.88,-2.28 0.53332,-0.96 0.94666,-2.0933 1.24,-3.4 0.31999,-1.3333 0.51999,-2.76 0.60001,-4.28 -0.82669,1.04 -1.78669,1.8667 -2.88,2.48 -1.09335,0.5867 -2.24002,0.88 -3.44001,0.88 -1.17334,0 -2.29334,-0.28 -3.35999,-0.84 -1.04001,-0.56 -1.97334,-1.32 -2.80001,-2.28 -0.8,-0.96 -1.44,-2.08 -1.91999,-3.36 -0.48001,-1.3066 -0.72001,-2.7066 -0.72,-4.2 m 3.2,0 c -10e-6,1.04 0.14666,2.0134 0.43999,2.92 0.32,0.9067 0.73333,1.7067 1.24001,2.4 0.53332,0.6667 1.13332,1.2 1.79999,1.6 0.69333,0.3734 1.39999,0.56 2.12,0.56 0.71999,0 1.41333,-0.1866 2.08001,-0.56 0.66665,-0.4 1.25331,-0.9333 1.75999,-1.6 0.53332,-0.6933 0.95999,-1.4933 1.28,-2.4 0.31999,-0.9066 0.47999,-1.88 0.48,-2.92 -1e-5,-0.7466 -0.12001,-1.56 -0.36,-2.44 -0.24001,-0.88 -0.60001,-1.6933 -1.07999,-2.44 -0.45335,-0.7466 -1.04002,-1.3733 -1.76,-1.88 -0.69335,-0.5066 -1.49335,-0.76 -2.40001,-0.76 -0.77334,0.053 -1.50667,0.2934 -2.19999,0.72 -0.66668,0.4267 -1.25335,0.9867 -1.76,1.68 -0.50668,0.6667 -0.90668,1.44 -1.20001,2.32 -0.29333,0.88 -0.44,1.8134 -0.43999,2.8" inkscape:connector-curvature="0" />
  <path style="fill:#000000;fill-opacity:1;stroke:none" d="m 225.16333,275.90503 c 1e-5,1.5733 -0.25333,3.0266 -0.76,4.36 -0.53333,1.36 -1.25332,2.5333 -2.15999,3.52 -0.66667,0.8533 -1.45333,1.5333 -2.36,2.04 -0.90666,0.5333 -2.08,0.8 -3.52,0.8 -1.27999,0 -2.39999,-0.24 -3.36,-0.72 -0.95999,-0.48 -1.79999,-1.1334 -2.52,-1.96 -0.71999,-0.8 -1.30665,-1.7467 -1.76001,-2.84 -0.47998,-1.0667 -0.86664,-2.2 -1.16,-3.4 -0.29331,-1.1734 -0.49331,-2.3734 -0.6,-3.6 -0.13331,-1.2267 -0.19997,-2.3867 -0.19999,-3.48 2e-5,-2.2134 0.18668,-4.2934 0.55999,-6.24 0.37336,-1.9467 0.96002,-3.64 1.76,-5.08 0.77336,-1.44 1.76002,-2.5867 2.96,-3.44 1.20002,-0.8267 2.64002,-1.24 4.32001,-1.24 1.86667,0 3.44,0.5067 4.71999,1.52 1.28001,1.04 2.30668,2.44 3.08,4.2 l -2.76,1.64 c -0.53332,-1.28 -1.21332,-2.2933 -2.03999,-3.04 -0.82666,-0.7467 -1.82666,-1.12 -3,-1.12 -0.98666,0 -1.85333,0.2667 -2.6,0.8 -0.74666,0.56 -1.37332,1.32 -1.88,2.28 -0.53332,0.96 -0.94666,2.0933 -1.24,3.4 -0.31999,1.3333 -0.51999,2.76 -0.60001,4.28 0.82669,-1.04 1.78669,-1.8667 2.88,-2.48 1.09335,-0.5867 2.24002,-0.88 3.44001,-0.88 1.17334,0 2.29334,0.28 3.35999,0.84 1.04001,0.56 1.97334,1.32 2.80001,2.28 0.8,0.96 1.44,2.08 1.91999,3.36 0.48001,1.3066 0.72001,2.7066 0.72,4.2 m -3.2,0 c 10e-6,-1.04 -0.14666,-2.0134 -0.43999,-2.92 -0.32,-0.9067 -0.73333,-1.7067 -1.24001,-2.4 -0.53332,-0.6667 -1.13332,-1.2 -1.79999,-1.6 -0.69333,-0.3734 -1.39999,-0.56 -2.12,-0.56 -0.71999,0 -1.41333,0.1866 -2.08001,0.56 -0.66665,0.4 -1.25331,0.9333 -1.75999,1.6 -0.53332,0.6933 -0.95999,1.4933 -1.28,2.4 -0.31999,0.9066 -0.47999,1.88 -0.48,2.92 1e-5,0.7466 0.12001,1.56 0.36,2.44 0.24001,0.88 0.60001,1.6933 1.07999,2.44 0.45335,0.7466 1.04002,1.3733 1.76,1.88 0.69335,0.5066 1.49335,0.76 2.40001,0.76 0.77334,-0.053 1.50667,-0.2934 2.19999,-0.72 0.66668,-0.4267 1.25335,-0.9867 1.76,-1.68 0.50668,-0.6667 0.90668,-1.44 1.20001,-2.32 0.29333,-0.88 0.44,-1.8134 0.43999,-2.8" inkscape:connector-curvature="0" />
</g>
<g inkscape:groupmode="layer" id="guides_layer" inkscape:label="Guides" style="display:none" sodipodi:insensitive="true" >
  <path style="fill:none;stroke:#000000;stroke-width:0.9" d="m 11.250000,11.25 0,-45" inkscape:connector-curvature="0" />
  <path style="fill:none;stroke:#000000;stroke-width:0.9" d="m 11.250000,371.25 0,-45" inkscape:connector-curvature="0" />
  <path style="fill:none;stroke:#000000;stroke-width:0.9" d="m 84.375000,11.25 0,-45" inkscape:connector-curvature="0" />
  <path style="fill:none;stroke:#000000;stroke-width:0.9" d="m 84.375000,371.25 0,-45" inkscape:connector-curvature="0" />
  <path style="fill:none;stroke:#000000;stroke-width:0.9" d="m 123.750000,11.25 0,-45" inkscape:connector-curvature="0" />
  <path style="fill:none;stroke:#000000;stroke-width:0.9" d="m 123.750000,371.25 0,-45" inkscape:connector-curvature="0" />
  <path style="fill:none;stroke:#000000;stroke-width:0.9" d="m 163.125000,11.25 0,-45" inkscape:connector-curvature="0" />
  <path style="fill:none;stroke:#000000;stroke-width:0.9" d="m 163.125000,371.25 0,-45" inkscape:connector-curvature="0" />
  <path style="fill:none;stroke:#000000;stroke-width:0.9" d="m 236.250000,11.25 0,-45" inkscape:connector-curvature="0" />
  <path style="fill:none;stroke:#000000;stroke-width:0.9" d="m 236.250000,371.25 0,-45" inkscape:connector-curvature="0" />
  <path style="fill:none;stroke:#000000;stroke-width:0.9" d="m -33.75,11.250000 45,0" inkscape:connector-curvature="0" />
  <path style="fill:none;stroke:#000000;stroke-width:0.9" d="m 236.25,11.250000 45,0" inkscape:connector-curvature="0" />
  <path style="fill:none;stroke:#000000;stroke-width:0.9" d="m -33.75,118.125000 45,0" inkscape:connector-curvature="0" />
  <path style="fill:none;stroke:#000000;stroke-width:0.9" d="m 236.25,118.125000 45,0" inkscape:connector-curvature="0" />
  <path style="fill:none;stroke:#000000;stroke-width:0.9" d="m -33.75,168.750000 45,0" inkscape:connector-curvature="0" />
  <path style="fill:none;stroke:#000000;stroke-width:0.9" d="m 236.25,168.750000 45,0" inkscape:connector-curvature="0" />
  <path style="fill:none;stroke:#000000;stroke-width:0.9" d="m -33.75,219.375000 45,0" inkscape:connector-curvature="0" />
  <path style="fill:none;stroke:#000000;stroke-width:0.9" d="m 236.25,219.375000 45,0" inkscape:connector-curvature="0" />
  <path style="fill:none;stroke:#000000;stroke-width:0.9" d="m -33.75,326.250000 45,0" inkscape:connector-curvature="0" />
  <path style="fill:none;stroke:#000000;stroke-width:0.9" d="m 236.25,326.250000 45,0" inkscape:connector-curvature="0" />
  <g id="guide-short0-6" >
    <rect x="0.000000" y="-22.500000" width="163.125000" height="22.500000" style="fill:#ffd291;stroke:#000000;stroke-width:0.9" />
    <rect x="0.000000" y="-22.500000" width="146.250000" height="22.500000" style="fill:#b4e982;stroke:#000000;stroke-width:0.9" />
    <rect x="0.000000" y="-22.500000" width="33.750000" height="22.500000" style="fill:#5adc4f;stroke:#000000;stroke-width:0.9" />
    <rect x="45.000000" y="-22.500000" width="33.750000" height="22.500000" style="fill:#5adc4f;stroke:#000000;stroke-width:0.9" />
    <rect x="90.000000" y="-22.500000" width="39.375000" height="22.500000" style="fill:#5adc4f;stroke:#000000;stroke-width:0.9" />
    <rect x="163.125000" y="-22.500000" width="84.375000" height="22.500000" style="fill:#b9deff;stroke:#000000;stroke-width:0.9" />
    <rect x="185.625000" y="-22.500000" width="61.875000" height="22.500000" style="fill:#9bceff;stroke:#000000;stroke-width:0.9" />
    <rect x="213.750000" y="-22.500000" width="33.750000" height="22.500000" style="fill:#73baff;stroke:#000000;stroke-width:0.9" />
  </g>
  <g id="guide-long1-1" >
    <rect x="247.500000" y="219.375000" width="22.500000" height="118.125000" style="fill:#ffd291;stroke:#000000;stroke-width:0.9" />
    <rect x="247.500000" y="236.250000" width="22.500000" height="101.250000" style="fill:#b4e982;stroke:#000000;stroke-width:0.9" />
    <rect x="247.500000" y="258.750000" width="22.500000" height="78.750000" style="fill:#5adc4f;stroke:#000000;stroke-width:0.9" />
    <rect x="247.500000" y="0.000000" width="22.500000" height="219.375000" style="fill:#b9deff;stroke:#000000;stroke-width:0.9" />
    <rect x="247.500000" y="0.000000" width="22.500000" height="168.750000" style="fill:#9bceff;stroke:#000000;stroke-width:0.9" />
    <rect x="247.500000" y="0.000000" width="22.500000" height="101.250000" style="fill:#73baff;stroke:#000000;stroke-width:0.9" />
  </g>
  <g id="guide-short2-6" transform="matrix(-1,0,0,1,247.5,360)" >
    <rect x="0.000000" y="-22.500000" width="163.125000" height="22.500000" style="fill:#ffd291;stroke:#000000;stroke-width:0.9" />
    <rect x="0.000000" y="-22.500000" width="146.250000" height="22.500000" style="fill:#b4e982;stroke:#000000;stroke-width:0.9" />
    <rect x="0.000000" y="-22.500000" width="33.750000" height="22.500000" style="fill:#5adc4f;stroke:#000000;stroke-width:0.9" />
    <rect x="45.000000" y="-22.500000" width="33.750000" height="22.500000" style="fill:#5adc4f;stroke:#000000;stroke-width:0.9" />
    <rect x="90.000000" y="-22.500000" width="39.375000" height="22.500000" style="fill:#5adc4f;stroke:#000000;stroke-width:0.9" />
    <rect x="163.125000" y="-22.500000" width="84.375000" height="22.500000" style="fill:#b9deff;stroke:#000000;stroke-width:0.9" />
    <rect x="185.625000" y="-22.500000" width="61.875000" height="22.500000" style="fill:#9bceff;stroke:#000000;stroke-width:0.9" />
    <rect x="213.750000" y="-22.500000" width="33.750000" height="22.500000" style="fill:#73baff;stroke:#000000;stroke-width:0.9" />
  </g>
  <g id="guide-long3-3" transform="matrix(1,0,0,-1,-270,337.5)" >
    <rect x="247.500000" y="118.125000" width="22.500000" height="219.375000" style="fill:#ffd291;stroke:#000000;stroke-width:0.9" />
    <rect x="247.500000" y="123.750000" width="22.500000" height="213.750000" style="fill:#b4e982;stroke:#000000;stroke-width:0.9" />
    <rect x="247.500000" y="225.000000" width="22.500000" height="112.500000" style="fill:#5adc4f;stroke:#000000;stroke-width:0.9" />
    <rect x="247.500000" y="151.875000" width="22.500000" height="61.875000" style="fill:#5adc4f;stroke:#000000;stroke-width:0.9" />
    <rect x="247.500000" y="0.000000" width="22.500000" height="118.125000" style="fill:#b9deff;stroke:#000000;stroke-width:0.9" />
    <rect x="247.500000" y="0.000000" width="22.500000" height="84.375000" style="fill:#9bceff;stroke:#000000;stroke-width:0.9" />
    <rect x="247.500000" y="0.000000" width="22.500000" height="50.625000" style="fill:#73baff;stroke:#000000;stroke-width:0.9" />
  </g>
</g>
<g inkscape:groupmode="layer" id="cut_line_layer" inkscape:label="Cut Line" style="display:none" sodipodi:insensitive="true" >
  <rect style="fill:none;stroke:#000000;stroke-width:0.5;stroke-linecap:butt;stroke-linejoin:bevel;stroke-miterlimit:4;stroke-dasharray:none;stroke-opacity:1" width="225" height="315" x="11.25" y="11.25" ry="17.361111" />
</g>
<g inkscape:groupmode="layer" id="page_border_layer" inkscape:label="Page Border" style="display:none" sodipodi:insensitive="true" >
  <rect style="fill:none;stroke:#000000;stroke-width:0.5;stroke-linecap:butt;stroke-linejoin:bevel;stroke-miterlimit:4;stroke-dasharray:none;stroke-opacity:1" width="247.5" height="337.5" x="0" y="0" />
</g>

</svg>
