<?xml version="1.0" encoding="UTF-8" standalone="no"?>
<!-- Created with Inkscape (http://www.inkscape.org/) -->

<svg
   width="10.978445mm"
   height="10.978445mm"
   viewBox="0 0 10.978445 10.978445"
   version="1.1"
   id="svg2712"
   inkscape:version="1.1 (c4e8f9ed74, 2021-05-24)"
   sodipodi:docname="fish.svg"
   xmlns:inkscape="http://www.inkscape.org/namespaces/inkscape"
   xmlns:sodipodi="http://sodipodi.sourceforge.net/DTD/sodipodi-0.dtd"
   xmlns:xlink="http://www.w3.org/1999/xlink"
   xmlns="http://www.w3.org/2000/svg"
   xmlns:svg="http://www.w3.org/2000/svg">
  <sodipodi:namedview
     id="namedview2714"
     pagecolor="#ffffff"
     bordercolor="#666666"
     borderopacity="1.0"
     inkscape:pageshadow="2"
     inkscape:pageopacity="0.0"
     inkscape:pagecheckerboard="0"
     inkscape:document-units="mm"
     showgrid="false"
     fit-margin-top="0"
     fit-margin-left="0"
     fit-margin-right="0"
     fit-margin-bottom="0"
     inkscape:zoom="17.597674"
     inkscape:cx="29.975553"
     inkscape:cy="22.5598"
     inkscape:window-width="3440"
     inkscape:window-height="1406"
     inkscape:window-x="0"
     inkscape:window-y="394"
     inkscape:window-maximized="1"
     inkscape:current-layer="layer1" />
  <defs
     id="defs2709">
    <linearGradient
       inkscape:collect="always"
       xlink:href="#linearGradient6834"
       id="linearGradient4766"
       gradientUnits="userSpaceOnUse"
       gradientTransform="matrix(0.28222223,0,0,0.28222223,84.593992,126.97276)"
       x1="178.78909"
       y1="-114.78283"
       x2="180.4073"
       y2="-103.78283" />
    <linearGradient
       id="linearGradient6834"
       inkscape:collect="always">
      <stop
         id="stop6836"
         offset="0"
         style="stop-color:#ff5555;stop-opacity:1" />
      <stop
         id="stop6838"
         offset="1"
         style="stop-color:#ffffff;stop-opacity:1" />
    </linearGradient>
  </defs>
  <g
     inkscape:label="Layer 1"
     inkscape:groupmode="layer"
     id="layer1"
     transform="translate(-129.57264,-90.10871)">
    <path
       style="color:#000000;fill:#ffffff;stroke-width:0.254;stroke-linecap:round;stroke-linejoin:round;-inkscape-stroke:none"
       d="m 140.42408,95.597931 a 5.3622222,5.3622222 0 0 1 -5.36222,5.362219 5.3622222,5.3622222 0 0 1 -5.36222,-5.362219 5.3622222,5.3622222 0 0 1 5.36222,-5.362222 5.3622222,5.3622222 0 0 1 5.36222,5.362222 z"
       id="path1295" />
    <path
       style="color:#000000;fill:#000000;stroke-linecap:round;stroke-linejoin:round;-inkscape-stroke:none"
       d="m 135.0625,90.109375 c -3.03011,0 -5.49023,2.458175 -5.49023,5.488281 0,3.030107 2.46012,5.490234 5.49023,5.490234 3.03011,0 5.48828,-2.460127 5.48828,-5.490234 0,-3.030106 -2.45817,-5.488281 -5.48828,-5.488281 z m 0,0.253906 c 2.89283,0 5.23437,2.34154 5.23437,5.234375 0,2.892835 -2.34154,5.236324 -5.23437,5.236324 -2.89283,0 -5.23633,-2.343489 -5.23633,-5.236324 0,-2.892835 2.3435,-5.234375 5.23633,-5.234375 z"
       id="path1297" />
    <path
       sodipodi:nodetypes="cscccsssscscsccccc"
       inkscape:connector-curvature="0"
       id="path5924"
       d="m 136.95022,93.857502 c 0.84403,0.170703 1.26822,0.352197 1.66304,0.751053 0.69149,0.698537 0.91735,1.848697 0.91735,1.848697 l -0.99916,0.140823 0.83822,0.234702 c -0.39564,0.348699 -0.8082,0.604305 -1.24057,0.757758 -0.64393,0.228529 -1.66436,0.33843 -2.33418,0.203471 -0.71121,-0.143296 -1.39358,-0.485115 -1.87869,-0.827473 -0.48061,-0.339175 -0.65645,-0.781894 -1.22554,-0.76601 -0.57132,0.01597 -0.86367,0.38389 -1.77077,0.71795 0.27895,-0.636885 0.4195,-1.255849 0.41696,-1.346899 -0.004,-0.132704 -0.17198,-0.831498 -0.48269,-1.620061 1.28924,0.551068 1.1672,1.111651 1.91562,1.133315 0.4657,0.01346 0.81234,-0.643162 1.3675,-0.849893 0,0 0.0261,-0.215445 -0.24214,-0.59097 0.59972,-0.3175 1.51692,-0.802491 2.59147,-0.597389 0.18019,0.189668 0.34029,0.450557 0.46357,0.810926 z"
       style="color:#000000;clip-rule:nonzero;display:inline;overflow:visible;visibility:visible;isolation:auto;mix-blend-mode:normal;color-interpolation:sRGB;color-interpolation-filters:linearRGB;solid-color:#000000;solid-opacity:1;fill:url(#linearGradient4766);fill-opacity:1;fill-rule:evenodd;stroke:none;stroke-width:0.254;stroke-linecap:round;stroke-linejoin:miter;stroke-miterlimit:4;stroke-dasharray:none;stroke-dashoffset:0;stroke-opacity:1;color-rendering:auto;image-rendering:auto;shape-rendering:auto;text-rendering:auto;enable-background:accumulate" />
    <path
       id="path5926"
       style="color:#000000;clip-rule:nonzero;display:inline;overflow:visible;visibility:visible;isolation:auto;mix-blend-mode:normal;color-interpolation:sRGB;color-interpolation-filters:linearRGB;solid-color:#000000;solid-opacity:1;fill:#000000;fill-opacity:1;fill-rule:evenodd;stroke:none;stroke-width:0.254;stroke-linecap:round;stroke-linejoin:miter;stroke-miterlimit:4;stroke-dasharray:none;stroke-dashoffset:0;stroke-opacity:1;color-rendering:auto;image-rendering:auto;shape-rendering:auto;text-rendering:auto;enable-background:accumulate"
       d="m 135.98776,92.870815 c -0.11301,2.63e-4 -0.21481,0.0053 -0.28474,0.01085 -0.97113,0.07599 -1.35261,0.388743 -2.11305,0.638721 0.22586,0.187012 0.39033,0.467371 0.44907,0.679545 -0.20955,0.132439 -0.44276,0.30127 -0.66146,0.471289 -0.22209,0.172661 -0.43125,0.306775 -0.60358,0.301791 -0.34233,-0.0099 -0.4391,-0.147169 -0.6718,-0.348816 -0.56043,-0.48565 -0.86738,-0.648108 -1.47691,-0.908989 0.24355,0.615733 0.57624,1.271184 0.58446,1.859835 0.007,0.532344 -0.3207,1.094668 -0.52555,1.565796 0.45742,-0.151164 0.90876,-0.378277 1.30638,-0.588078 0.25374,-0.13388 0.44481,-0.218068 0.70384,-0.225309 0.25128,-0.007 0.39579,0.07778 0.55965,0.219108 0.0708,0.06106 0.14533,0.136357 0.22479,0.213424 -0.0724,0.114458 -0.22455,0.15171 -0.49816,0.311608 0.55178,0.166494 0.7309,0.522301 1.17254,0.703833 0.15709,-0.07279 0.30552,-0.14939 0.3669,-0.306441 0.36232,0.18308 0.76343,0.342083 1.18495,0.434082 0.0105,0.138944 -0.0221,0.271687 -0.1478,0.494027 0.52282,-0.03874 0.87931,-0.13831 1.08779,-0.418579 0.53702,-0.01739 1.10171,-0.117435 1.52652,-0.268201 0.45027,-0.159803 0.87169,-0.430322 1.28209,-0.781864 0.0636,-0.05452 0.15798,-0.154767 0.0434,-0.188103 l -0.34675,-0.100769 0.42685,-0.06408 c 0.0513,-0.0077 0.10057,-0.06105 0.0786,-0.142627 -0.0142,-0.05239 -0.22109,-1.175333 -0.95188,-1.913579 -0.40198,-0.406078 -0.86252,-0.600763 -1.67173,-0.769978 -0.13332,-0.305059 -0.2762,-0.599707 -0.48163,-0.819589 -0.12424,-0.03695 -0.28942,-0.05278 -0.447,-0.05736 -0.0394,-0.0011 -0.0781,-0.0016 -0.11575,-0.0016 z m -0.008,0.243913 c 0.0292,3.14e-4 0.0584,0.0014 0.0873,0.0026 0.11568,0.0048 0.22893,0.01572 0.33848,0.02945 0.22003,0.265582 0.36223,0.578291 0.45423,0.838192 0.61937,0.112657 1.29928,0.348532 1.66347,0.713135 0.58932,0.589994 0.79939,1.46528 0.84284,1.654162 l -0.85214,0.11989 c -0.12551,0.0177 -0.12814,0.216723 -0.0165,0.248047 l 0.55914,0.157096 c -0.31629,0.246024 -0.6346,0.474218 -0.96997,0.593246 -0.0954,0.03387 -0.20292,0.0639 -0.31471,0.09198 -0.65797,-0.317389 -0.95404,-1.061606 -1.03456,-1.468127 -0.0432,-0.217949 -0.13671,-0.282757 -0.0754,0.129708 0.0782,0.526491 0.3828,1.069618 0.77515,1.409216 -0.54907,0.09774 -1.17603,0.125016 -1.61696,0.03617 -0.6883,-0.138678 -1.35857,-0.4737 -1.83038,-0.806669 -0.22499,-0.158786 -0.38351,-0.347646 -0.56999,-0.508496 -0.18649,-0.160853 -0.44566,-0.2732 -0.71933,-0.263034 -0.27255,0.01013 -0.56594,0.09883 -0.82786,0.236678 -0.19205,0.101082 -0.45881,0.225286 -0.7307,0.345716 0.16514,-0.38442 0.32603,-0.80551 0.32194,-1.105876 -0.006,-0.475364 -0.23836,-0.938057 -0.38499,-1.348755 0.40586,0.213196 0.66716,0.418345 0.84853,0.589628 0.22453,0.212056 0.48158,0.378728 0.83044,0.385507 0.24486,0.0048 0.52314,-0.171986 0.74621,-0.356051 0.30261,-0.249693 0.66977,-0.494899 1.07797,-0.652673 0.23787,-0.09195 0.61455,-0.229563 0.44235,-0.256315 -0.17803,-0.02766 -0.53823,0.08167 -0.77567,0.185001 -0.0597,-0.191468 -0.14905,-0.361382 -0.24133,-0.499711 0.52724,-0.169031 0.82095,-0.425133 1.70636,-0.487825 0.0896,-0.0093 0.17849,-0.01283 0.26613,-0.01189 z m 2.27273,1.935282 a 0.30846699,0.24140894 77.435858 0 0 -0.0346,0.0047 0.30846699,0.24140894 77.435858 0 0 -0.16846,0.353467 0.30846699,0.24140894 77.435858 0 0 0.30282,0.248564 0.30846699,0.24140894 77.435858 0 0 0.16846,-0.353467 0.30846699,0.24140894 77.435858 0 0 -0.2682,-0.253215 z m -2.71921,0.562757 c -0.14735,0.0042 -0.2976,0.067 -0.1602,0.304374 0.1248,0.215618 0.259,0.584307 0.2403,0.84801 -0.004,0.05473 0.0802,0.157307 0.24133,0.139527 0.12666,-0.01398 0.33286,-0.09962 0.4532,-0.176217 0.1306,-0.08314 0.14269,-0.136167 0.0491,-0.09147 -0.16944,0.08094 -0.27304,0.107239 -0.51521,0.121439 -0.0663,0.0039 -0.0826,-0.03997 -0.0796,-0.08423 0.0182,-0.307876 -0.0966,-0.58389 -0.23048,-0.81287 -0.0271,-0.04627 0.0217,-0.08729 0.0444,-0.08785 0.2055,-0.0057 0.50522,0.165101 0.63924,0.250631 0.14671,0.09366 0.21054,0.07911 0.12144,-0.01292 -0.23326,-0.240885 -0.50632,-0.356233 -0.66818,-0.387573 -0.0378,-0.0073 -0.0863,-0.01227 -0.13539,-0.01085 z" />
  </g>
</svg>
