<?xml version="1.0" encoding="UTF-8" standalone="no"?>
<!-- Created with Inkscape (http://www.inkscape.org/) -->

<svg
   width="10.978445mm"
   height="10.978445mm"
   viewBox="0 0 10.978445 10.978445"
   version="1.1"
   id="svg3126"
   inkscape:version="1.1 (c4e8f9ed74, 2021-05-24)"
   sodipodi:docname="hibiscus.svg"
   xmlns:inkscape="http://www.inkscape.org/namespaces/inkscape"
   xmlns:sodipodi="http://sodipodi.sourceforge.net/DTD/sodipodi-0.dtd"
   xmlns:xlink="http://www.w3.org/1999/xlink"
   xmlns="http://www.w3.org/2000/svg"
   xmlns:svg="http://www.w3.org/2000/svg">
  <sodipodi:namedview
     id="namedview3128"
     pagecolor="#ffffff"
     bordercolor="#666666"
     borderopacity="1.0"
     inkscape:pageshadow="2"
     inkscape:pageopacity="0.0"
     inkscape:pagecheckerboard="0"
     inkscape:document-units="mm"
     showgrid="false"
     fit-margin-top="0"
     fit-margin-left="0"
     fit-margin-right="0"
     fit-margin-bottom="0"
     inkscape:zoom="24.886869"
     inkscape:cx="36.465013"
     inkscape:cy="21.416917"
     inkscape:window-width="3440"
     inkscape:window-height="1406"
     inkscape:window-x="0"
     inkscape:window-y="394"
     inkscape:window-maximized="1"
     inkscape:current-layer="layer1" />
  <defs
     id="defs3123">
    <radialGradient
       inkscape:collect="always"
       xlink:href="#linearGradient9366"
       id="radialGradient9372-2"
       cx="60.884876"
       cy="-69.652748"
       fx="60.884876"
       fy="-69.652748"
       r="15.83531"
       gradientTransform="matrix(0.2374591,0,0,0.24587204,83.987335,130.2856)"
       gradientUnits="userSpaceOnUse" />
    <linearGradient
       inkscape:collect="always"
       id="linearGradient9366">
      <stop
         style="stop-color:#6c2eb4;stop-opacity:1"
         offset="0"
         id="stop9368" />
      <stop
         style="stop-color:#7a3dbf;stop-opacity:1"
         offset="0.27112341"
         id="stop2327" />
      <stop
         style="stop-color:#b882f7;stop-opacity:0.95686275"
         offset="0.58773863"
         id="stop5370" />
      <stop
         style="stop-color:#e7d2ff;stop-opacity:1"
         offset="1"
         id="stop9370" />
    </linearGradient>
  </defs>
  <g
     inkscape:label="Layer 1"
     inkscape:groupmode="layer"
     id="layer1"
     transform="translate(-92.830367,-107.45923)">
    <path
       style="color:#000000;fill:#ffffff;stroke-width:0.254;stroke-linecap:round;stroke-linejoin:round;-inkscape-stroke:none"
       d="m 103.68181,112.94846 a 5.3622222,5.3622222 0 0 1 -5.362222,5.36223 5.3622222,5.3622222 0 0 1 -5.362222,-5.36223 5.3622222,5.3622222 0 0 1 5.362222,-5.36222 5.3622222,5.3622222 0 0 1 5.362222,5.36222 z"
       id="path1935" />
    <path
       style="color:#000000;fill:#000000;stroke-linecap:round;stroke-linejoin:round;-inkscape-stroke:none"
       d="m 98.320312,107.45898 c -3.030106,0 -5.490234,2.46013 -5.490234,5.49024 0,3.03011 2.460128,5.48828 5.490234,5.48828 3.030108,0 5.488278,-2.45817 5.488278,-5.48828 0,-3.03011 -2.45817,-5.49024 -5.488278,-5.49024 z m 0,0.25391 c 2.892838,0 5.234378,2.34349 5.234378,5.23633 0,2.89283 -2.34154,5.23437 -5.234378,5.23437 -2.892834,0 -5.236328,-2.34154 -5.236328,-5.23437 0,-2.89284 2.343494,-5.23633 5.236328,-5.23633 z"
       id="path1937" />
    <path
       style="color:#000000;clip-rule:nonzero;display:inline;overflow:visible;visibility:visible;isolation:auto;mix-blend-mode:normal;color-interpolation:sRGB;color-interpolation-filters:linearRGB;solid-color:#000000;solid-opacity:1;fill:url(#radialGradient9372-2);fill-opacity:1;fill-rule:evenodd;stroke:none;stroke-width:0.254;stroke-linecap:round;stroke-linejoin:miter;stroke-miterlimit:4;stroke-dasharray:none;stroke-dashoffset:0;stroke-opacity:1;color-rendering:auto;image-rendering:auto;shape-rendering:auto;text-rendering:auto;enable-background:accumulate"
       d="m 98.579013,109.26654 c -0.37859,-0.006 -0.98504,0.36684 -1.23549,0.83991 -0.42758,-0.14902 -0.88012,-0.38246 -1.23835,-0.18829 -0.37715,0.22752 -0.8635,0.39466 -1.11217,0.71191 -0.287857,0.36727 -0.20629,0.91111 -0.293577,1.37745 -0.0912,0.48728 0.258617,1.02347 0.614807,1.29061 -0.13558,0.1998 -0.27971,0.43928 -0.30035,0.55202 -0.0648,0.57485 -0.24235,1.03264 -0.0487,1.43171 0.18353,0.37822 0.71727,0.45908 1.13164,0.72351 0.48063,0.20394 0.92642,0.23163 1.45113,0.11619 0.12593,0.23087 0.23143,0.43796 0.52738,0.53635 0.4665,0.1551 0.63771,0.44345 0.98416,0.38866 0.25525,-0.0404 0.48156,-0.24055 0.81627,-0.35758 0.269847,-0.0944 0.505837,-0.36989 0.613587,-0.60478 0.16967,-0.36987 0.17155,-0.76729 0.0937,-1.22302 0.30636,0.0284 0.55424,-0.029 0.62606,-0.0751 0.39556,-0.31669 0.61624,-0.31926 0.8376,-0.59921 0.19928,-0.25203 0.0953,-0.6497 0.14795,-1.0259 0.0538,-0.38499 -0.10528,-0.87854 -0.32134,-1.08684 -0.25854,-0.32337 -0.60207,-0.46863 -0.94838,-0.63654 0.063,-0.43027 0.0673,-0.80098 -0.16478,-1.03894 -0.28489,-0.29211 -0.39261,-0.75247 -0.72072,-0.93824 -0.398007,-0.22534 -0.842017,-0.0825 -1.386267,-0.18644 -0.0241,-0.005 -0.049,-0.007 -0.0742,-0.007 z"
       id="path5977"
       inkscape:connector-curvature="0"
       sodipodi:nodetypes="sccssccsccssssccssccssss" />
    <path
       id="path870"
       style="color:#000000;font-style:normal;font-variant:normal;font-weight:normal;font-stretch:normal;font-size:medium;line-height:normal;font-family:sans-serif;text-indent:0;text-align:start;text-decoration:none;text-decoration-line:none;text-decoration-style:solid;text-decoration-color:#000000;letter-spacing:normal;word-spacing:normal;text-transform:none;writing-mode:lr-tb;direction:ltr;baseline-shift:baseline;text-anchor:start;white-space:normal;clip-rule:nonzero;display:inline;overflow:visible;visibility:visible;isolation:auto;mix-blend-mode:normal;color-interpolation:sRGB;color-interpolation-filters:linearRGB;solid-color:#000000;solid-opacity:1;fill:#000000;fill-opacity:1;fill-rule:evenodd;stroke:none;stroke-width:0.96;stroke-linecap:round;stroke-linejoin:miter;stroke-miterlimit:4;stroke-dasharray:none;stroke-dashoffset:0;stroke-opacity:1;color-rendering:auto;image-rendering:auto;shape-rendering:auto;text-rendering:auto;enable-background:accumulate"
       d="M 10.847656 13.132812 A 0.6170197 0.6170197 0 0 0 10.234375 13.707031 A 0.6170197 0.6170197 0 0 0 10.806641 14.365234 A 0.6170197 0.6170197 0 0 0 11.466797 13.792969 A 0.6170197 0.6170197 0 0 0 10.894531 13.134766 A 0.6170197 0.6170197 0 0 0 10.847656 13.132812 z M 12.443359 13.246094 A 0.6170197 0.6170197 0 0 0 11.830078 13.818359 A 0.6170197 0.6170197 0 0 0 12.402344 14.478516 A 0.6170197 0.6170197 0 0 0 13.060547 13.90625 A 0.6170197 0.6170197 0 0 0 12.488281 13.246094 A 0.6170197 0.6170197 0 0 0 12.443359 13.246094 z M 14.03125 13.833984 A 0.6170197 0.6170197 0 0 0 13.419922 14.408203 A 0.6170197 0.6170197 0 0 0 13.992188 15.068359 A 0.6170197 0.6170197 0 0 0 14.650391 14.494141 A 0.6170197 0.6170197 0 0 0 14.078125 13.835938 A 0.6170197 0.6170197 0 0 0 14.03125 13.833984 z M 10.271484 14.527344 A 0.6170197 0.6170197 0 0 0 9.6601562 15.101562 A 0.6170197 0.6170197 0 0 0 10.232422 15.759766 A 0.6170197 0.6170197 0 0 0 10.890625 15.1875 A 0.6170197 0.6170197 0 0 0 10.318359 14.529297 A 0.6170197 0.6170197 0 0 0 10.271484 14.527344 z M 11.75 14.660156 C 11.261534 14.671495 11.145693 14.95572 11.623047 15.154297 C 15.125724 16.609755 18.932658 20.221852 19.716797 21.232422 C 20.593458 22.362463 21.253416 22.577689 21.724609 22.273438 C 22.195803 21.969186 21.917737 21.02172 21.025391 20.199219 C 19.440899 18.738583 14.429673 15.378688 12.355469 14.755859 C 12.117736 14.684426 11.912822 14.656755 11.75 14.660156 z M 11.611328 15.464844 A 0.6170197 0.6170197 0 0 0 11 16.039062 A 0.6170197 0.6170197 0 0 0 11.572266 16.697266 A 0.6170197 0.6170197 0 0 0 12.230469 16.125 A 0.6170197 0.6170197 0 0 0 11.658203 15.466797 A 0.6170197 0.6170197 0 0 0 11.611328 15.464844 z M 12.964844 16.234375 A 0.6170197 0.6170197 0 0 0 12.351562 16.808594 A 0.6170197 0.6170197 0 0 0 12.923828 17.466797 A 0.6170197 0.6170197 0 0 0 13.582031 16.894531 A 0.6170197 0.6170197 0 0 0 13.009766 16.236328 A 0.6170197 0.6170197 0 0 0 12.964844 16.234375 z "
       transform="matrix(0.26458333,0,0,0.26458333,92.830367,107.45923)" />
    <path
       id="path856"
       style="color:#000000;font-style:normal;font-variant:normal;font-weight:normal;font-stretch:normal;font-size:medium;line-height:normal;font-family:sans-serif;text-indent:0;text-align:start;text-decoration:none;text-decoration-line:none;text-decoration-style:solid;text-decoration-color:#000000;letter-spacing:normal;word-spacing:normal;text-transform:none;writing-mode:lr-tb;direction:ltr;baseline-shift:baseline;text-anchor:start;white-space:normal;clip-rule:nonzero;display:inline;overflow:visible;visibility:visible;isolation:auto;mix-blend-mode:normal;color-interpolation:sRGB;color-interpolation-filters:linearRGB;solid-color:#000000;solid-opacity:1;fill:#000000;fill-opacity:1;fill-rule:evenodd;stroke:none;stroke-width:0.96;stroke-linecap:round;stroke-linejoin:miter;stroke-miterlimit:4;stroke-dasharray:none;stroke-dashoffset:0;stroke-opacity:1;color-rendering:auto;image-rendering:auto;shape-rendering:auto;text-rendering:auto;enable-background:accumulate"
       d="M 24.728516 12.230469 C 24.69072 12.215351 24.315963 13.046692 23.904297 14.011719 C 23.497128 14.966087 23.042241 16.082006 22.857422 16.617188 C 22.669201 17.190088 22.439199 18.009127 22.226562 18.763672 C 22.290814 18.170248 22.344694 17.562876 22.337891 17.019531 C 22.322773 15.155619 21.883554 13.111658 21.806641 13.125 C 21.72916 13.140118 22.003375 15.203389 21.859375 17.001953 C 21.782273 17.892637 21.548336 18.994547 21.34375 19.810547 C 20.965684 19.075089 20.4288 18.053467 19.798828 17.126953 C 18.96616 15.936629 17.336043 14.908743 17.294922 14.966797 C 17.252213 15.026891 18.761976 16.213413 19.390625 17.378906 C 19.714908 17.953999 19.996795 18.557036 20.240234 19.115234 C 20.637123 19.423266 20.994933 19.714372 21.253906 19.953125 C 21.734511 20.396161 22.060461 20.874204 22.207031 21.328125 C 22.280354 21.555275 22.309594 21.778091 22.269531 21.996094 C 22.229846 22.214172 22.103163 22.427393 21.90625 22.554688 C 21.580455 22.765207 21.139275 22.786884 20.728516 22.59375 C 20.397051 22.437656 20.060807 22.127695 19.705078 21.71875 C 19.021097 21.741427 18.132102 21.781399 17.371094 21.902344 C 15.126546 22.213399 13.616666 23.383681 13.658203 23.443359 C 13.699778 23.503076 15.29162 22.517426 17.421875 22.378906 C 17.823677 22.360009 18.261019 22.371727 18.693359 22.390625 C 17.933712 22.661995 17.163529 22.941666 16.808594 23.117188 C 14.501835 24.097143 12.441202 26.396405 12.492188 26.445312 C 12.543967 26.494824 14.74731 24.347635 16.984375 23.566406 C 17.374422 23.45869 18.340588 23.193745 19.210938 22.96875 C 19.28993 22.949852 19.341244 22.934535 19.417969 22.916016 C 19.014391 23.188898 18.572862 23.512417 18.126953 23.9375 C 16.80597 25.184631 16.388395 26.607716 16.457031 26.632812 C 16.525819 26.659269 17.111743 25.340315 18.439453 24.298828 C 19.424247 23.533512 20.429554 23.137762 20.789062 23.054688 C 20.853314 23.521875 20.919358 24.247067 20.9375 24.863281 C 20.93372 26.340774 20.528618 28.674486 20.601562 28.689453 C 20.672996 28.704571 21.228369 26.404451 21.384766 24.888672 C 21.399884 24.766971 21.40663 24.622228 21.417969 24.488281 C 21.487512 24.936344 21.555771 25.418318 21.623047 25.730469 C 21.993063 28.089839 22.68608 30.239524 22.775391 30.214844 C 22.864965 30.188387 22.360186 28.000668 22.181641 25.666016 C 22.177861 25.437354 22.171748 25.065753 22.167969 24.742188 C 22.190646 24.803416 22.211257 24.880051 22.232422 24.9375 C 22.780302 26.659377 24.14181 28.331707 24.210938 28.28125 C 24.281615 28.22947 23.107989 26.434821 22.775391 24.794922 C 22.685438 24.228484 22.572569 23.478743 22.511719 22.947266 C 22.99187 22.969943 23.691374 23.038265 24.318359 23.154297 C 25.560728 23.399966 26.882392 24.210649 26.925781 24.148438 C 26.968112 24.087587 25.745822 23.116804 24.443359 22.689453 C 24.096021 22.569642 23.744893 22.487949 23.394531 22.396484 C 23.945473 22.33261 24.606688 22.266311 25.123047 22.228516 C 27.486941 22.150657 30.618817 22.98397 30.640625 22.910156 C 30.663302 22.837589 27.576478 21.830478 25.123047 21.748047 C 24.551053 21.706094 23.820971 21.693294 23.238281 21.679688 C 23.676555 21.582932 24.180586 21.47635 24.736328 21.353516 C 26.53459 20.988413 28.59416 20.034097 28.564453 19.962891 C 28.534217 19.890702 26.412043 20.683089 24.660156 20.878906 C 23.924774 20.949961 23.238114 21.003847 22.751953 21.025391 C 22.80978 20.82432 22.937538 20.47235 23.136719 19.984375 C 23.411112 19.311959 23.744172 18.554935 23.974609 18.128906 C 24.249003 17.636472 24.742103 17.00798 25.160156 16.492188 C 25.576622 15.978361 25.91499 15.584949 25.886719 15.556641 C 25.860262 15.530184 25.463317 15.864301 24.984375 16.328125 C 24.51046 16.786846 23.938704 17.386016 23.576172 17.867188 C 23.362251 18.145361 23.11055 18.56882 22.861328 19.007812 C 23.015533 18.21483 23.187524 17.347845 23.316406 16.744141 C 23.416186 16.221205 23.791936 15.085663 24.126953 14.097656 C 24.463331 13.105833 24.765668 12.245322 24.728516 12.230469 z M 19.705078 21.71875 C 19.619661 21.620482 19.539613 21.551264 19.451172 21.4375 C 19.245566 21.172555 18.741873 20.648282 18.080078 20.027344 C 17.98181 19.983879 17.915367 19.949715 17.814453 19.90625 C 16.333823 19.257381 14.413948 19.204739 14.408203 19.277344 C 14.400644 19.351422 16.295521 19.596322 17.599609 20.335938 C 18.605946 20.911068 19.45631 21.491071 19.705078 21.71875 z "
       transform="matrix(0.26458333,0,0,0.26458333,92.830367,107.45923)" />
    <path
       id="path5983"
       style="color:#000000;font-style:normal;font-variant:normal;font-weight:normal;font-stretch:normal;font-size:medium;line-height:normal;font-family:sans-serif;text-indent:0;text-align:start;text-decoration:none;text-decoration-line:none;text-decoration-style:solid;text-decoration-color:#000000;letter-spacing:normal;word-spacing:normal;text-transform:none;writing-mode:lr-tb;direction:ltr;baseline-shift:baseline;text-anchor:start;white-space:normal;clip-rule:nonzero;display:inline;overflow:visible;visibility:visible;isolation:auto;mix-blend-mode:normal;color-interpolation:sRGB;color-interpolation-filters:linearRGB;solid-color:#000000;solid-opacity:1;fill:#000000;fill-opacity:1;fill-rule:evenodd;stroke:none;stroke-width:0.254;stroke-linecap:round;stroke-linejoin:miter;stroke-miterlimit:4;stroke-dasharray:none;stroke-dashoffset:0;stroke-opacity:1;color-rendering:auto;image-rendering:auto;shape-rendering:auto;text-rendering:auto;enable-background:accumulate"
       d="m 98.431063,109.13768 c -0.0522,0.002 -0.10468,0.009 -0.1571,0.0202 -0.13979,0.0304 -0.27941,0.0923 -0.41031,0.17415 -0.25325,0.15827 -0.47893,0.39543 -0.62994,0.66198 -0.15184,-0.0836 -0.32975,-0.16595 -0.52038,-0.21394 -0.11361,-0.0286 -0.23056,-0.0465 -0.34365,-0.0424 -0.11308,0.004 -0.22234,0.0305 -0.31987,0.0894 -0.36221,0.21851 -0.90655,0.43312 -1.15601,0.80409 -0.292466,0.43494 -0.241913,0.91133 -0.300753,1.36322 -0.0344,0.26429 0.03289,0.54726 0.155033,0.79892 0.10835,0.22324 0.26199,0.41876 0.44028,0.55397 -0.14784,0.13762 -0.2592,0.30101 -0.2806,0.49093 -0.0315,0.27976 -0.0327,0.45418 -0.062,0.69918 -0.0294,0.24499 -0.0867,0.56564 0.0227,0.79117 0.10824,0.22305 0.31389,0.35035 0.52917,0.45423 0.21529,0.10387 0.49247,0.18899 0.68626,0.31265 0.34392,0.21948 0.8224,0.29374 1.40302,0.14521 0.10741,0.23777 0.23611,0.41052 0.49506,0.49661 0.21814,0.0725 0.36685,0.17615 0.51676,0.26406 0.1499,0.0879 0.37274,0.18324 0.57723,0.1509 0.29952,-0.0474 0.44766,-0.21611 0.76067,-0.32556 0.172667,-0.0604 0.398767,-0.24585 0.533297,-0.40773 0.13452,-0.16188 0.24595,-0.33744 0.30593,-0.46819 0.15694,-0.34213 0.14619,-0.6004 0.0506,-0.97255 0.20204,0.0246 0.40024,0.0108 0.54932,-0.10852 0.19033,-0.15238 0.32796,-0.30144 0.46302,-0.37827 0.13506,-0.0768 0.26319,-0.15873 0.38448,-0.31213 0.12222,-0.15457 0.14574,-0.35196 0.15141,-0.53743 0.006,-0.18546 -0.006,-0.37436 0.0181,-0.54777 0.0304,-0.21731 -0.002,-0.38499 -0.0749,-0.61288 -0.0732,-0.2279 -0.17665,-0.43252 -0.30799,-0.55914 -0.18736,-0.18062 -0.45155,-0.39361 -0.85524,-0.54726 0.0329,-0.1413 0.0419,-0.29608 0.0258,-0.44958 -0.0238,-0.22762 -0.0971,-0.45051 -0.24392,-0.601 -0.12757,-0.13081 -0.22302,-0.31065 -0.32866,-0.48886 -0.10565,-0.17821 -0.26785,-0.38808 -0.46044,-0.49712 -0.227037,-0.12854 -0.466237,-0.12952 -0.699177,-0.1261 -0.23294,0.003 -0.41927,0.041 -0.66094,-0.0393 -0.0665,-0.0221 -0.1349,-0.0331 -0.20412,-0.0351 -0.0173,-5e-4 -0.0348,-6.2e-4 -0.0522,0 z m 0.0444,0.21394 v 5.2e-4 c 0.0509,10e-4 0.098,0.0127 0.14417,0.0232 0.28418,0.0647 0.50256,0.0534 0.73174,0.0501 0.22918,-0.003 0.41969,0.001 0.59066,0.0987 0.135507,0.0767 0.280847,0.24881 0.382407,0.42013 0.10157,0.17131 0.20183,0.36735 0.35915,0.52865 0.0944,0.0968 0.16364,0.27983 0.18397,0.47439 0.0203,0.19456 -0.008,0.39867 -0.0698,0.52762 -0.12721,0.26266 -0.39929,0.52699 -0.6718,0.70279 -0.302417,0.19509 -0.623797,0.37417 -0.763257,0.43977 -0.20538,0.0966 -0.25752,0.21078 -0.12351,0.16227 0.12213,-0.0442 0.64195,-0.24387 0.988057,-0.46716 0.27896,-0.17997 0.59644,-0.40945 0.75809,-0.73536 0.36686,0.14063 0.59962,0.32847 0.77618,0.49868 0.0847,0.0817 0.18696,0.26558 0.2527,0.47026 0.0657,0.20468 0.0901,0.35064 0.0667,0.51831 -0.0284,0.20279 -0.0139,0.40061 -0.0191,0.57103 -0.005,0.17042 -0.0293,0.31336 -0.10645,0.41082 -0.10006,0.12655 -0.19291,0.18573 -0.32246,0.25942 -0.12954,0.0737 -0.28518,0.23308 -0.49041,0.39739 -0.0959,0.0767 -0.29687,0.0886 -0.51987,0.0439 -0.223,-0.0447 -0.47432,-0.10364 -0.628897,-0.1788 -0.14148,-0.0688 -0.31263,-0.20116 -0.48524,-0.34624 -0.17121,-0.1439 -0.26706,-0.22684 -0.31213,-0.28215 -0.12676,-0.15555 -0.20803,-0.16217 -0.11834,-0.0103 0.0363,0.0614 0.0837,0.15591 0.24702,0.32556 0.16329,0.16964 0.39438,0.37661 0.59014,0.4718 0.149477,0.0727 0.360867,0.15508 0.580327,0.20826 0.11813,0.41405 0.14035,0.59027 -0.0139,0.92656 -0.0478,0.10413 -0.15307,0.27287 -0.27544,0.42013 -0.12238,0.14726 -0.342597,0.30915 -0.439767,0.34313 -0.35642,0.12462 -0.51249,0.2829 -0.72347,0.31626 -0.14196,0.0224 -0.29677,-0.0431 -0.43563,-0.12454 -0.13885,-0.0814 -0.30923,-0.2001 -0.55759,-0.28267 -0.2559,-0.0851 -0.36789,-0.28713 -0.42943,-0.56172 -0.0679,-0.30317 -0.0799,-0.56974 -0.0108,-0.91778 0.0266,-0.13387 0.0973,-0.31393 0.17363,-0.49506 0.0718,-0.17049 0.1472,-0.28989 0.18552,-0.34055 0.15081,-0.19942 0.16181,-0.28847 -0.0227,-0.1328 -0.0254,0.0214 -0.12333,0.13067 -0.22582,0.2961 -0.10978,0.1772 -0.21041,0.37774 -0.25787,0.55346 -0.0904,0.33481 -0.12847,0.73361 -0.0501,1.08313 0.001,0.006 0.004,0.012 0.005,0.0181 -0.52635,0.13041 -0.98769,0.0543 -1.26297,-0.12144 -0.22058,-0.14077 -0.46179,-0.22795 -0.66301,-0.32504 -0.20121,-0.0971 -0.35465,-0.19985 -0.42994,-0.35502 -0.0842,-0.17354 -0.0305,-0.44483 -0.003,-0.67231 0.0273,-0.22748 0.0287,-0.40564 0.062,-0.70073 0.0179,-0.15896 0.16005,-0.33607 0.35915,-0.47749 0.1991,-0.14141 0.45189,-0.26043 0.63768,-0.29559 0.188,-0.0356 0.40288,-0.0591 0.63201,-0.0481 0.23067,0.011 0.39193,0.0492 0.52348,0.0873 0.14164,0.041 0.1994,0.005 0.0403,-0.0811 -0.0626,-0.034 -0.23427,-0.0889 -0.46974,-0.13591 -0.21161,-0.0423 -0.50555,-0.0583 -0.74311,-0.0134 -0.22431,0.0425 -0.51648,0.15148 -0.74207,0.3111 -0.15819,-0.106 -0.31232,-0.29329 -0.41703,-0.50902 -0.10762,-0.22172 -0.16249,-0.47088 -0.13539,-0.67902 0.0637,-0.48905 0.0261,-0.91996 0.25683,-1.25781 0.22561,-0.33032 0.70604,-0.51743 1.09812,-0.75396 0.11813,-0.0713 0.30238,-0.0721 0.50075,-0.0222 0.19837,0.05 0.40421,0.14695 0.55294,0.23668 0.33228,0.20047 0.66635,0.51212 0.82527,0.88522 0.0637,0.14952 0.13777,0.37039 0.18603,0.57671 0.051,0.21783 0.0788,0.31802 0.0915,0.40049 0.0217,0.141 0.0932,0.21537 0.0873,0.0729 -0.002,-0.038 -0.007,-0.17587 -0.0331,-0.39481 -0.026,-0.21894 -0.10524,-0.49846 -0.18345,-0.71675 -0.14073,-0.39282 -0.42851,-0.7087 -0.7705,-0.94464 0.13202,-0.23425 0.3388,-0.45127 0.56018,-0.58963 0.17075,-0.10672 0.34546,-0.16475 0.49816,-0.16175 z" />
  </g>
</svg>
