<?xml version="1.0" encoding="UTF-8" standalone="no"?>
<!-- Created with Inkscape (http://www.inkscape.org/) -->

<svg
   width="15.424692mm"
   height="15.424691mm"
   viewBox="0 0 15.424692 15.424691"
   version="1.1"
   id="svg1348"
   inkscape:version="1.1 (c4e8f9ed74, 2021-05-24)"
   sodipodi:docname="port.svg"
   xmlns:inkscape="http://www.inkscape.org/namespaces/inkscape"
   xmlns:sodipodi="http://sodipodi.sourceforge.net/DTD/sodipodi-0.dtd"
   xmlns="http://www.w3.org/2000/svg"
   xmlns:svg="http://www.w3.org/2000/svg">
  <sodipodi:namedview
     id="namedview1350"
     pagecolor="#ffffff"
     bordercolor="#666666"
     borderopacity="1.0"
     inkscape:pageshadow="2"
     inkscape:pageopacity="0.0"
     inkscape:pagecheckerboard="0"
     inkscape:document-units="mm"
     showgrid="false"
     fit-margin-top="0"
     fit-margin-left="0"
     fit-margin-right="0"
     fit-margin-bottom="0"
     inkscape:zoom="8.7988368"
     inkscape:cx="43.244353"
     inkscape:cy="25.912516"
     inkscape:window-width="3440"
     inkscape:window-height="1406"
     inkscape:window-x="0"
     inkscape:window-y="394"
     inkscape:window-maximized="1"
     inkscape:current-layer="layer1" />
  <defs
     id="defs1345" />
  <g
     inkscape:label="Layer 1"
     inkscape:groupmode="layer"
     id="layer1"
     transform="translate(-68.574311,-77.491541)">
    <path
       style="color:#000000;fill:#ffffff;stroke-width:0.508;stroke-linecap:round;stroke-linejoin:round;-inkscape-stroke:none"
       d="m 72.174212,81.762773 a 5.3622222,5.3622222 0 0 1 7.55356,-0.671326 5.3622222,5.3622222 0 0 1 0.67133,7.553553 5.3622222,5.3622222 0 0 1 -7.553554,0.671332 5.3622222,5.3622222 0 0 1 -0.671336,-7.553559 z"
       id="path1287" />
    <path
       id="path6375"
       style="fill:#000000;fill-opacity:1;stroke:none;stroke-width:0.141111;stroke-linejoin:miter;stroke-miterlimit:4;stroke-dasharray:none;stroke-dashoffset:0;stroke-opacity:1"
       d="m 75.601272,77.491541 -0.544153,2.233972 c -0.29888,0.06682 -0.593098,0.157968 -0.879016,0.273368 l -0.906921,-0.60203 -0.02894,1.086755 c -0.263232,0.169685 -0.51456,0.363346 -0.750859,0.580327 l -2.143021,-0.82889 1.193725,1.963187 c -0.167049,0.263056 -0.309787,0.536214 -0.428397,0.816488 l -1.065569,0.215491 0.748275,0.789099 c -0.0666,0.310459 -0.105927,0.624989 -0.119372,0.939994 l -2.102714,0.930176 2.233455,0.544153 c 0.06686,0.299197 0.158308,0.593332 0.273885,0.879533 l -0.60203,0.906404 1.086238,0.02894 c 0.169794,0.263317 0.363674,0.514495 0.580843,0.750859 l -0.828889,2.142504 1.963187,-1.193208 c 0.263021,0.166906 0.536248,0.309356 0.816488,0.427881 l 0.21549,1.066084 0.790133,-0.749308 c 0.310215,0.06647 0.624211,0.10645 0.938961,0.119889 l 0.930175,2.103231 0.544153,-2.233972 c 0.299173,-0.0668 0.593361,-0.158394 0.879533,-0.273885 l 0.906405,0.60203 0.02894,-1.085721 c 0.263471,-0.169823 0.514904,-0.363587 0.751375,-0.580844 l 2.141988,0.828373 -1.193726,-1.96267 c 0.16698,-0.263118 0.309859,-0.536117 0.428398,-0.816488 l 1.066085,-0.215491 -0.749308,-0.790649 c 0.06632,-0.30991 0.105453,-0.623998 0.118855,-0.938444 l 2.104265,-0.930176 -2.235006,-0.544669 c -0.06674,-0.298628 -0.157623,-0.59282 -0.272852,-0.8785 l 0.602031,-0.906921 -1.086755,-0.02894 C 80.836933,81.896116 80.643338,81.644998 80.4263,81.408615 l 0.82889,-2.143022 -1.962671,1.193726 c -0.263181,-0.167094 -0.536571,-0.309806 -0.817004,-0.428398 l -0.214974,-1.065568 -0.789616,0.748791 c -0.310347,-0.06649 -0.624578,-0.105985 -0.939477,-0.119372 z m 0.721919,2.602425 c 1.144437,0.0076 2.29354,0.398742 3.241146,1.191659 2.16596,1.812381 2.452135,5.031533 0.639755,7.197493 -1.812379,2.165959 -5.0305,2.450068 -7.19646,0.637687 -2.165959,-1.81238 -2.451618,-5.028434 -0.639238,-7.194393 1.019464,-1.218352 2.483379,-1.842256 3.954797,-1.832446 z" />
  </g>
</svg>
