<?xml version="1.0" encoding="UTF-8" standalone="no"?>
<!-- Created with Inkscape (http://www.inkscape.org/) -->

<svg
   width="10.978445mm"
   height="10.978445mm"
   viewBox="0 0 10.978445 10.978445"
   version="1.1"
   id="svg1671"
   inkscape:version="1.1 (c4e8f9ed74, 2021-05-24)"
   sodipodi:docname="squid.svg"
   xmlns:inkscape="http://www.inkscape.org/namespaces/inkscape"
   xmlns:sodipodi="http://sodipodi.sourceforge.net/DTD/sodipodi-0.dtd"
   xmlns="http://www.w3.org/2000/svg"
   xmlns:svg="http://www.w3.org/2000/svg">
  <sodipodi:namedview
     id="namedview1673"
     pagecolor="#ffffff"
     bordercolor="#666666"
     borderopacity="1.0"
     inkscape:pageshadow="2"
     inkscape:pageopacity="0.0"
     inkscape:pagecheckerboard="0"
     inkscape:document-units="mm"
     showgrid="false"
     fit-margin-top="0"
     fit-margin-left="0"
     fit-margin-right="0"
     fit-margin-bottom="0"
     inkscape:zoom="22.627417"
     inkscape:cx="19.334951"
     inkscape:cy="17.191534"
     inkscape:window-width="3440"
     inkscape:window-height="1406"
     inkscape:window-x="0"
     inkscape:window-y="394"
     inkscape:window-maximized="1"
     inkscape:current-layer="layer1" />
  <defs
     id="defs1668" />
  <g
     inkscape:label="Layer 1"
     inkscape:groupmode="layer"
     id="layer1"
     transform="translate(-72.417996,-118.00562)">
    <path
       style="color:#000000;fill:#ffffff;stroke-width:0.254;stroke-linecap:round;stroke-linejoin:round;-inkscape-stroke:none"
       d="m 83.269441,123.49484 a 5.3622222,5.3622222 0 0 1 -5.362222,5.36222 5.3622222,5.3622222 0 0 1 -5.362222,-5.36222 5.3622222,5.3622222 0 0 1 5.362222,-5.36222 5.3622222,5.3622222 0 0 1 5.362222,5.36222 z"
       id="path1003" />
    <path
       style="color:#000000;fill:#000000;stroke-linecap:round;stroke-linejoin:round;-inkscape-stroke:none"
       d="m 77.90625,118.00586 c -3.030106,0 -5.488281,2.45817 -5.488281,5.48828 0,3.03011 2.458175,5.49023 5.488281,5.49023 3.030106,0 5.490234,-2.46012 5.490234,-5.49023 0,-3.03011 -2.460128,-5.48828 -5.490234,-5.48828 z m 0,0.25391 c 2.892835,0 5.236328,2.34154 5.236328,5.23437 0,2.89284 -2.343493,5.23633 -5.236328,5.23633 -2.892835,0 -5.234375,-2.34349 -5.234375,-5.23633 0,-2.89283 2.34154,-5.23437 5.234375,-5.23437 z"
       id="path1005" />
    <path
       id="path5849"
       style="color:#000000;clip-rule:nonzero;display:inline;overflow:visible;visibility:visible;isolation:auto;mix-blend-mode:normal;color-interpolation:sRGB;color-interpolation-filters:linearRGB;solid-color:#000000;solid-opacity:1;fill:#ffffff;fill-opacity:1;fill-rule:evenodd;stroke:none;stroke-width:0.96;stroke-linecap:round;stroke-linejoin:miter;stroke-miterlimit:4;stroke-dasharray:none;stroke-dashoffset:0;stroke-opacity:1;color-rendering:auto;image-rendering:auto;shape-rendering:auto;text-rendering:auto;enable-background:accumulate"
       d="M 24.683594 4.4042969 L 22.5625 5.8183594 L 20.064453 8.2695312 L 17.943359 10.863281 L 16.763672 13.314453 L 16.009766 15.341797 L 16.009766 16.566406 L 17.800781 16.566406 L 17.376953 18.689453 L 16.763672 21.328125 L 16.669922 23.826172 L 16.576172 25.666016 L 17.470703 26.419922 L 19.357422 26.84375 L 21.335938 26.890625 L 22.845703 26.703125 L 24.353516 26.089844 L 24.683594 25.193359 L 25.013672 22.695312 L 24.683594 19.820312 L 24.494141 16.992188 L 26.333984 17.556641 L 26.380859 15.199219 L 26.144531 11.193359 L 25.720703 7.7050781 L 24.683594 4.4042969 z M 5.7949219 14.945312 C 5.521647 14.956906 5.2057294 15.073963 4.8828125 15.34375 C 3.9904282 16.0893 4.1015625 18.007812 4.1015625 18.007812 C 4.6348954 17.641123 6.2820501 16.643498 6.5820312 15.910156 C 6.7882812 15.405984 6.3961267 14.919807 5.7949219 14.945312 z M 35.478516 15.132812 C 34.779089 15.155494 34.339454 15.641842 34.626953 16.216797 C 35.026952 17.016809 37.167317 17.641652 37.833984 17.875 C 37.833984 17.875 37.26339 15.758754 36.390625 15.341797 C 36.065717 15.186589 35.752204 15.123937 35.478516 15.132812 z "
       transform="matrix(0.26458333,0,0,0.26458333,72.417996,118.00562)" />
    <path
       id="path5845"
       style="fill:#000000;fill-opacity:1;fill-rule:evenodd;stroke:none;stroke-width:0.96;stroke-linecap:round;stroke-linejoin:miter;stroke-miterlimit:4;stroke-dasharray:none;stroke-opacity:1"
       d="M 24.857422 3.9140625 C 24.739792 3.9156393 24.627056 3.9551192 24.550781 4.0058594 C 21.497271 6.0011098 19.345224 7.8349624 17.363281 11.076172 C 16.296997 12.913665 15.467274 14.655845 15.431641 16.712891 C 15.438066 17.032639 15.724348 17.275483 16.041016 17.230469 C 16.566302 17.154878 16.974122 17.119073 17.306641 17.09375 C 17.073935 17.888093 16.858853 18.704126 16.662109 19.599609 C 16.255943 21.448287 15.988212 24.022378 16.207031 25.597656 C 14.789981 25.449673 13.350827 25.894422 12.285156 26.763672 C 10.962125 27.822204 9.5402983 28.801151 7.9316406 29.091797 C 7.2654082 29.222569 6.5362744 29.122821 5.8320312 28.929688 C 5.3551342 28.780094 4.8575099 28.620219 4.5234375 28.326172 C 4.35272 28.292534 4.1826168 28.226604 4.0136719 28.111328 C 4.3187478 28.770705 5.0428355 29.12958 5.6914062 29.359375 C 6.4132582 29.636755 7.206829 29.816266 8.0234375 29.742188 C 9.8311515 29.563869 11.502241 28.668233 12.958984 27.666016 C 13.748627 27.149896 14.746887 26.915489 15.660156 26.998047 C 14.982754 27.39622 14.301135 27.622212 13.716797 27.552734 C 13.500268 27.641553 13.286789 27.737801 13.09375 27.863281 C 12.915961 27.985738 12.725657 28.096922 12.541016 28.214844 C 13.86824 28.94905 15.378987 28.659125 16.576172 27.982422 C 16.160032 28.951588 15.560814 29.807064 14.708984 30.302734 C 14.674591 30.321632 14.622863 30.347219 14.585938 30.369141 C 14.619197 30.510117 14.657827 30.652748 14.669922 30.792969 C 14.685418 30.972496 14.676854 31.152277 14.667969 31.332031 C 14.862161 31.235653 15.048761 31.129011 15.205078 31.015625 C 16.290206 30.330871 17.092362 29.279627 17.626953 28.107422 C 16.964453 30.455184 17.001702 33.096142 18.306641 35.201172 C 18.769277 35.954167 18.902912 37.016729 18.384766 37.660156 C 18.350145 37.711558 18.310261 37.760467 18.265625 37.804688 C 17.919942 38.242357 17.155804 38.459045 16.591797 38.111328 C 17.136487 38.609205 18.155417 38.52788 18.697266 37.898438 C 19.37715 37.118267 19.372692 35.8462 18.841797 34.873047 C 17.679087 32.715736 18.049046 30.066794 18.964844 27.839844 C 18.931646 29.160324 18.846372 30.451993 18.445312 31.630859 C 18.425281 31.692466 18.393544 31.751272 18.371094 31.8125 C 18.372375 32.313098 18.422891 32.805081 18.53125 33.285156 C 18.825978 32.864079 19.092528 32.415369 19.294922 31.927734 C 19.745625 30.821788 19.956388 29.643711 20.083984 28.478516 C 20.194179 30.011655 20.498003 31.542802 21.060547 32.990234 C 21.35871 33.779853 21.779085 34.586717 22.435547 35.246094 C 23.019824 35.830333 23.847346 36.176209 24.71875 36.107422 C 25.658647 35.937041 26.316488 35.291483 26.617188 34.498047 C 26.755681 33.774608 26.591024 33.027067 26.207031 32.498047 C 26.703072 33.795672 25.879773 35.439833 24.658203 35.451172 C 24.018008 35.473358 23.414136 35.143662 23.003906 34.679688 C 22.501411 34.114384 22.204555 33.389993 21.96875 32.646484 C 21.578261 31.388848 21.401408 30.079451 21.373047 28.767578 C 21.710892 30.067165 22.266498 31.337437 23.144531 32.400391 C 23.509709 32.84354 23.740072 33.419642 23.65625 33.941406 C 23.629415 34.204461 23.53812 34.469684 23.417969 34.742188 C 23.592318 34.886943 23.789102 34.999133 24 35.078125 C 24.174047 34.759133 24.322296 34.424413 24.404297 34.052734 C 24.560883 33.282807 24.339872 32.462529 23.871094 31.814453 C 23.263394 30.95269 22.899539 29.946623 22.679688 28.900391 C 23.127056 29.766771 23.875914 30.616212 25.054688 31.048828 C 26.191324 31.414686 27.491254 31.276269 28.611328 30.658203 C 28.346194 30.586014 28.080466 30.514349 27.810547 30.429688 C 27.809084 30.429688 27.808088 30.427734 27.806641 30.427734 L 27.804688 30.427734 C 27.470653 30.335136 27.136757 30.222759 26.804688 30.097656 C 26.336922 30.141121 25.877018 30.089874 25.46875 29.916016 C 24.574331 29.597957 23.978089 28.726228 23.701172 27.806641 C 24.809934 29.059899 26.359615 29.7796 27.875 30.199219 C 29.372502 30.668787 30.937245 30.853304 31.720703 31.865234 C 32.245566 32.513159 32.498492 33.512313 32.035156 34.123047 C 32.035156 34.123047 32.029293 34.130859 32.029297 34.130859 C 31.756846 34.680894 30.960567 35.102519 30.28125 34.828125 C 30.901516 35.222179 31.865242 34.994044 32.363281 34.351562 C 32.977281 33.56629 32.824152 32.333848 32.191406 31.480469 C 31.246645 30.21788 29.541226 29.810228 28.142578 29.324219 C 26.687388 28.780268 25.277306 28.0121 24.507812 26.869141 C 25.580083 26.758393 26.696265 26.95336 27.716797 27.384766 C 28.275305 27.619096 28.833293 27.925084 29.404297 28.236328 C 29.537714 28.023541 29.640329 27.781418 29.742188 27.537109 C 29.212581 27.194306 28.67606 26.846831 28.089844 26.544922 C 27.180901 26.078453 26.1708 25.778413 25.123047 25.703125 C 25.113918 25.702433 25.104839 25.701827 25.095703 25.701172 C 25.697508 23.660782 25.131741 19.978692 24.980469 17.554688 C 25.378264 17.646908 25.773817 17.765105 26.150391 17.945312 C 26.50971 18.118415 26.841866 17.859602 26.832031 17.460938 C 26.832031 17.460938 26.700467 12.98778 26.572266 11.203125 C 26.366433 8.3383565 26.19067 7.2604692 25.335938 4.3164062 C 25.276108 4.0696031 25.132544 3.9582096 24.976562 3.9257812 C 24.937567 3.9172773 24.896632 3.9135369 24.857422 3.9140625 z M 24.546875 4.9746094 C 25.174961 7.2772865 25.47733 8.7617914 25.658203 11.279297 C 25.767242 12.796966 25.849071 16.160168 25.869141 16.955078 C 25.064989 16.712432 24.290338 16.54152 23.646484 16.478516 C 23.649686 15.478566 23.65856 13.627107 23.746094 11.640625 C 23.805092 10.298401 23.417843 11.047909 23.228516 12.052734 C 22.823086 14.204684 22.736328 15.765888 22.736328 16.755859 C 22.735901 17.029119 22.941298 17.258272 23.212891 17.287109 C 23.476059 17.313566 23.76822 17.362595 24.050781 17.400391 C 24.363499 20.108536 24.847512 23.153937 24.193359 25.517578 C 24.175521 25.582034 24.133345 25.64509 24.074219 25.705078 C 24.071015 25.705331 24.067657 25.70482 24.064453 25.705078 C 24.065011 25.707702 24.065849 25.710267 24.066406 25.712891 C 23.394576 26.372984 20.382047 26.738195 18.572266 26.355469 C 18.019468 26.238681 17.11808 26.023773 17.074219 25.197266 C 16.981734 23.454601 17.142945 21.661269 17.416016 20.148438 C 17.83111 17.848671 18.577085 15.586168 19.201172 14.070312 L 20.205078 11.443359 C 20.811987 9.9003295 20.590524 9.6825485 19.529297 11.552734 C 18.717212 13.161037 18.131984 14.568016 17.646484 16.017578 C 17.441029 16.044035 16.912274 16.110649 16.318359 16.183594 C 16.406347 15.624828 16.525649 14.966227 16.820312 14.152344 C 17.203553 13.093774 17.684377 12.034652 17.970703 11.566406 C 19.724419 8.6984629 21.769799 6.7538598 24.546875 4.9746094 z M 8.6054688 13.701172 C 8.5674301 13.701727 8.5296851 13.702551 8.4921875 13.705078 C 7.6273116 13.768574 6.7824621 14.195934 6.1230469 14.591797 C 6.1230469 14.591797 6.1210938 14.591797 6.1210938 14.591797 C 5.6719044 14.497909 5.1340608 14.63862 4.6386719 15.052734 C 4.0620294 15.534511 3.8651468 16.283168 3.7753906 16.898438 C 3.6856268 17.513745 3.7148438 18.027344 3.7148438 18.027344 L 3.7597656 18.714844 L 4.3203125 18.322266 C 4.5688542 18.151431 5.1230947 17.808002 5.65625 17.408203 C 6.1894053 17.008405 6.7134589 16.59477 6.9335938 16.056641 C 7.0600565 15.747517 7.025207 15.418814 6.8808594 15.150391 C 7.3346547 14.867323 8.0499935 14.46342 8.5878906 14.427734 C 8.9577174 14.386915 9.4461889 14.512287 9.7363281 14.849609 C 10.663046 15.735833 10.571037 17.364409 10.183594 19.332031 C 9.8317197 20.799735 9.7674974 22.395425 10.060547 23.990234 C 10.248238 25.093667 10.664835 26.222417 11.380859 27.154297 C 11.634806 26.966832 11.887089 26.776286 12.134766 26.578125 C 12.152529 26.563007 12.171538 26.552291 12.189453 26.539062 C 11.538377 25.758137 11.161562 24.730097 10.953125 23.830078 C 10.602687 22.265089 10.655178 20.770616 10.917969 19.509766 C 11.400032 17.29243 11.245373 15.516205 10.232422 14.384766 C 9.8000711 13.907447 9.1760478 13.692838 8.6054688 13.701172 z M 31.943359 14.039062 C 31.903485 14.039005 31.864221 14.039957 31.824219 14.041016 C 31.397529 14.052354 30.964661 14.127425 30.537109 14.292969 C 29.470886 14.799728 28.950973 16.114034 29.412109 17.296875 C 30.197306 19.299458 30.928213 21.63892 30.724609 23.953125 C 30.526713 25.97264 30.232016 28.16299 28.802734 29.289062 C 28.801241 29.290121 28.800321 29.292402 28.798828 29.292969 C 29.140233 29.405977 29.480214 29.521258 29.832031 29.654297 C 31.144242 28.108319 31.436506 26.009551 31.519531 24.009766 C 31.647506 21.498383 30.857967 19.088223 30.042969 17.048828 C 29.696386 16.189704 30.110218 15.182201 30.804688 14.947266 C 32.036288 14.417147 33.388387 15.017358 34.214844 15.515625 C 34.211862 15.523533 34.207857 15.53105 34.205078 15.539062 C 34.112971 15.804763 34.14927 16.112955 34.287109 16.388672 C 34.591702 16.997894 35.282876 17.316966 35.976562 17.613281 C 36.670246 17.909596 37.39174 18.132506 37.705078 18.242188 L 38.390625 18.478516 L 38.207031 17.777344 C 38.207031 17.777344 38.057214 17.220071 37.792969 16.609375 C 37.528704 15.998679 37.195636 15.297523 36.560547 14.994141 C 35.955294 14.705054 35.352812 14.67485 34.884766 14.867188 C 34.884249 14.86692 34.88333 14.867455 34.882812 14.867188 C 34.107503 14.465975 33.052751 14.040657 31.943359 14.039062 z M 5.8085938 15.326172 C 5.9163342 15.322753 6.0045204 15.345772 6.0703125 15.376953 C 6.2457582 15.460103 6.3037149 15.575982 6.2246094 15.769531 C 6.1447858 15.964933 5.697969 16.413087 5.1992188 16.787109 C 4.9421731 16.979865 4.7556761 17.094196 4.5195312 17.251953 C 4.5282242 17.135544 4.5158807 17.140474 4.5351562 17.007812 C 4.6125232 16.477356 4.8092583 15.898539 5.125 15.634766 C 5.3952835 15.408939 5.6290263 15.331871 5.8085938 15.326172 z M 35.564453 15.515625 C 35.758611 15.517656 35.987584 15.565421 36.228516 15.6875 C 36.593883 15.872319 36.845232 16.368186 37.083984 16.919922 C 37.155606 17.085465 37.142966 17.093525 37.195312 17.238281 C 36.881158 17.130943 36.62936 17.055919 36.279297 16.90625 C 35.636297 16.631478 35.068048 16.231806 34.972656 16.041016 C 34.910521 15.916669 34.914986 15.850732 34.935547 15.791016 C 34.956334 15.731299 35.001003 15.669974 35.105469 15.613281 C 35.209954 15.556777 35.370295 15.513594 35.564453 15.515625 z M 18.943359 22.09375 A 0.54211525 0.91923879 0 0 0 18.402344 23.013672 A 0.54211525 0.91923879 0 0 0 18.943359 23.933594 A 0.54211525 0.91923879 0 0 0 19.486328 23.013672 A 0.54211525 0.91923879 0 0 0 18.943359 22.09375 z M 20.982422 22.189453 A 0.54211525 0.91923879 0 0 0 20.441406 23.107422 A 0.54211525 0.91923879 0 0 0 20.982422 24.027344 A 0.54211525 0.91923879 0 0 0 21.525391 23.107422 A 0.54211525 0.91923879 0 0 0 20.982422 22.189453 z M 30.949219 28.271484 C 30.860778 28.477847 30.756242 28.677935 30.646484 28.875 C 31.786624 29.387769 32.991343 29.77277 34.230469 29.976562 C 34.763586 30.086925 35.374677 30.171737 35.976562 30.109375 C 36.459579 29.997879 36.912675 29.796421 37.263672 29.458984 C 36.352594 30.047457 35.249507 29.813716 34.300781 29.582031 C 33.122551 29.297811 32.001133 28.839925 30.949219 28.271484 z M 13.253906 29.318359 C 13.190063 29.317584 13.124601 29.323717 13.056641 29.337891 C 12.610634 29.424064 12.202005 29.784992 12.123047 30.251953 C 12.055771 30.649786 12.12977 31.090203 12.539062 31.388672 C 12.897966 31.650215 13.330519 31.697001 13.763672 31.630859 C 13.756869 31.445285 13.744453 31.272211 13.730469 31.119141 C 13.723666 31.044306 13.690784 30.926454 13.664062 30.818359 C 13.451653 30.882989 13.239384 30.92073 13.048828 30.863281 C 12.886271 30.814147 12.759276 30.532574 12.837891 30.337891 C 12.866237 30.267591 12.910392 30.208849 12.957031 30.158203 C 12.972149 30.143085 12.989305 30.128841 13.005859 30.115234 C 13.040631 30.084998 13.077389 30.064639 13.117188 30.046875 C 13.138731 30.035536 13.158926 30.023311 13.181641 30.019531 C 13.238636 30.004413 13.298789 30.000253 13.359375 30.007812 C 13.439161 30.022931 13.517101 30.056842 13.59375 30.121094 C 13.805517 30.298354 13.938536 30.868699 13.953125 31.066406 C 13.995947 31.647735 14.103699 32.352647 13.675781 33.355469 C 14.259212 32.70384 14.509462 31.738522 14.429688 30.8125 C 14.39605 30.422491 14.288191 30.030875 14.044922 29.710938 C 13.998736 29.650087 13.940499 29.59122 13.875 29.539062 C 13.807006 29.485015 13.729986 29.439383 13.644531 29.402344 C 13.559265 29.364548 13.466476 29.339464 13.367188 29.328125 L 13.367188 29.326172 C 13.330337 29.32192 13.292212 29.318824 13.253906 29.318359 z M 17.351562 33.615234 C 17.191197 33.825376 17.019785 34.031427 16.84375 34.232422 C 16.082134 35.082135 15.116197 35.780133 14.041016 36.001953 C 13.727315 36.065827 13.386052 36.055113 13.074219 35.974609 C 12.602005 35.928121 12.145188 35.715996 11.888672 35.277344 C 12.149157 36.092097 13.175002 36.540298 14.121094 36.408203 C 15.324269 36.239636 16.451001 35.565282 17.339844 34.683594 C 17.439094 34.586082 17.534444 34.480576 17.630859 34.378906 C 17.522198 34.128702 17.432293 33.874208 17.351562 33.615234 z M 22.833984 35.851562 C 22.680725 36.116507 22.526684 36.399016 22.408203 36.728516 C 22.378723 36.878941 22.358453 37.034291 22.349609 37.191406 C 22.349345 37.91802 22.801192 38.410875 23.308594 38.615234 C 22.871435 38.300778 22.605629 37.76029 22.734375 37.265625 C 22.850633 36.835817 23.100564 36.474314 23.351562 36.111328 C 23.17109 36.039517 22.997532 35.953988 22.833984 35.851562 z "
       transform="matrix(0.26458333,0,0,0.26458333,72.417996,118.00562)" />
  </g>
</svg>
