<?xml version="1.0" encoding="UTF-8" standalone="no"?>
<!-- Created with Inkscape (http://www.inkscape.org/) -->

<svg
   width="10.978445mm"
   height="10.978445mm"
   viewBox="0 0 10.978445 10.978445"
   version="1.1"
   id="svg2507"
   inkscape:version="1.1 (c4e8f9ed74, 2021-05-24)"
   sodipodi:docname="turtle.svg"
   xmlns:inkscape="http://www.inkscape.org/namespaces/inkscape"
   xmlns:sodipodi="http://sodipodi.sourceforge.net/DTD/sodipodi-0.dtd"
   xmlns="http://www.w3.org/2000/svg"
   xmlns:svg="http://www.w3.org/2000/svg">
  <sodipodi:namedview
     id="namedview2509"
     pagecolor="#ffffff"
     bordercolor="#666666"
     borderopacity="1.0"
     inkscape:pageshadow="2"
     inkscape:pageopacity="0.0"
     inkscape:pagecheckerboard="0"
     inkscape:document-units="mm"
     showgrid="false"
     fit-margin-top="0"
     fit-margin-left="0"
     fit-margin-right="0"
     fit-margin-bottom="0"
     inkscape:zoom="24.886869"
     inkscape:cx="32.085193"
     inkscape:cy="19.970371"
     inkscape:window-width="3440"
     inkscape:window-height="1406"
     inkscape:window-x="0"
     inkscape:window-y="394"
     inkscape:window-maximized="1"
     inkscape:current-layer="layer1" />
  <defs
     id="defs2504" />
  <g
     inkscape:label="Layer 1"
     inkscape:groupmode="layer"
     id="layer1"
     transform="translate(-36.356138,-87.04686)">
    <path
       style="color:#000000;fill:#ffffff;stroke-width:0.254;stroke-linecap:round;stroke-linejoin:round;-inkscape-stroke:none;fill-opacity:1"
       d="m 47.207582,92.536079 a 5.3622222,5.3622222 0 0 1 -5.362222,5.362223 5.3622222,5.3622222 0 0 1 -5.362222,-5.362223 5.3622222,5.3622222 0 0 1 5.362222,-5.362222 5.3622222,5.3622222 0 0 1 5.362222,5.362222 z"
       id="path945" />
    <path
       style="color:#000000;fill:#000000;stroke-linecap:round;stroke-linejoin:round;-inkscape-stroke:none"
       d="m 41.845703,87.046875 c -3.030106,0 -5.490234,2.458175 -5.490234,5.488281 0,3.030107 2.460128,5.490235 5.490234,5.490235 3.030107,0 5.488281,-2.460128 5.488281,-5.490235 0,-3.030106 -2.458174,-5.488281 -5.488281,-5.488281 z m 0,0.253906 c 2.892835,0 5.234375,2.34154 5.234375,5.234375 0,2.892835 -2.34154,5.236328 -5.234375,5.236328 -2.892835,0 -5.236328,-2.343493 -5.236328,-5.236328 0,-2.892835 2.343493,-5.234375 5.236328,-5.234375 z"
       id="path947" />
    <path
       id="path2358"
       style="color:#000000;clip-rule:nonzero;display:inline;overflow:visible;visibility:visible;isolation:auto;mix-blend-mode:normal;color-interpolation:sRGB;color-interpolation-filters:linearRGB;solid-color:#000000;solid-opacity:1;fill:#acf398;fill-opacity:1;fill-rule:evenodd;stroke:none;stroke-width:0.254;stroke-linecap:round;stroke-linejoin:miter;stroke-miterlimit:4;stroke-dasharray:none;stroke-dashoffset:0;stroke-opacity:1;color-rendering:auto;image-rendering:auto;shape-rendering:auto;text-rendering:auto;enable-background:accumulate"
       d="m 43.416688,88.221982 c -0.03785,1.26e-4 -0.07846,0.0024 -0.122473,0.0062 -0.377838,0.0324 -0.987148,0.446095 -1.065568,0.989604 -0.03274,0.22692 -0.08654,0.481432 -0.104386,0.728637 -0.289064,-0.04211 -0.589737,-0.04472 -0.899687,-0.0041 -0.06455,0.0085 -0.135819,0.02385 -0.21084,0.04444 -0.205675,-0.380632 -0.60703,-0.712272 -1.010791,-0.753959 -0.558037,-0.05762 -1.609531,0.18198 -2.014347,0.930176 -0.15243,0.281729 1.219359,-0.314965 2.01228,0.29869 0.01651,0.01277 0.03217,0.0261 0.04703,0.03979 -0.09407,0.08079 -0.180975,0.168807 -0.255282,0.264066 -0.692895,0.888275 -0.934794,2.075684 -0.772046,3.197738 -0.566676,0.250676 -1.100332,0.877726 -0.917773,1.342553 0.08276,0.210716 0.572336,-0.250784 1.163753,-0.392224 0.187049,0.432499 0.560252,0.804059 0.984953,1.043347 -0.05367,0.307036 -0.0023,0.616517 0.104903,0.649573 0.124459,0.03838 0.348795,-0.153413 0.507463,-0.409277 0.539543,0.122632 1.161576,0.04663 1.626257,-0.234094 0.496348,0.418374 0.538904,1.041617 0.70435,0.93896 0.46298,-0.287271 0.397171,-1.145856 0.08061,-1.564762 0.706513,-0.714784 1.203203,-1.692401 1.332218,-2.656169 0.01018,-0.07606 0.01543,-0.153447 0.01654,-0.232027 0,0 5.17e-4,0 5.17e-4,0 0.70437,0.02206 1.484977,1.435263 1.558561,1.274341 0.287824,-0.629412 0.03276,-1.729155 -0.535368,-2.124418 -0.362668,-0.252308 -0.875997,-0.364035 -1.348238,-0.330213 -0.06726,-0.107103 -0.144417,-0.205936 -0.230994,-0.293522 -0.189162,-0.191365 -0.390266,-0.359231 -0.60203,-0.501778 0.163767,-0.199718 0.299086,-0.439211 0.435115,-0.648539 0.296512,-0.456288 0.11887,-1.082252 -0.03514,-1.338936 -0.122727,-0.204551 -0.245169,-0.264744 -0.449585,-0.264067 z" />
    <path
       id="path5893"
       style="color:#000000;fill:#000000;fill-rule:evenodd;stroke-width:0.264583;stroke-linecap:round;-inkscape-stroke:none"
       d="m 43.441494,88.094858 c -0.05082,-0.001 -0.102863,0.002 -0.15813,0.0067 -0.228973,0.01963 -0.489012,0.142333 -0.715719,0.332279 -0.226706,0.189947 -0.419372,0.452584 -0.464571,0.765845 -0.02643,0.183161 -0.06819,0.391421 -0.0925,0.605131 -0.259547,-0.02746 -0.527055,-0.02457 -0.801502,0.01137 -0.04254,0.0056 -0.08783,0.01436 -0.133842,0.02429 -0.233307,-0.376827 -0.628124,-0.689281 -1.059367,-0.733805 -0.05706,-0.0059 -0.117812,-0.0093 -0.181901,-0.0093 -0.309231,-5e-6 -0.692442,0.06797 -1.053682,0.225826 -0.361241,0.15786 -0.702472,0.408094 -0.903304,0.77928 -0.01678,0.03101 -0.03377,0.07049 -0.02481,0.124541 0.009,0.05405 0.05503,0.101217 0.09147,0.118855 0.07288,0.03528 0.124299,0.02697 0.190686,0.02326 0.132774,-0.0075 0.310911,-0.0366 0.517281,-0.05478 0.384851,-0.03389 0.851226,-0.02654 1.198377,0.195854 -0.0558,0.05596 -0.108173,0.115194 -0.15658,0.17725 -0.698856,0.895917 -0.952791,2.075588 -0.810803,3.201355 -0.273063,0.13829 -0.526669,0.349525 -0.70435,0.590661 -0.196306,0.266414 -0.307524,0.583217 -0.193786,0.872815 0.02101,0.0535 0.07238,0.105251 0.128674,0.123507 0.05629,0.01826 0.106434,0.01207 0.152445,0.001 0.09202,-0.02176 0.181854,-0.06783 0.286805,-0.121956 0.184474,-0.09514 0.408082,-0.217793 0.644921,-0.290422 0.202088,0.403247 0.547316,0.742842 0.941028,0.975135 -0.01456,0.129586 -0.01306,0.254078 0.0041,0.360701 0.0109,0.06692 0.02697,0.127869 0.05271,0.179834 0.02574,0.05196 0.06346,0.102246 0.130741,0.12299 0.124197,0.0383 0.233055,-0.0287 0.335897,-0.113171 0.08088,-0.06643 0.160849,-0.154455 0.232544,-0.255282 0.525675,0.106529 1.109436,0.03766 1.578715,-0.215491 0.185672,0.179315 0.296157,0.391117 0.378788,0.56379 0.04595,0.09601 0.0802,0.177853 0.128157,0.247014 0.02398,0.03458 0.05204,0.07071 0.10542,0.09457 0.05339,0.02386 0.130036,0.01418 0.176217,-0.01447 0.281862,-0.174891 0.390221,-0.509699 0.392224,-0.839742 0.0018,-0.290131 -0.07429,-0.587704 -0.215491,-0.818038 0.688047,-0.726782 1.16528,-1.693739 1.293978,-2.655135 0.0044,-0.0325 0.0075,-0.06522 0.01034,-0.09819 0.251301,0.07961 0.556048,0.35726 0.801501,0.639237 0.143476,0.164825 0.268671,0.32525 0.366902,0.439767 0.04912,0.05726 0.08881,0.102329 0.134359,0.137976 0.02278,0.01782 0.04474,0.03763 0.09612,0.04547 0.02569,0.0039 0.06289,0.0012 0.09457,-0.01654 0.03168,-0.01771 0.05216,-0.04605 0.06253,-0.06873 0.161446,-0.35305 0.165159,-0.808006 0.06098,-1.233 -0.104191,-0.424993 -0.317678,-0.824436 -0.639754,-1.048514 -0.349426,-0.243096 -0.810484,-0.359803 -1.257805,-0.359152 -0.03247,4.8e-5 -0.06498,0.0011 -0.09715,0.0026 -0.0619,-0.08999 -0.130629,-0.174184 -0.206706,-0.251147 -0.161606,-0.163489 -0.332238,-0.310622 -0.51108,-0.440284 0.135596,-0.183851 0.249677,-0.381571 0.360702,-0.552421 0.169027,-0.260109 0.199813,-0.561735 0.171048,-0.827339 -0.02876,-0.265604 -0.11425,-0.497031 -0.203605,-0.645956 -0.0656,-0.109343 -0.138595,-0.193214 -0.22996,-0.248047 -0.09137,-0.05483 -0.194818,-0.07586 -0.303857,-0.07803 z m -0.0052,0.254248 c 0.08206,0.0016 0.133286,0.01433 0.178284,0.04134 0.045,0.02701 0.09005,0.07308 0.142627,0.160714 0.06466,0.107759 0.145066,0.317498 0.169499,0.543119 0.02443,0.225621 -0.0043,0.465286 -0.131775,0.661458 -0.118101,0.181741 -0.23259,0.3781 -0.358635,0.548288 -0.363641,-0.227769 -0.757208,-0.38512 -1.174605,-0.462505 0.02269,-0.201163 0.06425,-0.409827 0.0925,-0.605647 0.03322,-0.230248 0.184709,-0.446321 0.376721,-0.607198 0.192012,-0.160878 0.425261,-0.261121 0.574125,-0.273886 0.05036,-0.0043 0.09388,-0.0064 0.131258,-0.0057 z m -0.375687,0.254248 a 0.11105068,0.151614 44.551335 0 0 -0.116789,0.05529 0.11105068,0.151614 44.551335 0 0 -0.02687,0.186035 0.11105068,0.151614 44.551335 0 0 0.185519,-0.03049 0.11105068,0.151614 44.551335 0 0 0.02687,-0.185518 0.11105068,0.151614 44.551335 0 0 -0.06873,-0.02532 z m 0.60048,0.233578 a 0.11105068,0.151614 2.622903 0 0 -0.110071,0.146244 0.11105068,0.151614 2.622903 0 0 0.10387,0.156579 0.11105068,0.151614 2.622903 0 0 0.117822,-0.146244 0.11105068,0.151614 2.622903 0 0 -0.10387,-0.156579 0.11105068,0.151614 2.622903 0 0 -0.0078,0 z m -3.827157,0.514697 c 0.05601,10e-7 0.108494,0.0023 0.156063,0.0072 0.298626,0.03083 0.624825,0.265564 0.828373,0.553971 -0.2553,0.08893 -0.531259,0.231966 -0.773079,0.423747 -0.435731,-0.315859 -0.993921,-0.312644 -1.416451,-0.275436 -0.183647,0.01617 -0.321737,0.03562 -0.431498,0.04599 0.171303,-0.23998 0.407751,-0.430357 0.684712,-0.551387 0.324606,-0.141851 0.680632,-0.204126 0.95188,-0.204122 z m 1.795756,0.688847 c 0.164103,-0.002 0.324959,0.0085 0.482141,0.03152 l -0.06873,0.344165 c -0.192041,-0.02754 -0.386934,-0.03436 -0.580327,-0.01964 h -0.0021 c -0.04882,0.0055 -0.09698,0.01287 -0.144177,0.02171 l -0.109554,-0.344682 c 0.01115,-0.0018 0.0224,-0.0038 0.03307,-0.0052 0.131783,-0.01726 0.261808,-0.02635 0.38964,-0.02791 z m 0.656291,0.06253 c 0.314258,0.06535 0.61353,0.181121 0.895552,0.342098 l -0.170015,0.28267 c -0.08512,-0.04116 -0.17553,-0.07898 -0.271301,-0.112654 -0.167875,-0.07412 -0.343589,-0.130038 -0.522966,-0.167949 z m -1.253154,0.01085 0.109554,0.345199 c -0.222063,0.06298 -0.424132,0.163002 -0.605131,0.291972 l -0.238228,-0.28112 c 0.240166,-0.167262 0.510151,-0.290871 0.733805,-0.356051 z m 2.300635,0.42323 c 0.01727,0.01111 0.03454,0.02213 0.05168,0.03359 a 0.12699999,0.12699999 0 0 0 5.17e-4,5.17e-4 0.12699999,0.12699999 0 0 0 0.0016,0.001 c 0.2075,0.139049 0.404746,0.303873 0.591178,0.492477 0.04897,0.04954 0.09492,0.10321 0.137459,0.160713 l -0.305924,0.181901 C 43.657544,91.175485 43.445263,90.971761 43.16763,90.810421 Z m -1.629874,0.03049 c 0.333937,0.0049 0.667431,0.07625 0.972033,0.211874 l 0.0021,0.0021 0.0041,0.0016 c 0.246737,0.08675 0.450996,0.198411 0.618567,0.329696 l -0.478007,0.410827 -1.043864,-0.368453 z m -0.180351,0.0041 0.0801,0.614949 -0.522965,0.251664 -0.653707,-0.366386 c 0.282796,-0.269422 0.634,-0.45008 1.053682,-0.497644 0.01426,-0.0011 0.02861,-0.0018 0.04289,-0.0026 z m -1.367359,0.0062 0.240296,0.283187 c -0.145788,0.123672 -0.275672,0.266915 -0.389124,0.42478 l -0.288354,-0.196887 c 0.0544,-0.08398 0.111874,-0.166291 0.173632,-0.245464 0.07453,-0.09554 0.164785,-0.184472 0.26355,-0.265616 z m 0.142111,0.627868 0.69298,0.387574 0.124024,0.712101 -0.512114,0.394808 -0.900203,-0.321944 c 0.08369,-0.322394 0.212373,-0.628056 0.383439,-0.891936 0.06475,-0.09988 0.13535,-0.193734 0.211874,-0.280603 z m 3.138309,0.02584 c 0.18288,0.177547 0.310363,0.383286 0.391707,0.608232 0.0709,0.196051 0.105915,0.407526 0.109555,0.626835 l -0.77618,-0.164848 -0.207223,-0.657841 z m -3.811137,0.0098 0.283187,0.192236 c -0.114418,0.18378 -0.209572,0.38368 -0.284737,0.593246 l -0.302824,-0.110071 c 0.07959,-0.235029 0.180761,-0.461571 0.304374,-0.675411 z m 2.101164,0.08475 1.056783,0.371037 0.201021,0.634587 -0.548803,0.285253 -1.14825,-0.359151 -0.115239,-0.666109 z m 2.487704,0.04806 c 0.125894,0.213834 0.21228,0.461802 0.253731,0.713135 l -0.381372,0.03979 c -0.01978,-0.118992 -0.0497,-0.235138 -0.09043,-0.347782 -0.02703,-0.07475 -0.05868,-0.147744 -0.0956,-0.218592 z m 0.299206,0.01602 c 0.38586,0.0084 0.781005,0.117706 1.061951,0.313159 0.24605,0.171185 0.444018,0.519158 0.537435,0.900204 0.07824,0.319129 0.06417,0.642273 -0.01085,0.906404 -0.09082,-0.106043 -0.217696,-0.268512 -0.365869,-0.438733 -0.269745,-0.309884 -0.602309,-0.661495 -0.985986,-0.735355 -0.01108,-0.323778 -0.09176,-0.653295 -0.236678,-0.945679 z m -5.246191,0.695565 0.300757,0.111104 c -0.05438,0.180421 -0.09516,0.366716 -0.12144,0.555005 l -0.310059,-0.03566 c 0.02777,-0.213735 0.07117,-0.42497 0.130742,-0.630452 z m 5.22242,0.177767 c 0.0109,0.136225 0.0085,0.271374 -0.0088,0.400492 -0.01509,0.112701 -0.03614,0.2256 -0.0615,0.338481 l -0.339514,-0.06305 c 0.03515,-0.214145 0.04562,-0.427336 0.02842,-0.634586 z m -3.244246,0.168465 1.177706,0.36897 0.21394,0.702799 -0.645956,0.317294 -1.084688,-0.31161 -0.217041,-0.652156 z m 1.859317,0.03876 0.829407,0.176217 c -0.01409,0.236558 -0.06268,0.479764 -0.141076,0.720369 -0.04565,0.140085 -0.101678,0.278926 -0.166398,0.414962 l -0.816488,-0.318327 -0.220142,-0.72502 z m -3.442683,0.0832 0.838191,0.299207 0.225826,0.673861 -0.395841,0.305924 -0.7028,-0.03566 c -0.02777,-0.179518 -0.04099,-0.364759 -0.03927,-0.551387 0.0021,-0.231302 0.02713,-0.464517 0.0739,-0.691948 z m -0.544153,0.338481 0.308508,0.03514 c -0.0098,0.105439 -0.01505,0.210868 -0.01602,0.31626 -0.001,0.110799 0.0031,0.221369 0.01188,0.330729 l -0.311609,0.03101 c -0.01648,-0.237738 -0.01363,-0.476609 0.0072,-0.713135 z m 4.927864,0.220658 0.331246,0.06149 c -0.05992,0.222355 -0.1386,0.443086 -0.234094,0.658358 l -0.287838,-0.126607 c 0.03944,-0.09398 0.0748,-0.189183 0.105937,-0.284737 0.03333,-0.102279 0.06167,-0.205304 0.08475,-0.308509 z m -1.278474,0.523483 0.778763,0.305407 c -0.1944,0.362389 -0.451234,0.698077 -0.746207,0.972551 l -0.596863,-0.435633 -0.116272,-0.508496 z m -1.9389,0.03514 1.080037,0.310576 0.12299,0.545186 -0.519348,0.284737 -0.902271,-0.308508 -0.136942,-0.556555 z m -1.387512,0.07855 c 0.02831,0.215195 0.07628,0.424643 0.14521,0.622184 l -0.328662,0.10542 c -0.06156,-0.227489 -0.105255,-0.460849 -0.130741,-0.696082 z m 4.341853,0.116789 0.285254,0.126607 c -0.106913,0.218834 -0.23119,0.430533 -0.370003,0.631486 L 43.451312,94.43814 c 0.126195,-0.181205 0.237342,-0.373058 0.331246,-0.571024 z m -4.122229,0.11007 0.644922,0.03101 0.124024,0.504879 -0.411861,0.333313 c -0.168765,-0.249453 -0.287823,-0.547387 -0.357085,-0.869198 z m -0.736389,0.177767 c 0.04201,0.229231 0.09992,0.454912 0.174666,0.674377 -0.260763,0.08288 -0.489685,0.210338 -0.663008,0.299724 -0.09597,0.04949 -0.171717,0.08281 -0.215491,0.09508 -0.04991,-0.170487 0.0063,-0.381973 0.162781,-0.594279 0.134924,-0.183111 0.332079,-0.354879 0.541052,-0.474907 z m 0.726054,0.382406 c 0.07378,0.174063 0.164591,0.337016 0.273885,0.484208 0.01954,0.02632 0.03972,0.05175 0.06046,0.077 l -0.288872,0.244946 c -0.158255,-0.179997 -0.283165,-0.381696 -0.355533,-0.593762 -0.01161,-0.03402 -0.02281,-0.06798 -0.03359,-0.10232 z m 3.696932,0.04393 0.24753,0.189135 c -0.144356,0.193325 -0.303057,0.374441 -0.472839,0.540019 l -0.20774,-0.252181 c 0.156064,-0.144317 0.301387,-0.304806 0.433049,-0.476973 z m -1.195276,0.08113 0.511597,0.372587 c -0.293401,0.244621 -0.618245,0.427797 -0.953947,0.518831 l -0.109554,-0.586527 z m -1.624707,0.001 0.891418,0.304891 0.115756,0.622185 c -0.629238,0.02565 -1.090285,-0.211988 -1.41025,-0.601514 z m 2.254126,0.512114 0.21084,0.256831 c -0.162268,0.145506 -0.333961,0.27636 -0.513147,0.389641 l -0.15658,-0.328662 c 0.159801,-0.08971 0.313487,-0.196645 0.458887,-0.31781 z m -2.678389,0.05478 c 0.147027,0.148828 0.318681,0.272583 0.513663,0.364319 l -0.118855,0.343131 C 40.252222,95.82573 40.016236,95.664815 39.81791,95.472114 Z m 3.148645,0.309025 c 0.09188,0.176973 0.150156,0.410572 0.148828,0.629419 -0.0015,0.248149 -0.08584,0.452355 -0.232544,0.575158 -0.02267,-0.04011 -0.04859,-0.09066 -0.08682,-0.170532 -0.0793,-0.165709 -0.192789,-0.388822 -0.385506,-0.590661 0.195395,-0.130389 0.381759,-0.279204 0.556039,-0.443384 z m -1.086756,0.03617 0.158647,0.336414 C 42.09999,96.025421 41.84192,96.093065 41.578526,96.116 l -0.02635,-0.346232 c 0.0041,-1.87e-4 0.0082,-3.08e-4 0.0124,-5.17e-4 h 0.0036 l 0.0062,-0.0015 c 0.20229,-0.03574 0.399977,-0.101528 0.590145,-0.192237 z m -1.384411,0.08682 c 0.180437,0.06396 0.378214,0.101492 0.593245,0.10852 l 0.02687,0.353984 c -0.243401,0.0024 -0.485258,-0.03347 -0.7028,-0.107487 -0.01145,-0.0039 -0.02318,-0.0078 -0.03462,-0.01189 z m -0.447001,0.481624 c 0.09266,0.04471 0.187206,0.08345 0.282153,0.115755 0.02177,0.0074 0.04353,0.01444 0.06563,0.02119 -0.04909,0.06113 -0.100271,0.113412 -0.147795,0.152445 -0.06759,0.05552 -0.124561,0.07182 -0.141076,0.07545 0.0029,0.0037 0.0023,0.0033 -0.0052,0.001 4.1e-5,1.3e-5 0.0021,-5.26e-4 0.0052,-0.001 -0.0024,-0.0031 -0.0078,-0.0092 -0.01344,-0.02067 -0.01236,-0.02495 -0.02651,-0.06796 -0.03514,-0.120923 -0.01035,-0.0635 -0.01409,-0.14085 -0.01033,-0.223242 z" />
  </g>
</svg>
